<?xml version="1.0" encoding="UTF-8"?>
<svg width="128px" height="32px" viewBox="0 0 128 32" version="1.1" xmlns="http://www.w3.org/2000/svg" xmlns:xlink="http://www.w3.org/1999/xlink">
    <!-- Generator: Sketch 53.2 (72643) - https://sketchapp.com -->

    <desc>Created with Sketch.</desc>
    <g id="ID/Logos/cbsl-logo" stroke="none" stroke-width="1" fill="none" fill-rule="evenodd">
        <g id="Group" transform="translate(48.654971, 4.428765)" fill="#FFFFFF">
            <g transform="translate(0.000000, 1.845319)" id="Shape">
                <path d="M7.56930246,12.4191399 L8.23596912,14.4266438 C7.69539743,14.8530121 6.66835088,15.4217468 5.29883322,15.4217468 C2.36206409,15.4217468 0.271786667,13.3962214 0.271786667,10.5712966 C0.271786667,7.74637178 2.41615719,5.66750567 5.28092444,5.66750567 C6.66835088,5.66750567 7.64130433,6.20055924 8.25387789,6.66260863 L7.5510269,8.72345335 C7.13691696,8.35042583 6.41615719,7.83503197 5.35292632,7.83503197 C3.74949053,7.83503197 2.75826152,9.06116147 2.75826152,10.5536332 C2.75826152,12.1347688 3.8755855,13.2542131 5.44320374,13.2542131 C6.39788538,13.2542205 7.15482947,12.7564863 7.56930246,12.4191399 Z"></path>
                <polygon points="9.06418526 2.34485406 11.5506601 2.34485406 11.5506601 15.1907239 9.06418526 15.1907239"></polygon>
                <path d="M17.496567,5.66750936 C20.379243,5.66750936 22.5777067,7.76403517 22.5777067,10.5713003 C22.5777067,13.3785654 20.4516117,15.4217504 17.496567,15.4217504 C14.5594311,15.4217504 12.4333361,13.3785654 12.4333361,10.5713003 C12.4333361,7.74637547 14.6318035,5.66750936 17.496567,5.66750936 Z M17.496567,13.2542205 C18.9918166,13.2542205 20.0912318,12.1524359 20.0912318,10.5713003 C20.0912318,8.98980299 18.9918166,7.83503935 17.496567,7.83503935 C16.0009544,7.83503935 14.919811,8.97214328 14.919811,10.5713003 C14.9198147,12.1524322 16.0188632,13.2542205 17.496567,13.2542205 Z"></path>
                <path d="M23.3697385,11.2640145 L23.3697385,5.89853221 L25.8562133,5.89853221 L25.8562133,11.5483782 C25.8562133,12.5788005 26.5769731,13.2185357 27.4238316,13.2185357 C28.4508781,13.2185357 29.0992692,12.4724807 29.0992692,11.4773777 L29.0992692,5.89853221 L31.5857441,5.89853221 L31.5857441,15.1907202 L29.1533623,15.1907202 L29.1533623,14.1069571 C28.7571649,14.7466922 27.8562133,15.4217468 26.6310662,15.4217468 C23.9461277,15.4217468 23.3697385,13.2361991 23.3697385,11.2640145 Z"></path>
                <path d="M42.1263195,15.1907239 L39.7838484,15.1907239 L39.7838484,14.231302 C39.5316547,14.5333291 38.5948856,15.4217504 36.9910868,15.4217504 C34.2886026,15.4217504 32.3785132,13.4138848 32.3785132,10.5536406 C32.3785132,7.67501699 34.1445951,5.66750936 36.8470793,5.66750936 C38.4687906,5.66750936 39.4055598,6.55593075 39.6398409,6.87561748 L39.6398409,0.0254690909 L42.1263158,0.0254690909 L42.1263158,15.1907239 L42.1263195,15.1907239 Z M37.2973736,7.83503566 C35.8562171,7.83503566 34.8832636,8.95447989 34.8832636,10.5712966 C34.8832636,12.2234327 35.8920346,13.2542168 37.2973736,13.2542168 C38.8108987,13.2542168 39.7118465,12.0457507 39.7118465,10.5712966 C39.7118465,8.83013862 38.6668912,7.83503566 37.2973736,7.83503566 Z"></path>
                <path d="M43.5130161,0.0254690909 L45.999491,0.0254690909 L45.999491,6.87561379 C46.2337759,6.55592706 47.1705375,5.66750567 48.7922489,5.66750567 C51.4950999,5.66750567 53.260815,7.67500961 53.260815,10.5536369 C53.260815,13.4138811 51.3507256,15.4217468 48.6482414,15.4217468 C47.0444463,15.4217468 46.1076772,14.5333254 45.8554835,14.2312983 L45.8554835,15.1907202 L43.5130124,15.1907202 L43.5130124,0.0254690909 L43.5130161,0.0254690909 Z M48.3419584,13.2542205 C49.7472936,13.2542205 50.7560683,12.2234364 50.7560683,10.5713003 C50.7560683,8.95448358 49.7831149,7.83503935 48.3419584,7.83503935 C46.9724482,7.83503935 45.9274891,8.83014231 45.9274891,10.5713003 C45.9274891,12.0457507 46.8284407,13.2542205 48.3419584,13.2542205 Z"></path>
                <path d="M57.2421764,9.23884722 C58.1972211,9.23884722 58.9358896,9.52285286 59.2783607,9.7538794 L59.2783607,9.14982535 C59.2783607,8.33240814 58.6657871,7.78169487 57.5667387,7.78169487 C56.6296028,7.78169487 55.7648393,8.0837219 55.0619883,8.43908972 L54.1252192,6.76893221 C54.9720777,6.20055924 56.3953216,5.66750567 57.8368412,5.66750567 C60.8638877,5.66750567 61.7648393,7.2309816 61.7648393,9.30984771 L61.7648393,15.1907202 L59.5667387,15.1907202 L59.4044594,14.5866662 C58.9179846,15.1020563 58.1972211,15.4217468 57.1160814,15.4217468 C55.2063588,15.4217468 53.5846475,14.2669794 53.5846475,12.3124583 C53.5846475,10.4822747 55.0440758,9.23884722 57.2421764,9.23884722 Z M57.7107425,13.5205664 C58.6478784,13.5205664 59.3324538,13.0231939 59.3324538,12.2414578 C59.3324538,11.4240406 58.6478784,10.9443278 57.6928337,10.9443278 C56.737789,10.9443278 56.0711223,11.4773814 56.0711223,12.2414578 C56.0711223,13.0051725 56.7739733,13.5205664 57.7107425,13.5205664 Z"></path>
                <path d="M62.4132304,13.6982485 L63.8726587,12.4191399 C64.3408618,12.9521934 64.9717071,13.4319025 66.034575,13.4319025 C66.737426,13.4319025 67.1877165,13.1298755 67.1877165,12.5968219 C67.1877165,11.1753507 62.737426,11.7260602 62.737426,8.42142632 C62.737426,6.69792803 64.2330386,5.66750567 66.1606699,5.66750567 C67.9446606,5.66750567 68.9355228,6.59124646 69.3861801,7.31964179 L67.74656,8.5281079 C67.458182,8.17274008 66.9355228,7.63968651 66.0528468,7.63968651 C65.4760908,7.63968651 65.0798933,7.92405384 65.0798933,8.38574155 C65.0798933,9.8605536 69.5480964,9.14981796 69.5480964,12.4724733 C69.5480964,14.2846354 67.9625694,15.4217394 65.9267518,15.4217394 C64.0707593,15.4217468 62.917614,14.497648 62.4132304,13.6982485 Z"></path>
                <path d="M74.4307724,5.66750936 C77.3496327,5.66750936 79.0071616,7.58635311 79.0071616,10.6246411 C79.0071616,10.8023268 79.0071616,10.9800089 78.9892529,11.1576947 L72.3587705,11.1576947 C72.4124968,12.4011222 73.4216346,13.2895436 74.8090648,13.2895436 C76.088305,13.2895436 76.8269736,12.5434885 77.0974428,12.1524396 L78.7370629,13.3785691 C78.376683,14.035964 77.1153516,15.4217541 74.7728805,15.4217541 C71.7458339,15.4217541 69.8182026,13.3605477 69.8182026,10.571304 C69.8181988,7.76403517 71.7458302,5.66750936 74.4307724,5.66750936 Z M76.4848655,9.55853395 C76.4307724,8.42143001 75.6018227,7.67500961 74.4665899,7.67500961 C73.2955359,7.67500961 72.5389586,8.49242681 72.4307724,9.55853395 L76.4848655,9.55853395 Z"></path>
            </g>
            <g transform="translate(47.532164, 0.000000)" id="Shape">
                <path d="M0.281648655,5.3261955 L0.926020117,4.76142828 C1.13252678,4.99678024 1.41103532,5.20834236 1.88033123,5.20834236 C2.19063766,5.20834236 2.38946807,5.07498855 2.38946807,4.83964027 C2.38946807,4.21215805 0.424555789,4.4554375 0.424555789,2.99612244 C0.424555789,2.23529009 1.08500959,1.78044483 1.93625076,1.78044483 C2.72389614,1.78044483 3.16139789,2.18807208 3.3602283,2.50992152 L2.63617871,3.04333308 C2.50898713,2.88655479 2.27835883,2.65120282 1.88837053,2.65120282 C1.63398363,2.65120282 1.45891181,2.77662545 1.45891181,2.98062176 C1.45891181,3.63152847 3.43186339,3.3179682 3.43186339,4.78485275 C3.43186339,5.58497194 2.7315724,6.08702784 1.83281404,6.08702784 C1.0133745,6.08702784 0.504237661,5.67904261 0.281648655,5.3261955 Z"></path>
                <path d="M5.86571228,1.78044483 C7.13873965,1.78044483 8.1091331,2.70598665 8.1091331,3.94545042 C8.1091331,5.18491419 7.17053754,6.08702784 5.86571228,6.08702784 C4.56893006,6.08702784 3.63033076,5.1849105 3.63033076,3.94545042 C3.6303345,2.69805916 4.60109474,1.78044483 5.86571228,1.78044483 Z M5.86571228,5.13013037 C6.52616608,5.13013037 7.01154433,4.64357145 7.01154433,3.94545042 C7.01154433,3.24732939 6.52616234,2.73734231 5.86571228,2.73734231 C5.20562526,2.73734231 4.72828632,3.23939821 4.72828632,3.94545042 C4.72828632,4.64357145 5.21330152,5.13013037 5.86571228,5.13013037 Z"></path>
                <polygon points="8.57806971 0.313198589 9.67602152 0.313198589 9.67602152 5.98503338 8.57806971 5.98503338"></polygon>
                <path d="M10.3518241,4.25144119 L10.3518241,1.88243929 L11.4497759,1.88243929 L11.4497759,4.37686383 C11.4497759,4.8317054 11.7681254,5.1142717 12.1420276,5.1142717 C12.5952449,5.1142717 12.8817927,4.78485275 12.8817927,4.34550817 L12.8817927,1.88243929 L13.9793815,1.88243929 L13.9793815,5.98503338 L12.9055513,5.98503338 L12.9055513,5.50640195 C12.7304795,5.78896456 12.3328187,6.08702784 11.7918802,6.08702784 C10.6065778,6.08702784 10.3518241,5.12220288 10.3518241,4.25144119 Z"></path>
                <path d="M14.7509483,1.0192508 L15.8328178,1.0192508 L15.8328178,1.88244299 L16.6124239,1.88244299 L16.6124239,2.76077047 L15.8328178,2.76077047 L15.8328178,4.34551186 C15.8328178,4.95749341 16.0239719,5.08291973 16.4453913,5.08291973 C16.5170302,5.08291973 16.5568674,5.08291973 16.6445885,5.07499224 L16.6445885,6.00089574 C16.6445885,6.00089574 16.4771892,6.0398209 16.1749258,6.0398209 C15.1807738,6.0398209 14.743272,5.49091235 14.743272,4.37687121 L14.743272,2.76077417 L14.3054073,2.76077417 L14.3054073,1.88244668 L14.7509483,1.88244668 L14.7509483,1.0192508 L14.7509483,1.0192508 Z"></path>
                <path d="M17.6782147,0.274273433 C18.0444444,0.274273433 18.3225862,0.540981058 18.3225862,0.893824478 C18.3225862,1.24702958 18.0444444,1.5137372 17.6782147,1.5137372 C17.3203949,1.5137372 17.0418826,1.24702958 17.0418826,0.893824478 C17.0418826,0.540981058 17.3203911,0.274273433 17.6782147,0.274273433 Z M17.13728,1.88244299 L18.2352318,1.88244299 L18.2352318,5.98503338 L17.13728,5.98503338 L17.13728,1.88244299 Z"></path>
                <path d="M20.9475855,1.78044483 C22.2206129,1.78044483 23.1910063,2.70598665 23.1910063,3.94545042 C23.1910063,5.18491419 22.2524108,6.08702784 20.9475855,6.08702784 C19.6508033,6.08702784 18.712204,5.1849105 18.712204,3.94545042 C18.712204,2.69805916 19.6829642,1.78044483 20.9475855,1.78044483 Z M20.9475855,5.13013037 C21.6080393,5.13013037 22.0934175,4.64357145 22.0934175,3.94545042 C22.0934175,3.24732939 21.6080356,2.73734231 20.9475855,2.73734231 C20.2874985,2.73734231 19.8101595,3.23939821 19.8101595,3.94545042 C19.8101595,4.64357145 20.2951747,5.13013037 20.9475855,5.13013037 Z"></path>
                <path d="M27.2874966,3.61603148 L27.2874966,5.98503338 L26.1899078,5.98503338 L26.1899078,3.49060885 C26.1899078,3.03540559 25.8715584,2.75320098 25.4976561,2.75320098 C25.0444388,2.75320098 24.757891,3.08261992 24.757891,3.5219645 L24.757891,5.98503338 L23.6599392,5.98503338 L23.6599392,1.88244299 L24.7341361,1.88244299 L24.7341361,2.36071273 C24.909208,2.07850811 25.3068688,1.78044483 25.8478073,1.78044483 C27.0331135,1.78044483 27.2874966,2.74527349 27.2874966,3.61603148 Z"></path>
                <path d="M27.6774849,5.3261955 L28.3218564,4.76142828 C28.528363,4.99678024 28.8068716,5.20834236 29.2761675,5.20834236 C29.5864739,5.20834236 29.7853043,5.07498855 29.7853043,4.83964027 C29.7853043,4.21215805 27.820392,4.4554375 27.820392,2.99612244 C27.820392,2.23529009 28.4808458,1.78044483 29.332087,1.78044483 C30.1197324,1.78044483 30.5572342,2.18807208 30.7560646,2.50992152 L30.032015,3.04333308 C29.9048234,2.88655479 29.6741951,2.65120282 29.2842068,2.65120282 C29.0298199,2.65120282 28.8547481,2.77662545 28.8547481,2.98062176 C28.8547481,3.63152847 30.8276996,3.3179682 30.8276996,4.78485275 C30.8276996,5.58497194 30.1274087,6.08702784 29.2286503,6.08702784 C28.409207,6.08702784 27.9000702,5.67904261 27.6774849,5.3261955 Z"></path>
            </g>
        </g>
        <g id="ID/Logos/cbsl-logo-small" fill="#FFFFFF" fill-rule="nonzero">
            <path d="M25.9742882,27.0171111 C25.6044163,29.3176763 23.5449513,31.2198009 21.1792892,31.3692433 C17.7898506,31.5828025 14.4121471,31.5828025 11.0225923,31.369236 C8.50833223,31.2104064 6.3400756,29.0716996 6.17948233,26.5827057 C6.1104362,25.5220535 6.06370818,24.4568282 6.03903057,23.3870895 C5.67324195,23.3786821 5.34044128,23.3678236 5.01554578,23.3533526 C2.38045155,23.2397271 0.157520584,21.0422831 0.0481874405,18.4324493 C-0.0183568595,16.8191053 -0.0160557615,15.2137339 0.0555582623,13.6110353 C0.171225556,11.003036 2.39892693,8.8114825 5.03399517,8.7030271 C6.32356063,8.65119827 7.62668724,8.64354253 8.94742764,8.67889052 C9.7821192,6.96321438 11.5426335,5.77856964 13.4787,5.72605238 C14.3871763,5.70249831 15.2986796,5.70408977 16.2145458,5.73057567 C16.2958578,5.73284739 16.3772182,5.7372272 16.4585686,5.74367601 C16.4722591,5.4666075 16.4864775,5.2096785 16.5021948,4.95736065 C16.6583838,2.4424668 18.8351227,0.296036133 21.3744231,0.142582772 C24.502697,-0.0475249851 27.6228647,-0.0475249851 30.7508806,0.142567139 C33.2909519,0.296003172 35.4670253,2.44202585 35.6233525,4.95712932 C35.7407322,6.82766456 35.7853071,8.71242496 35.7585974,10.6173313 C36.2638623,10.6132977 36.7714536,10.6170926 37.2784383,10.6287779 C39.9992152,10.6933603 42.2732235,12.9359782 42.3390798,15.6301625 C42.3575616,16.3712282 42.35756,17.1140891 42.3390845,17.85568 C42.273327,20.5501606 39.9990084,22.7928248 37.2803738,22.8563121 C37.1186464,22.8605914 36.9541001,22.8638037 36.784601,22.8660385 C36.3729132,25.1879392 34.3000061,27.0447443 31.8817399,27.1471479 C30.2246808,27.2170567 28.5712331,27.2170567 26.9136347,27.147125 C26.5959722,27.1334819 26.2817558,27.0896849 25.9742882,27.0171111 Z M16.3882156,11.6169577 C16.3475081,10.1321882 16.3512036,8.65156872 16.3995129,7.17342419 C16.3241303,7.16626433 16.2489672,7.16161674 16.1741094,7.15952524 C15.2834272,7.13376797 14.397936,7.13222193 13.516433,7.15507615 C12.3291761,7.18728167 11.2202763,7.82073222 10.5430295,8.77636336 C12.1823356,9.0569729 13.6235481,10.144663 14.3657568,11.6350822 C15.0420555,11.6204475 15.7159624,11.6143889 16.3882156,11.6169577 Z M9.62942819,10.1299846 C9.60572103,10.1292854 9.60572103,10.1292854 9.58188039,10.1285867 C9.48585038,10.1257732 9.48585038,10.1257732 9.38709282,10.1225813 C7.93328312,10.0722101 6.50340557,10.0746433 5.0918262,10.1313757 C3.19263402,10.2095438 1.56296082,11.812773 1.48038,13.6747569 C1.4105926,15.2365771 1.40835032,16.80091 1.47319041,18.3729395 C1.55123222,20.2358317 3.17728381,21.8432399 5.07785404,21.9251934 C5.37658441,21.9384985 5.68306547,21.948679 6.01831495,21.9566858 C6.0089893,20.1616015 6.06258127,18.3647568 6.17902185,16.561666 C6.28718349,14.8969743 7.30301913,13.3435031 8.79146714,12.4697532 C9.48095861,12.0653757 10.243342,11.8243269 11.0235028,11.7750189 C11.5837004,11.7399914 12.150913,11.7107012 12.7275247,11.6868485 C12.052816,10.78682 10.9922868,10.1875206 9.85968677,10.1376453 C9.79419608,10.1350663 9.74608561,10.1334927 9.62942819,10.1299846 Z M37.2449434,21.4272306 C39.2094837,21.3813509 40.8662459,19.7476478 40.9132806,17.8203591 C40.9311739,17.1021334 40.9311739,16.3830198 40.9132811,15.6656983 C40.8662477,13.7384627 39.2095012,12.1045402 37.2451607,12.057913 C36.740821,12.0462889 36.23561,12.0427122 35.7249968,12.0472458 C35.7009451,12.7882166 35.6673105,13.5063705 35.6231505,14.2092277 C35.6219433,14.2284246 35.6206086,14.24765 35.6191475,14.2668997 C36.3611958,15.1324936 36.8055316,16.2069971 36.8544283,17.3309661 C36.9136908,18.701374 36.9233607,20.068633 36.8832959,21.4349069 C37.0060039,21.4329168 37.126223,21.4303707 37.2449434,21.4272306 Z M35.1091867,16.0879719 C34.3005765,17.701991 32.6433305,18.8830639 30.7715541,19.0202717 C30.8045856,19.0185841 30.8101691,19.0180365 30.8146153,19.0174118 C30.801036,19.0196998 30.7890023,19.02064 30.7504697,19.0236506 C29.2231365,19.1158094 27.6896611,19.1621354 26.1459153,19.1632984 C26.213024,21.294131 26.1911911,23.4268817 26.0806593,25.5662565 C26.3711652,25.6542874 26.6708266,25.7058606 26.9741535,25.7188882 C28.5912439,25.7871107 30.2046699,25.7871107 31.8216487,25.7188929 C33.7208853,25.6384681 35.348285,24.0337231 35.4299468,22.1594201 C35.4302993,22.1427308 35.4302993,22.1427308 35.4311463,22.1248874 C35.4983679,20.5497077 35.4976962,18.9736912 35.4293488,17.3931413 C35.4097615,16.9431843 35.2991418,16.500973 35.1091867,16.0879719 Z M30.6716625,17.5956451 C32.3850142,17.4882648 33.915709,16.0822038 34.1691949,14.4037824 C34.1838197,14.3066144 34.1941076,14.2116103 34.1998721,14.1199441 C34.2553986,13.2223671 34.2943424,12.2968395 34.3187579,11.3262969 C34.3688636,9.20952214 34.3299517,7.11881767 34.1999117,5.04663734 L34.1998828,5.0461747 C34.0887021,3.25598678 32.4904642,1.67976693 30.6648225,1.56948683 C27.5940399,1.38287286 24.5315218,1.38287286 21.460499,1.56950138 C19.635657,1.67977908 18.0368379,3.25633675 17.9256707,5.04630718 C17.8965568,5.51368803 17.8725918,5.9996522 17.8473239,6.6081101 C17.7784508,8.27967153 17.7678538,9.95426572 17.8152267,11.6345228 C18.7204057,11.6536459 19.6371526,11.6894983 20.5657157,11.7415695 C20.7170379,11.7489915 20.78599,11.7524472 20.870742,11.7569755 C20.9847514,11.763067 21.0855554,11.7690173 21.1793657,11.7753027 C22.5892231,11.8639238 23.9288457,12.5818044 24.8539717,13.6996575 C25.5392363,14.5273281 25.9569517,15.5276493 26.0236688,16.5619141 C26.0475738,16.9369312 26.0688646,17.3225516 26.0886143,17.7335247 C27.6070145,17.7334644 29.1198991,17.6888232 30.6572092,17.5981593 C30.6231512,17.6002422 30.6150716,17.6009475 30.6090554,17.6017982 C30.6225719,17.5995054 30.6342428,17.5985877 30.6716625,17.5956451 Z M24.6938836,18.4748994 C24.6687683,17.8483315 24.6378174,17.2442559 24.6001815,16.6538282 C24.5535445,15.9301337 24.2548608,15.2150571 23.7558885,14.6123922 C23.0762373,13.7901931 22.0960689,13.2646414 21.0901849,13.2014133 C20.9926123,13.1954653 20.9926123,13.1954653 20.893959,13.1899132 C20.7699583,13.1831651 20.7699583,13.1831651 20.6446364,13.1765931 C20.5691725,13.172631 20.5691725,13.172631 20.492294,13.1685261 C19.3441814,13.1050667 18.2208266,13.0660147 17.1166234,13.0520533 C16.0520717,13.0387186 14.9883892,13.0467179 13.9246036,13.076058 C12.9678028,13.1023705 12.0325238,13.1438439 11.1123269,13.201381 C10.5612866,13.2362081 10.0145328,13.4093929 9.51259657,13.7029959 C8.41974335,14.3448391 7.67836441,15.4783866 7.60269874,16.6542438 C7.47185558,18.6663872 7.42165993,20.6716375 7.4522523,22.6753681 C7.47039917,23.9540999 7.52038997,25.2252945 7.60272204,26.4900407 C7.71674775,28.2572945 9.30984272,29.8286782 11.1121887,29.9425351 C14.4420326,30.1523394 17.759965,30.1523394 21.0896928,29.9425424 C22.892078,29.828683 24.4854033,28.2573081 24.6000118,26.4928095 C24.6071329,26.3736603 24.6071329,26.3736603 24.6139202,26.2526309 C24.6207814,26.1303623 24.6207814,26.1303623 24.6281121,26.0082349 C24.7748522,23.4965254 24.7966832,20.9881386 24.6938836,18.4748994 Z" id="Combined-Shape"></path>
        </g>
    </g>
</svg>
