<?xml version="1.0" encoding="UTF-8"?>
<svg width="10px" height="10px" viewBox="0 0 10 10" version="1.1" xmlns="http://www.w3.org/2000/svg" xmlns:xlink="http://www.w3.org/1999/xlink">
    <!-- Generator: Sketch 57.1 (83088) - https://sketch.com -->
    <title>Icon/Question/16</title>
    <desc>Created with Sketch.</desc>
    <g id="Migrations" stroke="none" stroke-width="1" fill="none" fill-rule="evenodd">
        <g id="Wizard/03-Instances---List" transform="translate(-491.000000, -251.000000)">
            <g id="Icon/Question/16" transform="translate(491.000000, 251.000000)">
                <path d="M5.00021164,0 C2.23873016,0 0,2.23830688 0,4.99978836 C0,7.76126984 2.23873016,10 5.00021164,10 C7.76126984,10 10,7.76126984 10,4.99978836 C10,2.23830688 7.76126984,0 5.00021164,0 L5.00021164,0 Z" id="Fill-1-Copy" fill="#A4AAB5"></path>
                <path d="M5.42231076,6.84225352 C5.47543187,6.84225352 5.52191215,6.86197163 5.56175299,6.90140845 C5.60159382,6.94084527 5.62151394,6.98873211 5.62151394,7.04507042 L5.62151394,7.7971831 C5.62151394,7.85352141 5.60292183,7.90140825 5.56573705,7.94084507 C5.52855227,7.98028189 5.48074398,8 5.42231076,8 L4.63346614,8 C4.58034502,8 4.53519275,7.98028189 4.49800797,7.94084507 C4.46082319,7.90140825 4.44223108,7.85352141 4.44223108,7.7971831 L4.44223108,7.04507042 C4.44223108,6.98873211 4.46082319,6.94084527 4.49800797,6.90140845 C4.53519275,6.86197163 4.58034502,6.84225352 4.63346614,6.84225352 L5.42231076,6.84225352 Z M5.09561753,2 C5.53652279,2 5.89906896,2.07464714 6.18326693,2.22394366 C6.4674649,2.37324018 6.67463414,2.56337913 6.80478088,2.7943662 C6.93492761,3.02535327 7,3.26478749 7,3.51267606 C7,3.79436761 6.94023964,4.03943558 6.82071713,4.24788732 C6.70119462,4.45633907 6.52456956,4.6957733 6.29083665,4.96619718 C6.12084908,5.15774744 5.98937629,5.32253452 5.89641434,5.46056338 C5.80345239,5.59859224 5.74103602,5.74647808 5.70916335,5.90422535 C5.6879149,6.04507113 5.67463482,6.14084482 5.66932271,6.1915493 C5.64276215,6.2647891 5.61354598,6.31830969 5.58167331,6.35211268 C5.54980064,6.38591566 5.50464837,6.4028169 5.44621514,6.4028169 L4.65737052,6.4028169 C4.60956151,6.4028169 4.56972127,6.38591566 4.53784861,6.35211268 C4.50597594,6.31830969 4.49003984,6.27887346 4.49003984,6.23380282 C4.49003984,6.11549237 4.49269586,6.02535242 4.49800797,5.96338028 C4.52456853,5.69859023 4.604249,5.46478975 4.73705179,5.26197183 C4.86985458,5.05915392 5.05311968,4.83380406 5.28685259,4.58591549 C5.46746438,4.39436524 5.60159319,4.23662034 5.68924303,4.11267606 C5.77689287,3.98873177 5.82602916,3.85915561 5.83665339,3.72394366 C5.85790183,3.49295659 5.78751741,3.30985983 5.62549801,3.17464789 C5.46347861,3.03943594 5.26826143,2.97183099 5.03984064,2.97183099 C4.52456582,2.97183099 4.21381195,3.24506769 4.10756972,3.7915493 C4.07038494,3.92112741 3.99336048,3.98591549 3.87649402,3.98591549 L3.18326693,3.98591549 C3.13014582,3.98591549 3.08632155,3.96619738 3.05179283,3.92676056 C3.0172641,3.88732375 3,3.83662003 3,3.77464789 C3.01062422,3.46478718 3.09960076,3.17464924 3.26693227,2.90422535 C3.43426378,2.63380146 3.67463323,2.41549379 3.98804781,2.24929577 C4.30146239,2.08309776 4.67064861,2 5.09561753,2 Z" id="Combined-Shape" fill="#FFFFFF"></path>
            </g>
        </g>
    </g>
</svg>