<?xml version="1.0" encoding="UTF-8" standalone="no"?>
<svg    xmlns:dc="http://purl.org/dc/elements/1.1/"
   xmlns:cc="http://creativecommons.org/ns#"
   xmlns:rdf="http://www.w3.org/1999/02/22-rdf-syntax-ns#"
   xmlns:svg="http://www.w3.org/2000/svg"
   xmlns="http://www.w3.org/2000/svg"
   id="svg859"
   version="1.1"
   viewBox="0 0 48 48"
   height="48px"
   width="48px">
  <!-- Generator: Sketch 47.1 (45422) - http://www.bohemiancoding.com/sketch -->
  <desc
     id="desc849">Created with Sketch.</desc>
  <g
     fill-rule="evenodd"
     fill="none"
     stroke-width="1"
     stroke="none"
     id="Symbols">
    <g
       id="Icon/instance">
      <rect
         rx="8"
         height="48"
         width="48"
         y="0"
         x="0"
         fill="#D8DBE2"
         id="Rectangle-Copy-2" />
    </g>
  </g>
  <path
     style="fill:#0044ca;fill-opacity:1;stroke-width:0.100964"
     fill="#616770"
     d="m 23.538629,16.204026 c 0,0.100964 -0.100967,0.100964 -0.100967,0.100964 h -0.100959 c -0.100966,0 -0.100966,-0.100964 -0.201933,-0.201928 0,0 -0.100966,-0.100965 -0.100966,-0.201929 0,-0.100965 0,-0.100965 0.100966,-0.100965 l 0.201933,0.100965 c 0.100959,0.100964 0.201926,0.201929 0.201926,0.302893 m -1.817366,-1.009645 c 0,-0.504823 -0.201925,-0.807716 -0.504817,-0.807716 0,0 0,0.100964 -0.100966,0.100964 v 0.201929 h 0.302899 c 0,0.201929 0.100959,0.302893 0.100959,0.504823 h 0.201925 m 3.533765,-0.504823 c 0.201925,0 0.302891,0.201929 0.403858,0.504823 h 0.201925 c -0.100966,-0.100965 -0.100966,-0.20193 -0.100966,-0.302894 0,-0.100964 0,-0.201929 -0.100959,-0.302893 -0.100967,-0.100965 -0.201933,-0.201929 -0.302899,-0.201929 0,0 -0.100959,0.100964 -0.201926,0.100964 0,0.100965 0.100967,0.100965 0.100967,0.201929 m -3.028933,1.615432 c -0.100966,0 -0.100966,0 -0.100966,-0.100964 0,-0.100964 0,-0.201929 0.100966,-0.302893 0.201925,0 0.302892,-0.100965 0.302892,-0.100965 0.100959,0 0.100959,0.100965 0.100959,0.100965 0,0.100964 -0.100959,0.201929 -0.302892,0.403857 H 22.226095 M 21.11548,16.204026 c -0.403859,-0.201929 -0.504825,-0.504822 -0.504825,-1.009645 0,-0.302894 0,-0.504823 0.201933,-0.706752 0.100959,-0.201929 0.302892,-0.302893 0.504824,-0.302893 0.201926,0 0.302892,0.100964 0.504818,0.302893 0.100966,0.302894 0.201932,0.605787 0.201932,0.908681 v 0.201929 h 0.100967 v -0.100965 c 0.100966,0 0.100966,-0.201929 0.100966,-0.605787 0,-0.302893 0,-0.605787 -0.201933,-0.90868 -0.201932,-0.302893 -0.403858,-0.504823 -0.807716,-0.504823 -0.302899,0 -0.605791,0.20193 -0.70675,0.504823 -0.201933,0.403858 -0.242319,0.706751 -0.242319,1.211574 0,0.403858 0.141353,0.807716 0.545211,1.211574 0.100959,-0.100965 0.201925,-0.100965 0.302892,-0.201929 m 12.620561,14.235996 c 0.100967,0 0.100967,-0.04039 0.100967,-0.131253 0,-0.222122 -0.100967,-0.484632 -0.403858,-0.777428 -0.302892,-0.302894 -0.807717,-0.494725 -1.4135,-0.575498 -0.100966,-0.01009 -0.201933,-0.01009 -0.201933,-0.01009 -0.100959,-0.02018 -0.100959,-0.02018 -0.201925,-0.02018 -0.100967,-0.01009 -0.302899,-0.0303 -0.403858,-0.05048 0.302891,-0.938969 0.403858,-1.766879 0.403858,-2.493823 0,-1.009647 -0.201933,-1.716396 -0.605791,-2.322184 -0.403858,-0.605787 -0.807717,-0.90868 -1.312534,-1.009645 -0.100966,0.100965 -0.100966,0.100965 -0.100966,0.201929 0.504817,0.201929 1.009642,0.605787 1.312541,1.211575 0.302892,0.70675 0.403851,1.312538 0.403851,2.019288 0,0.565403 -0.100959,1.40341 -0.504818,2.473631 -0.403858,0.161544 -0.807716,0.535113 -1.110608,1.120707 0,0.09087 0,0.14135 0.100967,0.14135 0,0 0.100959,-0.09087 0.201925,-0.262506 0.201925,-0.171641 0.302892,-0.343282 0.504825,-0.514919 0.302891,-0.171641 0.504817,-0.262509 0.807709,-0.262509 0.504824,0 1.009649,0.07068 1.31254,0.212025 0.403859,0.131256 0.605791,0.272606 0.706758,0.434146 0.100959,0.151447 0.201925,0.292797 0.302892,0.424054 0,0.131253 0.100958,0.191831 0.100958,0.191831 m -9.28873,-14.639875 c -0.100966,-0.100964 -0.100966,-0.302894 -0.100966,-0.504823 0,-0.403858 0,-0.605787 0.201925,-0.90868 0.201933,-0.201929 0.403866,-0.302894 0.605791,-0.302894 0.302892,0 0.504825,0.201929 0.70675,0.403858 0.100967,0.302894 0.201933,0.504822 0.201933,0.807716 0,0.504823 -0.201933,0.807717 -0.605791,0.908681 0,0 0.100966,0.100964 0.201933,0.100964 0.201925,0 0.302892,0.100965 0.504824,0.201929 0.100959,-0.605786 0.201926,-1.009645 0.201926,-1.514468 0,-0.605786 -0.100967,-1.009644 -0.302892,-1.312537 -0.302899,-0.302894 -0.605791,-0.403859 -1.009649,-0.403859 -0.302892,0 -0.605784,0.100965 -0.908675,0.302894 -0.201933,0.302894 -0.3029,0.504822 -0.3029,0.807716 0,0.504822 0.100967,0.90868 0.3029,1.312539 0.100958,0 0.201925,0.100964 0.302891,0.100964 m 1.211575,1.615432 c -1.312541,0.908681 -2.322183,1.312539 -3.129899,1.312539 -0.706757,0 -1.413507,-0.302894 -2.019291,-0.807716 0.100959,0.201929 0.201925,0.403858 0.302892,0.504822 l 0.605791,0.605787 c 0.403851,0.403858 0.908675,0.605788 1.4135,0.605788 0.70675,0 1.514466,-0.403859 2.524108,-1.11061 l 0.908682,-0.605787 c 0.201926,-0.201929 0.403858,-0.403858 0.403858,-0.706752 0,-0.100965 0,-0.201929 -0.100966,-0.201929 -0.100966,-0.201929 -0.605783,-0.504823 -1.615425,-0.807716 -0.908683,-0.403858 -1.615433,-0.605787 -2.019291,-0.605787 -0.302899,0 -0.807716,0.201929 -1.514466,0.605787 -0.605791,0.403858 -1.009649,0.807716 -1.009649,1.211574 0,0 0.100966,0.100965 0.201925,0.302894 0.605791,0.504822 1.211575,0.807716 1.817365,0.807716 0.807717,0 1.817358,-0.403858 3.129899,-1.413504 v 0.20193 c 0.100967,0 0.100967,0.100964 0.100967,0.100964 m 2.322182,20.394833 c 0.403858,0.759252 1.110608,1.140896 1.918325,1.140896 0.201925,0 0.403858,-0.0303 0.605791,-0.09086 0.201925,-0.04039 0.403858,-0.111062 0.504817,-0.191834 0.100966,-0.07068 0.201933,-0.14135 0.302892,-0.222122 0.201932,-0.07068 0.201932,-0.121156 0.302899,-0.171638 l 1.716399,-1.484178 c 0.40385,-0.322079 0.807709,-0.60377 1.312533,-0.848103 0.403858,-0.242316 0.807717,-0.40386 1.009649,-0.494725 0.302887,-0.08077 0.504817,-0.201932 0.706747,-0.363472 0.10097,-0.151447 0.20193,-0.343282 0.20193,-0.585597 0,-0.292798 -0.20193,-0.514919 -0.40386,-0.67646 -0.20193,-0.161544 -0.403858,-0.272606 -0.605783,-0.343281 -0.201925,-0.07068 -0.403858,-0.232219 -0.706757,-0.504822 -0.201926,-0.26251 -0.403851,-0.625982 -0.504818,-1.100512 L 34.240866,31.288126 C 34.1399,31.015519 34.1399,30.813591 34.038941,30.702532 c 0,-0.0303 0,-0.04039 -0.100967,-0.04039 -0.100966,0 -0.302891,0.09087 -0.403858,0.26251 -0.201925,0.171637 -0.403858,0.363472 -0.605791,0.5654 -0.100959,0.201928 -0.40385,0.383666 -0.605783,0.555303 -0.302892,0.171641 -0.605784,0.26251 -0.807717,0.26251 -0.807716,0 -1.211574,-0.222122 -1.514466,-0.656269 -0.201925,-0.323088 -0.302892,-0.696657 -0.403858,-1.120707 -0.201933,-0.17164 -0.302899,-0.262509 -0.504825,-0.262509 -0.504824,0 -0.70675,0.525015 -0.70675,1.585144 v 3.139998 c 0,0.09087 -0.100966,0.292796 -0.100966,0.605787 -0.100966,0.312988 -0.100966,0.668384 -0.100966,1.070222 l -0.201926,1.120706 v 0.01718 m -14.639852,-0.5341 c 0.938965,0.13731 2.019283,0.431117 3.240962,0.8794 1.221663,0.444243 1.9688,0.676462 2.241409,0.676462 0.70675,0 1.292348,-0.31299 1.776979,-0.91777 0.100959,-0.19587 0.100959,-0.426067 0.100959,-0.690595 0,-0.954114 -0.575494,-2.160641 -1.726488,-3.624625 L 18.288472,32.67741 c -0.141345,-0.191831 -0.312988,-0.484628 -0.535107,-0.87839 -0.212029,-0.393763 -0.403865,-0.696657 -0.555307,-0.908682 -0.131257,-0.232219 -0.343279,-0.464434 -0.61588,-0.696653 -0.262513,-0.232219 -0.565405,-0.383666 -0.898587,-0.464438 -0.424051,0.08077 -0.716846,0.222122 -0.858199,0.413953 -0.141353,0.191835 -0.222119,0.40386 -0.242312,0.625982 -0.03033,0.212025 -0.09087,0.353375 -0.191836,0.42405 -0.100967,0.06058 -0.272602,0.111063 -0.504825,0.161544 -0.05045,0 -0.141345,0 -0.272602,0.01009 h -0.272601 c -0.535115,0 -0.898586,0.06058 -1.090423,0.161543 -0.252408,0.292797 -0.383665,0.625978 -0.383665,0.979353 0,0.161544 0.04039,0.434151 0.12116,0.817813 0.08077,0.373569 0.12116,0.676463 0.12116,0.888487 0,0.413958 -0.12116,0.82791 -0.373568,1.241867 -0.252409,0.434147 -0.383665,0.757235 -0.383665,0.987432 0.100959,0.391741 0.76733,0.667375 1.989001,0.828919 m 3.362114,-9.177674 c 0,-0.696656 0.181739,-1.463985 0.555308,-2.372666 0.363471,-0.908682 0.726943,-1.514469 1.080318,-1.918327 -0.02019,-0.100964 -0.07064,-0.100964 -0.15145,-0.100964 l -0.100959,-0.100965 c -0.292802,0.302894 -0.646177,1.009646 -1.070229,2.01929 -0.424044,0.908682 -0.64617,1.746688 -0.64617,2.36257 0,0.45434 0.111063,0.848102 0.312988,1.191381 0.222127,0.333184 0.757234,0.817813 1.605336,1.433697 l 1.070222,0.696653 c 1.140905,0.989453 1.746689,1.676013 1.746689,2.079869 0,0.212029 -0.100966,0.424054 -0.403858,0.656273 -0.201926,0.242312 -0.474527,0.363471 -0.70675,0.363471 -0.02019,0 -0.03033,0.02018 -0.03033,0.07068 0,0.01009 0.100967,0.212025 0.312989,0.605788 0.424051,0.575496 1.332734,0.858196 2.544308,0.858196 2.221224,0 3.937616,-0.908681 5.250157,-2.72604 0,-0.504823 0,-0.817813 -0.100967,-0.949066 v -0.373569 c 0,-0.656273 0.100967,-1.150998 0.302892,-1.474085 0.201933,-0.323084 0.403858,-0.474532 0.706757,-0.474532 0.201926,0 0.403851,0.07068 0.605784,0.222123 0.100966,-0.777429 0.100966,-1.453892 0.100966,-2.059675 0,-0.918779 0,-1.676014 -0.201933,-2.382763 -0.100966,-0.605788 -0.302891,-1.11061 -0.504817,-1.51447 L 28.37479,23.296795 C 28.172859,22.993897 28.071901,22.691003 27.869968,22.388109 27.769009,21.984251 27.668042,21.681358 27.668042,21.176536 27.365143,20.671713 27.163218,20.16689 26.860326,19.662068 26.658393,19.157246 26.456468,18.652423 26.254535,18.248564 l -0.908675,0.706752 c -1.009649,0.706752 -1.817366,1.009645 -2.524116,1.009645 -0.605783,0 -1.110608,-0.100965 -1.413499,-0.504822 l -0.605791,-0.504823 c 0,0.302894 -0.100967,0.706752 -0.302892,1.110609 L 19.863489,21.2775 c -0.282706,0.706751 -0.434156,1.110609 -0.464438,1.413503 -0.04039,0.201929 -0.07064,0.403859 -0.09087,0.403859 l -0.757233,1.514468 c -0.817813,1.514465 -1.231768,2.917872 -1.231768,4.078966 0,0.232219 0.02019,0.474532 0.06058,0.716847 -0.454342,-0.31299 -0.676468,-0.747138 -0.676468,-1.312538 m 7.229061,9.551242 c -1.312541,0 -2.322183,0.177699 -3.028933,0.530065 v -0.0303 c -0.504824,0.605788 -1.070229,0.918779 -1.857744,0.918779 -0.494728,0 -1.272155,-0.191835 -2.32219,-0.575497 -1.060125,-0.363472 -1.999098,-0.642136 -2.816911,-0.825892 -0.08077,-0.02322 -0.262505,-0.05755 -0.5553,-0.103993 -0.282706,-0.04543 -0.545211,-0.09188 -0.777427,-0.138322 -0.212029,-0.04543 -0.454341,-0.11409 -0.716846,-0.206977 -0.252416,-0.07976 -0.454342,-0.183756 -0.605791,-0.30996 -0.139334,-0.127214 -0.207991,-0.270585 -0.207991,-0.43112 0,-0.16154 0.03431,-0.33419 0.102986,-0.517946 0.06463,-0.111063 0.135295,-0.222122 0.205971,-0.323088 0.07064,-0.111059 0.131257,-0.212025 0.171636,-0.31299 0.06058,-0.09087 0.100966,-0.181734 0.141353,-0.2827 0.04039,-0.09087 0.08077,-0.181734 0.100966,-0.292798 0.02019,-0.100965 0.04039,-0.201927 0.04039,-0.302893 0,-0.100962 -0.04039,-0.403856 -0.12116,-0.938969 -0.08077,-0.525015 -0.12116,-0.8582 -0.12116,-0.99955 0,-0.444244 0.100967,-0.797619 0.323085,-1.050032 0.222126,-0.252409 0.434148,-0.383662 0.656274,-0.383662 h 1.161092 c 0.09086,0 0.232215,-0.05048 0.444244,-0.17164 0.07064,-0.161544 0.131249,-0.292798 0.171636,-0.413954 0.05052,-0.121159 0.07064,-0.212028 0.09087,-0.252413 0.02019,-0.06058 0.04039,-0.121156 0.06058,-0.17164 0.04039,-0.07068 0.09087,-0.151447 0.161539,-0.232219 -0.08076,-0.100962 -0.121152,-0.232216 -0.121152,-0.393759 0,-0.111063 0,-0.212025 0.02019,-0.272607 0,-0.363472 0.171643,-0.878391 0.535115,-1.554854 l 0.353375,-0.636074 c 0.292802,-0.54521 0.514921,-0.949066 0.67646,-1.352926 0.171643,-0.403856 0.353382,-1.009644 0.555308,-1.81736 0.161546,-0.706752 0.545211,-1.413503 1.150994,-2.120255 l 0.757233,-0.90868 c 0.525018,-0.605788 0.868296,-1.110611 1.060133,-1.514468 0.191828,-0.403858 0.292795,-0.908681 0.292795,-1.312539 0,-0.201929 -0.05052,-0.807716 -0.161547,-1.817361 -0.100966,-1.009645 -0.151442,-2.019291 -0.151442,-2.927971 0,-0.706751 0.06058,-1.211574 0.191829,-1.716397 0.131256,-0.504821 0.363472,-1.009643 0.70675,-1.413502 0.302899,-0.4038584 0.70675,-0.8077164 1.312541,-1.0096454 0.605783,-0.201929 1.312541,-0.302894 2.120257,-0.302894 0.302892,0 0.605784,0 0.908675,0.100965 0.3029,0 0.706758,0.100965 1.211575,0.302894 0.403865,0.201929 0.807716,0.403857 1.110615,0.706751 0.403858,0.3028944 0.70675,0.8077174 1.009642,1.3125394 0.201933,0.605786 0.403858,1.211573 0.504825,2.019289 0.100958,0.504822 0.100958,1.009645 0.201925,1.716397 0,0.605787 0.100966,1.009644 0.100966,1.312538 0.100967,0.302894 0.100967,0.706752 0.201933,1.211574 0.100959,0.403858 0.201925,0.807717 0.403851,1.11061 0.201933,0.403858 0.403865,0.807716 0.706757,1.211574 0.302892,0.504823 0.70675,1.009646 1.110608,1.615433 0.908683,1.009645 1.615433,2.120254 2.019291,3.230864 0.504825,1.009644 0.807716,2.322182 0.807716,3.725592 0,0.696653 -0.100966,1.373116 -0.302891,2.029385 0.201925,0 0.302891,0.08077 0.40385,0.222121 0.100967,0.14135 0.201933,0.444244 0.3029,0.918779 l 0.100966,0.747138 c 0.100966,0.222121 0.201925,0.434146 0.504817,0.615881 0.201933,0.181738 0.403858,0.333184 0.706758,0.45434 0.20192,0.100966 0.50482,0.242316 0.70675,0.424054 0.20192,0.201928 0.30289,0.413953 0.30289,0.636075 0,0.343278 -0.10097,0.59569 -0.30289,0.777429 -0.20193,0.201927 -0.40386,0.343277 -0.70675,0.434146 -0.201933,0.100963 -0.605792,0.302894 -1.211575,0.587612 -0.504825,0.298854 -1.009649,0.661317 -1.514474,1.090419 l -1.009641,0.859206 c -0.403859,0.393763 -0.807717,0.676463 -1.110608,0.848103 -0.3029,0.181735 -0.70675,0.272604 -1.110609,0.272604 l -0.706757,-0.08077 C 28.475759,38.954354 27.970934,38.550494 27.668042,37.934613 26.05261,37.738742 24.740076,37.641816 23.93236,37.641816"
     id="path1426" />
</svg>
