<?xml version="1.0" encoding="UTF-8"?>
<svg width="96px" height="67px" viewBox="0 0 96 67" version="1.1" xmlns="http://www.w3.org/2000/svg" xmlns:xlink="http://www.w3.org/1999/xlink">
    <!-- Generator: Sketch 47.1 (45422) - http://www.bohemiancoding.com/sketch -->

    <desc>Created with Sketch.</desc>
    <defs></defs>
    <g id="Coriolis" stroke="none" stroke-width="1" fill="none" fill-rule="evenodd" stroke-linecap="round">
        <g id="EP/List/Empty" transform="translate(-832.000000, -303.000000)" stroke="#0044CA" stroke-width="1.5">
            <g id="Splash" transform="translate(661.000000, 288.000000)">
                <g id="Icon/Endpoint/96-dashed" transform="translate(171.000000, 0.000000)">
                    <path d="M57.3997431,16 C69.5428443,16 79.2663177,25.986747 79.7833871,38.4764614 C88.5774203,40.9701731 95,49.2201808 95,59 C95,70.8147197 85.6844011,80.5 74.3197945,80.5 L17.9200514,80.5 C8.62307987,80.5 1,72.5739368 1,62.909151 C1,55.2865379 5.88807194,48.8215307 12.4564588,46.5380523 C12.8546985,35.0790105 21.8452823,25.7718859 32.9600257,25.7718859 C34.9133275,25.7718859 36.7310993,26.2723471 38.5418056,26.8118139 C42.5820122,20.4208511 49.4715602,16 57.3997431,16 Z" id="Stroke-1" stroke-dasharray="3.071241577466329,6.143633137146631,10.75107119480769,6.143633137146631"></path>
                    <path d="M40.5,55.5 L56.25,55.5" id="Stroke-7"></path>
                    <path d="M43.5,60.2488511 C42.1573941,62.3609835 39.8782832,63.75 37.2932951,63.75 L31.4770717,63.75 C27.3477289,63.75 24,60.2047335 24,55.830193 L24,55.1704963 C24,50.7959559 27.3477289,47.25 31.4770717,47.25 L37.2932951,47.25 C39.8763308,47.25 42.1528385,48.6362592 43.4960952,50.7456342" id="Stroke-9"></path>
                    <path d="M72,60.2488511 C70.6573941,62.3609835 68.3782832,63.75 65.7932951,63.75 L59.9770717,63.75 C55.8477289,63.75 52.5,60.2047335 52.5,55.830193 L52.5,55.1704963 C52.5,50.7959559 55.8477289,47.25 59.9770717,47.25 L65.7932951,47.25 C68.3763308,47.25 70.6528385,48.6362592 71.9960952,50.7456342" id="Stroke-9-Copy" transform="translate(62.250000, 55.500000) scale(-1, 1) translate(-62.250000, -55.500000) "></path>
                </g>
            </g>
        </g>
    </g>
</svg>
