<?xml version="1.0" encoding="UTF-8"?>
<svg width="64px" height="64px" viewBox="0 0 64 64" version="1.1" xmlns="http://www.w3.org/2000/svg" xmlns:xlink="http://www.w3.org/1999/xlink">
    <!-- Generator: Sketch 47.1 (45422) - http://www.bohemiancoding.com/sketch -->

    <desc>Created with Sketch.</desc>
    <defs></defs>
    <g id="Symbols" stroke="none" stroke-width="1" fill="none" fill-rule="evenodd">
        <g id="Icon/Migration/PageItem">
            <path d="M22.6219682,2 C18.5064103,2.03237774 13.5109139,4.94348867 11.4260994,8.52748422 L1.57033861,25.470743 C0.533014396,27.2571949 0.00823194196,29.5983677 0,31.9457916 L1.40746491e-17,32.0552922 C0.00822475496,34.3999953 0.530334713,36.7398104 1.57033861,38.5289842 L11.4260994,55.4722431 C13.5172441,59.0695321 18.5665935,62 22.6911683,62 L41.3087985,62 C45.4387421,62 50.4773539,59.077714 52.5752096,55.4722431 L62.4296282,38.5289842 C63.4564098,36.7617035 63.9812092,34.451693 64,32.1307733 L64,31.8689539 C63.9812092,29.549398 63.457752,27.2393875 62.4296282,25.470743 L52.5752096,8.52748422 C50.4943857,4.95024555 45.4908964,2.03241542 41.3778743,2 L22.6219682,2 L22.6219682,2 Z" id="Clip-2" fill="#FFFFFF"></path>
            <g id="Icon/Migration/48" stroke="#979797" transform="translate(8.000000, 8.000000)" stroke-width="1.5" stroke-linecap="round">
                <path d="M42.259696,19.1140118 C45.2318178,20.4791155 47,22.1857601 47,24.0353079 C47,25.934791 45.1342402,27.6836605 42.0143086,29.0665364 C43.4054881,34.2246793 42.9091688,38.8366483 40.2038517,41.5819352 C38.5976903,43.2128053 36.303174,44.0399034 33.5647186,43.9971392 C30.7127191,43.944165 27.5270877,42.9542804 24.3399638,41.2119456 C21.1530096,42.9541129 17.9674351,43.9439749 15.1154818,43.9974255 C12.3830122,44.0528245 10.0835078,43.2130916 8.47634872,41.5822214 C5.81652658,38.8831017 5.29203012,34.3795555 6.59730895,29.3265845 C3.11111383,27.9061084 1,26.0559263 1,24.0353079 C1,22.0629353 3.01062942,20.2530759 6.34777566,18.8466269 C4.98532884,13.7232164 5.49109498,9.14718292 8.18138231,6.41714784 C9.74165342,4.83292951 11.95237,4 14.5850781,4 C14.6628921,4 14.7417038,4.00097191 14.8205154,4.00194383 C17.7606292,4.05655469 21.055309,5.10686315 24.3405399,6.95077829 C27.6257312,5.1070407 30.9202283,4.05683811 33.859685,4.00223007 C33.9384967,4.00125816 34.0173083,4.00028625 34.0951223,4.00028625 C36.7278304,4.00028625 38.938547,4.83321576 40.4988181,6.41743409 C43.2357711,9.19482422 43.7117603,13.8828094 42.259696,19.1140118 Z M12.9782013,16.9255545 C10.4400735,17.4156957 8.19147668,18.0695944 6.34777566,18.8466269 C6.81931007,20.6198076 7.51462075,22.4585536 8.420595,24.30903 C9.57020798,21.8366141 11.0998865,19.3324255 12.9782013,16.9255545 Z M36.1180386,30.9181994 C38.3727354,30.4239653 40.3681057,29.796198 42.0143086,29.0665364 C41.5966342,27.5179052 41.0088238,25.9200427 40.2595781,24.3086849 C39.1740169,26.5258748 37.7859886,28.7599138 36.1180386,30.9181994 Z M42.259696,19.1140118 C40.4994525,18.3055271 38.3169129,17.6168419 35.8292926,17.089221 C35.1312669,16.1855372 34.3841709,15.2951116 33.589659,14.4247398 C30.7408656,11.3033183 27.5451983,8.74947008 24.3405399,6.95077829 C21.1355845,8.74948537 17.939486,11.303439 15.0905414,14.425026 C14.3441214,15.2427142 13.6395507,16.078102 12.9782013,16.9255545 C16.2526527,16.2932209 20.008991,15.9334404 23.9995035,15.9334404 C28.3224709,15.9334404 32.3707354,16.3556657 35.8292926,17.089221 C37.649507,19.4457218 39.136048,21.8923764 40.2595781,24.3086849 C41.1200793,22.5511659 41.7905283,20.804234 42.259696,19.1140118 Z M24.3399638,41.2119456 C27.6433717,39.4061182 30.9482621,36.7920013 33.8846254,33.5746295 C34.6767777,32.7068426 35.4217954,31.8191207 36.1180386,30.9181994 C32.5969249,31.6900346 28.4433546,32.1362035 23.9995035,32.1362035 C19.89294,32.1362035 16.034369,31.7551926 12.6937498,31.0882649 C10.9671041,28.8775076 9.53459323,26.5844009 8.420595,24.30903 C7.62939485,26.0106251 7.01821764,27.6971707 6.59730895,29.3265845 C8.32245878,30.0295096 10.3843361,30.6272091 12.6937498,31.0882649 C13.3517582,31.9307637 14.0524838,32.761303 14.7945774,33.5743433 C17.7314026,36.7916648 21.0364849,39.406002 24.3399638,41.2119456 Z" id="Combined-Shape" stroke="#0044CA"></path>
            </g>
        </g>
    </g>
</svg>
