<?xml version="1.0" encoding="UTF-8"?>
<svg width="48px" height="48px" viewBox="0 0 48 48" version="1.1" xmlns="http://www.w3.org/2000/svg" xmlns:xlink="http://www.w3.org/1999/xlink">
    <!-- Generator: Sketch 52.4 (67378) - http://www.bohemiancoding.com/sketch -->
    <title>Icon-CentOS</title>
    <desc>Created with Sketch.</desc>
    <g id="Coriolis" stroke="none" stroke-width="1" fill="none" fill-rule="evenodd">
        <g id="Wizard/06-Storage" transform="translate(-256.000000, -568.000000)">
            <g id="Elements/Item/Wizard/Network-Copy-2" transform="translate(256.000000, 560.000000)">
                <g id="Icon/Storage/Disk" transform="translate(0.000000, 8.000000)">
                    <path d="M10.2555408,-4.14336123e-16 L37.7444592,4.14336123e-16 C41.3105342,-2.4074122e-16 42.6036791,0.371302445 43.9073828,1.06853082 C45.2110865,1.76575919 46.2342408,2.78891348 46.9314692,4.09261719 C47.6286976,5.39632089 48,6.68946584 48,10.2555408 L48,37.7444592 C48,41.3105342 47.6286976,42.6036791 46.9314692,43.9073828 C46.2342408,45.2110865 45.2110865,46.2342408 43.9073828,46.9314692 C42.6036791,47.6286976 41.3105342,48 37.7444592,48 L10.2555408,48 C6.68946584,48 5.39632089,47.6286976 4.09261719,46.9314692 C2.78891348,46.2342408 1.76575919,45.2110865 1.06853082,43.9073828 C0.371302445,42.6036791 1.60494146e-16,41.3105342 -2.76224082e-16,37.7444592 L2.76224082e-16,10.2555408 C-1.60494146e-16,6.68946584 0.371302445,5.39632089 1.06853082,4.09261719 C1.76575919,2.78891348 2.78891348,1.76575919 4.09261719,1.06853082 C5.39632089,0.371302445 6.68946584,2.4074122e-16 10.2555408,-4.14336123e-16 Z" id="Rectangle-6" fill="#D8DBE2"></path>
                    <g id="Group-7" stroke-width="1" transform="translate(8.000000, 9.000000)">
                        <rect id="Rectangle-9-Copy-2" stroke="#0044CA" stroke-width="1.5" x="0" y="18" width="32" height="12" rx="3"></rect>
                        <path d="M10.0889749,22.7272727 C9.33954886,22.7272727 8.72727273,23.339182 8.72727273,24.088159 C8.72727273,24.8371359 9.33954886,25.450677 10.0889749,25.450677 C10.8384008,25.450677 11.450677,24.8371359 11.450677,24.088159 C11.450677,23.339182 10.8384008,22.7272727 10.0889749,22.7272727" id="Fill-7-Copy-4" fill="#0044CA"></path>
                        <path d="M5.72533849,22.7272727 C4.9759125,22.7272727 4.36363636,23.339182 4.36363636,24.088159 C4.36363636,24.8371359 4.9759125,25.450677 5.72533849,25.450677 C6.47476448,25.450677 7.08704062,24.8371359 7.08704062,24.088159 C7.08704062,23.339182 6.47476448,22.7272727 5.72533849,22.7272727" id="Fill-7-Copy-5" fill="#0044CA"></path>
                        <path d="M0,20.7733513 C0,19.6640071 0.314731068,17.9341977 0.70783827,16.8968716 L6.40327284,1.86783426 C6.79420112,0.836257883 8.00489723,0 9.11589056,0 L22.8841094,0 C23.9913186,0 25.20362,0.830508177 25.5967272,1.86783426 L31.2921617,16.8968716 C31.68309,17.928448 32,19.665145 32,20.7733513" id="Path" stroke="#0044CA" stroke-width="1.5"></path>
                    </g>
                </g>
            </g>
        </g>
    </g>
</svg>