<?xml version="1.0" encoding="UTF-8" standalone="no"?>
<svg xmlns:osb="http://www.openswatchbook.org/uri/2009/osb"
   xmlns:dc="http://purl.org/dc/elements/1.1/"
   xmlns:cc="http://creativecommons.org/ns#"
   xmlns:rdf="http://www.w3.org/1999/02/22-rdf-syntax-ns#"
   xmlns:svg="http://www.w3.org/2000/svg"
   xmlns="http://www.w3.org/2000/svg"
   xmlns:sodipodi="http://sodipodi.sourceforge.net/DTD/sodipodi-0.dtd"
   xmlns:inkscape="http://www.inkscape.org/namespaces/inkscape"
   sodipodi:docname="minion-pool-empty-list.svg"
   inkscape:version="1.0 (4035a4fb49, 2020-05-01)"
   id="svg8"
   version="1.1"
   viewBox="0 0 25.399999 25.400001"
   height="96"
   width="96">
  <defs
     id="defs2">
    <marker
       inkscape:isstock="true"
       style="overflow:visible;"
       id="Arrow1Mend"
       refX="0.0"
       refY="0.0"
       orient="auto"
       inkscape:stockid="Arrow1Mend">
      <path
         transform="scale(0.4) rotate(180) translate(10,0)"
         style="fill-rule:evenodd;stroke:#f91661;stroke-width:1pt;stroke-opacity:1;fill:#f91661;fill-opacity:1"
         d="M 0.0,0.0 L 5.0,-5.0 L -12.5,0.0 L 5.0,5.0 L 0.0,0.0 z "
         id="path3085" />
    </marker>
    <linearGradient
       osb:paint="solid"
       id="linearGradient2826">
      <stop
         id="stop2824"
         offset="0"
         style="stop-color:#feffff;stop-opacity:1;" />
    </linearGradient>
    <linearGradient
       osb:paint="solid"
       id="linearGradient2804">
      <stop
         id="stop2802"
         offset="0"
         style="stop-color:#feffff;stop-opacity:1;" />
    </linearGradient>
  </defs>
  <sodipodi:namedview
     inkscape:window-maximized="0"
     inkscape:window-y="55"
     inkscape:window-x="42"
     inkscape:window-height="868"
     inkscape:window-width="1032"
     units="px"
     showgrid="false"
     inkscape:document-rotation="0"
     inkscape:current-layer="layer1"
     inkscape:document-units="mm"
     inkscape:cy="88.210625"
     inkscape:cx="16.023473"
     inkscape:zoom="2.8"
     inkscape:pageshadow="2"
     inkscape:pageopacity="0.0"
     borderopacity="1.0"
     bordercolor="#666666"
     pagecolor="#ffffff"
     id="base" />
  <metadata
     id="metadata5">
    <rdf:RDF>
      <cc:Work
         rdf:about="">
        <dc:format>image/svg+xml</dc:format>
        <dc:type
           rdf:resource="http://purl.org/dc/dcmitype/StillImage" />
        <dc:title></dc:title>
      </cc:Work>
    </rdf:RDF>
  </metadata>
  <g
     id="layer1"
     inkscape:groupmode="layer"
     inkscape:label="Layer 1">
    <path
       style="fill:none;fill-rule:evenodd;stroke:#f91661;stroke-width:0.396875;stroke-linecap:round;stroke-dasharray:0.812599, 1.6255, 2.84456, 1.6255"
       d="m 41.444302,-33.90587 c -1.884894,-0.770533 -3.026318,-1.774198 -3.026318,-2.870415 0,-1.06957 1.087078,-2.051097 2.891361,-2.813875 -0.736607,-2.778883 -0.463145,-5.26087 0.991399,-6.741615 0.843592,-0.859273 2.038861,-1.311051 3.462288,-1.311051 0.04207,0 0.08468,5.27e-4 0.127294,0.0011 1.589632,0.02962 3.370966,0.599304 5.147193,1.599436 1.776205,-1.000036 3.557442,-1.569661 5.146719,-1.599281 0.04261,-5.26e-4 0.08522,-0.0011 0.127294,-0.0011 1.423427,0 2.618696,0.451778 3.462288,1.311051 1.479773,1.506429 1.737136,4.049133 0.95208,6.886477 1.606922,0.74035 2.562916,1.665894 2.562916,2.668858 0,1.030501 -1.008771,1.979213 -2.69564,2.729355 0.7522,2.797791 0.483864,5.299341 -0.978836,6.788389 -0.868403,0.884578 -2.108981,1.333192 -3.589582,1.309997 -1.541991,-0.02873 -3.264367,-0.565642 -4.987551,-1.510678 -1.723091,0.944945 -3.445435,1.481842 -4.987402,1.510833 -1.477365,0.03005 -2.720638,-0.425419 -3.589582,-1.309996 -1.4381,-1.464006 -1.721672,-3.906743 -1.015921,-6.647485 z m 15.960981,0.863336 c 1.219029,-0.268082 2.29785,-0.608598 3.187893,-1.004396 -0.225822,-0.839943 -0.543626,-1.706587 -0.948706,-2.58055 -0.586926,1.202586 -1.337385,2.41431 -2.239187,3.584946 z m -12.511027,-7.589544 c -1.372306,0.26584 -2.588069,0.620494 -3.584911,1.041918 0.254945,0.961792 0.630887,1.959148 1.120734,2.962867 0.621565,-1.341034 1.448621,-2.699302 2.464177,-4.004785 z m -3.449954,6.726208 c 0.93273,0.381294 2.047513,0.7055 3.296128,0.955585 0.355771,0.456975 0.734638,0.907463 1.135872,1.34846 1.587854,1.745062 3.374812,3.163067 5.160905,4.142603 1.786055,-0.979473 3.572911,-2.397359 5.160515,-4.142448 0.428301,-0.470693 0.831117,-0.952198 1.207561,-1.440864 -1.903765,0.418666 -4.149485,0.660668 -6.552153,0.660668 -2.220303,0 -4.306522,-0.20666 -6.1127,-0.568419 -0.933538,-1.199099 -1.708049,-2.442863 -2.310351,-3.677008 -0.427766,0.922912 -0.758204,1.83766 -0.985777,2.721423 z m 9.593217,-12.136466 c -1.732824,0.975611 -3.460859,2.360865 -5.001198,4.054001 -0.403562,0.443504 -0.784497,0.896609 -1.142065,1.356257 1.770395,-0.342957 3.801329,-0.538099 5.958874,-0.538099 2.337293,0 4.526062,0.229011 6.395997,0.626865 0.984144,1.278164 1.787879,2.605228 2.395343,3.915832 0.465263,-0.953303 0.827764,-1.900864 1.08143,-2.817663 -0.95172,-0.438482 -2.131771,-0.812001 -3.476773,-1.098169 -0.377397,-0.490146 -0.781323,-0.9731 -1.210884,-1.445179 -1.540258,-1.693045 -3.268061,-3.078242 -5.000724,-4.053845 z"
       id="Combined-Shape" />
    <path
       d="M 15.75651,5.8275724 V 2.7334477 H 9.6265686 V 5.8275886 Z M 2.1575418,9.0169413 V 21.488827 c 0,0.691189 0.5601197,1.256759 1.244792,1.256759 H 21.980562 c 0.684672,0 1.244792,-0.56557 1.244792,-1.256759 V 9.0169413 c 0,-0.6911908 -0.560303,-1.2567597 -1.244792,-1.2567597 H 3.4023338 c -0.6846723,0 -1.244792,0.5655689 -1.244792,1.2567597 z M 22.650196,5.8275886 c 1.3818,0 2.489676,1.118469 2.489676,2.5134137 V 22.164776 c 0,1.394943 -1.107968,2.513413 -2.489676,2.513413 H 2.7328093 c -1.3817997,0 -2.48965731,-1.11847 -2.48965731,-2.513413 L 0.25558892,8.3410023 c 0,-1.3949447 1.09551228,-2.5134137 2.47722038,-2.5134137 H 7.7121605 V 3.3141751 c 0,-1.3949428 1.1079675,-2.51341364 2.4896755,-2.51341364 h 4.979333 c 1.3818,0 2.489676,1.11847074 2.489676,2.51341364 v 2.5134135 z"
       style="opacity:1;fill:none;fill-opacity:1;stroke:#0044ca;stroke-width:0.486304;stroke-linecap:round;stroke-linejoin:round;stroke-miterlimit:3.9;stroke-dasharray:0.995704, 1.99178, 3.48554, 1.99178;stroke-dashoffset:0;stroke-opacity:1"
       id="path10" />
  </g>
</svg>
