<?xml version="1.0" encoding="UTF-8"?>
<svg width="290px" height="86px" viewBox="0 0 290 86" version="1.1" xmlns="http://www.w3.org/2000/svg" xmlns:xlink="http://www.w3.org/1999/xlink">
    <!-- Generator: Sketch 47.1 (45422) - http://www.bohemiancoding.com/sketch -->
    <title>Group 3</title>
    <desc>Created with Sketch.</desc>
    <defs></defs>
    <g id="Coriolis" stroke="none" stroke-width="1" fill="none" fill-rule="evenodd" stroke-linecap="round">
        <g id="302---New-Migration-from-Replica-6-Options" transform="translate(-143.000000, -117.000000)">
            <g id="Modal-Connection-Copy">
                <g id="Group-3" transform="translate(144.000000, 112.000000)">
                    <g id="Icon/Arrow/Big" transform="translate(128.000000, 38.000000)" stroke="#616870" stroke-width="2" stroke-linejoin="round">
                        <polyline id="Path-181-Copy-4" points="22 0 32 11 22 22"></polyline>
                        <path d="M0,10 L32,10" id="Line" transform="translate(16.000000, 10.500000) rotate(-180.000000) translate(-16.000000, -10.500000) "></path>
                    </g>
                    <g id="Icon/Replica/96" stroke="#F91661" stroke-width="1.3">
                        <path d="M86.1071918,37.7394247 C92.3098807,40.6061426 96,44.1900962 96,48.0741466 C96,52.0630612 92.1062405,55.7356872 85.5950787,58.6397265 C88.49841,69.4718266 87.4626132,79.1569614 81.816734,84.9220639 C78.464745,88.3468912 73.6761892,90.0837971 67.9611519,89.9939923 C62.009153,89.8827465 55.3608787,87.8039889 48.7094896,84.1450858 C42.0584547,87.8036371 35.4102994,89.8823473 29.4583969,89.9945935 C23.7558515,90.1109315 18.9568858,88.3474924 15.6028147,84.922665 C10.0518816,79.2545135 8.95728025,69.7970665 11.6813404,59.1858275 C4.40580278,56.2028277 -1.77635684e-13,52.3174452 -1.77635684e-13,48.0741466 C-1.77635684e-13,43.932164 4.19609619,40.1314593 11.1605753,37.1779166 C8.31720802,26.4187544 9.37271997,16.8090841 14.9872327,11.0760105 C18.2434506,7.74915198 22.85712,6 28.3514673,6 C28.5138618,6 28.6783383,6.00204102 28.8428148,6.00408203 C34.9787045,6.11876484 41.8545578,8.32441262 48.710692,12.1966344 C55.5667434,8.32478547 62.4422157,6.11936003 68.576734,6.00468315 C68.7412104,6.00264213 68.9056869,6.00060112 69.0680814,6.00060112 C74.5624287,6.00060112 79.1760982,7.7497531 82.4323161,11.0766116 C88.1442179,16.9091309 89.1375867,26.7538997 86.1071918,37.7394247 Z M24.9979853,33.1436645 C19.7010229,34.1729611 15.0082992,35.5461482 11.1605753,37.1779166 C12.1446471,40.901596 13.5957303,44.7629626 15.4864591,48.648963 C17.8856514,43.4568897 21.0780239,38.1980935 24.9979853,33.1436645 Z M73.2898197,62.5282187 C77.9952739,61.4903271 82.1595248,60.1720159 85.5950787,58.6397265 C84.7234104,55.3876008 83.4966759,52.0320896 81.9330325,48.6482384 C79.6675136,53.304337 76.7707587,57.995819 73.2898197,62.5282187 Z M86.1071918,37.7394247 C82.4336401,36.0416069 77.8787749,34.5953679 72.6872195,33.487364 C71.2304687,31.5896265 69.6713124,29.7197336 68.0132014,27.8919535 C62.0678935,21.3369685 55.3986746,15.9738872 48.710692,12.1966344 C42.0220894,15.9739193 35.3519707,21.3372219 29.4063474,27.8925546 C27.8486011,29.6096999 26.3781927,31.3640143 24.9979853,33.1436645 C31.831623,31.815764 39.6709378,31.0602249 47.9989638,31.0602249 C57.0208088,31.0602249 65.469361,31.9468979 72.6872195,33.487364 C76.4859265,38.4360141 79.5882737,43.5739896 81.9330325,48.6482384 C83.728861,44.9574485 85.1280592,41.2888913 86.1071918,37.7394247 Z M48.7094896,84.1450858 C55.6035584,80.3528482 62.5007209,74.8632027 68.6287835,68.106722 C70.2819709,66.2843694 71.8367904,64.4201535 73.2898197,62.5282187 C65.9414085,64.1490727 57.2730878,65.0860273 47.9989638,65.0860273 C39.4287443,65.0860273 31.3760744,64.2859045 24.4043473,62.8853563 C20.800913,58.242766 17.811325,53.4272419 15.4864591,48.648963 C13.8352588,52.2223128 12.5597585,55.7640585 11.6813404,59.1858275 C15.2816531,60.6619702 19.5847015,61.917139 24.4043473,62.8853563 C25.7775823,64.6546038 27.2399662,66.3987362 28.7886833,68.1061209 C34.9177098,74.862496 41.8152729,80.3526042 48.7094896,84.1450858 Z" id="Combined-Shape"></path>
                    </g>
                    <g id="Icon/Migration/96-dotted" transform="translate(192.000000, 0.000000)" stroke="#0044CA" stroke-width="1.3" stroke-dasharray="3.136587160442947,6.274348547699255,10.97981696172592,6.274348547699255">
                        <path d="M86.1071918,37.7394247 C92.3098807,40.6061426 96,44.1900962 96,48.0741466 C96,52.0630612 92.1062405,55.7356872 85.5950787,58.6397265 C88.49841,69.4718266 87.4626132,79.1569614 81.816734,84.9220639 C78.464745,88.3468912 73.6761892,90.0837971 67.9611519,89.9939923 C62.009153,89.8827465 55.3608787,87.8039889 48.7094896,84.1450858 C42.0584547,87.8036371 35.4102994,89.8823473 29.4583969,89.9945935 C23.7558515,90.1109315 18.9568858,88.3474924 15.6028147,84.922665 C10.0518816,79.2545135 8.95728025,69.7970665 11.6813404,59.1858275 C4.40580278,56.2028277 -1.77635684e-13,52.3174452 -1.77635684e-13,48.0741466 C-1.77635684e-13,43.932164 4.19609619,40.1314593 11.1605753,37.1779166 C8.31720802,26.4187544 9.37271997,16.8090841 14.9872327,11.0760105 C18.2434506,7.74915198 22.85712,6 28.3514673,6 C28.5138618,6 28.6783383,6.00204102 28.8428148,6.00408203 C34.9787045,6.11876484 41.8545578,8.32441262 48.710692,12.1966344 C55.5667434,8.32478547 62.4422157,6.11936003 68.576734,6.00468315 C68.7412104,6.00264213 68.9056869,6.00060112 69.0680814,6.00060112 C74.5624287,6.00060112 79.1760982,7.7497531 82.4323161,11.0766116 C88.1442179,16.9091309 89.1375867,26.7538997 86.1071918,37.7394247 Z M24.9979853,33.1436645 C19.7010229,34.1729611 15.0082992,35.5461482 11.1605753,37.1779166 C12.1446471,40.901596 13.5957303,44.7629626 15.4864591,48.648963 C17.8856514,43.4568897 21.0780239,38.1980935 24.9979853,33.1436645 Z M73.2898197,62.5282187 C77.9952739,61.4903271 82.1595248,60.1720159 85.5950787,58.6397265 C84.7234104,55.3876008 83.4966759,52.0320896 81.9330325,48.6482384 C79.6675136,53.304337 76.7707587,57.995819 73.2898197,62.5282187 Z M86.1071918,37.7394247 C82.4336401,36.0416069 77.8787749,34.5953679 72.6872195,33.487364 C71.2304687,31.5896265 69.6713124,29.7197336 68.0132014,27.8919535 C62.0678935,21.3369685 55.3986746,15.9738872 48.710692,12.1966344 C42.0220894,15.9739193 35.3519707,21.3372219 29.4063474,27.8925546 C27.8486011,29.6096999 26.3781927,31.3640143 24.9979853,33.1436645 C31.831623,31.815764 39.6709378,31.0602249 47.9989638,31.0602249 C57.0208088,31.0602249 65.469361,31.9468979 72.6872195,33.487364 C76.4859265,38.4360141 79.5882737,43.5739896 81.9330325,48.6482384 C83.728861,44.9574485 85.1280592,41.2888913 86.1071918,37.7394247 Z M48.7094896,84.1450858 C55.6035584,80.3528482 62.5007209,74.8632027 68.6287835,68.106722 C70.2819709,66.2843694 71.8367904,64.4201535 73.2898197,62.5282187 C65.9414085,64.1490727 57.2730878,65.0860273 47.9989638,65.0860273 C39.4287443,65.0860273 31.3760744,64.2859045 24.4043473,62.8853563 C20.800913,58.242766 17.811325,53.4272419 15.4864591,48.648963 C13.8352588,52.2223128 12.5597585,55.7640585 11.6813404,59.1858275 C15.2816531,60.6619702 19.5847015,61.917139 24.4043473,62.8853563 C25.7775823,64.6546038 27.2399662,66.3987362 28.7886833,68.1061209 C34.9177098,74.862496 41.8152729,80.3526042 48.7094896,84.1450858 Z" id="Combined-Shape"></path>
                    </g>
                </g>
            </g>
        </g>
    </g>
</svg>