<svg width="68" height="95" xmlns="http://www.w3.org/2000/svg">
  <g stroke-width="1.5" stroke="#0044CB" fill="none" fill-rule="evenodd">
    <path d="M11.256 1h45.488c3.567 0 4.86.371 6.163 1.069a7.27 7.27 0 0 1 3.024 3.024C66.63 6.396 67 7.689 67 11.256v71.837c0 3.566-.371 4.86-1.069 6.163a7.27 7.27 0 0 1-3.024 3.024c-1.303.697-2.596 1.068-6.163 1.068H11.256c-3.567 0-4.86-.37-6.163-1.068a7.27 7.27 0 0 1-3.024-3.024C1.37 87.952 1 86.659 1 83.093V11.256c0-3.567.371-4.86 1.069-6.163a7.27 7.27 0 0 1 3.024-3.024C6.396 1.37 7.689 1 11.256 1zM12 16.379h34.524M12 24.379h28.31M12 33.379h43.5M12 41.379h35.214M12 49.379h17.262"/>
    <path d="m49.44 62-.137.001c-3.388.062-7.584 2.358-10.949 5.993-5.162 5.575-6.893 12.58-3.858 15.616.937.937 2.279 1.42 3.873 1.388 3.388-.062 7.583-2.358 10.948-5.993 5.163-5.574 6.893-12.58 3.859-15.615-.91-.911-2.2-1.39-3.736-1.39"/>
    <path d="M43.916 69C36.243 69 30 71.09 30 73.659c0 2.568 6.243 4.658 13.916 4.658 7.674 0 13.917-2.09 13.917-4.658 0-2.57-6.243-4.659-13.917-4.659"/>
    <path d="M38.231 62c-1.536 0-2.825.479-3.735 1.39-3.035 3.036-1.304 10.04 3.857 15.615 3.366 3.635 7.562 5.931 10.95 5.993 1.597.025 2.936-.45 3.873-1.388 3.034-3.036 1.304-10.041-3.859-15.616-3.365-3.635-7.56-5.93-10.948-5.993L38.23 62"/>
  </g>
</svg>
