<svg width="68" height="95" xmlns="http://www.w3.org/2000/svg">
  <g fill="none" fillRule="evenodd">
    <g stroke="#F91661" strokeWidth="1.5">
      <path d="M11.256 1h45.488c3.567 0 4.86.371 6.163 1.069a7.27 7.27 0 0 1 3.024 3.024C66.63 6.396 67 7.689 67 11.256v71.837c0 3.566-.371 4.86-1.069 6.163a7.27 7.27 0 0 1-3.024 3.024c-1.303.697-2.596 1.068-6.163 1.068H11.256c-3.567 0-4.86-.37-6.163-1.068a7.27 7.27 0 0 1-3.024-3.024C1.37 87.952 1 86.659 1 83.093V11.256c0-3.567.371-4.86 1.069-6.163a7.27 7.27 0 0 1 3.024-3.024C6.396 1.37 7.689 1 11.256 1zM12 16.379l21.5.121M12 24.379l13.5.121M12 33.379l17.5.121M12 41.379h35.214m-35.214 8h17.262"/>
      <path d="m49.44 62-.137.001c-3.388.062-7.584 2.358-10.949 5.993-5.162 5.575-6.893 12.58-3.858 15.616.937.937 2.279 1.42 3.873 1.388 3.388-.062 7.583-2.358 10.948-5.993 5.163-5.574 6.893-12.58 3.859-15.615-.91-.911-2.2-1.39-3.736-1.39" fillRule="nonzero"/>
      <path d="M43.916 69C36.243 69 30 71.09 30 73.659c0 2.568 6.243 4.658 13.916 4.658 7.674 0 13.917-2.09 13.917-4.658 0-2.57-6.243-4.659-13.917-4.659"/>
      <path d="M38.231 62c-1.536 0-2.825.479-3.735 1.39-3.035 3.036-1.304 10.04 3.857 15.615 3.366 3.635 7.562 5.931 10.95 5.993 1.597.025 2.936-.45 3.873-1.388 3.034-3.036 1.304-10.041-3.859-15.616-3.365-3.635-7.56-5.93-10.948-5.993L38.23 62"/>
    </g>
    <g fill="#F91661" fillRule="nonzero">
      <path d="m37.53 25.127 1.186-1.23a.138.138 0 0 0 .037-.084.244.244 0 0 0-.024-.116.722.722 0 0 0-.098-.149 2.246 2.246 0 0 0-.179-.19 2.277 2.277 0 0 0-.203-.178.706.706 0 0 0-.154-.094.217.217 0 0 0-.115-.018.141.141 0 0 0-.081.042l-3.337 3.463a.145.145 0 0 0-.042.085.227.227 0 0 0 .025.111c.02.044.053.094.1.151.114.136.241.26.381.368a.702.702 0 0 0 .153.092.246.246 0 0 0 .114.022.132.132 0 0 0 .085-.043l1.186-1.23 3.96 3.817a.147.147 0 0 0 .092.041.24.24 0 0 0 .128-.033 1.12 1.12 0 0 0 .179-.125c.07-.057.151-.134.244-.23a2.84 2.84 0 0 0 .22-.253c.056-.071.095-.133.12-.182a.245.245 0 0 0 .028-.13.147.147 0 0 0-.044-.09l-3.961-3.817zm9.557-1.974a.57.57 0 0 0-.123-.082 3.583 3.583 0 0 0-.284-.127l-1.367-.52a4.55 4.55 0 0 0-.456-.153 2.45 2.45 0 0 0-.403-.077 1.487 1.487 0 0 0-.688.088c.098-.198.166-.395.202-.59a1.592 1.592 0 0 0-.173-1.1 2.107 2.107 0 0 0-.39-.497 2.003 2.003 0 0 0-.603-.412 1.542 1.542 0 0 0-.634-.124 1.786 1.786 0 0 0-.656.144 2.9 2.9 0 0 0-.658.395c-.074.06-.153.13-.239.209-.085.079-.19.182-.315.311l-1.226 1.272a.433.433 0 0 0-.129.283c-.005.104.047.21.159.317l4.462 4.3c.024.024.056.04.09.043a.214.214 0 0 0 .126-.032c.049-.026.109-.067.179-.124.07-.057.151-.134.244-.23.094-.1.169-.184.222-.255.054-.07.092-.131.116-.18a.24.24 0 0 0 .03-.13.147.147 0 0 0-.045-.09l-1.872-1.805.3-.311c.103-.107.21-.185.32-.234a.867.867 0 0 1 .354-.074c.124.001.258.022.404.064.145.042.305.096.48.163l1.522.617c.04.02.078.032.114.037a.231.231 0 0 0 .129-.026.816.816 0 0 0 .173-.123c.19-.174.368-.359.535-.554a.985.985 0 0 0 .134-.193c.023-.05.031-.09.022-.118a.205.205 0 0 0-.057-.082h.001zm-4.38-.817c-.069.14-.171.28-.308.422l-.49.509-1.394-1.343.432-.449c.11-.114.2-.2.269-.257.07-.056.135-.104.197-.143.206-.123.4-.168.583-.134.182.034.354.13.516.285.106.103.186.213.237.332a.821.821 0 0 1 .069.373c-.006.13-.043.266-.112.405h.001zm1.592-5.592a.144.144 0 0 0-.092-.041.233.233 0 0 0-.129.034 1.163 1.163 0 0 0-.176.122c-.069.056-.15.133-.246.232a2.85 2.85 0 0 0-.219.25 1.156 1.156 0 0 0-.118.183.237.237 0 0 0-.03.131.147.147 0 0 0 .043.091l4.64 4.472a.15.15 0 0 0 .093.041.24.24 0 0 0 .128-.034 1.16 1.16 0 0 0 .178-.125 2.52 2.52 0 0 0 .244-.23c.095-.098.17-.183.223-.254.054-.07.092-.131.116-.181a.24.24 0 0 0 .03-.13.145.145 0 0 0-.045-.09l-4.64-4.471zm9.502-1.046-5.819-2.678a.499.499 0 0 0-.166-.055.266.266 0 0 0-.165.046 1.289 1.289 0 0 0-.227.181c-.223.215-.437.438-.643.669a1.065 1.065 0 0 0-.152.21.253.253 0 0 0-.032.155c.01.054.028.106.054.154l2.898 5.716c.06.116.112.203.158.262.045.058.095.09.15.093.053.002.115-.026.185-.084a3.48 3.48 0 0 0 .275-.263c.105-.108.188-.199.247-.27.06-.073.1-.134.122-.183a.225.225 0 0 0 .02-.136.42.42 0 0 0-.052-.125l-.66-1.238 1.779-1.845 1.305.621c.036.02.076.034.117.04a.214.214 0 0 0 .124-.035c.048-.027.108-.074.182-.143.073-.069.172-.168.297-.296.118-.125.21-.225.271-.302.062-.077.094-.142.094-.195 0-.054-.03-.103-.09-.146a1.709 1.709 0 0 0-.272-.153zm-4.361 1.495-1.419-2.708.004-.004 2.758 1.318-1.343 1.394zm7.95-4.926a2.184 2.184 0 0 0-.182-.194 2.217 2.217 0 0 0-.201-.175.662.662 0 0 0-.153-.092.241.241 0 0 0-.114-.02.157.157 0 0 0-.085.047l-1.49 1.545-3.952-3.809a.144.144 0 0 0-.092-.04.23.23 0 0 0-.129.033 1.11 1.11 0 0 0-.176.123c-.069.056-.15.132-.246.231a3.1 3.1 0 0 0-.22.252 1.103 1.103 0 0 0-.119.184.237.237 0 0 0-.029.129c.004.034.02.066.044.09l4.462 4.3c.111.107.219.157.323.147a.436.436 0 0 0 .278-.14l2.17-2.251a.138.138 0 0 0 .04-.089.227.227 0 0 0-.028-.118.792.792 0 0 0-.1-.153h-.001z"/>
      <path d="M65 .11c-1.413-.38-2.427.258-3.154 1.453a7.28 7.28 0 0 0-.366.73 2.656 2.656 0 0 0-1.774-.55l-9.399.452c-.29.008-.575.065-.845.169a2.564 2.564 0 0 0-1.444.757L27.72 24.384a2.59 2.59 0 0 0 .073 3.658l10.004 9.637a2.57 2.57 0 0 0 1.789.722 2.57 2.57 0 0 0 1.861-.794l20.297-21.262c.603-.629 1.149-1.483.998-2.279.004-.064 0-.128 0-.197l-.238-9.432c.006-.447-.1-.888-.305-1.285.606-1.183 1.184-2.304 2.5-1.95.705.189 1.003-.903.3-1.091L65 .11zm-6.491 3.765a1.407 1.407 0 0 1 1.996-.04c.02.018.033.04.05.06-.293.306-.654.495-1.125.442-.723-.08-.715 1.051 0 1.132.627.07 1.104-.113 1.493-.437a1.402 1.402 0 0 1-1.396 1.24 1.418 1.418 0 0 1-1.018-2.396v-.001zm2.366 11.634L40.579 36.77a1.364 1.364 0 0 1-.993.424 1.37 1.37 0 0 1-.955-.385L28.627 27.17a1.372 1.372 0 0 1-.422-.967c-.008-.367.13-.722.385-.986l20.296-21.26c.26-.27.562-.368.77-.402l.137-.022.129-.054c.058-.024.194-.067.443-.079l7.264-.35a2.63 2.63 0 0 0 .085 3.697c.49.471 1.134.731 1.813.731a2.63 2.63 0 0 0 1.83-.748l.18 7.152.002.088v.032l-.008.14.028.15c.032.169-.123.632-.684 1.217z"/>
    </g>
  </g>
</svg>
