<?xml version="1.0" encoding="UTF-8"?>
<svg width="96px" height="96px" viewBox="0 0 96 96" version="1.1" xmlns="http://www.w3.org/2000/svg" xmlns:xlink="http://www.w3.org/1999/xlink">
    <!-- Generator: Sketch 49.3 (51167) - http://www.bohemiancoding.com/sketch -->
    <title>User-VL Copy</title>
    <desc>Created with Sketch.</desc>
    <defs>
        <path d="M48,96 C74.509668,96 96,74.509668 96,48 C96,21.490332 74.509668,0 48,0 C21.490332,0 0,21.490332 0,48 C0,74.509668 21.490332,96 48,96 Z" id="path-1"></path>
    </defs>
    <g id="Coriolis" stroke="none" stroke-width="1" fill="none" fill-rule="evenodd">
        <g id="User/Edit/General" transform="translate(-240.000000, -96.000000)">
            <g id="Modal-Connection">
                <g id="Icon/User/96" transform="translate(240.000000, 96.000000)">
                    <g id="Group">
                        <mask id="mask-2" fill="white">
                            <use xlink:href="#path-1"></use>
                        </mask>
                        <g id="Pat-Benetar">
                            <use fill="#FFFFFF" fill-rule="evenodd" xlink:href="#path-1"></use>
                            <path stroke="#A4AAB5" stroke-width="1.5" d="M48,95.25 C74.0954544,95.25 95.25,74.0954544 95.25,48 C95.25,21.9045456 74.0954544,0.75 48,0.75 C21.9045456,0.75 0.75,21.9045456 0.75,48 C0.75,74.0954544 21.9045456,95.25 48,95.25 Z"></path>
                        </g>
                        <g id="Page-1" mask="url(#mask-2)" stroke="#A4AAB5" stroke-width="1.5">
                            <g transform="translate(9.000000, 15.000000)" id="Fill-1">
                                <path d="M58.11,58.0186047 C54.795,56.7 50.7,55.0027674 50.7,53.6860465 L50.7,45.2093023 C55.575,41.6302326 58.5,35.9790698 58.5,30.1395349 L58.5,18.8372093 C58.5,8.47674419 49.725,0 39,0 C28.275,0 19.5,8.47674419 19.5,18.8372093 L19.5,30.1395349 C19.5,35.9790698 22.425,41.8186047 27.3,45.2093023 L27.3,53.6860465 C27.3,54.8162791 23.205,56.5116279 19.89,58.0186047 C11.895,61.2209302 0,66.1186047 0,79.1162791 L0,81 L78,81 L78,79.1162791 C78,66.1186047 66.10695,61.2209302 58.11,58.0186047"></path>
                            </g>
                        </g>
                    </g>
                </g>
            </g>
        </g>
    </g>
</svg>