<?xml version="1.0" encoding="UTF-8"?>
<svg width="245px" height="48px" viewBox="0 0 245 48" version="1.1" xmlns="http://www.w3.org/2000/svg" xmlns:xlink="http://www.w3.org/1999/xlink">
    <!-- Generator: Sketch 52.5 (67469) - http://www.bohemiancoding.com/sketch -->
    <title>ID/Coriolis/Logo-H-Black/Default</title>
    <desc>Created with Sketch.</desc>
    <g id="ID/Coriolis/Logo-H-Black/Default" stroke="none" stroke-width="1" fill="none" fill-rule="evenodd">
        <g id="ID/Coriolis/Symbol-Small" stroke-width="0.7">
            <path d="M33.327222,44.8988076 C33.2458771,44.8988076 33.1655006,44.8978486 33.0851241,44.8968895 C27.2641222,44.7866005 20.0931825,40.7596119 14.371925,34.3877824 C5.55278284,24.5653444 2.6805334,12.1352899 7.96891985,6.68029798 C9.66360513,4.93293595 12.0584375,4.03719712 14.9151927,4.09090309 C20.7361945,4.20119213 27.9061659,8.22818071 33.6274234,14.6000102 C42.4475339,24.4224482 45.3197834,36.8515437 40.0304285,42.3074947 C38.3851312,44.0059459 36.0706753,44.8988076 33.327222,44.8988076" id="Fill-3" stroke="#0044CA"></path>
            <path d="M34.1288833,41.4486056 C28.8046664,41.4486056 22.1198592,38.6300013 16.2852999,33.8530472 C6.66917147,25.9822458 2.30269381,15.2458473 6.5510277,9.91936611 C7.85738795,8.28229312 9.88810511,7.27722428 12.4243227,7.00965348 C17.9489967,6.42847818 25.3387929,9.31133783 31.7156515,14.5313661 C41.3308116,22.4021676 45.6972892,33.1395251 41.4489553,38.4660063 C40.1435635,40.1021203 38.1128463,41.1081481 35.5756604,41.3747599 C35.1069588,41.4236707 34.6237314,41.4486056 34.1288833,41.4486056" id="Fill-6" stroke="#2F81B7"></path>
            <path d="M34.352737,38.3136399 C29.6831528,38.3136399 23.8485935,36.6765669 18.2067441,33.4733895 C11.0726033,29.4233841 5.83650998,23.8063153 4.54370721,18.8154964 C4.00237631,16.7276768 4.20477015,14.8287873 5.1315209,13.3250201 C8.32721314,8.13472193 19.391087,8.71685626 29.7925811,14.6235537 C36.9267219,18.6735592 42.1628152,24.290628 43.4565864,29.2814469 C43.9979173,31.3692664 43.794555,33.268156 42.8678043,34.7719231 C41.405533,37.1474532 38.2940908,38.3136399 34.352737,38.3136399" id="Fill-8" stroke="#159588"></path>
            <path d="M33.3978422,35.8918122 C29.4487413,35.8918122 24.8237031,35.0929359 20.1366878,33.4424364 C12.2597906,30.6698658 5.90907858,26.0540296 3.95873792,21.6856245 C3.21404479,20.0159444 3.13076311,18.4728568 3.71179807,17.0985594 C5.84710152,12.0492394 16.6814666,11.1429512 27.8634843,15.0788314 C35.7403814,17.8523611 42.0910935,22.4672382 44.0414341,26.8366023 C44.7861272,28.5053235 44.8694089,30.048411 44.2874056,31.4236674 C43.0478643,34.3563969 38.8721598,35.8918122 33.3978422,35.8918122" id="Fill-10" stroke="#8CC152"></path>
            <path d="M30.4657242,33.8110604 C27.841383,33.8110604 25.0078692,33.580892 22.0697691,33.0975383 C13.2699947,31.6503543 5.8734198,28.2208446 3.2258372,24.3616871 C2.34266407,23.075621 2.02987359,21.8039404 2.29714967,20.5821296 C3.3865902,15.5865156 13.7687164,13.2407156 25.9307464,15.2412629 C34.7305207,16.689406 42.1270957,20.1179566 44.7746783,23.9771141 C45.656883,25.2641392 45.9696735,26.5358198 45.7033658,27.7566716 C44.8773278,31.5458194 38.7047998,33.8110604 30.4657242,33.8110604" id="Fill-12" stroke="#CDDA49"></path>
            <path d="M23.9995181,32.8063174 C11.102592,32.8063174 1,29.0008659 1,24.1423939 C1,19.2829628 11.102592,15.4775113 23.9995181,15.4775113 C36.897408,15.4775113 47,19.2829628 47,24.1423939 C47,29.0008659 36.897408,32.8063174 23.9995181,32.8063174" id="Fill-25" stroke="#FFDC00"></path>
            <path d="M2.29662145,27.7566716 C2.03031646,26.5358198 2.34310377,25.2641392 3.22626797,23.9771141 C5.87285539,20.1179566 13.2693555,16.689406 22.0700092,15.2412629 C34.2328844,13.2407156 44.6139372,15.5865156 45.7033667,20.5821296 C45.9696717,21.8029814 45.6568844,23.074662 44.7746886,24.3616871 C42.1271328,28.2208446 34.7306327,31.6503543 25.9309474,33.0975383 C22.992877,33.580892 20.1593919,33.8110604 17.5350773,33.8110604 C9.29511663,33.8110604 3.1236195,31.5458194 2.29662145,27.7566716 Z" id="Fill-23" stroke="#FDC02F"></path>
            <path d="M14.6022438,35.8918122 C9.1279262,35.8918122 4.95222167,34.3563969 3.71171205,31.4227084 C3.1306771,30.048411 3.21395877,28.5053235 3.95865191,26.8366023 C5.90899256,22.4681972 12.2587362,17.8523611 20.1366018,15.0788314 C31.317651,11.1429512 42.1520161,12.0492394 44.2882879,17.0985594 C44.8693229,18.4728568 44.7860412,20.0159444 44.0413481,21.6856245 C42.0910074,26.0540296 35.7402954,30.6698658 27.8633982,33.4424364 C23.1773513,35.0919769 18.5513447,35.8918122 14.6022438,35.8918122" id="Fill-21" stroke="#FD9727"></path>
            <path d="M13.6464413,38.3133131 C9.70508758,38.3133131 6.59461381,37.1471263 5.13137412,34.7715963 C4.20559176,33.2678292 4.00222953,31.3689396 4.54356042,29.2811201 C5.83733158,24.2903012 11.0724565,18.6741913 18.2065973,14.6232269 C28.6080914,8.71748845 39.6719653,8.13439508 42.8686259,13.3246933 C43.7944082,14.8284604 43.9977705,16.72735 43.4564396,18.8161285 C42.1626684,23.8059884 36.9275435,29.4230573 29.7934027,33.4730627 C24.1515533,36.6762401 18.3160256,38.3133131 13.6464413,38.3133131" id="Fill-19" stroke="#FC5830"></path>
            <path d="M13.9458532,41.5121472 C13.4510051,41.5121472 12.9677777,41.4881713 12.4990761,41.4383015 C9.96189017,41.1716897 7.93117301,40.1656618 6.62578115,38.5285888 L6.62578115,38.5295479 C2.37744726,33.2030667 6.74392492,22.4657092 16.359085,14.5949077 C22.7359436,9.37487941 30.1247714,6.49489687 35.6504138,7.07319506 C38.1866314,7.34076587 40.2173485,8.3458347 41.5237088,9.9829077 C45.7720427,15.3093889 41.405565,26.0457874 31.7894365,33.9165888 C25.9548772,38.6925839 19.2700701,41.5121472 13.9458532,41.5121472" id="Fill-17" stroke="#FF2D55"></path>
            <path d="M14.672797,44.8987313 C11.9293437,44.8987313 9.61488776,44.0058695 7.96959045,42.3074183 C2.6802356,36.8524264 5.55248505,24.4223718 14.3716272,14.5999339 C20.0938531,8.22810435 27.2638244,4.20111577 33.0848263,4.09082672 C35.9328659,4.03807979 38.3364138,4.93285958 40.0310991,6.68022162 C45.3194856,12.1361726 42.4472361,24.5652681 33.628094,34.387706 C27.9058681,40.7595356 20.7358967,44.7865241 14.9148949,44.8968132 C14.8345184,44.8977722 14.7531735,44.8987313 14.672797,44.8987313" id="Fill-14" stroke="#F91661"></path>
        </g>
        <path d="M150.628574,8.57333606 L151.26931,8.57333606 C151.712395,8.57333606 152.071859,8.93303359 152.071859,9.37666054 L152.071859,38.6233395 C152.071859,39.0669664 151.712395,39.4266639 151.26931,39.4266639 L150.628574,39.4266639 C150.185489,39.4266639 149.826026,39.0669664 149.826026,38.6233395 L149.826026,9.37666054 C149.826026,8.93303359 150.185489,8.57333606 150.628574,8.57333606 L150.628574,8.57333606 Z M221.562378,32.9521085 C221.965282,32.8049595 222.408367,33.0033381 222.57561,33.3990054 C223.559519,35.7174194 225.515393,37.9279242 229.787689,37.9279242 C233.485495,37.9279242 236.303647,35.63567 236.303647,31.8457661 C236.303647,22.8980176 221.333234,25.4104503 221.333234,15.4490088 C221.333234,11.3942367 224.415282,8 229.654112,8 C234.149037,8 236.565371,10.6508618 237.606839,12.6433681 C237.829467,13.0717351 237.623129,13.5971115 237.171356,13.7660604 L236.748904,13.9230193 C236.375323,14.0625383 235.964817,13.9033994 235.767167,13.5578718 C234.85819,11.9784726 232.991369,10.0273861 229.654112,10.0273861 C225.647884,10.0273861 223.579067,12.4962191 223.579067,15.4926085 C223.579067,23.4702636 238.59292,21.7077458 238.59292,31.712787 C238.59292,36.2972955 235.203536,39.99891 229.743164,39.99891 C224.527139,39.99891 221.872972,37.1006199 220.655574,34.1696301 C220.480729,33.747803 220.699014,33.2660263 221.127981,33.1101574 L221.562378,32.9521085 Z M213.416345,8.57333606 L214.055995,8.57333606 C214.500166,8.57333606 214.85963,8.93303359 214.85963,9.37666054 L214.85963,38.6233395 C214.85963,39.0669664 214.500166,39.4266639 214.055995,39.4266639 L213.416345,39.4266639 C212.97326,39.4266639 212.613796,39.0669664 212.613796,38.6233395 L212.613796,9.37666054 C212.613796,8.93303359 212.97326,8.57333606 213.416345,8.57333606 L213.416345,8.57333606 Z M193.776162,8.57333606 L194.416898,8.57333606 C194.859983,8.57333606 195.220532,8.93303359 195.220532,9.37666054 L195.220532,37.3545882 L206.70165,37.3545882 C207.144735,37.3545882 207.504199,37.7142857 207.504199,38.1579127 L207.504199,38.6233395 C207.504199,39.0669664 207.144735,39.4266639 206.70165,39.4266639 L193.776162,39.4266639 C193.333077,39.4266639 192.973613,39.0669664 192.973613,38.6233395 L192.973613,9.37666054 C192.973613,8.93303359 193.333077,8.57333606 193.776162,8.57333606 L193.776162,8.57333606 Z M172.220287,8 C180.938639,8 187.807544,14.9639621 187.807544,24 C187.807544,33.0796376 180.895199,40 172.176847,40 C163.501935,40 156.63303,33.2115267 156.63303,24 C156.63303,14.8767627 163.546461,8 172.220287,8 L172.220287,8 Z M172.220287,37.8832346 C179.662597,37.8832346 185.474831,32.0212549 185.474831,24 C185.474831,16.0659445 179.662597,10.1156755 172.220287,10.1156755 C164.735623,10.1156755 158.967915,16.0659445 158.967915,24 C158.967915,32.0212549 164.735623,37.8832346 172.220287,37.8832346 L172.220287,37.8832346 Z M126.574916,9.37666054 C126.574916,8.93303359 126.93438,8.57333606 127.377465,8.57333606 L133.664278,8.57333606 C139.652443,8.57333606 142.866983,12.4515294 142.866983,16.9477485 C142.866983,20.7376524 140.576623,23.7351318 137.142714,24.8807139 L144.341761,38.2418421 C144.630635,38.7770284 144.242936,39.4266639 143.63478,39.4266639 L142.953862,39.4266639 C142.6563,39.4266639 142.383716,39.2620751 142.244709,38.9982969 L135.029371,25.3221609 L128.820749,25.3221609 L128.820749,38.6233395 C128.820749,39.0669664 128.461286,39.4266639 128.018201,39.4266639 L127.377465,39.4266639 C126.93438,39.4266639 126.574916,39.0669664 126.574916,38.6233395 L126.574916,9.37666054 Z M133.752243,23.2947748 C137.890963,23.2947748 140.488658,20.8706315 140.488658,16.9477485 C140.488658,13.2897336 138.023454,10.6454118 133.619752,10.6454118 L128.820749,10.6454118 L128.820749,23.2947748 L133.752243,23.2947748 Z M106.42323,8 C115.141582,8 122.010487,14.9639621 122.010487,24 C122.010487,33.0796376 115.097056,40 106.378704,40 C97.7048783,40 90.8359727,33.2115267 90.8359727,24 C90.8359727,14.8767627 97.749404,8 106.42323,8 L106.42323,8 Z M106.42323,37.8832346 C113.864454,37.8832346 119.676688,32.0212549 119.676688,24 C119.676688,16.0659445 113.864454,10.1156755 106.42323,10.1156755 C98.9374803,10.1156755 93.1697716,16.0659445 93.1697716,24 C93.1697716,32.0212549 98.9374803,37.8832346 106.42323,37.8832346 L106.42323,37.8832346 Z M89.4806534,35.6618298 C89.5990267,35.9757477 89.5154052,36.3299952 89.2612828,36.5490837 C87.9374574,37.6935759 84.43513,39.99891 79.4558522,39.99891 C70.6929748,39.99891 64,33.1232373 64,24 C64,14.8767627 70.8689056,8 79.323361,8 C83.7422665,8 86.9383438,9.76687785 88.5836232,11.0170993 C88.8681534,11.2340078 88.9680647,11.6133252 88.8388316,11.9457729 L88.6552988,12.4133797 C88.464164,12.9038763 87.8646959,13.0782751 87.4379006,12.7698072 C85.9316283,11.6852647 83.0765528,10.1156755 79.323361,10.1156755 C72.1460334,10.1156755 66.3337989,16.0223448 66.3337989,24 C66.3337989,31.9776552 71.8376114,37.8832346 79.4558522,37.8832346 C83.6923108,37.8832346 86.6201479,36.0444172 88.0840664,34.8912051 C88.5076037,34.5587574 89.1320497,34.7407862 89.3231844,35.2454527 L89.4806534,35.6618298 Z M241.392681,12.4766667 C241.025607,12.26111 240.734176,11.9700018 240.518381,11.6033333 C240.302586,11.2366648 240.19469,10.8355577 240.19469,10.4 C240.19469,9.96444227 240.302586,9.56333517 240.518381,9.19666667 C240.734176,8.82999817 241.025607,8.53888997 241.392681,8.32333333 C241.759755,8.1077767 242.161306,8 242.597345,8 C243.033385,8 243.434935,8.1077767 243.80201,8.32333333 C244.169084,8.53888997 244.460514,8.82999817 244.676309,9.19666667 C244.892104,9.56333517 245,9.96444227 245,10.4 C245,10.8355577 244.892104,11.2366648 244.676309,11.6033333 C244.460514,11.9700018 244.169084,12.26111 243.80201,12.4766667 C243.434935,12.6922233 243.033385,12.8 242.597345,12.8 C242.161306,12.8 241.759755,12.6922233 241.392681,12.4766667 Z M243.578429,12.1166667 C243.876538,11.9366658 244.113464,11.694446 244.289215,11.39 C244.464965,11.085554 244.552839,10.7555573 244.552839,10.4 C244.552839,10.0444427 244.464965,9.71444597 244.289215,9.41 C244.113464,9.10555403 243.876538,8.86333423 243.578429,8.68333333 C243.280321,8.50333243 242.953296,8.41333333 242.597345,8.41333333 C242.241394,8.41333333 241.913257,8.50333243 241.612924,8.68333333 C241.312591,8.86333423 241.074552,9.10555403 240.898802,9.41 C240.723051,9.71444597 240.635177,10.0444427 240.635177,10.4 C240.635177,10.7555573 240.723051,11.085554 240.898802,11.39 C241.074552,11.694446 241.312591,11.9366658 241.612924,12.1166667 C241.913257,12.2966676 242.241394,12.3866667 242.597345,12.3866667 C242.953296,12.3866667 243.280321,12.2966676 243.578429,12.1166667 Z M241.716372,11.5733333 C241.689675,11.5466665 241.676327,11.5111113 241.676327,11.4666667 L241.676327,9.32 C241.676327,9.27555533 241.689675,9.24000013 241.716372,9.21333333 C241.743068,9.18666653 241.778663,9.17333333 241.823156,9.17333333 L242.697456,9.17333333 C242.977767,9.17333333 243.20357,9.23555493 243.374871,9.36 C243.546172,9.48444507 243.631822,9.68222087 243.631822,9.95333333 C243.631822,10.1266675 243.589553,10.2722216 243.505015,10.39 C243.420476,10.5077784 243.307019,10.5955553 243.164639,10.6533333 L243.598451,11.3733333 C243.616249,11.4000001 243.625147,11.4311109 243.625147,11.4666667 C243.625147,11.5066669 243.612912,11.541111 243.58844,11.57 C243.563969,11.598889 243.527262,11.6133333 243.478319,11.6133333 L243.304794,11.6133333 C243.224705,11.6133333 243.16019,11.5711115 243.111246,11.4866667 L242.677434,10.74 L242.156858,10.74 L242.156858,11.4666667 C242.156858,11.5111113 242.14351,11.5466665 242.116814,11.5733333 C242.090118,11.6000001 242.054523,11.6133333 242.010029,11.6133333 L241.823156,11.6133333 C241.778663,11.6133333 241.743068,11.6000001 241.716372,11.5733333 Z M242.684108,10.3066667 C242.986666,10.3066667 243.137942,10.1888901 243.137942,9.95333333 C243.137942,9.8511106 243.10346,9.766667 243.034495,9.7 C242.965529,9.633333 242.848735,9.6 242.684108,9.6 L242.156858,9.6 L242.156858,10.3066667 L242.684108,10.3066667 Z" id="Fill-1" fill="#202234"></path>
    </g>
</svg>