<?xml version="1.0" encoding="UTF-8"?>
<svg width="234px" height="276px" viewBox="0 0 234 276" version="1.1" xmlns="http://www.w3.org/2000/svg" xmlns:xlink="http://www.w3.org/1999/xlink">
    <!-- Generator: Sketch 47.1 (45422) - http://www.bohemiancoding.com/sketch -->
    <title>coriolis-Logo-large</title>
    <desc>Created with Sketch.</desc>
    <defs></defs>
    <g id="Coriolis" stroke="none" stroke-width="1" fill="none" fill-rule="evenodd">
        <g id="Login-Error" transform="translate(-606.000000, -92.000000)">
            <g id="ID/Coriolis/Logo-Vertical-White" transform="translate(592.000000, 77.000000)">
                <path d="M173.419516,219.647838 C173.023401,219.647838 172.632003,219.643067 172.240604,219.638295 C143.894856,219.089557 108.975498,199.05348 81.115461,167.350765 C38.170073,118.479723 24.183467,56.6346171 49.9356097,29.4935814 C58.1879902,20.7996702 69.8497827,16.3429671 83.7609384,16.6101784 C112.106686,17.158916 147.021329,37.1949935 174.881366,68.8977081 C217.83147,117.76875 231.818076,179.609085 206.061217,206.754892 C198.049335,215.20545 186.778941,219.647838 173.419516,219.647838" id="Fill-3" stroke="#0044CA" stroke-width="2.28554153"></path>
                <path d="M177.323258,202.481533 C151.396636,202.481533 118.844532,188.45771 90.4327649,164.690218 C43.6064002,125.529444 22.3435524,72.1110378 43.0310914,45.6094007 C49.3924978,37.464227 59.2812075,32.463558 71.6314843,31.132273 C98.5342447,28.2406648 134.519339,42.5841868 165.571868,68.5561729 C212.393517,107.716946 233.656365,161.140124 212.968826,187.641761 C206.612135,195.782163 196.723426,200.787604 184.368433,202.114117 C182.08606,202.357471 179.732953,202.481533 177.323258,202.481533" id="Fill-6" stroke="#2F81B7" stroke-width="2.28554153"></path>
                <path d="M178.413328,186.88367 C155.674483,186.88367 127.262716,178.738497 99.7893626,162.80125 C65.0491986,142.650653 39.5517007,114.703212 33.2563134,89.8716456 C30.6202672,79.4838055 31.6058373,70.0359766 36.1187105,62.5540596 C51.6803422,36.729994 105.556598,39.6263739 156.207351,69.0148476 C190.947515,89.1654443 216.445013,117.112886 222.745116,141.944452 C225.381162,152.332292 224.390877,161.780121 219.878003,169.262038 C212.757378,181.081367 197.606007,186.88367 178.413328,186.88367" id="Fill-8" stroke="#159588" stroke-width="2.28554153"></path>
                <path d="M173.763405,174.833989 C154.533001,174.833989 132.011076,170.859221 109.187349,162.647244 C70.8302847,148.85246 39.9050783,125.886601 30.4077673,104.151823 C26.7814355,95.8444138 26.3758899,88.1668599 29.2052775,81.329113 C39.6032769,56.2064772 92.3619243,51.6972861 146.813489,71.2800587 C185.170553,85.0796148 216.095759,108.040702 225.59307,129.780252 C229.219402,138.082889 229.624948,145.760443 226.790845,152.602961 C220.754818,167.194608 200.420952,174.833989 173.763405,174.833989" id="Fill-10" stroke="#8CC152" stroke-width="2.28554153"></path>
                <path d="M159.485265,164.481314 C146.705865,164.481314 132.907885,163.336123 118.600615,160.931221 C75.7495396,153.73083 39.7314355,136.667479 26.8388594,117.466437 C22.5381903,111.06768 21.0150366,104.740497 22.3165549,98.6614399 C27.6216566,73.8060154 78.1780973,62.1346066 137.401895,72.0882283 C180.25297,79.2933907 216.271074,96.3519706 229.163651,115.553013 C233.459604,121.956541 234.982758,128.283724 233.685955,134.35801 C229.663509,153.210723 199.605982,164.481314 159.485265,164.481314" id="Fill-12" stroke="#CDDA49" stroke-width="2.28554153"></path>
                <path d="M127.997653,159.482266 C65.1952308,159.482266 16,140.548435 16,116.375354 C16,92.1975011 65.1952308,73.2636703 127.997653,73.2636703 C190.804769,73.2636703 240,92.1975011 240,116.375354 C240,140.548435 190.804769,159.482266 127.997653,159.482266" id="Fill-25" stroke="#FFDC00" stroke-width="2.28554153"></path>
                <path d="M96.5186371,164.481314 C56.3936114,164.481314 26.3411036,153.210723 22.3139827,134.35801 C21.0171932,128.283724 22.5403314,121.956541 26.840957,115.553013 C39.7286871,96.3519706 75.7464267,79.2933907 118.601784,72.0882283 C177.829698,62.1346066 228.380912,73.8060154 233.68596,98.6614399 C234.982749,104.735726 233.459611,111.062908 229.163701,117.466437 C216.271255,136.667479 180.253516,153.73083 137.402874,160.931221 C123.095749,163.336123 109.297908,164.481314 96.5186371,164.481314" id="Fill-23" stroke="#FDC02F" stroke-width="2.28554153"></path>
                <path d="M82.2370135,174.833989 C55.5794667,174.833989 35.2456012,167.194608 29.2048587,152.59819 C26.3754711,145.760443 26.7810166,138.082889 30.4073484,129.780252 C39.9046594,108.045474 70.8251502,85.0796148 109.18693,71.2800587 C163.633779,51.6972861 216.392426,56.2064772 226.795141,81.329113 C229.624529,88.1668599 229.218983,95.8444138 225.592652,104.151823 C216.095341,125.886601 185.170134,148.85246 146.81307,162.647244 C123.994059,170.854449 101.467418,174.833989 82.2370135,174.833989" id="Fill-21" stroke="#FD9727" stroke-width="2.28554153"></path>
                <path d="M77.5826709,186.882044 C58.3899917,186.882044 43.2433368,181.079741 36.1179957,169.260412 C31.6098381,161.778495 30.6195525,152.330666 33.2555986,141.942826 C39.5557016,117.111259 65.0484839,89.1685897 99.7886479,69.0132214 C150.439401,39.6295193 204.315657,36.7283678 219.882004,62.5524334 C224.390162,70.0343504 225.380448,79.4821793 222.744401,89.874791 C216.444298,114.701586 190.951516,142.649027 156.211352,162.799624 C128.737999,178.73687 100.321516,186.882044 77.5826709,186.882044" id="Fill-19" stroke="#FC5830" stroke-width="2.28554153"></path>
                <path d="M78.6767421,202.478479 C76.267047,202.478479 73.9139396,202.359189 71.631567,202.111064 C59.2765745,200.78455 49.3878648,195.77911 43.031174,187.633936 L43.031174,187.638708 C22.3436351,161.137071 43.6064829,107.713893 90.4281319,68.5531192 C121.480661,42.5811331 157.46104,28.2519259 184.368516,31.1292193 C196.718793,32.4605043 206.607502,37.4611733 212.968909,45.606347 C233.656448,72.1079841 212.3936,125.52639 165.567235,164.687164 C137.155468,188.449885 104.603364,202.478479 78.6767421,202.478479" id="Fill-17" stroke="#FF2D55" stroke-width="2.28554153"></path>
                <path d="M82.5805768,219.647458 C69.2211517,219.647458 57.9507578,215.20507 49.9388753,206.754512 C24.1820169,179.613476 38.1686229,117.76837 81.1140109,68.8973282 C108.978763,37.1946135 143.893406,17.158536 172.239154,16.6097985 C186.107869,16.3473588 197.812102,20.7992903 206.064483,29.4932015 C231.816625,56.6390088 217.830019,118.479343 174.884631,167.350385 C147.019879,199.0531 112.105236,219.089177 83.7594883,219.637915 C83.3680897,219.642687 82.9719754,219.647458 82.5805768,219.647458" id="Fill-14" stroke="#F91661" stroke-width="2.28554153"></path>
                <path d="M127.70157,250.180254 L128.526271,250.180254 C129.099368,250.180254 129.562389,250.645573 129.562389,251.219759 L129.562389,289.061602 C129.562389,289.634032 129.099368,290.099351 128.526271,290.099351 L127.70157,290.099351 C127.13022,290.099351 126.667199,289.634032 126.667199,289.061602 L126.667199,251.219759 C126.667199,250.645573 127.13022,250.180254 127.70157,250.180254 L127.70157,250.180254 Z M219.166512,281.721854 C219.685445,281.532215 220.255048,281.788579 220.471706,282.301308 C221.740208,285.30042 224.261487,288.160815 229.770561,288.160815 C234.538801,288.160815 238.173077,285.195065 238.173077,280.290779 C238.173077,268.713995 218.86948,271.964204 218.86948,259.075748 C218.86948,253.829057 222.844469,249.4375 229.59933,249.4375 C235.394952,249.4375 238.510296,252.868569 239.853929,255.44626 C240.140478,256.001131 239.874896,256.680672 239.291315,256.898406 L238.746174,257.102093 C238.265681,257.281197 237.736265,257.075754 237.481166,256.62975 C236.308763,254.585859 233.902802,252.062601 229.59933,252.062601 C224.432718,252.062601 221.76467,255.254865 221.76467,259.133693 C221.76467,269.454994 241.125926,267.174053 241.125926,280.118699 C241.125926,286.051954 236.754311,290.840349 229.712901,290.840349 C222.987744,290.840349 219.564885,287.091459 217.995856,283.298671 C217.770461,282.75258 218.051768,282.129228 218.603898,281.927297 L219.166512,281.721854 Z M208.662057,250.180254 L209.486758,250.180254 C210.058108,250.180254 210.522876,250.645573 210.522876,251.219759 L210.522876,289.061602 C210.522876,289.634032 210.058108,290.099351 209.486758,290.099351 L208.662057,290.099351 C208.090707,290.099351 207.627686,289.634032 207.627686,289.061602 L207.627686,251.219759 C207.627686,250.645573 208.090707,250.180254 208.662057,250.180254 L208.662057,250.180254 Z M183.337443,250.180254 L184.163891,250.180254 C184.735241,250.180254 185.198262,250.645573 185.198262,251.219759 L185.198262,287.419816 L200.002695,287.419816 C200.575793,287.419816 201.038813,287.885135 201.038813,288.459321 L201.038813,289.061602 C201.038813,289.634032 200.575793,290.099351 200.002695,290.099351 L183.337443,290.099351 C182.766093,290.099351 182.303072,289.634032 182.303072,289.061602 L182.303072,251.219759 C182.303072,250.645573 182.766093,250.180254 183.337443,250.180254 L183.337443,250.180254 Z M155.542221,249.4375 C166.784015,249.4375 175.640815,258.448884 175.640815,270.139803 C175.640815,281.888667 166.728103,290.842105 155.486309,290.842105 C144.302174,290.842105 135.445373,282.058991 135.445373,270.139803 C135.445373,258.334749 144.358086,249.4375 155.542221,249.4375 L155.542221,249.4375 Z M155.542221,288.102869 C165.138107,288.102869 172.632054,280.519049 172.632054,270.139803 C172.632054,259.874691 165.138107,252.176736 155.542221,252.176736 C145.890422,252.176736 138.454134,259.874691 138.454134,270.139803 C138.454134,280.519049 145.890422,288.102869 155.542221,288.102869 L155.542221,288.102869 Z M96.686169,251.219759 C96.686169,250.645573 97.1491898,250.180254 97.7205399,250.180254 L105.827771,250.180254 C113.54886,250.180254 117.693333,255.198675 117.693333,261.01604 C117.693333,265.920326 114.740483,269.797398 110.312957,271.281151 L119.594339,288.566432 C119.966502,289.260021 119.466789,290.099351 118.684022,290.099351 L117.805157,290.099351 C117.422509,290.099351 117.069565,289.886885 116.891346,289.546236 L107.58725,271.851825 L99.5813591,271.851825 L99.5813591,289.059846 C99.5813591,289.634032 99.1183383,290.099351 98.5469882,290.099351 L97.7205399,290.099351 C97.1491898,290.099351 96.686169,289.634032 96.686169,289.059846 L96.686169,251.219759 Z M105.941342,269.226724 C111.277438,269.226724 114.626912,266.09065 114.626912,261.01604 C114.626912,256.282078 111.448668,252.861545 105.770112,252.861545 L99.5813591,252.861545 L99.5813591,269.226724 L105.941342,269.226724 Z M70.7010956,249.4375 C81.9428897,249.4375 90.7996902,258.448884 90.7996902,270.139803 C90.7996902,281.888667 81.8869778,290.842105 70.6451837,290.842105 C59.4593015,290.842105 50.6025009,282.058991 50.6025009,270.139803 C50.6025009,258.334749 59.5169606,249.4375 70.7010956,249.4375 L70.7010956,249.4375 Z M70.7010956,288.102869 C80.296982,288.102869 87.7909291,280.519049 87.7909291,270.139803 C87.7909291,259.874691 80.296982,252.176736 70.7010956,252.176736 C61.0510445,252.176736 53.6130094,259.874691 53.6130094,270.139803 C53.6130094,280.519049 61.0510445,288.102869 70.7010956,288.102869 L70.7010956,288.102869 Z M48.8552529,285.230183 C49.0090107,285.634045 48.9006813,286.094096 48.5739459,286.376799 C46.8651373,287.858796 42.3502483,290.842105 35.9291116,290.842105 C24.6296583,290.842105 16,281.944856 16,270.139803 C16,258.336505 24.8568005,249.439256 35.7578813,249.439256 C41.4574045,249.439256 45.5774155,251.723708 47.7003219,253.342667 C48.0654967,253.621859 48.1947931,254.113516 48.0288045,254.543717 L47.7911788,255.149509 C47.5448168,255.783397 46.7725332,256.00991 46.22215,255.611316 C44.2792102,254.20658 40.5995057,252.17498 35.7578813,252.17498 C26.5044554,252.17498 19.0087612,259.818502 19.0087612,270.139803 C19.0087612,280.462859 26.1060829,288.102869 35.9291116,288.102869 C41.3910091,288.102869 45.1685594,285.723597 47.0555873,284.232821 C47.602476,283.80262 48.4062101,284.037913 48.6525721,284.691116 L48.8552529,285.230183 Z M242.839671,255.873424 C242.314565,255.563527 241.89767,255.145012 241.588971,254.617868 C241.280273,254.090723 241.125926,253.514068 241.125926,252.887884 C241.125926,252.2617 241.280273,251.685044 241.588971,251.1579 C241.89767,250.630755 242.314565,250.21224 242.839671,249.902343 C243.364776,249.592446 243.939201,249.4375 244.562963,249.4375 C245.186725,249.4375 245.76115,249.592446 246.286255,249.902343 C246.811361,250.21224 247.228256,250.630755 247.536955,251.1579 C247.845653,251.685044 248,252.2617 248,252.887884 C248,253.514068 247.845653,254.090723 247.536955,254.617868 C247.228256,255.145012 246.811361,255.563527 246.286255,255.873424 C245.76115,256.183321 245.186725,256.338268 244.562963,256.338268 C243.939201,256.338268 243.364776,256.183321 242.839671,255.873424 Z M245.96642,255.355867 C246.392869,255.097087 246.731796,254.748857 246.98321,254.311167 C247.234624,253.873477 247.360329,253.399054 247.360329,252.887884 C247.360329,252.376713 247.234624,251.90229 246.98321,251.4646 C246.731796,251.026911 246.392869,250.678681 245.96642,250.419901 C245.53997,250.161121 245.072156,250.031733 244.562963,250.031733 C244.05377,250.031733 243.584364,250.161121 243.154733,250.419901 C242.725101,250.678681 242.384583,251.026911 242.133169,251.4646 C241.881755,251.90229 241.756049,252.376713 241.756049,252.887884 C241.756049,253.399054 241.881755,253.873477 242.133169,254.311167 C242.384583,254.748857 242.725101,255.097087 243.154733,255.355867 C243.584364,255.614647 244.05377,255.744035 244.562963,255.744035 C245.072156,255.744035 245.53997,255.614647 245.96642,255.355867 Z M243.302716,254.574738 C243.264527,254.5364 243.245432,254.485284 243.245432,254.421388 L243.245432,251.335211 C243.245432,251.271315 243.264527,251.220198 243.302716,251.181861 C243.340906,251.143523 243.391824,251.124354 243.455473,251.124354 L244.706173,251.124354 C245.107162,251.124354 245.430177,251.213808 245.675226,251.392717 C245.920276,251.571627 246.042798,251.855961 246.042798,252.245729 C246.042798,252.494925 245.982333,252.704182 245.861399,252.873507 C245.740466,253.042832 245.578163,253.169026 245.374486,253.252091 L245.995062,254.287206 C246.020521,254.325544 246.033251,254.370271 246.033251,254.421388 C246.033251,254.478894 246.015748,254.528413 245.980741,254.569946 C245.945734,254.611478 245.893224,254.632244 245.82321,254.632244 L245.574979,254.632244 C245.460411,254.632244 245.368121,254.571544 245.298107,254.450141 L244.677531,253.376688 L243.93284,253.376688 L243.93284,254.421388 C243.93284,254.485284 243.913745,254.5364 243.875556,254.574738 C243.837366,254.613076 243.786448,254.632244 243.722798,254.632244 L243.455473,254.632244 C243.391824,254.632244 243.340906,254.613076 243.302716,254.574738 Z M244.687078,252.753702 C245.119892,252.753702 245.336296,252.584379 245.336296,252.245729 C245.336296,252.098767 245.286969,251.977366 245.188313,251.881522 C245.089657,251.785677 244.92258,251.737756 244.687078,251.737756 L243.93284,251.737756 L243.93284,252.753702 L244.687078,252.753702 Z" id="Fill-25" fill="#FFFFFF" fill-rule="evenodd"></path>
            </g>
        </g>
    </g>
</svg>