<?xml version="1.0" encoding="UTF-8" standalone="no"?>
<svg
   xmlns:dc="http://purl.org/dc/elements/1.1/"
   xmlns:cc="http://creativecommons.org/ns#"
   xmlns:rdf="http://www.w3.org/1999/02/22-rdf-syntax-ns#"
   xmlns:svg="http://www.w3.org/2000/svg"
   xmlns="http://www.w3.org/2000/svg"
   xmlns:sodipodi="http://sodipodi.sourceforge.net/DTD/sodipodi-0.dtd"
   xmlns:inkscape="http://www.inkscape.org/namespaces/inkscape"
   sodipodi:docname="minion-pool-modal-2.svg"
   inkscape:version="1.0 (4035a4fb49, 2020-05-01)"
   id="svg4378"
   version="1.1"
   viewBox="0 0 25.399999 25.400001"
   height="96"
   width="96">
  <defs
     id="defs4372">
    <path
       d="M48,96 C74.509668,96 96,74.509668 96,48 C96,21.490332 74.509668,0 48,0 C21.490332,0 0,21.490332 0,48 C0,74.509668 21.490332,96 48,96 Z"
       id="path-1" />
  </defs>
  <sodipodi:namedview
     inkscape:window-maximized="0"
     inkscape:window-y="0"
     inkscape:window-x="73"
     inkscape:window-height="1040"
     inkscape:window-width="1274"
     units="px"
     showgrid="false"
     inkscape:document-rotation="0"
     inkscape:current-layer="layer1"
     inkscape:document-units="mm"
     inkscape:cy="70.191481"
     inkscape:cx="17.324006"
     inkscape:zoom="2.8"
     inkscape:pageshadow="2"
     inkscape:pageopacity="0.0"
     borderopacity="1.0"
     bordercolor="#666666"
     pagecolor="#ffffff"
     id="base" />
  <metadata
     id="metadata4375">
    <rdf:RDF>
      <cc:Work
         rdf:about="">
        <dc:format>image/svg+xml</dc:format>
        <dc:type
           rdf:resource="http://purl.org/dc/dcmitype/StillImage" />
        <dc:title></dc:title>
      </cc:Work>
    </rdf:RDF>
  </metadata>
  <g
     id="layer1"
     inkscape:groupmode="layer"
     inkscape:label="Layer 1">
    <path
       id="path867"
       style="fill:#0044ca;fill-opacity:1;fill-rule:nonzero;stroke:none;stroke-width:0.0459433"
       d="m 9.8596476,0.12344215 c -0.1501682,0 -0.267889,0.116254 -0.267889,0.2637676 V 1.3763385 C 9.6200546,1.6313737 9.4145397,1.6236206 9.4145397,1.6236206 5.4717801,3.0019528 2.8393387,6.7320668 2.8533194,10.909066 v 0.704754 c -0.00494,0.160614 -0.030802,0.17368 -0.1607337,0.247281 l -1.0138568,0.428623 c -0.099451,0.04198 -0.1607337,0.130693 -0.1607337,0.239039 v 2.781925 c 0,0.147357 0.117556,0.263767 0.267889,0.263767 H 2.474153 c 0.3038525,0.0065 0.2706112,-0.0073 0.2637412,0.264163 v 1.059192 c 0,0.150179 0.1162583,0.267889 0.2637677,0.267889 h 1.8999513 c 0.2332753,-0.0034 0.2124617,-0.0192 0.2554986,0.194006 0.1743547,0.640225 0.4345452,1.25817 0.7665747,1.83401 0.1369629,0.205676 0.1619997,0.151361 -0.04533,0.31783 l -1.3476879,1.343569 c -0.1051905,0.105655 -0.1053108,0.269184 0,0.375046 l 2.2502677,2.250267 c 0.1036987,0.103249 0.2752341,0.103376 0.379166,0 L 8.50367,22.136856 c 0.1608919,-0.167292 0.1190394,-0.165984 0.3173927,-0.04651 0.5734405,0.331449 1.2109153,0.566373 1.8298883,0.762453 0.215507,0.06425 0.186097,-0.003 0.193685,0.255921 v 1.904071 c 0,0.150685 0.112948,0.263767 0.263768,0.263767 h 3.177578 c 0.150327,0 0.267889,-0.116437 0.267889,-0.263767 V 23.10872 c -0.0076,-0.245775 -0.0192,-0.212935 0.194007,-0.255921 0.641058,-0.174572 1.254352,-0.430173 1.829887,-0.762453 0.188984,-0.120278 0.15136,-0.132643 0.317829,0.04543 l 1.347688,1.343567 c 0.105676,0.105211 0.269168,0.105317 0.375044,0 l 2.250267,-2.250268 c 0.105296,-0.105844 0.10517,-0.269405 0,-0.375045 L 19.52502,19.51046 c -0.188415,-0.152352 -0.170415,-0.110951 -0.04543,-0.317829 0.33157,-0.575045 0.58783,-1.192795 0.762453,-1.83401 0.06843,-0.23219 0.03876,-0.211552 0.255922,-0.194007 h 1.899952 c 0.146992,0 0.267889,-0.121058 0.267889,-0.267888 v -1.059192 c 0.0018,-0.295517 -0.01562,-0.270918 0.264162,-0.263086 h 0.688269 c 0.150833,0 0.263768,-0.113101 0.263768,-0.263768 v -2.78192 c -5.36e-4,-0.109873 -0.06022,-0.197773 -0.16073,-0.239039 -0.0027,-0.0013 -0.0055,-0.0026 -0.0082,-0.0041 v 0.0041 l -1.022106,-0.440987 c -0.166934,-0.05259 -0.148343,-0.03102 -0.156911,-0.24727 V 10.904945 C 22.546898,6.7281312 19.910325,3.039611 15.967512,1.6612603 15.830142,1.5906866 15.772239,1.6190237 15.790281,1.3722435 V 0.38720975 c 0,-0.1508244 -0.113104,-0.2637678 -0.263768,-0.2637676 z m 0.5192924,0.5357781 h 4.615934 c 0.276051,-0.00612 0.270383,-2.644e-4 0.264162,0.2637411 V 9.7715416 c -0.0055,0.2694434 0.02817,0.2662504 -0.264162,0.2637944 h -4.607691 c -0.291583,0.0048 -0.263287,0.002 -0.263767,-0.2637414 l -0.0083,-8.84858025 c -0.0063,-0.3095261 0.07492,-0.2701047 0.263775,-0.2637941 z M 9.2290781,2.2541901 C 9.5249988,2.1913965 9.6016767,2.244188 9.5917133,2.5014459 v 7.7976311 c 0,0.146823 0.12093,0.267889 0.2678889,0.267889 H 15.53473 c 0.147014,0 0.267889,-0.121044 0.267889,-0.267889 V 2.5014723 c -0.0059,-0.2978464 0.07698,-0.3367133 0.363276,-0.2472558 3.543465,1.4057863 5.859429,4.8395038 5.844101,8.6507545 v 1.059192 c 0,0.104011 0.06495,0.196946 0.164865,0.239039 0.0014,-2.3e-5 0.0027,-2.3e-5 0.0042,0 l 1.022099,0.440987 c 0.183646,0.07348 0.160899,0.03519 0.15691,0.24727 v 1.887573 c -0.0065,0.270443 0.01984,0.270616 -0.264164,0.263768 H 2.3092986 C 2.0096318,15.0488 2.0512159,15.06304 2.045531,14.779058 v -1.899977 c 0.00155,-0.211646 -0.037736,-0.143536 0.1566125,-0.247283 l 1.0220997,-0.440986 c 0.00137,-2.3e-5 0.00274,-2.3e-5 0.00411,0 0.099335,-0.04185 0.1607336,-0.130413 0.1607336,-0.23904 V 10.89258 C 3.3770427,7.0860694 5.6916524,3.6604748 9.2290718,2.2541901 Z M 3.5209812,15.574456 h 4.838488 c 0.2617307,-0.0019 0.2305977,-0.02552 0.2637676,0.230803 0.2728913,2.249801 2.3126082,3.850742 4.5623552,3.57735 1.872941,-0.227336 3.346197,-1.704074 3.573229,-3.57735 0.0575,-0.281622 0.03087,-0.240691 0.264162,-0.230803 h 4.846731 c 0.308002,-0.006 0.262778,-0.02399 0.264164,0.264164 l 0.0042,0.531657 c -0.0065,0.274592 0.0574,0.258602 -0.264164,0.264162 h -1.763947 c -0.0027,9.1e-5 -0.0055,9.1e-5 -0.0082,0 -0.130786,-0.003 -0.231849,0.07708 -0.259646,0.206076 -0.185144,0.860786 -0.525438,1.684644 -1.005613,2.423365 -0.07115,0.109305 -0.06001,0.240311 0.02885,0.329709 l 1.269381,1.26526 c 0.211567,0.202194 0.210233,0.152542 0,0.371511 l -1.516664,1.504299 c -0.193837,0.190693 -0.165076,0.201877 -0.371511,0 l -1.26526,-1.26526 c -0.08867,-0.08814 -0.22906,-0.10116 -0.333833,-0.03298 -0.738283,0.479713 -1.558242,0.820412 -2.419243,1.005613 -0.125574,0.02703 -0.209009,0.133551 -0.206076,0.263767 9e-5,0.0027 9e-5,0.0055 0,0.0082 v 1.784553 c 0.01013,0.287122 0.04068,0.258602 -0.264165,0.264164 h -2.117892 c -0.312204,0.0018 -0.26644,0.0032 -0.263768,-0.264164 v -1.801039 c -9.1e-5,-0.0027 -9.1e-5,-0.0055 0,-0.0082 0.0029,-0.127115 -0.08082,-0.231791 -0.210189,-0.259647 -0.861639,-0.185018 -1.6815741,-0.529549 -2.4192591,-1.009737 -0.1051062,-0.06833 -0.2448435,-0.05548 -0.3338311,0.03298 l -1.2652615,1.263879 c -0.2230803,0.173981 -0.1936645,0.168453 -0.370883,0 L 5.2767248,21.22073 c -0.2197525,-0.202321 -0.210092,-0.164929 0,-0.371512 l 1.2693818,-1.265259 c 0.085655,-0.08609 0.095976,-0.223013 0.02885,-0.32971 v -0.0042 C 6.0914722,18.517453 5.7442555,17.70075 5.5528165,16.843837 c -2.39e-5,-0.0014 -2.39e-5,-0.0027 0,-0.0042 -0.027938,-0.129247 -0.1290816,-0.209115 -0.2596463,-0.206077 -0.00274,9.1e-5 -0.00551,9.1e-5 -0.00825,0 h -1.763939 c -0.287147,0.0061 -0.2455603,0.01562 -0.2637677,-0.264162 v -0.531656 c 0.00199,-0.299678 -0.02859,-0.258421 0.2637677,-0.263268 z m 5.8976798,0 h 0.020616 6.520005 c 0.328376,0.01711 0.323614,-0.0122 0.264162,0.305481 -0.314594,1.942649 -2.149408,3.272915 -4.092921,2.958644 C 10.612718,18.593222 9.4167557,17.397234 9.1713787,15.879437 9.1544307,15.568154 9.1292977,15.59537 9.418661,15.574456 Z"
       sodipodi:nodetypes="ssccccccsssccssccccccccccccssssccccccccccccssccsscccccccccscscccccccccccsssscccsccccccccccccscccccccccccccccccccccccccccccccccccccccccccccccccccccccccc" />
  </g>
</svg>
