<?xml version="1.0" encoding="UTF-8"?>
<svg width="92px" height="96px" viewBox="0 0 92 96" version="1.1" xmlns="http://www.w3.org/2000/svg" xmlns:xlink="http://www.w3.org/1999/xlink">
    <!-- Generator: Sketch 47.1 (45422) - http://www.bohemiancoding.com/sketch -->

    <desc>Created with Sketch.</desc>
    <defs></defs>
    <g id="Coriolis" stroke="none" stroke-width="1" fill="none" fill-rule="evenodd">
        <g id="Wizard/04-Networks---Empty" transform="translate(-674.000000, -287.000000)">
            <g id="Splash-Copy" transform="translate(501.000000, 287.000000)">
                <g id="Icon/Network/96" transform="translate(171.000000, 0.000000)">
                    <path d="M86,92 C86,94.209139 87.790862,96 90,96 C92.209138,96 94,94.209139 94,92 C94,89.790861 92.209138,88 90,88 C87.790862,88 86,89.790861 86,92 L86,92 Z" id="Shape" fill="#0044CA" fill-rule="evenodd"></path>
                    <path d="M86,4 C86,6.209139 87.790862,8 90,8 C92.209138,8 94,6.209139 94,4 C94,1.790861 92.209138,-5.32907052e-15 90,-5.32907052e-15 C87.790862,-7.10542736e-15 86,1.790861 86,4 L86,4 Z" id="Shape-Copy-3" fill="#0044CA" fill-rule="evenodd"></path>
                    <path d="M86,48 C86,50.209139 87.790862,52 90,52 C92.209138,52 94,50.209139 94,48 C94,45.790861 92.209138,44 90,44 C87.790862,44 86,45.790861 86,48 L86,48 Z" id="Shape-Copy-2" fill="#0044CA" fill-rule="evenodd"></path>
                    <path d="M2,48 C2,50.209139 3.790862,52 6,52 C8.209138,52 10,50.209139 10,48 C10,45.790861 8.209138,44 6,44 C3.790862,44 2,45.790861 2,48 L2,48 Z" id="Shape-Copy-4" fill="#0044CA" fill-rule="evenodd"></path>
                    <path d="M80,39 L55.1836546,39 C46.7765963,39 43.7269155,38.1154545 40.6520826,36.4513636 C37.5772498,34.7872727 35.1658011,32.3436364 33.5214887,29.235 C31.8771762,26.1231818 31,23.0368182 31,14.5254545 L31,4" id="Page-1-Copy-2" stroke="#0044CA" stroke-width="1.5" transform="translate(55.500000, 21.500000) scale(1, -1) translate(-55.500000, -21.500000) "></path>
                    <path d="M15,48 L80,48" id="Line-2" stroke="#0044CA" stroke-width="1.5"></path>
                    <path d="M80,92 L55.1836546,92 C46.7765963,92 43.7269155,91.1154545 40.6520826,89.4513636 C37.5772498,87.7872727 35.1658011,85.3436364 33.5214887,82.235 C31.8771762,79.1231818 31,76.0368182 31,67.5254545 L31,57" id="Page-1-Copy-2" stroke="#0044CA" stroke-width="1.5"></path>
                </g>
            </g>
        </g>
    </g>
</svg>
