<?xml version="1.0" encoding="UTF-8" standalone="no"?>
<svg
   xmlns:osb="http://www.openswatchbook.org/uri/2009/osb"
   xmlns:dc="http://purl.org/dc/elements/1.1/"
   xmlns:cc="http://creativecommons.org/ns#"
   xmlns:rdf="http://www.w3.org/1999/02/22-rdf-syntax-ns#"
   xmlns:svg="http://www.w3.org/2000/svg"
   xmlns="http://www.w3.org/2000/svg"
   xmlns:xlink="http://www.w3.org/1999/xlink"
   xmlns:sodipodi="http://sodipodi.sourceforge.net/DTD/sodipodi-0.dtd"
   xmlns:inkscape="http://www.inkscape.org/namespaces/inkscape"
   sodipodi:docname="minion-pool-list-item.svg"
   inkscape:version="1.0 (4035a4fb49, 2020-05-01)"
   id="svg8"
   version="1.1"
   viewBox="0 0 12.7 12.7"
   height="48"
   width="48">
  <defs
     id="defs2">
    <linearGradient
       osb:paint="solid"
       id="linearGradient892">
      <stop
         id="stop890"
         offset="0"
         style="stop-color:#0044ca;stop-opacity:1;" />
    </linearGradient>
    <path
       d="M24,48 C37.254834,48 48,37.254834 48,24 C48,10.745166 37.254834,0 24,0 C10.745166,0 0,10.745166 0,24 C0,37.254834 10.745166,48 24,48 Z"
       id="path-1" />
  </defs>
  <sodipodi:namedview
     inkscape:window-maximized="0"
     inkscape:window-y="0"
     inkscape:window-x="98"
     inkscape:window-height="1040"
     inkscape:window-width="1274"
     units="px"
     showgrid="false"
     inkscape:document-rotation="0"
     inkscape:current-layer="layer1"
     inkscape:document-units="mm"
     inkscape:cy="12.413305"
     inkscape:cx="32.047639"
     inkscape:zoom="7.9195959"
     inkscape:pageshadow="2"
     inkscape:pageopacity="0.0"
     borderopacity="1.0"
     bordercolor="#666666"
     pagecolor="#ffffff"
     id="base" />
  <metadata
     id="metadata5">
    <rdf:RDF>
      <cc:Work
         rdf:about="">
        <dc:format>image/svg+xml</dc:format>
        <dc:type
           rdf:resource="http://purl.org/dc/dcmitype/StillImage" />
        <dc:title></dc:title>
      </cc:Work>
    </rdf:RDF>
  </metadata>
  <g
     id="layer1"
     inkscape:groupmode="layer"
     inkscape:label="Layer 1">
    <g
       id="Icon/Project/ProjectListItem"
       style="fill:none;fill-rule:evenodd;stroke:none;stroke-width:1"
       transform="scale(0.26458333)">
      <mask
         id="mask-2"
         fill="#ffffff">
        <use
           xlink:href="#path-1"
           id="use15"
           x="0"
           y="0"
           width="100%"
           height="100%" />
      </mask>
      <use
         id="Pat-Benetar"
         fill="#c8ccd7"
         fill-rule="evenodd"
         xlink:href="#path-1"
         x="0"
         y="0"
         width="100%"
         height="100%" />
      <path
         sodipodi:nodetypes="cccccssssssssssssssccscsssscs"
         d="M 28.176,16.752495 V 12.78 h -7.944 v 3.973 z M 11.77,19.831 v 14.996 c 0,0.775618 0.634385,1.41 1.41,1.41 h 22.047 c 0.775615,0 1.41,-0.634383 1.41,-1.41 V 19.831 c 0,-0.775615 -0.634385,-1.41 -1.41,-1.41 H 13.18 c -0.775615,0 -1.41,0.634386 -1.41,1.41 z m 23.71529,-3.078484 c 1.565332,0 2.820418,1.255085 2.820418,2.820417 v 15.5123 c 0,1.565331 -1.255086,2.820418 -2.820418,2.820418 H 12.921944 c -1.565332,0 -2.820418,-1.255087 -2.820418,-2.820418 l 0.0141,-15.5123 c 0,-1.565332 1.240984,-2.820417 2.806316,-2.820417 h 5.640837 v -2.820419 c 0,-1.565332 1.255085,-2.820419 2.820418,-2.820419 h 5.640835 c 1.565332,0 2.820418,1.255087 2.820418,2.820419 v 2.820419 z"
         style="fill:#0044ca;fill-opacity:1;stroke:none;stroke-width:1.41;stroke-miterlimit:4;stroke-dasharray:none;stroke-opacity:1"
         id="path80" />
      <path
         sodipodi:nodetypes="cccccssssssssssssssccscsssscs"
         id="path917"
         style="fill:none;fill-opacity:1;stroke:none;stroke-width:1.41021;stroke-opacity:1"
         d="m 27.675789,16.752495 v -3.472062 h -6.944288 v 3.472083 z m -15.405554,3.578939 v 13.995287 c 0,0.775617 0.63465,1.408655 1.410265,1.408713 l 21.046288,0.0016 c 0.775615,5.7e-5 1.410265,-0.634648 1.410265,-1.410265 V 20.331434 c 0,-0.775615 -0.63465,-1.410266 -1.410265,-1.410266 H 13.6805 c -0.775615,0 -1.410265,0.634651 -1.410265,1.410266 z M 35.48529,16.752516 c 1.565332,0 2.820418,1.255085 2.820418,2.820417 v 15.5123 c 0,1.565331 -1.255086,2.820418 -2.820418,2.820418 H 12.921944 c -1.565332,0 -2.820418,-1.255087 -2.820418,-2.820418 l 0.0141,-15.5123 c 0,-1.565332 1.240984,-2.820417 2.806316,-2.820417 h 5.640837 v -2.820419 c 0,-1.565332 1.255085,-2.820419 2.820418,-2.820419 h 5.640835 c 1.565332,0 2.820418,1.255087 2.820418,2.820419 v 2.820419 z" />
      <path
         id="path896"
         style="fill:#0044ca;fill-opacity:1;stroke:none;stroke-width:1.41;stroke-miterlimit:4;stroke-dasharray:none;stroke-opacity:1"
         d="M 28.176,16.752495 V 12.78 h -7.944 v 3.973 z M 11.77,19.831 v 14.996 c 0,0.775618 0.634385,1.41 1.41,1.41 h 22.047 c 0.775615,0 1.41,-0.634383 1.41,-1.41 V 19.831 c 0,-0.775615 -0.634385,-1.41 -1.41,-1.41 H 13.18 c -0.775615,0 -1.41,0.634386 -1.41,1.41 z m 23.71529,-3.078484 c 1.565332,0 2.820418,1.255085 2.820418,2.820417 v 15.5123 c 0,1.565331 -1.255086,2.820418 -2.820418,2.820418 H 12.921944 c -1.565332,0 -2.820418,-1.255087 -2.820418,-2.820418 l 0.0141,-15.5123 c 0,-1.565332 1.240984,-2.820417 2.806316,-2.820417 h 5.640837 v -2.820419 c 0,-1.565332 1.255085,-2.820419 2.820418,-2.820419 h 5.640835 c 1.565332,0 2.820418,1.255087 2.820418,2.820419 v 2.820419 z"
         sodipodi:nodetypes="cccccssssssssssssssccscsssscs" />
    </g>
  </g>
</svg>
