<?xml version="1.0" encoding="UTF-8"?>
<svg width="48px" height="48px" viewBox="0 0 48 48" version="1.1" xmlns="http://www.w3.org/2000/svg" xmlns:xlink="http://www.w3.org/1999/xlink">
    <!-- Generator: Sketch 47.1 (45422) - http://www.bohemiancoding.com/sketch -->
    <title>Icon/Migration/ListItem</title>
    <desc>Created with Sketch.</desc>
    <defs></defs>
    <g id="Symbols" stroke="none" stroke-width="1" fill="none" fill-rule="evenodd">
        <g id="Icon/Migration/ListItem">
            <path d="M8.56957458,6.7868 L1.17775396,19.2118 C0.399760797,20.5218587 0.00617395647,22.238711 0,23.9601474 C0.00616856622,25.7598885 0.397751035,27.4757452 1.17775396,28.7878 L8.56957458,41.2128 C10.1379331,43.8508 13.9249451,45.9998 17.0183762,45.9998 L30.9815989,45.9998 C34.0790566,45.9998 37.8580154,43.8568 39.4314072,41.2128 L46.8222211,28.7878 C47.5923073,27.4918 47.9859069,25.7978 48,24.0958 L48,23.9038 C47.9859069,22.2028 47.593314,20.5088 46.8222211,19.2118 L39.4314072,6.7868 C37.8707893,4.16350357 34.1181723,2.0237712 31.0334058,2 L16.9664762,2 C13.8798077,2.02374356 10.1331854,4.15854855 8.56957458,6.7868 Z" id="Clip-2" fill="#E7E7E7"></path>
            <path d="M8.56957458,6.7868 L1.17775396,19.2118 C0.399760797,20.5218587 0.00617395647,22.238711 0,23.9601474 C0.00616856622,25.7598885 0.397751035,27.4757452 1.17775396,28.7878 L8.56957458,41.2128 C10.1379331,43.8508 13.9249451,45.9998 17.0183762,45.9998 L30.9815989,45.9998 C34.0790566,45.9998 37.8580154,43.8568 39.4314072,41.2128 L46.8222211,28.7878 C47.5923073,27.4918 47.9859069,25.7978 48,24.0958 L48,23.9038 C47.9859069,22.2028 47.593314,20.5088 46.8222211,19.2118 L39.4314072,6.7868 C37.8707893,4.16350357 34.1181723,2.0237712 31.0334058,2 L16.9664762,2 C13.8798077,2.02374356 10.1331854,4.15854855 8.56957458,6.7868 Z" id="Clip-2-Copy" fill="#C8CCD7"></path>
            <path d="M36.7023973,20.3355088 C38.7699602,21.3593366 40,22.6393201 40,24.0264809 C40,25.4510933 38.7020802,26.7627454 36.5316929,27.7999023 C37.49947,31.6685095 37.1542044,35.1274862 35.2722447,37.1864514 C34.154915,38.409604 32.5587297,39.0299275 30.6537173,38.9978544 C28.6697177,38.9581238 26.4536262,38.2157103 24.2364965,36.9089592 C22.0194849,38.2155847 19.8034331,38.9579812 17.8194656,38.9980691 C15.9186172,39.0396184 14.3189619,38.4098187 13.2009382,37.1866661 C11.3506272,35.1623262 10.9857601,31.7846666 11.8937801,27.9949384 C9.46860093,26.9295813 8,25.5419447 8,24.0264809 C8,22.5472014 9.39869873,21.1898069 11.7201918,20.1349702 C10.7724027,16.2924123 11.12424,12.8603872 12.9957442,10.8128609 C14.0811502,9.62469714 15.61904,9 17.4504891,9 C17.5046206,9 17.5594461,9.00072893 17.6142716,9.00145787 C19.6595682,9.04241602 21.9515193,9.83014736 24.2368973,11.2130837 C26.5222478,9.83028052 28.8140719,9.04262858 30.8589113,9.00167255 C30.9137368,9.00094362 30.9685623,9.00021468 31.0226938,9.00021468 C32.8541429,9.00021468 34.3920327,9.62491182 35.4774387,10.8130756 C37.381406,12.8961182 37.7125289,16.412107 36.7023973,20.3355088 Z M16.3326618,18.6941659 C14.5670076,19.0617718 13.0027664,19.5521958 11.7201918,20.1349702 C12.0482157,21.4648557 12.5319101,22.8439152 13.162153,24.2317725 C13.9618838,22.3774606 15.026008,20.4993191 16.3326618,18.6941659 Z M32.4299399,29.1886495 C33.9984246,28.817974 35.3865083,28.3471485 36.5316929,27.7999023 C36.2411368,26.6384289 35.8322253,25.440032 35.3110108,24.2315137 C34.5558379,25.8944061 33.5902529,27.5699354 32.4299399,29.1886495 Z M36.7023973,20.3355088 C35.47788,19.7291453 33.9595916,19.2126314 32.2290731,18.8169157 C31.74349,18.1391529 31.223771,17.4713337 30.6710671,16.8185548 C28.6892978,14.4774888 26.4662249,12.5621026 24.2368973,11.2130837 C22.0073631,12.562114 19.7839902,14.4775793 17.8021158,16.8187695 C17.282867,17.4320357 16.7927309,18.0585765 16.3326618,18.6941659 C18.610541,18.2199157 21.2236459,17.9500803 23.9996546,17.9500803 C27.0069362,17.9500803 29.8231203,18.2667492 32.2290731,18.8169157 C33.4953092,20.5842914 34.5294247,22.4192823 35.3110108,24.2315137 C35.9096203,22.9133745 36.3760197,21.6031755 36.7023973,20.3355088 Z M24.2364965,36.9089592 C26.5345195,35.5545886 28.8335736,33.5940009 30.8762612,31.1809721 C31.4273236,30.5301319 31.9455968,29.8643406 32.4299399,29.1886495 C29.9804695,29.767526 27.0910293,30.1021526 23.9996546,30.1021526 C21.1429148,30.1021526 18.4586915,29.8163945 16.1347824,29.3161987 C14.9336377,27.6581307 13.9371083,25.9383007 13.162153,24.2317725 C12.6117529,25.5079689 12.1865862,26.772878 11.8937801,27.9949384 C13.0938844,28.5221322 14.5282338,28.9704068 16.1347824,29.3161987 C16.5925274,29.9480728 17.0799887,30.5709772 17.5962278,31.1807575 C19.6392366,33.5937486 21.9384243,35.5545015 24.2364965,36.9089592 Z" id="Combined-Shape" stroke="#0044CA" stroke-width="1.5" stroke-linecap="round"></path>
        </g>
    </g>
</svg>