<?xml version="1.0" encoding="UTF-8"?>
<svg width="96px" height="84px" viewBox="0 0 96 84" version="1.1" xmlns="http://www.w3.org/2000/svg" xmlns:xlink="http://www.w3.org/1999/xlink">
    <!-- Generator: Sketch 47.1 (45422) - http://www.bohemiancoding.com/sketch -->
    <title>splash-1</title>
    <desc>Created with Sketch.</desc>
    <defs></defs>
    <g id="Coriolis" stroke="none" stroke-width="1" fill="none" fill-rule="evenodd" stroke-linecap="round" stroke-dasharray="3.071241577466329,6.143633137146631,10.75107119480769,6.143633137146631">
        <g id="Migration/List/Empty" transform="translate(-832.000000, -294.000000)" stroke="#0044CA" stroke-width="1.5">
            <g id="Splash" transform="translate(641.000000, 288.000000)">
                <g id="Icon/Migration/96-dashed" transform="translate(191.000000, 0.000000)">
                    <path d="M12.4380554,58.9192022 C5.314046,56.0069518 1,52.2135726 1,48.0703888 C1,44.0279208 5.10864427,40.3182139 11.9279806,37.435273 C9.14395333,26.9324077 10.1775094,17.5516695 15.6749986,11.9551531 C18.8633787,8.7075055 23.38093,7 28.7608118,7 C28.9198231,7 29.0808729,7.00199242 29.2419228,7.00398484 C35.2499814,7.11593711 41.9825879,9.26906946 48.695886,13.0490955 C55.4091029,9.26943343 62.1413362,7.11651812 68.148052,7.00457165 C68.3091019,7.00257923 68.4701518,7.0005868 68.6291631,7.0005868 C74.0090448,7.0005868 78.5265961,8.70809231 81.7149762,11.9557399 C87.3078182,17.6493267 88.2805322,27.2595467 85.3133903,37.9833685 C91.3867972,40.7815403 95,44.2796611 95,48.0703888 C95,51.965195 91.1873242,55.55088 84.8117571,58.3860618 C87.6547147,68.9603912 86.6405343,78.415069 81.1122187,84.0429671 C77.8300628,87.386251 73.1412685,89.0818019 67.5452946,88.9941354 C61.7172956,88.8855383 55.2075271,86.8562748 48.6947085,83.2844885 C42.1822369,86.8559315 35.6725848,88.8851485 29.8446803,88.9947222 C24.2609379,89.1082902 19.5619507,87.3868378 16.2777561,84.0435539 C10.8424156,78.5103057 9.77064982,69.2779128 12.4380554,58.9192022 Z M72.763028,62.1822055 C77.3703778,61.1689826 81.447814,59.8819899 84.8117571,58.3860618 C83.9582541,55.2114731 82.7571075,51.9359703 81.2260944,48.6328041 C79.007791,53.1780079 76.171412,57.7577521 72.763028,62.1822055 Z M25.4772508,33.4973137 C20.2905806,34.5020637 15.6955727,35.8424867 11.9279806,37.435273 C12.8915523,41.0703898 14.3124329,44.8399263 16.1638246,48.6335115 C18.5130453,43.5650339 21.6389293,38.4314216 25.4772508,33.4973137 Z M12.4380554,58.9192022 C15.9633305,60.3603126 20.1766838,61.5856602 24.895861,62.5308629 C26.2405051,64.258013 27.6724435,65.9606453 29.1889191,67.6274037 C35.1902575,74.2229127 41.9441214,79.5823041 48.6947085,83.2844885 C55.4451509,79.5825423 62.1986226,74.2236026 68.1990172,67.6279905 C69.8177933,65.8489941 71.3402473,64.0291297 72.763028,62.1822055 C65.5676917,63.7645643 57.0799319,64.6792171 47.9989854,64.6792171 C39.6072866,64.6792171 31.7223581,63.8981401 24.895861,62.5308629 C21.3675261,57.9988352 18.4402423,53.2979944 16.1638246,48.6335115 C14.547072,52.1216785 13.2981707,55.5789956 12.4380554,58.9192022 Z M48.695886,13.0490955 C42.1466292,16.736445 35.6154713,21.97205 29.7937151,28.3713033 C28.2684433,30.0475407 26.8286874,31.7600612 25.4772508,33.4973137 C32.1685077,32.2010987 39.8444831,31.4635529 47.9989854,31.4635529 C56.832845,31.4635529 65.1053593,32.3291087 72.1728298,33.8328086 C75.8924302,38.6636627 78.9301697,43.6793385 81.2260944,48.6328041 C82.9845699,45.0297669 84.3546517,41.4484345 85.3133903,37.9833685 C81.7163368,36.3261151 77.2563043,34.9143866 72.1728298,33.8328086 C70.7464488,31.9802877 69.2197992,30.1549477 67.5962597,28.3707165 C61.7748124,21.9718026 55.2445356,16.7364137 48.695886,13.0490955 Z" id="Combined-Shape"></path>
                </g>
            </g>
        </g>
    </g>
</svg>