<?xml version="1.0" encoding="UTF-8"?>
<svg width="48px" height="48px" viewBox="0 0 48 48" version="1.1" xmlns="http://www.w3.org/2000/svg" xmlns:xlink="http://www.w3.org/1999/xlink">
    <!-- Generator: Sketch 52.4 (67378) - http://www.bohemiancoding.com/sketch -->

    <desc>Created with Sketch.</desc>
    <defs>
        <path d="M0,0 L0,13.0499552 C0,15.7837895 5.82029825,18 13,18 C20.1797017,18 26,15.7837895 26,13.0499552 L26,0" id="path-1"></path>
        <path d="M0,8 L0,20.0132882 C0,22.7673731 5.82029825,25 13,25 C20.1797017,25 26,22.7673731 26,20.0132882 L26,8" id="path-2"></path>
        <path d="M5.68434189e-14,5 L5.68434189e-14,12.1999566 C5.68434189e-14,14.8509474 5.82029825,17 13,17 C20.1797017,17 26,14.8509474 26,12.1999566 L26,5" id="path-3"></path>
    </defs>
    <g id="Coriolis" stroke="none" stroke-width="1" fill="none" fill-rule="evenodd">
        <g id="Wizard/06-Storage" transform="translate(-256.000000, -280.000000)">
            <g id="Elements/Item/Wizard/Network-Copy-2" transform="translate(256.000000, 272.000000)">
                <g id="Icon/Storage/Volume" transform="translate(0.000000, 8.000000)">
                    <path d="M10.2555408,-4.14336123e-16 L37.7444592,4.14336123e-16 C41.3105342,-2.4074122e-16 42.6036791,0.371302445 43.9073828,1.06853082 C45.2110865,1.76575919 46.2342408,2.78891348 46.9314692,4.09261719 C47.6286976,5.39632089 48,6.68946584 48,10.2555408 L48,37.7444592 C48,41.3105342 47.6286976,42.6036791 46.9314692,43.9073828 C46.2342408,45.2110865 45.2110865,46.2342408 43.9073828,46.9314692 C42.6036791,47.6286976 41.3105342,48 37.7444592,48 L10.2555408,48 C6.68946584,48 5.39632089,47.6286976 4.09261719,46.9314692 C2.78891348,46.2342408 1.76575919,45.2110865 1.06853082,43.9073828 C0.371302445,42.6036791 1.60494146e-16,41.3105342 -2.76224082e-16,37.7444592 L2.76224082e-16,10.2555408 C-1.60494146e-16,6.68946584 0.371302445,5.39632089 1.06853082,4.09261719 C1.76575919,2.78891348 2.78891348,1.76575919 4.09261719,1.06853082 C5.39632089,0.371302445 6.68946584,2.4074122e-16 10.2555408,-4.14336123e-16 Z" id="Rectangle-6" fill="#D8DBE2"></path>
                    <g id="Group" stroke-width="1" transform="translate(11.000000, 8.000000)">
                        <rect id="Rectangle" fill="#D8DBE2" x="0" y="4" width="26" height="7"></rect>
                        <g id="Group-Copy-4" transform="translate(0.000000, 14.000000)" stroke-linecap="round" stroke-linejoin="round">
                            <g id="Shape">
                                <use fill="#D8DBE2" fill-rule="evenodd" xlink:href="#path-1"></use>
                                <use stroke="#979797" stroke-width="1" xlink:href="#path-1"></use>
                                <use stroke="#0044CA" stroke-width="1.5" xlink:href="#path-1"></use>
                            </g>
                        </g>
                        <g id="Shape" stroke-linecap="round" stroke-linejoin="round">
                            <use fill="#D8DBE2" fill-rule="evenodd" xlink:href="#path-2"></use>
                            <use stroke="#979797" stroke-width="1" xlink:href="#path-2"></use>
                            <use stroke="#0044CA" stroke-width="1.5" xlink:href="#path-2"></use>
                        </g>
                        <g id="Shape-Copy" stroke-linecap="round" stroke-linejoin="round">
                            <use fill="#D8DBE2" fill-rule="evenodd" xlink:href="#path-3"></use>
                            <use stroke="#979797" stroke-width="1" xlink:href="#path-3"></use>
                            <use stroke="#0044CA" stroke-width="1.5" xlink:href="#path-3"></use>
                        </g>
                        <ellipse id="Oval" stroke="#0044CA" stroke-width="1.5" fill="#D8DBE2" stroke-linecap="round" cx="13" cy="5" rx="13" ry="5"></ellipse>
                    </g>
                </g>
            </g>
        </g>
    </g>
</svg>
