<?xml version="1.0" encoding="UTF-8"?>
<svg width="106px" height="106px" viewBox="0 0 106 106" version="1.1" xmlns="http://www.w3.org/2000/svg" xmlns:xlink="http://www.w3.org/1999/xlink">
    <!-- Generator: Sketch 57.1 (83088) - https://sketch.com -->
    <title>Group</title>
    <desc>Created with Sketch.</desc>
    <defs>
        <path d="M40,80 C62.09139,80 80,62.09139 80,40 C80,17.90861 62.09139,0 40,0 C17.90861,0 0,17.90861 0,40 C0,62.09139 17.90861,80 40,80 Z" id="path-1"></path>
        <filter x="-25.6%" y="-23.1%" width="151.2%" height="151.2%" filterUnits="objectBoundingBox" id="filter-2">
            <feOffset dx="0" dy="2" in="SourceAlpha" result="shadowOffsetOuter1"></feOffset>
            <feGaussianBlur stdDeviation="6.5" in="shadowOffsetOuter1" result="shadowBlurOuter1"></feGaussianBlur>
            <feColorMatrix values="0 0 0 0 0   0 0 0 0 0   0 0 0 0 0  0 0 0 0.0753114073 0" type="matrix" in="shadowBlurOuter1"></feColorMatrix>
        </filter>
    </defs>
    <g id="Migrations" stroke="none" stroke-width="1" fill="none" fill-rule="evenodd">
        <g id="01-Dashboard/Start" transform="translate(-499.000000, -389.000000)">
            <g id="Group-7" transform="translate(400.000000, 320.000000)">
                <g id="Widget-Empty-Copy">
                    <g id="Group" transform="translate(112.000000, 80.000000)">
                        <g id="Pat-Benetar">
                            <use fill="black" fill-opacity="1" filter="url(#filter-2)" xlink:href="#path-1"></use>
                            <use fill="#FFFFFF" fill-rule="evenodd" xlink:href="#path-1"></use>
                        </g>
                        <g id="Icon/Migration/Item-80" stroke="#0044CA" stroke-linecap="round" stroke-linejoin="round">
                            <g id="Icon/Migration/48" transform="translate(11.000000, 15.000000)">
                                <path d="M7.24561281,31.6579882 C9.40239096,32.5369605 11.9802745,33.2843833 14.8676906,33.8609756 L14.8676906,33.8609756 L15.3675007,34.4908685 C16.0424182,35.3281868 16.7512796,36.1550546 17.4932218,36.9679291 C21.1644467,40.9897928 25.2960415,44.2578469 29.4256074,46.5152888 C25.4416218,48.6925293 21.459455,49.9299656 17.8943523,49.9967818 C14.4787652,50.0660306 11.6043847,49.0163645 9.5954359,46.9777768 C6.27879984,43.612139 5.61826458,38.0020012 7.23469111,31.7046191 Z M51.5178521,31.3330461 C53.2568681,37.780775 52.6364828,43.5457883 49.2548147,46.977419 C47.2471129,49.0160067 44.3789675,50.0498792 40.9558983,49.996424 C37.3910936,49.9302099 33.4092946,48.6929857 29.4256074,46.5152888 C33.5545748,44.2573628 37.6854876,40.9898263 41.3557818,36.9682869 C42.3461081,35.8834042 43.2775,34.7735962 44.1479068,33.6472853 C46.9066687,33.0428871 49.3542794,32.2783975 51.3861661,31.3911197 L51.5178521,31.3330461 Z M28.9993794,14.9168005 C34.4036194,14.9168005 39.4644135,15.4446858 43.7869177,16.3619171 L43.7869177,16.3619171 L44.2035155,16.9087048 C46.2898322,19.6850027 48.0069728,22.552316 49.3246466,25.3862304 C47.9673209,28.1576321 46.2325176,30.9497883 44.1479068,33.6472853 C39.7469751,34.6124553 34.5546313,35.1702544 28.9993794,35.1702544 C23.8664588,35.1702544 19.0434947,34.6940435 14.8676906,33.8609756 C12.7090305,31.0971661 10.9181372,28.2303819 9.52556816,25.3856938 C10.9628825,22.29559 12.8748418,19.165595 15.2225326,16.1572238 C19.3163173,15.3664781 24.0115052,14.9168005 28.9993794,14.9168005 Z M51.8242782,18.8924982 C49.6241492,17.8820681 46.8962282,17.0213532 43.7869177,16.3619171 C42.9142991,15.2321783 41.9803282,14.119015 40.9870738,13.0309247 C37.4260181,9.12907787 33.4313544,5.93672295 29.4254591,3.68835175 C33.5318821,1.38389075 37.6501597,0.0710499716 41.3246063,0.00278759024 C41.4231208,0.00157269888 41.5216354,0.000357807523 41.6189029,0.000357807523 C44.909788,0.000357807523 47.6731838,1.0415197 49.6235227,3.02179261 C53.0051908,6.45342333 53.6255762,12.2184366 51.8865602,18.6661655 Z M9.22672789,3.0214348 C11.1770668,1.04116189 13.9404625,0 17.2313476,0 L17.3780283,0.000759307098 L17.5256443,0.00242978271 C21.2007222,0.0706921641 25.3189919,1.38353295 29.4254591,3.68835175 C25.4192003,5.93708076 21.4242325,9.12943568 17.8631768,13.0312825 C16.9300693,14.0534831 16.0492828,15.097812 15.2225326,16.1572238 C12.0507143,16.7694617 9.23992119,17.5868049 6.93523193,18.5580678 C5.23164109,12.1542011 5.86381563,6.43403253 9.22672789,3.0214348 Z M0.25,25.0441349 C0.25,22.6452051 2.62946411,20.4386003 6.60063352,18.7017149 L6.93523193,18.5580678 L6.93523193,18.5580678 C7.52441195,20.774521 8.39333202,23.072804 9.52556816,25.3856938 C8.53693007,27.5128212 7.77294365,29.6209527 7.24677893,31.6576781 C2.88850203,29.8822935 0.25,27.5697211 0.25,25.0441349 Z M57.75,25.0441349 C57.75,27.389264 55.4748589,29.5507321 51.6611784,31.2691337 L51.5178521,31.3330461 C50.9957936,29.3974157 50.2611007,27.4002576 49.3246466,25.3862304 C50.3999435,23.1893705 51.2381228,21.0054496 51.8246428,18.8924329 C55.5397322,20.5988557 57.75,22.7321792 57.75,25.0441349 Z" id="Combined-Shape" stroke-width="1.5"></path>
                            </g>
                        </g>
                    </g>
                </g>
            </g>
        </g>
    </g>
</svg>