<?xml version="1.0" encoding="UTF-8"?>
<svg width="105px" height="42px" viewBox="0 0 105 42" version="1.1" xmlns="http://www.w3.org/2000/svg" xmlns:xlink="http://www.w3.org/1999/xlink">
    <g id="Provider/AWS/aws-42" stroke="none" stroke-width="1" fill="none" fill-rule="evenodd">
        <g id="Combined-Shape-Copy-6" transform="translate(24.000000, 5.000000)" fill="#616870" fill-rule="nonzero">
            <path d="M15.7813478,12.3481646 C15.7813478,13.0478309 15.8558479,13.6151279 15.986223,14.0311457 C16.1352231,14.4471635 16.3214732,14.9010011 16.5822233,15.3926585 C16.6753484,15.5439377 16.7125984,15.6952169 16.7125984,15.8275862 C16.7125984,16.0166852 16.6008483,16.2057842 16.3587232,16.3948832 L15.1853475,17.189099 C15.0177224,17.3025584 14.8500973,17.3592881 14.7010972,17.3592881 C14.5148471,17.3592881 14.3285969,17.2647386 14.1423468,17.0945495 C13.8815967,16.810901 13.6580965,16.5083426 13.4718464,16.2057842 C13.2855963,15.8843159 13.0993462,15.5250278 12.8944711,15.0901001 C11.4417202,16.8298109 9.61646906,17.6996663 7.41871772,17.6996663 C5.85421676,17.6996663 4.606341,17.2458287 3.69371544,16.3381535 C2.78108988,15.4304783 2.31546459,14.2202447 2.31546459,12.7074527 C2.31546459,11.1001112 2.87421494,9.79532814 4.01034063,8.81201335 C5.14646633,7.82869855 6.65509225,7.33704116 8.57346842,7.33704116 C9.20671881,7.33704116 9.85859421,7.39377086 10.5477196,7.48832036 C11.2368451,7.58286986 11.9445955,7.73414905 12.6895959,7.90433815 L12.6895959,6.52391546 C12.6895959,5.08676307 12.3915958,4.08453838 11.8142204,3.49833148 C11.21822,2.91212458 10.2124694,2.62847608 8.77834355,2.62847608 C8.12646815,2.62847608 7.45596774,2.70411568 6.76684232,2.87430478 C6.0777169,3.04449388 5.40721649,3.25250278 4.75534109,3.51724138 C4.4573409,3.64961068 4.23384077,3.72525028 4.10346569,3.76307008 C3.97309061,3.80088988 3.87996555,3.81979978 3.80546551,3.81979978 C3.54471535,3.81979978 3.41434027,3.63070078 3.41434027,3.23359288 L3.41434027,2.30700779 C3.41434027,2.00444939 3.45159029,1.77753059 3.54471535,1.64516129 C3.6378404,1.51279199 3.80546551,1.38042269 4.06621566,1.24805339 C4.71809106,0.907675195 5.50034154,0.624026696 6.4129671,0.397107898 C7.32559266,0.151279199 8.29409325,0.0378197998 9.31846888,0.0378197998 C11.5348452,0.0378197998 13.1552212,0.548387097 14.1982219,1.56952169 C15.2225975,2.59065628 15.7440978,4.14126808 15.7440978,6.22135706 L15.7440978,12.3481646 L15.7813478,12.3481646 Z M8.21959321,15.2224694 C8.83421858,15.2224694 9.46746897,15.10901 10.1379694,14.8820912 C10.8084698,14.6551724 11.4044702,14.2391546 11.9073455,13.6718576 C12.2053456,13.3125695 12.4288458,12.9154616 12.5405959,12.461624 C12.6523459,12.0077864 12.726846,11.4593993 12.726846,10.8164627 L12.726846,10.0222469 C12.1867206,9.88987764 11.6093453,9.77641824 11.0133449,9.70077864 C10.4173446,9.62513904 9.8399692,9.58731924 9.26259385,9.58731924 C8.01471808,9.58731924 7.10209252,9.83314794 6.48746715,10.3437152 C5.87284177,10.8542825 5.57484159,11.5728587 5.57484159,12.5183537 C5.57484159,13.407119 5.79834173,14.0689655 6.26396701,14.5228031 C6.71096728,14.9955506 7.36284268,15.2224694 8.21959321,15.2224694 Z M23.1754774,17.2647386 C22.8402272,17.2647386 22.616727,17.2080089 22.4677269,17.0756396 C22.3187268,16.9621802 22.1883518,16.6974416 22.0766017,16.3381535 L17.699724,1.72080089 C17.5879739,1.34260289 17.5320989,1.09677419 17.5320989,0.964404894 C17.5320989,0.661846496 17.681099,0.491657397 17.9790992,0.491657397 L19.8043503,0.491657397 C20.1582255,0.491657397 20.4003507,0.548387097 20.5307257,0.680756396 C20.6797258,0.794215795 20.7914759,1.05895439 20.903226,1.41824249 L24.0322279,13.9365962 L26.9377297,1.41824249 C27.0308547,1.04004449 27.1426048,0.794215795 27.2916049,0.680756396 C27.440605,0.567296997 27.7013551,0.491657397 28.0366053,0.491657397 L29.5266062,0.491657397 C29.8804815,0.491657397 30.1226066,0.548387097 30.2716067,0.680756396 C30.4206068,0.794215795 30.5509819,1.05895439 30.6254819,1.41824249 L33.5682337,14.0878754 L36.7903607,1.41824249 C36.9021108,1.04004449 37.0324858,0.794215795 37.1628609,0.680756396 C37.311861,0.567296997 37.5539862,0.491657397 37.8892364,0.491657397 L39.6213624,0.491657397 C39.9193626,0.491657397 40.0869877,0.642936596 40.0869877,0.964404894 C40.0869877,1.05895439 40.0683627,1.15350389 40.0497377,1.26696329 C40.0311127,1.38042269 39.9938627,1.53170189 39.9193626,1.73971079 L35.4307349,16.3570634 C35.3189848,16.7352614 35.1886097,16.9810901 35.0396096,17.0945495 C34.8906095,17.2080089 34.6484844,17.2836485 34.3318592,17.2836485 L32.7301082,17.2836485 C32.376233,17.2836485 32.1341078,17.2269188 31.9851078,17.0945495 C31.8361077,16.9621802 31.7057326,16.7163515 31.6312325,16.3381535 L28.7443558,4.14126808 L25.876104,16.3192436 C25.782979,16.6974416 25.6712289,16.9432703 25.5222288,17.0756396 C25.3732287,17.2080089 25.1124785,17.2647386 24.7772283,17.2647386 L23.1754774,17.2647386 Z M47.108617,17.7753059 C46.1401164,17.7753059 45.1716158,17.6618465 44.2403653,17.4349277 C43.3091147,17.2080089 42.5827392,16.9621802 42.0984889,16.6785317 C41.8004888,16.5083426 41.5956136,16.3192436 41.5211136,16.1490545 C41.4466135,15.9788654 41.4093635,15.7897664 41.4093635,15.6195773 L41.4093635,14.6551724 C41.4093635,14.2580645 41.5583636,14.0689655 41.8377388,14.0689655 C41.9494889,14.0689655 42.0612389,14.0878754 42.172989,14.1256952 C42.2847391,14.163515 42.4523642,14.2391546 42.6386143,14.3147942 C43.2718647,14.5984427 43.9609901,14.8253615 44.6873655,14.9766407 C45.432366,15.1279199 46.1587414,15.2035595 46.9037419,15.2035595 C48.0771176,15.2035595 48.9897432,14.9955506 49.6229935,14.5795328 C50.2562439,14.163515 50.5914941,13.5583982 50.5914941,12.7830923 C50.5914941,12.2536151 50.423869,11.8186874 50.0886188,11.4593993 C49.7533686,11.1001112 49.1201182,10.7786429 48.2074927,10.4760845 L45.506866,9.62513904 C44.1472402,9.19021135 43.1414896,8.54727475 42.5268642,7.69632925 C41.9122388,6.86429366 41.5956136,5.93770857 41.5956136,4.95439377 C41.5956136,4.16017798 41.7632387,3.46051168 42.0984889,2.85539488 C42.4337391,2.25027809 42.8807394,1.72080089 43.4394898,1.30478309 C43.9982401,0.869855395 44.6314905,0.548387097 45.376491,0.321468298 C46.1214914,0.0945494994 46.9037419,-2.20623519e-12 47.7232424,-2.20623519e-12 C48.1329926,-2.20623519e-12 48.5613679,0.0189098999 48.9711182,0.0756395996 C49.3994934,0.132369299 49.7906187,0.208008899 50.1817439,0.283648498 C50.5542441,0.378197998 50.9081193,0.472747497 51.2433695,0.586206897 C51.5786197,0.699666296 51.8393699,0.813125695 52.02562,0.926585095 C52.2863702,1.07786429 52.4726203,1.22914349 52.5843704,1.39933259 C52.6961204,1.55061179 52.7519955,1.75862069 52.7519955,2.02335929 L52.7519955,2.91212458 C52.7519955,3.30923248 52.6029954,3.51724138 52.3236202,3.51724138 C52.1746201,3.51724138 51.932495,3.44160178 51.6158698,3.29032258 C50.5542441,2.79866518 49.3622434,2.55283648 48.0398676,2.55283648 C46.9782419,2.55283648 46.1401164,2.72302558 45.5627411,3.08231368 C44.9853657,3.44160178 44.6873655,3.98998888 44.6873655,4.76529477 C44.6873655,5.29477197 44.8736156,5.74860957 45.2461159,6.10789766 C45.6186161,6.46718576 46.3077415,6.82647386 47.2948671,7.14794216 L49.9396187,7.99888765 C51.2806196,8.43381535 52.2491202,9.03893215 52.8264955,9.81423804 C53.4038709,10.5895439 53.683246,11.4783092 53.683246,12.461624 C53.683246,13.2747497 53.5156209,14.0122358 53.1989957,14.6551724 C52.8637455,15.298109 52.4167453,15.865406 51.8393699,16.3192436 C51.2619946,16.7919911 50.5728691,17.1323693 49.7719936,17.378198 C48.9338681,17.6429366 48.0584926,17.7753059 47.108617,17.7753059 Z M50.6287442,26.9655172 C44.5011154,31.5606229 35.59836,34 27.9434803,34 C17.2154737,34 7.5490928,29.9721913 0.248088328,23.2780868 C-0.329287025,22.7486096 0.192213294,22.0300334 0.881338716,22.4460512 C8.77834355,27.0978865 18.5192245,29.9154616 28.5953557,29.9154616 C35.3934848,29.9154616 42.8621144,28.4783092 49.7347436,25.5283648 C50.7591192,25.0556174 51.6344948,26.2091212 50.6287442,26.9655172 Z M53.1803707,24.0155729 C52.3981202,22.9944383 48.0026176,23.5239155 46.0097413,23.7697442 C45.413741,23.8453838 45.3206159,23.3159066 45.8607412,22.9187987 C49.3622434,20.4226919 55.1173719,21.1412681 55.7878723,21.9733037 C56.4583727,22.8242492 55.6016222,28.6674082 52.3236202,31.4660734 C51.8207449,31.9010011 51.3364946,31.6740823 51.5599947,31.1067853 C52.3049952,29.2347052 53.9626212,25.0177976 53.1803707,24.0155729 Z" id="Combined-Shape-Copy-5"></path>
        </g>
    </g>
</svg>
