<?xml version="1.0" encoding="UTF-8"?>
<svg width="192px" height="128px" viewBox="0 0 192 128" version="1.1" xmlns="http://www.w3.org/2000/svg" xmlns:xlink="http://www.w3.org/1999/xlink">
        <g id="Provider/AWS/aws-128" stroke="none" stroke-width="1" fill="none" fill-rule="evenodd">
        <g id="Group" transform="translate(22.000000, 21.000000)">
            <path d="M41.9896576,32.6863181 C41.9896576,34.538376 42.187881,36.0400445 42.5347718,37.1412681 C42.9312185,38.2424917 43.4267768,39.4438265 44.1205585,40.7452725 C44.3683377,41.1457175 44.4674493,41.5461624 44.4674493,41.8965517 C44.4674493,42.3971079 44.1701143,42.8976641 43.5258885,43.3982202 L40.4038709,45.5005562 C39.9578684,45.8008899 39.5118659,45.9510567 39.1154193,45.9510567 C38.6198609,45.9510567 38.1243026,45.7007786 37.6287443,45.2502781 C36.9349626,44.4994438 36.3402926,43.6985539 35.8447342,42.8976641 C35.3491759,42.0467186 34.8536176,41.0956618 34.3085034,39.9443826 C30.4431483,44.5494994 25.5866766,46.8520578 19.7390882,46.8520578 C15.5763982,46.8520578 12.2561573,45.650723 9.82792143,43.2480534 C7.39968557,40.8453838 6.16078972,37.6418242 6.16078972,33.6373749 C6.16078972,29.3826474 7.64746474,25.9288098 10.6703706,23.3259177 C13.6932765,20.7230256 17.707299,19.4215795 22.8115499,19.4215795 C24.4964483,19.4215795 26.2309025,19.5717464 28.0644683,19.8220245 C29.8980342,20.0723026 31.7811558,20.4727475 33.7633892,20.9232481 L33.7633892,17.269188 C33.7633892,13.4649611 32.9704959,10.8120133 31.434265,9.26028921 C29.8484783,7.70856507 27.1724633,6.95773081 23.3566641,6.95773081 C21.6222099,6.95773081 19.8381999,7.15795328 18.004634,7.60845384 C16.1710682,8.05895439 14.3870581,8.60956618 12.652604,9.31034483 C11.8597106,9.66073415 11.2650406,9.86095662 10.9181498,9.96106785 C10.5712589,10.0611791 10.3234798,10.1112347 10.1252564,10.1112347 C9.43147476,10.1112347 9.08458392,9.61067853 9.08458392,8.55951057 L9.08458392,6.10678532 C9.08458392,5.30589544 9.18369559,4.70522803 9.43147476,4.35483871 C9.67925393,4.00444939 10.1252564,3.65406007 10.8190381,3.30367075 C12.5534923,2.40266963 14.6348373,1.65183537 17.0630732,1.05116796 C19.491309,0.400444939 22.0682124,0.100111235 24.7937833,0.100111235 C30.6909275,0.100111235 35.0022851,1.4516129 37.7774118,4.15461624 C40.5029826,6.85761958 41.890546,10.9621802 41.890546,16.4682981 L41.890546,32.6863181 L41.9896576,32.6863181 Z M21.8699891,40.294772 C23.5053316,40.294772 25.1902299,39.9944383 26.97424,39.3937709 C28.75825,38.7931034 30.3440367,37.6918799 31.6820442,36.1902113 C32.4749375,35.2391546 33.0696075,34.1879867 33.3669425,32.9866518 C33.6642775,31.785317 33.8625009,30.3337041 33.8625009,28.6318131 L33.8625009,26.5294772 C32.4253817,26.1790879 30.8891508,25.8787542 29.3033642,25.6785317 C27.7175775,25.4783092 26.1813466,25.378198 24.6451158,25.378198 C21.3248749,25.378198 18.896639,26.028921 17.2612965,27.3804227 C15.625954,28.7319244 14.8330607,30.6340378 14.8330607,33.1368187 C14.8330607,35.4894327 15.4277307,37.2413793 16.6666265,38.4427141 C17.8559665,39.6941046 19.5904207,40.294772 21.8699891,40.294772 Z M61.6633237,45.7007786 C60.7713187,45.7007786 60.1766487,45.5506118 59.780202,45.2002225 C59.3837553,44.8998888 59.0368645,44.1991101 58.7395295,43.2480534 L47.0939085,4.55506118 C46.7965735,3.55394883 46.647906,2.90322581 46.647906,2.55283648 C46.647906,1.75194661 47.0443527,1.30144605 47.837246,1.30144605 L52.6937178,1.30144605 C53.6352786,1.30144605 54.2795044,1.4516129 54.6263953,1.80200222 C55.022842,2.10233593 55.320177,2.80311457 55.617512,3.7541713 L63.9428921,36.89099 L71.6736021,3.7541713 C71.9213813,2.75305895 72.2187163,2.10233593 72.615163,1.80200222 C73.0116097,1.50166852 73.7053913,1.30144605 74.5973963,1.30144605 L78.5618631,1.30144605 C79.5034239,1.30144605 80.1476497,1.4516129 80.5440964,1.80200222 C80.9405431,2.10233593 81.2874339,2.80311457 81.4856573,3.7541713 L89.315479,37.2914349 L97.8886383,3.7541713 C98.1859733,2.75305895 98.5328641,2.10233593 98.879755,1.80200222 C99.2762016,1.50166852 99.9204275,1.30144605 100.812432,1.30144605 L105.421125,1.30144605 C106.214018,1.30144605 106.660021,1.70189099 106.660021,2.55283648 C106.660021,2.80311457 106.610465,3.05339266 106.560909,3.35372636 C106.511353,3.65406007 106.412242,4.05450501 106.214018,4.6051168 L94.2710624,43.298109 C93.9737274,44.2992214 93.6268366,44.9499444 93.2303899,45.2502781 C92.8339432,45.5506118 92.1897174,45.7508343 91.3472682,45.7508343 L87.0854665,45.7508343 C86.1439056,45.7508343 85.4996798,45.6006674 85.1032331,45.2502781 C84.7067865,44.8998888 84.3598956,44.2491657 84.1616723,43.2480534 L76.480518,10.9621802 L68.8489196,43.1979978 C68.6011404,44.1991101 68.3038054,44.8498331 67.9073588,45.2002225 C67.5109121,45.5506118 66.8171304,45.7007786 65.9251254,45.7007786 L61.6633237,45.7007786 Z M125.34257,47.0522803 C122.765667,47.0522803 120.188764,46.7519466 117.710972,46.1512792 C115.23318,45.5506118 113.300503,44.8998888 112.012051,44.1490545 C111.219158,43.6985539 110.674043,43.1979978 110.47582,42.7474972 C110.277597,42.2969967 110.178485,41.7964405 110.178485,41.3459399 L110.178485,38.7931034 C110.178485,37.7419355 110.574932,37.2413793 111.318269,37.2413793 C111.615604,37.2413793 111.912939,37.2914349 112.210274,37.3915462 C112.507609,37.4916574 112.953612,37.6918799 113.44917,37.8921023 C115.134068,38.6429366 116.967634,39.243604 118.900312,39.6440489 C120.882545,40.0444939 122.815223,40.2447164 124.797456,40.2447164 C127.919474,40.2447164 130.347709,39.6941046 132.032608,38.592881 C133.717506,37.4916574 134.609511,35.8898776 134.609511,33.8375973 C134.609511,32.43604 134.163509,31.2847608 133.271504,30.3337041 C132.379499,29.3826474 130.6946,28.5317019 128.266364,27.730812 L121.080769,25.4783092 C117.463193,24.32703 114.787178,22.625139 113.151835,20.3726363 C111.516493,18.1701891 110.674043,15.7174638 110.674043,13.1145717 C110.674043,11.0122358 111.120046,9.16017798 112.012051,7.55839822 C112.904056,5.95661846 114.093396,4.55506118 115.580071,3.4538376 C117.066746,2.3025584 118.751644,1.4516129 120.733878,0.850945495 C122.716111,0.250278087 124.797456,-1.25055521e-12 126.977913,-1.25055521e-12 C128.068141,-1.25055521e-12 129.207925,0.0500556174 130.298154,0.200222469 C131.437938,0.350389321 132.47861,0.550611791 133.519283,0.75083426 C134.5104,1.00111235 135.45196,1.25139043 136.343965,1.55172414 C137.23597,1.85205784 137.929752,2.15239155 138.42531,2.45272525 C139.119092,2.85317019 139.61465,3.25361513 139.911985,3.70411568 C140.20932,4.10456062 140.357988,4.65517241 140.357988,5.35595106 L140.357988,7.70856507 C140.357988,8.75973304 139.961541,9.31034483 139.218204,9.31034483 C138.821757,9.31034483 138.177531,9.11012236 137.335082,8.70967742 C134.5104,7.40823137 131.338826,6.75750834 127.820362,6.75750834 C124.995679,6.75750834 122.765667,7.2080089 121.229436,8.15906563 C119.693205,9.11012236 118.900312,10.5617353 118.900312,12.6140156 C118.900312,14.0155729 119.39587,15.2169077 120.386987,16.1679644 C121.378104,17.1190211 123.211669,18.0700779 125.838129,18.9210234 L132.875057,21.1735261 C136.443077,22.3248053 139.01998,23.9265851 140.556211,25.9788654 C142.092442,28.0311457 142.83578,30.3837597 142.83578,32.9866518 C142.83578,35.1390434 142.389777,37.0912125 141.547328,38.7931034 C140.655323,40.4949944 139.465983,41.996663 137.929752,43.1979978 C136.393521,44.4493882 134.559955,45.3503893 132.429055,46.0011123 C130.199042,46.701891 127.869918,47.0522803 125.34257,47.0522803 Z" id="Shape" fill="#232F3E" fill-rule="nonzero"></path>
            <path d="M134.708623,71.3793103 C118.404754,83.5428254 94.7170649,90 74.3496172,90 C45.8054568,90 20.085979,79.3381535 0.660092158,61.618465 C-0.876138693,60.2169077 0.511424657,58.3147942 2.34499051,59.4160178 C23.3566641,71.7296997 49.2743652,79.1879867 76.0840714,79.1879867 C94.1719507,79.1879867 114.04384,75.3837597 132.329943,67.5750834 C135.055514,66.323693 137.384638,69.3770857 134.708623,71.3793103 Z M141.497772,63.570634 C139.416427,60.8676307 127.72125,62.269188 122.418776,62.919911 C120.832989,63.1201335 120.58521,61.7185762 122.022329,60.6674082 C131.338826,54.0600667 146.651579,55.9621802 148.435589,58.1646274 C150.219599,60.4171301 147.940031,75.8843159 139.218204,83.2925473 C137.880196,84.4438265 136.591745,83.8431591 137.186415,82.3414905 C139.168648,77.3859844 143.579117,66.2235818 141.497772,63.570634 Z" id="Combined-Shape" fill="#FF9900"></path>
        </g>
    </g>
</svg>
