<?xml version="1.0" encoding="UTF-8"?>
<svg width="192px" height="128px" viewBox="0 0 192 128" version="1.1" xmlns="http://www.w3.org/2000/svg" xmlns:xlink="http://www.w3.org/1999/xlink">
        <g id="Provider/AWS/aws-128-disabled" stroke="none" stroke-width="1" fill="none" fill-rule="evenodd">
        <path d="M63.9896576,53.6863181 C63.9896576,55.538376 64.187881,57.0400445 64.5347718,58.1412681 C64.9312185,59.2424917 65.4267768,60.4438265 66.1205585,61.7452725 C66.3683377,62.1457175 66.4674493,62.5461624 66.4674493,62.8965517 C66.4674493,63.3971079 66.1701143,63.8976641 65.5258885,64.3982202 L62.4038709,66.5005562 C61.9578684,66.8008899 61.5118659,66.9510567 61.1154193,66.9510567 C60.6198609,66.9510567 60.1243026,66.7007786 59.6287443,66.2502781 C58.9349626,65.4994438 58.3402926,64.6985539 57.8447342,63.8976641 C57.3491759,63.0467186 56.8536176,62.0956618 56.3085034,60.9443826 C52.4431483,65.5494994 47.5866766,67.8520578 41.7390882,67.8520578 C37.5763982,67.8520578 34.2561573,66.650723 31.8279214,64.2480534 C29.3996856,61.8453838 28.1607897,58.6418242 28.1607897,54.6373749 C28.1607897,50.3826474 29.6474647,46.9288098 32.6703706,44.3259177 C35.6932765,41.7230256 39.707299,40.4215795 44.8115499,40.4215795 C46.4964483,40.4215795 48.2309025,40.5717464 50.0644683,40.8220245 C51.8980342,41.0723026 53.7811558,41.4727475 55.7633892,41.9232481 L55.7633892,38.269188 C55.7633892,34.4649611 54.9704959,31.8120133 53.434265,30.2602892 C51.8484783,28.7085651 49.1724633,27.9577308 45.3566641,27.9577308 C43.6222099,27.9577308 41.8381999,28.1579533 40.004634,28.6084538 C38.1710682,29.0589544 36.3870581,29.6095662 34.652604,30.3103448 C33.8597106,30.6607341 33.2650406,30.8609566 32.9181498,30.9610679 C32.5712589,31.0611791 32.3234798,31.1112347 32.1252564,31.1112347 C31.4314748,31.1112347 31.0845839,30.6106785 31.0845839,29.5595106 L31.0845839,27.1067853 C31.0845839,26.3058954 31.1836956,25.705228 31.4314748,25.3548387 C31.6792539,25.0044494 32.1252564,24.6540601 32.8190381,24.3036707 C34.5534923,23.4026696 36.6348373,22.6518354 39.0630732,22.051168 C41.491309,21.4004449 44.0682124,21.1001112 46.7937833,21.1001112 C52.6909275,21.1001112 57.0022851,22.4516129 59.7774118,25.1546162 C62.5029826,27.8576196 63.890546,31.9621802 63.890546,37.4682981 L63.890546,53.6863181 L63.9896576,53.6863181 Z M43.8699891,61.294772 C45.5053316,61.294772 47.1902299,60.9944383 48.97424,60.3937709 C50.75825,59.7931034 52.3440367,58.6918799 53.6820442,57.1902113 C54.4749375,56.2391546 55.0696075,55.1879867 55.3669425,53.9866518 C55.6642775,52.785317 55.8625009,51.3337041 55.8625009,49.6318131 L55.8625009,47.5294772 C54.4253817,47.1790879 52.8891508,46.8787542 51.3033642,46.6785317 C49.7175775,46.4783092 48.1813466,46.378198 46.6451158,46.378198 C43.3248749,46.378198 40.896639,47.028921 39.2612965,48.3804227 C37.625954,49.7319244 36.8330607,51.6340378 36.8330607,54.1368187 C36.8330607,56.4894327 37.4277307,58.2413793 38.6666265,59.4427141 C39.8559665,60.6941046 41.5904207,61.294772 43.8699891,61.294772 Z M83.6633237,66.7007786 C82.7713187,66.7007786 82.1766487,66.5506118 81.780202,66.2002225 C81.3837553,65.8998888 81.0368645,65.1991101 80.7395295,64.2480534 L69.0939085,25.5550612 C68.7965735,24.5539488 68.647906,23.9032258 68.647906,23.5528365 C68.647906,22.7519466 69.0443527,22.3014461 69.837246,22.3014461 L74.6937178,22.3014461 C75.6352786,22.3014461 76.2795044,22.4516129 76.6263953,22.8020022 C77.022842,23.1023359 77.320177,23.8031146 77.617512,24.7541713 L85.9428921,57.89099 L93.6736021,24.7541713 C93.9213813,23.753059 94.2187163,23.1023359 94.615163,22.8020022 C95.0116097,22.5016685 95.7053913,22.3014461 96.5973963,22.3014461 L100.561863,22.3014461 C101.503424,22.3014461 102.14765,22.4516129 102.544096,22.8020022 C102.940543,23.1023359 103.287434,23.8031146 103.485657,24.7541713 L111.315479,58.2914349 L119.888638,24.7541713 C120.185973,23.753059 120.532864,23.1023359 120.879755,22.8020022 C121.276202,22.5016685 121.920427,22.3014461 122.812432,22.3014461 L127.421125,22.3014461 C128.214018,22.3014461 128.660021,22.701891 128.660021,23.5528365 C128.660021,23.8031146 128.610465,24.0533927 128.560909,24.3537264 C128.511353,24.6540601 128.412242,25.054505 128.214018,25.6051168 L116.271062,64.298109 C115.973727,65.2992214 115.626837,65.9499444 115.23039,66.2502781 C114.833943,66.5506118 114.189717,66.7508343 113.347268,66.7508343 L109.085466,66.7508343 C108.143906,66.7508343 107.49968,66.6006674 107.103233,66.2502781 C106.706786,65.8998888 106.359896,65.2491657 106.161672,64.2480534 L98.480518,31.9621802 L90.8489196,64.1979978 C90.6011404,65.1991101 90.3038054,65.8498331 89.9073588,66.2002225 C89.5109121,66.5506118 88.8171304,66.7007786 87.9251254,66.7007786 L83.6633237,66.7007786 Z M147.34257,68.0522803 C144.765667,68.0522803 142.188764,67.7519466 139.710972,67.1512792 C137.23318,66.5506118 135.300503,65.8998888 134.012051,65.1490545 C133.219158,64.6985539 132.674043,64.1979978 132.47582,63.7474972 C132.277597,63.2969967 132.178485,62.7964405 132.178485,62.3459399 L132.178485,59.7931034 C132.178485,58.7419355 132.574932,58.2413793 133.318269,58.2413793 C133.615604,58.2413793 133.912939,58.2914349 134.210274,58.3915462 C134.507609,58.4916574 134.953612,58.6918799 135.44917,58.8921023 C137.134068,59.6429366 138.967634,60.243604 140.900312,60.6440489 C142.882545,61.0444939 144.815223,61.2447164 146.797456,61.2447164 C149.919474,61.2447164 152.347709,60.6941046 154.032608,59.592881 C155.717506,58.4916574 156.609511,56.8898776 156.609511,54.8375973 C156.609511,53.43604 156.163509,52.2847608 155.271504,51.3337041 C154.379499,50.3826474 152.6946,49.5317019 150.266364,48.730812 L143.080769,46.4783092 C139.463193,45.32703 136.787178,43.625139 135.151835,41.3726363 C133.516493,39.1701891 132.674043,36.7174638 132.674043,34.1145717 C132.674043,32.0122358 133.120046,30.160178 134.012051,28.5583982 C134.904056,26.9566185 136.093396,25.5550612 137.580071,24.4538376 C139.066746,23.3025584 140.751644,22.4516129 142.733878,21.8509455 C144.716111,21.2502781 146.797456,21 148.977913,21 C150.068141,21 151.207925,21.0500556 152.298154,21.2002225 C153.437938,21.3503893 154.47861,21.5506118 155.519283,21.7508343 C156.5104,22.0011123 157.45196,22.2513904 158.343965,22.5517241 C159.23597,22.8520578 159.929752,23.1523915 160.42531,23.4527253 C161.119092,23.8531702 161.61465,24.2536151 161.911985,24.7041157 C162.20932,25.1045606 162.357988,25.6551724 162.357988,26.3559511 L162.357988,28.7085651 C162.357988,29.759733 161.961541,30.3103448 161.218204,30.3103448 C160.821757,30.3103448 160.177531,30.1101224 159.335082,29.7096774 C156.5104,28.4082314 153.338826,27.7575083 149.820362,27.7575083 C146.995679,27.7575083 144.765667,28.2080089 143.229436,29.1590656 C141.693205,30.1101224 140.900312,31.5617353 140.900312,33.6140156 C140.900312,35.0155729 141.39587,36.2169077 142.386987,37.1679644 C143.378104,38.1190211 145.211669,39.0700779 147.838129,39.9210234 L154.875057,42.1735261 C158.443077,43.3248053 161.01998,44.9265851 162.556211,46.9788654 C164.092442,49.0311457 164.83578,51.3837597 164.83578,53.9866518 C164.83578,56.1390434 164.389777,58.0912125 163.547328,59.7931034 C162.655323,61.4949944 161.465983,62.996663 159.929752,64.1979978 C158.393521,65.4493882 156.559955,66.3503893 154.429055,67.0011123 C152.199042,67.701891 149.869918,68.0522803 147.34257,68.0522803 Z M156.708623,92.3793103 C140.404754,104.542825 116.717065,111 96.3496172,111 C67.8054568,111 42.085979,100.338154 22.6600922,82.618465 C21.1238613,81.2169077 22.5114247,79.3147942 24.3449905,80.4160178 C45.3566641,92.7296997 71.2743652,100.187987 98.0840714,100.187987 C116.171951,100.187987 136.04384,96.3837597 154.329943,88.5750834 C157.055514,87.323693 159.384638,90.3770857 156.708623,92.3793103 Z M163.497772,84.570634 C161.416427,81.8676307 149.72125,83.269188 144.418776,83.919911 C142.832989,84.1201335 142.58521,82.7185762 144.022329,81.6674082 C153.338826,75.0600667 168.651579,76.9621802 170.435589,79.1646274 C172.219599,81.4171301 169.940031,96.8843159 161.218204,104.292547 C159.880196,105.443826 158.591745,104.843159 159.186415,103.341491 C161.168648,98.3859844 165.579117,87.2235818 163.497772,84.570634 Z" id="Combined-Shape" fill="#A4AAB5" fill-rule="nonzero"></path>
    </g>
</svg>
