<?xml version="1.0" encoding="UTF-8" standalone="no"?>
<svg xmlns:dc="http://purl.org/dc/elements/1.1/" xmlns:cc="http://creativecommons.org/ns#" xmlns:rdf="http://www.w3.org/1999/02/22-rdf-syntax-ns#" xmlns:svg="http://www.w3.org/2000/svg" xmlns="http://www.w3.org/2000/svg" id="svg2206" version="1.1" viewBox="0 0 80 32" height="32px" width="80px">
  <defs id="defs2210">
    <linearGradient id="e399c19f-b68f-429d-b176-18c2117ff73c" x1="-1032.172" x2="-1059.213" y1="145.312" y2="65.426" gradientTransform="matrix(1,0,0,-1,1075,158)" gradientUnits="userSpaceOnUse">
      <stop offset="0" stop-color="white" id="stop2775" />
      <stop offset="1" stop-color="white" id="stop2777" />
    </linearGradient>
    <linearGradient id="ac2a6fc2-ca48-4327-9a3c-d4dcc3256e15" x1="-1023.725" x2="-1029.98" y1="108.083" y2="105.968" gradientTransform="matrix(1,0,0,-1,1075,158)" gradientUnits="userSpaceOnUse">
      <stop offset="0" stop-opacity=".3" id="stop2780" />
      <stop offset=".071" stop-opacity=".2" id="stop2782" />
      <stop offset=".321" stop-opacity=".1" id="stop2784" />
      <stop offset=".623" stop-opacity=".05" id="stop2786" />
      <stop offset="1" stop-opacity="0" id="stop2788" />
    </linearGradient>
    <linearGradient id="a7fee970-a784-4bb1-af8d-63d18e5f7db9" x1="-1027.165" x2="-997.482" y1="147.642" y2="68.561" gradientTransform="matrix(1,0,0,-1,1075,158)" gradientUnits="userSpaceOnUse">
      <stop offset="0" stop-color="white" id="stop2791" />
      <stop offset="1" stop-color="white" id="stop2793" />
    </linearGradient>
  </defs>
  <g fill-rule="evenodd" fill="none" stroke-width="1" stroke="none" id="Symbols">
    <g fill="white" id="Provider/Azure/azure-32">
      <path id="Combined-Shape" d="m 79.934173,17.90259 h -6.419167 c -0.05944,0.819752 0.237747,1.639504 0.832114,2.283595 0.594367,0.526983 1.367045,0.878305 2.139722,0.819751 1.010425,0 2.02085,-0.351322 2.793527,-0.995412 v 1.346734 c -0.950988,0.585537 -2.020849,0.93686 -3.150147,0.878306 -1.129298,0.05855 -2.258596,-0.409876 -3.031273,-1.229628 -0.772678,-0.995412 -1.188735,-2.166487 -1.069862,-3.396114 0,-0.819752 0.17831,-1.698057 0.534931,-2.459255 0.35662,-0.702645 0.832114,-1.288182 1.545355,-1.698058 0.653804,-0.409875 1.367045,-0.585537 2.139722,-0.585537 1.010425,-0.05855 2.02085,0.351323 2.73409,1.112521 0.713241,0.878305 1.069862,2.049379 1.010425,3.161899 z m -1.485918,-1.171073 c 0.05944,-0.702645 -0.17831,-1.346736 -0.594368,-1.932272 -0.416057,-0.46843 -1.010424,-0.702645 -1.664228,-0.702645 -0.653804,0 -1.307608,0.234215 -1.723666,0.702645 -0.475494,0.526983 -0.832114,1.171073 -0.891551,1.873718 z m -7.310719,-2.225041 c -0.35662,-0.234215 -0.713241,-0.292768 -1.129298,-0.292768 -0.653804,0 -1.248171,0.351322 -1.545355,0.878305 -0.416057,0.702644 -0.653804,1.522396 -0.594367,2.283594 v 4.567188 h -1.426482 v -8.900161 h 1.426482 v 1.815164 h 0.05944 c 0.17831,-0.526983 0.475494,-1.053966 0.891551,-1.463842 0.653805,-0.526984 1.485919,-0.702645 2.318033,-0.409876 z m -7.607902,7.553427 h -1.426482 v -1.405289 h -0.05944 c -0.53493,1.053967 -1.604791,1.639504 -2.793526,1.639504 -2.139723,0 -3.269021,-1.288182 -3.269021,-3.805991 v -5.328386 h 1.426482 v 5.152725 c 0,1.873719 0.713241,2.810578 2.199159,2.810578 0.653804,0 1.307608,-0.234215 1.723665,-0.761198 0.475494,-0.585537 0.713241,-1.288182 0.713241,-1.990826 v -5.152725 h 1.426482 z m -9.212695,-8.54884 -5.349306,7.319212 h 5.349306 v 1.171074 h -7.489028 v -0.409876 l 5.349306,-7.260658 h -4.873812 v -1.171074 h 7.013534 z m -8.023959,8.54884 H 44.628751 L 43.261707,18.546681 H 37.9124 l -1.248171,3.513222 H 35 L 39.814376,9.5294118 h 1.545355 z M 42.845649,17.199946 40.8248,11.87156 c -0.05944,-0.292769 -0.17831,-0.585537 -0.237747,-0.878306 h -0.05944 l -0.17831,0.878306 -2.020849,5.328386 z" />
    </g>
  </g>
  <g transform="matrix(0.25167685,0,0,0.25167685,-0.85779638,3.4239514)" id="g2828">
    <path style="fill:url(#e399c19f-b68f-429d-b176-18c2117ff73c)" fill="url(#e399c19f-b68f-429d-b176-18c2117ff73c)" d="m 33.338,6.544 h 26.038 l -27.03,80.087 a 4.152,4.152 0 0 1 -3.933,2.824 H 8.149 A 4.145,4.145 0 0 1 4.221,83.985 L 29.404,9.368 a 4.152,4.152 0 0 1 3.934,-2.825 z" id="path2798" />
    <path fill="#ffffff" d="M 71.175,60.261 H 29.885 A 1.911,1.911 0 0 0 28.58,63.57 l 26.532,24.764 a 4.171,4.171 0 0 0 2.846,1.121 h 23.38 z" id="path2800" />
    <path style="fill:url(#ac2a6fc2-ca48-4327-9a3c-d4dcc3256e15)" fill="url(#ac2a6fc2-ca48-4327-9a3c-d4dcc3256e15)" d="M 33.338,6.544 A 4.118,4.118 0 0 0 29.395,9.423 L 4.252,83.917 a 4.14,4.14 0 0 0 3.908,5.538 h 20.787 a 4.443,4.443 0 0 0 3.41,-2.9 l 5.014,-14.777 17.91,16.705 a 4.237,4.237 0 0 0 2.666,0.972 H 81.24 L 71.024,60.261 41.243,60.268 59.47,6.544 Z" id="path2802" />
    <path style="fill:url(#a7fee970-a784-4bb1-af8d-63d18e5f7db9)" fill="url(#a7fee970-a784-4bb1-af8d-63d18e5f7db9)" d="M 66.595,9.364 A 4.145,4.145 0 0 0 62.667,6.544 H 33.648 a 4.146,4.146 0 0 1 3.928,2.82 l 25.184,74.62 a 4.146,4.146 0 0 1 -3.928,5.472 h 29.02 a 4.146,4.146 0 0 0 3.927,-5.472 z" id="path2804" />
  </g>
</svg>
