<?xml version="1.0" encoding="UTF-8" standalone="no"?>
<svg xmlns:dc="http://purl.org/dc/elements/1.1/" xmlns:cc="http://creativecommons.org/ns#" xmlns:rdf="http://www.w3.org/1999/02/22-rdf-syntax-ns#" xmlns:svg="http://www.w3.org/2000/svg" xmlns="http://www.w3.org/2000/svg" id="svg4868" version="1.1" viewBox="0 0 192 128" height="128px" width="192px">
  <defs id="defs4872">
    <linearGradient id="e399c19f-b68f-429d-b176-18c2117ff73c" x1="-1032.172" x2="-1059.213" y1="145.312" y2="65.426" gradientTransform="matrix(1,0,0,-1,1075,158)" gradientUnits="userSpaceOnUse">
      <stop offset="0" stop-color="#A4AAB5" id="stop5437" />
      <stop offset="1" stop-color="#A4AAB5" id="stop5439" />
    </linearGradient>
    <linearGradient id="ac2a6fc2-ca48-4327-9a3c-d4dcc3256e15" x1="-1023.725" x2="-1029.98" y1="108.083" y2="105.968" gradientTransform="matrix(1,0,0,-1,1075,158)" gradientUnits="userSpaceOnUse">
      <stop offset="0" stop-opacity=".3" id="stop5442" />
      <stop offset=".071" stop-opacity=".2" id="stop5444" />
      <stop offset=".321" stop-opacity=".1" id="stop5446" />
      <stop offset=".623" stop-opacity=".05" id="stop5448" />
      <stop offset="1" stop-opacity="0" id="stop5450" />
    </linearGradient>
    <linearGradient id="a7fee970-a784-4bb1-af8d-63d18e5f7db9" x1="-1027.165" x2="-997.482" y1="147.642" y2="68.561" gradientTransform="matrix(1,0,0,-1,1075,158)" gradientUnits="userSpaceOnUse">
      <stop offset="0" stop-color="#A4AAB5" id="stop5453" />
      <stop offset="1" stop-color="#A4AAB5" id="stop5455" />
    </linearGradient>
  </defs>
  <g fill-rule="evenodd" fill="none" stroke-width="1" stroke="none" id="Symbols">
    <g fill="#A4AAB5" id="Provider/Azure/azure-128-disabled">
      <path id="Combined-Shape" d="m 28.878049,116.68912 h -2.097561 v -12.33161 c 0,-0.93264 0,-2.17616 0.104878,-3.52331 -0.209756,0.82901 -0.419512,1.45077 -0.52439,1.76166 l -6.397561,14.09326 h -1.048781 l -6.292683,-13.98964 c -0.209756,-0.41451 -0.314634,-1.03627 -0.52439,-1.86528 v 3.52331 12.33161 H 10 V 98.34715 h 2.831707 l 5.663415,12.74611 c 0.419512,0.93265 0.734146,1.76166 0.839024,2.17617 h 0.104878 c 0.419513,-1.03627 0.629269,-1.76166 0.943903,-2.27979 l 5.768292,-12.746117 h 2.72683 z m 5.034146,-16.47668 c -0.419512,0 -0.734146,-0.10363 -0.943902,-0.414513 -0.209756,-0.31088 -0.419513,-0.621761 -0.419513,-0.932642 0,-0.310881 0.104878,-0.725389 0.419513,-0.932643 0.314634,-0.31088 0.629268,-0.414507 0.943902,-0.414507 0.419512,0 0.734146,0.103627 0.943903,0.414507 0.314634,0.310881 0.419512,0.621762 0.419512,0.932643 0,0.414508 -0.104878,0.725389 -0.419512,0.932642 -0.209757,0.310883 -0.524391,0.414513 -0.943903,0.414513 z m 1.048781,16.47668 H 32.863415 V 103.5285 h 2.097561 z m 12.585365,-0.62176 C 46.497561,116.68912 45.343902,117 43.87561,117 c -1.887805,0 -3.460976,-0.62176 -4.614634,-1.86528 -1.153659,-1.24353 -1.782927,-2.79793 -1.782927,-4.76684 0,-2.17617 0.629268,-3.8342 1.887805,-5.18135 1.468292,-1.24352 3.041463,-1.96891 5.139024,-1.96891 1.153659,0 2.202439,0.20725 3.146342,0.72539 v 2.17616 c -0.943903,-0.72539 -1.992683,-1.03627 -3.146342,-1.03627 -1.363415,0 -2.412195,0.51814 -3.356098,1.45078 -0.839024,0.93264 -1.258536,2.17617 -1.258536,3.73057 0,1.5544 0.419512,2.6943 1.258536,3.62694 0.839025,0.93264 1.887805,1.34715 3.25122,1.34715 1.153658,0 2.202439,-0.41451 3.25122,-1.13989 v 1.96891 z m 9.543903,-10.3627 c -0.419512,-0.31088 -0.943903,-0.4145 -1.678049,-0.4145 -0.943902,0 -1.678049,0.4145 -2.307317,1.24352 -0.629268,0.82901 -0.943902,1.96891 -0.943902,3.41969 v 6.73575 H 50.063415 V 103.5285 h 2.097561 v 2.6943 c 0.314634,-0.93264 0.734146,-1.65803 1.363414,-2.17617 0.629268,-0.51813 1.363415,-0.72539 2.097561,-0.72539 0.52439,0 0.943903,0.10363 1.258537,0.20726 v 2.17616 z M 63.907317,117 c -1.992683,0 -3.565854,-0.62176 -4.719512,-1.86528 -1.153659,-1.24353 -1.782927,-2.79793 -1.782927,-4.87047 0,-2.17617 0.629268,-3.93782 1.782927,-5.18135 1.153658,-1.24352 2.936585,-1.86528 5.034146,-1.86528 1.992683,0 3.565854,0.62176 4.614634,1.76166 1.153659,1.24352 1.678049,2.90155 1.678049,4.97409 0,2.07254 -0.629268,3.73057 -1.782927,4.97409 C 67.473171,116.27461 65.9,117 63.907317,117 Z m 0.104878,-12.02072 c -1.363415,0 -2.412195,0.4145 -3.251219,1.34715 -0.839025,0.93264 -1.153659,2.17616 -1.153659,3.83419 0,1.55441 0.419512,2.79793 1.153659,3.62695 0.839024,0.93264 1.887804,1.34715 3.251219,1.34715 1.363415,0 2.412195,-0.41451 3.146342,-1.34715 0.734146,-0.82902 1.153658,-2.07254 1.153658,-3.73057 0,-1.65804 -0.419512,-2.90156 -1.153658,-3.73057 -0.734147,-0.82902 -1.782927,-1.34715 -3.146342,-1.34715 z m 8.390244,11.1917 v -2.27979 c 1.153659,0.82902 2.412195,1.24353 3.77561,1.24353 1.887805,0 2.831707,-0.62177 2.831707,-1.86529 0,-0.31088 -0.104878,-0.62176 -0.209756,-0.93264 l -0.629268,-0.62176 c -0.314634,-0.20726 -0.629269,-0.31088 -0.943903,-0.51814 -0.314634,-0.10363 -0.734146,-0.31088 -1.153658,-0.41451 -0.629269,-0.20725 -1.048781,-0.4145 -1.573171,-0.72538 -0.419512,-0.20726 -0.839024,-0.51814 -1.153659,-0.82902 -0.314634,-0.31088 -0.52439,-0.62176 -0.629268,-1.03627 -0.104878,-0.41451 -0.209756,-0.82902 -0.209756,-1.34715 0,-0.62176 0.104878,-1.1399 0.419512,-1.65803 0.209756,-0.20725 0.52439,-0.62176 1.048781,-0.93264 0.52439,-0.31088 1.04878,-0.51814 1.573171,-0.72539 0.629268,-0.20726 1.258536,-0.31088 1.887804,-0.31088 1.153659,0 2.202439,0.20725 3.041464,0.62176 v 2.07254 c -0.943903,-0.62176 -2.097561,-0.93264 -3.356098,-0.93264 -0.419512,0 -0.734146,0 -1.04878,0.10362 -0.314634,0.10363 -0.629269,0.20726 -0.839025,0.41451 -0.209756,0.20725 -0.419512,0.31088 -0.52439,0.62176 -0.104878,0.20726 -0.209756,0.51814 -0.209756,0.72539 0,0.31088 0.104878,0.62176 0.209756,0.82902 0.104878,0.20725 0.314634,0.4145 0.52439,0.62176 0.209756,0.20725 0.524391,0.31088 0.839025,0.51813 0.314634,0.10363 0.734146,0.31088 1.153658,0.51814 0.629269,0.20725 1.153659,0.4145 1.573171,0.72539 0.419512,0.20725 0.839024,0.51813 1.153659,0.82901 0.314634,0.31088 0.629268,0.62176 0.734146,1.03627 0.209756,0.41451 0.314634,0.82902 0.314634,1.34715 0,0.62176 -0.104878,1.24352 -0.419512,1.65803 -0.314634,0.51814 -0.629268,0.82902 -1.153659,1.1399 -0.52439,0.31088 -1.04878,0.51813 -1.678048,0.72539 C 77.121951,116.89637 76.492683,117 75.758537,117 c -1.153659,0 -2.412196,-0.31088 -3.356098,-0.82902 z M 89.287805,117 c -1.992683,0 -3.565854,-0.62176 -4.719512,-1.86528 -1.153659,-1.24353 -1.782927,-2.79793 -1.782927,-4.87047 0,-2.17617 0.629268,-3.93782 1.782927,-5.18135 1.363414,-1.24352 2.936585,-1.86528 5.034146,-1.86528 1.992683,0 3.565854,0.62176 4.614634,1.76166 1.153659,1.24352 1.678049,2.90155 1.678049,4.97409 0,2.07254 -0.629268,3.73057 -1.782927,4.97409 C 92.853658,116.27461 91.280488,117 89.287805,117 Z m 0.104878,-12.02072 c -1.363415,0 -2.412195,0.4145 -3.25122,1.34715 -0.839024,0.93264 -1.153658,2.17616 -1.153658,3.83419 0,1.55441 0.419512,2.79793 1.153658,3.62695 0.839025,0.93264 1.887805,1.34715 3.25122,1.34715 1.363415,0 2.412195,-0.41451 3.146341,-1.34715 0.734147,-0.82902 1.153659,-2.07254 1.153659,-3.73057 0,-1.65804 -0.419512,-2.90156 -1.153659,-3.73057 -0.629268,-0.82902 -1.782926,-1.34715 -3.146341,-1.34715 z m 22.968297,0.4145 h -3.3561 v 7.46114 c 0,0.82902 0.10488,1.45078 0.41951,1.86529 0.31463,0.31088 0.73415,0.51813 1.46829,0.51813 0.52439,0 0.94391,-0.10362 1.36342,-0.41451 v 1.76166 C 111.73171,116.89637 111.10244,117 110.26341,117 c -2.30731,0 -3.46097,-1.24352 -3.46097,-3.8342 v -7.77202 h -2.72683 -1.57317 -1.46829 v 11.29534 h -2.097565 v -11.39896 h -2.307317 v -1.76166 h 2.307317 v -2.07254 c 0,-1.34715 0.314635,-2.383421 1.153655,-3.212437 C 100.92927,97.414508 101.97805,97 103.13171,97 c 0.62927,0 1.15366,0.103627 1.57317,0.207254 v 1.865285 c -0.41951,-0.207254 -0.83903,-0.310881 -1.36342,-0.310881 -1.46829,0 -2.20244,0.932642 -2.20244,2.797932 v 2.07253 h 1.4683 1.57317 2.72683 v -3.21243 l 2.09756,-0.72539 v 3.8342 h 3.3561 z m 23.3878,11.29534 h -2.41219 l -1.99269,-5.18135 h -7.86585 l -1.88781,5.18135 h -2.41219 l 7.23658,-18.34197 h 2.20244 z m -5.03415,-7.15026 -2.93658,-7.77202 c -0.10488,-0.20725 -0.20976,-0.62176 -0.31464,-1.24352 -0.10487,0.51813 -0.20975,0.93264 -0.31463,1.24352 l -2.83171,7.77202 z m 16.04635,-5.3886 -7.86586,10.67357 h 7.76098 v 1.86529 h -10.80244 v -0.62176 l 7.86585,-10.67358 h -7.13171 v -1.86528 h 10.17318 z m 12.79512,12.53886 h -2.09756 v -2.07254 C 156.61951,116.17098 155.2561,117 153.36829,117 c -3.14634,0 -4.71951,-1.86528 -4.71951,-5.59585 v -7.87565 h 2.09756 v 7.46114 c 0,2.79793 1.04878,4.14508 3.25122,4.14508 1.04878,0 1.88781,-0.41451 2.51707,-1.1399 0.62927,-0.72539 1.04878,-1.76166 1.04878,-3.00518 v -7.46114 h 2.09757 v 13.16062 z m 10.4878,-10.98446 c -0.41951,-0.31088 -0.9439,-0.4145 -1.57317,-0.4145 -0.9439,0 -1.67805,0.4145 -2.30732,1.24352 -0.62926,0.82901 -0.9439,1.96891 -0.9439,3.41969 v 6.73575 h -2.09756 V 103.5285 h 2.09756 v 2.6943 c 0.31464,-0.93264 0.73415,-1.65803 1.36342,-2.17617 0.62926,-0.51813 1.36341,-0.72539 2.09756,-0.72539 0.52439,0 0.9439,0.10363 1.25853,0.20726 v 2.17616 z M 182,110.57513 h -9.33415 c 0,1.45078 0.41952,2.59067 1.15366,3.41969 0.73415,0.82901 1.78293,1.1399 3.14634,1.1399 1.4683,0 2.83171,-0.51814 4.09025,-1.45078 v 1.96891 c -1.15366,0.82902 -2.72683,1.24352 -4.61464,1.24352 -1.8878,0 -3.35609,-0.62176 -4.40488,-1.76165 -1.04878,-1.1399 -1.57317,-2.90156 -1.57317,-4.9741 0,-2.07254 0.62927,-3.73057 1.78293,-4.97409 1.15366,-1.24352 2.62195,-1.96891 4.3,-1.96891 1.67805,0 3.04146,0.51813 3.98537,1.65803 0.9439,1.13989 1.46829,2.6943 1.46829,4.55958 z m -2.20244,-1.76166 c 0,-1.24352 -0.31463,-2.17616 -0.83902,-2.79793 -0.62927,-0.62176 -1.36342,-1.03626 -2.4122,-1.03626 -1.04878,0 -1.8878,0.31088 -2.51707,1.03626 -0.73415,0.72539 -1.15366,1.65804 -1.25854,2.79793 z" />
    </g>
  </g>
  <g transform="matrix(0.87035546,0,0,0.87035546,53.272989,4.3046308)" id="g5490">
    <path style="fill:url(#e399c19f-b68f-429d-b176-18c2117ff73c)" fill="url(#e399c19f-b68f-429d-b176-18c2117ff73c)" d="m 33.338,6.544 h 26.038 l -27.03,80.087 a 4.152,4.152 0 0 1 -3.933,2.824 H 8.149 A 4.145,4.145 0 0 1 4.221,83.985 L 29.404,9.368 a 4.152,4.152 0 0 1 3.934,-2.825 z" id="path5460" />
    <path fill="#a4aab5" d="M 71.175,60.261 H 29.885 A 1.911,1.911 0 0 0 28.58,63.57 l 26.532,24.764 a 4.171,4.171 0 0 0 2.846,1.121 h 23.38 z" id="path5462" />
    <path style="fill:url(#ac2a6fc2-ca48-4327-9a3c-d4dcc3256e15)" fill="url(#ac2a6fc2-ca48-4327-9a3c-d4dcc3256e15)" d="M 33.338,6.544 A 4.118,4.118 0 0 0 29.395,9.423 L 4.252,83.917 a 4.14,4.14 0 0 0 3.908,5.538 h 20.787 a 4.443,4.443 0 0 0 3.41,-2.9 l 5.014,-14.777 17.91,16.705 a 4.237,4.237 0 0 0 2.666,0.972 H 81.24 L 71.024,60.261 41.243,60.268 59.47,6.544 Z" id="path5464" />
    <path style="fill:url(#a7fee970-a784-4bb1-af8d-63d18e5f7db9)" fill="url(#a7fee970-a784-4bb1-af8d-63d18e5f7db9)" d="M 66.595,9.364 A 4.145,4.145 0 0 0 62.667,6.544 H 33.648 a 4.146,4.146 0 0 1 3.928,2.82 l 25.184,74.62 a 4.146,4.146 0 0 1 -3.928,5.472 h 29.02 a 4.146,4.146 0 0 0 3.927,-5.472 z" id="path5466" />
  </g>
</svg>
