<?xml version="1.0" encoding="UTF-8" standalone="no"?>
<svg
   viewBox="0 0 105 42"
   height="42"
   width="105"
   xml:space="preserve"
   id="svg2"
   version="1.1"
   sodipodi:docname="cloudstack-42.svg"
   inkscape:version="1.4.3 (0d15f75, 2025-12-25)"
   xmlns:inkscape="http://www.inkscape.org/namespaces/inkscape"
   xmlns:sodipodi="http://sodipodi.sourceforge.net/DTD/sodipodi-0.dtd"
   xmlns="http://www.w3.org/2000/svg"
   xmlns:svg="http://www.w3.org/2000/svg"
   xmlns:rdf="http://www.w3.org/1999/02/22-rdf-syntax-ns#"
   xmlns:cc="http://creativecommons.org/ns#"
   xmlns:dc="http://purl.org/dc/elements/1.1/"><sodipodi:namedview
     pagecolor="#ffffff"
     bordercolor="#000000"
     borderopacity="0.24705882"
     objecttolerance="10"
     gridtolerance="10"
     guidetolerance="10"
     inkscape:pageopacity="0"
     inkscape:pageshadow="2"
     inkscape:window-width="1710"
     inkscape:window-height="981"
     id="namedview93"
     showgrid="false"
     inkscape:zoom="5.4078096"
     inkscape:cx="44.750096"
     inkscape:cy="-2.0340953"
     inkscape:window-x="0"
     inkscape:window-y="34"
     inkscape:window-maximized="0"
     inkscape:current-layer="layer1"
     inkscape:showpageshadow="2"
     inkscape:pagecheckerboard="false"
     inkscape:deskcolor="#d1d1d1" /><metadata
     id="metadata8"><rdf:RDF><cc:Work
         rdf:about=""><dc:format>image/svg+xml</dc:format><dc:type
           rdf:resource="http://purl.org/dc/dcmitype/StillImage" /></cc:Work></rdf:RDF></metadata><defs
     id="defs6"><marker
   inkscape:stockid="Arrow1Mend"
   orient="auto"
   refY="0"
   refX="0"
   id="Arrow1Mend"
   style="overflow:visible"
   inkscape:isstock="true"><path
     id="path913"
     d="M 0,0 5,-5 -12.5,0 5,5 Z"
     style="fill:#5affff;fill-opacity:1;fill-rule:evenodd;stroke:#7787ff;stroke-width:1pt;stroke-opacity:1"
     transform="matrix(-0.4,0,0,-0.4,-4,0)" /></marker><clipPath
   id="clipPath90"
   clipPathUnits="userSpaceOnUse"><path
     id="path88"
     d="m 1317.766,1308.723 v -15.945 h -0.107 c -1.215,2.153 -3.975,4.082 -8.06,4.082 v 0 c -6.512,0 -12.028,-5.46 -11.973,-14.345 v 0 c 0,-8.111 4.967,-13.573 11.419,-13.573 v 0 c 4.36,0 7.62,2.261 9.107,5.244 v 0 h 0.109 l 0.218,-4.637 h 4.368 c -0.17,1.822 -0.227,4.523 -0.227,6.898 v 0 32.276 z m -15.23,-25.985 c 0,5.904 2.981,10.317 8,10.317 v 0 c 3.645,0 6.291,-2.535 7.01,-5.628 v 0 c 0.164,-0.607 0.22,-1.435 0.22,-2.042 v 0 -4.632 c 0,-0.776 -0.056,-1.437 -0.22,-2.099 v 0 c -0.881,-3.64 -3.862,-5.795 -7.117,-5.795 v 0 c -5.245,0 -7.893,4.469 -7.893,9.879 m -76.687,-13.189 h 4.852 v 39.174 h -4.852 z m 296.659,34.21 c 0,-1.653 1.214,-2.976 2.923,-2.976 v 0 c 1.933,0 3.146,1.323 3.088,2.976 v 0 c 0,1.713 -1.155,3.036 -2.977,3.036 v 0 c -1.767,0 -3.034,-1.323 -3.034,-3.036 m -16.55,-1.103 v -6.4 h -4.142 v -3.699 h 4.142 v -14.565 c 0,-3.146 0.494,-5.516 1.873,-6.95 v 0 c 1.16,-1.325 2.978,-2.045 5.242,-2.045 v 0 c 1.877,0 3.366,0.275 4.307,0.662 v 0 l -0.223,3.642 c -0.609,-0.163 -1.543,-0.33 -2.814,-0.33 v 0 c -2.703,0 -3.641,1.875 -3.641,5.186 v 0 14.4 h 6.954 v 3.699 h -6.954 v 7.668 z m 58.758,-19.974 c 0,-7.397 4.744,-13.023 11.363,-13.023 v 0 c 4.141,0 7.007,1.986 8.5,4.472 v 0 h 0.111 v -2.982 c 0,-6.732 -3.642,-9.325 -8.611,-9.325 v 0 c -3.31,0 -6.066,0.994 -7.836,2.097 v 0 l -1.212,-3.698 c 2.153,-1.436 5.683,-2.207 8.886,-2.207 v 0 c 3.363,0 7.117,0.771 9.711,3.199 v 0 c 2.592,2.318 3.804,6.071 3.804,12.196 v 0 15.506 c 0,3.256 0.112,5.405 0.224,7.339 v 0 h -4.251 l -0.221,-4.03 h -0.111 c -1.158,2.206 -3.693,4.634 -8.332,4.634 v 0 c -6.123,0 -12.025,-5.128 -12.025,-14.178 m 4.91,0.275 c 0,6.179 3.308,10.098 7.943,10.098 v 0 c 3.534,0 5.906,-2.314 6.787,-5.133 v 0 c 0.223,-0.66 0.276,-1.377 0.276,-2.206 v 0 -4.802 c 0,-0.825 -0.11,-1.766 -0.385,-2.592 v 0 c -1.051,-3.088 -3.75,-4.963 -6.734,-4.963 v 0 c -5.241,0 -7.887,4.354 -7.887,9.598 m -29.133,8.884 h -0.109 l -0.278,4.415 h -4.302 c 0.166,-2.208 0.221,-4.471 0.221,-7.23 v 0 -19.477 h 4.855 v 16.058 c 0,0.826 0.109,1.655 0.329,2.263 v 0 c 0.829,2.703 3.313,4.965 6.511,4.965 v 0 c 4.582,0 6.183,-3.588 6.183,-7.892 v 0 -15.394 h 4.856 v 15.949 c 0,9.156 -5.741,11.362 -9.436,11.362 v 0 c -4.414,0 -7.506,-2.479 -8.83,-5.019 m -92.963,-0.167 h -0.113 l -0.217,4.582 h -4.361 c 0.109,-2.538 0.22,-5.297 0.22,-8.717 v 0 -28.915 h 4.803 v 14.514 h 0.109 c 1.599,-2.65 4.69,-4.196 8.224,-4.196 v 0 c 6.289,0 12.136,4.747 12.136,14.344 v 0 c 0,8.114 -4.855,13.574 -11.308,13.574 v 0 c -4.362,0 -7.506,-1.929 -9.493,-5.186 m 0.551,-13.24 c -0.11,0.603 -0.219,1.268 -0.219,1.986 v 0 4.58 c 0,0.662 0.164,1.377 0.331,1.986 v 0 c 0.935,3.642 4.026,6.013 7.339,6.013 v 0 c 5.127,0 7.944,-4.578 7.944,-9.931 v 0 c 0,-6.125 -2.981,-10.319 -8.109,-10.319 v 0 c -3.479,0 -6.403,2.319 -7.286,5.685 m -27.584,16.55 c -1.103,-0.825 -2.15,-1.985 -2.981,-3.473 v 0 h -0.11 c -1.157,3.143 -3.915,5.349 -7.56,5.349 v 0 c -4.411,0 -6.895,-2.369 -8.388,-4.908 v 0 h -0.164 l -0.219,4.304 h -4.25 c 0.166,-2.208 0.221,-4.471 0.221,-7.23 v 0 -19.477 h 4.744 v 16.113 c 0,0.829 0.109,1.657 0.388,2.371 v 0 c 0.773,2.427 2.979,4.856 6.016,4.856 v 0 c 3.694,0 5.571,-3.09 5.571,-7.336 v 0 -16.004 h 4.744 v 16.498 c 0,0.884 0.17,1.767 0.387,2.427 v 0 c 0.825,2.375 2.978,4.415 5.737,4.415 v 0 c 3.919,0 5.797,-3.09 5.797,-8.219 v 0 -15.121 h 4.747 v 15.727 c 0,9.269 -5.244,11.584 -8.778,11.584 v 0 c -2.535,0 -4.303,-0.66 -5.902,-1.876 m -55.674,-12.302 c 0,-8.442 5.576,-13.74 12.805,-13.74 v 0 c 6.453,0 13.297,4.305 13.297,14.179 v 0 c 0,8.168 -5.19,13.739 -12.856,13.739 v 0 c -7.394,0 -13.246,-5.24 -13.246,-14.178 m 4.914,0.164 c 0,5.076 2.479,10.373 8.221,10.373 v 0 c 5.738,0 8,-5.737 8,-10.262 v 0 c 0,-6.014 -3.474,-10.373 -8.109,-10.373 v 0 c -4.744,0 -8.112,4.413 -8.112,10.262 m -132.799,-0.164 c 0,-8.442 5.57,-13.74 12.799,-13.74 v 0 c 6.457,0 13.297,4.305 13.297,14.179 v 0 c 0,8.168 -5.183,13.739 -12.856,13.739 v 0 c -7.394,0 -13.24,-5.24 -13.24,-14.178 m 4.909,0.164 c 0,5.076 2.482,10.373 8.222,10.373 v 0 c 5.739,0 8,-5.737 8,-10.262 v 0 c 0,-6.014 -3.474,-10.373 -8.111,-10.373 v 0 c -4.744,0 -8.111,4.413 -8.111,10.262 m -81.985,-0.387 c 0,-8.055 4.908,-13.462 13.132,-13.462 v 0 c 4.248,0 7.172,0.884 8.885,1.657 v 0 l -0.831,3.477 c -1.819,-0.772 -3.915,-1.382 -7.392,-1.382 v 0 c -4.857,0 -9.048,2.705 -9.159,9.269 v 0 h 18.759 c 0.058,0.497 0.167,1.268 0.167,2.263 v 0 c 0,4.913 -2.317,12.579 -11.035,12.579 v 0 c -7.78,0 -12.526,-6.34 -12.526,-14.401 m 12.138,10.929 c 5.465,0 6.787,-4.803 6.732,-7.89 v 0 h -14.182 c 0.388,3.365 2.539,7.89 7.45,7.89 m -47.668,-2.374 h -0.222 l -0.167,5.242 h -4.246 c 0.163,-2.485 0.221,-5.185 0.221,-8.334 v 0 -18.373 h 4.797 v 14.234 c 0,0.83 0.111,1.602 0.223,2.264 v 0 c 0.66,3.641 3.089,6.235 6.514,6.235 v 0 c 0.659,0 1.157,-0.056 1.653,-0.166 v 0 4.58 c -0.442,0.111 -0.829,0.164 -1.379,0.164 v 0 c -3.258,0 -6.18,-2.26 -7.394,-5.846 m -67.036,-8.332 c 0,-8.442 5.572,-13.74 12.802,-13.74 v 0 c 6.454,0 13.298,4.305 13.298,14.179 v 0 c 0,8.168 -5.19,13.739 -12.856,13.739 v 0 c -7.396,0 -13.244,-5.24 -13.244,-14.178 m 4.91,0.164 c 0,5.076 2.482,10.373 8.223,10.373 v 0 c 5.738,0 7.998,-5.737 7.998,-10.262 v 0 c 0,-6.014 -3.473,-10.373 -8.108,-10.373 v 0 c -4.745,0 -8.113,4.413 -8.113,10.262 m -25.931,6.18 c 0,-3.2 2.261,-5.846 7.062,-7.56 v 0 c 3.59,-1.324 4.967,-2.591 4.967,-4.909 v 0 c 0,-2.205 -1.656,-3.973 -5.187,-3.973 v 0 c -2.428,0 -4.966,0.993 -6.399,1.931 v 0 l -1.215,-3.694 c 1.875,-1.104 4.578,-1.824 7.502,-1.824 v 0 c 6.348,0 9.99,3.31 9.99,8 v 0 c 0,3.972 -2.375,6.289 -7.009,8.058 v 0 c -3.476,1.322 -5.075,2.314 -5.075,4.524 v 0 c 0,1.986 1.599,3.64 4.469,3.64 v 0 c 2.482,0 4.415,-0.883 5.461,-1.545 v 0 l 1.215,3.532 c -1.489,0.882 -3.864,1.654 -6.565,1.654 v 0 c -5.742,0 -9.216,-3.53 -9.216,-7.834 m -36.745,2.815 h -0.11 l -0.274,4.415 h -4.303 c 0.164,-2.208 0.22,-4.471 0.22,-7.23 v 0 -19.477 h 4.854 v 16.058 c 0,0.826 0.113,1.655 0.332,2.263 v 0 c 0.826,2.703 3.31,4.965 6.512,4.965 v 0 c 4.58,0 6.177,-3.588 6.177,-7.892 v 0 -15.394 h 4.856 v 15.949 c 0,9.156 -5.739,11.362 -9.431,11.362 v 0 c -4.418,0 -7.508,-2.479 -8.833,-5.019 m -34.039,-9.382 c 0,-8.055 4.91,-13.462 13.131,-13.462 v 0 c 4.249,0 7.172,0.884 8.883,1.657 v 0 l -0.829,3.477 c -1.819,-0.772 -3.916,-1.382 -7.394,-1.382 v 0 c -4.853,0 -9.047,2.705 -9.157,9.269 v 0 h 18.763 c 0.053,0.497 0.162,1.268 0.162,2.263 v 0 c 0,4.913 -2.317,12.579 -11.034,12.579 v 0 c -7.781,0 -12.525,-6.34 -12.525,-14.401 m 12.138,10.929 c 5.463,0 6.788,-4.803 6.732,-7.89 v 0 h -14.183 c 0.389,3.365 2.538,7.89 7.451,7.89 m -37.13,-1.714 h -0.111 l -0.219,4.582 h -4.362 c 0.111,-2.538 0.221,-5.297 0.221,-8.717 v 0 -28.915 h 4.801 v 14.514 h 0.111 c 1.599,-2.65 4.688,-4.196 8.219,-4.196 v 0 c 6.294,0 12.141,4.747 12.141,14.344 v 0 c 0,8.114 -4.854,13.574 -11.31,13.574 v 0 c -4.362,0 -7.503,-1.929 -9.491,-5.186 m 0.552,-13.24 c -0.111,0.603 -0.222,1.268 -0.222,1.986 v 0 4.58 c 0,0.662 0.165,1.377 0.331,1.986 v 0 c 0.937,3.642 4.027,6.013 7.337,6.013 v 0 c 5.133,0 7.949,-4.578 7.949,-9.931 v 0 c 0,-6.125 -2.98,-10.319 -8.113,-10.319 v 0 c -3.477,0 -6.399,2.319 -7.282,5.685 m -37.243,4.248 c 0,-8.442 5.575,-13.74 12.801,-13.74 v 0 c 6.455,0 13.297,4.305 13.297,14.179 v 0 c 0,8.168 -5.187,13.739 -12.854,13.739 v 0 c -7.397,0 -13.244,-5.24 -13.244,-14.178 m 4.912,0.164 c 0,5.076 2.481,10.373 8.223,10.373 v 0 c 5.737,0 7.997,-5.737 7.997,-10.262 v 0 c 0,-6.014 -3.474,-10.373 -8.109,-10.373 v 0 c -4.747,0 -8.111,4.413 -8.111,10.262 m 431.72,-0.222 c 0,-8.162 5.243,-13.627 13.295,-13.627 v 0 c 3.59,0 6.401,0.884 7.672,1.546 v 0 l -0.83,3.643 c -1.377,-0.609 -3.199,-1.327 -5.959,-1.327 v 0 c -5.295,0 -9.267,3.807 -9.267,9.987 v 0 c 0,5.575 3.31,10.098 9.433,10.098 v 0 c 2.651,0 4.469,-0.608 5.631,-1.27 v 0 l 1.103,3.752 c -1.325,0.662 -3.863,1.381 -6.734,1.381 v 0 c -8.721,0 -14.344,-5.958 -14.344,-14.183 m -141.24,0 c 0,-8.162 5.238,-13.627 13.297,-13.627 v 0 c 3.586,0 6.4,0.884 7.668,1.546 v 0 l -0.826,3.643 c -1.381,-0.609 -3.2,-1.327 -5.961,-1.327 v 0 c -5.293,0 -9.271,3.807 -9.271,9.987 v 0 c 0,5.575 3.316,10.098 9.437,10.098 v 0 c 2.649,0 4.471,-0.608 5.628,-1.27 v 0 l 1.106,3.752 c -1.328,0.662 -3.867,1.381 -6.734,1.381 v 0 c -8.717,0 -14.344,-5.958 -14.344,-14.183 m -63.723,0 c 0,-8.162 5.239,-13.627 13.297,-13.627 v 0 c 3.584,0 6.401,0.884 7.668,1.546 v 0 l -0.827,3.643 c -1.379,-0.609 -3.199,-1.327 -5.958,-1.327 v 0 c -5.299,0 -9.272,3.807 -9.272,9.987 v 0 c 0,5.575 3.311,10.098 9.436,10.098 v 0 c 2.649,0 4.471,-0.608 5.627,-1.27 v 0 l 1.106,3.752 c -1.326,0.662 -3.865,1.381 -6.733,1.381 v 0 c -8.716,0 -14.344,-5.958 -14.344,-14.183 m 387.637,-13.075 h 4.854 v 26.707 h -4.854 z m -31.168,26.707 v -16.389 c 0,-0.882 -0.168,-1.765 -0.441,-2.485 v 0 c -0.883,-2.148 -3.144,-4.411 -6.402,-4.411 v 0 c -4.417,0 -5.961,3.419 -5.961,8.495 v 0 14.79 h -4.856 v -15.615 c 0,-9.38 5.023,-11.699 9.217,-11.699 v 0 c 4.744,0 7.56,2.815 8.826,4.967 v 0 h 0.111 l 0.276,-4.36 h 4.304 c -0.165,2.096 -0.22,4.523 -0.22,7.281 v 0 19.426 z m -205.297,0 v -16.389 c 0,-0.882 -0.166,-1.765 -0.441,-2.485 v 0 c -0.883,-2.148 -3.148,-4.411 -6.404,-4.411 v 0 c -4.414,0 -5.956,3.419 -5.956,8.495 v 0 14.79 h -4.857 v -15.615 c 0,-9.38 5.022,-11.699 9.215,-11.699 v 0 c 4.744,0 7.563,2.815 8.828,4.967 v 0 h 0.109 l 0.282,-4.36 h 4.301 c -0.168,2.096 -0.219,4.523 -0.219,7.281 v 0 19.426 z m -179.642,0 v -16.389 c 0,-0.882 -0.165,-1.765 -0.442,-2.485 v 0 c -0.883,-2.148 -3.144,-4.411 -6.398,-4.411 v 0 c -4.416,0 -5.959,3.419 -5.959,8.495 v 0 14.79 h -4.854 v -15.615 c 0,-9.38 5.017,-11.699 9.211,-11.699 v 0 c 4.749,0 7.56,2.815 8.829,4.967 v 0 h 0.111 l 0.275,-4.36 h 4.303 c -0.165,2.096 -0.22,4.523 -0.22,7.281 v 0 19.426 z" /></clipPath><clipPath
   id="clipPath104"
   clipPathUnits="userSpaceOnUse"><path
     id="path102"
     d="m 892.093,1318.587 h 744.665 v 1.564 H 892.093 Z" /></clipPath><clipPath
   id="clipPath122-9"
   clipPathUnits="userSpaceOnUse"><path
     id="path120-3"
     d="M 0,2000 H 2000 V 0 H 0 Z" /></clipPath>

</defs><g
     inkscape:groupmode="layer"
     id="layer2"
     inkscape:label="Layer 2"
     style="display:inline" /><g
     inkscape:groupmode="layer"
     id="layer1"
     inkscape:label="Layer 1"
     style="display:inline"
     sodipodi:insensitive="true"><g
       id="g3"
       transform="matrix(1.3193226,0,0,1.3208366,-0.27290387,-0.13338564)"
       style="stroke-width:0.75753"><g
         id="g6"
         style="fill:#616870;fill-opacity:1;stroke-width:18.6313"
         transform="matrix(0.04499745,0,0,0.03673936,2.2351283,7.4348439)"><g
           id="g2"
           transform="matrix(1.2665083,0,0,1.3369647,-36.653096,-9.4916294)"
           style="fill:#616870;fill-opacity:1;stroke-width:14.3179"><path
             id="path22"
             style="fill:#616870;fill-opacity:1;fill-rule:nonzero;stroke:none;stroke-width:19.0904"
             d="m 41.472854,353.82378 c 0,0 12.84,9.63067 41.405332,7.73733 0,0 5.008,-0.0867 8.76,-5.68133 0,0 3.070667,-6.97333 -10.170666,-3.94 0,0 -16.26,2.328 -31.46,-5.55067 0,0 -31.947999,-17.8 -37.322665,-44.572 0,0 -9.752,-26.39733 5.897333,-54.03599 0,0 9.674666,-16.376 20.585333,-23.94534 0,0 18.186666,-17.25333 45.106665,-12.408 0,0 13.256,1.05734 39.680004,22.46 0,0 8.47866,2.38667 6.50266,-5.02133 0,0 -6.99466,-17.78 -35.477331,-24.20133 0,0 -0.74,-23.624 10.865331,-33.91334 0,0 19.83867,-37.53733 63.136,-33.42133 0,0 39.02,-0.90533 60.17467,49.55467 0,0 6.74933,22.55466 2.05733,40.33466 l 27.65867,-4.93866 -26.424,-53.09467 c 0,0 -16.54534,-33.78933 -60.00934,-41.34266 0,0 -39.26399,-9.03467 -72.35466,32.20533 0,0 -14.324,24.448 -15.312,41.98266 0,0 -48.402666,-12.348 -78.2826651,45.932 0,0 -28.8106659,65.772 34.9839991,105.86"
             inkscape:connector-curvature="0" /><path
             id="path26"
             style="fill:#616870;fill-opacity:1;fill-rule:nonzero;stroke:none;stroke-width:19.0904"
             d="m 292.85245,334.14924 c 0,0 54.18,-47.41467 3.80267,-95.816 0,0 2.76666,-13.58266 -3.80267,-18.27466 0,0 -2.61867,-6.668 -20.64533,1.976 0,0 -15.06534,4.93866 -28.15334,-6.668 l -15.55733,12.59466 c 0,0 -20.99066,9.384 -30.868,32.35067 0,0 -6.668,20.74266 0,28.64533 0,0 4.93867,2.46933 7.90267,-3.45733 0,0 -2.47067,-20.74267 14.56933,-39.75867 0,0 37.89067,-30.41866 75.69333,10.328 0,0 22.64267,33.13467 -2.94133,63.75733 0,0 -13.97867,12.1 -12.496,14.32267 0,0 4.00133,3.704 12.496,0"
             inkscape:connector-curvature="0" /><path
             id="path30"
             style="fill:#616870;fill-opacity:1;fill-rule:nonzero;stroke:none;stroke-width:19.0904"
             d="m 159.59725,127.00605 c 0,0 -0.332,-18.816 5.43333,-34.783999 0,0 2.98667,-8.141333 13.5,-24.037333 1.65867,-2.508 6.91467,-9.218666 8.56134,-15.310666 0,0 8.89066,-27.986666 -22.96667,-32.425333 0,0 -10.15067,-1.806666 -16.79067,3.530667 -4.2,3.376 -8.15066,5.352 -11.19733,6.174666 0,0 -15.064,5.185334 -14.56933,-4.445333 0,0 -2.71734,-14.322666 31.36266,-18.2733327 0,0 41.69467,-7.16133313 46.52934,25.9293327 0,0 6.81066,20.250666 -17.884,50.625332 0,0 -13.58267,21.031999 -10.372,43.853329 3.21066,22.82267 0,1.09067 0,1.09067 l -4.19734,2.716 -8.14933,-3.80667"
             inkscape:connector-curvature="0" /><path
             id="path34"
             style="fill:#616870;fill-opacity:1;fill-rule:nonzero;stroke:none;stroke-width:19.0904"
             d="m 229.73138,170.29831 c 0,0 22.15467,-5.43067 25.77733,-23.86933 l -31.61066,-2.13867 c 0,0 -8.55867,-3.00533 -13.16934,-17.55467 0,0 -19.09733,-10.26933 -17.78,-25.08666 0,0 2.96267,-18.438668 18.768,-21.073334 0,0 16.48534,-4.074667 19.83867,22.266664 0,0 7.756,22.30933 -7.35867,23.89333 0,0 -3.26133,7.18134 8.592,7.51067 0,0 14.45067,4.28133 24.676,-4.28 0,0 6.93334,-6.38 15.16667,-5.16667 0,0 1.768,-3.148 -1.688,-5.12266 0,0 -20.49733,-17.53333 -24.07733,-42.352001 0,0 -16.91734,-2.346667 -19.016,-14.324 0,0 -3.952,-18.521333 11.36,-22.225332 0,0 9.75466,-2.222667 14.69333,0 0,0 12.47067,-33.9559996 48.032,-39.7586661 0,0 29.38666,-6.9133332 39.88266,15.3106661 0,0 4.32134,12.101333 1.97467,22.225333 0,0 -2.46933,11.113333 0.124,13.953333 0,0 9.508,-2.222667 13.45867,3.950667 3.95066,6.174666 5.68,19.385332 -2.22267,22.473332 0,0 2.34667,10.494667 -5.556,17.656 0,0 -25.06533,14.570668 -32.22667,26.917328 0,0 -2.208,2.82 -3.33333,3.808 -2.712,2.37867 -6.31867,4.416 -9.632,5.288 0,0 -2.97733,1.29067 -6.29733,-0.32933 0,0 -0.988,4.94 4.568,5.804 0,0 10.55733,-1.46267 22.04133,-4.98133 l 83.03733,-29.69467 c 0,0 -3.86,-10.373331 -0.77333,-15.434665 0,0 1.708,-2.690666 3.26267,-3.281333 2.87866,-1.096 6.31733,-6.576 6.46133,-10.856 0,0 -0.80267,-10.825333 6.97733,-11.318666 0,0 7.448,-0.453333 6.83067,8.684 l -0.53334,6.009333 c 0,0 11.39067,-4.321333 15.20267,3.457333 0,0 7.69867,15.610667 -0.46533,28.203998 0,0 -12.012,11.84133 -27.82667,4.39333 l -5.432,-3.33466 c 0,0 -96.55866,39.96533 -97.66933,42.6 0,0 -7.584,3.82533 -13.212,14.076 0,0 -19.38533,34.57333 -29.38666,43.70933 0,0 -6.544,7.90267 -11.236,9.87867 l 1.852,4.93866 h -21.11467 l -2.46933,-15.89733 -3.08667,-31.14667 z"
             inkscape:connector-curvature="0" /><path
             id="path38"
             style="fill:#616870;fill-opacity:1;fill-rule:nonzero;stroke:none;stroke-width:19.0904"
             d="m 318.63298,29.166183 c 0,0 13.088,-8.149333 18.028,0.741333 0,0 -1.48267,12.1 -0.74133,21.978666 0,0 1.48133,11.606667 10.86533,18.274667 0,0 8.89067,9.877333 0,18.766666 0,0 -26.66933,18.769335 -31.60933,30.127995 0,0 -11.85334,16.79334 -31.116,3.952 0,0 -25.188,-15.31066 -20.744,-37.535995 0,0 2.964,-4.445333 9.384,-5.928 0,0 -15.804,-25.682666 -1.48134,-43.957332 0,0 23.21334,-29.6333328 47.41467,-6.42"
             inkscape:connector-curvature="0" /><path
             id="path42"
             style="fill:#616870;fill-opacity:1;fill-rule:nonzero;stroke:none;stroke-width:19.0904"
             d="m 249.24045,51.392183 c 0,0 -5.30933,7.778666 -5.556,19.385333 0,0 -8.14933,-1.234667 -8.89067,-9.013333 0,0 -2.09866,-11.236 7.90267,-13.089333 0,0 5.06267,-1.234667 6.544,2.717333"
             inkscape:connector-curvature="0" /><path
             id="path46"
             style="fill:#616870;fill-opacity:1;fill-rule:nonzero;stroke:none;stroke-width:19.0904"
             d="m 341.59978,60.158449 c 0,0 5.432,-3.704 9.13733,0 0,0 5.52934,5.396 2.34534,10.001333 0,0 -2.34534,1.358667 -3.828,0 0,0 -3.11734,-3.856 -6.42,-6.049333 0,0 -2.34534,-1.606667 -1.23467,-3.952"
             inkscape:connector-curvature="0" /><path
             id="path50"
             style="fill:#616870;fill-opacity:1;fill-rule:nonzero;stroke:none;stroke-width:19.0904"
             d="m 226.52098,103.74498 c 0,0 -2.46933,-12.594666 -10.70133,-16.052 0,0 -5.92667,-1.562666 -10.372,3.54 0,0 -8.14934,8.314667 -5.432,18.43867 0,0 4.692,11.11466 17.12133,13.41866 0,0 6.99733,2.14 11.03067,-8.48 0,0 1.01466,-3.30533 -1.64667,-10.86533"
             inkscape:connector-curvature="0" /><path
             id="path54"
             style="fill:#616870;fill-opacity:1;fill-rule:nonzero;stroke:none;stroke-width:19.0904"
             d="m 237.63365,181.94685 c 0,0 16.07333,-6.532 35.88933,-30.62133 0,0 5.432,-7.57467 13.00667,-5.59867 0,0 11.032,2.63333 3.95067,20.24933 0,0 -13.828,43.62934 -46.75467,48.07334 0,0 0,-22.884 -6.092,-32.10267"
             inkscape:connector-curvature="0" /><path
             id="path58"
             style="fill:#616870;fill-opacity:1;fill-rule:nonzero;stroke:none;stroke-width:19.0904"
             d="m 114.81725,226.56138 c 0,0 -57.949332,-10.86533 -78.363998,37.536 0,0 -17.452,57.62266 53.669332,76.06 0,0 51.035996,8.232 114.585326,-1.97467 0,0 73.88667,-9.548 88.144,-20.41467 0,0 -6.48533,24.696 -75.30266,35.56134 0,0 -100.42667,14.488 -134.341333,7.90266 0,0 4.938667,0.65734 9.218667,-6.58533 0,0 1.648,-5.268 -13.169333,-2.30533 0,0 -33.583999,3.62266 -56.634665,-29.63334 0,0 -37.863999,-51.14799 14.817333,-97.18933 0,0 31.610665,-34.848 77.377331,1.04267"
             inkscape:connector-curvature="0" /><path
             id="path62"
             style="fill:#616870;fill-opacity:1;fill-rule:nonzero;stroke:none;stroke-width:19.0904"
             d="m 299.55685,60.961783 c 0,0 -0.68,-6.792 -10.00133,-7.346666 0,0 -8.82934,-1.729334 -10.99067,6.729333 0,0 0.80267,3.333333 4.508,1.049333 0,0 -0.012,-4.966667 6.66667,-5.248 0,0 6.35866,1.166667 7.03866,6.046667 0,0 2.59334,0.992 2.77867,-1.230667"
             inkscape:connector-curvature="0" /><path
             id="path66"
             style="fill:#616870;fill-opacity:1;fill-rule:nonzero;stroke:none;stroke-width:19.0904"
             d="m 313.72485,61.980049 c 0,0 0.49467,-6.914666 6.236,-8.212 0,0 8.33467,-2.684 11.97733,4.785333 0,0 1.296,3.026667 0.12267,3.86 0,0 -2.608,0.956 -3.39467,-3.581333 0,0 -2.1,-4.105333 -6.26666,-3.241333 0,0 -3.704,0.401333 -4.63067,4.289333 0,0 -0.184,4.105333 -4.044,2.1"
             inkscape:connector-curvature="0" /><path
             id="path70"
             style="fill:#616870;fill-opacity:1;fill-rule:nonzero;stroke:none;stroke-width:19.0904"
             d="m 282.41298,85.059382 c 1.89067,-1.165333 4.61333,-0.166667 6.34133,0.888 1.87734,1.145333 3.92134,2.222667 5.90934,3.165333 3.89733,1.844 7.94666,3.037333 12.36,3.026667 2.29066,-0.0067 4.72933,0.232 6.97733,-0.084 1.876,-0.265334 3.80267,-0.472 5.676,-0.662667 2.276,-0.229333 4.644,-0.705333 6.71333,-1.786666 1.036,-0.542667 2.07467,-0.973334 3.07467,-1.584 0.93067,-0.572 1.792,-1.328 2.69067,-1.892 0.41466,-0.261334 1.53333,-1.089334 2.03333,-0.998667 0.66667,0.122667 1.29867,1.921333 1.124,2.549333 -1.26267,0.374667 -2.47333,1.378667 -3.68133,1.964 -1.67734,0.812 -3.24134,1.913334 -4.772,2.968 -2.16934,1.497333 -4.70534,3.605333 -6.08534,5.864 -3.23066,5.295995 -6.90266,10.689335 -12.264,13.993335 -2.81733,1.73466 -5.976,2.22533 -9.24266,2.224 -3.10267,-0.001 -7.03067,-0.56667 -9.70134,-2.236 -2.59733,-1.62134 -4.60666,-3.66934 -5.42933,-6.65467 -0.81333,-2.95733 0.004,-5.922665 0.004,-8.926665 0,-2.342667 0.62533,-5.814666 -0.49067,-7.868 -0.38133,-0.706666 -0.52533,-0.497333 -1.15866,-1.044 -0.48534,-0.421333 -0.732,-1.217333 -0.5,-2.122666 0.0387,-0.156 0.26133,-0.796 0.42133,-0.782667"
             inkscape:connector-curvature="0" /><path
             id="path74"
             style="fill:#616870;fill-opacity:1;fill-rule:nonzero;stroke:none;stroke-width:19.0904"
             d="m 306.53271,75.438315 c 0,1.381333 -1.17467,2.5 -2.624,2.5 -1.44933,0 -2.624,-1.118667 -2.624,-2.5 0,-1.381333 1.17467,-2.5 2.624,-2.5 1.44933,0 2.624,1.118667 2.624,2.5"
             inkscape:connector-curvature="0" /><path
             id="path78"
             style="fill:#616870;fill-opacity:1;fill-rule:nonzero;stroke:none;stroke-width:19.0904"
             d="m 317.27431,75.006716 c 0,1.381333 -1.17467,2.5 -2.62267,2.5 -1.44933,0 -2.624,-1.118667 -2.624,-2.5 0,-1.381333 1.17467,-2.5 2.624,-2.5 1.448,0 2.62267,1.118667 2.62267,2.5"
             inkscape:connector-curvature="0" /><path
             id="path82"
             style="fill:#616870;fill-opacity:1;fill-rule:nonzero;stroke:none;stroke-width:19.0904"
             d="m 410.18178,97.612848 c 0,0 -3.84933,-6.690666 1.312,-11.981333 0,0 6.75733,-2.316 6.94133,-7.553333 0,0 -1.864,-8.242667 1.988,-11.122667 0,0 6.38534,-4.381333 7.208,3.216 0,0 1.392,7.042667 -0.90133,11.484 0,0 9.41733,-2.417333 13.676,0 4.26133,2.418667 5.736,15.337333 1.88667,22.029335 0,0 -4.58667,8.012 -17.448,7.468 0,0 -11.468,0.46666 -11.71467,-7.86 0,0 -1.10533,-3.553335 -2.948,-5.680002"
             inkscape:connector-curvature="0" /></g></g><g
         id="g1"
         transform="matrix(0.07029431,0,0,0.07577464,-57.912494,1.9620353)"
         style="fill:#616870;fill-opacity:1;stroke-width:10.3795"><text
           xml:space="preserve"
           font-family="'Avenir LT Std 55 Roman'"
           font-size="20.1968px"
           font-style="normal"
           font-weight="bold"
           style="white-space:pre;fill:#616870;fill-opacity:1;fill-rule:nonzero;stroke:none;stroke-width:16.4422;stroke-linecap:butt;stroke-linejoin:miter;stroke-miterlimit:4;stroke-dasharray:none;stroke-dashoffset:0"
           id="text38"
           transform="scale(0.95742711,1.0444659)"
           x="2025.7378"
           y="145.1111"><tspan
             x="2009.4293"
             y="151.48871"
             id="tspan38"
             style="fill:#616870;fill-opacity:1;stroke-width:16.4422">TM</tspan></text><path
           style="fill:#616870;fill-opacity:1;fill-rule:nonzero;stroke:none;stroke-width:16.4413;stroke-linecap:butt;stroke-linejoin:miter;stroke-miterlimit:4;stroke-dasharray:none;stroke-dashoffset:0"
           d="m 1208.2314,192.37297 c -1.13,-1.81185 -2.7181,-3.31395 -4.7672,-4.50464 -2.0506,-1.18902 -4.2549,-1.7852 -6.6129,-1.7852 -5.8445,0 -10.3812,1.92842 -13.61,5.78026 -3.2304,3.8535 -4.8456,8.8977 -4.8456,15.12758 0,6.23322 1.6152,11.27742 4.8456,15.12925 3.2288,3.85351 7.7655,5.77859 13.61,5.77859 2.5599,0 4.7672,-0.62115 6.6129,-1.87013 1.8457,-1.24564 3.4338,-2.71943 4.7672,-4.41804 l 15.2252,17.67716 c -3.589,4.07999 -7.8183,6.94264 -12.6864,8.58462 -4.8727,1.64199 -9.5118,2.46465 -13.9189,2.46465 -5.7435,0 -11.1496,-1.02083 -16.2257,-3.05916 -5.0745,-2.03999 -9.4846,-4.95593 -13.2258,-8.75448 -3.7441,-3.79522 -6.6912,-8.35648 -8.8428,-13.68377 -2.1531,-5.32563 -3.2304,-11.27408 -3.2304,-17.84869 0,-6.56961 1.0773,-12.51972 3.2304,-17.84702 2.1516,-5.32563 5.0987,-9.88522 8.8428,-13.68377 3.7412,-3.79688 8.1513,-6.71449 13.2258,-8.75448 5.0761,-2.03999 10.4822,-3.05916 16.2257,-3.05916 4.4071,0 9.0462,0.82266 13.9189,2.46298 4.8681,1.64532 9.0974,4.50631 12.6864,8.58463 z"
           stroke-linecap="round"
           id="path55" /><path
           style="fill:#616870;fill-opacity:1;fill-rule:nonzero;stroke:none;stroke-width:16.4413;stroke-linecap:butt;stroke-linejoin:miter;stroke-miterlimit:4;stroke-dasharray:none;stroke-dashoffset:0"
           d="m 1231.0681,119.97462 h 23.0691 v 128.50621 h -23.0691 z"
           stroke-linecap="round"
           id="path57" /><path
           style="fill:#616870;fill-opacity:1;fill-rule:nonzero;stroke:none;stroke-width:16.4413;stroke-linecap:butt;stroke-linejoin:miter;stroke-miterlimit:4;stroke-dasharray:none;stroke-dashoffset:0"
           d="m 1290.287,206.9943 c 0,6.23322 1.6137,11.27741 4.844,15.12759 3.2289,3.8535 7.7656,5.78025 13.6101,5.78025 5.8445,0 10.3826,-1.92675 13.6115,-5.78025 3.2304,-3.85018 4.844,-8.89437 4.844,-15.12759 0,-6.23155 -1.6136,-11.27575 -4.844,-15.12759 -3.2289,-3.85183 -7.767,-5.78025 -13.6115,-5.78025 -5.8445,0 -10.3812,1.92842 -13.6101,5.78025 -3.2303,3.85184 -4.844,8.89604 -4.844,15.12759 m -23.0691,0 c 0,-6.57127 1.0758,-12.52139 3.2289,-17.84869 2.1546,-5.32562 5.1002,-9.88522 8.8428,-13.68377 3.7426,-3.79521 8.1512,-6.71282 13.2273,-8.75281 5.0746,-2.04166 10.4821,-3.06082 16.2242,-3.06082 5.742,0 11.1495,1.01916 16.2271,3.06082 5.0746,2.03999 9.4817,4.9576 13.2243,8.75281 3.7427,3.79855 6.6913,8.35815 8.8428,13.68377 2.1546,5.3273 3.2319,11.27742 3.2319,17.84869 0,6.57294 -1.0773,12.52306 -3.2319,17.84869 -2.1515,5.32729 -5.1001,9.88688 -8.8428,13.68377 -3.7426,3.79688 -8.1497,6.71282 -13.2243,8.75281 -5.0776,2.03999 -10.4851,3.06082 -16.2271,3.06082 -5.7421,0 -11.1496,-1.02083 -16.2242,-3.06082 -5.0761,-2.03999 -9.4847,-4.95593 -13.2273,-8.75281 -3.7426,-3.79689 -6.6882,-8.35648 -8.8428,-13.68377 -2.1531,-5.32563 -3.2289,-11.27575 -3.2289,-17.84869"
           stroke-linecap="round"
           id="path60" /><path
           style="fill:#616870;fill-opacity:1;fill-rule:nonzero;stroke:none;stroke-width:16.4413;stroke-linecap:butt;stroke-linejoin:miter;stroke-miterlimit:4;stroke-dasharray:none;stroke-dashoffset:0"
           d="m 1435.1412,248.30881 h -22.1455 v -11.21913 h -0.3073 c -0.8212,1.5887 -1.8729,3.17407 -3.1536,4.75943 -1.2837,1.5887 -2.8446,3.0042 -4.6903,4.24985 -1.8457,1.24897 -3.9491,2.26647 -6.3056,3.05915 -2.3595,0.79269 -4.9224,1.19069 -7.6887,1.19069 -5.8444,0 -10.589,-0.99418 -14.2277,-2.97589 -3.6402,-1.98004 -6.4592,-4.72945 -8.4571,-8.24323 -1.9994,-3.51212 -3.3344,-7.64873 -3.9988,-12.40815 -0.669,-4.75943 -1.002,-9.9152 -1.002,-15.46898 v -45.55428 h 23.0706 v 40.45514 c 0,2.37971 0.077,4.84435 0.2305,7.39393 0.1537,2.54957 0.6163,4.90264 1.3847,7.05421 0.7684,2.1549 1.9467,3.91012 3.5377,5.26901 1.5881,1.36055 3.8677,2.03999 6.8435,2.03999 2.9727,0 5.3819,-0.59451 7.2291,-1.78354 1.8442,-1.19069 3.253,-2.77605 4.2278,-4.76109 0.9733,-1.98004 1.6152,-4.21987 1.9226,-6.71282 0.3073,-2.49296 0.461,-5.09915 0.461,-7.82025 v -41.13458 h 23.0691 z"
           stroke-linecap="round"
           id="path63" /><path
           style="fill:#616870;fill-opacity:1;fill-rule:nonzero;stroke:none;stroke-width:16.4413;stroke-linecap:butt;stroke-linejoin:miter;stroke-miterlimit:4;stroke-dasharray:none;stroke-dashoffset:0"
           d="m 1508.052,207.1981 c 0,-6.23155 -1.6137,-11.27575 -4.844,-15.12759 -3.2289,-3.85183 -7.7671,-5.78025 -13.6116,-5.78025 -5.843,0 -10.3811,1.92842 -13.61,5.78025 -3.2304,3.85184 -4.844,8.89604 -4.844,15.12759 0,6.23322 1.6136,11.27741 4.844,15.12759 3.2289,3.8535 7.767,5.78025 13.61,5.78025 5.8445,0 10.3827,-1.92675 13.6116,-5.78025 3.2303,-3.85018 4.844,-8.89437 4.844,-15.12759 m 21.2234,41.3061 h -21.2234 v -10.8794 h -0.3074 c -0.9221,1.47379 -2.1289,2.97422 -3.6145,4.50463 -1.4872,1.53041 -3.2289,2.91927 -5.2283,4.16492 -1.9994,1.24897 -4.2052,2.26481 -6.6129,3.05915 -2.4107,0.79269 -4.8983,1.19069 -7.4597,1.19069 -5.5371,0 -10.5619,-1.0508 -15.0715,-3.14575 -4.5126,-2.09495 -8.3818,-5.04086 -11.6106,-8.83775 -3.2304,-3.79688 -5.7179,-8.29985 -7.4597,-13.5139 -1.7432,-5.21239 -2.6156,-10.93603 -2.6156,-17.16925 0,-5.78025 0.794,-11.30239 2.3836,-16.57306 1.5895,-5.26901 3.8451,-9.94351 6.7681,-14.02349 2.9215,-4.07999 6.4833,-7.33565 10.6885,-9.77365 4.2022,-2.43633 8.9709,-3.65533 14.3031,-3.65533 4.8184,0 9.3039,0.82432 13.4563,2.46464 4.1525,1.64365 7.5607,4.44968 10.2275,8.41476 h 0.3074 v -54.73508 h 23.0691 z"
           stroke-linecap="round"
           id="path65" /><path
           style="fill:#616870;fill-opacity:1;fill-rule:nonzero;stroke:none;stroke-width:16.4413;stroke-linecap:butt;stroke-linejoin:miter;stroke-miterlimit:4;stroke-dasharray:none;stroke-dashoffset:0"
           d="m 1589.3987,189.99159 c -3.384,-4.64619 -7.8439,-6.96928 -13.381,-6.96928 -1.9482,0 -3.8451,0.51125 -5.6893,1.53041 -1.8472,1.01916 -2.7693,2.77772 -2.7693,5.26901 0,2.03999 0.9477,3.54376 2.8461,4.50464 1.8955,0.9642 4.3062,1.81351 7.2277,2.54957 2.9215,0.73939 6.0479,1.53041 9.3807,2.37971 3.3313,0.85097 6.4592,2.18321 9.3822,3.99506 2.9215,1.81351 5.3307,4.27815 7.2277,7.39393 1.8954,3.11744 2.8461,7.28236 2.8461,12.49308 0,5.32896 -1.0532,9.71869 -3.1535,13.17419 -2.1019,3.45883 -4.7928,6.23322 -8.0744,8.32983 -3.2831,2.09828 -6.973,3.56874 -11.0728,4.41971 -4.1012,0.8493 -8.1512,1.27395 -12.15,1.27395 -5.2282,0 -10.5107,-0.82266 -15.8399,-2.46464 -5.3322,-1.64032 -9.8433,-4.55959 -13.5332,-8.75282 L 1556.64,221.9487 c 2.1531,2.94758 4.5382,5.18408 7.1508,6.71449 2.6142,1.53041 5.6652,2.29478 9.1517,2.29478 2.6654,0 5.0746,-0.42465 7.2277,-1.27562 2.153,-0.8493 3.2303,-2.40636 3.2303,-4.6745 0,-2.15156 -0.9492,-3.76524 -2.8461,-4.84435 -1.8985,-1.07579 -4.3062,-1.98171 -7.2277,-2.71944 -2.9215,-0.73606 -6.0509,-1.53041 -9.3822,-2.37971 -3.3313,-0.85097 -6.4592,-2.12493 -9.3807,-3.8252 -2.923,-1.6986 -5.3322,-4.10663 -7.2292,-7.22407 -1.8984,-3.11577 -2.8446,-7.27902 -2.8446,-12.49308 0,-4.871 0.8965,-9.06423 2.691,-12.57968 1.7929,-3.51045 4.1524,-6.40141 7.0754,-8.66788 2.9215,-2.26648 6.28,-3.93677 10.0723,-5.01589 3.7924,-1.07578 7.6375,-1.61367 11.5353,-1.61367 4.9209,0 9.893,0.79435 14.9179,2.37971 5.0233,1.5887 9.2782,4.41971 12.7662,8.49803 z"
           stroke-linecap="round"
           id="path68" /><path
           style="fill:#616870;fill-opacity:1;fill-rule:nonzero;stroke:none;stroke-width:16.4413;stroke-linecap:butt;stroke-linejoin:miter;stroke-miterlimit:4;stroke-dasharray:none;stroke-dashoffset:0"
           d="m 1668.41,186.20025 h -20.3013 v 27.5374 c 0,2.26814 0.101,4.33478 0.3074,6.20491 0.2049,1.86847 0.666,3.48381 1.3846,4.84436 0.7157,1.35888 1.8186,2.40802 3.3073,3.14408 1.4841,0.73773 3.4608,1.10576 5.9198,1.10576 1.231,0 2.8461,-0.14155 4.844,-0.42631 1.9994,-0.28144 3.5106,-0.93424 4.5382,-1.95507 v 21.24923 c -2.5644,1.01916 -5.2298,1.69861 -7.9976,2.03833 -2.7693,0.34138 -5.4859,0.51125 -8.1512,0.51125 -3.8978,0 -7.4853,-0.45463 -10.7654,-1.36055 -3.2831,-0.90593 -6.1518,-2.35141 -8.6123,-4.33312 -2.4604,-1.9817 -4.383,-4.56125 -5.7676,-7.73531 -1.3832,-3.17074 -2.0763,-7.0259 -2.0763,-11.55885 v -39.26611 h -14.7641 v -20.39826 h 14.7641 v -24.47658 h 23.0691 v 24.47658 h 20.3013 z"
           stroke-linecap="round"
           id="path71" /><path
           style="fill:#616870;fill-opacity:1;fill-rule:nonzero;stroke:none;stroke-width:16.4413;stroke-linecap:butt;stroke-linejoin:miter;stroke-miterlimit:4;stroke-dasharray:none;stroke-dashoffset:0"
           d="m 1720.5038,212.09012 c -1.7448,0 -3.9219,0.0849 -6.5361,0.25479 -2.6141,0.16986 -5.1288,0.6528 -7.5365,1.44548 -2.4092,0.79435 -4.4598,1.98337 -6.1518,3.5704 -1.6921,1.58704 -2.5373,3.79689 -2.5373,6.6279 0,3.05915 1.1782,5.32896 3.5362,6.79942 2.3595,1.47379 4.8184,2.20985 7.3843,2.20985 2.2541,0 4.4328,-0.33972 6.5361,-1.01916 2.0988,-0.68111 3.9702,-1.64199 5.6125,-2.8893 1.6393,-1.24731 2.9456,-2.83267 3.9219,-4.75942 0.9733,-1.92676 1.46,-4.19157 1.46,-6.79942 v -5.44054 z m 5.6893,25.83713 h -0.3074 c -2.5629,4.41971 -5.974,7.59377 -10.2274,9.51885 -4.255,1.92676 -8.7419,2.89097 -13.4549,2.89097 -3.488,0 -6.8449,-0.53956 -10.0753,-1.61535 -3.2303,-1.07578 -6.0735,-2.69112 -8.5354,-4.84435 -2.4605,-2.15157 -4.4101,-4.81605 -5.8445,-7.98845 -1.4359,-3.17239 -2.1531,-6.85604 -2.1531,-11.04926 0,-4.7611 0.794,-8.78113 2.3836,-12.0701 1.5896,-3.28397 3.7426,-6.00507 6.4592,-8.1583 2.7166,-2.15157 5.8189,-3.8252 9.3054,-5.01422 3.485,-1.19069 7.0981,-2.06664 10.8437,-2.63451 3.7412,-0.5662 7.4808,-0.90592 11.2264,-1.02082 3.7412,-0.11158 7.2021,-0.16986 10.3797,-0.16986 0,-4.53129 -1.46,-8.13 -4.383,-10.79448 -2.9215,-2.65948 -6.3809,-3.99339 -10.3796,-3.99339 -3.7954,0 -7.2563,0.87928 -10.3812,2.63451 -3.1294,1.75689 -5.9213,4.16491 -8.3833,7.22407 L 1680.3623,176.904 c 4.3077,-4.41971 9.3295,-7.73366 15.073,-9.94351 5.7406,-2.20985 11.6875,-3.31561 17.8394,-3.31561 6.7665,0 12.3278,0.9359 16.6867,2.80436 4.3573,1.87013 7.8438,4.61955 10.4595,8.2449 2.6126,3.62869 4.4327,8.07504 5.4587,13.34405 1.0231,5.26901 1.5369,11.36234 1.5369,18.27334 v 41.98554 h -21.2234 z"
           stroke-linecap="round"
           id="path73" /><path
           style="fill:#616870;fill-opacity:1;fill-rule:nonzero;stroke:none;stroke-width:16.4413;stroke-linecap:butt;stroke-linejoin:miter;stroke-miterlimit:4;stroke-dasharray:none;stroke-dashoffset:0"
           d="m 1811.863,192.37297 c -1.13,-1.81185 -2.7181,-3.31395 -4.7672,-4.50464 -2.0521,-1.18902 -4.2564,-1.7852 -6.6144,-1.7852 -5.8445,0 -10.3797,1.92842 -13.61,5.78026 -3.2289,3.8535 -4.8456,8.8977 -4.8456,15.12758 0,6.23322 1.6167,11.27742 4.8456,15.12925 3.2303,3.85351 7.7655,5.77859 13.61,5.77859 2.5614,0 4.7672,-0.62115 6.6144,-1.87013 1.8457,-1.24564 3.4323,-2.71943 4.7672,-4.41804 l 15.2252,17.67716 c -3.589,4.07999 -7.8198,6.94264 -12.6879,8.58462 -4.8712,1.64199 -9.5118,2.46465 -13.9189,2.46465 -5.742,0 -11.1496,-1.02083 -16.2242,-3.05916 -5.0745,-2.03999 -9.4846,-4.95593 -13.2273,-8.75448 -3.7441,-3.79522 -6.6897,-8.35648 -8.8428,-13.68377 -2.1516,-5.32563 -3.2289,-11.27408 -3.2289,-17.84869 0,-6.56961 1.0773,-12.51972 3.2289,-17.84702 2.1531,-5.32563 5.0987,-9.88522 8.8428,-13.68377 3.7427,-3.79688 8.1528,-6.71449 13.2273,-8.75448 5.0746,-2.03999 10.4822,-3.05916 16.2242,-3.05916 4.4071,0 9.0477,0.82266 13.9189,2.46298 4.8681,1.64532 9.0989,4.50631 12.6879,8.58463 z"
           stroke-linecap="round"
           id="path76" /><path
           style="fill:#616870;fill-opacity:1;fill-rule:nonzero;stroke:none;stroke-width:16.4413;stroke-linecap:butt;stroke-linejoin:miter;stroke-miterlimit:4;stroke-dasharray:none;stroke-dashoffset:0"
           d="m 1834.691,119.98793 h 23.0691 v 78.53222 l 25.5295,-32.63655 h 28.2973 l -29.6819,37.22611 30.4519,45.38443 h -29.0673 l -25.2221,-41.81402 h -0.3074 v 41.81402 h -23.0691 z"
           stroke-linecap="round"
           id="path79" /></g></g></g></svg>
