<?xml version="1.0" encoding="UTF-8" standalone="no"?>
<svg
   version="1.1"
   x="0"
   y="0"
   width="105"
   height="42"
   viewBox="0 0 105 42"
   id="svg9"
   sodipodi:docname="harvester-42.svg"
   inkscape:version="1.4.3 (0d15f75, 2025-12-25)"
   xmlns:inkscape="http://www.inkscape.org/namespaces/inkscape"
   xmlns:sodipodi="http://sodipodi.sourceforge.net/DTD/sodipodi-0.dtd"
   xmlns="http://www.w3.org/2000/svg"
   xmlns:svg="http://www.w3.org/2000/svg">
  <defs
     id="defs13" />
  <sodipodi:namedview
     id="namedview11"
     pagecolor="#ffffff"
     bordercolor="#666666"
     borderopacity="1.0"
     inkscape:pageshadow="2"
     inkscape:pageopacity="0.0"
     inkscape:pagecheckerboard="0"
     showgrid="false"
     inkscape:zoom="6.1887475"
     inkscape:cx="56.877421"
     inkscape:cy="10.179766"
     inkscape:window-width="1440"
     inkscape:window-height="783"
     inkscape:window-x="0"
     inkscape:window-y="30"
     inkscape:window-maximized="0"
     inkscape:current-layer="g24"
     inkscape:showpageshadow="2"
     inkscape:deskcolor="#d1d1d1" />
  <g
     id="g20"
     style="display:inline">
    <g
       id="g19">
      <g
         id="g26">
        <g
           id="g25">
          <g
             id="g24">
            <g
               id="g1"
               transform="translate(0.12465444)">
              <path
                 d="m 46.114444,17.598635 c -0.242184,0.163965 -0.566288,0.163965 -0.80907,0 -0.397054,-0.268592 -0.435328,-0.830142 -0.114761,-1.154773 0.284635,-0.300265 0.754053,-0.300265 1.03869,-6.08e-4 0.319921,0.325239 0.28105,0.886789 -0.114775,1.155381 m 1.157645,-1.636536 c 0.461635,2.000142 -1.3036,3.798696 -3.267371,3.3285 -0.999824,-0.238747 -1.793341,-1.046969 -2.02835,-2.064709 -0.460441,-1.99893 1.304196,-3.796262 3.267362,-3.327895 0.999229,0.238143 1.79335,1.045753 2.028355,2.064104 M 34.049614,26.71929 c 0.224245,0.328285 0.410818,0.645603 0.515458,0.962928 0.07413,0.225351 0.169232,0.522577 0.387498,0.641947 0.01162,0.0046 0.02271,0.01571 0.03587,0.01707 0.400641,0.148571 1.430964,0.123425 1.430964,0.123425 h 1.895003 c 0.162055,0.0016 1.58585,-0.0015 1.549968,-0.163963 -0.17162,-0.775339 -1.051847,-0.914203 -1.722184,-1.319839 -0.617715,-0.375185 -1.203736,-0.800297 -1.469241,-1.531785 -0.13875,-0.377612 -0.05681,-1.248566 0.181783,-1.565888 0.174013,-0.229611 0.43055,-0.381884 0.706219,-0.443399 0.305568,-0.06665 0.622501,-0.0064 0.928068,0.02274 0.376728,0.0391 0.748675,0.108596 1.124206,0.155819 0.724748,0.09636 1.45668,0.134578 2.187409,0.114237 1.206127,-0.03431 2.415249,-0.229616 3.558595,-0.626721 0.798292,-0.272858 1.584638,-0.641945 2.263348,-1.15538 0.771397,-0.584091 0.568686,-0.52928 -0.213477,-0.447661 -0.936434,0.09745 -1.881244,0.111882 -2.820679,0.05549 -0.876639,-0.05154 -1.741317,-0.157189 -2.534239,-0.571833 -0.62429,-0.328278 -1.160683,-0.657173 -1.655805,-1.165733 -0.07412,-0.07671 -0.120239,-0.300878 0.01519,-0.443999 0.131537,-0.138937 0.410217,-0.05835 0.495727,0.01675 0.863487,0.735137 2.151532,1.340542 3.485034,1.406325 0.721164,0.03668 1.4226,0.05 2.144362,0.01856 0.360586,-0.01773 0.904743,-0.01602 1.266522,-0.01856 0.186571,-0.002 0.695453,0.05261 0.790536,-0.14905 0.02868,-0.05834 0.02632,-0.125879 0.02387,-0.191855 -0.10553,-2.939591 -0.319004,-6.254698 -3.338812,-7.659796 -2.253192,-1.049407 -5.631181,-2.674986 -7.057966,-3.3492146 -0.330683,-0.160185 -0.717581,0.0932 -0.717581,0.4683664 0,0.9818032 0.04905,2.3923832 0.04965,3.6762792 C 36.871457,12.884525 35.720343,12.436868 34.843104,12.026361 33.846869,11.56104 32.818338,11.166371 31.771878,10.834433 29.665193,10.169951 27.484957,9.7606628 25.292152,9.5389645 22.805154,9.2862068 20.276293,9.4074094 17.827563,9.9226718 13.794776,10.774136 9.8307624,12.749315 6.821721,15.638078 c -1.847163,1.772366 -3.29667,4.292044 -3.394739,6.849481 -0.139933,3.619637 0.855711,5.563142 2.685532,7.566335 2.9181502,3.192695 9.198744,3.639737 11.742556,-0.146163 1.144533,-1.704141 1.392699,-4.015526 0.562105,-5.899342 -0.830594,-1.882595 -2.73995,-3.24324 -4.764117,-3.312667 -1.570897,-0.05308 -3.244644,0.760715 -3.8468116,2.240109 -0.4592502,1.129804 -0.1979332,2.525773 0.6386476,3.402821 0.325895,0.34229 0.767201,0.622461 1.24918,0.512822 0.284036,-0.06467 0.521439,-0.28199 0.564491,-0.575562 0.0634,-0.433032 -0.308558,-0.713809 -0.537586,-1.046351 -0.413204,-0.599922 -0.329487,-1.500723 0.187768,-2.010502 0.436528,-0.430603 1.082944,-0.557902 1.690492,-0.556075 0.56569,0.0012 1.143937,0.104208 1.631891,0.394669 0.685882,0.411121 1.141548,1.163919 1.299412,1.959341 0.470612,2.37716 -1.426783,4.308481 -3.999298,4.460142 -1.316157,0.07907 -2.6556364,-0.272857 -3.6829648,-1.115185 -2.6018192,-2.131709 -3.2392652,-6.488915 -0.265506,-8.81492 2.8230648,-2.207832 6.3870358,-1.638972 8.4883408,-0.491505 1.681521,0.917849 2.934888,2.419794 3.884487,4.080082 0.476585,0.835028 0.882616,1.707805 1.259343,2.593988 0.362377,0.852069 0.701431,1.710846 1.426784,2.335136 0.480181,0.414156 1.072776,0.399537 1.701851,0.399537 h 3.590878 c 0.487952,0 0.368951,-0.331328 0.158468,-0.550582 -0.475996,-0.495779 -1.160082,-0.607843 -1.793346,-0.785077 -1.44771,-0.405642 -1.30001,-2.357673 -0.899361,-2.357673 1.294032,0 1.334697,0.03954 2.468465,0.02513 1.636066,-0.02315 2.1312,-0.120164 3.410875,0.361778 0.684093,0.258236 1.341274,0.939167 1.770022,1.561628"
                 fill="#30ba78"
                 id="path3"
                 style="fill:#616870;fill-opacity:1;stroke-width:0.878448" />
              <text
                 xml:space="preserve"
                 style="font-size:16.4254px;writing-mode:lr-tb;direction:ltr;fill:#616870;fill-opacity:1;fill-rule:evenodd;stroke-width:0.878;stroke-dasharray:none;stroke-opacity:0.496255"
                 x="195.81438"
                 y="86.498276"
                 id="text35"
                 transform="scale(1.1188967,0.89373755)"><tspan
                   sodipodi:role="line"
                   id="tspan35"
                   x="195.81438"
                   y="86.498276"
                   style="fill:#616870;fill-opacity:1;stroke-width:0.878" /></text>
              <text
                 xml:space="preserve"
                 style="font-size:32.8507px;font-family:Sans;-inkscape-font-specification:'Sans, Normal';writing-mode:lr-tb;direction:ltr;fill:#616870;fill-opacity:1;stroke-width:0.878;stroke-opacity:0.496255"
                 x="165.66675"
                 y="60.119102"
                 id="text2"
                 transform="scale(1.1188967,0.89373755)"><tspan
                   sodipodi:role="line"
                   id="tspan2"
                   x="165.66675"
                   y="60.119102"
                   style="fill:#616870;fill-opacity:1;stroke-width:0.878" /></text>
              <text
                 xml:space="preserve"
                 style="font-size:32.8507px;font-family:Sans;-inkscape-font-specification:'Sans, Normal';writing-mode:lr-tb;direction:ltr;fill:#616870;fill-opacity:1;stroke-width:0.878;stroke-opacity:0.496255"
                 x="364.9238"
                 y="202.84932"
                 id="text3"
                 transform="scale(1.1188967,0.89373755)"><tspan
                   sodipodi:role="line"
                   id="tspan3"
                   x="364.9238"
                   y="202.84932"
                   style="fill:#616870;fill-opacity:1;stroke-width:0.878" /></text>
              <text
                 xml:space="preserve"
                 style="font-size:16.4254px;writing-mode:lr-tb;direction:ltr;fill:#616870;fill-opacity:1;fill-rule:evenodd;stroke-width:0.878;stroke-dasharray:none;stroke-opacity:0.496255"
                 x="195.81438"
                 y="86.498276"
                 id="text4"
                 transform="scale(1.1188967,0.89373755)"><tspan
                   sodipodi:role="line"
                   id="tspan4"
                   x="195.81438"
                   y="86.498276"
                   style="fill:#616870;fill-opacity:1;stroke-width:0.878" /></text>
              <text
                 xml:space="preserve"
                 style="font-style:normal;font-variant:normal;font-weight:normal;font-stretch:normal;font-size:6.9103px;font-family:Arial;-inkscape-font-specification:'Arial, Normal';font-variant-ligatures:normal;font-variant-caps:normal;font-variant-numeric:normal;font-variant-east-asian:normal;writing-mode:lr-tb;direction:ltr;fill:#616870;fill-opacity:1;stroke-width:0.878002;stroke-opacity:0.496255"
                 x="63.154926"
                 y="19.795202"
                 id="text5"
                 transform="scale(0.82485406,1.2123357)"><tspan
                   sodipodi:role="line"
                   id="tspan1"
                   x="63.154926"
                   y="19.795202"
                   style="font-style:normal;font-variant:normal;font-weight:normal;font-stretch:normal;font-size:6.9103px;font-family:Arial;-inkscape-font-specification:'Arial, Normal';font-variant-ligatures:normal;font-variant-caps:normal;font-variant-numeric:normal;font-variant-east-asian:normal;stroke-width:0.878002">SUSE Virtualization</tspan></text>
              <text
                 xml:space="preserve"
                 style="font-size:32.8507px;font-family:Sans;-inkscape-font-specification:'Sans, Normal';writing-mode:lr-tb;direction:ltr;fill:#616870;fill-opacity:1;stroke-width:0.878;stroke-opacity:0.496255"
                 x="165.66675"
                 y="60.119102"
                 id="text6"
                 transform="scale(1.1188967,0.89373755)"><tspan
                   sodipodi:role="line"
                   id="tspan6"
                   x="165.66675"
                   y="60.119102"
                   style="fill:#616870;fill-opacity:1;stroke-width:0.878" /></text>
              <text
                 xml:space="preserve"
                 style="font-size:32.8507px;font-family:Sans;-inkscape-font-specification:'Sans, Normal';writing-mode:lr-tb;direction:ltr;fill:#616870;fill-opacity:1;stroke-width:0.878;stroke-opacity:0.496255"
                 x="364.9238"
                 y="202.84932"
                 id="text7"
                 transform="scale(1.1188967,0.89373755)"><tspan
                   sodipodi:role="line"
                   id="tspan7"
                   x="364.9238"
                   y="202.84932"
                   style="fill:#616870;fill-opacity:1;stroke-width:0.878" /></text>
            </g>
          </g>
        </g>
      </g>
    </g>
  </g>
</svg>
