<?xml version="1.0" encoding="UTF-8" standalone="no"?>
<svg
   version="1.1"
   x="0"
   y="0"
   width="192"
   height="128"
   viewBox="0 0 192 128"
   id="svg9"
   sodipodi:docname="harvester-128-disabled.svg"
   inkscape:version="1.4.3 (0d15f75, 2025-12-25)"
   xmlns:inkscape="http://www.inkscape.org/namespaces/inkscape"
   xmlns:sodipodi="http://sodipodi.sourceforge.net/DTD/sodipodi-0.dtd"
   xmlns="http://www.w3.org/2000/svg"
   xmlns:svg="http://www.w3.org/2000/svg">
  <defs
     id="defs13" />
  <sodipodi:namedview
     id="namedview11"
     pagecolor="#ffffff"
     bordercolor="#666666"
     borderopacity="1.0"
     inkscape:pageshadow="2"
     inkscape:pageopacity="0.0"
     inkscape:pagecheckerboard="true"
     showgrid="false"
     inkscape:zoom="3.5101841"
     inkscape:cx="87.4598"
     inkscape:cy="66.66317"
     inkscape:window-width="1440"
     inkscape:window-height="783"
     inkscape:window-x="0"
     inkscape:window-y="30"
     inkscape:window-maximized="0"
     inkscape:current-layer="g26"
     inkscape:showpageshadow="2"
     inkscape:deskcolor="#d1d1d1" />
  <g
     id="g20"
     style="display:inline">
    <g
       id="g19">
      <g
         id="g26">
        <g
           id="g1"
           transform="translate(0,-0.00224768)">
          <g
             id="g25">
            <path
               d="m 153.79126,40.124573 c -0.69645,0.522603 -1.62847,0.522603 -2.32661,0 -1.14179,-0.856759 -1.25184,-2.647987 -0.33016,-3.683483 0.81851,-0.957782 2.16841,-0.957782 2.98693,-0.002 0.91996,1.037441 0.80815,2.828669 -0.33016,3.685428 m 3.32907,-5.220208 c 1.32752,6.380037 -3.74866,12.11702 -9.39577,10.617206 -2.87512,-0.761564 -5.15698,-3.339613 -5.83279,-6.585969 -1.32407,-6.376155 3.75038,-12.109258 9.39578,-10.615273 2.8734,0.759623 5.157,3.335732 5.83278,6.584036 m -38.0233,34.313103 c 0.64487,1.047151 1.18138,2.059335 1.4823,3.071519 0.21324,0.718822 0.48663,1.666885 1.11431,2.047672 0.0346,0.02147 0.0655,0.04081 0.10307,0.05246 1.1521,0.474027 4.11493,0.39437 4.11493,0.39437 h 5.44932 c 0.46604,0.0081 4.56035,-0.0061 4.45714,-0.522602 -0.49351,-2.473133 -3.02471,-2.916089 -4.95235,-4.209967 -1.77633,-1.196743 -3.46151,-2.552791 -4.22502,-4.886053 -0.39891,-1.204514 -0.16335,-3.982667 0.52275,-4.994843 0.50042,-0.732424 1.2381,-1.218115 2.03082,-1.414334 0.87871,-0.211761 1.79009,-0.02914 2.66881,0.07188 1.08329,0.124337 2.1529,0.345809 3.2328,0.497346 2.08411,0.306957 4.18889,0.42935 6.2902,0.365242 3.46839,-0.108789 6.94537,-0.732422 10.23321,-1.999106 2.29562,-0.870358 4.55687,-2.047673 6.50859,-3.685424 2.21824,-1.863111 1.63532,-1.688261 -0.61389,-1.427932 -2.69284,0.31084 -5.40978,0.357468 -8.11123,0.176797 -2.52091,-0.165141 -5.00741,-0.501234 -7.28756,-1.824257 -1.79527,-1.04715 -3.33772,-2.096242 -4.76151,-3.718451 -0.21325,-0.24479 -0.34564,-0.959727 0.0447,-1.416275 0.3783,-0.442952 1.17961,-0.186503 1.42553,0.0505 2.48306,2.344917 6.18701,4.276029 10.02169,4.485845 2.07381,0.11658 4.09088,0.159303 6.16641,0.05829 1.03692,-0.05441 2.6017,-0.04663 3.64205,-0.05829 0.53651,-0.0077 1.99989,0.167087 2.27328,-0.475975 0.0827,-0.186505 0.0756,-0.402154 0.0688,-0.611972 -0.30439,-9.375783 -0.91828,-19.950251 -9.60214,-24.43221 -6.47938,-3.347384 -16.19327,-8.53262 -20.29618,-10.683261 -0.95091,-0.510949 -2.06348,0.297242 -2.06348,1.493986 0,3.131737 0.14099,7.631181 0.14277,11.726525 -1.96546,-2.261367 -5.27563,-3.689297 -7.79826,-4.998724 -2.8649,-1.48428 -5.82257,-2.74319 -8.83182,-3.802 -6.05806,-2.119554 -12.32764,-3.425094 -18.633345,-4.13226 -7.151705,-0.806245 -14.423797,-0.419635 -21.465459,1.223942 -11.596832,2.715987 -22.995909,9.016371 -31.648822,18.230904 -5.311772,5.653448 -9.480028,13.690663 -9.762038,21.848332 -0.40238,11.545847 2.460713,17.745216 7.722623,24.134963 8.391535,10.184031 26.452255,11.610021 33.767335,-0.466207 3.291266,-5.435854 4.004895,-12.808643 1.616401,-18.817615 -2.388489,-6.005082 -7.879099,-10.34522 -13.69987,-10.566695 -4.517328,-0.169011 -9.330424,2.426514 -11.062038,7.145489 -1.320638,3.60383 -0.569182,8.056645 1.836511,10.854224 0.937168,1.091835 2.206214,1.985508 3.592199,1.635809 0.816797,-0.20592 1.499469,-0.8995 1.623277,-1.835914 0.18226,-1.381304 -0.887302,-2.276914 -1.545898,-3.337668 -1.188231,-1.913624 -0.947488,-4.786972 0.539947,-6.413064 1.255292,-1.373535 3.114153,-1.779572 4.861245,-1.773744 1.626718,0.004 3.289548,0.332209 4.69272,1.258912 1.972358,1.311364 3.282676,3.71262 3.736643,6.249871 1.353309,7.582608 -4.10291,13.743123 -11.500529,14.226871 -3.7848,0.252544 -7.636657,-0.870374 -10.59089,-3.557215 -7.48188,-6.799674 -9.314948,-20.698211 -0.763495,-28.117632 8.118125,-7.042517 18.366809,-5.227978 24.409402,-1.567808 4.835445,2.927745 8.439678,7.718603 11.170368,13.014581 1.370505,2.663529 2.538101,5.447508 3.621429,8.274234 1.042062,2.717926 2.017067,5.457223 4.102912,7.448554 1.38082,1.321085 3.084921,1.274451 4.893906,1.274451 h 10.326076 c 1.40318,0 1.06098,-1.056862 0.45572,-1.756255 -1.3688,-1.581405 -3.33602,-1.938874 -5.157068,-2.504222 -4.163081,-1.29388 -3.738337,-7.520443 -2.586223,-7.520443 3.721161,0 3.838091,0.126283 7.098431,0.07963 4.70472,-0.07381 6.12855,-0.382724 9.80843,1.154007 1.96719,0.823728 3.857,2.99574 5.08993,4.981242"
               fill="#30ba78"
               id="path3"
               style="fill:#a4aab5;fill-opacity:1;stroke-width:0.878445" />
            <text
               xml:space="preserve"
               style="font-size:12.4164px;writing-mode:lr-tb;direction:ltr;fill:#a4aab5;fill-opacity:1;fill-rule:evenodd;stroke-width:0.878;stroke-dasharray:none;stroke-opacity:0.496255"
               x="153.73877"
               y="68.792564"
               id="text35"
               transform="scale(1.0491202,0.95317962)"><tspan
                 sodipodi:role="line"
                 id="tspan35"
                 x="153.73877"
                 y="68.792564"
                 style="fill:#a4aab5;fill-opacity:1;stroke-width:0.878" /></text>
            <text
               xml:space="preserve"
               style="font-style:normal;font-variant:normal;font-weight:normal;font-stretch:normal;font-size:18.6667px;font-family:sans-serif;-inkscape-font-specification:'sans-serif, Normal';font-variant-ligatures:normal;font-variant-caps:normal;font-variant-numeric:normal;font-variant-east-asian:normal;writing-mode:lr-tb;direction:ltr;fill:#a4aab5;fill-opacity:1;stroke-width:0.878;stroke-opacity:0.496255"
               x="5.4190583"
               y="114.2826"
               id="text1"
               transform="scale(1.0046745,0.99534725)"><tspan
                 sodipodi:role="line"
                 id="tspan1"
                 x="5.4190583"
                 y="114.2826"
                 style="font-style:normal;font-variant:normal;font-weight:normal;font-stretch:normal;font-size:18.6667px;font-family:sans-serif;-inkscape-font-specification:'sans-serif, Normal';font-variant-ligatures:normal;font-variant-caps:normal;font-variant-numeric:normal;font-variant-east-asian:normal;fill:#a4aab5;fill-opacity:1;stroke-width:0.878">SUSE Virtualization</tspan></text>
            <text
               xml:space="preserve"
               style="font-size:24.8327px;font-family:Sans;-inkscape-font-specification:'Sans, Normal';writing-mode:lr-tb;direction:ltr;fill:#a4aab5;fill-opacity:1;stroke-width:0.878;stroke-opacity:0.496255"
               x="130.94933"
               y="48.851826"
               id="text2"
               transform="scale(1.0491202,0.95317962)"><tspan
                 sodipodi:role="line"
                 id="tspan2"
                 x="130.94933"
                 y="48.851826"
                 style="fill:#a4aab5;fill-opacity:1;stroke-width:0.878" /></text>
            <text
               xml:space="preserve"
               style="font-size:24.8327px;font-family:Sans;-inkscape-font-specification:'Sans, Normal';writing-mode:lr-tb;direction:ltr;fill:#a4aab5;fill-opacity:1;stroke-width:0.878;stroke-opacity:0.496255"
               x="281.57315"
               y="156.74551"
               id="text3"
               transform="scale(1.0491202,0.95317962)"><tspan
                 sodipodi:role="line"
                 id="tspan3"
                 x="281.57315"
                 y="156.74551"
                 style="fill:#a4aab5;fill-opacity:1;stroke-width:0.878" /></text>
          </g>
        </g>
      </g>
    </g>
  </g>
</svg>
