<?xml version="1.0" encoding="UTF-8" standalone="no"?>
<svg
   version="1.1"
   x="0"
   y="0"
   width="80"
   height="32"
   viewBox="0 0 80 32"
   id="svg9"
   sodipodi:docname="harvester-32.svg"
   inkscape:version="1.4.3 (0d15f75, 2025-12-25)"
   xmlns:inkscape="http://www.inkscape.org/namespaces/inkscape"
   xmlns:sodipodi="http://sodipodi.sourceforge.net/DTD/sodipodi-0.dtd"
   xmlns="http://www.w3.org/2000/svg"
   xmlns:svg="http://www.w3.org/2000/svg">
  <defs
     id="defs13" />
  <sodipodi:namedview
     id="namedview11"
     pagecolor="#ffffff"
     bordercolor="#666666"
     borderopacity="1.0"
     inkscape:pageshadow="2"
     inkscape:pageopacity="0.0"
     inkscape:pagecheckerboard="0"
     showgrid="false"
     inkscape:zoom="8.6715725"
     inkscape:cx="47.972845"
     inkscape:cy="18.566413"
     inkscape:window-width="1440"
     inkscape:window-height="783"
     inkscape:window-x="0"
     inkscape:window-y="30"
     inkscape:window-maximized="0"
     inkscape:current-layer="g23"
     inkscape:showpageshadow="2"
     inkscape:deskcolor="#d1d1d1" />
  <g
     id="g20"
     style="display:inline">
    <g
       id="g19">
      <g
         id="g26">
        <g
           id="g25">
          <g
             id="g24">
            <g
               id="g23">
              <g
                 id="g1"
                 transform="matrix(1.2274473,0,0,1,-9.0978917,8.6198864e-7)"
                 style="stroke-width:0.902607">
                <path
                   d="m 52.136488,7.4118984 c -0.151453,0.1134828 -0.354138,0.1134828 -0.505966,0 -0.248304,-0.1860443 -0.27224,-0.5750066 -0.07177,-0.7998637 0.178002,-0.2079807 0.471561,-0.2079807 0.649563,-4.224e-4 0.200068,0.2252795 0.175759,0.6142418 -0.07178,0.8002861 M 52.860488,6.2783372 C 53.14918,7.6637539 52.045259,8.9095316 50.81718,8.583849 50.191922,8.4184772 49.695682,7.8586573 49.548715,7.1537149 c -0.287946,-1.3845737 0.815603,-2.6295082 2.043304,-2.305092 0.624885,0.1649512 1.121502,0.7243499 1.268467,1.4297143 m -8.268959,7.4510448 c 0.140235,0.22739 0.256913,0.447182 0.322351,0.666978 0.04636,0.156092 0.105832,0.361964 0.242329,0.444649 0.0073,0.0042 0.01421,0.0096 0.02244,0.01138 0.250548,0.102933 0.894879,0.08559 0.894879,0.08559 h 1.185073 c 0.101344,0.0015 0.991739,-0.0011 0.969299,-0.113483 -0.107325,-0.537039 -0.65779,-0.633225 -1.076998,-0.914191 -0.386299,-0.259873 -0.752777,-0.554333 -0.918815,-1.060998 -0.08677,-0.26156 -0.03553,-0.864832 0.113681,-1.084624 0.108822,-0.159046 0.269252,-0.264512 0.441646,-0.307124 0.191093,-0.04604 0.389292,-0.0057 0.580384,0.01565 0.235593,0.02703 0.468197,0.07513 0.703042,0.107994 0.453234,0.06669 0.91096,0.09323 1.367935,0.07925 0.754274,-0.02367 1.510419,-0.159047 2.22543,-0.434101 0.499227,-0.189001 0.990982,-0.444651 1.415425,-0.800288 0.482407,-0.404575 0.355638,-0.366606 -0.133501,-0.310074 -0.585615,0.0675 -1.176469,0.07762 -1.763961,0.03839 -0.548222,-0.0358 -1.088965,-0.108798 -1.584832,-0.3960834 -0.390411,-0.2273865 -0.725854,-0.4551954 -1.035488,-0.8074562 -0.04635,-0.053156 -0.07519,-0.2084041 0.0095,-0.307542 0.08226,-0.096194 0.256537,-0.040502 0.310012,0.010993 0.539997,0.5091958 1.3455,0.9285336 2.179428,0.974095 0.450993,0.025315 0.889648,0.03459 1.341015,0.012664 0.225499,-0.011819 0.565797,-0.010066 0.792042,-0.012664 0.116675,-0.00166 0.434914,0.036286 0.494376,-0.1033592 0.01794,-0.040502 0.01646,-0.087319 0.01493,-0.1328887 -0.066,-2.0359282 -0.1995,-4.3321603 -2.08799,-5.3054111 -1.409074,-0.72688 -3.521559,-1.8528472 -4.413825,-2.319856 -0.206798,-0.1109515 -0.448752,0.064547 -0.448752,0.3244169 0,0.6800525 0.03067,1.6571003 0.03105,2.5463995 C 46.356223,4.1466367 45.636353,3.8365634 45.087757,3.5522234 44.464743,3.2299165 43.821534,2.9565455 43.16711,2.7266262 41.849658,2.2663683 40.486208,1.9828723 39.1149,1.8293118 37.559612,1.6542372 35.978143,1.7381887 34.446787,2.0950895 c -2.521975,0.5897724 -5.000941,1.9578929 -6.882699,3.9588169 -1.155155,1.2276375 -2.06163,2.9729091 -2.122959,4.7443366 -0.08751,2.507168 0.535134,3.85335 1.679445,5.240875 1.824916,2.211439 5.752597,2.521088 7.343415,-0.10125 0.715754,-1.180389 0.870948,-2.781381 0.351522,-4.08622 -0.519427,-1.303994 -1.713476,-2.2464538 -2.979325,-2.2945467 -0.982388,-0.036698 -2.029096,0.5269137 -2.405672,1.5516347 -0.2872,0.782568 -0.123781,1.74949 0.399389,2.356982 0.203806,0.237091 0.479784,0.431151 0.781198,0.355213 0.177627,-0.04474 0.326091,-0.195325 0.353015,-0.398666 0.03964,-0.299944 -0.192963,-0.494427 -0.336189,-0.724764 -0.258405,-0.415542 -0.206051,-1.039486 0.117424,-1.392591 0.27299,-0.298261 0.677238,-0.386434 1.057178,-0.385167 0.353765,8.67e-4 0.715382,0.07215 1.020533,0.273371 0.428928,0.284765 0.713886,0.806193 0.81261,1.357153 0.294305,1.646552 -0.892264,2.984297 -2.501032,3.089345 -0.823082,0.05482 -1.66075,-0.189 -2.303208,-0.772442 -1.627093,-1.476542 -2.025731,-4.494592 -0.166039,-6.1057101 1.765455,-1.5292734 3.994246,-1.1352495 5.308335,-0.3404478 1.051569,0.6357558 1.835384,1.6760849 2.429232,2.8260999 0.298042,0.578385 0.551961,1.18292 0.787554,1.796739 0.226618,0.590195 0.438652,1.185031 0.892263,1.617447 0.300291,0.28687 0.670881,0.276745 1.064283,0.276745 h 2.24562 c 0.305149,0 0.230729,-0.229496 0.0991,-0.381368 -0.297672,-0.343402 -0.725477,-0.421026 -1.1215,-0.543789 -0.905351,-0.280966 -0.812984,-1.633055 -0.562431,-1.633055 0.809245,0 0.834675,0.02741 1.543698,0.01733 1.023142,-0.01603 1.332783,-0.08315 2.133051,0.250589 0.42781,0.178871 0.83879,0.65052 1.106915,1.081671"
                   fill="#30ba78"
                   id="path3"
                   style="fill:#616870;fill-opacity:1;stroke-width:0.79289" />
                <text
                   xml:space="preserve"
                   style="font-size:12.3381px;writing-mode:lr-tb;direction:ltr;fill:#616870;fill-opacity:1;fill-rule:evenodd;stroke-width:0.792489;stroke-dasharray:none;stroke-opacity:0.496255"
                   x="150.48431"
                   y="61.022755"
                   id="text35"
                   transform="scale(1.0425065,0.95922664)"><tspan
                     sodipodi:role="line"
                     id="tspan35"
                     x="150.48431"
                     y="61.022755"
                     style="fill:#616870;fill-opacity:1;stroke-width:0.792489" /></text>
                <text
                   xml:space="preserve"
                   style="font-style:normal;font-variant:normal;font-weight:normal;font-stretch:normal;font-size:8px;font-family:sans-serif;-inkscape-font-specification:'sans-serif, Normal';font-variant-ligatures:normal;font-variant-caps:normal;font-variant-numeric:normal;font-variant-east-asian:normal;writing-mode:lr-tb;direction:ltr;fill:#616870;fill-opacity:1;stroke-width:0.792484;stroke-opacity:0.496255"
                   x="10.653981"
                   y="24.444838"
                   id="text1"
                   transform="scale(0.81164075,1.2320722)"><tspan
                     sodipodi:role="line"
                     id="tspan1"
                     x="10.653981"
                     y="24.444838"
                     style="font-style:normal;font-variant:normal;font-weight:normal;font-stretch:normal;font-size:8px;font-family:sans-serif;-inkscape-font-specification:'sans-serif, Normal';font-variant-ligatures:normal;font-variant-caps:normal;font-variant-numeric:normal;font-variant-east-asian:normal;fill:#616870;fill-opacity:1;stroke-width:0.792484">SUSE Virtualization</tspan></text>
                <text
                   xml:space="preserve"
                   style="font-size:24.6762px;font-family:Sans;-inkscape-font-specification:'Sans, Normal';writing-mode:lr-tb;direction:ltr;fill:#616870;fill-opacity:1;stroke-width:0.792489;stroke-opacity:0.496255"
                   x="127.83855"
                   y="41.207718"
                   id="text2"
                   transform="scale(1.0425065,0.95922664)"><tspan
                     sodipodi:role="line"
                     id="tspan2"
                     x="127.83855"
                     y="41.207718"
                     style="fill:#616870;fill-opacity:1;stroke-width:0.792489" /></text>
                <text
                   xml:space="preserve"
                   style="font-size:24.6762px;font-family:Sans;-inkscape-font-specification:'Sans, Normal';writing-mode:lr-tb;direction:ltr;fill:#616870;fill-opacity:1;stroke-width:0.792489;stroke-opacity:0.496255"
                   x="277.51285"
                   y="148.42122"
                   id="text3"
                   transform="scale(1.0425065,0.95922664)"><tspan
                     sodipodi:role="line"
                     id="tspan3"
                     x="277.51285"
                     y="148.42122"
                     style="fill:#616870;fill-opacity:1;stroke-width:0.792489" /></text>
              </g>
            </g>
          </g>
        </g>
      </g>
    </g>
  </g>
</svg>
