<?xml version="1.0" encoding="UTF-8" standalone="no"?>
<svg
   version="1.1"
   x="0"
   y="0"
   width="192"
   height="64"
   viewBox="0 0 192 64"
   id="svg9"
   sodipodi:docname="harvester-64.svg"
   inkscape:version="1.4.3 (0d15f75, 2025-12-25)"
   xmlns:inkscape="http://www.inkscape.org/namespaces/inkscape"
   xmlns:sodipodi="http://sodipodi.sourceforge.net/DTD/sodipodi-0.dtd"
   xmlns="http://www.w3.org/2000/svg"
   xmlns:svg="http://www.w3.org/2000/svg">
  <defs
     id="defs13" />
  <sodipodi:namedview
     id="namedview11"
     pagecolor="#ffffff"
     bordercolor="#666666"
     borderopacity="1.0"
     inkscape:pageshadow="2"
     inkscape:pageopacity="0.0"
     inkscape:pagecheckerboard="0"
     showgrid="false"
     inkscape:zoom="3.4410639"
     inkscape:cx="97.353612"
     inkscape:cy="15.983429"
     inkscape:window-width="1440"
     inkscape:window-height="783"
     inkscape:window-x="0"
     inkscape:window-y="30"
     inkscape:window-maximized="0"
     inkscape:current-layer="g23"
     inkscape:showpageshadow="2"
     inkscape:deskcolor="#d1d1d1" />
  <g
     id="g20"
     style="display:inline">
    <g
       id="g19">
      <g
         id="g26">
        <g
           id="g25">
          <g
             id="g24">
            <g
               id="g23">
              <g
                 id="g1"
                 transform="translate(0,-0.2500409)">
                <path
                   d="m 125.18403,16.811085 c -0.35169,0.236301 -0.82235,0.236301 -1.17491,0 -0.57659,-0.387394 -0.63217,-1.19732 -0.16672,-1.665532 0.41334,-0.433073 1.09502,-0.433073 1.50836,-8.79e-4 0.46458,0.469091 0.40813,1.279017 -0.16673,1.666411 m 1.68117,-2.360381 c 0.67038,2.884812 -1.89305,5.47886 -4.74479,4.8007 -1.45191,-0.34435 -2.60424,-1.510046 -2.94551,-2.977927 -0.66865,-2.883056 1.89392,-5.475348 4.74478,-4.799824 1.45105,0.343472 2.60425,1.508291 2.94552,2.977051 m -19.20145,15.515091 c 0.32564,0.473482 0.59658,0.931152 0.74854,1.388822 0.10768,0.325025 0.24575,0.753705 0.56271,0.925881 0.0174,0.0097 0.033,0.01845 0.0521,0.02372 0.5818,0.21434 2.07801,0.178323 2.07801,0.178323 h 2.75187 c 0.23533,0.0035 2.30293,-0.0026 2.25082,-0.236301 -0.24922,-1.11826 -1.52746,-1.318546 -2.50091,-1.90359 -0.89703,-0.541122 -1.74803,-1.154276 -2.13359,-2.209289 -0.20146,-0.544636 -0.0825,-1.800812 0.26398,-2.25848 0.2527,-0.331174 0.62523,-0.550785 1.02555,-0.639508 0.44374,-0.09575 0.90398,-0.01318 1.34772,0.0325 0.54707,0.05622 1.0872,0.156362 1.63254,0.224881 1.05246,0.138794 2.11535,0.194136 3.1765,0.165149 1.75151,-0.04919 3.50736,-0.331174 5.16769,-0.90392 1.15927,-0.393544 2.30118,-0.925881 3.28678,-1.66641 1.1202,-0.842429 0.82583,-0.763369 -0.31001,-0.645657 -1.35986,0.14055 -2.73189,0.161634 -4.09611,0.07994 -1.27303,-0.07467 -2.5287,-0.226639 -3.68016,-0.824859 -0.90658,-0.473482 -1.68551,-0.947842 -2.40452,-1.681344 -0.10768,-0.110684 -0.17454,-0.433952 0.0226,-0.640386 0.19104,-0.200286 0.5957,-0.08433 0.71988,0.02284 1.25393,1.060283 3.1244,1.933458 5.06087,2.02833 1.04726,0.05271 2.06586,0.07203 3.11399,0.02635 0.52363,-0.0246 1.31384,-0.02108 1.83921,-0.02635 0.27093,-0.0035 1.00992,0.07555 1.14799,-0.215219 0.0417,-0.08433 0.0382,-0.181838 0.0347,-0.27671 -0.15371,-4.239375 -0.46372,-9.020751 -4.849,-11.0473232 -3.27203,-1.5135599 -8.17746,-3.8581279 -10.2494,-4.8305669 -0.48021,-0.231031 -1.04205,0.134402 -1.04205,0.675524 0,1.416053 0.0712,3.4505319 0.0721,5.3022921 -0.99254,-1.022506 -2.66416,-1.6681612 -3.93806,-2.2602341 -1.44671,-0.671131 -2.94031,-1.240363 -4.45996,-1.719117 -3.05927,-0.958382 -6.225346,-1.548698 -9.409676,-1.868452 -3.61155,-0.364553 -7.283896,-0.189743 -10.839879,0.553421 -5.856304,1.228066 -11.612744,4.0768619 -15.982393,8.2433261 -2.682401,2.556275 -4.787335,6.190401 -4.929748,9.87899 -0.203199,5.220597 1.24264,8.023715 3.89986,10.912919 4.237656,4.604808 13.358169,5.249587 17.052225,-0.210826 1.662064,-2.457889 2.02244,-5.791587 0.81627,-8.508617 -1.206168,-2.715272 -3.978881,-4.677718 -6.918321,-4.777861 -2.281214,-0.07642 -4.711788,1.097178 -5.586239,3.230921 -0.666911,1.629515 -0.287432,3.64291 0.927422,4.90787 0.473263,0.493686 1.114121,0.897772 1.814031,0.739651 0.412476,-0.09311 0.75722,-0.40672 0.819742,-0.830131 0.09204,-0.624574 -0.44808,-1.029536 -0.780666,-1.509167 -0.600047,-0.865269 -0.478473,-2.164489 0.272669,-2.899746 0.633912,-0.621061 1.572622,-0.804656 2.454888,-0.802021 0.82148,0.0018 1.661196,0.150213 2.369786,0.569233 0.996024,0.59295 1.657724,1.678707 1.886974,2.825956 0.68341,3.42857 -2.071936,6.214119 -5.807673,6.432852 -1.911292,0.114195 -3.856448,-0.393547 -5.348311,-1.608436 -3.778287,-3.074556 -4.703971,-9.358951 -0.385558,-12.713732 4.099586,-3.184361 9.275086,-2.363895 12.326546,-0.708904 2.441861,1.323816 4.261969,3.490061 5.640945,5.884702 0.692092,1.204348 1.281719,2.463158 1.828791,3.741296 0.526233,1.228944 1.018602,2.467551 2.071936,3.367957 0.697303,0.597343 1.55786,0.576259 2.471383,0.576259 h 5.214576 c 0.70859,0 0.53578,-0.477873 0.23012,-0.794113 -0.691226,-0.715054 -1.684636,-0.876688 -2.604246,-1.132315 -2.10233,-0.585044 -1.88784,-3.400461 -1.30603,-3.400461 1.87916,0 1.93821,0.0571 3.584636,0.03601 2.37585,-0.03338 3.09487,-0.173053 4.95318,0.521798 0.99342,0.372459 1.94776,1.354561 2.57038,2.252331"
                   fill="#30ba78"
                   id="path3"
                   style="stroke-width:0.878444" />
                <text
                   xml:space="preserve"
                   style="font-style:normal;font-variant:normal;font-weight:normal;font-stretch:normal;font-size:16px;font-family:sans-serif;-inkscape-font-specification:'sans-serif, Normal';font-variant-ligatures:normal;font-variant-caps:normal;font-variant-numeric:normal;font-variant-east-asian:normal;writing-mode:lr-tb;direction:ltr;fill:#a5abb6;fill-rule:evenodd;stroke-width:0.878;stroke-dasharray:none;stroke-opacity:0.496255"
                   x="151.84805"
                   y="60.18639"
                   id="text35"
                   transform="scale(1.0425065,0.95922664)"><tspan
                     sodipodi:role="line"
                     id="tspan35"
                     x="151.84805"
                     y="60.18639"
                     style="font-style:normal;font-variant:normal;font-weight:normal;font-stretch:normal;font-size:16px;font-family:sans-serif;-inkscape-font-specification:'sans-serif, Normal';font-variant-ligatures:normal;font-variant-caps:normal;font-variant-numeric:normal;font-variant-east-asian:normal;stroke-width:0.878" /></text>
                <text
                   xml:space="preserve"
                   style="font-style:normal;font-variant:normal;font-weight:normal;font-stretch:normal;font-size:16.0642px;font-family:sans-serif;-inkscape-font-specification:'sans-serif, Normal';font-variant-ligatures:normal;font-variant-caps:normal;font-variant-numeric:normal;font-variant-east-asian:normal;writing-mode:lr-tb;direction:ltr;fill:#0c322c;stroke-width:0.877996;stroke-opacity:0.496255"
                   x="38.11137"
                   y="49.146404"
                   id="text1"
                   transform="scale(0.82988145,1.2049914)"><tspan
                     sodipodi:role="line"
                     id="tspan1"
                     x="38.11137"
                     y="49.146404"
                     style="font-style:normal;font-variant:normal;font-weight:normal;font-stretch:normal;font-size:16.0642px;font-family:sans-serif;-inkscape-font-specification:'sans-serif, Normal';font-variant-ligatures:normal;font-variant-caps:normal;font-variant-numeric:normal;font-variant-east-asian:normal;stroke-width:0.877996">SUSE Virtualization</tspan></text>
                <text
                   xml:space="preserve"
                   style="font-style:normal;font-variant:normal;font-weight:normal;font-stretch:normal;font-size:16px;font-family:sans-serif;-inkscape-font-specification:'sans-serif, Normal';font-variant-ligatures:normal;font-variant-caps:normal;font-variant-numeric:normal;font-variant-east-asian:normal;writing-mode:lr-tb;direction:ltr;fill:#0c322c;stroke-width:0.878;stroke-opacity:0.496255"
                   x="129.20229"
                   y="40.371353"
                   id="text2"
                   transform="scale(1.0425065,0.95922664)"><tspan
                     sodipodi:role="line"
                     id="tspan2"
                     x="129.20229"
                     y="40.371353"
                     style="font-style:normal;font-variant:normal;font-weight:normal;font-stretch:normal;font-size:16px;font-family:sans-serif;-inkscape-font-specification:'sans-serif, Normal';font-variant-ligatures:normal;font-variant-caps:normal;font-variant-numeric:normal;font-variant-east-asian:normal;stroke-width:0.878" /></text>
                <text
                   xml:space="preserve"
                   style="font-style:normal;font-variant:normal;font-weight:normal;font-stretch:normal;font-size:16px;font-family:sans-serif;-inkscape-font-specification:'sans-serif, Normal';font-variant-ligatures:normal;font-variant-caps:normal;font-variant-numeric:normal;font-variant-east-asian:normal;writing-mode:lr-tb;direction:ltr;fill:#0c322c;stroke-width:0.878;stroke-opacity:0.496255"
                   x="278.87662"
                   y="147.58485"
                   id="text3"
                   transform="scale(1.0425065,0.95922664)"><tspan
                     sodipodi:role="line"
                     id="tspan3"
                     x="278.87662"
                     y="147.58485"
                     style="font-style:normal;font-variant:normal;font-weight:normal;font-stretch:normal;font-size:16px;font-family:sans-serif;-inkscape-font-specification:'sans-serif, Normal';font-variant-ligatures:normal;font-variant-caps:normal;font-variant-numeric:normal;font-variant-east-asian:normal;stroke-width:0.878" /></text>
              </g>
            </g>
          </g>
        </g>
      </g>
    </g>
  </g>
</svg>
