<?xml version="1.0" encoding="UTF-8" standalone="no"?>
<svg
   version="1.1"
   x="0"
   y="0"
   width="80"
   height="32"
   viewBox="0 0 80 32"
   id="svg9"
   sodipodi:docname="harvester-32-white.svg"
   inkscape:version="1.4.3 (0d15f75, 2025-12-25)"
   xmlns:inkscape="http://www.inkscape.org/namespaces/inkscape"
   xmlns:sodipodi="http://sodipodi.sourceforge.net/DTD/sodipodi-0.dtd"
   xmlns="http://www.w3.org/2000/svg"
   xmlns:svg="http://www.w3.org/2000/svg">
  <defs
     id="defs13" />
  <sodipodi:namedview
     id="namedview11"
     pagecolor="#ffffff"
     bordercolor="#666666"
     borderopacity="1.0"
     inkscape:pageshadow="2"
     inkscape:pageopacity="0.0"
     inkscape:pagecheckerboard="true"
     showgrid="false"
     inkscape:zoom="8.6715725"
     inkscape:cx="41.284323"
     inkscape:cy="14.876195"
     inkscape:window-width="1440"
     inkscape:window-height="783"
     inkscape:window-x="0"
     inkscape:window-y="30"
     inkscape:window-maximized="0"
     inkscape:current-layer="g24"
     inkscape:showpageshadow="2"
     inkscape:deskcolor="#d1d1d1" />
  <g
     id="g20"
     style="display:inline">
    <g
       id="g19">
      <g
         id="g26">
        <g
           id="g25">
          <g
             id="g24">
            <g
               id="g1"
               transform="matrix(1.0112589,0,0,1,-0.87956336,-6.4560922e-8)"
               style="stroke-width:0.994417">
              <path
                 d="m 32.707287,13.610539 c -0.16979,0.115114 -0.397013,0.115114 -0.567223,0 -0.278365,-0.188719 -0.305199,-0.583272 -0.08046,-0.811362 0.199551,-0.21097 0.528652,-0.21097 0.728204,-4.28e-4 0.22429,0.228518 0.197037,0.623071 -0.08048,0.81179 m 0.811601,-1.149856 c 0.323643,1.405332 -0.913926,2.669017 -2.290687,2.338654 -0.700957,-0.16775 -1.257275,-0.735617 -1.422035,-1.450693 -0.322807,-1.404477 0.914346,-2.667308 2.290683,-2.338228 0.700538,0.167323 1.257279,0.734763 1.422036,1.450267 m -9.270062,7.558154 c 0.157212,0.230659 0.288017,0.453611 0.361376,0.676566 0.05197,0.158336 0.118646,0.367167 0.271668,0.451041 0.0082,0.0043 0.01593,0.0097 0.02515,0.01154 0.28088,0.104412 1.003219,0.08682 1.003219,0.08682 h 1.328548 c 0.113613,0.0015 1.111806,-0.0011 1.086649,-0.115114 -0.120318,-0.544759 -0.737427,-0.642328 -1.207387,-0.927333 -0.433066,-0.263609 -0.843915,-0.562302 -1.030054,-1.07625 -0.09728,-0.26532 -0.03983,-0.877264 0.127444,-1.100215 0.121996,-0.161333 0.30185,-0.268315 0.495115,-0.311539 0.214229,-0.0467 0.436423,-0.0058 0.65065,0.01588 0.264117,0.02742 0.524881,0.07621 0.788158,0.109546 0.508105,0.06765 1.021247,0.09457 1.533548,0.08039 0.845591,-0.02401 1.69328,-0.161333 2.494858,-0.440341 0.559667,-0.191718 1.110957,-0.451043 1.586785,-0.811792 0.540812,-0.410391 0.398695,-0.371876 -0.149663,-0.314532 -0.656513,0.06847 -1.318901,0.07874 -1.977519,0.03894 -0.614595,-0.03631 -1.220804,-0.110362 -1.776704,-0.401778 -0.437678,-0.230654 -0.813732,-0.461738 -1.160852,-0.819063 -0.05196,-0.05392 -0.0843,-0.2114 0.01065,-0.311963 0.09222,-0.09757 0.287595,-0.04108 0.347544,0.01115 0.605374,0.516516 1.508397,0.941882 2.443286,0.988098 0.505594,0.02568 0.997356,0.03509 1.503369,0.01284 0.2528,-0.01199 0.634296,-0.01021 0.887933,-0.01284 0.1308,-0.0017 0.487568,0.03681 0.554229,-0.104845 0.02011,-0.04108 0.01845,-0.08858 0.01674,-0.134799 -0.07399,-2.065197 -0.223653,-4.394437 -2.340778,-5.381679 -1.579667,-0.7373287 -3.947905,-1.8794818 -4.948196,-2.3532039 -0.231835,-0.1125464 -0.503081,0.065475 -0.503081,0.3290804 0,0.6898284 0.03439,1.6809213 0.03481,2.5830045 C 26.227217,10.298338 25.420195,9.9838082 24.805182,9.6953808 24.106741,9.3684407 23.385661,9.0911399 22.652006,8.8579155 21.175054,8.3910414 19.646534,8.1034701 18.109206,7.9477022 16.365622,7.7701108 14.592688,7.8552691 12.875935,8.2173004 10.04863,8.8155509 7.2695414,10.203338 5.1599646,12.233026 3.8649572,13.478311 2.8487376,15.24867 2.779983,17.045563 c -0.098105,2.543209 0.5999215,3.908742 1.8827721,5.316213 2.0458542,2.243229 6.4490489,2.557329 8.2324649,-0.102706 0.802408,-1.197357 0.976391,-2.821363 0.394079,-4.144959 -0.582312,-1.322739 -1.920922,-2.278747 -3.3400254,-2.327532 -1.101323,-0.03723 -2.2747534,0.534489 -2.6969201,1.57394 -0.3219713,0.793818 -0.1387664,1.774639 0.4477416,2.390864 0.2284799,0.240499 0.5378704,0.437349 0.8757755,0.360319 0.199132,-0.04538 0.36557,-0.198133 0.395754,-0.404397 0.04444,-0.304255 -0.216324,-0.501534 -0.37689,-0.735182 -0.28969,-0.421516 -0.2309978,-1.054429 0.131639,-1.41261 0.30604,-0.302548 0.75923,-0.391989 1.185169,-0.390704 0.3965954,8.8e-4 0.8019914,0.07319 1.1440854,0.277301 0.480859,0.288859 0.800316,0.817782 0.910993,1.376662 0.329935,1.670222 -1.00029,3.027197 -2.8038274,3.133755 C 8.2400624,22.012137 7.300981,21.76481 6.580742,21.172981 4.7566616,19.675214 4.3097611,16.613779 6.3946017,14.979501 8.3737954,13.428243 10.87242,13.827932 12.345603,14.634159 c 1.178881,0.644895 2.057589,1.700179 2.723333,2.866725 0.334126,0.5867 0.618786,1.199925 0.882902,1.822568 0.254054,0.598679 0.49176,1.202066 1.000287,1.640698 0.336647,0.290993 0.752103,0.280723 1.193134,0.280723 h 2.517492 c 0.342092,0 0.258662,-0.232795 0.111098,-0.38685 -0.333711,-0.348339 -0.81331,-0.427079 -1.257278,-0.551606 -1.014959,-0.285005 -0.91141,-1.656531 -0.630523,-1.656531 0.907218,0 0.935727,0.0278 1.73059,0.01758 1.147011,-0.01626 1.49414,-0.08434 2.391294,0.254192 0.479604,0.181442 0.94034,0.659871 1.240927,1.09722"
                 fill="#30ba78"
                 id="path3"
                 style="fill:#ffffff;fill-opacity:1;stroke-width:0.873542" />
              <text
                 xml:space="preserve"
                 style="font-size:13.7549px;writing-mode:lr-tb;direction:ltr;fill:#a0a4a9;fill-opacity:1;fill-rule:evenodd;stroke-width:0.873099;stroke-dasharray:none;stroke-opacity:0.496255"
                 x="156.13426"
                 y="68.046799"
                 id="text35"
                 transform="scale(1.1622178,0.86042392)"><tspan
                   sodipodi:role="line"
                   id="tspan35"
                   x="156.13426"
                   y="68.046799"
                   style="fill:#a0a4a9;fill-opacity:1;stroke-width:0.873099" /></text>
              <text
                 xml:space="preserve"
                 style="font-style:normal;font-variant:normal;font-weight:normal;font-stretch:normal;font-size:5.79617px;font-family:Arial;-inkscape-font-specification:'Arial, Normal';font-variant-ligatures:normal;font-variant-caps:normal;font-variant-numeric:normal;font-variant-east-asian:normal;writing-mode:lr-tb;direction:ltr;fill:#ffffff;fill-opacity:1;stroke-width:0.87309;stroke-opacity:0.496255"
                 x="43.043941"
                 y="15.490261"
                 id="text1"
                 transform="scale(0.83848455,1.1926278)"><tspan
                   sodipodi:role="line"
                   id="tspan1"
                   x="43.043941"
                   y="15.490261"
                   style="stroke-width:0.87309">SUSE Virtualization</tspan></text>
              <text
                 xml:space="preserve"
                 style="font-size:27.5098px;font-family:Sans;-inkscape-font-specification:'Sans, Normal';writing-mode:lr-tb;direction:ltr;fill:#a0a4a9;fill-opacity:1;stroke-width:0.873099;stroke-opacity:0.496255"
                 x="130.88808"
                 y="45.95639"
                 id="text2"
                 transform="scale(1.1622178,0.86042392)"><tspan
                   sodipodi:role="line"
                   id="tspan2"
                   x="130.88808"
                   y="45.95639"
                   style="fill:#a0a4a9;fill-opacity:1;stroke-width:0.873099" /></text>
              <text
                 xml:space="preserve"
                 style="font-size:27.5098px;font-family:Sans;-inkscape-font-specification:'Sans, Normal';writing-mode:lr-tb;direction:ltr;fill:#a0a4a9;fill-opacity:1;stroke-width:0.873099;stroke-opacity:0.496255"
                 x="297.74951"
                 y="165.48125"
                 id="text3"
                 transform="scale(1.1622178,0.86042392)"><tspan
                   sodipodi:role="line"
                   id="tspan3"
                   x="297.74951"
                   y="165.48125"
                   style="fill:#a0a4a9;fill-opacity:1;stroke-width:0.873099" /></text>
            </g>
          </g>
        </g>
      </g>
    </g>
  </g>
</svg>
