<?xml version="1.0" encoding="UTF-8" standalone="no"?>
<svg
   version="1.1"
   x="0"
   y="0"
   width="105"
   height="42"
   viewBox="0 0 105 42"
   id="svg9"
   sodipodi:docname="harvester-42.svg"
   inkscape:version="1.4.3 (0d15f75, 2025-12-25)"
   xmlns:inkscape="http://www.inkscape.org/namespaces/inkscape"
   xmlns:sodipodi="http://sodipodi.sourceforge.net/DTD/sodipodi-0.dtd"
   xmlns="http://www.w3.org/2000/svg"
   xmlns:svg="http://www.w3.org/2000/svg">
  <defs
     id="defs13" />
  <sodipodi:namedview
     id="namedview11"
     pagecolor="#ffffff"
     bordercolor="#666666"
     borderopacity="1.0"
     inkscape:pageshadow="2"
     inkscape:pageopacity="0.0"
     inkscape:pagecheckerboard="0"
     showgrid="false"
     inkscape:zoom="7.3572215"
     inkscape:cx="55.863481"
     inkscape:cy="8.0193318"
     inkscape:window-width="1440"
     inkscape:window-height="783"
     inkscape:window-x="0"
     inkscape:window-y="30"
     inkscape:window-maximized="0"
     inkscape:current-layer="g23"
     inkscape:showpageshadow="2"
     inkscape:deskcolor="#d1d1d1" />
  <g
     id="g20"
     style="display:inline">
    <g
       id="g19">
      <g
         id="g26">
        <g
           id="g25">
          <g
             id="g24">
            <g
               id="g23">
              <g
                 id="g1"
                 transform="matrix(1.4288206,0,0,1.2403814,-22.513081,-5.0480088)"
                 style="stroke-width:0.751162">
                <path
                   d="m 68.059391,11.779614 c -0.187502,0.132247 -0.438429,0.132247 -0.626395,0 -0.307405,-0.216636 -0.337038,-0.66956 -0.08885,-0.931394 0.22037,-0.242182 0.583801,-0.242182 0.804171,-4.91e-4 0.247688,0.262325 0.217593,0.715249 -0.08886,0.931885 m 0.896267,-1.319966 c 0.357405,1.613236 -1.009268,3.063878 -2.529652,2.684636 -0.77408,-0.192563 -1.388433,-0.844443 -1.570381,-1.665312 -0.356482,-1.6122578 1.00973,-3.0619139 2.529645,-2.6841483 0.773619,0.1920763 1.38844,0.8434631 1.570385,1.6648243 m -10.237117,8.676325 c 0.173614,0.264781 0.318063,0.520717 0.399077,0.776659 0.05739,0.181759 0.131022,0.42149 0.300007,0.517769 0.009,0.0037 0.01759,0.01267 0.02778,0.01377 0.310183,0.119832 1.107876,0.09955 1.107876,0.09955 h 1.467142 c 0.125465,0.0013 1.22779,-0.0012 1.200009,-0.132246 -0.13287,-0.625358 -0.814356,-0.73736 -1.333342,-1.06453 -0.478245,-0.302609 -0.931952,-0.645488 -1.13751,-1.235476 -0.107423,-0.304568 -0.04399,-1.007045 0.140739,-1.262984 0.134724,-0.185195 0.333339,-0.308012 0.546766,-0.357628 0.236576,-0.05376 0.48195,-0.0052 0.718526,0.01834 0.291668,0.03154 0.579636,0.08759 0.870378,0.125677 0.561112,0.07772 1.127785,0.108546 1.693528,0.09214 0.933803,-0.02768 1.869924,-0.1852 2.755121,-0.505488 0.618051,-0.220077 1.226853,-0.517768 1.752321,-0.931885 0.597228,-0.471104 0.440286,-0.426896 -0.165277,-0.361065 -0.725002,0.0786 -1.456489,0.09024 -2.183815,0.04475 -0.678708,-0.04157 -1.348157,-0.126783 -1.962049,-0.461218 -0.483336,-0.264776 -0.89862,-0.53005 -1.281952,-0.940234 -0.05738,-0.06187 -0.09309,-0.242676 0.01176,-0.358113 0.101839,-0.11206 0.317597,-0.04706 0.3838,0.01351 0.668526,0.592932 1.665752,1.081228 2.69817,1.134286 0.558337,0.02959 1.1014,0.04033 1.6602,0.01497 0.279172,-0.0143 0.700467,-0.01292 0.980562,-0.01497 0.144446,-0.0016 0.538431,0.04243 0.612046,-0.120218 0.02221,-0.04706 0.02038,-0.101529 0.01848,-0.154743 C 69.917237,11.715645 69.751962,9.0418108 67.413978,7.908514 65.66952,7.0621035 63.054227,5.7509762 61.949586,5.2071701 c -0.25602,-0.1291989 -0.555563,0.075171 -0.555563,0.3777655 0,0.7918839 0.03797,1.9296018 0.03844,2.9651418 C 60.903321,7.9773991 60.01211,7.6163359 59.332938,7.2852378 58.561636,6.9099288 57.765331,6.5916039 56.955144,6.3238757 55.324115,5.7879307 53.63614,5.4578151 51.938436,5.2790024 50.012962,5.075138 48.055077,5.1728953 46.159231,5.5884858 c -3.12225,0.6867574 -6.191253,2.2798588 -8.520902,4.6098202 -1.430103,1.42952 -2.552335,3.461792 -2.628261,5.52452 -0.108339,2.919456 0.662505,4.48701 2.079182,6.102706 2.259279,2.575101 7.121816,2.935668 9.091277,-0.117889 0.886116,-1.374493 1.078249,-3.238764 0.435191,-4.758176 -0.64306,-1.518426 -2.121314,-2.615869 -3.688457,-2.671866 -1.216214,-0.04281 -2.512056,0.613563 -2.978264,1.806783 -0.355559,0.911255 -0.153243,2.037189 0.494451,2.744581 0.252314,0.276078 0.59398,0.502053 0.967136,0.413622 0.219905,-0.05216 0.403706,-0.227442 0.437038,-0.464226 0.04908,-0.349266 -0.238891,-0.575729 -0.416208,-0.843945 -0.319909,-0.483873 -0.255094,-1.210424 0.145373,-1.621591 0.337967,-0.347308 0.838433,-0.449982 1.308806,-0.448508 0.437967,10e-4 0.885655,0.08405 1.263437,0.318324 0.531021,0.331594 0.883804,0.938771 1.006026,1.580327 0.364355,1.917323 -1.104639,3.47505 -3.096322,3.597374 -1.01899,0.06378 -2.056037,-0.220076 -2.851411,-0.899464 -2.01437,-1.719352 -2.507891,-5.233702 -0.205559,-7.109765 2.185663,-1.78075 4.944946,-1.32193 6.571811,-0.396429 1.301861,0.7403 2.272238,1.95171 3.007433,3.290833 0.36898,0.6735 0.683336,1.377448 0.975004,2.092208 0.280557,0.687245 0.543059,1.3799 1.104638,1.883428 0.371765,0.334041 0.830562,0.322251 1.317601,0.322251 h 2.780117 c 0.37778,0 0.285647,-0.267237 0.122688,-0.444078 -0.368523,-0.399876 -0.898154,-0.490262 -1.388437,-0.633212 -1.120841,-0.327175 -1.006489,-1.901606 -0.6963,-1.901606 1.00186,0 1.033343,0.03189 1.911126,0.02027 1.266668,-0.01867 1.650009,-0.09692 2.640754,0.291796 0.529636,0.208283 1.038437,0.757494 1.37038,1.259547"
                   fill="#30ba78"
                   id="path3"
                   style="fill:#616870;fill-opacity:1;stroke-width:0.659857" />
                <text
                   xml:space="preserve"
                   style="font-size:12.3381px;writing-mode:lr-tb;direction:ltr;fill:#616870;fill-opacity:1;fill-rule:evenodd;stroke-width:0.65952;stroke-dasharray:none;stroke-opacity:0.496255"
                   x="159.1974"
                   y="69.201149"
                   id="text35"
                   transform="scale(1.0425065,0.95922664)"><tspan
                     sodipodi:role="line"
                     id="tspan35"
                     x="159.1974"
                     y="69.201149"
                     style="fill:#616870;fill-opacity:1;stroke-width:0.65952" /></text>
                <text
                   xml:space="preserve"
                   style="font-style:normal;font-variant:normal;font-weight:normal;font-stretch:normal;font-size:8.77177px;font-family:sans-serif;-inkscape-font-specification:'sans-serif, Normal';font-variant-ligatures:normal;font-variant-caps:normal;font-variant-numeric:normal;font-variant-east-asian:normal;writing-mode:lr-tb;direction:ltr;fill:#616870;fill-opacity:1;stroke-width:0.65952;stroke-opacity:0.496255"
                   x="19.434103"
                   y="31.16205"
                   id="text1"
                   transform="scale(0.84965773,1.1769445)"><tspan
                     sodipodi:role="line"
                     id="tspan1"
                     x="19.434103"
                     y="31.16205"
                     style="font-style:normal;font-variant:normal;font-weight:normal;font-stretch:normal;font-size:8.77177px;font-family:sans-serif;-inkscape-font-specification:'sans-serif, Normal';font-variant-ligatures:normal;font-variant-caps:normal;font-variant-numeric:normal;font-variant-east-asian:normal;fill:#616870;fill-opacity:1;stroke-width:0.65952">SUSE Virtualization</tspan></text>
                <text
                   xml:space="preserve"
                   style="font-size:24.6762px;font-family:Sans;-inkscape-font-specification:'Sans, Normal';writing-mode:lr-tb;direction:ltr;fill:#616870;fill-opacity:1;stroke-width:0.65952;stroke-opacity:0.496255"
                   x="136.55165"
                   y="49.386124"
                   id="text2"
                   transform="scale(1.0425065,0.95922664)"><tspan
                     sodipodi:role="line"
                     id="tspan2"
                     x="136.55165"
                     y="49.386124"
                     style="fill:#616870;fill-opacity:1;stroke-width:0.65952" /></text>
                <text
                   xml:space="preserve"
                   style="font-size:24.6762px;font-family:Sans;-inkscape-font-specification:'Sans, Normal';writing-mode:lr-tb;direction:ltr;fill:#616870;fill-opacity:1;stroke-width:0.65952;stroke-opacity:0.496255"
                   x="286.22598"
                   y="156.59962"
                   id="text3"
                   transform="scale(1.0425065,0.95922664)"><tspan
                     sodipodi:role="line"
                     id="tspan3"
                     x="286.22598"
                     y="156.59962"
                     style="fill:#616870;fill-opacity:1;stroke-width:0.65952" /></text>
              </g>
            </g>
          </g>
        </g>
      </g>
    </g>
  </g>
</svg>
