<?xml version="1.0" encoding="UTF-8" standalone="no"?>
<svg
   version="1.1"
   x="0"
   y="0"
   width="192"
   height="64"
   viewBox="0 0 192 64"
   id="svg9"
   sodipodi:docname="harvester-64.svg"
   inkscape:version="1.4.3 (0d15f75, 2025-12-25)"
   xmlns:inkscape="http://www.inkscape.org/namespaces/inkscape"
   xmlns:sodipodi="http://sodipodi.sourceforge.net/DTD/sodipodi-0.dtd"
   xmlns="http://www.w3.org/2000/svg"
   xmlns:svg="http://www.w3.org/2000/svg">
  <defs
     id="defs13" />
  <sodipodi:namedview
     id="namedview11"
     pagecolor="#ffffff"
     bordercolor="#666666"
     borderopacity="1.0"
     inkscape:pageshadow="2"
     inkscape:pageopacity="0.0"
     inkscape:pagecheckerboard="0"
     showgrid="false"
     inkscape:zoom="3.4410639"
     inkscape:cx="101.42212"
     inkscape:cy="10.171273"
     inkscape:window-width="1440"
     inkscape:window-height="783"
     inkscape:window-x="0"
     inkscape:window-y="30"
     inkscape:window-maximized="0"
     inkscape:current-layer="g23"
     inkscape:showpageshadow="2"
     inkscape:deskcolor="#d1d1d1" />
  <g
     id="g20"
     style="display:inline">
    <g
       id="g19">
      <g
         id="g26">
        <g
           id="g25">
          <g
             id="g24">
            <g
               id="g23">
              <g
                 id="g1"
                 transform="translate(-1.8889247)">
                <path
                   d="m 75.221445,26.285623 c -0.378448,0.275295 -0.884918,0.275295 -1.264301,0 -0.620458,-0.45132 -0.680267,-1.394896 -0.179404,-1.940371 0.444787,-0.504536 1.178331,-0.504536 1.62312,-10e-4 0.499926,0.546498 0.439182,1.490074 -0.179415,1.941394 m 1.809077,-2.749879 c 0.721385,3.360848 -2.037078,6.382953 -5.105787,5.592887 -1.562376,-0.401172 -2.802377,-1.759226 -3.169613,-3.46933 -0.719522,-3.358804 2.038015,-6.378864 5.105777,-5.591866 1.56145,0.400148 2.802389,1.757181 3.169623,3.468309 M 56.368171,41.611059 c 0.350415,0.551613 0.64197,1.084807 0.805491,1.617999 0.115872,0.378658 0.264447,0.878077 0.605522,1.078666 0.01873,0.01127 0.03552,0.0215 0.05606,0.02762 0.626066,0.249711 2.236111,0.207749 2.236111,0.207749 h 2.961241 c 0.253235,0.0041 2.478144,-0.003 2.422068,-0.275293 -0.26818,-1.302789 -1.643672,-1.536127 -2.691186,-2.217711 -0.965278,-0.630416 -1.881025,-1.344749 -2.295919,-2.573855 -0.216789,-0.63451 -0.08877,-2.097974 0.284063,-2.631165 0.271927,-0.385822 0.6728,-0.641671 1.103578,-0.745036 0.477501,-0.111554 0.972757,-0.01535 1.450258,0.03786 0.588693,0.06551 1.169918,0.182164 1.756749,0.261987 1.132534,0.161698 2.276292,0.226174 3.418177,0.192403 1.884769,-0.0573 3.77421,-0.385822 5.560863,-1.053081 1.24747,-0.458483 2.476261,-1.078665 3.536847,-1.941393 1.205428,-0.981442 0.888662,-0.889335 -0.333595,-0.752201 -1.463323,0.163745 -2.939741,0.188308 -4.407755,0.09313 -1.369885,-0.08699 -2.721091,-0.264037 -3.960157,-0.960972 -0.975556,-0.551614 -1.813748,-1.104251 -2.587464,-1.958792 -0.115872,-0.128949 -0.187819,-0.505559 0.02432,-0.74606 0.205575,-0.233335 0.641023,-0.09824 0.774652,0.02661 1.349332,1.235245 3.362113,2.252508 5.445915,2.363034 1.126938,0.0614 2.223036,0.08392 3.350912,0.0307 0.563469,-0.02866 1.413799,-0.02457 1.979142,-0.0307 0.291542,-0.0041 1.086757,0.08802 1.235331,-0.250731 0.04487,-0.09825 0.04111,-0.211846 0.03734,-0.322372 -0.165406,-4.938938 -0.499001,-10.509313 -5.217926,-12.8703 -3.520975,-1.76332 -8.799625,-4.494777 -11.029205,-5.627684 -0.516744,-0.269154 -1.121331,0.156581 -1.121331,0.786997 0,1.649723 0.07661,4.019921 0.07759,6.17725 -1.068056,-1.191234 -2.866857,-1.943433 -4.237679,-2.633208 -1.556781,-0.781878 -3.164018,-1.44504 -4.799288,-2.002797 -3.292028,-1.11653 -6.698988,-1.804256 -10.125591,-2.176774 -3.886326,-0.42471 -7.838076,-0.221054 -11.664608,0.644744 -6.301868,1.430715 -12.496275,4.749606 -17.19838,9.603599 -2.886486,2.978099 -5.1515688,7.21191 -5.3048169,11.509172 -0.2186596,6.082077 1.3371836,9.34775 4.1965729,12.713717 4.560069,5.364672 14.374496,6.115848 18.349607,-0.245616 1.788519,-2.863476 2.176312,-6.747286 0.878373,-9.912667 -1.297936,-3.163333 -4.281605,-5.449613 -7.444686,-5.566281 -2.454775,-0.08903 -5.070274,1.27823 -6.011257,3.764072 -0.717651,1.898409 -0.3093,4.244046 0.997984,5.717742 0.509271,0.575152 1.198887,1.045919 1.952048,0.861706 0.443857,-0.108475 0.814831,-0.473835 0.88211,-0.967115 0.09904,-0.727638 -0.482171,-1.199425 -0.840061,-1.758204 -0.645701,-1.008051 -0.514876,-2.52166 0.293414,-3.378246 0.682142,-0.723547 1.692272,-0.937437 2.641663,-0.934368 0.883981,0.0021 1.787585,0.175001 2.550086,0.663166 1.071805,0.690795 1.783849,1.95572 2.030541,3.292281 0.735405,3.994338 -2.229575,7.239543 -6.249538,7.49437 -2.056708,0.133039 -4.149857,-0.458487 -5.755226,-1.873852 -4.06575,-3.581904 -5.061862,-10.90332 -0.414891,-14.811691 4.411494,-3.709828 9.98076,-2.753972 13.264384,-0.825884 2.627645,1.542267 4.586232,4.065976 6.070124,6.855766 0.744749,1.403086 1.379236,2.869618 1.967932,4.358668 0.566269,1.43174 1.096099,2.874734 2.229573,3.923722 0.750358,0.695913 1.676388,0.67135 2.659413,0.67135 h 5.611317 c 0.762501,0 0.576545,-0.556729 0.247628,-0.925154 -0.743816,-0.833048 -1.812809,-1.021353 -2.802384,-1.319163 -2.262282,-0.681586 -2.031473,-3.961588 -1.405397,-3.961588 2.022132,0 2.085674,0.06652 3.857366,0.04194 2.556611,-0.03887 3.330337,-0.201608 5.330032,0.607903 1.069002,0.43392 2.095951,1.578085 2.765942,2.624"
                   fill="#30ba78"
                   id="path3"
                   style="stroke-width:0.878444" />
                <text
                   xml:space="preserve"
                   style="font-style:normal;font-variant:normal;font-weight:normal;font-stretch:normal;font-size:16.1059px;font-family:sans-serif;-inkscape-font-specification:'sans-serif, Normal';font-variant-ligatures:normal;font-variant-caps:normal;font-variant-numeric:normal;font-variant-east-asian:normal;writing-mode:lr-tb;direction:ltr;fill:#a5abb6;fill-rule:evenodd;stroke-width:0.878;stroke-dasharray:none;stroke-opacity:0.496255"
                   x="150.17253"
                   y="60.352196"
                   id="text35"
                   transform="scale(1.0494081,0.95291812)"><tspan
                     sodipodi:role="line"
                     id="tspan35"
                     x="150.17253"
                     y="60.352196"
                     style="font-style:normal;font-variant:normal;font-weight:normal;font-stretch:normal;font-size:16.1059px;font-family:sans-serif;-inkscape-font-specification:'sans-serif, Normal';font-variant-ligatures:normal;font-variant-caps:normal;font-variant-numeric:normal;font-variant-east-asian:normal;stroke-width:0.878" /></text>
                <text
                   xml:space="preserve"
                   style="font-style:normal;font-variant:normal;font-weight:normal;font-stretch:normal;font-size:14.1324px;font-family:Arial;-inkscape-font-specification:'Arial, Normal';font-variant-ligatures:normal;font-variant-caps:normal;font-variant-numeric:normal;font-variant-east-asian:normal;writing-mode:lr-tb;direction:ltr;fill:#0c322c;stroke-width:0.877994;stroke-opacity:0.496255"
                   x="100.48246"
                   y="31.984148"
                   id="text1"
                   transform="scale(0.84143804,1.1884416)"><tspan
                     sodipodi:role="line"
                     id="tspan1"
                     x="100.48246"
                     y="31.984148"
                     style="stroke-width:0.877994">SUSE Virtualization</tspan></text>
                <text
                   xml:space="preserve"
                   style="font-style:normal;font-variant:normal;font-weight:normal;font-stretch:normal;font-size:16.1059px;font-family:sans-serif;-inkscape-font-specification:'sans-serif, Normal';font-variant-ligatures:normal;font-variant-caps:normal;font-variant-numeric:normal;font-variant-east-asian:normal;writing-mode:lr-tb;direction:ltr;fill:#0c322c;stroke-width:0.878;stroke-opacity:0.496255"
                   x="127.37685"
                   y="40.405979"
                   id="text2"
                   transform="scale(1.0494081,0.95291812)"><tspan
                     sodipodi:role="line"
                     id="tspan2"
                     x="127.37685"
                     y="40.405979"
                     style="font-style:normal;font-variant:normal;font-weight:normal;font-stretch:normal;font-size:16.1059px;font-family:sans-serif;-inkscape-font-specification:'sans-serif, Normal';font-variant-ligatures:normal;font-variant-caps:normal;font-variant-numeric:normal;font-variant-east-asian:normal;stroke-width:0.878" /></text>
                <text
                   xml:space="preserve"
                   style="font-style:normal;font-variant:normal;font-weight:normal;font-stretch:normal;font-size:16.1059px;font-family:sans-serif;-inkscape-font-specification:'sans-serif, Normal';font-variant-ligatures:normal;font-variant-caps:normal;font-variant-numeric:normal;font-variant-east-asian:normal;writing-mode:lr-tb;direction:ltr;fill:#0c322c;stroke-width:0.878;stroke-opacity:0.496255"
                   x="278.04208"
                   y="148.32925"
                   id="text3"
                   transform="scale(1.0494081,0.95291812)"><tspan
                     sodipodi:role="line"
                     id="tspan3"
                     x="278.04208"
                     y="148.32925"
                     style="font-style:normal;font-variant:normal;font-weight:normal;font-stretch:normal;font-size:16.1059px;font-family:sans-serif;-inkscape-font-specification:'sans-serif, Normal';font-variant-ligatures:normal;font-variant-caps:normal;font-variant-numeric:normal;font-variant-east-asian:normal;stroke-width:0.878" /></text>
              </g>
            </g>
          </g>
        </g>
      </g>
    </g>
  </g>
</svg>
