<?xml version="1.0" encoding="UTF-8"?>
<svg width="80px" height="32px" viewBox="0 0 80 32" version="1.1" xmlns="http://www.w3.org/2000/svg" xmlns:xlink="http://www.w3.org/1999/xlink">
        <g id="Provider/HyperV/hyperv-32" stroke="none" stroke-width="1" fill="none" fill-rule="evenodd">
        <polygon id="Fill-1" fill="#616870" points="35.0752611 23.1874396 35.0752611 18.6398846 29.7328408 18.6398846 29.7328408 23.1874396 28.8243057 23.1874396 28.8243057 13.4688022 29.7328408 13.4688022 29.7328408 17.8266703 35.0752611 17.8266703 35.0752611 13.4688022 35.984051 13.4688022 35.984051 23.1874396"></polygon>
        <path d="M40.0750191,24.4480923 C39.8017707,25.1257077 39.4876306,25.628422 39.1324713,25.9559824 C38.7771847,26.2835429 38.3468662,26.4473231 37.8412611,26.4473231 C37.5906879,26.4473231 37.3789682,26.4180044 37.2058471,26.3592407 L37.2058471,25.5460264 C37.3061019,25.5820429 37.4073758,25.6092132 37.510051,25.6272846 C37.6122166,25.6452297 37.7157834,25.6543286 37.8206242,25.6543286 C38.107758,25.6543286 38.3571847,25.5652352 38.5687771,25.3866692 C38.7807516,25.2082297 38.9639363,24.9382956 39.1188408,24.576867 L39.7267389,23.1535209 L37.0351465,16.2475813 L38.0052102,16.2475813 L40.0069936,21.7439495 C40.0341274,21.8162352 40.060242,21.8986308 40.0853376,21.991389 C40.1105605,22.0840209 40.1345096,22.1755154 40.1573121,22.2657462 L40.1911975,22.2657462 C40.2141274,22.188911 40.2357834,22.1110648 40.2564204,22.0319549 C40.2766752,21.9529714 40.3050828,21.8657736 40.3415159,21.770867 L42.4662293,16.2475813 L43.3886497,16.2475813 L40.0750191,24.4480923 Z" id="Fill-2" fill="#616870"></path>
        <path d="M45.1364713,20.3003456 C45.1364713,20.6165324 45.1897197,20.9137632 45.2968535,21.1915324 C45.4039873,21.4695544 45.5530318,21.7134555 45.744242,21.9234885 C45.9355796,22.1336478 46.1669172,22.2995764 46.4378726,22.4216533 C46.7089554,22.5436038 47.0081911,22.6046423 47.3360892,22.6046423 C47.6867898,22.6046423 48.0032229,22.5312192 48.2858981,22.3842467 C48.5680637,22.2375269 48.8084459,22.0286313 49.006535,21.7574335 C49.2046242,21.4863621 49.3572357,21.158928 49.4643694,20.7747522 C49.571121,20.3908291 49.624879,19.9614115 49.624879,19.4870049 C49.624879,19.080461 49.5746879,18.713472 49.4746879,18.3857852 C49.3743057,18.0582247 49.2320127,17.7793181 49.0474268,17.548939 C48.8629682,17.3184335 48.6397834,17.1421423 48.378,17.0201918 C48.1162166,16.8982412 47.8236051,16.8373291 47.500293,16.8373291 C47.135707,16.8373291 46.8079363,16.9038016 46.5163439,17.0371258 C46.2250064,17.1703236 45.9765987,17.3521753 45.7716306,17.5825544 C45.5669172,17.8129335 45.4098471,18.0831203 45.3004204,18.392483 C45.1909936,18.7022247 45.1364713,19.0307962 45.1364713,19.3787027 L45.1364713,20.3003456 Z M45.1364713,22.0691973 L45.1364713,26.3794225 L44.261949,26.3794225 L44.261949,16.2475434 L45.1364713,16.2475434 L45.1364713,17.5758566 L45.1636051,17.5758566 C45.4233503,17.0924775 45.7704841,16.7230874 46.2056433,16.4676863 C46.6405478,16.2125379 47.131121,16.0849005 47.6776178,16.0849005 C48.1241146,16.0849005 48.5236051,16.1651478 48.8768535,16.3255159 C49.2298471,16.4857577 49.5279363,16.7128511 49.771758,17.0065434 C50.0153248,17.3003621 50.2022038,17.6572412 50.331758,18.0773071 C50.4618217,18.4974995 50.5266624,18.9698841 50.5266624,19.4938291 C50.5266624,20.0676918 50.4536688,20.5906258 50.3079363,21.0626313 C50.1620764,21.5350159 49.9527771,21.9405489 49.6795287,22.2793566 C49.4062803,22.6181643 49.0749427,22.8815269 48.6855159,23.0688126 C48.2962166,23.2563511 47.8576178,23.3501203 47.3702293,23.3501203 C46.386535,23.3501203 45.6509936,22.9231038 45.1636051,22.0691973 L45.1364713,22.0691973 Z" id="Fill-4" fill="#616870"></path>
        <path d="M56.5236815,19.1143544 C56.5101783,18.3914973 56.3368025,17.8311566 56.0045732,17.4335852 C55.6719618,17.0360137 55.2096688,16.837228 54.6176943,16.837228 C54.3215159,16.837228 54.0473758,16.8891676 53.7943822,16.9930467 C53.5417707,17.0969258 53.3194777,17.2473104 53.1282675,17.4436951 C52.9369299,17.640206 52.7788408,17.8796841 52.6536178,18.1620027 C52.5281401,18.4444478 52.4406242,18.7618984 52.3904331,19.1143544 L56.5236815,19.1143544 Z M52.370051,19.8734808 C52.3746369,20.2980962 52.4313248,20.6799973 52.5406242,21.0186786 C52.650051,21.3576126 52.807121,21.6444808 53.0120892,21.8795357 C53.2171847,22.1143379 53.4666115,22.2940412 53.760242,22.4182665 C54.054,22.5426181 54.385465,22.6046676 54.7541274,22.6046676 C55.5422803,22.6046676 56.2868662,22.3313214 56.9881401,21.7846291 L56.9881401,22.6384093 C56.3188408,23.1129423 55.5080127,23.3501456 54.5560382,23.3501456 C54.0869936,23.3501456 53.6611338,23.268761 53.2784586,23.1062445 C52.8959108,22.9434753 52.5704331,22.7074093 52.3016433,22.3979203 C52.0329809,22.0884313 51.8258471,21.7076676 51.6799873,21.2558819 C51.5341274,20.8040962 51.4612611,20.28925 51.4612611,19.7107115 C51.4612611,19.1910632 51.5410064,18.7099588 51.7006242,18.2671456 C51.8601146,17.8243324 52.0806242,17.4415467 52.3632994,17.1184093 C52.6455924,16.7953984 52.9801146,16.542272 53.3676306,16.3594093 C53.7543822,16.176294 54.177949,16.0847995 54.637949,16.0847995 C55.0890318,16.0847995 55.4873758,16.162772 55.8336178,16.318717 C56.1797325,16.4746621 56.470051,16.697206 56.7047006,16.9862225 C56.9392229,17.2754918 57.117949,17.6278214 57.2411338,18.0434643 C57.3640637,18.4591071 57.4253376,18.9245412 57.4253376,19.4396401 L57.4253376,19.8734808 L52.370051,19.8734808 Z" id="Fill-6" fill="#616870"></path>
        <path d="M62.2752102,17.1353181 C62.0699873,16.9861973 61.8056561,16.9115104 61.4824713,16.9115104 C61.250242,16.9115104 61.0454013,16.9557412 60.8675669,17.0438236 C60.690242,17.1320324 60.5340637,17.2505709 60.3997962,17.3996918 C60.2654013,17.5488126 60.1513885,17.7216918 60.0582675,17.9180764 C59.9646369,18.1147137 59.8893503,18.3191863 59.8326624,18.531494 C59.7755924,18.743928 59.7347006,18.9585104 59.7097325,19.1753676 C59.6846369,19.3920984 59.6720255,19.5978346 59.6720255,19.7919445 L59.6720255,23.1874775 L58.8045096,23.1874775 L58.8045096,16.2475434 L59.6720255,16.2475434 L59.6720255,17.7318016 L59.699414,17.7318016 C59.7814522,17.4788016 59.8848917,17.2517082 60.0104968,17.0506478 C60.1355924,16.8497137 60.2801783,16.6802467 60.444,16.5423731 C60.6082038,16.4044995 60.7869299,16.2996093 60.9805605,16.2271973 C61.1740637,16.1549115 61.3776306,16.1187687 61.5918981,16.1187687 C61.7327898,16.1187687 61.8592866,16.1278676 61.970879,16.145939 C62.0824713,16.1640104 62.1838726,16.1910544 62.2752102,16.2271973 L62.2752102,17.1353181 Z" id="Fill-8" fill="#616870"></path>
        <polygon id="Fill-10" fill="#616870" points="62.1850955 19.595522 65.922293 19.595522 65.922293 18.850044 62.1850955 18.850044"></polygon>
        <path d="M71.0994777,23.1874396 L70.2113248,23.1874396 L66.6452102,13.4688022 L67.6630446,13.4688022 L70.4369299,21.2355989 C70.4868662,21.3801703 70.5314522,21.5260055 70.5701783,21.6727253 C70.6087771,21.8196978 70.6394777,21.9721044 70.6622803,22.1301978 L70.6897962,22.1301978 C70.7123439,22.0038242 70.7443185,21.8649396 70.7853376,21.7134176 C70.8262293,21.5621484 70.878586,21.3983681 70.9424076,21.2220769 L73.8323439,13.4688022 L74.8160382,13.4688022 L71.0994777,23.1874396 Z" id="Fill-12" fill="#616870"></path>
        <path d="M79.4196561,15.8294363 L79.3337962,14.4659912 C79.3251338,14.2869198 79.3251338,14.0739802 79.3163439,13.8182 L79.2908662,13.8182 C79.2306115,14.0227989 79.161949,14.2955132 79.0931592,14.5085791 L78.6725223,15.795189 L78.1913758,15.795189 L77.7791465,14.4744582 C77.7362166,14.3041066 77.6588917,14.0227989 77.607172,13.8182 L77.5813121,13.8182 C77.5813121,14.0313923 77.5730318,14.2615187 77.5643694,14.4659912 L77.4785096,15.8294363 L77.0316306,15.8294363 L77.2036051,13.511744 L77.9079363,13.511744 L78.3029682,14.6449363 C78.3630955,14.8238813 78.4060255,14.994233 78.4576178,15.2328264 L78.4746879,15.2328264 C78.5262803,15.0283538 78.5862803,14.8238813 78.6292102,14.6618703 L79.0331592,13.511744 L79.7116306,13.511744 L79.8836051,15.8294363 L79.4196561,15.8294363 Z M76.8943057,13.511744 L76.8943057,13.8950352 L76.147172,13.8950352 L76.147172,15.8294363 L75.6832229,15.8294363 L75.6832229,13.8950352 L74.9443694,13.8950352 L74.9443694,13.511744 L76.8943057,13.511744 Z" id="Fill-13" fill="#616870"></path>
        <path d="M32.6301911,11.3464456 L32.6301911,8.50354451 C32.6301911,8.35808846 32.6415287,8.12353901 32.6647134,7.80002253 L32.653121,7.80002253 C32.6259873,7.88608297 32.6014013,7.96076978 32.5796178,8.02395659 C32.5573248,8.08714341 32.5363057,8.13883022 32.5173248,8.17901703 L31.0696815,11.3464456 L30.9048408,11.3464456 L29.4543949,8.19898407 C29.4121019,8.10331923 29.368535,7.96847857 29.3244586,7.79420934 L29.3127389,7.79420934 C29.3202548,7.88229176 29.3257325,7.98288516 29.3286624,8.09561044 C29.331465,8.20858846 29.3327389,8.33407747 29.3327389,8.47182473 L29.3327389,11.3464456 L28.9566879,11.3464456 L28.9566879,7.22856099 L29.4112102,7.22856099 L30.8206369,10.324083 C30.8496815,10.3891654 30.8780892,10.4557643 30.9061146,10.5237533 C30.9342675,10.5916159 30.9597452,10.664028 30.9829299,10.7404841 L31.0003822,10.7404841 C31.0273885,10.664028 31.0519745,10.594017 31.0742675,10.5308302 C31.0961783,10.4677698 31.123949,10.3997808 31.1565605,10.3269896 L32.5779618,7.22856099 L33.0092994,7.22856099 L33.0092994,11.3464456 L32.6301911,11.3464456 Z" id="Fill-14" fill="#616870"></path>
        <path d="M34.0254777,11.3464835 L34.3957962,11.3464835 L34.3957962,8.4058956 L34.0254777,8.4058956 L34.0254777,11.3464835 Z M34.2077707,7.66218681 C34.1361783,7.66218681 34.0745223,7.63716484 34.0225478,7.5875 C33.9703185,7.53770879 33.9442038,7.47452198 33.9442038,7.39793956 C33.9442038,7.32325275 33.9703185,7.26145604 34.0225478,7.21267582 C34.0745223,7.1638956 34.1361783,7.13937912 34.2077707,7.13937912 C34.2442038,7.13937912 34.2789809,7.1456978 34.3119745,7.15808242 C34.3444586,7.17059341 34.3732484,7.18828571 34.3974522,7.21128571 C34.4214013,7.23428571 34.4406369,7.26145604 34.4551592,7.29317582 C34.4696815,7.32476923 34.4768153,7.35952198 34.4768153,7.39793956 C34.4768153,7.43433516 34.4700637,7.46870879 34.4564331,7.50131319 C34.4431847,7.53379121 34.423949,7.5620989 34.3987261,7.58598352 C34.3736306,7.60999451 34.3452229,7.62857143 34.3132484,7.64196703 C34.2816561,7.65548901 34.2461146,7.66218681 34.2077707,7.66218681 L34.2077707,7.66218681 Z" id="Fill-15" fill="#616870"></path>
        <path d="M37.3222293,11.2142714 C37.1022293,11.3464582 36.8361146,11.4144473 36.5233758,11.4183648 C36.3108917,11.4200077 36.1199363,11.3837385 35.9501274,11.309178 C35.7801911,11.2344912 35.6356051,11.1306121 35.5159873,10.997667 C35.396242,10.8644692 35.3046497,10.7075132 35.2410828,10.5265462 C35.1772611,10.3457055 35.1452866,10.1490681 35.1452866,9.93650769 C35.1452866,9.71636484 35.179172,9.50911209 35.2468153,9.31474945 C35.3143312,9.12038681 35.4126752,8.95091978 35.5421019,8.80647473 C35.6711465,8.66202967 35.8294904,8.54753516 36.0166242,8.46324396 C36.203758,8.37907912 36.4178981,8.3369967 36.6592994,8.3369967 C36.9043949,8.3369967 37.1283439,8.38388132 37.3308917,8.47765055 L37.3308917,8.86827143 C37.1148408,8.72660659 36.8812102,8.65571099 36.6305096,8.65571099 C36.4547134,8.65571099 36.298535,8.68869451 36.161465,8.75478791 C36.0243949,8.82088132 35.9092357,8.91073297 35.8156051,9.02472198 C35.7218471,9.13871099 35.6503822,9.27165604 35.601465,9.42380989 C35.5520382,9.57596374 35.5275796,9.73721648 35.5275796,9.90769451 C35.5275796,10.0646505 35.5482166,10.2149088 35.5897452,10.3585956 C35.6311465,10.502156 35.6949682,10.6291615 35.780828,10.7389802 C35.8665605,10.8493044 35.9753503,10.9367549 36.1063057,11.0019637 C36.2376433,11.0669198 36.3921656,11.0995242 36.5696178,11.0995242 C36.8473248,11.0995242 37.0984076,11.0171286 37.3222293,10.8524637 L37.3222293,11.2142714 Z" id="Fill-16" fill="#616870"></path>
        <path d="M39.5050064,8.78200879 C39.4182548,8.71894835 39.3062803,8.68722857 39.1692102,8.68722857 C39.0707389,8.68722857 38.9839873,8.70593187 38.9084459,8.74321209 C38.833414,8.78049231 38.767172,8.83091538 38.7104841,8.89397582 C38.6532866,8.95716264 38.6052611,9.03045934 38.5655159,9.11373956 C38.5258981,9.19701978 38.4943057,9.28358571 38.4701019,9.37356374 C38.4458981,9.46366813 38.4284459,9.55453077 38.4178726,9.6464044 C38.407172,9.73827802 38.401949,9.82547582 38.401949,9.90774505 L38.401949,11.3463824 L38.0345605,11.3463824 L38.0345605,8.40592088 L38.401949,8.40592088 L38.401949,9.03475604 L38.4136688,9.03475604 C38.4484459,8.92759121 38.4923949,8.83142088 38.5452611,8.74611868 C38.5985096,8.66094286 38.6597834,8.58916264 38.7292102,8.53077802 C38.7985096,8.47239341 38.8743057,8.42790989 38.9562166,8.39732747 C39.0385096,8.36649231 39.1246242,8.35132747 39.2153248,8.35132747 C39.2753248,8.35132747 39.328828,8.35524505 39.3759618,8.3627011 C39.4233503,8.37040989 39.4662803,8.38190989 39.5050064,8.39732747 L39.5050064,8.78200879 Z" id="Fill-17" fill="#616870"></path>
        <path d="M41.2070828,8.65569835 C41.0449172,8.65569835 40.898293,8.68337418 40.7670828,8.73897857 C40.6357452,8.79445659 40.5235159,8.87546209 40.4298854,8.98174231 C40.336,9.08789615 40.264535,9.21806099 40.2140892,9.37211044 C40.1640255,9.52628626 40.1389299,9.70093462 40.1389299,9.89618187 C40.1389299,10.0800555 40.1640255,10.2457313 40.2140892,10.393083 C40.264535,10.5404346 40.3353631,10.6669346 40.4270828,10.7722038 C40.5186752,10.8774731 40.6300127,10.9584786 40.7612229,11.0147148 C40.8925605,11.0712038 41.0390573,11.0995115 41.2012229,11.0995115 C41.3670828,11.0995115 41.5138344,11.0722148 41.6413503,11.0176214 C41.7687389,10.963028 41.8768917,10.8836654 41.9655541,10.7794071 C42.0542166,10.6750225 42.1214777,10.5471324 42.1665732,10.3959896 C42.212051,10.2447203 42.2345987,10.0723467 42.2345987,9.87912143 C42.2345987,9.48268736 42.1459363,9.17976978 41.9684841,8.97011593 C41.7906497,8.76058846 41.5371465,8.65569835 41.2070828,8.65569835 M41.1780382,11.4154456 C40.9580382,11.4154456 40.7609682,11.3789236 40.5860637,11.3062588 C40.4115414,11.2334676 40.2624968,11.1305995 40.1389299,10.9976544 C40.0154904,10.8644566 39.9208408,10.7050995 39.8553631,10.5194566 C39.7895032,10.3336874 39.7566369,10.1279511 39.7566369,9.90199505 C39.7566369,9.65695659 39.7915414,9.43769835 39.8612229,9.24447308 C39.9305223,9.05099505 40.0292484,8.88683571 40.1576561,8.75186868 C40.2860637,8.61702802 40.4408408,8.51403352 40.622242,8.44326429 C40.8038981,8.37236868 41.0064459,8.33698407 41.2303949,8.33698407 C41.444535,8.33698407 41.6375287,8.37186319 41.809121,8.4417478 C41.9809682,8.51163242 42.1265732,8.61273132 42.2461911,8.74466538 C42.3659363,8.8768522 42.4575287,9.03772582 42.5213503,9.22715989 C42.5849172,9.41659396 42.6168917,9.63206099 42.6168917,9.87330824 C42.6168917,10.1029291 42.5833885,10.3122038 42.5168917,10.5007533 C42.4505223,10.6894291 42.3553631,10.8514401 42.2316688,10.9875445 C42.1081019,11.1233962 41.9579108,11.2286654 41.7803312,11.3034786 C41.6026242,11.378039 41.4019873,11.4154456 41.1780382,11.4154456" id="Fill-18" fill="#616870"></path>
        <path d="M43.1956561,10.8180648 C43.251707,10.8620429 43.3124713,10.9013451 43.377949,10.9358451 C43.4436815,10.9702187 43.5111975,11.0000429 43.5804968,11.0248121 C43.6501783,11.0497077 43.720242,11.0682846 43.7905605,11.0807956 C43.860879,11.0933066 43.9280127,11.0996253 43.9918344,11.0996253 C44.4318344,11.0996253 44.651707,10.9358451 44.651707,10.608411 C44.651707,10.5337242 44.6365478,10.4692736 44.605465,10.4146802 C44.5745096,10.3600868 44.5303057,10.3102956 44.4722166,10.2651802 C44.4143822,10.2203176 44.344828,10.1786143 44.2638089,10.1404495 C44.1827898,10.1021582 44.0911975,10.0618451 43.9890318,10.0197626 C43.8518344,9.96428462 43.7341274,9.90766923 43.6356561,9.8502956 C43.5373121,9.7927956 43.456293,9.73024066 43.3924713,9.66225165 C43.3289045,9.59426264 43.2815159,9.5197022 43.2509427,9.43831758 C43.2198599,9.35693297 43.2043185,9.26442747 43.2043185,9.16105385 C43.2043185,9.03101538 43.2327261,8.91513077 43.2897962,8.81365275 C43.3467389,8.71217473 43.4234268,8.62598791 43.5198599,8.55521868 C43.6164204,8.48432308 43.7280127,8.43023516 43.8541274,8.39295495 C43.9806242,8.35567473 44.1131083,8.33697143 44.2522166,8.33697143 C44.5090318,8.33697143 44.7328535,8.38486703 44.9238089,8.48053187 L44.9238089,8.86824615 C44.7018981,8.72658132 44.462535,8.65568571 44.2061019,8.65568571 C44.1131083,8.65568571 44.0290318,8.66718571 43.9527261,8.69018571 C43.8764204,8.71318571 43.8111975,8.74566374 43.7573121,8.78774615 C43.7030446,8.83008132 43.6611338,8.88025165 43.6315796,8.93850989 C43.6015159,8.99702088 43.5863567,9.0615978 43.5863567,9.13249341 C43.5863567,9.20528462 43.597949,9.26872418 43.6212611,9.32331758 C43.6443185,9.37791099 43.6806242,9.4271967 43.7299236,9.47117473 C43.7789682,9.51527912 43.8427898,9.55748791 43.920879,9.59754835 C43.9989682,9.63773516 44.0941274,9.68082857 44.2061019,9.72695495 C44.3486497,9.78432857 44.4722166,9.84132308 44.5764204,9.89768571 C44.6806242,9.95417473 44.7664841,10.0153396 44.8341274,10.081433 C44.9016433,10.1475264 44.9519618,10.2212022 44.9845732,10.3025868 C45.0174395,10.3839714 45.034,10.4782462 45.034,10.585411 C45.034,10.7175978 45.0064841,10.835378 44.9513248,10.9387516 C44.8965478,11.0421253 44.8199873,11.1291967 44.722535,11.1999659 C44.6252102,11.2708615 44.5109427,11.3245703 44.3796051,11.3608396 C44.2483949,11.3972352 44.1058471,11.415433 43.9513248,11.415433 C43.6522166,11.415433 43.4001146,11.3531308 43.1956561,11.2287791 L43.1956561,10.8180648 Z" id="Fill-19" fill="#616870"></path>
        <path d="M47.0140764,8.65569835 C46.8519108,8.65569835 46.7052866,8.68337418 46.5740764,8.73897857 C46.4427389,8.79445659 46.3305096,8.87546209 46.236879,8.98174231 C46.1429936,9.08789615 46.0714013,9.21806099 46.0210828,9.37211044 C45.9710191,9.52628626 45.9459236,9.70093462 45.9459236,9.89618187 C45.9459236,10.0800555 45.9710191,10.2457313 46.0210828,10.393083 C46.0714013,10.5404346 46.1423567,10.6669346 46.2340764,10.7722038 C46.3256688,10.8774731 46.4370064,10.9584786 46.5682166,11.0147148 C46.6995541,11.0712038 46.846051,11.0995115 47.0082166,11.0995115 C47.1740764,11.0995115 47.320828,11.0722148 47.4483439,11.0176214 C47.5757325,10.963028 47.6838854,10.8836654 47.7725478,10.7794071 C47.8612102,10.6750225 47.9283439,10.5471324 47.9734395,10.3959896 C48.0190446,10.2447203 48.0415924,10.0723467 48.0415924,9.87912143 C48.0415924,9.48268736 47.9528025,9.17976978 47.7754777,8.97011593 C47.5976433,8.76058846 47.3441401,8.65569835 47.0140764,8.65569835 M46.9850318,11.4154456 C46.7650318,11.4154456 46.5679618,11.3789236 46.3930573,11.3062588 C46.218535,11.2334676 46.0694904,11.1305995 45.9459236,10.9976544 C45.8223567,10.8644566 45.7278344,10.7050995 45.6623567,10.5194566 C45.5964968,10.3336874 45.5636306,10.1279511 45.5636306,9.90199505 C45.5636306,9.65695659 45.598535,9.43769835 45.6682166,9.24447308 C45.7375159,9.05099505 45.836242,8.88683571 45.9646497,8.75186868 C46.0930573,8.61702802 46.2478344,8.51403352 46.4291083,8.44326429 C46.6107643,8.37236868 46.8134395,8.33698407 47.0373885,8.33698407 C47.2515287,8.33698407 47.4443949,8.37186319 47.6161146,8.4417478 C47.7879618,8.51163242 47.9335669,8.61273132 48.0531847,8.74466538 C48.1729299,8.8768522 48.2645223,9.03772582 48.3283439,9.22715989 C48.3919108,9.41659396 48.4238854,9.63206099 48.4238854,9.87330824 C48.4238854,10.1029291 48.3903822,10.3122038 48.3238854,10.5007533 C48.2573885,10.6894291 48.1622293,10.8514401 48.0386624,10.9875445 C47.9150955,11.1233962 47.7649045,11.2286654 47.5873248,11.3034786 C47.4094904,11.378039 47.2088535,11.4154456 46.9850318,11.4154456" id="Fill-20" fill="#616870"></path>
        <path d="M50.4443694,7.34050275 C50.3611847,7.28692033 50.254051,7.26000275 50.1230955,7.26000275 C49.7755796,7.26000275 49.6018217,7.48507418 49.6018217,7.93483791 L49.6018217,8.40595879 L50.340293,8.40595879 L50.340293,8.7274533 L49.6018217,8.7274533 L49.6018217,11.3464203 L49.2315032,11.3464203 L49.2315032,8.7274533 L48.7132866,8.7274533 L48.7132866,8.40595879 L49.2315032,8.40595879 L49.2315032,7.91196429 C49.2315032,7.76461264 49.2501019,7.63090934 49.2878089,7.51123352 C49.3256433,7.39168407 49.3806752,7.28932143 49.4544331,7.20401923 C49.5275541,7.11896978 49.6197834,7.05325549 49.7307389,7.00738187 C49.8418217,6.96138187 49.969465,6.93838187 50.1143057,6.93838187 C50.2530318,6.93838187 50.3630955,6.95657967 50.4443694,6.99297527 L50.4443694,7.34050275 Z" id="Fill-21" fill="#616870"></path>
        <path d="M52.1899873,11.3120846 C52.0625987,11.3751451 51.9234904,11.4068648 51.7729172,11.4068648 C51.2945732,11.4068648 51.0550828,11.1330132 51.0550828,10.5854363 L51.0550828,8.72736484 L50.5340637,8.72736484 L50.5340637,8.40587033 L51.0550828,8.40587033 L51.0550828,7.66506813 L51.4257834,7.54438132 L51.4257834,8.40587033 L52.1899873,8.40587033 L52.1899873,8.72736484 L51.4257834,8.72736484 L51.4257834,10.5279363 C51.4257834,10.7272275 51.4583949,10.8706615 51.5241274,10.958744 C51.5896051,11.0469527 51.7005605,11.0909308 51.857121,11.0909308 C51.9729172,11.0909308 52.0838726,11.0564308 52.1899873,10.9875571 L52.1899873,11.3120846 Z" id="Fill-22" fill="#616870"></path>
        <path d="M53.532051,7.41942308 L53.532051,7.8816978 L53.7549809,7.8816978 C53.8427516,7.8816978 53.9130701,7.86210989 53.9659363,7.82318681 C54.0189299,7.78413736 54.0452994,7.72537363 54.0452994,7.64727473 C54.0452994,7.4955 53.9380382,7.41942308 53.7227516,7.41942308 L53.532051,7.41942308 Z M54.0793121,8.57852198 L53.9237707,8.26031319 C53.8786752,8.1643956 53.8351083,8.09981868 53.7928153,8.06683516 C53.7505223,8.03385165 53.7031338,8.01742308 53.6502675,8.01742308 L53.532051,8.01742308 L53.532051,8.57852198 L53.3682293,8.57852198 L53.3682293,7.28546703 L53.7498854,7.28546703 C53.8940892,7.28546703 54.0075924,7.31642857 54.0909045,7.37847802 C54.1740892,7.4404011 54.216,7.5227967 54.216,7.62553846 C54.216,7.82318681 54.102242,7.94273626 53.8745987,7.98393407 L53.8745987,7.98886264 C53.9402038,8.00453297 54.0121783,8.08288462 54.0909045,8.22353846 L54.2631338,8.57852198 L54.0793121,8.57852198 Z M53.7633885,7.08769231 C53.5256815,7.08769231 53.3233885,7.17299451 53.1562548,7.34321978 C52.989121,7.51357143 52.9055541,7.71817033 52.9055541,7.95701648 C52.9055541,8.19497802 52.9884841,8.39856593 53.1545987,8.56765385 C53.3204586,8.73699451 53.5233885,8.82153846 53.7633885,8.82153846 C54.0040255,8.82153846 54.2095032,8.73699451 54.3795669,8.56765385 C54.5496306,8.39856593 54.6347261,8.19497802 54.6347261,7.95701648 C54.6347261,7.71817033 54.5492484,7.51357143 54.3789299,7.34321978 C54.2083567,7.17299451 54.0031338,7.08769231 53.7633885,7.08769231 L53.7633885,7.08769231 Z M53.7701401,8.95903297 C53.4884841,8.95903297 53.249121,8.86121978 53.0516688,8.66584615 C52.8539618,8.47021978 52.7552357,8.23402747 52.7552357,7.95701648 C52.7552357,7.67684615 52.8547261,7.43888462 53.0533248,7.24351099 C53.252051,7.04813736 53.4905223,6.95045055 53.7682293,6.95045055 C54.0475924,6.95045055 54.2867006,7.04826374 54.4860637,7.2443956 C54.6854268,7.4404011 54.7847898,7.67621429 54.7847898,7.95208791 C54.7847898,8.23137363 54.6861911,8.46895604 54.4886115,8.66483516 C54.2909045,8.86084066 54.0515414,8.95903297 53.7701401,8.95903297 L53.7701401,8.95903297 Z" id="Fill-23" fill="#616870"></path>
        <path d="M23.1523057,5.09317527 L10.591414,6.80616978 L10.591414,15.9851918 L23.1523057,15.9851918 L23.1523057,5.09317527 Z M0.10733758,8.23507637 L0.107847134,15.9851918 L9.54682803,15.9851918 L9.54682803,6.94796099 L0.10733758,8.23507637 Z M10.591414,17.1417632 L10.591414,26.2182962 L23.1523057,27.9292687 L23.1523057,17.1417632 L10.591414,17.1417632 Z M9.54682803,17.1422687 L9.54682803,17.1417632 L9.54682803,17.1422687 Z M0.107847134,17.1422687 L0.108356688,24.790906 L9.54682803,26.0759995 L9.54682803,17.1422687 L0.107847134,17.1422687 Z" id="Fill-25" fill="#616870"></path>
    </g>
</svg>
