<?xml version="1.0" encoding="UTF-8" standalone="no"?>
<svg
   version="1.1"
   x="0"
   y="0"
   width="80"
   height="32"
   viewBox="0 0 80 32"
   id="svg9"
   sodipodi:docname="libvirt-32-white.svg"
   inkscape:version="1.4.3 (0d15f75, 2025-12-25)"
   xmlns:inkscape="http://www.inkscape.org/namespaces/inkscape"
   xmlns:sodipodi="http://sodipodi.sourceforge.net/DTD/sodipodi-0.dtd"
   xmlns="http://www.w3.org/2000/svg"
   xmlns:svg="http://www.w3.org/2000/svg">
  <defs
     id="defs13" />
  <sodipodi:namedview
     id="namedview11"
     pagecolor="#ffffff"
     bordercolor="#666666"
     borderopacity="1.0"
     inkscape:pageshadow="2"
     inkscape:pageopacity="0.0"
     inkscape:pagecheckerboard="true"
     showgrid="false"
     inkscape:zoom="7.1928809"
     inkscape:cx="33.227298"
     inkscape:cy="-0.13902635"
     inkscape:window-width="1440"
     inkscape:window-height="783"
     inkscape:window-x="0"
     inkscape:window-y="30"
     inkscape:window-maximized="0"
     inkscape:current-layer="g23"
     inkscape:showpageshadow="2"
     inkscape:deskcolor="#d1d1d1" />
  <g
     id="g20"
     style="display:inline">
    <g
       id="g19">
      <g
         id="g26">
        <g
           id="g25">
          <g
             id="g24">
            <g
               id="g23">
              <g
                 id="g1">
                <path
                   d="m 31.869939,13.610529 c -0.166318,0.115112 -0.388896,0.115112 -0.555624,0 -0.272679,-0.18872 -0.298961,-0.583275 -0.07884,-0.811363 0.195475,-0.210971 0.517844,-0.210971 0.713317,-4.29e-4 0.219705,0.228517 0.193011,0.623072 -0.07884,0.811792 m 0.795041,-1.149858 c 0.31703,1.405334 -0.895243,2.669021 -2.243855,2.338657 -0.686625,-0.16775 -1.231572,-0.735618 -1.392963,-1.450696 -0.316209,-1.404477 0.895653,-2.66731 2.243853,-2.338229 0.686215,0.167322 1.231574,0.734762 1.392965,1.450268 m -9.080546,7.558163 c 0.153999,0.230657 0.282125,0.45361 0.353991,0.676563 0.05093,0.158337 0.116217,0.367167 0.266108,0.451043 0.0082,0.0047 0.01561,0.009 0.02464,0.01156 0.275143,0.10442 0.982713,0.08687 0.982713,0.08687 h 1.301385 c 0.111289,0.0017 1.089074,-0.0012 1.064434,-0.115114 -0.11786,-0.54476 -0.722353,-0.642329 -1.182705,-0.927332 -0.424212,-0.263607 -0.826661,-0.562304 -1.008994,-1.076253 -0.09528,-0.265319 -0.03901,-0.877265 0.12484,-1.100217 0.119502,-0.161331 0.295677,-0.268315 0.484992,-0.311536 0.209847,-0.04665 0.427498,-0.0064 0.637346,0.01583 0.258716,0.02739 0.514148,0.07617 0.772044,0.109545 0.497721,0.06762 1.000369,0.09457 1.502199,0.08045 0.828302,-0.02396 1.658661,-0.161331 2.443845,-0.440344 0.548233,-0.191714 1.088251,-0.451041 1.554353,-0.81179 0.529753,-0.410388 0.390538,-0.371874 -0.146606,-0.31453 -0.643095,0.06847 -1.291941,0.07873 -1.937089,0.03894 -0.60203,-0.03638 -1.195847,-0.110413 -1.740383,-0.401829 -0.42873,-0.230657 -0.797094,-0.461741 -1.137121,-0.819065 -0.05093,-0.05392 -0.08254,-0.2114 0.01066,-0.311964 0.09034,-0.09757 0.281713,-0.04109 0.340439,0.01115 0.592994,0.516517 1.477559,0.941883 2.393333,0.988099 0.495257,0.02567 0.976964,0.03509 1.472632,0.01284 0.247629,-0.01199 0.62133,-0.01025 0.869781,-0.01284 0.128126,-0.0017 0.477598,0.0368 0.542894,-0.104847 0.01971,-0.04109 0.01806,-0.08858 0.01643,-0.1348 -0.07269,-2.065207 -0.219293,-4.394451 -2.293133,-5.381694 -1.547372,-0.7373295 -3.867197,-1.8794839 -4.847036,-2.3532067 -0.227095,-0.1125466 -0.492793,0.065474 -0.492793,0.3290809 0,0.689829 0.03367,1.6809233 0.03409,2.5830078 C 25.52235,10.298324 24.731827,9.9837944 24.129386,9.6953656 23.445226,9.3684247 22.738887,9.0911242 22.02023,8.8578995 20.573472,8.3910246 19.076199,8.1034527 17.570304,7.9476848 15.862364,7.7700931 14.125679,7.8552516 12.444021,8.2172833 9.6745223,8.8155346 6.9522474,10.203324 4.8857999,12.233013 3.6172674,13.4783 2.6218246,15.248661 2.5544761,17.045555 c -0.096095,2.543209 0.5876562,3.908745 1.8442801,5.316219 2.004027,2.243229 6.3172028,2.557332 8.0641548,-0.102708 0.786005,-1.197354 0.95643,-2.821363 0.386022,-4.144961 -0.570407,-1.322742 -1.881649,-2.278747 -3.2717377,-2.327531 -1.0788066,-0.03723 -2.2282484,0.534489 -2.6417843,1.573941 -0.3153879,0.793815 -0.1359293,1.774639 0.4385863,2.390864 0.2238112,0.240499 0.5268788,0.437349 0.8578733,0.36032 0.195063,-0.04535 0.3580958,-0.198133 0.3876632,-0.404397 0.043533,-0.304262 -0.2119015,-0.501538 -0.3691843,-0.73519 -0.2837673,-0.421515 -0.226274,-1.054429 0.1289473,-1.412609 0.2997835,-0.302548 0.7437078,-0.391987 1.1609395,-0.390703 0.388486,8.76e-4 0.7855937,0.07318 1.1206937,0.277301 0.471028,0.288855 0.783952,0.817781 0.892368,1.376662 0.32319,1.670225 -0.979839,3.027203 -2.7465023,3.133759 C 7.9029281,22.012151 6.9830444,21.764805 6.2775289,21.172973 4.4907418,19.675206 4.0529769,16.613768 6.095195,14.97949 c 1.9387325,-1.551259 4.386273,-1.151571 5.829338,-0.345342 1.154779,0.644895 2.015524,1.70018 2.667655,2.866727 0.327295,0.586697 0.606135,1.199925 0.864851,1.822569 0.248861,0.598679 0.481708,1.202066 0.979838,1.640698 0.329761,0.290995 0.736726,0.280724 1.168742,0.280724 h 2.466021 c 0.3351,0 0.253378,-0.232796 0.10882,-0.386852 -0.326887,-0.348338 -0.796683,-0.427078 -1.231572,-0.551607 -0.994212,-0.285003 -0.892778,-1.656531 -0.617636,-1.656531 0.888672,0 0.916598,0.02781 1.69521,0.01754 1.123568,-0.01627 1.463598,-0.0843 2.342411,0.254193 0.469798,0.181443 0.921113,0.659874 1.215557,1.097221"
                   fill="#30ba78"
                   id="path3"
                   style="fill:#ffffff;fill-opacity:1;stroke-width:0.878444" />
                <text
                   xml:space="preserve"
                   style="font-size:5.922px;writing-mode:lr-tb;direction:ltr;fill:#616870;fill-opacity:1;fill-rule:evenodd;stroke-width:0.878001;stroke-dasharray:none;stroke-opacity:0.496255"
                   x="78.529602"
                   y="27.476421"
                   id="text35"
                   transform="scale(1.0271568,0.9735612)"><tspan
                     sodipodi:role="line"
                     id="tspan35"
                     x="78.529602"
                     y="27.476421"
                     style="fill:#616870;fill-opacity:1;stroke-width:0.878001" /></text>
                <text
                   xml:space="preserve"
                   style="font-style:normal;font-variant:normal;font-weight:normal;font-stretch:normal;font-size:9.62452px;font-family:Arial;-inkscape-font-specification:'Arial, Normal';font-variant-ligatures:normal;font-variant-caps:normal;font-variant-numeric:normal;font-variant-east-asian:normal;writing-mode:lr-tb;direction:ltr;fill:#ffffff;fill-opacity:1;stroke-width:0.878001;stroke-opacity:0.496255"
                   x="45.102673"
                   y="16.230753"
                   id="text1"
                   transform="scale(0.79912761,1.2513646)"><tspan
                     sodipodi:role="line"
                     id="tspan1"
                     x="45.102673"
                     y="16.230753"
                     style="font-style:normal;font-variant:normal;font-weight:normal;font-stretch:normal;font-size:9.62452px;font-family:Arial;-inkscape-font-specification:'Arial, Normal';font-variant-ligatures:normal;font-variant-caps:normal;font-variant-numeric:normal;font-variant-east-asian:normal;fill:#ffffff;fill-opacity:1;stroke-width:0.878001">SUSE Linux</tspan></text>
                <text
                   xml:space="preserve"
                   style="font-size:11.8439px;font-family:Sans;-inkscape-font-specification:'Sans, Normal';writing-mode:lr-tb;direction:ltr;fill:#616870;fill-opacity:1;stroke-width:0.878001;stroke-opacity:0.496255"
                   x="67.660172"
                   y="17.96567"
                   id="text2"
                   transform="scale(1.0271568,0.9735612)"><tspan
                     sodipodi:role="line"
                     id="tspan2"
                     x="67.660172"
                     y="17.96567"
                     style="fill:#616870;fill-opacity:1;stroke-width:0.878001" /></text>
                <text
                   xml:space="preserve"
                   style="font-size:11.8439px;font-family:Sans;-inkscape-font-specification:'Sans, Normal';writing-mode:lr-tb;direction:ltr;fill:#616870;fill-opacity:1;stroke-width:0.878001;stroke-opacity:0.496255"
                   x="139.50031"
                   y="69.425629"
                   id="text3"
                   transform="scale(1.0271568,0.9735612)"><tspan
                     sodipodi:role="line"
                     id="tspan3"
                     x="139.50031"
                     y="69.425629"
                     style="fill:#616870;fill-opacity:1;stroke-width:0.878001" /></text>
              </g>
            </g>
          </g>
        </g>
      </g>
    </g>
  </g>
</svg>
