<?xml version="1.0" encoding="UTF-8" standalone="no"?>
<svg
   version="1.1"
   x="0"
   y="0"
   width="105"
   height="42"
   viewBox="0 0 105 42"
   id="svg9"
   sodipodi:docname="libvirt-42.svg"
   inkscape:version="1.4.3 (0d15f75, 2025-12-25)"
   xmlns:inkscape="http://www.inkscape.org/namespaces/inkscape"
   xmlns:sodipodi="http://sodipodi.sourceforge.net/DTD/sodipodi-0.dtd"
   xmlns="http://www.w3.org/2000/svg"
   xmlns:svg="http://www.w3.org/2000/svg">
  <defs
     id="defs13" />
  <sodipodi:namedview
     id="namedview11"
     pagecolor="#ffffff"
     bordercolor="#666666"
     borderopacity="1.0"
     inkscape:pageshadow="2"
     inkscape:pageopacity="0.0"
     inkscape:pagecheckerboard="0"
     showgrid="false"
     inkscape:zoom="7.3691235"
     inkscape:cx="53.194929"
     inkscape:cy="20.490904"
     inkscape:window-width="1440"
     inkscape:window-height="783"
     inkscape:window-x="0"
     inkscape:window-y="30"
     inkscape:window-maximized="0"
     inkscape:current-layer="g23"
     inkscape:showpageshadow="2"
     inkscape:deskcolor="#d1d1d1" />
  <g
     id="g20"
     style="display:inline">
    <g
       id="g19">
      <g
         id="g26">
        <g
           id="g25">
          <g
             id="g24">
            <g
               id="g23">
              <g
                 id="g2">
                <g
                   id="g1"
                   transform="translate(-0.26549021)">
                  <path
                     d="m 45.635687,17.599385 c -0.242179,0.163826 -0.566284,0.163826 -0.809065,0 -0.397057,-0.268579 -0.435326,-0.8301 -0.114817,-1.15471 0.284639,-0.300248 0.754053,-0.300248 1.038688,-6.09e-4 0.319922,0.325219 0.281051,0.88674 -0.114817,1.155319 m 1.157689,-1.636447 c 0.46164,2.000033 -1.303596,3.798481 -3.26736,3.328315 -0.999819,-0.238738 -1.793337,-1.046912 -2.028342,-2.064591 -0.460444,-1.998816 1.304192,-3.796045 3.267355,-3.327706 0.999225,0.238129 1.79334,1.045694 2.028347,2.063982 M 33.570873,26.719515 c 0.224244,0.328264 0.410814,0.645566 0.515459,0.962867 0.07416,0.22534 0.169228,0.522542 0.387489,0.641912 0.01187,0.0067 0.02274,0.01279 0.03589,0.01644 0.400646,0.148601 1.430965,0.123631 1.430965,0.123631 h 1.894995 c 0.162052,0.0024 1.585841,-0.0018 1.549962,-0.163827 -0.17162,-0.775287 -1.051845,-0.914145 -1.722179,-1.319755 -0.617713,-0.375158 -1.203732,-0.800256 -1.469235,-1.531694 -0.13873,-0.377595 -0.05682,-1.248499 0.181783,-1.5658 0.174014,-0.229602 0.430547,-0.381858 0.706216,-0.443369 0.305567,-0.06639 0.622497,-0.0092 0.928063,0.02254 0.376728,0.03898 0.74867,0.10841 1.124199,0.155911 0.724751,0.09623 1.456677,0.134593 2.187411,0.114492 1.206122,-0.03411 2.415235,-0.229602 3.558571,-0.626686 0.798301,-0.272843 1.584643,-0.641911 2.263349,-1.155317 0.771394,-0.584056 0.568677,-0.529243 -0.213477,-0.447633 -0.936435,0.09744 -1.881243,0.112061 -2.820668,0.05542 -0.876637,-0.05177 -1.741313,-0.157128 -2.534235,-0.571873 -0.62429,-0.328265 -1.160675,-0.657137 -1.655804,-1.165673 -0.07415,-0.07674 -0.12019,-0.300857 0.01554,-0.443978 0.131555,-0.138858 0.410213,-0.05846 0.495724,0.01583 0.863481,0.735092 2.151527,1.340461 3.485022,1.406236 0.721161,0.03655 1.422592,0.04994 2.14435,0.01827 0.360584,-0.01705 0.904741,-0.01462 1.266521,-0.01827 0.186568,-0.0024 0.69545,0.05238 0.790528,-0.149211 0.0287,-0.05846 0.02631,-0.126068 0.02393,-0.191842 -0.105857,-2.939149 -0.319326,-6.254065 -3.33912,-7.659083 -2.253185,-1.049349 -5.631167,-2.674832 -7.057947,-3.3490212 -0.330681,-0.1601732 -0.717573,0.093177 -0.717573,0.4683389 0,0.9817463 0.04903,2.3922453 0.04963,3.6760663 C 36.392737,12.885536 35.241626,12.437904 34.36439,12.027423 33.368157,11.562129 32.339632,11.167482 31.29317,10.835562 29.186487,10.171117 27.006256,9.7618524 24.813466,9.5401674 22.326477,9.2874243 19.797623,9.4086191 17.348899,9.923853 c -4.032771,0.851416 -7.9967725,2.826479 -11.0058031,5.715079 -1.8471573,1.77226 -3.2966571,4.291791 -3.3947257,6.849081 -0.139927,3.619428 0.8557077,5.562823 2.6855238,7.565902 2.9181365,3.192504 9.198709,3.639527 11.742511,-0.146165 1.144533,-1.704049 1.392693,-4.015294 0.562102,-5.899004 -0.830595,-1.882493 -2.739945,-3.243052 -4.764102,-3.312481 -1.570891,-0.05298 -3.2446346,0.760672 -3.8467987,2.23999 -0.459249,1.129739 -0.197932,2.525621 0.6386421,3.402615 0.3258976,0.342271 0.7672066,0.622424 1.2491786,0.512799 0.284039,-0.06456 0.521437,-0.281979 0.56449,-0.575529 0.06338,-0.433015 -0.308556,-0.713775 -0.537581,-1.046301 -0.413205,-0.59989 -0.329487,-1.500635 0.187766,-2.010387 0.436524,-0.430581 1.082939,-0.557867 1.690485,-0.55604 0.565688,0.0012 1.143934,0.104146 1.631883,0.394648 0.685883,0.411091 1.141543,1.163843 1.299409,1.959229 0.47061,2.37702 -1.426778,4.308235 -3.999283,4.459882 -1.316155,0.07917 -2.6556281,-0.272846 -3.6829558,-1.115125 -2.6018074,-2.131583 -3.2392525,-6.488539 -0.2655029,-8.814402 2.8230587,-2.20771 6.3870147,-1.638883 8.4883117,-0.491481 1.681516,0.917798 2.934879,2.419651 3.884469,4.07985 0.476591,0.834972 0.88262,1.707702 1.259344,2.593833 0.362377,0.852023 0.701433,1.710746 1.426778,2.334996 0.480178,0.414137 1.072774,0.399519 1.701848,0.399519 h 3.590864 c 0.487951,0 0.368954,-0.331308 0.158465,-0.550556 -0.475991,-0.495746 -1.160079,-0.607806 -1.793338,-0.785032 -1.447707,-0.405609 -1.300007,-2.357532 -0.899361,-2.357532 1.294027,0 1.334689,0.03959 2.468458,0.02497 1.636068,-0.02315 2.131196,-0.119977 3.41087,0.361761 0.684088,0.258225 1.341269,0.939115 1.770017,1.561536"
                     fill="#30ba78"
                     id="path3"
                     style="fill:#616870;fill-opacity:1;stroke-width:0.878443" />
                </g>
                <text
                   xml:space="preserve"
                   style="font-size:11.1344px;writing-mode:lr-tb;direction:ltr;fill:#616870;fill-opacity:1;fill-rule:evenodd;stroke-width:0.877998;stroke-dasharray:none;stroke-opacity:0.496255"
                   x="150.41267"
                   y="47.283295"
                   id="text35"
                   transform="scale(0.77019517,1.2983722)"><tspan
                     sodipodi:role="line"
                     id="tspan35"
                     x="150.41267"
                     y="47.283295"
                     style="fill:#616870;fill-opacity:1;stroke-width:0.877998" /></text>
                <text
                   xml:space="preserve"
                   style="font-style:normal;font-variant:normal;font-weight:normal;font-stretch:normal;font-size:11.78px;font-family:Arial;-inkscape-font-specification:'Arial, Normal';font-variant-ligatures:normal;font-variant-caps:normal;font-variant-numeric:normal;font-variant-east-asian:normal;writing-mode:lr-tb;direction:ltr;fill:#616870;fill-opacity:1;stroke-width:0.877997;stroke-opacity:0.496255"
                   x="61.975822"
                   y="21.352449"
                   id="text1"
                   transform="scale(0.81601271,1.2254711)"><tspan
                     sodipodi:role="line"
                     id="tspan1"
                     x="61.975822"
                     y="21.352449"
                     style="font-style:normal;font-variant:normal;font-weight:normal;font-stretch:normal;font-size:11.78px;font-family:Arial;-inkscape-font-specification:'Arial, Normal';font-variant-ligatures:normal;font-variant-caps:normal;font-variant-numeric:normal;font-variant-east-asian:normal;fill:#616870;fill-opacity:1;stroke-width:0.877997">SUSE Linux</tspan></text>
                <text
                   xml:space="preserve"
                   style="font-size:22.2689px;font-family:Sans;-inkscape-font-specification:'Sans, Normal';writing-mode:lr-tb;direction:ltr;fill:#616870;fill-opacity:1;stroke-width:0.877998;stroke-opacity:0.496255"
                   x="129.97615"
                   y="29.401348"
                   id="text2"
                   transform="scale(0.77019517,1.2983722)"><tspan
                     sodipodi:role="line"
                     id="tspan2"
                     x="129.97615"
                     y="29.401348"
                     style="fill:#616870;fill-opacity:1;stroke-width:0.877998" /></text>
                <text
                   xml:space="preserve"
                   style="font-size:22.2689px;font-family:Sans;-inkscape-font-specification:'Sans, Normal';writing-mode:lr-tb;direction:ltr;fill:#616870;fill-opacity:1;stroke-width:0.877998;stroke-opacity:0.496255"
                   x="265.04874"
                   y="126.15546"
                   id="text3"
                   transform="scale(0.77019517,1.2983722)"><tspan
                     sodipodi:role="line"
                     id="tspan3"
                     x="265.04874"
                     y="126.15546"
                     style="fill:#616870;fill-opacity:1;stroke-width:0.877998" /></text>
                <text
                   xml:space="preserve"
                   style="font-size:11.1344px;writing-mode:lr-tb;direction:ltr;fill:#616870;fill-opacity:1;fill-rule:evenodd;stroke-width:0.877998;stroke-dasharray:none;stroke-opacity:0.496255"
                   x="150.35132"
                   y="47.282822"
                   id="text4"
                   transform="scale(0.77019517,1.2983722)"><tspan
                     sodipodi:role="line"
                     id="tspan4"
                     x="150.35132"
                     y="47.282822"
                     style="fill:#616870;fill-opacity:1;stroke-width:0.877998" /></text>
                <text
                   xml:space="preserve"
                   style="font-size:22.2689px;font-family:Sans;-inkscape-font-specification:'Sans, Normal';writing-mode:lr-tb;direction:ltr;fill:#616870;fill-opacity:1;stroke-width:0.877998;stroke-opacity:0.496255"
                   x="129.91479"
                   y="29.400879"
                   id="text6"
                   transform="scale(0.77019517,1.2983722)"><tspan
                     sodipodi:role="line"
                     id="tspan6"
                     x="129.91479"
                     y="29.400879"
                     style="fill:#616870;fill-opacity:1;stroke-width:0.877998" /></text>
                <text
                   xml:space="preserve"
                   style="font-size:22.2689px;font-family:Sans;-inkscape-font-specification:'Sans, Normal';writing-mode:lr-tb;direction:ltr;fill:#616870;fill-opacity:1;stroke-width:0.877998;stroke-opacity:0.496255"
                   x="264.98737"
                   y="126.15499"
                   id="text7"
                   transform="scale(0.77019517,1.2983722)"><tspan
                     sodipodi:role="line"
                     id="tspan7"
                     x="264.98737"
                     y="126.15499"
                     style="fill:#616870;fill-opacity:1;stroke-width:0.877998" /></text>
              </g>
            </g>
          </g>
        </g>
      </g>
    </g>
  </g>
</svg>
