<?xml version="1.0" encoding="UTF-8" standalone="no"?>
<svg
   version="1.1"
   x="0"
   y="0"
   width="185"
   height="128"
   viewBox="0 0 185 128"
   id="svg9"
   sodipodi:docname="libvirt-128 copy.svg"
   inkscape:version="1.4.3 (0d15f75, 2025-12-25)"
   xmlns:inkscape="http://www.inkscape.org/namespaces/inkscape"
   xmlns:sodipodi="http://sodipodi.sourceforge.net/DTD/sodipodi-0.dtd"
   xmlns="http://www.w3.org/2000/svg"
   xmlns:svg="http://www.w3.org/2000/svg">
  <defs
     id="defs13" />
  <sodipodi:namedview
     id="namedview11"
     pagecolor="#ffffff"
     bordercolor="#666666"
     borderopacity="1.0"
     inkscape:pageshadow="2"
     inkscape:pageopacity="0.0"
     inkscape:pagecheckerboard="true"
     showgrid="false"
     inkscape:zoom="3.1154347"
     inkscape:cx="113.94879"
     inkscape:cy="53.283094"
     inkscape:window-width="1440"
     inkscape:window-height="783"
     inkscape:window-x="0"
     inkscape:window-y="30"
     inkscape:window-maximized="0"
     inkscape:current-layer="g15"
     inkscape:showpageshadow="2"
     inkscape:deskcolor="#d1d1d1" />
  <g
     id="g20"
     style="display:inline">
    <g
       id="g19">
      <g
         id="g26">
        <g
           id="g25">
          <g
             id="g24">
            <g
               id="g23">
              <g
                 id="g15"
                 transform="translate(0.00116769)">
                <g
                   id="g2">
                  <path
                     d="m 150.28991,34.109016 c -0.69642,0.522603 -1.62843,0.522603 -2.32659,0 -1.1418,-0.856757 -1.25183,-2.647983 -0.33014,-3.683478 0.81852,-0.957784 2.16838,-0.957784 2.98689,-0.0019 0.91998,1.03744 0.8082,2.828667 -0.33016,3.685424 m 3.3291,-5.2202 c 1.3275,6.380028 -3.74867,12.117008 -9.39577,10.617195 -2.87513,-0.761561 -5.15701,-3.339609 -5.8328,-6.585963 -1.32408,-6.376148 3.7504,-12.109244 9.39576,-10.615258 2.87342,0.759619 5.15701,3.335723 5.83281,6.584026 m -38.02329,34.313076 c 0.64484,1.04715 1.18135,2.059331 1.48228,3.07151 0.21323,0.718826 0.48663,1.666892 1.11428,2.047673 0.0344,0.0214 0.0653,0.04083 0.10318,0.05248 1.15212,0.474035 4.11495,0.394379 4.11495,0.394379 h 5.44933 c 0.46601,0.0078 4.56033,-0.0058 4.45716,-0.5226 -0.49353,-2.473139 -3.02474,-2.916088 -4.95239,-4.209968 -1.77632,-1.196743 -3.46152,-2.552789 -4.225,-4.886051 -0.39894,-1.204514 -0.16338,-3.982663 0.52274,-4.994839 0.50042,-0.732421 1.23811,-1.218116 2.03082,-1.414333 0.87872,-0.211759 1.79009,-0.0292 2.6688,0.07182 1.08332,0.124332 2.1529,0.345806 3.2328,0.497346 2.08412,0.306956 4.18889,0.42935 6.29021,0.36524 3.4684,-0.108788 6.94538,-0.73242 10.23321,-1.999102 2.29563,-0.870363 4.55687,-2.047675 6.50858,-3.685423 2.21826,-1.86311 1.63532,-1.688261 -0.61387,-1.427931 -2.69285,0.310838 -5.40979,0.357469 -8.11124,0.176796 -2.52089,-0.16514 -5.00741,-0.501231 -7.28757,-1.824255 -1.79524,-1.04715 -3.33771,-2.096241 -4.76151,-3.718449 -0.21323,-0.244785 -0.34565,-0.959726 0.0448,-1.416274 0.3783,-0.442951 1.17962,-0.186503 1.42552,0.0505 2.48308,2.344915 6.18707,4.276025 10.02171,4.485844 2.0738,0.116573 4.09087,0.159297 6.1664,0.05823 1.0369,-0.05445 2.60171,-0.04656 3.64205,-0.05823 0.53651,-0.0078 1.99989,0.167083 2.27329,-0.475978 0.0825,-0.186506 0.0757,-0.402153 0.0687,-0.611971 -0.30428,-9.375815 -0.91818,-19.950273 -9.60203,-24.432227 -6.47937,-3.347381 -16.19327,-8.532614 -20.29619,-10.6832529 -0.95091,-0.510947 -2.06348,0.297242 -2.06348,1.493984 0,3.1317339 0.141,7.6311749 0.14272,11.7265179 -1.96547,-2.261298 -5.27566,-3.689225 -7.79828,-4.99865 -2.86481,-1.484269 -5.82248,-2.743179 -8.83175,-3.801989 C 102.98786,10.413184 96.718284,9.1076451 90.412599,8.4004791 83.260879,7.5942361 75.988788,7.9808441 68.947125,9.6244221 57.350251,12.340404 45.951178,18.640783 37.298266,27.85531 c -5.311774,5.653439 -9.480027,13.690649 -9.762038,21.848312 -0.40238,11.545838 2.460715,17.745197 7.722622,24.134943 8.391533,10.183967 26.452247,11.609953 33.76733,-0.466263 3.291271,-5.435851 4.004894,-12.808637 1.616402,-18.817603 -2.388491,-6.00508 -7.879101,-10.345214 -13.699869,-10.56669 -4.517328,-0.16901 -9.330425,2.426512 -11.062038,7.145488 -1.320637,3.603823 -0.569181,8.056637 1.836508,10.854213 0.937169,1.091835 2.206216,1.985509 3.592198,1.635809 0.816798,-0.205923 1.499471,-0.899499 1.623279,-1.835916 0.182268,-1.381302 -0.887301,-2.276914 -1.545898,-3.337661 -1.188231,-1.913623 -0.947487,-4.786971 0.539947,-6.41306 1.25529,-1.373537 3.114154,-1.779575 4.861243,-1.773744 1.62672,0.004 3.289551,0.332206 4.692722,1.258908 1.972358,1.311369 3.282674,3.712621 3.736643,6.24987 1.353307,7.582604 -4.102912,13.743105 -11.500531,14.226853 -3.784817,0.252555 -7.636672,-0.870366 -10.590904,-3.557208 -7.481879,-6.799668 -9.314947,-20.698197 -0.763494,-28.117608 8.118125,-7.042512 18.366803,-5.227977 24.409397,-1.567805 4.835449,2.927741 8.43968,7.718594 11.170371,13.014569 1.370502,2.663527 2.538097,5.447504 3.621427,8.274226 1.042063,2.717924 2.017066,5.457218 4.10291,7.448553 1.380821,1.321079 3.084925,1.274448 4.893912,1.274448 h 10.326055 c 1.40319,0 1.06098,-1.056858 0.45569,-1.756253 -1.368776,-1.58141 -3.335976,-1.938879 -5.156999,-2.504221 -4.1631,-1.293881 -3.738362,-7.520438 -2.58625,-7.520438 3.721163,0 3.838093,0.126281 7.098409,0.07968 4.70476,-0.07378 6.12857,-0.382723 9.80846,1.154006 1.96719,0.823726 3.85701,2.995739 5.08995,4.981239"
                     fill="#30ba78"
                     id="path3"
                     style="fill:#a4aab5;fill-opacity:1;stroke-width:0.878444" />
                  <text
                     xml:space="preserve"
                     style="font-size:12.3311px;writing-mode:lr-tb;direction:ltr;fill:#a4aab5;fill-opacity:1;fill-rule:evenodd;stroke-width:0.878;stroke-dasharray:none;stroke-opacity:0.496255"
                     x="151.01047"
                     y="49.990891"
                     id="text35"
                     transform="scale(1.0551482,0.94773417)"><tspan
                       sodipodi:role="line"
                       id="tspan35"
                       x="151.01047"
                       y="49.990891"
                       style="fill:#a4aab5;fill-opacity:1;stroke-width:0.878" /></text>
                  <text
                     xml:space="preserve"
                     style="font-style:normal;font-variant:normal;font-weight:normal;font-stretch:normal;font-size:24.1903px;font-family:sans-serif;-inkscape-font-specification:'sans-serif, Normal';font-variant-ligatures:normal;font-variant-caps:normal;font-variant-numeric:normal;font-variant-east-asian:normal;writing-mode:lr-tb;direction:ltr;fill:#a4aab5;fill-opacity:1;stroke-width:0.877999;stroke-opacity:0.496255"
                     x="27.464817"
                     y="113.27608"
                     id="text1"
                     transform="scale(0.94667844,1.0563249)"><tspan
                       sodipodi:role="line"
                       id="tspan1"
                       x="27.464817"
                       y="113.27608"
                       style="font-style:normal;font-variant:normal;font-weight:normal;font-stretch:normal;font-size:24.1903px;font-family:sans-serif;-inkscape-font-specification:'sans-serif, Normal';font-variant-ligatures:normal;font-variant-caps:normal;font-variant-numeric:normal;font-variant-east-asian:normal;fill:#a4aab5;fill-opacity:1;stroke-width:0.877999">SUSE Linux</tspan></text>
                  <text
                     xml:space="preserve"
                     style="font-size:24.6635px;font-family:Sans;-inkscape-font-specification:'Sans, Normal';writing-mode:lr-tb;direction:ltr;fill:#a4aab5;fill-opacity:1;stroke-width:0.878;stroke-opacity:0.496255"
                     x="128.3766"
                     y="30.186279"
                     id="text2"
                     transform="scale(1.0551482,0.94773417)"><tspan
                       sodipodi:role="line"
                       id="tspan2"
                       x="128.3766"
                       y="30.186279"
                       style="fill:#a4aab5;fill-opacity:1;stroke-width:0.878" /></text>
                  <text
                     xml:space="preserve"
                     style="font-size:24.6635px;font-family:Sans;-inkscape-font-specification:'Sans, Normal';writing-mode:lr-tb;direction:ltr;fill:#a4aab5;fill-opacity:1;stroke-width:0.878;stroke-opacity:0.496255"
                     x="277.9722"
                     y="137.3434"
                     id="text3"
                     transform="scale(1.0551482,0.94773417)"><tspan
                       sodipodi:role="line"
                       id="tspan3"
                       x="277.9722"
                       y="137.3434"
                       style="fill:#a4aab5;fill-opacity:1;stroke-width:0.878" /></text>
                </g>
              </g>
            </g>
          </g>
        </g>
      </g>
    </g>
  </g>
</svg>
