<?xml version="1.0" encoding="UTF-8" standalone="no"?>
<svg
   version="1.1"
   x="0"
   y="0"
   width="80"
   height="32"
   viewBox="0 0 80 32"
   id="svg9"
   sodipodi:docname="libvirt-32.svg"
   inkscape:version="1.4.3 (0d15f75, 2025-12-25)"
   xmlns:inkscape="http://www.inkscape.org/namespaces/inkscape"
   xmlns:sodipodi="http://sodipodi.sourceforge.net/DTD/sodipodi-0.dtd"
   xmlns="http://www.w3.org/2000/svg"
   xmlns:svg="http://www.w3.org/2000/svg">
  <defs
     id="defs13" />
  <sodipodi:namedview
     id="namedview11"
     pagecolor="#ffffff"
     bordercolor="#666666"
     borderopacity="1.0"
     inkscape:pageshadow="2"
     inkscape:pageopacity="0.0"
     inkscape:pagecheckerboard="0"
     showgrid="false"
     inkscape:zoom="10.376986"
     inkscape:cx="43.172459"
     inkscape:cy="15.129634"
     inkscape:window-width="1440"
     inkscape:window-height="783"
     inkscape:window-x="0"
     inkscape:window-y="30"
     inkscape:window-maximized="0"
     inkscape:current-layer="g23"
     inkscape:showpageshadow="2"
     inkscape:deskcolor="#d1d1d1" />
  <g
     id="g20"
     style="display:inline">
    <g
       id="g19">
      <g
         id="g26">
        <g
           id="g25">
          <g
             id="g24">
            <g
               id="g23">
              <g
                 id="g1"
                 transform="matrix(1.1219736,0,0,1.1265472,-4.8789442,-2.0247605)"
                 style="stroke-width:0.889476">
                <path
                   d="m 32.713191,13.878948 c -0.148237,0.102182 -0.346618,0.102182 -0.495221,0 -0.243035,-0.16752 -0.26646,-0.517754 -0.07027,-0.720221 0.174225,-0.187272 0.461548,-0.187272 0.63577,-3.8e-4 0.19582,0.202847 0.172028,0.553081 -0.07027,0.720601 m 0.70861,-1.020692 c 0.282564,1.24747 -0.797918,2.369205 -1.999918,2.075951 -0.61198,-0.148906 -1.097684,-0.652984 -1.241529,-1.287736 -0.281833,-1.24671 0.798283,-2.367686 1.999916,-2.075571 0.611614,0.148526 1.097685,0.652224 1.241531,1.287356 m -8.093367,6.70914 c 0.137257,0.204747 0.251454,0.402655 0.315507,0.600564 0.04539,0.14055 0.103583,0.325922 0.237179,0.400376 0.0073,0.0042 0.01391,0.008 0.02196,0.01026 0.245231,0.09269 0.875879,0.07711 0.875879,0.07711 h 1.159907 c 0.09919,0.0015 0.970677,-0.0011 0.948716,-0.102183 -0.105047,-0.483566 -0.643824,-0.570175 -1.054129,-0.823163 -0.378095,-0.233996 -0.736792,-0.49914 -0.899303,-0.955356 -0.08492,-0.235515 -0.03477,-0.77872 0.111268,-0.976627 0.106511,-0.143209 0.263533,-0.238175 0.432267,-0.276541 0.187034,-0.04141 0.381023,-0.0057 0.568058,0.01405 0.23059,0.02431 0.458253,0.06761 0.688112,0.09724 0.443612,0.06002 0.891616,0.08395 1.33889,0.07141 0.738255,-0.02127 1.478342,-0.143208 2.178166,-0.390879 0.488633,-0.170179 0.969944,-0.400375 1.385374,-0.7206 0.472162,-0.364289 0.348082,-0.330101 -0.130668,-0.279199 -0.573182,0.06078 -1.151489,0.06989 -1.726501,0.03457 -0.536581,-0.03229 -1.065842,-0.09801 -1.55118,-0.356691 -0.382121,-0.204747 -0.710439,-0.409873 -1.013501,-0.727058 -0.04539,-0.04786 -0.07357,-0.187653 0.0095,-0.27692 0.08052,-0.08661 0.251087,-0.03647 0.303428,0.0099 0.528528,0.458495 1.316929,0.836079 2.133146,0.877104 0.441416,0.02279 0.870755,0.03115 1.312537,0.0114 0.220708,-0.01064 0.553783,-0.0091 0.775224,-0.0114 0.114197,-0.0015 0.425677,0.03267 0.483874,-0.09307 0.01757,-0.03647 0.0161,-0.07863 0.01464,-0.119657 -0.06479,-1.833219 -0.195453,-3.900814 -2.043839,-4.777158 -1.379152,-0.654504 -3.446781,-1.668358 -4.320098,-2.0888666 -0.202407,-0.099904 -0.43922,0.058119 -0.43922,0.2921146 0,0.6123392 0.03001,1.492102 0.03038,2.292853 C 27.05567,10.93881 26.351087,10.659612 25.81414,10.403583 25.204357,10.113368 24.574807,9.8672172 23.934277,9.6601911 22.644801,9.2457611 21.310302,8.9904927 19.968118,8.8522225 18.445854,8.69458 16.89797,8.7701725 15.399131,9.0915365 12.930713,9.6225851 10.504386,10.854481 8.6625891,12.656171 c -1.130626,1.105402 -2.0178508,2.676895 -2.0778776,4.27194 -0.085648,2.257526 0.5237701,3.469669 1.6437821,4.719038 1.7861624,1.991243 5.6304384,2.270062 7.1874734,-0.09117 0.700556,-1.062853 0.852453,-2.504434 0.344056,-3.67935 -0.508396,-1.174156 -1.677088,-2.022771 -2.916056,-2.066075 -0.961526,-0.03305 -1.986008,0.474449 -2.354587,1.397137 -0.281101,0.704645 -0.121152,1.575291 0.390906,2.122294 0.19948,0.213483 0.4696,0.388221 0.764611,0.319845 0.173857,-0.04026 0.319166,-0.175877 0.345519,-0.358971 0.0388,-0.270083 -0.188865,-0.445199 -0.329049,-0.652604 -0.252918,-0.374166 -0.201675,-0.935983 0.114929,-1.253928 0.267193,-0.268563 0.662857,-0.347955 1.03473,-0.346815 0.346252,7.78e-4 0.70019,0.06496 0.99886,0.246151 0.419821,0.256408 0.698726,0.725918 0.795355,1.222019 0.288055,1.482606 -0.873317,2.687152 -2.447921,2.781738 -0.805605,0.04938 -1.625485,-0.170181 -2.2543015,-0.695531 -1.5925394,-1.32952 -1.9827133,-4.047061 -0.1625118,-5.497758 1.7279663,-1.377003 3.9094273,-1.022212 5.1956113,-0.306549 1.029239,0.572453 1.79641,1.509196 2.377645,2.544702 0.291714,0.520793 0.54024,1.065136 0.77083,1.617837 0.221807,0.531428 0.42934,1.067035 0.873317,1.456395 0.293911,0.258307 0.656634,0.24919 1.041684,0.24919 h 2.197931 c 0.29867,0 0.225833,-0.206646 0.09699,-0.343396 -0.29135,-0.309209 -0.710073,-0.379104 -1.097684,-0.489644 -0.886127,-0.252988 -0.795721,-1.47045 -0.55049,-1.47045 0.792061,0 0.816951,0.02469 1.510918,0.01557 1.001421,-0.01444 1.304485,-0.07483 2.087759,0.225639 0.418725,0.161061 0.820976,0.585749 1.08341,0.973968"
                   fill="#30ba78"
                   id="path3"
                   style="fill:#616870;fill-opacity:1;stroke-width:0.781354" />
                <text
                   xml:space="preserve"
                   style="font-size:5.26747px;writing-mode:lr-tb;direction:ltr;fill:#616870;fill-opacity:1;fill-rule:evenodd;stroke-width:0.78096;stroke-dasharray:none;stroke-opacity:0.496255"
                   x="74.035675"
                   y="26.289486"
                   id="text35"
                   transform="scale(1.0292482,0.97158295)"><tspan
                     sodipodi:role="line"
                     id="tspan35"
                     x="74.035675"
                     y="26.289486"
                     style="fill:#616870;fill-opacity:1;stroke-width:0.78096" /></text>
                <text
                   xml:space="preserve"
                   style="font-style:normal;font-variant:normal;font-weight:normal;font-stretch:normal;font-size:8px;font-family:sans-serif;-inkscape-font-specification:'sans-serif, Normal';font-variant-ligatures:normal;font-variant-caps:normal;font-variant-numeric:normal;font-variant-east-asian:normal;writing-mode:lr-tb;direction:ltr;fill:#616870;fill-opacity:1;stroke-width:0.78096;stroke-opacity:0.496255"
                   x="52.182346"
                   y="14.064396"
                   id="text1"
                   transform="scale(0.7483017,1.3363594)"><tspan
                     sodipodi:role="line"
                     id="tspan1"
                     x="52.182346"
                     y="14.064396"
                     style="font-style:normal;font-variant:normal;font-weight:normal;font-stretch:normal;font-size:8px;font-family:sans-serif;-inkscape-font-specification:'sans-serif, Normal';font-variant-ligatures:normal;font-variant-caps:normal;font-variant-numeric:normal;font-variant-east-asian:normal;fill:#616870;fill-opacity:1;stroke-width:0.78096">SUSE Linux</tspan></text>
                <text
                   xml:space="preserve"
                   style="font-size:10.5349px;font-family:Sans;-inkscape-font-specification:'Sans, Normal';writing-mode:lr-tb;direction:ltr;fill:#616870;fill-opacity:1;stroke-width:0.78096;stroke-opacity:0.496255"
                   x="64.367577"
                   y="17.829906"
                   id="text2"
                   transform="scale(1.0292482,0.97158295)"><tspan
                     sodipodi:role="line"
                     id="tspan2"
                     x="64.367577"
                     y="17.829906"
                     style="fill:#616870;fill-opacity:1;stroke-width:0.78096" /></text>
                <text
                   xml:space="preserve"
                   style="font-size:10.5349px;font-family:Sans;-inkscape-font-specification:'Sans, Normal';writing-mode:lr-tb;direction:ltr;fill:#616870;fill-opacity:1;stroke-width:0.78096;stroke-opacity:0.496255"
                   x="128.26762"
                   y="63.60228"
                   id="text3"
                   transform="scale(1.0292482,0.97158295)"><tspan
                     sodipodi:role="line"
                     id="tspan3"
                     x="128.26762"
                     y="63.60228"
                     style="fill:#616870;fill-opacity:1;stroke-width:0.78096" /></text>
              </g>
            </g>
          </g>
        </g>
      </g>
    </g>
  </g>
</svg>
