<?xml version="1.0" encoding="UTF-8" standalone="no"?>
<svg
   id="Layer_1"
   viewBox="0 0 192 128"
   version="1.1"
   sodipodi:docname="lxd-128.svg"
   inkscape:version="1.1.2 (0a00cf5339, 2022-02-04)"
   width="192"
   height="128"
   xmlns:inkscape="http://www.inkscape.org/namespaces/inkscape"
   xmlns:sodipodi="http://sodipodi.sourceforge.net/DTD/sodipodi-0.dtd"
   xmlns="http://www.w3.org/2000/svg"
   xmlns:svg="http://www.w3.org/2000/svg">
  <sodipodi:namedview
     id="namedview109"
     pagecolor="#ffffff"
     bordercolor="#666666"
     borderopacity="1.0"
     inkscape:pageshadow="2"
     inkscape:pageopacity="0.0"
     inkscape:pagecheckerboard="0"
     showgrid="false"
     inkscape:zoom="2.8616351"
     inkscape:cx="119.51209"
     inkscape:cy="45.079123"
     inkscape:window-width="2048"
     inkscape:window-height="1248"
     inkscape:window-x="0"
     inkscape:window-y="0"
     inkscape:window-maximized="1"
     inkscape:current-layer="Layer_1"
     width="192px"
     inkscape:snap-object-midpoints="false" />
  <defs
     id="defs78">
    <style
       id="style76">.cls-1{fill:none;}.cls-1,.cls-2,.cls-3,.cls-4{stroke-width:0px;}.cls-3{fill:#fff;}.cls-4{fill:#e95420;}</style>
  </defs>
  <g
     id="g186"
     transform="translate(9.3103453,2.5136595)">
    <path
       class="cls-2"
       d="m 5.1887056,120.22929 c 0.089796,-2.03334 0.1929457,-4.05625 0.3068405,-6.06742 0.1138435,-2.01116 0.2385087,-3.98449 0.3738418,-5.91865 0.1366763,-1.93416 0.2840591,-3.82396 0.4421737,-5.67068 0.1581147,-1.84542 0.340354,-3.619052 0.545362,-5.322216 h 2.3824011 c 0.657914,1.06106 1.3560183,2.293079 2.0929823,3.697366 0.736965,1.40428 1.480632,2.87384 2.22966,4.40994 0.749014,1.53612 1.468569,3.04482 2.161313,4.52611 0.691402,1.48129 1.310456,2.81772 1.855806,4.01189 0.544018,-1.19417 1.163072,-2.5306 1.855816,-4.01189 0.692745,-1.48129 1.412288,-2.98999 2.161314,-4.52611 0.749027,-1.5361 1.498055,-3.00566 2.247081,-4.40994 0.749014,-1.40298 1.440428,-2.636306 2.076892,-3.697366 h 2.247079 c 0.203665,1.701857 0.391264,3.476796 0.561428,5.322216 0.170178,1.84541 0.317573,3.73652 0.442187,5.67068 0.124589,1.93416 0.249228,3.90749 0.373842,5.91865 0.124588,2.01247 0.23315,4.03408 0.322919,6.06742 H 27.21189 c -0.09108,-2.25521 -0.187585,-4.46998 -0.289431,-6.64819 -0.101819,-2.17692 -0.221086,-4.28205 -0.357763,-6.31671 -0.136663,-2.03335 -0.294777,-3.95708 -0.477018,-5.76987 -0.227776,0.42026 -0.584209,1.11065 -1.071945,2.07251 -0.487737,0.96187 -1.038445,2.06729 -1.650797,3.31628 -0.61235,1.24898 -1.231403,2.52538 -1.855816,3.82916 -0.624401,1.30513 -1.191202,2.50973 -1.701719,3.61384 -0.510519,1.10542 -0.901769,1.97855 -1.173778,2.61936 h -2.28057 c -0.27201,-0.64081 -0.663273,-1.51394 -1.175134,-2.61936 -0.510506,-1.10542 -1.078649,-2.31003 -1.701719,-3.61384 -0.624401,-1.30378 -1.242111,-2.58018 -1.855805,-3.82916 -0.61235,-1.24899 -1.163071,-2.35441 -1.6508084,-3.31628 -0.4877366,-0.96186 -0.8454998,-1.65225 -1.0719461,-2.07251 -0.1822266,1.81279 -0.3403413,3.73652 -0.4770175,5.76987 -0.1366762,2.03335 -0.2559306,4.13979 -0.3577631,6.31671 -0.1018196,2.17692 -0.1983053,4.39298 -0.2894186,6.64819 H 5.1860194 Z"
       id="path80" />
    <path
       class="cls-2"
       d="m 35.870553,98.94174 c -0.499786,0 -0.92455,-0.16575 -1.276954,-0.497251 -0.352404,-0.331494 -0.52794,-0.773922 -0.52794,-1.32598 0,-0.552056 0.175536,-0.961863 0.52794,-1.293359 0.35106,-0.331496 0.777168,-0.497248 1.276954,-0.497248 0.499799,0 0.924564,0.165752 1.276967,0.497248 0.351061,0.331496 0.527928,0.762174 0.527928,1.293359 0,0.531178 -0.175524,0.994486 -0.527928,1.32598 -0.352403,0.331501 -0.777168,0.497251 -1.276967,0.497251 z m -1.293033,21.28755 v -17.17648 h 2.552579 v 17.17648 z"
       id="path82" />
    <path
       class="cls-2"
       d="m 49.402578,120.59342 c -1.861175,0 -3.415499,-0.36935 -4.664324,-1.11064 -1.248814,-0.73999 -2.190787,-1.78539 -2.825919,-3.13355 -0.635132,-1.34818 -0.952704,-2.90647 -0.952704,-4.67489 0,-1.76843 0.328291,-3.35934 0.987535,-4.70881 0.657914,-1.34818 1.605246,-2.40401 2.84201,-3.1662 1.236763,-0.76217 2.706676,-1.14326 4.408395,-1.14326 0.929911,0 1.815613,0.077 2.655754,0.23231 0.838796,0.15531 1.49804,0.35367 1.975058,0.59644 l -0.647182,2.08945 c -0.454248,-0.19837 -0.964767,-0.36412 -1.531554,-0.49723 -0.568131,-0.13312 -1.317158,-0.19837 -2.247069,-0.19837 -1.883957,0 -3.319026,0.59643 -4.306561,1.7906 -0.987523,1.19417 -1.480632,2.8634 -1.480632,5.00637 0,1.32599 0.203677,2.49276 0.61235,3.49769 0.408686,1.00624 1.066599,1.7906 1.975071,2.3544 0.907142,0.56381 2.110404,0.84571 3.608446,0.84571 0.885703,0 1.662872,-0.0992 2.331491,-0.29887 0.668633,-0.19836 1.163072,-0.37586 1.480632,-0.53117 l 0.510519,2.12209 c -0.431468,0.22188 -1.089368,0.43069 -1.975073,0.63038 -0.88569,0.19967 -1.804893,0.29886 -2.757586,0.29886 z"
       id="path84" />
    <path
       class="cls-2"
       d="m 57.10319,120.22929 v -16.38035 c 0.589569,-0.24276 1.401568,-0.49203 2.434666,-0.74652 1.033087,-0.25451 2.275211,-0.3811 3.727701,-0.3811 0.477017,0 0.947332,0.0274 1.412287,0.0822 0.464956,0.0549 0.885703,0.12138 1.259546,0.19837 0.373841,0.0784 0.652541,0.1488 0.833437,0.21534 l -0.510518,2.1221 c -0.203666,-0.0875 -0.590913,-0.18271 -1.1577,-0.28189 -0.56813,-0.0992 -1.293046,-0.14878 -2.178736,-0.14878 -0.885704,0 -1.577106,0.0613 -2.145236,0.18271 -0.568131,0.12138 -0.941972,0.22709 -1.122869,0.31453 V 120.228 H 57.10319 Z"
       id="path86" />
    <path
       class="cls-2"
       d="m 76.04184,120.62736 c -1.566373,0 -2.961251,-0.37067 -4.187295,-1.11064 -1.226045,-0.74 -2.184096,-1.78538 -2.876841,-3.13357 -0.692745,-1.34817 -1.038445,-2.92864 -1.038445,-4.74143 0,-1.8128 0.3457,-3.38676 1.038445,-4.72448 0.691402,-1.33774 1.650796,-2.38182 2.876841,-3.13356 1.226044,-0.75174 2.620922,-1.12761 4.187295,-1.12761 1.566386,0 2.996108,0.37587 4.220809,1.12761 1.226032,0.75174 2.184095,1.79582 2.87684,3.13356 0.691402,1.33772 1.038446,2.91299 1.038446,4.72448 0,1.81149 -0.345701,3.39326 -1.038446,4.74143 -0.692745,1.34819 -1.645435,2.39357 -2.859431,3.13357 -1.213982,0.73997 -2.627612,1.11064 -4.238218,1.11064 z m 0,-2.2213 c 1.134931,0 2.110404,-0.27667 2.927763,-0.82874 0.817359,-0.55205 1.447131,-1.33772 1.889318,-2.3544 0.442173,-1.01667 0.664603,-2.21084 0.664603,-3.5812 0,-1.37036 -0.221086,-2.56453 -0.664603,-3.58122 -0.442187,-1.01667 -1.071959,-1.80104 -1.889318,-2.3544 -0.817359,-0.55206 -1.792832,-0.82874 -2.927763,-0.82874 -1.134919,0 -2.07689,0.27668 -2.894263,0.82874 -0.817358,0.55336 -1.447131,1.33773 -1.889305,2.3544 -0.442174,1.01669 -0.663259,2.21086 -0.663259,3.58122 0,1.37036 0.221085,2.56453 0.663259,3.5812 0.442174,1.01668 1.071947,1.80235 1.889305,2.3544 0.817373,0.55336 1.780783,0.82874 2.894263,0.82874 z"
       id="path88" />
    <path
       class="cls-2"
       d="m 98.308914,120.72655 c -2.064845,0 -3.920667,-0.46463 -5.566108,-1.39255 -1.645432,-0.92794 -2.939824,-2.28263 -3.88045,-4.06149 -0.941973,-1.77886 -1.412288,-3.96229 -1.412288,-6.54901 0,-1.92372 0.294779,-3.6308 0.885691,-5.12255 0.589569,-1.49172 1.40158,-2.74592 2.434662,-3.763903 1.033089,-1.016686 2.212243,-1.785384 3.540117,-2.304819 1.327875,-0.519435 2.717384,-0.779143 4.169876,-0.779143 1.203266,0 2.252436,0.09396 3.148856,0.281896 0.89642,0.187938 1.63875,0.403274 2.22966,0.646031 0.58955,0.244046 1.02103,0.452873 1.29304,0.630372 l -0.85087,2.188656 c -0.56814,-0.3315 -1.29974,-0.651245 -2.19615,-0.961858 -0.89642,-0.309319 -1.98043,-0.464628 -3.250691,-0.464628 -1.861168,0 -3.432906,0.403274 -4.715239,1.209846 -1.282315,0.80654 -2.252429,1.93415 -2.910349,3.38151 -0.659244,1.44867 -0.987521,3.14531 -0.987521,5.08991 0,1.94461 0.317566,3.64254 0.952698,5.08991 0.635123,1.44866 1.571738,2.56975 2.808512,3.36586 1.236747,0.79612 2.752223,1.19417 4.545053,1.19417 1.498047,0 2.745537,-0.13834 3.745127,-0.41502 0.99826,-0.27668 1.77005,-0.55859 2.31541,-0.8457 l 0.71418,2.18865 c -0.36311,0.22056 -1.15234,0.509 -2.36632,0.86268 -1.21398,0.35369 -2.76295,0.52987 -4.646896,0.52987 z"
       id="path90" />
    <path
       class="cls-2"
       d="m 113.12727,120.52686 c -1.08938,-0.0444 -1.99116,-0.22056 -2.70668,-0.52987 -0.71419,-0.30931 -1.24212,-0.7896 -1.58247,-1.44214 -0.34034,-0.65124 -0.51051,-1.53088 -0.51051,-2.63631 V 94.929846 l 2.55258,-0.430679 v 21.253623 c 0,1.06105 0.19831,1.74624 0.59628,2.05553 0.39661,0.30932 1.07194,0.53119 2.02597,0.66301 l -0.37383,2.05553 z"
       id="path92" />
    <g
       id="g1313"
       transform="matrix(0.13399362,0,0,0.13051045,-36.855819,74.523234)">
      <path
         class="cls-2"
         d="m 1195.12,353.26 c -11.69,0 -22.1,-2.84 -31.25,-8.51 -9.15,-5.67 -16.3,-13.68 -21.47,-24.01 -5.17,-10.33 -7.75,-22.44 -7.75,-36.33 0,-13.89 2.58,-25.95 7.75,-36.2 5.16,-10.25 12.32,-18.25 21.47,-24.01 9.15,-5.76 19.56,-8.64 31.25,-8.64 11.69,0 22.36,2.88 31.5,8.64 9.15,5.76 16.3,13.76 21.47,24.01 5.16,10.25 7.75,22.32 7.75,36.2 0,13.88 -2.58,26 -7.75,36.33 -5.17,10.33 -12.28,18.34 -21.34,24.01 -9.06,5.67 -19.61,8.51 -31.63,8.51 z m 0,-17.02 c 8.47,0 15.75,-2.12 21.85,-6.35 6.1,-4.23 10.8,-10.25 14.1,-18.04 3.3,-7.79 4.95,-16.94 4.95,-27.44 0,-10.5 -1.65,-19.65 -4.95,-27.44 -3.3,-7.79 -8,-13.8 -14.1,-18.04 -6.1,-4.23 -13.38,-6.35 -21.85,-6.35 -8.47,0 -15.5,2.12 -21.6,6.35 -6.1,4.24 -10.8,10.25 -14.1,18.04 -3.3,7.79 -4.95,16.94 -4.95,27.44 0,10.5 1.65,19.65 4.95,27.44 3.3,7.79 8,13.81 14.1,18.04 6.1,4.24 13.29,6.35 21.6,6.35 z"
         id="path94" />
    </g>
    <g
       id="g1316"
       transform="matrix(0.13399362,0,0,0.13051045,-36.855819,74.523234)">
      <path
         class="cls-2"
         d="m 1336.3,352.75 c -13.21,0 -23.67,-2.5 -31.38,-7.5 -7.71,-4.99 -13.21,-12.07 -16.51,-21.21 -3.3,-9.15 -4.95,-19.73 -4.95,-31.76 V 218.6 h 19.05 v 68.6 c 0,11.86 1.18,21.34 3.56,28.46 2.37,7.11 6.22,12.24 11.56,15.37 5.34,3.14 12.41,4.7 21.21,4.7 7.11,0 13.42,-0.38 18.93,-1.14 5.5,-0.76 9.1,-1.4 10.8,-1.91 V 218.6 h 18.8 v 127.03 c -5.08,1.36 -11.9,2.88 -20.45,4.57 -8.56,1.69 -18.76,2.54 -30.62,2.54 z"
         id="path96" />
    </g>
    <path
       class="cls-2"
       d="m 161.68925,120.62736 c -1.72452,0 -3.24533,-0.35892 -4.56116,-1.07801 -1.31714,-0.71782 -2.33818,-1.74624 -3.06443,-3.08396 -0.72625,-1.33774 -1.08938,-2.93519 -1.08938,-4.79105 0,-1.85586 0.31222,-3.32672 0.93664,-4.67489 0.62439,-1.34817 1.53154,-2.40399 2.72407,-3.16618 1.19121,-0.76218 2.62628,-1.14327 4.30656,-1.14327 1.08938,0 2.04745,0.14878 2.87686,0.44765 0.82807,0.29887 1.44713,0.59121 1.85579,0.87833 v -9.084827 l 2.51909,-0.430679 v 25.200256 c -0.43146,0.13312 -0.96475,0.27147 -1.59988,0.41503 -0.63513,0.14356 -1.35601,0.26494 -2.16133,0.36412 -0.80529,0.0992 -1.71913,0.14878 -2.74014,0.14878 z m 0.0335,-2.2213 c 0.99826,0 1.821,-0.0495 2.46817,-0.14876 0.64719,-0.0992 1.1403,-0.19317 1.48064,-0.28192 v -11.63891 c -0.38591,-0.30932 -0.97547,-0.62385 -1.77005,-0.94491 -0.79459,-0.31974 -1.69101,-0.48027 -2.68926,-0.48027 -0.99825,0 -1.8893,0.17098 -2.60484,0.5142 -0.71419,0.34325 -1.29305,0.82353 -1.73656,1.44216 -0.44218,0.61861 -0.76107,1.33772 -0.95269,2.15471 -0.19295,0.8183 -0.28944,1.69142 -0.28944,2.61936 0,1.43691 0.25593,2.65849 0.76646,3.66342 0.51051,1.00624 1.22602,1.77363 2.14523,2.30481 0.9192,0.53118 1.98043,0.79611 3.18234,0.79611 z"
       id="path98" />
  </g>
  <g
     id="g194">
    <g
       id="g1319"
       transform="matrix(0.39112823,0,0,0.22955879,46.326715,1.1470564)">
      <rect
         class="cls-4"
         width="254"
         height="400"
         id="rect100"
         x="0"
         y="0" />
    </g>
    <rect
       class="cls-1"
       x="58.144653"
       y="19.289206"
       width="75.710693"
       height="64.920662"
       id="rect102" />
    <path
       class="cls-3"
       d="m 119.3698,62.533848 c -1.69361,0 -3.08211,1.126903 -3.19944,2.555654 l -13.4509,2.736745 c -0.35591,-0.590275 -0.89959,-1.083303 -1.56843,-1.411973 l 4.5371,-13.438919 c 0.12521,0.007 0.2464,0.01681 0.37548,0.01681 2.6323,0 4.76786,-1.831204 4.76786,-4.08835 0,-2.257147 -2.13556,-4.088363 -4.76786,-4.088363 -2.6323,0 -4.76785,1.831216 -4.76785,4.088363 0,1.569599 1.03258,2.931273 2.54625,3.615448 l -4.537103,13.438919 c -0.0547,0 -0.10952,-0.007 -0.16428,-0.007 -0.55147,0 -1.07168,0.09398 -1.55278,0.264966 L 87.586691,54.608473 c 0.387225,-0.456112 0.617986,-1.012867 0.617986,-1.619909 0,-1.519301 -1.435445,-2.753522 -3.211158,-2.753522 -1.775727,0 -3.21117,1.230873 -3.21117,2.753522 0,1.52265 1.435443,2.753511 3.21117,2.753511 0.367664,0 0.715756,-0.05365 1.044315,-0.150929 L 96.038988,67.19886 c -0.23859,0.244827 -0.43807,0.519861 -0.59061,0.818348 L 81.770622,65.967987 c 0,-0.07045 0.01183,-0.137501 0.01183,-0.207936 0,-2.891022 -2.733983,-5.23537 -6.105509,-5.23537 -0.02345,0 -0.05083,0 -0.07428,0 -0.02345,0 -0.05083,0 -0.07428,0 -3.371527,0 -6.10551,2.344348 -6.10551,5.23537 0,2.891034 2.733983,5.235371 6.10551,5.235371 0.02345,0 0.05083,0 0.07428,0 0.02345,0 0.05083,0 0.07428,0 2.624471,0 4.853897,-1.422031 5.718297,-3.410864 l 13.728598,2.059268 c 0.1408,1.797674 1.88134,3.216343 4.01299,3.216343 2.131652,0 4.009052,-1.529347 4.024702,-3.42429 l 13.45091,-2.736745 c 0.5593,0.804931 1.58406,1.34491 2.75352,1.34491 1.77181,0 3.21117,-1.230873 3.21117,-2.753523 0,-1.522661 -1.43544,-2.753533 -3.21117,-2.753533 z"
       id="path104" />
    <g
       id="g1322"
       transform="matrix(0.39112823,0,0,0.33538593,46.314981,-37.518482)">
      <path
         class="cls-3"
         d="m 197.13,265.61 c 0,-0.19 0,-0.37 0,-0.56 0,-27.01 -21.97,-48.98 -48.98,-48.98 -15.58,0 -29.89,7.2 -39.1,19.47 -4,-1.47 -8.25,-2.24 -12.51,-2.24 -19.04,0 -34.68,14.78 -36.07,33.47 -17.79,5.29 -30.29,21.79 -30.29,40.76 0,23.46 19.08,42.54 42.54,42.54 8.48,0 29.3,0.02 50.68,0.04 h 1.79 c 22.52,0.03 45.31,0.05 54.65,0.05 24.29,0 44.04,-19.76 44.04,-44.04 0,-17.88 -10.59,-33.68 -26.75,-40.52 z m -17.29,74.09 c -9.33,0 -32.12,-0.02 -54.63,-0.05 h -1.79 c -21.39,-0.02 -42.22,-0.05 -50.69,-0.05 -17.68,0 -32.07,-14.38 -32.07,-32.07 0,-15.4 10.92,-28.64 25.96,-31.49 l 4.46,-0.84 -0.21,-4.54 c -0.02,-0.4 -0.03,-0.8 -0.03,-1.19 0,-14.17 11.53,-25.69 25.69,-25.69 4.14,0 8.27,1.02 11.94,2.95 l 4.33,2.27 2.56,-4.16 c 7.06,-11.45 19.31,-18.29 32.78,-18.29 21.23,0 38.5,17.27 38.5,38.51 0,1.21 -0.06,2.43 -0.17,3.63 l -0.4,4.21 4.02,1.28 c 13.93,4.44 23.29,17.28 23.29,31.96 0,18.51 -15.06,33.57 -33.57,33.57 z"
         id="path106" />
    </g>
  </g>
</svg>
