<?xml version="1.0" encoding="UTF-8"?>
<svg xmlns="http://www.w3.org/2000/svg" xmlns:xlink="http://www.w3.org/1999/xlink" width="80px" height="32px" viewBox="0 0 80 32" version="1.1">
<g id="surface1">
<path style=" stroke:none;fill-rule:nonzero;fill:rgb(38.039216%,40.784314%,43.921569%);fill-opacity:1;" d="M 16.183594 28.015625 C 16.21875 26.769531 16.257812 25.53125 16.300781 24.296875 C 16.347656 23.066406 16.394531 21.855469 16.445312 20.667969 C 16.5 19.484375 16.554688 18.324219 16.617188 17.195312 C 16.675781 16.0625 16.746094 14.976562 16.824219 13.929688 L 17.742188 13.929688 C 17.996094 14.582031 18.265625 15.335938 18.546875 16.199219 C 18.832031 17.058594 19.117188 17.960938 19.40625 18.902344 C 19.695312 19.84375 19.96875 20.765625 20.238281 21.675781 C 20.503906 22.582031 20.742188 23.402344 20.949219 24.132812 C 21.160156 23.402344 21.398438 22.582031 21.664062 21.675781 C 21.929688 20.765625 22.207031 19.84375 22.496094 18.902344 C 22.785156 17.960938 23.074219 17.058594 23.359375 16.199219 C 23.648438 15.335938 23.914062 14.582031 24.160156 13.929688 L 25.023438 13.929688 C 25.101562 14.972656 25.175781 16.0625 25.238281 17.195312 C 25.304688 18.324219 25.363281 19.484375 25.410156 20.667969 C 25.457031 21.855469 25.507812 23.066406 25.554688 24.296875 C 25.601562 25.53125 25.644531 26.769531 25.679688 28.015625 L 24.65625 28.015625 C 24.621094 26.632812 24.585938 25.277344 24.546875 23.941406 C 24.507812 22.605469 24.460938 21.316406 24.40625 20.070312 C 24.355469 18.824219 24.292969 17.644531 24.222656 16.53125 C 24.136719 16.789062 24 17.214844 23.8125 17.804688 C 23.625 18.394531 23.414062 19.070312 23.175781 19.835938 C 22.941406 20.601562 22.703125 21.382812 22.460938 22.183594 C 22.222656 22.984375 22.003906 23.722656 21.808594 24.398438 C 21.613281 25.074219 21.460938 25.609375 21.355469 26.003906 L 20.480469 26.003906 C 20.375 25.609375 20.222656 25.074219 20.027344 24.398438 C 19.832031 23.722656 19.613281 22.980469 19.371094 22.183594 C 19.132812 21.382812 18.894531 20.601562 18.660156 19.835938 C 18.421875 19.070312 18.210938 18.394531 18.023438 17.804688 C 17.835938 17.214844 17.699219 16.789062 17.609375 16.53125 C 17.539062 17.644531 17.480469 18.824219 17.425781 20.070312 C 17.375 21.316406 17.328125 22.605469 17.289062 23.941406 C 17.25 25.277344 17.214844 26.632812 17.179688 28.015625 Z M 16.183594 28.015625 "/>
<path style=" stroke:none;fill-rule:nonzero;fill:rgb(38.039216%,40.784314%,43.921569%);fill-opacity:1;" d="M 27.988281 14.96875 C 27.796875 14.96875 27.632812 14.867188 27.496094 14.664062 C 27.359375 14.460938 27.292969 14.1875 27.292969 13.851562 C 27.292969 13.511719 27.359375 13.261719 27.496094 13.058594 C 27.632812 12.855469 27.796875 12.753906 27.988281 12.753906 C 28.179688 12.753906 28.34375 12.855469 28.480469 13.058594 C 28.613281 13.261719 28.683594 13.523438 28.683594 13.851562 C 28.683594 14.175781 28.613281 14.460938 28.480469 14.664062 C 28.34375 14.867188 28.179688 14.96875 27.988281 14.96875 Z M 27.488281 28.015625 L 27.488281 17.488281 L 28.472656 17.488281 L 28.472656 28.015625 Z M 27.488281 28.015625 "/>
<path style=" stroke:none;fill-rule:nonzero;fill:rgb(38.039216%,40.784314%,43.921569%);fill-opacity:1;" d="M 33.191406 28.238281 C 32.476562 28.238281 31.878906 28.011719 31.398438 27.558594 C 30.917969 27.105469 30.554688 26.464844 30.3125 25.636719 C 30.066406 24.8125 29.945312 23.855469 29.945312 22.773438 C 29.945312 21.6875 30.070312 20.714844 30.324219 19.886719 C 30.578125 19.058594 30.941406 18.414062 31.417969 17.945312 C 31.894531 17.476562 32.460938 17.246094 33.113281 17.246094 C 33.472656 17.246094 33.8125 17.292969 34.136719 17.386719 C 34.457031 17.480469 34.710938 17.605469 34.894531 17.753906 L 34.648438 19.035156 C 34.472656 18.910156 34.277344 18.808594 34.058594 18.730469 C 33.839844 18.648438 33.550781 18.605469 33.191406 18.605469 C 32.46875 18.605469 31.917969 18.972656 31.535156 19.703125 C 31.15625 20.4375 30.964844 21.460938 30.964844 22.773438 C 30.964844 23.585938 31.046875 24.300781 31.203125 24.917969 C 31.359375 25.535156 31.613281 26.015625 31.960938 26.359375 C 32.3125 26.707031 32.773438 26.878906 33.351562 26.878906 C 33.691406 26.878906 33.988281 26.820312 34.246094 26.695312 C 34.503906 26.574219 34.695312 26.464844 34.816406 26.371094 L 35.011719 27.671875 C 34.847656 27.808594 34.59375 27.933594 34.253906 28.058594 C 33.914062 28.179688 33.558594 28.242188 33.191406 28.242188 Z M 33.191406 28.238281 "/>
<path style=" stroke:none;fill-rule:nonzero;fill:rgb(38.039216%,40.784314%,43.921569%);fill-opacity:1;" d="M 36.15625 28.015625 L 36.15625 17.976562 C 36.382812 17.828125 36.695312 17.675781 37.09375 17.519531 C 37.488281 17.363281 37.96875 17.285156 38.527344 17.285156 C 38.710938 17.285156 38.890625 17.300781 39.070312 17.335938 C 39.25 17.367188 39.410156 17.410156 39.554688 17.457031 C 39.699219 17.503906 39.804688 17.546875 39.875 17.589844 L 39.679688 18.890625 C 39.601562 18.835938 39.449219 18.777344 39.234375 18.71875 C 39.015625 18.65625 38.734375 18.625 38.394531 18.625 C 38.054688 18.625 37.789062 18.664062 37.570312 18.738281 C 37.351562 18.8125 37.207031 18.875 37.136719 18.929688 L 37.136719 28.015625 Z M 36.15625 28.015625 "/>
<path style=" stroke:none;fill-rule:nonzero;fill:rgb(38.039216%,40.784314%,43.921569%);fill-opacity:1;" d="M 43.441406 28.261719 C 42.839844 28.261719 42.300781 28.035156 41.832031 27.578125 C 41.359375 27.125 40.988281 26.484375 40.722656 25.660156 C 40.457031 24.832031 40.324219 23.863281 40.324219 22.753906 C 40.324219 21.640625 40.457031 20.675781 40.722656 19.855469 C 40.988281 19.035156 41.359375 18.398438 41.832031 17.9375 C 42.300781 17.476562 42.839844 17.246094 43.441406 17.246094 C 44.042969 17.246094 44.59375 17.476562 45.066406 17.9375 C 45.535156 18.398438 45.90625 19.035156 46.171875 19.855469 C 46.4375 20.675781 46.570312 21.640625 46.570312 22.753906 C 46.570312 23.863281 46.4375 24.832031 46.171875 25.660156 C 45.90625 26.484375 45.539062 27.125 45.070312 27.578125 C 44.605469 28.035156 44.0625 28.261719 43.441406 28.261719 Z M 43.441406 26.898438 C 43.878906 26.898438 44.253906 26.730469 44.566406 26.390625 C 44.882812 26.054688 45.125 25.570312 45.292969 24.949219 C 45.464844 24.324219 45.550781 23.59375 45.550781 22.753906 C 45.550781 21.914062 45.464844 21.179688 45.292969 20.558594 C 45.125 19.933594 44.882812 19.453125 44.566406 19.113281 C 44.253906 18.777344 43.878906 18.605469 43.441406 18.605469 C 43.003906 18.605469 42.640625 18.777344 42.328125 19.113281 C 42.011719 19.453125 41.769531 19.933594 41.601562 20.558594 C 41.429688 21.179688 41.34375 21.914062 41.34375 22.753906 C 41.34375 23.59375 41.429688 24.324219 41.601562 24.949219 C 41.769531 25.570312 42.011719 26.054688 42.328125 26.390625 C 42.640625 26.730469 43.011719 26.898438 43.441406 26.898438 Z M 43.441406 26.898438 "/>
<path style=" stroke:none;fill-rule:nonzero;fill:rgb(38.039216%,40.784314%,43.921569%);fill-opacity:1;" d="M 52.007812 28.320312 C 51.210938 28.320312 50.5 28.035156 49.867188 27.46875 C 49.234375 26.898438 48.734375 26.070312 48.371094 24.976562 C 48.011719 23.886719 47.828125 22.550781 47.828125 20.964844 C 47.828125 19.785156 47.941406 18.738281 48.171875 17.824219 C 48.398438 16.910156 48.710938 16.140625 49.105469 15.515625 C 49.503906 14.894531 49.957031 14.421875 50.46875 14.105469 C 50.980469 13.785156 51.515625 13.625 52.074219 13.625 C 52.535156 13.625 52.9375 13.683594 53.285156 13.800781 C 53.628906 13.914062 53.914062 14.046875 54.140625 14.195312 C 54.367188 14.34375 54.535156 14.472656 54.640625 14.582031 L 54.3125 15.921875 C 54.09375 15.71875 53.8125 15.523438 53.46875 15.332031 C 53.121094 15.144531 52.707031 15.046875 52.214844 15.046875 C 51.5 15.046875 50.894531 15.296875 50.402344 15.789062 C 49.910156 16.285156 49.535156 16.976562 49.285156 17.863281 C 49.03125 18.75 48.902344 19.792969 48.902344 20.984375 C 48.902344 22.175781 49.027344 23.214844 49.269531 24.101562 C 49.515625 24.992188 49.875 25.679688 50.351562 26.167969 C 50.824219 26.65625 51.410156 26.898438 52.097656 26.898438 C 52.675781 26.898438 53.15625 26.8125 53.539062 26.644531 C 53.921875 26.472656 54.21875 26.300781 54.429688 26.125 L 54.703125 27.46875 C 54.566406 27.601562 54.261719 27.777344 53.792969 27.996094 C 53.328125 28.210938 52.730469 28.320312 52.007812 28.320312 Z M 52.007812 28.320312 "/>
<path style=" stroke:none;fill-rule:nonzero;fill:rgb(38.039216%,40.784314%,43.921569%);fill-opacity:1;" d="M 57.707031 28.199219 C 57.289062 28.171875 56.941406 28.0625 56.667969 27.875 C 56.390625 27.683594 56.1875 27.390625 56.058594 26.992188 C 55.925781 26.589844 55.859375 26.050781 55.859375 25.375 L 55.859375 12.507812 L 56.84375 12.246094 L 56.84375 25.273438 C 56.84375 25.921875 56.917969 26.34375 57.074219 26.53125 C 57.226562 26.722656 57.484375 26.859375 57.851562 26.9375 Z M 57.707031 28.199219 "/>
<path style=" stroke:none;fill-rule:nonzero;fill:rgb(38.039216%,40.784314%,43.921569%);fill-opacity:1;" d="M 61.613281 28.261719 C 61.011719 28.261719 60.476562 28.035156 60.003906 27.578125 C 59.53125 27.125 59.164062 26.484375 58.898438 25.660156 C 58.628906 24.832031 58.496094 23.863281 58.496094 22.753906 C 58.496094 21.640625 58.628906 20.675781 58.898438 19.855469 C 59.164062 19.035156 59.53125 18.398438 60.003906 17.9375 C 60.476562 17.476562 61.011719 17.246094 61.613281 17.246094 C 62.214844 17.246094 62.765625 17.476562 63.238281 17.9375 C 63.710938 18.398438 64.078125 19.035156 64.34375 19.855469 C 64.609375 20.675781 64.742188 21.640625 64.742188 22.753906 C 64.742188 23.863281 64.609375 24.832031 64.34375 25.660156 C 64.078125 26.484375 63.710938 27.125 63.246094 27.578125 C 62.777344 28.035156 62.234375 28.261719 61.613281 28.261719 Z M 61.613281 26.898438 C 62.050781 26.898438 62.425781 26.730469 62.742188 26.390625 C 63.054688 26.054688 63.296875 25.570312 63.46875 24.949219 C 63.636719 24.324219 63.722656 23.59375 63.722656 22.753906 C 63.722656 21.914062 63.636719 21.179688 63.46875 20.558594 C 63.296875 19.933594 63.054688 19.453125 62.742188 19.113281 C 62.425781 18.777344 62.050781 18.605469 61.613281 18.605469 C 61.175781 18.605469 60.816406 18.777344 60.5 19.113281 C 60.1875 19.453125 59.945312 19.933594 59.773438 20.558594 C 59.605469 21.179688 59.519531 21.914062 59.519531 22.753906 C 59.519531 23.59375 59.605469 24.324219 59.773438 24.949219 C 59.945312 25.570312 60.1875 26.054688 60.5 26.390625 C 60.816406 26.730469 61.1875 26.898438 61.613281 26.898438 Z M 61.613281 26.898438 "/>
<path style=" stroke:none;fill-rule:nonzero;fill:rgb(38.039216%,40.784314%,43.921569%);fill-opacity:1;" d="M 68.890625 28.21875 C 68.210938 28.21875 67.671875 28.019531 67.273438 27.621094 C 66.875 27.222656 66.59375 26.65625 66.421875 25.921875 C 66.253906 25.191406 66.167969 24.34375 66.167969 23.382812 L 66.167969 17.488281 L 67.148438 17.488281 L 67.148438 22.976562 C 67.148438 23.925781 67.210938 24.683594 67.332031 25.253906 C 67.457031 25.820312 67.652344 26.230469 67.929688 26.480469 C 68.203125 26.734375 68.570312 26.859375 69.023438 26.859375 C 69.390625 26.859375 69.714844 26.828125 70 26.765625 C 70.28125 26.707031 70.46875 26.65625 70.554688 26.613281 L 70.554688 17.488281 L 71.523438 17.488281 L 71.523438 27.652344 C 71.261719 27.757812 70.910156 27.878906 70.46875 28.015625 C 70.027344 28.152344 69.503906 28.21875 68.890625 28.21875 Z M 68.890625 28.21875 "/>
<path style=" stroke:none;fill-rule:nonzero;fill:rgb(38.039216%,40.784314%,43.921569%);fill-opacity:1;" d="M 76.390625 28.261719 C 75.726562 28.261719 75.140625 28.039062 74.632812 27.601562 C 74.128906 27.160156 73.734375 26.53125 73.457031 25.710938 C 73.175781 24.890625 73.035156 23.910156 73.035156 22.773438 C 73.035156 21.636719 73.15625 20.734375 73.398438 19.90625 C 73.636719 19.082031 73.984375 18.433594 74.445312 17.964844 C 74.902344 17.5 75.453125 17.265625 76.101562 17.265625 C 76.519531 17.265625 76.890625 17.355469 77.207031 17.539062 C 77.527344 17.722656 77.765625 17.902344 77.921875 18.078125 L 77.921875 12.507812 L 78.890625 12.246094 L 78.890625 27.691406 C 78.726562 27.773438 78.519531 27.859375 78.277344 27.945312 C 78.03125 28.035156 77.753906 28.109375 77.445312 28.171875 C 77.132812 28.230469 76.78125 28.261719 76.390625 28.261719 Z M 76.402344 26.898438 C 76.785156 26.898438 77.101562 26.867188 77.351562 26.808594 C 77.601562 26.746094 77.789062 26.691406 77.921875 26.636719 L 77.921875 19.5 C 77.773438 19.3125 77.546875 19.117188 77.238281 18.921875 C 76.933594 18.726562 76.589844 18.628906 76.207031 18.628906 C 75.820312 18.628906 75.480469 18.730469 75.203125 18.941406 C 74.929688 19.152344 74.707031 19.445312 74.535156 19.828125 C 74.363281 20.207031 74.242188 20.644531 74.167969 21.148438 C 74.09375 21.648438 74.058594 22.183594 74.058594 22.753906 C 74.058594 23.632812 74.15625 24.382812 74.351562 25 C 74.546875 25.613281 74.824219 26.085938 75.175781 26.410156 C 75.53125 26.738281 75.9375 26.898438 76.402344 26.898438 Z M 76.402344 26.898438 "/>
<path style=" stroke:none;fill-rule:nonzero;fill:rgb(38.039216%,40.784314%,43.921569%);fill-opacity:1;" d="M 0.0117188 0 L 13.101562 0 L 13.101562 32 L 0.0117188 32 Z M 0.0117188 0 "/>
<path style=" stroke:none;fill-rule:nonzero;fill:rgb(100%,100%,100%);fill-opacity:1;" d="M 9.515625 23.867188 C 9.292969 23.867188 9.109375 24.132812 9.09375 24.476562 L 7.324219 25.128906 C 7.277344 24.988281 7.203125 24.871094 7.117188 24.792969 L 7.714844 21.585938 C 7.730469 21.585938 7.746094 21.589844 7.761719 21.589844 C 8.109375 21.589844 8.390625 21.152344 8.390625 20.613281 C 8.390625 20.074219 8.109375 19.640625 7.761719 19.640625 C 7.417969 19.640625 7.136719 20.074219 7.136719 20.613281 C 7.136719 20.988281 7.269531 21.3125 7.46875 21.476562 L 6.871094 24.683594 C 6.863281 24.683594 6.859375 24.679688 6.851562 24.679688 C 6.777344 24.679688 6.710938 24.703125 6.644531 24.742188 L 5.328125 21.976562 C 5.378906 21.867188 5.410156 21.734375 5.410156 21.589844 C 5.410156 21.226562 5.21875 20.933594 4.988281 20.933594 C 4.753906 20.933594 4.5625 21.226562 4.5625 21.589844 C 4.5625 21.953125 4.753906 22.246094 4.988281 22.246094 C 5.035156 22.246094 5.082031 22.234375 5.125 22.210938 L 6.441406 24.976562 C 6.410156 25.035156 6.382812 25.101562 6.363281 25.171875 L 4.5625 24.683594 C 4.5625 24.667969 4.5625 24.652344 4.5625 24.636719 C 4.5625 23.945312 4.203125 23.386719 3.757812 23.386719 C 3.753906 23.386719 3.75 23.386719 3.75 23.386719 C 3.746094 23.386719 3.742188 23.386719 3.738281 23.386719 C 3.292969 23.386719 2.933594 23.945312 2.933594 24.636719 C 2.933594 25.324219 3.292969 25.882812 3.738281 25.882812 C 3.742188 25.882812 3.746094 25.882812 3.75 25.882812 C 3.75 25.882812 3.753906 25.882812 3.757812 25.882812 C 4.105469 25.882812 4.398438 25.542969 4.511719 25.070312 L 6.320312 25.5625 C 6.339844 25.992188 6.570312 26.328125 6.851562 26.328125 C 7.132812 26.328125 7.378906 25.964844 7.378906 25.511719 L 9.152344 24.859375 C 9.226562 25.050781 9.363281 25.179688 9.515625 25.179688 C 9.75 25.179688 9.9375 24.886719 9.9375 24.523438 C 9.9375 24.160156 9.75 23.867188 9.515625 23.867188 Z M 9.515625 23.867188 "/>
<path style=" stroke:none;fill-rule:nonzero;fill:rgb(100%,100%,100%);fill-opacity:1;" d="M 10.171875 21.25 C 10.171875 21.234375 10.171875 21.21875 10.171875 21.203125 C 10.171875 19.042969 9.039062 17.285156 7.648438 17.285156 C 6.84375 17.285156 6.105469 17.863281 5.632812 18.84375 C 5.425781 18.726562 5.207031 18.664062 4.988281 18.664062 C 4.003906 18.664062 3.199219 19.847656 3.128906 21.339844 C 2.210938 21.765625 1.566406 23.085938 1.566406 24.601562 C 1.566406 26.480469 2.550781 28.003906 3.757812 28.003906 C 4.195312 28.003906 5.269531 28.007812 6.371094 28.007812 L 6.464844 28.007812 C 7.625 28.011719 8.796875 28.011719 9.28125 28.011719 C 10.53125 28.011719 11.550781 26.433594 11.550781 24.488281 C 11.550781 23.058594 11.003906 21.796875 10.171875 21.246094 Z M 9.28125 27.175781 C 8.800781 27.175781 7.625 27.175781 6.464844 27.171875 L 6.371094 27.171875 C 5.269531 27.171875 4.195312 27.167969 3.757812 27.167969 C 2.847656 27.167969 2.105469 26.019531 2.105469 24.601562 C 2.105469 23.371094 2.667969 22.3125 3.445312 22.082031 L 3.675781 22.015625 L 3.664062 21.652344 C 3.664062 21.621094 3.660156 21.589844 3.660156 21.558594 C 3.660156 20.425781 4.257812 19.503906 4.984375 19.503906 C 5.199219 19.503906 5.414062 19.585938 5.601562 19.738281 L 5.824219 19.921875 L 5.957031 19.585938 C 6.320312 18.671875 6.953125 18.125 7.644531 18.125 C 8.742188 18.125 9.628906 19.503906 9.628906 21.203125 C 9.628906 21.300781 9.628906 21.398438 9.621094 21.496094 L 9.601562 21.832031 L 9.808594 21.933594 C 10.527344 22.289062 11.007812 23.316406 11.007812 24.492188 C 11.007812 25.972656 10.234375 27.175781 9.277344 27.175781 Z M 9.28125 27.175781 "/>
</g>
</svg>
