<?xml version="1.0" encoding="UTF-8" standalone="no"?>
<svg    xmlns:dc="http://purl.org/dc/elements/1.1/"
   xmlns:cc="http://creativecommons.org/ns#"
   xmlns:rdf="http://www.w3.org/1999/02/22-rdf-syntax-ns#"
   xmlns:svg="http://www.w3.org/2000/svg"
   xmlns="http://www.w3.org/2000/svg"
   xmlns:xlink="http://www.w3.org/1999/xlink"
   id="svg849"
   version="1.1"
   viewBox="0 0 192 128"
   height="128px"
   width="192px">
  <defs
     id="defs853">
    <polygon
       id="SVGID_4_"
       points="258.277,184.829 258.207,213.306 175.922,165.787 175.991,137.31    " />
    <polygon
       id="SVGID_8_"
       points="216.802,175.326 176.061,198.98 135.111,175.326 175.991,151.566     " />
    <polygon
       id="SVGID_12_"
       points="216.837,161.14 176.131,184.794 135.146,161.14 176.026,137.31     " />
    <polygon
       id="SVGID_14_"
       points="176.131,184.794 176.061,198.98 135.111,175.326 135.146,161.14     " />
    <polygon
       id="SVGID_16_"
       points="135.146,161.14 176.026,137.31 175.991,151.566 135.111,175.326     " />
    <polygon
       id="SVGID_18_"
       points="176.026,137.31 216.837,161.14 216.802,175.326 175.991,151.566     " />
  </defs>
  <g
     transform="matrix(0.41208996,0,0,0.41208996,6.5804596,-40.793623)"
     id="g1064">
    <polygon
       style="fill:#b0b5be;fill-opacity:1"
       fill="#dd4814"
       stroke="#ffffff"
       stroke-linecap="round"
       stroke-linejoin="round"
       stroke-miterlimit="10"
       points="217.256,265.542 217.326,237.066 299.088,189.546 299.018,218.023 "
       id="polygon857" />
    <polygon
       style="fill:#b0b5be;fill-opacity:1"
       fill="#dd4814"
       stroke="#ffffff"
       stroke-linecap="round"
       stroke-linejoin="round"
       stroke-miterlimit="10"
       points="134.971,218.023 135.041,189.546 217.326,237.066 217.256,265.542 "
       id="polygon859" />
    <polygon
       style="fill:#b0b5be;fill-opacity:1"
       fill="#333333"
       stroke="#ffffff"
       stroke-linecap="round"
       stroke-linejoin="round"
       stroke-miterlimit="10"
       points="175.991,137.31 216.872,113.55 299.157,161.07 258.277,184.829 "
       id="polygon861" />
    <g
       style="fill:#b0b5be;fill-opacity:1"
       enable-background="new    "
       id="g865">
	<polygon
   style="fill:#b0b5be;fill-opacity:1"
   fill="#333333"
   stroke="#ffffff"
   stroke-linecap="round"
   stroke-linejoin="round"
   stroke-miterlimit="10"
   points="258.382,213.411 258.486,184.934 299.367,161.175 299.262,189.651 "
   id="polygon863" />
</g>
    <g
       style="fill:#b0b5be;fill-opacity:1"
       enable-background="new    "
       id="g883">
	<g
   style="fill:#b0b5be;fill-opacity:1"
   id="g868">
		<polygon
   style="fill:#b0b5be;fill-opacity:1"
   id="SVGID_1_"
   fill="#333333"
   points="175.922,165.787 175.991,137.31 258.277,184.829 258.207,213.306 " />
	</g>
	<g
   style="fill:#b0b5be;fill-opacity:1"
   id="g878">
		<defs
   id="defs871">
			<polygon
   id="polygon996"
   points="175.922,165.787 175.991,137.31 258.277,184.829 258.207,213.306 " />
		</defs>
		<clipPath
   id="SVGID_6_">
			<use
   height="100%"
   width="100%"
   y="0"
   x="0"
   xlink:href="#SVGID_4_"
   overflow="visible"
   id="use873" />
		</clipPath>
		<polygon
   style="fill:#b0b5be;fill-opacity:1"
   clip-path="url(#SVGID_6_)"
   fill="#333333"
   stroke="#ffffff"
   stroke-miterlimit="10"
   points="175.922,165.787 175.991,137.31 258.277,184.829 258.207,213.306 "
   id="polygon876" />
	</g>
	<g
   style="fill:#b0b5be;fill-opacity:1"
   id="g881">
		<polygon
   style="fill:#b0b5be;fill-opacity:1"
   id="SVGID_2_"
   fill="none"
   stroke="#ffffff"
   stroke-miterlimit="10"
   points="175.922,165.787 175.991,137.31 258.277,184.829 258.207,213.306 " />
	</g>
</g>
    <polygon
       style="fill:#b0b5be;fill-opacity:1"
       fill="#888888"
       stroke="#ffffff"
       stroke-linecap="round"
       stroke-linejoin="round"
       stroke-miterlimit="10"
       points="135.076,175.326 175.956,151.566 258.242,199.05 217.361,222.81 "
       id="polygon885" />
    <polygon
       style="fill:#b0b5be;fill-opacity:1"
       fill="#888888"
       stroke="#ffffff"
       stroke-linecap="round"
       stroke-linejoin="round"
       stroke-miterlimit="10"
       points="135.041,189.546 135.076,175.326 217.361,222.81 217.326,237.066 "
       id="polygon887" />
    <polygon
       style="fill:#b0b5be;fill-opacity:1"
       fill="#888888"
       stroke="#ffffff"
       stroke-linecap="round"
       stroke-linejoin="round"
       stroke-miterlimit="10"
       points="217.326,237.066 217.361,222.81 258.242,199.05 258.207,213.306 "
       id="polygon889" />
    <polygon
       fill="#2c001e"
       stroke="#ffffff"
       stroke-linecap="round"
       stroke-linejoin="round"
       stroke-miterlimit="10"
       points="176.061,198.98 176.096,184.794 216.802,161.14 216.767,175.326 "
       id="polygon891" />
    <polygon
       fill="#cdcdcd"
       points="135.111,161.14 175.991,137.31 216.802,161.14 176.096,184.794 "
       id="polygon893" />
    <polygon
       fill="#cdcdcd"
       points="135.076,175.326 135.111,161.14 176.096,184.794 176.061,198.98 "
       id="polygon895" />
    <polygon
       fill="#cdcdcd"
       points="176.061,198.98 176.096,184.794 216.802,161.14 216.767,175.326 "
       id="polygon897" />
    <g
       id="g974">
	<g
   enable-background="new    "
   id="g912">
		<g
   id="g907">
			<defs
   id="defs900">
				<polygon
   id="polygon1013"
   points="135.111,175.326 175.991,151.566 216.802,175.326 176.061,198.98 " />
			</defs>
			<clipPath
   id="SVGID_10_">
				<use
   height="100%"
   width="100%"
   y="0"
   x="0"
   xlink:href="#SVGID_8_"
   overflow="visible"
   id="use902" />
			</clipPath>
			<polygon
   clip-path="url(#SVGID_10_)"
   fill="none"
   stroke="#ffffff"
   stroke-miterlimit="10"
   points="135.111,175.326 175.991,151.566 216.802,175.326 176.096,198.98 "
   id="polygon905" />
		</g>
		<g
   id="g910">
			<polygon
   id="SVGID_3_"
   fill="none"
   stroke="#ffffff"
   stroke-miterlimit="10"
   points="135.111,175.326 175.991,151.566 216.802,175.326 176.061,198.98 " />
		</g>
	</g>
	<g
   enable-background="new    "
   id="g927">
		<g
   id="g922">
			<defs
   id="defs915">
				<polygon
   id="polygon1023"
   points="135.146,161.14 176.026,137.31 216.837,161.14 176.131,184.794 " />
			</defs>
			<clipPath
   id="SVGID_13_">
				<use
   height="100%"
   width="100%"
   y="0"
   x="0"
   xlink:href="#SVGID_12_"
   overflow="visible"
   id="use917" />
			</clipPath>
			<polygon
   clip-path="url(#SVGID_13_)"
   fill="none"
   stroke="#ffffff"
   stroke-miterlimit="10"
   points="135.146,161.14 176.026,137.31 216.837,161.14 176.131,184.794 "
   id="polygon920" />
		</g>
		<g
   id="g925">
			<polygon
   id="SVGID_5_"
   fill="none"
   stroke="#ffffff"
   stroke-miterlimit="10"
   points="135.146,161.14 176.026,137.31 216.837,161.14 176.131,184.794 " />
		</g>
	</g>
	<g
   enable-background="new    "
   id="g942">
		<g
   id="g937">
			<defs
   id="defs930">
				<polygon
   id="polygon1033"
   points="135.111,175.326 135.146,161.14 176.131,184.794 176.061,198.98 " />
			</defs>
			<clipPath
   id="SVGID_15_">
				<use
   height="100%"
   width="100%"
   y="0"
   x="0"
   xlink:href="#SVGID_14_"
   overflow="visible"
   id="use932" />
			</clipPath>
			<polygon
   clip-path="url(#SVGID_15_)"
   fill="none"
   stroke="#ffffff"
   stroke-miterlimit="10"
   points="135.111,175.326 135.146,161.14 176.131,184.794 176.096,198.98 "
   id="polygon935" />
		</g>
		<g
   id="g940">
			<polygon
   id="SVGID_7_"
   fill="none"
   stroke="#ffffff"
   stroke-miterlimit="10"
   points="135.111,175.326 135.146,161.14 176.131,184.794 176.061,198.98 " />
		</g>
	</g>
	<g
   enable-background="new    "
   id="g957">
		<g
   id="g952">
			<defs
   id="defs945">
				<polygon
   id="polygon1043"
   points="175.991,151.566 135.111,175.326 135.146,161.14 176.026,137.31 " />
			</defs>
			<clipPath
   id="SVGID_17_">
				<use
   height="100%"
   width="100%"
   y="0"
   x="0"
   xlink:href="#SVGID_16_"
   overflow="visible"
   id="use947" />
			</clipPath>
			<polygon
   clip-path="url(#SVGID_17_)"
   fill="none"
   stroke="#ffffff"
   stroke-miterlimit="10"
   points="175.991,151.566 135.111,175.326 135.146,161.14 176.026,137.31 "
   id="polygon950" />
		</g>
		<g
   id="g955">
			<polygon
   id="SVGID_9_"
   fill="none"
   stroke="#ffffff"
   stroke-miterlimit="10"
   points="175.991,151.566 135.111,175.326 135.146,161.14 176.026,137.31 " />
		</g>
	</g>
	<g
   enable-background="new    "
   id="g972">
		<g
   id="g967">
			<defs
   id="defs960">
				<polygon
   id="polygon1053"
   points="216.802,175.326 175.991,151.566 176.026,137.31 216.837,161.14 " />
			</defs>
			<clipPath
   id="SVGID_19_">
				<use
   height="100%"
   width="100%"
   y="0"
   x="0"
   xlink:href="#SVGID_18_"
   overflow="visible"
   id="use962" />
			</clipPath>
			<polygon
   clip-path="url(#SVGID_19_)"
   fill="none"
   stroke="#ffffff"
   stroke-miterlimit="10"
   points="216.802,175.326 175.817,151.671 176.026,137.31 216.837,161.14 "
   id="polygon965" />
		</g>
		<g
   id="g970">
			<polygon
   id="SVGID_11_"
   fill="none"
   stroke="#ffffff"
   stroke-miterlimit="10"
   points="216.802,175.326 175.991,151.566 176.026,137.31 216.837,161.14 " />
		</g>
	</g>
</g>
  </g>
  <g
     style="font-size:24.2348px;line-height:1.05;font-family:Rubik;-inkscape-font-specification:'Rubik, Normal';stroke-width:0.605871;fill:#b0b5be;fill-opacity:1"
     id="text1068"
     aria-label="LXD">
    <path
       id="path1070"
       style="stroke-width:0.605873;fill:#b0b5be;fill-opacity:1"
       d="m 75.542057,100.66192 q -0.266582,0 -0.411991,-0.14541 -0.145409,-0.16964 -0.145409,-0.41199 V 84.254959 q 0,-0.242348 0.145409,-0.387757 0.145409,-0.169644 0.411991,-0.169644 h 1.284445 q 0.242348,0 0.387757,0.169644 0.145409,0.145409 0.145409,0.387757 v 14.298532 h 8.070188 q 0.266583,0 0.411992,0.169644 0.145408,0.145408 0.145408,0.411991 v 0.969394 q 0,0.24235 -0.145408,0.41199 -0.145409,0.14541 -0.411992,0.14541 z" />
    <path
       id="path1072"
       style="stroke-width:0.605873;fill:#b0b5be;fill-opacity:1"
       d="m 87.598871,100.66192 q -0.193879,0 -0.363522,-0.14541 -0.145409,-0.14541 -0.145409,-0.33929 0,-0.0969 0.02424,-0.16964 0.04847,-0.09694 0.0727,-0.14541 l 5.549769,-7.82784 -5.283186,-7.537023 q -0.0727,-0.145409 -0.0727,-0.315053 0,-0.193878 0.145408,-0.339287 0.145409,-0.145409 0.339288,-0.145409 h 1.454088 q 0.242348,0 0.387756,0.121174 0.145409,0.09694 0.266583,0.290818 l 4.265325,6.0587 4.24109,-6.0587 q 0.09694,-0.193878 0.242348,-0.290818 0.169644,-0.121174 0.387757,-0.121174 h 1.381384 q 0.19387,0 0.33929,0.145409 0.14541,0.145409 0.14541,0.339287 0,0.169644 -0.0969,0.315053 l -5.210486,7.561258 5.525536,7.803605 q 0.0485,0.04847 0.0727,0.14541 0.0242,0.0727 0.0242,0.16964 0,0.19388 -0.14541,0.33929 -0.14541,0.14541 -0.36352,0.14541 h -1.478317 q -0.218122,0 -0.387765,-0.12117 -0.145409,-0.12118 -0.266583,-0.26659 l -4.507673,-6.301046 -4.483438,6.301046 q -0.121174,0.14541 -0.266583,0.26659 -0.145409,0.12117 -0.387757,0.12117 z" />
    <path
       id="path1074"
       style="stroke-width:0.605873;fill:#b0b5be;fill-opacity:1"
       d="m 104.51021,100.66192 q -0.26658,0 -0.41199,-0.14541 -0.14541,-0.16964 -0.14541,-0.41199 V 84.279194 q 0,-0.266583 0.14541,-0.411992 0.14541,-0.169644 0.41199,-0.169644 h 5.5013 q 2.49619,0 4.02298,0.751279 1.52679,0.751279 2.2296,2.229602 0.70281,1.454088 0.72705,3.58675 0.0242,1.090566 0.0242,1.91455 0,0.823983 -0.0242,1.890314 -0.0485,2.229602 -0.75128,3.707924 -0.67858,1.454088 -2.18114,2.181132 -1.47832,0.702811 -3.92603,0.702811 z m 1.81761,-2.059959 h 3.68369 q 1.6722,0 2.66583,-0.460462 0.99363,-0.460461 1.42985,-1.478322 0.46047,-1.017862 0.4847,-2.690063 0.0485,-0.727044 0.0485,-1.26021 0,-0.5574 0,-1.090566 0,-0.5574 -0.0485,-1.26021 -0.0485,-2.350775 -1.1148,-3.465576 -1.06633,-1.139036 -3.58675,-1.139036 h -3.56252 z" />
  </g>
</svg>
