<?xml version="1.0" encoding="UTF-8"?>
<svg xmlns="http://www.w3.org/2000/svg" xmlns:xlink="http://www.w3.org/1999/xlink" width="105px" height="42px" viewBox="0 0 105 42" version="1.1">
<g id="surface1">
<path style=" stroke:none;fill-rule:nonzero;fill:rgb(38.039216%,40.784314%,43.921569%);fill-opacity:1;" d="M 21.242188 36.773438 C 21.289062 35.136719 21.339844 33.507812 21.398438 31.890625 C 21.453125 30.273438 21.515625 28.683594 21.585938 27.128906 C 21.65625 25.574219 21.730469 24.050781 21.808594 22.566406 C 21.886719 21.082031 21.980469 19.65625 22.085938 18.285156 L 23.285156 18.285156 C 23.621094 19.136719 23.972656 20.128906 24.34375 21.257812 C 24.714844 22.390625 25.089844 23.570312 25.46875 24.808594 C 25.847656 26.042969 26.210938 27.257812 26.5625 28.449219 C 26.910156 29.640625 27.222656 30.714844 27.496094 31.675781 C 27.773438 30.714844 28.085938 29.640625 28.433594 28.449219 C 28.785156 27.257812 29.148438 26.042969 29.527344 24.808594 C 29.90625 23.570312 30.28125 22.390625 30.660156 21.257812 C 31.039062 20.128906 31.386719 19.136719 31.710938 18.285156 L 32.84375 18.285156 C 32.945312 19.652344 33.042969 21.082031 33.128906 22.566406 C 33.214844 24.050781 33.289062 25.574219 33.351562 27.128906 C 33.414062 28.683594 33.476562 30.273438 33.539062 31.890625 C 33.601562 33.507812 33.65625 35.136719 33.703125 36.773438 L 32.363281 36.773438 C 32.316406 34.957031 32.265625 33.175781 32.214844 31.421875 C 32.164062 29.671875 32.105469 27.976562 32.035156 26.339844 C 31.964844 24.707031 31.886719 23.15625 31.792969 21.699219 C 31.679688 22.039062 31.5 22.59375 31.253906 23.367188 C 31.007812 24.140625 30.726562 25.03125 30.417969 26.035156 C 30.109375 27.039062 29.796875 28.066406 29.480469 29.117188 C 29.167969 30.164062 28.878906 31.132812 28.621094 32.023438 C 28.363281 32.914062 28.167969 33.613281 28.03125 34.128906 L 26.878906 34.128906 C 26.742188 33.613281 26.542969 32.914062 26.285156 32.023438 C 26.027344 31.132812 25.742188 30.164062 25.425781 29.117188 C 25.109375 28.066406 24.800781 27.039062 24.488281 26.035156 C 24.179688 25.03125 23.902344 24.140625 23.65625 23.367188 C 23.410156 22.59375 23.230469 22.039062 23.113281 21.699219 C 23.023438 23.15625 22.941406 24.707031 22.875 26.339844 C 22.804688 27.976562 22.746094 29.671875 22.691406 31.421875 C 22.640625 33.175781 22.59375 34.957031 22.546875 36.773438 Z M 21.242188 36.773438 "/>
<path style=" stroke:none;fill-rule:nonzero;fill:rgb(38.039216%,40.784314%,43.921569%);fill-opacity:1;" d="M 36.734375 19.644531 C 36.480469 19.644531 36.265625 19.511719 36.089844 19.246094 C 35.910156 18.980469 35.820312 18.621094 35.820312 18.179688 C 35.820312 17.734375 35.910156 17.40625 36.089844 17.136719 C 36.265625 16.871094 36.480469 16.738281 36.734375 16.738281 C 36.984375 16.738281 37.199219 16.871094 37.378906 17.136719 C 37.554688 17.40625 37.644531 17.75 37.644531 18.179688 C 37.644531 18.605469 37.554688 18.980469 37.378906 19.246094 C 37.199219 19.511719 36.984375 19.644531 36.734375 19.644531 Z M 36.082031 36.773438 L 36.082031 22.953125 L 37.371094 22.953125 L 37.371094 36.773438 Z M 36.082031 36.773438 "/>
<path style=" stroke:none;fill-rule:nonzero;fill:rgb(38.039216%,40.784314%,43.921569%);fill-opacity:1;" d="M 43.566406 37.066406 C 42.625 37.066406 41.839844 36.769531 41.210938 36.171875 C 40.582031 35.574219 40.105469 34.734375 39.785156 33.652344 C 39.464844 32.566406 39.304688 31.3125 39.304688 29.890625 C 39.304688 28.464844 39.46875 27.1875 39.800781 26.101562 C 40.132812 25.015625 40.613281 24.167969 41.238281 23.554688 C 41.859375 22.941406 42.601562 22.632812 43.460938 22.632812 C 43.933594 22.632812 44.378906 22.695312 44.804688 22.820312 C 45.226562 22.945312 45.558594 23.105469 45.800781 23.300781 L 45.472656 24.980469 C 45.246094 24.820312 44.988281 24.6875 44.699219 24.582031 C 44.414062 24.472656 44.035156 24.421875 43.566406 24.421875 C 42.613281 24.421875 41.890625 24.902344 41.390625 25.863281 C 40.894531 26.824219 40.644531 28.167969 40.644531 29.890625 C 40.644531 30.957031 40.746094 31.894531 40.953125 32.703125 C 41.160156 33.515625 41.492188 34.144531 41.949219 34.597656 C 42.410156 35.050781 43.015625 35.277344 43.773438 35.277344 C 44.21875 35.277344 44.613281 35.199219 44.949219 35.039062 C 45.285156 34.878906 45.535156 34.734375 45.695312 34.609375 L 45.953125 36.320312 C 45.738281 36.496094 45.40625 36.664062 44.957031 36.824219 C 44.511719 36.984375 44.046875 37.066406 43.566406 37.066406 Z M 43.566406 37.066406 "/>
<path style=" stroke:none;fill-rule:nonzero;fill:rgb(38.039216%,40.784314%,43.921569%);fill-opacity:1;" d="M 47.453125 36.773438 L 47.453125 23.59375 C 47.75 23.398438 48.160156 23.199219 48.683594 22.992188 C 49.203125 22.789062 49.832031 22.6875 50.566406 22.6875 C 50.804688 22.6875 51.042969 22.707031 51.277344 22.753906 C 51.511719 22.796875 51.726562 22.851562 51.914062 22.910156 C 52.101562 22.976562 52.242188 23.03125 52.335938 23.085938 L 52.078125 24.792969 C 51.976562 24.722656 51.777344 24.644531 51.492188 24.566406 C 51.207031 24.484375 50.839844 24.445312 50.394531 24.445312 C 49.945312 24.445312 49.597656 24.496094 49.308594 24.59375 C 49.023438 24.691406 48.835938 24.777344 48.742188 24.847656 L 48.742188 36.769531 L 47.453125 36.769531 Z M 47.453125 36.773438 "/>
<path style=" stroke:none;fill-rule:nonzero;fill:rgb(38.039216%,40.784314%,43.921569%);fill-opacity:1;" d="M 57.015625 37.09375 C 56.226562 37.09375 55.519531 36.792969 54.902344 36.199219 C 54.28125 35.601562 53.800781 34.761719 53.449219 33.675781 C 53.101562 32.59375 52.925781 31.320312 52.925781 29.863281 C 52.925781 28.40625 53.101562 27.136719 53.449219 26.0625 C 53.796875 24.984375 54.28125 24.144531 54.902344 23.539062 C 55.519531 22.9375 56.226562 22.632812 57.015625 22.632812 C 57.808594 22.632812 58.527344 22.9375 59.148438 23.539062 C 59.765625 24.144531 60.25 24.984375 60.601562 26.0625 C 60.949219 27.136719 61.125 28.40625 61.125 29.863281 C 61.125 31.320312 60.949219 32.59375 60.601562 33.675781 C 60.25 34.761719 59.769531 35.601562 59.15625 36.199219 C 58.542969 36.792969 57.828125 37.09375 57.015625 37.09375 Z M 57.015625 35.304688 C 57.589844 35.304688 58.082031 35.082031 58.496094 34.636719 C 58.90625 34.195312 59.226562 33.5625 59.449219 32.746094 C 59.671875 31.925781 59.785156 30.964844 59.785156 29.863281 C 59.785156 28.761719 59.671875 27.800781 59.449219 26.980469 C 59.226562 26.164062 58.90625 25.53125 58.496094 25.085938 C 58.082031 24.644531 57.589844 24.421875 57.015625 24.421875 C 56.441406 24.421875 55.96875 24.644531 55.554688 25.085938 C 55.140625 25.53125 54.824219 26.164062 54.601562 26.980469 C 54.378906 27.800781 54.265625 28.761719 54.265625 29.863281 C 54.265625 30.964844 54.378906 31.925781 54.601562 32.746094 C 54.824219 33.5625 55.140625 34.195312 55.554688 34.636719 C 55.96875 35.082031 56.453125 35.304688 57.015625 35.304688 Z M 57.015625 35.304688 "/>
<path style=" stroke:none;fill-rule:nonzero;fill:rgb(38.039216%,40.784314%,43.921569%);fill-opacity:1;" d="M 68.257812 37.171875 C 67.214844 37.171875 66.28125 36.796875 65.449219 36.050781 C 64.617188 35.304688 63.964844 34.214844 63.488281 32.785156 C 63.015625 31.351562 62.777344 29.597656 62.777344 27.515625 C 62.777344 25.96875 62.925781 24.59375 63.222656 23.394531 C 63.519531 22.195312 63.929688 21.183594 64.453125 20.367188 C 64.972656 19.546875 65.570312 18.929688 66.242188 18.511719 C 66.910156 18.09375 67.613281 17.882812 68.347656 17.882812 C 68.953125 17.882812 69.484375 17.960938 69.9375 18.113281 C 70.386719 18.261719 70.761719 18.4375 71.0625 18.632812 C 71.359375 18.828125 71.578125 18.996094 71.714844 19.136719 L 71.285156 20.898438 C 70.996094 20.632812 70.628906 20.375 70.175781 20.125 C 69.722656 19.875 69.175781 19.75 68.535156 19.75 C 67.59375 19.75 66.800781 20.074219 66.152344 20.726562 C 65.507812 21.375 65.015625 22.28125 64.683594 23.445312 C 64.351562 24.609375 64.1875 25.976562 64.1875 27.539062 C 64.1875 29.105469 64.347656 30.472656 64.667969 31.636719 C 64.988281 32.800781 65.460938 33.703125 66.085938 34.34375 C 66.710938 34.984375 67.472656 35.304688 68.378906 35.304688 C 69.136719 35.304688 69.765625 35.191406 70.269531 34.96875 C 70.773438 34.746094 71.164062 34.519531 71.441406 34.289062 L 71.800781 36.050781 C 71.617188 36.226562 71.21875 36.460938 70.605469 36.746094 C 69.992188 37.03125 69.210938 37.171875 68.257812 37.171875 Z M 68.257812 37.171875 "/>
<path style=" stroke:none;fill-rule:nonzero;fill:rgb(38.039216%,40.784314%,43.921569%);fill-opacity:1;" d="M 75.742188 37.011719 C 75.191406 36.976562 74.734375 36.835938 74.375 36.585938 C 74.015625 36.335938 73.746094 35.949219 73.574219 35.425781 C 73.402344 34.902344 73.316406 34.191406 73.316406 33.304688 L 73.316406 16.417969 L 74.605469 16.070312 L 74.605469 33.171875 C 74.605469 34.023438 74.707031 34.574219 74.90625 34.824219 C 75.109375 35.074219 75.449219 35.25 75.929688 35.359375 Z M 75.742188 37.011719 "/>
<path style=" stroke:none;fill-rule:nonzero;fill:rgb(38.039216%,40.784314%,43.921569%);fill-opacity:1;" d="M 80.867188 37.09375 C 80.078125 37.09375 79.375 36.792969 78.753906 36.199219 C 78.136719 35.601562 77.652344 34.761719 77.300781 33.675781 C 76.953125 32.59375 76.777344 31.320312 76.777344 29.863281 C 76.777344 28.40625 76.953125 27.136719 77.300781 26.0625 C 77.652344 24.984375 78.136719 24.144531 78.753906 23.539062 C 79.375 22.9375 80.078125 22.632812 80.867188 22.632812 C 81.660156 22.632812 82.382812 22.9375 83 23.539062 C 83.617188 24.144531 84.101562 24.984375 84.453125 26.0625 C 84.800781 27.136719 84.976562 28.40625 84.976562 29.863281 C 84.976562 31.320312 84.800781 32.59375 84.453125 33.675781 C 84.101562 34.761719 83.621094 35.601562 83.007812 36.199219 C 82.394531 36.792969 81.683594 37.09375 80.867188 37.09375 Z M 80.867188 35.304688 C 81.441406 35.304688 81.933594 35.082031 82.347656 34.636719 C 82.757812 34.195312 83.078125 33.5625 83.300781 32.746094 C 83.523438 31.925781 83.636719 30.964844 83.636719 29.863281 C 83.636719 28.761719 83.523438 27.800781 83.300781 26.980469 C 83.078125 26.164062 82.757812 25.53125 82.347656 25.085938 C 81.933594 24.644531 81.441406 24.421875 80.867188 24.421875 C 80.296875 24.421875 79.820312 24.644531 79.40625 25.085938 C 78.996094 25.53125 78.675781 26.164062 78.453125 26.980469 C 78.230469 27.800781 78.117188 28.761719 78.117188 29.863281 C 78.117188 30.964844 78.230469 31.925781 78.453125 32.746094 C 78.675781 33.5625 78.996094 34.195312 79.40625 34.636719 C 79.820312 35.082031 80.304688 35.304688 80.867188 35.304688 Z M 80.867188 35.304688 "/>
<path style=" stroke:none;fill-rule:nonzero;fill:rgb(38.039216%,40.784314%,43.921569%);fill-opacity:1;" d="M 90.421875 37.039062 C 89.527344 37.039062 88.820312 36.777344 88.296875 36.25 C 87.777344 35.726562 87.402344 34.984375 87.179688 34.023438 C 86.957031 33.0625 86.84375 31.953125 86.84375 30.6875 L 86.84375 22.953125 L 88.132812 22.953125 L 88.132812 30.15625 C 88.132812 31.402344 88.214844 32.398438 88.375 33.144531 C 88.535156 33.890625 88.796875 34.429688 89.15625 34.757812 C 89.519531 35.085938 89.996094 35.25 90.59375 35.25 C 91.074219 35.25 91.5 35.210938 91.871094 35.132812 C 92.246094 35.050781 92.488281 34.984375 92.601562 34.929688 L 92.601562 22.953125 L 93.875 22.953125 L 93.875 36.292969 C 93.53125 36.433594 93.070312 36.59375 92.492188 36.769531 C 91.914062 36.949219 91.222656 37.039062 90.421875 37.039062 Z M 90.421875 37.039062 "/>
<path style=" stroke:none;fill-rule:nonzero;fill:rgb(38.039216%,40.784314%,43.921569%);fill-opacity:1;" d="M 100.261719 37.09375 C 99.390625 37.09375 98.621094 36.804688 97.957031 36.226562 C 97.292969 35.648438 96.777344 34.820312 96.410156 33.742188 C 96.042969 32.667969 95.859375 31.382812 95.859375 29.890625 C 95.859375 28.394531 96.019531 27.210938 96.332031 26.128906 C 96.648438 25.042969 97.105469 24.195312 97.707031 23.582031 C 98.308594 22.96875 99.035156 22.660156 99.882812 22.660156 C 100.433594 22.660156 100.917969 22.78125 101.335938 23.019531 C 101.753906 23.261719 102.066406 23.496094 102.273438 23.726562 L 102.273438 16.417969 L 103.542969 16.074219 L 103.542969 36.347656 C 103.328125 36.453125 103.058594 36.566406 102.738281 36.679688 C 102.414062 36.796875 102.050781 36.894531 101.644531 36.972656 C 101.238281 37.054688 100.777344 37.09375 100.261719 37.09375 Z M 100.277344 35.304688 C 100.78125 35.304688 101.195312 35.265625 101.523438 35.183594 C 101.851562 35.105469 102.097656 35.03125 102.269531 34.957031 L 102.269531 25.59375 C 102.078125 25.347656 101.777344 25.09375 101.378906 24.835938 C 100.976562 24.578125 100.523438 24.449219 100.019531 24.449219 C 99.515625 24.449219 99.066406 24.585938 98.703125 24.863281 C 98.34375 25.136719 98.050781 25.523438 97.828125 26.023438 C 97.605469 26.519531 97.441406 27.097656 97.347656 27.753906 C 97.25 28.414062 97.199219 29.117188 97.199219 29.863281 C 97.199219 31.019531 97.328125 32 97.585938 32.808594 C 97.84375 33.621094 98.207031 34.238281 98.671875 34.664062 C 99.132812 35.09375 99.671875 35.304688 100.277344 35.304688 Z M 100.277344 35.304688 "/>
<path style=" stroke:none;fill-rule:nonzero;fill:rgb(38.039216%,40.784314%,43.921569%);fill-opacity:1;" d="M 0.0117188 0 L 17.199219 0 L 17.199219 42 L 0.0117188 42 Z M 0.0117188 0 "/>
<path style=" stroke:none;fill-rule:nonzero;fill:rgb(100%,100%,100%);fill-opacity:1;" d="M 12.492188 31.324219 C 12.199219 31.324219 11.957031 31.675781 11.9375 32.125 L 9.609375 32.980469 C 9.550781 32.796875 9.453125 32.640625 9.339844 32.539062 L 10.125 28.332031 C 10.144531 28.332031 10.167969 28.335938 10.1875 28.335938 C 10.644531 28.335938 11.015625 27.761719 11.015625 27.054688 C 11.015625 26.351562 10.644531 25.777344 10.1875 25.777344 C 9.734375 25.777344 9.363281 26.351562 9.363281 27.054688 C 9.363281 27.546875 9.542969 27.972656 9.804688 28.1875 L 9.019531 32.394531 C 9.011719 32.394531 9 32.394531 8.992188 32.394531 C 8.894531 32.394531 8.804688 32.421875 8.722656 32.476562 L 6.992188 28.84375 C 7.058594 28.699219 7.101562 28.523438 7.101562 28.335938 C 7.101562 27.859375 6.851562 27.472656 6.542969 27.472656 C 6.238281 27.472656 5.988281 27.859375 5.988281 28.335938 C 5.988281 28.8125 6.238281 29.199219 6.542969 29.199219 C 6.609375 29.199219 6.667969 29.179688 6.726562 29.148438 L 8.457031 32.785156 C 8.414062 32.859375 8.378906 32.945312 8.351562 33.039062 L 5.988281 32.398438 C 5.988281 32.375 5.988281 32.355469 5.988281 32.332031 C 5.988281 31.429688 5.515625 30.695312 4.933594 30.695312 C 4.929688 30.695312 4.925781 30.695312 4.921875 30.695312 C 4.917969 30.695312 4.910156 30.695312 4.90625 30.695312 C 4.324219 30.695312 3.851562 31.429688 3.851562 32.332031 C 3.851562 33.238281 4.324219 33.972656 4.90625 33.972656 C 4.910156 33.972656 4.917969 33.972656 4.921875 33.972656 C 4.925781 33.972656 4.929688 33.972656 4.933594 33.972656 C 5.386719 33.972656 5.773438 33.527344 5.921875 32.90625 L 8.296875 33.550781 C 8.320312 34.113281 8.621094 34.554688 8.992188 34.554688 C 9.359375 34.554688 9.683594 34.078125 9.6875 33.484375 L 12.015625 32.628906 C 12.109375 32.878906 12.289062 33.046875 12.488281 33.046875 C 12.796875 33.046875 13.046875 32.664062 13.046875 32.1875 C 13.046875 31.710938 12.796875 31.324219 12.488281 31.324219 Z M 12.492188 31.324219 "/>
<path style=" stroke:none;fill-rule:nonzero;fill:rgb(100%,100%,100%);fill-opacity:1;" d="M 13.351562 27.890625 C 13.351562 27.867188 13.351562 27.851562 13.351562 27.832031 C 13.351562 24.996094 11.863281 22.6875 10.035156 22.6875 C 8.980469 22.6875 8.015625 23.441406 7.390625 24.730469 C 7.121094 24.578125 6.832031 24.496094 6.542969 24.496094 C 5.257812 24.496094 4.199219 26.046875 4.105469 28.011719 C 2.902344 28.566406 2.054688 30.296875 2.054688 32.289062 C 2.054688 34.753906 3.347656 36.757812 4.933594 36.757812 C 5.507812 36.757812 6.914062 36.757812 8.363281 36.761719 L 8.484375 36.761719 C 10.007812 36.765625 11.546875 36.765625 12.179688 36.765625 C 13.824219 36.765625 15.160156 34.691406 15.160156 32.144531 C 15.160156 30.265625 14.441406 28.605469 13.351562 27.886719 Z M 12.179688 35.667969 C 11.550781 35.667969 10.007812 35.667969 8.484375 35.664062 L 8.363281 35.664062 C 6.914062 35.660156 5.507812 35.65625 4.933594 35.65625 C 3.738281 35.65625 2.765625 34.148438 2.765625 32.289062 C 2.765625 30.671875 3.503906 29.285156 4.519531 28.984375 L 4.820312 28.894531 L 4.808594 28.417969 C 4.804688 28.378906 4.804688 28.335938 4.804688 28.292969 C 4.804688 26.804688 5.585938 25.597656 6.542969 25.597656 C 6.824219 25.597656 7.101562 25.703125 7.351562 25.90625 L 7.644531 26.144531 L 7.816406 25.707031 C 8.296875 24.507812 9.125 23.789062 10.035156 23.789062 C 11.472656 23.789062 12.640625 25.601562 12.640625 27.832031 C 12.640625 27.957031 12.636719 28.085938 12.628906 28.210938 L 12.601562 28.65625 L 12.875 28.789062 C 13.816406 29.253906 14.449219 30.601562 14.449219 32.144531 C 14.449219 34.089844 13.429688 35.667969 12.179688 35.667969 Z M 12.179688 35.667969 "/>
</g>
</svg>
