<?xml version="1.0" encoding="UTF-8" standalone="no"?>
<svg    xmlns:dc="http://purl.org/dc/elements/1.1/"
   xmlns:cc="http://creativecommons.org/ns#"
   xmlns:rdf="http://www.w3.org/1999/02/22-rdf-syntax-ns#"
   xmlns:svg="http://www.w3.org/2000/svg"
   xmlns="http://www.w3.org/2000/svg"
   xmlns:xlink="http://www.w3.org/1999/xlink"
   width="192"
   height="64"
   viewBox="0 0 50.799999 16.933334"
   version="1.1"
   id="svg2854">
  <defs
     id="defs2848">
    <style
       id="style2">.cls-1{fill:#fff;stroke:#d9d9d9;}.cls-2{fill:#e00;}</style>
    <polygon
       id="SVGID_4_"
       points="258.277,184.829 258.207,213.306 175.922,165.787 175.991,137.31    " />
    <polygon
       id="SVGID_8_"
       points="216.802,175.326 176.061,198.98 135.111,175.326 175.991,151.566     " />
    <polygon
       id="SVGID_12_"
       points="216.837,161.14 176.131,184.794 135.146,161.14 176.026,137.31     " />
    <polygon
       id="SVGID_14_"
       points="176.131,184.794 176.061,198.98 135.111,175.326 135.146,161.14     " />
    <polygon
       id="SVGID_16_"
       points="135.146,161.14 176.026,137.31 175.991,151.566 135.111,175.326     " />
    <polygon
       id="SVGID_18_"
       points="176.026,137.31 216.837,161.14 216.802,175.326 175.991,151.566     " />
  </defs>
  <g
     style="stroke:none"
     transform="matrix(0.08651898,0,0,0.08651898,-10.9935,-7.9326586)"
     id="g3490">
    <polygon
       style="stroke:none"
       fill="#dd4814"
       stroke="#ffffff"
       stroke-linecap="round"
       stroke-linejoin="round"
       stroke-miterlimit="10"
       points="299.088,189.546 299.018,218.023 217.256,265.542 217.326,237.066 "
       id="polygon3283" />
    <polygon
       style="stroke:none"
       fill="#dd4814"
       stroke="#ffffff"
       stroke-linecap="round"
       stroke-linejoin="round"
       stroke-miterlimit="10"
       points="217.326,237.066 217.256,265.542 134.971,218.023 135.041,189.546 "
       id="polygon3285" />
    <polygon
       style="stroke:none"
       fill="#333333"
       stroke="#ffffff"
       stroke-linecap="round"
       stroke-linejoin="round"
       stroke-miterlimit="10"
       points="299.157,161.07 258.277,184.829 175.991,137.31 216.872,113.55 "
       id="polygon3287" />
    <g
       style="stroke:none"
       enable-background="new    "
       id="g3291">
	<polygon
   style="stroke:none"
   fill="#333333"
   stroke="#ffffff"
   stroke-linecap="round"
   stroke-linejoin="round"
   stroke-miterlimit="10"
   points="299.367,161.175 299.262,189.651 258.382,213.411 258.486,184.934 "
   id="polygon3289" />
</g>
    <g
       style="stroke:none"
       enable-background="new    "
       id="g3309">
	<g
   style="stroke:none"
   id="g3294">
		<polygon
   style="stroke:none"
   id="SVGID_1_"
   fill="#333333"
   points="258.277,184.829 258.207,213.306 175.922,165.787 175.991,137.31 " />
	</g>
	<g
   style="stroke:none"
   id="g3304">
		<defs
   id="defs3297">
			<polygon
   id="polygon3422"
   points="258.277,184.829 258.207,213.306 175.922,165.787 175.991,137.31 " />
		</defs>
		<clipPath
   id="SVGID_6_">
			<use
   height="100%"
   width="100%"
   y="0"
   x="0"
   xlink:href="#SVGID_4_"
   overflow="visible"
   id="use3299" />
		</clipPath>
		<polygon
   style="stroke:none"
   clip-path="url(#SVGID_6_)"
   fill="#333333"
   stroke="#ffffff"
   stroke-miterlimit="10"
   points="258.277,184.829 258.207,213.306 175.922,165.787 175.991,137.31 "
   id="polygon3302" />
	</g>
	<g
   style="stroke:none"
   id="g3307">
		<polygon
   style="stroke:none"
   id="SVGID_2_"
   fill="none"
   stroke="#ffffff"
   stroke-miterlimit="10"
   points="258.277,184.829 258.207,213.306 175.922,165.787 175.991,137.31 " />
	</g>
</g>
    <polygon
       style="stroke:none"
       fill="#888888"
       stroke="#ffffff"
       stroke-linecap="round"
       stroke-linejoin="round"
       stroke-miterlimit="10"
       points="258.242,199.05 217.361,222.81 135.076,175.326 175.956,151.566 "
       id="polygon3311" />
    <polygon
       style="stroke:none"
       fill="#888888"
       stroke="#ffffff"
       stroke-linecap="round"
       stroke-linejoin="round"
       stroke-miterlimit="10"
       points="217.361,222.81 217.326,237.066 135.041,189.546 135.076,175.326 "
       id="polygon3313" />
    <polygon
       style="stroke:none"
       fill="#888888"
       stroke="#ffffff"
       stroke-linecap="round"
       stroke-linejoin="round"
       stroke-miterlimit="10"
       points="258.242,199.05 258.207,213.306 217.326,237.066 217.361,222.81 "
       id="polygon3315" />
    <polygon
       style="stroke:none"
       fill="#2c001e"
       stroke="#ffffff"
       stroke-linecap="round"
       stroke-linejoin="round"
       stroke-miterlimit="10"
       points="216.802,161.14 216.767,175.326 176.061,198.98 176.096,184.794 "
       id="polygon3317" />
    <polygon
       style="stroke:none"
       fill="#cdcdcd"
       points="216.802,161.14 176.096,184.794 135.111,161.14 175.991,137.31 "
       id="polygon3319" />
    <polygon
       style="stroke:none"
       fill="#cdcdcd"
       points="176.096,184.794 176.061,198.98 135.076,175.326 135.111,161.14 "
       id="polygon3321" />
    <polygon
       style="stroke:none"
       fill="#cdcdcd"
       points="216.802,161.14 216.767,175.326 176.061,198.98 176.096,184.794 "
       id="polygon3323" />
    <g
       style="stroke:none"
       id="g3400">
	<g
   style="stroke:none"
   enable-background="new    "
   id="g3338">
		<g
   style="stroke:none"
   id="g3333">
			<defs
   id="defs3326">
				<polygon
   id="polygon3439"
   points="216.802,175.326 176.061,198.98 135.111,175.326 175.991,151.566 " />
			</defs>
			<clipPath
   id="SVGID_10_">
				<use
   height="100%"
   width="100%"
   y="0"
   x="0"
   xlink:href="#SVGID_8_"
   overflow="visible"
   id="use3328" />
			</clipPath>
			<polygon
   style="stroke:none"
   clip-path="url(#SVGID_10_)"
   fill="none"
   stroke="#ffffff"
   stroke-miterlimit="10"
   points="216.802,175.326 176.096,198.98 135.111,175.326 175.991,151.566 "
   id="polygon3331" />
		</g>
		<g
   style="stroke:none"
   id="g3336">
			<polygon
   style="stroke:none"
   id="SVGID_3_"
   fill="none"
   stroke="#ffffff"
   stroke-miterlimit="10"
   points="216.802,175.326 176.061,198.98 135.111,175.326 175.991,151.566 " />
		</g>
	</g>
	<g
   style="stroke:none"
   enable-background="new    "
   id="g3353">
		<g
   style="stroke:none"
   id="g3348">
			<defs
   id="defs3341">
				<polygon
   id="polygon3449"
   points="216.837,161.14 176.131,184.794 135.146,161.14 176.026,137.31 " />
			</defs>
			<clipPath
   id="SVGID_13_">
				<use
   height="100%"
   width="100%"
   y="0"
   x="0"
   xlink:href="#SVGID_12_"
   overflow="visible"
   id="use3343" />
			</clipPath>
			<polygon
   style="stroke:none"
   clip-path="url(#SVGID_13_)"
   fill="none"
   stroke="#ffffff"
   stroke-miterlimit="10"
   points="216.837,161.14 176.131,184.794 135.146,161.14 176.026,137.31 "
   id="polygon3346" />
		</g>
		<g
   style="stroke:none"
   id="g3351">
			<polygon
   style="stroke:none"
   id="SVGID_5_"
   fill="none"
   stroke="#ffffff"
   stroke-miterlimit="10"
   points="216.837,161.14 176.131,184.794 135.146,161.14 176.026,137.31 " />
		</g>
	</g>
	<g
   style="stroke:none"
   enable-background="new    "
   id="g3368">
		<g
   style="stroke:none"
   id="g3363">
			<defs
   id="defs3356">
				<polygon
   id="polygon3459"
   points="176.131,184.794 176.061,198.98 135.111,175.326 135.146,161.14 " />
			</defs>
			<clipPath
   id="SVGID_15_">
				<use
   height="100%"
   width="100%"
   y="0"
   x="0"
   xlink:href="#SVGID_14_"
   overflow="visible"
   id="use3358" />
			</clipPath>
			<polygon
   style="stroke:none"
   clip-path="url(#SVGID_15_)"
   fill="none"
   stroke="#ffffff"
   stroke-miterlimit="10"
   points="176.131,184.794 176.096,198.98 135.111,175.326 135.146,161.14 "
   id="polygon3361" />
		</g>
		<g
   style="stroke:none"
   id="g3366">
			<polygon
   style="stroke:none"
   id="SVGID_7_"
   fill="none"
   stroke="#ffffff"
   stroke-miterlimit="10"
   points="176.131,184.794 176.061,198.98 135.111,175.326 135.146,161.14 " />
		</g>
	</g>
	<g
   style="stroke:none"
   enable-background="new    "
   id="g3383">
		<g
   style="stroke:none"
   id="g3378">
			<defs
   id="defs3371">
				<polygon
   id="polygon3469"
   points="135.146,161.14 176.026,137.31 175.991,151.566 135.111,175.326 " />
			</defs>
			<clipPath
   id="SVGID_17_">
				<use
   height="100%"
   width="100%"
   y="0"
   x="0"
   xlink:href="#SVGID_16_"
   overflow="visible"
   id="use3373" />
			</clipPath>
			<polygon
   style="stroke:none"
   clip-path="url(#SVGID_17_)"
   fill="none"
   stroke="#ffffff"
   stroke-miterlimit="10"
   points="135.146,161.14 176.026,137.31 175.991,151.566 135.111,175.326 "
   id="polygon3376" />
		</g>
		<g
   style="stroke:none"
   id="g3381">
			<polygon
   style="stroke:none"
   id="SVGID_9_"
   fill="none"
   stroke="#ffffff"
   stroke-miterlimit="10"
   points="135.146,161.14 176.026,137.31 175.991,151.566 135.111,175.326 " />
		</g>
	</g>
	<g
   style="stroke:none"
   enable-background="new    "
   id="g3398">
		<g
   style="stroke:none"
   id="g3393">
			<defs
   id="defs3386">
				<polygon
   id="polygon3479"
   points="176.026,137.31 216.837,161.14 216.802,175.326 175.991,151.566 " />
			</defs>
			<clipPath
   id="SVGID_19_">
				<use
   height="100%"
   width="100%"
   y="0"
   x="0"
   xlink:href="#SVGID_18_"
   overflow="visible"
   id="use3388" />
			</clipPath>
			<polygon
   style="stroke:none"
   clip-path="url(#SVGID_19_)"
   fill="none"
   stroke="#ffffff"
   stroke-miterlimit="10"
   points="176.026,137.31 216.837,161.14 216.802,175.326 175.817,151.671 "
   id="polygon3391" />
		</g>
		<g
   style="stroke:none"
   id="g3396">
			<polygon
   style="stroke:none"
   id="SVGID_11_"
   fill="none"
   stroke="#ffffff"
   stroke-miterlimit="10"
   points="176.026,137.31 216.837,161.14 216.802,175.326 175.991,151.566 " />
		</g>
	</g>
</g>
  </g>
  <g
     style="font-size:6.51545px;line-height:1.05;font-family:Rubik;-inkscape-font-specification:'Rubik, Normal';stroke-width:0.162887"
     id="text3494"
     aria-label="LXD">
    <path
       id="path3496"
       style="stroke-width:0.162887"
       d="m 18.668081,10.747074 q -0.07167,0 -0.110762,-0.03909 -0.03909,-0.04561 -0.03909,-0.110762 V 6.3361145 q 0,-0.065155 0.03909,-0.1042472 0.03909,-0.045608 0.110762,-0.045608 H 19.0134 q 0.06516,0 0.104247,0.045608 0.03909,0.039093 0.03909,0.1042472 V 10.18023 h 2.169645 q 0.07167,0 0.110762,0.04561 0.03909,0.03909 0.03909,0.110763 v 0.260618 q 0,0.06515 -0.03909,0.110762 -0.03909,0.03909 -0.110762,0.03909 z" />
    <path
       id="path3498"
       style="stroke-width:0.162887"
       d="m 21.909518,10.747074 q -0.05212,0 -0.09773,-0.03909 -0.03909,-0.03909 -0.03909,-0.09122 0,-0.02606 0.0065,-0.04561 0.01303,-0.02606 0.01955,-0.03909 L 23.290793,8.4275739 21.870425,6.401269 q -0.01955,-0.039093 -0.01955,-0.084701 0,-0.052124 0.03909,-0.091216 0.03909,-0.039093 0.09122,-0.039093 h 0.390927 q 0.06516,0 0.104248,0.032577 0.03909,0.026062 0.07167,0.078185 l 1.146719,1.6288625 1.140204,-1.6288625 q 0.02606,-0.052124 0.06515,-0.078185 0.04561,-0.032577 0.104247,-0.032577 h 0.371381 q 0.05212,0 0.09122,0.039093 0.03909,0.039093 0.03909,0.091216 0,0.045608 -0.02606,0.084701 l -1.400822,2.0328204 1.485523,2.0979746 q 0.01303,0.01303 0.01955,0.03909 0.0065,0.01955 0.0065,0.04561 0,0.05212 -0.03909,0.09122 -0.03909,0.03909 -0.09773,0.03909 H 25.05648 q -0.05864,0 -0.104247,-0.03258 -0.03909,-0.03258 -0.07167,-0.07167 L 23.668689,8.9488099 22.463331,10.642827 q -0.03258,0.03909 -0.07167,0.07167 -0.03909,0.03258 -0.104247,0.03258 z" />
    <path
       id="path3500"
       style="stroke-width:0.162887"
       d="m 26.45608,10.747074 q -0.07167,0 -0.110762,-0.03909 -0.03909,-0.04561 -0.03909,-0.110762 V 6.3426299 q 0,-0.07167 0.03909,-0.1107626 0.03909,-0.045608 0.110762,-0.045608 h 1.479007 q 0.671092,0 1.081565,0.201979 0.410474,0.2019789 0.599422,0.5994214 0.188948,0.390927 0.195463,0.9642866 0.0065,0.2931952 0.0065,0.5147205 0,0.2215253 -0.0065,0.5082051 -0.01303,0.5994214 -0.201979,0.9968639 -0.182432,0.3909274 -0.58639,0.5863904 -0.397443,0.188948 -1.055503,0.188948 z m 0.488659,-0.553813 h 0.990348 q 0.449567,0 0.7167,-0.123794 0.267133,-0.1237932 0.384412,-0.3974421 0.123793,-0.2736489 0.130309,-0.723215 0.01303,-0.1954635 0.01303,-0.3388034 0,-0.1498553 0,-0.2931952 0,-0.1498554 -0.01303,-0.3388034 Q 29.153477,7.3460092 28.866797,7.0462985 28.580117,6.7400724 27.90251,6.7400724 h -0.957771 z" />
  </g>
</svg>
