<svg xmlns:inkscape="http://www.inkscape.org/namespaces/inkscape" xmlns:sodipodi="http://sodipodi.sourceforge.net/DTD/sodipodi-0.dtd" xmlns="http://www.w3.org/2000/svg" xmlns:svg="http://www.w3.org/2000/svg" id="Layer_1" viewBox="0 0 192 128" version="1.1" sodipodi:docname="lxd-128.svg" inkscape:version="1.1.2 (0a00cf5339, 2022-02-04)" width="192" height="128">
  <sodipodi:namedview id="namedview109" pagecolor="#ffffff" bordercolor="#666666" borderopacity="1.0" inkscape:pageshadow="2" inkscape:pageopacity="0.0" inkscape:pagecheckerboard="0" showgrid="false" inkscape:zoom="2.8616351" inkscape:cx="60.280221" inkscape:cy="45.079122" inkscape:window-width="1920" inkscape:window-height="1004" inkscape:window-x="0" inkscape:window-y="0" inkscape:window-maximized="1" inkscape:current-layer="Layer_1" width="192px" fill="#a4aab5"/>
  <defs id="defs78" fill="#a4aab5">
    <style id="style76">.cls-1{fill:none;}.cls-1,.cls-2,.cls-3,.cls-4{stroke-width:0px;}.cls-3{fill:#fff;}.cls-4{fill:#a4aab5;}</style>
  </defs>
  <path class="cls-2" d="m 1.4060742,126.81163 c 0.1049212,-2.62905 0.2254461,-5.2446 0.3585257,-7.84498 0.1330198,-2.60037 0.278684,-5.15181 0.4368131,-7.65262 0.1596985,-2.5008 0.3319069,-4.94425 0.5166549,-7.332 0.1847481,-2.38606 0.3976844,-4.679315 0.6372247,-6.88145 h 2.7837009 c 0.7687349,1.371915 1.5844303,2.96487 2.4455318,4.78058 0.8611014,1.81569 1.7300347,3.71577 2.6052307,5.7019 0.875181,1.98615 1.71594,3.93685 2.525373,5.85211 0.807864,1.91526 1.531193,3.64321 2.168403,5.18724 0.635655,-1.54403 1.358984,-3.27198 2.168417,-5.18724 0.809433,-1.91526 1.650178,-3.86596 2.525373,-5.85211 0.875196,-1.98613 1.750392,-3.88621 2.625587,-5.7019 0.875181,-1.81402 1.683059,-3.408665 2.42673,-4.78058 h 2.625586 c 0.237971,2.200445 0.45717,4.49539 0.655997,6.88145 0.198843,2.38606 0.371066,4.8312 0.51667,7.332 0.145575,2.50081 0.291209,5.05225 0.436813,7.65262 0.145575,2.60206 0.272422,5.21593 0.377313,7.84498 H 27.13892 c -0.106416,-2.91592 -0.219183,-5.77954 -0.338184,-8.5959 -0.11897,-2.81468 -0.258327,-5.53655 -0.418026,-8.16729 -0.159683,-2.62906 -0.344431,-5.11638 -0.557368,-7.46025 -0.266144,0.54337 -0.682616,1.43603 -1.252508,2.67968 -0.569893,1.24366 -1.213365,2.67294 -1.928862,4.28784 -0.715497,1.61489 -1.438826,3.26523 -2.168417,4.95099 -0.729577,1.68747 -1.391851,3.24498 -1.988362,4.67257 -0.596512,1.42927 -1.053667,2.55819 -1.371494,3.38673 h -2.664716 c -0.317828,-0.82854 -0.774997,-1.95746 -1.373078,-3.38673 -0.596497,-1.42928 -1.26034,-2.9868 -1.988362,-4.67257 -0.729577,-1.68576 -1.4513365,-3.3361 -2.1684029,-4.95099 -0.7154971,-1.6149 -1.3589841,-3.04418 -1.9288768,-4.28784 -0.5698927,-1.24365 -0.9879187,-2.13631 -1.2525085,-2.67968 -0.2129214,2.34387 -0.3976695,4.83119 -0.557368,7.46025 -0.1596984,2.62906 -0.2990404,5.35261 -0.4180259,8.16729 -0.1189705,2.81469 -0.2317085,5.67998 -0.3381692,8.5959 H 1.4029355 Z" id="path80" fill="#a4aab5"/>
  <path class="cls-2" d="m 37.256078,99.287525 c -0.583972,0 -1.080285,-0.21431 -1.492049,-0.64293 -0.411764,-0.42861 -0.616868,-1.000655 -0.616868,-1.714447 0,-0.713791 0.205104,-1.243658 0.616868,-1.672271 0.410194,-0.428613 0.908077,-0.642925 1.492049,-0.642925 0.583987,0 1.0803,0.214312 1.492064,0.642925 0.410194,0.428613 0.616853,0.985466 0.616853,1.672271 0,0.686795 -0.20509,1.285837 -0.616853,1.714447 -0.411764,0.42862 -0.908077,0.64293 -1.492064,0.64293 z m -1.510836,27.524105 v -22.20862 h 2.982543 v 22.20862 z" id="path82" fill="#a4aab5"/>
  <path class="cls-2" d="m 53.067484,127.28243 c -2.174679,0 -3.990818,-0.47755 -5.45,-1.43602 -1.459168,-0.95679 -2.55981,-2.30845 -3.301926,-4.05158 -0.742116,-1.74315 -1.113181,-3.75797 -1.113181,-6.04447 0,-2.28652 0.38359,-4.34352 1.153879,-6.08834 0.768735,-1.74315 1.87564,-3.10831 3.320728,-4.09378 1.445088,-0.98547 3.162598,-1.47821 5.15096,-1.47821 1.086548,0 2.121442,0.0996 3.103098,0.30037 0.980087,0.20081 1.750376,0.45729 2.307744,0.77117 l -0.756195,2.70161 c -0.530764,-0.25649 -1.127276,-0.4708 -1.789535,-0.64292 -0.663828,-0.17212 -1.539024,-0.25649 -2.625572,-0.25649 -2.201298,0 -3.878095,0.77117 -5.031974,2.31519 -1.153865,1.54403 -1.730035,3.70229 -1.730035,6.47308 0,1.71446 0.237986,3.22305 0.715497,4.52239 0.477526,1.30104 1.246261,2.31519 2.307759,3.04416 1.059944,0.72899 2.465888,1.09348 4.216265,1.09348 1.034894,0 1.942971,-0.12825 2.724215,-0.38643 0.78126,-0.25648 1.358984,-0.48598 1.730035,-0.68679 l 0.596512,2.7438 c -0.504146,0.28688 -1.272865,0.55687 -2.30776,0.81506 -1.034879,0.25816 -2.108916,0.38642 -3.222083,0.38642 z" id="path84" fill="#a4aab5"/>
  <path class="cls-2" d="m 62.065213,126.81163 v -21.17926 c 0.688878,-0.31387 1.637653,-0.63618 2.84477,-0.96522 1.207103,-0.32907 2.658454,-0.49275 4.355607,-0.49275 0.557368,0 1.106904,0.0354 1.650178,0.1063 0.543274,0.0709 1.034894,0.15693 1.471707,0.25649 0.436813,0.10126 0.762458,0.19238 0.973825,0.27842 l -0.596512,2.74381 c -0.237971,-0.11304 -0.690448,-0.23624 -1.352707,-0.36448 -0.663828,-0.12826 -1.510851,-0.19237 -2.54573,-0.19237 -1.034894,0 -1.842758,0.0793 -2.506586,0.23624 -0.663829,0.15694 -1.100642,0.29362 -1.312009,0.40667 v 19.16446 h -2.982543 z" id="path86" fill="#a4aab5"/>
  <path class="cls-2" d="m 84.193954,127.32632 c -1.830218,0 -3.460054,-0.47926 -4.892618,-1.43603 -1.432563,-0.95679 -2.551992,-2.30844 -3.361425,-4.05159 -0.809433,-1.74315 -1.213365,-3.78665 -1.213365,-6.13053 0,-2.34387 0.403932,-4.37896 1.213365,-6.10859 0.807864,-1.72965 1.928862,-3.07962 3.361425,-4.05158 1.432564,-0.97198 3.0624,-1.45797 4.892618,-1.45797 1.830233,0 3.500783,0.48599 4.931777,1.45797 1.432548,0.97196 2.551992,2.32193 3.361425,4.05158 0.807864,1.72963 1.213365,3.76641 1.213365,6.10859 0,2.3422 -0.403932,4.38738 -1.213365,6.13053 -0.809433,1.74315 -1.922599,3.0948 -3.341084,4.05159 -1.418469,0.95677 -3.070216,1.43603 -4.952118,1.43603 z m 0,-2.87207 c 1.326103,0 2.465888,-0.35773 3.420926,-1.07153 0.955037,-0.71379 1.690891,-1.72964 2.207561,-3.04417 0.516654,-1.31452 0.776551,-2.85854 0.776551,-4.63038 0,-1.77182 -0.258327,-3.31584 -0.776551,-4.63038 -0.51667,-1.31453 -1.252524,-2.32869 -2.207561,-3.04417 -0.955038,-0.71379 -2.094823,-1.07154 -3.420926,-1.07154 -1.326088,0 -2.426729,0.35775 -3.381782,1.07154 -0.955037,0.71548 -1.690891,1.72964 -2.207546,3.04417 -0.516655,1.31454 -0.774982,2.85856 -0.774982,4.63038 0,1.77184 0.258327,3.31586 0.774982,4.63038 0.516655,1.31453 1.252509,2.33038 2.207546,3.04417 0.955053,0.71548 2.080744,1.07153 3.381782,1.07153 z" id="path88" fill="#a4aab5"/>
  <path class="cls-2" d="m 110.21177,127.45456 c -2.41265,0 -4.58107,-0.60074 -6.50368,-1.80052 -1.9226,-1.19979 -3.43502,-2.95136 -4.534088,-5.25137 -1.100642,-2.3 -1.650178,-5.12311 -1.650178,-8.46765 0,-2.48731 0.344432,-4.69451 1.034879,-6.62328 0.688878,-1.92875 1.637667,-3.55039 2.844767,-4.86661 1.2071,-1.314545 2.58488,-2.308445 4.13643,-2.980057 1.55155,-0.671612 3.17511,-1.007407 4.87226,-1.007407 1.40595,0 2.63185,0.121483 3.67926,0.364482 1.04742,0.242998 1.91478,0.52142 2.60523,0.835296 0.68887,0.315544 1.19302,0.585551 1.51085,0.815051 l -0.9942,2.829855 c -0.66383,-0.42861 -1.51867,-0.84203 -2.56607,-1.24364 -1.04742,-0.399945 -2.31402,-0.600755 -3.79825,-0.600755 -2.17467,0 -4.01116,0.52142 -5.50949,1.564285 -1.49832,1.04284 -2.63184,2.5008 -3.40058,4.37219 -0.77029,1.87308 -1.15386,4.06678 -1.15386,6.58109 0,2.51431 0.37105,4.70968 1.11317,6.58108 0.74211,1.87307 1.83649,3.32261 3.28159,4.35194 1.44507,1.02936 3.21582,1.54403 5.31064,1.54403 1.75039,0 3.208,-0.17887 4.37596,-0.53661 1.16641,-0.35774 2.06821,-0.72224 2.70543,-1.09347 l 0.83448,2.82986 c -0.42428,0.28518 -1.34644,0.65812 -2.76491,1.11541 -1.41847,0.45731 -3.22835,0.68511 -5.42964,0.68511 z" id="path90" fill="#a4aab5"/>
  <path class="cls-2" d="m 127.52618,127.19637 c -1.27287,-0.0574 -2.32655,-0.28518 -3.1626,-0.6851 -0.83448,-0.39993 -1.45134,-1.02092 -1.84902,-1.86465 -0.39767,-0.84203 -0.5965,-1.97937 -0.5965,-3.40866 V 94.100279 l 2.98255,-0.556854 v 27.480235 c 0,1.3719 0.2317,2.25782 0.69671,2.65774 0.46341,0.39993 1.2525,0.68679 2.36724,0.85724 l -0.43681,2.65773 z" id="path92" fill="#a4aab5"/>
  <g id="g1313" transform="matrix(0.15656397,0,0,0.16874568,-47.720575,67.715206)">
    <path class="cls-2" d="m 1195.12,353.26 c -11.69,0 -22.1,-2.84 -31.25,-8.51 -9.15,-5.67 -16.3,-13.68 -21.47,-24.01 -5.17,-10.33 -7.75,-22.44 -7.75,-36.33 0,-13.89 2.58,-25.95 7.75,-36.2 5.16,-10.25 12.32,-18.25 21.47,-24.01 9.15,-5.76 19.56,-8.64 31.25,-8.64 11.69,0 22.36,2.88 31.5,8.64 9.15,5.76 16.3,13.76 21.47,24.01 5.16,10.25 7.75,22.32 7.75,36.2 0,13.88 -2.58,26 -7.75,36.33 -5.17,10.33 -12.28,18.34 -21.34,24.01 -9.06,5.67 -19.61,8.51 -31.63,8.51 z m 0,-17.02 c 8.47,0 15.75,-2.12 21.85,-6.35 6.1,-4.23 10.8,-10.25 14.1,-18.04 3.3,-7.79 4.95,-16.94 4.95,-27.44 0,-10.5 -1.65,-19.65 -4.95,-27.44 -3.3,-7.79 -8,-13.8 -14.1,-18.04 -6.1,-4.23 -13.38,-6.35 -21.85,-6.35 -8.47,0 -15.5,2.12 -21.6,6.35 -6.1,4.24 -10.8,10.25 -14.1,18.04 -3.3,7.79 -4.95,16.94 -4.95,27.44 0,10.5 1.65,19.65 4.95,27.44 3.3,7.79 8,13.81 14.1,18.04 6.1,4.24 13.29,6.35 21.6,6.35 z" id="path94" fill="#a4aab5"/>
  </g>
  <g id="g1316" transform="matrix(0.15656397,0,0,0.16874568,-47.720575,67.715206)">
    <path class="cls-2" d="m 1336.3,352.75 c -13.21,0 -23.67,-2.5 -31.38,-7.5 -7.71,-4.99 -13.21,-12.07 -16.51,-21.21 -3.3,-9.15 -4.95,-19.73 -4.95,-31.76 V 218.6 h 19.05 v 68.6 c 0,11.86 1.18,21.34 3.56,28.46 2.37,7.11 6.22,12.24 11.56,15.37 5.34,3.14 12.41,4.7 21.21,4.7 7.11,0 13.42,-0.38 18.93,-1.14 5.5,-0.76 9.1,-1.4 10.8,-1.91 V 218.6 h 18.8 v 127.03 c -5.08,1.36 -11.9,2.88 -20.45,4.57 -8.56,1.69 -18.76,2.54 -30.62,2.54 z" id="path96" fill="#a4aab5"/>
  </g>
  <path class="cls-2" d="m 184.26811,127.32632 c -2.015,0 -3.79198,-0.46407 -5.32945,-1.39384 -1.53901,-0.92811 -2.73203,-2.25782 -3.58062,-3.98746 -0.84858,-1.72965 -1.27287,-3.79509 -1.27287,-6.19466 0,-2.39957 0.36481,-4.30134 1.0944,-6.04447 0.72957,-1.74315 1.78952,-3.10829 3.18292,-4.09378 1.39187,-0.98547 3.06866,-1.47821 5.03198,-1.47821 1.27288,0 2.39232,0.19237 3.36144,0.5788 0.96756,0.38643 1.69089,0.76441 2.1684,1.13565 V 94.101968 l 2.94341,-0.556853 v 32.583105 c -0.50414,0.17211 -1.12726,0.35099 -1.86937,0.53662 -0.74212,0.18561 -1.58442,0.34255 -2.52539,0.47079 -0.94094,0.12824 -2.00871,0.19237 -3.20171,0.19237 z m 0.0392,-2.87207 c 1.1664,0 2.12772,-0.0641 2.88391,-0.19235 0.7562,-0.12826 1.33237,-0.24976 1.73004,-0.3645 v -15.04874 c -0.45091,-0.39993 -1.13978,-0.80661 -2.06821,-1.22173 -0.92843,-0.41342 -1.97584,-0.62098 -3.14224,-0.62098 -1.1664,0 -2.20755,0.22107 -3.04361,0.66485 -0.83449,0.44381 -1.51085,1.0648 -2.02908,1.86466 -0.51665,0.79985 -0.88926,1.72964 -1.11316,2.78598 -0.22545,1.05803 -0.33819,2.18695 -0.33819,3.38673 0,1.85789 0.29904,3.43735 0.89557,4.73669 0.5965,1.30104 1.43253,2.29325 2.50657,2.98005 1.07404,0.6868 2.31402,1.02934 3.7184,1.02934 z" id="path98" fill="#a4aab5"/>
  <g id="g1319" transform="matrix(0.39112823,0,0,0.22955879,46.326715,1.1470564)">
    <rect class="cls-4" width="254" height="400" id="rect100" x="0" y="0" fill="#a4aab5"/>
  </g>
  <rect class="cls-1" x="58.144653" y="19.289206" width="75.710693" height="64.920662" id="rect102" fill="#a4aab5"/>
  <path class="cls-3" d="m 119.3698,62.533848 c -1.69361,0 -3.08211,1.126903 -3.19944,2.555654 l -13.4509,2.736745 c -0.35591,-0.590275 -0.89959,-1.083303 -1.56843,-1.411973 l 4.5371,-13.438919 c 0.12521,0.007 0.2464,0.01681 0.37548,0.01681 2.6323,0 4.76786,-1.831204 4.76786,-4.08835 0,-2.257147 -2.13556,-4.088363 -4.76786,-4.088363 -2.6323,0 -4.76785,1.831216 -4.76785,4.088363 0,1.569599 1.03258,2.931273 2.54625,3.615448 l -4.537103,13.438919 c -0.0547,0 -0.10952,-0.007 -0.16428,-0.007 -0.55147,0 -1.07168,0.09398 -1.55278,0.264966 L 87.586691,54.608473 c 0.387225,-0.456112 0.617986,-1.012867 0.617986,-1.619909 0,-1.519301 -1.435445,-2.753522 -3.211158,-2.753522 -1.775727,0 -3.21117,1.230873 -3.21117,2.753522 0,1.52265 1.435443,2.753511 3.21117,2.753511 0.367664,0 0.715756,-0.05365 1.044315,-0.150929 L 96.038988,67.19886 c -0.23859,0.244827 -0.43807,0.519861 -0.59061,0.818348 L 81.770622,65.967987 c 0,-0.07045 0.01183,-0.137501 0.01183,-0.207936 0,-2.891022 -2.733983,-5.23537 -6.105509,-5.23537 -0.02345,0 -0.05083,0 -0.07428,0 -0.02345,0 -0.05083,0 -0.07428,0 -3.371527,0 -6.10551,2.344348 -6.10551,5.23537 0,2.891034 2.733983,5.235371 6.10551,5.235371 0.02345,0 0.05083,0 0.07428,0 0.02345,0 0.05083,0 0.07428,0 2.624471,0 4.853897,-1.422031 5.718297,-3.410864 l 13.728598,2.059268 c 0.1408,1.797674 1.88134,3.216343 4.01299,3.216343 2.131652,0 4.009052,-1.529347 4.024702,-3.42429 l 13.45091,-2.736745 c 0.5593,0.804931 1.58406,1.34491 2.75352,1.34491 1.77181,0 3.21117,-1.230873 3.21117,-2.753523 0,-1.522661 -1.43544,-2.753533 -3.21117,-2.753533 z" id="path104" fill="#a4aab5"/>
  <g id="g1322" transform="matrix(0.39112823,0,0,0.33538593,46.314981,-37.518482)">
    <path class="cls-3" d="m 197.13,265.61 c 0,-0.19 0,-0.37 0,-0.56 0,-27.01 -21.97,-48.98 -48.98,-48.98 -15.58,0 -29.89,7.2 -39.1,19.47 -4,-1.47 -8.25,-2.24 -12.51,-2.24 -19.04,0 -34.68,14.78 -36.07,33.47 -17.79,5.29 -30.29,21.79 -30.29,40.76 0,23.46 19.08,42.54 42.54,42.54 8.48,0 29.3,0.02 50.68,0.04 h 1.79 c 22.52,0.03 45.31,0.05 54.65,0.05 24.29,0 44.04,-19.76 44.04,-44.04 0,-17.88 -10.59,-33.68 -26.75,-40.52 z m -17.29,74.09 c -9.33,0 -32.12,-0.02 -54.63,-0.05 h -1.79 c -21.39,-0.02 -42.22,-0.05 -50.69,-0.05 -17.68,0 -32.07,-14.38 -32.07,-32.07 0,-15.4 10.92,-28.64 25.96,-31.49 l 4.46,-0.84 -0.21,-4.54 c -0.02,-0.4 -0.03,-0.8 -0.03,-1.19 0,-14.17 11.53,-25.69 25.69,-25.69 4.14,0 8.27,1.02 11.94,2.95 l 4.33,2.27 2.56,-4.16 c 7.06,-11.45 19.31,-18.29 32.78,-18.29 21.23,0 38.5,17.27 38.5,38.51 0,1.21 -0.06,2.43 -0.17,3.63 l -0.4,4.21 4.02,1.28 c 13.93,4.44 23.29,17.28 23.29,31.96 0,18.51 -15.06,33.57 -33.57,33.57 z" id="path106" fill="#a4aab5"/>
  </g>
</svg>