<?xml version="1.0" encoding="UTF-8" standalone="no"?>
<svg    xmlns:dc="http://purl.org/dc/elements/1.1/"
   xmlns:cc="http://creativecommons.org/ns#"
   xmlns:rdf="http://www.w3.org/1999/02/22-rdf-syntax-ns#"
   xmlns:svg="http://www.w3.org/2000/svg"
   xmlns="http://www.w3.org/2000/svg"
   xmlns:xlink="http://www.w3.org/1999/xlink"
   width="192px"
   height="128px"
   viewBox="0 0 192 128"
   version="1.1"
   id="svg849"
   >
  <defs
     id="defs853">
    <polygon
       points="258.277,184.829 258.207,213.306 175.922,165.787 175.991,137.31    "
       id="SVGID_4_" />
    <polygon
       points="216.802,175.326 176.061,198.98 135.111,175.326 175.991,151.566     "
       id="SVGID_8_" />
    <polygon
       points="216.837,161.14 176.131,184.794 135.146,161.14 176.026,137.31     "
       id="SVGID_12_" />
    <polygon
       points="176.131,184.794 176.061,198.98 135.111,175.326 135.146,161.14     "
       id="SVGID_14_" />
    <polygon
       points="135.146,161.14 176.026,137.31 175.991,151.566 135.111,175.326     "
       id="SVGID_16_" />
    <polygon
       points="176.026,137.31 216.837,161.14 216.802,175.326 175.991,151.566     "
       id="SVGID_18_" />
  </defs>
  <g
     style="stroke:none"
     id="g1064"
     transform="matrix(0.41208996,0,0,0.41208996,6.5804596,-40.793623)">
    <polygon
       style="stroke:none"
       id="polygon857"
       points="217.256,265.542 217.326,237.066 299.088,189.546 299.018,218.023 "
       stroke-miterlimit="10"
       stroke-linejoin="round"
       stroke-linecap="round"
       stroke="#ffffff"
       fill="#dd4814" />
    <polygon
       style="stroke:none"
       id="polygon859"
       points="134.971,218.023 135.041,189.546 217.326,237.066 217.256,265.542 "
       stroke-miterlimit="10"
       stroke-linejoin="round"
       stroke-linecap="round"
       stroke="#ffffff"
       fill="#dd4814" />
    <polygon
       style="stroke:none"
       id="polygon861"
       points="175.991,137.31 216.872,113.55 299.157,161.07 258.277,184.829 "
       stroke-miterlimit="10"
       stroke-linejoin="round"
       stroke-linecap="round"
       stroke="#ffffff"
       fill="#333333" />
    <g
       style="stroke:none"
       id="g865"
       enable-background="new    ">
      <polygon
         style="stroke:none"
         id="polygon863"
         points="258.382,213.411 258.486,184.934 299.367,161.175 299.262,189.651 "
         stroke-miterlimit="10"
         stroke-linejoin="round"
         stroke-linecap="round"
         stroke="#ffffff"
         fill="#333333" />
    </g>
    <g
       style="stroke:none"
       id="g883"
       enable-background="new    ">
      <g
         style="stroke:none"
         id="g868">
        <polygon
           style="stroke:none"
           points="175.922,165.787 175.991,137.31 258.277,184.829 258.207,213.306 "
           fill="#333333"
           id="SVGID_1_" />
      </g>
      <g
         style="stroke:none"
         id="g878">
        <defs
           id="defs871">
          <polygon
             points="175.922,165.787 175.991,137.31 258.277,184.829 258.207,213.306 "
             id="polygon996" />
        </defs>
        <clipPath
           id="SVGID_6_">
          <use
             id="use873"
             overflow="visible"
             xlink:href="#SVGID_4_"
             x="0"
             y="0"
             width="100%"
             height="100%" />
        </clipPath>
        <polygon
           style="stroke:none"
           id="polygon876"
           points="175.922,165.787 175.991,137.31 258.277,184.829 258.207,213.306 "
           stroke-miterlimit="10"
           stroke="#ffffff"
           fill="#333333"
           clip-path="url(#SVGID_6_)" />
      </g>
      <g
         style="stroke:none"
         id="g881">
        <polygon
           style="stroke:none"
           points="175.922,165.787 175.991,137.31 258.277,184.829 258.207,213.306 "
           stroke-miterlimit="10"
           stroke="#ffffff"
           fill="none"
           id="SVGID_2_" />
      </g>
    </g>
    <polygon
       style="stroke:none"
       id="polygon885"
       points="135.076,175.326 175.956,151.566 258.242,199.05 217.361,222.81 "
       stroke-miterlimit="10"
       stroke-linejoin="round"
       stroke-linecap="round"
       stroke="#ffffff"
       fill="#888888" />
    <polygon
       style="stroke:none"
       id="polygon887"
       points="135.041,189.546 135.076,175.326 217.361,222.81 217.326,237.066 "
       stroke-miterlimit="10"
       stroke-linejoin="round"
       stroke-linecap="round"
       stroke="#ffffff"
       fill="#888888" />
    <polygon
       style="stroke:none"
       id="polygon889"
       points="217.326,237.066 217.361,222.81 258.242,199.05 258.207,213.306 "
       stroke-miterlimit="10"
       stroke-linejoin="round"
       stroke-linecap="round"
       stroke="#ffffff"
       fill="#888888" />
    <polygon
       style="stroke:none"
       id="polygon891"
       points="176.061,198.98 176.096,184.794 216.802,161.14 216.767,175.326 "
       stroke-miterlimit="10"
       stroke-linejoin="round"
       stroke-linecap="round"
       stroke="#ffffff"
       fill="#2c001e" />
    <polygon
       style="stroke:none"
       id="polygon893"
       points="135.111,161.14 175.991,137.31 216.802,161.14 176.096,184.794 "
       fill="#cdcdcd" />
    <polygon
       style="stroke:none"
       id="polygon895"
       points="135.076,175.326 135.111,161.14 176.096,184.794 176.061,198.98 "
       fill="#cdcdcd" />
    <polygon
       style="stroke:none"
       id="polygon897"
       points="176.061,198.98 176.096,184.794 216.802,161.14 216.767,175.326 "
       fill="#cdcdcd" />
    <g
       style="stroke:none"
       id="g974">
      <g
         style="stroke:none"
         id="g912"
         enable-background="new    ">
        <g
           style="stroke:none"
           id="g907">
          <defs
             id="defs900">
            <polygon
               points="135.111,175.326 175.991,151.566 216.802,175.326 176.061,198.98 "
               id="polygon1013" />
          </defs>
          <clipPath
             id="SVGID_10_">
            <use
               id="use902"
               overflow="visible"
               xlink:href="#SVGID_8_"
               x="0"
               y="0"
               width="100%"
               height="100%" />
          </clipPath>
          <polygon
             style="stroke:none"
             id="polygon905"
             points="135.111,175.326 175.991,151.566 216.802,175.326 176.096,198.98 "
             stroke-miterlimit="10"
             stroke="#ffffff"
             fill="none"
             clip-path="url(#SVGID_10_)" />
        </g>
        <g
           style="stroke:none"
           id="g910">
          <polygon
             style="stroke:none"
             points="135.111,175.326 175.991,151.566 216.802,175.326 176.061,198.98 "
             stroke-miterlimit="10"
             stroke="#ffffff"
             fill="none"
             id="SVGID_3_" />
        </g>
      </g>
      <g
         style="stroke:none"
         id="g927"
         enable-background="new    ">
        <g
           style="stroke:none"
           id="g922">
          <defs
             id="defs915">
            <polygon
               points="135.146,161.14 176.026,137.31 216.837,161.14 176.131,184.794 "
               id="polygon1023" />
          </defs>
          <clipPath
             id="SVGID_13_">
            <use
               id="use917"
               overflow="visible"
               xlink:href="#SVGID_12_"
               x="0"
               y="0"
               width="100%"
               height="100%" />
          </clipPath>
          <polygon
             style="stroke:none"
             id="polygon920"
             points="135.146,161.14 176.026,137.31 216.837,161.14 176.131,184.794 "
             stroke-miterlimit="10"
             stroke="#ffffff"
             fill="none"
             clip-path="url(#SVGID_13_)" />
        </g>
        <g
           style="stroke:none"
           id="g925">
          <polygon
             style="stroke:none"
             points="135.146,161.14 176.026,137.31 216.837,161.14 176.131,184.794 "
             stroke-miterlimit="10"
             stroke="#ffffff"
             fill="none"
             id="SVGID_5_" />
        </g>
      </g>
      <g
         style="stroke:none"
         id="g942"
         enable-background="new    ">
        <g
           style="stroke:none"
           id="g937">
          <defs
             id="defs930">
            <polygon
               points="135.111,175.326 135.146,161.14 176.131,184.794 176.061,198.98 "
               id="polygon1033" />
          </defs>
          <clipPath
             id="SVGID_15_">
            <use
               id="use932"
               overflow="visible"
               xlink:href="#SVGID_14_"
               x="0"
               y="0"
               width="100%"
               height="100%" />
          </clipPath>
          <polygon
             style="stroke:none"
             id="polygon935"
             points="135.111,175.326 135.146,161.14 176.131,184.794 176.096,198.98 "
             stroke-miterlimit="10"
             stroke="#ffffff"
             fill="none"
             clip-path="url(#SVGID_15_)" />
        </g>
        <g
           style="stroke:none"
           id="g940">
          <polygon
             style="stroke:none"
             points="135.111,175.326 135.146,161.14 176.131,184.794 176.061,198.98 "
             stroke-miterlimit="10"
             stroke="#ffffff"
             fill="none"
             id="SVGID_7_" />
        </g>
      </g>
      <g
         style="stroke:none"
         id="g957"
         enable-background="new    ">
        <g
           style="stroke:none"
           id="g952">
          <defs
             id="defs945">
            <polygon
               points="175.991,151.566 135.111,175.326 135.146,161.14 176.026,137.31 "
               id="polygon1043" />
          </defs>
          <clipPath
             id="SVGID_17_">
            <use
               id="use947"
               overflow="visible"
               xlink:href="#SVGID_16_"
               x="0"
               y="0"
               width="100%"
               height="100%" />
          </clipPath>
          <polygon
             style="stroke:none"
             id="polygon950"
             points="175.991,151.566 135.111,175.326 135.146,161.14 176.026,137.31 "
             stroke-miterlimit="10"
             stroke="#ffffff"
             fill="none"
             clip-path="url(#SVGID_17_)" />
        </g>
        <g
           style="stroke:none"
           id="g955">
          <polygon
             style="stroke:none"
             points="175.991,151.566 135.111,175.326 135.146,161.14 176.026,137.31 "
             stroke-miterlimit="10"
             stroke="#ffffff"
             fill="none"
             id="SVGID_9_" />
        </g>
      </g>
      <g
         style="stroke:none"
         id="g972"
         enable-background="new    ">
        <g
           style="stroke:none"
           id="g967">
          <defs
             id="defs960">
            <polygon
               points="216.802,175.326 175.991,151.566 176.026,137.31 216.837,161.14 "
               id="polygon1053" />
          </defs>
          <clipPath
             id="SVGID_19_">
            <use
               id="use962"
               overflow="visible"
               xlink:href="#SVGID_18_"
               x="0"
               y="0"
               width="100%"
               height="100%" />
          </clipPath>
          <polygon
             style="stroke:none"
             id="polygon965"
             points="216.802,175.326 175.817,151.671 176.026,137.31 216.837,161.14 "
             stroke-miterlimit="10"
             stroke="#ffffff"
             fill="none"
             clip-path="url(#SVGID_19_)" />
        </g>
        <g
           style="stroke:none"
           id="g970">
          <polygon
             style="stroke:none"
             points="216.802,175.326 175.991,151.566 176.026,137.31 216.837,161.14 "
             stroke-miterlimit="10"
             stroke="#ffffff"
             fill="none"
             id="SVGID_11_" />
        </g>
      </g>
    </g>
  </g>
  <g
     aria-label="LXD"
     id="text1068"
     style="font-size:24.2348px;line-height:1.05;font-family:Rubik;-inkscape-font-specification:'Rubik, Normal';stroke-width:0.605871">
    <path
       d="m 75.542057,100.66192 q -0.266582,0 -0.411991,-0.14541 -0.145409,-0.16964 -0.145409,-0.41199 V 84.254959 q 0,-0.242348 0.145409,-0.387757 0.145409,-0.169644 0.411991,-0.169644 h 1.284445 q 0.242348,0 0.387757,0.169644 0.145409,0.145409 0.145409,0.387757 v 14.298532 h 8.070188 q 0.266583,0 0.411992,0.169644 0.145408,0.145408 0.145408,0.411991 v 0.969394 q 0,0.24235 -0.145408,0.41199 -0.145409,0.14541 -0.411992,0.14541 z"
       style="stroke-width:0.605873"
       id="path1070" />
    <path
       d="m 87.598871,100.66192 q -0.193879,0 -0.363522,-0.14541 -0.145409,-0.14541 -0.145409,-0.33929 0,-0.0969 0.02424,-0.16964 0.04847,-0.09694 0.0727,-0.14541 l 5.549769,-7.82784 -5.283186,-7.537023 q -0.0727,-0.145409 -0.0727,-0.315053 0,-0.193878 0.145408,-0.339287 0.145409,-0.145409 0.339288,-0.145409 h 1.454088 q 0.242348,0 0.387756,0.121174 0.145409,0.09694 0.266583,0.290818 l 4.265325,6.0587 4.24109,-6.0587 q 0.09694,-0.193878 0.242348,-0.290818 0.169644,-0.121174 0.387757,-0.121174 h 1.381384 q 0.19387,0 0.33929,0.145409 0.14541,0.145409 0.14541,0.339287 0,0.169644 -0.0969,0.315053 l -5.210486,7.561258 5.525536,7.803605 q 0.0485,0.04847 0.0727,0.14541 0.0242,0.0727 0.0242,0.16964 0,0.19388 -0.14541,0.33929 -0.14541,0.14541 -0.36352,0.14541 h -1.478317 q -0.218122,0 -0.387765,-0.12117 -0.145409,-0.12118 -0.266583,-0.26659 l -4.507673,-6.301046 -4.483438,6.301046 q -0.121174,0.14541 -0.266583,0.26659 -0.145409,0.12117 -0.387757,0.12117 z"
       style="stroke-width:0.605873"
       id="path1072" />
    <path
       d="m 104.51021,100.66192 q -0.26658,0 -0.41199,-0.14541 -0.14541,-0.16964 -0.14541,-0.41199 V 84.279194 q 0,-0.266583 0.14541,-0.411992 0.14541,-0.169644 0.41199,-0.169644 h 5.5013 q 2.49619,0 4.02298,0.751279 1.52679,0.751279 2.2296,2.229602 0.70281,1.454088 0.72705,3.58675 0.0242,1.090566 0.0242,1.91455 0,0.823983 -0.0242,1.890314 -0.0485,2.229602 -0.75128,3.707924 -0.67858,1.454088 -2.18114,2.181132 -1.47832,0.702811 -3.92603,0.702811 z m 1.81761,-2.059959 h 3.68369 q 1.6722,0 2.66583,-0.460462 0.99363,-0.460461 1.42985,-1.478322 0.46047,-1.017862 0.4847,-2.690063 0.0485,-0.727044 0.0485,-1.26021 0,-0.5574 0,-1.090566 0,-0.5574 -0.0485,-1.26021 -0.0485,-2.350775 -1.1148,-3.465576 -1.06633,-1.139036 -3.58675,-1.139036 h -3.56252 z"
       style="stroke-width:0.605873"
       id="path1074" />
  </g>
</svg>
