<?xml version="1.0" encoding="UTF-8" standalone="no"?>
<svg
   id="Layer_1"
   viewBox="0 0 105 42"
   version="1.1"
   sodipodi:docname="lxd-42-uncolored.svg"
   width="105"
   height="42"
   inkscape:version="1.1.2 (0a00cf5339, 2022-02-04)"
   xmlns:inkscape="http://www.inkscape.org/namespaces/inkscape"
   xmlns:sodipodi="http://sodipodi.sourceforge.net/DTD/sodipodi-0.dtd"
   xmlns="http://www.w3.org/2000/svg"
   xmlns:svg="http://www.w3.org/2000/svg">
  <sodipodi:namedview
     id="namedview118"
     pagecolor="#ffffff"
     bordercolor="#666666"
     borderopacity="1.0"
     inkscape:pageshadow="2"
     inkscape:pageopacity="0.0"
     inkscape:pagecheckerboard="0"
     showgrid="false"
     width="105px"
     inkscape:zoom="7.2407734"
     inkscape:cx="58.419174"
     inkscape:cy="24.168689"
     inkscape:window-width="1920"
     inkscape:window-height="1004"
     inkscape:window-x="0"
     inkscape:window-y="0"
     inkscape:window-maximized="1"
     inkscape:current-layer="Layer_1" />
  <defs
     id="defs87">
    <style
       id="style85">.cls-1{fill:none;}.cls-1,.cls-2,.cls-3,.cls-4{stroke-width:0px;}.cls-3{fill:#fff;}.cls-4{fill:#e95420;}</style>
  </defs>
  <g
     id="g13338"
     transform="matrix(0.9935483,0,0,0.99999998,0.0356856,-5.6837149e-8)">
    <path
       class="cls-2"
       d="m 21.63373,31.373503 c 0.04627,-1.075955 0.09945,-2.146385 0.158147,-3.2106 0.0587,-1.064214 0.122927,-2.108402 0.192677,-3.131871 0.07044,-1.023469 0.146408,-2.023458 0.227898,-3.000657 0.08149,-0.976508 0.175413,-1.915034 0.281075,-2.816267 h 1.227886 c 0.339085,0.561458 0.698888,1.213385 1.078718,1.95647 0.37983,0.743086 0.763113,1.520701 1.149158,2.333538 0.386045,0.812836 0.756898,1.611169 1.113938,2.395 0.356349,0.783831 0.675407,1.491006 0.956481,2.122905 0.280383,-0.631899 0.599441,-1.339074 0.956481,-2.122905 0.35704,-0.783831 0.727892,-1.582164 1.113938,-2.395 0.386045,-0.812837 0.77209,-1.590452 1.158136,-2.333538 0.386045,-0.742395 0.742395,-1.395012 1.07043,-1.95647 h 1.158136 c 0.104971,0.900543 0.201655,1.839759 0.289361,2.816267 0.08771,0.976509 0.163673,1.977188 0.227898,3.000657 0.06423,1.023469 0.128452,2.067657 0.192678,3.131871 0.06423,1.064905 0.120164,2.134645 0.166434,3.2106 h -1.368769 c -0.04696,-1.193357 -0.09668,-2.365305 -0.149169,-3.517917 -0.05249,-1.151921 -0.113949,-2.265858 -0.184391,-3.342504 -0.07044,-1.075955 -0.151932,-2.093899 -0.245853,-3.053142 -0.117402,0.222373 -0.301102,0.5877 -0.55248,1.096672 -0.251379,0.508973 -0.535215,1.093911 -0.850819,1.754815 -0.315605,0.660904 -0.634662,1.336311 -0.956481,2.02622 -0.32182,0.6906 -0.613944,1.328024 -0.877062,1.912272 -0.263119,0.584938 -0.464774,1.046949 -0.604966,1.386034 h -1.175401 c -0.140192,-0.339085 -0.341847,-0.801096 -0.605656,-1.386034 -0.263119,-0.584938 -0.555933,-1.222362 -0.877062,-1.912272 -0.32182,-0.689909 -0.640187,-1.365316 -0.956481,-2.02622 -0.315605,-0.660904 -0.599441,-1.245842 -0.85082,-1.754815 -0.251378,-0.508972 -0.435768,-0.874299 -0.55248,-1.096672 -0.09392,0.959243 -0.175412,1.977187 -0.245853,3.053142 -0.07044,1.075955 -0.131905,2.190583 -0.18439,3.342504 -0.05249,1.151921 -0.102209,2.32456 -0.14917,3.517917 h -1.333549 z"
       id="path89"
       style="fill:#61666e;fill-opacity:1" />
    <path
       class="cls-2"
       d="m 37.447088,20.109126 c -0.257593,0 -0.476514,-0.08771 -0.658141,-0.263119 -0.181628,-0.175412 -0.272097,-0.409525 -0.272097,-0.701649 0,-0.292124 0.09047,-0.508972 0.272097,-0.684385 0.180937,-0.175412 0.400548,-0.263118 0.658141,-0.263118 0.257594,0 0.476514,0.08771 0.658142,0.263118 0.180937,0.175413 0.272097,0.403311 0.272097,0.684385 0,0.281074 -0.09047,0.526237 -0.272097,0.701649 -0.181628,0.175413 -0.400548,0.263119 -0.658142,0.263119 z m -0.666429,11.264377 v -9.088987 h 1.315593 v 9.088987 z"
       id="path91"
       style="fill:#61666e;fill-opacity:1" />
    <path
       class="cls-2"
       d="m 44.421458,31.56618 c -0.959244,0 -1.76034,-0.19544 -2.403979,-0.587701 -0.643639,-0.39157 -1.129131,-0.94474 -1.456475,-1.65813 -0.327345,-0.71339 -0.491017,-1.537966 -0.491017,-2.473729 0,-0.935763 0.169197,-1.777605 0.508972,-2.491685 0.339085,-0.71339 0.827339,-1.272085 1.464763,-1.675396 0.637424,-0.40331 1.395012,-0.604965 2.272074,-0.604965 0.479276,0 0.935763,0.04075 1.368769,0.122926 0.432316,0.08218 0.772091,0.187153 1.017945,0.315605 l -0.33356,1.10565 c -0.234114,-0.104971 -0.497232,-0.192677 -0.789356,-0.263118 -0.292814,-0.07044 -0.67886,-0.104972 -1.158136,-0.104972 -0.970984,0 -1.710616,0.315605 -2.219589,0.947504 -0.508972,0.631899 -0.763113,1.515176 -0.763113,2.649141 0,0.70165 0.104972,1.319046 0.315605,1.850808 0.210633,0.532453 0.549717,0.947503 1.017944,1.245843 0.467536,0.298339 1.087695,0.447508 1.859786,0.447508 0.456486,0 0.857034,-0.05249 1.201644,-0.158147 0.344609,-0.104971 0.599441,-0.198893 0.763113,-0.281074 l 0.263118,1.122915 c -0.222373,0.117402 -0.561457,0.227898 -1.017944,0.33356 -0.456487,0.105662 -0.930238,0.158148 -1.421255,0.158148 z"
       id="path93"
       style="fill:#61666e;fill-opacity:1" />
    <path
       class="cls-2"
       d="m 48.390336,31.373503 v -8.667721 c 0.303864,-0.128452 0.722368,-0.260356 1.25482,-0.395023 0.532453,-0.134667 1.172639,-0.201655 1.921249,-0.201655 0.245854,0 0.488255,0.0145 0.727893,0.04351 0.239638,0.02901 0.456486,0.06423 0.649164,0.104972 0.192677,0.04144 0.336322,0.07873 0.429553,0.113949 l -0.263119,1.122915 c -0.104971,-0.04627 -0.304554,-0.09668 -0.596678,-0.149169 -0.292814,-0.05249 -0.666429,-0.07873 -1.122916,-0.07873 -0.456486,0 -0.812836,0.03246 -1.10565,0.09668 -0.292815,0.06423 -0.485492,0.120165 -0.578723,0.166435 v 7.843144 h -1.315593 z"
       id="path95"
       style="fill:#61666e;fill-opacity:1" />
    <path
       class="cls-2"
       d="m 58.151276,31.584136 c -0.807311,0 -1.526226,-0.196131 -2.158125,-0.587701 -0.631899,-0.39157 -1.125678,-0.944741 -1.482718,-1.658131 -0.35704,-0.713389 -0.535215,-1.549706 -0.535215,-2.508949 0,-0.959244 0.178175,-1.792107 0.535215,-2.499972 0.35635,-0.707865 0.850819,-1.260345 1.482718,-1.658131 0.631899,-0.397786 1.350814,-0.596678 2.158125,-0.596678 0.807312,0 1.544182,0.198892 2.17539,0.596678 0.631899,0.397786 1.125678,0.950266 1.482719,1.658131 0.356349,0.707865 0.535215,1.541419 0.535215,2.499972 0,0.958552 -0.178175,1.79556 -0.535215,2.508949 -0.357041,0.71339 -0.848057,1.266561 -1.473741,1.658131 -0.625683,0.39157 -1.354266,0.587701 -2.184368,0.587701 z m 0,-1.175402 c 0.584939,0 1.087695,-0.146407 1.508961,-0.438531 0.421266,-0.292123 0.745848,-0.707865 0.973746,-1.245842 0.227898,-0.537977 0.342538,-1.169876 0.342538,-1.895006 0,-0.72513 -0.113949,-1.357029 -0.342538,-1.895007 -0.227898,-0.537977 -0.55248,-0.953028 -0.973746,-1.245842 -0.421266,-0.292124 -0.924022,-0.438531 -1.508961,-0.438531 -0.584938,0 -1.07043,0.146407 -1.491696,0.438531 -0.421266,0.292814 -0.745848,0.707865 -0.973746,1.245842 -0.227898,0.537978 -0.341847,1.169877 -0.341847,1.895007 0,0.72513 0.113949,1.357029 0.341847,1.895006 0.227898,0.537977 0.55248,0.953719 0.973746,1.245842 0.421266,0.292815 0.917808,0.438531 1.491696,0.438531 z"
       id="path97"
       style="fill:#61666e;fill-opacity:1" />
    <path
       class="cls-2"
       d="m 69.627667,31.636621 c -1.064214,0 -2.020695,-0.245853 -2.868752,-0.73687 -0.848057,-0.491017 -1.515177,-1.207859 -1.999978,-2.149147 -0.485492,-0.941288 -0.727892,-2.096662 -0.727892,-3.465431 0,-1.017944 0.151932,-1.921249 0.456486,-2.710605 0.303864,-0.789356 0.722368,-1.453022 1.254821,-1.99169 0.532452,-0.537978 1.14018,-0.944741 1.824565,-1.2196 0.684384,-0.274859 1.400537,-0.412288 2.149147,-0.412288 0.620159,0 1.160899,0.04972 1.62291,0.149169 0.462011,0.09945 0.844604,0.213396 1.149158,0.341847 0.303864,0.129143 0.526238,0.239639 0.666429,0.33356 L 72.71603,20.933702 C 72.423216,20.75829 72.046148,20.589093 71.584137,20.42473 71.122126,20.261058 70.56343,20.178877 69.908741,20.178877 c -0.959243,0 -1.769317,0.213395 -2.430221,0.640186 -0.660904,0.426791 -1.160899,1.023469 -1.499983,1.789344 -0.339775,0.766566 -0.508972,1.664346 -0.508972,2.69334 0,1.028994 0.163672,1.927465 0.491016,2.69334 0.327345,0.766566 0.810074,1.359792 1.447498,1.781058 0.637424,0.421266 1.418492,0.631899 2.342515,0.631899 0.772091,0 1.415039,-0.0732 1.930227,-0.219611 0.514497,-0.146407 0.912283,-0.295577 1.193357,-0.447509 l 0.36809,1.158136 c -0.187153,0.116712 -0.593916,0.269334 -1.2196,0.456487 -0.625684,0.187153 -1.424017,0.280384 -2.395001,0.280384 z"
       id="path99"
       style="fill:#61666e;fill-opacity:1" />
    <path
       class="cls-2"
       d="m 77.265013,31.530959 c -0.561458,-0.02348 -1.026232,-0.116711 -1.395012,-0.280383 -0.36809,-0.163672 -0.640187,-0.417813 -0.815599,-0.763113 -0.175412,-0.34461 -0.263119,-0.810074 -0.263119,-1.395012 V 17.986222 l 1.315593,-0.227898 v 11.246421 c 0,0.561457 0.102209,0.924022 0.307317,1.087695 0.204418,0.163672 0.55248,0.281074 1.044188,0.350824 l -0.192678,1.087695 z"
       id="path101"
       style="fill:#61666e;fill-opacity:1" />
    <path
       class="cls-2"
       d="m 82.49907,31.584136 c -0.807311,0 -1.526226,-0.196131 -2.158125,-0.587701 -0.631899,-0.39157 -1.125678,-0.944741 -1.482718,-1.658131 -0.35704,-0.713389 -0.535215,-1.549706 -0.535215,-2.508949 0,-0.959244 0.178175,-1.792107 0.535215,-2.499972 0.356349,-0.707865 0.850819,-1.260345 1.482718,-1.658131 0.631899,-0.397786 1.350814,-0.596678 2.158125,-0.596678 0.807311,0 1.544182,0.198892 2.17539,0.596678 0.631899,0.397786 1.125678,0.950266 1.482718,1.658131 0.35635,0.707865 0.535215,1.541419 0.535215,2.499972 0,0.958552 -0.178175,1.79556 -0.535215,2.508949 -0.35704,0.71339 -0.848057,1.266561 -1.47374,1.658131 -0.625684,0.39157 -1.354267,0.587701 -2.184368,0.587701 z m 0,-1.175402 c 0.584938,0 1.087695,-0.146407 1.508961,-0.438531 0.421266,-0.292123 0.745848,-0.707865 0.973746,-1.245842 0.227898,-0.537977 0.341847,-1.169876 0.341847,-1.895006 0,-0.72513 -0.113949,-1.357029 -0.341847,-1.895007 -0.227898,-0.537977 -0.55248,-0.953028 -0.973746,-1.245842 -0.421266,-0.292124 -0.924023,-0.438531 -1.508961,-0.438531 -0.584938,0 -1.07043,0.146407 -1.491696,0.438531 -0.421266,0.292814 -0.745848,0.707865 -0.973746,1.245842 -0.227898,0.537978 -0.341847,1.169877 -0.341847,1.895007 0,0.72513 0.113949,1.357029 0.341847,1.895006 0.227898,0.537977 0.55248,0.953719 0.973746,1.245842 0.421266,0.292815 0.917807,0.438531 1.491696,0.438531 z"
       id="path103"
       style="fill:#61666e;fill-opacity:1" />
    <path
       class="cls-2"
       d="m 92.248961,31.548915 c -0.912283,0 -1.63465,-0.17265 -2.167103,-0.51795 -0.532453,-0.344609 -0.912283,-0.833554 -1.140181,-1.464763 -0.227898,-0.631899 -0.341847,-1.362553 -0.341847,-2.193345 v -5.088341 h 1.315593 v 4.737516 c 0,0.819052 0.08149,1.47374 0.245854,1.965448 0.163672,0.491016 0.429553,0.845294 0.798334,1.061452 0.36878,0.216848 0.857034,0.324582 1.464762,0.324582 0.491017,0 0.926785,-0.02624 1.307306,-0.07873 0.37983,-0.05249 0.628446,-0.09668 0.745848,-0.131904 v -7.878365 h 1.298328 v 8.772692 c -0.350825,0.09392 -0.821814,0.198893 -1.412277,0.315604 -0.591154,0.116711 -1.295566,0.175412 -2.114617,0.175412 z"
       id="path105"
       style="fill:#61666e;fill-opacity:1" />
    <path
       class="cls-2"
       d="m 102.29374,31.584136 c -0.8888,0 -1.67264,-0.189915 -2.350805,-0.570436 -0.678859,-0.37983 -1.205097,-0.924023 -1.579402,-1.631888 -0.374305,-0.707865 -0.561458,-1.553159 -0.561458,-2.535192 0,-0.982034 0.16091,-1.76034 0.48273,-2.47373 0.321819,-0.713389 0.789356,-1.272085 1.40399,-1.675395 0.613945,-0.403311 1.353575,-0.604966 2.219585,-0.604966 0.56146,0 1.05524,0.07873 1.48272,0.236876 0.42679,0.158147 0.74585,0.312842 0.95648,0.464774 v -4.807267 l 1.29833,-0.227898 V 31.09381 c -0.22237,0.07044 -0.49723,0.143644 -0.82458,0.21961 -0.32734,0.07597 -0.69888,0.140192 -1.11393,0.192678 -0.41505,0.05248 -0.88604,0.07873 -1.41228,0.07873 z m 0.0173,-1.175402 c 0.5145,0 0.93853,-0.02624 1.27209,-0.07873 0.33356,-0.05249 0.5877,-0.102209 0.76311,-0.14917 v -6.15877 c -0.19889,-0.163673 -0.50276,-0.330107 -0.91228,-0.499995 -0.40953,-0.169197 -0.87154,-0.254141 -1.38604,-0.254141 -0.51449,0 -0.97374,0.09047 -1.34252,0.272097 -0.36809,0.181628 -0.66643,0.435768 -0.89502,0.763113 -0.227898,0.327344 -0.392261,0.707865 -0.491016,1.14018 -0.09945,0.433007 -0.14917,0.895018 -0.14917,1.386035 0,0.76035 0.131905,1.406752 0.395023,1.938514 0.263119,0.532452 0.631903,0.938525 1.105653,1.219599 0.47375,0.281075 1.0207,0.421266 1.64017,0.421266 z"
       id="path107"
       style="fill:#61666e;fill-opacity:1" />
    <rect
       class="cls-4"
       width="17.541241"
       height="27.624001"
       id="rect109"
       x="-0.035917211"
       y="7.1880002"
       style="fill:#61666e;fill-opacity:1" />
    <rect
       class="cls-1"
       x="2.0531478"
       y="18.885384"
       width="13.367945"
       height="13.367945"
       id="rect111" />
    <path
       class="cls-3"
       d="m 12.700819,27.789979 c -0.29903,0 -0.544193,0.232042 -0.564911,0.526237 l -2.3749736,0.56353 C 9.6980898,28.7582 9.6020964,28.656682 9.4840038,28.589003 L 10.2851,25.821769 c 0.0221,0.0014 0.04351,0.0035 0.0663,0.0035 0.464774,0 0.841842,-0.377067 0.841842,-0.841841 0,-0.464774 -0.377068,-0.841842 -0.841842,-0.841842 -0.4647734,0 -0.841841,0.377068 -0.841841,0.841842 0,0.323201 0.1823184,0.603584 0.4495806,0.744467 l -0.801096,2.767234 c -0.00967,0 -0.019337,-0.0014 -0.029005,-0.0014 -0.097375,0 -0.1892244,0.01934 -0.2741682,0.05456 L 7.089003,26.158091 c 0.068369,-0.09392 0.1091148,-0.208561 0.1091148,-0.333559 0,-0.312842 -0.2534502,-0.566983 -0.5669826,-0.566983 -0.3135324,0 -0.5669826,0.25345 -0.5669826,0.566983 0,0.313532 0.2534502,0.566982 0.5669826,0.566982 0.064916,0 0.1263798,-0.01105 0.1843902,-0.03108 l 1.7658642,2.390167 C 8.539263,28.801018 8.5040424,28.857647 8.477109,28.91911 L 6.0620808,28.497154 c 0,-0.0145 0.00207,-0.02831 0.00207,-0.04282 0,-0.595297 -0.4827294,-1.078026 -1.0780266,-1.078026 -0.00414,0 -0.00898,0 -0.013121,0 -0.00414,0 -0.00898,0 -0.013121,0 -0.5952972,0 -1.0780266,0.482729 -1.0780266,1.078026 0,0.595298 0.4827294,1.078027 1.0780266,1.078027 0.00414,0 0.00898,0 0.013121,0 0.00414,0 0.00898,0 0.013121,0 0.4633926,0 0.8570346,-0.292814 1.0096572,-0.70234 l 2.424006,0.424028 c 0.024862,0.370162 0.3321786,0.662286 0.7085556,0.662286 0.376377,0 0.707865,-0.314914 0.7106274,-0.705103 l 2.3749736,-0.56353 c 0.09876,0.165744 0.279693,0.276931 0.486182,0.276931 0.312842,0 0.566983,-0.25345 0.566983,-0.566983 0,-0.313532 -0.253451,-0.566982 -0.566983,-0.566982 z"
       id="path113" />
    <path
       class="cls-3"
       d="m 13.577881,25.531027 c 0,-0.01312 0,-0.02555 0,-0.03867 0,-1.865311 -1.517249,-3.382559 -3.382559,-3.382559 -1.075955,0 -2.0642036,0.497232 -2.7002462,1.344598 -0.27624,-0.101518 -0.569745,-0.154694 -0.8639406,-0.154694 -1.3149024,0 -2.3950008,1.020707 -2.4909942,2.311438 -1.2285774,0.365328 -2.0918274,1.504818 -2.0918274,2.814886 0,1.620147 1.3176648,2.937812 2.9378124,2.937812 0.5856288,0 2.023458,0.0014 3.4999608,0.0028 h 0.1236174 c 1.5552308,0.0021 3.1291088,0.0035 3.7741288,0.0035 1.677468,0 3.041403,-1.364626 3.041403,-3.041403 0,-1.234793 -0.731346,-2.325941 -1.847355,-2.798311 z m -1.194048,5.116655 c -0.64433,0 -2.218207,-0.0014 -3.7727476,-0.0035 H 8.487468 c -1.4771934,-0.0014 -2.9157132,-0.0035 -3.5006514,-0.0035 -1.2209808,0 -2.2147542,-0.993083 -2.2147542,-2.214754 0,-1.063524 0.7541352,-1.977879 1.7927976,-2.1747 L 4.8728676,26.193312 4.858365,25.87978 c -0.00138,-0.02762 -0.00207,-0.05525 -0.00207,-0.08218 0,-0.97858 0.7962618,-1.774151 1.7741514,-1.774151 0.2859084,0 0.5711262,0.07044 0.8245764,0.203727 l 0.2990298,0.156766 0.1767936,-0.28729 c 0.4875636,-0.790737 1.3335486,-1.263107 2.2637868,-1.263107 1.466144,0 2.65881,1.192666 2.65881,2.659501 0,0.08356 -0.0041,0.167815 -0.01174,0.250687 l -0.02762,0.290743 0.277621,0.0884 c 0.962006,0.306626 1.608408,1.193357 1.608408,2.207157 0,1.278301 -1.040044,2.318345 -2.318345,2.318345 z"
       id="path115" />
  </g>
</svg>
