<?xml version="1.0" encoding="UTF-8" standalone="no"?>
<svg
   id="Layer_1"
   viewBox="0 0 192 64"
   version="1.1"
   sodipodi:docname="lxd-64.svg"
   width="192"
   height="64"
   inkscape:version="1.1.2 (0a00cf5339, 2022-02-04)"
   xmlns:inkscape="http://www.inkscape.org/namespaces/inkscape"
   xmlns:sodipodi="http://sodipodi.sourceforge.net/DTD/sodipodi-0.dtd"
   xmlns="http://www.w3.org/2000/svg"
   xmlns:svg="http://www.w3.org/2000/svg">
  <sodipodi:namedview
     id="namedview35"
     pagecolor="#ffffff"
     bordercolor="#666666"
     borderopacity="1.0"
     inkscape:pageshadow="2"
     inkscape:pageopacity="0.0"
     inkscape:pagecheckerboard="0"
     showgrid="false"
     inkscape:zoom="1.7130594"
     inkscape:cx="151.77524"
     inkscape:cy="84.643886"
     inkscape:window-width="1920"
     inkscape:window-height="1004"
     inkscape:window-x="0"
     inkscape:window-y="0"
     inkscape:window-maximized="1"
     inkscape:current-layer="Layer_1" />
  <defs
     id="defs4">
    <style
       id="style2">.cls-1{fill:none;}.cls-1,.cls-2,.cls-3,.cls-4{stroke-width:0px;}.cls-3{fill:#fff;}.cls-4{fill:#e95420;}</style>
  </defs>
  <g
     id="g866"
     transform="matrix(0.1254675,0,0,0.1254675,-8.302875e-4,6.9065)">
    <path
       class="cls-2"
       d="m 313.78,350.21 c 0.67,-15.58 1.44,-31.08 2.29,-46.49 0.85,-15.41 1.78,-30.53 2.79,-45.35 1.02,-14.82 2.12,-29.3 3.3,-43.45 1.18,-14.14 2.54,-27.73 4.07,-40.78 h 17.78 c 4.91,8.13 10.12,17.57 15.62,28.33 5.5,10.76 11.05,22.02 16.64,33.79 5.59,11.77 10.96,23.33 16.13,34.68 5.16,11.35 9.78,21.59 13.85,30.74 4.06,-9.15 8.68,-19.39 13.85,-30.74 5.17,-11.35 10.54,-22.91 16.13,-34.68 5.59,-11.77 11.18,-23.03 16.77,-33.79 5.59,-10.75 10.75,-20.2 15.5,-28.33 h 16.77 c 1.52,13.04 2.92,26.64 4.19,40.78 1.27,14.14 2.37,28.63 3.3,43.45 0.93,14.82 1.86,29.94 2.79,45.35 0.93,15.42 1.74,30.91 2.41,46.49 h -19.82 c -0.68,-17.28 -1.4,-34.25 -2.16,-50.94 -0.76,-16.68 -1.65,-32.81 -2.67,-48.4 -1.02,-15.58 -2.2,-30.32 -3.56,-44.21 -1.7,3.22 -4.36,8.51 -8,15.88 -3.64,7.37 -7.75,15.84 -12.32,25.41 -4.57,9.57 -9.19,19.35 -13.85,29.34 -4.66,10 -8.89,19.23 -12.7,27.69 -3.81,8.47 -6.73,15.16 -8.76,20.07 H 397.1 c -2.03,-4.91 -4.95,-11.6 -8.77,-20.07 -3.81,-8.47 -8.05,-17.7 -12.7,-27.69 -4.66,-9.99 -9.27,-19.77 -13.85,-29.34 -4.57,-9.57 -8.68,-18.04 -12.32,-25.41 -3.64,-7.37 -6.31,-12.66 -8,-15.88 -1.36,13.89 -2.54,28.63 -3.56,44.21 -1.02,15.58 -1.91,31.72 -2.67,48.4 -0.76,16.68 -1.48,33.66 -2.16,50.94 h -19.31 z"
       id="path6" />
    <path
       class="cls-2"
       d="m 542.76,187.1 c -3.73,0 -6.9,-1.27 -9.53,-3.81 -2.63,-2.54 -3.94,-5.93 -3.94,-10.16 0,-4.23 1.31,-7.37 3.94,-9.91 2.62,-2.54 5.8,-3.81 9.53,-3.81 3.73,0 6.9,1.27 9.53,3.81 2.62,2.54 3.94,5.84 3.94,9.91 0,4.07 -1.31,7.62 -3.94,10.16 -2.63,2.54 -5.8,3.81 -9.53,3.81 z m -9.65,163.11 V 218.6 h 19.05 v 131.61 z"
       id="path8" />
    <path
       class="cls-2"
       d="m 643.75,353 c -13.89,0 -25.49,-2.83 -34.81,-8.51 -9.32,-5.67 -16.35,-13.68 -21.09,-24.01 -4.74,-10.33 -7.11,-22.27 -7.11,-35.82 0,-13.55 2.45,-25.74 7.37,-36.08 4.91,-10.33 11.98,-18.42 21.21,-24.26 9.23,-5.84 20.2,-8.76 32.9,-8.76 6.94,0 13.55,0.59 19.82,1.78 6.26,1.19 11.18,2.71 14.74,4.57 l -4.83,16.01 c -3.39,-1.52 -7.2,-2.79 -11.43,-3.81 -4.24,-1.02 -9.83,-1.52 -16.77,-1.52 -14.06,0 -24.77,4.57 -32.14,13.72 -7.37,9.15 -11.05,21.94 -11.05,38.36 0,10.16 1.52,19.1 4.57,26.8 3.05,7.71 7.96,13.72 14.74,18.04 6.77,4.32 15.75,6.48 26.93,6.48 6.61,0 12.41,-0.76 17.4,-2.29 4.99,-1.52 8.68,-2.88 11.05,-4.07 l 3.81,16.26 c -3.22,1.7 -8.13,3.3 -14.74,4.83 -6.61,1.53 -13.47,2.29 -20.58,2.29 z"
       id="path10" />
    <path
       class="cls-2"
       d="M 701.22,350.21 V 224.7 c 4.4,-1.86 10.46,-3.77 18.17,-5.72 7.71,-1.95 16.98,-2.92 27.82,-2.92 3.56,0 7.07,0.21 10.54,0.63 3.47,0.42 6.61,0.93 9.4,1.52 2.79,0.6 4.87,1.14 6.22,1.65 l -3.81,16.26 c -1.52,-0.67 -4.41,-1.4 -8.64,-2.16 -4.24,-0.76 -9.65,-1.14 -16.26,-1.14 -6.61,0 -11.77,0.47 -16.01,1.4 -4.24,0.93 -7.03,1.74 -8.38,2.41 V 350.2 h -19.05 z"
       id="path12" />
    <path
       class="cls-2"
       d="m 842.56,353.26 c -11.69,0 -22.1,-2.84 -31.25,-8.51 -9.15,-5.67 -16.3,-13.68 -21.47,-24.01 -5.17,-10.33 -7.75,-22.44 -7.75,-36.33 0,-13.89 2.58,-25.95 7.75,-36.2 5.16,-10.25 12.32,-18.25 21.47,-24.01 9.15,-5.76 19.56,-8.64 31.25,-8.64 11.69,0 22.36,2.88 31.5,8.64 9.15,5.76 16.3,13.76 21.47,24.01 5.16,10.25 7.75,22.32 7.75,36.2 0,13.88 -2.58,26 -7.75,36.33 -5.17,10.33 -12.28,18.34 -21.34,24.01 -9.06,5.67 -19.61,8.51 -31.63,8.51 z m 0,-17.02 c 8.47,0 15.75,-2.12 21.85,-6.35 6.1,-4.23 10.8,-10.25 14.1,-18.04 3.3,-7.79 4.96,-16.94 4.96,-27.44 0,-10.5 -1.65,-19.65 -4.96,-27.44 -3.3,-7.79 -8,-13.8 -14.1,-18.04 -6.1,-4.23 -13.38,-6.35 -21.85,-6.35 -8.47,0 -15.5,2.12 -21.6,6.35 -6.1,4.24 -10.8,10.25 -14.1,18.04 -3.3,7.79 -4.95,16.94 -4.95,27.44 0,10.5 1.65,19.65 4.95,27.44 3.3,7.79 8,13.81 14.1,18.04 6.1,4.24 13.29,6.35 21.6,6.35 z"
       id="path14" />
    <path
       class="cls-2"
       d="m 1008.74,354.02 c -15.41,0 -29.26,-3.56 -41.54,-10.67 -12.28,-7.11 -21.94,-17.49 -28.96,-31.12 -7.03,-13.63 -10.54,-30.36 -10.54,-50.18 0,-14.74 2.2,-27.82 6.61,-39.25 4.4,-11.43 10.46,-21.04 18.17,-28.84 7.71,-7.79 16.51,-13.68 26.42,-17.66 9.91,-3.98 20.28,-5.97 31.12,-5.97 8.98,0 16.81,0.72 23.5,2.16 6.69,1.44 12.23,3.09 16.64,4.95 4.4,1.87 7.62,3.47 9.65,4.83 l -6.35,16.77 c -4.24,-2.54 -9.7,-4.99 -16.39,-7.37 -6.69,-2.37 -14.78,-3.56 -24.26,-3.56 -13.89,0 -25.62,3.09 -35.19,9.27 -9.57,6.18 -16.81,14.82 -21.72,25.91 -4.92,11.1 -7.37,24.1 -7.37,39 0,14.9 2.37,27.91 7.11,39 4.74,11.1 11.73,19.69 20.96,25.79 9.23,6.1 20.54,9.15 33.92,9.15 11.18,0 20.49,-1.06 27.95,-3.18 7.45,-2.12 13.21,-4.28 17.28,-6.48 l 5.33,16.77 c -2.71,1.69 -8.6,3.9 -17.66,6.61 -9.06,2.71 -20.62,4.06 -34.68,4.06 z"
       id="path16" />
    <path
       class="cls-2"
       d="m 1119.33,352.49 c -8.13,-0.34 -14.86,-1.69 -20.2,-4.06 -5.33,-2.37 -9.27,-6.05 -11.81,-11.05 -2.54,-4.99 -3.81,-11.73 -3.81,-20.2 V 156.36 l 19.05,-3.3 v 162.85 c 0,8.13 1.48,13.38 4.45,15.75 2.96,2.37 8,4.07 15.12,5.08 l -2.79,15.75 z"
       id="path18" />
    <path
       class="cls-2"
       d="m 1195.12,353.26 c -11.69,0 -22.1,-2.84 -31.25,-8.51 -9.15,-5.67 -16.3,-13.68 -21.47,-24.01 -5.17,-10.33 -7.75,-22.44 -7.75,-36.33 0,-13.89 2.58,-25.95 7.75,-36.2 5.16,-10.25 12.32,-18.25 21.47,-24.01 9.15,-5.76 19.56,-8.64 31.25,-8.64 11.69,0 22.36,2.88 31.5,8.64 9.15,5.76 16.3,13.76 21.47,24.01 5.16,10.25 7.75,22.32 7.75,36.2 0,13.88 -2.58,26 -7.75,36.33 -5.17,10.33 -12.28,18.34 -21.34,24.01 -9.06,5.67 -19.61,8.51 -31.63,8.51 z m 0,-17.02 c 8.47,0 15.75,-2.12 21.85,-6.35 6.1,-4.23 10.8,-10.25 14.1,-18.04 3.3,-7.79 4.95,-16.94 4.95,-27.44 0,-10.5 -1.65,-19.65 -4.95,-27.44 -3.3,-7.79 -8,-13.8 -14.1,-18.04 -6.1,-4.23 -13.38,-6.35 -21.85,-6.35 -8.47,0 -15.5,2.12 -21.6,6.35 -6.1,4.24 -10.8,10.25 -14.1,18.04 -3.3,7.79 -4.95,16.94 -4.95,27.44 0,10.5 1.65,19.65 4.95,27.44 3.3,7.79 8,13.81 14.1,18.04 6.1,4.24 13.29,6.35 21.6,6.35 z"
       id="path20" />
    <path
       class="cls-2"
       d="m 1336.3,352.75 c -13.21,0 -23.67,-2.5 -31.38,-7.5 -7.71,-4.99 -13.21,-12.07 -16.51,-21.21 -3.3,-9.15 -4.95,-19.73 -4.95,-31.76 V 218.6 h 19.05 v 68.6 c 0,11.86 1.18,21.34 3.56,28.46 2.37,7.11 6.22,12.24 11.56,15.37 5.34,3.14 12.41,4.7 21.21,4.7 7.11,0 13.42,-0.38 18.93,-1.14 5.5,-0.76 9.1,-1.4 10.8,-1.91 V 218.6 h 18.8 v 127.03 c -5.08,1.36 -11.9,2.88 -20.45,4.57 -8.56,1.69 -18.76,2.54 -30.62,2.54 z"
       id="path22" />
    <path
       class="cls-2"
       d="m 1481.75,353.26 c -12.87,0 -24.22,-2.75 -34.04,-8.26 -9.83,-5.5 -17.45,-13.38 -22.87,-23.63 -5.42,-10.25 -8.13,-22.49 -8.13,-36.71 0,-14.22 2.33,-25.49 6.99,-35.82 4.66,-10.33 11.43,-18.42 20.33,-24.26 8.89,-5.84 19.6,-8.76 32.14,-8.76 8.13,0 15.28,1.14 21.47,3.43 6.18,2.29 10.8,4.53 13.85,6.73 v -69.61 l 18.8,-3.3 v 193.09 c -3.22,1.02 -7.2,2.08 -11.94,3.18 -4.74,1.1 -10.12,2.03 -16.13,2.79 -6.01,0.76 -12.83,1.14 -20.45,1.14 z m 0.25,-17.02 c 7.45,0 13.59,-0.38 18.42,-1.14 4.83,-0.76 8.51,-1.48 11.05,-2.16 v -89.18 c -2.88,-2.37 -7.28,-4.78 -13.21,-7.24 -5.93,-2.45 -12.62,-3.68 -20.07,-3.68 -7.45,0 -14.1,1.31 -19.44,3.94 -5.33,2.63 -9.65,6.31 -12.96,11.05 -3.3,4.74 -5.68,10.25 -7.11,16.51 -1.44,6.27 -2.16,12.96 -2.16,20.07 0,11.01 1.91,20.37 5.72,28.07 3.81,7.71 9.15,13.59 16.01,17.66 6.86,4.07 14.78,6.1 23.75,6.1 z"
       id="path24" />
    <rect
       class="cls-4"
       width="254"
       height="400"
       id="rect26"
       x="0"
       y="0" />
    <rect
       class="cls-1"
       x="30.25"
       y="169.38"
       width="193.57001"
       height="193.57001"
       id="rect28" />
    <path
       class="cls-3"
       d="m 184.43,298.32 c -4.33,0 -7.88,3.36 -8.18,7.62 l -34.39,8.16 c -0.91,-1.76 -2.3,-3.23 -4.01,-4.21 l 11.6,-40.07 c 0.32,0.02 0.63,0.05 0.96,0.05 6.73,0 12.19,-5.46 12.19,-12.19 0,-6.73 -5.46,-12.19 -12.19,-12.19 -6.73,0 -12.19,5.46 -12.19,12.19 0,4.68 2.64,8.74 6.51,10.78 l -11.6,40.07 c -0.14,0 -0.28,-0.02 -0.42,-0.02 -1.41,0 -2.74,0.28 -3.97,0.79 l -25.57,-34.61 c 0.99,-1.36 1.58,-3.02 1.58,-4.83 0,-4.53 -3.67,-8.21 -8.21,-8.21 -4.54,0 -8.21,3.67 -8.21,8.21 0,4.54 3.67,8.21 8.21,8.21 0.94,0 1.83,-0.16 2.67,-0.45 l 25.57,34.61 c -0.61,0.73 -1.12,1.55 -1.51,2.44 L 88.3,308.56 c 0,-0.21 0.03,-0.41 0.03,-0.62 0,-8.62 -6.99,-15.61 -15.61,-15.61 -0.06,0 -0.13,0 -0.19,0 -0.06,0 -0.13,0 -0.19,0 -8.62,0 -15.61,6.99 -15.61,15.61 0,8.62 6.99,15.61 15.61,15.61 0.06,0 0.13,0 0.19,0 0.06,0 0.13,0 0.19,0 6.71,0 12.41,-4.24 14.62,-10.17 l 35.1,6.14 c 0.36,5.36 4.81,9.59 10.26,9.59 5.45,0 10.25,-4.56 10.29,-10.21 l 34.39,-8.16 c 1.43,2.4 4.05,4.01 7.04,4.01 4.53,0 8.21,-3.67 8.21,-8.21 0,-4.54 -3.67,-8.21 -8.21,-8.21 z"
       id="path30" />
    <path
       class="cls-3"
       d="m 197.13,265.61 c 0,-0.19 0,-0.37 0,-0.56 0,-27.01 -21.97,-48.98 -48.98,-48.98 -15.58,0 -29.89,7.2 -39.1,19.47 -4,-1.47 -8.25,-2.24 -12.51,-2.24 -19.04,0 -34.68,14.78 -36.07,33.47 -17.79,5.29 -30.29,21.79 -30.29,40.76 0,23.46 19.08,42.54 42.54,42.54 8.48,0 29.3,0.02 50.68,0.04 h 1.79 c 22.52,0.03 45.31,0.05 54.65,0.05 24.29,0 44.04,-19.76 44.04,-44.04 0,-17.88 -10.59,-33.68 -26.75,-40.52 z m -17.29,74.09 c -9.33,0 -32.12,-0.02 -54.63,-0.05 h -1.79 c -21.39,-0.02 -42.22,-0.05 -50.69,-0.05 -17.68,0 -32.07,-14.38 -32.07,-32.07 0,-15.4 10.92,-28.64 25.96,-31.49 l 4.46,-0.84 -0.21,-4.54 c -0.02,-0.4 -0.03,-0.8 -0.03,-1.19 0,-14.17 11.53,-25.69 25.69,-25.69 4.14,0 8.27,1.02 11.94,2.95 l 4.33,2.27 2.56,-4.16 c 7.06,-11.45 19.31,-18.29 32.78,-18.29 21.23,0 38.5,17.27 38.5,38.51 0,1.21 -0.06,2.43 -0.17,3.63 l -0.4,4.21 4.02,1.28 c 13.93,4.44 23.29,17.28 23.29,31.96 0,18.51 -15.06,33.57 -33.57,33.57 z"
       id="path32" />
  </g>
</svg>
