<?xml version="1.0" encoding="UTF-8" standalone="no"?>
<svg xmlns:dc="http://purl.org/dc/elements/1.1/"
  xmlns:cc="http://creativecommons.org/ns#"
  xmlns:rdf="http://www.w3.org/1999/02/22-rdf-syntax-ns#"
  xmlns:svg="http://www.w3.org/2000/svg"
  xmlns="http://www.w3.org/2000/svg"
  xmlns:xlink="http://www.w3.org/1999/xlink"
  id="svg2854"
  version="1.1"
  viewBox="0 0 27.781249 11.1125"
  height="42"
  width="105"
>
  <defs
    id="defs2848">
    <style
      id="style2">.cls-1{fill:#fff;stroke:#d9d9d9;}.cls-2{fill:#e00;}</style>
    <polygon
      points="175.922,165.787 175.991,137.31 258.277,184.829 258.207,213.306 "
      id="SVGID_4_" />
    <polygon
      points="135.111,175.326 175.991,151.566 216.802,175.326 176.061,198.98 "
      id="SVGID_8_" />
    <polygon
      points="135.146,161.14 176.026,137.31 216.837,161.14 176.131,184.794 "
      id="SVGID_12_" />
    <polygon
      points="135.111,175.326 135.146,161.14 176.131,184.794 176.061,198.98 "
      id="SVGID_14_" />
    <polygon
      points="175.991,151.566 135.111,175.326 135.146,161.14 176.026,137.31 "
      id="SVGID_16_" />
    <polygon
      points="216.802,175.326 175.991,151.566 176.026,137.31 216.837,161.14 "
      id="SVGID_18_" />
  </defs>
  <g
    id="g3490"
    transform="matrix(0.04085189,0,0,0.04085189,-4.8297675,-2.1870624)"
    style="stroke:#ffffff;stroke-opacity:1">
    <polygon
      transform="matrix(1.1578793,0,0,1.1578793,-21.173774,-29.925374)"
      id="polygon3283"
      points="217.256,265.542 217.326,237.066 299.088,189.546 299.018,218.023 "
      stroke-miterlimit="10"
      stroke-linejoin="round"
      stroke-linecap="round"
      stroke="#ffffff"
      fill="#dd4814"
      style="fill:#616870;fill-opacity:1;stroke:#999999;stroke-opacity:1" />
    <polygon
      transform="matrix(1.1578793,0,0,1.1578793,-21.173774,-29.925374)"
      id="polygon3285"
      points="134.971,218.023 135.041,189.546 217.326,237.066 217.256,265.542 "
      stroke-miterlimit="10"
      stroke-linejoin="round"
      stroke-linecap="round"
      stroke="#ffffff"
      fill="#dd4814"
      style="fill:#616870;fill-opacity:1;stroke:#999999;stroke-opacity:1" />
    <polygon
      transform="matrix(1.1578793,0,0,1.1578793,-21.173774,-29.925374)"
      id="polygon3287"
      points="175.991,137.31 216.872,113.55 299.157,161.07 258.277,184.829 "
      stroke-miterlimit="10"
      stroke-linejoin="round"
      stroke-linecap="round"
      stroke="#ffffff"
      fill="#333333"
      style="fill:#616870;fill-opacity:1;stroke:#999999;stroke-opacity:1" />
    <g
      transform="matrix(1.1578793,0,0,1.1578793,-21.173774,-29.925374)"
      id="g3291"
      enable-background="new    "
      style="fill:#616870;fill-opacity:1;stroke:#999999;stroke-opacity:1">
      <polygon
        id="polygon3289"
        points="258.382,213.411 258.486,184.934 299.367,161.175 299.262,189.651 "
        stroke-miterlimit="10"
        stroke-linejoin="round"
        stroke-linecap="round"
        stroke="#ffffff"
        fill="#333333"
        style="fill:#616870;fill-opacity:1;stroke:#999999;stroke-opacity:1" />
    </g>
    <g
      transform="matrix(1.1578793,0,0,1.1578793,-21.173774,-29.925374)"
      id="g3309"
      enable-background="new    "
      style="fill:#616870;fill-opacity:1;stroke:#999999;stroke-opacity:1">
      <g
        id="g3294"
        style="fill:#616870;fill-opacity:1;stroke:#999999;stroke-opacity:1">
        <polygon
          points="175.922,165.787 175.991,137.31 258.277,184.829 258.207,213.306 "
          fill="#333333"
          id="SVGID_1_"
          style="fill:#616870;fill-opacity:1;stroke:#999999;stroke-opacity:1" />
      </g>
      <g
        id="g3304"
        style="fill:#616870;fill-opacity:1;stroke:#999999;stroke-opacity:1">
        <defs
          id="defs3297">
          <polygon
            points="175.922,165.787 175.991,137.31 258.277,184.829 258.207,213.306 "
            id="polygon3422" />
        </defs>
        <clipPath
          id="SVGID_6_">
          <use
            id="use3299"
            overflow="visible"
            xlink:href="#SVGID_4_"
            x="0"
            y="0"
            width="100%"
            height="100%" />
        </clipPath>
        <polygon
          id="polygon3302"
          points="175.922,165.787 175.991,137.31 258.277,184.829 258.207,213.306 "
          stroke-miterlimit="10"
          stroke="#ffffff"
          fill="#333333"
          clip-path="url(#SVGID_6_)"
          style="fill:#616870;fill-opacity:1;stroke:#999999;stroke-opacity:1" />
      </g>
      <g
        id="g3307"
        style="fill:#616870;fill-opacity:1;stroke:#999999;stroke-opacity:1">
        <polygon
          points="175.922,165.787 175.991,137.31 258.277,184.829 258.207,213.306 "
          stroke-miterlimit="10"
          stroke="#ffffff"
          fill="none"
          id="SVGID_2_"
          style="fill:#616870;fill-opacity:1;stroke:#999999;stroke-opacity:1" />
      </g>
    </g>
    <polygon
      transform="matrix(1.1578793,0,0,1.1578793,-21.173774,-29.925374)"
      id="polygon3311"
      points="135.076,175.326 175.956,151.566 258.242,199.05 217.361,222.81 "
      stroke-miterlimit="10"
      stroke-linejoin="round"
      stroke-linecap="round"
      stroke="#ffffff"
      fill="#888888"
      style="fill:#616870;fill-opacity:1;stroke:#999999;stroke-opacity:1" />
    <polygon
      transform="matrix(1.1578793,0,0,1.1578793,-21.173774,-29.925374)"
      id="polygon3313"
      points="135.041,189.546 135.076,175.326 217.361,222.81 217.326,237.066 "
      stroke-miterlimit="10"
      stroke-linejoin="round"
      stroke-linecap="round"
      stroke="#ffffff"
      fill="#888888"
      style="fill:#616870;fill-opacity:1;stroke:#999999;stroke-opacity:1" />
    <polygon
      transform="matrix(1.1578793,0,0,1.1578793,-21.173774,-29.925374)"
      id="polygon3315"
      points="217.326,237.066 217.361,222.81 258.242,199.05 258.207,213.306 "
      stroke-miterlimit="10"
      stroke-linejoin="round"
      stroke-linecap="round"
      stroke="#ffffff"
      fill="#888888"
      style="fill:#616870;fill-opacity:1;stroke:#999999;stroke-opacity:1" />
    <polygon
      transform="matrix(1.1578793,0,0,1.1578793,-21.173774,-29.925374)"
      id="polygon3317"
      points="176.061,198.98 176.096,184.794 216.802,161.14 216.767,175.326 "
      stroke-miterlimit="10"
      stroke-linejoin="round"
      stroke-linecap="round"
      stroke="#ffffff"
      fill="#2c001e"
      style="stroke:#999999;stroke-opacity:1" />
    <polygon
      transform="matrix(1.1578793,0,0,1.1578793,-21.173774,-29.925374)"
      id="polygon3319"
      points="135.111,161.14 175.991,137.31 216.802,161.14 176.096,184.794 "
      fill="#cdcdcd"
      style="stroke:#999999;stroke-opacity:1" />
    <polygon
      transform="matrix(1.1578793,0,0,1.1578793,-21.173774,-29.925374)"
      id="polygon3321"
      points="135.076,175.326 135.111,161.14 176.096,184.794 176.061,198.98 "
      fill="#cdcdcd"
      style="stroke:#999999;stroke-opacity:1" />
    <polygon
      transform="matrix(1.1578793,0,0,1.1578793,-21.173774,-29.925374)"
      id="polygon3323"
      points="176.061,198.98 176.096,184.794 216.802,161.14 216.767,175.326 "
      fill="#cdcdcd"
      style="stroke:#999999;stroke-opacity:1" />
    <g
      transform="matrix(1.1578793,0,0,1.1578793,-21.173774,-29.925374)"
      id="g3400"
      style="stroke:#999999;stroke-opacity:1">
      <g
        id="g3338"
        enable-background="new    "
        style="stroke:#999999;stroke-opacity:1">
        <g
          id="g3333"
          style="stroke:#999999;stroke-opacity:1">
          <defs
            id="defs3326">
            <polygon
              points="135.111,175.326 175.991,151.566 216.802,175.326 176.061,198.98 "
              id="polygon3439" />
          </defs>
          <clipPath
            id="SVGID_10_">
            <use
              id="use3328"
              overflow="visible"
              xlink:href="#SVGID_8_"
              x="0"
              y="0"
              width="100%"
              height="100%" />
          </clipPath>
          <polygon
            id="polygon3331"
            points="135.111,175.326 175.991,151.566 216.802,175.326 176.096,198.98 "
            stroke-miterlimit="10"
            stroke="#ffffff"
            fill="none"
            clip-path="url(#SVGID_10_)"
            style="stroke:#999999;stroke-opacity:1" />
        </g>
        <g
          id="g3336"
          style="stroke:#999999;stroke-opacity:1">
          <polygon
            points="135.111,175.326 175.991,151.566 216.802,175.326 176.061,198.98 "
            stroke-miterlimit="10"
            stroke="#ffffff"
            fill="none"
            id="SVGID_3_"
            style="stroke:#999999;stroke-opacity:1" />
        </g>
      </g>
      <g
        id="g3353"
        enable-background="new    "
        style="stroke:#999999;stroke-opacity:1">
        <g
          id="g3348"
          style="stroke:#999999;stroke-opacity:1">
          <defs
            id="defs3341">
            <polygon
              points="135.146,161.14 176.026,137.31 216.837,161.14 176.131,184.794 "
              id="polygon3449" />
          </defs>
          <clipPath
            id="SVGID_13_">
            <use
              id="use3343"
              overflow="visible"
              xlink:href="#SVGID_12_"
              x="0"
              y="0"
              width="100%"
              height="100%" />
          </clipPath>
          <polygon
            id="polygon3346"
            points="135.146,161.14 176.026,137.31 216.837,161.14 176.131,184.794 "
            stroke-miterlimit="10"
            stroke="#ffffff"
            fill="none"
            clip-path="url(#SVGID_13_)"
            style="stroke:#999999;stroke-opacity:1" />
        </g>
        <g
          id="g3351"
          style="stroke:#999999;stroke-opacity:1">
          <polygon
            points="135.146,161.14 176.026,137.31 216.837,161.14 176.131,184.794 "
            stroke-miterlimit="10"
            stroke="#ffffff"
            fill="none"
            id="SVGID_5_"
            style="stroke:#999999;stroke-opacity:1" />
        </g>
      </g>
      <g
        id="g3368"
        enable-background="new    "
        style="stroke:#999999;stroke-opacity:1">
        <g
          id="g3363"
          style="stroke:#999999;stroke-opacity:1">
          <defs
            id="defs3356">
            <polygon
              points="135.111,175.326 135.146,161.14 176.131,184.794 176.061,198.98 "
              id="polygon3459" />
          </defs>
          <clipPath
            id="SVGID_15_">
            <use
              id="use3358"
              overflow="visible"
              xlink:href="#SVGID_14_"
              x="0"
              y="0"
              width="100%"
              height="100%" />
          </clipPath>
          <polygon
            id="polygon3361"
            points="135.111,175.326 135.146,161.14 176.131,184.794 176.096,198.98 "
            stroke-miterlimit="10"
            stroke="#ffffff"
            fill="none"
            clip-path="url(#SVGID_15_)"
            style="stroke:#999999;stroke-opacity:1" />
        </g>
        <g
          id="g3366"
          style="stroke:#999999;stroke-opacity:1">
          <polygon
            points="135.111,175.326 135.146,161.14 176.131,184.794 176.061,198.98 "
            stroke-miterlimit="10"
            stroke="#ffffff"
            fill="none"
            id="SVGID_7_"
            style="stroke:#999999;stroke-opacity:1" />
        </g>
      </g>
      <g
        id="g3383"
        enable-background="new    "
        style="stroke:#999999;stroke-opacity:1">
        <g
          id="g3378"
          style="stroke:#999999;stroke-opacity:1">
          <defs
            id="defs3371">
            <polygon
              points="175.991,151.566 135.111,175.326 135.146,161.14 176.026,137.31 "
              id="polygon3469" />
          </defs>
          <clipPath
            id="SVGID_17_">
            <use
              id="use3373"
              overflow="visible"
              xlink:href="#SVGID_16_"
              x="0"
              y="0"
              width="100%"
              height="100%" />
          </clipPath>
          <polygon
            id="polygon3376"
            points="175.991,151.566 135.111,175.326 135.146,161.14 176.026,137.31 "
            stroke-miterlimit="10"
            stroke="#ffffff"
            fill="none"
            clip-path="url(#SVGID_17_)"
            style="stroke:#999999;stroke-opacity:1" />
        </g>
        <g
          id="g3381"
          style="stroke:#999999;stroke-opacity:1">
          <polygon
            points="175.991,151.566 135.111,175.326 135.146,161.14 176.026,137.31 "
            stroke-miterlimit="10"
            stroke="#ffffff"
            fill="none"
            id="SVGID_9_"
            style="stroke:#999999;stroke-opacity:1" />
        </g>
      </g>
      <g
        id="g3398"
        enable-background="new    "
        style="stroke:#999999;stroke-opacity:1">
        <g
          id="g3393"
          style="stroke:#999999;stroke-opacity:1">
          <defs
            id="defs3386">
            <polygon
              points="216.802,175.326 175.991,151.566 176.026,137.31 216.837,161.14 "
              id="polygon3479" />
          </defs>
          <clipPath
            id="SVGID_19_">
            <use
              id="use3388"
              overflow="visible"
              xlink:href="#SVGID_18_"
              x="0"
              y="0"
              width="100%"
              height="100%" />
          </clipPath>
          <polygon
            id="polygon3391"
            points="216.802,175.326 175.817,151.671 176.026,137.31 216.837,161.14 "
            stroke-miterlimit="10"
            stroke="#ffffff"
            fill="none"
            clip-path="url(#SVGID_19_)"
            style="stroke:#999999;stroke-opacity:1" />
        </g>
        <g
          id="g3396"
          style="stroke:#999999;stroke-opacity:1">
          <polygon
            points="216.802,175.326 175.991,151.566 176.026,137.31 216.837,161.14 "
            stroke-miterlimit="10"
            stroke="#ffffff"
            fill="none"
            id="SVGID_11_"
            style="stroke:#999999;stroke-opacity:1" />
        </g>
      </g>
    </g>
  </g>
  <g
    transform="matrix(0.62083075,0,0,0.62083075,-0.65964984,0.29988206)"
    aria-label="LXD"
    id="text3494"
    style="font-size:6.51545px;line-height:1.05;font-family:Rubik;-inkscape-font-specification:'Rubik, Normal';fill:#616870;fill-opacity:1;stroke-width:0.162887">
    <path
      d="m 18.668081,10.747074 q -0.07167,0 -0.110762,-0.03909 -0.03909,-0.04561 -0.03909,-0.110762 V 6.3361145 q 0,-0.065155 0.03909,-0.1042472 0.03909,-0.045608 0.110762,-0.045608 H 19.0134 q 0.06516,0 0.104247,0.045608 0.03909,0.039093 0.03909,0.1042472 V 10.18023 h 2.169645 q 0.07167,0 0.110762,0.04561 0.03909,0.03909 0.03909,0.110763 v 0.260618 q 0,0.06515 -0.03909,0.110762 -0.03909,0.03909 -0.110762,0.03909 z"
      style="fill:#616870;fill-opacity:1;stroke-width:0.162887"
      id="path3496" />
    <path
      d="m 21.909518,10.747074 q -0.05212,0 -0.09773,-0.03909 -0.03909,-0.03909 -0.03909,-0.09122 0,-0.02606 0.0065,-0.04561 0.01303,-0.02606 0.01955,-0.03909 L 23.290793,8.4275739 21.870425,6.401269 q -0.01955,-0.039093 -0.01955,-0.084701 0,-0.052124 0.03909,-0.091216 0.03909,-0.039093 0.09122,-0.039093 h 0.390927 q 0.06516,0 0.104248,0.032577 0.03909,0.026062 0.07167,0.078185 l 1.146719,1.6288625 1.140204,-1.6288625 q 0.02606,-0.052124 0.06515,-0.078185 0.04561,-0.032577 0.104247,-0.032577 h 0.371381 q 0.05212,0 0.09122,0.039093 0.03909,0.039093 0.03909,0.091216 0,0.045608 -0.02606,0.084701 l -1.400822,2.0328204 1.485523,2.0979746 q 0.01303,0.01303 0.01955,0.03909 0.0065,0.01955 0.0065,0.04561 0,0.05212 -0.03909,0.09122 -0.03909,0.03909 -0.09773,0.03909 H 25.05648 q -0.05864,0 -0.104247,-0.03258 -0.03909,-0.03258 -0.07167,-0.07167 L 23.668689,8.9488099 22.463331,10.642827 q -0.03258,0.03909 -0.07167,0.07167 -0.03909,0.03258 -0.104247,0.03258 z"
      style="fill:#616870;fill-opacity:1;stroke-width:0.162887"
      id="path3498" />
    <path
      d="m 26.45608,10.747074 q -0.07167,0 -0.110762,-0.03909 -0.03909,-0.04561 -0.03909,-0.110762 V 6.3426299 q 0,-0.07167 0.03909,-0.1107626 0.03909,-0.045608 0.110762,-0.045608 h 1.479007 q 0.671092,0 1.081565,0.201979 0.410474,0.2019789 0.599422,0.5994214 0.188948,0.390927 0.195463,0.9642866 0.0065,0.2931952 0.0065,0.5147205 0,0.2215253 -0.0065,0.5082051 -0.01303,0.5994214 -0.201979,0.9968639 -0.182432,0.3909272 -0.58639,0.5863902 -0.397443,0.188948 -1.055503,0.188948 z m 0.488659,-0.553813 h 0.990348 q 0.449567,0 0.7167,-0.123794 0.267133,-0.1237932 0.384412,-0.3974421 0.123793,-0.2736489 0.130309,-0.723215 0.01303,-0.1954635 0.01303,-0.3388034 0,-0.1498553 0,-0.2931952 0,-0.1498554 -0.01303,-0.3388034 Q 29.153477,7.3460092 28.866797,7.0462985 28.580117,6.7400724 27.90251,6.7400724 h -0.957771 z"
      style="fill:#616870;fill-opacity:1;stroke-width:0.162887"
      id="path3500" />
  </g>
</svg>