<?xml version="1.0" encoding="UTF-8"?>
<svg xmlns="http://www.w3.org/2000/svg" xmlns:xlink="http://www.w3.org/1999/xlink" width="192px" height="64px" viewBox="0 0 192 64" version="1.1">
<g id="surface1">
<path style=" stroke:none;fill-rule:nonzero;fill:rgb(0%,0%,0%);fill-opacity:1;" d="M 38.84375 56.035156 C 38.925781 53.539062 39.019531 51.0625 39.125 48.59375 C 39.230469 46.128906 39.347656 43.710938 39.472656 41.339844 C 39.597656 38.96875 39.734375 36.652344 39.878906 34.386719 C 40.023438 32.125 40.191406 29.949219 40.382812 27.863281 L 42.582031 27.863281 C 43.191406 29.164062 43.835938 30.671875 44.515625 32.394531 C 45.195312 34.117188 45.882812 35.917969 46.574219 37.800781 C 47.265625 39.683594 47.929688 41.535156 48.570312 43.351562 C 49.207031 45.167969 49.777344 46.804688 50.28125 48.269531 C 50.785156 46.804688 51.355469 45.167969 51.996094 43.351562 C 52.636719 41.535156 53.300781 39.683594 53.992188 37.800781 C 54.683594 35.917969 55.375 34.117188 56.066406 32.394531 C 56.757812 30.675781 57.394531 29.164062 57.984375 27.863281 L 60.058594 27.863281 C 60.246094 29.949219 60.417969 32.125 60.574219 34.386719 C 60.734375 36.648438 60.867188 38.96875 60.984375 41.339844 C 61.097656 43.710938 61.214844 46.128906 61.328125 48.59375 C 61.445312 51.0625 61.542969 53.539062 61.628906 56.035156 L 59.175781 56.035156 C 59.089844 53.269531 59.003906 50.554688 58.910156 47.882812 C 58.8125 45.214844 58.703125 42.632812 58.578125 40.140625 C 58.453125 37.644531 58.304688 35.289062 58.136719 33.066406 C 57.925781 33.582031 57.597656 34.425781 57.148438 35.605469 C 56.699219 36.785156 56.1875 38.140625 55.625 39.671875 C 55.058594 41.203125 54.488281 42.769531 53.910156 44.367188 C 53.332031 45.964844 52.808594 47.441406 52.339844 48.796875 C 51.867188 50.152344 51.507812 51.222656 51.253906 52.007812 L 49.148438 52.007812 C 48.898438 51.222656 48.539062 50.152344 48.066406 48.796875 C 47.59375 47.441406 47.070312 45.964844 46.492188 44.367188 C 45.917969 42.769531 45.347656 41.203125 44.78125 39.671875 C 44.214844 38.140625 43.707031 36.785156 43.257812 35.605469 C 42.804688 34.425781 42.476562 33.582031 42.265625 33.066406 C 42.097656 35.289062 41.953125 37.644531 41.828125 40.140625 C 41.699219 42.632812 41.589844 45.214844 41.496094 47.882812 C 41.402344 50.550781 41.3125 53.269531 41.230469 56.035156 L 38.839844 56.035156 Z M 38.84375 56.035156 "/>
<path style=" stroke:none;fill-rule:nonzero;fill:rgb(0%,0%,0%);fill-opacity:1;" d="M 67.167969 29.9375 C 66.707031 29.9375 66.316406 29.734375 65.992188 29.328125 C 65.664062 28.921875 65.503906 28.378906 65.503906 27.699219 C 65.503906 27.023438 65.664062 26.523438 65.992188 26.113281 C 66.316406 25.707031 66.707031 25.503906 67.167969 25.503906 C 67.632812 25.503906 68.023438 25.707031 68.347656 26.113281 C 68.671875 26.523438 68.835938 27.050781 68.835938 27.699219 C 68.835938 28.351562 68.675781 28.921875 68.347656 29.328125 C 68.023438 29.734375 67.632812 29.9375 67.167969 29.9375 Z M 65.976562 56.035156 L 65.976562 34.976562 L 68.332031 34.976562 L 68.332031 56.035156 Z M 65.976562 56.035156 "/>
<path style=" stroke:none;fill-rule:nonzero;fill:rgb(0%,0%,0%);fill-opacity:1;" d="M 79.664062 56.480469 C 77.945312 56.480469 76.511719 56.027344 75.355469 55.117188 C 74.203125 54.210938 73.335938 52.929688 72.746094 51.277344 C 72.160156 49.625 71.867188 47.714844 71.867188 45.546875 C 71.867188 43.378906 72.171875 41.425781 72.78125 39.773438 C 73.386719 38.121094 74.261719 36.824219 75.402344 35.890625 C 76.546875 34.957031 77.902344 34.488281 79.472656 34.488281 C 80.332031 34.488281 81.148438 34.585938 81.925781 34.773438 C 82.699219 34.964844 83.308594 35.207031 83.75 35.503906 L 83.152344 38.066406 C 82.734375 37.824219 82.261719 37.621094 81.738281 37.457031 C 81.214844 37.292969 80.523438 37.214844 79.664062 37.214844 C 77.925781 37.214844 76.597656 37.945312 75.6875 39.410156 C 74.777344 40.875 74.320312 42.921875 74.320312 45.546875 C 74.320312 47.171875 74.507812 48.601562 74.886719 49.835938 C 75.261719 51.070312 75.871094 52.03125 76.710938 52.722656 C 77.546875 53.414062 78.65625 53.757812 80.039062 53.757812 C 80.859375 53.757812 81.574219 53.636719 82.191406 53.390625 C 82.808594 53.148438 83.265625 52.929688 83.558594 52.742188 L 84.03125 55.34375 C 83.632812 55.613281 83.027344 55.871094 82.207031 56.113281 C 81.390625 56.359375 80.542969 56.480469 79.660156 56.480469 Z M 79.664062 56.480469 "/>
<path style=" stroke:none;fill-rule:nonzero;fill:rgb(0%,0%,0%);fill-opacity:1;" d="M 86.773438 56.035156 L 86.773438 35.953125 C 87.316406 35.65625 88.066406 35.347656 89.019531 35.035156 C 89.976562 34.726562 91.121094 34.570312 92.460938 34.570312 C 92.902344 34.570312 93.335938 34.601562 93.765625 34.671875 C 94.195312 34.738281 94.585938 34.820312 94.929688 34.914062 C 95.273438 35.007812 95.53125 35.097656 95.699219 35.175781 L 95.226562 37.777344 C 95.039062 37.671875 94.683594 37.554688 94.160156 37.433594 C 93.632812 37.3125 92.964844 37.25 92.148438 37.25 C 91.328125 37.25 90.691406 37.328125 90.167969 37.476562 C 89.640625 37.625 89.296875 37.753906 89.128906 37.859375 L 89.128906 56.03125 L 86.773438 56.03125 Z M 86.773438 56.035156 "/>
<path style=" stroke:none;fill-rule:nonzero;fill:rgb(0%,0%,0%);fill-opacity:1;" d="M 104.257812 56.523438 C 102.8125 56.523438 101.523438 56.066406 100.390625 55.160156 C 99.261719 54.253906 98.375 52.972656 97.734375 51.320312 C 97.097656 49.664062 96.777344 47.726562 96.777344 45.503906 C 96.777344 43.28125 97.097656 41.355469 97.734375 39.714844 C 98.375 38.074219 99.261719 36.792969 100.390625 35.871094 C 101.523438 34.949219 102.8125 34.488281 104.257812 34.488281 C 105.703125 34.488281 107.023438 34.949219 108.15625 35.871094 C 109.289062 36.792969 110.171875 38.074219 110.8125 39.714844 C 111.449219 41.355469 111.769531 43.285156 111.769531 45.503906 C 111.769531 47.726562 111.449219 49.664062 110.8125 51.320312 C 110.171875 52.972656 109.292969 54.253906 108.171875 55.160156 C 107.050781 56.066406 105.746094 56.523438 104.257812 56.523438 Z M 104.257812 53.796875 C 105.304688 53.796875 106.207031 53.460938 106.960938 52.78125 C 107.714844 52.105469 108.296875 51.140625 108.707031 49.894531 C 109.113281 48.648438 109.320312 47.1875 109.320312 45.503906 C 109.320312 43.824219 109.117188 42.363281 108.707031 41.113281 C 108.296875 39.867188 107.714844 38.90625 106.960938 38.230469 C 106.207031 37.550781 105.304688 37.210938 104.257812 37.210938 C 103.210938 37.210938 102.339844 37.550781 101.585938 38.230469 C 100.832031 38.90625 100.25 39.867188 99.84375 41.113281 C 99.433594 42.363281 99.230469 43.824219 99.230469 45.503906 C 99.230469 47.1875 99.433594 48.648438 99.84375 49.894531 C 100.25 51.140625 100.832031 52.105469 101.585938 52.78125 C 102.339844 53.460938 103.230469 53.796875 104.257812 53.796875 Z M 104.257812 53.796875 "/>
<path style=" stroke:none;fill-rule:nonzero;fill:rgb(0%,0%,0%);fill-opacity:1;" d="M 124.816406 56.644531 C 122.910156 56.644531 121.195312 56.074219 119.675781 54.9375 C 118.160156 53.796875 116.964844 52.136719 116.09375 49.957031 C 115.226562 47.777344 114.792969 45.097656 114.792969 41.929688 C 114.792969 39.570312 115.0625 37.476562 115.609375 35.648438 C 116.152344 33.820312 116.902344 32.28125 117.855469 31.035156 C 118.808594 29.789062 119.898438 28.84375 121.125 28.207031 C 122.351562 27.570312 123.632812 27.253906 124.976562 27.253906 C 126.085938 27.253906 127.054688 27.367188 127.882812 27.597656 C 128.710938 27.828125 129.394531 28.09375 129.941406 28.390625 C 130.484375 28.691406 130.882812 28.945312 131.132812 29.164062 L 130.347656 31.847656 C 129.824219 31.441406 129.148438 31.046875 128.320312 30.667969 C 127.492188 30.289062 126.492188 30.097656 125.320312 30.097656 C 123.601562 30.097656 122.152344 30.59375 120.96875 31.582031 C 119.78125 32.570312 118.886719 33.953125 118.28125 35.726562 C 117.671875 37.503906 117.367188 39.582031 117.367188 41.964844 C 117.367188 44.351562 117.660156 46.433594 118.246094 48.207031 C 118.835938 49.980469 119.699219 51.355469 120.839844 52.332031 C 121.984375 53.308594 123.382812 53.796875 125.035156 53.796875 C 126.421875 53.796875 127.570312 53.628906 128.496094 53.289062 C 129.417969 52.949219 130.128906 52.601562 130.632812 52.25 L 131.292969 54.933594 C 130.957031 55.203125 130.226562 55.558594 129.105469 55.992188 C 127.984375 56.425781 126.554688 56.640625 124.816406 56.640625 Z M 124.816406 56.644531 "/>
<path style=" stroke:none;fill-rule:nonzero;fill:rgb(0%,0%,0%);fill-opacity:1;" d="M 138.496094 56.398438 C 137.492188 56.34375 136.660156 56.128906 136 55.75 C 135.339844 55.371094 134.851562 54.78125 134.539062 53.980469 C 134.222656 53.183594 134.066406 52.105469 134.066406 50.75 L 134.066406 25.019531 L 136.421875 24.488281 L 136.421875 50.546875 C 136.421875 51.847656 136.605469 52.6875 136.972656 53.066406 C 137.339844 53.445312 137.964844 53.71875 138.84375 53.878906 L 138.5 56.398438 Z M 138.496094 56.398438 "/>
<path style=" stroke:none;fill-rule:nonzero;fill:rgb(0%,0%,0%);fill-opacity:1;" d="M 147.875 56.523438 C 146.429688 56.523438 145.140625 56.066406 144.007812 55.160156 C 142.875 54.253906 141.992188 52.972656 141.351562 51.320312 C 140.710938 49.664062 140.394531 47.726562 140.394531 45.503906 C 140.394531 43.28125 140.710938 41.355469 141.351562 39.714844 C 141.992188 38.074219 142.875 36.792969 144.007812 35.871094 C 145.140625 34.949219 146.429688 34.488281 147.875 34.488281 C 149.320312 34.488281 150.640625 34.949219 151.769531 35.871094 C 152.902344 36.792969 153.789062 38.074219 154.425781 39.714844 C 155.066406 41.355469 155.386719 43.285156 155.386719 45.503906 C 155.386719 47.726562 155.066406 49.664062 154.425781 51.320312 C 153.789062 52.972656 152.90625 54.253906 151.785156 55.160156 C 150.667969 56.066406 149.359375 56.523438 147.875 56.523438 Z M 147.875 53.796875 C 148.921875 53.796875 149.824219 53.460938 150.578125 52.78125 C 151.332031 52.105469 151.914062 51.140625 152.320312 49.894531 C 152.730469 48.648438 152.933594 47.1875 152.933594 45.503906 C 152.933594 43.824219 152.730469 42.363281 152.320312 41.113281 C 151.914062 39.867188 151.332031 38.90625 150.578125 38.230469 C 149.824219 37.550781 148.921875 37.210938 147.875 37.210938 C 146.828125 37.210938 145.957031 37.550781 145.203125 38.230469 C 144.445312 38.90625 143.867188 39.867188 143.457031 41.113281 C 143.050781 42.363281 142.84375 43.824219 142.84375 45.503906 C 142.84375 47.1875 143.050781 48.648438 143.457031 49.894531 C 143.867188 51.140625 144.445312 52.105469 145.203125 52.78125 C 145.957031 53.460938 146.847656 53.796875 147.875 53.796875 Z M 147.875 53.796875 "/>
<path style=" stroke:none;fill-rule:nonzero;fill:rgb(0%,0%,0%);fill-opacity:1;" d="M 165.339844 56.441406 C 163.707031 56.441406 162.410156 56.039062 161.457031 55.238281 C 160.503906 54.441406 159.824219 53.308594 159.414062 51.847656 C 159.007812 50.382812 158.800781 48.691406 158.800781 46.765625 L 158.800781 34.976562 L 161.160156 34.976562 L 161.160156 45.953125 C 161.160156 47.847656 161.304688 49.367188 161.601562 50.503906 C 161.894531 51.644531 162.371094 52.464844 163.03125 52.964844 C 163.691406 53.46875 164.566406 53.71875 165.652344 53.71875 C 166.535156 53.71875 167.3125 53.65625 167.996094 53.535156 C 168.675781 53.414062 169.121094 53.308594 169.332031 53.230469 L 169.332031 34.976562 L 171.65625 34.976562 L 171.65625 55.300781 C 171.027344 55.519531 170.183594 55.761719 169.128906 56.03125 C 168.070312 56.300781 166.808594 56.4375 165.339844 56.4375 Z M 165.339844 56.441406 "/>
<path style=" stroke:none;fill-rule:nonzero;fill:rgb(0%,0%,0%);fill-opacity:1;" d="M 183.332031 56.523438 C 181.742188 56.523438 180.335938 56.082031 179.121094 55.199219 C 177.90625 54.320312 176.964844 53.058594 176.292969 51.417969 C 175.621094 49.777344 175.289062 47.820312 175.289062 45.546875 C 175.289062 43.269531 175.574219 41.46875 176.152344 39.8125 C 176.726562 38.160156 177.566406 36.867188 178.667969 35.933594 C 179.765625 35 181.089844 34.53125 182.644531 34.53125 C 183.648438 34.53125 184.535156 34.714844 185.300781 35.078125 C 186.0625 35.445312 186.636719 35.804688 187.011719 36.15625 L 187.011719 25.019531 L 189.339844 24.492188 L 189.339844 55.386719 C 188.941406 55.546875 188.449219 55.71875 187.859375 55.894531 C 187.273438 56.070312 186.609375 56.21875 185.867188 56.339844 C 185.121094 56.460938 184.277344 56.523438 183.335938 56.523438 Z M 183.363281 53.796875 C 184.285156 53.796875 185.046875 53.738281 185.644531 53.617188 C 186.242188 53.496094 186.695312 53.378906 187.011719 53.269531 L 187.011719 39 C 186.652344 38.621094 186.109375 38.238281 185.375 37.84375 C 184.640625 37.453125 183.816406 37.253906 182.894531 37.253906 C 181.972656 37.253906 181.148438 37.464844 180.488281 37.886719 C 179.828125 38.304688 179.292969 38.894531 178.882812 39.652344 C 178.476562 40.410156 178.183594 41.292969 178.003906 42.292969 C 177.828125 43.296875 177.738281 44.367188 177.738281 45.503906 C 177.738281 47.265625 177.972656 48.765625 178.445312 49.996094 C 178.917969 51.230469 179.578125 52.171875 180.425781 52.824219 C 181.273438 53.472656 182.253906 53.796875 183.363281 53.796875 Z M 183.363281 53.796875 "/>
<path style=" stroke:none;fill-rule:nonzero;fill:rgb(91.372549%,32.941176%,12.54902%);fill-opacity:1;" d="M 0.0234375 0 L 31.445312 0 L 31.445312 64 L 0.0234375 64 Z M 0.0234375 0 "/>
<path style=" stroke:none;fill-rule:nonzero;fill:rgb(100%,100%,100%);fill-opacity:1;" d="M 22.839844 47.730469 C 22.304688 47.730469 21.867188 48.269531 21.828125 48.949219 L 17.574219 50.257812 C 17.460938 49.972656 17.289062 49.738281 17.078125 49.582031 L 18.511719 43.171875 C 18.550781 43.175781 18.589844 43.179688 18.632812 43.179688 C 19.464844 43.179688 20.140625 42.304688 20.140625 41.230469 C 20.140625 40.152344 19.464844 39.277344 18.632812 39.277344 C 17.800781 39.277344 17.125 40.152344 17.125 41.230469 C 17.125 41.976562 17.449219 42.628906 17.929688 42.953125 L 16.492188 49.363281 C 16.476562 49.363281 16.460938 49.363281 16.441406 49.363281 C 16.265625 49.363281 16.101562 49.40625 15.949219 49.488281 L 12.789062 43.949219 C 12.910156 43.734375 12.984375 43.46875 12.984375 43.175781 C 12.984375 42.453125 12.527344 41.863281 11.96875 41.863281 C 11.40625 41.863281 10.953125 42.453125 10.953125 43.175781 C 10.953125 43.902344 11.40625 44.492188 11.96875 44.492188 C 12.082031 44.492188 12.195312 44.464844 12.296875 44.417969 L 15.460938 49.957031 C 15.386719 50.074219 15.324219 50.203125 15.273438 50.347656 L 10.949219 49.371094 C 10.949219 49.335938 10.953125 49.304688 10.953125 49.269531 C 10.953125 47.890625 10.085938 46.773438 9.019531 46.773438 C 9.011719 46.773438 9.003906 46.773438 8.996094 46.773438 C 8.988281 46.773438 8.980469 46.773438 8.972656 46.773438 C 7.90625 46.773438 7.042969 47.890625 7.042969 49.269531 C 7.042969 50.648438 7.90625 51.769531 8.972656 51.769531 C 8.980469 51.769531 8.988281 51.769531 8.996094 51.769531 C 9.003906 51.769531 9.011719 51.769531 9.019531 51.769531 C 9.851562 51.769531 10.554688 51.089844 10.828125 50.140625 L 15.171875 51.125 C 15.214844 51.980469 15.765625 52.65625 16.441406 52.65625 C 17.113281 52.65625 17.707031 51.929688 17.714844 51.023438 L 21.96875 49.71875 C 22.144531 50.101562 22.46875 50.359375 22.839844 50.359375 C 23.398438 50.359375 23.855469 49.773438 23.855469 49.046875 C 23.855469 48.320312 23.402344 47.734375 22.839844 47.734375 Z M 22.839844 47.730469 "/>
<path style=" stroke:none;fill-rule:nonzero;fill:rgb(100%,100%,100%);fill-opacity:1;" d="M 24.410156 42.496094 C 24.410156 42.46875 24.410156 42.4375 24.410156 42.40625 C 24.410156 38.085938 21.695312 34.570312 18.351562 34.570312 C 16.425781 34.570312 14.652344 35.722656 13.515625 37.6875 C 13.019531 37.453125 12.496094 37.328125 11.96875 37.328125 C 9.613281 37.328125 7.675781 39.691406 7.503906 42.683594 C 5.304688 43.53125 3.757812 46.167969 3.757812 49.203125 C 3.757812 52.957031 6.117188 56.011719 9.019531 56.011719 C 10.070312 56.011719 12.644531 56.015625 15.289062 56.019531 L 15.511719 56.019531 C 18.296875 56.023438 21.117188 56.027344 22.273438 56.027344 C 25.277344 56.027344 27.71875 52.863281 27.71875 48.980469 C 27.71875 46.117188 26.410156 43.589844 24.410156 42.496094 Z M 22.273438 54.351562 C 21.117188 54.351562 18.296875 54.347656 15.515625 54.34375 L 15.292969 54.34375 C 12.644531 54.339844 10.070312 54.335938 9.023438 54.335938 C 6.835938 54.335938 5.054688 52.035156 5.054688 49.203125 C 5.054688 46.742188 6.40625 44.621094 8.265625 44.167969 L 8.816406 44.03125 L 8.792969 43.304688 C 8.789062 43.242188 8.789062 43.175781 8.789062 43.113281 C 8.789062 40.847656 10.214844 39.003906 11.964844 39.003906 C 12.476562 39.003906 12.988281 39.167969 13.441406 39.476562 L 13.980469 39.839844 L 14.296875 39.175781 C 15.167969 37.34375 16.683594 36.246094 18.351562 36.246094 C 20.976562 36.246094 23.113281 39.011719 23.113281 42.410156 C 23.113281 42.601562 23.105469 42.796875 23.09375 42.992188 L 23.042969 43.664062 L 23.539062 43.867188 C 25.265625 44.578125 26.421875 46.632812 26.421875 48.980469 C 26.421875 51.945312 24.558594 54.355469 22.269531 54.355469 Z M 22.273438 54.351562 "/>
</g>
</svg>
