<?xml version="1.0" encoding="UTF-8" standalone="no"?>
<svg
   id="Layer_1"
   viewBox="0 0 80 32"
   version="1.1"
   sodipodi:docname="lxd-32-white.svg"
   width="80"
   height="32"
   inkscape:version="1.1.2 (0a00cf5339, 2022-02-04)"
   xmlns:inkscape="http://www.inkscape.org/namespaces/inkscape"
   xmlns:sodipodi="http://sodipodi.sourceforge.net/DTD/sodipodi-0.dtd"
   xmlns="http://www.w3.org/2000/svg"
   xmlns:svg="http://www.w3.org/2000/svg">
  <sodipodi:namedview
     id="namedview118"
     pagecolor="#ffffff"
     bordercolor="#666666"
     borderopacity="1.0"
     inkscape:pageshadow="2"
     inkscape:pageopacity="0.0"
     inkscape:pagecheckerboard="0"
     showgrid="false"
     width="105px"
     inkscape:zoom="5.12"
     inkscape:cx="6.8359375"
     inkscape:cy="-22.070313"
     inkscape:window-width="1920"
     inkscape:window-height="1004"
     inkscape:window-x="0"
     inkscape:window-y="0"
     inkscape:window-maximized="1"
     inkscape:current-layer="Layer_1" />
  <defs
     id="defs87">
    <style
       id="style85">.cls-1{fill:none;}.cls-1,.cls-2,.cls-3,.cls-4{stroke-width:0px;}.cls-3{fill:#fff;}.cls-4{fill:#e95420;}</style>
  </defs>
  <path
     class="cls-2"
     d="m 16.403528,23.903674 c 0.03503,-0.81978 0.07528,-1.635352 0.119717,-2.446188 0.04443,-0.810835 0.09305,-1.606412 0.145855,-2.386203 0.05332,-0.779791 0.11083,-1.541693 0.172518,-2.28623 0.06169,-0.744012 0.132786,-1.459084 0.212772,-2.145742 h 0.929503 c 0.256685,0.42778 0.529054,0.92449 0.816583,1.490654 0.287529,0.566164 0.577672,1.158637 0.869906,1.777945 0.292234,0.619308 0.572968,1.227566 0.843245,1.824775 0.269754,0.597208 0.511279,1.136012 0.72405,1.617462 0.212249,-0.48145 0.453774,-1.020254 0.724051,-1.617462 0.270277,-0.597209 0.55101,-1.205467 0.843245,-1.824775 0.292234,-0.619308 0.584468,-1.211781 0.876702,-1.777945 0.292234,-0.565638 0.561989,-1.062874 0.81031,-1.490654 h 0.876702 c 0.07946,0.686132 0.152652,1.40173 0.219045,2.145742 0.0664,0.744011 0.123899,1.506439 0.172517,2.28623 0.04862,0.779791 0.09724,1.575368 0.145856,2.386203 0.04862,0.811362 0.09096,1.626408 0.12599,2.446188 h -1.03615 c -0.03555,-0.90923 -0.07319,-1.802149 -0.112921,-2.680335 -0.03973,-0.87766 -0.08626,-1.72638 -0.139582,-2.546687 -0.05332,-0.819781 -0.115012,-1.595363 -0.18611,-2.32622 -0.08887,0.169429 -0.227932,0.447775 -0.418224,0.835566 -0.190292,0.387791 -0.405155,0.833461 -0.644065,1.337011 -0.238911,0.503549 -0.480436,1.018148 -0.724051,1.543797 -0.243616,0.526175 -0.464752,1.011834 -0.663931,1.456979 -0.199179,0.44567 -0.351831,0.797681 -0.457956,1.056033 h -0.889771 c -0.106125,-0.258352 -0.258777,-0.610363 -0.458479,-1.056033 -0.199179,-0.44567 -0.420838,-0.93133 -0.663931,-1.456979 -0.243616,-0.525649 -0.484618,-1.040248 -0.72405,-1.543797 -0.238911,-0.50355 -0.453774,-0.94922 -0.644066,-1.337011 -0.190292,-0.387791 -0.329874,-0.666137 -0.418224,-0.835566 -0.0711,0.730857 -0.132786,1.506439 -0.18611,2.32622 -0.05332,0.81978 -0.09985,1.669027 -0.139582,2.546687 -0.03974,0.87766 -0.07737,1.771105 -0.112921,2.680335 h -1.009489 z"
     id="path89"
     style="fill:#ffffff;fill-opacity:1" />
  <path
     class="cls-2"
     d="m 28.374151,15.321234 c -0.194997,0 -0.360719,-0.06683 -0.498209,-0.200473 -0.137492,-0.133648 -0.205976,-0.312021 -0.205976,-0.534593 0,-0.222573 0.06849,-0.387791 0.205976,-0.52144 0.136968,-0.133648 0.303212,-0.200472 0.498209,-0.200472 0.194997,0 0.360718,0.06683 0.498209,0.200472 0.136969,0.133649 0.205976,0.307287 0.205976,0.52144 0,0.214153 -0.06848,0.400945 -0.205976,0.534593 -0.137491,0.133649 -0.303212,0.200473 -0.498209,0.200473 z m -0.504483,8.58244 v -6.924989 h 0.995896 v 6.924989 z"
     id="path91"
     style="fill:#ffffff;fill-opacity:1" />
  <path
     class="cls-2"
     d="m 33.653709,24.050477 c -0.726142,0 -1.332567,-0.148908 -1.819798,-0.447775 -0.487231,-0.298341 -0.854746,-0.719807 -1.102544,-1.263346 -0.247798,-0.543539 -0.371697,-1.171791 -0.371697,-1.884759 0,-0.712967 0.128081,-1.354374 0.385289,-1.898439 0.256686,-0.543539 0.626291,-0.969214 1.108817,-1.276501 0.482527,-0.307286 1.056017,-0.460929 1.719948,-0.460929 0.362809,0 0.708367,0.03105 1.03615,0.09366 0.327261,0.06261 0.584468,0.142593 0.770578,0.240462 l -0.252503,0.842406 c -0.177223,-0.07998 -0.376401,-0.146802 -0.597538,-0.200472 -0.221658,-0.05367 -0.513893,-0.07998 -0.876702,-0.07998 -0.735029,0 -1.294927,0.240462 -1.680216,0.721912 -0.385289,0.48145 -0.577672,1.154428 -0.577672,2.018407 0,0.534594 0.07946,1.004994 0.238911,1.410149 0.159448,0.405681 0.416132,0.721912 0.770578,0.94922 0.353922,0.227308 0.823379,0.340961 1.407847,0.340961 0.345557,0 0.64877,-0.03999 0.909638,-0.120494 0.260867,-0.07998 0.453773,-0.151538 0.577672,-0.214153 l 0.199179,0.85556 c -0.168335,0.08945 -0.42502,0.173638 -0.770578,0.254143 -0.345558,0.0805 -0.704185,0.120494 -1.075882,0.120494 z"
     id="path93"
     style="fill:#ffffff;fill-opacity:1" />
  <path
     class="cls-2"
     d="m 36.658127,23.903674 v -6.604022 c 0.230023,-0.09787 0.546829,-0.198368 0.949892,-0.300972 0.403064,-0.102604 0.887681,-0.153643 1.454374,-0.153643 0.18611,0 0.369607,0.01105 0.551011,0.03315 0.181405,0.0221 0.345558,0.04894 0.491414,0.07998 0.145855,0.03157 0.254594,0.05999 0.325169,0.08682 l -0.19918,0.85556 c -0.07946,-0.03525 -0.230545,-0.07366 -0.451682,-0.113654 -0.221658,-0.03999 -0.504483,-0.05999 -0.850041,-0.05999 -0.345557,0 -0.615312,0.02473 -0.83697,0.07366 -0.22166,0.04894 -0.367515,0.09155 -0.43809,0.126808 v 5.975769 h -0.995897 z"
     id="path95"
     style="fill:#ffffff;fill-opacity:1" />
  <path
     class="cls-2"
     d="m 44.047103,24.064158 c -0.61113,0 -1.155344,-0.149434 -1.633688,-0.447775 -0.478344,-0.298341 -0.852132,-0.719808 -1.122409,-1.263347 -0.270277,-0.543538 -0.405155,-1.180736 -0.405155,-1.911593 0,-0.730857 0.134878,-1.365424 0.405155,-1.904753 0.269755,-0.53933 0.644065,-0.96027 1.122409,-1.263347 0.478344,-0.303077 1.022558,-0.454615 1.633688,-0.454615 0.611131,0 1.168937,0.151538 1.646758,0.454615 0.478344,0.303077 0.852132,0.724017 1.12241,1.263347 0.269754,0.539329 0.405155,1.174422 0.405155,1.904753 0,0.73033 -0.134878,1.368055 -0.405155,1.911593 -0.270278,0.543539 -0.641974,0.965006 -1.115614,1.263347 -0.473638,0.298341 -1.025171,0.447775 -1.653554,0.447775 z m 0,-0.895551 c 0.442796,0 0.823379,-0.111549 1.142275,-0.334121 0.318896,-0.222571 0.564603,-0.539329 0.73712,-0.949219 0.172518,-0.40989 0.2593,-0.89134 0.2593,-1.443824 0,-0.552484 -0.08626,-1.033934 -0.2593,-1.443825 -0.172517,-0.40989 -0.418224,-0.726121 -0.73712,-0.949219 -0.318896,-0.222572 -0.699479,-0.334121 -1.142275,-0.334121 -0.442794,0 -0.810309,0.111549 -1.129205,0.334121 -0.318896,0.223098 -0.564603,0.539329 -0.73712,0.949219 -0.172518,0.409891 -0.258777,0.891341 -0.258777,1.443825 0,0.552484 0.08626,1.033934 0.258777,1.443824 0.172517,0.40989 0.418224,0.726648 0.73712,0.949219 0.318896,0.223099 0.694775,0.334121 1.129205,0.334121 z"
     id="path97"
     style="fill:#ffffff;fill-opacity:1" />
  <path
     class="cls-2"
     d="m 52.734666,24.104147 c -0.805604,0 -1.529655,-0.187318 -2.171629,-0.561429 -0.641974,-0.374111 -1.14698,-0.92028 -1.513972,-1.637456 -0.367515,-0.717177 -0.55101,-1.597468 -0.55101,-2.640347 0,-0.775581 0.115012,-1.463818 0.345557,-2.065236 0.230024,-0.601419 0.546829,-1.107072 0.949893,-1.517489 0.403063,-0.409891 0.863109,-0.719807 1.381185,-0.929225 0.518075,-0.209418 1.060199,-0.314126 1.626892,-0.314126 0.469457,0 0.878794,0.03788 1.228534,0.113653 0.349739,0.07577 0.63936,0.162588 0.869906,0.260457 0.230023,0.0984 0.398359,0.182583 0.504483,0.254142 l -0.331966,0.882396 c -0.221658,-0.133649 -0.507097,-0.262561 -0.856836,-0.387791 -0.34974,-0.124704 -0.77267,-0.187318 -1.268265,-0.187318 -0.726142,0 -1.339363,0.162588 -1.839664,0.487764 -0.500301,0.325176 -0.878794,0.779791 -1.135479,1.363319 -0.257207,0.584054 -0.385289,1.268082 -0.385289,2.052082 0,0.784001 0.123899,1.468555 0.371697,2.052083 0.247798,0.584054 0.613221,1.036039 1.095748,1.357006 0.482526,0.320966 1.07379,0.48145 1.77327,0.48145 0.584469,0 1.071177,-0.05577 1.461171,-0.167324 0.389471,-0.111549 0.690593,-0.225203 0.903364,-0.340962 l 0.278643,0.882396 c -0.141674,0.08892 -0.449592,0.205208 -0.923231,0.347802 -0.473639,0.142593 -1.077973,0.213627 -1.813002,0.213627 z"
     id="path99"
     style="fill:#ffffff;fill-opacity:1" />
  <path
     class="cls-2"
     d="m 58.516094,24.023642 c -0.425021,-0.01789 -0.776852,-0.08892 -1.056017,-0.213627 -0.278642,-0.124703 -0.484617,-0.318336 -0.617403,-0.581423 -0.132786,-0.262562 -0.19918,-0.617204 -0.19918,-1.062874 v -8.461946 l 0.995897,-0.173637 v 8.568759 c 0,0.42778 0.07737,0.704022 0.232637,0.828726 0.154743,0.124703 0.418224,0.214153 0.790444,0.267296 l -0.145856,0.828726 z"
     id="path101"
     style="fill:#ffffff;fill-opacity:1" />
  <path
     class="cls-2"
     d="m 62.478245,24.064158 c -0.61113,0 -1.155344,-0.149434 -1.633688,-0.447775 -0.478344,-0.298341 -0.852132,-0.719808 -1.122409,-1.263347 -0.270278,-0.543538 -0.405155,-1.180736 -0.405155,-1.911593 0,-0.730857 0.134877,-1.365424 0.405155,-1.904753 0.269754,-0.53933 0.644065,-0.96027 1.122409,-1.263347 0.478344,-0.303077 1.022558,-0.454615 1.633688,-0.454615 0.61113,0 1.168937,0.151538 1.646758,0.454615 0.478344,0.303077 0.852132,0.724017 1.122409,1.263347 0.269755,0.539329 0.405155,1.174422 0.405155,1.904753 0,0.73033 -0.134878,1.368055 -0.405155,1.911593 -0.270277,0.543539 -0.641974,0.965006 -1.115613,1.263347 -0.473639,0.298341 -1.025172,0.447775 -1.653554,0.447775 z m 0,-0.895551 c 0.442795,0 0.823379,-0.111549 1.142275,-0.334121 0.318896,-0.222571 0.564603,-0.539329 0.73712,-0.949219 0.172518,-0.40989 0.258776,-0.89134 0.258776,-1.443824 0,-0.552484 -0.08626,-1.033934 -0.258776,-1.443825 -0.172517,-0.40989 -0.418224,-0.726121 -0.73712,-0.949219 -0.318896,-0.222572 -0.69948,-0.334121 -1.142275,-0.334121 -0.442795,0 -0.810309,0.111549 -1.129205,0.334121 -0.318896,0.223098 -0.564603,0.539329 -0.737121,0.949219 -0.172517,0.409891 -0.258776,0.891341 -0.258776,1.443825 0,0.552484 0.08626,1.033934 0.258776,1.443824 0.172518,0.40989 0.418225,0.726648 0.737121,0.949219 0.318896,0.223099 0.694774,0.334121 1.129205,0.334121 z"
     id="path103"
     style="fill:#ffffff;fill-opacity:1" />
  <path
     class="cls-2"
     d="m 69.858857,24.037323 c -0.690593,0 -1.237421,-0.131544 -1.640484,-0.394632 -0.403064,-0.262561 -0.690594,-0.635093 -0.863111,-1.116017 -0.172518,-0.48145 -0.258776,-1.038143 -0.258776,-1.671131 v -3.876858 h 0.995896 v 3.609561 c 0,0.624043 0.06169,1.122857 0.18611,1.497494 0.123899,0.37411 0.325169,0.644038 0.604335,0.808731 0.279164,0.165218 0.648769,0.247302 1.108816,0.247302 0.371697,0 0.701571,-0.01999 0.989623,-0.05999 0.287529,-0.03999 0.47573,-0.07366 0.564603,-0.100499 v -6.002605 h 0.982827 v 6.684001 c -0.265573,0.07156 -0.622109,0.151539 -1.069086,0.240462 -0.4475,0.08892 -0.980736,0.133648 -1.600753,0.133648 z"
     id="path105"
     style="fill:#ffffff;fill-opacity:1" />
  <path
     class="cls-2"
     d="m 77.462698,24.064158 c -0.672817,0 -1.266179,-0.144698 -1.779546,-0.434621 -0.513893,-0.289396 -0.912252,-0.704022 -1.195599,-1.243352 -0.283346,-0.539329 -0.42502,-1.183367 -0.42502,-1.931588 0,-0.748221 0.121808,-1.34122 0.365424,-1.884759 0.243615,-0.543538 0.597538,-0.969214 1.062812,-1.2765 0.464753,-0.307287 1.024649,-0.46093 1.680213,-0.46093 0.425023,0 0.798811,0.05998 1.122411,0.180478 0.323078,0.120494 0.564604,0.238358 0.72405,0.354116 v -3.662704 l 0.982828,-0.173638 v 10.159914 c -0.168332,0.05367 -0.3764,0.109443 -0.624202,0.167323 -0.247794,0.05788 -0.529048,0.106813 -0.843239,0.146803 -0.31419,0.03999 -0.670727,0.05999 -1.069088,0.05999 z m 0.0131,-0.895551 c 0.389473,0 0.710462,-0.01999 0.962965,-0.05999 0.252503,-0.03999 0.444885,-0.07787 0.57767,-0.113654 V 18.30254 c -0.150559,-0.124704 -0.380587,-0.251512 -0.690591,-0.380951 -0.310012,-0.128913 -0.659751,-0.193633 -1.049225,-0.193633 -0.389466,0 -0.737115,0.06893 -1.01628,0.207314 -0.278642,0.138384 -0.504483,0.332016 -0.677525,0.581423 -0.172517,0.249407 -0.296939,0.53933 -0.371696,0.868715 -0.07528,0.329912 -0.112921,0.681923 -0.112921,1.056034 0,0.579318 0.09985,1.071818 0.29903,1.476973 0.19918,0.40568 0.478347,0.715071 0.836973,0.929224 0.358626,0.214154 0.772665,0.320967 1.2416,0.320968 z"
     id="path107"
     style="fill:#ffffff;fill-opacity:1" />
  <rect
     class="cls-4"
     width="13.27862"
     height="21.047001"
     id="rect109"
     x="-0.00027146496"
     y="5.4765"
     style="fill:#ffffff;fill-opacity:1" />
  <rect
     class="cls-1"
     x="1.5811388"
     y="14.388852"
     width="10.119458"
     height="10.185169"
     id="rect111" />
  <path
     class="cls-3"
     d="m 9.6413655,21.173352 c -0.226364,0 -0.411951,0.176795 -0.4276344,0.400945 l -1.7978415,0.429359 c -0.047573,-0.09261 -0.1202395,-0.169954 -0.2096349,-0.22152 l 0.6064252,-2.108383 c 0.01673,0.0011 0.032937,0.0027 0.050189,0.0027 0.3518312,0 0.6372696,-0.287291 0.6372696,-0.641407 0,-0.354116 -0.2854384,-0.641408 -0.6372696,-0.641408 -0.3518309,0 -0.6372689,0.287292 -0.6372689,0.641408 0,0.24625 0.138014,0.459877 0.34033,0.567217 l -0.6064252,2.108383 c -0.00732,0 -0.014638,-0.0011 -0.021957,-0.0011 -0.073712,0 -0.1432418,0.01474 -0.2075437,0.04157 L 5.3932527,19.93 c 0.051755,-0.07156 0.082599,-0.158904 0.082599,-0.254142 0,-0.238357 -0.1918603,-0.43199 -0.4292026,-0.43199 -0.2373422,0 -0.4292026,0.193107 -0.4292026,0.43199 0,0.238884 0.1918604,0.43199 0.4292026,0.43199 0.049141,0 0.095669,-0.0084 0.1395824,-0.02368 l 1.3367491,1.821092 c -0.03189,0.03841 -0.058551,0.08156 -0.07894,0.128389 L 4.6158784,21.712156 c 0,-0.01105 0.00157,-0.02157 0.00157,-0.03262 0,-0.453563 -0.3654234,-0.821359 -0.81606,-0.821359 -0.00313,0 -0.0068,0 -0.00993,0 -0.00313,0 -0.0068,0 -0.00993,0 -0.4506366,0 -0.81606,0.367796 -0.81606,0.821359 0,0.453563 0.3654234,0.821359 0.81606,0.821359 0.00313,0 0.0068,0 0.00993,0 0.00313,0 0.0068,0 0.00993,0 0.3507855,0 0.6487703,-0.223098 0.7643047,-0.53512 l 1.8349588,0.323071 c 0.01882,0.282031 0.2514573,0.504603 0.5363726,0.504603 0.2849152,0 0.5358497,-0.239936 0.5379409,-0.537225 L 9.2728039,21.82686 c 0.074761,0.126282 0.211726,0.210996 0.368037,0.210996 0.2368196,0 0.4292031,-0.193106 0.4292031,-0.43199 0,-0.238883 -0.1918612,-0.431989 -0.4292031,-0.431989 z"
     id="path113"
     style="fill:#000000" />
  <path
     class="cls-3"
     d="m 10.305296,19.452234 c 0,-0.01 0,-0.01947 0,-0.02946 0,-1.421199 -1.1485484,-2.577205 -2.5605775,-2.577205 -0.8144918,0 -1.5625904,0.378846 -2.044071,1.024462 -0.2091121,-0.07735 -0.4312938,-0.117863 -0.6539982,-0.117863 -0.9953736,0 -1.813002,0.777687 -1.8856684,1.761108 -0.9300261,0.278347 -1.5835015,1.146536 -1.5835015,2.14469 0,1.234406 0.9974648,2.238348 2.2239073,2.238348 0.4433177,0 1.5317462,0.0011 2.6494505,0.0021 h 0.093578 c 1.1773009,0.0016 2.3687176,0.0027 2.8569941,0.0027 1.2698337,0 2.3023247,-1.039722 2.3023247,-2.317275 0,-0.940802 -0.553625,-1.772158 -1.398438,-2.132061 z m -0.9038871,3.89843 c -0.4877541,0 -1.6791701,-0.0011 -2.8559485,-0.0027 h -0.093578 c -1.118227,-0.0011 -2.2071783,-0.0027 -2.6499732,-0.0027 -0.9242755,0 -1.6765563,-0.75664 -1.6765563,-1.687443 0,-0.81031 0.570876,-1.506966 1.3571376,-1.656926 l 0.23316,-0.04413 -0.010978,-0.238884 c -0.00104,-0.02104 -0.00157,-0.04209 -0.00157,-0.06261 0,-0.74559 0.6027657,-1.351744 1.3430225,-1.351744 0.2164311,0 0.4323393,0.05367 0.6241997,0.155222 l 0.2263638,0.119442 0.1338318,-0.218889 c 0.3690829,-0.602471 1.0094887,-0.962374 1.7136737,-0.962374 1.1098627,0 2.0127041,0.908704 2.0127041,2.0263 0,0.06367 -0.0031,0.12786 -0.00889,0.191001 l -0.020908,0.22152 0.2101575,0.06735 c 0.7282324,0.233621 1.2175554,0.90923 1.2175554,1.681654 0,0.973951 -0.787307,1.766371 -1.7549736,1.766371 z"
     id="path115"
     style="fill:#000000" />
</svg>
