<?xml version="1.0" encoding="UTF-8" standalone="no"?>
<svg    xmlns:dc="http://purl.org/dc/elements/1.1/"
   xmlns:cc="http://creativecommons.org/ns#"
   xmlns:rdf="http://www.w3.org/1999/02/22-rdf-syntax-ns#"
   xmlns:svg="http://www.w3.org/2000/svg"
   xmlns="http://www.w3.org/2000/svg"
   id="svg2027"
   version="1.1"
   viewBox="0 0 48.947916 16.933334"
   height="64"
   width="185">
  <g
     id="g2025">
    <g
       id="g2019"
       style="font-style:normal;font-variant:normal;font-weight:normal;font-stretch:normal;font-size:6.05164px;line-height:1.25;font-family:Rubik;-inkscape-font-specification:'Rubik, @wght=300';font-variant-ligatures:normal;font-variant-caps:normal;font-variant-numeric:normal;font-variant-east-asian:normal;font-variation-settings:'wght' 300;letter-spacing:0px;fill:#616870;fill-opacity:1;stroke-width:0.151291">
      <g
         style="font-style:normal;font-variant:normal;font-weight:normal;font-stretch:normal;font-size:5.5063px;line-height:1.25;font-family:Arial;-inkscape-font-specification:Arial;font-variant-ligatures:normal;font-variant-caps:normal;font-variant-numeric:normal;font-variant-east-asian:normal;stroke-width:0.0237198"
         id="text1975"
         aria-label="Coriolis Bare
Metal Hub">
        <path
           id="path2607"
           style="font-style:normal;font-variant:normal;font-weight:normal;font-stretch:normal;font-family:Arial;-inkscape-font-specification:Arial;stroke-width:0.0237198"
           d="m 19.737997,5.6153822 0.521593,0.1317426 q -0.164006,0.6425809 -0.591498,0.9813474 -0.424802,0.3360779 -1.040497,0.3360779 -0.637203,0 -1.037808,-0.2581079 -0.397916,-0.2607964 -0.607629,-0.7528144 -0.207024,-0.492018 -0.207024,-1.0566289 0,-0.6156946 0.23391,-1.0727605 0.236599,-0.4597546 0.669467,-0.6963534 0.435557,-0.2392875 0.95715,-0.2392875 0.591497,0 0.994791,0.3011258 0.403293,0.3011258 0.561922,0.8469163 l -0.513527,0.120988 Q 19.541727,3.8274479 19.280931,3.6311784 19.020134,3.434909 18.624907,3.434909 q -0.454378,0 -0.760881,0.2177784 -0.303814,0.2177785 -0.427491,0.5861198 -0.123676,0.3656528 -0.123676,0.7555031 0,0.5027725 0.145185,0.8791798 0.147875,0.3737186 0.457066,0.5592335 0.309192,0.185515 0.669467,0.185515 0.438246,0 0.74206,-0.2527305 0.303815,-0.2527306 0.41136,-0.7501259 z" />
        <path
           id="path2609"
           style="font-style:normal;font-variant:normal;font-weight:normal;font-stretch:normal;font-family:Arial;-inkscape-font-specification:Arial;stroke-width:0.0237198"
           d="m 20.662883,5.5696756 q 0,-0.7931437 0.440934,-1.1749282 0.368341,-0.3172575 0.898,-0.3172575 0.588809,0 0.962527,0.3871617 0.373719,0.3844731 0.373719,1.0646947 0,0.5511677 -0.166695,0.8684252 -0.164006,0.3145689 -0.481263,0.4893294 -0.314569,0.1747605 -0.688288,0.1747605 -0.599563,0 -0.970593,-0.3844731 -0.368341,-0.3844731 -0.368341,-1.1077127 z m 0.497395,0 q 0,0.5484791 0.239288,0.8227187 0.239287,0.2715509 0.602251,0.2715509 0.360276,0 0.599563,-0.2742395 0.239288,-0.2742396 0.239288,-0.8361618 0,-0.5296587 -0.241977,-0.8012097 -0.239287,-0.2742395 -0.596874,-0.2742395 -0.362964,0 -0.602251,0.2715509 -0.239288,0.271551 -0.239288,0.82003 z" />
        <path
           id="path2611"
           style="font-style:normal;font-variant:normal;font-weight:normal;font-stretch:normal;font-family:Arial;-inkscape-font-specification:Arial;stroke-width:0.0237198"
           d="M 23.902674,6.9973345 V 4.1420168 h 0.435557 v 0.4328683 q 0.166694,-0.3038144 0.306503,-0.4006048 0.142497,-0.09679 0.31188,-0.09679 0.244665,0 0.497395,0.1559401 l -0.166694,0.449 q -0.17745,-0.1048562 -0.354899,-0.1048562 -0.158628,0 -0.284994,0.09679 -0.126365,0.094102 -0.180137,0.263485 -0.08066,0.2581078 -0.08066,0.5646109 v 1.4948744 z" />
        <path
           id="path2613"
           style="font-style:normal;font-variant:normal;font-weight:normal;font-stretch:normal;font-family:Arial;-inkscape-font-specification:Arial;stroke-width:0.0237198"
           d="m 25.749757,3.6123581 v -0.556545 h 0.483953 v 0.556545 z m 0,3.3849764 V 4.1420168 h 0.483953 v 2.8553177 z" />
        <path
           id="path2615"
           style="font-style:normal;font-variant:normal;font-weight:normal;font-stretch:normal;font-family:Arial;-inkscape-font-specification:Arial;stroke-width:0.0237198"
           d="m 26.792943,5.5696756 q 0,-0.7931437 0.440935,-1.1749282 0.368341,-0.3172575 0.898,-0.3172575 0.588808,0 0.962527,0.3871617 0.373718,0.3844731 0.373718,1.0646947 0,0.5511677 -0.166694,0.8684252 -0.164006,0.3145689 -0.481264,0.4893294 -0.314569,0.1747605 -0.688287,0.1747605 -0.599563,0 -0.970593,-0.3844731 -0.368342,-0.3844731 -0.368342,-1.1077127 z m 0.497396,0 q 0,0.5484791 0.239287,0.8227187 0.239287,0.2715509 0.602252,0.2715509 0.360275,0 0.599563,-0.2742395 0.239287,-0.2742396 0.239287,-0.8361618 0,-0.5296587 -0.241976,-0.8012097 -0.239288,-0.2742395 -0.596874,-0.2742395 -0.362965,0 -0.602252,0.2715509 -0.239287,0.271551 -0.239287,0.82003 z" />
        <path
           id="path2617"
           style="font-style:normal;font-variant:normal;font-weight:normal;font-stretch:normal;font-family:Arial;-inkscape-font-specification:Arial;stroke-width:0.0237198"
           d="M 30.027357,6.9973345 V 3.0558131 h 0.483952 v 3.9415214 z" />
        <path
           id="path2619"
           style="font-style:normal;font-variant:normal;font-weight:normal;font-stretch:normal;font-family:Arial;-inkscape-font-specification:Arial;stroke-width:0.0237198"
           d="m 31.266812,3.6123581 v -0.556545 h 0.483952 v 0.556545 z m 0,3.3849764 V 4.1420168 h 0.483952 v 2.8553177 z" />
        <path
           id="path2621"
           style="font-style:normal;font-variant:normal;font-weight:normal;font-stretch:normal;font-family:Arial;-inkscape-font-specification:Arial;stroke-width:0.0237198"
           d="m 32.296555,6.145041 0.478575,-0.075282 q 0.04033,0.2876827 0.223155,0.4409342 0.185515,0.1532515 0.516216,0.1532515 0.333389,0 0.494707,-0.1344311 0.161317,-0.1371198 0.161317,-0.3199462 0,-0.164006 -0.142497,-0.2581078 -0.09948,-0.064527 -0.494707,-0.164006 Q 33.000974,5.653023 32.79395,5.5562325 32.589615,5.4567535 32.48207,5.2846816 32.377213,5.1099211 32.377213,4.9002085 q 0,-0.1908922 0.08604,-0.3522096 0.08873,-0.164006 0.239288,-0.2715509 0.112922,-0.083347 0.306503,-0.1398084 0.196269,-0.05915 0.419425,-0.05915 0.336078,0 0.588809,0.09679 0.255419,0.09679 0.376407,0.2634851 0.120988,0.164006 0.166694,0.4409341 l -0.473197,0.064527 Q 34.054914,4.7227594 33.898974,4.5990827 33.745723,4.4754061 33.463417,4.4754061 q -0.333389,0 -0.475886,0.1102335 -0.142497,0.1102336 -0.142497,0.2581078 0,0.094102 0.05915,0.1693833 0.05915,0.07797 0.185515,0.1290539 0.07259,0.026886 0.427491,0.1236766 0.513527,0.1371198 0.715173,0.2258444 0.204336,0.086036 0.319946,0.2527305 0.115611,0.1666947 0.115611,0.414048 0,0.2419761 -0.142497,0.4570659 -0.139808,0.2124012 -0.405982,0.3307006 -0.266173,0.1156108 -0.602251,0.1156108 -0.556545,0 -0.849605,-0.2312215 -0.290372,-0.2312216 -0.37103,-0.6855989 z" />
        <path
           id="path2623"
           style="font-style:normal;font-variant:normal;font-weight:normal;font-stretch:normal;font-family:Arial;-inkscape-font-specification:Arial;stroke-width:0.0237198"
           d="M 36.810753,6.9973345 V 3.0558131 h 1.478742 q 0.451689,0 0.72324,0.120988 0.27424,0.1182995 0.427491,0.3683414 0.15594,0.2473533 0.15594,0.5189043 0,0.2527305 -0.13712,0.4758862 -0.137119,0.2231557 -0.414048,0.3602755 0.357587,0.1048563 0.54848,0.3575869 0.19358,0.2527305 0.19358,0.5968743 0,0.2769282 -0.118299,0.5162156 -0.115611,0.2365988 -0.287683,0.3656527 -0.172072,0.129054 -0.432868,0.1962695 -0.258108,0.064527 -0.634515,0.064527 z m 0.521593,-2.2853296 h 0.852293 q 0.346832,0 0.497395,-0.045707 0.198958,-0.05915 0.298438,-0.1962695 0.102167,-0.1371197 0.102167,-0.3441437 0,-0.1962695 -0.0941,-0.3441438 -0.0941,-0.1505629 -0.268862,-0.2043353 -0.17476,-0.056461 -0.599563,-0.056461 h -0.787766 z m 0,1.8201978 h 0.981347 q 0.252731,0 0.354898,-0.01882 0.180138,-0.032263 0.301126,-0.1075449 0.120988,-0.075281 0.198958,-0.2177785 0.07797,-0.1451856 0.07797,-0.3333892 0,-0.2204671 -0.112922,-0.3817845 -0.112922,-0.164006 -0.314569,-0.2285329 -0.198958,-0.067216 -0.575365,-0.067216 h -0.911443 z" />
        <path
           id="path2625"
           style="font-style:normal;font-variant:normal;font-weight:normal;font-stretch:normal;font-family:Arial;-inkscape-font-specification:Arial;stroke-width:0.0237198"
           d="m 42.311675,6.6451249 q -0.268862,0.2285329 -0.518904,0.3226347 -0.247354,0.094102 -0.532348,0.094102 -0.470509,0 -0.723239,-0.2285329 -0.252731,-0.2312216 -0.252731,-0.5888085 0,-0.2097126 0.0941,-0.3817844 0.09679,-0.1747605 0.250042,-0.2796168 0.15594,-0.1048563 0.349521,-0.1586288 0.142497,-0.037641 0.43018,-0.072593 0.586119,-0.069904 0.863048,-0.1666946 0.0027,-0.099479 0.0027,-0.1263653 0,-0.2957486 -0.13712,-0.4167366 -0.185515,-0.164006 -0.551167,-0.164006 -0.341455,0 -0.505461,0.120988 -0.161318,0.1182994 -0.239288,0.4221139 L 40.3678,4.9566696 q 0.06453,-0.3038144 0.212402,-0.4893294 0.147874,-0.1882036 0.427491,-0.2876827 0.279616,-0.1021676 0.647958,-0.1021676 0.365653,0 0.594186,0.086036 0.228532,0.086036 0.336077,0.2177785 0.107545,0.1290539 0.150563,0.328012 0.0242,0.1236766 0.0242,0.4463114 v 0.6452695 q 0,0.6748444 0.02958,0.8549822 0.03226,0.1774491 0.123676,0.3414551 h -0.505461 q -0.07528,-0.1505629 -0.09679,-0.3522096 z m -0.04033,-1.0808265 q -0.263486,0.1075449 -0.790456,0.1828264 -0.298437,0.043018 -0.422113,0.09679 -0.123677,0.053772 -0.190893,0.1586288 -0.06721,0.1021676 -0.06721,0.2285329 0,0.1935809 0.145185,0.3226348 0.147875,0.1290539 0.43018,0.1290539 0.279617,0 0.497395,-0.1209881 0.217779,-0.1236766 0.319946,-0.3360778 0.07797,-0.164006 0.07797,-0.4839522 z" />
        <path
           id="path2627"
           style="font-style:normal;font-variant:normal;font-weight:normal;font-stretch:normal;font-family:Arial;-inkscape-font-specification:Arial;stroke-width:0.0237198"
           d="M 43.508113,6.9973345 V 4.1420168 h 0.435557 v 0.4328683 q 0.166694,-0.3038144 0.306503,-0.4006048 0.142497,-0.09679 0.31188,-0.09679 0.244665,0 0.497395,0.1559401 l -0.166694,0.449 q -0.177449,-0.1048562 -0.354898,-0.1048562 -0.158629,0 -0.284995,0.09679 -0.126365,0.094102 -0.180137,0.263485 -0.08066,0.2581078 -0.08066,0.5646109 v 1.4948744 z" />
        <path
           id="path2629"
           style="font-style:normal;font-variant:normal;font-weight:normal;font-stretch:normal;font-family:Arial;-inkscape-font-specification:Arial;stroke-width:0.0237198"
           d="m 47.307137,6.0778254 0.500084,0.061838 q -0.1183,0.4382456 -0.438246,0.6802217 -0.319946,0.241976 -0.817341,0.241976 -0.626449,0 -0.994791,-0.3844731 -0.365652,-0.3871617 -0.365652,-1.083515 0,-0.720551 0.37103,-1.1184672 0.37103,-0.3979162 0.962527,-0.3979162 0.572676,0 0.93564,0.3898503 0.362965,0.3898503 0.362965,1.0969582 0,0.043018 -0.0027,0.1290539 h -2.129389 q 0.02689,0.470509 0.266173,0.720551 0.239288,0.2500419 0.596875,0.2500419 0.266173,0 0.454377,-0.1398084 0.188203,-0.1398084 0.298437,-0.4463114 z M 45.718161,5.2954361 h 1.594353 Q 47.280251,4.9351606 47.129688,4.7550229 46.898466,4.4754061 46.530125,4.4754061 q -0.333389,0 -0.561922,0.2231557 -0.225845,0.2231557 -0.250042,0.5968743 z" />
        <path
           id="path2631"
           style="stroke-width:0.0237198"
           d="M 16.909565,13.880209 V 9.9386881 h 0.785078 l 0.932952,2.7907909 q 0.129054,0.38985 0.188204,0.583431 0.06722,-0.21509 0.209713,-0.631826 l 0.943706,-2.7423959 h 0.701731 v 3.9415209 h -0.502773 v -3.29894 l -1.145353,3.29894 h -0.470509 l -1.139976,-3.355401 v 3.355401 z" />
        <path
           id="path2633"
           style="stroke-width:0.0237198"
           d="m 23.410656,12.9607 0.500084,0.06184 q -0.1183,0.438245 -0.438246,0.680221 -0.319946,0.241976 -0.817341,0.241976 -0.626449,0 -0.994791,-0.384473 -0.365652,-0.387161 -0.365652,-1.083515 0,-0.720551 0.37103,-1.118467 0.37103,-0.397916 0.962527,-0.397916 0.572676,0 0.93564,0.38985 0.362965,0.389851 0.362965,1.096958 0,0.04302 -0.0027,0.129054 h -2.12939 q 0.02689,0.470509 0.266174,0.720551 0.239288,0.250042 0.596874,0.250042 0.266174,0 0.454378,-0.139808 0.188203,-0.139809 0.298437,-0.446312 z M 21.82168,12.178311 h 1.594353 q -0.03226,-0.360275 -0.182826,-0.540413 -0.231222,-0.279617 -0.599563,-0.279617 -0.333389,0 -0.561922,0.223156 -0.225845,0.223155 -0.250042,0.596874 z" />
        <path
           id="path2635"
           style="stroke-width:0.0237198"
           d="m 25.577686,13.447341 0.0699,0.427491 q -0.204336,0.04302 -0.365653,0.04302 -0.263485,0 -0.408671,-0.08335 -0.145185,-0.08335 -0.204335,-0.217779 -0.05915,-0.137119 -0.05915,-0.572676 v -1.642749 h -0.354898 v -0.376407 h 0.354898 v -0.707108 l 0.481264,-0.290371 v 0.997479 h 0.48664 v 0.376407 h -0.48664 v 1.669635 q 0,0.207024 0.0242,0.266174 0.02689,0.05915 0.08335,0.0941 0.05915,0.03495 0.166694,0.03495 0.08066,0 0.212401,-0.01882 z" />
        <path
           id="path2637"
           style="stroke-width:0.0237198"
           d="m 27.911411,13.528 q -0.268862,0.228533 -0.518904,0.322635 -0.247353,0.0941 -0.532348,0.0941 -0.470509,0 -0.723239,-0.228533 -0.252731,-0.231221 -0.252731,-0.588808 0,-0.209713 0.0941,-0.381784 0.09679,-0.174761 0.250042,-0.279617 0.15594,-0.104857 0.349521,-0.158629 0.142497,-0.03764 0.43018,-0.07259 0.58612,-0.0699 0.863048,-0.166694 0.0027,-0.09948 0.0027,-0.126366 0,-0.295748 -0.137119,-0.416736 -0.185515,-0.164006 -0.551168,-0.164006 -0.341455,0 -0.505461,0.120988 -0.161318,0.118299 -0.239288,0.422114 l -0.473197,-0.06453 q 0.06453,-0.303815 0.212401,-0.48933 0.147874,-0.188203 0.427491,-0.287682 0.279617,-0.102168 0.647958,-0.102168 0.365653,0 0.594186,0.08604 0.228533,0.08604 0.336078,0.217778 0.107545,0.129054 0.150563,0.328012 0.0242,0.123677 0.0242,0.446312 v 0.645269 q 0,0.674845 0.02958,0.854982 0.03226,0.177449 0.123677,0.341455 H 28.008202 Q 27.93292,13.729647 27.911411,13.528 Z m -0.04033,-1.080827 q -0.263485,0.107545 -0.790455,0.182827 -0.298438,0.04302 -0.422114,0.09679 -0.123677,0.05377 -0.190892,0.158629 -0.06722,0.102168 -0.06722,0.228533 0,0.193581 0.145186,0.322635 0.147874,0.129054 0.430179,0.129054 0.279617,0 0.497396,-0.120988 0.217778,-0.123677 0.319946,-0.336078 0.07797,-0.164006 0.07797,-0.483953 z" />
        <path
           id="path2639"
           style="stroke-width:0.0237198"
           d="M 29.102471,13.880209 V 9.9386881 h 0.483952 v 3.9415209 z" />
        <path
           id="path2641"
           style="stroke-width:0.0237198"
           d="M 31.944345,13.880209 V 9.9386881 h 0.521593 v 1.6185509 h 2.048731 V 9.9386881 h 0.521593 v 3.9415209 h -0.521593 v -1.857838 h -2.048731 v 1.857838 z" />
        <path
           id="path2643"
           style="stroke-width:0.0237198"
           d="m 37.716818,13.880209 v -0.419425 q -0.333389,0.483952 -0.906066,0.483952 -0.25273,0 -0.473197,-0.09679 -0.217779,-0.09679 -0.325324,-0.241976 -0.104856,-0.147874 -0.147874,-0.360276 -0.02958,-0.142497 -0.02958,-0.451688 v -1.769114 h 0.483952 v 1.583599 q 0,0.379096 0.02958,0.510838 0.04571,0.190892 0.193581,0.301126 0.147874,0.107545 0.365653,0.107545 0.217778,0 0.40867,-0.110234 0.190893,-0.112922 0.268863,-0.303814 0.08066,-0.193581 0.08066,-0.559234 v -1.529826 h 0.483953 v 2.855317 z" />
        <path
           id="path2645"
           style="stroke-width:0.0237198"
           d="m 39.356879,13.880209 h -0.449 V 9.9386881 h 0.483952 v 1.4061499 q 0.306503,-0.384473 0.78239,-0.384473 0.263485,0 0.497395,0.107545 0.236599,0.104856 0.387162,0.298437 0.153251,0.190892 0.239287,0.462443 0.08604,0.271551 0.08604,0.580743 0,0.733994 -0.362964,1.134599 -0.362964,0.400604 -0.871114,0.400604 -0.505461,0 -0.793144,-0.422113 z m -0.0054,-1.449167 q 0,0.513527 0.139808,0.74206 0.228533,0.373718 0.618384,0.373718 0.317257,0 0.548479,-0.274239 0.231221,-0.276929 0.231221,-0.822719 0,-0.559234 -0.223155,-0.825407 -0.220468,-0.266174 -0.535036,-0.266174 -0.317258,0 -0.54848,0.276928 -0.231221,0.27424 -0.231221,0.795833 z" />
      </g>
      <g
         id="g2017"
         transform="matrix(0.02954208,0,0,0.02954208,0.30493538,0.90387952)">
        <path
           id="path1977"
           style="fill:#7f8890;fill-opacity:1"
           d="m 48.975,117.956 h 414.05 V 429.215 H 48.975 Z"
           fill="#465a61" />
        <path
           id="path1979"
           style="fill:#616870;fill-opacity:1"
           d="M 482.834,512 H 29.166 c -6.915,0 -12.522,-5.606 -12.522,-12.522 V 375.225 c 0,-6.915 5.606,-12.522 12.522,-12.522 h 453.668 c 6.915,0 12.522,5.606 12.522,12.522 V 499.478 C 495.355,506.394 489.749,512 482.834,512 Z"
           fill="#7a8c98" />
        <path
           id="path1981"
           style="fill:#828a93;fill-opacity:1"
           d="M 282.391,459.506 H 71.129 c -12.235,0 -22.154,-9.919 -22.154,-22.154 0,-12.235 9.919,-22.154 22.154,-22.154 h 211.262 c 12.235,0 22.154,9.919 22.154,22.154 -0.001,12.235 -9.919,22.154 -22.154,22.154 z"
           fill="#9facba" />
        <path
           id="path1983"
           style="fill:#747d87;fill-opacity:1"
           d="m 376.886,474.917 c -9.544,0 -17.28,-7.737 -17.28,-17.28 v -40.569 c 0,-9.544 7.737,-17.28 17.28,-17.28 9.544,0 17.28,7.737 17.28,17.28 v 40.569 c 10e-4,9.543 -7.736,17.28 -17.28,17.28 z"
           fill="#ffd15b" />
        <path
           id="path1985"
           style="fill:#616870;fill-opacity:1"
           d="M 482.834,331.356 H 29.166 c -6.915,0 -12.522,-5.606 -12.522,-12.522 V 194.582 c 0,-6.915 5.606,-12.522 12.522,-12.522 h 453.668 c 6.915,0 12.522,5.606 12.522,12.522 v 124.253 c -10e-4,6.915 -5.607,12.521 -12.522,12.521 z"
           fill="#7a8c98" />
        <path
           id="path1987"
           style="fill:#828a93;fill-opacity:1"
           d="M 282.391,278.862 H 71.129 c -12.235,0 -22.154,-9.919 -22.154,-22.154 0,-12.235 9.919,-22.154 22.154,-22.154 h 211.262 c 12.235,0 22.154,9.919 22.154,22.154 -0.001,12.235 -9.919,22.154 -22.154,22.154 z"
           fill="#9facba" />
        <path
           id="path1989"
           style="fill:#747d87;fill-opacity:1"
           d="m 376.886,294.273 c -9.544,0 -17.28,-7.737 -17.28,-17.28 v -40.569 c 0,-9.544 7.737,-17.28 17.28,-17.28 9.544,0 17.28,7.737 17.28,17.28 v 40.569 c 10e-4,9.543 -7.736,17.28 -17.28,17.28 z"
           fill="#60b7ff" />
        <path
           id="path1991"
           style="fill:#616870;fill-opacity:1"
           d="M 482.834,149.296 H 29.166 c -6.915,0 -12.522,-5.606 -12.522,-12.522 V 12.522 C 16.645,5.606 22.251,0 29.166,0 h 453.668 c 6.915,0 12.522,5.606 12.522,12.522 v 124.253 c -10e-4,6.915 -5.607,12.521 -12.522,12.521 z"
           fill="#7a8c98" />
        <path
           id="path1993"
           style="fill:#828a93;fill-opacity:1"
           d="M 282.391,96.802 H 71.129 c -12.235,0 -22.154,-9.919 -22.154,-22.154 0,-12.235 9.919,-22.154 22.154,-22.154 h 211.262 c 12.235,0 22.154,9.919 22.154,22.154 -0.001,12.235 -9.919,22.154 -22.154,22.154 z"
           fill="#9facba" />
        <path
           id="path1995"
           style="fill:#747d87;fill-opacity:1"
           d="m 376.886,112.213 c -9.544,0 -17.28,-7.737 -17.28,-17.28 V 54.364 c 0,-9.544 7.737,-17.28 17.28,-17.28 9.544,0 17.28,7.737 17.28,17.28 v 40.569 c 10e-4,9.543 -7.736,17.28 -17.28,17.28 z"
           fill="#60b7ff" />
        <g
           id="g2003"
           style="fill:#555b62;fill-opacity:1"
           fill="#596c76">
          <path
             id="path1997"
             style="fill:#555b62;fill-opacity:1"
             d="m 482.834,362.704 h -39.685 c 6.916,0 12.522,5.606 12.522,12.522 v 124.253 c 0,6.915 -5.606,12.522 -12.522,12.522 h 39.685 c 6.916,0 12.522,-5.606 12.522,-12.522 V 375.225 c -10e-4,-6.915 -5.607,-12.521 -12.522,-12.521 z" />
          <path
             id="path1999"
             style="fill:#555b62;fill-opacity:1"
             d="m 482.834,182.06 h -39.685 c 6.916,0 12.522,5.606 12.522,12.522 v 124.253 c 0,6.915 -5.606,12.522 -12.522,12.522 h 39.685 c 6.916,0 12.522,-5.606 12.522,-12.522 V 194.582 c -10e-4,-6.916 -5.607,-12.522 -12.522,-12.522 z" />
          <path
             id="path2001"
             style="fill:#555b62;fill-opacity:1"
             d="m 482.834,0 h -39.685 c 6.916,0 12.522,5.606 12.522,12.522 v 124.253 c 0,6.916 -5.606,12.522 -12.522,12.522 h 39.685 c 6.916,0 12.522,-5.606 12.522,-12.522 V 12.522 C 495.355,5.606 489.749,0 482.834,0 Z" />
        </g>
        <path
           id="path2005"
           style="fill:#828a93;fill-opacity:1"
           d="m 445.745,37.083 c -0.359,0 -0.709,0.032 -1.062,0.054 -9.046,0.552 -16.218,8.042 -16.218,17.227 v 40.569 c 0,9.185 7.172,16.675 16.218,17.227 0.353,0.022 0.704,0.054 1.062,0.054 9.544,0 17.28,-7.737 17.28,-17.28 v -40.57 c 0,-9.544 -7.737,-17.281 -17.28,-17.281 z"
           fill="#ffd15b" />
        <path
           id="path2007"
           style="fill:#6b737b;fill-opacity:1"
           d="m 455.67,40.232 v 68.832 c 4.443,-3.127 7.354,-8.285 7.354,-14.132 V 54.364 c 10e-4,-5.847 -2.91,-11.005 -7.354,-14.132 z"
           fill="#ffc344" />
        <path
           id="path2009"
           style="fill:#828a93;fill-opacity:1"
           d="m 445.745,219.143 c -0.359,0 -0.709,0.032 -1.062,0.054 -9.046,0.552 -16.218,8.042 -16.218,17.227 v 40.569 c 0,9.185 7.172,16.675 16.218,17.227 0.353,0.021 0.704,0.054 1.062,0.054 9.544,0 17.28,-7.737 17.28,-17.28 v -40.569 c 0,-9.545 -7.737,-17.282 -17.28,-17.282 z"
           fill="#fe646f" />
        <path
           id="path2011"
           style="fill:#6b737b;fill-opacity:1"
           d="m 455.67,222.292 v 68.832 c 4.443,-3.127 7.354,-8.285 7.354,-14.132 v -40.569 c 10e-4,-5.846 -2.91,-11.004 -7.354,-14.131 z"
           fill="#fd4755" />
        <path
           id="path2013"
           style="fill:#828a93;fill-opacity:1"
           d="m 445.745,399.787 c -0.359,0 -0.709,0.032 -1.062,0.054 -9.046,0.552 -16.218,8.042 -16.218,17.227 v 40.569 c 0,9.185 7.172,16.675 16.218,17.227 0.353,0.021 0.704,0.054 1.062,0.054 9.544,0 17.28,-7.737 17.28,-17.28 v -40.569 c 0,-9.545 -7.737,-17.282 -17.28,-17.282 z"
           fill="#60b7ff" />
        <path
           id="path2015"
           style="fill:#6b737b;fill-opacity:1"
           d="m 455.67,402.936 v 68.832 c 4.443,-3.127 7.354,-8.285 7.354,-14.132 v -40.569 c 10e-4,-5.846 -2.91,-11.004 -7.354,-14.131 z"
           fill="#26a6fe" />
      </g>
    </g>
    <text
       id="text2023"
       y="29.666916"
       x="29.132378"
       style="font-size:10.5833px;line-height:1.25;font-family:Rubik;-inkscape-font-specification:'Rubik, Normal';stroke-width:0.264583"
       xml:space="preserve"><tspan
         id="tspan2021"
         style="stroke-width:0.264583"
         y="29.666916"
         x="29.132378" /></text>
  </g>
</svg>
