<?xml version="1.0" encoding="UTF-8" standalone="no"?>
<svg    xmlns:dc="http://purl.org/dc/elements/1.1/"
   xmlns:cc="http://creativecommons.org/ns#"
   xmlns:rdf="http://www.w3.org/1999/02/22-rdf-syntax-ns#"
   xmlns:svg="http://www.w3.org/2000/svg"
   xmlns="http://www.w3.org/2000/svg"
   id="svg2702"
   version="1.1"
   viewBox="0 0 48.947916 16.933334"
   height="64"
   width="185">
  <g
     transform="matrix(1.0466902,0,0,1.0466902,-2.2389037,-0.63842709)"
     id="g2658">
    <g
       style="font-style:normal;font-variant:normal;font-weight:normal;font-stretch:normal;font-size:5.2676px;line-height:1.25;font-family:Rubik;-inkscape-font-specification:'Rubik, @wght=400';font-variant-ligatures:normal;font-variant-caps:normal;font-variant-numeric:normal;font-variant-east-asian:normal;font-variation-settings:'wght' 400;letter-spacing:0px;stroke-width:0.13169"
       id="text2652"
       aria-label="Coriolis BareMetal Hub">
      <path
         id="path3271"
         d="m 19.190423,7.0891893 q -0.484619,0 -0.805942,-0.1790984 -0.316056,-0.1790984 -0.479352,-0.500422 -0.163296,-0.3213236 -0.179098,-0.7479992 -0.0053,-0.2159716 -0.0053,-0.4635488 0,-0.2475772 0.0053,-0.474084 0.0158,-0.4266756 0.179098,-0.7479992 0.163296,-0.3213236 0.479352,-0.500422 0.321323,-0.1790984 0.805942,-0.1790984 0.363465,0 0.63738,0.1000844 0.273915,0.1000844 0.453014,0.2686476 0.184366,0.1685632 0.279182,0.3792672 0.09482,0.2054364 0.105352,0.4266756 0.0053,0.047408 -0.03161,0.079014 -0.03161,0.031606 -0.07901,0.031606 h -0.289718 q -0.04741,0 -0.08428,-0.026338 -0.0316,-0.026338 -0.04741,-0.094817 -0.08955,-0.4108728 -0.337127,-0.5636332 -0.242309,-0.1527604 -0.611041,-0.1527604 -0.421408,0 -0.668985,0.2423096 -0.247578,0.237042 -0.268648,0.763802 -0.0158,0.4319432 0,0.8849568 0.02107,0.52676 0.268648,0.7690696 0.247577,0.237042 0.668985,0.237042 0.368732,0 0.611041,-0.1527604 0.247578,-0.1527604 0.337127,-0.5636332 0.0158,-0.068479 0.04741,-0.094817 0.03687,-0.026338 0.08428,-0.026338 h 0.289718 q 0.04741,0 0.07901,0.031606 0.03687,0.031606 0.03161,0.079014 -0.01054,0.2212392 -0.105352,0.4319432 -0.09482,0.2054364 -0.279182,0.3739996 -0.179099,0.1685632 -0.453014,0.2686476 -0.273915,0.1000844 -0.63738,0.1000844 z" />
      <path
         id="path3273"
         d="m 22.424812,7.0891893 q -0.400338,0 -0.668985,-0.1527604 -0.268648,-0.1527604 -0.410873,-0.421408 -0.142225,-0.2739152 -0.158028,-0.6215768 -0.0053,-0.089549 -0.0053,-0.2265068 0,-0.1422252 0.0053,-0.2265068 0.0158,-0.3529292 0.158028,-0.6215768 0.147493,-0.2686476 0.41614,-0.421408 0.268648,-0.1527604 0.663718,-0.1527604 0.39507,0 0.663718,0.1527604 0.268647,0.1527604 0.410872,0.421408 0.147493,0.2686476 0.163296,0.6215768 0.0053,0.084282 0.0053,0.2265068 0,0.1369576 -0.0053,0.2265068 -0.0158,0.3476616 -0.158028,0.6215768 -0.142225,0.2686476 -0.410873,0.421408 -0.268647,0.1527604 -0.668985,0.1527604 z m 0,-0.4056052 q 0.326591,0 0.521492,-0.2054364 0.194902,-0.210704 0.210704,-0.6110416 0.0053,-0.079014 0.0053,-0.2001688 0,-0.1211548 -0.0053,-0.2001688 -0.0158,-0.4003376 -0.210704,-0.605774 -0.194901,-0.210704 -0.521492,-0.210704 -0.326591,0 -0.52676,0.210704 -0.194901,0.2054364 -0.205436,0.605774 -0.0053,0.079014 -0.0053,0.2001688 0,0.1211548 0.0053,0.2001688 0.01053,0.4003376 0.205436,0.6110416 0.200169,0.2054364 0.52676,0.2054364 z" />
      <path
         id="path3275"
         d="m 24.448723,7.0365133 q -0.05268,0 -0.08955,-0.031606 -0.03161,-0.036873 -0.03161,-0.089549 V 4.4237837 q 0,-0.052676 0.03161,-0.089549 0.03687,-0.036873 0.08955,-0.036873 h 0.242309 q 0.05268,0 0.08955,0.036873 0.03687,0.036873 0.03687,0.089549 v 0.2317744 q 0.105352,-0.1790984 0.289718,-0.2686476 0.184366,-0.089549 0.442478,-0.089549 h 0.210704 q 0.05268,0 0.08428,0.036873 0.03161,0.031606 0.03161,0.084282 v 0.2159716 q 0,0.052676 -0.03161,0.084282 -0.03161,0.031606 -0.08428,0.031606 h -0.316056 q -0.28445,0 -0.447746,0.1685632 -0.163295,0.1632956 -0.163295,0.447746 v 1.5486744 q 0,0.052676 -0.03687,0.089549 -0.03687,0.031606 -0.08955,0.031606 z" />
      <path
         id="path3277"
         d="m 26.454937,7.0365133 q -0.05268,0 -0.08955,-0.031606 -0.0316,-0.036873 -0.0316,-0.089549 V 4.4185161 q 0,-0.052676 0.0316,-0.084282 0.03687,-0.036873 0.08955,-0.036873 h 0.252845 q 0.05268,0 0.08428,0.036873 0.0316,0.031606 0.0316,0.084282 v 2.4968424 q 0,0.052676 -0.0316,0.089549 -0.03161,0.031606 -0.08428,0.031606 z m -0.04214,-3.2501092 q -0.05268,0 -0.08955,-0.031606 -0.0316,-0.036873 -0.0316,-0.089549 V 3.3807989 q 0,-0.052676 0.0316,-0.084282 0.03687,-0.036873 0.08955,-0.036873 h 0.331858 q 0.05268,0 0.08428,0.036873 0.03687,0.031606 0.03687,0.084282 v 0.2844504 q 0,0.052676 -0.03687,0.089549 -0.03161,0.031606 -0.08428,0.031606 z" />
      <path
         id="path3279"
         d="m 28.741817,7.0891893 q -0.400338,0 -0.668985,-0.1527604 -0.268648,-0.1527604 -0.410873,-0.421408 -0.142225,-0.2739152 -0.158028,-0.6215768 -0.0053,-0.089549 -0.0053,-0.2265068 0,-0.1422252 0.0053,-0.2265068 0.0158,-0.3529292 0.158028,-0.6215768 0.147493,-0.2686476 0.41614,-0.421408 0.268648,-0.1527604 0.663718,-0.1527604 0.39507,0 0.663718,0.1527604 0.268647,0.1527604 0.410872,0.421408 0.147493,0.2686476 0.163296,0.6215768 0.0053,0.084282 0.0053,0.2265068 0,0.1369576 -0.0053,0.2265068 -0.0158,0.3476616 -0.158028,0.6215768 -0.142225,0.2686476 -0.410873,0.421408 -0.268647,0.1527604 -0.668985,0.1527604 z m 0,-0.4056052 q 0.326591,0 0.521492,-0.2054364 0.194902,-0.210704 0.210704,-0.6110416 0.0053,-0.079014 0.0053,-0.2001688 0,-0.1211548 -0.0053,-0.2001688 -0.0158,-0.4003376 -0.210704,-0.605774 -0.194901,-0.210704 -0.521492,-0.210704 -0.326591,0 -0.52676,0.210704 -0.194901,0.2054364 -0.205436,0.605774 -0.0053,0.079014 -0.0053,0.2001688 0,0.1211548 0.0053,0.2001688 0.01054,0.4003376 0.205436,0.6110416 0.200169,0.2054364 0.52676,0.2054364 z" />
      <path
         id="path3281"
         d="m 30.770995,7.0365133 q -0.05268,0 -0.08955,-0.031606 -0.03161,-0.036873 -0.03161,-0.089549 V 3.4176721 q 0,-0.052676 0.03161,-0.084282 0.03687,-0.036873 0.08955,-0.036873 h 0.247577 q 0.05794,0 0.08955,0.036873 0.03161,0.031606 0.03161,0.084282 v 3.4976864 q 0,0.052676 -0.03161,0.089549 -0.0316,0.031606 -0.08955,0.031606 z" />
      <path
         id="path3283"
         d="m 32.092916,7.0365133 q -0.05268,0 -0.08955,-0.031606 -0.03161,-0.036873 -0.03161,-0.089549 V 4.4185161 q 0,-0.052676 0.03161,-0.084282 0.03687,-0.036873 0.08955,-0.036873 h 0.252845 q 0.05268,0 0.08428,0.036873 0.03161,0.031606 0.03161,0.084282 v 2.4968424 q 0,0.052676 -0.03161,0.089549 -0.0316,0.031606 -0.08428,0.031606 z m -0.04214,-3.2501092 q -0.05268,0 -0.08955,-0.031606 -0.03161,-0.036873 -0.03161,-0.089549 V 3.3807989 q 0,-0.052676 0.03161,-0.084282 0.03687,-0.036873 0.08955,-0.036873 h 0.331859 q 0.05268,0 0.08428,0.036873 0.03687,0.031606 0.03687,0.084282 v 0.2844504 q 0,0.052676 -0.03687,0.089549 -0.03161,0.031606 -0.08428,0.031606 z" />
      <path
         id="path3285"
         d="m 34.226541,7.0891893 q -0.294985,0 -0.505689,-0.073746 -0.210704,-0.073746 -0.342394,-0.1790984 -0.13169,-0.105352 -0.200169,-0.210704 -0.06321,-0.105352 -0.06848,-0.1685632 -0.0053,-0.057944 0.03687,-0.089549 0.04214,-0.031606 0.08428,-0.031606 h 0.231774 q 0.03161,0 0.04741,0.010535 0.02107,0.00527 0.05268,0.042141 0.06848,0.073746 0.15276,0.1474928 0.08428,0.073746 0.205436,0.1211548 0.126423,0.047408 0.310789,0.047408 0.268647,0 0.442478,-0.1000844 0.173831,-0.105352 0.173831,-0.3055208 0,-0.13169 -0.07375,-0.210704 -0.06848,-0.079014 -0.252845,-0.1422252 -0.179099,-0.063211 -0.495155,-0.13169 -0.316056,-0.073746 -0.500422,-0.1790984 -0.184366,-0.1106196 -0.26338,-0.2581124 -0.07901,-0.1527604 -0.07901,-0.342394 0,-0.1949012 0.115888,-0.3739996 0.115887,-0.184366 0.337126,-0.3002532 0.226507,-0.1158872 0.563633,-0.1158872 0.273915,0 0.468817,0.068479 0.194901,0.068479 0.321323,0.1738308 0.126423,0.1000844 0.189634,0.2001688 0.06321,0.1000844 0.06848,0.1685632 0.0053,0.052676 -0.03161,0.089549 -0.03687,0.031606 -0.08428,0.031606 h -0.221239 q -0.03687,0 -0.06321,-0.015803 -0.02107,-0.015803 -0.04214,-0.036873 -0.05268,-0.068479 -0.126422,-0.1369576 -0.06848,-0.068479 -0.184366,-0.1106196 -0.11062,-0.047408 -0.294986,-0.047408 -0.26338,0 -0.39507,0.1106196 -0.13169,0.1106196 -0.13169,0.2791828 0,0.1000844 0.05794,0.1790984 0.05794,0.079014 0.221239,0.1422252 0.163296,0.063211 0.484619,0.1369576 0.347662,0.068479 0.547831,0.184366 0.200168,0.1158872 0.28445,0.2686476 0.08428,0.1527604 0.08428,0.3529292 0,0.2212392 -0.13169,0.4056052 -0.126423,0.184366 -0.379268,0.2949856 -0.247577,0.105352 -0.616309,0.105352 z" />
      <path
         id="path3287"
         d="m 37.439282,7.0365133 q -0.05794,0 -0.08955,-0.031606 -0.03161,-0.036873 -0.03161,-0.089549 V 3.4756157 q 0,-0.057944 0.03161,-0.089549 0.03161,-0.036873 0.08955,-0.036873 h 1.443323 q 0.39507,0 0.642647,0.13169 0.252845,0.1264224 0.368732,0.3476616 0.121155,0.2212392 0.121155,0.4951544 0,0.2159716 -0.07375,0.3739996 -0.06848,0.1527604 -0.173831,0.2528448 -0.105352,0.094817 -0.205436,0.1474928 0.205436,0.1000844 0.363464,0.3265912 0.163296,0.2265068 0.163296,0.5478304 0,0.289718 -0.13169,0.5320276 -0.13169,0.2423096 -0.39507,0.3898024 -0.258112,0.1422252 -0.642647,0.1422252 z m 0.39507,-0.4266756 h 1.016647 q 0.342394,0 0.52676,-0.184366 0.184366,-0.184366 0.184366,-0.4530136 0,-0.2791828 -0.184366,-0.4582812 -0.184366,-0.184366 -0.52676,-0.184366 h -1.016647 z m 0,-1.7014348 h 0.969239 q 0.337126,0 0.510957,-0.1527604 0.173831,-0.158028 0.173831,-0.4266756 0,-0.2686476 -0.173831,-0.4108728 -0.173831,-0.1422252 -0.510957,-0.1422252 h -0.969239 z" />
      <path
         id="path3289"
         d="m 41.532043,7.0891893 q -0.26338,0 -0.479351,-0.105352 Q 40.83672,6.8784853 40.70503,6.6993869 40.57334,6.5202885 40.57334,6.2937817 q 0,-0.3634644 0.294986,-0.579436 0.294985,-0.2159716 0.769069,-0.2844504 L 42.422268,5.3192757 V 5.1665153 q 0,-0.2528448 -0.147493,-0.39507 -0.142225,-0.1422252 -0.468816,-0.1422252 -0.237042,0 -0.384535,0.094817 -0.142225,0.094817 -0.200169,0.2423096 -0.03161,0.079014 -0.11062,0.079014 h -0.237042 q -0.05794,0 -0.08955,-0.031606 -0.02634,-0.036873 -0.02634,-0.084282 0,-0.079014 0.05794,-0.1949012 0.06321,-0.1158872 0.189633,-0.2265068 0.126423,-0.1106196 0.321324,-0.184366 0.200169,-0.079014 0.484619,-0.079014 0.316056,0 0.532028,0.084282 0.215971,0.079014 0.337126,0.2159716 0.126423,0.1369576 0.179099,0.3107884 0.05794,0.1738308 0.05794,0.3529292 v 1.7067024 q 0,0.052676 -0.03687,0.089549 -0.03161,0.031606 -0.08428,0.031606 h -0.242309 q -0.05794,0 -0.08955,-0.031606 -0.03161,-0.036873 -0.03161,-0.089549 V 6.6888517 q -0.06848,0.094817 -0.184366,0.1896336 -0.115887,0.089549 -0.289718,0.1527604 -0.173831,0.057944 -0.426676,0.057944 z m 0.11062,-0.39507 q 0.215972,0 0.39507,-0.089549 0.179098,-0.094817 0.279183,-0.289718 0.105352,-0.1949012 0.105352,-0.4898868 V 5.6774725 l -0.611042,0.089549 q -0.373999,0.052676 -0.563633,0.1790984 -0.189634,0.1211548 -0.189634,0.3107884 0,0.1474928 0.08428,0.2475772 0.08955,0.094817 0.221239,0.1422252 0.136958,0.047408 0.279183,0.047408 z" />
      <path
         id="path3291"
         d="m 43.800979,7.0365133 q -0.05268,0 -0.08955,-0.031606 -0.03161,-0.036873 -0.03161,-0.089549 V 4.4237837 q 0,-0.052676 0.03161,-0.089549 0.03687,-0.036873 0.08955,-0.036873 h 0.24231 q 0.05268,0 0.08955,0.036873 0.03687,0.036873 0.03687,0.089549 v 0.2317744 q 0.105352,-0.1790984 0.289718,-0.2686476 0.184366,-0.089549 0.442479,-0.089549 h 0.210704 q 0.05268,0 0.08428,0.036873 0.03161,0.031606 0.03161,0.084282 v 0.2159716 q 0,0.052676 -0.03161,0.084282 -0.03161,0.031606 -0.08428,0.031606 h -0.316056 q -0.284451,0 -0.447746,0.1685632 -0.163296,0.1632956 -0.163296,0.447746 v 1.5486744 q 0,0.052676 -0.03687,0.089549 -0.03687,0.031606 -0.08955,0.031606 z" />
      <path
         id="path3293"
         d="m 46.724992,7.0891893 q -0.542562,0 -0.863886,-0.3318588 -0.321324,-0.3371264 -0.352929,-0.9165624 -0.0053,-0.068479 -0.0053,-0.1738308 0,-0.1106196 0.0053,-0.1790984 0.02107,-0.3739996 0.173831,-0.6531824 0.15276,-0.2844504 0.41614,-0.4372108 0.268648,-0.1527604 0.626844,-0.1527604 0.400338,0 0.668986,0.1685632 0.273915,0.1685632 0.41614,0.4793516 0.142225,0.3107884 0.142225,0.7269288 v 0.089549 q 0,0.057944 -0.03687,0.089549 -0.03161,0.031606 -0.08428,0.031606 h -1.822589 q 0,0.00527 0,0.02107 0,0.015803 0,0.026338 0.01054,0.2159716 0.09482,0.4056052 0.08428,0.184366 0.242309,0.3002532 0.158028,0.1158872 0.379267,0.1158872 0.189634,0 0.316056,-0.057944 0.126423,-0.057944 0.205437,-0.1264224 0.07901,-0.073746 0.105352,-0.1106196 0.04741,-0.068479 0.07375,-0.079014 0.02634,-0.015803 0.08428,-0.015803 h 0.252845 q 0.05268,0 0.08428,0.031606 0.03687,0.026338 0.03161,0.079014 -0.0053,0.079014 -0.08428,0.1949012 -0.07901,0.1106196 -0.226507,0.2212392 -0.147492,0.1106196 -0.358196,0.184366 -0.210704,0.068479 -0.48462,0.068479 z M 46.008599,5.4667685 h 1.443322 v -0.015803 q 0,-0.237042 -0.08955,-0.421408 -0.08428,-0.184366 -0.247577,-0.289718 -0.163296,-0.1106196 -0.389803,-0.1106196 -0.226506,0 -0.389802,0.1106196 -0.158028,0.105352 -0.24231,0.289718 -0.08428,0.184366 -0.08428,0.421408 z" />
      <path
         id="path3295"
         d="m 17.984143,13.621014 q -0.05268,0 -0.08955,-0.03161 -0.03161,-0.03687 -0.03161,-0.08955 v -3.439743 q 0,-0.05794 0.03161,-0.089549 0.03687,-0.036873 0.08955,-0.036873 h 0.26338 q 0.06321,0 0.09482,0.031606 0.0316,0.031606 0.03687,0.052676 l 1.116731,2.128111 1.121999,-2.128111 q 0.01054,-0.02107 0.03687,-0.052676 0.03161,-0.031606 0.09482,-0.031606 h 0.258112 q 0.05794,0 0.08955,0.036873 0.03687,0.031605 0.03687,0.089549 v 3.439743 q 0,0.05268 -0.03687,0.08955 -0.03161,0.03161 -0.08955,0.03161 h -0.258112 q -0.05268,0 -0.08955,-0.03161 -0.03161,-0.03687 -0.03161,-0.08955 V 10.9082 l -0.879689,1.717237 q -0.02107,0.05268 -0.06321,0.08428 -0.04214,0.02634 -0.105352,0.02634 H 19.41693 q -0.06848,0 -0.110619,-0.02634 -0.03687,-0.03161 -0.06321,-0.08428 L 18.36341,10.9082 v 2.591659 q 0,0.05268 -0.03687,0.08955 -0.03161,0.03161 -0.08428,0.03161 z" />
      <path
         id="path3297"
         d="m 23.072233,13.67369 q -0.542563,0 -0.863886,-0.331859 -0.321324,-0.337127 -0.352929,-0.916563 -0.0053,-0.06848 -0.0053,-0.17383 0,-0.11062 0.0053,-0.179099 0.02107,-0.373999 0.17383,-0.653182 0.152761,-0.284451 0.416141,-0.437211 0.268647,-0.15276 0.626844,-0.15276 0.400338,0 0.668986,0.168563 0.273915,0.168563 0.41614,0.479351 0.142225,0.310789 0.142225,0.726929 v 0.08955 q 0,0.05794 -0.03687,0.08955 -0.03161,0.03161 -0.08428,0.03161 H 22.35584 q 0,0.0053 0,0.02107 0,0.0158 0,0.02634 0.01054,0.215971 0.09482,0.405605 0.08428,0.184366 0.24231,0.300253 0.158028,0.115887 0.379267,0.115887 0.189634,0 0.316056,-0.05794 0.126423,-0.05794 0.205437,-0.126423 0.07901,-0.07375 0.105352,-0.110619 0.04741,-0.06848 0.07375,-0.07901 0.02634,-0.0158 0.08428,-0.0158 h 0.252845 q 0.05268,0 0.08428,0.0316 0.03687,0.02634 0.03161,0.07901 -0.0053,0.07901 -0.08428,0.194902 -0.07901,0.110619 -0.226507,0.221239 -0.147492,0.110619 -0.358197,0.184366 -0.210704,0.06848 -0.484619,0.06848 z M 22.35584,12.051269 h 1.443322 v -0.0158 q 0,-0.237042 -0.08955,-0.421408 -0.08428,-0.184366 -0.247577,-0.289718 -0.163296,-0.11062 -0.389803,-0.11062 -0.226507,0 -0.389802,0.11062 -0.158028,0.105352 -0.24231,0.289718 -0.08428,0.184366 -0.08428,0.421408 z" />
      <path
         id="path3299"
         d="m 25.983323,13.621014 q -0.294986,0 -0.479352,-0.11062 -0.184366,-0.115887 -0.268647,-0.321324 -0.08428,-0.210704 -0.08428,-0.495154 V 11.30327 h -0.410873 q -0.05268,0 -0.08955,-0.03161 -0.03161,-0.03687 -0.03161,-0.08955 v -0.179099 q 0,-0.05268 0.03161,-0.08428 0.03687,-0.03687 0.08955,-0.03687 h 0.410873 v -0.87969 q 0,-0.052676 0.03161,-0.084281 0.03687,-0.036873 0.08955,-0.036873 h 0.247577 q 0.05268,0 0.08428,0.036873 0.03687,0.031606 0.03687,0.084281 v 0.87969 h 0.653182 q 0.05268,0 0.08428,0.03687 0.03687,0.03161 0.03687,0.08428 v 0.179099 q 0,0.05268 -0.03687,0.08955 -0.03161,0.03161 -0.08428,0.03161 h -0.653182 v 1.353773 q 0,0.247577 0.08428,0.389802 0.08428,0.142225 0.300254,0.142225 h 0.321323 q 0.05268,0 0.08428,0.03687 0.03687,0.0316 0.03687,0.08428 v 0.189634 q 0,0.05268 -0.03687,0.08955 -0.03161,0.03161 -0.08428,0.03161 z" />
      <path
         id="path3301"
         d="m 27.735458,13.67369 q -0.26338,0 -0.479351,-0.105352 -0.215972,-0.105352 -0.347662,-0.284451 -0.13169,-0.179098 -0.13169,-0.405605 0,-0.363464 0.294986,-0.579436 0.294985,-0.215972 0.769069,-0.28445 l 0.784873,-0.11062 v -0.15276 q 0,-0.252845 -0.147493,-0.39507 -0.142225,-0.142226 -0.468817,-0.142226 -0.237042,0 -0.384534,0.09482 -0.142226,0.09482 -0.200169,0.24231 -0.03161,0.07901 -0.11062,0.07901 h -0.237042 q -0.05794,0 -0.08955,-0.03161 -0.02634,-0.03687 -0.02634,-0.08428 0,-0.07901 0.05794,-0.194902 0.06321,-0.115887 0.189633,-0.226506 0.126423,-0.11062 0.321324,-0.184366 0.200169,-0.07901 0.484619,-0.07901 0.316056,0 0.532028,0.08428 0.215971,0.07901 0.337126,0.215972 0.126422,0.136957 0.179098,0.310788 0.05794,0.173831 0.05794,0.352929 v 1.706703 q 0,0.05268 -0.03687,0.08955 -0.03161,0.03161 -0.08428,0.03161 h -0.242309 q -0.05794,0 -0.08955,-0.03161 -0.0316,-0.03687 -0.0316,-0.08955 v -0.226507 q -0.06848,0.09482 -0.184366,0.189634 -0.115887,0.08955 -0.289718,0.15276 -0.173831,0.05794 -0.426676,0.05794 z m 0.11062,-0.39507 q 0.215971,0 0.39507,-0.08955 0.179098,-0.09482 0.279183,-0.289718 0.105352,-0.194901 0.105352,-0.489886 v -0.147493 l -0.611042,0.08955 q -0.374,0.05268 -0.563633,0.179098 -0.189634,0.121155 -0.189634,0.310789 0,0.147493 0.08428,0.247577 0.08955,0.09482 0.221239,0.142225 0.136958,0.04741 0.279183,0.04741 z" />
      <path
         id="path3303"
         d="m 30.009663,13.621014 q -0.05268,0 -0.08955,-0.03161 -0.0316,-0.03687 -0.0316,-0.08955 v -3.497687 q 0,-0.052676 0.0316,-0.084281 0.03687,-0.036873 0.08955,-0.036873 h 0.247577 q 0.05794,0 0.08955,0.036873 0.03161,0.031606 0.03161,0.084281 v 3.497687 q 0,0.05268 -0.03161,0.08955 -0.03161,0.03161 -0.08955,0.03161 z" />
      <path
         id="path3305"
         d="m 32.634656,13.621014 q -0.05794,0 -0.08955,-0.03161 -0.0316,-0.03687 -0.0316,-0.08955 v -3.439743 q 0,-0.05794 0.0316,-0.089549 0.03161,-0.036873 0.08955,-0.036873 h 0.268647 q 0.05794,0 0.08955,0.036873 0.03687,0.031605 0.03687,0.089549 v 1.453858 h 1.812054 v -1.453858 q 0,-0.05794 0.03161,-0.089549 0.03687,-0.036873 0.08955,-0.036873 h 0.268647 q 0.05794,0 0.08955,0.036873 0.03687,0.031605 0.03687,0.089549 v 3.439743 q 0,0.05268 -0.03687,0.08955 -0.03161,0.03161 -0.08955,0.03161 h -0.268647 q -0.05268,0 -0.08955,-0.03161 -0.03161,-0.03687 -0.03161,-0.08955 v -1.511801 h -1.812054 v 1.511801 q 0,0.05268 -0.03687,0.08955 -0.0316,0.03161 -0.08955,0.03161 z" />
      <path
         id="path3307"
         d="m 37.222159,13.67369 q -0.337127,0 -0.574169,-0.147493 -0.231774,-0.152761 -0.352929,-0.421408 -0.121155,-0.268648 -0.121155,-0.616309 v -1.485464 q 0,-0.05268 0.03161,-0.08428 0.03687,-0.03687 0.08955,-0.03687 h 0.26338 q 0.05268,0 0.08428,0.03687 0.03687,0.03161 0.03687,0.08428 v 1.459126 q 0,0.784872 0.684788,0.784872 0.326591,0 0.521492,-0.205436 0.200169,-0.210704 0.200169,-0.579436 v -1.459126 q 0,-0.05268 0.03161,-0.08428 0.03687,-0.03687 0.08955,-0.03687 h 0.258112 q 0.05794,0 0.08955,0.03687 0.0316,0.03161 0.0316,0.08428 v 2.496843 q 0,0.05268 -0.0316,0.08955 -0.03161,0.03161 -0.08955,0.03161 h -0.242309 q -0.05268,0 -0.08955,-0.03161 -0.03161,-0.03687 -0.03161,-0.08955 v -0.231775 q -0.142225,0.184366 -0.347662,0.294986 -0.200168,0.11062 -0.532027,0.11062 z" />
      <path
         id="path3309"
         d="m 40.722808,13.67369 q -0.316056,0 -0.52676,-0.11062 -0.210704,-0.115887 -0.337126,-0.28445 v 0.221239 q 0,0.05268 -0.03687,0.08955 -0.03161,0.03161 -0.08428,0.03161 h -0.242309 q -0.05268,0 -0.08955,-0.03161 -0.0316,-0.03687 -0.0316,-0.08955 v -3.497687 q 0,-0.052676 0.0316,-0.084281 0.03687,-0.036873 0.08955,-0.036873 h 0.252844 q 0.05794,0 0.08955,0.036873 0.0316,0.031606 0.0316,0.084281 v 1.211548 q 0.13169,-0.163295 0.337127,-0.273915 0.210704,-0.110619 0.516224,-0.110619 0.294986,0 0.500422,0.105352 0.210704,0.100084 0.342394,0.279182 0.136958,0.179099 0.205437,0.405606 0.06848,0.226506 0.07375,0.474084 0.0053,0.08428 0.0053,0.158028 0,0.07375 -0.0053,0.158028 -0.0053,0.252844 -0.07375,0.479351 -0.06848,0.226507 -0.205437,0.405605 -0.13169,0.173831 -0.342394,0.279183 -0.205436,0.100085 -0.500422,0.100085 z m -0.110619,-0.426676 q 0.273915,0 0.426675,-0.115887 0.158028,-0.121155 0.226507,-0.310789 0.06848,-0.194901 0.07901,-0.41614 0.0053,-0.15276 0,-0.305521 -0.01054,-0.221239 -0.07901,-0.410873 -0.06848,-0.194901 -0.226507,-0.310788 -0.15276,-0.121155 -0.426675,-0.121155 -0.247577,0 -0.410873,0.115887 -0.163296,0.115888 -0.247577,0.294986 -0.07901,0.179098 -0.08428,0.363464 -0.0053,0.08428 -0.0053,0.205437 0,0.115887 0.0053,0.200169 0.01054,0.194901 0.08428,0.384534 0.07901,0.184366 0.237042,0.305521 0.163295,0.121155 0.421408,0.121155 z" />
    </g>
    <g
       style="font-size:10.5833px;line-height:1.25;font-family:Rubik;-inkscape-font-specification:'Rubik, Normal';stroke-width:0.264583"
       id="text2656" />
  </g>
  <g
     id="g2700"
     transform="matrix(0.02896941,0,0,0.02896941,0.43488052,1.0504833)">
    <path
       id="path2660"
       d="m 48.975,117.956 h 414.05 V 429.215 H 48.975 Z"
       fill="#465a61" />
    <path
       id="path2662"
       d="M 482.834,512 H 29.166 c -6.915,0 -12.522,-5.606 -12.522,-12.522 V 375.225 c 0,-6.915 5.606,-12.522 12.522,-12.522 h 453.668 c 6.915,0 12.522,5.606 12.522,12.522 V 499.478 C 495.355,506.394 489.749,512 482.834,512 Z"
       fill="#7a8c98" />
    <path
       id="path2664"
       d="M 282.391,459.506 H 71.129 c -12.235,0 -22.154,-9.919 -22.154,-22.154 0,-12.235 9.919,-22.154 22.154,-22.154 h 211.262 c 12.235,0 22.154,9.919 22.154,22.154 -0.001,12.235 -9.919,22.154 -22.154,22.154 z"
       fill="#9facba" />
    <path
       id="path2666"
       d="m 376.886,474.917 c -9.544,0 -17.28,-7.737 -17.28,-17.28 v -40.569 c 0,-9.544 7.737,-17.28 17.28,-17.28 9.544,0 17.28,7.737 17.28,17.28 v 40.569 c 10e-4,9.543 -7.736,17.28 -17.28,17.28 z"
       fill="#ffd15b" />
    <path
       id="path2668"
       d="M 482.834,331.356 H 29.166 c -6.915,0 -12.522,-5.606 -12.522,-12.522 V 194.582 c 0,-6.915 5.606,-12.522 12.522,-12.522 h 453.668 c 6.915,0 12.522,5.606 12.522,12.522 v 124.253 c -10e-4,6.915 -5.607,12.521 -12.522,12.521 z"
       fill="#7a8c98" />
    <path
       id="path2670"
       d="M 282.391,278.862 H 71.129 c -12.235,0 -22.154,-9.919 -22.154,-22.154 0,-12.235 9.919,-22.154 22.154,-22.154 h 211.262 c 12.235,0 22.154,9.919 22.154,22.154 -0.001,12.235 -9.919,22.154 -22.154,22.154 z"
       fill="#9facba" />
    <path
       id="path2672"
       d="m 376.886,294.273 c -9.544,0 -17.28,-7.737 -17.28,-17.28 v -40.569 c 0,-9.544 7.737,-17.28 17.28,-17.28 9.544,0 17.28,7.737 17.28,17.28 v 40.569 c 10e-4,9.543 -7.736,17.28 -17.28,17.28 z"
       fill="#60b7ff" />
    <path
       id="path2674"
       d="M 482.834,149.296 H 29.166 c -6.915,0 -12.522,-5.606 -12.522,-12.522 V 12.522 C 16.645,5.606 22.251,0 29.166,0 h 453.668 c 6.915,0 12.522,5.606 12.522,12.522 v 124.253 c -10e-4,6.915 -5.607,12.521 -12.522,12.521 z"
       fill="#7a8c98" />
    <path
       id="path2676"
       d="M 282.391,96.802 H 71.129 c -12.235,0 -22.154,-9.919 -22.154,-22.154 0,-12.235 9.919,-22.154 22.154,-22.154 h 211.262 c 12.235,0 22.154,9.919 22.154,22.154 -0.001,12.235 -9.919,22.154 -22.154,22.154 z"
       fill="#9facba" />
    <path
       id="path2678"
       d="m 376.886,112.213 c -9.544,0 -17.28,-7.737 -17.28,-17.28 V 54.364 c 0,-9.544 7.737,-17.28 17.28,-17.28 9.544,0 17.28,7.737 17.28,17.28 v 40.569 c 10e-4,9.543 -7.736,17.28 -17.28,17.28 z"
       fill="#60b7ff" />
    <g
       id="g2686"
       fill="#596c76">
      <path
         id="path2680"
         d="m 482.834,362.704 h -39.685 c 6.916,0 12.522,5.606 12.522,12.522 v 124.253 c 0,6.915 -5.606,12.522 -12.522,12.522 h 39.685 c 6.916,0 12.522,-5.606 12.522,-12.522 V 375.225 c -10e-4,-6.915 -5.607,-12.521 -12.522,-12.521 z" />
      <path
         id="path2682"
         d="m 482.834,182.06 h -39.685 c 6.916,0 12.522,5.606 12.522,12.522 v 124.253 c 0,6.915 -5.606,12.522 -12.522,12.522 h 39.685 c 6.916,0 12.522,-5.606 12.522,-12.522 V 194.582 c -10e-4,-6.916 -5.607,-12.522 -12.522,-12.522 z" />
      <path
         id="path2684"
         d="m 482.834,0 h -39.685 c 6.916,0 12.522,5.606 12.522,12.522 v 124.253 c 0,6.916 -5.606,12.522 -12.522,12.522 h 39.685 c 6.916,0 12.522,-5.606 12.522,-12.522 V 12.522 C 495.355,5.606 489.749,0 482.834,0 Z" />
    </g>
    <path
       id="path2688"
       d="m 445.745,37.083 c -0.359,0 -0.709,0.032 -1.062,0.054 -9.046,0.552 -16.218,8.042 -16.218,17.227 v 40.569 c 0,9.185 7.172,16.675 16.218,17.227 0.353,0.022 0.704,0.054 1.062,0.054 9.544,0 17.28,-7.737 17.28,-17.28 v -40.57 c 0,-9.544 -7.737,-17.281 -17.28,-17.281 z"
       fill="#ffd15b" />
    <path
       id="path2690"
       d="m 455.67,40.232 v 68.832 c 4.443,-3.127 7.354,-8.285 7.354,-14.132 V 54.364 c 10e-4,-5.847 -2.91,-11.005 -7.354,-14.132 z"
       fill="#ffc344" />
    <path
       id="path2692"
       d="m 445.745,219.143 c -0.359,0 -0.709,0.032 -1.062,0.054 -9.046,0.552 -16.218,8.042 -16.218,17.227 v 40.569 c 0,9.185 7.172,16.675 16.218,17.227 0.353,0.021 0.704,0.054 1.062,0.054 9.544,0 17.28,-7.737 17.28,-17.28 v -40.569 c 0,-9.545 -7.737,-17.282 -17.28,-17.282 z"
       fill="#fe646f" />
    <path
       id="path2694"
       d="m 455.67,222.292 v 68.832 c 4.443,-3.127 7.354,-8.285 7.354,-14.132 v -40.569 c 10e-4,-5.846 -2.91,-11.004 -7.354,-14.131 z"
       fill="#fd4755" />
    <path
       id="path2696"
       d="m 445.745,399.787 c -0.359,0 -0.709,0.032 -1.062,0.054 -9.046,0.552 -16.218,8.042 -16.218,17.227 v 40.569 c 0,9.185 7.172,16.675 16.218,17.227 0.353,0.021 0.704,0.054 1.062,0.054 9.544,0 17.28,-7.737 17.28,-17.28 v -40.569 c 0,-9.545 -7.737,-17.282 -17.28,-17.282 z"
       fill="#60b7ff" />
    <path
       id="path2698"
       d="m 455.67,402.936 v 68.832 c 4.443,-3.127 7.354,-8.285 7.354,-14.132 v -40.569 c 10e-4,-5.846 -2.91,-11.004 -7.354,-14.131 z"
       fill="#26a6fe" />
  </g>
</svg>
