<?xml version="1.0" encoding="UTF-8" standalone="no"?>
<svg    xmlns:dc="http://purl.org/dc/elements/1.1/"
   xmlns:cc="http://creativecommons.org/ns#"
   xmlns:rdf="http://www.w3.org/1999/02/22-rdf-syntax-ns#"
   xmlns:svg="http://www.w3.org/2000/svg"
   xmlns="http://www.w3.org/2000/svg"
   id="svg1255"
   version="1.1"
   viewBox="0 0 48.947916 16.933334"
   height="64"
   width="185">
  <g
     id="g1211">
    <text
       id="text1205"
       y="-0.90159363"
       x="16.080349"
       style="font-style:normal;font-variant:normal;font-weight:normal;font-stretch:normal;font-size:5.59809px;line-height:1;font-family:Arial;-inkscape-font-specification:Arial;font-variant-ligatures:normal;font-variant-caps:normal;font-variant-numeric:normal;font-variant-east-asian:normal;letter-spacing:0px;fill:#ffffff;fill-opacity:1;stroke-width:0.171484"
       xml:space="preserve"><tspan
         style="stroke-width:0.171484"
         y="7.6726017"
         x="16.080349"
         id="tspan1825"
         ><tspan
           style="font-style:normal;font-variant:normal;font-weight:normal;font-stretch:normal;font-family:Arial;-inkscape-font-specification:Arial;stroke-width:0.171484"
           id="tspan1203"
           x="16.080349"
           y="7.6726017">Coriolis Bare</tspan></tspan><tspan
         style="stroke-width:0.171484"
         y="13.270692"
         x="16.080349"
         id="tspan1827"
         >Metal Hub</tspan></text>
    <text
       id="text1209"
       y="29.666916"
       x="29.132378"
       style="font-size:10.5833px;line-height:1.25;font-family:Rubik;-inkscape-font-specification:'Rubik, Normal';stroke-width:0.264583"
       xml:space="preserve"><tspan
         id="tspan1207"
         style="stroke-width:0.264583"
         y="29.666916"
         x="29.132378" /></text>
  </g>
  <g
     id="g1253"
     transform="matrix(0.0292812,0,0,0.0292812,0.46207651,0.97066494)">
    <path
       id="path1213"
       style="fill:#c7c7c7;fill-opacity:1"
       d="m 48.975,117.956 h 414.05 V 429.215 H 48.975 Z"
       fill="#465a61" />
    <path
       id="path1215"
       style="fill:#ffffff;fill-opacity:1"
       d="M 482.834,512 H 29.166 c -6.915,0 -12.522,-5.606 -12.522,-12.522 V 375.225 c 0,-6.915 5.606,-12.522 12.522,-12.522 h 453.668 c 6.915,0 12.522,5.606 12.522,12.522 V 499.478 C 495.355,506.394 489.749,512 482.834,512 Z"
       fill="#7a8c98" />
    <path
       id="path1217"
       style="fill:#e8e8e8;fill-opacity:1"
       d="M 282.391,459.506 H 71.129 c -12.235,0 -22.154,-9.919 -22.154,-22.154 0,-12.235 9.919,-22.154 22.154,-22.154 h 211.262 c 12.235,0 22.154,9.919 22.154,22.154 -0.001,12.235 -9.919,22.154 -22.154,22.154 z"
       fill="#9facba" />
    <path
       id="path1219"
       style="fill:#d5d5d5;fill-opacity:1"
       d="m 376.886,474.917 c -9.544,0 -17.28,-7.737 -17.28,-17.28 v -40.569 c 0,-9.544 7.737,-17.28 17.28,-17.28 9.544,0 17.28,7.737 17.28,17.28 v 40.569 c 10e-4,9.543 -7.736,17.28 -17.28,17.28 z"
       fill="#ffd15b" />
    <path
       id="path1221"
       style="fill:#ffffff;fill-opacity:1"
       d="M 482.834,331.356 H 29.166 c -6.915,0 -12.522,-5.606 -12.522,-12.522 V 194.582 c 0,-6.915 5.606,-12.522 12.522,-12.522 h 453.668 c 6.915,0 12.522,5.606 12.522,12.522 v 124.253 c -10e-4,6.915 -5.607,12.521 -12.522,12.521 z"
       fill="#7a8c98" />
    <path
       id="path1223"
       style="fill:#e8e8e8;fill-opacity:1"
       d="M 282.391,278.862 H 71.129 c -12.235,0 -22.154,-9.919 -22.154,-22.154 0,-12.235 9.919,-22.154 22.154,-22.154 h 211.262 c 12.235,0 22.154,9.919 22.154,22.154 -0.001,12.235 -9.919,22.154 -22.154,22.154 z"
       fill="#9facba" />
    <path
       id="path1225"
       style="fill:#d5d5d5;fill-opacity:1"
       d="m 376.886,294.273 c -9.544,0 -17.28,-7.737 -17.28,-17.28 v -40.569 c 0,-9.544 7.737,-17.28 17.28,-17.28 9.544,0 17.28,7.737 17.28,17.28 v 40.569 c 10e-4,9.543 -7.736,17.28 -17.28,17.28 z"
       fill="#60b7ff" />
    <path
       id="path1227"
       style="fill:#ffffff;fill-opacity:1"
       d="M 482.834,149.296 H 29.166 c -6.915,0 -12.522,-5.606 -12.522,-12.522 V 12.522 C 16.645,5.606 22.251,0 29.166,0 h 453.668 c 6.915,0 12.522,5.606 12.522,12.522 v 124.253 c -10e-4,6.915 -5.607,12.521 -12.522,12.521 z"
       fill="#7a8c98" />
    <path
       id="path1229"
       style="fill:#e8e8e8;fill-opacity:1"
       d="M 282.391,96.802 H 71.129 c -12.235,0 -22.154,-9.919 -22.154,-22.154 0,-12.235 9.919,-22.154 22.154,-22.154 h 211.262 c 12.235,0 22.154,9.919 22.154,22.154 -0.001,12.235 -9.919,22.154 -22.154,22.154 z"
       fill="#9facba" />
    <path
       id="path1231"
       style="fill:#d5d5d5;fill-opacity:1"
       d="m 376.886,112.213 c -9.544,0 -17.28,-7.737 -17.28,-17.28 V 54.364 c 0,-9.544 7.737,-17.28 17.28,-17.28 9.544,0 17.28,7.737 17.28,17.28 v 40.569 c 10e-4,9.543 -7.736,17.28 -17.28,17.28 z"
       fill="#60b7ff" />
    <g
       id="g1239"
       style="fill:#dcdcdc;fill-opacity:1"
       fill="#596c76">
      <path
         id="path1233"
         style="fill:#dcdcdc;fill-opacity:1"
         d="m 482.834,362.704 h -39.685 c 6.916,0 12.522,5.606 12.522,12.522 v 124.253 c 0,6.915 -5.606,12.522 -12.522,12.522 h 39.685 c 6.916,0 12.522,-5.606 12.522,-12.522 V 375.225 c -10e-4,-6.915 -5.607,-12.521 -12.522,-12.521 z" />
      <path
         id="path1235"
         style="fill:#dcdcdc;fill-opacity:1"
         d="m 482.834,182.06 h -39.685 c 6.916,0 12.522,5.606 12.522,12.522 v 124.253 c 0,6.915 -5.606,12.522 -12.522,12.522 h 39.685 c 6.916,0 12.522,-5.606 12.522,-12.522 V 194.582 c -10e-4,-6.916 -5.607,-12.522 -12.522,-12.522 z" />
      <path
         id="path1237"
         style="fill:#dcdcdc;fill-opacity:1"
         d="m 482.834,0 h -39.685 c 6.916,0 12.522,5.606 12.522,12.522 v 124.253 c 0,6.916 -5.606,12.522 -12.522,12.522 h 39.685 c 6.916,0 12.522,-5.606 12.522,-12.522 V 12.522 C 495.355,5.606 489.749,0 482.834,0 Z" />
    </g>
    <path
       id="path1241"
       style="fill:#d1d1d1;fill-opacity:1"
       d="m 445.745,37.083 c -0.359,0 -0.709,0.032 -1.062,0.054 -9.046,0.552 -16.218,8.042 -16.218,17.227 v 40.569 c 0,9.185 7.172,16.675 16.218,17.227 0.353,0.022 0.704,0.054 1.062,0.054 9.544,0 17.28,-7.737 17.28,-17.28 v -40.57 c 0,-9.544 -7.737,-17.281 -17.28,-17.281 z"
       fill="#ffd15b" />
    <path
       id="path1243"
       style="fill:#c7c7c7;fill-opacity:1"
       d="m 455.67,40.232 v 68.832 c 4.443,-3.127 7.354,-8.285 7.354,-14.132 V 54.364 c 10e-4,-5.847 -2.91,-11.005 -7.354,-14.132 z"
       fill="#ffc344" />
    <path
       id="path1245"
       style="fill:#d1d1d1;fill-opacity:1"
       d="m 445.745,219.143 c -0.359,0 -0.709,0.032 -1.062,0.054 -9.046,0.552 -16.218,8.042 -16.218,17.227 v 40.569 c 0,9.185 7.172,16.675 16.218,17.227 0.353,0.021 0.704,0.054 1.062,0.054 9.544,0 17.28,-7.737 17.28,-17.28 v -40.569 c 0,-9.545 -7.737,-17.282 -17.28,-17.282 z"
       fill="#fe646f" />
    <path
       id="path1247"
       style="fill:#c7c7c7;fill-opacity:1"
       d="m 455.67,222.292 v 68.832 c 4.443,-3.127 7.354,-8.285 7.354,-14.132 v -40.569 c 10e-4,-5.846 -2.91,-11.004 -7.354,-14.131 z"
       fill="#fd4755" />
    <path
       id="path1249"
       style="fill:#d1d1d1;fill-opacity:1"
       d="m 445.745,399.787 c -0.359,0 -0.709,0.032 -1.062,0.054 -9.046,0.552 -16.218,8.042 -16.218,17.227 v 40.569 c 0,9.185 7.172,16.675 16.218,17.227 0.353,0.021 0.704,0.054 1.062,0.054 9.544,0 17.28,-7.737 17.28,-17.28 v -40.569 c 0,-9.545 -7.737,-17.282 -17.28,-17.282 z"
       fill="#60b7ff" />
    <path
       id="path1251"
       style="fill:#c7c7c7;fill-opacity:1"
       d="m 455.67,402.936 v 68.832 c 4.443,-3.127 7.354,-8.285 7.354,-14.132 v -40.569 c 10e-4,-5.846 -2.91,-11.004 -7.354,-14.131 z"
       fill="#26a6fe" />
  </g>
</svg>
