<?xml version="1.0" encoding="UTF-8" standalone="no"?>
<svg    xmlns:dc="http://purl.org/dc/elements/1.1/"
   xmlns:cc="http://creativecommons.org/ns#"
   xmlns:rdf="http://www.w3.org/1999/02/22-rdf-syntax-ns#"
   xmlns:svg="http://www.w3.org/2000/svg"
   xmlns="http://www.w3.org/2000/svg"
   id="svg964"
   version="1.1"
   viewBox="0 0 48.947916 16.933334"
   height="64"
   width="185">
  <g
     id="g962">
    <g
       id="g956"
       style="font-style:normal;font-variant:normal;font-weight:normal;font-stretch:normal;font-size:6.05164px;line-height:1.25;font-family:Rubik;-inkscape-font-specification:'Rubik, @wght=300';font-variant-ligatures:normal;font-variant-caps:normal;font-variant-numeric:normal;font-variant-east-asian:normal;font-variation-settings:'wght' 300;letter-spacing:0px;fill:#616870;fill-opacity:1;stroke-width:0.151291">
      <g
         style="font-style:normal;font-variant:normal;font-weight:normal;font-stretch:normal;font-size:5.45383px;line-height:1.25;font-family:Arial;-inkscape-font-specification:Arial;font-variant-ligatures:normal;font-variant-caps:normal;font-variant-numeric:normal;font-variant-east-asian:normal;stroke-width:0.0234937"
         id="text912"
         aria-label="Coriolis Bare
Metal Hub">
        <path
           id="path990"
           style="font-style:normal;font-variant:normal;font-weight:normal;font-stretch:normal;font-family:Arial;-inkscape-font-specification:Arial;stroke-width:0.0234937"
           d="m 19.59244,5.6425524 0.516623,0.1304871 q -0.162444,0.6364577 -0.585861,0.9719961 -0.420754,0.3328753 -1.030582,0.3328753 -0.631132,0 -1.027919,-0.2556483 -0.394125,-0.2583112 -0.601839,-0.7456407 -0.205051,-0.4873296 -0.205051,-1.0465601 0,-0.6098277 0.231681,-1.0625382 0.234344,-0.4553734 0.663088,-0.6897177 0.431406,-0.2370072 0.948029,-0.2370072 0.585861,0 0.985311,0.2982563 0.39945,0.2982563 0.556568,0.8388459 L 19.533854,4.297736 Q 19.398041,3.8716555 19.13973,3.6772563 18.881418,3.4828571 18.489957,3.4828571 q -0.450048,0 -0.75363,0.2157032 -0.300919,0.2157033 -0.423417,0.5805347 -0.122498,0.3621683 -0.122498,0.7483038 0,0.4979815 0.143802,0.8708019 0.146465,0.3701574 0.45271,0.5539046 0.306245,0.1837472 0.663088,0.1837472 0.434069,0 0.734989,-0.2503223 0.300919,-0.2503223 0.407439,-0.7429778 z" />
        <path
           id="path992"
           style="font-style:normal;font-variant:normal;font-weight:normal;font-stretch:normal;font-family:Arial;-inkscape-font-specification:Arial;stroke-width:0.0234937"
           d="m 20.508513,5.5972814 q 0,-0.7855859 0.436732,-1.1637323 0.364832,-0.3142343 0.889443,-0.3142343 0.583198,0 0.953355,0.3834724 0.370158,0.3808094 0.370158,1.0545491 0,0.5459156 -0.165106,0.8601499 -0.162444,0.3115714 -0.476678,0.4846665 -0.311571,0.1730952 -0.681729,0.1730952 -0.593849,0 -0.961344,-0.3808094 -0.364831,-0.3808094 -0.364831,-1.0971571 z m 0.492656,0 q 0,0.5432525 0.237007,0.8148788 0.237007,0.2689633 0.596512,0.2689633 0.356843,0 0.59385,-0.2716263 0.237007,-0.2716263 0.237007,-0.8281939 0,-0.5246115 -0.23967,-0.7935748 -0.237007,-0.2716263 -0.591187,-0.2716263 -0.359505,0 -0.596512,0.2689633 -0.237007,0.2689633 -0.237007,0.8122159 z" />
        <path
           id="path994"
           style="font-style:normal;font-variant:normal;font-weight:normal;font-stretch:normal;font-family:Arial;-inkscape-font-specification:Arial;stroke-width:0.0234937"
           d="M 23.717431,7.0113358 V 4.1832269 h 0.431407 v 0.4287434 q 0.165106,-0.3009193 0.303582,-0.3967874 0.141139,-0.095868 0.308908,-0.095868 0.242333,0 0.492656,0.1544542 l -0.165106,0.4447214 q -0.175759,-0.1038571 -0.351517,-0.1038571 -0.157117,0 -0.282278,0.095868 -0.125161,0.093205 -0.178421,0.2609743 -0.07989,0.2556483 -0.07989,0.5592306 v 1.4806295 z" />
        <path
           id="path996"
           style="font-style:normal;font-variant:normal;font-weight:normal;font-stretch:normal;font-family:Arial;-inkscape-font-specification:Arial;stroke-width:0.0234937"
           d="M 25.546914,3.6586153 V 3.1073737 h 0.479341 v 0.5512416 z m 0,3.3527205 V 4.1832269 h 0.479341 v 2.8281089 z" />
        <path
           id="path998"
           style="font-style:normal;font-variant:normal;font-weight:normal;font-stretch:normal;font-family:Arial;-inkscape-font-specification:Arial;stroke-width:0.0234937"
           d="m 26.58016,5.5972814 q 0,-0.7855859 0.436732,-1.1637323 0.364832,-0.3142343 0.889443,-0.3142343 0.583198,0 0.953355,0.3834724 0.370158,0.3808094 0.370158,1.0545491 0,0.5459156 -0.165107,0.8601499 -0.162443,0.3115714 -0.476677,0.4846665 -0.311572,0.1730952 -0.681729,0.1730952 -0.59385,0 -0.961344,-0.3808094 Q 26.58016,6.3136291 26.58016,5.5972814 Z m 0.492655,0 q 0,0.5432525 0.237007,0.8148788 0.237008,0.2689633 0.596513,0.2689633 0.356842,0 0.59385,-0.2716263 0.237007,-0.2716263 0.237007,-0.8281939 0,-0.5246115 -0.23967,-0.7935748 -0.237008,-0.2716263 -0.591187,-0.2716263 -0.359505,0 -0.596513,0.2689633 -0.237007,0.2689633 -0.237007,0.8122159 z" />
        <path
           id="path1000"
           style="font-style:normal;font-variant:normal;font-weight:normal;font-stretch:normal;font-family:Arial;-inkscape-font-specification:Arial;stroke-width:0.0234937"
           d="M 29.783752,7.0113358 V 3.1073737 h 0.47934 v 3.9039621 z" />
        <path
           id="path1002"
           style="font-style:normal;font-variant:normal;font-weight:normal;font-stretch:normal;font-family:Arial;-inkscape-font-specification:Arial;stroke-width:0.0234937"
           d="M 31.011396,3.6586153 V 3.1073737 h 0.47934 v 0.5512416 z m 0,3.3527205 V 4.1832269 h 0.47934 v 2.8281089 z" />
        <path
           id="path1004"
           style="font-style:normal;font-variant:normal;font-weight:normal;font-stretch:normal;font-family:Arial;-inkscape-font-specification:Arial;stroke-width:0.0234937"
           d="m 32.031326,6.167164 0.474015,-0.074564 q 0.03994,0.2849413 0.221029,0.4367324 0.183747,0.1517912 0.511296,0.1517912 0.330213,0 0.489993,-0.1331501 0.15978,-0.1358132 0.15978,-0.3168974 0,-0.1624431 -0.141139,-0.2556482 Q 33.647769,5.9115157 33.256307,5.8129846 32.729033,5.6798344 32.523982,5.5839663 32.321593,5.4854352 32.215073,5.3150031 32.111216,5.1419079 32.111216,4.9341937 q 0,-0.1890732 0.08522,-0.3488534 0.08788,-0.1624432 0.237007,-0.2689633 0.111847,-0.082553 0.303583,-0.1384761 0.194399,-0.058586 0.415428,-0.058586 0.332876,0 0.583198,0.095868 0.252985,0.095868 0.37282,0.2609743 0.119835,0.1624431 0.165106,0.4367324 l -0.468688,0.063912 Q 33.77293,4.7584355 33.618476,4.6359373 33.466685,4.5134392 33.187069,4.5134392 q -0.330212,0 -0.471351,0.1091831 -0.141139,0.1091831 -0.141139,0.2556483 0,0.093205 0.05859,0.1677692 0.05859,0.077227 0.183747,0.1278241 0.0719,0.02663 0.423417,0.1224981 0.508634,0.1358132 0.708359,0.2236923 0.202388,0.085216 0.316897,0.2503222 0.11451,0.1651062 0.11451,0.4101025 0,0.2396702 -0.14114,0.4527105 -0.138476,0.2103772 -0.402113,0.3275493 -0.263637,0.1145091 -0.596513,0.1145091 -0.551241,0 -0.841509,-0.2290182 Q 32.111216,6.6172114 32.031326,6.167164 Z" />
        <path
           id="path1006"
           style="font-style:normal;font-variant:normal;font-weight:normal;font-stretch:normal;font-family:Arial;-inkscape-font-specification:Arial;stroke-width:0.0234937"
           d="M 36.502508,7.0113358 V 3.1073737 h 1.464652 q 0.447384,0 0.716348,0.1198351 0.271626,0.1171722 0.423417,0.3648314 0.154454,0.2449963 0.154454,0.5139596 0,0.2503222 -0.135813,0.4713515 -0.135813,0.2210292 -0.410102,0.3568424 0.354179,0.1038571 0.543252,0.3541793 0.191736,0.2503223 0.191736,0.5911867 0,0.2742892 -0.117172,0.5112965 -0.114509,0.2343442 -0.284941,0.3621684 -0.170432,0.1278241 -0.428743,0.1943992 -0.255649,0.063912 -0.628469,0.063912 z m 0.516623,-2.2635523 h 0.844172 q 0.343527,0 0.492655,-0.045271 0.197062,-0.058586 0.295594,-0.1943992 0.101194,-0.1358131 0.101194,-0.3408644 0,-0.1943992 -0.09321,-0.3408643 -0.09321,-0.1491282 -0.266301,-0.2023882 -0.173095,-0.055923 -0.593849,-0.055923 h -0.78026 z m 0,1.8028529 h 0.971996 q 0.250322,0 0.351516,-0.018641 0.178421,-0.031956 0.298257,-0.1065201 0.119835,-0.074564 0.197062,-0.2157032 0.07723,-0.1438021 0.07723,-0.3302123 0,-0.2183663 -0.111846,-0.3781464 Q 38.691497,5.3389701 38.491771,5.275058 38.294709,5.2084829 37.921889,5.2084829 h -0.902758 z" />
        <path
           id="path1008"
           style="font-style:normal;font-variant:normal;font-weight:normal;font-stretch:normal;font-family:Arial;-inkscape-font-specification:Arial;stroke-width:0.0234937"
           d="m 41.951012,6.6624825 q -0.2663,0.2263552 -0.513959,0.3195603 -0.244996,0.093205 -0.527275,0.093205 -0.466025,0 -0.716347,-0.2263552 -0.250323,-0.2290183 -0.250323,-0.5831976 0,-0.2077143 0.0932,-0.3781464 0.09587,-0.1730952 0.24766,-0.2769523 0.154454,-0.1038571 0.34619,-0.1571172 0.141139,-0.037282 0.42608,-0.071901 0.580535,-0.069238 0.854824,-0.1651061 0.0027,-0.098531 0.0027,-0.1251612 0,-0.2929303 -0.135813,-0.4127654 -0.183747,-0.1624432 -0.545915,-0.1624432 -0.338202,0 -0.500645,0.1198351 -0.15978,0.1171722 -0.237007,0.4180915 l -0.468689,-0.063912 q 0.06391,-0.3009193 0.210378,-0.4846665 0.146465,-0.1864102 0.423417,-0.2849413 0.276952,-0.1011941 0.641784,-0.1011941 0.362168,0 0.588523,0.085216 0.226356,0.085216 0.332876,0.2157032 0.10652,0.1278241 0.149128,0.3248864 0.02397,0.1224981 0.02397,0.4420584 v 0.6391207 q 0,0.6684137 0.02929,0.8468349 0.03196,0.1757582 0.122498,0.3382013 H 42.04688 q -0.07456,-0.1491281 -0.09587,-0.3488533 z m -0.03994,-1.0705272 q -0.260974,0.1065202 -0.782922,0.1810842 -0.295594,0.042608 -0.418092,0.095868 -0.122498,0.05326 -0.189073,0.1571172 -0.06658,0.1011941 -0.06658,0.2263552 0,0.1917363 0.143802,0.3195604 0.146465,0.1278241 0.42608,0.1278241 0.276953,0 0.492656,-0.1198351 0.215703,-0.1224981 0.316897,-0.3328754 0.07723,-0.1624431 0.07723,-0.4793405 z" />
        <path
           id="path1010"
           style="font-style:normal;font-variant:normal;font-weight:normal;font-stretch:normal;font-family:Arial;-inkscape-font-specification:Arial;stroke-width:0.0234937"
           d="M 43.136047,7.0113358 V 4.1832269 h 0.431407 v 0.4287434 q 0.165106,-0.3009193 0.303582,-0.3967874 0.141139,-0.095868 0.308908,-0.095868 0.242334,0 0.492656,0.1544542 l -0.165106,0.4447214 q -0.175758,-0.1038571 -0.351517,-0.1038571 -0.157117,0 -0.282278,0.095868 -0.125161,0.093205 -0.178421,0.2609743 -0.07989,0.2556483 -0.07989,0.5592306 v 1.4806295 z" />
        <path
           id="path1012"
           style="font-style:normal;font-variant:normal;font-weight:normal;font-stretch:normal;font-family:Arial;-inkscape-font-specification:Arial;stroke-width:0.0234937"
           d="m 46.898871,6.1005889 0.495319,0.061249 q -0.117172,0.4340694 -0.434069,0.6737397 -0.316898,0.2396702 -0.809553,0.2396702 -0.62048,0 -0.985311,-0.3808094 -0.362169,-0.3834724 -0.362169,-1.0731901 0,-0.7136848 0.367495,-1.1078092 0.367494,-0.3941244 0.953355,-0.3941244 0.567219,0 0.926725,0.3861354 0.359505,0.3861354 0.359505,1.0865051 0,0.042608 -0.0027,0.1278242 h -2.109098 q 0.02663,0.4660255 0.263637,0.7136847 0.237007,0.2476593 0.591187,0.2476593 0.263637,0 0.450047,-0.1384761 0.18641,-0.1384762 0.295593,-0.4420585 z M 45.325037,5.3256551 h 1.57916 Q 46.872241,4.9688127 46.723113,4.7903915 46.494095,4.5134392 46.129264,4.5134392 q -0.330213,0 -0.556568,0.2210292 -0.223692,0.2210293 -0.247659,0.5911867 z" />
        <path
           id="path1014"
           style="stroke-width:0.0234937"
           d="M 16.790961,13.828623 V 9.9246609 h 0.777597 l 0.924062,2.7641971 q 0.127824,0.386135 0.18641,0.577871 0.06658,-0.21304 0.207714,-0.625805 l 0.934714,-2.7162631 h 0.695044 v 3.9039621 h -0.497981 v -3.267504 l -1.13444,3.267504 h -0.466025 l -1.129113,-3.323427 v 3.323427 z" />
        <path
           id="path1016"
           style="stroke-width:0.0234937"
           d="m 23.230102,12.917876 0.495319,0.06125 q -0.117172,0.43407 -0.43407,0.67374 -0.316897,0.23967 -0.809553,0.23967 -0.620479,0 -0.985311,-0.380809 -0.362168,-0.383473 -0.362168,-1.07319 0,-0.713685 0.367494,-1.10781 0.367495,-0.394124 0.953355,-0.394124 0.56722,0 0.926725,0.386135 0.359506,0.386136 0.359506,1.086506 0,0.04261 -0.0027,0.127824 h -2.109099 q 0.02663,0.466025 0.263638,0.713684 0.237007,0.24766 0.591186,0.24766 0.263638,0 0.450048,-0.138476 0.18641,-0.138477 0.295593,-0.442059 z m -1.573835,-0.774934 h 1.579161 q -0.03196,-0.356842 -0.181084,-0.535263 -0.229018,-0.276953 -0.59385,-0.276953 -0.330212,0 -0.556567,0.22103 -0.223693,0.221029 -0.24766,0.591186 z" />
        <path
           id="path1018"
           style="stroke-width:0.0234937"
           d="m 25.376483,13.39988 0.06924,0.423417 q -0.202389,0.04261 -0.362169,0.04261 -0.260974,0 -0.404776,-0.08255 -0.143802,-0.08255 -0.202388,-0.215703 -0.05859,-0.135813 -0.05859,-0.56722 v -1.627095 h -0.351516 v -0.37282 h 0.351516 v -0.70037 l 0.476678,-0.287604 v 0.987974 h 0.482004 v 0.37282 h -0.482004 v 1.653725 q 0,0.205051 0.02397,0.263637 0.02663,0.05859 0.08255,0.09321 0.05859,0.03462 0.165106,0.03462 0.07989,0 0.210378,-0.01864 z" />
        <path
           id="path1020"
           style="stroke-width:0.0234937"
           d="m 27.687969,13.47977 q -0.2663,0.226355 -0.51396,0.31956 -0.244996,0.09321 -0.527274,0.09321 -0.466026,0 -0.716348,-0.226355 -0.250322,-0.229018 -0.250322,-0.583198 0,-0.207714 0.09321,-0.378146 0.09587,-0.173095 0.247659,-0.276952 0.154454,-0.103858 0.346191,-0.157118 0.141139,-0.03728 0.42608,-0.0719 0.580535,-0.06924 0.854824,-0.165106 0.0027,-0.09853 0.0027,-0.125161 0,-0.29293 -0.135813,-0.412765 -0.183747,-0.162444 -0.545916,-0.162444 -0.338201,0 -0.500644,0.119836 -0.15978,0.117172 -0.237008,0.418091 l -0.468688,-0.06391 q 0.06391,-0.300919 0.210377,-0.484667 0.146465,-0.18641 0.423418,-0.284941 0.276952,-0.101194 0.641783,-0.101194 0.362169,0 0.588524,0.08522 0.226355,0.08522 0.332875,0.215703 0.10652,0.127824 0.149128,0.324887 0.02397,0.122498 0.02397,0.442058 v 0.639121 q 0,0.668414 0.02929,0.846835 0.03196,0.175758 0.122499,0.338201 h -0.500645 q -0.07456,-0.149128 -0.09587,-0.348853 z m -0.03994,-1.070527 q -0.260974,0.10652 -0.782923,0.181084 -0.295593,0.04261 -0.418091,0.09587 -0.122498,0.05326 -0.189074,0.157117 -0.06658,0.101194 -0.06658,0.226355 0,0.191736 0.143803,0.319561 0.146465,0.127824 0.42608,0.127824 0.276952,0 0.492656,-0.119835 0.215703,-0.122499 0.316897,-0.332876 0.07723,-0.162443 0.07723,-0.47934 z" />
        <path
           id="path1022"
           style="stroke-width:0.0234937"
           d="M 28.867679,13.828623 V 9.9246609 h 0.47934 v 3.9039621 z" />
        <path
           id="path1024"
           style="stroke-width:0.0234937"
           d="M 31.682473,13.828623 V 9.9246609 h 0.516623 v 1.6031281 h 2.029208 V 9.9246609 h 0.516623 v 3.9039621 h -0.516623 v -1.840135 h -2.029208 v 1.840135 z" />
        <path
           id="path1026"
           style="stroke-width:0.0234937"
           d="m 37.39994,13.828623 v -0.415428 q -0.330212,0.47934 -0.897432,0.47934 -0.250322,0 -0.468688,-0.09587 -0.215703,-0.09587 -0.322223,-0.23967 -0.103858,-0.146465 -0.146466,-0.356843 -0.02929,-0.141139 -0.02929,-0.447384 v -1.752256 h 0.479341 v 1.568509 q 0,0.375483 0.02929,0.50597 0.04527,0.189073 0.191736,0.298257 0.146465,0.10652 0.362169,0.10652 0.215703,0 0.404776,-0.109183 0.189073,-0.111847 0.2663,-0.30092 0.07989,-0.191736 0.07989,-0.553904 v -1.515249 h 0.479341 v 2.828109 z" />
        <path
           id="path1028"
           style="stroke-width:0.0234937"
           d="M 39.024371,13.828623 H 38.579649 V 9.9246609 h 0.479341 v 1.3927501 q 0.303582,-0.380809 0.774934,-0.380809 0.260974,0 0.492655,0.10652 0.234344,0.103857 0.383473,0.295593 0.151791,0.189074 0.237007,0.458037 0.08522,0.268963 0.08522,0.575209 0,0.726999 -0.359505,1.123787 -0.359506,0.396787 -0.862813,0.396787 -0.500645,0 -0.785586,-0.418091 z m -0.0053,-1.435358 q 0,0.508633 0.138476,0.734988 0.226355,0.370158 0.612491,0.370158 0.314234,0 0.543252,-0.271627 0.229018,-0.274289 0.229018,-0.814878 0,-0.553905 -0.221029,-0.817542 -0.218366,-0.263638 -0.529937,-0.263638 -0.314235,0 -0.543253,0.27429 -0.229018,0.271626 -0.229018,0.788249 z" />
      </g>
      <g
         id="g954"
         transform="matrix(0.02954208,0,0,0.02954208,0.30493538,0.90387952)">
        <path
           id="path914"
           style="fill:#7f8890;fill-opacity:1"
           d="m 48.975,117.956 h 414.05 V 429.215 H 48.975 Z"
           fill="#465a61" />
        <path
           id="path916"
           style="fill:#616870;fill-opacity:1"
           d="M 482.834,512 H 29.166 c -6.915,0 -12.522,-5.606 -12.522,-12.522 V 375.225 c 0,-6.915 5.606,-12.522 12.522,-12.522 h 453.668 c 6.915,0 12.522,5.606 12.522,12.522 V 499.478 C 495.355,506.394 489.749,512 482.834,512 Z"
           fill="#7a8c98" />
        <path
           id="path918"
           style="fill:#828a93;fill-opacity:1"
           d="M 282.391,459.506 H 71.129 c -12.235,0 -22.154,-9.919 -22.154,-22.154 0,-12.235 9.919,-22.154 22.154,-22.154 h 211.262 c 12.235,0 22.154,9.919 22.154,22.154 -0.001,12.235 -9.919,22.154 -22.154,22.154 z"
           fill="#9facba" />
        <path
           id="path920"
           style="fill:#747d87;fill-opacity:1"
           d="m 376.886,474.917 c -9.544,0 -17.28,-7.737 -17.28,-17.28 v -40.569 c 0,-9.544 7.737,-17.28 17.28,-17.28 9.544,0 17.28,7.737 17.28,17.28 v 40.569 c 10e-4,9.543 -7.736,17.28 -17.28,17.28 z"
           fill="#ffd15b" />
        <path
           id="path922"
           style="fill:#616870;fill-opacity:1"
           d="M 482.834,331.356 H 29.166 c -6.915,0 -12.522,-5.606 -12.522,-12.522 V 194.582 c 0,-6.915 5.606,-12.522 12.522,-12.522 h 453.668 c 6.915,0 12.522,5.606 12.522,12.522 v 124.253 c -10e-4,6.915 -5.607,12.521 -12.522,12.521 z"
           fill="#7a8c98" />
        <path
           id="path924"
           style="fill:#828a93;fill-opacity:1"
           d="M 282.391,278.862 H 71.129 c -12.235,0 -22.154,-9.919 -22.154,-22.154 0,-12.235 9.919,-22.154 22.154,-22.154 h 211.262 c 12.235,0 22.154,9.919 22.154,22.154 -0.001,12.235 -9.919,22.154 -22.154,22.154 z"
           fill="#9facba" />
        <path
           id="path926"
           style="fill:#747d87;fill-opacity:1"
           d="m 376.886,294.273 c -9.544,0 -17.28,-7.737 -17.28,-17.28 v -40.569 c 0,-9.544 7.737,-17.28 17.28,-17.28 9.544,0 17.28,7.737 17.28,17.28 v 40.569 c 10e-4,9.543 -7.736,17.28 -17.28,17.28 z"
           fill="#60b7ff" />
        <path
           id="path928"
           style="fill:#616870;fill-opacity:1"
           d="M 482.834,149.296 H 29.166 c -6.915,0 -12.522,-5.606 -12.522,-12.522 V 12.522 C 16.645,5.606 22.251,0 29.166,0 h 453.668 c 6.915,0 12.522,5.606 12.522,12.522 v 124.253 c -10e-4,6.915 -5.607,12.521 -12.522,12.521 z"
           fill="#7a8c98" />
        <path
           id="path930"
           style="fill:#828a93;fill-opacity:1"
           d="M 282.391,96.802 H 71.129 c -12.235,0 -22.154,-9.919 -22.154,-22.154 0,-12.235 9.919,-22.154 22.154,-22.154 h 211.262 c 12.235,0 22.154,9.919 22.154,22.154 -0.001,12.235 -9.919,22.154 -22.154,22.154 z"
           fill="#9facba" />
        <path
           id="path932"
           style="fill:#747d87;fill-opacity:1"
           d="m 376.886,112.213 c -9.544,0 -17.28,-7.737 -17.28,-17.28 V 54.364 c 0,-9.544 7.737,-17.28 17.28,-17.28 9.544,0 17.28,7.737 17.28,17.28 v 40.569 c 10e-4,9.543 -7.736,17.28 -17.28,17.28 z"
           fill="#60b7ff" />
        <g
           id="g940"
           style="fill:#555b62;fill-opacity:1"
           fill="#596c76">
          <path
             id="path934"
             style="fill:#555b62;fill-opacity:1"
             d="m 482.834,362.704 h -39.685 c 6.916,0 12.522,5.606 12.522,12.522 v 124.253 c 0,6.915 -5.606,12.522 -12.522,12.522 h 39.685 c 6.916,0 12.522,-5.606 12.522,-12.522 V 375.225 c -10e-4,-6.915 -5.607,-12.521 -12.522,-12.521 z" />
          <path
             id="path936"
             style="fill:#555b62;fill-opacity:1"
             d="m 482.834,182.06 h -39.685 c 6.916,0 12.522,5.606 12.522,12.522 v 124.253 c 0,6.915 -5.606,12.522 -12.522,12.522 h 39.685 c 6.916,0 12.522,-5.606 12.522,-12.522 V 194.582 c -10e-4,-6.916 -5.607,-12.522 -12.522,-12.522 z" />
          <path
             id="path938"
             style="fill:#555b62;fill-opacity:1"
             d="m 482.834,0 h -39.685 c 6.916,0 12.522,5.606 12.522,12.522 v 124.253 c 0,6.916 -5.606,12.522 -12.522,12.522 h 39.685 c 6.916,0 12.522,-5.606 12.522,-12.522 V 12.522 C 495.355,5.606 489.749,0 482.834,0 Z" />
        </g>
        <path
           id="path942"
           style="fill:#828a93;fill-opacity:1"
           d="m 445.745,37.083 c -0.359,0 -0.709,0.032 -1.062,0.054 -9.046,0.552 -16.218,8.042 -16.218,17.227 v 40.569 c 0,9.185 7.172,16.675 16.218,17.227 0.353,0.022 0.704,0.054 1.062,0.054 9.544,0 17.28,-7.737 17.28,-17.28 v -40.57 c 0,-9.544 -7.737,-17.281 -17.28,-17.281 z"
           fill="#ffd15b" />
        <path
           id="path944"
           style="fill:#6b737b;fill-opacity:1"
           d="m 455.67,40.232 v 68.832 c 4.443,-3.127 7.354,-8.285 7.354,-14.132 V 54.364 c 10e-4,-5.847 -2.91,-11.005 -7.354,-14.132 z"
           fill="#ffc344" />
        <path
           id="path946"
           style="fill:#828a93;fill-opacity:1"
           d="m 445.745,219.143 c -0.359,0 -0.709,0.032 -1.062,0.054 -9.046,0.552 -16.218,8.042 -16.218,17.227 v 40.569 c 0,9.185 7.172,16.675 16.218,17.227 0.353,0.021 0.704,0.054 1.062,0.054 9.544,0 17.28,-7.737 17.28,-17.28 v -40.569 c 0,-9.545 -7.737,-17.282 -17.28,-17.282 z"
           fill="#fe646f" />
        <path
           id="path948"
           style="fill:#6b737b;fill-opacity:1"
           d="m 455.67,222.292 v 68.832 c 4.443,-3.127 7.354,-8.285 7.354,-14.132 v -40.569 c 10e-4,-5.846 -2.91,-11.004 -7.354,-14.131 z"
           fill="#fd4755" />
        <path
           id="path950"
           style="fill:#828a93;fill-opacity:1"
           d="m 445.745,399.787 c -0.359,0 -0.709,0.032 -1.062,0.054 -9.046,0.552 -16.218,8.042 -16.218,17.227 v 40.569 c 0,9.185 7.172,16.675 16.218,17.227 0.353,0.021 0.704,0.054 1.062,0.054 9.544,0 17.28,-7.737 17.28,-17.28 v -40.569 c 0,-9.545 -7.737,-17.282 -17.28,-17.282 z"
           fill="#60b7ff" />
        <path
           id="path952"
           style="fill:#6b737b;fill-opacity:1"
           d="m 455.67,402.936 v 68.832 c 4.443,-3.127 7.354,-8.285 7.354,-14.132 v -40.569 c 10e-4,-5.846 -2.91,-11.004 -7.354,-14.131 z"
           fill="#26a6fe" />
      </g>
    </g>
    <text
       id="text960"
       y="29.666916"
       x="29.132378"
       style="font-size:10.5833px;line-height:1.25;font-family:Rubik;-inkscape-font-specification:'Rubik, Normal';stroke-width:0.264583"
       xml:space="preserve"><tspan
         id="tspan958"
         style="stroke-width:0.264583"
         y="29.666916"
         x="29.132378" /></text>
  </g>
</svg>
