<?xml version="1.0" encoding="UTF-8" standalone="no"?>
<svg
   id="svg2879"
   version="1.1"
   viewBox="0 0 27.781249 11.1125"
   height="42"
   width="105"
   sodipodi:docname="o3c-42.svg"
   inkscape:version="1.1.2 (0a00cf5339, 2022-02-04)"
   xmlns:inkscape="http://www.inkscape.org/namespaces/inkscape"
   xmlns:sodipodi="http://sodipodi.sourceforge.net/DTD/sodipodi-0.dtd"
   xmlns="http://www.w3.org/2000/svg"
   xmlns:svg="http://www.w3.org/2000/svg">
  <defs
     id="defs34" />
  <sodipodi:namedview
     id="namedview32"
     pagecolor="#ffffff"
     bordercolor="#666666"
     borderopacity="1.0"
     inkscape:pageshadow="2"
     inkscape:pageopacity="0.0"
     inkscape:pagecheckerboard="0"
     showgrid="false"
     inkscape:zoom="6.552381"
     inkscape:cx="52.347383"
     inkscape:cy="2.2892442"
     inkscape:window-width="1920"
     inkscape:window-height="1004"
     inkscape:window-x="0"
     inkscape:window-y="0"
     inkscape:window-maximized="1"
     inkscape:current-layer="svg2879" />
  <g
     id="g1074"
     transform="translate(0,-0.1190622)">
    <g
       id="layer1"
       transform="translate(-7.5000004e-8,-0.03686031)">
      <g
         transform="scale(0.26458333)"
         id="Provider/OracleCIC/ocic-42"
         stroke="none"
         stroke-width="1"
         fill="none"
         fill-rule="evenodd">
        <path
           d="m 93.13289,19.728826 c -1.944383,0 -3.594325,-1.274281 -4.098824,-3.031646 h 10.824869 l 1.492255,-2.271174 H 89.034066 c 0.504499,-1.746833 2.154441,-3.031354 4.098824,-3.031354 h 7.42983 l 1.50302,-2.2714667 h -9.101016 c -3.636517,0 -6.589298,2.8879787 -6.589298,6.4436747 0,3.555695 2.952781,6.43314 6.589298,6.43314 h 7.808356 l 1.49255,-2.271174 z M 62.161605,22 c -3.635918,0 -6.588999,-2.877445 -6.588999,-6.43314 0,-3.555696 2.953081,-6.4436747 6.588999,-6.4436747 h 9.090843 L 69.770671,11.394652 H 62.33007 c -2.354325,0 -4.26699,1.87031 -4.26699,4.172208 0,2.301897 1.912665,4.161966 4.26699,4.161966 h 9.132436 L 69.970256,22 Z M 14.068798,19.728826 c 2.355522,0 4.262801,-1.860069 4.262801,-4.161966 0,-2.301898 -1.907279,-4.172208 -4.262801,-4.172208 H 6.7544715 c -2.3540259,0 -4.2628007,1.87031 -4.2628007,4.172208 0,2.301897 1.9087748,4.161966 4.2628007,4.161966 z M 6.5854077,22 C 2.9500879,22 0,19.122555 0,15.56686 0,12.011164 2.9500879,9.1231853 6.5854077,9.1231853 h 7.6539503 c 3.635919,0 6.583912,2.8879787 6.583912,6.4436747 C 20.82327,19.122555 17.875277,22 14.239358,22 Z M 33.250504,17.8275 c 2.459354,0 4.456102,-1.941997 4.456102,-4.34689 0,-2.404601 -1.996748,-4.3574247 -4.456102,-4.3574247 H 22.170693 V 22 H 24.70246 V 11.394652 h 8.379878 c 1.177163,0 2.123022,0.934863 2.123022,2.085958 0,1.151095 -0.945859,2.08625 -2.123022,2.08625 L 25.942461,15.556618 33.502753,22 h 3.678409 l -5.086575,-4.1725 z m 41.900884,1.901326 V 9.1231853 H 72.618423 V 20.766684 c 0,0.318643 0.126275,0.627045 0.368051,0.863467 C 73.227951,21.866281 73.55381,22 73.911387,22 h 11.549599 l 1.492549,-2.271174 z M 44.148684,17.457651 h 6.757463 L 47.333067,11.836481 40.775188,22 H 37.790689 L 45.767207,9.7914875 C 46.114012,9.2981611 46.692121,9 47.333067,9 c 0.620299,0 1.198109,0.2876275 1.534141,0.7707128 L 56.875445,22 H 53.890946 L 52.48248,19.728826 h -6.841547 z m 59.479276,-5.796782 c -0.74946,0 -1.36233,-0.594498 -1.36233,-1.330569 C 102.26563,9.594498 102.8785,9 103.62796,9 104.38713,9 105,9.594498 105,10.3303 c 0,0.736071 -0.61287,1.330569 -1.37204,1.330569 z m -0.12662,-2.1230538 c 0.21418,0 0.30173,0.0094 0.39926,0.04728 0.27236,0.08489 0.30172,0.3207549 0.30172,0.4150468 0,0.01881 0,0.06609 -0.0197,0.122499 -0.01,0.05668 -0.0488,0.170049 -0.18508,0.254939 -0.0191,0.0094 -0.0288,0.0188 -0.0679,0.03761 l 0.35049,0.613572 h -0.34079 l -0.31143,-0.566291 h -0.21389 v 0.566291 h -0.30173 V 9.5378152 Z m 0.10723,0.6793878 c 0.0973,-0.0094 0.1945,-0.0094 0.25296,-0.09456 0.0294,-0.03761 0.0391,-0.07522 0.0391,-0.1319015 0,-0.075487 -0.0488,-0.1415727 -0.11692,-0.1791822 -0.0682,-0.028476 -0.13604,-0.028476 -0.28234,-0.028476 h -0.0873 v 0.4341207 z m -1.05092,0.103695 c 0,0.585095 0.47684,1.047423 1.07031,1.047423 0.60346,0 1.08029,-0.462328 1.08029,-1.047423 0,-0.5754249 -0.47683,-1.0377525 -1.08029,-1.0377525 -0.59347,0 -1.07031,0.4623276 -1.07031,1.0377525 z"
           id="Combined-Shape-Copy"
           fill="#616870" />
      </g>
    </g>
    <text
       xml:space="preserve"
       style="font-style:normal;font-variant:normal;font-weight:normal;font-stretch:normal;font-size:2.37042px;line-height:1.25;font-family:FreeSans;-inkscape-font-specification:'FreeSans, Normal';font-variant-ligatures:normal;font-variant-caps:normal;font-variant-numeric:normal;font-variant-east-asian:normal;fill:#606870;fill-opacity:0.788235;stroke-width:0.296302"
       x="-0.094814822"
       y="8.3146582"
       id="text2172"
       transform="scale(0.98058847,1.0197958)"><tspan
         sodipodi:role="line"
         id="tspan2170"
         style="font-style:normal;font-variant:normal;font-weight:normal;font-stretch:normal;font-size:2.37042px;font-family:FreeSans;-inkscape-font-specification:'FreeSans, Normal';font-variant-ligatures:normal;font-variant-caps:normal;font-variant-numeric:normal;font-variant-east-asian:normal;fill:#606870;fill-opacity:0.788235;stroke-width:0.296302"
         x="-0.094814822"
         y="8.3146582">Compute Cloud@Customer</tspan></text>
  </g>
</svg>
