<?xml version="1.0" encoding="UTF-8" standalone="no"?>
<svg
   id="svg872"
   version="1.1"
   viewBox="0 0 192 128"
   height="128px"
   width="192px"
   sodipodi:docname="o3c-128-disabled.svg"
   inkscape:version="1.1.2 (0a00cf5339, 2022-02-04)"
   xmlns:inkscape="http://www.inkscape.org/namespaces/inkscape"
   xmlns:sodipodi="http://sodipodi.sourceforge.net/DTD/sodipodi-0.dtd"
   xmlns="http://www.w3.org/2000/svg"
   xmlns:svg="http://www.w3.org/2000/svg">
  <defs
     id="defs34" />
  <sodipodi:namedview
     id="namedview32"
     pagecolor="#ffffff"
     bordercolor="#666666"
     borderopacity="1.0"
     inkscape:pageshadow="2"
     inkscape:pageopacity="0.0"
     inkscape:pagecheckerboard="0"
     showgrid="false"
     inkscape:snap-object-midpoints="false"
     inkscape:zoom="2.9726563"
     inkscape:cx="31.285151"
     inkscape:cy="44.06833"
     inkscape:window-width="1920"
     inkscape:window-height="1004"
     inkscape:window-x="0"
     inkscape:window-y="0"
     inkscape:window-maximized="1"
     inkscape:current-layer="svg872" />
  <g
     id="g2245"
     transform="translate(0,-3.3742151)"
     style="fill:#b0b5be;fill-opacity:1">
    <path
       fill="#ec1d24"
       id="ORACLE"
       d="m 150.9821,58.387116 c -2.63102,0 -4.86363,-1.764388 -5.54629,-4.197664 h 14.64759 l 2.01923,-3.144702 h -16.66682 c 0.68266,-2.418691 2.91527,-4.197259 5.54629,-4.197259 h 10.05362 l 2.03381,-3.145108 h -12.31498 c -4.92072,0 -8.91626,3.99874 -8.91626,8.922011 0,4.92327 3.99554,8.907425 8.91626,8.907425 h 10.56582 L 163.34,58.387116 Z m -41.90857,3.144703 c -4.91991,0 -8.91585,-3.984155 -8.91585,-8.907425 0,-4.923271 3.99593,-8.922011 8.91585,-8.922011 h 12.30121 l -2.00505,3.145108 h -10.0682 c -3.18574,0 -5.77385,2.58966 -5.77385,5.776903 0,3.187242 2.58811,5.762722 5.77385,5.762722 h 12.35749 l -2.01923,3.144703 z M 43.997094,58.387116 c 3.187358,0 5.768178,-2.57548 5.768178,-5.762722 0,-3.187243 -2.58082,-5.776903 -5.768178,-5.776903 h -9.897329 c -3.185334,0 -5.768179,2.58966 -5.768179,5.776903 0,3.187242 2.582845,5.762722 5.768179,5.762722 z m -10.126097,3.144703 c -4.919107,0 -8.910997,-3.984155 -8.910997,-8.907425 0,-4.923271 3.99189,-8.922011 8.910997,-8.922011 h 10.356889 c 4.919917,0 8.908973,3.99874 8.908973,8.922011 0,4.92327 -3.989056,8.907425 -8.908973,8.907425 z m 36.081685,-5.777308 c 3.327858,0 6.029743,-2.688919 6.029743,-6.018771 0,-3.329447 -2.701885,-6.033357 -6.029743,-6.033357 H 54.960115 v 17.829436 h 3.425843 V 46.847491 h 11.339171 c 1.592869,0 2.872752,1.294425 2.872752,2.888249 0,1.593824 -1.279883,2.888654 -2.872752,2.888654 l -9.661273,-0.01418 10.230155,8.921605 h 4.977412 l -6.882862,-5.777308 z m 56.697878,2.632605 V 43.702383 h -3.42746 v 16.121768 c 0,0.441198 0.17087,0.868216 0.49803,1.19557 0.32675,0.326949 0.76768,0.512098 1.25154,0.512098 h 15.62825 l 2.01963,-3.144703 z M 84.699476,55.242413 H 93.84329 L 89.008401,47.459254 80.134655,61.531819 H 76.096201 L 86.88957,44.627725 c 0.469277,-0.683068 1.25154,-1.095906 2.118831,-1.095906 0.839354,0 1.621212,0.398253 2.075913,1.067141 L 101.9206,61.531819 h -4.038452 l -1.905855,-3.144703 h -9.25759 z m 80.483964,-8.026314 c -1.01414,0 -1.84344,-0.823151 -1.84344,-1.842326 0,-1.018803 0.8293,-1.841954 1.84344,-1.841954 1.02726,0 1.85656,0.823151 1.85656,1.841954 0,1.019175 -0.8293,1.842326 -1.85656,1.842326 z m -0.17134,-2.939613 c 0.28981,0 0.40828,0.01302 0.54025,0.06547 0.36854,0.117539 0.40828,0.444122 0.40828,0.57468 0,0.02604 0,0.0915 -0.0266,0.169615 -0.0131,0.07848 -0.066,0.235452 -0.25044,0.352991 -0.0259,0.01302 -0.039,0.02604 -0.0918,0.05208 l 0.47426,0.849561 h -0.46114 l -0.4214,-0.784095 h -0.28943 v 0.784095 h -0.40828 v -2.064388 z m 0.14509,0.940691 c 0.1316,-0.01302 0.26319,-0.01302 0.3423,-0.13093 0.0397,-0.05208 0.0529,-0.104149 0.0529,-0.182633 0,-0.104522 -0.066,-0.196024 -0.15821,-0.248099 -0.0922,-0.03943 -0.18408,-0.03943 -0.38204,-0.03943 h -0.11809 v 0.60109 z m -1.42203,0.143577 c 0,0.810133 0.64522,1.450279 1.44828,1.450279 0.81656,0 1.46178,-0.640146 1.46178,-1.450279 0,-0.796741 -0.64522,-1.436887 -1.46178,-1.436887 -0.80306,0 -1.44828,0.640146 -1.44828,1.436887 z"
       style="fill-rule:evenodd;stroke:none;stroke-width:1;fill:#b0b5be;fill-opacity:1" />
    <text
       xml:space="preserve"
       style="font-style:normal;font-variant:normal;font-weight:normal;font-stretch:normal;font-size:15.7438px;line-height:1.25;font-family:FreeSans;-inkscape-font-specification:'FreeSans, Normal';font-variant-ligatures:normal;font-variant-caps:normal;font-variant-numeric:normal;font-variant-east-asian:normal;fill:#b0b5be;fill-opacity:1;stroke:none;stroke-width:1.18078"
       x="-0.0055413628"
       y="89.027901"
       id="text6155"
       transform="scale(1.0136317,0.98655162)"><tspan
         sodipodi:role="line"
         id="tspan6153"
         x="-0.0055413628"
         y="89.027901"
         style="font-style:normal;font-variant:normal;font-weight:normal;font-stretch:normal;font-size:15.7438px;font-family:FreeSans;-inkscape-font-specification:'FreeSans, Normal';font-variant-ligatures:normal;font-variant-caps:normal;font-variant-numeric:normal;font-variant-east-asian:normal;stroke-width:1.18078;fill:#b0b5be;fill-opacity:1">Compute Cloud@Customer</tspan></text>
  </g>
</svg>
