<?xml version="1.0" encoding="UTF-8" standalone="no"?>
<svg
   id="svg2187"
   version="1.1"
   viewBox="0 0 50.799999 16.933334"
   height="64"
   width="192"
   sodipodi:docname="o3c-64.svg"
   inkscape:version="1.1.2 (0a00cf5339, 2022-02-04)"
   xmlns:inkscape="http://www.inkscape.org/namespaces/inkscape"
   xmlns:sodipodi="http://sodipodi.sourceforge.net/DTD/sodipodi-0.dtd"
   xmlns="http://www.w3.org/2000/svg"
   xmlns:svg="http://www.w3.org/2000/svg">
  <defs
     id="defs34" />
  <sodipodi:namedview
     id="namedview32"
     pagecolor="#ffffff"
     bordercolor="#666666"
     borderopacity="1.0"
     inkscape:pageshadow="2"
     inkscape:pageopacity="0.0"
     inkscape:pagecheckerboard="0"
     showgrid="false"
     inkscape:zoom="3.5833334"
     inkscape:cx="60.279069"
     inkscape:cy="0.55813953"
     inkscape:window-width="1920"
     inkscape:window-height="1004"
     inkscape:window-x="0"
     inkscape:window-y="0"
     inkscape:window-maximized="1"
     inkscape:current-layer="svg2187" />
  <g
     id="g1244"
     transform="translate(0,-0.96875064)">
    <g
       id="layer1"
       transform="translate(0,0.62184616)">
      <g
         style="fill:none;fill-rule:evenodd;stroke:none;stroke-width:1"
         transform="matrix(0.26458333,0,0,0.26458333,0,3.0427084)"
         id="Group">
        <path
           fill="#ec1d24"
           id="ORACLE"
           d="m 126.0221,14.855297 c -2.63102,0 -4.86363,-1.764388 -5.54629,-4.197664 h 14.64759 l 2.01923,-3.1447023 h -16.66682 c 0.68266,-2.4186904 2.91527,-4.1972585 5.54629,-4.1972585 h 10.05362 l 2.03381,-3.14510793 h -12.31498 c -4.92072,0 -8.91626,3.99873953 -8.91626,8.92201043 0,4.9232703 3.99554,8.9074253 8.91626,8.9074253 h 10.56582 L 138.38,14.855297 Z M 84.113532,18 c -4.919917,0 -8.915856,-3.984155 -8.915856,-8.9074253 0,-4.9232709 3.995939,-8.92201043 8.915856,-8.92201043 H 96.414741 L 94.409686,3.3156722 H 84.341489 c -3.185738,0 -5.773846,2.5896599 -5.773846,5.7769025 0,3.1872423 2.588108,5.7627223 5.773846,5.7627223 h 12.35749 L 94.679753,18 Z M 19.037094,14.855297 c 3.187358,0 5.768178,-2.57548 5.768178,-5.7627223 0,-3.1872426 -2.58082,-5.7769025 -5.768178,-5.7769025 H 9.1397649 c -3.1853334,0 -5.7681784,2.5896599 -5.7681784,5.7769025 0,3.1872423 2.582845,5.7627223 5.7681784,5.7627223 z M 8.9109974,18 C 3.9918904,18 0,14.015845 0,9.0925747 0,4.1693038 3.9918904,0.17056427 8.9109974,0.17056427 H 19.267886 c 4.919917,0 8.908973,3.99873953 8.908973,8.92201043 C 28.176859,14.015845 24.187803,18 19.267886,18 Z M 44.992682,12.222692 c 3.327858,0 6.029743,-2.688919 6.029743,-6.0187711 0,-3.329447 -2.701885,-6.03335663 -6.029743,-6.03335663 H 30.000115 V 18 h 3.425843 V 3.3156722 h 11.339171 c 1.592869,0 2.872752,1.2944248 2.872752,2.8882487 0,1.5938238 -1.279883,2.8886538 -2.872752,2.8886538 L 35.103856,9.0783947 45.334011,18 h 4.977412 l -6.882862,-5.777308 z m 56.697878,2.632605 V 0.17056427 H 98.263101 V 16.292332 c 0,0.441198 0.170867,0.868216 0.498025,1.19557 C 99.087878,17.814851 99.528812,18 100.01267,18 h 15.62825 l 2.01963,-3.144703 z M 59.739476,11.710594 H 68.88329 L 64.048401,3.9274348 55.174655,18 H 51.136201 L 61.92957,1.0959058 C 62.398847,0.41283846 63.18111,0 64.048401,0 c 0.839354,0 1.621212,0.39825339 2.075913,1.0671408 L 76.960602,18 h -4.038454 l -1.905855,-3.144703 h -9.25759 z M 140.22344,3.6842802 C 139.2093,3.6842802 138.38,2.861129 138.38,1.8419541 138.38,0.82315114 139.2093,0 140.22344,0 141.2507,0 142.08,0.82315114 142.08,1.8419541 c 0,1.0191749 -0.8293,1.8423261 -1.85656,1.8423261 z M 140.0521,0.74466723 c 0.28981,0 0.40828,0.0130187 0.54025,0.0654653 0.36854,0.11753988 0.40828,0.44412217 0.40828,0.57468077 0,0.026037 0,0.091503 -0.0266,0.1696145 -0.0131,0.078484 -0.066,0.2354518 -0.25044,0.3529916 -0.0259,0.013019 -0.039,0.026037 -0.0918,0.052075 l 0.47426,0.8495604 h -0.46114 l -0.4214,-0.7840952 h -0.28943 V 2.8090549 H 139.5258 V 0.74466723 Z m 0.14509,0.94069097 c 0.1316,-0.013019 0.26319,-0.013019 0.3423,-0.1309305 0.0397,-0.052075 0.0529,-0.1041492 0.0529,-0.1826331 0,-0.1045213 -0.066,-0.1960238 -0.15821,-0.2480985 -0.0922,-0.039428 -0.18408,-0.039428 -0.38204,-0.039428 h -0.11809 v 0.60109 z m -1.42203,0.1435772 c 0,0.8101325 0.64522,1.4502785 1.44828,1.4502785 0.81656,0 1.46178,-0.640146 1.46178,-1.4502785 0,-0.7967418 -0.64522,-1.43688782 -1.46178,-1.43688782 -0.80306,0 -1.44828,0.64014602 -1.44828,1.43688782 z" />
      </g>
    </g>
    <text
       xml:space="preserve"
       style="font-size:3.61056px;line-height:1.25;font-family:sans-serif;stroke-width:0.270792"
       x="-0.2027414"
       y="14.812101"
       id="text5934"
       transform="scale(1.023467,0.97707107)"><tspan
         sodipodi:role="line"
         id="tspan5932"
         style="stroke-width:0.270792"
         x="-0.2027414"
         y="14.812101">Compute Cloud@Customer</tspan></text>
  </g>
</svg>
