<?xml version="1.0" encoding="UTF-8"?>
<svg width="192px" height="128px" viewBox="0 0 192 128" version="1.1" xmlns="http://www.w3.org/2000/svg" xmlns:xlink="http://www.w3.org/1999/xlink">
        <g id="Provider/OracleCI/oci-128" stroke="none" stroke-width="1" fill="none" fill-rule="evenodd">
        <path d="M11.8195468,77.4101198 L9.62008333,77.4101198 C9.5378604,76.8774967 9.27063586,74.747004 6.41338889,74.747004 C2.83669124,74.747004 2.1994635,78.539281 2.1994635,81.0958722 C2.1994635,83.9933422 3.00113711,87.1251664 6.39283316,87.1251664 C7.29728543,87.1251664 8.16062625,86.8908123 8.79785399,86.2090546 C9.33230306,85.6125166 9.45563746,84.9520639 9.51730467,84.5898802 L11.7784354,84.5898802 C11.4700994,87.6151798 8.77729826,88.8721704 6.22838729,88.8721704 C1.00723095,88.8721704 0,84.0998668 0,81.1171771 C0,77.8788282 1.21278828,73.0426099 6.49561182,73.0426099 C8.59229665,73.0426099 11.5523223,73.9161119 11.8195468,77.4101198 Z M14.430125,88.6378162 L14.430125,73.276964 L16.362364,73.276964 L16.362364,88.6378162 L14.430125,88.6378162 Z M19.3429453,83.4181092 C19.3429453,80.7762983 20.5351779,77.665779 24.5846574,77.665779 C28.7163599,77.665779 29.6413679,81.0319574 29.6413679,83.2689747 C29.6413679,86.4007989 27.935242,89 24.4202115,89 C21.0079598,89 19.3429453,86.5499334 19.3429453,83.4181092 Z M21.3574072,83.2902796 C21.3574072,85.4846871 22.2618595,87.5086551 24.461323,87.5086551 C25.9207801,87.5086551 27.5857945,86.4221039 27.5857945,83.2050599 C27.5857945,80.5419441 26.393562,79.1358189 24.5846574,79.1358189 C23.3513134,79.1358189 21.3574072,79.9454061 21.3574072,83.2902796 Z M32.4575034,77.942743 L34.4308538,77.942743 L34.4308538,84.8242344 C34.4308538,85.8681758 34.6569669,87.1890812 36.6303173,87.1890812 C37.5964368,87.1890812 38.5008891,86.8482024 39.0558939,85.9960053 C39.4875643,85.3568575 39.4875643,84.5259654 39.4875643,83.9933422 L39.4875643,77.942743 L41.4814704,77.942743 L41.4814704,86.6351531 C41.4814704,86.8482024 41.5225819,88.0412783 41.5431376,88.6378162 L39.5286757,88.6378162 L39.4875643,86.8055925 C39.1175611,87.551265 38.4186661,88.7443409 36.1986469,88.7443409 C33.6497359,88.7443409 32.4575034,87.2316911 32.4575034,85.1225033 L32.4575034,77.942743 Z M52.3760093,79.391478 L52.3760093,73.276964 L54.3082482,73.276964 L54.3082482,86.9334221 C54.3082482,87.1677763 54.3493597,88.0838881 54.3904712,88.6378162 L52.4582322,88.6378162 L52.4171207,86.9334221 C52.2526749,87.2316911 52.0265618,87.6790945 51.4921127,88.0625832 C50.6493276,88.6591212 49.6420967,88.8508655 48.9432017,88.8508655 C47.5659676,88.8508655 44.5031633,88.1051931 44.5031633,83.4181092 C44.5031633,79.3488682 46.7437382,77.5805593 49.1693148,77.5805593 C51.389334,77.5805593 52.1293405,78.9440746 52.3760093,79.391478 Z M52.4376765,83.1411451 C52.4376765,81.5858855 52.088229,80.7336884 51.6565586,80.1584554 C51.2454439,79.6045273 50.4848818,79.0719041 49.3954279,79.0719041 C46.5587366,79.0719041 46.5587366,82.6298269 46.5587366,83.3541944 C46.5587366,85.2503329 47.0315185,87.4447403 49.3954279,87.4447403 C52.4376765,87.4447403 52.4376765,83.9720373 52.4376765,83.1411451 Z M63.4966611,88.6378162 L63.4966611,73.2556591 L65.5522345,73.2556591 L65.5522345,88.6378162 L63.4966611,88.6378162 Z M69.2728223,88.6378162 L69.2728223,79.1784288 L69.2522666,77.942743 L71.1845055,77.942743 L71.2050613,79.6684421 C71.4311743,79.2210386 72.1711807,77.7296937 74.5145344,77.7296937 C75.4395424,77.7296937 78.2556779,78.0918775 78.2556779,81.3728362 L78.2556779,88.6378162 L76.2823275,88.6378162 L76.2823275,81.8415446 C76.2823275,81.138482 76.2001045,80.4993342 75.7273227,80.0093209 C75.233985,79.5193076 74.5556458,79.2849534 73.8978624,79.2849534 C72.5000725,79.2849534 71.2050613,80.3288948 71.2050613,82.4806924 L71.2050613,88.6378162 L69.2728223,88.6378162 Z M86.9301975,73.1491345 L86.9301975,74.747004 C86.6013057,74.7256991 86.1901911,74.7043941 85.7996321,74.7043941 C84.2373964,74.7043941 84.2373964,75.5139814 84.2373964,76.2596538 L84.2373964,77.942743 L86.6424172,77.942743 L86.6424172,79.391478 L84.2373964,79.391478 L84.2373964,88.6378162 L82.3257131,88.6378162 L82.3257131,79.391478 L80.2906955,79.391478 L80.2906955,77.942743 L82.3257131,77.942743 L82.3257131,76.7283622 C82.3257131,75.2583222 82.4079361,74.7256991 82.7573835,74.171771 C83.189054,73.4900133 84.0112833,73 85.347406,73 C85.9024108,73 86.5190828,73.0852197 86.9301975,73.1491345 Z M88.7185463,88.6378162 L88.7185463,80.1158455 C88.7185463,79.391478 88.6774348,78.6458056 88.6157676,77.942743 L90.5685623,77.942743 L90.6096738,80.0093209 C90.979677,78.517976 92.213021,78.0279627 93.0763618,77.9001332 C93.6519224,77.8149134 94.0835928,77.8362184 94.4124845,77.8575233 L94.4124845,79.8175766 C94.3097058,79.7749667 94.1863714,79.7536618 94.0424813,79.7323569 C93.8985912,79.7110519 93.7135896,79.7110519 93.4874765,79.7110519 C91.2057901,79.7110519 90.671341,81.1171771 90.671341,82.9494008 L90.671341,88.6378162 L88.7185463,88.6378162 Z M104.64924,88.6378162 L102.902002,88.6378162 C102.758112,88.1051931 102.717001,87.5938748 102.717001,87.0399467 C101.791993,88.8082557 100.394203,88.9786951 99.5308622,88.9786951 C97.1669528,88.9786951 95.8924973,87.5938748 95.8924973,85.8255659 C95.8924973,84.9733688 96.1802776,83.6098535 97.7014019,82.6937417 C98.8114115,82.0545939 100.45587,81.9906791 101.2781,81.9906791 C101.771437,81.9906791 102.079773,82.011984 102.675889,82.0545939 C102.675889,80.7336884 102.675889,80.1584554 102.305886,79.689747 C101.915327,79.1571238 101.072542,78.9866844 100.517537,78.9866844 C98.5647427,78.9866844 98.461964,80.3715047 98.4414083,80.7976032 L96.5091693,80.7976032 C96.5708365,80.2436751 96.6325037,79.4980027 97.22862,78.7736352 C98.0097379,77.8788282 99.469195,77.6231691 100.558649,77.6231691 C102.059217,77.6231691 103.662565,78.1131824 104.217569,79.1997337 C104.546461,79.8388815 104.567017,80.3501997 104.567017,80.840213 L104.484794,85.9533955 C104.484794,86.1238349 104.50535,87.551265 104.64924,88.6378162 Z M102.675889,83.4394141 C102.326442,83.3968043 102.038662,83.3754993 101.56588,83.3754993 C100.784762,83.3754993 97.845292,83.3754993 97.845292,85.5486019 C97.845292,86.2303595 98.2564067,87.4021305 99.9830883,87.4021305 C100.969764,87.4021305 101.70977,86.9973369 102.182552,86.2516644 C102.614222,85.5272969 102.634778,84.930759 102.675889,83.4394141 Z M107.115928,85.4633822 L109.150946,85.4633822 C109.13039,86.2729694 109.541504,87.4021305 111.412076,87.4021305 C112.21375,87.4021305 112.809866,87.252996 113.220981,86.7203728 C113.426538,86.4434088 113.549873,86.081225 113.549873,85.7190413 C113.549873,84.6750999 112.830422,84.4833555 111.288742,84.1211718 C109.13039,83.6098535 107.321485,83.1624501 107.321485,80.9254328 C107.321485,78.9653795 108.965944,77.6870839 111.350409,77.6870839 C112.64542,77.6870839 114.454325,78.0705726 115.070997,79.3488682 C115.338221,79.9454061 115.338221,80.4567244 115.338221,80.9041278 L113.364871,80.9041278 C113.426538,79.2849534 112.06986,79.1571238 111.370965,79.1571238 C111.083184,79.1571238 109.27428,79.1571238 109.27428,80.6910786 C109.27428,81.6711052 110.199288,81.9054594 110.733737,82.0545939 C113.590984,82.7576565 114.207656,82.9280959 114.824328,83.5246338 C115.399889,84.0785619 115.605446,84.8242344 115.605446,85.505992 C115.605446,86.6990679 114.968218,87.7217044 114.207656,88.2117177 C113.303204,88.7869507 112.21375,88.9360852 111.144852,88.9360852 C109.048167,88.9360852 107.095372,88.0412783 107.115928,85.4633822 Z M116.736011,79.3701731 L116.736011,77.9001332 L118.565472,77.9001332 L118.565472,75.6631158 L120.477155,75.023968 L120.477155,77.9001332 L122.779397,77.9001332 L122.779397,79.3701731 L120.477155,79.3701731 L120.477155,85.7829561 C120.477155,86.3155792 120.477155,87.2103862 121.854389,87.2103862 C122.244948,87.2103862 122.614951,87.1464714 122.779397,87.1038615 L122.779397,88.6591212 C122.429949,88.723036 121.874945,88.7869507 121.17605,88.7869507 C119.408257,88.7869507 118.565472,88.2543276 118.565472,86.5073236 L118.565472,79.3701731 L116.736011,79.3701731 Z M125.266641,88.6378162 L125.266641,80.1158455 C125.266641,79.391478 125.225529,78.6458056 125.163862,77.942743 L127.116657,77.942743 L127.157768,80.0093209 C127.527771,78.517976 128.761115,78.0279627 129.624456,77.9001332 C130.200017,77.8149134 130.631687,77.8362184 130.960579,77.8575233 L130.960579,79.8175766 C130.8578,79.7749667 130.734466,79.7536618 130.590576,79.7323569 C130.446686,79.7110519 130.261684,79.7110519 130.035571,79.7110519 C127.753884,79.7110519 127.219435,81.1171771 127.219435,82.9494008 L127.219435,88.6378162 L125.266641,88.6378162 Z M132.954485,77.942743 L134.927835,77.942743 L134.927835,84.8242344 C134.927835,85.8681758 135.153949,87.1890812 137.127299,87.1890812 C138.093418,87.1890812 138.997871,86.8482024 139.552876,85.9960053 C139.984546,85.3568575 139.984546,84.5259654 139.984546,83.9933422 L139.984546,77.942743 L141.978452,77.942743 L141.978452,86.6351531 C141.978452,86.8482024 142.019564,88.0412783 142.040119,88.6378162 L140.025657,88.6378162 L139.984546,86.8055925 C139.614543,87.551265 138.915648,88.7443409 136.695629,88.7443409 C134.146718,88.7443409 132.954485,87.2316911 132.954485,85.1225033 L132.954485,77.942743 Z M153.55133,81.3728362 L151.598535,81.3728362 C151.557424,80.8828229 151.413534,79.1358189 149.542962,79.1358189 C146.870717,79.1358189 146.870717,82.3528628 146.870717,83.1624501 C146.870717,85.3568575 147.38461,87.4021305 149.440183,87.4021305 C151.084642,87.4021305 151.639647,86.1238349 151.680758,85.0798935 L153.633553,85.0798935 C153.510219,87.1677763 152.00965,88.9147803 149.460739,88.9147803 C148.761844,88.9147803 147.158497,88.7656458 146.069043,87.5299601 C145.452371,86.7842876 144.835699,85.6551265 144.835699,83.4394141 C144.835699,78.9866844 147.466833,77.665779 149.522406,77.665779 C150.200746,77.665779 151.742426,77.8149134 152.687989,78.9866844 C153.448551,79.9027963 153.510219,80.7762983 153.55133,81.3728362 Z M154.414671,79.3701731 L154.414671,77.9001332 L156.244131,77.9001332 L156.244131,75.6631158 L158.155814,75.023968 L158.155814,77.9001332 L160.458057,77.9001332 L160.458057,79.3701731 L158.155814,79.3701731 L158.155814,85.7829561 C158.155814,86.3155792 158.155814,87.2103862 159.533049,87.2103862 C159.923608,87.2103862 160.293611,87.1464714 160.458057,87.1038615 L160.458057,88.6591212 C160.108609,88.723036 159.553604,88.7869507 158.854709,88.7869507 C157.086916,88.7869507 156.244131,88.2543276 156.244131,86.5073236 L156.244131,79.3701731 L154.414671,79.3701731 Z M162.636964,77.942743 L164.610315,77.942743 L164.610315,84.8242344 C164.610315,85.8681758 164.836428,87.1890812 166.809778,87.1890812 C167.775898,87.1890812 168.68035,86.8482024 169.235355,85.9960053 C169.667025,85.3568575 169.667025,84.5259654 169.667025,83.9933422 L169.667025,77.942743 L171.660931,77.942743 L171.660931,86.6351531 C171.660931,86.8482024 171.702043,88.0412783 171.722599,88.6378162 L169.708137,88.6378162 L169.667025,86.8055925 C169.297022,87.551265 168.598127,88.7443409 166.378108,88.7443409 C163.829197,88.7443409 162.636964,87.2316911 162.636964,85.1225033 L162.636964,77.942743 Z M175.504854,88.6378162 L175.504854,80.1158455 C175.504854,79.391478 175.463742,78.6458056 175.402075,77.942743 L177.35487,77.942743 L177.395981,80.0093209 C177.765984,78.517976 178.999328,78.0279627 179.862669,77.9001332 C180.43823,77.8149134 180.8699,77.8362184 181.198792,77.8575233 L181.198792,79.8175766 C181.096013,79.7749667 180.972679,79.7536618 180.828789,79.7323569 C180.684899,79.7110519 180.499897,79.7110519 180.273784,79.7110519 C177.992097,79.7110519 177.457648,81.1171771 177.457648,82.9494008 L177.457648,88.6378162 L175.504854,88.6378162 Z M191.990552,83.6524634 L184.569932,83.6524634 C184.528821,85.8681758 185.412717,87.5086551 187.529958,87.5086551 C188.783858,87.5086551 189.791089,86.8268975 189.955534,85.2929427 L191.887773,85.2929427 C191.826106,85.8255659 191.743883,86.6990679 191.003877,87.5299601 C190.551651,88.0625832 189.523864,88.9573901 187.447735,88.9573901 C184.199929,88.9573901 182.658249,86.8695073 182.658249,83.482024 C182.658249,81.3728362 183.069364,79.6258322 184.693267,78.4540613 C185.679942,77.7296937 186.913286,77.665779 187.509402,77.665779 C192.134442,77.665779 192.031663,81.9054594 191.990552,83.6524634 Z M184.652155,82.2463382 L190.017202,82.2463382 C190.037757,81.2237017 189.852756,79.0932091 187.468291,79.0932091 C186.214391,79.0932091 184.693267,79.8814913 184.652155,82.2463382 Z" id="Cloud-Infrastructure" fill="#000000"></path>
        <path d="M153.022105,56.8552972 C150.391077,56.8552972 148.158469,55.0909091 147.475811,52.6576335 L162.123405,52.6576335 L164.142631,49.5129307 L147.475811,49.5129307 C148.158469,47.0942402 150.391077,45.3156722 153.022105,45.3156722 L163.075725,45.3156722 L165.109528,42.1705643 L152.794552,42.1705643 C147.873826,42.1705643 143.878291,46.1693038 143.878291,51.0925747 C143.878291,56.0158455 147.873826,60 152.794552,60 L163.360368,60 L165.38,56.8552972 L153.022105,56.8552972 L153.022105,56.8552972 Z M111.113532,60 C106.193615,60 102.197676,56.0158455 102.197676,51.0925747 C102.197676,46.1693038 106.193615,42.1705643 111.113532,42.1705643 L123.414741,42.1705643 L121.409686,45.3156722 L111.341489,45.3156722 C108.155751,45.3156722 105.567643,47.9053321 105.567643,51.0925747 C105.567643,54.2798172 108.155751,56.8552972 111.341489,56.8552972 L123.69898,56.8552972 L121.679753,60 L111.113532,60 Z M46.0370941,56.8552972 C49.2244519,56.8552972 51.8052725,54.2798172 51.8052725,51.0925747 C51.8052725,47.9053321 49.2244519,45.3156722 46.0370941,45.3156722 L36.1397649,45.3156722 C32.9544315,45.3156722 30.3715865,47.9053321 30.3715865,51.0925747 C30.3715865,54.2798172 32.9544315,56.8552972 36.1397649,56.8552972 L46.0370941,56.8552972 Z M35.9109974,60 C30.9918904,60 27,56.0158455 27,51.0925747 C27,46.1693038 30.9918904,42.1705643 35.9109974,42.1705643 L46.267886,42.1705643 C51.1878028,42.1705643 55.176859,46.1693038 55.176859,51.0925747 C55.176859,56.0158455 51.1878028,60 46.267886,60 L35.9109974,60 Z M71.992682,54.2226924 C75.3205396,54.2226924 78.0224246,51.533773 78.0224246,48.2039209 C78.0224246,44.8744739 75.3205396,42.1705643 71.992682,42.1705643 L57.0001151,42.1705643 L57.0001151,60 L60.425958,60 L60.425958,45.3156722 L71.7651293,45.3156722 C73.3579984,45.3156722 74.6378814,46.610097 74.6378814,48.2039209 C74.6378814,49.7977447 73.3579984,51.0925747 71.7651293,51.0925747 L62.1038557,51.0783947 L72.3340111,60 L77.3114235,60 L70.4285607,54.2226924 L71.992682,54.2226924 Z M128.690563,56.8552972 L128.690563,42.1705643 L125.263101,42.1705643 L125.263101,58.2923316 C125.263101,58.7335299 125.433968,59.1605483 125.761126,59.487902 C126.087878,59.8148507 126.528812,60 127.012666,60 L142.640923,60 L144.660554,56.8552972 L128.690563,56.8552972 Z M86.7394758,53.7105944 L95.8832897,53.7105944 L91.0484014,45.9274348 L82.1746546,60 L78.136201,60 L88.9295697,43.0959058 C89.3988466,42.4128385 90.1811097,42 91.0484014,42 C91.8877552,42 92.6696134,42.3982534 93.124314,43.0671408 L103.960602,60 L99.9221483,60 L98.0162929,56.8552972 L88.7587027,56.8552972 L86.7394758,53.7105944 Z M167.223439,45.6842802 C166.209304,45.6842802 165.38,44.861129 165.38,43.8419541 C165.38,42.8231511 166.209304,42 167.223439,42 C168.250696,42 169.08,42.8231511 169.08,43.8419541 C169.08,44.861129 168.250696,45.6842802 167.223439,45.6842802 Z M167.052105,42.7446672 C167.341911,42.7446672 167.460383,42.7576859 167.592352,42.8101325 C167.96089,42.9276724 168.00063,43.2542547 168.00063,43.3848132 C168.00063,43.4108505 168.00063,43.4763158 167.974012,43.5544277 C167.96089,43.6329117 167.908027,43.7898795 167.723571,43.9074194 C167.697702,43.920438 167.68458,43.9334567 167.631717,43.959494 L168.10598,44.8090544 L167.644839,44.8090544 L167.223439,44.0249592 L166.934007,44.0249592 L166.934007,44.8090544 L166.525729,44.8090544 L166.525729,42.7446672 L167.052105,42.7446672 Z M167.197195,43.6853582 C167.328789,43.6723396 167.460383,43.6723396 167.539489,43.5544277 C167.57923,43.5023531 167.592352,43.4502785 167.592352,43.3717946 C167.592352,43.2672733 167.526367,43.1757708 167.434139,43.1236962 C167.341911,43.0842682 167.250058,43.0842682 167.052105,43.0842682 L166.934007,43.0842682 L166.934007,43.6853582 L167.197195,43.6853582 Z M165.775157,43.8289354 C165.775157,44.6390679 166.420379,45.2792139 167.223439,45.2792139 C168.039996,45.2792139 168.685218,44.6390679 168.685218,43.8289354 C168.685218,43.0321936 168.039996,42.3920476 167.223439,42.3920476 C166.420379,42.3920476 165.775157,43.0321936 165.775157,43.8289354 Z" id="ORACLE" fill="#EC1D24"></path>
    </g>
</svg>