<?xml version="1.0" encoding="UTF-8"?>
<svg width="192px" height="64px" viewBox="0 0 192 64" version="1.1" xmlns="http://www.w3.org/2000/svg" xmlns:xlink="http://www.w3.org/1999/xlink">
        <g id="Provider/OracleCI/oci-64" stroke="none" stroke-width="1" fill="none" fill-rule="evenodd">
        <path d="M11.8195468,42.4101198 L9.62008333,42.4101198 C9.5378604,41.8774967 9.27063586,39.747004 6.41338889,39.747004 C2.83669124,39.747004 2.1994635,43.539281 2.1994635,46.0958722 C2.1994635,48.9933422 3.00113711,52.1251664 6.39283316,52.1251664 C7.29728543,52.1251664 8.16062625,51.8908123 8.79785399,51.2090546 C9.33230306,50.6125166 9.45563746,49.9520639 9.51730467,49.5898802 L11.7784354,49.5898802 C11.4700994,52.6151798 8.77729826,53.8721704 6.22838729,53.8721704 C1.00723095,53.8721704 0,49.0998668 0,46.1171771 C0,42.8788282 1.21278828,38.0426099 6.49561182,38.0426099 C8.59229665,38.0426099 11.5523223,38.9161119 11.8195468,42.4101198 Z M14.430125,53.6378162 L14.430125,38.276964 L16.362364,38.276964 L16.362364,53.6378162 L14.430125,53.6378162 Z M19.3429453,48.4181092 C19.3429453,45.7762983 20.5351779,42.665779 24.5846574,42.665779 C28.7163599,42.665779 29.6413679,46.0319574 29.6413679,48.2689747 C29.6413679,51.4007989 27.935242,54 24.4202115,54 C21.0079598,54 19.3429453,51.5499334 19.3429453,48.4181092 Z M21.3574072,48.2902796 C21.3574072,50.4846871 22.2618595,52.5086551 24.461323,52.5086551 C25.9207801,52.5086551 27.5857945,51.4221039 27.5857945,48.2050599 C27.5857945,45.5419441 26.393562,44.1358189 24.5846574,44.1358189 C23.3513134,44.1358189 21.3574072,44.9454061 21.3574072,48.2902796 Z M32.4575034,42.942743 L34.4308538,42.942743 L34.4308538,49.8242344 C34.4308538,50.8681758 34.6569669,52.1890812 36.6303173,52.1890812 C37.5964368,52.1890812 38.5008891,51.8482024 39.0558939,50.9960053 C39.4875643,50.3568575 39.4875643,49.5259654 39.4875643,48.9933422 L39.4875643,42.942743 L41.4814704,42.942743 L41.4814704,51.6351531 C41.4814704,51.8482024 41.5225819,53.0412783 41.5431376,53.6378162 L39.5286757,53.6378162 L39.4875643,51.8055925 C39.1175611,52.551265 38.4186661,53.7443409 36.1986469,53.7443409 C33.6497359,53.7443409 32.4575034,52.2316911 32.4575034,50.1225033 L32.4575034,42.942743 Z M52.3760093,44.391478 L52.3760093,38.276964 L54.3082482,38.276964 L54.3082482,51.9334221 C54.3082482,52.1677763 54.3493597,53.0838881 54.3904712,53.6378162 L52.4582322,53.6378162 L52.4171207,51.9334221 C52.2526749,52.2316911 52.0265618,52.6790945 51.4921127,53.0625832 C50.6493276,53.6591212 49.6420967,53.8508655 48.9432017,53.8508655 C47.5659676,53.8508655 44.5031633,53.1051931 44.5031633,48.4181092 C44.5031633,44.3488682 46.7437382,42.5805593 49.1693148,42.5805593 C51.389334,42.5805593 52.1293405,43.9440746 52.3760093,44.391478 Z M52.4376765,48.1411451 C52.4376765,46.5858855 52.088229,45.7336884 51.6565586,45.1584554 C51.2454439,44.6045273 50.4848818,44.0719041 49.3954279,44.0719041 C46.5587366,44.0719041 46.5587366,47.6298269 46.5587366,48.3541944 C46.5587366,50.2503329 47.0315185,52.4447403 49.3954279,52.4447403 C52.4376765,52.4447403 52.4376765,48.9720373 52.4376765,48.1411451 Z M63.4966611,53.6378162 L63.4966611,38.2556591 L65.5522345,38.2556591 L65.5522345,53.6378162 L63.4966611,53.6378162 Z M69.2728223,53.6378162 L69.2728223,44.1784288 L69.2522666,42.942743 L71.1845055,42.942743 L71.2050613,44.6684421 C71.4311743,44.2210386 72.1711807,42.7296937 74.5145344,42.7296937 C75.4395424,42.7296937 78.2556779,43.0918775 78.2556779,46.3728362 L78.2556779,53.6378162 L76.2823275,53.6378162 L76.2823275,46.8415446 C76.2823275,46.138482 76.2001045,45.4993342 75.7273227,45.0093209 C75.233985,44.5193076 74.5556458,44.2849534 73.8978624,44.2849534 C72.5000725,44.2849534 71.2050613,45.3288948 71.2050613,47.4806924 L71.2050613,53.6378162 L69.2728223,53.6378162 Z M86.9301975,38.1491345 L86.9301975,39.747004 C86.6013057,39.7256991 86.1901911,39.7043941 85.7996321,39.7043941 C84.2373964,39.7043941 84.2373964,40.5139814 84.2373964,41.2596538 L84.2373964,42.942743 L86.6424172,42.942743 L86.6424172,44.391478 L84.2373964,44.391478 L84.2373964,53.6378162 L82.3257131,53.6378162 L82.3257131,44.391478 L80.2906955,44.391478 L80.2906955,42.942743 L82.3257131,42.942743 L82.3257131,41.7283622 C82.3257131,40.2583222 82.4079361,39.7256991 82.7573835,39.171771 C83.189054,38.4900133 84.0112833,38 85.347406,38 C85.9024108,38 86.5190828,38.0852197 86.9301975,38.1491345 Z M88.7185463,53.6378162 L88.7185463,45.1158455 C88.7185463,44.391478 88.6774348,43.6458056 88.6157676,42.942743 L90.5685623,42.942743 L90.6096738,45.0093209 C90.979677,43.517976 92.213021,43.0279627 93.0763618,42.9001332 C93.6519224,42.8149134 94.0835928,42.8362184 94.4124845,42.8575233 L94.4124845,44.8175766 C94.3097058,44.7749667 94.1863714,44.7536618 94.0424813,44.7323569 C93.8985912,44.7110519 93.7135896,44.7110519 93.4874765,44.7110519 C91.2057901,44.7110519 90.671341,46.1171771 90.671341,47.9494008 L90.671341,53.6378162 L88.7185463,53.6378162 Z M104.64924,53.6378162 L102.902002,53.6378162 C102.758112,53.1051931 102.717001,52.5938748 102.717001,52.0399467 C101.791993,53.8082557 100.394203,53.9786951 99.5308622,53.9786951 C97.1669528,53.9786951 95.8924973,52.5938748 95.8924973,50.8255659 C95.8924973,49.9733688 96.1802776,48.6098535 97.7014019,47.6937417 C98.8114115,47.0545939 100.45587,46.9906791 101.2781,46.9906791 C101.771437,46.9906791 102.079773,47.011984 102.675889,47.0545939 C102.675889,45.7336884 102.675889,45.1584554 102.305886,44.689747 C101.915327,44.1571238 101.072542,43.9866844 100.517537,43.9866844 C98.5647427,43.9866844 98.461964,45.3715047 98.4414083,45.7976032 L96.5091693,45.7976032 C96.5708365,45.2436751 96.6325037,44.4980027 97.22862,43.7736352 C98.0097379,42.8788282 99.469195,42.6231691 100.558649,42.6231691 C102.059217,42.6231691 103.662565,43.1131824 104.217569,44.1997337 C104.546461,44.8388815 104.567017,45.3501997 104.567017,45.840213 L104.484794,50.9533955 C104.484794,51.1238349 104.50535,52.551265 104.64924,53.6378162 Z M102.675889,48.4394141 C102.326442,48.3968043 102.038662,48.3754993 101.56588,48.3754993 C100.784762,48.3754993 97.845292,48.3754993 97.845292,50.5486019 C97.845292,51.2303595 98.2564067,52.4021305 99.9830883,52.4021305 C100.969764,52.4021305 101.70977,51.9973369 102.182552,51.2516644 C102.614222,50.5272969 102.634778,49.930759 102.675889,48.4394141 Z M107.115928,50.4633822 L109.150946,50.4633822 C109.13039,51.2729694 109.541504,52.4021305 111.412076,52.4021305 C112.21375,52.4021305 112.809866,52.252996 113.220981,51.7203728 C113.426538,51.4434088 113.549873,51.081225 113.549873,50.7190413 C113.549873,49.6750999 112.830422,49.4833555 111.288742,49.1211718 C109.13039,48.6098535 107.321485,48.1624501 107.321485,45.9254328 C107.321485,43.9653795 108.965944,42.6870839 111.350409,42.6870839 C112.64542,42.6870839 114.454325,43.0705726 115.070997,44.3488682 C115.338221,44.9454061 115.338221,45.4567244 115.338221,45.9041278 L113.364871,45.9041278 C113.426538,44.2849534 112.06986,44.1571238 111.370965,44.1571238 C111.083184,44.1571238 109.27428,44.1571238 109.27428,45.6910786 C109.27428,46.6711052 110.199288,46.9054594 110.733737,47.0545939 C113.590984,47.7576565 114.207656,47.9280959 114.824328,48.5246338 C115.399889,49.0785619 115.605446,49.8242344 115.605446,50.505992 C115.605446,51.6990679 114.968218,52.7217044 114.207656,53.2117177 C113.303204,53.7869507 112.21375,53.9360852 111.144852,53.9360852 C109.048167,53.9360852 107.095372,53.0412783 107.115928,50.4633822 Z M116.736011,44.3701731 L116.736011,42.9001332 L118.565472,42.9001332 L118.565472,40.6631158 L120.477155,40.023968 L120.477155,42.9001332 L122.779397,42.9001332 L122.779397,44.3701731 L120.477155,44.3701731 L120.477155,50.7829561 C120.477155,51.3155792 120.477155,52.2103862 121.854389,52.2103862 C122.244948,52.2103862 122.614951,52.1464714 122.779397,52.1038615 L122.779397,53.6591212 C122.429949,53.723036 121.874945,53.7869507 121.17605,53.7869507 C119.408257,53.7869507 118.565472,53.2543276 118.565472,51.5073236 L118.565472,44.3701731 L116.736011,44.3701731 Z M125.266641,53.6378162 L125.266641,45.1158455 C125.266641,44.391478 125.225529,43.6458056 125.163862,42.942743 L127.116657,42.942743 L127.157768,45.0093209 C127.527771,43.517976 128.761115,43.0279627 129.624456,42.9001332 C130.200017,42.8149134 130.631687,42.8362184 130.960579,42.8575233 L130.960579,44.8175766 C130.8578,44.7749667 130.734466,44.7536618 130.590576,44.7323569 C130.446686,44.7110519 130.261684,44.7110519 130.035571,44.7110519 C127.753884,44.7110519 127.219435,46.1171771 127.219435,47.9494008 L127.219435,53.6378162 L125.266641,53.6378162 Z M132.954485,42.942743 L134.927835,42.942743 L134.927835,49.8242344 C134.927835,50.8681758 135.153949,52.1890812 137.127299,52.1890812 C138.093418,52.1890812 138.997871,51.8482024 139.552876,50.9960053 C139.984546,50.3568575 139.984546,49.5259654 139.984546,48.9933422 L139.984546,42.942743 L141.978452,42.942743 L141.978452,51.6351531 C141.978452,51.8482024 142.019564,53.0412783 142.040119,53.6378162 L140.025657,53.6378162 L139.984546,51.8055925 C139.614543,52.551265 138.915648,53.7443409 136.695629,53.7443409 C134.146718,53.7443409 132.954485,52.2316911 132.954485,50.1225033 L132.954485,42.942743 Z M153.55133,46.3728362 L151.598535,46.3728362 C151.557424,45.8828229 151.413534,44.1358189 149.542962,44.1358189 C146.870717,44.1358189 146.870717,47.3528628 146.870717,48.1624501 C146.870717,50.3568575 147.38461,52.4021305 149.440183,52.4021305 C151.084642,52.4021305 151.639647,51.1238349 151.680758,50.0798935 L153.633553,50.0798935 C153.510219,52.1677763 152.00965,53.9147803 149.460739,53.9147803 C148.761844,53.9147803 147.158497,53.7656458 146.069043,52.5299601 C145.452371,51.7842876 144.835699,50.6551265 144.835699,48.4394141 C144.835699,43.9866844 147.466833,42.665779 149.522406,42.665779 C150.200746,42.665779 151.742426,42.8149134 152.687989,43.9866844 C153.448551,44.9027963 153.510219,45.7762983 153.55133,46.3728362 Z M154.414671,44.3701731 L154.414671,42.9001332 L156.244131,42.9001332 L156.244131,40.6631158 L158.155814,40.023968 L158.155814,42.9001332 L160.458057,42.9001332 L160.458057,44.3701731 L158.155814,44.3701731 L158.155814,50.7829561 C158.155814,51.3155792 158.155814,52.2103862 159.533049,52.2103862 C159.923608,52.2103862 160.293611,52.1464714 160.458057,52.1038615 L160.458057,53.6591212 C160.108609,53.723036 159.553604,53.7869507 158.854709,53.7869507 C157.086916,53.7869507 156.244131,53.2543276 156.244131,51.5073236 L156.244131,44.3701731 L154.414671,44.3701731 Z M162.636964,42.942743 L164.610315,42.942743 L164.610315,49.8242344 C164.610315,50.8681758 164.836428,52.1890812 166.809778,52.1890812 C167.775898,52.1890812 168.68035,51.8482024 169.235355,50.9960053 C169.667025,50.3568575 169.667025,49.5259654 169.667025,48.9933422 L169.667025,42.942743 L171.660931,42.942743 L171.660931,51.6351531 C171.660931,51.8482024 171.702043,53.0412783 171.722599,53.6378162 L169.708137,53.6378162 L169.667025,51.8055925 C169.297022,52.551265 168.598127,53.7443409 166.378108,53.7443409 C163.829197,53.7443409 162.636964,52.2316911 162.636964,50.1225033 L162.636964,42.942743 Z M175.504854,53.6378162 L175.504854,45.1158455 C175.504854,44.391478 175.463742,43.6458056 175.402075,42.942743 L177.35487,42.942743 L177.395981,45.0093209 C177.765984,43.517976 178.999328,43.0279627 179.862669,42.9001332 C180.43823,42.8149134 180.8699,42.8362184 181.198792,42.8575233 L181.198792,44.8175766 C181.096013,44.7749667 180.972679,44.7536618 180.828789,44.7323569 C180.684899,44.7110519 180.499897,44.7110519 180.273784,44.7110519 C177.992097,44.7110519 177.457648,46.1171771 177.457648,47.9494008 L177.457648,53.6378162 L175.504854,53.6378162 Z M191.990552,48.6524634 L184.569932,48.6524634 C184.528821,50.8681758 185.412717,52.5086551 187.529958,52.5086551 C188.783858,52.5086551 189.791089,51.8268975 189.955534,50.2929427 L191.887773,50.2929427 C191.826106,50.8255659 191.743883,51.6990679 191.003877,52.5299601 C190.551651,53.0625832 189.523864,53.9573901 187.447735,53.9573901 C184.199929,53.9573901 182.658249,51.8695073 182.658249,48.482024 C182.658249,46.3728362 183.069364,44.6258322 184.693267,43.4540613 C185.679942,42.7296937 186.913286,42.665779 187.509402,42.665779 C192.134442,42.665779 192.031663,46.9054594 191.990552,48.6524634 Z M184.652155,47.2463382 L190.017202,47.2463382 C190.037757,46.2237017 189.852756,44.0932091 187.468291,44.0932091 C186.214391,44.0932091 184.693267,44.8814913 184.652155,47.2463382 Z" id="Cloud-Infrastructure" fill="#000000"></path>
        <path d="M126.022105,24.8552972 C123.391077,24.8552972 121.158469,23.0909091 120.475811,20.6576335 L135.123405,20.6576335 L137.142631,17.5129307 L120.475811,17.5129307 C121.158469,15.0942402 123.391077,13.3156722 126.022105,13.3156722 L136.075725,13.3156722 L138.109528,10.1705643 L125.794552,10.1705643 C120.873826,10.1705643 116.878291,14.1693038 116.878291,19.0925747 C116.878291,24.0158455 120.873826,28 125.794552,28 L136.360368,28 L138.38,24.8552972 L126.022105,24.8552972 L126.022105,24.8552972 Z M84.1135318,28 C79.193615,28 75.1976756,24.0158455 75.1976756,19.0925747 C75.1976756,14.1693038 79.193615,10.1705643 84.1135318,10.1705643 L96.4147411,10.1705643 L94.4096857,13.3156722 L84.3414894,13.3156722 C81.1557512,13.3156722 78.5676425,15.9053321 78.5676425,19.0925747 C78.5676425,22.2798172 81.1557512,24.8552972 84.3414894,24.8552972 L96.6989795,24.8552972 L94.6797527,28 L84.1135318,28 Z M19.0370941,24.8552972 C22.2244519,24.8552972 24.8052725,22.2798172 24.8052725,19.0925747 C24.8052725,15.9053321 22.2244519,13.3156722 19.0370941,13.3156722 L9.13976487,13.3156722 C5.9544315,13.3156722 3.3715865,15.9053321 3.3715865,19.0925747 C3.3715865,22.2798172 5.9544315,24.8552972 9.13976487,24.8552972 L19.0370941,24.8552972 Z M8.91099744,28 C3.99189039,28 0,24.0158455 0,19.0925747 C0,14.1693038 3.99189039,10.1705643 8.91099744,10.1705643 L19.267886,10.1705643 C24.1878028,10.1705643 28.176859,14.1693038 28.176859,19.0925747 C28.176859,24.0158455 24.1878028,28 19.267886,28 L8.91099744,28 Z M44.992682,22.2226924 C48.3205396,22.2226924 51.0224246,19.533773 51.0224246,16.2039209 C51.0224246,12.8744739 48.3205396,10.1705643 44.992682,10.1705643 L30.0001151,10.1705643 L30.0001151,28 L33.425958,28 L33.425958,13.3156722 L44.7651293,13.3156722 C46.3579984,13.3156722 47.6378814,14.610097 47.6378814,16.2039209 C47.6378814,17.7977447 46.3579984,19.0925747 44.7651293,19.0925747 L35.1038557,19.0783947 L45.3340111,28 L50.3114235,28 L43.4285607,22.2226924 L44.992682,22.2226924 Z M101.690563,24.8552972 L101.690563,10.1705643 L98.2631009,10.1705643 L98.2631009,26.2923316 C98.2631009,26.7335299 98.4339679,27.1605483 98.7611256,27.487902 C99.0878783,27.8148507 99.5288124,28 100.012666,28 L115.640923,28 L117.660554,24.8552972 L101.690563,24.8552972 Z M59.7394758,21.7105944 L68.8832897,21.7105944 L64.0484014,13.9274348 L55.1746546,28 L51.136201,28 L61.9295697,11.0959058 C62.3988466,10.4128385 63.1811097,10 64.0484014,10 C64.8877552,10 65.6696134,10.3982534 66.124314,11.0671408 L76.9606019,28 L72.9221483,28 L71.0162929,24.8552972 L61.7587027,24.8552972 L59.7394758,21.7105944 Z M140.223439,13.6842802 C139.209304,13.6842802 138.38,12.861129 138.38,11.8419541 C138.38,10.8231511 139.209304,10 140.223439,10 C141.250696,10 142.08,10.8231511 142.08,11.8419541 C142.08,12.861129 141.250696,13.6842802 140.223439,13.6842802 Z M140.052105,10.7446672 C140.341911,10.7446672 140.460383,10.7576859 140.592352,10.8101325 C140.96089,10.9276724 141.00063,11.2542547 141.00063,11.3848132 C141.00063,11.4108505 141.00063,11.4763158 140.974012,11.5544277 C140.96089,11.6329117 140.908027,11.7898795 140.723571,11.9074194 C140.697702,11.920438 140.68458,11.9334567 140.631717,11.959494 L141.10598,12.8090544 L140.644839,12.8090544 L140.223439,12.0249592 L139.934007,12.0249592 L139.934007,12.8090544 L139.525729,12.8090544 L139.525729,10.7446672 L140.052105,10.7446672 Z M140.197195,11.6853582 C140.328789,11.6723396 140.460383,11.6723396 140.539489,11.5544277 C140.57923,11.5023531 140.592352,11.4502785 140.592352,11.3717946 C140.592352,11.2672733 140.526367,11.1757708 140.434139,11.1236962 C140.341911,11.0842682 140.250058,11.0842682 140.052105,11.0842682 L139.934007,11.0842682 L139.934007,11.6853582 L140.197195,11.6853582 Z M138.775157,11.8289354 C138.775157,12.6390679 139.420379,13.2792139 140.223439,13.2792139 C141.039996,13.2792139 141.685218,12.6390679 141.685218,11.8289354 C141.685218,11.0321936 141.039996,10.3920476 140.223439,10.3920476 C139.420379,10.3920476 138.775157,11.0321936 138.775157,11.8289354 Z" id="ORACLE" fill="#EC1D24"></path>
    </g>
</svg>