<?xml version="1.0" encoding="UTF-8" standalone="no"?>
<svg
   version="1.1"
   viewBox="0 0 80 32"
   height="32"
   width="80"
   id="svg3453"
   sodipodi:docname="olvm-32.svg"
   inkscape:version="1.4.3 (0d15f75, 2025-12-25)"
   xmlns:inkscape="http://www.inkscape.org/namespaces/inkscape"
   xmlns:sodipodi="http://sodipodi.sourceforge.net/DTD/sodipodi-0.dtd"
   xmlns="http://www.w3.org/2000/svg"
   xmlns:svg="http://www.w3.org/2000/svg">
  <defs
     id="defs1" />
  <sodipodi:namedview
     id="namedview1"
     pagecolor="#ffffff"
     bordercolor="#000000"
     borderopacity="0.25"
     inkscape:showpageshadow="2"
     inkscape:pageopacity="0.0"
     inkscape:pagecheckerboard="0"
     inkscape:deskcolor="#d1d1d1"
     inkscape:zoom="8.26282"
     inkscape:cx="39.453842"
     inkscape:cy="27.109389"
     inkscape:window-width="1440"
     inkscape:window-height="781"
     inkscape:window-x="0"
     inkscape:window-y="30"
     inkscape:window-maximized="0"
     inkscape:current-layer="svg3453" />
  <g
     id="g3">
    <g
       transform="matrix(0.56306306,0,0,0.49382716,-15.202702,-19.685185)"
       id="Provider/OracleCIC/opc-128"
       stroke="none"
       stroke-width="0.501761"
       fill="none"
       fill-rule="evenodd"
       style="fill:#616870;fill-opacity:1">
      <path
         d="m 153.0221,67.712209 c -2.63102,0 -4.86363,-1.984936 -5.54629,-4.722371 h 14.64759 l 2.01923,-3.537791 h -16.66682 c 0.68266,-2.721027 2.91527,-4.721916 5.54629,-4.721916 h 10.05362 l 2.03381,-3.538246 h -12.31498 c -4.92072,0 -8.91626,4.498582 -8.91626,10.037262 0,5.538679 3.99554,10.020853 8.91626,10.020853 h 10.56582 L 165.38,67.712209 Z M 111.11353,71.25 c -4.91992,0 -8.91585,-4.482174 -8.91585,-10.020853 0,-5.53868 3.99593,-10.037262 8.91585,-10.037262 h 12.30121 l -2.00505,3.538246 h -10.0682 c -3.18574,0 -5.77385,2.913368 -5.77385,6.499016 0,3.585647 2.58811,6.483062 5.77385,6.483062 h 12.35749 L 121.67975,71.25 Z M 46.037094,67.712209 c 3.187358,0 5.768178,-2.897415 5.768178,-6.483062 0,-3.585648 -2.58082,-6.499016 -5.768178,-6.499016 h -9.897329 c -3.185334,0 -5.768179,2.913368 -5.768179,6.499016 0,3.585647 2.582845,6.483062 5.768179,6.483062 z M 35.910997,71.25 C 30.99189,71.25 27,66.767826 27,61.229147 c 0,-5.53868 3.99189,-10.037262 8.910997,-10.037262 h 10.356889 c 4.919917,0 8.908973,4.498582 8.908973,10.037262 0,5.538679 -3.989056,10.020853 -8.908973,10.020853 z m 36.081685,-6.499471 c 3.327858,0 6.029743,-3.025034 6.029743,-6.771118 0,-3.745628 -2.701885,-6.787526 -6.029743,-6.787526 H 57.000115 V 71.25 h 3.425843 V 54.730131 h 11.339171 c 1.592869,0 2.872752,1.456228 2.872752,3.24928 0,1.793052 -1.279883,3.249736 -2.872752,3.249736 L 62.103856,61.213194 72.334011,71.25 h 4.977413 l -6.882863,-6.499471 z m 56.697878,2.96168 V 51.191885 h -3.42746 v 18.136989 c 0,0.496347 0.17087,0.976743 0.49803,1.345016 0.32675,0.367817 0.76768,0.57611 1.25154,0.57611 h 15.62825 l 2.01963,-3.537791 z M 86.739476,64.174418 H 95.88329 L 91.048401,55.418364 82.174655,71.25 H 78.136201 L 88.92957,52.232894 C 89.398847,51.464443 90.18111,51 91.048401,51 c 0.839354,0 1.621212,0.448035 2.075913,1.200534 L 103.9606,71.25 h -4.038452 l -1.905855,-3.537791 h -9.25759 z m 80.483964,-9.029603 c -1.01414,0 -1.84344,-0.926045 -1.84344,-2.072617 C 165.38,51.926045 166.2093,51 167.22344,51 c 1.02726,0 1.85656,0.926045 1.85656,2.072198 0,1.146572 -0.8293,2.072617 -1.85656,2.072617 z M 167.0521,51.83775 c 0.28981,0 0.40828,0.01465 0.54025,0.07365 0.36854,0.132232 0.40828,0.499637 0.40828,0.646515 0,0.0293 0,0.102938 -0.0266,0.190817 -0.0131,0.08829 -0.066,0.264882 -0.25044,0.397115 -0.0259,0.01465 -0.039,0.02929 -0.0918,0.05859 l 0.47426,0.955755 h -0.46114 l -0.4214,-0.882107 h -0.28943 v 0.882107 h -0.40828 v -2.322435 z m 0.14509,1.058278 c 0.1316,-0.01465 0.26319,-0.01465 0.3423,-0.147296 0.0397,-0.05859 0.0529,-0.117168 0.0529,-0.205463 0,-0.117587 -0.066,-0.220527 -0.15821,-0.279111 -0.0922,-0.04436 -0.18408,-0.04436 -0.38204,-0.04436 h -0.11809 v 0.676227 z m -1.42203,0.161524 c 0,0.9114 0.64522,1.631564 1.44828,1.631564 0.81656,0 1.46178,-0.720164 1.46178,-1.631564 0,-0.896334 -0.64522,-1.616498 -1.46178,-1.616498 -0.80306,0 -1.44828,0.720164 -1.44828,1.616498 z"
         id="ORACLE"
         fill="#ec1d24"
         style="fill:#616870;fill-opacity:1;stroke-width:0.501761" />
    </g>
    <g
       id="g1"
       transform="matrix(0.65267908,0,0,0.52404353,-16.131531,-13.559436)"
       style="fill:#616870;fill-opacity:1;stroke-width:1.70989">
      <g
         id="g2"
         style="fill:#616870;fill-opacity:1;stroke-width:0.10477;stroke-dasharray:none"
         transform="matrix(3.8910942,0,0,4.7918771,-0.42738723,-34.237288)">
        <path
           id="path934"
           style="font-style:normal;font-variant:normal;font-weight:normal;font-stretch:normal;font-size:3.83434px;line-height:1.05;font-family:Rubik;-inkscape-font-specification:'Rubik, Normal';font-variant-ligatures:normal;font-variant-caps:normal;font-variant-numeric:normal;font-variant-east-asian:normal;fill:#616870;fill-opacity:1;stroke-width:0.10477;stroke-dasharray:none"
           d="m 11.595541,23.059128 q -0.05752,0 -0.09202,-0.02684 -0.03068,-0.02684 -0.04985,-0.07285 l -0.855058,-2.465481 q -0.0077,-0.02301 -0.0077,-0.04218 0,-0.03067 0.02301,-0.05368 0.02301,-0.02301 0.05368,-0.02301 h 0.199386 q 0.04601,0 0.06902,0.02684 0.02684,0.02301 0.03068,0.04218 l 0.751531,2.174071 0.75153,-2.174071 q 0.0077,-0.01917 0.03067,-0.04218 0.02301,-0.02684 0.06902,-0.02684 h 0.199386 q 0.03068,0 0.05368,0.02301 0.02684,0.02301 0.02684,0.05368 0,0.01917 -0.0077,0.04218 l -0.858892,2.465481 q -0.01534,0.04601 -0.04985,0.07285 -0.03068,0.02684 -0.08819,0.02684 z" />
        <path
           id="path936"
           style="font-style:normal;font-variant:normal;font-weight:normal;font-stretch:normal;font-size:3.83434px;line-height:1.05;font-family:Rubik;-inkscape-font-specification:'Rubik, Normal';font-variant-ligatures:normal;font-variant-caps:normal;font-variant-numeric:normal;font-variant-east-asian:normal;fill:#616870;fill-opacity:1;stroke-width:0.10477;stroke-dasharray:none"
           d="m 13.300205,23.059128 q -0.03834,0 -0.06518,-0.02301 -0.02301,-0.02684 -0.02301,-0.06518 v -1.817477 q 0,-0.03834 0.02301,-0.06135 0.02684,-0.02684 0.06518,-0.02684 h 0.184048 q 0.03834,0 0.06135,0.02684 0.02301,0.02301 0.02301,0.06135 v 1.817477 q 0,0.03834 -0.02301,0.06518 -0.02301,0.02301 -0.06135,0.02301 z M 13.26953,20.69334 q -0.03834,0 -0.06518,-0.02301 -0.02301,-0.02684 -0.02301,-0.06518 v -0.207054 q 0,-0.03834 0.02301,-0.06135 0.02684,-0.02684 0.06518,-0.02684 h 0.241564 q 0.03834,0 0.06135,0.02684 0.02684,0.02301 0.02684,0.06135 v 0.207054 q 0,0.03834 -0.02684,0.06518 -0.02301,0.02301 -0.06135,0.02301 z" />
        <path
           id="path938"
           style="font-style:normal;font-variant:normal;font-weight:normal;font-stretch:normal;font-size:3.83434px;line-height:1.05;font-family:Rubik;-inkscape-font-specification:'Rubik, Normal';font-variant-ligatures:normal;font-variant-caps:normal;font-variant-numeric:normal;font-variant-east-asian:normal;fill:#616870;fill-opacity:1;stroke-width:0.10477;stroke-dasharray:none"
           d="m 14.228834,23.059128 q -0.03834,0 -0.06518,-0.02301 -0.02301,-0.02684 -0.02301,-0.06518 v -1.813643 q 0,-0.03834 0.02301,-0.06518 0.02684,-0.02684 0.06518,-0.02684 h 0.176379 q 0.03834,0 0.06518,0.02684 0.02684,0.02684 0.02684,0.06518 v 0.168711 q 0.07669,-0.130367 0.210888,-0.195551 0.134202,-0.06518 0.322085,-0.06518 h 0.153373 q 0.03834,0 0.06135,0.02684 0.02301,0.02301 0.02301,0.06135 v 0.157208 q 0,0.03834 -0.02301,0.06135 -0.02301,0.02301 -0.06135,0.02301 h -0.23006 q -0.207054,0 -0.325919,0.122699 -0.118864,0.118865 -0.118864,0.325919 v 1.127296 q 0,0.03834 -0.02684,0.06518 -0.02684,0.02301 -0.06518,0.02301 z" />
        <path
           id="path940"
           style="font-style:normal;font-variant:normal;font-weight:normal;font-stretch:normal;font-size:3.83434px;line-height:1.05;font-family:Rubik;-inkscape-font-specification:'Rubik, Normal';font-variant-ligatures:normal;font-variant-caps:normal;font-variant-numeric:normal;font-variant-east-asian:normal;fill:#616870;fill-opacity:1;stroke-width:0.10477;stroke-dasharray:none"
           d="m 16.379359,23.059128 q -0.214723,0 -0.348925,-0.08052 -0.134202,-0.08436 -0.195551,-0.233895 -0.06135,-0.153374 -0.06135,-0.360428 v -1.012266 h -0.299079 q -0.03834,0 -0.06518,-0.02301 -0.02301,-0.02684 -0.02301,-0.06518 v -0.130367 q 0,-0.03834 0.02301,-0.06135 0.02684,-0.02684 0.06518,-0.02684 h 0.299079 v -0.640335 q 0,-0.03834 0.02301,-0.06135 0.02684,-0.02684 0.06518,-0.02684 h 0.180214 q 0.03834,0 0.06135,0.02684 0.02684,0.02301 0.02684,0.06135 v 0.640335 h 0.475458 q 0.03834,0 0.06135,0.02684 0.02684,0.02301 0.02684,0.06135 v 0.130367 q 0,0.03834 -0.02684,0.06518 -0.02301,0.02301 -0.06135,0.02301 h -0.475458 v 0.985426 q 0,0.180214 0.06135,0.283741 0.06135,0.103527 0.218557,0.103527 h 0.233895 q 0.03834,0 0.06135,0.02684 0.02684,0.02301 0.02684,0.06135 v 0.138036 q 0,0.03834 -0.02684,0.06518 -0.02301,0.02301 -0.06135,0.02301 z" />
        <path
           id="path942"
           style="font-style:normal;font-variant:normal;font-weight:normal;font-stretch:normal;font-size:3.83434px;line-height:1.05;font-family:Rubik;-inkscape-font-specification:'Rubik, Normal';font-variant-ligatures:normal;font-variant-caps:normal;font-variant-numeric:normal;font-variant-east-asian:normal;fill:#616870;fill-opacity:1;stroke-width:0.10477;stroke-dasharray:none"
           d="m 17.84264,23.097471 q -0.245398,0 -0.417943,-0.107361 -0.168711,-0.111196 -0.256901,-0.306748 -0.08819,-0.195551 -0.08819,-0.448617 v -1.081284 q 0,-0.03834 0.02301,-0.06135 0.02684,-0.02684 0.06518,-0.02684 h 0.191717 q 0.03834,0 0.06135,0.02684 0.02684,0.02301 0.02684,0.06135 v 1.062112 q 0,0.571317 0.498464,0.571317 0.237729,0 0.379599,-0.14954 0.145705,-0.153373 0.145705,-0.421777 v -1.062112 q 0,-0.03834 0.02301,-0.06135 0.02684,-0.02684 0.06518,-0.02684 h 0.187883 q 0.04218,0 0.06518,0.02684 0.02301,0.02301 0.02301,0.06135 v 1.817477 q 0,0.03834 -0.02301,0.06518 -0.02301,0.02301 -0.06518,0.02301 h -0.17638 q -0.03834,0 -0.06518,-0.02301 -0.02301,-0.02684 -0.02301,-0.06518 v -0.168711 q -0.103527,0.134202 -0.253066,0.214723 -0.145705,0.08052 -0.387268,0.08052 z" />
        <path
           id="path944"
           style="font-style:normal;font-variant:normal;font-weight:normal;font-stretch:normal;font-size:3.83434px;line-height:1.05;font-family:Rubik;-inkscape-font-specification:'Rubik, Normal';font-variant-ligatures:normal;font-variant-caps:normal;font-variant-numeric:normal;font-variant-east-asian:normal;fill:#616870;fill-opacity:1;stroke-width:0.10477;stroke-dasharray:none"
           d="m 19.961352,23.097471 q -0.191717,0 -0.348925,-0.07669 -0.157208,-0.07669 -0.253067,-0.207054 -0.09586,-0.130368 -0.09586,-0.295244 0,-0.26457 0.214723,-0.421778 0.214723,-0.157208 0.559814,-0.207054 l 0.571316,-0.08052 v -0.111196 q 0,-0.184048 -0.107361,-0.287575 -0.103527,-0.103528 -0.341257,-0.103528 -0.172545,0 -0.279906,0.06902 -0.103528,0.06902 -0.145705,0.176379 -0.02301,0.05751 -0.08052,0.05751 h -0.172546 q -0.04218,0 -0.06518,-0.02301 -0.01917,-0.02684 -0.01917,-0.06135 0,-0.05751 0.04218,-0.141871 0.04601,-0.08435 0.138036,-0.164876 0.09202,-0.08052 0.233894,-0.134202 0.145705,-0.05751 0.35276,-0.05751 0.23006,0 0.387268,0.06135 0.157208,0.05751 0.245398,0.157208 0.09202,0.09969 0.130367,0.226226 0.04218,0.126533 0.04218,0.256901 v 1.242326 q 0,0.03834 -0.02684,0.06518 -0.02301,0.02301 -0.06135,0.02301 h -0.176379 q -0.04218,0 -0.06518,-0.02301 -0.02301,-0.02684 -0.02301,-0.06518 v -0.164877 q -0.04985,0.06902 -0.134202,0.138037 -0.08435,0.06518 -0.210889,0.111195 -0.126533,0.04218 -0.310581,0.04218 z m 0.08052,-0.287575 q 0.157208,0 0.287575,-0.06518 0.130368,-0.06902 0.20322,-0.210889 0.07669,-0.14187 0.07669,-0.356593 v -0.107362 l -0.444783,0.06518 q -0.272238,0.03834 -0.410275,0.130367 -0.138036,0.08819 -0.138036,0.226226 0,0.107362 0.06135,0.180214 0.06518,0.06902 0.161042,0.103528 0.09969,0.03451 0.20322,0.03451 z" />
        <path
           id="path946"
           style="font-style:normal;font-variant:normal;font-weight:normal;font-stretch:normal;font-size:3.83434px;line-height:1.05;font-family:Rubik;-inkscape-font-specification:'Rubik, Normal';font-variant-ligatures:normal;font-variant-caps:normal;font-variant-numeric:normal;font-variant-east-asian:normal;fill:#616870;fill-opacity:1;stroke-width:0.10477;stroke-dasharray:none"
           d="m 21.616768,23.059128 q -0.03834,0 -0.06518,-0.02301 -0.02301,-0.02684 -0.02301,-0.06518 v -2.546002 q 0,-0.03834 0.02301,-0.06135 0.02684,-0.02684 0.06518,-0.02684 h 0.180214 q 0.04218,0 0.06518,0.02684 0.02301,0.02301 0.02301,0.06135 v 2.546002 q 0,0.03834 -0.02301,0.06518 -0.02301,0.02301 -0.06518,0.02301 z" />
        <path
           id="path948"
           style="font-style:normal;font-variant:normal;font-weight:normal;font-stretch:normal;font-size:3.83434px;line-height:1.05;font-family:Rubik;-inkscape-font-specification:'Rubik, Normal';font-variant-ligatures:normal;font-variant-caps:normal;font-variant-numeric:normal;font-variant-east-asian:normal;fill:#616870;fill-opacity:1;stroke-width:0.10477;stroke-dasharray:none"
           d="m 22.541565,23.059128 q -0.03834,0 -0.06518,-0.02301 -0.02301,-0.02684 -0.02301,-0.06518 v -1.817477 q 0,-0.03834 0.02301,-0.06135 0.02684,-0.02684 0.06518,-0.02684 h 0.184048 q 0.03834,0 0.06135,0.02684 0.02301,0.02301 0.02301,0.06135 v 1.817477 q 0,0.03834 -0.02301,0.06518 -0.02301,0.02301 -0.06135,0.02301 z M 22.51089,20.69334 q -0.03834,0 -0.06518,-0.02301 -0.02301,-0.02684 -0.02301,-0.06518 v -0.207054 q 0,-0.03834 0.02301,-0.06135 0.02684,-0.02684 0.06518,-0.02684 h 0.241563 q 0.03834,0 0.06135,0.02684 0.02684,0.02301 0.02684,0.06135 v 0.207054 q 0,0.03834 -0.02684,0.06518 -0.02301,0.02301 -0.06135,0.02301 z" />
        <path
           id="path950"
           style="font-style:normal;font-variant:normal;font-weight:normal;font-stretch:normal;font-size:3.83434px;line-height:1.05;font-family:Rubik;-inkscape-font-specification:'Rubik, Normal';font-variant-ligatures:normal;font-variant-caps:normal;font-variant-numeric:normal;font-variant-east-asian:normal;fill:#616870;fill-opacity:1;stroke-width:0.10477;stroke-dasharray:none"
           d="m 23.34366,23.059128 q -0.03834,0 -0.06518,-0.02301 -0.02301,-0.02684 -0.02301,-0.06518 v -0.134202 q 0,-0.03451 0.01534,-0.06518 0.01917,-0.03067 0.03834,-0.05751 l 1.058278,-1.345853 h -0.98926 q -0.03834,0 -0.06518,-0.02301 -0.02301,-0.02301 -0.02301,-0.06518 V 21.15347 q 0,-0.03834 0.02301,-0.06135 0.02684,-0.02684 0.06518,-0.02684 h 1.365025 q 0.03834,0 0.06135,0.02684 0.02684,0.02301 0.02684,0.06135 v 0.14187 q 0,0.03451 -0.01917,0.06135 -0.01534,0.02684 -0.03451,0.05752 l -1.046774,1.342019 h 1.088952 q 0.03834,0 0.06135,0.02301 0.02684,0.02301 0.02684,0.06518 v 0.126533 q 0,0.03834 -0.02684,0.06518 -0.02301,0.02301 -0.06135,0.02301 z" />
        <path
           id="path952"
           style="font-style:normal;font-variant:normal;font-weight:normal;font-stretch:normal;font-size:3.83434px;line-height:1.05;font-family:Rubik;-inkscape-font-specification:'Rubik, Normal';font-variant-ligatures:normal;font-variant-caps:normal;font-variant-numeric:normal;font-variant-east-asian:normal;fill:#616870;fill-opacity:1;stroke-width:0.10477;stroke-dasharray:none"
           d="m 25.892598,23.097471 q -0.191717,0 -0.348925,-0.07669 -0.157208,-0.07669 -0.253067,-0.207054 -0.09586,-0.130368 -0.09586,-0.295244 0,-0.26457 0.214723,-0.421778 0.214723,-0.157208 0.559813,-0.207054 l 0.571317,-0.08052 v -0.111196 q 0,-0.184048 -0.107361,-0.287575 -0.103528,-0.103528 -0.341257,-0.103528 -0.172545,0 -0.279907,0.06902 -0.103527,0.06902 -0.145705,0.176379 -0.02301,0.05751 -0.08052,0.05751 h -0.172545 q -0.04218,0 -0.06518,-0.02301 -0.01917,-0.02684 -0.01917,-0.06135 0,-0.05751 0.04218,-0.141871 0.04601,-0.08435 0.138037,-0.164876 0.09202,-0.08052 0.233894,-0.134202 0.145705,-0.05751 0.35276,-0.05751 0.23006,0 0.387268,0.06135 0.157208,0.05751 0.245398,0.157208 0.09202,0.09969 0.130367,0.226226 0.04218,0.126533 0.04218,0.256901 v 1.242326 q 0,0.03834 -0.02684,0.06518 -0.02301,0.02301 -0.06135,0.02301 H 26.63646 q -0.04218,0 -0.06518,-0.02301 -0.02301,-0.02684 -0.02301,-0.06518 v -0.164877 q -0.04985,0.06902 -0.134202,0.138037 -0.08436,0.06518 -0.210889,0.111195 -0.126533,0.04218 -0.310581,0.04218 z m 0.08052,-0.287575 q 0.157208,0 0.287575,-0.06518 0.130368,-0.06902 0.20322,-0.210889 0.07669,-0.14187 0.07669,-0.356593 v -0.107362 l -0.444783,0.06518 q -0.272239,0.03834 -0.410275,0.130367 -0.138036,0.08819 -0.138036,0.226226 0,0.107362 0.06135,0.180214 0.06518,0.06902 0.161043,0.103528 0.09969,0.03451 0.20322,0.03451 z" />
        <path
           id="path954"
           style="font-style:normal;font-variant:normal;font-weight:normal;font-stretch:normal;font-size:3.83434px;line-height:1.05;font-family:Rubik;-inkscape-font-specification:'Rubik, Normal';font-variant-ligatures:normal;font-variant-caps:normal;font-variant-numeric:normal;font-variant-east-asian:normal;fill:#616870;fill-opacity:1;stroke-width:0.10477;stroke-dasharray:none"
           d="m 28.211894,23.059128 q -0.214723,0 -0.348925,-0.08052 -0.134202,-0.08436 -0.195551,-0.233895 -0.06135,-0.153374 -0.06135,-0.360428 V 21.372018 H 27.30699 q -0.03834,0 -0.06518,-0.02301 -0.02301,-0.02684 -0.02301,-0.06518 v -0.130367 q 0,-0.03834 0.02301,-0.06135 0.02684,-0.02684 0.06518,-0.02684 h 0.299078 v -0.640335 q 0,-0.03834 0.02301,-0.06135 0.02684,-0.02684 0.06518,-0.02684 h 0.180214 q 0.03834,0 0.06135,0.02684 0.02684,0.02301 0.02684,0.06135 v 0.640335 h 0.475458 q 0.03834,0 0.06135,0.02684 0.02684,0.02301 0.02684,0.06135 v 0.130367 q 0,0.03834 -0.02684,0.06518 -0.02301,0.02301 -0.06135,0.02301 h -0.475458 v 0.985426 q 0,0.180214 0.06135,0.283741 0.06135,0.103527 0.218558,0.103527 h 0.233895 q 0.03834,0 0.06135,0.02684 0.02684,0.02301 0.02684,0.06135 v 0.138036 q 0,0.03834 -0.02684,0.06518 -0.02301,0.02301 -0.06135,0.02301 z" />
        <path
           id="path956"
           style="font-style:normal;font-variant:normal;font-weight:normal;font-stretch:normal;font-size:3.83434px;line-height:1.05;font-family:Rubik;-inkscape-font-specification:'Rubik, Normal';font-variant-ligatures:normal;font-variant-caps:normal;font-variant-numeric:normal;font-variant-east-asian:normal;fill:#616870;fill-opacity:1;stroke-width:0.10477;stroke-dasharray:none"
           d="m 29.019502,23.059128 q -0.03834,0 -0.06518,-0.02301 -0.02301,-0.02684 -0.02301,-0.06518 v -1.817477 q 0,-0.03834 0.02301,-0.06135 0.02684,-0.02684 0.06518,-0.02684 h 0.184049 q 0.03834,0 0.06135,0.02684 0.02301,0.02301 0.02301,0.06135 v 1.817477 q 0,0.03834 -0.02301,0.06518 -0.02301,0.02301 -0.06135,0.02301 z m -0.03067,-2.365788 q -0.03834,0 -0.06518,-0.02301 -0.02301,-0.02684 -0.02301,-0.06518 v -0.207054 q 0,-0.03834 0.02301,-0.06135 0.02684,-0.02684 0.06518,-0.02684 h 0.241564 q 0.03834,0 0.06135,0.02684 0.02684,0.02301 0.02684,0.06135 v 0.207054 q 0,0.03834 -0.02684,0.06518 -0.02301,0.02301 -0.06135,0.02301 z" />
        <path
           id="path958"
           style="font-style:normal;font-variant:normal;font-weight:normal;font-stretch:normal;font-size:3.83434px;line-height:1.05;font-family:Rubik;-inkscape-font-specification:'Rubik, Normal';font-variant-ligatures:normal;font-variant-caps:normal;font-variant-numeric:normal;font-variant-east-asian:normal;fill:#616870;fill-opacity:1;stroke-width:0.10477;stroke-dasharray:none"
           d="m 30.676656,23.097471 q -0.29141,0 -0.486961,-0.111196 -0.195552,-0.111196 -0.299079,-0.306747 -0.103527,-0.199386 -0.11503,-0.452452 -0.0038,-0.06518 -0.0038,-0.164877 0,-0.103527 0.0038,-0.164876 0.0115,-0.256901 0.11503,-0.452452 0.107362,-0.195552 0.302913,-0.306748 0.195551,-0.111195 0.483127,-0.111195 0.287575,0 0.483127,0.111195 0.195551,0.111196 0.299078,0.306748 0.107362,0.195551 0.118865,0.452452 0.0038,0.06135 0.0038,0.164876 0,0.09969 -0.0038,0.164877 -0.0115,0.253066 -0.115031,0.452452 -0.103527,0.195551 -0.299078,0.306747 -0.195551,0.111196 -0.486961,0.111196 z m 0,-0.295244 q 0.237729,0 0.379599,-0.149539 0.141871,-0.153374 0.153374,-0.444784 0.0038,-0.05751 0.0038,-0.145705 0,-0.08819 -0.0038,-0.145705 -0.0115,-0.291409 -0.153374,-0.440949 -0.14187,-0.153373 -0.379599,-0.153373 -0.237729,0 -0.383434,0.153373 -0.141871,0.14954 -0.14954,0.440949 -0.0038,0.05752 -0.0038,0.145705 0,0.08819 0.0038,0.145705 0.0077,0.29141 0.14954,0.444784 0.145705,0.149539 0.383434,0.149539 z" />
        <path
           id="path960"
           style="font-style:normal;font-variant:normal;font-weight:normal;font-stretch:normal;font-size:3.83434px;line-height:1.05;font-family:Rubik;-inkscape-font-specification:'Rubik, Normal';font-variant-ligatures:normal;font-variant-caps:normal;font-variant-numeric:normal;font-variant-east-asian:normal;fill:#616870;fill-opacity:1;stroke:none;stroke-width:0.10477;stroke-dasharray:none"
           d="m 32.149881,23.059128 q -0.03834,0 -0.06518,-0.02301 -0.02301,-0.02684 -0.02301,-0.06518 v -1.817477 q 0,-0.03834 0.02301,-0.06135 0.02684,-0.02684 0.06518,-0.02684 h 0.180214 q 0.03834,0 0.06135,0.02684 0.02684,0.02301 0.02684,0.06135 v 0.168711 q 0.09969,-0.130368 0.249232,-0.210889 0.153373,-0.08435 0.391103,-0.08435 0.249232,0 0.421777,0.111195 0.17638,0.107362 0.264569,0.302913 0.08819,0.191717 0.08819,0.448618 v 1.081284 q 0,0.03834 -0.02301,0.06518 -0.02301,0.02301 -0.06135,0.02301 h -0.191717 q -0.03834,0 -0.06518,-0.02301 -0.02301,-0.02684 -0.02301,-0.06518 v -1.062112 q 0,-0.268404 -0.130368,-0.417943 -0.130367,-0.153374 -0.383434,-0.153374 -0.237729,0 -0.383434,0.153374 -0.14187,0.149539 -0.14187,0.417943 v 1.062112 q 0,0.03834 -0.02684,0.06518 -0.02301,0.02301 -0.06135,0.02301 z" />
      </g>
    </g>
  </g>
</svg>
