<?xml version="1.0" encoding="UTF-8" standalone="no"?>
<svg xmlns:dc="http://purl.org/dc/elements/1.1/"
   xmlns:cc="http://creativecommons.org/ns#"
   xmlns:rdf="http://www.w3.org/1999/02/22-rdf-syntax-ns#"
   xmlns:svg="http://www.w3.org/2000/svg"
   xmlns="http://www.w3.org/2000/svg"
   width="105"
   height="42"
   viewBox="0 0 27.781249 11.1125"
   version="1.1">
 <g
     id="layer1">
    <g
       fill-rule="evenodd"
       fill="none"
       stroke-width="1"
       stroke="none"
       id="Provider/OracleCIC/ocic-42"
       transform="scale(0.26458333)">
      <path
         fill="#616870"
         id="Combined-Shape-Copy"
         d="m 93.13289,19.728826 c -1.944383,0 -3.594325,-1.274281 -4.098824,-3.031646 h 10.824869 l 1.492255,-2.271174 H 89.034066 c 0.504499,-1.746833 2.154441,-3.031354 4.098824,-3.031354 h 7.42983 l 1.50302,-2.2714667 h -9.101016 c -3.636517,0 -6.589298,2.8879787 -6.589298,6.4436747 0,3.555695 2.952781,6.43314 6.589298,6.43314 h 7.808356 l 1.49255,-2.271174 z M 62.161605,22 c -3.635918,0 -6.588999,-2.877445 -6.588999,-6.43314 0,-3.555696 2.953081,-6.4436747 6.588999,-6.4436747 h 9.090843 L 69.770671,11.394652 H 62.33007 c -2.354325,0 -4.26699,1.87031 -4.26699,4.172208 0,2.301897 1.912665,4.161966 4.26699,4.161966 h 9.132436 L 69.970256,22 Z M 14.068798,19.728826 c 2.355522,0 4.262801,-1.860069 4.262801,-4.161966 0,-2.301898 -1.907279,-4.172208 -4.262801,-4.172208 H 6.7544715 c -2.3540259,0 -4.2628007,1.87031 -4.2628007,4.172208 0,2.301897 1.9087748,4.161966 4.2628007,4.161966 z M 6.5854077,22 C 2.9500879,22 0,19.122555 0,15.56686 0,12.011164 2.9500879,9.1231853 6.5854077,9.1231853 h 7.6539503 c 3.635919,0 6.583912,2.8879787 6.583912,6.4436747 C 20.82327,19.122555 17.875277,22 14.239358,22 Z M 33.250504,17.8275 c 2.459354,0 4.456102,-1.941997 4.456102,-4.34689 0,-2.404601 -1.996748,-4.3574247 -4.456102,-4.3574247 H 22.170693 V 22 H 24.70246 V 11.394652 h 8.379878 c 1.177163,0 2.123022,0.934863 2.123022,2.085958 0,1.151095 -0.945859,2.08625 -2.123022,2.08625 L 25.942461,15.556618 33.502753,22 h 3.678409 l -5.086575,-4.1725 z m 41.900884,1.901326 V 9.1231853 H 72.618423 V 20.766684 c 0,0.318643 0.126275,0.627045 0.368051,0.863467 C 73.227951,21.866281 73.55381,22 73.911387,22 h 11.549599 l 1.492549,-2.271174 z M 44.148684,17.457651 h 6.757463 L 47.333067,11.836481 40.775188,22 H 37.790689 L 45.767207,9.7914875 C 46.114012,9.2981611 46.692121,9 47.333067,9 c 0.620299,0 1.198109,0.2876275 1.534141,0.7707128 L 56.875445,22 H 53.890946 L 52.48248,19.728826 h -6.841547 z m 59.479276,-5.796782 c -0.74946,0 -1.36233,-0.594498 -1.36233,-1.330569 C 102.26563,9.594498 102.8785,9 103.62796,9 104.38713,9 105,9.594498 105,10.3303 c 0,0.736071 -0.61287,1.330569 -1.37204,1.330569 z m -0.12662,-2.1230538 c 0.21418,0 0.30173,0.0094 0.39926,0.04728 0.27236,0.08489 0.30172,0.3207549 0.30172,0.4150468 0,0.01881 0,0.06609 -0.0197,0.122499 -0.01,0.05668 -0.0488,0.170049 -0.18508,0.254939 -0.0191,0.0094 -0.0288,0.0188 -0.0679,0.03761 l 0.35049,0.613572 h -0.34079 l -0.31143,-0.566291 h -0.21389 v 0.566291 h -0.30173 V 9.5378152 Z m 0.10723,0.6793878 c 0.0973,-0.0094 0.1945,-0.0094 0.25296,-0.09456 0.0294,-0.03761 0.0391,-0.07522 0.0391,-0.1319015 0,-0.075487 -0.0488,-0.1415727 -0.11692,-0.1791822 -0.0682,-0.028476 -0.13604,-0.028476 -0.28234,-0.028476 h -0.0873 v 0.4341207 z m -1.05092,0.103695 c 0,0.585095 0.47684,1.047423 1.07031,1.047423 0.60346,0 1.08029,-0.462328 1.08029,-1.047423 0,-0.5754249 -0.47683,-1.0377525 -1.08029,-1.0377525 -0.59347,0 -1.07031,0.4623276 -1.07031,1.0377525 z" />
      <g
         style="font-style:normal;font-variant:normal;font-weight:normal;font-stretch:normal;font-size:8.02987px;line-height:1.25;font-family:Rubik;-inkscape-font-specification:'Rubik, Normal';font-variant-ligatures:normal;font-variant-caps:normal;font-variant-numeric:normal;font-variant-east-asian:normal;fill:#616870;fill-opacity:1;stroke-width:0.200747"
         id="text2109"
         transform="scale(0.99285551,1.0071959)"
         aria-label="Linux Virtualization Manager">
        <path
           id="path5284"
           style="font-style:normal;font-variant:normal;font-weight:normal;font-stretch:normal;font-size:8.02987px;font-family:Rubik;-inkscape-font-specification:'Rubik, Normal';font-variant-ligatures:normal;font-variant-caps:normal;font-variant-numeric:normal;font-variant-east-asian:normal;fill:#616870;fill-opacity:1;stroke-width:0.200747"
           d="m 0.18468702,32.978233 q -0.08832857,0 -0.13650779,-0.04818 Q 1.001358e-8,32.873845 1.001358e-8,32.793546 v -5.251535 q 0,-0.0803 0.04817921998642,-0.128478 0.04817922,-0.05621 0.13650779,-0.05621 h 0.42558311 q 0.0802987,0 0.12847792,0.05621 0.0481792,0.04818 0.0481792,0.128478 v 4.737624 H 3.460874 q 0.088329,0 0.1365078,0.05621 0.048179,0.04818 0.048179,0.136508 v 0.321194 q 0,0.0803 -0.048179,0.136508 -0.048179,0.04818 -0.1365078,0.04818 z" />
        <path
           id="path5286"
           style="font-style:normal;font-variant:normal;font-weight:normal;font-stretch:normal;font-size:8.02987px;font-family:Rubik;-inkscape-font-specification:'Rubik, Normal';font-variant-ligatures:normal;font-variant-caps:normal;font-variant-numeric:normal;font-variant-east-asian:normal;fill:#616870;fill-opacity:1;stroke-width:0.200747"
           d="m 4.5971005,32.978233 q -0.080299,0 -0.1365077,-0.04818 -0.048179,-0.05621 -0.048179,-0.136508 v -3.806158 q 0,-0.0803 0.048179,-0.128478 0.056209,-0.05621 0.1365077,-0.05621 h 0.3854338 q 0.080299,0 0.1284779,0.05621 0.048179,0.04818 0.048179,0.128478 v 3.806158 q 0,0.0803 -0.048179,0.136508 -0.048179,0.04818 -0.1284779,0.04818 z m -0.064239,-4.954429 q -0.080299,0 -0.1365078,-0.04818 -0.048179,-0.05621 -0.048179,-0.136507 v -0.433613 q 0,-0.0803 0.048179,-0.128478 0.056209,-0.05621 0.1365078,-0.05621 h 0.5058818 q 0.080299,0 0.1284779,0.05621 0.056209,0.04818 0.056209,0.128478 v 0.433613 q 0,0.0803 -0.056209,0.136507 -0.048179,0.04818 -0.1284779,0.04818 z" />
        <path
           id="path5288"
           style="font-style:normal;font-variant:normal;font-weight:normal;font-stretch:normal;font-size:8.02987px;font-family:Rubik;-inkscape-font-specification:'Rubik, Normal';font-variant-ligatures:normal;font-variant-caps:normal;font-variant-numeric:normal;font-variant-east-asian:normal;fill:#616870;fill-opacity:1;stroke-width:0.200747"
           d="m 6.5418346,32.978233 q -0.080299,0 -0.1365077,-0.04818 -0.048179,-0.05621 -0.048179,-0.136508 v -3.806158 q 0,-0.0803 0.048179,-0.128478 0.056209,-0.05621 0.1365077,-0.05621 h 0.3774039 q 0.080299,0 0.128478,0.05621 0.056209,0.04818 0.056209,0.128478 v 0.353314 q 0.2087767,-0.273015 0.5219416,-0.441643 0.3211948,-0.176657 0.8190467,-0.176657 0.5219416,0 0.8832857,0.232866 0.3693741,0.224837 0.5540611,0.63436 0.1846874,0.401494 0.1846874,0.939495 v 2.264423 q 0,0.0803 -0.04818,0.136508 -0.048179,0.04818 -0.1284776,0.04818 H 9.4887969 q -0.080299,0 -0.1365077,-0.04818 -0.048179,-0.05621 -0.048179,-0.136508 v -2.224274 q 0,-0.562091 -0.2730155,-0.875256 -0.2730156,-0.321194 -0.8029871,-0.321194 -0.4978519,0 -0.802987,0.321194 -0.2971051,0.313165 -0.2971051,0.875256 v 2.224274 q 0,0.0803 -0.056209,0.136508 -0.048179,0.04818 -0.128478,0.04818 z" />
        <path
           id="path5290"
           style="font-style:normal;font-variant:normal;font-weight:normal;font-stretch:normal;font-size:8.02987px;font-family:Rubik;-inkscape-font-specification:'Rubik, Normal';font-variant-ligatures:normal;font-variant-caps:normal;font-variant-numeric:normal;font-variant-east-asian:normal;fill:#616870;fill-opacity:1;stroke-width:0.200747"
           d="m 12.776778,33.058532 q -0.513911,0 -0.875255,-0.224836 -0.353315,-0.232867 -0.538002,-0.64239 -0.184687,-0.409523 -0.184687,-0.939495 v -2.264423 q 0,-0.0803 0.04818,-0.128478 0.05621,-0.05621 0.136508,-0.05621 h 0.401494 q 0.0803,0 0.128478,0.05621 0.05621,0.04818 0.05621,0.128478 v 2.224274 q 0,1.196451 1.043883,1.196451 0.497852,0 0.794957,-0.313165 0.305135,-0.321195 0.305135,-0.883286 v -2.224274 q 0,-0.0803 0.04818,-0.128478 0.05621,-0.05621 0.136508,-0.05621 h 0.393464 q 0.08833,0 0.136507,0.05621 0.04818,0.04818 0.04818,0.128478 v 3.806158 q 0,0.0803 -0.04818,0.136508 -0.04818,0.04818 -0.136507,0.04818 h -0.369374 q -0.0803,0 -0.136508,-0.04818 -0.04818,-0.05621 -0.04818,-0.136508 v -0.353314 q -0.216807,0.281045 -0.529972,0.449673 -0.305135,0.168627 -0.811017,0.168627 z" />
        <path
           id="path5292"
           style="font-style:normal;font-variant:normal;font-weight:normal;font-stretch:normal;font-size:8.02987px;font-family:Rubik;-inkscape-font-specification:'Rubik, Normal';font-variant-ligatures:normal;font-variant-caps:normal;font-variant-numeric:normal;font-variant-east-asian:normal;fill:#616870;fill-opacity:1;stroke-width:0.200747"
           d="m 15.856734,32.978233 q -0.06424,0 -0.120448,-0.04818 -0.04818,-0.04818 -0.04818,-0.120448 0,-0.02409 0.008,-0.05621 0.01606,-0.04015 0.04818,-0.08833 l 1.397197,-1.82278 -1.308869,-1.726422 q -0.03212,-0.04818 -0.04818,-0.0803 -0.008,-0.03212 -0.008,-0.06424 0,-0.07227 0.04818,-0.120448 0.04818,-0.04818 0.120449,-0.04818 h 0.409523 q 0.08833,0 0.128478,0.04818 0.04818,0.04015 0.0803,0.0803 l 1.067973,1.389167 1.067973,-1.381137 q 0.03212,-0.04015 0.07227,-0.08833 0.04818,-0.04818 0.136508,-0.04818 h 0.393463 q 0.07227,0 0.120448,0.04818 0.04818,0.04818 0.04818,0.120448 0,0.03212 -0.01606,0.06424 -0.008,0.03212 -0.04015,0.0803 l -1.324928,1.742482 1.397197,1.80672 q 0.03212,0.04818 0.04015,0.0803 0.01606,0.03212 0.01606,0.06424 0,0.07227 -0.04818,0.120448 -0.04818,0.04818 -0.120448,0.04818 h -0.425583 q -0.0803,0 -0.128478,-0.04015 -0.04818,-0.04015 -0.0803,-0.0803 l -1.132211,-1.469466 -1.132212,1.469466 q -0.03212,0.03212 -0.0803,0.0803 -0.04015,0.04015 -0.128478,0.04015 z" />
        <path
           id="path5294"
           style="font-style:normal;font-variant:normal;font-weight:normal;font-stretch:normal;font-size:8.02987px;font-family:Rubik;-inkscape-font-specification:'Rubik, Normal';font-variant-ligatures:normal;font-variant-caps:normal;font-variant-numeric:normal;font-variant-east-asian:normal;fill:#616870;fill-opacity:1;stroke-width:0.200747"
           d="m 23.893506,32.978233 q -0.120448,0 -0.192717,-0.05621 -0.06424,-0.05621 -0.104388,-0.152567 L 21.80574,27.60625 q -0.01606,-0.04818 -0.01606,-0.08833 0,-0.06424 0.04818,-0.112418 0.04818,-0.04818 0.112418,-0.04818 h 0.417553 q 0.09636,0 0.144538,0.05621 0.05621,0.04818 0.06424,0.08833 l 1.573854,4.552936 1.573855,-4.552936 q 0.01606,-0.04015 0.06424,-0.08833 0.04818,-0.05621 0.144537,-0.05621 h 0.417554 q 0.06424,0 0.112418,0.04818 0.05621,0.04818 0.05621,0.112418 0,0.04015 -0.01606,0.08833 l -1.798691,5.163207 q -0.03212,0.09636 -0.104388,0.152567 -0.06424,0.05621 -0.184687,0.05621 z" />
        <path
           id="path5296"
           style="font-style:normal;font-variant:normal;font-weight:normal;font-stretch:normal;font-size:8.02987px;font-family:Rubik;-inkscape-font-specification:'Rubik, Normal';font-variant-ligatures:normal;font-variant-caps:normal;font-variant-numeric:normal;font-variant-east-asian:normal;fill:#616870;fill-opacity:1;stroke-width:0.200747"
           d="m 27.463411,32.978233 q -0.0803,0 -0.136508,-0.04818 -0.04818,-0.05621 -0.04818,-0.136508 v -3.806158 q 0,-0.0803 0.04818,-0.128478 0.05621,-0.05621 0.136508,-0.05621 h 0.385433 q 0.0803,0 0.128478,0.05621 0.04818,0.04818 0.04818,0.128478 v 3.806158 q 0,0.0803 -0.04818,0.136508 -0.04818,0.04818 -0.128478,0.04818 z m -0.06424,-4.954429 q -0.0803,0 -0.136508,-0.04818 -0.04818,-0.05621 -0.04818,-0.136507 v -0.433613 q 0,-0.0803 0.04818,-0.128478 0.05621,-0.05621 0.136508,-0.05621 h 0.505882 q 0.0803,0 0.128477,0.05621 0.05621,0.04818 0.05621,0.128478 v 0.433613 q 0,0.0803 -0.05621,0.136507 -0.04818,0.04818 -0.128477,0.04818 z" />
        <path
           id="path5298"
           style="font-style:normal;font-variant:normal;font-weight:normal;font-stretch:normal;font-size:8.02987px;font-family:Rubik;-inkscape-font-specification:'Rubik, Normal';font-variant-ligatures:normal;font-variant-caps:normal;font-variant-numeric:normal;font-variant-east-asian:normal;fill:#616870;fill-opacity:1;stroke-width:0.200747"
           d="m 29.408143,32.978233 q -0.0803,0 -0.136507,-0.04818 -0.04818,-0.05621 -0.04818,-0.136508 v -3.798128 q 0,-0.0803 0.04818,-0.136508 0.05621,-0.05621 0.136507,-0.05621 h 0.369374 q 0.0803,0 0.136508,0.05621 0.05621,0.05621 0.05621,0.136508 v 0.353314 q 0.160598,-0.273015 0.441643,-0.409523 0.281046,-0.136508 0.674509,-0.136508 h 0.321195 q 0.0803,0 0.128478,0.05621 0.04818,0.04818 0.04818,0.128478 v 0.329225 q 0,0.0803 -0.04818,0.128478 -0.04818,0.04818 -0.128478,0.04818 h -0.481792 q -0.433613,0 -0.682539,0.256956 -0.248926,0.248926 -0.248926,0.682539 v 2.360781 q 0,0.0803 -0.05621,0.136508 -0.05621,0.04818 -0.136508,0.04818 z" />
        <path
           id="path5300"
           style="font-style:normal;font-variant:normal;font-weight:normal;font-stretch:normal;font-size:8.02987px;font-family:Rubik;-inkscape-font-specification:'Rubik, Normal';font-variant-ligatures:normal;font-variant-caps:normal;font-variant-numeric:normal;font-variant-east-asian:normal;fill:#616870;fill-opacity:1;stroke-width:0.200747"
           d="m 33.911772,32.978233 q -0.449672,0 -0.730718,-0.168627 -0.281045,-0.176657 -0.409523,-0.489822 -0.128478,-0.321195 -0.128478,-0.754808 v -2.119885 h -0.62633 q -0.0803,0 -0.136508,-0.04818 -0.04818,-0.05621 -0.04818,-0.136507 v -0.273016 q 0,-0.0803 0.04818,-0.128478 0.05621,-0.05621 0.136508,-0.05621 h 0.62633 v -1.340988 q 0,-0.0803 0.04818,-0.128478 0.05621,-0.05621 0.136508,-0.05621 h 0.377404 q 0.0803,0 0.128478,0.05621 0.05621,0.04818 0.05621,0.128478 v 1.340988 h 0.995704 q 0.0803,0 0.128478,0.05621 0.05621,0.04818 0.05621,0.128478 v 0.273016 q 0,0.0803 -0.05621,0.136507 -0.04818,0.04818 -0.128478,0.04818 h -0.995704 v 2.063676 q 0,0.377404 0.128478,0.594211 0.128478,0.216806 0.457702,0.216806 h 0.489822 q 0.0803,0 0.128478,0.05621 0.05621,0.04818 0.05621,0.128478 v 0.289075 q 0,0.0803 -0.05621,0.136508 -0.04818,0.04818 -0.128478,0.04818 z" />
        <path
           id="path5302"
           style="font-style:normal;font-variant:normal;font-weight:normal;font-stretch:normal;font-size:8.02987px;font-family:Rubik;-inkscape-font-specification:'Rubik, Normal';font-variant-ligatures:normal;font-variant-caps:normal;font-variant-numeric:normal;font-variant-east-asian:normal;fill:#616870;fill-opacity:1;stroke-width:0.200747"
           d="m 36.976173,33.058532 q -0.513912,0 -0.875256,-0.224836 -0.353315,-0.232867 -0.538002,-0.64239 -0.184687,-0.409523 -0.184687,-0.939495 v -2.264423 q 0,-0.0803 0.04818,-0.128478 0.05621,-0.05621 0.136507,-0.05621 h 0.401494 q 0.0803,0 0.128478,0.05621 0.05621,0.04818 0.05621,0.128478 v 2.224274 q 0,1.196451 1.043883,1.196451 0.497852,0 0.794957,-0.313165 0.305135,-0.321195 0.305135,-0.883286 v -2.224274 q 0,-0.0803 0.04818,-0.128478 0.05621,-0.05621 0.136507,-0.05621 h 0.393464 q 0.08833,0 0.136508,0.05621 0.04818,0.04818 0.04818,0.128478 v 3.806158 q 0,0.0803 -0.04818,0.136508 -0.04818,0.04818 -0.136508,0.04818 h -0.369374 q -0.0803,0 -0.136508,-0.04818 -0.04818,-0.05621 -0.04818,-0.136508 v -0.353314 q -0.216807,0.281045 -0.529972,0.449673 -0.305135,0.168627 -0.811016,0.168627 z" />
        <path
           id="path5304"
           style="font-style:normal;font-variant:normal;font-weight:normal;font-stretch:normal;font-size:8.02987px;font-family:Rubik;-inkscape-font-specification:'Rubik, Normal';font-variant-ligatures:normal;font-variant-caps:normal;font-variant-numeric:normal;font-variant-east-asian:normal;fill:#616870;fill-opacity:1;stroke-width:0.200747"
           d="m 41.413176,33.058532 q -0.401493,0 -0.730718,-0.160597 -0.329225,-0.160598 -0.529971,-0.433613 -0.200747,-0.273016 -0.200747,-0.6183 0,-0.554061 0.449673,-0.883286 0.449672,-0.329225 1.172361,-0.433613 l 1.19645,-0.168627 v -0.232867 q 0,-0.385433 -0.224836,-0.60224 -0.216807,-0.216806 -0.714659,-0.216806 -0.361344,0 -0.58618,0.144537 -0.216807,0.144538 -0.305135,0.369374 -0.04818,0.120448 -0.168627,0.120448 h -0.361345 q -0.08833,0 -0.136507,-0.04818 -0.04015,-0.05621 -0.04015,-0.128478 0,-0.120448 0.08833,-0.297105 0.09636,-0.176657 0.289075,-0.345284 0.192717,-0.168628 0.489822,-0.281046 0.305135,-0.120448 0.738748,-0.120448 0.481793,0 0.811017,0.128478 0.329225,0.120448 0.513912,0.329225 0.192717,0.208776 0.273015,0.473762 0.08833,0.264986 0.08833,0.538001 v 2.601678 q 0,0.0803 -0.05621,0.136508 -0.04818,0.04818 -0.128478,0.04818 h -0.369374 q -0.08833,0 -0.136508,-0.04818 -0.04818,-0.05621 -0.04818,-0.136508 v -0.345284 q -0.104388,0.144538 -0.281045,0.289075 -0.176658,0.136508 -0.441643,0.232866 -0.264986,0.08833 -0.65042,0.08833 z m 0.168627,-0.60224 q 0.329225,0 0.602241,-0.136508 0.273015,-0.144538 0.425583,-0.441643 0.160597,-0.297105 0.160597,-0.746778 v -0.224836 l -0.931465,0.136508 q -0.57012,0.0803 -0.859196,0.273015 -0.289075,0.184687 -0.289075,0.473763 0,0.224836 0.128478,0.377403 0.136508,0.144538 0.337254,0.216807 0.208777,0.07227 0.425583,0.07227 z" />
        <path
           id="path5306"
           style="font-style:normal;font-variant:normal;font-weight:normal;font-stretch:normal;font-size:8.02987px;font-family:Rubik;-inkscape-font-specification:'Rubik, Normal';font-variant-ligatures:normal;font-variant-caps:normal;font-variant-numeric:normal;font-variant-east-asian:normal;fill:#616870;fill-opacity:1;stroke-width:0.200747"
           d="m 44.879947,32.978233 q -0.0803,0 -0.136508,-0.04818 -0.04818,-0.05621 -0.04818,-0.136508 v -5.331833 q 0,-0.0803 0.04818,-0.128478 0.05621,-0.05621 0.136508,-0.05621 h 0.377404 q 0.08833,0 0.136508,0.05621 0.04818,0.04818 0.04818,0.128478 v 5.331833 q 0,0.0803 -0.04818,0.136508 -0.04818,0.04818 -0.136508,0.04818 z" />
        <path
           id="path5308"
           style="font-style:normal;font-variant:normal;font-weight:normal;font-stretch:normal;font-size:8.02987px;font-family:Rubik;-inkscape-font-specification:'Rubik, Normal';font-variant-ligatures:normal;font-variant-caps:normal;font-variant-numeric:normal;font-variant-east-asian:normal;fill:#616870;fill-opacity:1;stroke-width:0.200747"
           d="m 46.81665,32.978233 q -0.0803,0 -0.136508,-0.04818 -0.04818,-0.05621 -0.04818,-0.136508 v -3.806158 q 0,-0.0803 0.04818,-0.128478 0.05621,-0.05621 0.136508,-0.05621 h 0.385433 q 0.0803,0 0.128478,0.05621 0.04818,0.04818 0.04818,0.128478 v 3.806158 q 0,0.0803 -0.04818,0.136508 -0.04818,0.04818 -0.128478,0.04818 z m -0.06424,-4.954429 q -0.0803,0 -0.136508,-0.04818 -0.04818,-0.05621 -0.04818,-0.136507 v -0.433613 q 0,-0.0803 0.04818,-0.128478 0.05621,-0.05621 0.136508,-0.05621 h 0.505882 q 0.0803,0 0.128477,0.05621 0.05621,0.04818 0.05621,0.128478 v 0.433613 q 0,0.0803 -0.05621,0.136507 -0.04818,0.04818 -0.128477,0.04818 z" />
        <path
           id="path5310"
           style="font-style:normal;font-variant:normal;font-weight:normal;font-stretch:normal;font-size:8.02987px;font-family:Rubik;-inkscape-font-specification:'Rubik, Normal';font-variant-ligatures:normal;font-variant-caps:normal;font-variant-numeric:normal;font-variant-east-asian:normal;fill:#616870;fill-opacity:1;stroke-width:0.200747"
           d="m 48.4964,32.978233 q -0.0803,0 -0.136507,-0.04818 -0.04818,-0.05621 -0.04818,-0.136508 v -0.281045 q 0,-0.07227 0.03212,-0.136508 0.04015,-0.06424 0.0803,-0.120448 l 2.216244,-2.818484 h -2.071707 q -0.0803,0 -0.136507,-0.04818 -0.04818,-0.04818 -0.04818,-0.136507 v -0.264986 q 0,-0.0803 0.04818,-0.128478 0.05621,-0.05621 0.136507,-0.05621 h 2.858634 q 0.0803,0 0.128478,0.05621 0.05621,0.04818 0.05621,0.128478 v 0.297105 q 0,0.07227 -0.04015,0.128478 -0.03212,0.05621 -0.07227,0.120448 l -2.192155,2.810455 H 51.5879 q 0.0803,0 0.128478,0.04818 0.05621,0.04818 0.05621,0.136508 v 0.264985 q 0,0.0803 -0.05621,0.136508 -0.04818,0.04818 -0.128478,0.04818 z" />
        <path
           id="path5312"
           style="font-style:normal;font-variant:normal;font-weight:normal;font-stretch:normal;font-size:8.02987px;font-family:Rubik;-inkscape-font-specification:'Rubik, Normal';font-variant-ligatures:normal;font-variant-caps:normal;font-variant-numeric:normal;font-variant-east-asian:normal;fill:#616870;fill-opacity:1;stroke-width:0.200747"
           d="m 53.83438,33.058532 q -0.401494,0 -0.730718,-0.160597 -0.329225,-0.160598 -0.529972,-0.433613 -0.200747,-0.273016 -0.200747,-0.6183 0,-0.554061 0.449673,-0.883286 0.449673,-0.329225 1.172361,-0.433613 l 1.196451,-0.168627 v -0.232867 q 0,-0.385433 -0.224837,-0.60224 -0.216806,-0.216806 -0.714658,-0.216806 -0.361344,0 -0.58618,0.144537 -0.216807,0.144538 -0.305136,0.369374 -0.04818,0.120448 -0.168627,0.120448 h -0.361344 q -0.08833,0 -0.136508,-0.04818 -0.04015,-0.05621 -0.04015,-0.128478 0,-0.120448 0.08833,-0.297105 0.09636,-0.176657 0.289076,-0.345284 0.192717,-0.168628 0.489822,-0.281046 0.305135,-0.120448 0.738748,-0.120448 0.481792,0 0.811017,0.128478 0.329224,0.120448 0.513911,0.329225 0.192717,0.208776 0.273016,0.473762 0.08833,0.264986 0.08833,0.538001 v 2.601678 q 0,0.0803 -0.05621,0.136508 -0.04818,0.04818 -0.128478,0.04818 h -0.369374 q -0.08833,0 -0.136508,-0.04818 -0.04818,-0.05621 -0.04818,-0.136508 v -0.345284 q -0.104389,0.144538 -0.281046,0.289075 -0.176657,0.136508 -0.441643,0.232866 -0.264985,0.08833 -0.650419,0.08833 z m 0.168627,-0.60224 q 0.329225,0 0.60224,-0.136508 0.273016,-0.144538 0.425583,-0.441643 0.160598,-0.297105 0.160598,-0.746778 v -0.224836 l -0.931465,0.136508 q -0.570121,0.0803 -0.859196,0.273015 -0.289075,0.184687 -0.289075,0.473763 0,0.224836 0.128477,0.377403 0.136508,0.144538 0.337255,0.216807 0.208777,0.07227 0.425583,0.07227 z" />
        <path
           id="path5314"
           style="font-style:normal;font-variant:normal;font-weight:normal;font-stretch:normal;font-size:8.02987px;font-family:Rubik;-inkscape-font-specification:'Rubik, Normal';font-variant-ligatures:normal;font-variant-caps:normal;font-variant-numeric:normal;font-variant-east-asian:normal;fill:#616870;fill-opacity:1;stroke-width:0.200747"
           d="m 58.691447,32.978233 q -0.449673,0 -0.730718,-0.168627 -0.281046,-0.176657 -0.409524,-0.489822 -0.128478,-0.321195 -0.128478,-0.754808 v -2.119885 h -0.62633 q -0.0803,0 -0.136507,-0.04818 -0.04818,-0.05621 -0.04818,-0.136507 v -0.273016 q 0,-0.0803 0.04818,-0.128478 0.05621,-0.05621 0.136507,-0.05621 h 0.62633 v -1.340988 q 0,-0.0803 0.04818,-0.128478 0.05621,-0.05621 0.136507,-0.05621 h 0.377404 q 0.0803,0 0.128478,0.05621 0.05621,0.04818 0.05621,0.128478 v 1.340988 h 0.995704 q 0.0803,0 0.128478,0.05621 0.05621,0.04818 0.05621,0.128478 v 0.273016 q 0,0.0803 -0.05621,0.136507 -0.04818,0.04818 -0.128478,0.04818 h -0.995704 v 2.063676 q 0,0.377404 0.128478,0.594211 0.128478,0.216806 0.457703,0.216806 h 0.489822 q 0.0803,0 0.128478,0.05621 0.05621,0.04818 0.05621,0.128478 v 0.289075 q 0,0.0803 -0.05621,0.136508 -0.04818,0.04818 -0.128478,0.04818 z" />
        <path
           id="path5316"
           style="font-style:normal;font-variant:normal;font-weight:normal;font-stretch:normal;font-size:8.02987px;font-family:Rubik;-inkscape-font-specification:'Rubik, Normal';font-variant-ligatures:normal;font-variant-caps:normal;font-variant-numeric:normal;font-variant-east-asian:normal;fill:#616870;fill-opacity:1;stroke-width:0.200747"
           d="m 60.382739,32.978233 q -0.0803,0 -0.136507,-0.04818 -0.04818,-0.05621 -0.04818,-0.136508 v -3.806158 q 0,-0.0803 0.04818,-0.128478 0.05621,-0.05621 0.136507,-0.05621 h 0.385434 q 0.0803,0 0.128478,0.05621 0.04818,0.04818 0.04818,0.128478 v 3.806158 q 0,0.0803 -0.04818,0.136508 -0.04818,0.04818 -0.128478,0.04818 z M 60.3185,28.023804 q -0.0803,0 -0.136507,-0.04818 -0.04818,-0.05621 -0.04818,-0.136507 v -0.433613 q 0,-0.0803 0.04818,-0.128478 0.05621,-0.05621 0.136507,-0.05621 h 0.505882 q 0.0803,0 0.128478,0.05621 0.05621,0.04818 0.05621,0.128478 v 0.433613 q 0,0.0803 -0.05621,0.136507 -0.04818,0.04818 -0.128478,0.04818 z" />
        <path
           id="path5318"
           style="font-style:normal;font-variant:normal;font-weight:normal;font-stretch:normal;font-size:8.02987px;font-family:Rubik;-inkscape-font-specification:'Rubik, Normal';font-variant-ligatures:normal;font-variant-caps:normal;font-variant-numeric:normal;font-variant-east-asian:normal;fill:#616870;fill-opacity:1;stroke-width:0.200747"
           d="m 63.853151,33.058532 q -0.61027,0 -1.019793,-0.232866 -0.409524,-0.232866 -0.62633,-0.64239 -0.216807,-0.417553 -0.240896,-0.947524 -0.008,-0.136508 -0.008,-0.345285 0,-0.216806 0.008,-0.345284 0.02409,-0.538002 0.240896,-0.947525 0.224836,-0.409523 0.63436,-0.64239 0.409523,-0.232866 1.011763,-0.232866 0.60224,0 1.011764,0.232866 0.409523,0.232867 0.62633,0.64239 0.224836,0.409523 0.248926,0.947525 0.008,0.128478 0.008,0.345284 0,0.208777 -0.008,0.345285 -0.02409,0.529971 -0.240897,0.947524 -0.216806,0.409524 -0.626329,0.64239 -0.409524,0.232866 -1.019794,0.232866 z m 0,-0.6183 q 0.497852,0 0.794957,-0.313165 0.297105,-0.321195 0.321195,-0.931465 0.008,-0.120448 0.008,-0.305135 0,-0.184687 -0.008,-0.305135 -0.02409,-0.61027 -0.321195,-0.923435 -0.297105,-0.321195 -0.794957,-0.321195 -0.497852,0 -0.802987,0.321195 -0.297105,0.313165 -0.313165,0.923435 -0.008,0.120448 -0.008,0.305135 0,0.184687 0.008,0.305135 0.01606,0.61027 0.313165,0.931465 0.305135,0.313165 0.802987,0.313165 z" />
        <path
           id="path5320"
           style="font-style:normal;font-variant:normal;font-weight:normal;font-stretch:normal;font-size:8.02987px;font-family:Rubik;-inkscape-font-specification:'Rubik, Normal';font-variant-ligatures:normal;font-variant-caps:normal;font-variant-numeric:normal;font-variant-east-asian:normal;fill:#616870;fill-opacity:1;stroke-width:0.200747"
           d="m 66.938377,32.978233 q -0.0803,0 -0.136508,-0.04818 -0.04818,-0.05621 -0.04818,-0.136508 v -3.806158 q 0,-0.0803 0.04818,-0.128478 0.05621,-0.05621 0.136508,-0.05621 h 0.377404 q 0.0803,0 0.128478,0.05621 0.05621,0.04818 0.05621,0.128478 v 0.353314 q 0.208776,-0.273015 0.521941,-0.441643 0.321195,-0.176657 0.819047,-0.176657 0.521941,0 0.883286,0.232866 0.369374,0.224837 0.554061,0.63436 0.184687,0.401494 0.184687,0.939495 v 2.264423 q 0,0.0803 -0.04818,0.136508 -0.04818,0.04818 -0.128477,0.04818 h -0.401494 q -0.0803,0 -0.136508,-0.04818 -0.04818,-0.05621 -0.04818,-0.136508 v -2.224274 q 0,-0.562091 -0.273016,-0.875256 -0.273015,-0.321194 -0.802987,-0.321194 -0.497852,0 -0.802987,0.321194 -0.297105,0.313165 -0.297105,0.875256 v 2.224274 q 0,0.0803 -0.05621,0.136508 -0.04818,0.04818 -0.128478,0.04818 z" />
        <path
           id="path5322"
           style="font-style:normal;font-variant:normal;font-weight:normal;font-stretch:normal;font-size:8.02987px;font-family:Rubik;-inkscape-font-specification:'Rubik, Normal';font-variant-ligatures:normal;font-variant-caps:normal;font-variant-numeric:normal;font-variant-east-asian:normal;fill:#616870;fill-opacity:1;stroke-width:0.200747"
           d="m 73.865015,32.978233 q -0.0803,0 -0.136507,-0.04818 -0.04818,-0.05621 -0.04818,-0.136508 v -5.243505 q 0,-0.08833 0.04818,-0.136508 0.05621,-0.05621 0.136507,-0.05621 h 0.401494 q 0.09636,0 0.144538,0.04818 0.04818,0.04818 0.05621,0.0803 l 1.702332,3.244068 1.710362,-3.244068 q 0.01606,-0.03212 0.05621,-0.0803 0.04818,-0.04818 0.144538,-0.04818 h 0.393464 q 0.08833,0 0.136508,0.05621 0.05621,0.04818 0.05621,0.136508 v 5.243505 q 0,0.0803 -0.05621,0.136508 -0.04818,0.04818 -0.136508,0.04818 h -0.393464 q -0.0803,0 -0.136508,-0.04818 -0.04818,-0.05621 -0.04818,-0.136508 V 28.84285 l -1.340988,2.617738 q -0.03212,0.0803 -0.09636,0.128478 -0.06424,0.04015 -0.160597,0.04015 H 76.04914 q -0.104388,0 -0.168627,-0.04015 -0.05621,-0.04818 -0.09636,-0.128478 L 74.443166,28.84285 v 3.950696 q 0,0.0803 -0.05621,0.136508 -0.04818,0.04818 -0.128478,0.04818 z" />
        <path
           id="path5324"
           style="font-style:normal;font-variant:normal;font-weight:normal;font-stretch:normal;font-size:8.02987px;font-family:Rubik;-inkscape-font-specification:'Rubik, Normal';font-variant-ligatures:normal;font-variant-caps:normal;font-variant-numeric:normal;font-variant-east-asian:normal;fill:#616870;fill-opacity:1;stroke-width:0.200747"
           d="m 81.123389,33.058532 q -0.401494,0 -0.730718,-0.160597 -0.329225,-0.160598 -0.529972,-0.433613 -0.200746,-0.273016 -0.200746,-0.6183 0,-0.554061 0.449672,-0.883286 0.449673,-0.329225 1.172361,-0.433613 l 1.196451,-0.168627 v -0.232867 q 0,-0.385433 -0.224836,-0.60224 -0.216807,-0.216806 -0.714659,-0.216806 -0.361344,0 -0.58618,0.144537 -0.216807,0.144538 -0.305135,0.369374 -0.04818,0.120448 -0.168628,0.120448 h -0.361344 q -0.08833,0 -0.136508,-0.04818 -0.04015,-0.05621 -0.04015,-0.128478 0,-0.120448 0.08833,-0.297105 0.09636,-0.176657 0.289075,-0.345284 0.192717,-0.168628 0.489822,-0.281046 0.305135,-0.120448 0.738748,-0.120448 0.481792,0 0.811017,0.128478 0.329225,0.120448 0.513912,0.329225 0.192716,0.208776 0.273015,0.473762 0.08833,0.264986 0.08833,0.538001 v 2.601678 q 0,0.0803 -0.05621,0.136508 -0.04818,0.04818 -0.128478,0.04818 h -0.369374 q -0.08833,0 -0.136508,-0.04818 -0.04818,-0.05621 -0.04818,-0.136508 v -0.345284 q -0.104389,0.144538 -0.281046,0.289075 -0.176657,0.136508 -0.441643,0.232866 -0.264985,0.08833 -0.650419,0.08833 z m 0.168627,-0.60224 q 0.329225,0 0.60224,-0.136508 0.273016,-0.144538 0.425584,-0.441643 0.160597,-0.297105 0.160597,-0.746778 v -0.224836 l -0.931465,0.136508 q -0.570121,0.0803 -0.859196,0.273015 -0.289075,0.184687 -0.289075,0.473763 0,0.224836 0.128478,0.377403 0.136507,0.144538 0.337254,0.216807 0.208777,0.07227 0.425583,0.07227 z" />
        <path
           id="path5326"
           style="font-style:normal;font-variant:normal;font-weight:normal;font-stretch:normal;font-size:8.02987px;font-family:Rubik;-inkscape-font-specification:'Rubik, Normal';font-variant-ligatures:normal;font-variant-caps:normal;font-variant-numeric:normal;font-variant-east-asian:normal;fill:#616870;fill-opacity:1;stroke-width:0.200747"
           d="m 84.58213,32.978233 q -0.0803,0 -0.136508,-0.04818 -0.04818,-0.05621 -0.04818,-0.136508 v -3.806158 q 0,-0.0803 0.04818,-0.128478 0.05621,-0.05621 0.136508,-0.05621 h 0.377404 q 0.0803,0 0.128478,0.05621 0.05621,0.04818 0.05621,0.128478 v 0.353314 q 0.208776,-0.273015 0.521941,-0.441643 0.321195,-0.176657 0.819047,-0.176657 0.521942,0 0.883286,0.232866 0.369374,0.224837 0.554061,0.63436 0.184687,0.401494 0.184687,0.939495 v 2.264423 q 0,0.0803 -0.04818,0.136508 -0.04818,0.04818 -0.128477,0.04818 h -0.401494 q -0.0803,0 -0.136508,-0.04818 -0.04818,-0.05621 -0.04818,-0.136508 v -2.224274 q 0,-0.562091 -0.273016,-0.875256 -0.273015,-0.321194 -0.802987,-0.321194 -0.497851,0 -0.802987,0.321194 -0.297105,0.313165 -0.297105,0.875256 v 2.224274 q 0,0.0803 -0.05621,0.136508 -0.04818,0.04818 -0.128478,0.04818 z" />
        <path
           id="path5328"
           style="font-style:normal;font-variant:normal;font-weight:normal;font-stretch:normal;font-size:8.02987px;font-family:Rubik;-inkscape-font-specification:'Rubik, Normal';font-variant-ligatures:normal;font-variant-caps:normal;font-variant-numeric:normal;font-variant-east-asian:normal;fill:#616870;fill-opacity:1;stroke-width:0.200747"
           d="m 90.423613,33.058532 q -0.401493,0 -0.730718,-0.160597 -0.329225,-0.160598 -0.529971,-0.433613 -0.200747,-0.273016 -0.200747,-0.6183 0,-0.554061 0.449673,-0.883286 0.449672,-0.329225 1.172361,-0.433613 l 1.19645,-0.168627 v -0.232867 q 0,-0.385433 -0.224836,-0.60224 -0.216807,-0.216806 -0.714659,-0.216806 -0.361344,0 -0.58618,0.144537 -0.216807,0.144538 -0.305135,0.369374 -0.04818,0.120448 -0.168627,0.120448 h -0.361345 q -0.08833,0 -0.136507,-0.04818 -0.04015,-0.05621 -0.04015,-0.128478 0,-0.120448 0.08833,-0.297105 0.09636,-0.176657 0.289075,-0.345284 0.192717,-0.168628 0.489822,-0.281046 0.305135,-0.120448 0.738748,-0.120448 0.481793,0 0.811017,0.128478 0.329225,0.120448 0.513912,0.329225 0.192717,0.208776 0.273015,0.473762 0.08833,0.264986 0.08833,0.538001 v 2.601678 q 0,0.0803 -0.05621,0.136508 -0.04818,0.04818 -0.128478,0.04818 h -0.369374 q -0.08833,0 -0.136508,-0.04818 -0.04818,-0.05621 -0.04818,-0.136508 v -0.345284 q -0.104388,0.144538 -0.281045,0.289075 -0.176658,0.136508 -0.441643,0.232866 -0.264986,0.08833 -0.65042,0.08833 z m 0.168627,-0.60224 q 0.329225,0 0.602241,-0.136508 0.273015,-0.144538 0.425583,-0.441643 0.160597,-0.297105 0.160597,-0.746778 v -0.224836 l -0.931465,0.136508 q -0.57012,0.0803 -0.859196,0.273015 -0.289075,0.184687 -0.289075,0.473763 0,0.224836 0.128478,0.377403 0.136508,0.144538 0.337254,0.216807 0.208777,0.07227 0.425583,0.07227 z" />
        <path
           id="path5330"
           style="font-style:normal;font-variant:normal;font-weight:normal;font-stretch:normal;font-size:8.02987px;font-family:Rubik;-inkscape-font-specification:'Rubik, Normal';font-variant-ligatures:normal;font-variant-caps:normal;font-variant-numeric:normal;font-variant-east-asian:normal;fill:#616870;fill-opacity:1;stroke-width:0.200747"
           d="m 95.408029,34.744805 q -0.546031,0 -0.899345,-0.144538 -0.345284,-0.144538 -0.546031,-0.353314 -0.192717,-0.200747 -0.281046,-0.409524 -0.0803,-0.200746 -0.08833,-0.321194 -0.008,-0.0803 0.04818,-0.136508 0.06424,-0.05621 0.136508,-0.05621 H 94.1634 q 0.07227,0 0.120448,0.03212 0.04818,0.03212 0.0803,0.136508 0.04818,0.120448 0.144538,0.264986 0.09636,0.152567 0.297105,0.256956 0.200747,0.112418 0.562091,0.112418 0.377404,0 0.63436,-0.104389 0.256956,-0.09636 0.385434,-0.353314 0.136507,-0.248926 0.136507,-0.690569 v -0.546031 q -0.192717,0.248926 -0.505882,0.417553 -0.313164,0.160598 -0.786927,0.160598 -0.449672,0 -0.770867,-0.152568 -0.321195,-0.160597 -0.529972,-0.425583 -0.200746,-0.273015 -0.305135,-0.6183 -0.09636,-0.345284 -0.112418,-0.722688 -0.008,-0.224836 0,-0.441643 0.01606,-0.377404 0.112418,-0.722688 0.104389,-0.345285 0.305135,-0.6183 0.208777,-0.273016 0.529972,-0.425583 0.321195,-0.160598 0.770867,-0.160598 0.481792,0 0.794957,0.184687 0.321195,0.176657 0.521942,0.433613 v -0.345284 q 0,-0.0803 0.04818,-0.136508 0.05621,-0.05621 0.136508,-0.05621 h 0.369374 q 0.0803,0 0.136508,0.05621 0.05621,0.05621 0.05621,0.136508 v 3.894487 q 0,0.538001 -0.184687,0.955554 -0.176657,0.417554 -0.594211,0.65845 -0.409523,0.240896 -1.108122,0.240896 z m -0.01606,-2.376842 q 0.401493,0 0.642389,-0.184687 0.248926,-0.184687 0.361344,-0.465732 0.120448,-0.281046 0.128478,-0.570121 0.008,-0.112418 0.008,-0.273016 0,-0.168627 -0.008,-0.281045 -0.008,-0.289075 -0.128478,-0.570121 -0.112418,-0.281045 -0.361344,-0.465732 -0.240896,-0.184687 -0.642389,-0.184687 -0.401494,0 -0.64239,0.184687 -0.240896,0.176657 -0.345284,0.473762 -0.104389,0.289075 -0.120448,0.62633 -0.008,0.208777 0,0.425583 0.01606,0.337255 0.120448,0.63436 0.104388,0.289075 0.345284,0.473762 0.240896,0.176657 0.64239,0.176657 z" />
        <path
           id="path5332"
           style="font-style:normal;font-variant:normal;font-weight:normal;font-stretch:normal;font-size:8.02987px;font-family:Rubik;-inkscape-font-specification:'Rubik, Normal';font-variant-ligatures:normal;font-variant-caps:normal;font-variant-numeric:normal;font-variant-east-asian:normal;fill:#616870;fill-opacity:1;stroke-width:0.200747"
           d="m 100.15895,33.058532 q -0.827074,0 -1.316896,-0.505882 -0.489822,-0.513911 -0.538001,-1.397197 -0.008,-0.104388 -0.008,-0.264986 0,-0.168627 0.008,-0.273015 0.03212,-0.570121 0.264986,-0.995704 0.232866,-0.433613 0.634359,-0.66648 0.409524,-0.232866 0.955552,-0.232866 0.61027,0 1.0198,0.256956 0.41755,0.256956 0.63436,0.730718 0.2168,0.473763 0.2168,1.108122 v 0.136508 q 0,0.08833 -0.0562,0.136508 -0.0482,0.04818 -0.12847,0.04818 h -2.778339 q 0,0.008 0,0.03212 0,0.02409 0,0.04015 0.01606,0.329225 0.144537,0.6183 0.128478,0.281045 0.369374,0.457703 0.240896,0.176657 0.578148,0.176657 0.28908,0 0.4818,-0.08833 0.19271,-0.08833 0.31316,-0.192717 0.12045,-0.112418 0.1606,-0.168627 0.0723,-0.104388 0.11242,-0.120448 0.0402,-0.02409 0.12847,-0.02409 h 0.38544 q 0.0803,0 0.12848,0.04818 0.0562,0.04015 0.0482,0.120449 -0.008,0.120448 -0.12847,0.297105 -0.12045,0.168627 -0.34529,0.337254 -0.22483,0.168628 -0.54603,0.281046 -0.32119,0.104388 -0.73875,0.104388 z m -1.092059,-2.4732 h 2.200189 v -0.02409 q 0,-0.361344 -0.13651,-0.642389 -0.12848,-0.281046 -0.37741,-0.441643 -0.24892,-0.168627 -0.59421,-0.168627 -0.345281,0 -0.594207,0.168627 -0.240897,0.160597 -0.369374,0.441643 -0.128478,0.281045 -0.128478,0.642389 z" />
        <path
           id="path5334"
           style="font-style:normal;font-variant:normal;font-weight:normal;font-stretch:normal;font-size:8.02987px;font-family:Rubik;-inkscape-font-specification:'Rubik, Normal';font-variant-ligatures:normal;font-variant-caps:normal;font-variant-numeric:normal;font-variant-east-asian:normal;fill:#616870;fill-opacity:1;stroke-width:0.200747"
           d="m 103.18257,32.978233 q -0.0803,0 -0.13651,-0.04818 -0.0482,-0.05621 -0.0482,-0.136508 v -3.798128 q 0,-0.0803 0.0482,-0.136508 0.0562,-0.05621 0.13651,-0.05621 h 0.36937 q 0.0803,0 0.13651,0.05621 0.0562,0.05621 0.0562,0.136508 v 0.353314 q 0.1606,-0.273015 0.44164,-0.409523 0.28105,-0.136508 0.67451,-0.136508 h 0.3212 q 0.0803,0 0.12848,0.05621 0.0482,0.04818 0.0482,0.128478 v 0.329225 q 0,0.0803 -0.0482,0.128478 -0.0482,0.04818 -0.12848,0.04818 h -0.48179 q -0.43362,0 -0.68254,0.256956 -0.24893,0.248926 -0.24893,0.682539 v 2.360781 q 0,0.0803 -0.0562,0.136508 -0.0562,0.04818 -0.13651,0.04818 z" />
      </g>
    </g>
  </g>
</svg>
