<?xml version="1.0" encoding="UTF-8" standalone="no"?>
<svg xmlns:dc="http://purl.org/dc/elements/1.1/" xmlns:cc="http://creativecommons.org/ns#" xmlns:rdf="http://www.w3.org/1999/02/22-rdf-syntax-ns#" xmlns:svg="http://www.w3.org/2000/svg" xmlns="http://www.w3.org/2000/svg" id="svg1043" version="1.1" viewBox="0 0 50.799999 33.866668" height="128" width="192">
  <g id="layer1">
    <g transform="matrix(0.26458333,0,0,0.26458333,3.1999999e-7,-0.39687478)" id="Provider/OracleCIC/opc-128" stroke="none" stroke-width="1" fill="none" fill-rule="evenodd">
      <path d="m 153.0221,56.855297 c -2.63102,0 -4.86363,-1.764388 -5.54629,-4.197663 h 14.64759 l 2.01923,-3.144703 h -16.66682 c 0.68266,-2.418691 2.91527,-4.197259 5.54629,-4.197259 h 10.05362 l 2.03381,-3.145108 h -12.31498 c -4.92072,0 -8.91626,3.99874 -8.91626,8.922011 0,4.92327 3.99554,8.907425 8.91626,8.907425 h 10.56582 L 165.38,56.855297 Z M 111.11353,60 c -4.91992,0 -8.91585,-3.984155 -8.91585,-8.907425 0,-4.923271 3.99593,-8.922011 8.91585,-8.922011 h 12.30121 l -2.00505,3.145108 h -10.0682 c -3.18574,0 -5.77385,2.58966 -5.77385,5.776903 0,3.187242 2.58811,5.762722 5.77385,5.762722 h 12.35749 L 121.67975,60 Z M 46.037094,56.855297 c 3.187358,0 5.768178,-2.57548 5.768178,-5.762722 0,-3.187243 -2.58082,-5.776903 -5.768178,-5.776903 h -9.897329 c -3.185334,0 -5.768179,2.58966 -5.768179,5.776903 0,3.187242 2.582845,5.762722 5.768179,5.762722 z M 35.910997,60 C 30.99189,60 27,56.015845 27,51.092575 c 0,-4.923271 3.99189,-8.922011 8.910997,-8.922011 h 10.356889 c 4.919917,0 8.908973,3.99874 8.908973,8.922011 0,4.92327 -3.989056,8.907425 -8.908973,8.907425 z m 36.081685,-5.777308 c 3.327858,0 6.029743,-2.688919 6.029743,-6.018771 0,-3.329447 -2.701885,-6.033357 -6.029743,-6.033357 H 57.000115 V 60 h 3.425843 V 45.315672 h 11.339171 c 1.592869,0 2.872752,1.294425 2.872752,2.888249 0,1.593824 -1.279883,2.888654 -2.872752,2.888654 L 62.103856,51.078395 72.334011,60 h 4.977413 l -6.882863,-5.777308 z m 56.697878,2.632605 V 42.170564 h -3.42746 v 16.121768 c 0,0.441198 0.17087,0.868216 0.49803,1.19557 C 126.08788,59.814851 126.52881,60 127.01267,60 h 15.62825 l 2.01963,-3.144703 z M 86.739476,53.710594 H 95.88329 L 91.048401,45.927435 82.174655,60 H 78.136201 L 88.92957,43.095906 C 89.398847,42.412838 90.18111,42 91.048401,42 c 0.839354,0 1.621212,0.398253 2.075913,1.067141 L 103.9606,60 h -4.038452 l -1.905855,-3.144703 h -9.25759 z M 167.22344,45.68428 c -1.01414,0 -1.84344,-0.823151 -1.84344,-1.842326 C 165.38,42.823151 166.2093,42 167.22344,42 c 1.02726,0 1.85656,0.823151 1.85656,1.841954 0,1.019175 -0.8293,1.842326 -1.85656,1.842326 z m -0.17134,-2.939613 c 0.28981,0 0.40828,0.01302 0.54025,0.06547 0.36854,0.117539 0.40828,0.444122 0.40828,0.57468 0,0.02604 0,0.0915 -0.0266,0.169615 -0.0131,0.07848 -0.066,0.235451 -0.25044,0.352991 -0.0259,0.01302 -0.039,0.02604 -0.0918,0.05208 l 0.47426,0.84956 h -0.46114 l -0.4214,-0.784095 h -0.28943 v 0.784095 h -0.40828 v -2.064387 z m 0.14509,0.940691 c 0.1316,-0.01302 0.26319,-0.01302 0.3423,-0.13093 0.0397,-0.05208 0.0529,-0.104149 0.0529,-0.182633 0,-0.104522 -0.066,-0.196024 -0.15821,-0.248099 -0.0922,-0.03943 -0.18408,-0.03943 -0.38204,-0.03943 h -0.11809 v 0.60109 z m -1.42203,0.143577 c 0,0.810133 0.64522,1.450279 1.44828,1.450279 0.81656,0 1.46178,-0.640146 1.46178,-1.450279 0,-0.796741 -0.64522,-1.436887 -1.46178,-1.436887 -0.80306,0 -1.44828,0.640146 -1.44828,1.436887 z" id="ORACLE" fill="#B0B5BE" />
    </g>
  </g>
  <text id="text1614" y="27.198807" x="2.2950521" style="font-size:10.5833px;line-height:1.05;font-family:Rubik;-inkscape-font-specification:'Rubik, Normal';stroke-width:0.264583" xml:space="preserve">
    <tspan style="stroke-width:0.264583" y="27.198807" x="2.2950521" id="tspan1612" />
  </text>
  <g style="font-size:3.80847px;line-height:1.05;font-family:Rubik;-inkscape-font-specification:'Rubik, Normal';fill:#b0b5be;fill-opacity:1;stroke-width:0.0952119" id="text1618" aria-label="Linux Virtualization Manager ">
    <path id="path1620" style="fill:#b0b5be;fill-opacity:1;stroke-width:0.0952119" d="m 0.37354075,22.819601 q -0.0418932,0 -0.064744,-0.02285 -0.0228508,-0.02666 -0.0228508,-0.06474 v -2.490739 q 0,-0.03808 0.0228508,-0.06094 0.0228508,-0.02666 0.064744,-0.02666 h 0.20184891 q 0.0380847,0 0.0609355,0.02666 0.0228508,0.02285 0.0228508,0.06094 v 2.246997 h 1.2682205 q 0.041893,0 0.064744,0.02666 0.022851,0.02285 0.022851,0.06474 v 0.152339 q 0,0.03809 -0.022851,0.06474 -0.022851,0.02285 -0.064744,0.02285 z" />
    <path id="path1622" style="fill:#b0b5be;fill-opacity:1;stroke-width:0.0952119" d="m 2.466295,22.819601 q -0.038085,0 -0.064744,-0.02285 -0.022851,-0.02666 -0.022851,-0.06474 v -1.805215 q 0,-0.03808 0.022851,-0.06094 0.026659,-0.02666 0.064744,-0.02666 h 0.1828066 q 0.038085,0 0.060936,0.02666 0.022851,0.02285 0.022851,0.06094 v 1.805215 q 0,0.03809 -0.022851,0.06474 -0.022851,0.02285 -0.060936,0.02285 z m -0.030468,-2.349826 q -0.038085,0 -0.064744,-0.02285 -0.022851,-0.02666 -0.022851,-0.06474 v -0.205657 q 0,-0.03808 0.022851,-0.06094 0.026659,-0.02666 0.064744,-0.02666 h 0.2399337 q 0.038085,0 0.060935,0.02666 0.026659,0.02285 0.026659,0.06094 v 0.205657 q 0,0.03808 -0.026659,0.06474 -0.022851,0.02285 -0.060935,0.02285 z" />
    <path id="path1624" style="fill:#b0b5be;fill-opacity:1;stroke-width:0.0952119" d="m 3.3886588,22.819601 q -0.038085,0 -0.064744,-0.02285 -0.022851,-0.02666 -0.022851,-0.06474 v -1.805215 q 0,-0.03808 0.022851,-0.06094 0.026659,-0.02666 0.064744,-0.02666 h 0.178998 q 0.038085,0 0.060936,0.02666 0.026659,0.02285 0.026659,0.06094 v 0.167573 q 0.09902,-0.129488 0.2475505,-0.209466 0.1523388,-0.08379 0.388464,-0.08379 0.2475505,0 0.4189317,0.110446 0.1751896,0.106637 0.2627844,0.300869 0.087595,0.190423 0.087595,0.445591 v 1.073988 q 0,0.03809 -0.022851,0.06474 -0.022851,0.02285 -0.060936,0.02285 H 4.7863673 q -0.038085,0 -0.064744,-0.02285 -0.022851,-0.02666 -0.022851,-0.06474 V 21.67706 q 0,-0.266593 -0.1294879,-0.415123 -0.129488,-0.152339 -0.380847,-0.152339 -0.2361252,0 -0.380847,0.152339 -0.1409134,0.14853 -0.1409134,0.415123 v 1.054946 q 0,0.03809 -0.026659,0.06474 -0.022851,0.02285 -0.060935,0.02285 z" />
    <path id="path1626" style="fill:#b0b5be;fill-opacity:1;stroke-width:0.0952119" d="m 6.3458168,22.857686 q -0.2437421,0 -0.4151233,-0.106637 Q 5.7631209,22.640603 5.675526,22.446371 5.5879312,22.252139 5.5879312,22.00078 v -1.073989 q 0,-0.03808 0.022851,-0.06094 0.026659,-0.02666 0.064744,-0.02666 h 0.1904235 q 0.038085,0 0.060936,0.02666 0.026659,0.02285 0.026659,0.06094 v 1.054947 q 0,0.567462 0.4951011,0.567462 0.2361251,0 0.3770385,-0.148531 0.1447218,-0.152338 0.1447218,-0.418931 v -1.054947 q 0,-0.03808 0.022851,-0.06094 0.026659,-0.02666 0.064744,-0.02666 h 0.186615 q 0.041893,0 0.064744,0.02666 0.022851,0.02285 0.022851,0.06094 v 1.805215 q 0,0.03809 -0.022851,0.06474 -0.022851,0.02285 -0.064744,0.02285 H 7.0694261 q -0.038085,0 -0.064744,-0.02285 -0.022851,-0.02666 -0.022851,-0.06474 v -0.167572 q -0.1028287,0.133296 -0.2513591,0.213274 -0.1447218,0.07998 -0.3846554,0.07998 z" />
    <path id="path1628" style="fill:#b0b5be;fill-opacity:1;stroke-width:0.0952119" d="m 7.8066031,22.819601 q -0.030468,0 -0.057127,-0.02285 -0.022851,-0.02285 -0.022851,-0.05713 0,-0.01143 0.00381,-0.02666 0.00762,-0.01904 0.022851,-0.04189 L 8.4159583,21.806548 7.7951777,20.987727 q -0.015234,-0.02285 -0.022851,-0.03808 -0.00381,-0.01523 -0.00381,-0.03047 0,-0.03428 0.022851,-0.05713 0.022851,-0.02285 0.057127,-0.02285 h 0.1942319 q 0.041893,0 0.060936,0.02285 0.022851,0.01904 0.038085,0.03808 l 0.5065265,0.658865 0.5065265,-0.655056 q 0.015234,-0.01904 0.034276,-0.04189 0.022851,-0.02285 0.064744,-0.02285 h 0.186615 q 0.034276,0 0.057127,0.02285 0.022851,0.02285 0.022851,0.05713 0,0.01523 -0.00762,0.03047 -0.00381,0.01523 -0.019042,0.03808 l -0.6283975,0.826438 0.6626737,0.856906 q 0.015234,0.02285 0.019042,0.03808 0.00762,0.01523 0.00762,0.03047 0,0.03428 -0.022851,0.05713 -0.022851,0.02285 -0.057127,0.02285 H 9.272864 q -0.038085,0 -0.060935,-0.01904 -0.022851,-0.01904 -0.038085,-0.03808 l -0.5369942,-0.69695 -0.5369943,0.69695 q -0.015234,0.01523 -0.038085,0.03808 -0.019042,0.01904 -0.060935,0.01904 z" />
    <path id="path1630" style="fill:#b0b5be;fill-opacity:1;stroke-width:0.0952119" d="m 11.618346,22.819601 q -0.05713,0 -0.0914,-0.02666 -0.03047,-0.02666 -0.04951,-0.07236 l -0.849289,-2.448846 q -0.0076,-0.02285 -0.0076,-0.04189 0,-0.03047 0.02285,-0.05332 0.02285,-0.02285 0.05332,-0.02285 h 0.198041 q 0.0457,0 0.06855,0.02666 0.02666,0.02285 0.03047,0.04189 l 0.74646,2.159402 0.74646,-2.159402 q 0.0076,-0.01904 0.03047,-0.04189 0.02285,-0.02666 0.06855,-0.02666 h 0.198041 q 0.03047,0 0.05332,0.02285 0.02666,0.02285 0.02666,0.05332 0,0.01904 -0.0076,0.04189 l -0.853097,2.448846 q -0.01523,0.0457 -0.04951,0.07236 -0.03047,0.02666 -0.08759,0.02666 z" />
    <path id="path1632" style="fill:#b0b5be;fill-opacity:1;stroke-width:0.0952119" d="m 13.311509,22.819601 q -0.03808,0 -0.06474,-0.02285 -0.02285,-0.02666 -0.02285,-0.06474 v -1.805215 q 0,-0.03808 0.02285,-0.06094 0.02666,-0.02666 0.06474,-0.02666 h 0.182806 q 0.03809,0 0.06094,0.02666 0.02285,0.02285 0.02285,0.06094 v 1.805215 q 0,0.03809 -0.02285,0.06474 -0.02285,0.02285 -0.06094,0.02285 z m -0.03047,-2.349826 q -0.03809,0 -0.06474,-0.02285 -0.02285,-0.02666 -0.02285,-0.06474 v -0.205657 q 0,-0.03808 0.02285,-0.06094 0.02666,-0.02666 0.06474,-0.02666 h 0.239934 q 0.03808,0 0.06094,0.02666 0.02666,0.02285 0.02666,0.06094 v 0.205657 q 0,0.03808 -0.02666,0.06474 -0.02285,0.02285 -0.06094,0.02285 z" />
    <path id="path1634" style="fill:#b0b5be;fill-opacity:1;stroke-width:0.0952119" d="m 14.233872,22.819601 q -0.03809,0 -0.06474,-0.02285 -0.02285,-0.02666 -0.02285,-0.06474 V 20.9306 q 0,-0.03808 0.02285,-0.06474 0.02666,-0.02666 0.06474,-0.02666 h 0.17519 q 0.03808,0 0.06474,0.02666 0.02666,0.02666 0.02666,0.06474 v 0.167573 q 0.07617,-0.129488 0.209466,-0.194232 0.133296,-0.06474 0.319911,-0.06474 h 0.152339 q 0.03809,0 0.06094,0.02666 0.02285,0.02285 0.02285,0.06094 v 0.156148 q 0,0.03808 -0.02285,0.06094 -0.02285,0.02285 -0.06094,0.02285 h -0.228508 q -0.205657,0 -0.32372,0.121871 -0.118063,0.118063 -0.118063,0.32372 v 1.11969 q 0,0.03809 -0.02666,0.06474 -0.02666,0.02285 -0.06474,0.02285 z" />
    <path id="path1636" style="fill:#b0b5be;fill-opacity:1;stroke-width:0.0952119" d="m 16.369889,22.819601 q -0.213275,0 -0.346571,-0.07998 -0.133297,-0.08379 -0.194232,-0.232316 -0.06094,-0.152339 -0.06094,-0.357997 v -1.005436 h -0.29706 q -0.03809,0 -0.06474,-0.02285 -0.02285,-0.02666 -0.02285,-0.06474 v -0.129488 q 0,-0.03808 0.02285,-0.06094 0.02666,-0.02666 0.06474,-0.02666 h 0.29706 v -0.636015 q 0,-0.03809 0.02285,-0.06094 0.02666,-0.02666 0.06474,-0.02666 h 0.178998 q 0.03809,0 0.06094,0.02666 0.02666,0.02285 0.02666,0.06094 v 0.636015 h 0.47225 q 0.03808,0 0.06094,0.02666 0.02666,0.02285 0.02666,0.06094 v 0.129488 q 0,0.03808 -0.02666,0.06474 -0.02285,0.02285 -0.06094,0.02285 h -0.47225 v 0.978777 q 0,0.178998 0.06094,0.281827 0.06094,0.102829 0.217082,0.102829 h 0.232317 q 0.03808,0 0.06094,0.02666 0.02666,0.02285 0.02666,0.06094 v 0.137105 q 0,0.03809 -0.02666,0.06474 -0.02285,0.02285 -0.06094,0.02285 z" />
    <path id="path1638" style="fill:#b0b5be;fill-opacity:1;stroke-width:0.0952119" d="m 17.823296,22.857686 q -0.243742,0 -0.415123,-0.106637 -0.167573,-0.110446 -0.255168,-0.304678 -0.0876,-0.194232 -0.0876,-0.445591 v -1.073989 q 0,-0.03808 0.02285,-0.06094 0.02666,-0.02666 0.06474,-0.02666 h 0.190424 q 0.03808,0 0.06094,0.02666 0.02666,0.02285 0.02666,0.06094 v 1.054947 q 0,0.567462 0.495101,0.567462 0.236126,0 0.377039,-0.148531 0.144722,-0.152338 0.144722,-0.418931 v -1.054947 q 0,-0.03808 0.02285,-0.06094 0.02666,-0.02666 0.06474,-0.02666 h 0.186615 q 0.04189,0 0.06474,0.02666 0.02285,0.02285 0.02285,0.06094 v 1.805215 q 0,0.03809 -0.02285,0.06474 -0.02285,0.02285 -0.06474,0.02285 h -0.17519 q -0.03808,0 -0.06474,-0.02285 -0.02285,-0.02666 -0.02285,-0.06474 v -0.167572 q -0.102828,0.133296 -0.251359,0.213274 -0.144722,0.07998 -0.384655,0.07998 z" />
    <path id="path1640" style="fill:#b0b5be;fill-opacity:1;stroke-width:0.0952119" d="m 19.927714,22.857686 q -0.190424,0 -0.346571,-0.07617 -0.156148,-0.07617 -0.251359,-0.205657 -0.09521,-0.129488 -0.09521,-0.293252 0,-0.262785 0.213274,-0.418932 0.213275,-0.156147 0.556037,-0.205657 l 0.567462,-0.07998 v -0.110446 q 0,-0.182806 -0.106637,-0.285635 -0.102829,-0.102829 -0.338954,-0.102829 -0.171381,0 -0.278018,0.06855 -0.102829,0.06855 -0.144722,0.175189 -0.02285,0.05713 -0.07998,0.05713 h -0.171381 q -0.04189,0 -0.06474,-0.02285 -0.01904,-0.02666 -0.01904,-0.06094 0,-0.05713 0.04189,-0.140913 0.0457,-0.08379 0.137105,-0.163765 0.0914,-0.07998 0.232316,-0.133296 0.144722,-0.05713 0.350379,-0.05713 0.228509,0 0.384656,0.06094 0.156147,0.05713 0.243742,0.156148 0.0914,0.09902 0.129488,0.224699 0.04189,0.12568 0.04189,0.255168 v 1.233944 q 0,0.03809 -0.02666,0.06474 -0.02285,0.02285 -0.06094,0.02285 h -0.175189 q -0.04189,0 -0.06474,-0.02285 -0.02285,-0.02666 -0.02285,-0.06474 v -0.163764 q -0.04951,0.06855 -0.133297,0.137105 -0.08379,0.06474 -0.209465,0.110446 -0.12568,0.04189 -0.308486,0.04189 z m 0.07998,-0.285635 q 0.156148,0 0.285636,-0.06474 0.129488,-0.06855 0.201849,-0.209466 0.07617,-0.140914 0.07617,-0.354188 v -0.106637 l -0.441783,0.06474 q -0.270401,0.03808 -0.407506,0.129488 -0.137105,0.08759 -0.137105,0.224699 0,0.106638 0.06094,0.178999 0.06474,0.06855 0.159955,0.102828 0.09902,0.03428 0.201849,0.03428 z" />
    <path id="path1642" style="fill:#b0b5be;fill-opacity:1;stroke-width:0.0952119" d="m 21.571961,22.819601 q -0.03809,0 -0.06474,-0.02285 -0.02285,-0.02666 -0.02285,-0.06474 v -2.528824 q 0,-0.03809 0.02285,-0.06094 0.02666,-0.02666 0.06474,-0.02666 h 0.178998 q 0.04189,0 0.06474,0.02666 0.02285,0.02285 0.02285,0.06094 v 2.528824 q 0,0.03809 -0.02285,0.06474 -0.02285,0.02285 -0.06474,0.02285 z" />
    <path id="path1644" style="fill:#b0b5be;fill-opacity:1;stroke-width:0.0952119" d="m 22.490517,22.819601 q -0.03808,0 -0.06474,-0.02285 -0.02285,-0.02666 -0.02285,-0.06474 v -1.805215 q 0,-0.03808 0.02285,-0.06094 0.02666,-0.02666 0.06474,-0.02666 h 0.182807 q 0.03808,0 0.06094,0.02666 0.02285,0.02285 0.02285,0.06094 v 1.805215 q 0,0.03809 -0.02285,0.06474 -0.02285,0.02285 -0.06094,0.02285 z m -0.03047,-2.349826 q -0.03808,0 -0.06474,-0.02285 -0.02285,-0.02666 -0.02285,-0.06474 v -0.205657 q 0,-0.03808 0.02285,-0.06094 0.02666,-0.02666 0.06474,-0.02666 h 0.239933 q 0.03808,0 0.06094,0.02666 0.02666,0.02285 0.02666,0.06094 v 0.205657 q 0,0.03808 -0.02666,0.06474 -0.02285,0.02285 -0.06094,0.02285 z" />
    <path id="path1646" style="fill:#b0b5be;fill-opacity:1;stroke-width:0.0952119" d="m 23.287201,22.819601 q -0.03808,0 -0.06474,-0.02285 -0.02285,-0.02666 -0.02285,-0.06474 V 22.59871 q 0,-0.03428 0.01523,-0.06474 0.01904,-0.03047 0.03809,-0.05713 l 1.051138,-1.336773 h -0.982586 q -0.03808,0 -0.06474,-0.02285 -0.02285,-0.02285 -0.02285,-0.06474 v -0.12568 q 0,-0.03808 0.02285,-0.06094 0.02666,-0.02666 0.06474,-0.02666 h 1.355816 q 0.03808,0 0.06094,0.02666 0.02666,0.02285 0.02666,0.06094 v 0.140914 q 0,0.03428 -0.01904,0.06094 -0.01523,0.02666 -0.03428,0.05713 l -1.039712,1.332965 h 1.081605 q 0.03809,0 0.06094,0.02285 0.02666,0.02285 0.02666,0.06474 v 0.125679 q 0,0.03809 -0.02666,0.06474 -0.02285,0.02285 -0.06094,0.02285 z" />
    <path id="path1648" style="fill:#b0b5be;fill-opacity:1;stroke-width:0.0952119" d="m 25.818941,22.857686 q -0.190423,0 -0.346571,-0.07617 -0.156147,-0.07617 -0.251359,-0.205657 -0.09521,-0.129488 -0.09521,-0.293252 0,-0.262785 0.213274,-0.418932 0.213274,-0.156147 0.556037,-0.205657 l 0.567462,-0.07998 v -0.110446 q 0,-0.182806 -0.106638,-0.285635 -0.102828,-0.102829 -0.338953,-0.102829 -0.171381,0 -0.278019,0.06855 -0.102828,0.06855 -0.144722,0.175189 -0.02285,0.05713 -0.07998,0.05713 h -0.171382 q -0.04189,0 -0.06474,-0.02285 -0.01904,-0.02666 -0.01904,-0.06094 0,-0.05713 0.04189,-0.140913 0.0457,-0.08379 0.137105,-0.163765 0.0914,-0.07998 0.232317,-0.133296 0.144722,-0.05713 0.350379,-0.05713 0.228508,0 0.384656,0.06094 0.156147,0.05713 0.243742,0.156148 0.0914,0.09902 0.129488,0.224699 0.04189,0.12568 0.04189,0.255168 v 1.233944 q 0,0.03809 -0.02666,0.06474 -0.02285,0.02285 -0.06094,0.02285 h -0.17519 q -0.04189,0 -0.06474,-0.02285 -0.02285,-0.02666 -0.02285,-0.06474 v -0.163764 q -0.04951,0.06855 -0.133297,0.137105 -0.08379,0.06474 -0.209466,0.110446 -0.125679,0.04189 -0.308486,0.04189 z m 0.07998,-0.285635 q 0.156147,0 0.285635,-0.06474 0.129488,-0.06855 0.201849,-0.209466 0.07617,-0.140914 0.07617,-0.354188 v -0.106637 l -0.441783,0.06474 q -0.270401,0.03808 -0.407506,0.129488 -0.137105,0.08759 -0.137105,0.224699 0,0.106638 0.06094,0.178999 0.06474,0.06855 0.159956,0.102828 0.09902,0.03428 0.201849,0.03428 z" />
    <path id="path1650" style="fill:#b0b5be;fill-opacity:1;stroke-width:0.0952119" d="m 28.122589,22.819601 q -0.213275,0 -0.346571,-0.07998 -0.133297,-0.08379 -0.194232,-0.232316 -0.06094,-0.152339 -0.06094,-0.357997 v -1.005436 h -0.29706 q -0.03809,0 -0.06474,-0.02285 -0.02285,-0.02666 -0.02285,-0.06474 v -0.129488 q 0,-0.03808 0.02285,-0.06094 0.02666,-0.02666 0.06474,-0.02666 h 0.29706 v -0.636015 q 0,-0.03809 0.02285,-0.06094 0.02666,-0.02666 0.06474,-0.02666 h 0.178998 q 0.03808,0 0.06094,0.02666 0.02666,0.02285 0.02666,0.06094 v 0.636015 h 0.47225 q 0.03809,0 0.06094,0.02666 0.02666,0.02285 0.02666,0.06094 v 0.129488 q 0,0.03808 -0.02666,0.06474 -0.02285,0.02285 -0.06094,0.02285 h -0.47225 v 0.978777 q 0,0.178998 0.06094,0.281827 0.06093,0.102829 0.217082,0.102829 h 0.232317 q 0.03808,0 0.06093,0.02666 0.02666,0.02285 0.02666,0.06094 v 0.137105 q 0,0.03809 -0.02666,0.06474 -0.02285,0.02285 -0.06093,0.02285 z" />
    <path id="path1652" style="fill:#b0b5be;fill-opacity:1;stroke-width:0.0952119" d="m 28.924748,22.819601 q -0.03809,0 -0.06474,-0.02285 -0.02285,-0.02666 -0.02285,-0.06474 v -1.805215 q 0,-0.03808 0.02285,-0.06094 0.02666,-0.02666 0.06474,-0.02666 h 0.182807 q 0.03808,0 0.06093,0.02666 0.02285,0.02285 0.02285,0.06094 v 1.805215 q 0,0.03809 -0.02285,0.06474 -0.02285,0.02285 -0.06093,0.02285 z m -0.03047,-2.349826 q -0.03808,0 -0.06474,-0.02285 -0.02285,-0.02666 -0.02285,-0.06474 v -0.205657 q 0,-0.03808 0.02285,-0.06094 0.02666,-0.02666 0.06474,-0.02666 h 0.239934 q 0.03808,0 0.06094,0.02666 0.02666,0.02285 0.02666,0.06094 v 0.205657 q 0,0.03808 -0.02666,0.06474 -0.02285,0.02285 -0.06094,0.02285 z" />
    <path id="path1654" style="fill:#b0b5be;fill-opacity:1;stroke-width:0.0952119" d="m 30.570721,22.857686 q -0.289444,0 -0.483676,-0.110446 -0.194232,-0.110446 -0.297061,-0.304677 -0.102828,-0.198041 -0.114254,-0.4494 -0.0038,-0.06474 -0.0038,-0.163764 0,-0.102829 0.0038,-0.163764 0.01143,-0.255168 0.114254,-0.4494 0.106638,-0.194232 0.30087,-0.304677 0.194232,-0.110446 0.479867,-0.110446 0.285635,0 0.479867,0.110446 0.194232,0.110445 0.297061,0.304677 0.106637,0.194232 0.118062,0.4494 0.0038,0.06093 0.0038,0.163764 0,0.09902 -0.0038,0.163764 -0.01142,0.251359 -0.114254,0.4494 -0.102829,0.194231 -0.297061,0.304677 -0.194232,0.110446 -0.483675,0.110446 z m 0,-0.293252 q 0.236125,0 0.377038,-0.148531 0.140914,-0.152339 0.152339,-0.441782 0.0038,-0.05713 0.0038,-0.144722 0,-0.0876 -0.0038,-0.144722 -0.01142,-0.289444 -0.152339,-0.437974 -0.140913,-0.152339 -0.377038,-0.152339 -0.236125,0 -0.380847,0.152339 -0.140914,0.14853 -0.148531,0.437974 -0.0038,0.05713 -0.0038,0.144722 0,0.0876 0.0038,0.144722 0.0076,0.289443 0.148531,0.441782 0.144722,0.148531 0.380847,0.148531 z" />
    <path id="path1656" style="fill:#b0b5be;fill-opacity:1;stroke-width:0.0952119" d="m 32.034007,22.819601 q -0.03809,0 -0.06474,-0.02285 -0.02285,-0.02666 -0.02285,-0.06474 v -1.805215 q 0,-0.03808 0.02285,-0.06094 0.02666,-0.02666 0.06474,-0.02666 h 0.178998 q 0.03808,0 0.06094,0.02666 0.02666,0.02285 0.02666,0.06094 v 0.167573 q 0.09902,-0.129488 0.24755,-0.209466 0.152339,-0.08379 0.388464,-0.08379 0.247551,0 0.418932,0.110446 0.17519,0.106637 0.262784,0.300869 0.0876,0.190423 0.0876,0.445591 v 1.073988 q 0,0.03809 -0.02285,0.06474 -0.02285,0.02285 -0.06094,0.02285 h -0.190424 q -0.03808,0 -0.06474,-0.02285 -0.02285,-0.02666 -0.02285,-0.06474 V 21.67706 q 0,-0.266593 -0.129488,-0.415123 -0.129488,-0.152339 -0.380847,-0.152339 -0.236126,0 -0.380847,0.152339 -0.140914,0.14853 -0.140914,0.415123 v 1.054946 q 0,0.03809 -0.02666,0.06474 -0.02285,0.02285 -0.06094,0.02285 z" />
    <path id="path1658" style="fill:#b0b5be;fill-opacity:1;stroke-width:0.0952119" d="m 35.319227,22.819601 q -0.03808,0 -0.06474,-0.02285 -0.02285,-0.02666 -0.02285,-0.06474 v -2.486931 q 0,-0.04189 0.02285,-0.06474 0.02666,-0.02666 0.06474,-0.02666 h 0.190424 q 0.0457,0 0.06855,0.02285 0.02285,0.02285 0.02666,0.03808 l 0.807396,1.538621 0.811204,-1.538621 q 0.0076,-0.01523 0.02666,-0.03808 0.02285,-0.02285 0.06855,-0.02285 h 0.186615 q 0.04189,0 0.06474,0.02666 0.02666,0.02285 0.02666,0.06474 v 2.486931 q 0,0.03809 -0.02666,0.06474 -0.02285,0.02285 -0.06474,0.02285 h -0.186615 q -0.03809,0 -0.06474,-0.02285 -0.02285,-0.02666 -0.02285,-0.06474 V 20.858239 L 36.595065,22.0998 q -0.01523,0.03809 -0.0457,0.06094 -0.03047,0.01904 -0.07617,0.01904 h -0.118062 q -0.04951,0 -0.07998,-0.01904 -0.02666,-0.02285 -0.0457,-0.06094 l -0.636014,-1.241561 v 1.873767 q 0,0.03809 -0.02666,0.06474 -0.02285,0.02285 -0.06094,0.02285 z" />
    <path id="path1660" style="fill:#b0b5be;fill-opacity:1;stroke-width:0.0952119" d="m 38.761789,22.857686 q -0.190423,0 -0.34657,-0.07617 -0.156148,-0.07617 -0.251359,-0.205657 -0.09521,-0.129488 -0.09521,-0.293252 0,-0.262785 0.213274,-0.418932 0.213275,-0.156147 0.556037,-0.205657 l 0.567462,-0.07998 v -0.110446 q 0,-0.182806 -0.106637,-0.285635 -0.102829,-0.102829 -0.338954,-0.102829 -0.171381,0 -0.278018,0.06855 -0.102829,0.06855 -0.144722,0.175189 -0.02285,0.05713 -0.07998,0.05713 h -0.171381 q -0.04189,0 -0.06474,-0.02285 -0.01904,-0.02666 -0.01904,-0.06094 0,-0.05713 0.04189,-0.140913 0.0457,-0.08379 0.137104,-0.163765 0.0914,-0.07998 0.232317,-0.133296 0.144722,-0.05713 0.350379,-0.05713 0.228509,0 0.384656,0.06094 0.156147,0.05713 0.243742,0.156148 0.0914,0.09902 0.129488,0.224699 0.04189,0.12568 0.04189,0.255168 v 1.233944 q 0,0.03809 -0.02666,0.06474 -0.02285,0.02285 -0.06094,0.02285 h -0.175189 q -0.04189,0 -0.06474,-0.02285 -0.02285,-0.02666 -0.02285,-0.06474 v -0.163764 q -0.04951,0.06855 -0.133297,0.137105 -0.08379,0.06474 -0.209465,0.110446 -0.12568,0.04189 -0.308487,0.04189 z m 0.07998,-0.285635 q 0.156148,0 0.285636,-0.06474 0.129488,-0.06855 0.201848,-0.209466 0.07617,-0.140914 0.07617,-0.354188 v -0.106637 l -0.441783,0.06474 q -0.270401,0.03808 -0.407506,0.129488 -0.137105,0.08759 -0.137105,0.224699 0,0.106638 0.06094,0.178999 0.06474,0.06855 0.159955,0.102828 0.09902,0.03428 0.201849,0.03428 z" />
    <path id="path1662" style="fill:#b0b5be;fill-opacity:1;stroke-width:0.0952119" d="m 40.402228,22.819601 q -0.03809,0 -0.06474,-0.02285 -0.02285,-0.02666 -0.02285,-0.06474 v -1.805215 q 0,-0.03808 0.02285,-0.06094 0.02666,-0.02666 0.06474,-0.02666 h 0.178998 q 0.03809,0 0.06094,0.02666 0.02666,0.02285 0.02666,0.06094 v 0.167573 q 0.09902,-0.129488 0.247551,-0.209466 0.152338,-0.08379 0.388464,-0.08379 0.24755,0 0.418931,0.110446 0.17519,0.106637 0.262785,0.300869 0.08759,0.190423 0.08759,0.445591 v 1.073988 q 0,0.03809 -0.02285,0.06474 -0.02285,0.02285 -0.06094,0.02285 h -0.190423 q -0.03809,0 -0.06474,-0.02285 -0.02285,-0.02666 -0.02285,-0.06474 V 21.67706 q 0,-0.266593 -0.129488,-0.415123 -0.129488,-0.152339 -0.380847,-0.152339 -0.236125,0 -0.380847,0.152339 -0.140914,0.14853 -0.140914,0.415123 v 1.054946 q 0,0.03809 -0.02666,0.06474 -0.02285,0.02285 -0.06094,0.02285 z" />
    <path id="path1664" style="fill:#b0b5be;fill-opacity:1;stroke-width:0.0952119" d="m 43.17277,22.857686 q -0.190424,0 -0.346571,-0.07617 -0.156147,-0.07617 -0.251359,-0.205657 -0.09521,-0.129488 -0.09521,-0.293252 0,-0.262785 0.213274,-0.418932 0.213275,-0.156147 0.556037,-0.205657 l 0.567462,-0.07998 v -0.110446 q 0,-0.182806 -0.106637,-0.285635 -0.102829,-0.102829 -0.338954,-0.102829 -0.171381,0 -0.278018,0.06855 -0.102829,0.06855 -0.144722,0.175189 -0.02285,0.05713 -0.07998,0.05713 h -0.171381 q -0.04189,0 -0.06474,-0.02285 -0.01904,-0.02666 -0.01904,-0.06094 0,-0.05713 0.04189,-0.140913 0.0457,-0.08379 0.137105,-0.163765 0.0914,-0.07998 0.232316,-0.133296 0.144722,-0.05713 0.35038,-0.05713 0.228508,0 0.384655,0.06094 0.156147,0.05713 0.243742,0.156148 0.0914,0.09902 0.129488,0.224699 0.04189,0.12568 0.04189,0.255168 v 1.233944 q 0,0.03809 -0.02666,0.06474 -0.02285,0.02285 -0.06094,0.02285 h -0.175189 q -0.04189,0 -0.06474,-0.02285 -0.02285,-0.02666 -0.02285,-0.06474 v -0.163764 q -0.04951,0.06855 -0.133296,0.137105 -0.08379,0.06474 -0.209466,0.110446 -0.12568,0.04189 -0.308486,0.04189 z m 0.07998,-0.285635 q 0.156147,0 0.285635,-0.06474 0.129488,-0.06855 0.201849,-0.209466 0.07617,-0.140914 0.07617,-0.354188 v -0.106637 l -0.441782,0.06474 q -0.270402,0.03808 -0.407507,0.129488 -0.137105,0.08759 -0.137105,0.224699 0,0.106638 0.06094,0.178999 0.06474,0.06855 0.159956,0.102828 0.09902,0.03428 0.201849,0.03428 z" />
    <path id="path1666" style="fill:#b0b5be;fill-opacity:1;stroke-width:0.0952119" d="m 45.536818,23.657464 q -0.258976,0 -0.426549,-0.06855 -0.163764,-0.06855 -0.258976,-0.167573 -0.0914,-0.09521 -0.133296,-0.194232 -0.03808,-0.09521 -0.04189,-0.152338 -0.0038,-0.03808 0.02285,-0.06474 0.03047,-0.02666 0.06474,-0.02666 h 0.182807 q 0.03428,0 0.05713,0.01523 0.02285,0.01523 0.03808,0.06474 0.02285,0.05713 0.06855,0.12568 0.0457,0.07236 0.140913,0.121871 0.09521,0.05332 0.266593,0.05332 0.178998,0 0.300869,-0.04951 0.121871,-0.0457 0.182807,-0.167573 0.06474,-0.118062 0.06474,-0.327528 v -0.258976 q -0.0914,0.118063 -0.239934,0.198041 -0.14853,0.07617 -0.37323,0.07617 -0.213274,0 -0.365613,-0.07236 -0.152339,-0.07617 -0.251359,-0.201849 -0.09521,-0.129488 -0.144722,-0.293252 -0.0457,-0.163764 -0.05332,-0.342762 -0.0038,-0.106638 0,-0.209466 0.0076,-0.178998 0.05332,-0.342763 0.04951,-0.163764 0.144722,-0.293252 0.09902,-0.129488 0.251359,-0.201849 0.152339,-0.07617 0.365613,-0.07617 0.228509,0 0.377039,0.0876 0.152339,0.08379 0.24755,0.205657 V 20.9306 q 0,-0.03808 0.02285,-0.06474 0.02666,-0.02666 0.06474,-0.02666 h 0.17519 q 0.03809,0 0.06474,0.02666 0.02666,0.02666 0.02666,0.06474 v 1.847108 q 0,0.255167 -0.08759,0.453208 -0.08379,0.19804 -0.281826,0.312294 -0.194232,0.114254 -0.525569,0.114254 z m -0.0076,-1.127307 q 0.190423,0 0.304677,-0.08759 0.118063,-0.0876 0.171381,-0.220892 0.05713,-0.133296 0.06094,-0.270401 0.0038,-0.05332 0.0038,-0.129488 0,-0.07998 -0.0038,-0.133297 -0.0038,-0.137104 -0.06094,-0.270401 -0.05332,-0.133296 -0.171381,-0.220891 -0.114254,-0.0876 -0.304677,-0.0876 -0.190424,0 -0.304678,0.0876 -0.114254,0.08379 -0.163764,0.2247 -0.04951,0.137104 -0.05713,0.29706 -0.0038,0.09902 0,0.201849 0.0076,0.159956 0.05713,0.300869 0.04951,0.137105 0.163764,0.2247 0.114254,0.08379 0.304678,0.08379 z" />
    <path id="path1668" style="fill:#b0b5be;fill-opacity:1;stroke-width:0.0952119" d="m 47.790124,22.857686 q -0.392272,0 -0.624589,-0.239934 -0.232317,-0.243742 -0.255167,-0.662674 -0.0038,-0.04951 -0.0038,-0.125679 0,-0.07998 0.0038,-0.129488 0.01523,-0.270401 0.125679,-0.47225 0.110446,-0.205658 0.300869,-0.316103 0.194232,-0.110446 0.453208,-0.110446 0.289444,0 0.483676,0.121871 0.19804,0.121871 0.300869,0.346571 0.102829,0.224699 0.102829,0.525569 v 0.06474 q 0,0.04189 -0.02666,0.06474 -0.02285,0.02285 -0.06094,0.02285 h -1.317731 q 0,0.0038 0,0.01523 0,0.01143 0,0.01904 0.0076,0.156147 0.06855,0.293252 0.06094,0.133296 0.175189,0.217083 0.114254,0.08379 0.27421,0.08379 0.137105,0 0.228508,-0.04189 0.0914,-0.04189 0.148531,-0.0914 0.05713,-0.05332 0.07617,-0.07998 0.03428,-0.04951 0.05332,-0.05713 0.01904,-0.01143 0.06094,-0.01143 h 0.182807 q 0.03808,0 0.06094,0.02285 0.02666,0.01904 0.02285,0.05713 -0.0038,0.05713 -0.06094,0.140913 -0.05713,0.07998 -0.163765,0.159956 -0.106637,0.07998 -0.258976,0.133297 -0.152338,0.04951 -0.350379,0.04951 z m -0.517952,-1.173009 h 1.043521 v -0.01142 q 0,-0.171382 -0.06474,-0.304678 -0.06094,-0.133296 -0.178998,-0.209466 -0.118063,-0.07998 -0.281827,-0.07998 -0.163764,0 -0.281827,0.07998 -0.114254,0.07617 -0.175189,0.209466 -0.06094,0.133296 -0.06094,0.304678 z" />
    <path id="path1670" style="fill:#b0b5be;fill-opacity:1;stroke-width:0.0952119" d="m 49.224192,22.819601 q -0.03808,0 -0.06474,-0.02285 -0.02285,-0.02666 -0.02285,-0.06474 V 20.9306 q 0,-0.03808 0.02285,-0.06474 0.02666,-0.02666 0.06474,-0.02666 h 0.17519 q 0.03808,0 0.06474,0.02666 0.02666,0.02666 0.02666,0.06474 v 0.167573 q 0.07617,-0.129488 0.209466,-0.194232 0.133297,-0.06474 0.319912,-0.06474 h 0.152338 q 0.03809,0 0.06094,0.02666 0.02285,0.02285 0.02285,0.06094 v 0.156148 q 0,0.03808 -0.02285,0.06094 -0.02285,0.02285 -0.06094,0.02285 h -0.228508 q -0.205657,0 -0.32372,0.121871 -0.118062,0.118063 -0.118062,0.32372 v 1.11969 q 0,0.03809 -0.02666,0.06474 -0.02666,0.02285 -0.06474,0.02285 z" />
  </g>
</svg>
