<?xml version="1.0" encoding="UTF-8" standalone="no"?>
<svg xmlns:dc="http://purl.org/dc/elements/1.1/"
   xmlns:cc="http://creativecommons.org/ns#"
   xmlns:rdf="http://www.w3.org/1999/02/22-rdf-syntax-ns#"
   xmlns:svg="http://www.w3.org/2000/svg"
   xmlns="http://www.w3.org/2000/svg"
   width="80"
   height="32"
   viewBox="0 0 21.166666 8.4666669"
   version="1.1"
   id="svg2145">
 <g
     id="layer1">
    <g
       fill-rule="evenodd"
       fill="none"
       stroke-width="1"
       stroke="none"
       id="Provider/OracleCIC/ocic-32"
       transform="matrix(0.26458333,0,0,0.26458333,1.3333333e-7,0.13229172)">
      <path
         fill="#616870"
         id="Combined-Shape-Copy"
         d="m 70.958393,14.252943 c -1.481435,0 -2.738534,-0.980216 -3.122914,-2.332035 h 8.247519 L 77.21995,10.17385 h -9.384471 c 0.38438,-1.3437165 1.641479,-2.3318099 3.122914,-2.3318099 h 5.660821 l 1.14516,-1.7472822 h -6.934108 c -2.77068,0 -5.020417,2.221522 -5.020417,4.9566721 0,2.735151 2.249737,4.94857 5.020417,4.94857 h 5.949221 l 1.13718,-1.747057 z M 47.361223,16 c -2.770224,0 -5.020189,-2.213419 -5.020189,-4.94857 0,-2.7351501 2.249965,-4.9566721 5.020189,-4.9566721 h 6.926356 l -1.128972,1.7472822 h -5.66903 c -1.793771,0 -3.25104,1.4387 -3.25104,3.2093899 0,1.770691 1.457269,3.201513 3.25104,3.201513 h 6.958047 L 53.310672,16 Z M 10.719084,14.252943 c 1.794684,0 3.247849,-1.430822 3.247849,-3.201513 0,-1.7706899 -1.453165,-3.2093899 -3.247849,-3.2093899 h -5.57282 c -1.7935436,0 -3.2478482,1.4387 -3.2478482,3.2093899 0,1.770691 1.4543046,3.201513 3.2478482,3.201513 z M 5.0174535,16 C 2.247686,16 0,13.786581 0,11.05143 0,8.3162799 2.247686,6.0947579 5.0174535,6.0947579 h 5.8315815 c 2.770223,0 5.016314,2.221522 5.016314,4.9566721 0,2.735151 -2.246091,4.94857 -5.016314,4.94857 z M 25.333717,12.790385 c 1.873794,0 3.395126,-1.493844 3.395126,-3.3437623 0,-1.8496928 -1.521332,-3.3518648 -3.395126,-3.3518648 h -8.44176 V 16 h 1.928965 V 7.8420401 h 6.384669 c 0.896886,0 1.61754,0.7191249 1.61754,1.6045826 0,0.8854573 -0.720654,1.6048073 -1.61754,1.6048073 L 19.765684,11.043553 25.525907,16 h 2.802597 L 24.453018,12.790385 Z M 57.2582,14.252943 V 6.0947579 h -1.929877 v 8.9565371 c 0,0.245111 0.09621,0.482343 0.280419,0.664206 C 55.792724,15.897139 56.040998,16 56.313438,16 h 8.799694 l 1.13718,-1.747057 z M 33.637092,12.505886 h 5.148544 L 36.063289,8.1819082 31.06681,16 H 28.792906 L 34.870253,6.6088366 C 35.134486,6.2293547 35.574949,6 36.063289,6 c 0.472609,0 0.912845,0.2212519 1.16887,0.592856 L 43.333672,16 H 41.059768 L 39.986651,14.252943 H 34.774044 Z M 78.954639,8.0468223 c -0.571022,0 -1.037972,-0.4573062 -1.037972,-1.0235145 C 77.916667,6.4573062 78.383617,6 78.954639,6 79.53305,6 80,6.4573062 80,7.0233078 80,7.5895161 79.53305,8.0468223 78.954639,8.0468223 Z M 78.858167,6.413704 c 0.163179,0 0.229886,0.00723 0.304193,0.03637 0.20751,0.0653 0.229887,0.2467346 0.229887,0.3192671 0,0.014465 0,0.050835 -0.01499,0.09423 -0.0074,0.043602 -0.03715,0.1308065 -0.141014,0.1961064 -0.01457,0.00723 -0.02195,0.014465 -0.05172,0.02893 l 0.267039,0.471978 H 79.191914 L 78.954639,7.1249773 H 78.791671 V 7.5605858 H 78.561784 V 6.413704 Z m 0.0817,0.5226061 c 0.0741,-0.00723 0.148191,-0.00723 0.192733,-0.072739 0.02238,-0.02893 0.02977,-0.057861 0.02977,-0.1014629 0,-0.058067 -0.03715,-0.1089021 -0.08908,-0.1378325 -0.05193,-0.021904 -0.10365,-0.021904 -0.21511,-0.021904 h -0.0665 v 0.3339389 z m -0.800697,0.079765 c 0,0.4500736 0.363301,0.8057103 0.815474,0.8057103 0.459773,0 0.823074,-0.3556367 0.823074,-0.8057103 0,-0.4426343 -0.363301,-0.798271 -0.823074,-0.798271 -0.452173,0 -0.815474,0.3556367 -0.815474,0.798271 z" />
    </g>
    <g
       style="font-size:1.60394px;line-height:1.25;font-family:Rubik;-inkscape-font-specification:'Rubik, Normal';fill:#616870;fill-opacity:1;stroke-width:0.0400979"
       id="text2724"
       aria-label="Linux Virtualization Manager">
      <path
         id="path5910"
         style="fill:#616870;fill-opacity:1;stroke-width:0.0400979"
         d="m 0.03689061,6.6790252 q -0.01764334,0 -0.02726698,-0.00962 Q 0,6.658174 0,6.6421346 V 5.5931578 q 0,-0.016039 0.00962363,-0.025663 0.00962364,-0.011228 0.02726698,-0.011228 h 0.08500882 q 0.0160394,0 0.025663,0.011228 0.009624,0.00962 0.009624,0.025663 v 0.9463246 h 0.53411203 q 0.0176433,0 0.027267,0.011228 0.009624,0.00962 0.009624,0.027267 v 0.064158 q 0,0.016039 -0.009624,0.027267 -0.009624,0.00962 -0.027267,0.00962 z" />
      <path
         id="path5912"
         style="fill:#616870;fill-opacity:1;stroke-width:0.0400979"
         d="m 0.91825565,6.6790252 q -0.0160394,0 -0.027267,-0.00962 -0.009624,-0.011228 -0.009624,-0.027267 V 5.881867 q 0,-0.016039 0.009624,-0.025663 0.0112276,-0.011227 0.027267,-0.011227 h 0.0769891 q 0.0160394,0 0.025663,0.011227 0.00962,0.00962 0.00962,0.025663 v 0.7602676 q 0,0.016039 -0.00962,0.027267 -0.00962,0.00962 -0.025663,0.00962 z m -0.0128315,-0.989631 q -0.0160394,0 -0.027267,-0.00962 -0.009624,-0.011228 -0.009624,-0.027267 v -0.086613 q 0,-0.016039 0.009624,-0.025663 0.0112276,-0.011228 0.027267,-0.011228 H 1.0064723 q 0.016039,0 0.025663,0.011228 0.011228,0.00962 0.011228,0.025663 v 0.086613 q 0,0.016039 -0.011228,0.027267 -0.00962,0.00962 -0.025663,0.00962 z" />
      <path
         id="path5914"
         style="fill:#616870;fill-opacity:1;stroke-width:0.0400979"
         d="m 1.3067099,6.6790252 q -0.016039,0 -0.027267,-0.00962 -0.00962,-0.011228 -0.00962,-0.027267 V 5.881867 q 0,-0.016039 0.00962,-0.025663 0.011228,-0.011227 0.027267,-0.011227 h 0.075385 q 0.016039,0 0.025663,0.011227 0.011228,0.00962 0.011228,0.025663 v 0.070573 q 0.041702,-0.054534 0.1042561,-0.088217 0.064158,-0.035287 0.1636019,-0.035287 0.1042561,0 0.1764334,0.046514 0.073781,0.04491 0.1106719,0.1267113 0.036891,0.080197 0.036891,0.187661 v 0.4523111 q 0,0.016039 -0.00962,0.027267 -0.00962,0.00962 -0.025663,0.00962 h -0.080197 q -0.016039,0 -0.027267,-0.00962 -0.00962,-0.011228 -0.00962,-0.027267 V 6.1978432 q 0,-0.1122758 -0.054534,-0.1748295 -0.054534,-0.064158 -0.160394,-0.064158 -0.099444,0 -0.160394,0.064158 -0.059346,0.062554 -0.059346,0.1748295 v 0.4442914 q 0,0.016039 -0.011228,0.027267 -0.00962,0.00962 -0.025663,0.00962 z" />
      <path
         id="path5916"
         style="fill:#616870;fill-opacity:1;stroke-width:0.0400979"
         d="m 2.5521191,6.6950646 q -0.1026521,0 -0.1748294,-0.04491 Q 2.3067163,6.60364 2.2698257,6.5218391 2.2329351,6.4400381 2.2329351,6.3341781 V 5.881867 q 0,-0.016039 0.00962,-0.025663 0.011228,-0.011227 0.027267,-0.011227 h 0.080197 q 0.016039,0 0.025663,0.011227 0.011228,0.00962 0.011228,0.025663 v 0.4442914 q 0,0.238987 0.2085122,0.238987 0.099444,0 0.1587901,-0.062554 0.06095,-0.064158 0.06095,-0.1764334 V 5.881867 q 0,-0.016039 0.00962,-0.025663 0.011228,-0.011227 0.027267,-0.011227 h 0.078593 q 0.017643,0 0.027267,0.011227 0.00962,0.00962 0.00962,0.025663 v 0.7602676 q 0,0.016039 -0.00962,0.027267 -0.00962,0.00962 -0.027267,0.00962 h -0.073781 q -0.016039,0 -0.027267,-0.00962 -0.00962,-0.011228 -0.00962,-0.027267 v -0.070573 q -0.043306,0.056138 -0.10586,0.089821 -0.06095,0.033683 -0.161998,0.033683 z" />
      <path
         id="path5918"
         style="fill:#616870;fill-opacity:1;stroke-width:0.0400979"
         d="m 3.1673304,6.6790252 q -0.012831,0 -0.024059,-0.00962 -0.00962,-0.00962 -0.00962,-0.024059 0,-0.00481 0.0016,-0.011227 0.00321,-0.00802 0.00962,-0.017643 L 3.4239608,6.2523771 3.1625186,5.90753 q -0.00642,-0.00962 -0.00962,-0.016039 -0.0016,-0.00642 -0.0016,-0.012831 0,-0.014436 0.00962,-0.024059 0.00962,-0.00962 0.024059,-0.00962 h 0.081801 q 0.017643,0 0.025663,0.00962 0.00962,0.00802 0.016039,0.016039 l 0.213324,0.2774816 0.213324,-0.2758777 q 0.00642,-0.00802 0.014435,-0.017643 0.00962,-0.00962 0.027267,-0.00962 h 0.078593 q 0.014436,0 0.024059,0.00962 0.00962,0.00962 0.00962,0.024059 0,0.00642 -0.00321,0.012831 -0.0016,0.00642 -0.00802,0.016039 L 3.6132258,6.255585 3.8923113,6.6164715 q 0.00642,0.00962 0.00802,0.016039 0.00321,0.00642 0.00321,0.012831 0,0.014436 -0.00962,0.024059 -0.00962,0.00962 -0.024059,0.00962 h -0.085009 q -0.016039,0 -0.025663,-0.00802 -0.00962,-0.00802 -0.016039,-0.016039 L 3.5169894,6.3614451 3.2908338,6.6549661 q -0.00642,0.00642 -0.016039,0.016039 -0.00802,0.00802 -0.025663,0.00802 z" />
      <path
         id="path5920"
         style="fill:#616870;fill-opacity:1;stroke-width:0.0400979"
         d="m 4.7726487,6.6790252 q -0.024059,0 -0.038495,-0.011228 Q 4.7213227,6.65657 4.713303,6.6373227 L 4.3556243,5.6059893 q -0.00321,-0.00962 -0.00321,-0.017643 0,-0.012832 0.00962,-0.022455 0.00962,-0.00962 0.022455,-0.00962 h 0.083405 q 0.019247,0 0.028871,0.011228 0.011228,0.00962 0.012832,0.017643 l 0.3143722,0.909434 0.3143723,-0.909434 q 0.00321,-0.00802 0.012831,-0.017643 0.00962,-0.011228 0.028871,-0.011228 h 0.083405 q 0.012832,0 0.022455,0.00962 0.011228,0.00962 0.011228,0.022455 0,0.00802 -0.00321,0.017643 L 4.9346467,6.6373227 q -0.00642,0.019247 -0.020851,0.030475 -0.012832,0.011228 -0.036891,0.011228 z" />
      <path
         id="path5922"
         style="fill:#616870;fill-opacity:1;stroke-width:0.0400979"
         d="m 5.4857254,6.6790252 q -0.016039,0 -0.027267,-0.00962 -0.00962,-0.011228 -0.00962,-0.027267 V 5.881867 q 0,-0.016039 0.00962,-0.025663 0.011228,-0.011227 0.027267,-0.011227 h 0.076989 q 0.016039,0 0.025663,0.011227 0.00962,0.00962 0.00962,0.025663 v 0.7602676 q 0,0.016039 -0.00962,0.027267 -0.00962,0.00962 -0.025663,0.00962 z m -0.012831,-0.989631 q -0.016039,0 -0.027267,-0.00962 -0.00962,-0.011228 -0.00962,-0.027267 v -0.086613 q 0,-0.016039 0.00962,-0.025663 0.011228,-0.011228 0.027267,-0.011228 h 0.1010482 q 0.016039,0 0.025663,0.011228 0.011227,0.00962 0.011227,0.025663 v 0.086613 q 0,0.016039 -0.011227,0.027267 -0.00962,0.00962 -0.025663,0.00962 z" />
      <path
         id="path5924"
         style="fill:#616870;fill-opacity:1;stroke-width:0.0400979"
         d="m 5.8741799,6.6790252 q -0.016039,0 -0.027267,-0.00962 -0.00962,-0.011228 -0.00962,-0.027267 V 5.8834709 q 0,-0.016039 0.00962,-0.027267 0.011228,-0.011227 0.027267,-0.011227 h 0.073781 q 0.016039,0 0.027267,0.011227 0.011228,0.011228 0.011228,0.027267 v 0.070573 q 0.032079,-0.054534 0.088217,-0.081801 0.056138,-0.027267 0.1347309,-0.027267 h 0.064158 q 0.016039,0 0.025663,0.011227 0.00962,0.00962 0.00962,0.025663 v 0.065762 q 0,0.016039 -0.00962,0.025663 -0.00962,0.00962 -0.025663,0.00962 h -0.096236 q -0.086613,0 -0.1363349,0.051326 -0.049722,0.049722 -0.049722,0.1363349 v 0.4715584 q 0,0.016039 -0.011228,0.027267 -0.011228,0.00962 -0.027267,0.00962 z" />
      <path
         id="path5926"
         style="fill:#616870;fill-opacity:1;stroke-width:0.0400979"
         d="m 6.7737647,6.6790252 q -0.089821,0 -0.1459586,-0.033683 -0.056138,-0.035287 -0.081801,-0.09784 -0.025663,-0.064158 -0.025663,-0.1507704 V 5.9732916 H 6.3952348 q -0.016039,0 -0.027267,-0.00962 -0.00962,-0.011228 -0.00962,-0.027267 V 5.881867 q 0,-0.016039 0.00962,-0.025663 0.011228,-0.011227 0.027267,-0.011227 h 0.1251073 v -0.267858 q 0,-0.016039 0.00962,-0.025663 0.011228,-0.011227 0.027267,-0.011227 h 0.075385 q 0.016039,0 0.025663,0.011227 0.011228,0.00962 0.011228,0.025663 v 0.267858 h 0.1988885 q 0.016039,0 0.025663,0.011227 0.011228,0.00962 0.011228,0.025663 v 0.054534 q 0,0.016039 -0.011228,0.027267 -0.00962,0.00962 -0.025663,0.00962 H 6.6695086 v 0.4122126 q 0,0.075385 0.025663,0.1186915 0.025663,0.043306 0.091425,0.043306 h 0.09784 q 0.016039,0 0.025663,0.011228 0.011228,0.00962 0.011228,0.025663 v 0.057742 q 0,0.016039 -0.011228,0.027267 -0.00962,0.00962 -0.025663,0.00962 z" />
      <path
         id="path5928"
         style="fill:#616870;fill-opacity:1;stroke-width:0.0400979"
         d="m 7.385868,6.6950646 q -0.1026522,0 -0.1748295,-0.04491 Q 7.1404651,6.60364 7.1035745,6.5218391 7.0666839,6.4400381 7.0666839,6.3341781 V 5.881867 q 0,-0.016039 0.00962,-0.025663 0.011228,-0.011227 0.027267,-0.011227 h 0.080197 q 0.016039,0 0.025663,0.011227 0.011228,0.00962 0.011228,0.025663 v 0.4442914 q 0,0.238987 0.2085122,0.238987 0.099444,0 0.1587901,-0.062554 0.06095,-0.064158 0.06095,-0.1764334 V 5.881867 q 0,-0.016039 0.00962,-0.025663 0.011227,-0.011227 0.027267,-0.011227 h 0.078593 q 0.017643,0 0.027267,0.011227 0.00962,0.00962 0.00962,0.025663 v 0.7602676 q 0,0.016039 -0.00962,0.027267 -0.00962,0.00962 -0.027267,0.00962 h -0.073781 q -0.016039,0 -0.027267,-0.00962 -0.00962,-0.011228 -0.00962,-0.027267 v -0.070573 q -0.043306,0.056138 -0.10586,0.089821 -0.06095,0.033683 -0.1619979,0.033683 z" />
      <path
         id="path5930"
         style="fill:#616870;fill-opacity:1;stroke-width:0.0400979"
         d="m 8.2721449,6.6950646 q -0.080197,0 -0.1459586,-0.032079 -0.065762,-0.032079 -0.10586,-0.086613 -0.040099,-0.054534 -0.040099,-0.1235034 0,-0.1106718 0.089821,-0.1764334 0.089821,-0.065761 0.2341753,-0.086613 l 0.238987,-0.033683 v -0.046514 q 0,-0.076989 -0.04491,-0.1202955 -0.043306,-0.043306 -0.1427506,-0.043306 -0.072177,0 -0.1170877,0.028871 -0.043306,0.028871 -0.06095,0.073781 -0.00962,0.024059 -0.033683,0.024059 h -0.072177 q -0.017643,0 -0.027267,-0.00962 -0.00802,-0.011228 -0.00802,-0.025663 0,-0.024059 0.017643,-0.059346 0.019247,-0.035287 0.057742,-0.068969 0.038494,-0.033683 0.09784,-0.056138 0.06095,-0.024059 0.1475625,-0.024059 0.096236,0 0.1619979,0.025663 0.065762,0.024059 0.1026522,0.065762 0.038495,0.041702 0.054534,0.094632 0.017643,0.05293 0.017643,0.107464 v 0.5196766 q 0,0.016039 -0.011228,0.027267 -0.00962,0.00962 -0.025663,0.00962 h -0.073781 q -0.017643,0 -0.027267,-0.00962 -0.00962,-0.011228 -0.00962,-0.027267 v -0.06897 q -0.020851,0.028871 -0.056138,0.057742 -0.035287,0.027267 -0.088217,0.046514 -0.05293,0.017643 -0.1299191,0.017643 z m 0.033683,-0.1202955 q 0.065762,0 0.1202955,-0.027267 0.054534,-0.028871 0.085009,-0.088217 0.032079,-0.059346 0.032079,-0.1491664 v -0.04491 l -0.186057,0.027267 q -0.1138797,0.016039 -0.1716216,0.054534 -0.057742,0.036891 -0.057742,0.094633 0,0.04491 0.025663,0.075385 0.027267,0.028871 0.067365,0.043306 0.041702,0.014436 0.085009,0.014436 z" />
      <path
         id="path5932"
         style="fill:#616870;fill-opacity:1;stroke-width:0.0400979"
         d="m 8.9646209,6.6790252 q -0.016039,0 -0.027267,-0.00962 -0.00962,-0.011228 -0.00962,-0.027267 V 5.5771184 q 0,-0.016039 0.00962,-0.025663 0.011228,-0.011227 0.027267,-0.011227 h 0.075385 q 0.017643,0 0.027267,0.011227 0.00962,0.00962 0.00962,0.025663 v 1.0650162 q 0,0.016039 -0.00962,0.027267 -0.00962,0.00962 -0.027267,0.00962 z" />
      <path
         id="path5934"
         style="fill:#616870;fill-opacity:1;stroke-width:0.0400979"
         d="m 9.3514714,6.6790252 q -0.016039,0 -0.027267,-0.00962 -0.00962,-0.011228 -0.00962,-0.027267 V 5.881867 q 0,-0.016039 0.00962,-0.025663 0.011228,-0.011227 0.027267,-0.011227 h 0.076989 q 0.016039,0 0.025663,0.011227 0.00962,0.00962 0.00962,0.025663 v 0.7602676 q 0,0.016039 -0.00962,0.027267 -0.00962,0.00962 -0.025663,0.00962 z m -0.012831,-0.989631 q -0.016039,0 -0.027267,-0.00962 -0.00962,-0.011228 -0.00962,-0.027267 v -0.086613 q 0,-0.016039 0.00962,-0.025663 0.011228,-0.011228 0.027267,-0.011228 h 0.1010482 q 0.016039,0 0.025663,0.011228 0.011228,0.00962 0.011228,0.025663 v 0.086613 q 0,0.016039 -0.011228,0.027267 -0.00962,0.00962 -0.025663,0.00962 z" />
      <path
         id="path5936"
         style="fill:#616870;fill-opacity:1;stroke-width:0.0400979"
         d="m 9.6869959,6.6790252 q -0.016039,0 -0.027267,-0.00962 -0.00962,-0.011228 -0.00962,-0.027267 v -0.056138 q 0,-0.014436 0.00642,-0.027267 0.00802,-0.012831 0.016039,-0.024059 L 10.115248,5.9716876 H 9.7014313 q -0.016039,0 -0.027267,-0.00962 -0.00962,-0.00962 -0.00962,-0.027267 v -0.05293 q 0,-0.016039 0.00962,-0.025663 0.011228,-0.011227 0.027267,-0.011227 h 0.5710027 q 0.01604,0 0.02566,0.011227 0.01123,0.00962 0.01123,0.025663 v 0.059346 q 0,0.014435 -0.008,0.025663 -0.0064,0.011228 -0.01444,0.024059 l -0.4378752,0.561379 h 0.4555192 q 0.01604,0 0.02566,0.00962 0.01123,0.00962 0.01123,0.027267 v 0.05293 q 0,0.016039 -0.01123,0.027267 -0.0096,0.00962 -0.02566,0.00962 z" />
      <path
         id="path5938"
         style="fill:#616870;fill-opacity:1;stroke-width:0.0400979"
         d="m 10.75324,6.6950646 q -0.0802,0 -0.145958,-0.032079 -0.06576,-0.032079 -0.10586,-0.086613 -0.0401,-0.054534 -0.0401,-0.1235034 0,-0.1106718 0.08982,-0.1764334 0.08982,-0.065761 0.234175,-0.086613 l 0.238987,-0.033683 v -0.046514 q 0,-0.076989 -0.04491,-0.1202955 -0.04331,-0.043306 -0.142751,-0.043306 -0.07218,0 -0.117088,0.028871 -0.04331,0.028871 -0.06095,0.073781 -0.0096,0.024059 -0.03368,0.024059 h -0.07218 q -0.01764,0 -0.02727,-0.00962 -0.008,-0.011228 -0.008,-0.025663 0,-0.024059 0.01764,-0.059346 0.01925,-0.035287 0.05774,-0.068969 0.0385,-0.033683 0.09784,-0.056138 0.06095,-0.024059 0.147562,-0.024059 0.09624,0 0.161998,0.025663 0.06576,0.024059 0.102652,0.065762 0.03849,0.041702 0.05453,0.094632 0.01764,0.05293 0.01764,0.107464 v 0.5196766 q 0,0.016039 -0.01123,0.027267 -0.0096,0.00962 -0.02566,0.00962 h -0.07378 q -0.01764,0 -0.02727,-0.00962 -0.0096,-0.011228 -0.0096,-0.027267 v -0.06897 q -0.02085,0.028871 -0.05614,0.057742 -0.03529,0.027267 -0.08822,0.046514 -0.05293,0.017643 -0.129919,0.017643 z m 0.03368,-0.1202955 q 0.06576,0 0.120295,-0.027267 0.05453,-0.028871 0.08501,-0.088217 0.03208,-0.059346 0.03208,-0.1491664 v -0.04491 l -0.186057,0.027267 q -0.11388,0.016039 -0.171622,0.054534 -0.05774,0.036891 -0.05774,0.094633 0,0.04491 0.02566,0.075385 0.02727,0.028871 0.06737,0.043306 0.0417,0.014436 0.08501,0.014436 z" />
      <path
         id="path5940"
         style="fill:#616870;fill-opacity:1;stroke-width:0.0400979"
         d="m 11.723423,6.6790252 q -0.08982,0 -0.145958,-0.033683 -0.05614,-0.035287 -0.0818,-0.09784 -0.02566,-0.064158 -0.02566,-0.1507704 V 5.9732916 h -0.125108 q -0.01604,0 -0.02727,-0.00962 -0.0096,-0.011228 -0.0096,-0.027267 V 5.881867 q 0,-0.016039 0.0096,-0.025663 0.01123,-0.011227 0.02727,-0.011227 h 0.125108 v -0.267858 q 0,-0.016039 0.0096,-0.025663 0.01123,-0.011227 0.02727,-0.011227 h 0.07539 q 0.01604,0 0.02566,0.011227 0.01123,0.00962 0.01123,0.025663 v 0.267858 h 0.198889 q 0.01604,0 0.02566,0.011227 0.01123,0.00962 0.01123,0.025663 v 0.054534 q 0,0.016039 -0.01123,0.027267 -0.0096,0.00962 -0.02566,0.00962 h -0.198889 v 0.4122126 q 0,0.075385 0.02566,0.1186915 0.02566,0.043306 0.09142,0.043306 h 0.09784 q 0.01604,0 0.02566,0.011228 0.01123,0.00962 0.01123,0.025663 v 0.057742 q 0,0.016039 -0.01123,0.027267 -0.0096,0.00962 -0.02566,0.00962 z" />
      <path
         id="path5942"
         style="fill:#616870;fill-opacity:1;stroke-width:0.0400979"
         d="m 12.061253,6.6790252 q -0.01604,0 -0.02727,-0.00962 -0.0096,-0.011228 -0.0096,-0.027267 V 5.881867 q 0,-0.016039 0.0096,-0.025663 0.01123,-0.011227 0.02727,-0.011227 h 0.07699 q 0.01604,0 0.02566,0.011227 0.0096,0.00962 0.0096,0.025663 v 0.7602676 q 0,0.016039 -0.0096,0.027267 -0.0096,0.00962 -0.02566,0.00962 z m -0.01283,-0.989631 q -0.01604,0 -0.02727,-0.00962 -0.0096,-0.011228 -0.0096,-0.027267 v -0.086613 q 0,-0.016039 0.0096,-0.025663 0.01123,-0.011228 0.02727,-0.011228 h 0.101048 q 0.01604,0 0.02566,0.011228 0.01123,0.00962 0.01123,0.025663 v 0.086613 q 0,0.016039 -0.01123,0.027267 -0.0096,0.00962 -0.02566,0.00962 z" />
      <path
         id="path5944"
         style="fill:#616870;fill-opacity:1;stroke-width:0.0400979"
         d="m 12.754456,6.6950646 q -0.121899,0 -0.2037,-0.046514 -0.0818,-0.046514 -0.125108,-0.1283152 -0.04331,-0.083405 -0.04812,-0.1892649 -0.0016,-0.027267 -0.0016,-0.068969 0,-0.043306 0.0016,-0.068969 0.0048,-0.107464 0.04812,-0.189265 0.04491,-0.081801 0.126712,-0.1283152 0.0818,-0.046514 0.202096,-0.046514 0.120296,0 0.202097,0.046514 0.0818,0.046514 0.125107,0.1283152 0.04491,0.081801 0.04972,0.189265 0.0016,0.025663 0.0016,0.068969 0,0.041702 -0.0016,0.068969 -0.0048,0.10586 -0.04812,0.1892649 -0.04331,0.081801 -0.125107,0.1283152 -0.0818,0.046514 -0.203701,0.046514 z m 0,-0.1235034 q 0.09944,0 0.15879,-0.062554 0.05935,-0.064158 0.06416,-0.186057 0.0016,-0.024059 0.0016,-0.06095 0,-0.036891 -0.0016,-0.06095 -0.0048,-0.1218995 -0.06416,-0.1844532 -0.05935,-0.064158 -0.15879,-0.064158 -0.09944,0 -0.160394,0.064158 -0.05935,0.062554 -0.06255,0.1844532 -0.0016,0.024059 -0.0016,0.06095 0,0.036891 0.0016,0.06095 0.0032,0.1218994 0.06255,0.186057 0.06095,0.062554 0.160394,0.062554 z" />
      <path
         id="path5946"
         style="fill:#616870;fill-opacity:1;stroke-width:0.0400979"
         d="m 13.370719,6.6790252 q -0.01604,0 -0.02727,-0.00962 -0.0096,-0.011228 -0.0096,-0.027267 V 5.881867 q 0,-0.016039 0.0096,-0.025663 0.01123,-0.011227 0.02727,-0.011227 h 0.07539 q 0.01604,0 0.02566,0.011227 0.01123,0.00962 0.01123,0.025663 v 0.070573 q 0.0417,-0.054534 0.104256,-0.088217 0.06416,-0.035287 0.163602,-0.035287 0.104256,0 0.176434,0.046514 0.07378,0.04491 0.110671,0.1267113 0.03689,0.080197 0.03689,0.187661 v 0.4523111 q 0,0.016039 -0.0096,0.027267 -0.0096,0.00962 -0.02566,0.00962 h -0.0802 q -0.01604,0 -0.02727,-0.00962 -0.0096,-0.011228 -0.0096,-0.027267 V 6.1978432 q 0,-0.1122758 -0.05453,-0.1748295 -0.05453,-0.064158 -0.160394,-0.064158 -0.09944,0 -0.160394,0.064158 -0.05935,0.062554 -0.05935,0.1748295 v 0.4442914 q 0,0.016039 -0.01123,0.027267 -0.0096,0.00962 -0.02566,0.00962 z" />
      <path
         id="path5948"
         style="fill:#616870;fill-opacity:1;stroke-width:0.0400979"
         d="m 14.754293,6.6790252 q -0.01604,0 -0.02727,-0.00962 -0.0096,-0.011228 -0.0096,-0.027267 V 5.5947617 q 0,-0.017643 0.0096,-0.027267 0.01123,-0.011228 0.02727,-0.011228 h 0.0802 q 0.01925,0 0.02887,0.00962 0.0096,0.00962 0.01123,0.016039 l 0.340035,0.6479918 0.341639,-0.6479918 q 0.0032,-0.00642 0.01123,-0.016039 0.0096,-0.00962 0.02887,-0.00962 h 0.07859 q 0.01764,0 0.02727,0.011228 0.01123,0.00962 0.01123,0.027267 v 1.0473729 q 0,0.016039 -0.01123,0.027267 -0.0096,0.00962 -0.02727,0.00962 h -0.07859 q -0.01604,0 -0.02727,-0.00962 -0.0096,-0.011228 -0.0096,-0.027267 V 5.8529961 l -0.267858,0.5228844 q -0.0064,0.016039 -0.01925,0.025663 -0.01283,0.00802 -0.03208,0.00802 h -0.04972 q -0.02085,0 -0.03368,-0.00802 -0.01123,-0.00962 -0.01925,-0.025663 L 14.869777,5.8529961 v 0.7891385 q 0,0.016039 -0.01123,0.027267 -0.0096,0.00962 -0.02566,0.00962 z" />
      <path
         id="path5950"
         style="fill:#616870;fill-opacity:1;stroke-width:0.0400979"
         d="m 16.20413,6.6950646 q -0.0802,0 -0.145959,-0.032079 -0.06576,-0.032079 -0.10586,-0.086613 -0.0401,-0.054534 -0.0401,-0.1235034 0,-0.1106718 0.08982,-0.1764334 0.08982,-0.065761 0.234176,-0.086613 l 0.238987,-0.033683 v -0.046514 q 0,-0.076989 -0.04491,-0.1202955 -0.04331,-0.043306 -0.14275,-0.043306 -0.07218,0 -0.117088,0.028871 -0.04331,0.028871 -0.06095,0.073781 -0.0096,0.024059 -0.03368,0.024059 h -0.07218 q -0.01764,0 -0.02727,-0.00962 -0.008,-0.011228 -0.008,-0.025663 0,-0.024059 0.01764,-0.059346 0.01925,-0.035287 0.05774,-0.068969 0.03849,-0.033683 0.09784,-0.056138 0.06095,-0.024059 0.147563,-0.024059 0.09624,0 0.161998,0.025663 0.06576,0.024059 0.102652,0.065762 0.03849,0.041702 0.05453,0.094632 0.01764,0.05293 0.01764,0.107464 v 0.5196766 q 0,0.016039 -0.01123,0.027267 -0.0096,0.00962 -0.02566,0.00962 h -0.07378 q -0.01764,0 -0.02727,-0.00962 -0.0096,-0.011228 -0.0096,-0.027267 v -0.06897 q -0.02085,0.028871 -0.05614,0.057742 -0.03529,0.027267 -0.08822,0.046514 -0.05293,0.017643 -0.129919,0.017643 z m 0.03368,-0.1202955 q 0.06576,0 0.120295,-0.027267 0.05453,-0.028871 0.08501,-0.088217 0.03208,-0.059346 0.03208,-0.1491664 v -0.04491 l -0.186057,0.027267 q -0.11388,0.016039 -0.171622,0.054534 -0.05774,0.036891 -0.05774,0.094633 0,0.04491 0.02566,0.075385 0.02727,0.028871 0.06737,0.043306 0.0417,0.014436 0.08501,0.014436 z" />
      <path
         id="path5952"
         style="fill:#616870;fill-opacity:1;stroke-width:0.0400979"
         d="m 16.895001,6.6790252 q -0.01604,0 -0.02727,-0.00962 -0.0096,-0.011228 -0.0096,-0.027267 V 5.881867 q 0,-0.016039 0.0096,-0.025663 0.01123,-0.011227 0.02727,-0.011227 h 0.07539 q 0.01604,0 0.02566,0.011227 0.01123,0.00962 0.01123,0.025663 v 0.070573 q 0.0417,-0.054534 0.104256,-0.088217 0.06416,-0.035287 0.163602,-0.035287 0.104256,0 0.176433,0.046514 0.07378,0.04491 0.110672,0.1267113 0.03689,0.080197 0.03689,0.187661 v 0.4523111 q 0,0.016039 -0.0096,0.027267 -0.0096,0.00962 -0.02566,0.00962 h -0.0802 q -0.01604,0 -0.02727,-0.00962 -0.0096,-0.011228 -0.0096,-0.027267 V 6.1978432 q 0,-0.1122758 -0.05453,-0.1748295 -0.05453,-0.064158 -0.160394,-0.064158 -0.09944,0 -0.160394,0.064158 -0.05935,0.062554 -0.05935,0.1748295 v 0.4442914 q 0,0.016039 -0.01123,0.027267 -0.0096,0.00962 -0.02566,0.00962 z" />
      <path
         id="path5954"
         style="fill:#616870;fill-opacity:1;stroke-width:0.0400979"
         d="m 18.061818,6.6950646 q -0.0802,0 -0.145959,-0.032079 -0.06576,-0.032079 -0.10586,-0.086613 -0.0401,-0.054534 -0.0401,-0.1235034 0,-0.1106718 0.08982,-0.1764334 0.08982,-0.065761 0.234176,-0.086613 l 0.238987,-0.033683 v -0.046514 q 0,-0.076989 -0.04491,-0.1202955 -0.04331,-0.043306 -0.14275,-0.043306 -0.07218,0 -0.117088,0.028871 -0.04331,0.028871 -0.06095,0.073781 -0.0096,0.024059 -0.03368,0.024059 h -0.07218 q -0.01764,0 -0.02727,-0.00962 -0.008,-0.011228 -0.008,-0.025663 0,-0.024059 0.01764,-0.059346 0.01925,-0.035287 0.05774,-0.068969 0.03849,-0.033683 0.09784,-0.056138 0.06095,-0.024059 0.147563,-0.024059 0.09624,0 0.161997,0.025663 0.06576,0.024059 0.102653,0.065762 0.03849,0.041702 0.05453,0.094632 0.01764,0.05293 0.01764,0.107464 v 0.5196766 q 0,0.016039 -0.01123,0.027267 -0.0096,0.00962 -0.02566,0.00962 h -0.07378 q -0.01764,0 -0.02727,-0.00962 -0.0096,-0.011228 -0.0096,-0.027267 v -0.06897 q -0.02085,0.028871 -0.05614,0.057742 -0.03529,0.027267 -0.08822,0.046514 -0.05293,0.017643 -0.129919,0.017643 z M 18.0955,6.5747691 q 0.06576,0 0.120296,-0.027267 0.05453,-0.028871 0.08501,-0.088217 0.03208,-0.059346 0.03208,-0.1491664 v -0.04491 l -0.186057,0.027267 q -0.11388,0.016039 -0.171622,0.054534 -0.05774,0.036891 -0.05774,0.094633 0,0.04491 0.02566,0.075385 0.02727,0.028871 0.06737,0.043306 0.0417,0.014436 0.08501,0.014436 z" />
      <path
         id="path5956"
         style="fill:#616870;fill-opacity:1;stroke-width:0.0400979"
         d="m 19.057438,7.031892 q -0.109067,0 -0.179641,-0.028871 -0.06897,-0.028871 -0.109068,-0.070573 -0.03849,-0.040099 -0.05614,-0.081801 -0.01604,-0.040099 -0.01764,-0.064158 -0.0016,-0.016039 0.0096,-0.027267 0.01283,-0.011228 0.02727,-0.011228 h 0.07699 q 0.01444,0 0.02406,0.00642 0.0096,0.00642 0.01604,0.027267 0.0096,0.024059 0.02887,0.05293 0.01925,0.030475 0.05935,0.051326 0.0401,0.022455 0.112276,0.022455 0.07539,0 0.126711,-0.020851 0.05133,-0.019247 0.07699,-0.070573 0.02727,-0.049722 0.02727,-0.1379388 V 6.5699573 q -0.03849,0.049722 -0.101048,0.083405 -0.06255,0.032079 -0.157186,0.032079 -0.08982,0 -0.153978,-0.030475 -0.06416,-0.032079 -0.105861,-0.085009 -0.0401,-0.054534 -0.06095,-0.1235034 -0.01925,-0.068969 -0.02246,-0.1443546 -0.0016,-0.04491 0,-0.088217 0.0032,-0.075385 0.02246,-0.1443546 0.02085,-0.068969 0.06095,-0.1235034 0.0417,-0.054534 0.105861,-0.085009 0.06416,-0.032079 0.153978,-0.032079 0.09624,0 0.15879,0.036891 0.06416,0.035287 0.104256,0.086613 v -0.068969 q 0,-0.016039 0.0096,-0.027267 0.01123,-0.011227 0.02727,-0.011227 h 0.07378 q 0.01604,0 0.02727,0.011227 0.01123,0.011228 0.01123,0.027267 v 0.7779109 q 0,0.107464 -0.03689,0.1908689 -0.03529,0.083405 -0.118692,0.1315231 -0.0818,0.048118 -0.221344,0.048118 z m -0.0032,-0.4747663 q 0.0802,0 0.128315,-0.036891 0.04972,-0.036891 0.07218,-0.093028 0.02406,-0.056138 0.02566,-0.1138797 0.0016,-0.022455 0.0016,-0.054534 0,-0.033683 -0.0016,-0.056138 -0.0016,-0.057742 -0.02566,-0.1138798 -0.02245,-0.056138 -0.07218,-0.093028 -0.04812,-0.036891 -0.128315,-0.036891 -0.0802,0 -0.128316,0.036891 -0.04812,0.035287 -0.06897,0.094633 -0.02085,0.057742 -0.02406,0.1251073 -0.0016,0.041703 0,0.085009 0.0032,0.067366 0.02406,0.1267113 0.02085,0.057742 0.06897,0.094633 0.04812,0.035287 0.128316,0.035287 z" />
      <path
         id="path5958"
         style="fill:#616870;fill-opacity:1;stroke-width:0.0400979"
         d="m 20.00642,6.6950646 q -0.165206,0 -0.263047,-0.1010482 -0.09784,-0.1026522 -0.107464,-0.2790856 -0.0016,-0.020851 -0.0016,-0.05293 0,-0.033683 0.0016,-0.054534 0.0064,-0.1138797 0.05293,-0.1988886 0.04651,-0.086613 0.126711,-0.133127 0.0818,-0.046514 0.190869,-0.046514 0.121899,0 0.2037,0.051326 0.0834,0.051326 0.126711,0.1459586 0.04331,0.094632 0.04331,0.2213437 v 0.027267 q 0,0.017643 -0.01123,0.027267 -0.0096,0.00962 -0.02566,0.00962 h -0.554963 q 0,0.0016 0,0.00642 0,0.00481 0,0.00802 0.0032,0.065762 0.02887,0.1235034 0.02566,0.056138 0.07378,0.091424 0.04812,0.035287 0.115484,0.035287 0.05774,0 0.09624,-0.017643 0.0385,-0.017643 0.06255,-0.038495 0.02406,-0.022455 0.03208,-0.033683 0.01444,-0.020851 0.02246,-0.024059 0.008,-0.00481 0.02566,-0.00481 h 0.07699 q 0.01604,0 0.02566,0.00962 0.01123,0.00802 0.0096,0.024059 -0.0016,0.024059 -0.02566,0.059346 -0.02406,0.033683 -0.06897,0.067366 -0.04491,0.033683 -0.109068,0.056138 -0.06416,0.020851 -0.147562,0.020851 z M 19.788284,6.2010511 h 0.439479 v -0.00481 q 0,-0.072177 -0.02727,-0.1283152 -0.02566,-0.056138 -0.07539,-0.088217 -0.04972,-0.033683 -0.118691,-0.033683 -0.06897,0 -0.118692,0.033683 -0.04812,0.032079 -0.07378,0.088217 -0.02566,0.056138 -0.02566,0.1283152 z" />
      <path
         id="path5960"
         style="fill:#616870;fill-opacity:1;stroke-width:0.0400979"
         d="m 20.610379,6.6790252 q -0.01604,0 -0.02727,-0.00962 -0.0096,-0.011228 -0.0096,-0.027267 V 5.8834709 q 0,-0.016039 0.0096,-0.027267 0.01123,-0.011227 0.02727,-0.011227 h 0.07378 q 0.01604,0 0.02727,0.011227 0.01123,0.011228 0.01123,0.027267 v 0.070573 q 0.03208,-0.054534 0.08822,-0.081801 0.05614,-0.027267 0.134731,-0.027267 h 0.06416 q 0.01604,0 0.02566,0.011227 0.0096,0.00962 0.0096,0.025663 v 0.065762 q 0,0.016039 -0.0096,0.025663 -0.0096,0.00962 -0.02566,0.00962 h -0.09624 q -0.08661,0 -0.136334,0.051326 -0.04972,0.049722 -0.04972,0.1363349 v 0.4715584 q 0,0.016039 -0.01123,0.027267 -0.01123,0.00962 -0.02727,0.00962 z" />
    </g>
  </g>
</svg>
