<?xml version="1.0" encoding="UTF-8" standalone="no"?>
<svg xmlns:dc="http://purl.org/dc/elements/1.1/" xmlns:cc="http://creativecommons.org/ns#" xmlns:rdf="http://www.w3.org/1999/02/22-rdf-syntax-ns#" xmlns:svg="http://www.w3.org/2000/svg" xmlns="http://www.w3.org/2000/svg" version="1.1" viewBox="0 0 50.799999 33.866668" height="128" width="192" id="svg3453">
  <g id="layer1">
    <g transform="matrix(0.26458333,0,0,0.26458333,3.1999999e-7,-0.39687478)" id="Provider/OracleCIC/opc-128" stroke="none" stroke-width="1" fill="none" fill-rule="evenodd">
      <path d="m 153.0221,56.855297 c -2.63102,0 -4.86363,-1.764388 -5.54629,-4.197663 h 14.64759 l 2.01923,-3.144703 h -16.66682 c 0.68266,-2.418691 2.91527,-4.197259 5.54629,-4.197259 h 10.05362 l 2.03381,-3.145108 h -12.31498 c -4.92072,0 -8.91626,3.99874 -8.91626,8.922011 0,4.92327 3.99554,8.907425 8.91626,8.907425 h 10.56582 L 165.38,56.855297 Z M 111.11353,60 c -4.91992,0 -8.91585,-3.984155 -8.91585,-8.907425 0,-4.923271 3.99593,-8.922011 8.91585,-8.922011 h 12.30121 l -2.00505,3.145108 h -10.0682 c -3.18574,0 -5.77385,2.58966 -5.77385,5.776903 0,3.187242 2.58811,5.762722 5.77385,5.762722 h 12.35749 L 121.67975,60 Z M 46.037094,56.855297 c 3.187358,0 5.768178,-2.57548 5.768178,-5.762722 0,-3.187243 -2.58082,-5.776903 -5.768178,-5.776903 h -9.897329 c -3.185334,0 -5.768179,2.58966 -5.768179,5.776903 0,3.187242 2.582845,5.762722 5.768179,5.762722 z M 35.910997,60 C 30.99189,60 27,56.015845 27,51.092575 c 0,-4.923271 3.99189,-8.922011 8.910997,-8.922011 h 10.356889 c 4.919917,0 8.908973,3.99874 8.908973,8.922011 0,4.92327 -3.989056,8.907425 -8.908973,8.907425 z m 36.081685,-5.777308 c 3.327858,0 6.029743,-2.688919 6.029743,-6.018771 0,-3.329447 -2.701885,-6.033357 -6.029743,-6.033357 H 57.000115 V 60 h 3.425843 V 45.315672 h 11.339171 c 1.592869,0 2.872752,1.294425 2.872752,2.888249 0,1.593824 -1.279883,2.888654 -2.872752,2.888654 L 62.103856,51.078395 72.334011,60 h 4.977413 l -6.882863,-5.777308 z m 56.697878,2.632605 V 42.170564 h -3.42746 v 16.121768 c 0,0.441198 0.17087,0.868216 0.49803,1.19557 C 126.08788,59.814851 126.52881,60 127.01267,60 h 15.62825 l 2.01963,-3.144703 z M 86.739476,53.710594 H 95.88329 L 91.048401,45.927435 82.174655,60 H 78.136201 L 88.92957,43.095906 C 89.398847,42.412838 90.18111,42 91.048401,42 c 0.839354,0 1.621212,0.398253 2.075913,1.067141 L 103.9606,60 h -4.038452 l -1.905855,-3.144703 h -9.25759 z M 167.22344,45.68428 c -1.01414,0 -1.84344,-0.823151 -1.84344,-1.842326 C 165.38,42.823151 166.2093,42 167.22344,42 c 1.02726,0 1.85656,0.823151 1.85656,1.841954 0,1.019175 -0.8293,1.842326 -1.85656,1.842326 z m -0.17134,-2.939613 c 0.28981,0 0.40828,0.01302 0.54025,0.06547 0.36854,0.117539 0.40828,0.444122 0.40828,0.57468 0,0.02604 0,0.0915 -0.0266,0.169615 -0.0131,0.07848 -0.066,0.235451 -0.25044,0.352991 -0.0259,0.01302 -0.039,0.02604 -0.0918,0.05208 l 0.47426,0.84956 h -0.46114 l -0.4214,-0.784095 h -0.28943 v 0.784095 h -0.40828 v -2.064387 z m 0.14509,0.940691 c 0.1316,-0.01302 0.26319,-0.01302 0.3423,-0.13093 0.0397,-0.05208 0.0529,-0.104149 0.0529,-0.182633 0,-0.104522 -0.066,-0.196024 -0.15821,-0.248099 -0.0922,-0.03943 -0.18408,-0.03943 -0.38204,-0.03943 h -0.11809 v 0.60109 z m -1.42203,0.143577 c 0,0.810133 0.64522,1.450279 1.44828,1.450279 0.81656,0 1.46178,-0.640146 1.46178,-1.450279 0,-0.796741 -0.64522,-1.436887 -1.46178,-1.436887 -0.80306,0 -1.44828,0.640146 -1.44828,1.436887 z" id="ORACLE" fill="#ec1d24" />
    </g>
    <g aria-label="Linux Virtualization Manger" id="text857" style="font-style:normal;font-variant:normal;font-weight:normal;font-stretch:normal;font-size:4.0196px;line-height:1.25;font-family:Rubik;-inkscape-font-specification:'Rubik, Normal';font-variant-ligatures:normal;font-variant-caps:normal;font-variant-numeric:normal;font-variant-east-asian:normal;stroke-width:0.10049">
      <g style="font-size:3.83434px;line-height:1.05;font-family:Rubik;-inkscape-font-specification:'Rubik, Normal';stroke-width:0.0206418" id="text922" aria-label="Linux Virtualization Manager">
        <path id="path924" style="font-size:3.83434px;stroke-width:0.0206418" d="m 0.27435237,23.059128 q -0.0421777,0 -0.0651838,-0.02301 -0.023006,-0.02684 -0.023006,-0.06518 V 20.46328 q 0,-0.03834 0.023006,-0.06135 0.023006,-0.02684 0.0651838,-0.02684 h 0.20322002 q 0.0383434,0 0.0613494,0.02684 0.023006,0.02301 0.023006,0.06135 v 2.26226 H 1.8387631 q 0.042178,0 0.065184,0.02684 0.023006,0.02301 0.023006,0.06518 v 0.153374 q 0,0.03834 -0.023006,0.06518 -0.023006,0.02301 -0.065184,0.02301 z" />
        <path id="path926" style="font-size:3.83434px;stroke-width:0.0206418" d="m 2.3813222,23.059128 q -0.038343,0 -0.065184,-0.02301 -0.023006,-0.02684 -0.023006,-0.06518 v -1.817477 q 0,-0.03834 0.023006,-0.06135 0.02684,-0.02684 0.065184,-0.02684 h 0.1840483 q 0.038343,0 0.061349,0.02684 0.023006,0.02301 0.023006,0.06135 v 1.817477 q 0,0.03834 -0.023006,0.06518 -0.023006,0.02301 -0.061349,0.02301 z M 2.3506475,20.69334 q -0.038343,0 -0.065184,-0.02301 -0.023006,-0.02684 -0.023006,-0.06518 v -0.207054 q 0,-0.03834 0.023006,-0.06135 0.02684,-0.02684 0.065184,-0.02684 h 0.2415634 q 0.038343,0 0.061349,0.02684 0.02684,0.02301 0.02684,0.06135 v 0.207054 q 0,0.03834 -0.02684,0.06518 -0.023006,0.02301 -0.061349,0.02301 z" />
        <path id="path928" style="font-size:3.83434px;stroke-width:0.0206418" d="m 3.3099514,23.059128 q -0.038343,0 -0.065184,-0.02301 -0.023006,-0.02684 -0.023006,-0.06518 v -1.817477 q 0,-0.03834 0.023006,-0.06135 0.02684,-0.02684 0.065184,-0.02684 h 0.1802139 q 0.038343,0 0.061349,0.02684 0.02684,0.02301 0.02684,0.06135 v 0.168711 q 0.099693,-0.130368 0.2492321,-0.210889 0.1533736,-0.08435 0.3911027,-0.08435 0.2492321,0 0.4217774,0.111195 0.1763796,0.107362 0.2645694,0.302913 0.08819,0.191717 0.08819,0.448618 v 1.081284 q 0,0.03834 -0.023006,0.06518 -0.023006,0.02301 -0.061349,0.02301 h -0.191717 q -0.038343,0 -0.065184,-0.02301 -0.023006,-0.02684 -0.023006,-0.06518 v -1.062112 q 0,-0.268404 -0.1303675,-0.417943 -0.1303676,-0.153374 -0.383434,-0.153374 -0.2377291,0 -0.383434,0.153374 -0.1418706,0.149539 -0.1418706,0.417943 v 1.062112 q 0,0.03834 -0.02684,0.06518 -0.023006,0.02301 -0.061349,0.02301 z" />
        <path id="path930" style="font-size:3.83434px;stroke-width:0.0206418" d="m 6.2871968,23.097471 q -0.2453978,0 -0.4179431,-0.107361 -0.168711,-0.111196 -0.2569008,-0.306748 -0.08819,-0.195551 -0.08819,-0.448617 v -1.081284 q 0,-0.03834 0.023006,-0.06135 0.02684,-0.02684 0.065184,-0.02684 h 0.191717 q 0.038343,0 0.06135,0.02684 0.02684,0.02301 0.02684,0.06135 v 1.062112 q 0,0.571317 0.4984642,0.571317 0.2377291,0 0.3795997,-0.14954 0.1457049,-0.153373 0.1457049,-0.421777 v -1.062112 q 0,-0.03834 0.023006,-0.06135 0.02684,-0.02684 0.065184,-0.02684 H 7.192101 q 0.042178,0 0.065184,0.02684 0.023006,0.02301 0.023006,0.06135 v 1.817477 q 0,0.03834 -0.023006,0.06518 -0.023006,0.02301 -0.065184,0.02301 H 7.0157214 q -0.038343,0 -0.065184,-0.02301 -0.023006,-0.02684 -0.023006,-0.06518 v -0.168711 q -0.1035272,0.134202 -0.2530665,0.214723 -0.1457049,0.08052 -0.3872683,0.08052 z" />
        <path id="path932" style="font-size:3.83434px;stroke-width:0.0206418" d="m 7.757906,23.059128 q -0.030675,0 -0.057515,-0.02301 -0.023006,-0.02301 -0.023006,-0.05751 0,-0.0115 0.00383,-0.02684 0.00767,-0.01917 0.023006,-0.04218 L 8.3714004,22.039193 7.7464029,21.21481 q -0.015337,-0.02301 -0.023006,-0.03834 -0.00383,-0.01534 -0.00383,-0.03067 0,-0.03451 0.023006,-0.05751 0.023006,-0.02301 0.057515,-0.02301 H 7.995635 q 0.042178,0 0.06135,0.02301 0.023006,0.01917 0.038343,0.03834 l 0.5099672,0.663341 0.5099672,-0.659506 q 0.015337,-0.01917 0.034509,-0.04218 0.023006,-0.02301 0.065184,-0.02301 h 0.1878827 q 0.034509,0 0.057515,0.02301 0.023006,0.02301 0.023006,0.05751 0,0.01534 -0.00767,0.03067 -0.00383,0.01534 -0.019172,0.03834 l -0.6326661,0.832052 0.6671752,0.862727 q 0.015337,0.02301 0.019172,0.03834 0.00767,0.01534 0.00767,0.03067 0,0.03451 -0.023006,0.05751 -0.023006,0.02301 -0.057515,0.02301 h -0.20322 q -0.038343,0 -0.06135,-0.01917 -0.023006,-0.01917 -0.038343,-0.03834 l -0.5406419,-0.701685 -0.540642,0.701685 q -0.015337,0.01534 -0.038343,0.03834 -0.019172,0.01917 -0.061349,0.01917 z" />
        <path id="path934" style="font-size:3.83434px;stroke-width:0.0206418" d="m 11.595541,23.059128 q -0.05752,0 -0.09202,-0.02684 -0.03068,-0.02684 -0.04985,-0.07285 l -0.855058,-2.465481 q -0.0077,-0.02301 -0.0077,-0.04218 0,-0.03067 0.02301,-0.05368 0.02301,-0.02301 0.05368,-0.02301 h 0.199386 q 0.04601,0 0.06902,0.02684 0.02684,0.02301 0.03068,0.04218 l 0.751531,2.174071 0.75153,-2.174071 q 0.0077,-0.01917 0.03067,-0.04218 0.02301,-0.02684 0.06902,-0.02684 h 0.199386 q 0.03068,0 0.05368,0.02301 0.02684,0.02301 0.02684,0.05368 0,0.01917 -0.0077,0.04218 l -0.858892,2.465481 q -0.01534,0.04601 -0.04985,0.07285 -0.03068,0.02684 -0.08819,0.02684 z" />
        <path id="path936" style="font-size:3.83434px;stroke-width:0.0206418" d="m 13.300205,23.059128 q -0.03834,0 -0.06518,-0.02301 -0.02301,-0.02684 -0.02301,-0.06518 v -1.817477 q 0,-0.03834 0.02301,-0.06135 0.02684,-0.02684 0.06518,-0.02684 h 0.184048 q 0.03834,0 0.06135,0.02684 0.02301,0.02301 0.02301,0.06135 v 1.817477 q 0,0.03834 -0.02301,0.06518 -0.02301,0.02301 -0.06135,0.02301 z M 13.26953,20.69334 q -0.03834,0 -0.06518,-0.02301 -0.02301,-0.02684 -0.02301,-0.06518 v -0.207054 q 0,-0.03834 0.02301,-0.06135 0.02684,-0.02684 0.06518,-0.02684 h 0.241564 q 0.03834,0 0.06135,0.02684 0.02684,0.02301 0.02684,0.06135 v 0.207054 q 0,0.03834 -0.02684,0.06518 -0.02301,0.02301 -0.06135,0.02301 z" />
        <path id="path938" style="font-size:3.83434px;stroke-width:0.0206418" d="m 14.228834,23.059128 q -0.03834,0 -0.06518,-0.02301 -0.02301,-0.02684 -0.02301,-0.06518 v -1.813643 q 0,-0.03834 0.02301,-0.06518 0.02684,-0.02684 0.06518,-0.02684 h 0.176379 q 0.03834,0 0.06518,0.02684 0.02684,0.02684 0.02684,0.06518 v 0.168711 q 0.07669,-0.130367 0.210888,-0.195551 0.134202,-0.06518 0.322085,-0.06518 h 0.153373 q 0.03834,0 0.06135,0.02684 0.02301,0.02301 0.02301,0.06135 v 0.157208 q 0,0.03834 -0.02301,0.06135 -0.02301,0.02301 -0.06135,0.02301 h -0.23006 q -0.207054,0 -0.325919,0.122699 -0.118864,0.118865 -0.118864,0.325919 v 1.127296 q 0,0.03834 -0.02684,0.06518 -0.02684,0.02301 -0.06518,0.02301 z" />
        <path id="path940" style="font-size:3.83434px;stroke-width:0.0206418" d="m 16.379359,23.059128 q -0.214723,0 -0.348925,-0.08052 -0.134202,-0.08436 -0.195551,-0.233895 -0.06135,-0.153374 -0.06135,-0.360428 v -1.012266 h -0.299079 q -0.03834,0 -0.06518,-0.02301 -0.02301,-0.02684 -0.02301,-0.06518 v -0.130367 q 0,-0.03834 0.02301,-0.06135 0.02684,-0.02684 0.06518,-0.02684 h 0.299079 v -0.640335 q 0,-0.03834 0.02301,-0.06135 0.02684,-0.02684 0.06518,-0.02684 h 0.180214 q 0.03834,0 0.06135,0.02684 0.02684,0.02301 0.02684,0.06135 v 0.640335 h 0.475458 q 0.03834,0 0.06135,0.02684 0.02684,0.02301 0.02684,0.06135 v 0.130367 q 0,0.03834 -0.02684,0.06518 -0.02301,0.02301 -0.06135,0.02301 h -0.475458 v 0.985426 q 0,0.180214 0.06135,0.283741 0.06135,0.103527 0.218557,0.103527 h 0.233895 q 0.03834,0 0.06135,0.02684 0.02684,0.02301 0.02684,0.06135 v 0.138036 q 0,0.03834 -0.02684,0.06518 -0.02301,0.02301 -0.06135,0.02301 z" />
        <path id="path942" style="font-size:3.83434px;stroke-width:0.0206418" d="m 17.84264,23.097471 q -0.245398,0 -0.417943,-0.107361 -0.168711,-0.111196 -0.256901,-0.306748 -0.08819,-0.195551 -0.08819,-0.448617 v -1.081284 q 0,-0.03834 0.02301,-0.06135 0.02684,-0.02684 0.06518,-0.02684 h 0.191717 q 0.03834,0 0.06135,0.02684 0.02684,0.02301 0.02684,0.06135 v 1.062112 q 0,0.571317 0.498464,0.571317 0.237729,0 0.379599,-0.14954 0.145705,-0.153373 0.145705,-0.421777 v -1.062112 q 0,-0.03834 0.02301,-0.06135 0.02684,-0.02684 0.06518,-0.02684 h 0.187883 q 0.04218,0 0.06518,0.02684 0.02301,0.02301 0.02301,0.06135 v 1.817477 q 0,0.03834 -0.02301,0.06518 -0.02301,0.02301 -0.06518,0.02301 h -0.17638 q -0.03834,0 -0.06518,-0.02301 -0.02301,-0.02684 -0.02301,-0.06518 v -0.168711 q -0.103527,0.134202 -0.253066,0.214723 -0.145705,0.08052 -0.387268,0.08052 z" />
        <path id="path944" style="font-size:3.83434px;stroke-width:0.0206418" d="m 19.961352,23.097471 q -0.191717,0 -0.348925,-0.07669 -0.157208,-0.07669 -0.253067,-0.207054 -0.09586,-0.130368 -0.09586,-0.295244 0,-0.26457 0.214723,-0.421778 0.214723,-0.157208 0.559814,-0.207054 l 0.571316,-0.08052 v -0.111196 q 0,-0.184048 -0.107361,-0.287575 -0.103527,-0.103528 -0.341257,-0.103528 -0.172545,0 -0.279906,0.06902 -0.103528,0.06902 -0.145705,0.176379 -0.02301,0.05751 -0.08052,0.05751 h -0.172546 q -0.04218,0 -0.06518,-0.02301 -0.01917,-0.02684 -0.01917,-0.06135 0,-0.05751 0.04218,-0.141871 0.04601,-0.08435 0.138036,-0.164876 0.09202,-0.08052 0.233894,-0.134202 0.145705,-0.05751 0.35276,-0.05751 0.23006,0 0.387268,0.06135 0.157208,0.05751 0.245398,0.157208 0.09202,0.09969 0.130367,0.226226 0.04218,0.126533 0.04218,0.256901 v 1.242326 q 0,0.03834 -0.02684,0.06518 -0.02301,0.02301 -0.06135,0.02301 h -0.176379 q -0.04218,0 -0.06518,-0.02301 -0.02301,-0.02684 -0.02301,-0.06518 v -0.164877 q -0.04985,0.06902 -0.134202,0.138037 -0.08435,0.06518 -0.210889,0.111195 -0.126533,0.04218 -0.310581,0.04218 z m 0.08052,-0.287575 q 0.157208,0 0.287575,-0.06518 0.130368,-0.06902 0.20322,-0.210889 0.07669,-0.14187 0.07669,-0.356593 v -0.107362 l -0.444783,0.06518 q -0.272238,0.03834 -0.410275,0.130367 -0.138036,0.08819 -0.138036,0.226226 0,0.107362 0.06135,0.180214 0.06518,0.06902 0.161042,0.103528 0.09969,0.03451 0.20322,0.03451 z" />
        <path id="path946" style="font-size:3.83434px;stroke-width:0.0206418" d="m 21.616768,23.059128 q -0.03834,0 -0.06518,-0.02301 -0.02301,-0.02684 -0.02301,-0.06518 v -2.546002 q 0,-0.03834 0.02301,-0.06135 0.02684,-0.02684 0.06518,-0.02684 h 0.180214 q 0.04218,0 0.06518,0.02684 0.02301,0.02301 0.02301,0.06135 v 2.546002 q 0,0.03834 -0.02301,0.06518 -0.02301,0.02301 -0.06518,0.02301 z" />
        <path id="path948" style="font-size:3.83434px;stroke-width:0.0206418" d="m 22.541565,23.059128 q -0.03834,0 -0.06518,-0.02301 -0.02301,-0.02684 -0.02301,-0.06518 v -1.817477 q 0,-0.03834 0.02301,-0.06135 0.02684,-0.02684 0.06518,-0.02684 h 0.184048 q 0.03834,0 0.06135,0.02684 0.02301,0.02301 0.02301,0.06135 v 1.817477 q 0,0.03834 -0.02301,0.06518 -0.02301,0.02301 -0.06135,0.02301 z M 22.51089,20.69334 q -0.03834,0 -0.06518,-0.02301 -0.02301,-0.02684 -0.02301,-0.06518 v -0.207054 q 0,-0.03834 0.02301,-0.06135 0.02684,-0.02684 0.06518,-0.02684 h 0.241563 q 0.03834,0 0.06135,0.02684 0.02684,0.02301 0.02684,0.06135 v 0.207054 q 0,0.03834 -0.02684,0.06518 -0.02301,0.02301 -0.06135,0.02301 z" />
        <path id="path950" style="font-size:3.83434px;stroke-width:0.0206418" d="m 23.34366,23.059128 q -0.03834,0 -0.06518,-0.02301 -0.02301,-0.02684 -0.02301,-0.06518 v -0.134202 q 0,-0.03451 0.01534,-0.06518 0.01917,-0.03067 0.03834,-0.05751 l 1.058278,-1.345853 h -0.98926 q -0.03834,0 -0.06518,-0.02301 -0.02301,-0.02301 -0.02301,-0.06518 v -0.126533 q 0,-0.03834 0.02301,-0.06135 0.02684,-0.02684 0.06518,-0.02684 h 1.365025 q 0.03834,0 0.06135,0.02684 0.02684,0.02301 0.02684,0.06135 v 0.14187 q 0,0.03451 -0.01917,0.06135 -0.01534,0.02684 -0.03451,0.05752 l -1.046774,1.342019 h 1.088952 q 0.03834,0 0.06135,0.02301 0.02684,0.02301 0.02684,0.06518 v 0.126533 q 0,0.03834 -0.02684,0.06518 -0.02301,0.02301 -0.06135,0.02301 z" />
        <path id="path952" style="font-size:3.83434px;stroke-width:0.0206418" d="m 25.892598,23.097471 q -0.191717,0 -0.348925,-0.07669 -0.157208,-0.07669 -0.253067,-0.207054 -0.09586,-0.130368 -0.09586,-0.295244 0,-0.26457 0.214723,-0.421778 0.214723,-0.157208 0.559813,-0.207054 l 0.571317,-0.08052 v -0.111196 q 0,-0.184048 -0.107361,-0.287575 -0.103528,-0.103528 -0.341257,-0.103528 -0.172545,0 -0.279907,0.06902 -0.103527,0.06902 -0.145705,0.176379 -0.02301,0.05751 -0.08052,0.05751 h -0.172545 q -0.04218,0 -0.06518,-0.02301 -0.01917,-0.02684 -0.01917,-0.06135 0,-0.05751 0.04218,-0.141871 0.04601,-0.08435 0.138037,-0.164876 0.09202,-0.08052 0.233894,-0.134202 0.145705,-0.05751 0.35276,-0.05751 0.23006,0 0.387268,0.06135 0.157208,0.05751 0.245398,0.157208 0.09202,0.09969 0.130367,0.226226 0.04218,0.126533 0.04218,0.256901 v 1.242326 q 0,0.03834 -0.02684,0.06518 -0.02301,0.02301 -0.06135,0.02301 H 26.63646 q -0.04218,0 -0.06518,-0.02301 -0.02301,-0.02684 -0.02301,-0.06518 v -0.164877 q -0.04985,0.06902 -0.134202,0.138037 -0.08436,0.06518 -0.210889,0.111195 -0.126533,0.04218 -0.310581,0.04218 z m 0.08052,-0.287575 q 0.157208,0 0.287575,-0.06518 0.130368,-0.06902 0.20322,-0.210889 0.07669,-0.14187 0.07669,-0.356593 v -0.107362 l -0.444783,0.06518 q -0.272239,0.03834 -0.410275,0.130367 -0.138036,0.08819 -0.138036,0.226226 0,0.107362 0.06135,0.180214 0.06518,0.06902 0.161043,0.103528 0.09969,0.03451 0.20322,0.03451 z" />
        <path id="path954" style="font-size:3.83434px;stroke-width:0.0206418" d="m 28.211894,23.059128 q -0.214723,0 -0.348925,-0.08052 -0.134202,-0.08436 -0.195551,-0.233895 -0.06135,-0.153374 -0.06135,-0.360428 V 21.372018 H 27.30699 q -0.03834,0 -0.06518,-0.02301 -0.02301,-0.02684 -0.02301,-0.06518 v -0.130367 q 0,-0.03834 0.02301,-0.06135 0.02684,-0.02684 0.06518,-0.02684 h 0.299078 v -0.640335 q 0,-0.03834 0.02301,-0.06135 0.02684,-0.02684 0.06518,-0.02684 h 0.180214 q 0.03834,0 0.06135,0.02684 0.02684,0.02301 0.02684,0.06135 v 0.640335 h 0.475458 q 0.03834,0 0.06135,0.02684 0.02684,0.02301 0.02684,0.06135 v 0.130367 q 0,0.03834 -0.02684,0.06518 -0.02301,0.02301 -0.06135,0.02301 h -0.475458 v 0.985426 q 0,0.180214 0.06135,0.283741 0.06135,0.103527 0.218558,0.103527 h 0.233895 q 0.03834,0 0.06135,0.02684 0.02684,0.02301 0.02684,0.06135 v 0.138036 q 0,0.03834 -0.02684,0.06518 -0.02301,0.02301 -0.06135,0.02301 z" />
        <path id="path956" style="font-size:3.83434px;stroke-width:0.0206418" d="m 29.019502,23.059128 q -0.03834,0 -0.06518,-0.02301 -0.02301,-0.02684 -0.02301,-0.06518 v -1.817477 q 0,-0.03834 0.02301,-0.06135 0.02684,-0.02684 0.06518,-0.02684 h 0.184049 q 0.03834,0 0.06135,0.02684 0.02301,0.02301 0.02301,0.06135 v 1.817477 q 0,0.03834 -0.02301,0.06518 -0.02301,0.02301 -0.06135,0.02301 z m -0.03067,-2.365788 q -0.03834,0 -0.06518,-0.02301 -0.02301,-0.02684 -0.02301,-0.06518 v -0.207054 q 0,-0.03834 0.02301,-0.06135 0.02684,-0.02684 0.06518,-0.02684 h 0.241564 q 0.03834,0 0.06135,0.02684 0.02684,0.02301 0.02684,0.06135 v 0.207054 q 0,0.03834 -0.02684,0.06518 -0.02301,0.02301 -0.06135,0.02301 z" />
        <path id="path958" style="font-size:3.83434px;stroke-width:0.0206418" d="m 30.676656,23.097471 q -0.29141,0 -0.486961,-0.111196 -0.195552,-0.111196 -0.299079,-0.306747 -0.103527,-0.199386 -0.11503,-0.452452 -0.0038,-0.06518 -0.0038,-0.164877 0,-0.103527 0.0038,-0.164876 0.0115,-0.256901 0.11503,-0.452452 0.107362,-0.195552 0.302913,-0.306748 0.195551,-0.111195 0.483127,-0.111195 0.287575,0 0.483127,0.111195 0.195551,0.111196 0.299078,0.306748 0.107362,0.195551 0.118865,0.452452 0.0038,0.06135 0.0038,0.164876 0,0.09969 -0.0038,0.164877 -0.0115,0.253066 -0.115031,0.452452 -0.103527,0.195551 -0.299078,0.306747 -0.195551,0.111196 -0.486961,0.111196 z m 0,-0.295244 q 0.237729,0 0.379599,-0.149539 0.141871,-0.153374 0.153374,-0.444784 0.0038,-0.05751 0.0038,-0.145705 0,-0.08819 -0.0038,-0.145705 -0.0115,-0.291409 -0.153374,-0.440949 -0.14187,-0.153373 -0.379599,-0.153373 -0.237729,0 -0.383434,0.153373 -0.141871,0.14954 -0.14954,0.440949 -0.0038,0.05752 -0.0038,0.145705 0,0.08819 0.0038,0.145705 0.0077,0.29141 0.14954,0.444784 0.145705,0.149539 0.383434,0.149539 z" />
        <path id="path960" style="font-size:3.83434px;stroke-width:0.0206418" d="m 32.149881,23.059128 q -0.03834,0 -0.06518,-0.02301 -0.02301,-0.02684 -0.02301,-0.06518 v -1.817477 q 0,-0.03834 0.02301,-0.06135 0.02684,-0.02684 0.06518,-0.02684 h 0.180214 q 0.03834,0 0.06135,0.02684 0.02684,0.02301 0.02684,0.06135 v 0.168711 q 0.09969,-0.130368 0.249232,-0.210889 0.153373,-0.08435 0.391103,-0.08435 0.249232,0 0.421777,0.111195 0.17638,0.107362 0.264569,0.302913 0.08819,0.191717 0.08819,0.448618 v 1.081284 q 0,0.03834 -0.02301,0.06518 -0.02301,0.02301 -0.06135,0.02301 h -0.191717 q -0.03834,0 -0.06518,-0.02301 -0.02301,-0.02684 -0.02301,-0.06518 v -1.062112 q 0,-0.268404 -0.130368,-0.417943 -0.130367,-0.153374 -0.383434,-0.153374 -0.237729,0 -0.383434,0.153374 -0.14187,0.149539 -0.14187,0.417943 v 1.062112 q 0,0.03834 -0.02684,0.06518 -0.02301,0.02301 -0.06135,0.02301 z" />
        <path id="path962" style="font-size:3.83434px;stroke-width:0.0206418" d="m 35.45742,23.059128 q -0.03834,0 -0.06518,-0.02301 -0.02301,-0.02684 -0.02301,-0.06518 v -2.503824 q 0,-0.04218 0.02301,-0.06518 0.02684,-0.02684 0.06518,-0.02684 h 0.191717 q 0.04601,0 0.06902,0.02301 0.02301,0.02301 0.02684,0.03834 l 0.81288,1.549074 0.816715,-1.549074 q 0.0077,-0.01534 0.02684,-0.03834 0.02301,-0.02301 0.06902,-0.02301 h 0.187883 q 0.04218,0 0.06518,0.02684 0.02684,0.02301 0.02684,0.06518 v 2.503824 q 0,0.03834 -0.02684,0.06518 -0.02301,0.02301 -0.06518,0.02301 h -0.187883 q -0.03834,0 -0.06518,-0.02301 -0.02301,-0.02684 -0.02301,-0.06518 v -1.886495 l -0.640334,1.249995 q -0.01534,0.03834 -0.04601,0.06135 -0.03068,0.01917 -0.07669,0.01917 H 36.50036 q -0.04985,0 -0.08052,-0.01917 -0.02684,-0.02301 -0.04601,-0.06135 l -0.640335,-1.249995 v 1.886495 q 0,0.03834 -0.02684,0.06518 -0.02301,0.02301 -0.06135,0.02301 z" />
        <path id="path964" style="font-size:3.83434px;stroke-width:0.0206418" d="m 38.923363,23.097471 q -0.191717,0 -0.348925,-0.07669 -0.157208,-0.07669 -0.253066,-0.207054 -0.09586,-0.130368 -0.09586,-0.295244 0,-0.26457 0.214723,-0.421778 0.214723,-0.157208 0.559814,-0.207054 l 0.571317,-0.08052 v -0.111196 q 0,-0.184048 -0.107362,-0.287575 -0.103527,-0.103528 -0.341256,-0.103528 -0.172546,0 -0.279907,0.06902 -0.103527,0.06902 -0.145705,0.176379 -0.02301,0.05751 -0.08052,0.05751 h -0.172545 q -0.04218,0 -0.06518,-0.02301 -0.01917,-0.02684 -0.01917,-0.06135 0,-0.05751 0.04218,-0.141871 0.04601,-0.08435 0.138036,-0.164876 0.09202,-0.08052 0.233895,-0.134202 0.145705,-0.05751 0.352759,-0.05751 0.230061,0 0.387268,0.06135 0.157208,0.05751 0.245398,0.157208 0.09202,0.09969 0.130368,0.226226 0.04218,0.126533 0.04218,0.256901 v 1.242326 q 0,0.03834 -0.02684,0.06518 -0.02301,0.02301 -0.06135,0.02301 h -0.17638 q -0.04218,0 -0.06518,-0.02301 -0.02301,-0.02684 -0.02301,-0.06518 v -0.164877 q -0.04985,0.06902 -0.134202,0.138037 -0.08436,0.06518 -0.210888,0.111195 -0.126534,0.04218 -0.310582,0.04218 z m 0.08052,-0.287575 q 0.157208,0 0.287576,-0.06518 0.130367,-0.06902 0.20322,-0.210889 0.07669,-0.14187 0.07669,-0.356593 v -0.107362 l -0.444784,0.06518 q -0.272238,0.03834 -0.410274,0.130367 -0.138037,0.08819 -0.138037,0.226226 0,0.107362 0.06135,0.180214 0.06518,0.06902 0.161042,0.103528 0.09969,0.03451 0.20322,0.03451 z" />
        <path id="path966" style="font-size:3.83434px;stroke-width:0.0206418" d="m 40.574943,23.059128 q -0.03834,0 -0.06518,-0.02301 -0.02301,-0.02684 -0.02301,-0.06518 v -1.817477 q 0,-0.03834 0.02301,-0.06135 0.02684,-0.02684 0.06518,-0.02684 h 0.180214 q 0.03834,0 0.06135,0.02684 0.02684,0.02301 0.02684,0.06135 v 0.168711 q 0.09969,-0.130368 0.249232,-0.210889 0.153374,-0.08435 0.391103,-0.08435 0.249232,0 0.421777,0.111195 0.17638,0.107362 0.26457,0.302913 0.08819,0.191717 0.08819,0.448618 v 1.081284 q 0,0.03834 -0.02301,0.06518 -0.02301,0.02301 -0.06135,0.02301 h -0.191717 q -0.03834,0 -0.06518,-0.02301 -0.02301,-0.02684 -0.02301,-0.06518 v -1.062112 q 0,-0.268404 -0.130367,-0.417943 -0.130368,-0.153374 -0.383434,-0.153374 -0.23773,0 -0.383434,0.153374 -0.141871,0.149539 -0.141871,0.417943 v 1.062112 q 0,0.03834 -0.02684,0.06518 -0.02301,0.02301 -0.06135,0.02301 z" />
        <path id="path968" style="font-size:3.83434px;stroke-width:0.0206418" d="m 43.364308,23.097471 q -0.191717,0 -0.348925,-0.07669 -0.157208,-0.07669 -0.253067,-0.207054 -0.09586,-0.130368 -0.09586,-0.295244 0,-0.26457 0.214723,-0.421778 0.214723,-0.157208 0.559814,-0.207054 l 0.571316,-0.08052 v -0.111196 q 0,-0.184048 -0.107361,-0.287575 -0.103527,-0.103528 -0.341257,-0.103528 -0.172545,0 -0.279906,0.06902 -0.103528,0.06902 -0.145705,0.176379 -0.02301,0.05751 -0.08052,0.05751 h -0.172546 q -0.04218,0 -0.06518,-0.02301 -0.01917,-0.02684 -0.01917,-0.06135 0,-0.05751 0.04218,-0.141871 0.04601,-0.08435 0.138036,-0.164876 0.09202,-0.08052 0.233895,-0.134202 0.145704,-0.05751 0.352759,-0.05751 0.23006,0 0.387268,0.06135 0.157208,0.05751 0.245398,0.157208 0.09202,0.09969 0.130367,0.226226 0.04218,0.126533 0.04218,0.256901 v 1.242326 q 0,0.03834 -0.02684,0.06518 -0.02301,0.02301 -0.06135,0.02301 H 44.10817 q -0.04218,0 -0.06518,-0.02301 -0.02301,-0.02684 -0.02301,-0.06518 v -0.164877 q -0.04985,0.06902 -0.134202,0.138037 -0.08436,0.06518 -0.210889,0.111195 -0.126533,0.04218 -0.310581,0.04218 z m 0.08052,-0.287575 q 0.157208,0 0.287575,-0.06518 0.130368,-0.06902 0.20322,-0.210889 0.07669,-0.14187 0.07669,-0.356593 v -0.107362 l -0.444783,0.06518 q -0.272238,0.03834 -0.410275,0.130367 -0.138036,0.08819 -0.138036,0.226226 0,0.107362 0.06135,0.180214 0.06518,0.06902 0.161042,0.103528 0.09969,0.03451 0.20322,0.03451 z" />
        <path id="path970" style="font-size:3.83434px;stroke-width:0.0206418" d="m 45.744412,23.902683 q -0.260735,0 -0.429446,-0.06902 -0.164876,-0.06902 -0.260735,-0.168711 -0.09202,-0.09586 -0.134202,-0.195552 -0.03834,-0.09586 -0.04218,-0.153373 -0.0038,-0.03834 0.02301,-0.06518 0.03067,-0.02684 0.06518,-0.02684 h 0.184049 q 0.03451,0 0.05752,0.01534 0.02301,0.01534 0.03834,0.06518 0.02301,0.05752 0.06902,0.126533 0.04601,0.07285 0.141871,0.122699 0.09586,0.05368 0.268404,0.05368 0.180214,0 0.302913,-0.04985 0.122698,-0.04601 0.184048,-0.168711 0.06518,-0.118864 0.06518,-0.329753 v -0.260735 q -0.09202,0.118864 -0.241564,0.199385 -0.149539,0.07669 -0.375765,0.07669 -0.214723,0 -0.368097,-0.07285 -0.153373,-0.07669 -0.253066,-0.20322 -0.09586,-0.130368 -0.145705,-0.295245 -0.04601,-0.164876 -0.05368,-0.34509 -0.0038,-0.107362 0,-0.210889 0.0077,-0.180214 0.05368,-0.34509 0.04985,-0.164877 0.145705,-0.295245 0.09969,-0.130367 0.253066,-0.20322 0.153374,-0.07669 0.368097,-0.07669 0.23006,0 0.3796,0.08819 0.153373,0.08436 0.249232,0.207055 v -0.164877 q 0,-0.03834 0.02301,-0.06518 0.02684,-0.02684 0.06518,-0.02684 h 0.176379 q 0.03834,0 0.06518,0.02684 0.02684,0.02684 0.02684,0.06518 v 1.859655 q 0,0.256901 -0.08819,0.456287 -0.08436,0.199385 -0.283742,0.314415 -0.195551,0.115031 -0.529139,0.115031 z m -0.0077,-1.134965 q 0.191717,0 0.306747,-0.08819 0.118864,-0.08819 0.172545,-0.222392 0.05751,-0.134201 0.06135,-0.272238 0.0038,-0.05368 0.0038,-0.130367 0,-0.08052 -0.0038,-0.134202 -0.0038,-0.138036 -0.06135,-0.272238 -0.05368,-0.134202 -0.172545,-0.222392 -0.11503,-0.08819 -0.306747,-0.08819 -0.191717,0 -0.306747,0.08819 -0.115031,0.08435 -0.164877,0.226226 -0.04985,0.138036 -0.05752,0.299079 -0.0038,0.09969 0,0.20322 0.0077,0.161042 0.05752,0.302912 0.04985,0.138037 0.164877,0.226226 0.11503,0.08436 0.306747,0.08436 z" />
        <path id="path972" style="font-size:3.83434px;stroke-width:0.0206418" d="m 48.013025,23.097471 q -0.394937,0 -0.628832,-0.241563 -0.233895,-0.245398 -0.256901,-0.667175 -0.0038,-0.04985 -0.0038,-0.126534 0,-0.08052 0.0038,-0.130367 0.01534,-0.272238 0.126533,-0.475458 0.111196,-0.207055 0.302913,-0.318251 0.195552,-0.111195 0.456287,-0.111195 0.29141,0 0.486961,0.122698 0.199386,0.122699 0.302913,0.348925 0.103527,0.226226 0.103527,0.529139 v 0.06518 q 0,0.04218 -0.02684,0.06518 -0.02301,0.02301 -0.06135,0.02301 h -1.326682 q 0,0.0038 0,0.01534 0,0.0115 0,0.01917 0.0077,0.157208 0.06902,0.295244 0.06135,0.134202 0.176379,0.218558 0.11503,0.08435 0.276073,0.08435 0.138036,0 0.23006,-0.04218 0.09202,-0.04218 0.149539,-0.09202 0.05752,-0.05368 0.07669,-0.08052 0.03451,-0.04985 0.05368,-0.05751 0.01917,-0.0115 0.06135,-0.0115 h 0.184049 q 0.03834,0 0.06135,0.02301 0.02684,0.01917 0.02301,0.05752 -0.0038,0.05751 -0.06135,0.141871 -0.05752,0.08052 -0.164877,0.161042 -0.107361,0.08052 -0.260735,0.134202 -0.153374,0.04985 -0.352759,0.04985 z m -0.521471,-1.180977 h 1.05061 v -0.0115 q 0,-0.172545 -0.06518,-0.306747 -0.06135,-0.134202 -0.180214,-0.210888 -0.118865,-0.08052 -0.283741,-0.08052 -0.164877,0 -0.283741,0.08052 -0.115031,0.07669 -0.17638,0.210888 -0.06135,0.134202 -0.06135,0.306747 z" />
        <path id="path974" style="font-size:3.83434px;stroke-width:0.0206418" d="m 49.456832,23.059128 q -0.03834,0 -0.06518,-0.02301 -0.02301,-0.02684 -0.02301,-0.06518 v -1.813643 q 0,-0.03834 0.02301,-0.06518 0.02684,-0.02684 0.06518,-0.02684 h 0.17638 q 0.03834,0 0.06518,0.02684 0.02684,0.02684 0.02684,0.06518 v 0.168711 q 0.07669,-0.130367 0.210889,-0.195551 0.134202,-0.06518 0.322085,-0.06518 h 0.153373 q 0.03834,0 0.06135,0.02684 0.02301,0.02301 0.02301,0.06135 v 0.157208 q 0,0.03834 -0.02301,0.06135 -0.02301,0.02301 -0.06135,0.02301 h -0.23006 q -0.207055,0 -0.325919,0.122699 -0.118865,0.118865 -0.118865,0.325919 v 1.127296 q 0,0.03834 -0.02684,0.06518 -0.02684,0.02301 -0.06518,0.02301 z" />
      </g>
    </g>
  </g>
</svg>
