<?xml version="1.0" encoding="UTF-8"?>
<svg width="192px" height="64px" viewBox="0 0 192 64" version="1.1" xmlns="http://www.w3.org/2000/svg" xmlns:xlink="http://www.w3.org/1999/xlink">
        <g id="Provider/OracleCIC/opc-64" stroke="none" stroke-width="1" fill="none" fill-rule="evenodd">
        <g id="Group" transform="translate(0.000000, 13.000000)">
            <path d="M8.70555467,33.0319574 L7.0855645,33.0319574 C7.02500412,32.665779 6.82818288,31.2010652 4.72370966,31.2010652 C2.08933312,31.2010652 1.61999017,33.8082557 1.61999017,35.5659121 C1.61999017,37.5579228 2.21045388,39.7110519 4.70856957,39.7110519 C5.37473375,39.7110519 6.01061775,39.5499334 6.47996069,39.081225 C6.87360317,38.6711052 6.96444374,38.2170439 7.00986402,37.9680426 L8.67527448,37.9680426 C8.44817305,40.0479361 6.4648206,40.9121172 4.58744881,40.9121172 C0.741864659,40.9121172 0,37.6311585 0,35.5805593 C0,33.3541944 0.89326561,30.0292943 4.78427005,30.0292943 C6.32855974,30.0292943 8.50873343,30.6298269 8.70555467,33.0319574 Z M10.494642,40.7509987 L10.494642,30.1904128 L11.9178109,30.1904128 L11.9178109,40.7509987 L10.494642,40.7509987 Z M13.97942,37.1624501 C13.97942,35.3462051 14.8575455,33.207723 17.8401442,33.207723 C20.8833033,33.207723 21.5646076,35.5219707 21.5646076,37.0599201 C21.5646076,39.2130493 20.3079797,41 17.7190234,41 C15.2057677,41 13.97942,39.3155792 13.97942,37.1624501 Z M15.4631493,37.0745672 C15.4631493,38.5832224 16.1293135,39.9747004 17.7493036,39.9747004 C18.8242504,39.9747004 20.0505981,39.2276964 20.0505981,37.0159787 C20.0505981,35.1850866 19.1724726,34.2183755 17.8401442,34.2183755 C16.9317385,34.2183755 15.4631493,34.7749667 15.4631493,37.0745672 Z M23.5050959,33.3981358 L24.958545,33.3981358 L24.958545,38.1291611 C24.958545,38.8468708 25.125086,39.7549933 26.5785352,39.7549933 C27.2901196,39.7549933 27.9562838,39.5206391 28.3650664,38.9347537 C28.6830084,38.4953395 28.6830084,37.9241012 28.6830084,37.5579228 L28.6830084,33.3981358 L30.1515976,33.3981358 L30.1515976,39.3741678 C30.1515976,39.5206391 30.1818778,40.3408788 30.1970179,40.7509987 L28.7132886,40.7509987 L28.6830084,39.4913449 C28.4104867,40.0039947 27.8957234,40.8242344 26.2605932,40.8242344 C24.3832214,40.8242344 23.5050959,39.7842876 23.5050959,38.334221 L23.5050959,33.3981358 Z M38.0421432,34.3941411 L38.0421432,30.1904128 L39.4653122,30.1904128 L39.4653122,39.5792277 C39.4653122,39.7403462 39.4955924,40.3701731 39.5258726,40.7509987 L38.1027036,40.7509987 L38.0724234,39.5792277 C37.9513027,39.7842876 37.7847616,40.0918775 37.3911191,40.355526 C36.7703752,40.7656458 36.0285106,40.89747 35.5137474,40.89747 C34.499361,40.89747 32.2434868,40.3848202 32.2434868,37.1624501 C32.2434868,34.3648469 33.8937572,33.1491345 35.6802884,33.1491345 C37.3154187,33.1491345 37.8604621,34.0865513 38.0421432,34.3941411 Z M38.0875635,36.9720373 C38.0875635,35.9027963 37.8301819,35.3169108 37.5122399,34.9214381 C37.209438,34.5406125 36.6492545,34.1744341 35.8468294,34.1744341 C33.7574963,34.1744341 33.7574963,36.620506 33.7574963,37.1185087 C33.7574963,38.4221039 34.1057185,39.930759 35.8468294,39.930759 C38.0875635,39.930759 38.0875635,37.5432756 38.0875635,36.9720373 Z M45.9655252,40.7509987 L45.9655252,30.1757656 L47.4795347,30.1757656 L47.4795347,40.7509987 L45.9655252,40.7509987 Z M50.0861871,40.7509987 L50.0861871,34.2476698 L50.071047,33.3981358 L51.494216,33.3981358 L51.5093561,34.5845539 C51.6758971,34.276964 52.2209405,33.2516644 53.9469114,33.2516644 C54.6282156,33.2516644 56.7024087,33.5006658 56.7024087,35.7563249 L56.7024087,40.7509987 L55.2489595,40.7509987 L55.2489595,36.0785619 C55.2489595,35.5952064 55.1883992,35.1557923 54.840177,34.8189081 C54.4768147,34.482024 53.9771916,34.3209055 53.4927085,34.3209055 C52.463182,34.3209055 51.5093561,35.0386152 51.5093561,36.517976 L51.5093561,40.7509987 L50.0861871,40.7509987 Z M62.957824,30.10253 L62.957824,31.2010652 C62.7155825,31.1864181 62.4127806,31.171771 62.1251188,31.171771 C60.9744716,31.171771 60.9744716,31.7283622 60.9744716,32.241012 L60.9744716,33.3981358 L62.7458627,33.3981358 L62.7458627,34.3941411 L60.9744716,34.3941411 L60.9744716,40.7509987 L59.5664427,40.7509987 L59.5664427,34.3941411 L58.0675733,34.3941411 L58.0675733,33.3981358 L59.5664427,33.3981358 L59.5664427,32.563249 C59.5664427,31.5525965 59.6270031,31.1864181 59.8843847,30.8055925 C60.2023267,30.3368842 60.8079305,30 61.7920367,30 C62.2008193,30 62.6550221,30.0585885 62.957824,30.10253 Z M64.1413076,40.7509987 L64.1413076,34.8921438 C64.1413076,34.3941411 64.1110274,33.8814913 64.0656071,33.3981358 L65.5039161,33.3981358 L65.5341963,34.8189081 C65.806718,33.7936085 66.7151237,33.4567244 67.3510077,33.3688415 C67.7749304,33.310253 68.0928724,33.3249001 68.3351139,33.3395473 L68.3351139,34.6870839 C68.2594134,34.6577896 68.1685728,34.6431425 68.0625922,34.6284953 C67.9566115,34.6138482 67.8203507,34.6138482 67.6538096,34.6138482 C65.9732591,34.6138482 65.5796166,35.5805593 65.5796166,36.840213 L65.5796166,40.7509987 L64.1413076,40.7509987 Z M75.7411765,40.7509987 L74.4542684,40.7509987 C74.3482877,40.3848202 74.3180075,40.0332889 74.3180075,39.6524634 C73.6367033,40.8681758 72.6071768,40.9853529 71.9712928,40.9853529 C70.2301819,40.9853529 69.291496,40.0332889 69.291496,38.8175766 C69.291496,38.2316911 69.5034573,37.2942743 70.6238243,36.6644474 C71.4413895,36.2250333 72.6525971,36.1810919 73.2582009,36.1810919 C73.6215632,36.1810919 73.8486646,36.195739 74.2877274,36.2250333 C74.2877274,35.3169108 74.2877274,34.9214381 74.0152056,34.5992011 C73.7275438,34.2330226 73.1067999,34.1158455 72.6980174,34.1158455 C71.2597083,34.1158455 71.1840079,35.0679095 71.1688678,35.3608522 L69.7456988,35.3608522 C69.7911191,34.9800266 69.8365394,34.4673768 70.2756022,33.9693742 C70.8509258,33.3541944 71.9258725,33.1784288 72.7282976,33.1784288 C73.8335245,33.1784288 75.0144519,33.5153129 75.4232345,34.2623169 C75.665476,34.701731 75.6806161,35.0532623 75.6806161,35.3901465 L75.6200557,38.9054594 C75.6200557,39.0226365 75.6351958,40.0039947 75.7411765,40.7509987 Z M74.2877274,37.1770972 C74.0303457,37.1478029 73.8183844,37.1331558 73.4701622,37.1331558 C72.8948386,37.1331558 70.729805,37.1331558 70.729805,38.6271638 C70.729805,39.0958722 71.0326069,39.9014647 72.3043749,39.9014647 C73.0310995,39.9014647 73.5761429,39.6231691 73.9243651,39.1105193 C74.2423071,38.6125166 74.2574472,38.2023968 74.2877274,37.1770972 Z M77.4242831,38.5685752 L78.9231525,38.5685752 C78.9080125,39.1251664 79.2108144,39.9014647 80.588563,39.9014647 C81.1790267,39.9014647 81.6180895,39.7989348 81.9208914,39.4327563 C82.0722923,39.2423435 82.1631329,38.9933422 82.1631329,38.7443409 C82.1631329,38.0266312 81.6332296,37.8948069 80.4977224,37.6458056 C78.9080125,37.2942743 77.5756841,36.9866844 77.5756841,35.448735 C77.5756841,34.1011984 78.7868917,33.2223702 80.5431427,33.2223702 C81.4969687,33.2223702 82.8292971,33.4860186 83.2834999,34.3648469 C83.4803212,34.7749667 83.4803212,35.126498 83.4803212,35.4340879 L82.026872,35.4340879 C82.0722923,34.3209055 81.0730461,34.2330226 80.5582828,34.2330226 C80.3463215,34.2330226 79.0139931,34.2330226 79.0139931,35.2876165 C79.0139931,35.9613848 79.6952974,36.1225033 80.0889399,36.2250333 C82.1934131,36.7083888 82.6476159,36.8255659 83.1018188,37.2356858 C83.5257415,37.6165113 83.6771424,38.1291611 83.6771424,38.5978695 C83.6771424,39.4181092 83.2077995,40.1211718 82.6476159,40.4580559 C81.9814518,40.8535286 81.1790267,40.9560586 80.3917418,40.9560586 C78.8474521,40.9560586 77.409143,40.3408788 77.4242831,38.5685752 Z M84.3761429,34.379494 L84.3761429,33.3688415 L85.7236113,33.3688415 L85.7236113,31.8308921 L87.1316402,31.391478 L87.1316402,33.3688415 L88.8273308,33.3688415 L88.8273308,34.379494 L87.1316402,34.379494 L87.1316402,38.7882823 C87.1316402,39.1544607 87.1316402,39.7696405 88.1460266,39.7696405 C88.4336884,39.7696405 88.7062101,39.7256991 88.8273308,39.6964048 L88.8273308,40.7656458 C88.5699492,40.8095872 88.1611666,40.8535286 87.6464034,40.8535286 C86.3443552,40.8535286 85.7236113,40.4873502 85.7236113,39.286285 L85.7236113,34.379494 L84.3761429,34.379494 Z M90.5255776,40.7509987 L90.5255776,34.8921438 C90.5255776,34.3941411 90.4952974,33.8814913 90.4498771,33.3981358 L91.8881861,33.3981358 L91.9184663,34.8189081 C92.190988,33.7936085 93.0993937,33.4567244 93.7352777,33.3688415 C94.1592004,33.310253 94.4771424,33.3249001 94.7193839,33.3395473 L94.7193839,34.6870839 C94.6436834,34.6577896 94.5528429,34.6431425 94.4468622,34.6284953 C94.3408815,34.6138482 94.2046207,34.6138482 94.0380796,34.6138482 C92.3575291,34.6138482 91.9638866,35.5805593 91.9638866,36.840213 L91.9638866,40.7509987 L90.5255776,40.7509987 Z M96.0542684,33.3981358 L97.5077175,33.3981358 L97.5077175,38.1291611 C97.5077175,38.8468708 97.6742586,39.7549933 99.1277077,39.7549933 C99.8392922,39.7549933 100.505456,39.5206391 100.914239,38.9347537 C101.232181,38.4953395 101.232181,37.9241012 101.232181,37.5579228 L101.232181,33.3981358 L102.70077,33.3981358 L102.70077,39.3741678 C102.70077,39.5206391 102.73105,40.3408788 102.74619,40.7509987 L101.262461,40.7509987 L101.232181,39.4913449 C100.959659,40.0039947 100.444896,40.8242344 98.8097657,40.8242344 C96.9323939,40.8242344 96.0542684,39.7842876 96.0542684,38.334221 L96.0542684,33.3981358 Z M111.090939,35.7563249 L109.65263,35.7563249 C109.62235,35.4194407 109.516369,34.2183755 108.13862,34.2183755 C106.170408,34.2183755 106.170408,36.4300932 106.170408,36.9866844 C106.170408,38.4953395 106.54891,39.9014647 108.06292,39.9014647 C109.274127,39.9014647 109.68291,39.0226365 109.71319,38.3049268 L111.151499,38.3049268 C111.060659,39.7403462 109.955432,40.9414115 108.07806,40.9414115 C107.563297,40.9414115 106.382369,40.8388815 105.579944,39.9893475 C105.125741,39.4766977 104.671539,38.7003995 104.671539,37.1770972 C104.671539,34.1158455 106.609471,33.207723 108.12348,33.207723 C108.623103,33.207723 109.758611,33.310253 110.455055,34.1158455 C111.015238,34.7456724 111.060659,35.3462051 111.090939,35.7563249 Z M111.593118,34.379494 L111.593118,33.3688415 L112.940587,33.3688415 L112.940587,31.8308921 L114.348615,31.391478 L114.348615,33.3688415 L116.044306,33.3688415 L116.044306,34.379494 L114.348615,34.379494 L114.348615,38.7882823 C114.348615,39.1544607 114.348615,39.7696405 115.363002,39.7696405 C115.650664,39.7696405 115.923185,39.7256991 116.044306,39.6964048 L116.044306,40.7656458 C115.786924,40.8095872 115.378142,40.8535286 114.863379,40.8535286 C113.56133,40.8535286 112.940587,40.4873502 112.940587,39.286285 L112.940587,34.379494 L111.593118,34.379494 Z M117.515451,33.3981358 L118.968901,33.3981358 L118.968901,38.1291611 C118.968901,38.8468708 119.135442,39.7549933 120.588891,39.7549933 C121.300475,39.7549933 121.966639,39.5206391 122.375422,38.9347537 C122.693364,38.4953395 122.693364,37.9241012 122.693364,37.5579228 L122.693364,33.3981358 L124.161953,33.3981358 L124.161953,39.3741678 C124.161953,39.5206391 124.192233,40.3408788 124.207373,40.7509987 L122.723644,40.7509987 L122.693364,39.4913449 C122.420842,40.0039947 121.906079,40.8242344 120.270949,40.8242344 C118.393577,40.8242344 117.515451,39.7842876 117.515451,38.334221 L117.515451,33.3981358 Z M126.859446,40.7509987 L126.859446,34.8921438 C126.859446,34.3941411 126.829166,33.8814913 126.783746,33.3981358 L128.222055,33.3981358 L128.252335,34.8189081 C128.524857,33.7936085 129.433262,33.4567244 130.069146,33.3688415 C130.493069,33.310253 130.811011,33.3249001 131.053253,33.3395473 L131.053253,34.6870839 C130.977552,34.6577896 130.886711,34.6431425 130.780731,34.6284953 C130.67475,34.6138482 130.538489,34.6138482 130.371948,34.6138482 C128.691398,34.6138482 128.297755,35.5805593 128.297755,36.840213 L128.297755,40.7509987 L126.859446,40.7509987 Z M138.868098,37.3235686 L133.402523,37.3235686 C133.372243,38.8468708 134.023267,39.9747004 135.582697,39.9747004 C136.506243,39.9747004 137.248107,39.505992 137.369228,38.4513981 L138.792397,38.4513981 C138.746977,38.8175766 138.686417,39.4181092 138.141373,39.9893475 C137.808291,40.355526 137.051286,40.9707057 135.522137,40.9707057 C133.130002,40.9707057 131.994495,39.5352863 131.994495,37.2063915 C131.994495,35.7563249 132.297296,34.5552597 133.493364,33.7496671 C134.220088,33.2516644 135.128494,33.207723 135.567557,33.207723 C138.974078,33.207723 138.898378,36.1225033 138.868098,37.3235686 Z M133.463084,36.3568575 L137.414649,36.3568575 C137.429789,35.6537949 137.293528,34.1890812 135.537277,34.1890812 C134.613731,34.1890812 133.493364,34.7310253 133.463084,36.3568575 Z M153.104899,33.0319574 L151.484909,33.0319574 C151.424349,32.665779 151.227527,31.2010652 149.123054,31.2010652 C146.488678,31.2010652 146.019335,33.8082557 146.019335,35.5659121 C146.019335,37.5579228 146.609798,39.7110519 149.107914,39.7110519 C149.774078,39.7110519 150.409962,39.5499334 150.879305,39.081225 C151.272948,38.6711052 151.363788,38.2170439 151.409209,37.9680426 L153.074619,37.9680426 C152.847518,40.0479361 150.864165,40.9121172 148.986793,40.9121172 C145.141209,40.9121172 144.399345,37.6311585 144.399345,35.5805593 C144.399345,33.3541944 145.29261,30.0292943 149.183615,30.0292943 C150.727904,30.0292943 152.908078,30.6298269 153.104899,33.0319574 Z M154.893987,40.7509987 L154.893987,30.1904128 L156.317155,30.1904128 L156.317155,40.7509987 L154.893987,40.7509987 Z M164.858725,40.7509987 L163.571817,40.7509987 C163.465836,40.3848202 163.435556,40.0332889 163.435556,39.6524634 C162.754252,40.8681758 161.724726,40.9853529 161.088842,40.9853529 C159.347731,40.9853529 158.409045,40.0332889 158.409045,38.8175766 C158.409045,38.2316911 158.621006,37.2942743 159.741373,36.6644474 C160.558938,36.2250333 161.770146,36.1810919 162.37575,36.1810919 C162.739112,36.1810919 162.966213,36.195739 163.405276,36.2250333 C163.405276,35.3169108 163.405276,34.9214381 163.132754,34.5992011 C162.845093,34.2330226 162.224349,34.1158455 161.815566,34.1158455 C160.377257,34.1158455 160.301557,35.0679095 160.286417,35.3608522 L158.863248,35.3608522 C158.908668,34.9800266 158.954088,34.4673768 159.393151,33.9693742 C159.968475,33.3541944 161.043421,33.1784288 161.845846,33.1784288 C162.951073,33.1784288 164.132001,33.5153129 164.540783,34.2623169 C164.783025,34.701731 164.798165,35.0532623 164.798165,35.3901465 L164.737604,38.9054594 C164.737604,39.0226365 164.752745,40.0039947 164.858725,40.7509987 Z M163.405276,37.1770972 C163.147894,37.1478029 162.935933,37.1331558 162.587711,37.1331558 C162.012387,37.1331558 159.847354,37.1331558 159.847354,38.6271638 C159.847354,39.0958722 160.150156,39.9014647 161.421924,39.9014647 C162.148648,39.9014647 162.693692,39.6231691 163.041914,39.1105193 C163.359856,38.6125166 163.374996,38.2023968 163.405276,37.1770972 Z M166.541832,38.5685752 L168.040701,38.5685752 C168.025561,39.1251664 168.328363,39.9014647 169.706112,39.9014647 C170.296575,39.9014647 170.735638,39.7989348 171.03844,39.4327563 C171.189841,39.2423435 171.280682,38.9933422 171.280682,38.7443409 C171.280682,38.0266312 170.750778,37.8948069 169.615271,37.6458056 C168.025561,37.2942743 166.693233,36.9866844 166.693233,35.448735 C166.693233,34.1011984 167.90444,33.2223702 169.660691,33.2223702 C170.614517,33.2223702 171.946846,33.4860186 172.401049,34.3648469 C172.59787,34.7749667 172.59787,35.126498 172.59787,35.4340879 L171.144421,35.4340879 C171.189841,34.3209055 170.190595,34.2330226 169.675832,34.2330226 C169.46387,34.2330226 168.131542,34.2330226 168.131542,35.2876165 C168.131542,35.9613848 168.812846,36.1225033 169.206489,36.2250333 C171.310962,36.7083888 171.765165,36.8255659 172.219368,37.2356858 C172.64329,37.6165113 172.794691,38.1291611 172.794691,38.5978695 C172.794691,39.4181092 172.325348,40.1211718 171.765165,40.4580559 C171.099,40.8535286 170.296575,40.9560586 169.509291,40.9560586 C167.965001,40.9560586 166.526692,40.3408788 166.541832,38.5685752 Z M173.978175,38.5685752 L175.477044,38.5685752 C175.461904,39.1251664 175.764706,39.9014647 177.142455,39.9014647 C177.732918,39.9014647 178.171981,39.7989348 178.474783,39.4327563 C178.626184,39.2423435 178.717024,38.9933422 178.717024,38.7443409 C178.717024,38.0266312 178.187121,37.8948069 177.051614,37.6458056 C175.461904,37.2942743 174.129576,36.9866844 174.129576,35.448735 C174.129576,34.1011984 175.340783,33.2223702 177.097034,33.2223702 C178.05086,33.2223702 179.383189,33.4860186 179.837391,34.3648469 C180.034213,34.7749667 180.034213,35.126498 180.034213,35.4340879 L178.580764,35.4340879 C178.626184,34.3209055 177.626938,34.2330226 177.112174,34.2330226 C176.900213,34.2330226 175.567885,34.2330226 175.567885,35.2876165 C175.567885,35.9613848 176.249189,36.1225033 176.642831,36.2250333 C178.747305,36.7083888 179.201507,36.8255659 179.65571,37.2356858 C180.079633,37.6165113 180.231034,38.1291611 180.231034,38.5978695 C180.231034,39.4181092 179.761691,40.1211718 179.201507,40.4580559 C178.535343,40.8535286 177.732918,40.9560586 176.945633,40.9560586 C175.401344,40.9560586 173.963035,40.3408788 173.978175,38.5685752 Z M181.959561,31.713715 L181.959561,30.2050599 L183.670392,30.2050599 L183.670392,31.713715 L181.959561,31.713715 Z M182.110962,40.7509987 L182.110962,33.3981358 L183.534131,33.3981358 L183.534131,40.7509987 L182.110962,40.7509987 Z M191.93944,35.7563249 L190.501131,35.7563249 C190.47085,35.4194407 190.36487,34.2183755 188.987121,34.2183755 C187.018909,34.2183755 187.018909,36.4300932 187.018909,36.9866844 C187.018909,38.4953395 187.397411,39.9014647 188.911421,39.9014647 C190.122628,39.9014647 190.531411,39.0226365 190.561691,38.3049268 L192,38.3049268 C191.909159,39.7403462 190.803932,40.9414115 188.926561,40.9414115 C188.411797,40.9414115 187.23087,40.8388815 186.428445,39.9893475 C185.974242,39.4766977 185.520039,38.7003995 185.520039,37.1770972 C185.520039,34.1158455 187.457971,33.207723 188.971981,33.207723 C189.471604,33.207723 190.607111,33.310253 191.303556,34.1158455 C191.863739,34.7456724 191.909159,35.3462051 191.93944,35.7563249 Z" id="Cloud-Infrastructure" fill="#000000"></path>
            <path d="M126.022105,14.8552972 C123.391077,14.8552972 121.158469,13.0909091 120.475811,10.6576335 L135.123405,10.6576335 L137.142631,7.51293074 L120.475811,7.51293074 C121.158469,5.09424025 123.391077,3.3156722 126.022105,3.3156722 L136.075725,3.3156722 L138.109528,0.170564271 L125.794552,0.170564271 C120.873826,0.170564271 116.878291,4.16930383 116.878291,9.09257467 C116.878291,14.0158455 120.873826,18 125.794552,18 L136.360368,18 L138.38,14.8552972 L126.022105,14.8552972 L126.022105,14.8552972 Z M84.1135318,18 C79.193615,18 75.1976756,14.0158455 75.1976756,9.09257467 C75.1976756,4.16930383 79.193615,0.170564271 84.1135318,0.170564271 L96.4147411,0.170564271 L94.4096857,3.3156722 L84.3414894,3.3156722 C81.1557512,3.3156722 78.5676425,5.9053321 78.5676425,9.09257467 C78.5676425,12.2798172 81.1557512,14.8552972 84.3414894,14.8552972 L96.6989795,14.8552972 L94.6797527,18 L84.1135318,18 Z M19.0370941,14.8552972 C22.2244519,14.8552972 24.8052725,12.2798172 24.8052725,9.09257467 C24.8052725,5.9053321 22.2244519,3.3156722 19.0370941,3.3156722 L9.13976487,3.3156722 C5.9544315,3.3156722 3.3715865,5.9053321 3.3715865,9.09257467 C3.3715865,12.2798172 5.9544315,14.8552972 9.13976487,14.8552972 L19.0370941,14.8552972 Z M8.91099744,18 C3.99189039,18 1.42108547e-14,14.0158455 1.42108547e-14,9.09257467 C1.42108547e-14,4.16930383 3.99189039,0.170564271 8.91099744,0.170564271 L19.267886,0.170564271 C24.1878028,0.170564271 28.176859,4.16930383 28.176859,9.09257467 C28.176859,14.0158455 24.1878028,18 19.267886,18 L8.91099744,18 Z M44.992682,12.2226924 C48.3205396,12.2226924 51.0224246,9.53377299 51.0224246,6.20392086 C51.0224246,2.87447388 48.3205396,0.170564271 44.992682,0.170564271 L30.0001151,0.170564271 L30.0001151,18 L33.425958,18 L33.425958,3.3156722 L44.7651293,3.3156722 C46.3579984,3.3156722 47.6378814,4.61009701 47.6378814,6.20392086 C47.6378814,7.79774472 46.3579984,9.09257467 44.7651293,9.09257467 L35.1038557,9.07839474 L45.3340111,18 L50.3114235,18 L43.4285607,12.2226924 L44.992682,12.2226924 Z M101.690563,14.8552972 L101.690563,0.170564271 L98.2631009,0.170564271 L98.2631009,16.2923316 C98.2631009,16.7335299 98.4339679,17.1605483 98.7611256,17.487902 C99.0878783,17.8148507 99.5288124,18 100.012666,18 L115.640923,18 L117.660554,14.8552972 L101.690563,14.8552972 Z M59.7394758,11.7105944 L68.8832897,11.7105944 L64.0484014,3.92743478 L55.1746546,18 L51.136201,18 L61.9295697,1.09590583 C62.3988466,0.412838461 63.1811097,0 64.0484014,0 C64.8877552,0 65.6696134,0.398253393 66.124314,1.06714083 L76.9606019,18 L72.9221483,18 L71.0162929,14.8552972 L61.7587027,14.8552972 L59.7394758,11.7105944 Z M140.223439,3.68428017 C139.209304,3.68428017 138.38,2.86112903 138.38,1.8419541 C138.38,0.823151136 139.209304,0 140.223439,0 C141.250696,0 142.08,0.823151136 142.08,1.8419541 C142.08,2.86112903 141.250696,3.68428017 140.223439,3.68428017 Z M140.052105,0.744667228 C140.341911,0.744667228 140.460383,0.757685886 140.592352,0.810132478 C140.96089,0.927672361 141.00063,1.25425469 141.00063,1.38481323 C141.00063,1.41085055 141.00063,1.4763158 140.974012,1.55442774 C140.96089,1.63291165 140.908027,1.78987947 140.723571,1.90741935 C140.697702,1.92043801 140.68458,1.93345667 140.631717,1.95949398 L141.10598,2.8090544 L140.644839,2.8090544 L140.223439,2.02495923 L139.934007,2.02495923 L139.934007,2.8090544 L139.525729,2.8090544 L139.525729,0.744667228 L140.052105,0.744667228 Z M140.197195,1.68535825 C140.328789,1.67233959 140.460383,1.67233959 140.539489,1.55442774 C140.57923,1.50235311 140.592352,1.45027848 140.592352,1.37179457 C140.592352,1.26727335 140.526367,1.17577078 140.434139,1.12369615 C140.341911,1.08426822 140.250058,1.08426822 140.052105,1.08426822 L139.934007,1.08426822 L139.934007,1.68535825 L140.197195,1.68535825 Z M138.775157,1.82893544 C138.775157,2.63906792 139.420379,3.27921393 140.223439,3.27921393 C141.039996,3.27921393 141.685218,2.63906792 141.685218,1.82893544 C141.685218,1.03219358 141.039996,0.392047581 140.223439,0.392047581 C139.420379,0.392047581 138.775157,1.03219358 138.775157,1.82893544 Z" id="ORACLE" fill="#EC1D24"></path>
        </g>
    </g>
</svg>