<?xml version="1.0" encoding="UTF-8" standalone="no"?>
<svg    xmlns:dc="http://purl.org/dc/elements/1.1/"
   xmlns:cc="http://creativecommons.org/ns#"
   xmlns:rdf="http://www.w3.org/1999/02/22-rdf-syntax-ns#"
   xmlns:svg="http://www.w3.org/2000/svg"
   xmlns="http://www.w3.org/2000/svg"
   id="svg2879"
   version="1.1"
   viewBox="0 0 27.781249 11.1125"
   height="42"
   width="105">
  <g
     id="layer1">
    <g
       transform="scale(0.26458333)"
       id="Provider/OracleCIC/ocic-42"
       stroke="none"
       stroke-width="1"
       fill="none"
       fill-rule="evenodd">
      <path
         d="m 93.13289,19.728826 c -1.944383,0 -3.594325,-1.274281 -4.098824,-3.031646 h 10.824869 l 1.492255,-2.271174 H 89.034066 c 0.504499,-1.746833 2.154441,-3.031354 4.098824,-3.031354 h 7.42983 l 1.50302,-2.2714667 h -9.101016 c -3.636517,0 -6.589298,2.8879787 -6.589298,6.4436747 0,3.555695 2.952781,6.43314 6.589298,6.43314 h 7.808356 l 1.49255,-2.271174 z M 62.161605,22 c -3.635918,0 -6.588999,-2.877445 -6.588999,-6.43314 0,-3.555696 2.953081,-6.4436747 6.588999,-6.4436747 h 9.090843 L 69.770671,11.394652 H 62.33007 c -2.354325,0 -4.26699,1.87031 -4.26699,4.172208 0,2.301897 1.912665,4.161966 4.26699,4.161966 h 9.132436 L 69.970256,22 Z M 14.068798,19.728826 c 2.355522,0 4.262801,-1.860069 4.262801,-4.161966 0,-2.301898 -1.907279,-4.172208 -4.262801,-4.172208 H 6.7544715 c -2.3540259,0 -4.2628007,1.87031 -4.2628007,4.172208 0,2.301897 1.9087748,4.161966 4.2628007,4.161966 z M 6.5854077,22 C 2.9500879,22 0,19.122555 0,15.56686 0,12.011164 2.9500879,9.1231853 6.5854077,9.1231853 h 7.6539503 c 3.635919,0 6.583912,2.8879787 6.583912,6.4436747 C 20.82327,19.122555 17.875277,22 14.239358,22 Z M 33.250504,17.8275 c 2.459354,0 4.456102,-1.941997 4.456102,-4.34689 0,-2.404601 -1.996748,-4.3574247 -4.456102,-4.3574247 H 22.170693 V 22 H 24.70246 V 11.394652 h 8.379878 c 1.177163,0 2.123022,0.934863 2.123022,2.085958 0,1.151095 -0.945859,2.08625 -2.123022,2.08625 L 25.942461,15.556618 33.502753,22 h 3.678409 l -5.086575,-4.1725 z m 41.900884,1.901326 V 9.1231853 H 72.618423 V 20.766684 c 0,0.318643 0.126275,0.627045 0.368051,0.863467 C 73.227951,21.866281 73.55381,22 73.911387,22 h 11.549599 l 1.492549,-2.271174 z M 44.148684,17.457651 h 6.757463 L 47.333067,11.836481 40.775188,22 H 37.790689 L 45.767207,9.7914875 C 46.114012,9.2981611 46.692121,9 47.333067,9 c 0.620299,0 1.198109,0.2876275 1.534141,0.7707128 L 56.875445,22 H 53.890946 L 52.48248,19.728826 h -6.841547 z m 59.479276,-5.796782 c -0.74946,0 -1.36233,-0.594498 -1.36233,-1.330569 C 102.26563,9.594498 102.8785,9 103.62796,9 104.38713,9 105,9.594498 105,10.3303 c 0,0.736071 -0.61287,1.330569 -1.37204,1.330569 z m -0.12662,-2.1230538 c 0.21418,0 0.30173,0.0094 0.39926,0.04728 0.27236,0.08489 0.30172,0.3207549 0.30172,0.4150468 0,0.01881 0,0.06609 -0.0197,0.122499 -0.01,0.05668 -0.0488,0.170049 -0.18508,0.254939 -0.0191,0.0094 -0.0288,0.0188 -0.0679,0.03761 l 0.35049,0.613572 h -0.34079 l -0.31143,-0.566291 h -0.21389 v 0.566291 h -0.30173 V 9.5378152 Z m 0.10723,0.6793878 c 0.0973,-0.0094 0.1945,-0.0094 0.25296,-0.09456 0.0294,-0.03761 0.0391,-0.07522 0.0391,-0.1319015 0,-0.075487 -0.0488,-0.1415727 -0.11692,-0.1791822 -0.0682,-0.028476 -0.13604,-0.028476 -0.28234,-0.028476 h -0.0873 v 0.4341207 z m -1.05092,0.103695 c 0,0.585095 0.47684,1.047423 1.07031,1.047423 0.60346,0 1.08029,-0.462328 1.08029,-1.047423 0,-0.5754249 -0.47683,-1.0377525 -1.08029,-1.0377525 -0.59347,0 -1.07031,0.4623276 -1.07031,1.0377525 z"
         id="Combined-Shape-Copy"
         fill="#616870" />
    </g>
  </g>
  <g
     style="font-size:2.06634px;line-height:1.05;font-family:Rubik;-inkscape-font-specification:'Rubik, Normal';fill:#616870;fill-opacity:1;stroke-width:0.0516583"
     id="text3450"
     aria-label="Private Cloud Appliance X9-2">
    <path
       id="path3452"
       style="fill:#616870;fill-opacity:1;stroke-width:0.0516583"
       d="m 0.04752582,8.8137646 q -0.02272974,0 -0.03512778,-0.012398 Q 0,8.7869022 0,8.7662388 v -1.34932 Q 0,7.394189 0.01239804,7.381791 0.02479608,7.3673266 0.04752582,7.3673266 h 0.52485036 q 0.15290915,0 0.26449151,0.049592 0.1136487,0.049592 0.17563891,0.1487764 0.06199,0.097118 0.06199,0.2438281 0,0.1467102 -0.06199,0.2438282 -0.0619902,0.097118 -0.17563891,0.1467101 -0.11158236,0.049592 -0.26449151,0.049592 H 0.206634 v 0.516585 q 0,0.020663 -0.0144644,0.035128 -0.012398,0.012398 -0.0351278,0.012398 z M 0.20456766,8.0760812 h 0.35747682 q 0.15290915,0 0.22936373,-0.068189 0.0764546,-0.068189 0.0764546,-0.1983687 0,-0.128113 -0.0743882,-0.1983686 -0.0743882,-0.070256 -0.23143007,-0.070256 H 0.20456766 Z" />
    <path
       id="path3454"
       style="fill:#616870;fill-opacity:1;stroke-width:0.0516583"
       d="m 1.3484483,8.8137646 q -0.020663,0 -0.035128,-0.012398 -0.012398,-0.014464 -0.012398,-0.035128 V 7.7888599 q 0,-0.020663 0.012398,-0.035128 0.014464,-0.014464 0.035128,-0.014464 h 0.095052 q 0.020663,0 0.035128,0.014464 0.014464,0.014464 0.014464,0.035128 v 0.090919 Q 1.5344193,7.8095229 1.606741,7.7743956 1.679063,7.7392676 1.7803136,7.7392676 h 0.082654 q 0.020663,0 0.033061,0.014464 0.012398,0.012398 0.012398,0.033061 v 0.08472 q 0,0.020663 -0.012398,0.033062 -0.012398,0.012398 -0.033061,0.012398 h -0.123981 q -0.1115824,0 -0.1756389,0.066123 -0.064057,0.064056 -0.064057,0.1756389 v 0.607504 q 0,0.020663 -0.014464,0.035128 -0.014464,0.012398 -0.035128,0.012398 z" />
    <path
       id="path3456"
       style="fill:#616870;fill-opacity:1;stroke-width:0.0516583"
       d="m 2.1354333,8.8137646 q -0.020663,0 -0.035128,-0.012398 -0.012398,-0.014464 -0.012398,-0.035128 v -0.979445 q 0,-0.020663 0.012398,-0.033061 0.014464,-0.014464 0.035128,-0.014464 h 0.099184 q 0.020663,0 0.033061,0.014464 0.012398,0.012398 0.012398,0.033061 v 0.9794452 q 0,0.020663 -0.012398,0.035128 -0.012398,0.012398 -0.033061,0.012398 z M 2.1189026,7.5388328 q -0.020663,0 -0.035128,-0.012398 -0.012398,-0.014464 -0.012398,-0.035128 V 7.3797246 q 0,-0.020663 0.012398,-0.033061 0.014464,-0.014464 0.035128,-0.014464 H 2.249082 q 0.020663,0 0.033062,0.014464 0.014464,0.012398 0.014464,0.033061 V 7.491307 q 0,0.020663 -0.014464,0.035128 -0.012398,0.012398 -0.033062,0.012398 z" />
    <path
       id="path3458"
       style="fill:#616870;fill-opacity:1;stroke-width:0.0516583"
       d="m 2.9623566,8.8137646 q -0.030995,0 -0.049592,-0.014464 -0.016531,-0.014464 -0.026862,-0.037194 L 2.5036291,7.8033243 q -0.00413,-0.010332 -0.00413,-0.020663 0,-0.018597 0.012398,-0.030995 0.012398,-0.012398 0.030995,-0.012398 h 0.099184 q 0.02273,0 0.035128,0.012398 0.012398,0.012398 0.014464,0.02273 l 0.31615,0.8141379 0.3140837,-0.8141379 q 0.00413,-0.010332 0.014464,-0.02273 0.012398,-0.012398 0.035128,-0.012398 h 0.1012507 q 0.016531,0 0.028929,0.012398 0.014464,0.012398 0.014464,0.030995 0,0.010332 -0.00413,0.020663 L 3.1276638,8.7621061 q -0.00827,0.02273 -0.026862,0.037194 -0.016531,0.014464 -0.049592,0.014464 z" />
    <path
       id="path3460"
       style="fill:#616870;fill-opacity:1;stroke-width:0.0516583"
       d="m 3.9937831,8.834428 q -0.103317,0 -0.188037,-0.041327 -0.08472,-0.041327 -0.1363784,-0.1115824 -0.051658,-0.070256 -0.051658,-0.1591082 0,-0.1425774 0.115715,-0.2272974 0.1157151,-0.08472 0.3016857,-0.1115823 L 4.342995,8.1401377 v -0.059924 q 0,-0.099184 -0.057857,-0.1549755 -0.055791,-0.055791 -0.1839043,-0.055791 -0.092985,0 -0.1508428,0.037194 -0.055791,0.037194 -0.078521,0.095052 -0.012398,0.030995 -0.043393,0.030995 h -0.092985 q -0.02273,0 -0.035128,-0.012398 -0.010332,-0.014464 -0.010332,-0.033061 0,-0.030995 0.02273,-0.076455 0.024796,-0.045459 0.074388,-0.088853 0.049592,-0.043393 0.1260467,-0.072322 0.078521,-0.030995 0.1901033,-0.030995 0.1239804,0 0.2087003,0.033061 0.08472,0.030995 0.1322458,0.08472 0.049592,0.053725 0.070256,0.121914 0.02273,0.068189 0.02273,0.1384448 v 0.6694942 q 0,0.020663 -0.014464,0.035128 -0.012398,0.012398 -0.033061,0.012398 H 4.394653 q -0.02273,0 -0.035128,-0.012398 -0.012398,-0.014464 -0.012398,-0.035128 v -0.088853 q -0.026862,0.037194 -0.072322,0.074388 -0.045459,0.035128 -0.1136487,0.059924 -0.068189,0.02273 -0.1673732,0.022731 z m 0.043393,-0.1549755 q 0.08472,0 0.1549755,-0.035128 0.070256,-0.037194 0.109516,-0.1136487 0.041327,-0.076455 0.041327,-0.1921696 v -0.057858 l -0.2396954,0.035128 q -0.1467102,0.020663 -0.2210984,0.070256 -0.074388,0.047526 -0.074388,0.1219141 0,0.057857 0.033061,0.097118 0.035128,0.037194 0.086786,0.055791 0.053725,0.018597 0.1095163,0.018597 z" />
    <path
       id="path3462"
       style="fill:#616870;fill-opacity:1;stroke-width:0.0516583"
       d="m 5.2436607,8.8137646 q -0.115715,0 -0.1880369,-0.043393 Q 4.9833019,8.724912 4.9502404,8.6443247 4.917179,8.5616711 4.917179,8.4500887 V 7.904575 H 4.7560045 q -0.020663,0 -0.035128,-0.012398 Q 4.7084785,7.877713 4.7084785,7.857049 V 7.786793 q 0,-0.020663 0.012398,-0.033061 0.014464,-0.014464 0.035128,-0.014464 H 4.917179 V 7.394189 q 0,-0.020663 0.012398,-0.033061 0.014464,-0.014464 0.035128,-0.014464 h 0.097118 q 0.020663,0 0.033061,0.014464 0.014464,0.012398 0.014464,0.033061 v 0.3450788 h 0.2562262 q 0.020663,0 0.033061,0.014464 0.014464,0.012398 0.014464,0.033061 v 0.070256 q 0,0.020663 -0.014464,0.035128 -0.012398,0.012398 -0.033061,0.012398 H 5.1093486 v 0.5310494 q 0,0.097118 0.033061,0.1529091 0.033061,0.055791 0.1177814,0.055791 h 0.1260468 q 0.020663,0 0.033061,0.014464 0.014464,0.012398 0.014464,0.033061 v 0.074388 q 0,0.020663 -0.014464,0.035128 -0.012398,0.012398 -0.033061,0.012398 z" />
    <path
       id="path3464"
       style="fill:#616870;fill-opacity:1;stroke-width:0.0516583"
       d="m 6.0590898,8.834428 q -0.212833,0 -0.3388798,-0.1301794 -0.1260467,-0.1322458 -0.1384448,-0.3595432 -0.00207,-0.026862 -0.00207,-0.068189 0,-0.043393 0.00207,-0.070256 0.00827,-0.1467101 0.068189,-0.2562261 Q 5.7098782,7.8384519 5.813195,7.778528 5.9185784,7.718604 6.0590895,7.718604 q 0.1570418,0 0.2624251,0.066123 0.1074497,0.066123 0.1632409,0.1880369 0.055791,0.1219141 0.055791,0.2851549 v 0.035128 q 0,0.02273 -0.014464,0.035128 -0.012398,0.012398 -0.033061,0.012398 h -0.714954 q 0,0.00207 0,0.00827 0,0.0062 0,0.010332 0.00413,0.08472 0.037194,0.1591082 0.033061,0.072322 0.095052,0.1177813 0.06199,0.045459 0.1487765,0.045459 0.074388,0 0.1239804,-0.02273 0.049592,-0.02273 0.080587,-0.049592 0.030995,-0.028929 0.041327,-0.043393 0.018597,-0.026862 0.028929,-0.030995 0.010332,-0.0062 0.033061,-0.0062 h 0.099184 q 0.020663,0 0.033061,0.012398 0.014464,0.010332 0.012398,0.030995 -0.00207,0.030995 -0.033061,0.076455 -0.030995,0.043393 -0.088853,0.086786 -0.057858,0.043393 -0.1405111,0.072322 -0.082654,0.026862 -0.1901033,0.026862 z M 5.7780675,8.1979953 h 0.5661772 v -0.0062 q 0,-0.092985 -0.035128,-0.1653072 -0.033061,-0.072322 -0.097118,-0.1136487 -0.064057,-0.043393 -0.1529091,-0.043393 -0.088853,0 -0.1529092,0.043393 -0.06199,0.041327 -0.095052,0.1136487 -0.033062,0.072322 -0.033062,0.1653072 z" />
    <path
       id="path3466"
       style="fill:#616870;fill-opacity:1;stroke-width:0.0516583"
       d="m 7.8416958,8.834428 q -0.1901032,0 -0.31615,-0.070256 Q 7.4015654,8.6939169 7.3375089,8.5678701 7.2734524,8.4418234 7.2672533,8.2744498 q -0.00207,-0.08472 -0.00207,-0.1818379 0,-0.097118 0.00207,-0.1859706 0.0062,-0.1673735 0.070256,-0.2934203 0.064057,-0.1260467 0.1880369,-0.1963022 0.1260468,-0.070256 0.31615,-0.070256 0.1425775,0 0.2500272,0.039261 0.1074497,0.03926 0.1777052,0.1053833 0.072322,0.066123 0.109516,0.1487765 0.037194,0.080587 0.041327,0.1673735 0.00207,0.018597 -0.012398,0.030995 -0.012398,0.012398 -0.030995,0.012398 H 8.2632292 q -0.018597,0 -0.033061,-0.010332 Q 8.2177697,7.8301867 8.2115707,7.8033243 8.1764429,7.6421498 8.0793249,7.582226 7.9842733,7.5223021 7.8396295,7.5223021 q -0.1653072,0 -0.2624252,0.095052 -0.097118,0.092985 -0.1053833,0.2996193 -0.0062,0.1694399 0,0.3471451 0.00827,0.206634 0.1053833,0.3016857 0.097118,0.092985 0.2624252,0.092985 0.1446438,0 0.2396954,-0.059924 0.097118,-0.059924 0.1322458,-0.2210984 0.0062,-0.026862 0.018597,-0.037194 0.014464,-0.010332 0.033061,-0.010332 h 0.1136487 q 0.018597,0 0.030995,0.012398 0.014464,0.012398 0.012398,0.030995 -0.00413,0.086786 -0.041327,0.1694398 -0.037194,0.080587 -0.109516,0.1467102 Q 8.1991727,8.7559071 8.091723,8.7951675 7.9842733,8.834428 7.8416958,8.834428 Z" />
    <path
       id="path3468"
       style="fill:#616870;fill-opacity:1;stroke-width:0.0516583"
       d="m 8.7199229,8.8137646 q -0.020663,0 -0.035128,-0.012398 -0.012398,-0.014464 -0.012398,-0.035128 V 7.394189 q 0,-0.020663 0.012398,-0.033061 0.014464,-0.014464 0.035128,-0.014464 h 0.097118 q 0.02273,0 0.035128,0.014464 0.012398,0.012398 0.012398,0.033061 v 1.3720498 q 0,0.020663 -0.012398,0.035128 -0.012398,0.012398 -0.035128,0.012398 z" />
    <path
       id="path3470"
       style="fill:#616870;fill-opacity:1;stroke-width:0.0516583"
       d="m 9.6109027,8.834428 q -0.1570418,0 -0.2624252,-0.059924 Q 9.2430942,8.7145803 9.187303,8.6091969 9.1315118,8.5017472 9.1253128,8.3653688 q -0.00207,-0.035128 -0.00207,-0.088853 0,-0.055791 0.00207,-0.088853 0.0062,-0.1384448 0.06199,-0.2438282 0.057858,-0.1053833 0.1632409,-0.1653072 0.1053833,-0.059924 0.2603588,-0.059924 0.1549755,0 0.2603588,0.059924 0.1053834,0.059924 0.1611747,0.1653072 0.05786,0.1053834 0.06406,0.2438282 0.0021,0.033061 0.0021,0.088853 0,0.053725 -0.0021,0.088853 -0.0062,0.1363784 -0.06199,0.2438281 Q 9.9787112,8.7145803 9.8733279,8.7745041 9.7679445,8.834428 9.6109027,8.834428 Z m 0,-0.1591082 q 0.1281131,0 0.2045677,-0.080587 0.076454,-0.082654 0.082654,-0.2396954 0.00207,-0.030995 0.00207,-0.078521 0,-0.047526 -0.00207,-0.078521 -0.0062,-0.1570419 -0.082654,-0.2376291 -0.076455,-0.082654 -0.2045677,-0.082654 -0.1281131,0 -0.206634,0.082654 -0.076455,0.080587 -0.080587,0.2376291 -0.00207,0.030995 -0.00207,0.078521 0,0.047526 0.00207,0.078521 0.00413,0.1570418 0.080587,0.2396954 0.078521,0.080587 0.206634,0.080587 z" />
    <path
       id="path3472"
       style="fill:#616870;fill-opacity:1;stroke-width:0.0516583"
       d="m 10.758173,8.834428 q -0.132245,0 -0.225231,-0.057858 Q 10.442022,8.716646 10.394497,8.6112628 10.346967,8.5058794 10.346967,8.369501 V 7.7867936 q 0,-0.020663 0.0124,-0.033061 0.01446,-0.014464 0.03513,-0.014464 h 0.103317 q 0.02066,0 0.03306,0.014464 0.01446,0.012398 0.01446,0.033061 v 0.5723762 q 0,0.3078846 0.268624,0.3078846 0.128114,0 0.204568,-0.080587 0.07852,-0.082654 0.07852,-0.2272974 V 7.7867936 q 0,-0.020663 0.0124,-0.033061 0.01446,-0.014464 0.03513,-0.014464 h 0.101251 q 0.02273,0 0.03513,0.014464 0.0124,0.012398 0.0124,0.033061 v 0.9794452 q 0,0.020663 -0.0124,0.035128 -0.0124,0.012398 -0.03513,0.012398 h -0.09505 q -0.02066,0 -0.03513,-0.012398 -0.0124,-0.014464 -0.0124,-0.035128 v -0.090919 q -0.05579,0.072322 -0.136378,0.115715 -0.07852,0.043393 -0.208701,0.043393 z" />
    <path
       id="path3474"
       style="fill:#616870;fill-opacity:1;stroke-width:0.0516583"
       d="m 11.99294,8.834428 q -0.113648,0 -0.196302,-0.039261 Q 11.713988,8.75384 11.66026,8.685651 11.6086,8.615395 11.58174,8.5265428 q -0.0248,-0.088853 -0.02893,-0.1880369 -0.0021,-0.033062 -0.0021,-0.06199 0,-0.028929 0.0021,-0.06199 0.0041,-0.097118 0.02893,-0.1859706 0.02686,-0.088853 0.07852,-0.1591082 0.05373,-0.070256 0.136378,-0.109516 0.08265,-0.041327 0.196302,-0.041327 0.121914,0 0.202502,0.043393 0.08059,0.043393 0.132245,0.1074497 V 7.394189 q 0,-0.020663 0.0124,-0.033061 0.01446,-0.014464 0.03513,-0.014464 h 0.09919 q 0.02066,0 0.03306,0.014464 0.01446,0.012398 0.01446,0.033061 v 1.3720498 q 0,0.020663 -0.01446,0.035128 -0.0124,0.012398 -0.03306,0.012398 h -0.09299 q -0.02273,0 -0.03513,-0.012398 -0.0124,-0.014464 -0.0124,-0.035128 v -0.086786 q -0.05166,0.066123 -0.134312,0.1115823 -0.08265,0.043393 -0.206634,0.043393 z m 0.04339,-0.1673736 q 0.103317,0 0.165307,-0.047526 0.06199,-0.047526 0.09298,-0.1198477 0.031,-0.074388 0.03306,-0.1508428 0.0021,-0.033062 0.0021,-0.078521 0,-0.047526 -0.0021,-0.080587 -0.0021,-0.072322 -0.03513,-0.1425775 -0.031,-0.070256 -0.09505,-0.115715 -0.06199,-0.045459 -0.161174,-0.045459 -0.105384,0 -0.167374,0.047526 -0.06199,0.045459 -0.08885,0.1219141 -0.02686,0.074388 -0.03099,0.1611745 -0.0021,0.059924 0,0.1198477 0.0041,0.086786 0.03099,0.1632409 0.02686,0.074388 0.08885,0.1219141 0.06199,0.045459 0.167374,0.045459 z" />
    <path
       id="path3476"
       style="fill:#616870;fill-opacity:1;stroke-width:0.0516583"
       d="m 13.208982,8.8137646 q -0.01653,0 -0.02893,-0.012398 -0.0124,-0.012398 -0.0124,-0.028929 0,-0.010332 0.0021,-0.02273 l 0.512453,-1.3369219 q 0.0083,-0.020663 0.02273,-0.033061 0.01446,-0.012398 0.04339,-0.012398 h 0.140511 q 0.02686,0 0.04133,0.012398 0.01653,0.012398 0.0248,0.033061 l 0.510386,1.3369219 q 0.0041,0.012398 0.0041,0.02273 0,0.016531 -0.0124,0.028929 -0.0124,0.012398 -0.02893,0.012398 h -0.105384 q -0.0248,0 -0.03719,-0.012398 -0.01033,-0.012398 -0.01446,-0.02273 L 14.157432,8.4852165 h -0.67776 l -0.113648,0.2934203 q -0.0021,0.010332 -0.01446,0.02273 -0.0124,0.012398 -0.03719,0.012398 z m 0.330614,-0.5062533 h 0.557912 L 13.818552,7.5739606 Z" />
    <path
       id="path3478"
       style="fill:#616870;fill-opacity:1;stroke-width:0.0516583"
       d="m 14.713116,9.2063692 q -0.02066,0 -0.03513,-0.014464 -0.0124,-0.012398 -0.0124,-0.033062 V 7.7867936 q 0,-0.020663 0.0124,-0.033061 0.01446,-0.014464 0.03513,-0.014464 h 0.09505 q 0.02066,0 0.03306,0.014464 0.01446,0.012398 0.01446,0.033061 v 0.090919 q 0.04959,-0.068189 0.132246,-0.1136487 0.08265,-0.045459 0.206634,-0.045459 0.115715,0 0.196302,0.03926 0.08265,0.039261 0.134312,0.1074497 0.05373,0.068189 0.08059,0.1549755 0.02686,0.086786 0.02893,0.1859706 0.0021,0.033062 0.0021,0.070256 0,0.037194 -0.0021,0.070256 -0.0021,0.097118 -0.02893,0.1859706 -0.02686,0.086786 -0.08059,0.1549755 -0.05166,0.066123 -0.134312,0.1074497 -0.08059,0.039261 -0.196302,0.039261 -0.119848,0 -0.202502,-0.043393 -0.08059,-0.045459 -0.132245,-0.1115823 V 9.158845 q 0,0.020663 -0.0124,0.033062 -0.0124,0.014464 -0.03513,0.014464 z M 15.15118,8.6670544 q 0.107449,0 0.167373,-0.045459 0.06199,-0.047526 0.08885,-0.1219141 0.02686,-0.076455 0.031,-0.1632409 0.0021,-0.059924 0,-0.1198477 -0.0041,-0.086786 -0.031,-0.1611745 -0.02686,-0.076455 -0.08885,-0.1219141 -0.05992,-0.047526 -0.167373,-0.047526 -0.101251,0 -0.165308,0.047526 -0.06199,0.047526 -0.09299,0.1219141 -0.02893,0.072322 -0.03306,0.1487765 -0.0021,0.033061 -0.0021,0.078521 0,0.045459 0.0021,0.080587 0.0021,0.072322 0.03306,0.1425774 0.03306,0.070256 0.09712,0.1157151 0.06406,0.045459 0.161175,0.045459 z" />
    <path
       id="path3480"
       style="fill:#616870;fill-opacity:1;stroke-width:0.0516583"
       d="m 15.944041,9.2063692 q -0.02066,0 -0.03513,-0.014464 -0.0124,-0.012398 -0.0124,-0.033062 V 7.7867936 q 0,-0.020663 0.0124,-0.033061 0.01446,-0.014464 0.03513,-0.014464 h 0.09505 q 0.02066,0 0.03306,0.014464 0.01446,0.012398 0.01446,0.033061 v 0.090919 q 0.04959,-0.068189 0.132245,-0.1136487 0.08265,-0.045459 0.206634,-0.045459 0.115715,0 0.196303,0.03926 0.08265,0.039261 0.134312,0.1074497 0.05373,0.068189 0.08059,0.1549755 0.02686,0.086786 0.02893,0.1859706 0.0021,0.033062 0.0021,0.070256 0,0.037194 -0.0021,0.070256 -0.0021,0.097118 -0.02893,0.1859706 -0.02686,0.086786 -0.08059,0.1549755 -0.05166,0.066123 -0.134312,0.1074497 -0.08059,0.039261 -0.196303,0.039261 -0.119847,0 -0.202501,-0.043393 -0.08059,-0.045459 -0.132246,-0.1115823 V 9.158845 q 0,0.020663 -0.0124,0.033062 -0.0124,0.014464 -0.03513,0.014464 z m 0.438064,-0.5393148 q 0.10745,0 0.167374,-0.045459 0.06199,-0.047526 0.08885,-0.1219141 0.02686,-0.076455 0.031,-0.1632409 0.0021,-0.059924 0,-0.1198477 -0.0041,-0.086786 -0.031,-0.1611745 -0.02686,-0.076455 -0.08885,-0.1219141 -0.05992,-0.047526 -0.167374,-0.047526 -0.10125,0 -0.165307,0.047526 -0.06199,0.047526 -0.09299,0.1219141 -0.02893,0.072322 -0.03306,0.1487765 -0.0021,0.033061 -0.0021,0.078521 0,0.045459 0.0021,0.080587 0.0021,0.072322 0.03306,0.1425774 0.03306,0.070256 0.09712,0.1157151 0.06406,0.045459 0.161174,0.045459 z" />
    <path
       id="path3482"
       style="fill:#616870;fill-opacity:1;stroke-width:0.0516583"
       d="m 17.174967,8.8137646 q -0.02066,0 -0.03513,-0.012398 -0.0124,-0.014464 -0.0124,-0.035128 V 7.394189 q 0,-0.020663 0.0124,-0.033061 0.01446,-0.014464 0.03513,-0.014464 h 0.09712 q 0.02273,0 0.03513,0.014464 0.0124,0.012398 0.0124,0.033061 v 1.3720498 q 0,0.020663 -0.0124,0.035128 -0.0124,0.012398 -0.03513,0.012398 z" />
    <path
       id="path3484"
       style="fill:#616870;fill-opacity:1;stroke-width:0.0516583"
       d="m 17.673341,8.8137646 q -0.02066,0 -0.03513,-0.012398 -0.0124,-0.014464 -0.0124,-0.035128 v -0.979445 q 0,-0.020663 0.0124,-0.033061 0.01447,-0.014464 0.03513,-0.014464 h 0.09918 q 0.02066,0 0.03306,0.014464 0.0124,0.012398 0.0124,0.033061 v 0.9794452 q 0,0.020663 -0.0124,0.035128 -0.0124,0.012398 -0.03306,0.012398 z M 17.65681,7.5388328 q -0.02066,0 -0.03513,-0.012398 -0.0124,-0.014464 -0.0124,-0.035128 V 7.3797246 q 0,-0.020663 0.0124,-0.033061 0.01447,-0.014464 0.03513,-0.014464 h 0.13018 q 0.02066,0 0.03306,0.014464 0.01446,0.012398 0.01446,0.033061 V 7.491307 q 0,0.020663 -0.01446,0.035128 -0.0124,0.012398 -0.03306,0.012398 z" />
    <path
       id="path3486"
       style="fill:#616870;fill-opacity:1;stroke-width:0.0516583"
       d="m 18.425877,8.834428 q -0.103317,0 -0.188037,-0.041327 -0.08472,-0.041327 -0.136378,-0.1115824 -0.05166,-0.070256 -0.05166,-0.1591082 0,-0.1425774 0.115715,-0.2272974 0.115715,-0.08472 0.301686,-0.1115823 l 0.307884,-0.043393 v -0.059924 q 0,-0.099184 -0.05786,-0.1549755 -0.05579,-0.055791 -0.183904,-0.055791 -0.09299,0 -0.150843,0.037194 -0.05579,0.037194 -0.07852,0.095052 -0.0124,0.030995 -0.04339,0.030995 h -0.09299 q -0.02273,0 -0.03513,-0.012398 -0.01033,-0.014464 -0.01033,-0.033061 0,-0.030995 0.02273,-0.076455 0.0248,-0.045459 0.07439,-0.088853 0.04959,-0.043393 0.126047,-0.072322 0.07852,-0.030995 0.190103,-0.030995 0.12398,0 0.2087,0.033061 0.08472,0.030995 0.132246,0.08472 0.04959,0.053725 0.07026,0.121914 0.02273,0.068189 0.02273,0.1384448 v 0.6694942 q 0,0.020663 -0.01446,0.035128 -0.0124,0.012398 -0.03306,0.012398 h -0.09505 q -0.02273,0 -0.03513,-0.012398 -0.0124,-0.014464 -0.0124,-0.035128 v -0.088853 q -0.02686,0.037194 -0.07232,0.074388 -0.04546,0.035128 -0.113649,0.059924 -0.06819,0.02273 -0.167373,0.02273 z m 0.04339,-0.1549755 q 0.08472,0 0.154976,-0.035128 0.07025,-0.037194 0.109516,-0.1136487 0.04133,-0.076455 0.04133,-0.1921696 v -0.057858 l -0.239695,0.035128 q -0.14671,0.020663 -0.221098,0.070256 -0.07439,0.047526 -0.07439,0.1219141 0,0.057857 0.03306,0.097118 0.03513,0.037194 0.08679,0.055791 0.05373,0.018597 0.109516,0.018597 z" />
    <path
       id="path3488"
       style="fill:#616870;fill-opacity:1;stroke-width:0.0516583"
       d="m 19.315921,8.8137646 q -0.02066,0 -0.03513,-0.012398 -0.0124,-0.014464 -0.0124,-0.035128 v -0.979445 q 0,-0.020663 0.0124,-0.033061 0.01447,-0.014464 0.03513,-0.014464 h 0.09712 q 0.02066,0 0.03306,0.014464 0.01446,0.012398 0.01446,0.033061 v 0.090919 q 0.05373,-0.070256 0.134312,-0.1136487 0.08265,-0.045459 0.210767,-0.045459 0.134312,0 0.227297,0.059924 0.09505,0.057858 0.142577,0.1632409 0.04753,0.103317 0.04753,0.2417618 v 0.5827079 q 0,0.020663 -0.0124,0.035128 -0.0124,0.012398 -0.03306,0.012398 h -0.103317 q -0.02066,0 -0.03513,-0.012398 -0.0124,-0.014464 -0.0124,-0.035128 V 8.1938626 q 0,-0.1446438 -0.07026,-0.2252311 -0.07026,-0.082654 -0.206634,-0.082654 -0.128113,0 -0.206634,0.082654 -0.07645,0.080587 -0.07645,0.2252311 v 0.5723762 q 0,0.020663 -0.01447,0.035128 -0.0124,0.012398 -0.03306,0.012398 z" />
    <path
       id="path3490"
       style="fill:#616870;fill-opacity:1;stroke-width:0.0516583"
       d="m 20.953431,8.834428 q -0.14671,0 -0.25416,-0.055791 Q 20.593888,8.72078 20.53603,8.6153961 20.47817,8.5079465 20.47404,8.35917 q -0.0021,-0.030995 -0.0021,-0.082654 0,-0.051659 0.0021,-0.082654 0.0041,-0.1487765 0.06199,-0.2541598 0.05786,-0.1074497 0.163241,-0.1632409 0.10745,-0.057857 0.25416,-0.057857 0.119848,0 0.204568,0.033061 0.08679,0.033062 0.142577,0.08472 0.05579,0.051658 0.08265,0.1115823 0.02893,0.059924 0.03099,0.1136487 0.0021,0.020663 -0.0124,0.033062 -0.01447,0.012398 -0.03513,0.012398 h -0.09918 q -0.02066,0 -0.031,-0.00827 -0.01033,-0.010332 -0.02066,-0.033061 -0.03719,-0.1012507 -0.101251,-0.1425775 -0.06406,-0.041327 -0.159108,-0.041327 -0.12398,0 -0.202501,0.076455 -0.07645,0.076455 -0.08265,0.2458945 -0.0021,0.074388 0,0.1446438 0.0062,0.1715062 0.08265,0.2479608 0.07852,0.074388 0.202501,0.074388 0.09505,0 0.159108,-0.041327 0.06406,-0.041327 0.101251,-0.1425774 0.01033,-0.02273 0.02066,-0.030995 0.01033,-0.010332 0.031,-0.010332 h 0.09918 q 0.02066,0 0.03513,0.012398 0.01446,0.012398 0.0124,0.033061 -0.0021,0.043393 -0.0186,0.088853 -0.01653,0.045459 -0.05373,0.092985 -0.03513,0.045459 -0.08885,0.082654 -0.05373,0.035128 -0.130179,0.057858 -0.07439,0.020663 -0.16944,0.020663 z" />
    <path
       id="path3492"
       style="fill:#616870;fill-opacity:1;stroke-width:0.0516583"
       d="m 22.089368,8.834428 q -0.212834,0 -0.33888,-0.1301794 -0.126047,-0.1322458 -0.138445,-0.3595432 -0.0021,-0.026862 -0.0021,-0.068189 0,-0.043393 0.0021,-0.070256 0.0083,-0.1467101 0.06819,-0.2562261 0.05992,-0.1115824 0.163241,-0.1715063 0.105383,-0.059924 0.245895,-0.059924 0.157041,0 0.262425,0.066123 0.107449,0.066123 0.163241,0.1880369 0.05579,0.1219141 0.05579,0.2851549 v 0.035128 q 0,0.02273 -0.01446,0.035128 -0.0124,0.012398 -0.03306,0.012398 h -0.714954 q 0,0.00207 0,0.00827 0,0.0062 0,0.010332 0.0041,0.08472 0.03719,0.1591082 0.03306,0.072322 0.09505,0.1177813 0.06199,0.045459 0.148777,0.045459 0.07439,0 0.12398,-0.02273 0.04959,-0.02273 0.08059,-0.049592 0.03099,-0.028929 0.04133,-0.043393 0.0186,-0.026862 0.02893,-0.030995 0.01033,-0.0062 0.03306,-0.0062 h 0.09918 q 0.02066,0 0.03306,0.012398 0.01446,0.010332 0.0124,0.030995 -0.0021,0.030995 -0.03306,0.076455 -0.031,0.043393 -0.08885,0.086786 -0.05786,0.043393 -0.140511,0.072322 -0.08265,0.026862 -0.190103,0.026862 z M 21.808345,8.1979953 h 0.566177 v -0.0062 q 0,-0.092985 -0.03513,-0.1653072 -0.03306,-0.072322 -0.09712,-0.1136487 -0.06406,-0.043393 -0.152909,-0.043393 -0.08885,0 -0.15291,0.043393 -0.06199,0.041327 -0.09505,0.1136487 -0.03306,0.072322 -0.03306,0.1653072 z" />
    <path
       id="path3494"
       style="fill:#616870;fill-opacity:1;stroke-width:0.0516583"
       d="m 23.264469,8.8137646 q -0.01653,0 -0.03099,-0.012398 -0.0124,-0.012398 -0.0124,-0.028929 0,-0.00827 0.0021,-0.014464 0.0041,-0.00827 0.0062,-0.012398 L 23.702533,8.0781475 23.252071,7.4355158 q -0.0062,-0.012398 -0.0062,-0.026862 0,-0.016531 0.0124,-0.028929 0.0124,-0.012398 0.02893,-0.012398 h 0.12398 q 0.02066,0 0.03306,0.010332 0.0124,0.00827 0.02273,0.024796 l 0.363676,0.516585 0.36161,-0.516585 q 0.0083,-0.016531 0.02066,-0.024796 0.01447,-0.010332 0.03306,-0.010332 h 0.117781 q 0.01653,0 0.02893,0.012398 0.0124,0.012398 0.0124,0.028929 0,0.014464 -0.0083,0.026862 l -0.444263,0.6446981 0.471126,0.6653615 q 0.0041,0.00413 0.0062,0.012398 0.0021,0.0062 0.0021,0.014464 0,0.016531 -0.0124,0.028929 -0.0124,0.012398 -0.031,0.012398 h -0.126047 q -0.0186,0 -0.03306,-0.010332 -0.0124,-0.010332 -0.02273,-0.02273 L 23.822381,8.2434547 23.440108,8.7807031 q -0.01033,0.012398 -0.02273,0.02273 -0.0124,0.010332 -0.03306,0.010332 z" />
    <path
       id="path3496"
       style="fill:#616870;fill-opacity:1;stroke-width:0.0516583"
       d="m 24.877893,8.8137646 q -0.0186,0 -0.031,-0.012398 -0.01033,-0.014464 -0.01033,-0.033061 0,-0.010332 0.0021,-0.016531 0.0041,-0.0062 0.0062,-0.010332 l 0.31615,-0.4401304 q -0.05166,0.012398 -0.111583,0.012398 -0.115715,-0.00207 -0.206634,-0.041327 -0.09092,-0.03926 -0.154975,-0.1053833 -0.06406,-0.068189 -0.09712,-0.1529092 -0.03306,-0.08472 -0.03306,-0.1777052 0,-0.090919 0.03099,-0.1777053 0.03306,-0.086786 0.09712,-0.1570418 0.06612,-0.070256 0.16324,-0.1115824 0.09712,-0.043393 0.229364,-0.043393 0.13018,0 0.227298,0.041327 0.09918,0.039261 0.165307,0.109516 0.06819,0.068189 0.09918,0.1549755 0.03306,0.086786 0.03306,0.1797716 0,0.08472 -0.0248,0.1549755 -0.0248,0.070256 -0.05992,0.1260467 -0.03306,0.055791 -0.06612,0.103317 l -0.396738,0.5558455 q -0.0083,0.010332 -0.02273,0.026862 -0.01447,0.014464 -0.04339,0.014464 z m 0.200435,-0.6674278 q 0.08679,0 0.159108,-0.037194 0.07439,-0.03926 0.117782,-0.1074496 0.04339,-0.070256 0.04339,-0.1673736 0,-0.097118 -0.04339,-0.1653072 -0.04339,-0.070256 -0.117782,-0.1074496 -0.07232,-0.039261 -0.159108,-0.039261 -0.08472,0 -0.157042,0.039261 -0.07232,0.037194 -0.115715,0.1074496 -0.04339,0.068189 -0.04339,0.1653072 0,0.097118 0.04339,0.1673736 0.04339,0.068189 0.115715,0.1074496 0.07232,0.037194 0.157042,0.037194 z" />
    <path
       id="path3498"
       style="fill:#616870;fill-opacity:1;stroke-width:0.0516583"
       d="m 25.85976,8.2806489 q -0.02066,0 -0.03513,-0.012398 -0.0124,-0.014464 -0.0124,-0.035128 v -0.078521 q 0,-0.020663 0.0124,-0.033061 0.01446,-0.014464 0.03513,-0.014464 h 0.619902 q 0.02066,0 0.03306,0.014464 0.01446,0.012398 0.01446,0.033061 v 0.078521 q 0,0.020663 -0.01446,0.035128 -0.0124,0.012398 -0.03306,0.012398 z" />
    <path
       id="path3500"
       style="fill:#616870;fill-opacity:1;stroke-width:0.0516583"
       d="m 26.726493,8.8137646 q -0.02066,0 -0.03513,-0.012398 -0.0124,-0.014464 -0.0124,-0.035128 v -0.066123 q 0,-0.018597 0.01033,-0.041327 0.01033,-0.02273 0.04133,-0.049592 L 27.16869,8.1711328 q 0.105383,-0.088853 0.165307,-0.1508428 0.06199,-0.064056 0.08679,-0.121914 0.02686,-0.057858 0.02686,-0.1198478 0,-0.1177813 -0.06612,-0.1859705 -0.06612,-0.070256 -0.196302,-0.070256 -0.08265,0 -0.142578,0.035128 -0.05992,0.033061 -0.09505,0.092985 -0.03306,0.057857 -0.04339,0.1322457 -0.0041,0.026862 -0.02273,0.037194 -0.01653,0.010332 -0.031,0.010332 h -0.10745 q -0.0186,0 -0.03099,-0.010332 -0.0124,-0.012398 -0.0124,-0.028929 0.0021,-0.078521 0.03306,-0.1570419 0.031,-0.080587 0.09092,-0.1446437 0.06199,-0.064057 0.150843,-0.103317 0.09092,-0.041327 0.210767,-0.041327 0.16324,0 0.266557,0.059924 0.105384,0.057857 0.154976,0.1549755 0.04959,0.097118 0.04959,0.212833 0,0.090919 -0.031,0.1673736 -0.03099,0.074388 -0.09092,0.1467101 -0.05786,0.070256 -0.144644,0.1446438 L 26.993051,8.633993 h 0.644698 q 0.02273,0 0.03513,0.012398 0.01446,0.012398 0.01446,0.035128 v 0.08472 q 0,0.020663 -0.01446,0.035128 -0.0124,0.012398 -0.03513,0.012398 z" />
  </g>
</svg>
