<?xml version="1.0" encoding="UTF-8" standalone="no"?>
<svg
   id="svg2187"
   version="1.1"
   viewBox="0 0 50.799999 16.933334"
   height="64"
   width="192"
   sodipodi:docname="opca-64.svg"
   inkscape:version="1.1.2 (0a00cf5339, 2022-02-04)"
   xmlns:inkscape="http://www.inkscape.org/namespaces/inkscape"
   xmlns:sodipodi="http://sodipodi.sourceforge.net/DTD/sodipodi-0.dtd"
   xmlns="http://www.w3.org/2000/svg"
   xmlns:svg="http://www.w3.org/2000/svg">
  <defs
     id="defs34" />
  <sodipodi:namedview
     id="namedview32"
     pagecolor="#ffffff"
     bordercolor="#666666"
     borderopacity="1.0"
     inkscape:pageshadow="2"
     inkscape:pageopacity="0.0"
     inkscape:pagecheckerboard="0"
     showgrid="false"
     inkscape:zoom="4.8945048"
     inkscape:cx="92.552776"
     inkscape:cy="32.281101"
     inkscape:window-width="1920"
     inkscape:window-height="1004"
     inkscape:window-x="0"
     inkscape:window-y="0"
     inkscape:window-maximized="1"
     inkscape:current-layer="svg2187" />
  <g
     id="g1004"
     transform="translate(0,-0.65670091)">
    <g
       id="layer1">
      <g
         style="fill:none;fill-rule:evenodd;stroke:none;stroke-width:1"
         transform="matrix(0.26458333,0,0,0.26458333,0,3.0427084)"
         id="Group">
        <path
           fill="#ec1d24"
           id="ORACLE"
           d="m 126.0221,14.855297 c -2.63102,0 -4.86363,-1.764388 -5.54629,-4.197664 h 14.64759 l 2.01923,-3.1447023 h -16.66682 c 0.68266,-2.4186904 2.91527,-4.1972585 5.54629,-4.1972585 h 10.05362 l 2.03381,-3.14510793 h -12.31498 c -4.92072,0 -8.91626,3.99873953 -8.91626,8.92201043 0,4.9232703 3.99554,8.9074253 8.91626,8.9074253 h 10.56582 L 138.38,14.855297 Z M 84.113532,18 c -4.919917,0 -8.915856,-3.984155 -8.915856,-8.9074253 0,-4.9232709 3.995939,-8.92201043 8.915856,-8.92201043 H 96.414741 L 94.409686,3.3156722 H 84.341489 c -3.185738,0 -5.773846,2.5896599 -5.773846,5.7769025 0,3.1872423 2.588108,5.7627223 5.773846,5.7627223 h 12.35749 L 94.679753,18 Z M 19.037094,14.855297 c 3.187358,0 5.768178,-2.57548 5.768178,-5.7627223 0,-3.1872426 -2.58082,-5.7769025 -5.768178,-5.7769025 H 9.1397649 c -3.1853334,0 -5.7681784,2.5896599 -5.7681784,5.7769025 0,3.1872423 2.582845,5.7627223 5.7681784,5.7627223 z M 8.9109974,18 C 3.9918904,18 0,14.015845 0,9.0925747 0,4.1693038 3.9918904,0.17056427 8.9109974,0.17056427 H 19.267886 c 4.919917,0 8.908973,3.99873953 8.908973,8.92201043 C 28.176859,14.015845 24.187803,18 19.267886,18 Z M 44.992682,12.222692 c 3.327858,0 6.029743,-2.688919 6.029743,-6.0187711 0,-3.329447 -2.701885,-6.03335663 -6.029743,-6.03335663 H 30.000115 V 18 h 3.425843 V 3.3156722 h 11.339171 c 1.592869,0 2.872752,1.2944248 2.872752,2.8882487 0,1.5938238 -1.279883,2.8886538 -2.872752,2.8886538 L 35.103856,9.0783947 45.334011,18 h 4.977412 l -6.882862,-5.777308 z m 56.697878,2.632605 V 0.17056427 H 98.263101 V 16.292332 c 0,0.441198 0.170867,0.868216 0.498025,1.19557 C 99.087878,17.814851 99.528812,18 100.01267,18 h 15.62825 l 2.01963,-3.144703 z M 59.739476,11.710594 H 68.88329 L 64.048401,3.9274348 55.174655,18 H 51.136201 L 61.92957,1.0959058 C 62.398847,0.41283846 63.18111,0 64.048401,0 c 0.839354,0 1.621212,0.39825339 2.075913,1.0671408 L 76.960602,18 h -4.038454 l -1.905855,-3.144703 h -9.25759 z M 140.22344,3.6842802 C 139.2093,3.6842802 138.38,2.861129 138.38,1.8419541 138.38,0.82315114 139.2093,0 140.22344,0 141.2507,0 142.08,0.82315114 142.08,1.8419541 c 0,1.0191749 -0.8293,1.8423261 -1.85656,1.8423261 z M 140.0521,0.74466723 c 0.28981,0 0.40828,0.0130187 0.54025,0.0654653 0.36854,0.11753988 0.40828,0.44412217 0.40828,0.57468077 0,0.026037 0,0.091503 -0.0266,0.1696145 -0.0131,0.078484 -0.066,0.2354518 -0.25044,0.3529916 -0.0259,0.013019 -0.039,0.026037 -0.0918,0.052075 l 0.47426,0.8495604 h -0.46114 l -0.4214,-0.7840952 h -0.28943 V 2.8090549 H 139.5258 V 0.74466723 Z m 0.14509,0.94069097 c 0.1316,-0.013019 0.26319,-0.013019 0.3423,-0.1309305 0.0397,-0.052075 0.0529,-0.1041492 0.0529,-0.1826331 0,-0.1045213 -0.066,-0.1960238 -0.15821,-0.2480985 -0.0922,-0.039428 -0.18408,-0.039428 -0.38204,-0.039428 h -0.11809 v 0.60109 z m -1.42203,0.1435772 c 0,0.8101325 0.64522,1.4502785 1.44828,1.4502785 0.81656,0 1.46178,-0.640146 1.46178,-1.4502785 0,-0.7967418 -0.64522,-1.43688782 -1.46178,-1.43688782 -0.80306,0 -1.44828,0.64014602 -1.44828,1.43688782 z" />
      </g>
    </g>
    <g
       id="g977"
       transform="matrix(1.2352581,0,0,1.2352581,-6.1401972e-7,-3.0806884)">
      <path
         id="path2760"
         style="font-size:3.76496px;line-height:1.05;font-family:Rubik;-inkscape-font-specification:'Rubik, Normal';stroke-width:0.0941244"
         d="m 0.08659409,14.087002 q -0.04141456,0 -0.06400432,-0.02259 Q 1.0490418e-8,14.038057 1.0490418e-8,14.000408 v -2.458519 q 0,-0.04141 0.02258975950958,-0.064 0.02258976,-0.02635 0.06400432,-0.02635 H 1.0428939 q 0.2786071,0 0.4819149,0.09036 0.2070728,0.09036 0.3200216,0.271077 0.1129488,0.176953 0.1129488,0.444265 0,0.267312 -0.1129488,0.444266 -0.1129488,0.176953 -0.3200216,0.267312 -0.2033078,0.09036 -0.4819149,0.09036 H 0.37649602 v 0.94124 q 0,0.03765 -0.0263547,0.064 -0.0225898,0.02259 -0.0640043,0.02259 z M 0.37273106,12.742911 H 1.0240691 q 0.2786071,0 0.4179106,-0.124244 0.1393035,-0.124243 0.1393035,-0.361436 0,-0.233427 -0.1355385,-0.361436 Q 1.3102061,11.767786 1.0240691,11.767786 H 0.37273106 Z" />
      <path
         id="path2762"
         style="font-size:3.76496px;line-height:1.05;font-family:Rubik;-inkscape-font-specification:'Rubik, Normal';stroke-width:0.0941244"
         d="m 2.4569306,14.087002 q -0.03765,0 -0.064004,-0.02259 -0.02259,-0.02636 -0.02259,-0.064 v -1.780826 q 0,-0.03765 0.02259,-0.06401 0.026355,-0.02635 0.064004,-0.02635 h 0.1731882 q 0.03765,0 0.064004,0.02635 0.026355,0.02636 0.026355,0.06401 v 0.165658 q 0.075299,-0.128009 0.2070728,-0.192013 0.1317736,-0.064 0.3162567,-0.064 h 0.1505984 q 0.03765,0 0.060239,0.02635 0.02259,0.02259 0.02259,0.06024 v 0.154363 q 0,0.03765 -0.02259,0.06024 -0.02259,0.02259 -0.060239,0.02259 H 3.1685081 q -0.2033079,0 -0.3200216,0.120479 -0.1167138,0.116714 -0.1167138,0.320021 v 1.106899 q 0,0.03765 -0.026355,0.064 -0.026355,0.02259 -0.064004,0.02259 z" />
      <path
         id="path2764"
         style="font-size:3.76496px;line-height:1.05;font-family:Rubik;-inkscape-font-specification:'Rubik, Normal';stroke-width:0.0941244"
         d="m 3.890851,14.087002 q -0.03765,0 -0.064004,-0.02259 -0.02259,-0.02636 -0.02259,-0.064 v -1.784591 q 0,-0.03765 0.02259,-0.06024 0.026355,-0.02635 0.064004,-0.02635 h 0.1807181 q 0.03765,0 0.060239,0.02635 0.02259,0.02259 0.02259,0.06024 v 1.784591 q 0,0.03765 -0.02259,0.064 -0.02259,0.02259 -0.060239,0.02259 z m -0.03012,-2.322981 q -0.03765,0 -0.064004,-0.02259 -0.02259,-0.02635 -0.02259,-0.064 V 11.47412 q 0,-0.03765 0.02259,-0.06024 0.026355,-0.02636 0.064004,-0.02636 h 0.2371925 q 0.03765,0 0.060239,0.02636 0.026355,0.02259 0.026355,0.06024 v 0.203307 q 0,0.03765 -0.026355,0.064 -0.02259,0.02259 -0.060239,0.02259 z" />
      <path
         id="path2766"
         style="font-size:3.76496px;line-height:1.05;font-family:Rubik;-inkscape-font-specification:'Rubik, Normal';stroke-width:0.0941244"
         d="m 5.3975408,14.087002 q -0.056474,0 -0.090359,-0.02636 -0.03012,-0.02635 -0.048945,-0.06777 L 4.5617197,12.245936 q -0.00753,-0.01882 -0.00753,-0.03765 0,-0.03388 0.02259,-0.05648 0.02259,-0.02259 0.056474,-0.02259 H 4.813972 q 0.041415,0 0.064004,0.02259 0.02259,0.02259 0.026355,0.04142 l 0.5760388,1.483394 0.572274,-1.483394 q 0.00753,-0.01882 0.026355,-0.04142 0.02259,-0.02259 0.064004,-0.02259 H 6.327486 q 0.03012,0 0.052709,0.02259 0.026355,0.02259 0.026355,0.05648 0,0.01882 -0.00753,0.03765 l -0.7002826,1.746942 q -0.01506,0.04141 -0.048945,0.06777 -0.03012,0.02636 -0.090359,0.02636 z" />
      <path
         id="path2768"
         style="font-size:3.76496px;line-height:1.05;font-family:Rubik;-inkscape-font-specification:'Rubik, Normal';stroke-width:0.0941244"
         d="m 7.2768443,14.124651 q -0.188248,0 -0.3426114,-0.0753 -0.1543633,-0.0753 -0.2484873,-0.203308 -0.094124,-0.128008 -0.094124,-0.289902 0,-0.259782 0.2108377,-0.414145 0.2108378,-0.154364 0.5496842,-0.203308 l 0.560979,-0.07906 v -0.109184 q 0,-0.180718 -0.1054188,-0.282372 -0.101654,-0.101654 -0.3350815,-0.101654 -0.1694232,0 -0.2748421,0.06777 -0.1016539,0.06777 -0.1430684,0.173189 -0.02259,0.05647 -0.079064,0.05647 H 6.8062243 q -0.041415,0 -0.064004,-0.02259 -0.018825,-0.02635 -0.018825,-0.06024 0,-0.05648 0.041415,-0.139304 0.04518,-0.08283 0.1355386,-0.161893 0.090359,-0.07906 0.2296626,-0.131774 0.1430684,-0.05647 0.3463763,-0.05647 0.2258976,0 0.3802609,0.06024 0.1543634,0.05648 0.2409575,0.154364 0.090359,0.09789 0.1280086,0.222132 0.041415,0.124244 0.041415,0.252253 v 1.219847 q 0,0.03765 -0.026355,0.064 -0.02259,0.02259 -0.060239,0.02259 H 8.0072465 q -0.041415,0 -0.064004,-0.02259 -0.02259,-0.02636 -0.02259,-0.064 v -0.161894 q -0.048945,0.06777 -0.1317736,0.135539 -0.082829,0.064 -0.2070728,0.109184 -0.1242437,0.04141 -0.3049618,0.04141 z m 0.079064,-0.282372 q 0.1543633,0 0.282372,-0.064 0.1280086,-0.06777 0.1995428,-0.207073 0.075299,-0.139303 0.075299,-0.350141 v -0.105419 l -0.4367353,0.064 q -0.2673122,0.03765 -0.4028507,0.128009 -0.1355386,0.08659 -0.1355386,0.222133 0,0.105419 0.060239,0.176953 0.064004,0.06777 0.1581284,0.101654 0.097889,0.03388 0.1995429,0.03388 z" />
      <path
         id="path2770"
         style="font-size:3.76496px;line-height:1.05;font-family:Rubik;-inkscape-font-specification:'Rubik, Normal';stroke-width:0.0941244"
         d="m 9.5541743,14.087002 q -0.2108377,0 -0.3426113,-0.07906 Q 9.0797894,13.925112 9.01955,13.778279 8.959311,13.627681 8.959311,13.424373 v -0.99395 H 8.6656437 q -0.03765,0 -0.064004,-0.02259 -0.02259,-0.02636 -0.02259,-0.064 v -0.128008 q 0,-0.03765 0.02259,-0.06024 0.026355,-0.02635 0.064004,-0.02635 h 0.2936669 v -0.628749 q 0,-0.03765 0.02259,-0.06024 0.026355,-0.02635 0.064004,-0.02635 h 0.1769531 q 0.03765,0 0.060239,0.02635 0.026355,0.02259 0.026355,0.06024 v 0.628749 H 9.776307 q 0.03765,0 0.060239,0.02635 0.026355,0.02259 0.026355,0.06024 v 0.128008 q 0,0.03765 -0.026355,0.064 -0.02259,0.02259 -0.060239,0.02259 H 9.3094519 v 0.967595 q 0,0.176953 0.060239,0.278607 0.060239,0.101654 0.2146027,0.101654 h 0.2296626 q 0.03765,0 0.060239,0.02635 0.026355,0.02259 0.026355,0.06024 v 0.135539 q 0,0.03765 -0.026355,0.064 -0.02259,0.02259 -0.060239,0.02259 z" />
      <path
         id="path2772"
         style="font-size:3.76496px;line-height:1.05;font-family:Rubik;-inkscape-font-specification:'Rubik, Normal';stroke-width:0.0941244"
         d="m 11.039922,14.124651 q -0.387791,0 -0.617453,-0.237192 -0.229663,-0.240958 -0.252253,-0.655103 -0.0038,-0.04894 -0.0038,-0.124244 0,-0.07906 0.0038,-0.128008 0.01506,-0.267313 0.124244,-0.466856 0.109184,-0.203307 0.297432,-0.312491 0.192013,-0.109184 0.44803,-0.109184 0.286137,0 0.47815,0.120479 0.195778,0.120478 0.297432,0.342611 0.101654,0.222133 0.101654,0.519565 v 0.064 q 0,0.04141 -0.02636,0.064 -0.02259,0.02259 -0.06024,0.02259 h -1.302677 q 0,0.0038 0,0.01506 0,0.0113 0,0.01882 0.0075,0.154363 0.06777,0.289902 0.06024,0.131773 0.173188,0.214602 0.112949,0.08283 0.271077,0.08283 0.135539,0 0.225898,-0.04141 0.09036,-0.04141 0.146833,-0.09036 0.05647,-0.05271 0.0753,-0.07906 0.03388,-0.04894 0.05271,-0.05647 0.01883,-0.0113 0.06024,-0.0113 h 0.180718 q 0.03765,0 0.06024,0.02259 0.02635,0.01883 0.02259,0.05647 -0.0038,0.05647 -0.06024,0.139304 -0.05647,0.07906 -0.161893,0.158128 -0.105419,0.07906 -0.256018,0.131774 -0.150598,0.04894 -0.346376,0.04894 z m -0.512035,-1.159607 h 1.0316 v -0.0113 q 0,-0.169423 -0.064,-0.301197 -0.06024,-0.131774 -0.176953,-0.207073 -0.116714,-0.07906 -0.278607,-0.07906 -0.161893,0 -0.278607,0.07906 -0.112949,0.0753 -0.173188,0.207073 -0.06024,0.131774 -0.06024,0.301197 z" />
      <path
         id="path2774"
         style="font-size:3.76496px;line-height:1.05;font-family:Rubik;-inkscape-font-specification:'Rubik, Normal';stroke-width:0.0941244"
         d="m 14.287906,14.124651 q -0.346376,0 -0.576039,-0.128008 -0.225897,-0.128009 -0.342611,-0.357671 -0.116714,-0.229663 -0.128009,-0.534625 -0.0038,-0.154363 -0.0038,-0.331316 0,-0.176953 0.0038,-0.338847 0.0113,-0.304961 0.128009,-0.534624 0.116714,-0.229663 0.342611,-0.357671 0.229663,-0.128009 0.576039,-0.128009 0.259782,0 0.45556,0.07153 0.195778,0.07153 0.323787,0.192013 0.131773,0.120479 0.199543,0.271077 0.06777,0.146834 0.0753,0.304962 0.0038,0.03388 -0.02259,0.05648 -0.02259,0.02259 -0.05647,0.02259 h -0.207073 q -0.03388,0 -0.06024,-0.01882 -0.02259,-0.01882 -0.03388,-0.06777 -0.064,-0.293667 -0.240958,-0.40285 -0.173188,-0.109184 -0.436735,-0.109184 -0.301197,0 -0.47815,0.173188 -0.176953,0.169423 -0.192013,0.545919 -0.01129,0.308727 0,0.632513 0.01506,0.376496 0.192013,0.549685 0.176953,0.169423 0.47815,0.169423 0.263547,0 0.436735,-0.109184 0.176954,-0.109184 0.240958,-0.402851 0.0113,-0.04894 0.03388,-0.06777 0.02635,-0.01882 0.06024,-0.01882 h 0.207073 q 0.03388,0 0.05647,0.02259 0.02636,0.02259 0.02259,0.05647 -0.0075,0.158129 -0.0753,0.308727 -0.06777,0.146833 -0.199543,0.267312 -0.128009,0.120479 -0.323787,0.192013 -0.195778,0.07153 -0.45556,0.07153 z" />
      <path
         id="path2776"
         style="font-size:3.76496px;line-height:1.05;font-family:Rubik;-inkscape-font-specification:'Rubik, Normal';stroke-width:0.0941244"
         d="m 15.888072,14.087002 q -0.03765,0 -0.064,-0.02259 -0.02259,-0.02636 -0.02259,-0.064 v -2.499934 q 0,-0.03765 0.02259,-0.06024 0.02635,-0.02635 0.064,-0.02635 h 0.176953 q 0.04142,0 0.06401,0.02635 0.02259,0.02259 0.02259,0.06024 v 2.499934 q 0,0.03765 -0.02259,0.064 -0.02259,0.02259 -0.06401,0.02259 z" />
      <path
         id="path2778"
         style="font-size:3.76496px;line-height:1.05;font-family:Rubik;-inkscape-font-specification:'Rubik, Normal';stroke-width:0.0941244"
         d="m 17.511476,14.124651 q -0.286137,0 -0.47815,-0.109183 -0.192013,-0.109184 -0.293667,-0.301197 -0.101654,-0.195778 -0.112949,-0.444266 -0.0038,-0.064 -0.0038,-0.161893 0,-0.101654 0.0038,-0.161893 0.0113,-0.252252 0.112949,-0.444265 0.105419,-0.192013 0.297432,-0.301197 0.192013,-0.109184 0.474385,-0.109184 0.282372,0 0.474385,0.109184 0.192013,0.109184 0.293667,0.301197 0.105419,0.192013 0.116714,0.444265 0.0038,0.06024 0.0038,0.161893 0,0.09789 -0.0038,0.161893 -0.0113,0.248488 -0.112949,0.444266 -0.101654,0.192013 -0.293667,0.301197 -0.192013,0.109183 -0.47815,0.109183 z m 0,-0.289902 q 0.233427,0 0.372731,-0.146833 0.139303,-0.150598 0.150598,-0.436735 0.0038,-0.05648 0.0038,-0.143069 0,-0.08659 -0.0038,-0.143068 -0.01129,-0.286137 -0.150598,-0.432971 -0.139304,-0.150598 -0.372731,-0.150598 -0.233428,0 -0.376496,0.150598 -0.139304,0.146834 -0.146834,0.432971 -0.0038,0.05647 -0.0038,0.143068 0,0.08659 0.0038,0.143069 0.0075,0.286137 0.146834,0.436735 0.143068,0.146833 0.376496,0.146833 z" />
      <path
         id="path2780"
         style="font-size:3.76496px;line-height:1.05;font-family:Rubik;-inkscape-font-specification:'Rubik, Normal';stroke-width:0.0941244"
         d="m 19.601853,14.124651 q -0.240958,0 -0.410381,-0.105418 -0.165658,-0.109184 -0.252252,-0.301197 -0.08659,-0.192013 -0.08659,-0.440501 v -1.061718 q 0,-0.03765 0.02259,-0.06024 0.02635,-0.02635 0.064,-0.02635 h 0.188248 q 0.03765,0 0.06024,0.02635 0.02635,0.02259 0.02635,0.06024 v 1.042894 q 0,0.560979 0.489445,0.560979 0.233427,0 0.372731,-0.146834 0.143068,-0.150598 0.143068,-0.414145 v -1.042894 q 0,-0.03765 0.02259,-0.06024 0.02635,-0.02635 0.064,-0.02635 h 0.184483 q 0.04141,0 0.064,0.02635 0.02259,0.02259 0.02259,0.06024 v 1.784591 q 0,0.03765 -0.02259,0.064 -0.02259,0.02259 -0.064,0.02259 h -0.173188 q -0.03765,0 -0.064,-0.02259 -0.02259,-0.02636 -0.02259,-0.064 v -0.165659 q -0.101654,0.131774 -0.248487,0.210838 -0.143069,0.07906 -0.380261,0.07906 z" />
      <path
         id="path2782"
         style="font-size:3.76496px;line-height:1.05;font-family:Rubik;-inkscape-font-specification:'Rubik, Normal';stroke-width:0.0941244"
         d="m 21.851651,14.124651 q -0.207073,0 -0.357671,-0.07153 -0.150599,-0.0753 -0.248487,-0.199543 -0.09412,-0.128008 -0.143069,-0.289902 -0.04518,-0.161893 -0.05271,-0.342611 -0.0038,-0.06024 -0.0038,-0.112949 0,-0.05271 0.0038,-0.112949 0.0075,-0.176953 0.05271,-0.338846 0.04894,-0.161893 0.143069,-0.289902 0.09789,-0.128009 0.248487,-0.199543 0.150598,-0.0753 0.357671,-0.0753 0.222133,0 0.368966,0.07906 0.146834,0.07906 0.240958,0.195778 v -0.865941 q 0,-0.03765 0.02259,-0.06024 0.02635,-0.02635 0.06401,-0.02635 h 0.180718 q 0.03765,0 0.06024,0.02635 0.02635,0.02259 0.02635,0.06024 v 2.499934 q 0,0.03765 -0.02635,0.064 -0.02259,0.02259 -0.06024,0.02259 H 22.55947 q -0.04141,0 -0.064,-0.02259 -0.02259,-0.02636 -0.02259,-0.064 v -0.158129 q -0.09412,0.120479 -0.244722,0.203308 -0.150598,0.07906 -0.376496,0.07906 z m 0.07906,-0.304961 q 0.188248,0 0.301197,-0.08659 0.112949,-0.08659 0.169423,-0.218368 0.05647,-0.135539 0.06024,-0.274842 0.0038,-0.06024 0.0038,-0.143069 0,-0.08659 -0.0038,-0.146833 -0.0038,-0.131774 -0.064,-0.259782 -0.05647,-0.128009 -0.173188,-0.210838 -0.112949,-0.08283 -0.293667,-0.08283 -0.192013,0 -0.304962,0.08659 -0.112948,0.08283 -0.161893,0.222132 -0.04894,0.135539 -0.05647,0.293667 -0.0038,0.109184 0,0.218368 0.0075,0.158128 0.05647,0.297432 0.04894,0.135538 0.161893,0.222133 0.112949,0.08283 0.304962,0.08283 z" />
      <path
         id="path2784"
         style="font-size:3.76496px;line-height:1.05;font-family:Rubik;-inkscape-font-specification:'Rubik, Normal';stroke-width:0.0941244"
         d="m 24.067331,14.087002 q -0.03012,0 -0.05271,-0.02259 -0.02259,-0.02259 -0.02259,-0.05271 0,-0.01883 0.0038,-0.04142 l 0.93371,-2.435929 q 0.01506,-0.03765 0.04142,-0.06024 0.02635,-0.02259 0.07906,-0.02259 h 0.256017 q 0.04894,0 0.0753,0.02259 0.03012,0.02259 0.04518,0.06024 l 0.929945,2.435929 q 0.0075,0.02259 0.0075,0.04142 0,0.03012 -0.02259,0.05271 -0.02259,0.02259 -0.05271,0.02259 H 26.09665 q -0.04518,0 -0.06777,-0.02259 -0.01882,-0.02259 -0.02635,-0.04142 L 25.795447,13.488373 H 24.56054 l -0.207072,0.534624 q -0.0038,0.01882 -0.02635,0.04142 -0.02259,0.02259 -0.06777,0.02259 z m 0.602393,-0.922415 h 1.016539 l -0.508269,-1.336561 z" />
      <path
         id="path2786"
         style="font-size:3.76496px;line-height:1.05;font-family:Rubik;-inkscape-font-specification:'Rubik, Normal';stroke-width:0.0941244"
         d="m 26.807928,14.802344 q -0.03765,0 -0.064,-0.02636 -0.02259,-0.02259 -0.02259,-0.06024 v -2.499933 q 0,-0.03765 0.02259,-0.06024 0.02635,-0.02635 0.064,-0.02635 h 0.173189 q 0.03765,0 0.06024,0.02635 0.02635,0.02259 0.02635,0.06024 v 0.165658 q 0.09036,-0.124244 0.240957,-0.207073 0.150598,-0.08283 0.376496,-0.08283 0.210838,0 0.357671,0.07153 0.150599,0.07153 0.244723,0.195778 0.09789,0.124244 0.146833,0.282372 0.04894,0.158128 0.05271,0.338847 0.0038,0.06024 0.0038,0.128008 0,0.06777 -0.0038,0.128009 -0.0038,0.176953 -0.05271,0.338846 -0.04894,0.158129 -0.146833,0.282372 -0.09412,0.120479 -0.244723,0.195778 -0.146833,0.07153 -0.357671,0.07153 -0.218368,0 -0.368966,-0.07906 -0.146833,-0.08283 -0.240957,-0.203308 v 0.873471 q 0,0.03765 -0.02259,0.06024 -0.02259,0.02636 -0.06401,0.02636 z M 27.6061,13.81969 q 0.195778,0 0.304962,-0.08283 0.112948,-0.08659 0.161893,-0.222133 0.04894,-0.139304 0.05647,-0.297432 0.0038,-0.109184 0,-0.218368 -0.0075,-0.158128 -0.05647,-0.293667 -0.04894,-0.139303 -0.161893,-0.222132 -0.109184,-0.08659 -0.304962,-0.08659 -0.184483,0 -0.301197,0.08659 -0.112949,0.08659 -0.169423,0.222132 -0.05271,0.131774 -0.06024,0.271078 -0.0038,0.06024 -0.0038,0.143068 0,0.08283 0.0038,0.146834 0.0038,0.131773 0.06024,0.259782 0.06024,0.128008 0.176953,0.210838 0.116714,0.08283 0.293667,0.08283 z" />
      <path
         id="path2788"
         style="font-size:3.76496px;line-height:1.05;font-family:Rubik;-inkscape-font-specification:'Rubik, Normal';stroke-width:0.0941244"
         d="m 29.050726,14.802344 q -0.03765,0 -0.064,-0.02636 -0.02259,-0.02259 -0.02259,-0.06024 v -2.499933 q 0,-0.03765 0.02259,-0.06024 0.02635,-0.02635 0.064,-0.02635 h 0.173188 q 0.03765,0 0.06024,0.02635 0.02635,0.02259 0.02635,0.06024 v 0.165658 q 0.09036,-0.124244 0.240958,-0.207073 0.150598,-0.08283 0.376496,-0.08283 0.210838,0 0.357671,0.07153 0.150599,0.07153 0.244723,0.195778 0.09789,0.124244 0.146833,0.282372 0.04894,0.158128 0.05271,0.338847 0.0038,0.06024 0.0038,0.128008 0,0.06777 -0.0038,0.128009 -0.0038,0.176953 -0.05271,0.338846 -0.04894,0.158129 -0.146833,0.282372 -0.09412,0.120479 -0.244723,0.195778 -0.146833,0.07153 -0.357671,0.07153 -0.218368,0 -0.368966,-0.07906 -0.146834,-0.08283 -0.240958,-0.203308 v 0.873471 q 0,0.03765 -0.02259,0.06024 -0.02259,0.02636 -0.06401,0.02636 z m 0.798172,-0.982654 q 0.195778,0 0.304962,-0.08283 0.112948,-0.08659 0.161893,-0.222133 0.04894,-0.139304 0.05647,-0.297432 0.0038,-0.109184 0,-0.218368 -0.0075,-0.158128 -0.05647,-0.293667 -0.04894,-0.139303 -0.161893,-0.222132 -0.109184,-0.08659 -0.304962,-0.08659 -0.184483,0 -0.301197,0.08659 -0.112949,0.08659 -0.169423,0.222132 -0.05271,0.131774 -0.06024,0.271078 -0.0038,0.06024 -0.0038,0.143068 0,0.08283 0.0038,0.146834 0.0038,0.131773 0.06024,0.259782 0.06024,0.128008 0.176953,0.210838 0.116714,0.08283 0.293667,0.08283 z" />
      <path
         id="path2790"
         style="font-size:3.76496px;line-height:1.05;font-family:Rubik;-inkscape-font-specification:'Rubik, Normal';stroke-width:0.0941244"
         d="m 31.293524,14.087002 q -0.03765,0 -0.064,-0.02259 -0.02259,-0.02636 -0.02259,-0.064 v -2.499934 q 0,-0.03765 0.02259,-0.06024 0.02635,-0.02635 0.064,-0.02635 h 0.176953 q 0.04142,0 0.06401,0.02635 0.02259,0.02259 0.02259,0.06024 v 2.499934 q 0,0.03765 -0.02259,0.064 -0.02259,0.02259 -0.06401,0.02259 z" />
      <path
         id="path2792"
         style="font-size:3.76496px;line-height:1.05;font-family:Rubik;-inkscape-font-specification:'Rubik, Normal';stroke-width:0.0941244"
         d="m 32.201586,14.087002 q -0.03765,0 -0.064,-0.02259 -0.02259,-0.02636 -0.02259,-0.064 v -1.784591 q 0,-0.03765 0.02259,-0.06024 0.02635,-0.02635 0.064,-0.02635 h 0.180718 q 0.03765,0 0.06024,0.02635 0.02259,0.02259 0.02259,0.06024 v 1.784591 q 0,0.03765 -0.02259,0.064 -0.02259,0.02259 -0.06024,0.02259 z m -0.03012,-2.322981 q -0.03765,0 -0.06401,-0.02259 -0.02259,-0.02635 -0.02259,-0.064 V 11.47412 q 0,-0.03765 0.02259,-0.06024 0.02636,-0.02636 0.06401,-0.02636 h 0.237192 q 0.03765,0 0.06024,0.02636 0.02635,0.02259 0.02635,0.06024 v 0.203307 q 0,0.03765 -0.02635,0.064 -0.02259,0.02259 -0.06024,0.02259 z" />
      <path
         id="path2794"
         style="font-size:3.76496px;line-height:1.05;font-family:Rubik;-inkscape-font-specification:'Rubik, Normal';stroke-width:0.0941244"
         d="m 33.572738,14.124651 q -0.188248,0 -0.342611,-0.0753 -0.154363,-0.0753 -0.248487,-0.203308 -0.09412,-0.128008 -0.09412,-0.289902 0,-0.259782 0.210837,-0.414145 0.210838,-0.154364 0.549685,-0.203308 l 0.560979,-0.07906 v -0.109184 q 0,-0.180718 -0.105419,-0.282372 -0.101654,-0.101654 -0.335082,-0.101654 -0.169423,0 -0.274842,0.06777 -0.101654,0.06777 -0.143068,0.173189 -0.02259,0.05647 -0.07906,0.05647 h -0.169424 q -0.04141,0 -0.064,-0.02259 -0.01882,-0.02635 -0.01882,-0.06024 0,-0.05648 0.04142,-0.139304 0.04518,-0.08283 0.135538,-0.161893 0.09036,-0.07906 0.229663,-0.131774 0.143068,-0.05647 0.346376,-0.05647 0.225898,0 0.380261,0.06024 0.154364,0.05648 0.240958,0.154364 0.09036,0.09789 0.128008,0.222132 0.04142,0.124244 0.04142,0.252253 v 1.219847 q 0,0.03765 -0.02635,0.064 -0.02259,0.02259 -0.06024,0.02259 h -0.173188 q -0.04141,0 -0.064,-0.02259 -0.02259,-0.02636 -0.02259,-0.064 v -0.161894 q -0.04894,0.06777 -0.131774,0.135539 -0.08283,0.064 -0.207073,0.109184 -0.124243,0.04141 -0.304962,0.04141 z m 0.07906,-0.282372 q 0.154363,0 0.282372,-0.064 0.128008,-0.06777 0.199542,-0.207073 0.0753,-0.139303 0.0753,-0.350141 v -0.105419 l -0.436736,0.064 q -0.267312,0.03765 -0.40285,0.128009 -0.135539,0.08659 -0.135539,0.222133 0,0.105419 0.06024,0.176953 0.06401,0.06777 0.158129,0.101654 0.09789,0.03388 0.199543,0.03388 z" />
      <path
         id="path2796"
         style="font-size:3.76496px;line-height:1.05;font-family:Rubik;-inkscape-font-specification:'Rubik, Normal';stroke-width:0.0941244"
         d="m 35.194434,14.087002 q -0.03765,0 -0.06401,-0.02259 -0.02259,-0.02636 -0.02259,-0.064 v -1.784591 q 0,-0.03765 0.02259,-0.06024 0.02636,-0.02635 0.06401,-0.02635 h 0.176953 q 0.03765,0 0.06024,0.02635 0.02635,0.02259 0.02635,0.06024 v 0.165658 q 0.09789,-0.128009 0.244722,-0.207073 0.150599,-0.08283 0.384026,-0.08283 0.244723,0 0.414146,0.109184 0.173188,0.105419 0.259782,0.297432 0.08659,0.188248 0.08659,0.4405 v 1.061719 q 0,0.03765 -0.02259,0.064 -0.02259,0.02259 -0.06024,0.02259 h -0.188248 q -0.03765,0 -0.064,-0.02259 -0.02259,-0.02636 -0.02259,-0.064 v -1.042894 q 0,-0.263547 -0.128009,-0.410381 -0.128008,-0.150598 -0.376496,-0.150598 -0.233427,0 -0.376496,0.150598 -0.139303,0.146834 -0.139303,0.410381 v 1.042894 q 0,0.03765 -0.02636,0.064 -0.02259,0.02259 -0.06024,0.02259 z" />
      <path
         id="path2798"
         style="font-size:3.76496px;line-height:1.05;font-family:Rubik;-inkscape-font-specification:'Rubik, Normal';stroke-width:0.0941244"
         d="m 38.178049,14.124651 q -0.267312,0 -0.46309,-0.101654 -0.192013,-0.105418 -0.297432,-0.297431 -0.105419,-0.195778 -0.112949,-0.466855 -0.0038,-0.05648 -0.0038,-0.150599 0,-0.09412 0.0038,-0.150598 0.0075,-0.271077 0.112949,-0.46309 0.105419,-0.195778 0.297432,-0.297432 0.195778,-0.105419 0.46309,-0.105419 0.218368,0 0.372731,0.06024 0.158128,0.06024 0.259782,0.154364 0.101654,0.09412 0.150599,0.203308 0.05271,0.109183 0.05647,0.207072 0.0038,0.03765 -0.02259,0.06024 -0.02635,0.02259 -0.064,0.02259 h -0.180718 q -0.03765,0 -0.05647,-0.01506 -0.01882,-0.01882 -0.03765,-0.06024 -0.06777,-0.184483 -0.184483,-0.259782 -0.116714,-0.0753 -0.289902,-0.0753 -0.225898,0 -0.368966,0.139303 -0.139304,0.139304 -0.150599,0.448031 -0.0038,0.135538 0,0.263547 0.01129,0.312491 0.150599,0.451795 0.143068,0.135539 0.368966,0.135539 0.173188,0 0.289902,-0.0753 0.116714,-0.0753 0.184483,-0.259782 0.01882,-0.04141 0.03765,-0.05647 0.01882,-0.01882 0.05647,-0.01882 h 0.180718 q 0.03765,0 0.064,0.02259 0.02636,0.02259 0.02259,0.06024 -0.0038,0.07906 -0.03388,0.161893 -0.03012,0.08283 -0.09789,0.169424 -0.064,0.08283 -0.161893,0.150598 -0.09789,0.064 -0.237192,0.105419 -0.135539,0.03765 -0.308727,0.03765 z" />
      <path
         id="path2800"
         style="font-size:3.76496px;line-height:1.05;font-family:Rubik;-inkscape-font-specification:'Rubik, Normal';stroke-width:0.0941244"
         d="m 40.247774,14.124651 q -0.38779,0 -0.617453,-0.237192 -0.229663,-0.240958 -0.252252,-0.655103 -0.0038,-0.04894 -0.0038,-0.124244 0,-0.07906 0.0038,-0.128008 0.01506,-0.267313 0.124243,-0.466856 0.109184,-0.203307 0.297432,-0.312491 0.192013,-0.109184 0.44803,-0.109184 0.286137,0 0.47815,0.120479 0.195778,0.120478 0.297432,0.342611 0.101654,0.222133 0.101654,0.519565 v 0.064 q 0,0.04141 -0.02636,0.064 -0.02259,0.02259 -0.06024,0.02259 h -1.30267 q 0,0.0038 0,0.01506 0,0.0113 0,0.01882 0.0075,0.154363 0.06777,0.289902 0.06024,0.131773 0.173188,0.214602 0.112949,0.08283 0.271077,0.08283 0.135539,0 0.225898,-0.04141 0.09036,-0.04141 0.146833,-0.09036 0.05647,-0.05271 0.0753,-0.07906 0.03388,-0.04894 0.05271,-0.05647 0.01882,-0.0113 0.06024,-0.0113 h 0.180719 q 0.03765,0 0.06024,0.02259 0.02635,0.01883 0.02259,0.05647 -0.0038,0.05647 -0.06024,0.139304 -0.05647,0.07906 -0.161893,0.158128 -0.105419,0.07906 -0.256017,0.131774 -0.150599,0.04894 -0.346377,0.04894 z M 39.73574,12.965044 h 1.031599 v -0.0113 q 0,-0.169423 -0.064,-0.301197 -0.06024,-0.131774 -0.176954,-0.207073 -0.116713,-0.07906 -0.278607,-0.07906 -0.161893,0 -0.278607,0.07906 -0.112948,0.0753 -0.173188,0.207073 -0.06024,0.131774 -0.06024,0.301197 z" />
    </g>
  </g>
</svg>
