<?xml version="1.0" encoding="UTF-8" standalone="no"?>
<svg xmlns:dc="http://purl.org/dc/elements/1.1/"
  xmlns:cc="http://creativecommons.org/ns#"
  xmlns:rdf="http://www.w3.org/1999/02/22-rdf-syntax-ns#"
  xmlns:svg="http://www.w3.org/2000/svg"
  xmlns="http://www.w3.org/2000/svg"
  id="svg872"
  version="1.1"
  viewBox="0 0 192 128"
  height="128px"
  width="192px">
  <g
    fill-rule="evenodd"
    fill="none"
    stroke-width="1"
    stroke="none"
    id="Provider/OracleVM/oraclevm-128">
    <g
      transform="translate(27.000000, 42.000000)"
      id="Group">
      <path
        fill="#EC1D24"
        id="ORACLE"
        d="M126.022105,14.8552972 C123.391077,14.8552972 121.158469,13.0909091 120.475811,10.6576335 L135.123405,10.6576335 L137.142631,7.51293074 L120.475811,7.51293074 C121.158469,5.09424025 123.391077,3.3156722 126.022105,3.3156722 L136.075725,3.3156722 L138.109528,0.170564271 L125.794552,0.170564271 C120.873826,0.170564271 116.878291,4.16930383 116.878291,9.09257467 C116.878291,14.0158455 120.873826,18 125.794552,18 L136.360368,18 L138.38,14.8552972 L126.022105,14.8552972 L126.022105,14.8552972 Z M84.1135318,18 C79.193615,18 75.1976756,14.0158455 75.1976756,9.09257467 C75.1976756,4.16930383 79.193615,0.170564271 84.1135318,0.170564271 L96.4147411,0.170564271 L94.4096857,3.3156722 L84.3414894,3.3156722 C81.1557512,3.3156722 78.5676425,5.9053321 78.5676425,9.09257467 C78.5676425,12.2798172 81.1557512,14.8552972 84.3414894,14.8552972 L96.6989795,14.8552972 L94.6797527,18 L84.1135318,18 Z M19.0370941,14.8552972 C22.2244519,14.8552972 24.8052725,12.2798172 24.8052725,9.09257467 C24.8052725,5.9053321 22.2244519,3.3156722 19.0370941,3.3156722 L9.13976487,3.3156722 C5.9544315,3.3156722 3.3715865,5.9053321 3.3715865,9.09257467 C3.3715865,12.2798172 5.9544315,14.8552972 9.13976487,14.8552972 L19.0370941,14.8552972 Z M8.91099744,18 C3.99189039,18 0,14.0158455 0,9.09257467 C0,4.16930383 3.99189039,0.170564271 8.91099744,0.170564271 L19.267886,0.170564271 C24.1878028,0.170564271 28.176859,4.16930383 28.176859,9.09257467 C28.176859,14.0158455 24.1878028,18 19.267886,18 L8.91099744,18 Z M44.992682,12.2226924 C48.3205396,12.2226924 51.0224246,9.53377299 51.0224246,6.20392086 C51.0224246,2.87447388 48.3205396,0.170564271 44.992682,0.170564271 L30.0001151,0.170564271 L30.0001151,18 L33.425958,18 L33.425958,3.3156722 L44.7651293,3.3156722 C46.3579984,3.3156722 47.6378814,4.61009701 47.6378814,6.20392086 C47.6378814,7.79774472 46.3579984,9.09257467 44.7651293,9.09257467 L35.1038557,9.07839474 L45.3340111,18 L50.3114235,18 L43.4285607,12.2226924 L44.992682,12.2226924 Z M101.690563,14.8552972 L101.690563,0.170564271 L98.2631009,0.170564271 L98.2631009,16.2923316 C98.2631009,16.7335299 98.4339679,17.1605483 98.7611256,17.487902 C99.0878783,17.8148507 99.5288124,18 100.012666,18 L115.640923,18 L117.660554,14.8552972 L101.690563,14.8552972 Z M59.7394758,11.7105944 L68.8832897,11.7105944 L64.0484014,3.92743478 L55.1746546,18 L51.136201,18 L61.9295697,1.09590583 C62.3988466,0.412838461 63.1811097,0 64.0484014,0 C64.8877552,0 65.6696134,0.398253393 66.124314,1.06714083 L76.9606019,18 L72.9221483,18 L71.0162929,14.8552972 L61.7587027,14.8552972 L59.7394758,11.7105944 Z M140.223439,3.68428017 C139.209304,3.68428017 138.38,2.86112903 138.38,1.8419541 C138.38,0.823151136 139.209304,0 140.223439,0 C141.250696,0 142.08,0.823151136 142.08,1.8419541 C142.08,2.86112903 141.250696,3.68428017 140.223439,3.68428017 Z M140.052105,0.744667228 C140.341911,0.744667228 140.460383,0.757685886 140.592352,0.810132478 C140.96089,0.927672361 141.00063,1.25425469 141.00063,1.38481323 C141.00063,1.41085055 141.00063,1.4763158 140.974012,1.55442774 C140.96089,1.63291165 140.908027,1.78987947 140.723571,1.90741935 C140.697702,1.92043801 140.68458,1.93345667 140.631717,1.95949398 L141.10598,2.8090544 L140.644839,2.8090544 L140.223439,2.02495923 L139.934007,2.02495923 L139.934007,2.8090544 L139.525729,2.8090544 L139.525729,0.744667228 L140.052105,0.744667228 Z M140.197195,1.68535825 C140.328789,1.67233959 140.460383,1.67233959 140.539489,1.55442774 C140.57923,1.50235311 140.592352,1.45027848 140.592352,1.37179457 C140.592352,1.26727335 140.526367,1.17577078 140.434139,1.12369615 C140.341911,1.08426822 140.250058,1.08426822 140.052105,1.08426822 L139.934007,1.08426822 L139.934007,1.68535825 L140.197195,1.68535825 Z M138.775157,1.82893544 C138.775157,2.63906792 139.420379,3.27921393 140.223439,3.27921393 C141.039996,3.27921393 141.685218,2.63906792 141.685218,1.82893544 C141.685218,1.03219358 141.039996,0.392047581 140.223439,0.392047581 C139.420379,0.392047581 138.775157,1.03219358 138.775157,1.82893544 Z" />
      <g
        style="font-size:14.1565px;line-height:1.05;font-family:Rubik;-inkscape-font-specification:'Rubik, Normal';fill:#000000;fill-opacity:1;stroke-width:0.353912"
        id="text890"
        aria-label="Private Cloud Appliance X9-2">
        <path
          id="path1483"
          style="stroke-width:0.353912"
          d="m -25.51742,42.501595 q -0.155721,0 -0.24066,-0.08494 -0.08494,-0.0991 -0.08494,-0.240661 v -9.244194 q 0,-0.155722 0.08494,-0.240661 0.08494,-0.09909 0.24066,-0.09909 h 3.595751 q 1.047581,0 1.812032,0.339756 0.778608,0.339756 1.203303,1.019268 0.424695,0.665355 0.424695,1.670467 0,1.005111 -0.424695,1.670467 -0.424695,0.665355 -1.203303,1.005111 -0.764451,0.339756 -1.812032,0.339756 h -2.5057 v 3.539125 q 0,0.141565 -0.0991,0.240661 -0.08494,0.08494 -0.24066,0.08494 z m 1.075894,-5.053871 h 2.449075 q 1.047581,0 1.571371,-0.467164 0.523791,-0.467165 0.523791,-1.359024 0,-0.877703 -0.509634,-1.359024 -0.509634,-0.481321 -1.585528,-0.481321 h -2.449075 z" />
        <path
          id="path1485"
          style="stroke-width:0.353912"
          d="m -16.604797,42.501595 q -0.141565,0 -0.240661,-0.08494 -0.08494,-0.0991 -0.08494,-0.240661 v -6.696024 q 0,-0.141565 0.08494,-0.240661 0.0991,-0.0991 0.240661,-0.0991 h 0.651199 q 0.141565,0 0.24066,0.0991 0.0991,0.0991 0.0991,0.240661 v 0.622886 q 0.28313,-0.481321 0.778607,-0.721982 0.495478,-0.24066 1.189146,-0.24066 h 0.56626 q 0.141565,0 0.226504,0.0991 0.08494,0.08494 0.08494,0.226504 v 0.580417 q 0,0.141565 -0.08494,0.226504 -0.08494,0.08494 -0.226504,0.08494 h -0.84939 q -0.764451,0 -1.203302,0.453008 -0.438852,0.438851 -0.438852,1.203302 v 4.162011 q 0,0.141565 -0.0991,0.240661 -0.0991,0.08494 -0.240661,0.08494 z" />
        <path
          id="path1487"
          style="stroke-width:0.353912"
          d="m -11.213161,42.501595 q -0.141565,0 -0.240661,-0.08494 -0.08494,-0.0991 -0.08494,-0.240661 v -6.710181 q 0,-0.141565 0.08494,-0.226504 0.0991,-0.0991 0.240661,-0.0991 h 0.679512 q 0.141565,0 0.226504,0.0991 0.08494,0.08494 0.08494,0.226504 v 6.710181 q 0,0.141565 -0.08494,0.240661 -0.08494,0.08494 -0.226504,0.08494 z m -0.113252,-8.734561 q -0.141565,0 -0.240661,-0.08494 -0.08494,-0.09909 -0.08494,-0.24066 v -0.764451 q 0,-0.141565 0.08494,-0.226504 0.0991,-0.0991 0.240661,-0.0991 h 0.891859 q 0.141565,0 0.226504,0.0991 0.0991,0.08494 0.0991,0.226504 v 0.764451 q 0,0.141565 -0.0991,0.24066 -0.08494,0.08494 -0.226504,0.08494 z" />
        <path
          id="path1489"
          style="stroke-width:0.353912"
          d="m -5.5479066,42.501595 q -0.2123475,0 -0.339756,-0.0991 -0.113252,-0.09909 -0.1840345,-0.254817 l -2.6189524,-6.568616 q -0.028313,-0.07078 -0.028313,-0.141565 0,-0.127408 0.084939,-0.212347 0.084939,-0.08494 0.2123475,-0.08494 h 0.679512 q 0.1557215,0 0.2406605,0.08494 0.084939,0.08494 0.099095,0.155721 l 2.1659444,5.577661 2.151788,-5.577661 q 0.028313,-0.07078 0.099096,-0.155721 0.084939,-0.08494 0.2406605,-0.08494 h 0.6936685 q 0.113252,0 0.198191,0.08494 0.099096,0.08494 0.099096,0.212347 0,0.07078 -0.028313,0.141565 l -2.633109,6.568616 q -0.056626,0.155722 -0.1840345,0.254817 -0.113252,0.0991 -0.339756,0.0991 z" />
        <path
          id="path1491"
          style="stroke-width:0.353912"
          d="m 1.5183986,42.64316 q -0.70782497,0 -1.28824146,-0.28313 -0.5804165,-0.28313 -0.934329,-0.764451 -0.35391254,-0.481321 -0.35391254,-1.090051 0,-0.976798 0.79276404,-1.557215 0.79276399,-0.580416 2.06684896,-0.764451 l 2.1093185,-0.297286 v -0.410539 q 0,-0.679512 -0.396382,-1.061737 -0.3822255,-0.382226 -1.2599285,-0.382226 -0.6370425,0 -1.0334245,0.254817 -0.38222547,0.254817 -0.53794697,0.651199 -0.084939,0.212348 -0.2972865,0.212348 h -0.63704249 q -0.1557215,0 -0.2406605,-0.08494 -0.0707825,-0.0991 -0.0707825,-0.226504 0,-0.212348 0.1557215,-0.523791 0.169878,-0.311443 0.509634,-0.608729 0.33975599,-0.297287 0.86354649,-0.495478 0.53794697,-0.212347 1.30239797,-0.212347 0.84939,0 1.4298065,0.226504 0.5804165,0.212347 0.906016,0.580416 0.339756,0.368069 0.481321,0.835234 0.1557215,0.467164 0.1557215,0.948485 v 4.586706 q 0,0.141565 -0.099095,0.240661 -0.084939,0.08494 -0.226504,0.08494 h -0.651199 q -0.1557215,0 -0.2406605,-0.08494 -0.084939,-0.0991 -0.084939,-0.240661 V 41.567266 Q 3.7551256,41.822083 3.4436826,42.0769 3.1322396,42.31756 2.6650751,42.487438 2.1979106,42.64316 1.5183986,42.64316 Z m 0.2972865,-1.061738 q 0.5804165,0 1.0617375,-0.24066 0.481321,-0.254817 0.7502945,-0.778608 0.28313,-0.52379 0.28313,-1.316554 v -0.396382 l -1.642154,0.24066 q -1.0051115,0.141565 -1.51474547,0.481321 -0.509634,0.3256 -0.509634,0.835234 0,0.396382 0.226504,0.665355 0.2406605,0.254817 0.59457297,0.382226 0.368069,0.127408 0.7502945,0.127408 z" />
        <path
          id="path1493"
          style="stroke-width:0.353912"
          d="m 10.081312,42.501595 q -0.7927638,0 -1.2882413,-0.297287 -0.4954775,-0.311443 -0.7219815,-0.863546 -0.226504,-0.56626 -0.226504,-1.330711 v -3.737316 h -1.104207 q -0.141565,0 -0.2406605,-0.08494 -0.084939,-0.0991 -0.084939,-0.240661 v -0.481321 q 0,-0.141565 0.084939,-0.226504 0.099096,-0.0991 0.2406605,-0.0991 h 1.104207 v -2.364136 q 0,-0.141565 0.084939,-0.226504 0.099095,-0.09909 0.2406605,-0.09909 h 0.6653555 q 0.141565,0 0.226504,0.09909 0.099095,0.08494 0.099095,0.226504 v 2.364136 h 1.7554063 q 0.141565,0 0.226504,0.0991 0.0991,0.08494 0.0991,0.226504 v 0.481321 q 0,0.141565 -0.0991,0.240661 -0.08494,0.08494 -0.226504,0.08494 H 9.1611397 v 3.63822 q 0,0.665356 0.226504,1.047581 0.226504,0.382226 0.8069203,0.382226 h 0.863547 q 0.141565,0 0.226504,0.0991 0.0991,0.08494 0.0991,0.226504 v 0.509634 q 0,0.141565 -0.0991,0.240661 -0.08494,0.08494 -0.226504,0.08494 z" />
        <path
          id="path1495"
          style="stroke-width:0.353912"
          d="m 15.667819,42.64316 q -1.45812,0 -2.321666,-0.89186 -0.863547,-0.906016 -0.948486,-2.463231 -0.01416,-0.184034 -0.01416,-0.467164 0,-0.297287 0.01416,-0.481321 0.05663,-1.005112 0.467165,-1.755406 0.410538,-0.764451 1.118363,-1.17499 0.721982,-0.410538 1.684624,-0.410538 1.075894,0 1.797875,0.453008 0.736138,0.453008 1.118364,1.288241 0.382225,0.835234 0.382225,1.953597 v 0.240661 q 0,0.155721 -0.0991,0.24066 -0.08494,0.08494 -0.226504,0.08494 h -4.898149 q 0,0.01416 0,0.05663 0,0.04247 0,0.07078 0.02831,0.580416 0.254817,1.09005 0.226504,0.495478 0.651199,0.806921 0.424695,0.311443 1.019268,0.311443 0.509634,0 0.84939,-0.155722 0.339756,-0.155721 0.552103,-0.339756 0.212348,-0.198191 0.28313,-0.297286 0.127409,-0.184035 0.198191,-0.212348 0.07078,-0.04247 0.226504,-0.04247 h 0.679512 q 0.141565,0 0.226504,0.08494 0.0991,0.07078 0.08494,0.212347 -0.01416,0.212348 -0.226504,0.523791 -0.212347,0.297286 -0.608729,0.594573 -0.396382,0.297286 -0.962642,0.495477 -0.56626,0.184035 -1.302398,0.184035 z m -1.925284,-4.360202 h 3.878881 v -0.04247 q 0,-0.637042 -0.240661,-1.13252 -0.226504,-0.495477 -0.665355,-0.778607 -0.438852,-0.297287 -1.047581,-0.297287 -0.60873,0 -1.047581,0.297287 -0.424695,0.28313 -0.651199,0.778607 -0.226504,0.495478 -0.226504,1.13252 z" />
        <path
          id="path1497"
          style="stroke-width:0.353912"
          d="m 27.880455,42.64316 q -1.302398,0 -2.165944,-0.481321 -0.84939,-0.481321 -1.288242,-1.344868 -0.438851,-0.863546 -0.481321,-2.010223 -0.01416,-0.580416 -0.01416,-1.245772 0,-0.665355 0.01416,-1.274085 0.04247,-1.146676 0.481321,-2.010223 0.438852,-0.863546 1.288242,-1.344867 0.863546,-0.481321 2.165944,-0.481321 0.976799,0 1.712937,0.268973 0.736138,0.268974 1.217459,0.721982 0.495477,0.453008 0.750294,1.019268 0.254817,0.552103 0.28313,1.146676 0.01416,0.127409 -0.08494,0.212348 -0.08494,0.08494 -0.212347,0.08494 h -0.778608 q -0.127408,0 -0.226504,-0.07078 -0.08494,-0.07078 -0.127408,-0.254817 -0.240661,-1.104207 -0.906016,-1.514745 -0.651199,-0.410539 -1.642154,-0.410539 -1.13252,0 -1.797876,0.651199 -0.665355,0.637043 -0.721981,2.052693 -0.04247,1.160833 0,2.378292 0.05663,1.41565 0.721981,2.066849 0.665356,0.637042 1.797876,0.637042 0.990955,0 1.642154,-0.410538 0.665355,-0.410539 0.906016,-1.514746 0.04247,-0.184034 0.127408,-0.254817 0.0991,-0.07078 0.226504,-0.07078 h 0.778608 q 0.127408,0 0.212347,0.08494 0.0991,0.08494 0.08494,0.212347 -0.02831,0.594573 -0.28313,1.160833 -0.254817,0.552104 -0.750294,1.005112 -0.481321,0.453008 -1.217459,0.721981 -0.736138,0.268974 -1.712937,0.268974 z" />
        <path
          id="path1499"
          style="stroke-width:0.353912"
          d="m 33.89719,42.501595 q -0.141565,0 -0.24066,-0.08494 -0.08494,-0.0991 -0.08494,-0.240661 v -9.399916 q 0,-0.141565 0.08494,-0.226504 0.0991,-0.09909 0.24066,-0.09909 h 0.665356 q 0.155721,0 0.24066,0.09909 0.08494,0.08494 0.08494,0.226504 v 9.399916 q 0,0.141565 -0.08494,0.240661 -0.08494,0.08494 -0.24066,0.08494 z" />
        <path
          id="path1501"
          style="stroke-width:0.353912"
          d="m 40.001297,42.64316 q -1.075894,0 -1.797876,-0.410539 -0.721981,-0.410538 -1.104207,-1.13252 -0.382225,-0.736138 -0.424695,-1.670467 -0.01416,-0.24066 -0.01416,-0.608729 0,-0.382226 0.01416,-0.60873 0.04247,-0.948485 0.424695,-1.670467 0.396382,-0.721981 1.118364,-1.13252 0.721981,-0.410538 1.783719,-0.410538 1.061737,0 1.783719,0.410538 0.721981,0.410539 1.104207,1.13252 0.396382,0.721982 0.438851,1.670467 0.01416,0.226504 0.01416,0.60873 0,0.368069 -0.01416,0.608729 -0.04247,0.934329 -0.424695,1.670467 -0.382225,0.721982 -1.104207,1.13252 -0.721981,0.410539 -1.797875,0.410539 z m 0,-1.090051 q 0.877703,0 1.401493,-0.552103 0.523791,-0.56626 0.56626,-1.642154 0.01416,-0.212348 0.01416,-0.537947 0,-0.3256 -0.01416,-0.537947 -0.04247,-1.075894 -0.56626,-1.627998 -0.52379,-0.56626 -1.401493,-0.56626 -0.877703,0 -1.41565,0.56626 -0.523791,0.552104 -0.552104,1.627998 -0.01416,0.212347 -0.01416,0.537947 0,0.325599 0.01416,0.537947 0.02831,1.075894 0.552104,1.642154 0.537947,0.552103 1.41565,0.552103 z" />
        <path
          id="path1503"
          style="stroke-width:0.353912"
          d="m 47.861245,42.64316 q -0.906016,0 -1.543059,-0.396382 -0.622886,-0.410539 -0.948485,-1.13252 -0.3256,-0.721982 -0.3256,-1.656311 v -3.992133 q 0,-0.141565 0.08494,-0.226504 0.0991,-0.0991 0.240661,-0.0991 h 0.707825 q 0.141565,0 0.226504,0.0991 0.0991,0.08494 0.0991,0.226504 v 3.921351 q 0,2.109318 1.840345,2.109318 0.877703,0 1.401494,-0.552103 0.537947,-0.56626 0.537947,-1.557215 v -3.921351 q 0,-0.141565 0.08494,-0.226504 0.09909,-0.0991 0.24066,-0.0991 h 0.693669 q 0.155721,0 0.24066,0.0991 0.08494,0.08494 0.08494,0.226504 v 6.710181 q 0,0.141565 -0.08494,0.240661 -0.08494,0.08494 -0.24066,0.08494 H 50.55098 q -0.141565,0 -0.240661,-0.08494 -0.08494,-0.0991 -0.08494,-0.240661 v -0.622886 q -0.382225,0.495478 -0.934329,0.792764 -0.537947,0.297287 -1.429806,0.297287 z" />
        <path
          id="path1505"
          style="stroke-width:0.353912"
          d="m 56.32064,42.64316 q -0.778607,0 -1.344867,-0.268974 -0.56626,-0.28313 -0.934329,-0.750294 -0.353913,-0.481321 -0.537947,-1.090051 -0.169878,-0.608729 -0.198191,-1.288241 -0.01416,-0.226504 -0.01416,-0.424695 0,-0.198191 0.01416,-0.424695 0.02831,-0.665356 0.198191,-1.274085 0.184034,-0.60873 0.537947,-1.090051 0.368069,-0.481321 0.934329,-0.750294 0.56626,-0.28313 1.344867,-0.28313 0.835234,0 1.387337,0.297286 0.552104,0.297287 0.906016,0.736138 v -3.255995 q 0,-0.141565 0.08494,-0.226504 0.0991,-0.09909 0.240661,-0.09909 h 0.679512 q 0.141565,0 0.226504,0.09909 0.09909,0.08494 0.09909,0.226504 v 9.399916 q 0,0.141565 -0.09909,0.240661 -0.08494,0.08494 -0.226504,0.08494 h -0.637043 q -0.155721,0 -0.24066,-0.08494 -0.08494,-0.0991 -0.08494,-0.240661 V 41.581422 Q 58.30255,42.03443 57.73629,42.345873 57.17003,42.64316 56.32064,42.64316 Z m 0.297287,-1.146677 q 0.707825,0 1.13252,-0.325599 0.424695,-0.3256 0.637042,-0.821077 0.212348,-0.509634 0.226504,-1.033425 0.01416,-0.226504 0.01416,-0.537947 0,-0.325599 -0.01416,-0.552103 -0.01416,-0.495478 -0.24066,-0.976799 -0.212348,-0.481321 -0.651199,-0.792764 -0.424695,-0.311443 -1.104207,-0.311443 -0.721982,0 -1.146677,0.3256 -0.424695,0.311443 -0.608729,0.835233 -0.184035,0.509634 -0.212348,1.104207 -0.01416,0.410539 0,0.821077 0.02831,0.594573 0.212348,1.118364 0.184034,0.509634 0.608729,0.835233 0.424695,0.311443 1.146677,0.311443 z" />
        <path
          id="path1507"
          style="stroke-width:0.353912"
          d="m 64.651744,42.501595 q -0.113252,0 -0.198191,-0.08494 -0.08494,-0.08494 -0.08494,-0.198191 0,-0.07078 0.01416,-0.155722 l 3.510812,-9.159255 q 0.05663,-0.141565 0.155722,-0.226504 0.09909,-0.08494 0.297286,-0.08494 h 0.962642 q 0.184034,0 0.28313,0.08494 0.113252,0.08494 0.169878,0.226504 l 3.496655,9.159255 q 0.02831,0.08494 0.02831,0.155722 0,0.113252 -0.08494,0.198191 -0.08494,0.08494 -0.198191,0.08494 h -0.721981 q -0.169878,0 -0.254817,-0.08494 -0.07078,-0.08494 -0.0991,-0.155722 l -0.778607,-2.010223 h -4.643332 l -0.778607,2.010223 q -0.01416,0.07078 -0.0991,0.155722 -0.08494,0.08494 -0.254817,0.08494 z m 2.26504,-3.468343 h 3.822254 l -1.911127,-5.025557 z" />
        <path
          id="path1509"
          style="stroke-width:0.353912"
          d="m 74.95657,45.19133 q -0.141565,0 -0.240661,-0.0991 -0.08494,-0.08494 -0.08494,-0.226504 v -9.399916 q 0,-0.141565 0.08494,-0.226504 0.0991,-0.0991 0.240661,-0.0991 h 0.651199 q 0.141565,0 0.226504,0.0991 0.0991,0.08494 0.0991,0.226504 V 36.0887 q 0.339756,-0.467164 0.906016,-0.778607 0.56626,-0.311443 1.41565,-0.311443 0.792764,0 1.344868,0.268973 0.56626,0.268974 0.920172,0.736138 0.368069,0.467165 0.552104,1.061738 0.184034,0.594573 0.198191,1.274085 0.01416,0.226504 0.01416,0.481321 0,0.254817 -0.01416,0.481321 -0.01416,0.665355 -0.198191,1.274085 -0.184035,0.594573 -0.552104,1.061737 -0.353912,0.453008 -0.920172,0.736138 -0.552104,0.268974 -1.344868,0.268974 -0.821077,0 -1.387337,-0.297287 -0.552103,-0.311443 -0.906016,-0.764451 v 3.284308 q 0,0.141565 -0.08494,0.226504 -0.08494,0.0991 -0.24066,0.0991 z m 3.001178,-3.694847 q 0.736138,0 1.146676,-0.311443 0.424695,-0.325599 0.60873,-0.835233 0.184034,-0.523791 0.212347,-1.118364 0.01416,-0.410538 0,-0.821077 -0.02831,-0.594573 -0.212347,-1.104207 -0.184035,-0.52379 -0.60873,-0.835233 -0.410538,-0.3256 -1.146676,-0.3256 -0.693669,0 -1.13252,0.3256 -0.424695,0.325599 -0.637043,0.835233 -0.198191,0.495478 -0.226504,1.019268 -0.01416,0.226504 -0.01416,0.537947 0,0.311443 0.01416,0.552104 0.01416,0.495477 0.226504,0.976798 0.226504,0.481321 0.665356,0.792764 0.438851,0.311443 1.104207,0.311443 z" />
        <path
          id="path1511"
          style="stroke-width:0.353912"
          d="m 83.389637,45.19133 q -0.141565,0 -0.24066,-0.0991 -0.08494,-0.08494 -0.08494,-0.226504 v -9.399916 q 0,-0.141565 0.08494,-0.226504 0.09909,-0.0991 0.24066,-0.0991 h 0.651199 q 0.141565,0 0.226504,0.0991 0.0991,0.08494 0.0991,0.226504 V 36.0887 q 0.339756,-0.467164 0.906016,-0.778607 0.56626,-0.311443 1.41565,-0.311443 0.792764,0 1.344867,0.268973 0.56626,0.268974 0.920173,0.736138 0.368069,0.467165 0.552103,1.061738 0.184035,0.594573 0.198191,1.274085 0.01416,0.226504 0.01416,0.481321 0,0.254817 -0.01416,0.481321 -0.01416,0.665355 -0.198191,1.274085 -0.184034,0.594573 -0.552103,1.061737 -0.353913,0.453008 -0.920173,0.736138 -0.552103,0.268974 -1.344867,0.268974 -0.821077,0 -1.387337,-0.297287 -0.552104,-0.311443 -0.906016,-0.764451 v 3.284308 q 0,0.141565 -0.08494,0.226504 -0.08494,0.0991 -0.240661,0.0991 z m 3.001178,-3.694847 q 0.736138,0 1.146677,-0.311443 0.424695,-0.325599 0.608729,-0.835233 0.184035,-0.523791 0.212348,-1.118364 0.01416,-0.410538 0,-0.821077 -0.02831,-0.594573 -0.212348,-1.104207 -0.184034,-0.52379 -0.608729,-0.835233 -0.410539,-0.3256 -1.146677,-0.3256 -0.693668,0 -1.13252,0.3256 -0.424695,0.325599 -0.637042,0.835233 -0.198191,0.495478 -0.226504,1.019268 -0.01416,0.226504 -0.01416,0.537947 0,0.311443 0.01416,0.552104 0.01416,0.495477 0.226504,0.976798 0.226504,0.481321 0.665355,0.792764 0.438852,0.311443 1.104207,0.311443 z" />
        <path
          id="path1513"
          style="stroke-width:0.353912"
          d="m 91.822712,42.501595 q -0.141565,0 -0.24066,-0.08494 -0.08494,-0.0991 -0.08494,-0.240661 v -9.399916 q 0,-0.141565 0.08494,-0.226504 0.09909,-0.09909 0.24066,-0.09909 h 0.665356 q 0.155721,0 0.24066,0.09909 0.08494,0.08494 0.08494,0.226504 v 9.399916 q 0,0.141565 -0.08494,0.240661 -0.08494,0.08494 -0.24066,0.08494 z" />
        <path
          id="path1515"
          style="stroke-width:0.353912"
          d="m 95.237084,42.501595 q -0.141565,0 -0.240661,-0.08494 -0.08494,-0.0991 -0.08494,-0.240661 v -6.710181 q 0,-0.141565 0.08494,-0.226504 0.0991,-0.0991 0.240661,-0.0991 h 0.679512 q 0.141565,0 0.226504,0.0991 0.08494,0.08494 0.08494,0.226504 v 6.710181 q 0,0.141565 -0.08494,0.240661 -0.08494,0.08494 -0.226504,0.08494 z m -0.113252,-8.734561 q -0.141565,0 -0.240661,-0.08494 -0.08494,-0.09909 -0.08494,-0.24066 v -0.764451 q 0,-0.141565 0.08494,-0.226504 0.0991,-0.0991 0.240661,-0.0991 h 0.891859 q 0.141565,0 0.226504,0.0991 0.0991,0.08494 0.0991,0.226504 v 0.764451 q 0,0.141565 -0.0991,0.24066 -0.08494,0.08494 -0.226504,0.08494 z" />
        <path
          id="path1517"
          style="stroke-width:0.353912"
          d="m 100.3927,42.64316 q -0.707821,0 -1.288237,-0.28313 -0.580417,-0.28313 -0.934329,-0.764451 -0.353913,-0.481321 -0.353913,-1.090051 0,-0.976798 0.792764,-1.557215 0.792764,-0.580416 2.066845,-0.764451 l 2.10932,-0.297286 v -0.410539 q 0,-0.679512 -0.39638,-1.061737 -0.38222,-0.382226 -1.25993,-0.382226 -0.63704,0 -1.03342,0.254817 -0.382228,0.254817 -0.537949,0.651199 -0.08494,0.212348 -0.297287,0.212348 h -0.637042 q -0.155722,0 -0.240661,-0.08494 -0.07078,-0.0991 -0.07078,-0.226504 0,-0.212348 0.155721,-0.523791 0.169878,-0.311443 0.509634,-0.608729 0.339756,-0.297287 0.863547,-0.495478 0.537949,-0.212347 1.302399,-0.212347 0.84939,0 1.42981,0.226504 0.58041,0.212347 0.90601,0.580416 0.33976,0.368069 0.48132,0.835234 0.15572,0.467164 0.15572,0.948485 v 4.586706 q 0,0.141565 -0.0991,0.240661 -0.0849,0.08494 -0.22651,0.08494 h -0.65119 q -0.15573,0 -0.24067,-0.08494 -0.0849,-0.0991 -0.0849,-0.240661 v -0.608729 q -0.18404,0.254817 -0.49548,0.509634 -0.31144,0.24066 -0.77861,0.410538 -0.46716,0.155722 -1.14668,0.155722 z m 0.29729,-1.061738 q 0.58042,0 1.06174,-0.24066 0.48132,-0.254817 0.75029,-0.778608 0.28313,-0.52379 0.28313,-1.316554 v -0.396382 l -1.64215,0.24066 q -1.00511,0.141565 -1.514747,0.481321 -0.509634,0.3256 -0.509634,0.835234 0,0.396382 0.226504,0.665355 0.240661,0.254817 0.594573,0.382226 0.368074,0.127408 0.750294,0.127408 z" />
        <path
          id="path1519"
          style="stroke-width:0.353912"
          d="m 106.49039,42.501595 q -0.14156,0 -0.24066,-0.08494 -0.0849,-0.0991 -0.0849,-0.240661 v -6.710181 q 0,-0.141565 0.0849,-0.226504 0.0991,-0.0991 0.24066,-0.0991 h 0.66536 q 0.14157,0 0.2265,0.0991 0.0991,0.08494 0.0991,0.226504 V 36.0887 q 0.36807,-0.481321 0.92017,-0.778607 0.56626,-0.311443 1.44397,-0.311443 0.92017,0 1.55721,0.410538 0.6512,0.396382 0.9768,1.118364 0.3256,0.707825 0.3256,1.65631 v 3.992133 q 0,0.141565 -0.0849,0.240661 -0.0849,0.08494 -0.2265,0.08494 h -0.70783 q -0.14156,0 -0.24066,-0.08494 -0.0849,-0.0991 -0.0849,-0.240661 v -3.92135 q 0,-0.990955 -0.48132,-1.543059 -0.48132,-0.56626 -1.41565,-0.56626 -0.8777,0 -1.41565,0.56626 -0.52379,0.552104 -0.52379,1.543059 v 3.92135 q 0,0.141565 -0.0991,0.240661 -0.0849,0.08494 -0.2265,0.08494 z" />
        <path
          id="path1521"
          style="stroke-width:0.353912"
          d="m 117.70898,42.64316 q -1.00511,0 -1.74125,-0.382226 -0.72198,-0.396382 -1.11836,-1.118363 -0.39639,-0.736138 -0.4247,-1.755406 -0.0142,-0.212348 -0.0142,-0.56626 0,-0.353913 0.0142,-0.56626 0.0283,-1.019268 0.4247,-1.74125 0.39638,-0.736138 1.11836,-1.118363 0.73614,-0.396382 1.74125,-0.396382 0.82108,0 1.40149,0.226504 0.59458,0.226504 0.9768,0.580416 0.38223,0.353913 0.56626,0.764451 0.19819,0.410539 0.21235,0.778608 0.0142,0.141565 -0.0849,0.226504 -0.0991,0.08494 -0.24066,0.08494 h -0.67951 q -0.14157,0 -0.21235,-0.05663 -0.0708,-0.07078 -0.14156,-0.226504 -0.25482,-0.693669 -0.69367,-0.976799 -0.43885,-0.28313 -1.09005,-0.28313 -0.84939,0 -1.38734,0.523791 -0.52379,0.52379 -0.56626,1.684623 -0.0142,0.509634 0,0.990955 0.0425,1.17499 0.56626,1.69878 0.53795,0.509634 1.38734,0.509634 0.6512,0 1.09005,-0.28313 0.43885,-0.28313 0.69367,-0.976798 0.0708,-0.155722 0.14156,-0.212348 0.0708,-0.07078 0.21235,-0.07078 h 0.67951 q 0.14156,0 0.24066,0.08494 0.0991,0.08494 0.0849,0.226504 -0.0142,0.297286 -0.12741,0.608729 -0.11325,0.311443 -0.36807,0.637043 -0.24066,0.311443 -0.60873,0.56626 -0.36807,0.24066 -0.89186,0.396382 -0.50963,0.141565 -1.16083,0.141565 z" />
        <path
          id="path1523"
          style="stroke-width:0.353912"
          d="m 125.49129,42.64316 q -1.45812,0 -2.32166,-0.89186 -0.86355,-0.906016 -0.94849,-2.463231 -0.0142,-0.184034 -0.0142,-0.467164 0,-0.297287 0.0142,-0.481321 0.0566,-1.005112 0.46717,-1.755406 0.41054,-0.764451 1.11836,-1.17499 0.72198,-0.410538 1.68462,-0.410538 1.0759,0 1.79788,0.453008 0.73614,0.453008 1.11836,1.288241 0.38223,0.835234 0.38223,1.953597 v 0.240661 q 0,0.155721 -0.0991,0.24066 -0.0849,0.08494 -0.2265,0.08494 h -4.89815 q 0,0.01416 0,0.05663 0,0.04247 0,0.07078 0.0283,0.580416 0.25482,1.09005 0.2265,0.495478 0.6512,0.806921 0.42469,0.311443 1.01926,0.311443 0.50964,0 0.84939,-0.155722 0.33976,-0.155721 0.55211,-0.339756 0.21234,-0.198191 0.28313,-0.297286 0.12741,-0.184035 0.19819,-0.212348 0.0708,-0.04247 0.2265,-0.04247 h 0.67951 q 0.14157,0 0.22651,0.08494 0.0991,0.07078 0.0849,0.212347 -0.0142,0.212348 -0.22651,0.523791 -0.21234,0.297286 -0.60873,0.594573 -0.39638,0.297286 -0.96264,0.495477 -0.56626,0.184035 -1.3024,0.184035 z m -1.92528,-4.360202 h 3.87888 v -0.04247 q 0,-0.637042 -0.24066,-1.13252 -0.2265,-0.495477 -0.66536,-0.778607 -0.43885,-0.297287 -1.04758,-0.297287 -0.60873,0 -1.04758,0.297287 -0.42469,0.28313 -0.6512,0.778607 -0.2265,0.495478 -0.2265,1.13252 z" />
        <path
          id="path1525"
          style="stroke-width:0.353912"
          d="m 133.54192,42.501595 q -0.11326,0 -0.21235,-0.08494 -0.0849,-0.08494 -0.0849,-0.198191 0,-0.05663 0.0142,-0.0991 0.0283,-0.05663 0.0425,-0.08494 l 3.24184,-4.572549 -3.08611,-4.402672 q -0.0425,-0.08494 -0.0425,-0.184034 0,-0.113252 0.0849,-0.198191 0.0849,-0.08494 0.19819,-0.08494 h 0.84939 q 0.14156,0 0.2265,0.07078 0.0849,0.05663 0.15572,0.169878 l 2.49155,3.539125 2.47738,-3.539125 q 0.0566,-0.113252 0.14157,-0.169878 0.0991,-0.07078 0.2265,-0.07078 h 0.80692 q 0.11326,0 0.19819,0.08494 0.0849,0.08494 0.0849,0.198191 0,0.09909 -0.0566,0.184034 l -3.04365,4.416828 3.22768,4.558393 q 0.0283,0.02831 0.0425,0.08494 0.0142,0.04247 0.0142,0.0991 0,0.113252 -0.0849,0.198191 -0.0849,0.08494 -0.21235,0.08494 h -0.86355 q -0.1274,0 -0.2265,-0.07078 -0.0849,-0.07078 -0.15572,-0.155721 l -2.63311,-3.68069 -2.61895,3.68069 q -0.0708,0.08494 -0.15572,0.155721 -0.0849,0.07078 -0.22651,0.07078 z" />
        <path
          id="path1527"
          style="stroke-width:0.353912"
          d="m 144.59548,42.501595 q -0.12741,0 -0.21235,-0.08494 -0.0708,-0.0991 -0.0708,-0.226504 0,-0.07078 0.0142,-0.113252 0.0283,-0.04247 0.0425,-0.07078 l 2.16594,-3.015334 q -0.35391,0.08494 -0.76445,0.08494 -0.79276,-0.01416 -1.41565,-0.28313 -0.62288,-0.268974 -1.06174,-0.721982 -0.43885,-0.467164 -0.66535,-1.047581 -0.22651,-0.580416 -0.22651,-1.217459 0,-0.622886 0.21235,-1.217459 0.22651,-0.594573 0.66536,-1.075894 0.45301,-0.481321 1.11836,-0.764451 0.66536,-0.297286 1.57137,-0.297286 0.89186,0 1.55722,0.28313 0.67951,0.268973 1.13252,0.750294 0.46716,0.467165 0.67951,1.061738 0.2265,0.594573 0.2265,1.231615 0,0.580417 -0.16987,1.061738 -0.16988,0.481321 -0.41054,0.863546 -0.22651,0.382226 -0.45301,0.707825 l -2.71805,3.808099 q -0.0566,0.07078 -0.15572,0.184034 -0.0991,0.0991 -0.29729,0.0991 z m 1.37318,-4.57255 q 0.59458,0 1.09005,-0.254817 0.50964,-0.268973 0.80692,-0.736138 0.29729,-0.481321 0.29729,-1.146676 0,-0.665356 -0.29729,-1.13252 -0.29728,-0.481321 -0.80692,-0.736138 -0.49547,-0.268974 -1.09005,-0.268974 -0.58041,0 -1.07589,0.268974 -0.49548,0.254817 -0.79277,0.736138 -0.29728,0.467164 -0.29728,1.13252 0,0.665355 0.29728,1.146676 0.29729,0.467165 0.79277,0.736138 0.49548,0.254817 1.07589,0.254817 z" />
        <path
          id="path1529"
          style="stroke-width:0.353912"
          d="m 151.32226,38.849218 q -0.14156,0 -0.24066,-0.08494 -0.0849,-0.0991 -0.0849,-0.240661 v -0.537947 q 0,-0.141565 0.0849,-0.226504 0.0991,-0.09909 0.24066,-0.09909 h 4.24695 q 0.14157,0 0.22651,0.09909 0.0991,0.08494 0.0991,0.226504 v 0.537947 q 0,0.141565 -0.0991,0.240661 -0.0849,0.08494 -0.22651,0.08494 z" />
        <path
          id="path1531"
          style="stroke-width:0.353912"
          d="m 157.26025,42.501595 q -0.14157,0 -0.24066,-0.08494 -0.0849,-0.0991 -0.0849,-0.240661 v -0.453008 q 0,-0.127408 0.0708,-0.28313 0.0708,-0.155721 0.28313,-0.339756 l 3.00118,-3.001178 q 0.72198,-0.608729 1.13252,-1.033424 0.42469,-0.438852 0.59457,-0.835234 0.18403,-0.396382 0.18403,-0.821077 0,-0.80692 -0.453,-1.274085 -0.45301,-0.481321 -1.34487,-0.481321 -0.56626,0 -0.9768,0.240661 -0.41054,0.226504 -0.6512,0.637042 -0.2265,0.396382 -0.29728,0.906016 -0.0283,0.184035 -0.15573,0.254817 -0.11325,0.07078 -0.21234,0.07078 h -0.73614 q -0.12741,0 -0.21235,-0.07078 -0.0849,-0.08494 -0.0849,-0.198191 0.0142,-0.537947 0.22651,-1.075894 0.21234,-0.552103 0.62288,-0.990955 0.4247,-0.438851 1.03343,-0.707825 0.62288,-0.28313 1.44396,-0.28313 1.11836,0 1.82619,0.410539 0.72198,0.396382 1.06174,1.061737 0.33975,0.665356 0.33975,1.45812 0,0.622886 -0.21235,1.146676 -0.21234,0.509634 -0.62288,1.005112 -0.39638,0.481321 -0.99096,0.990955 l -2.71805,2.760517 h 4.41683 q 0.15572,0 0.24066,0.08494 0.0991,0.08494 0.0991,0.240661 v 0.580416 q 0,0.141565 -0.0991,0.240661 -0.0849,0.08494 -0.24066,0.08494 z" />
      </g>
    </g>
  </g>
</svg>
