<?xml version="1.0" encoding="UTF-8" standalone="no"?>
<svg    xmlns:dc="http://purl.org/dc/elements/1.1/"
   xmlns:cc="http://creativecommons.org/ns#"
   xmlns:rdf="http://www.w3.org/1999/02/22-rdf-syntax-ns#"
   xmlns:svg="http://www.w3.org/2000/svg"
   xmlns="http://www.w3.org/2000/svg"
   id="svg2145"
   version="1.1"
   viewBox="0 0 21.166666 8.4666669"
   height="32"
   width="80">
  <g
     id="layer1">
    <g
       transform="matrix(0.26458333,0,0,0.26458333,1.3333333e-7,0.13229172)"
       id="Provider/OracleCIC/ocic-32"
       stroke="none"
       stroke-width="1"
       fill="none"
       fill-rule="evenodd">
      <path
         d="m 70.958393,14.252943 c -1.481435,0 -2.738534,-0.980216 -3.122914,-2.332035 h 8.247519 L 77.21995,10.17385 h -9.384471 c 0.38438,-1.3437165 1.641479,-2.3318099 3.122914,-2.3318099 h 5.660821 l 1.14516,-1.7472822 h -6.934108 c -2.77068,0 -5.020417,2.221522 -5.020417,4.9566721 0,2.735151 2.249737,4.94857 5.020417,4.94857 h 5.949221 l 1.13718,-1.747057 z M 47.361223,16 c -2.770224,0 -5.020189,-2.213419 -5.020189,-4.94857 0,-2.7351501 2.249965,-4.9566721 5.020189,-4.9566721 h 6.926356 l -1.128972,1.7472822 h -5.66903 c -1.793771,0 -3.25104,1.4387 -3.25104,3.2093899 0,1.770691 1.457269,3.201513 3.25104,3.201513 h 6.958047 L 53.310672,16 Z M 10.719084,14.252943 c 1.794684,0 3.247849,-1.430822 3.247849,-3.201513 0,-1.7706899 -1.453165,-3.2093899 -3.247849,-3.2093899 h -5.57282 c -1.7935436,0 -3.2478482,1.4387 -3.2478482,3.2093899 0,1.770691 1.4543046,3.201513 3.2478482,3.201513 z M 5.0174535,16 C 2.247686,16 0,13.786581 0,11.05143 0,8.3162799 2.247686,6.0947579 5.0174535,6.0947579 h 5.8315815 c 2.770223,0 5.016314,2.221522 5.016314,4.9566721 0,2.735151 -2.246091,4.94857 -5.016314,4.94857 z M 25.333717,12.790385 c 1.873794,0 3.395126,-1.493844 3.395126,-3.3437623 0,-1.8496928 -1.521332,-3.3518648 -3.395126,-3.3518648 h -8.44176 V 16 h 1.928965 V 7.8420401 h 6.384669 c 0.896886,0 1.61754,0.7191249 1.61754,1.6045826 0,0.8854573 -0.720654,1.6048073 -1.61754,1.6048073 L 19.765684,11.043553 25.525907,16 h 2.802597 L 24.453018,12.790385 Z M 57.2582,14.252943 V 6.0947579 h -1.929877 v 8.9565371 c 0,0.245111 0.09621,0.482343 0.280419,0.664206 C 55.792724,15.897139 56.040998,16 56.313438,16 h 8.799694 l 1.13718,-1.747057 z M 33.637092,12.505886 h 5.148544 L 36.063289,8.1819082 31.06681,16 H 28.792906 L 34.870253,6.6088366 C 35.134486,6.2293547 35.574949,6 36.063289,6 c 0.472609,0 0.912845,0.2212519 1.16887,0.592856 L 43.333672,16 H 41.059768 L 39.986651,14.252943 H 34.774044 Z M 78.954639,8.0468223 c -0.571022,0 -1.037972,-0.4573062 -1.037972,-1.0235145 C 77.916667,6.4573062 78.383617,6 78.954639,6 79.53305,6 80,6.4573062 80,7.0233078 80,7.5895161 79.53305,8.0468223 78.954639,8.0468223 Z M 78.858167,6.413704 c 0.163179,0 0.229886,0.00723 0.304193,0.03637 0.20751,0.0653 0.229887,0.2467346 0.229887,0.3192671 0,0.014465 0,0.050835 -0.01499,0.09423 -0.0074,0.043602 -0.03715,0.1308065 -0.141014,0.1961064 -0.01457,0.00723 -0.02195,0.014465 -0.05172,0.02893 l 0.267039,0.471978 H 79.191914 L 78.954639,7.1249773 H 78.791671 V 7.5605858 H 78.561784 V 6.413704 Z m 0.0817,0.5226061 c 0.0741,-0.00723 0.148191,-0.00723 0.192733,-0.072739 0.02238,-0.02893 0.02977,-0.057861 0.02977,-0.1014629 0,-0.058067 -0.03715,-0.1089021 -0.08908,-0.1378325 -0.05193,-0.021904 -0.10365,-0.021904 -0.21511,-0.021904 h -0.0665 v 0.3339389 z m -0.800697,0.079765 c 0,0.4500736 0.363301,0.8057103 0.815474,0.8057103 0.459773,0 0.823074,-0.3556367 0.823074,-0.8057103 0,-0.4426343 -0.363301,-0.798271 -0.823074,-0.798271 -0.452173,0 -0.815474,0.3556367 -0.815474,0.798271 z"
         id="Combined-Shape-Copy"
         fill="#616870" />
    </g>
  </g>
  <g
     transform="translate(0,5.7077056)"
     style="font-size:1.56997px;line-height:1.05;font-family:Rubik;-inkscape-font-specification:'Rubik, Normal';fill:#616870;fill-opacity:1;stroke-width:0.0392492"
     id="text4140"
     aria-label="Private Cloud Appliance X9-2">
    <path
       id="path4142"
       style="fill:#616870;fill-opacity:1;stroke-width:0.0392492"
       d="m 0.03610931,1.1452922 q -0.01726968,0 -0.0266895,-0.00942 Q 0,1.1248826 0,1.1091829 V 0.08399243 Q 0,0.06672276 0.00941981,0.05730294 0.01883963,0.04631315 0.03610931,0.04631315 h 0.39877238 q 0.11617778,0 0.20095616,0.03767928 0.0863483,0.03767929 0.13344745,0.11303785 0.0470991,0.0737886 0.0470991,0.18525646 0,0.11146787 -0.0470991,0.18525646 -0.0470991,0.0737886 -0.13344745,0.11146787 -0.0847784,0.0376793 -0.20095616,0.0376793 H 0.156997 V 1.1091829 q 0,0.0157 -0.0109898,0.026689 -0.00942,0.00942 -0.0266895,0.00942 z M 0.15542703,0.58481287 h 0.27160481 q 0.11617778,0 0.17426667,-0.051809 0.0580889,-0.051809 0.0580889,-0.15071712 0,-0.0973381 -0.0565189,-0.15071712 -0.0565189,-0.053379 -0.17583664,-0.053379 H 0.15542703 Z" />
    <path
       id="path4144"
       style="fill:#616870;fill-opacity:1;stroke-width:0.0392492"
       d="m 1.0245281,1.1452922 q -0.0157,0 -0.0266895,-0.00942 -0.00942,-0.01099 -0.00942,-0.026689 V 0.36658704 q 0,-0.0156997 0.00942,-0.0266895 0.0109898,-0.0109898 0.0266895,-0.0109898 h 0.072219 q 0.0157,0 0.02669,0.0109898 0.01099,0.0109898 0.01099,0.0266895 v 0.0690787 q 0.031399,-0.053379 0.086348,-0.0800685 0.054949,-0.0266895 0.1318775,-0.0266895 h 0.062799 q 0.0157,0 0.025119,0.0109898 0.00942,0.00942 0.00942,0.0251195 v 0.0643688 q 0,0.0156997 -0.00942,0.0251195 -0.00942,0.00942 -0.025119,0.00942 h -0.094198 q -0.084778,0 -0.1334474,0.050239 -0.048669,0.0486691 -0.048669,0.13344745 V 1.1091829 q 0,0.0157 -0.01099,0.026689 -0.01099,0.00942 -0.02669,0.00942 z" />
    <path
       id="path4146"
       style="fill:#616870;fill-opacity:1;stroke-width:0.0392492"
       d="m 1.6224659,1.1452922 q -0.0157,0 -0.026689,-0.00942 -0.00942,-0.01099 -0.00942,-0.026689 V 0.36501707 q 0,-0.0156997 0.00942,-0.0251195 0.01099,-0.0109898 0.026689,-0.0109898 h 0.075359 q 0.0157,0 0.025119,0.0109898 0.00942,0.00942 0.00942,0.0251195 V 1.1091829 q 0,0.0157 -0.00942,0.026689 -0.00942,0.00942 -0.025119,0.00942 z m -0.01256,-0.96867153 q -0.0157,0 -0.02669,-0.00942 -0.00942,-0.0109898 -0.00942,-0.0266895 v -0.0847782 q 0,-0.0156997 0.00942,-0.02511952 0.01099,-0.01098979 0.02669,-0.01098979 h 0.098908 q 0.0157,0 0.025119,0.01098979 0.01099,0.0094198 0.01099,0.02511952 v 0.08477839 q 0,0.0156997 -0.01099,0.0266895 -0.00942,0.00942 -0.025119,0.00942 z" />
    <path
       id="path4148"
       style="fill:#616870;fill-opacity:1;stroke-width:0.0392492"
       d="m 2.2507483,1.1452922 q -0.02355,0 -0.037679,-0.01099 -0.01256,-0.01099 -0.02041,-0.028259 L 1.9022149,0.37757683 q -0.00314,-0.00785 -0.00314,-0.0156997 0,-0.0141297 0.00942,-0.0235495 0.00942,-0.00942 0.02355,-0.00942 h 0.075359 q 0.01727,0 0.026689,0.00942 0.00942,0.00942 0.01099,0.0172697 l 0.2402047,0.6185681 0.2386355,-0.61856818 q 0.00314,-0.00785 0.01099,-0.0172697 0.00942,-0.00942 0.02669,-0.00942 h 0.076929 q 0.01256,0 0.02198,0.00942 0.01099,0.00942 0.01099,0.0235495 0,0.00785 -0.00314,0.0156997 L 2.3763459,1.1060429 q -0.00628,0.01727 -0.02041,0.028259 -0.01256,0.01099 -0.037679,0.01099 z" />
    <path
       id="path4150"
       style="fill:#616870;fill-opacity:1;stroke-width:0.0392492"
       d="m 3.0344086,1.1609919 q -0.078498,0 -0.1428673,-0.031399 -0.064369,-0.031399 -0.103618,-0.084778 -0.039249,-0.053379 -0.039249,-0.12088771 0,-0.10832793 0.087918,-0.1726967 0.087918,-0.0643688 0.2292157,-0.0847784 l 0.2339255,-0.0329694 v -0.0455291 q 0,-0.0753586 -0.043959,-0.11774775 -0.042389,-0.0423892 -0.1397273,-0.0423892 -0.070649,0 -0.1146078,0.0282595 -0.042389,0.0282595 -0.059659,0.0722186 -0.00942,0.0235496 -0.032969,0.0235496 h -0.070649 q -0.01727,0 -0.026689,-0.00942 -0.00785,-0.0109898 -0.00785,-0.0251195 0,-0.0235496 0.01727,-0.0580889 0.01884,-0.0345393 0.056519,-0.0675087 0.037679,-0.0329694 0.095768,-0.054949 0.059659,-0.0235495 0.1444373,-0.0235495 0.094198,0 0.1585669,0.0251195 0.064369,0.0235495 0.1004781,0.0643688 0.037679,0.0408192 0.053379,0.0926282 0.01727,0.051809 0.01727,0.10518799 V 1.1091829 q 0,0.0157 -0.01099,0.026689 -0.00942,0.00942 -0.02512,0.00942 h -0.072219 q -0.01727,0 -0.026689,-0.00942 -0.00942,-0.01099 -0.00942,-0.026689 v -0.067509 q -0.02041,0.028259 -0.054949,0.056519 -0.034539,0.02669 -0.086348,0.045529 -0.051809,0.01727 -0.1271681,0.01727 z m 0.032969,-0.1177478 q 0.064369,0 0.1177478,-0.026689 0.053379,-0.0282594 0.083208,-0.0863483 0.031399,-0.0580889 0.031399,-0.14600721 V 0.7402399 L 3.117617,0.76692939 q -0.1114679,0.0156997 -0.1679868,0.053379 -0.056519,0.0361093 -0.056519,0.0926282 0,0.0439592 0.025119,0.0737886 0.02669,0.0282595 0.065939,0.0423892 0.040819,0.01413 0.083208,0.01413 z" />
    <path
       id="path4152"
       style="fill:#616870;fill-opacity:1;stroke-width:0.0392492"
       d="m 3.9840443,1.1452922 q -0.087918,0 -0.1428673,-0.032969 Q 3.786228,1.0777842 3.761109,1.0165552 3.735989,0.9537564 3.735989,0.86897804 V 0.45450536 H 3.6135314 q -0.0157,0 -0.026689,-0.00942 -0.00942,-0.0109898 -0.00942,-0.0266895 v -0.053379 q 0,-0.0156997 0.00942,-0.0251195 0.01099,-0.0109898 0.026689,-0.0109898 H 3.735989 v -0.262185 q 0,-0.0156997 0.00942,-0.02511952 0.01099,-0.01098979 0.026689,-0.01098979 h 0.073789 q 0.0157,0 0.02512,0.01098979 0.01099,0.0094198 0.01099,0.02511952 v 0.262185 h 0.1946762 q 0.0157,0 0.02512,0.0109898 0.01099,0.00942 0.01099,0.0251195 v 0.053379 q 0,0.0156997 -0.01099,0.0266895 -0.00942,0.00942 -0.02512,0.00942 H 3.8819963 v 0.40348229 q 0,0.0737886 0.02512,0.11617778 0.025119,0.0423892 0.089488,0.0423892 h 0.095768 q 0.0157,0 0.02512,0.01099 0.01099,0.00942 0.01099,0.025119 v 0.056519 q 0,0.0157 -0.01099,0.026689 -0.00942,0.00942 -0.02512,0.00942 z" />
    <path
       id="path4154"
       style="fill:#616870;fill-opacity:1;stroke-width:0.0392492"
       d="m 4.6035935,1.1609919 q -0.1617069,0 -0.2574751,-0.098908 -0.095768,-0.10047813 -0.105188,-0.27317483 -0.00157,-0.0204096 -0.00157,-0.051809 0,-0.0329694 0.00157,-0.053379 0.00628,-0.11146787 0.051809,-0.19467628 0.045529,-0.0847784 0.1240276,-0.13030751 0.080068,-0.0455291 0.1868264,-0.0455291 0.1193177,0 0.1993862,0.050239 0.081638,0.050239 0.1240276,0.14286727 0.042389,0.0926282 0.042389,0.21665586 v 0.0266895 q 0,0.0172697 -0.01099,0.0266895 -0.00942,0.00942 -0.02512,0.00942 H 4.3900776 q 0,0.00157 0,0.00628 0,0.00471 0,0.00785 0.00314,0.0643688 0.028259,0.12088769 0.02512,0.054949 0.072219,0.0894883 0.047099,0.034539 0.1130378,0.034539 0.056519,0 0.094198,-0.01727 0.037679,-0.01727 0.061229,-0.0376793 0.02355,-0.0219796 0.031399,-0.0329694 0.01413,-0.0204096 0.02198,-0.0235496 0.00785,-0.00471 0.02512,-0.00471 h 0.075359 q 0.0157,0 0.025119,0.00942 0.01099,0.00785 0.00942,0.0235495 -0.00157,0.0235496 -0.02512,0.0580889 -0.023549,0.032969 -0.067509,0.065939 -0.043959,0.032969 -0.1067579,0.054949 -0.062799,0.02041 -0.144437,0.020409 z M 4.3900776,0.6774411 h 0.4301718 v -0.00471 q 0,-0.0706486 -0.026689,-0.1255976 Q 4.7684414,0.4921846 4.7197714,0.4607852 4.6711024,0.4278158 4.6035936,0.4278158 q -0.067509,0 -0.1161778,0.0329694 -0.047099,0.0313994 -0.072219,0.0863483 -0.02512,0.054949 -0.02512,0.1255976 z" />
    <path
       id="path4156"
       style="fill:#616870;fill-opacity:1;stroke-width:0.0392492"
       d="m 5.957987,1.1609919 q -0.1444372,0 -0.2402054,-0.053379 -0.094198,-0.053379 -0.1428673,-0.14914717 -0.048669,-0.0957682 -0.053379,-0.22293574 -0.00157,-0.0643688 -0.00157,-0.13815736 0,-0.0737886 0.00157,-0.1412973 0.00471,-0.12716757 0.053379,-0.22293574 0.048669,-0.0957682 0.1428673,-0.14914716 0.095768,-0.05337898 0.2402054,-0.05337898 0.1083279,0 0.1899664,0.02982943 0.081638,0.02982944 0.1350174,0.08006848 0.054949,0.050239 0.083208,0.11303784 0.028259,0.0612288 0.031399,0.12716757 0.00157,0.0141297 -0.00942,0.0235496 -0.00942,0.00942 -0.02355,0.00942 h -0.086348 q -0.01413,0 -0.02512,-0.00785 -0.00942,-0.00785 -0.01413,-0.0282595 -0.02669,-0.12245766 -0.100478,-0.16798679 -0.072219,-0.0455291 -0.1821166,-0.0455291 -0.1255976,0 -0.1993862,0.0722186 -0.073789,0.0706487 -0.080068,0.22764565 -0.00471,0.12873754 0,0.26375496 0.00628,0.156997 0.080068,0.22921562 0.073789,0.0706486 0.1993862,0.0706486 0.1098979,0 0.1821166,-0.0455291 0.073789,-0.0455291 0.100478,-0.16798679 0.00471,-0.0204096 0.01413,-0.0282595 0.01099,-0.00785 0.02512,-0.00785 h 0.086348 q 0.01413,0 0.02355,0.00942 0.01099,0.00942 0.00942,0.0235496 -0.00314,0.0659387 -0.031399,0.12873754 -0.02826,0.0612288 -0.083208,0.11146794 -0.053379,0.050239 -0.1350174,0.080068 -0.081638,0.029829 -0.1899664,0.02983 z" />
    <path
       id="path4158"
       style="fill:#616870;fill-opacity:1;stroke-width:0.0392492"
       d="m 6.625249,1.1452922 q -0.0157,0 -0.026689,-0.00942 -0.00942,-0.01099 -0.00942,-0.026689 V 0.06672276 q 0,-0.0156997 0.00942,-0.02511952 0.01099,-0.01098979 0.026689,-0.01098979 h 0.073789 q 0.01727,0 0.026689,0.01098979 0.00942,0.0094198 0.00942,0.02511952 V 1.1091829 q 0,0.0157 -0.00942,0.026689 -0.00942,0.00942 -0.026689,0.00942 z" />
    <path
       id="path4160"
       style="fill:#616870;fill-opacity:1;stroke-width:0.0392492"
       d="m 7.3022004,1.1609919 q -0.1193177,0 -0.1993862,-0.045529 -0.080069,-0.045529 -0.1224577,-0.12559757 -0.042389,-0.0816384 -0.047099,-0.18525646 -0.00157,-0.0266895 -0.00157,-0.0675087 0,-0.0423892 0.00157,-0.0675087 0.00471,-0.10518799 0.047099,-0.18525646 0.043959,-0.0800685 0.1240277,-0.1255976 0.080068,-0.0455291 0.1978162,-0.0455291 0.1177477,0 0.1978162,0.0455291 0.080068,0.0455291 0.1224577,0.1255976 0.043959,0.0800685 0.048669,0.18525646 0.00157,0.0251195 0.00157,0.0675087 0,0.0408192 -0.00157,0.0675087 -0.00471,0.10361802 -0.047099,0.18525646 -0.042389,0.0800685 -0.1224576,0.12559757 -0.080069,0.045529 -0.1993863,0.045529 z m 0,-0.1208877 q 0.097338,0 0.155427,-0.0612289 0.058089,-0.0627988 0.062799,-0.18211652 0.00157,-0.0235496 0.00157,-0.0596589 0,-0.0361093 -0.00157,-0.0596589 -0.00471,-0.11931772 -0.062799,-0.18054655 -0.058089,-0.0627988 -0.155427,-0.0627988 -0.097338,0 -0.156997,0.0627988 -0.058089,0.0612288 -0.061229,0.18054655 -0.00157,0.0235496 -0.00157,0.0596589 0,0.0361093 0.00157,0.0596589 0.00314,0.11931772 0.061229,0.18211652 0.059659,0.0612289 0.156997,0.0612289 z" />
    <path
       id="path4162"
       style="fill:#616870;fill-opacity:1;stroke-width:0.0392492"
       d="m 8.1738774,1.1609919 q -0.1004781,0 -0.1711268,-0.043959 Q 7.933672,1.0715036 7.8975627,0.9914351 7.8614533,0.91136663 7.8614533,0.80774861 V 0.36501707 q 0,-0.0156997 0.00942,-0.0251195 0.01099,-0.0109898 0.026689,-0.0109898 h 0.078499 q 0.0157,0 0.02512,0.0109898 0.01099,0.00942 0.01099,0.0251195 v 0.43488169 q 0,0.23392554 0.2040961,0.23392554 0.097338,0 0.155427,-0.0612288 0.059659,-0.0627988 0.059659,-0.1726967 V 0.36501707 q 0,-0.0156997 0.00942,-0.0251195 0.01099,-0.0109898 0.026689,-0.0109898 h 0.076928 q 0.01727,0 0.026689,0.0109898 0.00942,0.00942 0.00942,0.0251195 V 1.1091829 q 0,0.0157 -0.00942,0.026689 -0.00942,0.00942 -0.026689,0.00942 h -0.072219 q -0.0157,0 -0.026689,-0.00942 -0.00942,-0.01099 -0.00942,-0.026689 v -0.069079 q -0.042389,0.054949 -0.1036181,0.087918 -0.059659,0.032969 -0.1585669,0.03297 z" />
    <path
       id="path4164"
       style="fill:#616870;fill-opacity:1;stroke-width:0.0392492"
       d="m 9.1120321,1.1609919 q -0.086348,0 -0.1491471,-0.029829 Q 8.900086,1.0997639 8.859267,1.0479549 8.820018,0.9945759 8.799608,0.92706723 8.780768,0.85955853 8.777628,0.78419996 q -0.00157,-0.0251195 -0.00157,-0.0470991 0,-0.0219796 0.00157,-0.0470991 0.00314,-0.0737886 0.02198,-0.1412973 0.02041,-0.0675087 0.059659,-0.12088769 0.040819,-0.053379 0.103618,-0.0832084 0.062799,-0.0313994 0.1491471,-0.0313994 0.092628,0 0.1538571,0.0329694 0.061229,0.0329694 0.1004781,0.0816384 V 0.06672276 q 0,-0.0156997 0.00942,-0.02511952 0.01099,-0.01098979 0.026689,-0.01098979 h 0.075359 q 0.0157,0 0.02512,0.01098979 0.01099,0.0094198 0.01099,0.02511952 V 1.1091829 q 0,0.0157 -0.01099,0.026689 -0.00942,0.00942 -0.02512,0.00942 h -0.070649 q -0.01727,0 -0.026689,-0.00942 -0.00942,-0.01099 -0.00942,-0.026689 v -0.065939 q -0.039249,0.050239 -0.1020481,0.084778 -0.062799,0.032969 -0.156997,0.032969 z m 0.032969,-0.1271676 q 0.078499,0 0.1255976,-0.0361093 0.047099,-0.0361093 0.070649,-0.0910583 0.023549,-0.0565189 0.02512,-0.11460781 0.00157,-0.0251195 0.00157,-0.0596589 0,-0.0361093 -0.00157,-0.0612288 -0.00157,-0.054949 -0.026689,-0.10832793 -0.02355,-0.053379 -0.072219,-0.0879183 -0.047099,-0.0345393 -0.1224577,-0.0345393 -0.080068,0 -0.1271676,0.0361093 -0.047099,0.0345393 -0.067509,0.0926282 -0.02041,0.0565189 -0.023549,0.12245766 -0.00157,0.0455291 0,0.0910583 0.00314,0.0659387 0.023549,0.12402763 0.02041,0.0565189 0.067509,0.0926282 0.047099,0.0345395 0.1271667,0.0345394 z" />
    <path
       id="path4166"
       style="fill:#616870;fill-opacity:1;stroke-width:0.0392492"
       d="m 10.03596,1.1452922 q -0.01256,0 -0.02198,-0.00942 -0.0094,-0.00942 -0.0094,-0.02198 0,-0.00785 0.0016,-0.01727 l 0.389352,-1.01577061 q 0.0063,-0.0156997 0.01727,-0.02511952 0.01099,-0.0094198 0.03297,-0.0094198 h 0.106758 q 0.02041,0 0.0314,0.0094198 0.01256,0.0094198 0.01884,0.02511952 l 0.387783,1.01577061 q 0.0031,0.00942 0.0031,0.01727 0,0.01256 -0.0094,0.02198 -0.0094,0.00942 -0.02198,0.00942 h -0.08007 q -0.01884,0 -0.02826,-0.00942 -0.0079,-0.00942 -0.01099,-0.01727 l -0.08635,-0.22293577 h -0.51495 l -0.08635,0.22293577 q -0.0016,0.00785 -0.01099,0.01727 -0.0094,0.00942 -0.02826,0.00942 z m 0.251195,-0.38464269 h 0.423892 L 10.499101,0.20331016 Z" />
    <path
       id="path4168"
       style="fill:#616870;fill-opacity:1;stroke-width:0.0392492"
       d="m 11.178775,1.4435865 q -0.0157,0 -0.02669,-0.01099 -0.0094,-0.00942 -0.0094,-0.025119 V 0.36501707 q 0,-0.0156997 0.0094,-0.0251195 0.01099,-0.0109898 0.02669,-0.0109898 h 0.07222 q 0.0157,0 0.02512,0.0109898 0.01099,0.00942 0.01099,0.0251195 v 0.0690787 q 0.03768,-0.051809 0.100478,-0.0863484 0.0628,-0.0345393 0.156997,-0.0345393 0.08792,0 0.149148,0.0298294 0.0628,0.0298294 0.102048,0.0816384 0.04082,0.051809 0.06123,0.11774775 0.02041,0.0659387 0.02198,0.1412973 0.0016,0.0251195 0.0016,0.053379 0,0.0282595 -0.0016,0.053379 -0.0016,0.0737886 -0.02198,0.1412973 -0.02041,0.0659387 -0.06123,0.11774778 -0.03925,0.050239 -0.102048,0.081638 -0.06123,0.029829 -0.149148,0.029829 -0.09106,0 -0.153857,-0.032969 -0.06123,-0.034539 -0.100478,-0.084778 v 0.3642331 q 0,0.0157 -0.0094,0.025119 -0.0094,0.01099 -0.02669,0.01099 z m 0.332834,-0.4097622 q 0.08164,0 0.127168,-0.0345394 0.0471,-0.0361093 0.06751,-0.0926282 0.02041,-0.0580889 0.02355,-0.12402763 0.0016,-0.0455291 0,-0.0910583 -0.0031,-0.0659387 -0.02355,-0.12245766 -0.02041,-0.0580889 -0.06751,-0.0926282 -0.04553,-0.0361093 -0.127168,-0.0361093 -0.07693,0 -0.125598,0.0361093 -0.0471,0.0361093 -0.07065,0.0926282 -0.02198,0.054949 -0.02512,0.11303784 -0.0016,0.0251195 -0.0016,0.0596589 0,0.0345393 0.0016,0.0612288 0.0016,0.054949 0.02512,0.10832793 0.02512,0.053379 0.07379,0.0879183 0.04867,0.0345394 0.122458,0.0345394 z" />
    <path
       id="path4170"
       style="fill:#616870;fill-opacity:1;stroke-width:0.0392492"
       d="m 12.114011,1.4435865 q -0.0157,0 -0.02669,-0.01099 -0.0094,-0.00942 -0.0094,-0.025119 V 0.36501707 q 0,-0.0156997 0.0094,-0.0251195 0.01099,-0.0109898 0.02669,-0.0109898 h 0.07222 q 0.0157,0 0.02512,0.0109898 0.01099,0.00942 0.01099,0.0251195 v 0.0690787 q 0.03768,-0.051809 0.100478,-0.0863484 0.0628,-0.0345393 0.156997,-0.0345393 0.08792,0 0.149148,0.0298294 0.0628,0.0298294 0.102048,0.0816384 0.04082,0.051809 0.06123,0.11774775 0.02041,0.0659387 0.02198,0.1412973 0.0016,0.0251195 0.0016,0.053379 0,0.0282595 -0.0016,0.053379 -0.0016,0.0737886 -0.02198,0.1412973 -0.02041,0.0659387 -0.06123,0.11774778 -0.03925,0.050239 -0.102048,0.081638 -0.06123,0.029829 -0.149148,0.029829 -0.09106,0 -0.153857,-0.032969 -0.06123,-0.034539 -0.100478,-0.084778 v 0.3642331 q 0,0.0157 -0.0094,0.025119 -0.0094,0.01099 -0.02669,0.01099 z m 0.332834,-0.4097622 q 0.08164,0 0.127168,-0.0345394 0.0471,-0.0361093 0.06751,-0.0926282 0.02041,-0.0580889 0.02355,-0.12402763 0.0016,-0.0455291 0,-0.0910583 -0.0031,-0.0659387 -0.02355,-0.12245766 -0.02041,-0.0580889 -0.06751,-0.0926282 -0.04553,-0.0361093 -0.127168,-0.0361093 -0.07693,0 -0.125598,0.0361093 -0.0471,0.0361093 -0.07065,0.0926282 -0.02198,0.054949 -0.02512,0.11303784 -0.0016,0.0251195 -0.0016,0.0596589 0,0.0345393 0.0016,0.0612288 0.0016,0.054949 0.02512,0.10832793 0.02512,0.053379 0.07379,0.0879183 0.04867,0.0345394 0.122458,0.0345394 z" />
    <path
       id="path4172"
       style="fill:#616870;fill-opacity:1;stroke-width:0.0392492"
       d="m 13.049247,1.1452922 q -0.0157,0 -0.02669,-0.00942 -0.0094,-0.01099 -0.0094,-0.026689 V 0.06672276 q 0,-0.0156997 0.0094,-0.02511952 0.01099,-0.01098979 0.02669,-0.01098979 h 0.07379 q 0.01727,0 0.02669,0.01098979 0.0094,0.0094198 0.0094,0.02511952 V 1.1091829 q 0,0.0157 -0.0094,0.026689 -0.0094,0.00942 -0.02669,0.00942 z" />
    <path
       id="path4174"
       style="fill:#616870;fill-opacity:1;stroke-width:0.0392492"
       d="m 13.427904,1.1452922 q -0.0157,0 -0.02669,-0.00942 -0.0094,-0.01099 -0.0094,-0.026689 V 0.36501707 q 0,-0.0156997 0.0094,-0.0251195 0.01099,-0.0109898 0.02669,-0.0109898 h 0.07536 q 0.0157,0 0.02512,0.0109898 0.0094,0.00942 0.0094,0.0251195 V 1.1091829 q 0,0.0157 -0.0094,0.026689 -0.0094,0.00942 -0.02512,0.00942 z m -0.01256,-0.96867153 q -0.0157,0 -0.02669,-0.00942 -0.0094,-0.0109898 -0.0094,-0.0266895 v -0.0847782 q 0,-0.0156997 0.0094,-0.02511952 0.01099,-0.01098979 0.02669,-0.01098979 h 0.09891 q 0.0157,0 0.02512,0.01098979 0.01099,0.0094198 0.01099,0.02511952 v 0.08477839 q 0,0.0156997 -0.01099,0.0266895 -0.0094,0.00942 -0.02512,0.00942 z" />
    <path
       id="path4176"
       style="fill:#616870;fill-opacity:1;stroke-width:0.0392492"
       d="m 13.999668,1.1609919 q -0.0785,0 -0.142867,-0.031399 -0.06437,-0.031399 -0.103618,-0.084778 -0.03925,-0.053379 -0.03925,-0.12088771 0,-0.10832793 0.08792,-0.1726967 0.08792,-0.0643688 0.229215,-0.0847784 l 0.233926,-0.0329694 v -0.0455291 q 0,-0.0753586 -0.04396,-0.11774775 -0.04239,-0.0423892 -0.139728,-0.0423892 -0.07065,0 -0.114608,0.0282595 -0.04239,0.0282595 -0.05966,0.0722186 -0.0094,0.0235496 -0.03297,0.0235496 h -0.07065 q -0.01727,0 -0.02669,-0.00942 -0.0079,-0.0109898 -0.0079,-0.0251195 0,-0.0235496 0.01727,-0.0580889 0.01884,-0.0345393 0.05652,-0.0675087 0.03768,-0.0329694 0.09577,-0.054949 0.05966,-0.0235495 0.144437,-0.0235495 0.0942,0 0.158567,0.0251195 0.06437,0.0235495 0.100478,0.0643688 0.03768,0.0408192 0.05338,0.0926282 0.01727,0.051809 0.01727,0.10518799 V 1.1091829 q 0,0.0157 -0.01099,0.026689 -0.0094,0.00942 -0.02512,0.00942 h -0.07222 q -0.01727,0 -0.02669,-0.00942 -0.0094,-0.01099 -0.0094,-0.026689 v -0.067509 q -0.02041,0.028259 -0.05495,0.056519 -0.03454,0.02669 -0.08635,0.045529 -0.05181,0.01727 -0.127167,0.01727 z m 0.03297,-0.1177478 q 0.06437,0 0.117748,-0.026689 0.05338,-0.0282594 0.08321,-0.0863483 0.0314,-0.0580889 0.0314,-0.14600721 V 0.7402399 l -0.182117,0.0266895 q -0.111468,0.0156997 -0.167987,0.053379 -0.05652,0.0361093 -0.05652,0.0926282 0,0.0439592 0.02512,0.0737886 0.02669,0.0282595 0.06594,0.0423892 0.04082,0.01413 0.08321,0.01413 z" />
    <path
       id="path4178"
       style="fill:#616870;fill-opacity:1;stroke-width:0.0392492"
       d="m 14.675908,1.1452922 q -0.0157,0 -0.02669,-0.00942 -0.0094,-0.01099 -0.0094,-0.026689 V 0.36501707 q 0,-0.0156997 0.0094,-0.0251195 0.01099,-0.0109898 0.02669,-0.0109898 h 0.07379 q 0.0157,0 0.02512,0.0109898 0.01099,0.00942 0.01099,0.0251195 v 0.0690787 q 0.04082,-0.053379 0.102048,-0.0863484 0.0628,-0.0345393 0.160137,-0.0345393 0.102048,0 0.172697,0.0455291 0.07222,0.0439592 0.108328,0.12402763 0.03611,0.0784985 0.03611,0.18368649 V 1.1091829 q 0,0.0157 -0.0094,0.026689 -0.0094,0.00942 -0.02512,0.00942 h -0.0785 q -0.0157,0 -0.02669,-0.00942 -0.0094,-0.01099 -0.0094,-0.026689 V 0.67430116 q 0,-0.1098979 -0.05338,-0.17112673 -0.05338,-0.0627988 -0.156997,-0.0627988 -0.09734,0 -0.156997,0.0627988 -0.05809,0.0612288 -0.05809,0.17112673 V 1.1091829 q 0,0.0157 -0.01099,0.026689 -0.0094,0.00942 -0.02512,0.00942 z" />
    <path
       id="path4180"
       style="fill:#616870;fill-opacity:1;stroke-width:0.0392492"
       d="m 15.92006,1.1609919 q -0.111468,0 -0.193106,-0.042389 -0.08007,-0.043959 -0.124028,-0.12402766 -0.04396,-0.0816384 -0.0471,-0.19467628 -0.0016,-0.0235496 -0.0016,-0.0627988 0,-0.0392493 0.0016,-0.0627988 0.0031,-0.11303784 0.0471,-0.19310631 0.04396,-0.0816384 0.124028,-0.12402763 0.08164,-0.0439592 0.193106,-0.0439592 0.09106,0 0.155427,0.0251195 0.06594,0.0251195 0.108328,0.0643688 0.04239,0.0392493 0.0628,0.0847784 0.02198,0.0455291 0.02355,0.0863484 0.0016,0.0156997 -0.0094,0.0251195 -0.01099,0.00942 -0.02669,0.00942 h -0.07536 q -0.0157,0 -0.02355,-0.00628 -0.0078,-0.00785 -0.0157,-0.0251195 -0.02826,-0.0769285 -0.07693,-0.10832793 -0.04867,-0.0313994 -0.120888,-0.0313994 -0.0942,0 -0.153857,0.0580889 -0.05809,0.0580889 -0.0628,0.18682643 -0.0016,0.0565189 0,0.1098979 0.0047,0.13030751 0.0628,0.1883964 0.05966,0.0565189 0.153857,0.0565189 0.07222,0 0.120888,-0.031399 0.04867,-0.0313994 0.07693,-0.10832732 0.0079,-0.0172697 0.0157,-0.0235496 0.0079,-0.00785 0.02355,-0.00785 h 0.07536 q 0.0157,0 0.02669,0.00942 0.01099,0.00942 0.0094,0.0251195 -0.0016,0.0329694 -0.01413,0.0675087 -0.01256,0.0345394 -0.04082,0.0706486 -0.02669,0.034539 -0.06751,0.062799 -0.04082,0.02669 -0.09891,0.043959 -0.05652,0.0157 -0.128738,0.0157 z" />
    <path
       id="path4182"
       style="fill:#616870;fill-opacity:1;stroke-width:0.0392492"
       d="m 16.783126,1.1609919 q -0.161707,0 -0.257475,-0.098908 -0.09577,-0.10047813 -0.105188,-0.27317483 -0.0016,-0.0204096 -0.0016,-0.051809 0,-0.0329694 0.0016,-0.053379 0.0063,-0.11146787 0.05181,-0.19467628 0.04553,-0.0847784 0.124028,-0.13030751 0.08007,-0.0455291 0.186826,-0.0455291 0.119318,0 0.199386,0.050239 0.08164,0.050239 0.124028,0.14286727 0.04239,0.0926282 0.04239,0.21665586 v 0.0266895 q 0,0.0172697 -0.01099,0.0266895 -0.0094,0.00942 -0.02512,0.00942 h -0.54321 q 0,0.00157 0,0.00628 0,0.00471 0,0.00785 0.0031,0.0643688 0.02826,0.12088769 0.02512,0.054949 0.07222,0.0894883 0.0471,0.034539 0.113038,0.034539 0.05652,0 0.0942,-0.01727 0.03768,-0.01727 0.06123,-0.0376793 0.02355,-0.0219796 0.0314,-0.0329694 0.01413,-0.0204096 0.02198,-0.0235496 0.0079,-0.00471 0.02512,-0.00471 h 0.07536 q 0.0157,0 0.02512,0.00942 0.01099,0.00785 0.0094,0.0235495 -0.0016,0.0235496 -0.02512,0.0580889 -0.02355,0.032969 -0.06751,0.065939 -0.04396,0.032969 -0.106758,0.054949 -0.0628,0.02041 -0.144437,0.02041 z M 16.56961,0.6774411 h 0.430172 v -0.00471 q 0,-0.0706486 -0.02669,-0.1255976 -0.02512,-0.0549489 -0.07379,-0.0863483 -0.04867,-0.0329694 -0.116178,-0.0329694 -0.06751,0 -0.116178,0.0329694 -0.0471,0.0313994 -0.07222,0.0863483 -0.02512,0.054949 -0.02512,0.1255976 z" />
    <path
       id="path4184"
       style="fill:#616870;fill-opacity:1;stroke-width:0.0392492"
       d="m 17.675949,1.1452922 q -0.01256,0 -0.02355,-0.00942 -0.0094,-0.00942 -0.0094,-0.02198 0,-0.00628 0.0016,-0.01099 0.0031,-0.00628 0.0047,-0.00942 L 18.008783,0.58638284 17.666529,0.09812217 q -0.0047,-0.0094198 -0.0047,-0.02040962 0,-0.01255976 0.0094,-0.02197958 0.0094,-0.0094198 0.02198,-0.0094198 h 0.0942 q 0.0157,0 0.02512,0.0078499 0.0094,0.0062799 0.01727,0.01883964 l 0.276315,0.39249251 0.274745,-0.39249251 q 0.0063,-0.01255976 0.0157,-0.01883964 0.01099,-0.0078499 0.02512,-0.0078499 h 0.08949 q 0.01256,0 0.02198,0.0094198 0.0094,0.0094198 0.0094,0.02197958 0,0.0109898 -0.0063,0.02040962 l -0.337544,0.48983064 0.357953,0.50553039 q 0.0031,0.00314 0.0047,0.00942 0.0016,0.00471 0.0016,0.01099 0,0.01256 -0.0094,0.02198 -0.0094,0.00942 -0.02355,0.00942 h -0.09577 q -0.01413,0 -0.02512,-0.00785 -0.0094,-0.00785 -0.01727,-0.01727 L 18.099841,0.71198044 17.809397,1.1201726 q -0.0079,0.00942 -0.01727,0.01727 -0.0094,0.00785 -0.02512,0.00785 z" />
    <path
       id="path4186"
       style="fill:#616870;fill-opacity:1;stroke-width:0.0392492"
       d="m 18.901801,1.1452922 q -0.01413,0 -0.02355,-0.00942 -0.0078,-0.01099 -0.0078,-0.025119 0,-0.00785 0.0016,-0.01256 0.0031,-0.00471 0.0047,-0.00785 l 0.240206,-0.3344036 q -0.03925,0.00942 -0.08478,0.00942 -0.08792,-0.00157 -0.156997,-0.0313994 -0.06908,-0.0298294 -0.117747,-0.0800685 -0.04867,-0.051809 -0.07379,-0.11617778 -0.02512,-0.0643688 -0.02512,-0.13501742 0,-0.0690787 0.02355,-0.13501742 0.02512,-0.0659387 0.07379,-0.11931772 0.05024,-0.05337898 0.124027,-0.08477839 0.07379,-0.03296937 0.174267,-0.03296937 0.09891,0 0.172697,0.0313994 0.07536,0.02982944 0.125597,0.08320842 0.05181,0.051809 0.07536,0.11774775 0.02512,0.0659387 0.02512,0.13658739 0,0.0643688 -0.01884,0.11774775 -0.01884,0.053379 -0.04553,0.0957682 -0.02512,0.0423892 -0.05024,0.0784985 L 19.036818,1.1138928 q -0.0063,0.00785 -0.01727,0.02041 -0.01099,0.01099 -0.03297,0.01099 z m 0.152287,-0.50710035 q 0.06594,0 0.120888,-0.0282595 0.05652,-0.0298294 0.08949,-0.0816384 0.03297,-0.053379 0.03297,-0.12716757 0,-0.0737886 -0.03297,-0.1255976 -0.03297,-0.053379 -0.08949,-0.0816384 -0.05495,-0.0298294 -0.120888,-0.0298294 -0.06437,0 -0.119318,0.0298294 -0.05495,0.0282595 -0.08792,0.0816384 -0.03297,0.051809 -0.03297,0.1255976 0,0.0737886 0.03297,0.12716757 0.03297,0.051809 0.08792,0.0816384 0.05495,0.0282595 0.119318,0.0282595 z" />
    <path
       id="path4188"
       style="fill:#616870;fill-opacity:1;stroke-width:0.0392492"
       d="m 19.647807,0.7402399 q -0.0157,0 -0.02669,-0.00942 -0.0094,-0.0109898 -0.0094,-0.0266895 V 0.6444715 q 0,-0.0156997 0.0094,-0.0251195 0.01099,-0.0109898 0.02669,-0.0109898 h 0.470991 q 0.0157,0 0.02512,0.0109898 0.01099,0.00942 0.01099,0.0251195 v 0.0596589 q 0,0.0156997 -0.01099,0.0266895 -0.0094,0.00942 -0.02512,0.00942 z" />
    <path
       id="path4190"
       style="fill:#616870;fill-opacity:1;stroke-width:0.0392492"
       d="m 20.306336,1.1452922 q -0.0157,0 -0.02669,-0.00942 -0.0094,-0.01099 -0.0094,-0.026689 v -0.050239 q 0,-0.01413 0.0078,-0.031399 0.0079,-0.01727 0.0314,-0.0376793 L 20.64231,0.65703149 q 0.08007,-0.0675087 0.125597,-0.11460781 0.0471,-0.0486691 0.06594,-0.0926282 0.02041,-0.0439592 0.02041,-0.0910583 0,-0.0894883 -0.05024,-0.1412973 -0.05024,-0.053379 -0.149147,-0.053379 -0.0628,0 -0.108328,0.0266895 -0.04553,0.0251195 -0.07222,0.0706487 -0.02512,0.0439592 -0.03297,0.10047808 -0.0031,0.0204096 -0.01727,0.0282595 -0.01256,0.00785 -0.02355,0.00785 h -0.08164 q -0.01413,0 -0.02355,-0.00785 -0.0094,-0.00942 -0.0094,-0.0219796 0.0016,-0.0596589 0.02512,-0.11931772 0.02355,-0.0612288 0.06908,-0.1098979 0.0471,-0.04866907 0.114607,-0.07849851 0.06908,-0.0313994 0.160137,-0.0313994 0.124028,0 0.202526,0.04552913 0.08007,0.04395917 0.117748,0.11774776 0.03768,0.0737886 0.03768,0.16170691 0,0.0690787 -0.02355,0.12716757 -0.02355,0.0565189 -0.06908,0.11146787 -0.04396,0.053379 -0.109898,0.1098979 l -0.30145,0.30614413 h 0.489831 q 0.01727,0 0.02669,0.00942 0.01099,0.00942 0.01099,0.02669 v 0.064369 q 0,0.0157 -0.01099,0.026689 -0.0094,0.00942 -0.02669,0.00942 z" />
  </g>
</svg>
