<?xml version="1.0" encoding="UTF-8" standalone="no"?>
<svg
   id="svg872"
   version="1.1"
   viewBox="0 0 192 128"
   height="128px"
   width="192px"
   sodipodi:docname="opca-128.svg"
   inkscape:version="1.1.2 (0a00cf5339, 2022-02-04)"
   xmlns:inkscape="http://www.inkscape.org/namespaces/inkscape"
   xmlns:sodipodi="http://sodipodi.sourceforge.net/DTD/sodipodi-0.dtd"
   xmlns="http://www.w3.org/2000/svg"
   xmlns:svg="http://www.w3.org/2000/svg">
  <defs
     id="defs34" />
  <sodipodi:namedview
     id="namedview32"
     pagecolor="#ffffff"
     bordercolor="#666666"
     borderopacity="1.0"
     inkscape:pageshadow="2"
     inkscape:pageopacity="0.0"
     inkscape:pagecheckerboard="0"
     showgrid="false"
     inkscape:zoom="3.2109375"
     inkscape:cx="92.807786"
     inkscape:cy="62.909976"
     inkscape:window-width="1920"
     inkscape:window-height="1004"
     inkscape:window-x="0"
     inkscape:window-y="0"
     inkscape:window-maximized="1"
     inkscape:current-layer="svg872" />
  <g
     id="g1057"
     transform="translate(0,-1.3713631)">
    <path
       fill="#ec1d24"
       id="ORACLE"
       d="m 150.9821,56.855297 c -2.63102,0 -4.86363,-1.764388 -5.54629,-4.197664 h 14.64759 l 2.01923,-3.144702 h -16.66682 c 0.68266,-2.418691 2.91527,-4.197259 5.54629,-4.197259 h 10.05362 l 2.03381,-3.145108 h -12.31498 c -4.92072,0 -8.91626,3.99874 -8.91626,8.922011 0,4.92327 3.99554,8.907425 8.91626,8.907425 h 10.56582 L 163.34,56.855297 Z M 109.07353,60 c -4.91991,0 -8.91585,-3.984155 -8.91585,-8.907425 0,-4.923271 3.99593,-8.922011 8.91585,-8.922011 h 12.30121 l -2.00505,3.145108 h -10.0682 c -3.18574,0 -5.77385,2.58966 -5.77385,5.776903 0,3.187242 2.58811,5.762722 5.77385,5.762722 h 12.35749 L 119.63975,60 Z M 43.997094,56.855297 c 3.187358,0 5.768178,-2.57548 5.768178,-5.762722 0,-3.187243 -2.58082,-5.776903 -5.768178,-5.776903 h -9.897329 c -3.185334,0 -5.768179,2.58966 -5.768179,5.776903 0,3.187242 2.582845,5.762722 5.768179,5.762722 z M 33.870997,60 C 28.95189,60 24.96,56.015845 24.96,51.092575 c 0,-4.923271 3.99189,-8.922011 8.910997,-8.922011 h 10.356889 c 4.919917,0 8.908973,3.99874 8.908973,8.922011 0,4.92327 -3.989056,8.907425 -8.908973,8.907425 z m 36.081685,-5.777308 c 3.327858,0 6.029743,-2.688919 6.029743,-6.018771 0,-3.329447 -2.701885,-6.033357 -6.029743,-6.033357 H 54.960115 V 60 h 3.425843 V 45.315672 h 11.339171 c 1.592869,0 2.872752,1.294425 2.872752,2.888249 0,1.593824 -1.279883,2.888654 -2.872752,2.888654 L 60.063856,51.078395 70.294011,60 h 4.977412 l -6.882862,-5.777308 z m 56.697878,2.632605 V 42.170564 h -3.42746 v 16.121768 c 0,0.441198 0.17087,0.868216 0.49803,1.19557 C 124.04788,59.814851 124.48881,60 124.97267,60 h 15.62825 l 2.01963,-3.144703 z M 84.699476,53.710594 H 93.84329 L 89.008401,45.927435 80.134655,60 H 76.096201 L 86.88957,43.095906 C 87.358847,42.412838 88.14111,42 89.008401,42 c 0.839354,0 1.621212,0.398253 2.075913,1.067141 L 101.9206,60 h -4.038452 l -1.905855,-3.144703 h -9.25759 z M 165.18344,45.68428 c -1.01414,0 -1.84344,-0.823151 -1.84344,-1.842326 C 163.34,42.823151 164.1693,42 165.18344,42 c 1.02726,0 1.85656,0.823151 1.85656,1.841954 0,1.019175 -0.8293,1.842326 -1.85656,1.842326 z m -0.17134,-2.939613 c 0.28981,0 0.40828,0.01302 0.54025,0.06547 0.36854,0.117539 0.40828,0.444122 0.40828,0.57468 0,0.02604 0,0.0915 -0.0266,0.169615 -0.0131,0.07848 -0.066,0.235452 -0.25044,0.352991 -0.0259,0.01302 -0.039,0.02604 -0.0918,0.05208 l 0.47426,0.849561 h -0.46114 l -0.4214,-0.784095 h -0.28943 v 0.784095 h -0.40828 v -2.064388 z m 0.14509,0.940691 c 0.1316,-0.01302 0.26319,-0.01302 0.3423,-0.13093 0.0397,-0.05208 0.0529,-0.104149 0.0529,-0.182633 0,-0.104522 -0.066,-0.196024 -0.15821,-0.248099 -0.0922,-0.03943 -0.18408,-0.03943 -0.38204,-0.03943 h -0.11809 v 0.60109 z m -1.42203,0.143577 c 0,0.810133 0.64522,1.450279 1.44828,1.450279 0.81656,0 1.46178,-0.640146 1.46178,-1.450279 0,-0.796741 -0.64522,-1.436887 -1.46178,-1.436887 -0.80306,0 -1.44828,0.640146 -1.44828,1.436887 z"
       style="fill-rule:evenodd;stroke:none;stroke-width:1" />
    <g
       id="g1032"
       transform="matrix(1.2416513,0,0,1.2416513,-1.4365619,-19.518507)">
      <path
         id="path1483"
         style="font-size:14.1565px;line-height:1.05;font-family:Rubik;-inkscape-font-specification:'Rubik, Normal';fill:#000000;fill-opacity:1;fill-rule:evenodd;stroke:none;stroke-width:0.353912"
         d="m 1.48258,84.501595 q -0.155721,0 -0.24066,-0.08494 -0.08494,-0.0991 -0.08494,-0.240661 V 74.9318 q 0,-0.155722 0.08494,-0.240661 0.08494,-0.09909 0.24066,-0.09909 h 3.595751 q 1.047581,0 1.812032,0.339756 0.778608,0.339756 1.203303,1.019268 0.424695,0.665355 0.424695,1.670467 0,1.005111 -0.424695,1.670467 -0.424695,0.665355 -1.203303,1.005111 -0.764451,0.339756 -1.812032,0.339756 h -2.5057 v 3.539125 q 0,0.141565 -0.0991,0.240661 -0.08494,0.08494 -0.24066,0.08494 z m 1.075894,-5.053871 h 2.449075 q 1.047581,0 1.571371,-0.467164 0.523791,-0.467165 0.523791,-1.359024 0,-0.877703 -0.509634,-1.359024 Q 6.083443,75.781191 5.007549,75.781191 H 2.558474 Z" />
      <path
         id="path1485"
         style="font-size:14.1565px;line-height:1.05;font-family:Rubik;-inkscape-font-specification:'Rubik, Normal';fill:#000000;fill-opacity:1;fill-rule:evenodd;stroke:none;stroke-width:0.353912"
         d="m 10.395203,84.501595 q -0.141565,0 -0.240661,-0.08494 -0.08494,-0.0991 -0.08494,-0.240661 V 77.47997 q 0,-0.141565 0.08494,-0.240661 0.0991,-0.0991 0.240661,-0.0991 h 0.651199 q 0.141565,0 0.24066,0.0991 0.0991,0.0991 0.0991,0.240661 v 0.622886 q 0.28313,-0.481321 0.778607,-0.721982 0.495478,-0.24066 1.189146,-0.24066 h 0.56626 q 0.141565,0 0.226504,0.0991 0.08494,0.08494 0.08494,0.226504 v 0.580417 q 0,0.141565 -0.08494,0.226504 -0.08494,0.08494 -0.226504,0.08494 h -0.84939 q -0.764451,0 -1.203302,0.453008 -0.438852,0.438851 -0.438852,1.203302 V 84.176 q 0,0.141565 -0.0991,0.240661 -0.0991,0.08494 -0.240661,0.08494 z" />
      <path
         id="path1487"
         style="font-size:14.1565px;line-height:1.05;font-family:Rubik;-inkscape-font-specification:'Rubik, Normal';fill:#000000;fill-opacity:1;fill-rule:evenodd;stroke:none;stroke-width:0.353912"
         d="m 15.786839,84.501595 q -0.141565,0 -0.240661,-0.08494 -0.08494,-0.0991 -0.08494,-0.240661 v -6.710181 q 0,-0.141565 0.08494,-0.226504 0.0991,-0.0991 0.240661,-0.0991 h 0.679512 q 0.141565,0 0.226504,0.0991 0.08494,0.08494 0.08494,0.226504 v 6.710181 q 0,0.141565 -0.08494,0.240661 -0.08494,0.08494 -0.226504,0.08494 z m -0.113252,-8.734561 q -0.141565,0 -0.240661,-0.08494 -0.08494,-0.09909 -0.08494,-0.24066 v -0.764451 q 0,-0.141565 0.08494,-0.226504 0.0991,-0.0991 0.240661,-0.0991 h 0.891859 q 0.141565,0 0.226504,0.0991 0.0991,0.08494 0.0991,0.226504 v 0.764451 q 0,0.141565 -0.0991,0.24066 -0.08494,0.08494 -0.226504,0.08494 z" />
      <path
         id="path1489"
         style="font-size:14.1565px;line-height:1.05;font-family:Rubik;-inkscape-font-specification:'Rubik, Normal';fill:#000000;fill-opacity:1;fill-rule:evenodd;stroke:none;stroke-width:0.353912"
         d="m 21.452093,84.501595 q -0.212347,0 -0.339756,-0.0991 -0.113252,-0.09909 -0.184034,-0.254817 L 18.30935,77.579062 q -0.02831,-0.07078 -0.02831,-0.141565 0,-0.127408 0.08494,-0.212347 0.08494,-0.08494 0.212348,-0.08494 h 0.679512 q 0.155721,0 0.24066,0.08494 0.08494,0.08494 0.0991,0.155721 l 2.165945,5.577661 2.151788,-5.577661 q 0.02831,-0.07078 0.0991,-0.155721 0.08494,-0.08494 0.24066,-0.08494 h 0.693669 q 0.113252,0 0.198191,0.08494 0.0991,0.08494 0.0991,0.212347 0,0.07078 -0.02831,0.141565 l -2.633109,6.568616 q -0.05663,0.155722 -0.184035,0.254817 -0.113252,0.0991 -0.339756,0.0991 z" />
      <path
         id="path1491"
         style="font-size:14.1565px;line-height:1.05;font-family:Rubik;-inkscape-font-specification:'Rubik, Normal';fill:#000000;fill-opacity:1;fill-rule:evenodd;stroke:none;stroke-width:0.353912"
         d="m 28.518399,84.64316 q -0.707825,0 -1.288242,-0.28313 -0.580416,-0.28313 -0.934329,-0.764451 -0.353912,-0.481321 -0.353912,-1.090051 0,-0.976798 0.792764,-1.557215 0.792764,-0.580416 2.066849,-0.764451 l 2.109318,-0.297286 v -0.410539 q 0,-0.679512 -0.396382,-1.061737 -0.382225,-0.382226 -1.259928,-0.382226 -0.637043,0 -1.033425,0.254817 -0.382225,0.254817 -0.537947,0.651199 -0.08494,0.212348 -0.297286,0.212348 h -0.637043 q -0.155721,0 -0.24066,-0.08494 -0.07078,-0.0991 -0.07078,-0.226504 0,-0.212348 0.155722,-0.523791 0.169878,-0.311443 0.509634,-0.608729 0.339756,-0.297287 0.863546,-0.495478 0.537947,-0.212347 1.302398,-0.212347 0.84939,0 1.429807,0.226504 0.580416,0.212347 0.906016,0.580416 0.339756,0.368069 0.481321,0.835234 0.155721,0.467164 0.155721,0.948485 v 4.586706 q 0,0.141565 -0.09909,0.240661 -0.08494,0.08494 -0.226504,0.08494 H 31.26476 q -0.155721,0 -0.24066,-0.08494 -0.08494,-0.0991 -0.08494,-0.240661 v -0.608728 q -0.184035,0.254817 -0.495478,0.509634 -0.311443,0.24066 -0.778608,0.410538 -0.467164,0.155722 -1.146675,0.155722 z m 0.297286,-1.061738 q 0.580417,0 1.061738,-0.24066 0.481321,-0.254817 0.750294,-0.778608 0.28313,-0.52379 0.28313,-1.316554 v -0.396382 l -1.642154,0.24066 q -1.005111,0.141565 -1.514745,0.481321 -0.509634,0.3256 -0.509634,0.835234 0,0.396382 0.226504,0.665355 0.24066,0.254817 0.594573,0.382226 0.368069,0.127408 0.750294,0.127408 z" />
      <path
         id="path1493"
         style="font-size:14.1565px;line-height:1.05;font-family:Rubik;-inkscape-font-specification:'Rubik, Normal';fill:#000000;fill-opacity:1;fill-rule:evenodd;stroke:none;stroke-width:0.353912"
         d="m 37.081312,84.501595 q -0.792764,0 -1.288241,-0.297287 -0.495478,-0.311443 -0.721982,-0.863546 -0.226504,-0.56626 -0.226504,-1.330711 v -3.737316 h -1.104207 q -0.141565,0 -0.24066,-0.08494 -0.08494,-0.0991 -0.08494,-0.240661 v -0.481321 q 0,-0.141565 0.08494,-0.226504 0.0991,-0.0991 0.24066,-0.0991 h 1.104207 v -2.364136 q 0,-0.141565 0.08494,-0.226504 0.09909,-0.09909 0.240661,-0.09909 h 0.665355 q 0.141565,0 0.226504,0.09909 0.09909,0.08494 0.09909,0.226504 v 2.364136 h 1.755407 q 0.141565,0 0.226504,0.0991 0.0991,0.08494 0.0991,0.226504 v 0.481321 q 0,0.141565 -0.0991,0.240661 -0.08494,0.08494 -0.226504,0.08494 H 36.16114 v 3.63822 q 0,0.665356 0.226504,1.047581 0.226504,0.382226 0.80692,0.382226 h 0.863547 q 0.141565,0 0.226504,0.0991 0.0991,0.08494 0.0991,0.226504 V 84.176 q 0,0.141565 -0.0991,0.240661 -0.08494,0.08494 -0.226504,0.08494 z" />
      <path
         id="path1495"
         style="font-size:14.1565px;line-height:1.05;font-family:Rubik;-inkscape-font-specification:'Rubik, Normal';fill:#000000;fill-opacity:1;fill-rule:evenodd;stroke:none;stroke-width:0.353912"
         d="m 42.667819,84.64316 q -1.45812,0 -2.321666,-0.89186 -0.863547,-0.906016 -0.948486,-2.463231 -0.01416,-0.184034 -0.01416,-0.467164 0,-0.297287 0.01416,-0.481321 0.05663,-1.005112 0.467165,-1.755406 0.410538,-0.764451 1.118363,-1.17499 0.721982,-0.410538 1.684624,-0.410538 1.075894,0 1.797875,0.453008 0.736138,0.453008 1.118364,1.288241 0.382225,0.835234 0.382225,1.953597 v 0.240661 q 0,0.155721 -0.0991,0.24066 -0.08494,0.08494 -0.226504,0.08494 H 40.74253 q 0,0.01416 0,0.05663 0,0.04247 0,0.07078 0.02831,0.580416 0.254817,1.09005 0.226504,0.495478 0.651199,0.806921 0.424695,0.311443 1.019268,0.311443 0.509634,0 0.84939,-0.155722 0.339756,-0.155721 0.552103,-0.339756 0.212348,-0.198191 0.28313,-0.297286 0.127409,-0.184035 0.198191,-0.212348 0.07078,-0.04247 0.226504,-0.04247 h 0.679512 q 0.141565,0 0.226504,0.08494 0.0991,0.07078 0.08494,0.212347 -0.01416,0.212348 -0.226504,0.523791 -0.212347,0.297286 -0.608729,0.594573 -0.396382,0.297286 -0.962642,0.495477 -0.56626,0.184035 -1.302398,0.184035 z m -1.925284,-4.360202 h 3.878881 v -0.04247 q 0,-0.637042 -0.240661,-1.13252 -0.226504,-0.495477 -0.665355,-0.778607 -0.438852,-0.297287 -1.047581,-0.297287 -0.60873,0 -1.047581,0.297287 -0.424695,0.28313 -0.651199,0.778607 -0.226504,0.495478 -0.226504,1.13252 z" />
      <path
         id="path1497"
         style="font-size:14.1565px;line-height:1.05;font-family:Rubik;-inkscape-font-specification:'Rubik, Normal';fill:#000000;fill-opacity:1;fill-rule:evenodd;stroke:none;stroke-width:0.353912"
         d="m 54.880455,84.64316 q -1.302398,0 -2.165944,-0.481321 -0.84939,-0.481321 -1.288242,-1.344868 -0.438851,-0.863546 -0.481321,-2.010223 -0.01416,-0.580416 -0.01416,-1.245772 0,-0.665355 0.01416,-1.274085 0.04247,-1.146676 0.481321,-2.010223 0.438852,-0.863546 1.288242,-1.344867 0.863546,-0.481321 2.165944,-0.481321 0.976799,0 1.712937,0.268973 0.736138,0.268974 1.217459,0.721982 0.495477,0.453008 0.750294,1.019268 0.254817,0.552103 0.28313,1.146676 0.01416,0.127409 -0.08494,0.212348 -0.08494,0.08494 -0.212347,0.08494 H 57.76838 q -0.127408,0 -0.226504,-0.07078 -0.08494,-0.07078 -0.127408,-0.254817 -0.240661,-1.104207 -0.906016,-1.514745 -0.651199,-0.410539 -1.642154,-0.410539 -1.13252,0 -1.797876,0.651199 -0.665355,0.637043 -0.721981,2.052693 -0.04247,1.160833 0,2.378292 0.05663,1.41565 0.721981,2.066849 0.665356,0.637042 1.797876,0.637042 0.990955,0 1.642154,-0.410538 0.665355,-0.410539 0.906016,-1.514746 0.04247,-0.184034 0.127408,-0.254817 0.0991,-0.07078 0.226504,-0.07078 h 0.778608 q 0.127408,0 0.212347,0.08494 0.0991,0.08494 0.08494,0.212347 -0.02831,0.594573 -0.28313,1.160833 -0.254817,0.552104 -0.750294,1.005112 -0.481321,0.453008 -1.217459,0.721981 -0.736138,0.268974 -1.712937,0.268974 z" />
      <path
         id="path1499"
         style="font-size:14.1565px;line-height:1.05;font-family:Rubik;-inkscape-font-specification:'Rubik, Normal';fill:#000000;fill-opacity:1;fill-rule:evenodd;stroke:none;stroke-width:0.353912"
         d="m 60.89719,84.501595 q -0.141565,0 -0.24066,-0.08494 -0.08494,-0.0991 -0.08494,-0.240661 v -9.399916 q 0,-0.141565 0.08494,-0.226504 0.0991,-0.09909 0.24066,-0.09909 h 0.665356 q 0.155721,0 0.24066,0.09909 0.08494,0.08494 0.08494,0.226504 v 9.399916 q 0,0.141565 -0.08494,0.240661 -0.08494,0.08494 -0.24066,0.08494 z" />
      <path
         id="path1501"
         style="font-size:14.1565px;line-height:1.05;font-family:Rubik;-inkscape-font-specification:'Rubik, Normal';fill:#000000;fill-opacity:1;fill-rule:evenodd;stroke:none;stroke-width:0.353912"
         d="m 67.001297,84.64316 q -1.075894,0 -1.797876,-0.410539 -0.721981,-0.410538 -1.104207,-1.13252 -0.382225,-0.736138 -0.424695,-1.670467 -0.01416,-0.24066 -0.01416,-0.608729 0,-0.382226 0.01416,-0.60873 0.04247,-0.948485 0.424695,-1.670467 0.396382,-0.721981 1.118364,-1.13252 0.721981,-0.410538 1.783719,-0.410538 1.061737,0 1.783719,0.410538 0.721981,0.410539 1.104207,1.13252 0.396382,0.721982 0.438851,1.670467 0.01416,0.226504 0.01416,0.60873 0,0.368069 -0.01416,0.608729 -0.04247,0.934329 -0.424695,1.670467 -0.382225,0.721982 -1.104207,1.13252 -0.721981,0.410539 -1.797875,0.410539 z m 0,-1.090051 q 0.877703,0 1.401493,-0.552103 0.523791,-0.56626 0.56626,-1.642154 0.01416,-0.212348 0.01416,-0.537947 0,-0.3256 -0.01416,-0.537947 Q 68.92658,79.207064 68.40279,78.65496 67.879,78.0887 67.001297,78.0887 q -0.877703,0 -1.41565,0.56626 -0.523791,0.552104 -0.552104,1.627998 -0.01416,0.212347 -0.01416,0.537947 0,0.325599 0.01416,0.537947 0.02831,1.075894 0.552104,1.642154 0.537947,0.552103 1.41565,0.552103 z" />
      <path
         id="path1503"
         style="font-size:14.1565px;line-height:1.05;font-family:Rubik;-inkscape-font-specification:'Rubik, Normal';fill:#000000;fill-opacity:1;fill-rule:evenodd;stroke:none;stroke-width:0.353912"
         d="m 74.861245,84.64316 q -0.906016,0 -1.543059,-0.396382 -0.622886,-0.410539 -0.948485,-1.13252 -0.3256,-0.721982 -0.3256,-1.656311 v -3.992133 q 0,-0.141565 0.08494,-0.226504 0.0991,-0.0991 0.240661,-0.0991 h 0.707825 q 0.141565,0 0.226504,0.0991 0.0991,0.08494 0.0991,0.226504 v 3.921351 q 0,2.109318 1.840345,2.109318 0.877703,0 1.401494,-0.552103 0.537947,-0.56626 0.537947,-1.557215 v -3.921351 q 0,-0.141565 0.08494,-0.226504 0.09909,-0.0991 0.24066,-0.0991 h 0.693669 q 0.155721,0 0.24066,0.0991 0.08494,0.08494 0.08494,0.226504 v 6.710181 q 0,0.141565 -0.08494,0.240661 -0.08494,0.08494 -0.24066,0.08494 H 77.55098 q -0.141565,0 -0.240661,-0.08494 -0.08494,-0.0991 -0.08494,-0.240661 v -0.622886 q -0.382225,0.495478 -0.934329,0.792764 -0.537947,0.297287 -1.429805,0.297287 z" />
      <path
         id="path1505"
         style="font-size:14.1565px;line-height:1.05;font-family:Rubik;-inkscape-font-specification:'Rubik, Normal';fill:#000000;fill-opacity:1;fill-rule:evenodd;stroke:none;stroke-width:0.353912"
         d="m 83.32064,84.64316 q -0.778607,0 -1.344867,-0.268974 -0.56626,-0.28313 -0.934329,-0.750294 -0.353913,-0.481321 -0.537947,-1.090051 -0.169878,-0.608729 -0.198191,-1.288241 -0.01416,-0.226504 -0.01416,-0.424695 0,-0.198191 0.01416,-0.424695 0.02831,-0.665356 0.198191,-1.274085 0.184034,-0.60873 0.537947,-1.090051 0.368069,-0.481321 0.934329,-0.750294 0.56626,-0.28313 1.344867,-0.28313 0.835234,0 1.387337,0.297286 0.552104,0.297287 0.906016,0.736138 v -3.255995 q 0,-0.141565 0.08494,-0.226504 0.0991,-0.09909 0.240661,-0.09909 h 0.679512 q 0.141565,0 0.226504,0.09909 0.09909,0.08494 0.09909,0.226504 v 9.399916 q 0,0.141565 -0.09909,0.240661 -0.08494,0.08494 -0.226504,0.08494 h -0.637043 q -0.155721,0 -0.24066,-0.08494 -0.08494,-0.0991 -0.08494,-0.240661 V 83.581422 Q 85.30255,84.03443 84.73629,84.345873 84.17003,84.64316 83.32064,84.64316 Z m 0.297287,-1.146677 q 0.707825,0 1.13252,-0.325599 0.424695,-0.3256 0.637042,-0.821077 0.212348,-0.509634 0.226504,-1.033425 0.01416,-0.226504 0.01416,-0.537947 0,-0.325599 -0.01416,-0.552103 -0.01416,-0.495478 -0.24066,-0.976799 -0.212348,-0.481321 -0.651199,-0.792764 -0.424695,-0.311443 -1.104207,-0.311443 -0.721982,0 -1.146677,0.3256 -0.424695,0.311443 -0.608729,0.835233 -0.184035,0.509634 -0.212348,1.104207 -0.01416,0.410539 0,0.821077 0.02831,0.594573 0.212348,1.118364 0.184034,0.509634 0.608729,0.835233 0.424695,0.311443 1.146677,0.311443 z" />
      <path
         id="path1507"
         style="font-size:14.1565px;line-height:1.05;font-family:Rubik;-inkscape-font-specification:'Rubik, Normal';fill:#000000;fill-opacity:1;fill-rule:evenodd;stroke:none;stroke-width:0.353912"
         d="m 91.651744,84.501595 q -0.113252,0 -0.198191,-0.08494 -0.08494,-0.08494 -0.08494,-0.198191 0,-0.07078 0.01416,-0.155722 l 3.510812,-9.159255 q 0.05663,-0.141565 0.155722,-0.226504 0.09909,-0.08494 0.297286,-0.08494 h 0.962642 q 0.184034,0 0.28313,0.08494 0.113252,0.08494 0.169878,0.226504 l 3.496657,9.159255 q 0.0283,0.08494 0.0283,0.155722 0,0.113252 -0.0849,0.198191 -0.0849,0.08494 -0.19819,0.08494 h -0.721984 q -0.169878,0 -0.254817,-0.08494 -0.07078,-0.08494 -0.0991,-0.155722 L 98.149572,82.25071 H 93.50624 l -0.778607,2.010223 q -0.01416,0.07078 -0.0991,0.155722 -0.08494,0.08494 -0.254817,0.08494 z m 2.26504,-3.468343 h 3.822254 l -1.911127,-5.025557 z" />
      <path
         id="path1509"
         style="font-size:14.1565px;line-height:1.05;font-family:Rubik;-inkscape-font-specification:'Rubik, Normal';fill:#000000;fill-opacity:1;fill-rule:evenodd;stroke:none;stroke-width:0.353912"
         d="m 101.95657,87.19133 q -0.14156,0 -0.24066,-0.0991 -0.0849,-0.08494 -0.0849,-0.226504 V 77.46581 q 0,-0.141565 0.0849,-0.226504 0.0991,-0.0991 0.24066,-0.0991 h 0.6512 q 0.14156,0 0.2265,0.0991 0.0991,0.08494 0.0991,0.226504 v 0.62289 q 0.33976,-0.467164 0.90602,-0.778607 0.56626,-0.311443 1.41565,-0.311443 0.79276,0 1.34487,0.268973 0.56626,0.268974 0.92017,0.736138 0.36807,0.467165 0.5521,1.061738 0.18404,0.594573 0.19819,1.274085 0.0142,0.226504 0.0142,0.481321 0,0.254817 -0.0142,0.481321 -0.0142,0.665355 -0.19819,1.274085 -0.18403,0.594573 -0.5521,1.061737 -0.35391,0.453008 -0.92017,0.736138 -0.55211,0.268974 -1.34487,0.268974 -0.82108,0 -1.38734,-0.297287 -0.5521,-0.311443 -0.90601,-0.764451 v 3.284308 q 0,0.141565 -0.0849,0.226504 -0.0849,0.0991 -0.24066,0.0991 z m 3.00118,-3.694847 q 0.73614,0 1.14667,-0.311443 0.4247,-0.325599 0.60873,-0.835233 0.18404,-0.523791 0.21235,-1.118364 0.0142,-0.410538 0,-0.821077 -0.0283,-0.594573 -0.21235,-1.104207 -0.18403,-0.52379 -0.60873,-0.835233 -0.41053,-0.3256 -1.14667,-0.3256 -0.69367,0 -1.13252,0.3256 -0.4247,0.325599 -0.63705,0.835233 -0.19819,0.495478 -0.2265,1.019268 -0.0142,0.226504 -0.0142,0.537947 0,0.311443 0.0142,0.552104 0.0142,0.495477 0.2265,0.976798 0.22651,0.481321 0.66536,0.792764 0.43885,0.311443 1.10421,0.311443 z" />
      <path
         id="path1511"
         style="font-size:14.1565px;line-height:1.05;font-family:Rubik;-inkscape-font-specification:'Rubik, Normal';fill:#000000;fill-opacity:1;fill-rule:evenodd;stroke:none;stroke-width:0.353912"
         d="m 110.38964,87.19133 q -0.14157,0 -0.24066,-0.0991 -0.0849,-0.08494 -0.0849,-0.226504 V 77.46581 q 0,-0.141565 0.0849,-0.226504 0.0991,-0.0991 0.24066,-0.0991 h 0.6512 q 0.14156,0 0.2265,0.0991 0.0991,0.08494 0.0991,0.226504 v 0.62289 q 0.33976,-0.467164 0.90602,-0.778607 0.56626,-0.311443 1.41565,-0.311443 0.79276,0 1.34486,0.268973 0.56626,0.268974 0.92018,0.736138 0.36807,0.467165 0.5521,1.061738 0.18403,0.594573 0.19819,1.274085 0.0142,0.226504 0.0142,0.481321 0,0.254817 -0.0142,0.481321 -0.0142,0.665355 -0.19819,1.274085 -0.18403,0.594573 -0.5521,1.061737 -0.35392,0.453008 -0.92018,0.736138 -0.5521,0.268974 -1.34486,0.268974 -0.82108,0 -1.38734,-0.297287 -0.5521,-0.311443 -0.90602,-0.764451 v 3.284308 q 0,0.141565 -0.0849,0.226504 -0.0849,0.0991 -0.24066,0.0991 z m 3.00117,-3.694847 q 0.73614,0 1.14668,-0.311443 0.4247,-0.325599 0.60873,-0.835233 0.18404,-0.523791 0.21235,-1.118364 0.0142,-0.410538 0,-0.821077 -0.0283,-0.594573 -0.21235,-1.104207 -0.18403,-0.52379 -0.60873,-0.835233 -0.41054,-0.3256 -1.14668,-0.3256 -0.69366,0 -1.13252,0.3256 -0.42469,0.325599 -0.63704,0.835233 -0.19819,0.495478 -0.2265,1.019268 -0.0142,0.226504 -0.0142,0.537947 0,0.311443 0.0142,0.552104 0.0142,0.495477 0.2265,0.976798 0.22651,0.481321 0.66536,0.792764 0.43885,0.311443 1.1042,0.311443 z" />
      <path
         id="path1513"
         style="font-size:14.1565px;line-height:1.05;font-family:Rubik;-inkscape-font-specification:'Rubik, Normal';fill:#000000;fill-opacity:1;fill-rule:evenodd;stroke:none;stroke-width:0.353912"
         d="m 118.82271,84.501595 q -0.14156,0 -0.24066,-0.08494 -0.0849,-0.0991 -0.0849,-0.240661 v -9.399916 q 0,-0.141565 0.0849,-0.226504 0.0991,-0.09909 0.24066,-0.09909 h 0.66536 q 0.15572,0 0.24066,0.09909 0.0849,0.08494 0.0849,0.226504 v 9.399916 q 0,0.141565 -0.0849,0.240661 -0.0849,0.08494 -0.24066,0.08494 z" />
      <path
         id="path1515"
         style="font-size:14.1565px;line-height:1.05;font-family:Rubik;-inkscape-font-specification:'Rubik, Normal';fill:#000000;fill-opacity:1;fill-rule:evenodd;stroke:none;stroke-width:0.353912"
         d="m 122.23708,84.501595 q -0.14156,0 -0.24066,-0.08494 -0.0849,-0.0991 -0.0849,-0.240661 v -6.710181 q 0,-0.141565 0.0849,-0.226504 0.0991,-0.0991 0.24066,-0.0991 h 0.67952 q 0.14156,0 0.2265,0.0991 0.0849,0.08494 0.0849,0.226504 v 6.710181 q 0,0.141565 -0.0849,0.240661 -0.0849,0.08494 -0.2265,0.08494 z m -0.11325,-8.734561 q -0.14156,0 -0.24066,-0.08494 -0.0849,-0.09909 -0.0849,-0.24066 v -0.764451 q 0,-0.141565 0.0849,-0.226504 0.0991,-0.0991 0.24066,-0.0991 h 0.89186 q 0.14157,0 0.2265,0.0991 0.0991,0.08494 0.0991,0.226504 v 0.764451 q 0,0.141565 -0.0991,0.24066 -0.0849,0.08494 -0.2265,0.08494 z" />
      <path
         id="path1517"
         style="font-size:14.1565px;line-height:1.05;font-family:Rubik;-inkscape-font-specification:'Rubik, Normal';fill:#000000;fill-opacity:1;fill-rule:evenodd;stroke:none;stroke-width:0.353912"
         d="m 127.3927,84.64316 q -0.70782,0 -1.28824,-0.28313 -0.58041,-0.28313 -0.93433,-0.764451 -0.35391,-0.481321 -0.35391,-1.090051 0,-0.976798 0.79277,-1.557215 0.79276,-0.580416 2.06684,-0.764451 l 2.10932,-0.297286 v -0.410539 q 0,-0.679512 -0.39638,-1.061737 -0.38222,-0.382226 -1.25993,-0.382226 -0.63704,0 -1.03342,0.254817 -0.38223,0.254817 -0.53795,0.651199 -0.0849,0.212348 -0.29729,0.212348 h -0.63704 q -0.15572,0 -0.24066,-0.08494 -0.0708,-0.0991 -0.0708,-0.226504 0,-0.212348 0.15572,-0.523791 0.16988,-0.311443 0.50964,-0.608729 0.33975,-0.297287 0.86354,-0.495478 0.53795,-0.212347 1.3024,-0.212347 0.84939,0 1.42981,0.226504 0.58041,0.212347 0.90601,0.580416 0.33976,0.368069 0.48132,0.835234 0.15572,0.467164 0.15572,0.948485 v 4.586706 q 0,0.141565 -0.0991,0.240661 -0.0849,0.08494 -0.22651,0.08494 h -0.65119 q -0.15573,0 -0.24067,-0.08494 -0.0849,-0.0991 -0.0849,-0.240661 v -0.608729 q -0.18404,0.254817 -0.49548,0.509634 -0.31144,0.24066 -0.77861,0.410538 -0.46716,0.155722 -1.14668,0.155723 z m 0.29729,-1.061738 q 0.58042,0 1.06174,-0.24066 0.48132,-0.254817 0.75029,-0.778608 0.28313,-0.52379 0.28313,-1.316554 v -0.396382 l -1.64215,0.24066 q -1.00511,0.141565 -1.51475,0.481321 -0.50963,0.3256 -0.50963,0.835234 0,0.396382 0.2265,0.665355 0.24066,0.254817 0.59458,0.382226 0.36807,0.127408 0.75029,0.127408 z" />
      <path
         id="path1519"
         style="font-size:14.1565px;line-height:1.05;font-family:Rubik;-inkscape-font-specification:'Rubik, Normal';fill:#000000;fill-opacity:1;fill-rule:evenodd;stroke:none;stroke-width:0.353912"
         d="m 133.49039,84.501595 q -0.14156,0 -0.24066,-0.08494 -0.0849,-0.0991 -0.0849,-0.240661 v -6.710181 q 0,-0.141565 0.0849,-0.226504 0.0991,-0.0991 0.24066,-0.0991 h 0.66536 q 0.14157,0 0.2265,0.0991 0.0991,0.08494 0.0991,0.226504 V 78.0887 q 0.36807,-0.481321 0.92017,-0.778607 0.56626,-0.311443 1.44397,-0.311443 0.92017,0 1.55721,0.410538 0.6512,0.396382 0.9768,1.118364 0.3256,0.707825 0.3256,1.65631 v 3.992133 q 0,0.141565 -0.0849,0.240661 -0.0849,0.08494 -0.2265,0.08494 h -0.70783 q -0.14156,0 -0.24066,-0.08494 -0.0849,-0.0991 -0.0849,-0.240661 v -3.92135 q 0,-0.990955 -0.48132,-1.543059 -0.48132,-0.56626 -1.41565,-0.56626 -0.8777,0 -1.41565,0.56626 -0.52379,0.552104 -0.52379,1.543059 v 3.92135 q 0,0.141565 -0.0991,0.240661 -0.0849,0.08494 -0.2265,0.08494 z" />
      <path
         id="path1521"
         style="font-size:14.1565px;line-height:1.05;font-family:Rubik;-inkscape-font-specification:'Rubik, Normal';fill:#000000;fill-opacity:1;fill-rule:evenodd;stroke:none;stroke-width:0.353912"
         d="m 144.70898,84.64316 q -1.00511,0 -1.74125,-0.382226 -0.72198,-0.396382 -1.11836,-1.118363 -0.39639,-0.736138 -0.4247,-1.755406 -0.0142,-0.212348 -0.0142,-0.56626 0,-0.353913 0.0142,-0.56626 0.0283,-1.019268 0.4247,-1.74125 0.39638,-0.736138 1.11836,-1.118363 0.73614,-0.396382 1.74125,-0.396382 0.82108,0 1.40149,0.226504 0.59458,0.226504 0.9768,0.580416 0.38223,0.353913 0.56626,0.764451 0.19819,0.410539 0.21235,0.778608 0.0142,0.141565 -0.0849,0.226504 -0.0991,0.08494 -0.24066,0.08494 h -0.67951 q -0.14157,0 -0.21235,-0.05663 -0.0708,-0.07078 -0.14156,-0.226504 -0.25482,-0.693669 -0.69367,-0.976799 -0.43885,-0.28313 -1.09005,-0.28313 -0.84939,0 -1.38734,0.523791 -0.52379,0.52379 -0.56626,1.684623 -0.0142,0.509634 0,0.990955 0.0425,1.17499 0.56626,1.69878 0.53795,0.509634 1.38734,0.509634 0.6512,0 1.09005,-0.28313 0.43885,-0.28313 0.69367,-0.976798 0.0708,-0.155722 0.14156,-0.212348 0.0708,-0.07078 0.21235,-0.07078 h 0.67951 q 0.14156,0 0.24066,0.08494 0.0991,0.08494 0.0849,0.226504 -0.0142,0.297286 -0.12741,0.608729 -0.11325,0.311443 -0.36807,0.637043 -0.24066,0.311443 -0.60873,0.56626 -0.36807,0.24066 -0.89186,0.396382 -0.50963,0.141565 -1.16083,0.141565 z" />
      <path
         id="path1523"
         style="font-size:14.1565px;line-height:1.05;font-family:Rubik;-inkscape-font-specification:'Rubik, Normal';fill:#000000;fill-opacity:1;fill-rule:evenodd;stroke:none;stroke-width:0.353912"
         d="m 152.49129,84.64316 q -1.45812,0 -2.32166,-0.89186 -0.86355,-0.906016 -0.94849,-2.463231 -0.0142,-0.184034 -0.0142,-0.467164 0,-0.297287 0.0142,-0.481321 0.0566,-1.005112 0.46717,-1.755406 0.41054,-0.764451 1.11836,-1.17499 0.72198,-0.410538 1.68462,-0.410538 1.0759,0 1.79788,0.453008 0.73614,0.453008 1.11836,1.288241 0.38223,0.835234 0.38223,1.953597 v 0.240661 q 0,0.155721 -0.0991,0.24066 -0.0849,0.08494 -0.2265,0.08494 h -4.89815 q 0,0.01416 0,0.05663 0,0.04247 0,0.07078 0.0283,0.580416 0.25482,1.09005 0.2265,0.495478 0.6512,0.806921 0.42469,0.311443 1.01926,0.311443 0.50964,0 0.84939,-0.155722 0.33976,-0.155721 0.55211,-0.339756 0.21234,-0.198191 0.28313,-0.297286 0.12741,-0.184035 0.19819,-0.212348 0.0708,-0.04247 0.2265,-0.04247 h 0.67951 q 0.14157,0 0.22651,0.08494 0.0991,0.07078 0.0849,0.212347 -0.0142,0.212348 -0.22651,0.523791 -0.21234,0.297286 -0.60873,0.594573 -0.39638,0.297286 -0.96264,0.495477 -0.56626,0.184035 -1.3024,0.184035 z m -1.92528,-4.360202 h 3.87888 v -0.04247 q 0,-0.637042 -0.24066,-1.13252 -0.2265,-0.495477 -0.66536,-0.778607 -0.43885,-0.297287 -1.04758,-0.297287 -0.60873,0 -1.04758,0.297287 -0.42469,0.28313 -0.6512,0.778607 -0.2265,0.495478 -0.2265,1.13252 z" />
    </g>
  </g>
</svg>
