<?xml version="1.0" encoding="UTF-8" standalone="no"?>
<svg
   id="svg2145"
   version="1.1"
   viewBox="0 0 21.166666 8.4666669"
   height="32"
   width="80"
   sodipodi:docname="opca-32.svg"
   inkscape:version="1.1.2 (0a00cf5339, 2022-02-04)"
   xmlns:inkscape="http://www.inkscape.org/namespaces/inkscape"
   xmlns:sodipodi="http://sodipodi.sourceforge.net/DTD/sodipodi-0.dtd"
   xmlns="http://www.w3.org/2000/svg"
   xmlns:svg="http://www.w3.org/2000/svg">
  <defs
     id="defs34" />
  <sodipodi:namedview
     id="namedview32"
     pagecolor="#ffffff"
     bordercolor="#666666"
     borderopacity="1.0"
     inkscape:pageshadow="2"
     inkscape:pageopacity="0.0"
     inkscape:pagecheckerboard="0"
     showgrid="false"
     inkscape:zoom="8.30625"
     inkscape:cx="42.016554"
     inkscape:cy="13.122649"
     inkscape:window-width="1920"
     inkscape:window-height="1004"
     inkscape:window-x="0"
     inkscape:window-y="0"
     inkscape:window-maximized="1"
     inkscape:current-layer="svg2145" />
  <g
     id="g1004"
     transform="translate(0,-0.2856118)">
    <g
       id="layer1">
      <g
         transform="matrix(0.26458333,0,0,0.26458333,1.3333333e-7,0.13229172)"
         id="Provider/OracleCIC/ocic-32"
         stroke="none"
         stroke-width="1"
         fill="none"
         fill-rule="evenodd">
        <path
           d="m 70.958393,14.252943 c -1.481435,0 -2.738534,-0.980216 -3.122914,-2.332035 h 8.247519 L 77.21995,10.17385 h -9.384471 c 0.38438,-1.3437165 1.641479,-2.3318099 3.122914,-2.3318099 h 5.660821 l 1.14516,-1.7472822 h -6.934108 c -2.77068,0 -5.020417,2.221522 -5.020417,4.9566721 0,2.735151 2.249737,4.94857 5.020417,4.94857 h 5.949221 l 1.13718,-1.747057 z M 47.361223,16 c -2.770224,0 -5.020189,-2.213419 -5.020189,-4.94857 0,-2.7351501 2.249965,-4.9566721 5.020189,-4.9566721 h 6.926356 l -1.128972,1.7472822 h -5.66903 c -1.793771,0 -3.25104,1.4387 -3.25104,3.2093899 0,1.770691 1.457269,3.201513 3.25104,3.201513 h 6.958047 L 53.310672,16 Z M 10.719084,14.252943 c 1.794684,0 3.247849,-1.430822 3.247849,-3.201513 0,-1.7706899 -1.453165,-3.2093899 -3.247849,-3.2093899 h -5.57282 c -1.7935436,0 -3.2478482,1.4387 -3.2478482,3.2093899 0,1.770691 1.4543046,3.201513 3.2478482,3.201513 z M 5.0174535,16 C 2.247686,16 0,13.786581 0,11.05143 0,8.3162799 2.247686,6.0947579 5.0174535,6.0947579 h 5.8315815 c 2.770223,0 5.016314,2.221522 5.016314,4.9566721 0,2.735151 -2.246091,4.94857 -5.016314,4.94857 z M 25.333717,12.790385 c 1.873794,0 3.395126,-1.493844 3.395126,-3.3437623 0,-1.8496928 -1.521332,-3.3518648 -3.395126,-3.3518648 h -8.44176 V 16 h 1.928965 V 7.8420401 h 6.384669 c 0.896886,0 1.61754,0.7191249 1.61754,1.6045826 0,0.8854573 -0.720654,1.6048073 -1.61754,1.6048073 L 19.765684,11.043553 25.525907,16 h 2.802597 L 24.453018,12.790385 Z M 57.2582,14.252943 V 6.0947579 h -1.929877 v 8.9565371 c 0,0.245111 0.09621,0.482343 0.280419,0.664206 C 55.792724,15.897139 56.040998,16 56.313438,16 h 8.799694 l 1.13718,-1.747057 z M 33.637092,12.505886 h 5.148544 L 36.063289,8.1819082 31.06681,16 H 28.792906 L 34.870253,6.6088366 C 35.134486,6.2293547 35.574949,6 36.063289,6 c 0.472609,0 0.912845,0.2212519 1.16887,0.592856 L 43.333672,16 H 41.059768 L 39.986651,14.252943 H 34.774044 Z M 78.954639,8.0468223 c -0.571022,0 -1.037972,-0.4573062 -1.037972,-1.0235145 C 77.916667,6.4573062 78.383617,6 78.954639,6 79.53305,6 80,6.4573062 80,7.0233078 80,7.5895161 79.53305,8.0468223 78.954639,8.0468223 Z M 78.858167,6.413704 c 0.163179,0 0.229886,0.00723 0.304193,0.03637 0.20751,0.0653 0.229887,0.2467346 0.229887,0.3192671 0,0.014465 0,0.050835 -0.01499,0.09423 -0.0074,0.043602 -0.03715,0.1308065 -0.141014,0.1961064 -0.01457,0.00723 -0.02195,0.014465 -0.05172,0.02893 l 0.267039,0.471978 H 79.191914 L 78.954639,7.1249773 H 78.791671 V 7.5605858 H 78.561784 V 6.413704 Z m 0.0817,0.5226061 c 0.0741,-0.00723 0.148191,-0.00723 0.192733,-0.072739 0.02238,-0.02893 0.02977,-0.057861 0.02977,-0.1014629 0,-0.058067 -0.03715,-0.1089021 -0.08908,-0.1378325 -0.05193,-0.021904 -0.10365,-0.021904 -0.21511,-0.021904 h -0.0665 v 0.3339389 z m -0.800697,0.079765 c 0,0.4500736 0.363301,0.8057103 0.815474,0.8057103 0.459773,0 0.823074,-0.3556367 0.823074,-0.8057103 0,-0.4426343 -0.363301,-0.798271 -0.823074,-0.798271 -0.452173,0 -0.815474,0.3556367 -0.815474,0.798271 z"
           id="Combined-Shape-Copy"
           fill="#616870" />
      </g>
    </g>
    <g
       id="g977"
       transform="matrix(1.2342849,0,0,1.2342849,2.0279041e-8,-1.5086333)">
      <path
         id="path4142"
         style="font-size:1.56997px;line-height:1.05;font-family:Rubik;-inkscape-font-specification:'Rubik, Normal';fill:#616870;fill-opacity:1;stroke-width:0.0392492"
         d="m 0.03610931,6.8529978 q -0.01726968,0 -0.0266895,-0.00942 Q 0,6.8325882 0,6.8168885 V 5.791698 q 0,-0.01727 0.00941981,-0.026689 0.00941982,-0.01099 0.0266895,-0.01099 h 0.39877238 q 0.11617778,0 0.20095616,0.037679 0.0863483,0.037679 0.13344745,0.1130379 0.0470991,0.073789 0.0470991,0.1852564 0,0.1114679 -0.0470991,0.1852565 Q 0.7221862,6.3490374 0.63583785,6.3867167 0.55105945,6.424396 0.43488169,6.424396 H 0.156997 v 0.3924925 q 0,0.0157 -0.0109898,0.026689 -0.00942,0.00942 -0.0266895,0.00942 z M 0.15542703,6.2925185 h 0.27160481 q 0.11617778,0 0.17426667,-0.051809 0.0580889,-0.051809 0.0580889,-0.1507172 0,-0.097338 -0.0565189,-0.1507171 -0.0565189,-0.053379 -0.17583664,-0.053379 H 0.15542703 Z" />
      <path
         id="path4144"
         style="font-size:1.56997px;line-height:1.05;font-family:Rubik;-inkscape-font-specification:'Rubik, Normal';fill:#616870;fill-opacity:1;stroke-width:0.0392492"
         d="m 1.0245281,6.8529978 q -0.0157,0 -0.0266895,-0.00942 -0.00942,-0.01099 -0.00942,-0.026689 V 6.0742926 q 0,-0.0157 0.00942,-0.026689 0.0109898,-0.01099 0.0266895,-0.01099 h 0.072219 q 0.0157,0 0.02669,0.01099 0.01099,0.01099 0.01099,0.026689 v 0.069079 q 0.031399,-0.053379 0.086348,-0.080069 0.054949,-0.026689 0.1318775,-0.026689 h 0.062799 q 0.0157,0 0.025119,0.01099 0.00942,0.00942 0.00942,0.025119 v 0.064369 q 0,0.0157 -0.00942,0.025119 -0.00942,0.00942 -0.025119,0.00942 h -0.094198 q -0.084778,0 -0.1334474,0.050239 -0.048669,0.048669 -0.048669,0.1334475 v 0.4615711 q 0,0.0157 -0.01099,0.026689 -0.01099,0.00942 -0.02669,0.00942 z" />
      <path
         id="path4146"
         style="font-size:1.56997px;line-height:1.05;font-family:Rubik;-inkscape-font-specification:'Rubik, Normal';fill:#616870;fill-opacity:1;stroke-width:0.0392492"
         d="m 1.6224659,6.8529978 q -0.0157,0 -0.026689,-0.00942 -0.00942,-0.01099 -0.00942,-0.026689 V 6.0727227 q 0,-0.0157 0.00942,-0.025119 0.01099,-0.01099 0.026689,-0.01099 h 0.075359 q 0.0157,0 0.025119,0.01099 0.00942,0.00942 0.00942,0.025119 v 0.7441658 q 0,0.0157 -0.00942,0.026689 -0.00942,0.00942 -0.025119,0.00942 z m -0.01256,-0.9686715 q -0.0157,0 -0.02669,-0.00942 -0.00942,-0.01099 -0.00942,-0.026689 v -0.084778 q 0,-0.0157 0.00942,-0.02512 0.01099,-0.01099 0.02669,-0.01099 h 0.098908 q 0.0157,0 0.025119,0.01099 0.01099,0.00942 0.01099,0.02512 v 0.084778 q 0,0.0157 -0.01099,0.026689 -0.00942,0.00942 -0.025119,0.00942 z" />
      <path
         id="path4148"
         style="font-size:1.56997px;line-height:1.05;font-family:Rubik;-inkscape-font-specification:'Rubik, Normal';fill:#616870;fill-opacity:1;stroke-width:0.0392492"
         d="m 2.2507483,6.8529978 q -0.02355,0 -0.037679,-0.01099 -0.01256,-0.01099 -0.02041,-0.028259 L 1.9022149,6.0852824 q -0.00314,-0.00785 -0.00314,-0.0157 0,-0.01413 0.00942,-0.023549 0.00942,-0.00942 0.02355,-0.00942 h 0.075359 q 0.01727,0 0.026689,0.00942 0.00942,0.00942 0.01099,0.01727 L 2.2852876,6.681871 2.5239231,6.0633028 q 0.00314,-0.00785 0.01099,-0.01727 0.00942,-0.00942 0.02669,-0.00942 h 0.076929 q 0.01256,0 0.02198,0.00942 0.01099,0.00942 0.01099,0.02355 0,0.00785 -0.00314,0.0157 L 2.3763459,6.8137485 q -0.00628,0.01727 -0.02041,0.028259 -0.01256,0.01099 -0.037679,0.01099 z" />
      <path
         id="path4150"
         style="font-size:1.56997px;line-height:1.05;font-family:Rubik;-inkscape-font-specification:'Rubik, Normal';fill:#616870;fill-opacity:1;stroke-width:0.0392492"
         d="m 3.0344086,6.8686975 q -0.078498,0 -0.1428673,-0.031399 -0.064369,-0.031399 -0.103618,-0.084778 -0.039249,-0.053379 -0.039249,-0.1208877 0,-0.1083279 0.087918,-0.1726967 0.087918,-0.064369 0.2292157,-0.084778 l 0.2339255,-0.032969 v -0.045529 q 0,-0.075359 -0.043959,-0.1177478 -0.042389,-0.042389 -0.1397273,-0.042389 -0.070649,0 -0.1146078,0.02826 -0.042389,0.028259 -0.059659,0.072219 -0.00942,0.02355 -0.032969,0.02355 h -0.070649 q -0.01727,0 -0.026689,-0.00942 -0.00785,-0.01099 -0.00785,-0.025119 0,-0.02355 0.01727,-0.058089 0.01884,-0.034539 0.056519,-0.067509 0.037679,-0.032969 0.095768,-0.054949 0.059659,-0.023549 0.1444373,-0.023549 0.094198,0 0.1585669,0.025119 0.064369,0.023549 0.1004781,0.064369 0.037679,0.040819 0.053379,0.092628 0.01727,0.051809 0.01727,0.105188 V 6.816891 q 0,0.0157 -0.01099,0.026689 -0.00942,0.00942 -0.02512,0.00942 h -0.072219 q -0.01727,0 -0.026689,-0.00942 -0.00942,-0.01099 -0.00942,-0.026689 V 6.749382 Q 3.2824637,6.777641 3.2479247,6.805901 3.2133857,6.832591 3.1615767,6.85143 3.1097677,6.8687 3.0344086,6.8687 Z m 0.032969,-0.1177478 q 0.064369,0 0.1177478,-0.026689 0.053379,-0.028259 0.083208,-0.086348 0.031399,-0.058089 0.031399,-0.1460072 v -0.04396 L 3.117617,6.474635 q -0.1114679,0.0157 -0.1679868,0.053379 -0.056519,0.036109 -0.056519,0.092628 0,0.043959 0.025119,0.073789 0.02669,0.028259 0.065939,0.042389 0.040819,0.01413 0.083208,0.01413 z" />
      <path
         id="path4152"
         style="font-size:1.56997px;line-height:1.05;font-family:Rubik;-inkscape-font-specification:'Rubik, Normal';fill:#616870;fill-opacity:1;stroke-width:0.0392492"
         d="m 3.9840443,6.8529978 q -0.087918,0 -0.1428673,-0.032969 Q 3.786228,6.7854898 3.761109,6.7242608 3.735989,6.661462 3.735989,6.5766836 V 6.162211 H 3.6135314 q -0.0157,0 -0.026689,-0.00942 -0.00942,-0.01099 -0.00942,-0.026689 V 6.072723 q 0,-0.0157 0.00942,-0.02512 0.01099,-0.01099 0.026689,-0.01099 H 3.735989 V 5.774428 q 0,-0.0157 0.00942,-0.02512 0.01099,-0.01099 0.026689,-0.01099 h 0.073789 q 0.0157,0 0.02512,0.01099 0.01099,0.00942 0.01099,0.02512 v 0.262185 h 0.1946762 q 0.0157,0 0.02512,0.01099 0.01099,0.00942 0.01099,0.02512 v 0.053379 q 0,0.0157 -0.01099,0.026689 -0.00942,0.00942 -0.02512,0.00942 H 3.8819963 v 0.4034822 q 0,0.073789 0.02512,0.1161778 0.025119,0.042389 0.089488,0.042389 h 0.095768 q 0.0157,0 0.02512,0.01099 0.01099,0.00942 0.01099,0.025119 v 0.056519 q 0,0.0157 -0.01099,0.026689 -0.00942,0.00942 -0.02512,0.00942 z" />
      <path
         id="path4154"
         style="font-size:1.56997px;line-height:1.05;font-family:Rubik;-inkscape-font-specification:'Rubik, Normal';fill:#616870;fill-opacity:1;stroke-width:0.0392492"
         d="m 4.6035935,6.8686975 q -0.1617069,0 -0.2574751,-0.098908 -0.095768,-0.1004781 -0.105188,-0.2731748 -0.00157,-0.02041 -0.00157,-0.051809 0,-0.032969 0.00157,-0.053379 0.00628,-0.1114679 0.051809,-0.1946763 0.045529,-0.084778 0.1240276,-0.1303075 0.080068,-0.045529 0.1868264,-0.045529 0.1193177,0 0.1993862,0.050239 0.081638,0.050239 0.1240276,0.1428672 0.042389,0.092628 0.042389,0.2166559 v 0.026689 q 0,0.01727 -0.01099,0.02669 -0.00942,0.00942 -0.02512,0.00942 H 4.3900776 q 0,0.00157 0,0.00628 0,0.00471 0,0.00785 0.00314,0.064369 0.028259,0.1208877 0.02512,0.054949 0.072219,0.089488 0.047099,0.034539 0.1130378,0.034539 0.056519,0 0.094198,-0.01727 0.037679,-0.01727 0.061229,-0.037679 0.02355,-0.02198 0.031399,-0.032969 0.01413,-0.02041 0.02198,-0.02355 0.00785,-0.00471 0.02512,-0.00471 h 0.075359 q 0.0157,0 0.025119,0.00942 0.01099,0.00785 0.00942,0.023549 -0.00157,0.02355 -0.02512,0.058089 -0.023549,0.032969 -0.067509,0.065939 -0.043959,0.032969 -0.1067579,0.054949 -0.062799,0.02041 -0.144437,0.02041 z M 4.3900776,6.3851467 h 0.4301718 v -0.00471 q 0,-0.070649 -0.026689,-0.1255976 -0.025119,-0.054949 -0.073789,-0.086348 -0.048669,-0.032969 -0.1161778,-0.032969 -0.067509,0 -0.1161778,0.032969 -0.047099,0.031399 -0.072219,0.086348 -0.02512,0.054949 -0.02512,0.1255976 z" />
      <path
         id="path4156"
         style="font-size:1.56997px;line-height:1.05;font-family:Rubik;-inkscape-font-specification:'Rubik, Normal';fill:#616870;fill-opacity:1;stroke-width:0.0392492"
         d="m 5.957987,6.8686975 q -0.1444372,0 -0.2402054,-0.053379 -0.094198,-0.053379 -0.1428673,-0.1491472 -0.048669,-0.095768 -0.053379,-0.2229357 -0.00157,-0.064369 -0.00157,-0.1381574 0,-0.073789 0.00157,-0.1412973 0.00471,-0.1271675 0.053379,-0.2229357 0.048669,-0.095768 0.1428673,-0.1491472 0.095768,-0.053379 0.2402054,-0.053379 0.1083279,0 0.1899664,0.029829 0.081638,0.029829 0.1350174,0.080069 0.054949,0.050239 0.083208,0.1130378 0.028259,0.061229 0.031399,0.1271676 0.00157,0.01413 -0.00942,0.02355 -0.00942,0.00942 -0.02355,0.00942 h -0.086348 q -0.01413,0 -0.02512,-0.00785 -0.00942,-0.00785 -0.01413,-0.028259 -0.02669,-0.1224577 -0.100478,-0.1679868 -0.072219,-0.045529 -0.1821166,-0.045529 -0.1255976,0 -0.1993862,0.072219 -0.073789,0.070649 -0.080068,0.2276456 -0.00471,0.1287376 0,0.263755 0.00628,0.156997 0.080068,0.2292156 0.073789,0.070649 0.1993862,0.070649 0.1098979,0 0.1821166,-0.045529 0.073789,-0.045529 0.100478,-0.1679868 0.00471,-0.02041 0.01413,-0.028259 0.01099,-0.00785 0.02512,-0.00785 h 0.086348 q 0.01413,0 0.02355,0.00942 0.01099,0.00942 0.00942,0.02355 -0.00314,0.065939 -0.031399,0.1287376 -0.02826,0.061229 -0.083208,0.1114679 -0.053379,0.050239 -0.1350174,0.080068 -0.081638,0.029829 -0.1899664,0.02983 z" />
      <path
         id="path4158"
         style="font-size:1.56997px;line-height:1.05;font-family:Rubik;-inkscape-font-specification:'Rubik, Normal';fill:#616870;fill-opacity:1;stroke-width:0.0392492"
         d="m 6.625249,6.8529978 q -0.0157,0 -0.026689,-0.00942 -0.00942,-0.01099 -0.00942,-0.026689 V 5.7744284 q 0,-0.0157 0.00942,-0.02512 0.01099,-0.01099 0.026689,-0.01099 h 0.073789 q 0.01727,0 0.026689,0.01099 0.00942,0.00942 0.00942,0.02512 v 1.0424601 q 0,0.0157 -0.00942,0.026689 -0.00942,0.00942 -0.026689,0.00942 z" />
      <path
         id="path4160"
         style="font-size:1.56997px;line-height:1.05;font-family:Rubik;-inkscape-font-specification:'Rubik, Normal';fill:#616870;fill-opacity:1;stroke-width:0.0392492"
         d="m 7.3022004,6.8686975 q -0.1193177,0 -0.1993862,-0.045529 -0.080069,-0.045529 -0.1224577,-0.1255976 -0.042389,-0.081638 -0.047099,-0.1852564 -0.00157,-0.026689 -0.00157,-0.067509 0,-0.042389 0.00157,-0.067509 0.00471,-0.105188 0.047099,-0.1852565 0.043959,-0.080069 0.1240277,-0.1255976 0.080068,-0.045529 0.1978162,-0.045529 0.1177477,0 0.1978162,0.045529 0.080068,0.045529 0.1224577,0.1255976 0.043959,0.080068 0.048669,0.1852565 0.00157,0.025119 0.00157,0.067509 0,0.040819 -0.00157,0.067509 -0.00471,0.103618 -0.047099,0.1852564 -0.042389,0.080069 -0.1224576,0.1255976 -0.080069,0.045529 -0.1993863,0.045529 z m 0,-0.1208877 q 0.097338,0 0.155427,-0.061229 0.058089,-0.062799 0.062799,-0.1821165 0.00157,-0.02355 0.00157,-0.059659 0,-0.036109 -0.00157,-0.059659 -0.00471,-0.1193177 -0.062799,-0.1805466 -0.058089,-0.062799 -0.155427,-0.062799 -0.097338,0 -0.156997,0.062799 -0.058089,0.061229 -0.061229,0.1805466 -0.00157,0.02355 -0.00157,0.059659 0,0.036109 0.00157,0.059659 0.00314,0.1193177 0.061229,0.1821165 0.059659,0.061229 0.156997,0.061229 z" />
      <path
         id="path4162"
         style="font-size:1.56997px;line-height:1.05;font-family:Rubik;-inkscape-font-specification:'Rubik, Normal';fill:#616870;fill-opacity:1;stroke-width:0.0392492"
         d="m 8.1738774,6.8686975 q -0.1004781,0 -0.1711268,-0.043959 Q 7.933672,6.7792092 7.8975627,6.6991407 7.8614533,6.6190722 7.8614533,6.5154542 V 6.0727227 q 0,-0.0157 0.00942,-0.025119 0.01099,-0.01099 0.026689,-0.01099 h 0.078499 q 0.0157,0 0.02512,0.01099 0.01099,0.00942 0.01099,0.025119 v 0.4348817 q 0,0.2339255 0.2040961,0.2339255 0.097338,0 0.155427,-0.061229 0.059659,-0.062799 0.059659,-0.1726967 V 6.0727227 q 0,-0.0157 0.00942,-0.025119 0.01099,-0.01099 0.026689,-0.01099 h 0.076928 q 0.01727,0 0.026689,0.01099 0.00942,0.00942 0.00942,0.025119 v 0.7441658 q 0,0.0157 -0.00942,0.026689 -0.00942,0.00942 -0.026689,0.00942 h -0.072219 q -0.0157,0 -0.026689,-0.00942 -0.00942,-0.01099 -0.00942,-0.026689 v -0.069079 q -0.042389,0.054949 -0.1036181,0.087918 -0.059659,0.032969 -0.1585669,0.03297 z" />
      <path
         id="path4164"
         style="font-size:1.56997px;line-height:1.05;font-family:Rubik;-inkscape-font-specification:'Rubik, Normal';fill:#616870;fill-opacity:1;stroke-width:0.0392492"
         d="m 9.1120321,6.8686975 q -0.086348,0 -0.1491471,-0.029829 Q 8.900086,6.8074695 8.859267,6.7556605 8.820018,6.7022815 8.799608,6.6347728 8.780768,6.5672641 8.777628,6.4919056 q -0.00157,-0.025119 -0.00157,-0.047099 0,-0.02198 0.00157,-0.047099 0.00314,-0.073789 0.02198,-0.1412973 0.02041,-0.067509 0.059659,-0.1208877 0.040819,-0.053379 0.103618,-0.083208 0.062799,-0.031399 0.1491471,-0.031399 0.092628,0 0.1538571,0.032969 0.061229,0.032969 0.1004781,0.081638 v -0.361094 q 0,-0.0157 0.00942,-0.02512 0.01099,-0.01099 0.026689,-0.01099 h 0.075359 q 0.0157,0 0.02512,0.01099 0.01099,0.00942 0.01099,0.02512 v 1.0424601 q 0,0.0157 -0.01099,0.026689 -0.00942,0.00942 -0.02512,0.00942 h -0.070649 q -0.01727,0 -0.026689,-0.00942 -0.00942,-0.01099 -0.00942,-0.026689 v -0.065939 q -0.039249,0.050239 -0.1020481,0.084778 -0.062799,0.032969 -0.1569971,0.03297 z m 0.032969,-0.1271676 q 0.078499,0 0.1255976,-0.036109 0.047099,-0.036109 0.070649,-0.091058 0.023549,-0.056519 0.02512,-0.1146078 0.00157,-0.025119 0.00157,-0.059659 0,-0.036109 -0.00157,-0.061229 -0.00157,-0.054949 -0.026689,-0.1083279 -0.02355,-0.053379 -0.072219,-0.087918 -0.047099,-0.034539 -0.1224577,-0.034539 -0.080068,0 -0.1271676,0.036109 -0.047099,0.034539 -0.067509,0.092628 -0.02041,0.056519 -0.023549,0.1224576 -0.00157,0.045529 0,0.091058 0.00314,0.065939 0.023549,0.1240277 0.02041,0.056519 0.067509,0.092628 0.047099,0.034539 0.1271667,0.034539 z" />
      <path
         id="path4166"
         style="font-size:1.56997px;line-height:1.05;font-family:Rubik;-inkscape-font-specification:'Rubik, Normal';fill:#616870;fill-opacity:1;stroke-width:0.0392492"
         d="m 10.03596,6.8529978 q -0.01256,0 -0.02198,-0.00942 -0.0094,-0.00942 -0.0094,-0.02198 0,-0.00785 0.0016,-0.01727 l 0.389352,-1.0157706 q 0.0063,-0.0157 0.01727,-0.025119 0.01099,-0.00942 0.03297,-0.00942 h 0.106758 q 0.02041,0 0.0314,0.00942 0.01256,0.00942 0.01884,0.025119 l 0.387783,1.0157706 q 0.0031,0.00942 0.0031,0.01727 0,0.01256 -0.0094,0.02198 -0.0094,0.00942 -0.02198,0.00942 h -0.08007 q -0.01884,0 -0.02826,-0.00942 -0.0079,-0.00942 -0.01099,-0.01727 L 10.756603,6.603372 h -0.51495 l -0.08635,0.2229358 q -0.0016,0.00785 -0.01099,0.01727 -0.0094,0.00942 -0.02826,0.00942 z m 0.251195,-0.3846427 h 0.423892 L 10.499101,5.9110158 Z" />
      <path
         id="path4168"
         style="font-size:1.56997px;line-height:1.05;font-family:Rubik;-inkscape-font-specification:'Rubik, Normal';fill:#616870;fill-opacity:1;stroke-width:0.0392492"
         d="m 11.178775,7.1512921 q -0.0157,0 -0.02669,-0.01099 -0.0094,-0.00942 -0.0094,-0.025119 V 6.0727227 q 0,-0.0157 0.0094,-0.025119 0.01099,-0.01099 0.02669,-0.01099 h 0.07222 q 0.0157,0 0.02512,0.01099 0.01099,0.00942 0.01099,0.025119 v 0.069079 q 0.03768,-0.051809 0.100478,-0.086348 0.0628,-0.034539 0.156997,-0.034539 0.08792,0 0.149148,0.029829 0.0628,0.029829 0.102048,0.081638 0.04082,0.051809 0.06123,0.1177477 0.02041,0.065939 0.02198,0.1412973 0.0016,0.02512 0.0016,0.053379 0,0.028259 -0.0016,0.053379 -0.0016,0.073789 -0.02198,0.1412973 -0.02041,0.065939 -0.06123,0.1177478 -0.03925,0.050239 -0.102048,0.081638 -0.06123,0.029829 -0.149148,0.029829 -0.09106,0 -0.153857,-0.032969 -0.06123,-0.034539 -0.100478,-0.084778 v 0.3642331 q 0,0.0157 -0.0094,0.025119 -0.0094,0.01099 -0.02669,0.01099 z m 0.332834,-0.4097622 q 0.08164,0 0.127168,-0.034539 0.0471,-0.036109 0.06751,-0.092628 0.02041,-0.058089 0.02355,-0.1240276 0.0016,-0.045529 0,-0.091058 -0.0031,-0.065939 -0.02355,-0.1224577 -0.02041,-0.058089 -0.06751,-0.092628 -0.04553,-0.036109 -0.127168,-0.036109 -0.07693,0 -0.125598,0.036109 -0.0471,0.036109 -0.07065,0.092628 -0.02198,0.054949 -0.02512,0.1130378 -0.0016,0.02512 -0.0016,0.059659 0,0.034539 0.0016,0.061229 0.0016,0.054949 0.02512,0.108328 0.02512,0.053379 0.07379,0.087918 0.04867,0.034539 0.122458,0.034539 z" />
      <path
         id="path4170"
         style="font-size:1.56997px;line-height:1.05;font-family:Rubik;-inkscape-font-specification:'Rubik, Normal';fill:#616870;fill-opacity:1;stroke-width:0.0392492"
         d="m 12.114011,7.1512921 q -0.0157,0 -0.02669,-0.01099 -0.0094,-0.00942 -0.0094,-0.025119 V 6.0727227 q 0,-0.0157 0.0094,-0.025119 0.01099,-0.01099 0.02669,-0.01099 h 0.07222 q 0.0157,0 0.02512,0.01099 0.01099,0.00942 0.01099,0.025119 v 0.069079 q 0.03768,-0.051809 0.100478,-0.086348 0.0628,-0.034539 0.156997,-0.034539 0.08792,0 0.149148,0.029829 0.0628,0.029829 0.102048,0.081638 0.04082,0.051809 0.06123,0.1177477 0.02041,0.065939 0.02198,0.1412973 0.0016,0.02512 0.0016,0.053379 0,0.028259 -0.0016,0.053379 -0.0016,0.073789 -0.02198,0.1412973 -0.02041,0.065939 -0.06123,0.1177478 -0.03925,0.050239 -0.102048,0.081638 -0.06123,0.029829 -0.149148,0.029829 -0.09106,0 -0.153857,-0.032969 -0.06123,-0.034539 -0.100478,-0.084778 v 0.3642331 q 0,0.0157 -0.0094,0.025119 -0.0094,0.01099 -0.02669,0.01099 z m 0.332834,-0.4097622 q 0.08164,0 0.127168,-0.034539 0.0471,-0.036109 0.06751,-0.092628 0.02041,-0.058089 0.02355,-0.1240276 0.0016,-0.045529 0,-0.091058 -0.0031,-0.065939 -0.02355,-0.1224577 -0.02041,-0.058089 -0.06751,-0.092628 -0.04553,-0.036109 -0.127168,-0.036109 -0.07693,0 -0.125598,0.036109 -0.0471,0.036109 -0.07065,0.092628 -0.02198,0.054949 -0.02512,0.1130378 -0.0016,0.02512 -0.0016,0.059659 0,0.034539 0.0016,0.061229 0.0016,0.054949 0.02512,0.108328 0.02512,0.053379 0.07379,0.087918 0.04867,0.034539 0.122458,0.034539 z" />
      <path
         id="path4172"
         style="font-size:1.56997px;line-height:1.05;font-family:Rubik;-inkscape-font-specification:'Rubik, Normal';fill:#616870;fill-opacity:1;stroke-width:0.0392492"
         d="m 13.049247,6.8529978 q -0.0157,0 -0.02669,-0.00942 -0.0094,-0.01099 -0.0094,-0.026689 V 5.7744284 q 0,-0.0157 0.0094,-0.02512 0.01099,-0.01099 0.02669,-0.01099 h 0.07379 q 0.01727,0 0.02669,0.01099 0.0094,0.00942 0.0094,0.02512 v 1.0424601 q 0,0.0157 -0.0094,0.026689 -0.0094,0.00942 -0.02669,0.00942 z" />
      <path
         id="path4174"
         style="font-size:1.56997px;line-height:1.05;font-family:Rubik;-inkscape-font-specification:'Rubik, Normal';fill:#616870;fill-opacity:1;stroke-width:0.0392492"
         d="m 13.427904,6.8529978 q -0.0157,0 -0.02669,-0.00942 -0.0094,-0.01099 -0.0094,-0.026689 V 6.0727227 q 0,-0.0157 0.0094,-0.025119 0.01099,-0.01099 0.02669,-0.01099 h 0.07536 q 0.0157,0 0.02512,0.01099 0.0094,0.00942 0.0094,0.025119 v 0.7441658 q 0,0.0157 -0.0094,0.026689 -0.0094,0.00942 -0.02512,0.00942 z m -0.01256,-0.9686715 q -0.0157,0 -0.02669,-0.00942 -0.0094,-0.01099 -0.0094,-0.026689 v -0.084778 q 0,-0.0157 0.0094,-0.02512 0.01099,-0.01099 0.02669,-0.01099 h 0.09891 q 0.0157,0 0.02512,0.01099 0.01099,0.00942 0.01099,0.02512 v 0.084778 q 0,0.0157 -0.01099,0.026689 -0.0094,0.00942 -0.02512,0.00942 z" />
      <path
         id="path4176"
         style="font-size:1.56997px;line-height:1.05;font-family:Rubik;-inkscape-font-specification:'Rubik, Normal';fill:#616870;fill-opacity:1;stroke-width:0.0392492"
         d="m 13.999668,6.8686975 q -0.0785,0 -0.142867,-0.031399 -0.06437,-0.031399 -0.103618,-0.084778 -0.03925,-0.053379 -0.03925,-0.1208877 0,-0.1083279 0.08792,-0.1726967 0.08792,-0.064369 0.229215,-0.084778 l 0.233926,-0.032969 v -0.045529 q 0,-0.075359 -0.04396,-0.1177478 -0.04239,-0.042389 -0.139728,-0.042389 -0.07065,0 -0.114608,0.02826 -0.04239,0.028259 -0.05966,0.072219 -0.0094,0.02355 -0.03297,0.02355 h -0.07065 q -0.01727,0 -0.02669,-0.00942 -0.0079,-0.01099 -0.0079,-0.025119 0,-0.02355 0.01727,-0.058089 0.01884,-0.034539 0.05652,-0.067509 0.03768,-0.032969 0.09577,-0.054949 0.05966,-0.023549 0.144437,-0.023549 0.0942,0 0.158567,0.025119 0.06437,0.023549 0.100478,0.064369 0.03768,0.040819 0.05338,0.092628 0.01727,0.051809 0.01727,0.105188 V 6.816891 q 0,0.0157 -0.01099,0.026689 Q 14.39213,6.853 14.37641,6.853 H 14.30419 Q 14.28692,6.853 14.2775,6.84358 14.2681,6.83259 14.2681,6.816891 V 6.749382 Q 14.24769,6.777641 14.21315,6.805901 14.17861,6.832591 14.1268,6.85143 14.07499,6.8687 13.999633,6.8687 Z m 0.03297,-0.1177478 q 0.06437,0 0.117748,-0.026689 0.05338,-0.028259 0.08321,-0.086348 0.0314,-0.058089 0.0314,-0.1460072 v -0.04396 l -0.182117,0.026689 q -0.111468,0.0157 -0.167987,0.053379 -0.05652,0.036109 -0.05652,0.092628 0,0.043959 0.02512,0.073789 0.02669,0.028259 0.06594,0.042389 0.04082,0.01413 0.08321,0.01413 z" />
      <path
         id="path4178"
         style="font-size:1.56997px;line-height:1.05;font-family:Rubik;-inkscape-font-specification:'Rubik, Normal';fill:#616870;fill-opacity:1;stroke-width:0.0392492"
         d="m 14.675908,6.8529978 q -0.0157,0 -0.02669,-0.00942 -0.0094,-0.01099 -0.0094,-0.026689 V 6.0727227 q 0,-0.0157 0.0094,-0.025119 0.01099,-0.01099 0.02669,-0.01099 h 0.07379 q 0.0157,0 0.02512,0.01099 0.01099,0.00942 0.01099,0.025119 v 0.069079 q 0.04082,-0.053379 0.102048,-0.086348 0.0628,-0.034539 0.160137,-0.034539 0.102048,0 0.172697,0.045529 0.07222,0.043959 0.108328,0.1240276 0.03611,0.078499 0.03611,0.1836865 v 0.4427316 q 0,0.0157 -0.0094,0.026689 -0.0094,0.00942 -0.02512,0.00942 h -0.0785 q -0.0157,0 -0.02669,-0.00942 -0.0094,-0.01099 -0.0094,-0.026689 V 6.3820068 q 0,-0.1098979 -0.05338,-0.1711268 -0.05338,-0.062799 -0.156997,-0.062799 -0.09734,0 -0.156997,0.062799 -0.05809,0.061229 -0.05809,0.1711268 v 0.4348817 q 0,0.0157 -0.01099,0.026689 -0.0094,0.00942 -0.02512,0.00942 z" />
      <path
         id="path4180"
         style="font-size:1.56997px;line-height:1.05;font-family:Rubik;-inkscape-font-specification:'Rubik, Normal';fill:#616870;fill-opacity:1;stroke-width:0.0392492"
         d="m 15.92006,6.8686975 q -0.111468,0 -0.193106,-0.042389 -0.08007,-0.043959 -0.124028,-0.1240277 -0.04396,-0.081638 -0.0471,-0.1946762 -0.0016,-0.02355 -0.0016,-0.062799 0,-0.039249 0.0016,-0.062799 0.0031,-0.1130379 0.0471,-0.1931064 0.04396,-0.081638 0.124028,-0.1240276 0.08164,-0.043959 0.193106,-0.043959 0.09106,0 0.155427,0.02512 0.06594,0.025119 0.108328,0.064369 0.04239,0.039249 0.0628,0.084778 0.02198,0.045529 0.02355,0.086348 0.0016,0.0157 -0.0094,0.02512 -0.01099,0.00942 -0.02669,0.00942 h -0.07536 q -0.0157,0 -0.02355,-0.00628 -0.0078,-0.00785 -0.0157,-0.02512 -0.02826,-0.076929 -0.07693,-0.1083279 -0.04867,-0.031399 -0.120888,-0.031399 -0.0942,0 -0.153857,0.058089 -0.05809,0.058089 -0.0628,0.1868264 -0.0016,0.056519 0,0.1098979 0.0047,0.1303075 0.0628,0.1883964 0.05966,0.056519 0.153857,0.056519 0.07222,0 0.120888,-0.031399 0.04867,-0.031399 0.07693,-0.1083273 0.0079,-0.01727 0.0157,-0.02355 0.0079,-0.00785 0.02355,-0.00785 h 0.07536 q 0.0157,0 0.02669,0.00942 0.01099,0.00942 0.0094,0.025119 -0.0016,0.032969 -0.01413,0.067509 -0.01256,0.034539 -0.04082,0.070649 -0.02669,0.034539 -0.06751,0.062799 -0.04082,0.02669 -0.09891,0.043959 -0.05652,0.0157 -0.128738,0.0157 z" />
      <path
         id="path4182"
         style="font-size:1.56997px;line-height:1.05;font-family:Rubik;-inkscape-font-specification:'Rubik, Normal';fill:#616870;fill-opacity:1;stroke-width:0.0392492"
         d="m 16.783126,6.8686975 q -0.161707,0 -0.257475,-0.098908 -0.09577,-0.1004781 -0.105188,-0.2731748 -0.0016,-0.02041 -0.0016,-0.051809 0,-0.032969 0.0016,-0.053379 0.0063,-0.1114679 0.05181,-0.1946763 0.04553,-0.084778 0.124028,-0.1303075 0.08007,-0.045529 0.186826,-0.045529 0.119318,0 0.199386,0.050239 0.08164,0.050239 0.124028,0.1428672 0.04239,0.092628 0.04239,0.2166559 v 0.026689 q 0,0.01727 -0.01099,0.02669 -0.0094,0.00942 -0.02512,0.00942 h -0.54321 q 0,0.00157 0,0.00628 0,0.00471 0,0.00785 0.0031,0.064369 0.02826,0.1208877 0.02512,0.054949 0.07222,0.089488 0.0471,0.034539 0.113038,0.034539 0.05652,0 0.0942,-0.01727 0.03768,-0.01727 0.06123,-0.037679 0.02355,-0.02198 0.0314,-0.032969 0.01413,-0.02041 0.02198,-0.02355 0.0079,-0.00471 0.02512,-0.00471 h 0.07536 q 0.0157,0 0.02512,0.00942 0.01099,0.00785 0.0094,0.023549 -0.0016,0.02355 -0.02512,0.058089 -0.02355,0.032969 -0.06751,0.065939 -0.04396,0.032969 -0.106758,0.054949 -0.0628,0.02041 -0.144437,0.02041 z M 16.56961,6.3851467 h 0.430172 v -0.00471 q 0,-0.070649 -0.02669,-0.1255976 -0.02512,-0.054949 -0.07379,-0.086348 -0.04867,-0.032969 -0.116178,-0.032969 -0.06751,0 -0.116178,0.032969 -0.0471,0.031399 -0.07222,0.086348 -0.02512,0.054949 -0.02512,0.1255976 z" />
    </g>
  </g>
</svg>
