<?xml version="1.0" encoding="UTF-8"?>
<svg width="105px" height="42px" viewBox="0 0 105 42" version="1.1" xmlns="http://www.w3.org/2000/svg" xmlns:xlink="http://www.w3.org/1999/xlink">
    <g id="Symbols" stroke="none" stroke-width="1" fill="none" fill-rule="evenodd">
        <g id="Provider/OpenStack/openstack-42" fill="#616870">
            <path d="M17.2763638,11.8125 C18.2497422,11.8125 19.0460832,12.5919419 19.0460832,13.5446642 L19.0460832,17.6260509 L14.7447942,17.6260509 L14.7447942,16.9592093 C14.7447942,16.441718 14.3162807,16.022298 13.7877879,16.022298 L5.25833888,16.022298 C4.72962786,16.022298 4.30111435,16.441718 4.30111435,16.9592093 L4.30111435,17.6260509 L4.36590435e-05,17.6260509 L4.36590435e-05,13.5446642 C4.36590435e-05,12.5919419 0.796384615,11.8125 1.7695447,11.8125 L17.2763638,11.8125 Z M14.7448378,24.910435 L14.7448378,24.2435935 L19.0459085,24.2435935 L19.0459085,28.3249801 C19.0459085,29.2777025 18.2497859,30.0571443 17.2764075,30.0571443 L1.76958836,30.0571443 C0.796428274,30.0571443 8.73180874e-05,29.2777025 8.73180874e-05,28.3249801 L8.73180874e-05,24.2435935 L4.301158,24.2435935 L4.301158,24.910435 C4.301158,25.4279263 4.72967152,25.8473464 5.25838254,25.8473464 L13.7876133,25.8473464 C14.3163243,25.8473464 14.7448378,25.4279263 14.7448378,24.910435 Z M0,23.0396036 L0,18.8298057 L4.30107069,18.8298057 L4.30107069,23.0396036 L0,23.0396036 Z M14.7449688,23.0396036 L14.7449688,18.8298057 L19.0460395,18.8298057 L19.0460395,23.0396036 L14.7449688,23.0396036 Z M104.917244,24.4706743 C104.917244,25.1238414 104.374344,25.6550071 103.707234,25.6550071 C103.040124,25.6550071 102.497223,25.1238414 102.497223,24.4706743 C102.497223,23.8177208 103.040124,23.2865551 103.707234,23.2865551 C104.374344,23.2865551 104.917244,23.8177208 104.917244,24.4706743 Z M103.707234,25.3639984 C104.210404,25.3639984 104.619926,24.9633807 104.619926,24.4706743 C104.619926,23.9781815 104.210404,23.5775638 103.707234,23.5775638 C103.204063,23.5775638 102.794542,23.9781815 102.794542,24.4706743 C102.794542,24.9633807 103.204063,25.3639984 103.707234,25.3639984 Z M104.161091,24.2561141 C104.161091,24.4317449 104.071372,24.5428496 103.940832,24.5992565 L104.193181,25.0302144 L103.912017,25.0302144 L103.693503,24.64904 L103.539387,24.64904 L103.539387,25.0302144 L103.294023,25.0302144 L103.294023,23.8698118 L103.739345,23.8698118 C103.876653,23.8698118 103.986455,23.9078437 104.061112,23.9809164 C104.125509,24.0439469 104.161091,24.1349673 104.161091,24.2494906 L104.161091,24.2561141 Z M103.913763,24.2627376 L103.913763,24.2610283 C103.913763,24.1450094 103.841071,24.0868932 103.715551,24.0868932 L103.539387,24.0868932 L103.539387,24.4368728 L103.720572,24.4368728 C103.846091,24.4368728 103.913763,24.3672187 103.913763,24.2627376 Z M32.2443867,21.0150632 C32.2443867,23.7990894 30.3482744,25.8513205 27.7776299,25.8513205 C25.225104,25.8513205 23.3471102,23.8347711 23.3471102,21.0330109 L23.3471102,20.8725501 C23.3471102,18.088524 25.2432225,16.0183452 27.8140852,16.0183452 C30.3666112,16.0183452 32.2443867,18.0526286 32.2443867,20.8543888 L32.2443867,21.0150632 Z M25.4073805,20.9795952 C25.4073805,22.7461592 26.4100104,24.0845429 27.8140852,24.0845429 C29.2543971,24.0845429 30.1843347,22.7641068 30.1843347,20.9973292 L30.1843347,20.8902842 C30.1843347,19.1237202 29.1814865,17.8030705 27.7776299,17.8030705 C26.3373181,17.8030705 25.4073805,19.1055589 25.4073805,20.8725501 L25.4073805,20.9795952 Z M42.0523909,21.051044 C42.0523909,24.2273551 40.2470894,25.8334583 38.2964033,25.8334583 C36.8925468,25.8334583 36.0538565,25.0659815 35.4703534,24.2273551 L35.4703534,28.349765 L33.4100832,28.349765 L33.4100832,16.1968391 L35.4703534,16.1968391 L35.4703534,17.7138449 C36.0719751,16.8036414 36.9106653,16.0184307 38.2964033,16.0184307 C40.2289709,16.0184307 42.0523909,17.6065862 42.0523909,20.8010586 L42.0523909,21.051044 Z M35.4338981,21.0151487 C35.4338981,22.8710237 36.4915385,24.0489467 37.7310187,24.0489467 C38.9890541,24.0489467 39.9737838,22.906919 39.9737838,21.0151487 L39.9737838,20.8544743 C39.9737838,18.9631312 38.9709356,17.803156 37.7310187,17.803156 C36.4915385,17.803156 35.4338981,18.9808653 35.4338981,20.8367403 L35.4338981,21.0151487 Z M50.9794428,24.3881363 C50.1045156,25.2981262 49.0287568,25.8512991 47.5884449,25.8512991 C45.1086112,25.8512991 43.1760437,23.9954241 43.1760437,21.0329895 L43.1760437,20.8904765 C43.1760437,18.0528209 44.9263347,16.0183238 47.2965842,16.0183238 C49.9220208,16.0183238 51.3075405,18.1600797 51.3075405,20.9973078 C51.3075405,21.1220869 51.3075405,21.4079677 51.289422,21.6934212 L45.2363139,21.6934212 C45.4185904,23.2815767 46.4214387,24.1381509 47.679474,24.1381509 C48.5910748,24.1381509 49.2656071,23.7454387 49.903684,23.1386363 L50.9794428,24.3881363 Z M47.2965842,17.7139517 C46.1662516,17.7139517 45.3640166,18.6953049 45.2181954,20.3014081 L49.3022807,20.3014081 C49.1926965,18.80235 48.5000457,17.7139517 47.2965842,17.7139517 Z M57.3574397,16.0184093 C59.2170967,16.0184093 60.3293108,17.3033773 60.3293108,19.3199267 L60.3293108,25.6550285 L58.2690405,25.6550285 L58.2690405,19.8908337 C58.2690405,18.570184 57.6309636,17.8388163 56.5370863,17.8388163 C55.4613274,17.8388163 54.7136663,18.624027 54.7136663,19.9267291 L54.7136663,25.6550285 L52.653396,25.6550285 L52.653396,16.1968177 L54.7136663,16.1968177 L54.7136663,17.5888308 C55.2607141,16.7502044 56.0448306,16.0184093 57.3574397,16.0184093 Z M68.6341778,22.9602493 C68.6341778,24.8161243 67.1938659,25.8333728 65.3339906,25.8333728 C64.1855395,25.8333728 62.8545936,25.4229266 61.7423794,24.5129368 L62.7087723,23.067508 C63.5836996,23.763194 64.5136372,24.1738539 65.3704459,24.1738539 C66.227473,24.1738539 66.7197287,23.727726 66.7197287,23.1386577 L66.7197287,23.1209237 C66.7197287,22.442758 65.9720676,22.1395705 64.8236164,21.6575472 C63.3833046,21.0509586 62.179843,20.4084746 62.179843,18.8560007 L62.179843,18.8201054 C62.179843,17.1249048 63.5655811,16.0542406 65.3704459,16.0542406 C66.4462048,16.0542406 67.5948742,16.4290051 68.5064751,17.0712754 L67.6313295,18.5525996 C66.9020052,18.07079 66.0997703,17.7139731 65.3339906,17.7139731 C64.568211,17.7139731 64.1126289,18.1242057 64.1126289,18.6416969 L64.1126289,18.6775923 C64.1126289,19.3021286 64.8781902,19.6232638 66.0087412,20.1230211 C67.5036268,20.7834528 68.6341778,21.4611911 68.6341778,22.9425153 L68.6341778,22.9602493 Z M75.0136372,25.3873517 C74.5395,25.6373372 73.9926705,25.797798 73.2998015,25.797798 C71.8776081,25.797798 70.8018493,25.2089433 70.8018493,23.3708023 L70.8018493,17.9279564 L70.0827848,17.9279564 L69.7444272,16.1968605 L70.8018493,16.1968605 L70.8018493,13.6450858 L72.8621195,13.6450858 L72.8621195,16.1968605 L75.0317557,16.1968605 L75.0317557,17.9279564 L72.8621195,17.9279564 L72.8621195,22.9603561 C72.8621195,23.6921512 73.2450094,23.9953387 73.9014231,23.9953387 C74.3026497,23.9953387 74.6672027,23.9060276 75.0136372,23.7276192 L75.0136372,25.3873517 Z M82.9076944,17.053456 C83.5457713,17.6779923 83.8740873,18.6061435 83.8740873,19.7838528 L83.8740873,25.6550926 L81.8502723,25.6550926 L81.8502723,24.4951173 C81.285106,25.2980621 80.4282973,25.833501 79.170262,25.833501 C77.5657921,25.833501 76.2165094,24.7805708 76.2165094,22.9424298 L76.2165094,22.8533324 C76.2165094,20.8188353 77.6022474,19.8197481 79.6441809,19.8197481 C80.5557817,19.8197481 81.2121954,19.9799952 81.8686091,20.194299 L81.8686091,19.8015868 C81.8686091,18.5347801 81.1028295,17.8743484 79.7900021,17.8743484 C78.8602827,17.8743484 78.0945031,18.1600156 77.4562079,18.445469 L76.8727048,16.8395795 C77.8026424,16.3934516 78.7690353,16.0898368 80.063526,16.0898368 C81.3215613,16.0898368 82.287736,16.4289196 82.9076944,17.053456 Z M81.8867277,22.4785679 L81.8867277,21.5326827 C81.4128087,21.3365403 80.7928503,21.1935999 80.0999813,21.1935999 C78.9148565,21.1935999 78.2222058,21.7826682 78.2222058,22.7817554 L78.2222058,22.8176507 C78.2222058,23.7633222 78.896738,24.2989749 79.7900021,24.3167089 C80.9751268,24.3344429 81.8867277,23.5492321 81.8867277,22.4785679 Z M92.631764,24.4236898 C91.8659844,25.2625299 90.8998098,25.8511709 89.4230426,25.8511709 C86.9069719,25.8511709 85.083552,23.8705169 85.083552,21.0510227 L85.083552,20.8726142 C85.083552,18.0526927 86.9615457,16.0184093 89.4959532,16.0184093 C90.881473,16.0184093 91.7932921,16.5181666 92.595527,17.3033773 L91.4466393,18.7847015 C90.9362651,18.2669965 90.3710988,17.8388163 89.4959532,17.8388163 C88.1466705,17.8388163 87.162159,19.105623 87.162159,20.8903483 L87.162159,20.9796593 C87.162159,22.8175866 88.1466705,24.0489253 89.550527,24.0489253 C90.3892173,24.0489253 90.9543836,23.6384791 91.5197682,23.0853061 L92.631764,24.4236898 Z M98.9377453,20.7459977 L101.819679,25.6549003 L99.4313108,25.6549003 L97.4915395,22.2674904 L98.9377453,20.7459977 Z M99.2853368,16.1968391 L101.728497,16.1968391 L95.985368,22.9246531 L95.985368,25.6550499 L93.9250977,25.6550499 L93.9250977,12.7705426 L95.985368,12.7705426 L95.985368,20.3549307 L99.2853368,16.1968391 Z" id="Combined-Shape"></path>
        </g>
    </g>
</svg>
