<?xml version="1.0" encoding="UTF-8"?>
<svg width="192px" height="128px" viewBox="0 0 192 128" version="1.1" xmlns="http://www.w3.org/2000/svg" xmlns:xlink="http://www.w3.org/1999/xlink">
        <g id="Provider/OracleVM/oraclevm-128-disabled" stroke="none" stroke-width="1" fill="none" fill-rule="evenodd">
        <path d="M153.022105,56.8552972 C150.391077,56.8552972 148.158469,55.0909091 147.475811,52.6576335 L162.123405,52.6576335 L164.142631,49.5129307 L147.475811,49.5129307 C148.158469,47.0942402 150.391077,45.3156722 153.022105,45.3156722 L163.075725,45.3156722 L165.109528,42.1705643 L152.794552,42.1705643 C147.873826,42.1705643 143.878291,46.1693038 143.878291,51.0925747 C143.878291,56.0158455 147.873826,60 152.794552,60 L163.360368,60 L165.38,56.8552972 L153.022105,56.8552972 L153.022105,56.8552972 Z M111.113532,60 C106.193615,60 102.197676,56.0158455 102.197676,51.0925747 C102.197676,46.1693038 106.193615,42.1705643 111.113532,42.1705643 L123.414741,42.1705643 L121.409686,45.3156722 L111.341489,45.3156722 C108.155751,45.3156722 105.567643,47.9053321 105.567643,51.0925747 C105.567643,54.2798172 108.155751,56.8552972 111.341489,56.8552972 L123.69898,56.8552972 L121.679753,60 L111.113532,60 Z M46.0370941,56.8552972 C49.2244519,56.8552972 51.8052725,54.2798172 51.8052725,51.0925747 C51.8052725,47.9053321 49.2244519,45.3156722 46.0370941,45.3156722 L36.1397649,45.3156722 C32.9544315,45.3156722 30.3715865,47.9053321 30.3715865,51.0925747 C30.3715865,54.2798172 32.9544315,56.8552972 36.1397649,56.8552972 L46.0370941,56.8552972 Z M35.9109974,60 C30.9918904,60 27,56.0158455 27,51.0925747 C27,46.1693038 30.9918904,42.1705643 35.9109974,42.1705643 L46.267886,42.1705643 C51.1878028,42.1705643 55.176859,46.1693038 55.176859,51.0925747 C55.176859,56.0158455 51.1878028,60 46.267886,60 L35.9109974,60 Z M71.992682,54.2226924 C75.3205396,54.2226924 78.0224246,51.533773 78.0224246,48.2039209 C78.0224246,44.8744739 75.3205396,42.1705643 71.992682,42.1705643 L57.0001151,42.1705643 L57.0001151,60 L60.425958,60 L60.425958,45.3156722 L71.7651293,45.3156722 C73.3579984,45.3156722 74.6378814,46.610097 74.6378814,48.2039209 C74.6378814,49.7977447 73.3579984,51.0925747 71.7651293,51.0925747 L62.1038557,51.0783947 L72.3340111,60 L77.3114235,60 L70.4285607,54.2226924 L71.992682,54.2226924 Z M128.690563,56.8552972 L128.690563,42.1705643 L125.263101,42.1705643 L125.263101,58.2923316 C125.263101,58.7335299 125.433968,59.1605483 125.761126,59.487902 C126.087878,59.8148507 126.528812,60 127.012666,60 L142.640923,60 L144.660554,56.8552972 L128.690563,56.8552972 Z M86.7394758,53.7105944 L95.8832897,53.7105944 L91.0484014,45.9274348 L82.1746546,60 L78.136201,60 L88.9295697,43.0959058 C89.3988466,42.4128385 90.1811097,42 91.0484014,42 C91.8877552,42 92.6696134,42.3982534 93.124314,43.0671408 L103.960602,60 L99.9221483,60 L98.0162929,56.8552972 L88.7587027,56.8552972 L86.7394758,53.7105944 Z M167.223439,45.6842802 C166.209304,45.6842802 165.38,44.861129 165.38,43.8419541 C165.38,42.8231511 166.209304,42 167.223439,42 C168.250696,42 169.08,42.8231511 169.08,43.8419541 C169.08,44.861129 168.250696,45.6842802 167.223439,45.6842802 Z M167.052105,42.7446672 C167.341911,42.7446672 167.460383,42.7576859 167.592352,42.8101325 C167.96089,42.9276724 168.00063,43.2542547 168.00063,43.3848132 C168.00063,43.4108505 168.00063,43.4763158 167.974012,43.5544277 C167.96089,43.6329117 167.908027,43.7898795 167.723571,43.9074194 C167.697702,43.920438 167.68458,43.9334567 167.631717,43.959494 L168.10598,44.8090544 L167.644839,44.8090544 L167.223439,44.0249592 L166.934007,44.0249592 L166.934007,44.8090544 L166.525729,44.8090544 L166.525729,42.7446672 L167.052105,42.7446672 Z M167.197195,43.6853582 C167.328789,43.6723396 167.460383,43.6723396 167.539489,43.5544277 C167.57923,43.5023531 167.592352,43.4502785 167.592352,43.3717946 C167.592352,43.2672733 167.526367,43.1757708 167.434139,43.1236962 C167.341911,43.0842682 167.250058,43.0842682 167.052105,43.0842682 L166.934007,43.0842682 L166.934007,43.6853582 L167.197195,43.6853582 Z M165.775157,43.8289354 C165.775157,44.6390679 166.420379,45.2792139 167.223439,45.2792139 C168.039996,45.2792139 168.685218,44.6390679 168.685218,43.8289354 C168.685218,43.0321936 168.039996,42.3920476 167.223439,42.3920476 C166.420379,42.3920476 165.775157,43.0321936 165.775157,43.8289354 Z" id="ORACLE" fill="#B0B5BE"></path>
        <path d="M57.4947249,73.2974768 L51.8239558,88.6387782 L49.478901,88.6387782 L44,73.2974768 L46.3663736,73.2974768 L50.7367031,86.4077025 L55.3415382,73.2974768 L57.4947249,73.2974768 Z M59.6515109,88.6387782 L59.6515109,73.2974768 L63.4249174,73.2974768 L67.7739283,85.940239 L72.2295326,73.2974768 L75.7471149,73.2974768 L75.7471149,88.6387782 L73.6578842,88.6387782 L73.6578842,74.8273572 L68.6053569,88.6387782 L66.5800822,88.6387782 L61.719423,74.9123506 L61.719423,88.6387782 L59.6515109,88.6387782 Z M84.6015659,84.1553785 L86.8187087,84.1553785 C86.8613461,85.2177955 86.9892581,87.1938911 90.5281592,87.1938911 C93.7259613,87.1938911 94.1310162,85.2177955 94.1310162,84.4528552 C94.1310162,82.7317397 92.745302,82.3917663 90.5921152,81.8605578 C88.2470603,81.2868526 87.2024449,81.0318725 86.4136538,80.500664 C85.1558516,79.6507304 84.8147527,78.5033201 84.8147527,77.4833997 C84.8147527,74.3598938 87.7780493,73 90.6773899,73 C91.7006866,73 93.7685986,73.1699867 95.0050821,74.5086321 C95.8578293,75.4435591 95.9004667,76.4847278 95.9431041,77.122178 L93.7259613,77.122178 C93.6193679,75.2098274 91.9991481,74.7848606 90.4855218,74.7848606 C88.3536537,74.7848606 87.0745329,75.7410359 87.0745329,77.2709163 C87.0745329,78.6308101 87.9699175,79.0982736 89.8459614,79.5444887 C93.5127745,80.4794157 93.9178294,80.564409 94.813214,81.1593625 C96.2415656,82.0942895 96.348159,83.5816733 96.348159,84.2191235 C96.348159,86.938911 94.2162909,89 90.272335,89 C89.0998075,89 86.7121153,88.8087649 85.4969505,87.2576361 C84.6228846,86.1314741 84.6015659,84.8990704 84.6015659,84.1553785 Z M107.79989,83.6666667 L100.103846,83.6666667 C100.061209,85.876494 100.977912,87.5126162 103.173736,87.5126162 C104.474176,87.5126162 105.518791,86.8326693 105.68934,85.3027888 L107.693296,85.3027888 C107.62934,85.8339973 107.544066,86.7051793 106.776593,87.5338645 C106.307582,88.065073 105.241648,88.9575033 103.088461,88.9575033 C99.7201098,88.9575033 98.1212087,86.875166 98.1212087,83.4966799 C98.1212087,81.3930943 98.5475824,79.6507304 100.231758,78.4820717 C101.255055,77.7596282 102.534176,77.6958831 103.152417,77.6958831 C107.949121,77.6958831 107.842527,81.9243028 107.79989,83.6666667 Z M100.189121,82.2642762 L105.753296,82.2642762 C105.774615,81.2443559 105.582747,79.1195219 103.10978,79.1195219 C101.809341,79.1195219 100.231758,79.9057105 100.189121,82.2642762 Z M110.660192,88.6387782 L110.660192,80.1394422 C110.660192,79.4169987 110.617555,78.6733068 110.553599,77.9721116 L112.578874,77.9721116 L112.621511,80.0332005 C113.005247,78.5458167 114.284368,78.0571049 115.179753,77.9296149 C115.776676,77.8446215 116.224368,77.8658699 116.565467,77.8871182 L116.565467,79.8419655 C116.458873,79.7994688 116.330961,79.7782205 116.181731,79.7569721 C116.0325,79.7357238 115.840632,79.7357238 115.606126,79.7357238 C113.239753,79.7357238 112.685467,81.1381142 112.685467,82.9654714 L112.685467,88.6387782 L110.660192,88.6387782 Z M121.515,88.6387782 L117.038077,77.9721116 L119.276539,77.9721116 L122.687527,86.4289509 L126.013242,77.9721116 L128.230384,77.9721116 L123.540275,88.6387782 L121.515,88.6387782 Z M139.234423,83.6666667 L131.538379,83.6666667 C131.495742,85.876494 132.412445,87.5126162 134.608269,87.5126162 C135.908709,87.5126162 136.953324,86.8326693 137.123874,85.3027888 L139.12783,85.3027888 C139.063874,85.8339973 138.978599,86.7051793 138.211126,87.5338645 C137.742115,88.065073 136.676181,88.9575033 134.522995,88.9575033 C131.154643,88.9575033 129.555742,86.875166 129.555742,83.4966799 C129.555742,81.3930943 129.982116,79.6507304 131.666291,78.4820717 C132.689588,77.7596282 133.968709,77.6958831 134.586951,77.6958831 C139.383654,77.6958831 139.27706,81.9243028 139.234423,83.6666667 Z M131.623654,82.2642762 L137.18783,82.2642762 C137.209148,81.2443559 137.01728,79.1195219 134.544313,79.1195219 C133.243874,79.1195219 131.666291,79.9057105 131.623654,82.2642762 Z M142.094725,88.6387782 L142.094725,80.1394422 C142.094725,79.4169987 142.052088,78.6733068 141.988132,77.9721116 L144.013407,77.9721116 L144.056044,80.0332005 C144.43978,78.5458167 145.718901,78.0571049 146.614286,77.9296149 C147.211209,77.8446215 147.658901,77.8658699 148,77.8871182 L148,79.8419655 C147.893407,79.7994688 147.765495,79.7782205 147.616264,79.7569721 C147.467033,79.7357238 147.275165,79.7357238 147.040659,79.7357238 C144.674286,79.7357238 144.12,81.1381142 144.12,82.9654714 L144.12,88.6387782 L142.094725,88.6387782 Z" id="VM-Server" fill="#B0B5BE"></path>
    </g>
</svg>