<?xml version="1.0" encoding="UTF-8" standalone="no"?>
<svg xmlns:dc="http://purl.org/dc/elements/1.1/"
   xmlns:cc="http://creativecommons.org/ns#"
   xmlns:rdf="http://www.w3.org/1999/02/22-rdf-syntax-ns#"
   xmlns:svg="http://www.w3.org/2000/svg"
   xmlns="http://www.w3.org/2000/svg"
   width="192"
   height="128"
   viewBox="0 0 50.799999 33.866668"
   version="1.1">
  <g
     id="layer1">
    <g
       fill-rule="evenodd"
       fill="none"
       stroke-width="1"
       stroke="none"
       id="Provider/OracleCIC/opc-128"
       transform="matrix(0.26458333,0,0,0.26458333,3.1999999e-7,-0.39687478)">
      <path
         fill="#B0B5BE"
         id="ORACLE"
         d="m 153.0221,56.855297 c -2.63102,0 -4.86363,-1.764388 -5.54629,-4.197663 h 14.64759 l 2.01923,-3.144703 h -16.66682 c 0.68266,-2.418691 2.91527,-4.197259 5.54629,-4.197259 h 10.05362 l 2.03381,-3.145108 h -12.31498 c -4.92072,0 -8.91626,3.99874 -8.91626,8.922011 0,4.92327 3.99554,8.907425 8.91626,8.907425 h 10.56582 L 165.38,56.855297 Z M 111.11353,60 c -4.91992,0 -8.91585,-3.984155 -8.91585,-8.907425 0,-4.923271 3.99593,-8.922011 8.91585,-8.922011 h 12.30121 l -2.00505,3.145108 h -10.0682 c -3.18574,0 -5.77385,2.58966 -5.77385,5.776903 0,3.187242 2.58811,5.762722 5.77385,5.762722 h 12.35749 L 121.67975,60 Z M 46.037094,56.855297 c 3.187358,0 5.768178,-2.57548 5.768178,-5.762722 0,-3.187243 -2.58082,-5.776903 -5.768178,-5.776903 h -9.897329 c -3.185334,0 -5.768179,2.58966 -5.768179,5.776903 0,3.187242 2.582845,5.762722 5.768179,5.762722 z M 35.910997,60 C 30.99189,60 27,56.015845 27,51.092575 c 0,-4.923271 3.99189,-8.922011 8.910997,-8.922011 h 10.356889 c 4.919917,0 8.908973,3.99874 8.908973,8.922011 0,4.92327 -3.989056,8.907425 -8.908973,8.907425 z m 36.081685,-5.777308 c 3.327858,0 6.029743,-2.688919 6.029743,-6.018771 0,-3.329447 -2.701885,-6.033357 -6.029743,-6.033357 H 57.000115 V 60 h 3.425843 V 45.315672 h 11.339171 c 1.592869,0 2.872752,1.294425 2.872752,2.888249 0,1.593824 -1.279883,2.888654 -2.872752,2.888654 L 62.103856,51.078395 72.334011,60 h 4.977413 l -6.882863,-5.777308 z m 56.697878,2.632605 V 42.170564 h -3.42746 v 16.121768 c 0,0.441198 0.17087,0.868216 0.49803,1.19557 C 126.08788,59.814851 126.52881,60 127.01267,60 h 15.62825 l 2.01963,-3.144703 z M 86.739476,53.710594 H 95.88329 L 91.048401,45.927435 82.174655,60 H 78.136201 L 88.92957,43.095906 C 89.398847,42.412838 90.18111,42 91.048401,42 c 0.839354,0 1.621212,0.398253 2.075913,1.067141 L 103.9606,60 h -4.038452 l -1.905855,-3.144703 h -9.25759 z M 167.22344,45.68428 c -1.01414,0 -1.84344,-0.823151 -1.84344,-1.842326 C 165.38,42.823151 166.2093,42 167.22344,42 c 1.02726,0 1.85656,0.823151 1.85656,1.841954 0,1.019175 -0.8293,1.842326 -1.85656,1.842326 z m -0.17134,-2.939613 c 0.28981,0 0.40828,0.01302 0.54025,0.06547 0.36854,0.117539 0.40828,0.444122 0.40828,0.57468 0,0.02604 0,0.0915 -0.0266,0.169615 -0.0131,0.07848 -0.066,0.235451 -0.25044,0.352991 -0.0259,0.01302 -0.039,0.02604 -0.0918,0.05208 l 0.47426,0.84956 h -0.46114 l -0.4214,-0.784095 h -0.28943 v 0.784095 h -0.40828 v -2.064387 z m 0.14509,0.940691 c 0.1316,-0.01302 0.26319,-0.01302 0.3423,-0.13093 0.0397,-0.05208 0.0529,-0.104149 0.0529,-0.182633 0,-0.104522 -0.066,-0.196024 -0.15821,-0.248099 -0.0922,-0.03943 -0.18408,-0.03943 -0.38204,-0.03943 h -0.11809 v 0.60109 z m -1.42203,0.143577 c 0,0.810133 0.64522,1.450279 1.44828,1.450279 0.81656,0 1.46178,-0.640146 1.46178,-1.450279 0,-0.796741 -0.64522,-1.436887 -1.46178,-1.436887 -0.80306,0 -1.44828,0.640146 -1.44828,1.436887 z" />
    </g>
    <g
       style="font-style:normal;font-variant:normal;font-weight:normal;font-stretch:normal;font-size:4.0196px;line-height:1.25;font-family:Rubik;-inkscape-font-specification:'Rubik, Normal';font-variant-ligatures:normal;font-variant-caps:normal;font-variant-numeric:normal;font-variant-east-asian:normal;fill:#b0b5be;stroke-width:0.10049"
       id="text857"
       aria-label="Linux Virtualization Manger">
      <path
         id="path3384"
         style="font-style:normal;font-variant:normal;font-weight:normal;font-stretch:normal;font-size:4.0196px;font-family:Rubik;-inkscape-font-specification:'Rubik, Normal';font-variant-ligatures:normal;font-variant-caps:normal;font-variant-numeric:normal;font-variant-east-asian:normal;stroke-width:0.10049"
         d="m 0.15747047,23.015984 q -0.0442156,0 -0.0683332,-0.02412 -0.0241176,-0.02814 -0.0241176,-0.06833 v -2.628819 q 0,-0.0402 0.0241176,-0.06431 0.0241176,-0.02814 0.0683332,-0.02814 h 0.21303879 q 0.040196,0 0.0643136,0.02814 0.0241176,0.02412 0.0241176,0.06431 v 2.371564 H 1.7974672 q 0.044216,0 0.068333,0.02814 0.024118,0.02412 0.024118,0.06833 v 0.160784 q 0,0.0402 -0.024118,0.06833 -0.024118,0.02412 -0.068333,0.02412 z" />
      <path
         id="path3386"
         style="font-style:normal;font-variant:normal;font-weight:normal;font-stretch:normal;font-size:4.0196px;font-family:Rubik;-inkscape-font-specification:'Rubik, Normal';font-variant-ligatures:normal;font-variant-caps:normal;font-variant-numeric:normal;font-variant-east-asian:normal;stroke-width:0.10049"
         d="m 2.3662406,23.015984 q -0.040196,0 -0.068333,-0.02412 -0.024118,-0.02814 -0.024118,-0.06833 v -1.905291 q 0,-0.0402 0.024118,-0.06431 0.028137,-0.02814 0.068333,-0.02814 h 0.1929408 q 0.040196,0 0.064314,0.02814 0.024118,0.02412 0.024118,0.06431 v 1.905291 q 0,0.0402 -0.024118,0.06833 -0.024118,0.02412 -0.064314,0.02412 z M 2.3340838,20.53589 q -0.040196,0 -0.068333,-0.02412 -0.024118,-0.02814 -0.024118,-0.06833 v -0.217059 q 0,-0.0402 0.024118,-0.06431 0.028137,-0.02814 0.068333,-0.02814 h 0.2532348 q 0.040196,0 0.064314,0.02814 0.028137,0.02412 0.028137,0.06431 v 0.217059 q 0,0.0402 -0.028137,0.06833 -0.024118,0.02412 -0.064314,0.02412 z" />
      <path
         id="path3388"
         style="font-style:normal;font-variant:normal;font-weight:normal;font-stretch:normal;font-size:4.0196px;font-family:Rubik;-inkscape-font-specification:'Rubik, Normal';font-variant-ligatures:normal;font-variant-caps:normal;font-variant-numeric:normal;font-variant-east-asian:normal;stroke-width:0.10049"
         d="m 3.3397375,23.015984 q -0.040196,0 -0.068333,-0.02412 -0.024118,-0.02814 -0.024118,-0.06833 v -1.905291 q 0,-0.0402 0.024118,-0.06431 0.028137,-0.02814 0.068333,-0.02814 h 0.1889212 q 0.040196,0 0.064314,0.02814 0.028137,0.02412 0.028137,0.06431 v 0.176863 q 0.1045096,-0.136667 0.261274,-0.221078 0.160784,-0.08843 0.4099992,-0.08843 0.261274,0 0.442156,0.116568 0.1849016,0.112549 0.2773524,0.317548 0.092451,0.20098 0.092451,0.470294 v 1.133527 q 0,0.0402 -0.024118,0.06833 -0.024118,0.02412 -0.064314,0.02412 h -0.20098 q -0.040196,0 -0.068333,-0.02412 -0.024118,-0.02814 -0.024118,-0.06833 v -1.113429 q 0,-0.281372 -0.1366664,-0.438137 -0.1366664,-0.160784 -0.40196,-0.160784 -0.2492152,0 -0.40196,0.160784 -0.1487252,0.156765 -0.1487252,0.438137 v 1.113429 q 0,0.0402 -0.028137,0.06833 -0.024118,0.02412 -0.064314,0.02412 z" />
      <path
         id="path3390"
         style="font-style:normal;font-variant:normal;font-weight:normal;font-stretch:normal;font-size:4.0196px;font-family:Rubik;-inkscape-font-specification:'Rubik, Normal';font-variant-ligatures:normal;font-variant-caps:normal;font-variant-numeric:normal;font-variant-east-asian:normal;stroke-width:0.10049"
         d="m 6.4608312,23.05618 q -0.2572544,0 -0.4381364,-0.112549 -0.1768624,-0.116569 -0.2693132,-0.321568 -0.092451,-0.205 -0.092451,-0.470293 v -1.133528 q 0,-0.0402 0.024118,-0.06431 0.028137,-0.02814 0.068333,-0.02814 h 0.20098 q 0.040196,0 0.064314,0.02814 0.028137,0.02412 0.028137,0.06431 v 1.11343 q 0,0.59892 0.522548,0.59892 0.2492152,0 0.3979404,-0.156764 0.1527448,-0.160784 0.1527448,-0.442156 v -1.11343 q 0,-0.0402 0.024118,-0.06431 0.028137,-0.02814 0.068333,-0.02814 h 0.1969603 q 0.044216,0 0.068333,0.02814 0.024118,0.02412 0.024118,0.06431 v 1.905291 q 0,0.0402 -0.024118,0.06833 -0.024118,0.02412 -0.068333,0.02412 H 7.2245552 q -0.040196,0 -0.068333,-0.02412 -0.024118,-0.02814 -0.024118,-0.06833 V 22.74667 Q 7.0235752,22.887356 6.8668108,22.971768 6.714066,23.05618 6.4608312,23.05618 Z" />
      <path
         id="path3392"
         style="font-style:normal;font-variant:normal;font-weight:normal;font-stretch:normal;font-size:4.0196px;font-family:Rubik;-inkscape-font-specification:'Rubik, Normal';font-variant-ligatures:normal;font-variant-caps:normal;font-variant-numeric:normal;font-variant-east-asian:normal;stroke-width:0.10049"
         d="m 8.0025991,23.015984 q -0.032157,0 -0.060294,-0.02412 -0.024118,-0.02412 -0.024118,-0.06029 0,-0.01206 0.00402,-0.02814 0.00804,-0.0201 0.024118,-0.04422 L 8.6457351,21.94677 7.9905403,21.082556 q -0.016078,-0.02412 -0.024118,-0.0402 -0.00402,-0.01608 -0.00402,-0.03216 0,-0.03618 0.024118,-0.06029 0.024118,-0.02412 0.060294,-0.02412 h 0.2049996 q 0.044216,0 0.064314,0.02412 0.024118,0.0201 0.040196,0.0402 l 0.5346068,0.695391 0.5346068,-0.691371 q 0.016078,-0.0201 0.036176,-0.04422 0.024118,-0.02412 0.068333,-0.02412 h 0.1969604 q 0.036176,0 0.060294,0.02412 0.024118,0.02412 0.024118,0.06029 0,0.01608 -0.00804,0.03216 -0.00402,0.01608 -0.020098,0.0402 l -0.663234,0.872253 0.6994104,0.90441 q 0.016078,0.02412 0.020098,0.0402 0.00804,0.01608 0.00804,0.03216 0,0.03618 -0.024118,0.06029 -0.024118,0.02412 -0.060294,0.02412 H 9.5501451 q -0.040196,0 -0.064314,-0.0201 -0.024118,-0.0201 -0.040196,-0.0402 L 8.8788719,22.220103 8.3121083,22.95569 q -0.016078,0.01608 -0.040196,0.0402 -0.020098,0.0201 -0.064314,0.0201 z" />
      <path
         id="path3394"
         style="font-style:normal;font-variant:normal;font-weight:normal;font-stretch:normal;font-size:4.0196px;font-family:Rubik;-inkscape-font-specification:'Rubik, Normal';font-variant-ligatures:normal;font-variant-caps:normal;font-variant-numeric:normal;font-variant-east-asian:normal;stroke-width:0.10049"
         d="m 12.025653,23.015984 q -0.06029,0 -0.09647,-0.02814 -0.03216,-0.02814 -0.05226,-0.07637 l -0.896371,-2.584603 q -0.008,-0.02412 -0.008,-0.04422 0,-0.03216 0.02412,-0.05627 0.02412,-0.02412 0.05628,-0.02412 h 0.209019 q 0.04824,0 0.07235,0.02814 0.02814,0.02412 0.03216,0.04422 l 0.787841,2.279114 0.787842,-2.279114 q 0.008,-0.0201 0.03216,-0.04422 0.02412,-0.02814 0.07235,-0.02814 h 0.20902 q 0.03216,0 0.05627,0.02412 0.02814,0.02412 0.02814,0.05627 0,0.0201 -0.008,0.04422 l -0.90039,2.584603 q -0.01608,0.04824 -0.05225,0.07637 -0.03216,0.02814 -0.09245,0.02814 z" />
      <path
         id="path3396"
         style="font-style:normal;font-variant:normal;font-weight:normal;font-stretch:normal;font-size:4.0196px;font-family:Rubik;-inkscape-font-specification:'Rubik, Normal';font-variant-ligatures:normal;font-variant-caps:normal;font-variant-numeric:normal;font-variant-east-asian:normal;stroke-width:0.10049"
         d="m 13.812679,23.015984 q -0.0402,0 -0.06833,-0.02412 -0.02412,-0.02814 -0.02412,-0.06833 v -1.905291 q 0,-0.0402 0.02412,-0.06431 0.02814,-0.02814 0.06833,-0.02814 h 0.192941 q 0.0402,0 0.06431,0.02814 0.02412,0.02412 0.02412,0.06431 v 1.905291 q 0,0.0402 -0.02412,0.06833 -0.02412,0.02412 -0.06431,0.02412 z m -0.03216,-2.480094 q -0.0402,0 -0.06833,-0.02412 -0.02412,-0.02814 -0.02412,-0.06833 v -0.217059 q 0,-0.0402 0.02412,-0.06431 0.02814,-0.02814 0.06833,-0.02814 h 0.253235 q 0.0402,0 0.06431,0.02814 0.02814,0.02412 0.02814,0.06431 v 0.217059 q 0,0.0402 -0.02814,0.06833 -0.02412,0.02412 -0.06431,0.02412 z" />
      <path
         id="path3398"
         style="font-style:normal;font-variant:normal;font-weight:normal;font-stretch:normal;font-size:4.0196px;font-family:Rubik;-inkscape-font-specification:'Rubik, Normal';font-variant-ligatures:normal;font-variant-caps:normal;font-variant-numeric:normal;font-variant-east-asian:normal;stroke-width:0.10049"
         d="m 14.786176,23.015984 q -0.0402,0 -0.06833,-0.02412 -0.02412,-0.02814 -0.02412,-0.06833 v -1.901271 q 0,-0.0402 0.02412,-0.06833 0.02814,-0.02814 0.06833,-0.02814 h 0.184902 q 0.0402,0 0.06833,0.02814 0.02814,0.02814 0.02814,0.06833 v 0.176862 q 0.08039,-0.136666 0.221078,-0.204999 0.140686,-0.06833 0.337647,-0.06833 h 0.160784 q 0.0402,0 0.06431,0.02814 0.02412,0.02412 0.02412,0.06431 v 0.164804 q 0,0.0402 -0.02412,0.06431 -0.02412,0.02412 -0.06431,0.02412 h -0.241176 q -0.217059,0 -0.341666,0.128627 -0.124608,0.124608 -0.124608,0.341666 v 1.181763 q 0,0.0402 -0.02814,0.06833 -0.02814,0.02412 -0.06833,0.02412 z" />
      <path
         id="path3400"
         style="font-style:normal;font-variant:normal;font-weight:normal;font-stretch:normal;font-size:4.0196px;font-family:Rubik;-inkscape-font-specification:'Rubik, Normal';font-variant-ligatures:normal;font-variant-caps:normal;font-variant-numeric:normal;font-variant-east-asian:normal;stroke-width:0.10049"
         d="m 17.040606,23.015984 q -0.225097,0 -0.365783,-0.08441 -0.140686,-0.08843 -0.205,-0.245196 -0.06431,-0.160784 -0.06431,-0.377842 V 21.24736 h -0.313528 q -0.0402,0 -0.06833,-0.02412 -0.02412,-0.02814 -0.02412,-0.06833 v -0.136667 q 0,-0.0402 0.02412,-0.06431 0.02814,-0.02814 0.06833,-0.02814 h 0.313528 v -0.671274 q 0,-0.0402 0.02412,-0.06431 0.02814,-0.02814 0.06833,-0.02814 h 0.188921 q 0.0402,0 0.06431,0.02814 0.02814,0.02412 0.02814,0.06431 v 0.671274 h 0.498431 q 0.0402,0 0.06431,0.02814 0.02814,0.02412 0.02814,0.06431 v 0.136667 q 0,0.0402 -0.02814,0.06833 -0.02412,0.02412 -0.06431,0.02412 h -0.498431 v 1.033037 q 0,0.188921 0.06431,0.29745 0.06431,0.108529 0.229117,0.108529 h 0.245196 q 0.0402,0 0.06431,0.02814 0.02814,0.02412 0.02814,0.06431 v 0.144706 q 0,0.0402 -0.02814,0.06833 -0.02412,0.02412 -0.06431,0.02412 z" />
      <path
         id="path3402"
         style="font-style:normal;font-variant:normal;font-weight:normal;font-stretch:normal;font-size:4.0196px;font-family:Rubik;-inkscape-font-specification:'Rubik, Normal';font-variant-ligatures:normal;font-variant-caps:normal;font-variant-numeric:normal;font-variant-east-asian:normal;stroke-width:0.10049"
         d="m 18.574586,23.05618 q -0.257254,0 -0.438136,-0.112549 -0.176863,-0.116569 -0.269314,-0.321568 -0.09245,-0.205 -0.09245,-0.470293 v -1.133528 q 0,-0.0402 0.02412,-0.06431 0.02814,-0.02814 0.06833,-0.02814 h 0.20098 q 0.0402,0 0.06431,0.02814 0.02814,0.02412 0.02814,0.06431 v 1.11343 q 0,0.59892 0.522548,0.59892 0.249215,0 0.397941,-0.156764 0.152744,-0.160784 0.152744,-0.442156 v -1.11343 q 0,-0.0402 0.02412,-0.06431 0.02814,-0.02814 0.06833,-0.02814 h 0.19696 q 0.04422,0 0.06833,0.02814 0.02412,0.02412 0.02412,0.06431 v 1.905291 q 0,0.0402 -0.02412,0.06833 -0.02412,0.02412 -0.06833,0.02412 H 19.33831 q -0.0402,0 -0.06833,-0.02412 -0.02412,-0.02814 -0.02412,-0.06833 V 22.74667 q -0.108529,0.140686 -0.265293,0.225098 -0.152745,0.08441 -0.40598,0.08441 z" />
      <path
         id="path3404"
         style="font-style:normal;font-variant:normal;font-weight:normal;font-stretch:normal;font-size:4.0196px;font-family:Rubik;-inkscape-font-specification:'Rubik, Normal';font-variant-ligatures:normal;font-variant-caps:normal;font-variant-numeric:normal;font-variant-east-asian:normal;stroke-width:0.10049"
         d="m 20.795667,23.05618 q -0.20098,0 -0.365784,-0.08039 -0.164803,-0.08039 -0.265293,-0.217059 -0.10049,-0.136666 -0.10049,-0.309509 0,-0.277352 0.225097,-0.442156 0.225098,-0.164804 0.586862,-0.217058 l 0.59892,-0.08441 v -0.116568 q 0,-0.192941 -0.112549,-0.30147 -0.108529,-0.10853 -0.357744,-0.10853 -0.180882,0 -0.293431,0.07235 -0.108529,0.07235 -0.152745,0.184902 -0.02412,0.06029 -0.08441,0.06029 h -0.180882 q -0.04422,0 -0.06833,-0.02412 -0.0201,-0.02814 -0.0201,-0.06431 0,-0.06029 0.04422,-0.148726 0.04824,-0.08843 0.144706,-0.172842 0.09647,-0.08441 0.245195,-0.140686 0.152745,-0.06029 0.369804,-0.06029 0.241176,0 0.405979,0.06431 0.164804,0.06029 0.257255,0.164804 0.09647,0.104509 0.136666,0.237156 0.04422,0.132647 0.04422,0.269313 v 1.302351 q 0,0.0402 -0.02814,0.06833 -0.02412,0.02412 -0.06431,0.02412 h -0.184902 q -0.04421,0 -0.06833,-0.02412 -0.02412,-0.02814 -0.02412,-0.06833 V 22.75069 q -0.05225,0.07235 -0.140686,0.144706 -0.08843,0.06833 -0.221078,0.116568 -0.132646,0.04422 -0.325587,0.04422 z m 0.08441,-0.30147 q 0.164804,0 0.30147,-0.06833 0.136667,-0.07235 0.213039,-0.221078 0.08039,-0.148725 0.08039,-0.373822 v -0.112549 l -0.466273,0.06833 q -0.285392,0.0402 -0.430098,0.136666 -0.144705,0.09245 -0.144705,0.237157 0,0.112549 0.06431,0.188921 0.06833,0.07235 0.168824,0.108529 0.104509,0.03618 0.213038,0.03618 z" />
      <path
         id="path3406"
         style="font-style:normal;font-variant:normal;font-weight:normal;font-stretch:normal;font-size:4.0196px;font-family:Rubik;-inkscape-font-specification:'Rubik, Normal';font-variant-ligatures:normal;font-variant-caps:normal;font-variant-numeric:normal;font-variant-east-asian:normal;stroke-width:0.10049"
         d="m 22.531066,23.015984 q -0.0402,0 -0.06833,-0.02412 -0.02412,-0.02814 -0.02412,-0.06833 v -2.669015 q 0,-0.0402 0.02412,-0.06431 0.02814,-0.02814 0.06833,-0.02814 h 0.188922 q 0.04421,0 0.06833,0.02814 0.02412,0.02412 0.02412,0.06431 v 2.669015 q 0,0.0402 -0.02412,0.06833 -0.02412,0.02412 -0.06833,0.02412 z" />
      <path
         id="path3408"
         style="font-style:normal;font-variant:normal;font-weight:normal;font-stretch:normal;font-size:4.0196px;font-family:Rubik;-inkscape-font-specification:'Rubik, Normal';font-variant-ligatures:normal;font-variant-caps:normal;font-variant-numeric:normal;font-variant-east-asian:normal;stroke-width:0.10049"
         d="m 23.500542,23.015984 q -0.0402,0 -0.06833,-0.02412 -0.02412,-0.02814 -0.02412,-0.06833 v -1.905291 q 0,-0.0402 0.02412,-0.06431 0.02814,-0.02814 0.06833,-0.02814 h 0.192941 q 0.0402,0 0.06431,0.02814 0.02412,0.02412 0.02412,0.06431 v 1.905291 q 0,0.0402 -0.02412,0.06833 -0.02412,0.02412 -0.06431,0.02412 z m -0.03216,-2.480094 q -0.0402,0 -0.06833,-0.02412 -0.02412,-0.02814 -0.02412,-0.06833 v -0.217059 q 0,-0.0402 0.02412,-0.06431 0.02814,-0.02814 0.06833,-0.02814 h 0.253235 q 0.0402,0 0.06431,0.02814 0.02814,0.02412 0.02814,0.06431 v 0.217059 q 0,0.0402 -0.02814,0.06833 -0.02412,0.02412 -0.06431,0.02412 z" />
      <path
         id="path3410"
         style="font-style:normal;font-variant:normal;font-weight:normal;font-stretch:normal;font-size:4.0196px;font-family:Rubik;-inkscape-font-specification:'Rubik, Normal';font-variant-ligatures:normal;font-variant-caps:normal;font-variant-numeric:normal;font-variant-east-asian:normal;stroke-width:0.10049"
         d="m 24.341393,23.015984 q -0.0402,0 -0.06833,-0.02412 -0.02412,-0.02814 -0.02412,-0.06833 v -0.140686 q 0,-0.03618 0.01608,-0.06833 0.0201,-0.03216 0.0402,-0.06029 l 1.10941,-1.41088 h -1.037057 q -0.0402,0 -0.06833,-0.02412 -0.02412,-0.02412 -0.02412,-0.06833 v -0.132647 q 0,-0.0402 0.02412,-0.06431 0.02814,-0.02814 0.06833,-0.02814 h 1.430978 q 0.0402,0 0.06431,0.02814 0.02814,0.02412 0.02814,0.06431 v 0.148726 q 0,0.03618 -0.0201,0.06431 -0.01608,0.02814 -0.03618,0.06029 l -1.097351,1.40686 h 1.141567 q 0.0402,0 0.06431,0.02412 0.02814,0.02412 0.02814,0.06833 v 0.132647 q 0,0.0402 -0.02814,0.06833 -0.02412,0.02412 -0.06431,0.02412 z" />
      <path
         id="path3412"
         style="font-style:normal;font-variant:normal;font-weight:normal;font-stretch:normal;font-size:4.0196px;font-family:Rubik;-inkscape-font-specification:'Rubik, Normal';font-variant-ligatures:normal;font-variant-caps:normal;font-variant-numeric:normal;font-variant-east-asian:normal;stroke-width:0.10049"
         d="m 27.013484,23.05618 q -0.20098,0 -0.365784,-0.08039 -0.164803,-0.08039 -0.265293,-0.217059 -0.10049,-0.136666 -0.10049,-0.309509 0,-0.277352 0.225097,-0.442156 0.225098,-0.164804 0.586862,-0.217058 l 0.59892,-0.08441 v -0.116568 q 0,-0.192941 -0.112548,-0.30147 -0.10853,-0.10853 -0.357745,-0.10853 -0.180882,0 -0.293431,0.07235 -0.108529,0.07235 -0.152744,0.184902 -0.02412,0.06029 -0.08441,0.06029 h -0.180882 q -0.04422,0 -0.06833,-0.02412 -0.0201,-0.02814 -0.0201,-0.06431 0,-0.06029 0.04422,-0.148726 0.04824,-0.08843 0.144706,-0.172842 0.09647,-0.08441 0.245196,-0.140686 0.152744,-0.06029 0.369803,-0.06029 0.241176,0 0.405979,0.06431 0.164804,0.06029 0.257255,0.164804 0.09647,0.104509 0.136666,0.237156 0.04422,0.132647 0.04422,0.269313 v 1.302351 q 0,0.0402 -0.02814,0.06833 -0.02412,0.02412 -0.06431,0.02412 h -0.184902 q -0.04421,0 -0.06833,-0.02412 -0.02412,-0.02814 -0.02412,-0.06833 V 22.75069 q -0.05225,0.07235 -0.140686,0.144706 -0.08843,0.06833 -0.221078,0.116568 -0.132647,0.04422 -0.325588,0.04422 z m 0.08441,-0.30147 q 0.164803,0 0.30147,-0.06833 0.136666,-0.07235 0.213038,-0.221078 0.08039,-0.148725 0.08039,-0.373822 v -0.112549 l -0.466273,0.06833 q -0.285392,0.0402 -0.430097,0.136666 -0.144706,0.09245 -0.144706,0.237157 0,0.112549 0.06431,0.188921 0.06833,0.07235 0.168823,0.108529 0.104509,0.03618 0.213039,0.03618 z" />
      <path
         id="path3414"
         style="font-style:normal;font-variant:normal;font-weight:normal;font-stretch:normal;font-size:4.0196px;font-family:Rubik;-inkscape-font-specification:'Rubik, Normal';font-variant-ligatures:normal;font-variant-caps:normal;font-variant-numeric:normal;font-variant-east-asian:normal;stroke-width:0.10049"
         d="m 29.44484,23.015984 q -0.225097,0 -0.365783,-0.08441 -0.140686,-0.08843 -0.205,-0.245196 -0.06431,-0.160784 -0.06431,-0.377842 V 21.24736 h -0.313528 q -0.0402,0 -0.06833,-0.02412 -0.02412,-0.02814 -0.02412,-0.06833 v -0.136667 q 0,-0.0402 0.02412,-0.06431 0.02814,-0.02814 0.06833,-0.02814 h 0.313528 v -0.671274 q 0,-0.0402 0.02412,-0.06431 0.02814,-0.02814 0.06833,-0.02814 h 0.188921 q 0.0402,0 0.06431,0.02814 0.02814,0.02412 0.02814,0.06431 v 0.671274 h 0.498431 q 0.0402,0 0.06431,0.02814 0.02814,0.02412 0.02814,0.06431 v 0.136667 q 0,0.0402 -0.02814,0.06833 -0.02412,0.02412 -0.06431,0.02412 h -0.498431 v 1.033037 q 0,0.188921 0.06431,0.29745 0.06431,0.108529 0.229117,0.108529 h 0.245196 q 0.0402,0 0.06431,0.02814 0.02814,0.02412 0.02814,0.06431 v 0.144706 q 0,0.0402 -0.02814,0.06833 -0.02412,0.02412 -0.06431,0.02412 z" />
      <path
         id="path3416"
         style="font-style:normal;font-variant:normal;font-weight:normal;font-stretch:normal;font-size:4.0196px;font-family:Rubik;-inkscape-font-specification:'Rubik, Normal';font-variant-ligatures:normal;font-variant-caps:normal;font-variant-numeric:normal;font-variant-east-asian:normal;stroke-width:0.10049"
         d="m 30.291468,23.015984 q -0.0402,0 -0.06833,-0.02412 -0.02412,-0.02814 -0.02412,-0.06833 v -1.905291 q 0,-0.0402 0.02412,-0.06431 0.02814,-0.02814 0.06833,-0.02814 h 0.192941 q 0.0402,0 0.06431,0.02814 0.02412,0.02412 0.02412,0.06431 v 1.905291 q 0,0.0402 -0.02412,0.06833 -0.02412,0.02412 -0.06431,0.02412 z m -0.03216,-2.480094 q -0.0402,0 -0.06833,-0.02412 -0.02412,-0.02814 -0.02412,-0.06833 v -0.217059 q 0,-0.0402 0.02412,-0.06431 0.02814,-0.02814 0.06833,-0.02814 h 0.253235 q 0.0402,0 0.06431,0.02814 0.02814,0.02412 0.02814,0.06431 v 0.217059 q 0,0.0402 -0.02814,0.06833 -0.02412,0.02412 -0.06431,0.02412 z" />
      <path
         id="path3418"
         style="font-style:normal;font-variant:normal;font-weight:normal;font-stretch:normal;font-size:4.0196px;font-family:Rubik;-inkscape-font-specification:'Rubik, Normal';font-variant-ligatures:normal;font-variant-caps:normal;font-variant-numeric:normal;font-variant-east-asian:normal;stroke-width:0.10049"
         d="m 32.02869,23.05618 q -0.30549,0 -0.51049,-0.116569 -0.204999,-0.116568 -0.313528,-0.321568 -0.10853,-0.209019 -0.120588,-0.474313 -0.004,-0.06833 -0.004,-0.172842 0,-0.10853 0.004,-0.172843 0.01206,-0.269313 0.120588,-0.474313 0.112548,-0.205 0.317548,-0.321568 0.205,-0.116568 0.50647,-0.116568 0.30147,0 0.506469,0.116568 0.205,0.116568 0.313529,0.321568 0.112549,0.205 0.124608,0.474313 0.004,0.06431 0.004,0.172843 0,0.104509 -0.004,0.172842 -0.01206,0.265294 -0.120588,0.474313 -0.10853,0.205 -0.313529,0.321568 -0.205,0.116569 -0.510489,0.116569 z m 0,-0.30951 q 0.249215,0 0.39794,-0.156764 0.148725,-0.160784 0.160784,-0.466274 0.004,-0.06029 0.004,-0.152744 0,-0.09245 -0.004,-0.152745 -0.01206,-0.30549 -0.160784,-0.462254 -0.148725,-0.160784 -0.39794,-0.160784 -0.249216,0 -0.40196,0.160784 -0.148726,0.156764 -0.156765,0.462254 -0.004,0.06029 -0.004,0.152745 0,0.09245 0.004,0.152744 0.008,0.30549 0.156765,0.466274 0.152744,0.156764 0.40196,0.156764 z" />
      <path
         id="path3420"
         style="font-style:normal;font-variant:normal;font-weight:normal;font-stretch:normal;font-size:4.0196px;font-family:Rubik;-inkscape-font-specification:'Rubik, Normal';font-variant-ligatures:normal;font-variant-caps:normal;font-variant-numeric:normal;font-variant-east-asian:normal;stroke-width:0.10049"
         d="m 33.573096,23.015984 q -0.0402,0 -0.06833,-0.02412 -0.02412,-0.02814 -0.02412,-0.06833 v -1.905291 q 0,-0.0402 0.02412,-0.06431 0.02814,-0.02814 0.06833,-0.02814 h 0.188921 q 0.0402,0 0.06431,0.02814 0.02814,0.02412 0.02814,0.06431 v 0.176863 q 0.10451,-0.136667 0.261274,-0.221078 0.160784,-0.08843 0.409999,-0.08843 0.261274,0 0.442156,0.116568 0.184902,0.112549 0.277352,0.317548 0.09245,0.20098 0.09245,0.470294 v 1.133527 q 0,0.0402 -0.02412,0.06833 -0.02412,0.02412 -0.06431,0.02412 h -0.20098 q -0.0402,0 -0.06833,-0.02412 -0.02412,-0.02814 -0.02412,-0.06833 v -1.113429 q 0,-0.281372 -0.136666,-0.438137 -0.136667,-0.160784 -0.40196,-0.160784 -0.249215,0 -0.40196,0.160784 -0.148725,0.156765 -0.148725,0.438137 v 1.113429 q 0,0.0402 -0.02814,0.06833 -0.02412,0.02412 -0.06431,0.02412 z" />
      <path
         id="path3422"
         style="font-style:normal;font-variant:normal;font-weight:normal;font-stretch:normal;font-size:4.0196px;font-family:Rubik;-inkscape-font-specification:'Rubik, Normal';font-variant-ligatures:normal;font-variant-caps:normal;font-variant-numeric:normal;font-variant-east-asian:normal;stroke-width:0.10049"
         d="m 37.040439,23.015984 q -0.0402,0 -0.06833,-0.02412 -0.02412,-0.02814 -0.02412,-0.06833 v -2.624799 q 0,-0.04422 0.02412,-0.06833 0.02814,-0.02814 0.06833,-0.02814 h 0.20098 q 0.04824,0 0.07235,0.02412 0.02412,0.02412 0.02814,0.0402 l 0.852156,1.623919 0.856174,-1.623919 q 0.008,-0.01608 0.02814,-0.0402 0.02412,-0.02412 0.07235,-0.02412 h 0.196961 q 0.04422,0 0.06833,0.02814 0.02814,0.02412 0.02814,0.06833 v 2.624799 q 0,0.0402 -0.02814,0.06833 -0.02412,0.02412 -0.06833,0.02412 h -0.196961 q -0.0402,0 -0.06833,-0.02412 -0.02412,-0.02814 -0.02412,-0.06833 V 20.94589 l -0.671274,1.310389 q -0.01608,0.0402 -0.04824,0.06431 -0.03216,0.0201 -0.08039,0.0201 h -0.124607 q -0.05226,0 -0.08441,-0.0201 -0.02814,-0.02412 -0.04824,-0.06431 L 37.329851,20.94589 v 1.977643 q 0,0.0402 -0.02814,0.06833 -0.02412,0.02412 -0.06431,0.02412 z" />
      <path
         id="path3424"
         style="font-style:normal;font-variant:normal;font-weight:normal;font-stretch:normal;font-size:4.0196px;font-family:Rubik;-inkscape-font-specification:'Rubik, Normal';font-variant-ligatures:normal;font-variant-caps:normal;font-variant-numeric:normal;font-variant-east-asian:normal;stroke-width:0.10049"
         d="m 40.673842,23.05618 q -0.20098,0 -0.365783,-0.08039 -0.164804,-0.08039 -0.265294,-0.217059 -0.10049,-0.136666 -0.10049,-0.309509 0,-0.277352 0.225098,-0.442156 0.225097,-0.164804 0.586861,-0.217058 l 0.598921,-0.08441 v -0.116568 q 0,-0.192941 -0.112549,-0.30147 -0.108529,-0.10853 -0.357744,-0.10853 -0.180882,0 -0.293431,0.07235 -0.108529,0.07235 -0.152745,0.184902 -0.02412,0.06029 -0.08441,0.06029 h -0.180882 q -0.04421,0 -0.06833,-0.02412 -0.0201,-0.02814 -0.0201,-0.06431 0,-0.06029 0.04422,-0.148726 0.04823,-0.08843 0.144705,-0.172842 0.09647,-0.08441 0.245196,-0.140686 0.152745,-0.06029 0.369803,-0.06029 0.241176,0 0.40598,0.06431 0.164803,0.06029 0.257254,0.164804 0.09647,0.104509 0.136667,0.237156 0.04422,0.132647 0.04422,0.269313 v 1.302351 q 0,0.0402 -0.02814,0.06833 -0.02412,0.02412 -0.06431,0.02412 h -0.184901 q -0.04422,0 -0.06833,-0.02412 -0.02412,-0.02814 -0.02412,-0.06833 V 22.75069 q -0.05225,0.07235 -0.140686,0.144706 -0.08843,0.06833 -0.221078,0.116568 -0.132647,0.04422 -0.325588,0.04422 z m 0.08441,-0.30147 q 0.164804,0 0.30147,-0.06833 0.136666,-0.07235 0.213039,-0.221078 0.08039,-0.148725 0.08039,-0.373822 v -0.112549 l -0.466274,0.06833 q -0.285391,0.0402 -0.430097,0.136666 -0.144706,0.09245 -0.144706,0.237157 0,0.112549 0.06431,0.188921 0.06833,0.07235 0.168823,0.108529 0.10451,0.03618 0.213039,0.03618 z" />
      <path
         id="path3426"
         style="font-style:normal;font-variant:normal;font-weight:normal;font-stretch:normal;font-size:4.0196px;font-family:Rubik;-inkscape-font-specification:'Rubik, Normal';font-variant-ligatures:normal;font-variant-caps:normal;font-variant-numeric:normal;font-variant-east-asian:normal;stroke-width:0.10049"
         d="m 42.405223,23.015984 q -0.0402,0 -0.06833,-0.02412 -0.02412,-0.02814 -0.02412,-0.06833 v -1.905291 q 0,-0.0402 0.02412,-0.06431 0.02814,-0.02814 0.06833,-0.02814 h 0.188921 q 0.0402,0 0.06431,0.02814 0.02814,0.02412 0.02814,0.06431 v 0.176863 q 0.104509,-0.136667 0.261274,-0.221078 0.160784,-0.08843 0.409999,-0.08843 0.261274,0 0.442156,0.116568 0.184901,0.112549 0.277352,0.317548 0.09245,0.20098 0.09245,0.470294 v 1.133527 q 0,0.0402 -0.02412,0.06833 -0.02412,0.02412 -0.06431,0.02412 h -0.20098 q -0.0402,0 -0.06833,-0.02412 -0.02412,-0.02814 -0.02412,-0.06833 v -1.113429 q 0,-0.281372 -0.136666,-0.438137 -0.136667,-0.160784 -0.40196,-0.160784 -0.249216,0 -0.40196,0.160784 -0.148726,0.156765 -0.148726,0.438137 v 1.113429 q 0,0.0402 -0.02814,0.06833 -0.02412,0.02412 -0.06431,0.02412 z" />
      <path
         id="path3428"
         style="font-style:normal;font-variant:normal;font-weight:normal;font-stretch:normal;font-size:4.0196px;font-family:Rubik;-inkscape-font-specification:'Rubik, Normal';font-variant-ligatures:normal;font-variant-caps:normal;font-variant-numeric:normal;font-variant-east-asian:normal;stroke-width:0.10049"
         d="m 45.602689,23.900296 q -0.273333,0 -0.450195,-0.07235 -0.172843,-0.07235 -0.273333,-0.176863 -0.09647,-0.10049 -0.140686,-0.204999 -0.0402,-0.10049 -0.04422,-0.160784 -0.004,-0.0402 0.02412,-0.06833 0.03216,-0.02814 0.06833,-0.02814 h 0.192941 q 0.03618,0 0.06029,0.01608 0.02412,0.01608 0.0402,0.06833 0.02412,0.06029 0.07235,0.132647 0.04824,0.07637 0.148725,0.128627 0.10049,0.05627 0.281372,0.05627 0.188921,0 0.317548,-0.05225 0.128628,-0.04824 0.192941,-0.176863 0.06833,-0.124607 0.06833,-0.345685 v -0.273333 q -0.09647,0.124607 -0.253234,0.209019 -0.156765,0.08039 -0.393921,0.08039 -0.225098,0 -0.385882,-0.07637 -0.160784,-0.08039 -0.265293,-0.213039 -0.10049,-0.136667 -0.152745,-0.309509 -0.04823,-0.172843 -0.05627,-0.361764 -0.004,-0.112549 0,-0.221078 0.008,-0.188922 0.05627,-0.361764 0.05226,-0.172843 0.152745,-0.30951 0.104509,-0.136666 0.265293,-0.213038 0.160784,-0.08039 0.385882,-0.08039 0.241176,0 0.39794,0.09245 0.160784,0.08843 0.261274,0.217059 v -0.172843 q 0,-0.0402 0.02412,-0.06833 0.02814,-0.02814 0.06833,-0.02814 h 0.184902 q 0.0402,0 0.06833,0.02814 0.02814,0.02814 0.02814,0.06833 v 1.949506 q 0,0.269313 -0.09245,0.478332 -0.08843,0.20902 -0.29745,0.329608 -0.205,0.120588 -0.554705,0.120588 z m -0.008,-1.189802 q 0.20098,0 0.321568,-0.09245 0.124607,-0.09245 0.180882,-0.233137 0.06029,-0.140686 0.06431,-0.285391 0.004,-0.05627 0.004,-0.136667 0,-0.08441 -0.004,-0.140686 -0.004,-0.144705 -0.06431,-0.285391 -0.05627,-0.140686 -0.180882,-0.233137 -0.120588,-0.09245 -0.321568,-0.09245 -0.20098,0 -0.321568,0.09245 -0.120588,0.08843 -0.172843,0.237156 -0.05226,0.144706 -0.06029,0.313529 -0.004,0.10451 0,0.213039 0.008,0.168823 0.06029,0.317548 0.05225,0.144706 0.172843,0.237157 0.120588,0.08843 0.321568,0.08843 z" />
      <path
         id="path3430"
         style="font-style:normal;font-variant:normal;font-weight:normal;font-stretch:normal;font-size:4.0196px;font-family:Rubik;-inkscape-font-specification:'Rubik, Normal';font-variant-ligatures:normal;font-variant-caps:normal;font-variant-numeric:normal;font-variant-east-asian:normal;stroke-width:0.10049"
         d="m 47.980911,23.05618 q -0.414018,0 -0.659214,-0.253235 -0.245196,-0.257255 -0.269313,-0.699411 -0.004,-0.05225 -0.004,-0.132646 0,-0.08441 0.004,-0.136667 0.01608,-0.285391 0.132647,-0.49843 0.116568,-0.217059 0.317548,-0.333627 0.205,-0.116568 0.478332,-0.116568 0.30549,0 0.51049,0.128627 0.209019,0.128627 0.317548,0.365783 0.108529,0.237157 0.108529,0.554705 v 0.06833 q 0,0.04422 -0.02814,0.06833 -0.02412,0.02412 -0.06431,0.02412 h -1.390781 q 0,0.004 0,0.01608 0,0.01206 0,0.0201 0.008,0.164803 0.07235,0.309509 0.06431,0.140686 0.184901,0.229117 0.120588,0.08843 0.289411,0.08843 0.144706,0 0.241176,-0.04421 0.09647,-0.04422 0.156765,-0.09647 0.06029,-0.05627 0.08039,-0.08441 0.03618,-0.05226 0.05627,-0.06029 0.0201,-0.01206 0.06431,-0.01206 h 0.192941 q 0.0402,0 0.06431,0.02412 0.02814,0.0201 0.02412,0.06029 -0.004,0.06029 -0.06431,0.148726 -0.06029,0.08441 -0.172843,0.168823 -0.112548,0.08441 -0.273332,0.140686 -0.160784,0.05226 -0.369804,0.05226 z m -0.546665,-1.238037 h 1.10137 v -0.01206 q 0,-0.180882 -0.06833,-0.321568 -0.06431,-0.140686 -0.188921,-0.221078 -0.124608,-0.08441 -0.297451,-0.08441 -0.172842,0 -0.29745,0.08441 -0.120588,0.08039 -0.184902,0.221078 -0.06431,0.140686 -0.06431,0.321568 z" />
      <path
         id="path3432"
         style="font-style:normal;font-variant:normal;font-weight:normal;font-stretch:normal;font-size:4.0196px;font-family:Rubik;-inkscape-font-specification:'Rubik, Normal';font-variant-ligatures:normal;font-variant-caps:normal;font-variant-numeric:normal;font-variant-east-asian:normal;stroke-width:0.10049"
         d="m 49.494479,23.015984 q -0.0402,0 -0.06833,-0.02412 -0.02412,-0.02814 -0.02412,-0.06833 v -1.901271 q 0,-0.0402 0.02412,-0.06833 0.02814,-0.02814 0.06833,-0.02814 h 0.184901 q 0.0402,0 0.06833,0.02814 0.02814,0.02814 0.02814,0.06833 v 0.176862 q 0.08039,-0.136666 0.221078,-0.204999 0.140686,-0.06833 0.337646,-0.06833 h 0.160784 q 0.0402,0 0.06431,0.02814 0.02412,0.02412 0.02412,0.06431 v 0.164804 q 0,0.0402 -0.02412,0.06431 -0.02412,0.02412 -0.06431,0.02412 h -0.241176 q -0.217058,0 -0.341666,0.128627 -0.124607,0.124608 -0.124607,0.341666 v 1.181763 q 0,0.0402 -0.02814,0.06833 -0.02814,0.02412 -0.06833,0.02412 z" />
    </g>
  </g>
</svg>
