<?xml version="1.0" encoding="UTF-8" standalone="no"?>
<svg xmlns:dc="http://purl.org/dc/elements/1.1/"
   xmlns:cc="http://creativecommons.org/ns#"
   xmlns:rdf="http://www.w3.org/1999/02/22-rdf-syntax-ns#"
   xmlns:svg="http://www.w3.org/2000/svg"
   xmlns="http://www.w3.org/2000/svg"
   width="192"
   height="64"
   viewBox="0 0 50.799999 16.933334"
   version="1.1">
 <g
     id="layer1">
    <g
       id="Group"
       transform="matrix(0.26458333,0,0,0.26458333,0,3.0427084)"
       style="fill:none;fill-rule:evenodd;stroke:none;stroke-width:1">
      <path
         d="m 126.0221,14.855297 c -2.63102,0 -4.86363,-1.764388 -5.54629,-4.197664 h 14.64759 l 2.01923,-3.1447023 h -16.66682 c 0.68266,-2.4186904 2.91527,-4.1972585 5.54629,-4.1972585 h 10.05362 l 2.03381,-3.14510793 h -12.31498 c -4.92072,0 -8.91626,3.99873953 -8.91626,8.92201043 0,4.9232703 3.99554,8.9074253 8.91626,8.9074253 h 10.56582 L 138.38,14.855297 Z M 84.113532,18 c -4.919917,0 -8.915856,-3.984155 -8.915856,-8.9074253 0,-4.9232709 3.995939,-8.92201043 8.915856,-8.92201043 H 96.414741 L 94.409686,3.3156722 H 84.341489 c -3.185738,0 -5.773846,2.5896599 -5.773846,5.7769025 0,3.1872423 2.588108,5.7627223 5.773846,5.7627223 h 12.35749 L 94.679753,18 Z M 19.037094,14.855297 c 3.187358,0 5.768178,-2.57548 5.768178,-5.7627223 0,-3.1872426 -2.58082,-5.7769025 -5.768178,-5.7769025 H 9.1397649 c -3.1853334,0 -5.7681784,2.5896599 -5.7681784,5.7769025 0,3.1872423 2.582845,5.7627223 5.7681784,5.7627223 z M 8.9109974,18 C 3.9918904,18 0,14.015845 0,9.0925747 0,4.1693038 3.9918904,0.17056427 8.9109974,0.17056427 H 19.267886 c 4.919917,0 8.908973,3.99873953 8.908973,8.92201043 C 28.176859,14.015845 24.187803,18 19.267886,18 Z M 44.992682,12.222692 c 3.327858,0 6.029743,-2.688919 6.029743,-6.0187711 0,-3.329447 -2.701885,-6.03335663 -6.029743,-6.03335663 H 30.000115 V 18 h 3.425843 V 3.3156722 h 11.339171 c 1.592869,0 2.872752,1.2944248 2.872752,2.8882487 0,1.5938238 -1.279883,2.8886538 -2.872752,2.8886538 L 35.103856,9.0783947 45.334011,18 h 4.977412 l -6.882862,-5.777308 z m 56.697878,2.632605 V 0.17056427 H 98.263101 V 16.292332 c 0,0.441198 0.170867,0.868216 0.498025,1.19557 C 99.087878,17.814851 99.528812,18 100.01267,18 h 15.62825 l 2.01963,-3.144703 z M 59.739476,11.710594 H 68.88329 L 64.048401,3.9274348 55.174655,18 H 51.136201 L 61.92957,1.0959058 C 62.398847,0.41283846 63.18111,0 64.048401,0 c 0.839354,0 1.621212,0.39825339 2.075913,1.0671408 L 76.960602,18 h -4.038454 l -1.905855,-3.144703 h -9.25759 z M 140.22344,3.6842802 C 139.2093,3.6842802 138.38,2.861129 138.38,1.8419541 138.38,0.82315114 139.2093,0 140.22344,0 141.2507,0 142.08,0.82315114 142.08,1.8419541 c 0,1.0191749 -0.8293,1.8423261 -1.85656,1.8423261 z M 140.0521,0.74466723 c 0.28981,0 0.40828,0.0130187 0.54025,0.0654653 0.36854,0.11753988 0.40828,0.44412217 0.40828,0.57468077 0,0.026037 0,0.091503 -0.0266,0.1696145 -0.0131,0.078484 -0.066,0.2354518 -0.25044,0.3529916 -0.0259,0.013019 -0.039,0.026037 -0.0918,0.052075 l 0.47426,0.8495604 h -0.46114 l -0.4214,-0.7840952 h -0.28943 V 2.8090549 H 139.5258 V 0.74466723 Z m 0.14509,0.94069097 c 0.1316,-0.013019 0.26319,-0.013019 0.3423,-0.1309305 0.0397,-0.052075 0.0529,-0.1041492 0.0529,-0.1826331 0,-0.1045213 -0.066,-0.1960238 -0.15821,-0.2480985 -0.0922,-0.039428 -0.18408,-0.039428 -0.38204,-0.039428 h -0.11809 v 0.60109 z m -1.42203,0.1435772 c 0,0.8101325 0.64522,1.4502785 1.44828,1.4502785 0.81656,0 1.46178,-0.640146 1.46178,-1.4502785 0,-0.7967418 -0.64522,-1.43688782 -1.46178,-1.43688782 -0.80306,0 -1.44828,0.64014602 -1.44828,1.43688782 z"
         id="ORACLE"
         fill="#ec1d24" />
    </g>
    <g
       style="font-style:normal;font-variant:normal;font-weight:normal;font-stretch:normal;font-size:3.85646px;line-height:1.25;font-family:Rubik;-inkscape-font-specification:'Rubik, @wght=400';font-variant-ligatures:normal;font-variant-caps:normal;font-variant-numeric:normal;font-variant-east-asian:normal;font-variation-settings:'wght' 400;stroke-width:0.0964121"
       id="text1468"
       aria-label="Linux Virtualization Manager">
      <path
         id="path4658"
         style="font-style:normal;font-variant:normal;font-weight:normal;font-stretch:normal;font-size:3.85646px;font-family:Rubik;-inkscape-font-specification:'Rubik, @wght=400';font-variant-ligatures:normal;font-variant-caps:normal;font-variant-numeric:normal;font-variant-east-asian:normal;font-variation-settings:'wght' 400;stroke-width:0.0964121"
         d="m 0.08869857,13.836082 q -0.04242106,0 -0.06555982,-0.02314 Q -1.3828278e-8,13.785948 -1.3828278e-8,13.747384 v -2.522125 q 0,-0.03857 0.02313876382828,-0.0617 0.02313876,-0.027 0.06555982,-0.027 h 0.20439238 q 0.0385646,0 0.0617034,0.027 0.0231388,0.02314 0.0231388,0.0617 V 13.50057 H 1.6621343 q 0.042421,0 0.06556,0.027 0.023139,0.02314 0.023139,0.06556 v 0.154259 q 0,0.03856 -0.023139,0.06556 -0.023139,0.02314 -0.06556,0.02314 z" />
      <path
         id="path4660"
         style="font-style:normal;font-variant:normal;font-weight:normal;font-stretch:normal;font-size:3.85646px;font-family:Rubik;-inkscape-font-specification:'Rubik, @wght=400';font-variant-ligatures:normal;font-variant-caps:normal;font-variant-numeric:normal;font-variant-east-asian:normal;font-variation-settings:'wght' 400;stroke-width:0.0964121"
         d="m 2.2078234,13.836082 q -0.038565,0 -0.06556,-0.02314 -0.023139,-0.027 -0.023139,-0.06556 v -1.827962 q 0,-0.03857 0.023139,-0.0617 0.026995,-0.02699 0.06556,-0.02699 h 0.1851101 q 0.038565,0 0.061703,0.02699 0.023139,0.02314 0.023139,0.0617 v 1.827962 q 0,0.03856 -0.023139,0.06556 -0.023139,0.02314 -0.061703,0.02314 z m -0.030852,-2.379435 q -0.038565,0 -0.06556,-0.02314 -0.023139,-0.02699 -0.023139,-0.06556 v -0.208249 q 0,-0.03856 0.023139,-0.0617 0.026995,-0.02699 0.06556,-0.02699 h 0.242957 q 0.038565,0 0.061703,0.02699 0.026995,0.02314 0.026995,0.0617 v 0.208249 q 0,0.03857 -0.026995,0.06556 -0.023139,0.02314 -0.061703,0.02314 z" />
      <path
         id="path4662"
         style="font-style:normal;font-variant:normal;font-weight:normal;font-stretch:normal;font-size:3.85646px;font-family:Rubik;-inkscape-font-specification:'Rubik, @wght=400';font-variant-ligatures:normal;font-variant-caps:normal;font-variant-numeric:normal;font-variant-east-asian:normal;font-variation-settings:'wght' 400;stroke-width:0.0964121"
         d="m 3.1794704,13.836082 q -0.038565,0 -0.06556,-0.02314 -0.023139,-0.027 -0.023139,-0.06556 v -1.827962 q 0,-0.03857 0.023139,-0.0617 0.026995,-0.02699 0.06556,-0.02699 h 0.1812537 q 0.038565,0 0.061703,0.02699 0.026995,0.02314 0.026995,0.0617 v 0.169684 q 0.1002679,-0.13112 0.2506699,-0.212105 0.1542584,-0.08484 0.3933589,-0.08484 0.2506699,0 0.4242106,0.111837 0.1773972,0.107981 0.2660957,0.30466 0.088699,0.192823 0.088699,0.451206 v 1.087522 q 0,0.03856 -0.023139,0.06556 -0.023139,0.02314 -0.061703,0.02314 h -0.192823 q -0.038565,0 -0.06556,-0.02314 -0.023139,-0.027 -0.023139,-0.06556 v -1.06824 q 0,-0.269952 -0.1311196,-0.420354 -0.1311197,-0.154258 -0.385646,-0.154258 -0.2391006,0 -0.385646,0.154258 -0.1426891,0.150402 -0.1426891,0.420354 v 1.06824 q 0,0.03856 -0.026995,0.06556 -0.023139,0.02314 -0.061703,0.02314 z" />
      <path
         id="path4664"
         style="font-style:normal;font-variant:normal;font-weight:normal;font-stretch:normal;font-size:3.85646px;font-family:Rubik;-inkscape-font-specification:'Rubik, @wght=400';font-variant-ligatures:normal;font-variant-caps:normal;font-variant-numeric:normal;font-variant-east-asian:normal;font-variation-settings:'wght' 400;stroke-width:0.0964121"
         d="m 6.1738913,13.874647 q -0.2468134,0 -0.4203541,-0.107981 Q 5.5838529,13.654829 5.4951543,13.458149 5.4064557,13.26147 5.4064557,13.006944 v -1.087522 q 0,-0.03857 0.023139,-0.0617 0.026995,-0.02699 0.06556,-0.02699 h 0.192823 q 0.038565,0 0.061703,0.02699 0.026995,0.02314 0.026995,0.0617 v 1.068239 q 0,0.574613 0.5013398,0.574613 0.2391006,0 0.3817896,-0.150402 0.1465455,-0.154259 0.1465455,-0.424211 v -1.068239 q 0,-0.03857 0.023139,-0.0617 0.026995,-0.02699 0.06556,-0.02699 h 0.1889666 q 0.042421,0 0.06556,0.02699 0.023139,0.02314 0.023139,0.0617 v 1.827962 q 0,0.03856 -0.023139,0.06556 -0.023139,0.02314 -0.06556,0.02314 H 6.9066187 q -0.038565,0 -0.06556,-0.02314 -0.023139,-0.027 -0.023139,-0.06556 V 13.5777 q -0.1041244,0.134976 -0.2545263,0.215961 -0.1465455,0.08099 -0.3895025,0.08099 z" />
      <path
         id="path4666"
         style="font-style:normal;font-variant:normal;font-weight:normal;font-stretch:normal;font-size:3.85646px;font-family:Rubik;-inkscape-font-specification:'Rubik, @wght=400';font-variant-ligatures:normal;font-variant-caps:normal;font-variant-numeric:normal;font-variant-east-asian:normal;font-variation-settings:'wght' 400;stroke-width:0.0964121"
         d="m 7.6530849,13.836082 q -0.030852,0 -0.057847,-0.02314 -0.023139,-0.02314 -0.023139,-0.05785 0,-0.01157 0.00386,-0.02699 0.00771,-0.01928 0.023139,-0.04242 l 0.6710241,-0.875417 -0.628603,-0.829139 q -0.015426,-0.02314 -0.023139,-0.03856 -0.00386,-0.01543 -0.00386,-0.03085 0,-0.03471 0.023139,-0.05785 0.023139,-0.02314 0.057847,-0.02314 h 0.1966795 q 0.042421,0 0.061703,0.02314 0.023139,0.01928 0.038565,0.03857 l 0.5129092,0.667167 0.5129092,-0.663311 q 0.015426,-0.01928 0.034708,-0.04242 0.023139,-0.02314 0.06556,-0.02314 h 0.1889665 q 0.034708,0 0.057847,0.02314 0.023139,0.02314 0.023139,0.05785 0,0.01543 -0.00771,0.03085 -0.00386,0.01543 -0.019282,0.03856 l -0.6363159,0.836852 0.671024,0.867704 q 0.015426,0.02314 0.019282,0.03856 0.00771,0.01543 0.00771,0.03085 0,0.03471 -0.023139,0.05785 -0.023139,0.02314 -0.057847,0.02314 H 9.1378221 q -0.038565,0 -0.061703,-0.01928 -0.023139,-0.01928 -0.038565,-0.03856 L 8.4937932,13.072503 7.9500324,13.778236 q -0.015426,0.01543 -0.038565,0.03856 -0.019282,0.01928 -0.061703,0.01928 z" />
      <path
         id="path4668"
         style="font-style:normal;font-variant:normal;font-weight:normal;font-stretch:normal;font-size:3.85646px;font-family:Rubik;-inkscape-font-specification:'Rubik, @wght=400';font-variant-ligatures:normal;font-variant-caps:normal;font-variant-numeric:normal;font-variant-east-asian:normal;font-variation-settings:'wght' 400;stroke-width:0.0964121"
         d="m 11.512859,13.836082 q -0.05785,0 -0.09256,-0.02699 -0.03085,-0.02699 -0.05013,-0.07327 l -0.859991,-2.479703 q -0.0077,-0.02314 -0.0077,-0.04242 0,-0.03085 0.02314,-0.05399 0.02314,-0.02314 0.05399,-0.02314 h 0.200536 q 0.04628,0 0.06942,0.027 0.02699,0.02314 0.03085,0.04242 l 0.755866,2.186613 0.755866,-2.186613 q 0.0077,-0.01928 0.03085,-0.04242 0.02314,-0.027 0.06942,-0.027 h 0.200536 q 0.03085,0 0.05399,0.02314 0.02699,0.02314 0.02699,0.05399 0,0.01928 -0.0077,0.04242 l -0.863848,2.479703 q -0.01543,0.04628 -0.05013,0.07327 -0.03085,0.02699 -0.0887,0.02699 z" />
      <path
         id="path4670"
         style="font-style:normal;font-variant:normal;font-weight:normal;font-stretch:normal;font-size:3.85646px;font-family:Rubik;-inkscape-font-specification:'Rubik, @wght=400';font-variant-ligatures:normal;font-variant-caps:normal;font-variant-numeric:normal;font-variant-east-asian:normal;font-variation-settings:'wght' 400;stroke-width:0.0964121"
         d="m 13.219825,13.836082 q -0.03857,0 -0.06556,-0.02314 -0.02314,-0.027 -0.02314,-0.06556 v -1.827962 q 0,-0.03857 0.02314,-0.0617 0.02699,-0.02699 0.06556,-0.02699 h 0.18511 q 0.03856,0 0.0617,0.02699 0.02314,0.02314 0.02314,0.0617 v 1.827962 q 0,0.03856 -0.02314,0.06556 -0.02314,0.02314 -0.0617,0.02314 z m -0.03085,-2.379435 q -0.03857,0 -0.06556,-0.02314 -0.02314,-0.02699 -0.02314,-0.06556 v -0.208249 q 0,-0.03856 0.02314,-0.0617 0.027,-0.02699 0.06556,-0.02699 h 0.242957 q 0.03857,0 0.0617,0.02699 0.027,0.02314 0.027,0.0617 v 0.208249 q 0,0.03857 -0.027,0.06556 -0.02314,0.02314 -0.0617,0.02314 z" />
      <path
         id="path4672"
         style="font-style:normal;font-variant:normal;font-weight:normal;font-stretch:normal;font-size:3.85646px;font-family:Rubik;-inkscape-font-specification:'Rubik, @wght=400';font-variant-ligatures:normal;font-variant-caps:normal;font-variant-numeric:normal;font-variant-east-asian:normal;font-variation-settings:'wght' 400;stroke-width:0.0964121"
         d="m 14.191472,13.836082 q -0.03856,0 -0.06556,-0.02314 -0.02314,-0.027 -0.02314,-0.06556 v -1.824106 q 0,-0.03856 0.02314,-0.06556 0.027,-0.02699 0.06556,-0.02699 h 0.177397 q 0.03857,0 0.06556,0.02699 0.02699,0.027 0.02699,0.06556 v 0.169684 q 0.07713,-0.131119 0.212105,-0.196679 0.134977,-0.06556 0.323943,-0.06556 h 0.154259 q 0.03856,0 0.0617,0.02699 0.02314,0.02314 0.02314,0.0617 v 0.158115 q 0,0.03856 -0.02314,0.0617 -0.02314,0.02314 -0.0617,0.02314 h -0.231388 q -0.208249,0 -0.327799,0.123407 -0.11955,0.11955 -0.11955,0.327799 v 1.133799 q 0,0.03856 -0.027,0.06556 -0.02699,0.02314 -0.06556,0.02314 z" />
      <path
         id="path4674"
         style="font-style:normal;font-variant:normal;font-weight:normal;font-stretch:normal;font-size:3.85646px;font-family:Rubik;-inkscape-font-specification:'Rubik, @wght=400';font-variant-ligatures:normal;font-variant-caps:normal;font-variant-numeric:normal;font-variant-east-asian:normal;font-variation-settings:'wght' 400;stroke-width:0.0964121"
         d="m 16.354404,13.836082 q -0.215962,0 -0.350938,-0.08099 -0.134976,-0.08484 -0.196679,-0.235244 -0.0617,-0.154259 -0.0617,-0.362508 V 12.13924 h -0.300804 q -0.03856,0 -0.06556,-0.02314 -0.02314,-0.027 -0.02314,-0.06556 v -0.131119 q 0,-0.03857 0.02314,-0.0617 0.027,-0.02699 0.06556,-0.02699 h 0.300804 v -0.644029 q 0,-0.03856 0.02314,-0.0617 0.02699,-0.02699 0.06556,-0.02699 h 0.181253 q 0.03856,0 0.0617,0.02699 0.02699,0.02314 0.02699,0.0617 v 0.644029 h 0.478201 q 0.03856,0 0.0617,0.02699 0.027,0.02314 0.027,0.0617 v 0.131119 q 0,0.03856 -0.027,0.06556 -0.02314,0.02314 -0.0617,0.02314 h -0.478201 v 0.99111 q 0,0.181254 0.0617,0.285378 0.0617,0.104125 0.219819,0.104125 H 16.6205 q 0.03856,0 0.0617,0.027 0.02699,0.02314 0.02699,0.0617 v 0.138833 q 0,0.03856 -0.02699,0.06556 -0.02314,0.02314 -0.0617,0.02314 z" />
      <path
         id="path4676"
         style="font-style:normal;font-variant:normal;font-weight:normal;font-stretch:normal;font-size:3.85646px;font-family:Rubik;-inkscape-font-specification:'Rubik, @wght=400';font-variant-ligatures:normal;font-variant-caps:normal;font-variant-numeric:normal;font-variant-east-asian:normal;font-variation-settings:'wght' 400;stroke-width:0.0964121"
         d="m 17.826124,13.874647 q -0.246813,0 -0.420354,-0.107981 -0.169684,-0.111837 -0.258383,-0.308517 -0.0887,-0.196679 -0.0887,-0.451205 v -1.087522 q 0,-0.03857 0.02314,-0.0617 0.02699,-0.02699 0.06556,-0.02699 h 0.192823 q 0.03857,0 0.0617,0.02699 0.02699,0.02314 0.02699,0.0617 v 1.068239 q 0,0.574613 0.50134,0.574613 0.2391,0 0.381789,-0.150402 0.146546,-0.154259 0.146546,-0.424211 v -1.068239 q 0,-0.03857 0.02314,-0.0617 0.02699,-0.02699 0.06556,-0.02699 h 0.188967 q 0.04242,0 0.06556,0.02699 0.02314,0.02314 0.02314,0.0617 v 1.827962 q 0,0.03856 -0.02314,0.06556 -0.02314,0.02314 -0.06556,0.02314 h -0.177397 q -0.03857,0 -0.06556,-0.02314 -0.02314,-0.027 -0.02314,-0.06556 V 13.5777 q -0.104124,0.134976 -0.254526,0.215961 -0.146546,0.08099 -0.389503,0.08099 z" />
      <path
         id="path4678"
         style="font-style:normal;font-variant:normal;font-weight:normal;font-stretch:normal;font-size:3.85646px;font-family:Rubik;-inkscape-font-specification:'Rubik, @wght=400';font-variant-ligatures:normal;font-variant-caps:normal;font-variant-numeric:normal;font-variant-east-asian:normal;font-variation-settings:'wght' 400;stroke-width:0.0964121"
         d="m 19.95706,13.874647 q -0.192823,0 -0.350938,-0.07713 -0.158114,-0.07713 -0.254526,-0.208249 -0.09641,-0.13112 -0.09641,-0.296947 0,-0.266096 0.215961,-0.424211 0.215962,-0.158115 0.563044,-0.208249 l 0.574612,-0.08099 v -0.111837 q 0,-0.18511 -0.107981,-0.289234 -0.104124,-0.104125 -0.343225,-0.104125 -0.17354,0 -0.281521,0.06942 -0.104125,0.06942 -0.146546,0.177398 -0.02314,0.05785 -0.08099,0.05785 h -0.17354 q -0.04242,0 -0.06556,-0.02314 -0.01928,-0.02699 -0.01928,-0.0617 0,-0.05785 0.04242,-0.142689 0.04628,-0.08484 0.138832,-0.165827 0.09256,-0.08099 0.235244,-0.134976 0.146546,-0.05785 0.354795,-0.05785 0.231387,0 0.389502,0.0617 0.158115,0.05785 0.246814,0.158115 0.09256,0.100268 0.131119,0.227531 0.04242,0.127263 0.04242,0.258383 v 1.249493 q 0,0.03856 -0.027,0.06556 -0.02314,0.02314 -0.0617,0.02314 h -0.177397 q -0.04242,0 -0.06556,-0.02314 -0.02314,-0.027 -0.02314,-0.06556 v -0.165828 q -0.05013,0.06942 -0.134976,0.138833 -0.08484,0.06556 -0.212105,0.111837 -0.127264,0.04242 -0.312374,0.04242 z m 0.08099,-0.289234 q 0.158115,0 0.289234,-0.06556 0.13112,-0.06942 0.204393,-0.212106 0.07713,-0.142689 0.07713,-0.35865 v -0.107981 l -0.447349,0.06556 q -0.273809,0.03856 -0.412642,0.131119 -0.138832,0.0887 -0.138832,0.227531 0,0.107981 0.0617,0.181254 0.06556,0.06942 0.161972,0.104124 0.100268,0.03471 0.204392,0.03471 z" />
      <path
         id="path4680"
         style="font-style:normal;font-variant:normal;font-weight:normal;font-stretch:normal;font-size:3.85646px;font-family:Rubik;-inkscape-font-specification:'Rubik, @wght=400';font-variant-ligatures:normal;font-variant-caps:normal;font-variant-numeric:normal;font-variant-east-asian:normal;font-variation-settings:'wght' 400;stroke-width:0.0964121"
         d="m 21.622026,13.836082 q -0.03856,0 -0.06556,-0.02314 -0.02314,-0.027 -0.02314,-0.06556 v -2.56069 q 0,-0.03856 0.02314,-0.0617 0.027,-0.02699 0.06556,-0.02699 h 0.181254 q 0.04242,0 0.06556,0.02699 0.02314,0.02314 0.02314,0.0617 v 2.56069 q 0,0.03856 -0.02314,0.06556 -0.02314,0.02314 -0.06556,0.02314 z" />
      <path
         id="path4682"
         style="font-style:normal;font-variant:normal;font-weight:normal;font-stretch:normal;font-size:3.85646px;font-family:Rubik;-inkscape-font-specification:'Rubik, @wght=400';font-variant-ligatures:normal;font-variant-caps:normal;font-variant-numeric:normal;font-variant-east-asian:normal;font-variation-settings:'wght' 400;stroke-width:0.0964121"
         d="m 22.589817,13.836082 q -0.03856,0 -0.06556,-0.02314 -0.02314,-0.027 -0.02314,-0.06556 v -1.827962 q 0,-0.03857 0.02314,-0.0617 0.027,-0.02699 0.06556,-0.02699 h 0.18511 q 0.03856,0 0.0617,0.02699 0.02314,0.02314 0.02314,0.0617 v 1.827962 q 0,0.03856 -0.02314,0.06556 -0.02314,0.02314 -0.0617,0.02314 z m -0.03085,-2.379435 q -0.03856,0 -0.06556,-0.02314 -0.02314,-0.02699 -0.02314,-0.06556 v -0.208249 q 0,-0.03856 0.02314,-0.0617 0.027,-0.02699 0.06556,-0.02699 h 0.242957 q 0.03856,0 0.0617,0.02699 0.02699,0.02314 0.02699,0.0617 v 0.208249 q 0,0.03857 -0.02699,0.06556 -0.02314,0.02314 -0.0617,0.02314 z" />
      <path
         id="path4684"
         style="font-style:normal;font-variant:normal;font-weight:normal;font-stretch:normal;font-size:3.85646px;font-family:Rubik;-inkscape-font-specification:'Rubik, @wght=400';font-variant-ligatures:normal;font-variant-caps:normal;font-variant-numeric:normal;font-variant-east-asian:normal;font-variation-settings:'wght' 400;stroke-width:0.0964121"
         d="m 23.411605,13.836082 q -0.03857,0 -0.06556,-0.02314 -0.02314,-0.027 -0.02314,-0.06556 v -0.134976 q 0,-0.03471 0.01543,-0.06556 0.01928,-0.03085 0.03856,-0.05785 l 1.064383,-1.353617 h -0.994967 q -0.03856,0 -0.06556,-0.02314 -0.02314,-0.02314 -0.02314,-0.06556 v -0.127263 q 0,-0.03857 0.02314,-0.0617 0.027,-0.02699 0.06556,-0.02699 h 1.3729 q 0.03856,0 0.0617,0.02699 0.02699,0.02314 0.02699,0.0617 v 0.142689 q 0,0.03471 -0.01928,0.0617 -0.01543,0.027 -0.03471,0.05785 l -1.052814,1.349761 h 1.095235 q 0.03856,0 0.0617,0.02314 0.027,0.02314 0.027,0.06556 v 0.127263 q 0,0.03856 -0.027,0.06556 -0.02314,0.02314 -0.0617,0.02314 z" />
      <path
         id="path4686"
         style="font-style:normal;font-variant:normal;font-weight:normal;font-stretch:normal;font-size:3.85646px;font-family:Rubik;-inkscape-font-specification:'Rubik, @wght=400';font-variant-ligatures:normal;font-variant-caps:normal;font-variant-numeric:normal;font-variant-east-asian:normal;font-variation-settings:'wght' 400;stroke-width:0.0964121"
         d="m 25.975247,13.874647 q -0.192823,0 -0.350938,-0.07713 -0.158115,-0.07713 -0.254526,-0.208249 -0.09641,-0.13112 -0.09641,-0.296947 0,-0.266096 0.215962,-0.424211 0.215962,-0.158115 0.563043,-0.208249 l 0.574613,-0.08099 v -0.111837 q 0,-0.18511 -0.107981,-0.289234 -0.104125,-0.104125 -0.343225,-0.104125 -0.173541,0 -0.281522,0.06942 -0.104124,0.06942 -0.146545,0.177398 -0.02314,0.05785 -0.08099,0.05785 h -0.173541 q -0.04242,0 -0.06556,-0.02314 -0.01928,-0.02699 -0.01928,-0.0617 0,-0.05785 0.04242,-0.142689 0.04628,-0.08484 0.138833,-0.165827 0.09256,-0.08099 0.235244,-0.134976 0.146545,-0.05785 0.354794,-0.05785 0.231388,0 0.389503,0.0617 0.158115,0.05785 0.246813,0.158115 0.09256,0.100268 0.13112,0.227531 0.04242,0.127263 0.04242,0.258383 v 1.249493 q 0,0.03856 -0.02699,0.06556 -0.02314,0.02314 -0.0617,0.02314 H 26.7234 q -0.04242,0 -0.06556,-0.02314 -0.02314,-0.027 -0.02314,-0.06556 v -0.165828 q -0.05013,0.06942 -0.134977,0.138833 -0.08484,0.06556 -0.212105,0.111837 -0.127263,0.04242 -0.312373,0.04242 z m 0.08099,-0.289234 q 0.158114,0 0.289234,-0.06556 0.13112,-0.06942 0.204392,-0.212106 0.07713,-0.142689 0.07713,-0.35865 v -0.107981 l -0.44735,0.06556 q -0.273808,0.03856 -0.412641,0.131119 -0.138833,0.0887 -0.138833,0.227531 0,0.107981 0.0617,0.181254 0.06556,0.06942 0.161971,0.104124 0.100268,0.03471 0.204393,0.03471 z" />
      <path
         id="path4688"
         style="font-style:normal;font-variant:normal;font-weight:normal;font-stretch:normal;font-size:3.85646px;font-family:Rubik;-inkscape-font-specification:'Rubik, @wght=400';font-variant-ligatures:normal;font-variant-caps:normal;font-variant-numeric:normal;font-variant-east-asian:normal;font-variation-settings:'wght' 400;stroke-width:0.0964121"
         d="m 28.315455,13.836082 q -0.215962,0 -0.350938,-0.08099 -0.134976,-0.08484 -0.196679,-0.235244 -0.0617,-0.154259 -0.0617,-0.362508 V 12.13924 H 27.40533 q -0.03856,0 -0.06556,-0.02314 -0.02314,-0.027 -0.02314,-0.06556 v -0.131119 q 0,-0.03857 0.02314,-0.0617 0.027,-0.02699 0.06556,-0.02699 h 0.300804 v -0.644029 q 0,-0.03856 0.02314,-0.0617 0.02699,-0.02699 0.06556,-0.02699 h 0.181253 q 0.03857,0 0.0617,0.02699 0.02699,0.02314 0.02699,0.0617 v 0.644029 h 0.478201 q 0.03857,0 0.0617,0.02699 0.027,0.02314 0.027,0.0617 v 0.131119 q 0,0.03856 -0.027,0.06556 -0.02314,0.02314 -0.0617,0.02314 h -0.478201 v 0.99111 q 0,0.181254 0.0617,0.285378 0.0617,0.104125 0.219819,0.104125 h 0.235244 q 0.03856,0 0.0617,0.027 0.02699,0.02314 0.02699,0.0617 v 0.138833 q 0,0.03856 -0.02699,0.06556 -0.02314,0.02314 -0.0617,0.02314 z" />
      <path
         id="path4690"
         style="font-style:normal;font-variant:normal;font-weight:normal;font-stretch:normal;font-size:3.85646px;font-family:Rubik;-inkscape-font-specification:'Rubik, @wght=400';font-variant-ligatures:normal;font-variant-caps:normal;font-variant-numeric:normal;font-variant-east-asian:normal;font-variation-settings:'wght' 400;stroke-width:0.0964121"
         d="m 29.127722,13.836082 q -0.03856,0 -0.06556,-0.02314 -0.02314,-0.027 -0.02314,-0.06556 v -1.827962 q 0,-0.03857 0.02314,-0.0617 0.02699,-0.02699 0.06556,-0.02699 h 0.18511 q 0.03856,0 0.0617,0.02699 0.02314,0.02314 0.02314,0.0617 v 1.827962 q 0,0.03856 -0.02314,0.06556 -0.02314,0.02314 -0.0617,0.02314 z m -0.03085,-2.379435 q -0.03856,0 -0.06556,-0.02314 -0.02314,-0.02699 -0.02314,-0.06556 v -0.208249 q 0,-0.03856 0.02314,-0.0617 0.02699,-0.02699 0.06556,-0.02699 h 0.242957 q 0.03857,0 0.0617,0.02699 0.027,0.02314 0.027,0.0617 v 0.208249 q 0,0.03857 -0.027,0.06556 -0.02314,0.02314 -0.0617,0.02314 z" />
      <path
         id="path4692"
         style="font-style:normal;font-variant:normal;font-weight:normal;font-stretch:normal;font-size:3.85646px;font-family:Rubik;-inkscape-font-specification:'Rubik, @wght=400';font-variant-ligatures:normal;font-variant-caps:normal;font-variant-numeric:normal;font-variant-east-asian:normal;font-variation-settings:'wght' 400;stroke-width:0.0964121"
         d="m 30.801968,13.874647 q -0.293091,0 -0.489771,-0.111837 -0.196679,-0.111838 -0.300803,-0.308517 -0.104125,-0.200536 -0.115694,-0.455062 -0.0039,-0.06556 -0.0039,-0.165828 0,-0.104125 0.0039,-0.165828 0.01157,-0.258383 0.115694,-0.455062 0.10798,-0.19668 0.30466,-0.308517 0.196679,-0.111837 0.485914,-0.111837 0.289234,0 0.485914,0.111837 0.196679,0.111837 0.300804,0.308517 0.107981,0.196679 0.11955,0.455062 0.0039,0.0617 0.0039,0.165828 0,0.100268 -0.0039,0.165828 -0.01157,0.254526 -0.115694,0.455062 -0.104124,0.196679 -0.300804,0.308517 -0.196679,0.111837 -0.48977,0.111837 z m 0,-0.296947 q 0.2391,0 0.381789,-0.150402 0.142689,-0.154259 0.154259,-0.44735 0.0039,-0.05785 0.0039,-0.146545 0,-0.0887 -0.0039,-0.146546 -0.01157,-0.293091 -0.154259,-0.443493 -0.142689,-0.154258 -0.381789,-0.154258 -0.239101,0 -0.385646,0.154258 -0.142689,0.150402 -0.150402,0.443493 -0.0039,0.05785 -0.0039,0.146546 0,0.0887 0.0039,0.146545 0.0077,0.293091 0.150402,0.44735 0.146545,0.150402 0.385646,0.150402 z" />
      <path
         id="path4694"
         style="font-style:normal;font-variant:normal;font-weight:normal;font-stretch:normal;font-size:3.85646px;font-family:Rubik;-inkscape-font-specification:'Rubik, @wght=400';font-variant-ligatures:normal;font-variant-caps:normal;font-variant-numeric:normal;font-variant-east-asian:normal;font-variation-settings:'wght' 400;stroke-width:0.0964121"
         d="m 32.283693,13.836082 q -0.03856,0 -0.06556,-0.02314 -0.02314,-0.027 -0.02314,-0.06556 v -1.827962 q 0,-0.03857 0.02314,-0.0617 0.027,-0.02699 0.06556,-0.02699 h 0.181254 q 0.03856,0 0.0617,0.02699 0.027,0.02314 0.027,0.0617 v 0.169684 q 0.100268,-0.13112 0.25067,-0.212105 0.154259,-0.08484 0.393359,-0.08484 0.25067,0 0.424211,0.111837 0.177397,0.107981 0.266096,0.30466 0.0887,0.192823 0.0887,0.451206 v 1.087522 q 0,0.03856 -0.02314,0.06556 -0.02314,0.02314 -0.0617,0.02314 h -0.192823 q -0.03856,0 -0.06556,-0.02314 -0.02314,-0.027 -0.02314,-0.06556 v -1.06824 q 0,-0.269952 -0.131119,-0.420354 -0.13112,-0.154258 -0.385646,-0.154258 -0.239101,0 -0.385646,0.154258 -0.142689,0.150402 -0.142689,0.420354 v 1.06824 q 0,0.03856 -0.02699,0.06556 -0.02314,0.02314 -0.0617,0.02314 z" />
      <path
         id="path4696"
         style="font-style:normal;font-variant:normal;font-weight:normal;font-stretch:normal;font-size:3.85646px;font-family:Rubik;-inkscape-font-specification:'Rubik, @wght=400';font-variant-ligatures:normal;font-variant-caps:normal;font-variant-numeric:normal;font-variant-east-asian:normal;font-variation-settings:'wght' 400;stroke-width:0.0964121"
         d="m 35.610313,13.836082 q -0.03856,0 -0.06556,-0.02314 -0.02314,-0.027 -0.02314,-0.06556 v -2.518269 q 0,-0.04242 0.02314,-0.06556 0.02699,-0.027 0.06556,-0.027 h 0.192823 q 0.04628,0 0.06942,0.02314 0.02314,0.02314 0.02699,0.03857 l 0.81757,1.55801 0.821426,-1.55801 q 0.0077,-0.01543 0.02699,-0.03857 0.02314,-0.02314 0.06942,-0.02314 h 0.188967 q 0.04242,0 0.06556,0.027 0.02699,0.02314 0.02699,0.06556 v 2.518269 q 0,0.03856 -0.02699,0.06556 -0.02314,0.02314 -0.06556,0.02314 h -0.188967 q -0.03856,0 -0.06556,-0.02314 -0.02314,-0.027 -0.02314,-0.06556 v -1.897378 l -0.644029,1.257206 q -0.01543,0.03856 -0.04628,0.0617 -0.03085,0.01928 -0.07713,0.01928 h -0.11955 q -0.05013,0 -0.08099,-0.01928 -0.02699,-0.02314 -0.04628,-0.0617 l -0.644029,-1.257206 v 1.897378 q 0,0.03856 -0.02699,0.06556 -0.02314,0.02314 -0.0617,0.02314 z" />
      <path
         id="path4698"
         style="font-style:normal;font-variant:normal;font-weight:normal;font-stretch:normal;font-size:3.85646px;font-family:Rubik;-inkscape-font-specification:'Rubik, @wght=400';font-variant-ligatures:normal;font-variant-caps:normal;font-variant-numeric:normal;font-variant-east-asian:normal;font-variation-settings:'wght' 400;stroke-width:0.0964121"
         d="m 39.096249,13.874647 q -0.192823,0 -0.350938,-0.07713 -0.158115,-0.07713 -0.254526,-0.208249 -0.09641,-0.13112 -0.09641,-0.296947 0,-0.266096 0.215962,-0.424211 0.215962,-0.158115 0.563043,-0.208249 l 0.574613,-0.08099 v -0.111837 q 0,-0.18511 -0.107981,-0.289234 -0.104124,-0.104125 -0.343225,-0.104125 -0.173541,0 -0.281522,0.06942 -0.104124,0.06942 -0.146545,0.177398 -0.02314,0.05785 -0.08099,0.05785 h -0.17354 q -0.04242,0 -0.06556,-0.02314 -0.01928,-0.02699 -0.01928,-0.0617 0,-0.05785 0.04242,-0.142689 0.04628,-0.08484 0.138833,-0.165827 0.09256,-0.08099 0.235244,-0.134976 0.146546,-0.05785 0.354794,-0.05785 0.231388,0 0.389503,0.0617 0.158115,0.05785 0.246813,0.158115 0.09255,0.100268 0.13112,0.227531 0.04242,0.127263 0.04242,0.258383 v 1.249493 q 0,0.03856 -0.02699,0.06556 -0.02314,0.02314 -0.0617,0.02314 h -0.177397 q -0.04242,0 -0.06556,-0.02314 -0.02314,-0.027 -0.02314,-0.06556 v -0.165828 q -0.05013,0.06942 -0.134976,0.138833 -0.08484,0.06556 -0.212106,0.111837 -0.127263,0.04242 -0.312373,0.04242 z m 0.08099,-0.289234 q 0.158115,0 0.289234,-0.06556 0.13112,-0.06942 0.204393,-0.212106 0.07713,-0.142689 0.07713,-0.35865 v -0.107981 l -0.44735,0.06556 q -0.273808,0.03856 -0.412641,0.131119 -0.138832,0.0887 -0.138832,0.227531 0,0.107981 0.0617,0.181254 0.06556,0.06942 0.161971,0.104124 0.100268,0.03471 0.204393,0.03471 z" />
      <path
         id="path4700"
         style="font-style:normal;font-variant:normal;font-weight:normal;font-stretch:normal;font-size:3.85646px;font-family:Rubik;-inkscape-font-specification:'Rubik, @wght=400';font-variant-ligatures:normal;font-variant-caps:normal;font-variant-numeric:normal;font-variant-east-asian:normal;font-variation-settings:'wght' 400;stroke-width:0.0964121"
         d="m 40.75736,13.836082 q -0.03856,0 -0.06556,-0.02314 -0.02314,-0.027 -0.02314,-0.06556 v -1.827962 q 0,-0.03857 0.02314,-0.0617 0.02699,-0.02699 0.06556,-0.02699 h 0.181254 q 0.03856,0 0.0617,0.02699 0.027,0.02314 0.027,0.0617 v 0.169684 q 0.100268,-0.13112 0.250669,-0.212105 0.154259,-0.08484 0.393359,-0.08484 0.25067,0 0.424211,0.111837 0.177397,0.107981 0.266096,0.30466 0.0887,0.192823 0.0887,0.451206 v 1.087522 q 0,0.03856 -0.02314,0.06556 -0.02314,0.02314 -0.0617,0.02314 h -0.192823 q -0.03856,0 -0.06556,-0.02314 -0.02314,-0.027 -0.02314,-0.06556 v -1.06824 q 0,-0.269952 -0.13112,-0.420354 -0.13112,-0.154258 -0.385646,-0.154258 -0.239101,0 -0.385646,0.154258 -0.142689,0.150402 -0.142689,0.420354 v 1.06824 q 0,0.03856 -0.02699,0.06556 -0.02314,0.02314 -0.0617,0.02314 z" />
      <path
         id="path4702"
         style="font-style:normal;font-variant:normal;font-weight:normal;font-stretch:normal;font-size:3.85646px;font-family:Rubik;-inkscape-font-specification:'Rubik, @wght=400';font-variant-ligatures:normal;font-variant-caps:normal;font-variant-numeric:normal;font-variant-east-asian:normal;font-variation-settings:'wght' 400;stroke-width:0.0964121"
         d="m 43.562813,13.874647 q -0.192823,0 -0.350938,-0.07713 -0.158114,-0.07713 -0.254526,-0.208249 -0.09641,-0.13112 -0.09641,-0.296947 0,-0.266096 0.215961,-0.424211 0.215962,-0.158115 0.563043,-0.208249 l 0.574613,-0.08099 v -0.111837 q 0,-0.18511 -0.107981,-0.289234 -0.104124,-0.104125 -0.343225,-0.104125 -0.173541,0 -0.281521,0.06942 -0.104125,0.06942 -0.146546,0.177398 -0.02314,0.05785 -0.08099,0.05785 h -0.17354 q -0.04242,0 -0.06556,-0.02314 -0.01928,-0.02699 -0.01928,-0.0617 0,-0.05785 0.04242,-0.142689 0.04628,-0.08484 0.138832,-0.165827 0.09256,-0.08099 0.235244,-0.134976 0.146546,-0.05785 0.354795,-0.05785 0.231387,0 0.389502,0.0617 0.158115,0.05785 0.246814,0.158115 0.09255,0.100268 0.131119,0.227531 0.04242,0.127263 0.04242,0.258383 v 1.249493 q 0,0.03856 -0.02699,0.06556 -0.02314,0.02314 -0.0617,0.02314 h -0.177397 q -0.04242,0 -0.06556,-0.02314 -0.02314,-0.027 -0.02314,-0.06556 v -0.165828 q -0.05013,0.06942 -0.134976,0.138833 -0.08484,0.06556 -0.212105,0.111837 -0.127264,0.04242 -0.312374,0.04242 z m 0.08099,-0.289234 q 0.158115,0 0.289234,-0.06556 0.13112,-0.06942 0.204393,-0.212106 0.07713,-0.142689 0.07713,-0.35865 v -0.107981 l -0.447349,0.06556 q -0.273809,0.03856 -0.412642,0.131119 -0.138832,0.0887 -0.138832,0.227531 0,0.107981 0.0617,0.181254 0.06556,0.06942 0.161972,0.104124 0.100267,0.03471 0.204392,0.03471 z" />
      <path
         id="path4704"
         style="font-style:normal;font-variant:normal;font-weight:normal;font-stretch:normal;font-size:3.85646px;font-family:Rubik;-inkscape-font-specification:'Rubik, @wght=400';font-variant-ligatures:normal;font-variant-caps:normal;font-variant-numeric:normal;font-variant-east-asian:normal;font-variation-settings:'wght' 400;stroke-width:0.0964121"
         d="m 45.956652,14.684504 q -0.262239,0 -0.431924,-0.06942 -0.165827,-0.06942 -0.262239,-0.169684 -0.09256,-0.09641 -0.134976,-0.196679 -0.03856,-0.09641 -0.04242,-0.154259 -0.0039,-0.03856 0.02314,-0.06556 0.03085,-0.02699 0.06556,-0.02699 h 0.18511 q 0.03471,0 0.05785,0.01543 0.02314,0.01543 0.03856,0.06556 0.02314,0.05785 0.06942,0.127263 0.04628,0.07327 0.142689,0.123407 0.09641,0.05399 0.269953,0.05399 0.181253,0 0.30466,-0.05013 0.123407,-0.04628 0.18511,-0.169684 0.06556,-0.11955 0.06556,-0.331656 v -0.262239 q -0.09255,0.11955 -0.242957,0.200536 -0.150402,0.07713 -0.377933,0.07713 -0.215962,0 -0.37022,-0.07327 -0.154259,-0.07713 -0.254527,-0.204393 -0.09641,-0.131119 -0.146545,-0.296947 -0.04628,-0.165828 -0.05399,-0.347082 -0.0039,-0.107981 0,-0.212105 0.0077,-0.181254 0.05399,-0.347081 0.05013,-0.165828 0.146545,-0.296948 0.100268,-0.131119 0.254527,-0.204392 0.154258,-0.07713 0.37022,-0.07713 0.231387,0 0.381789,0.0887 0.154259,0.08484 0.25067,0.208249 v -0.165828 q 0,-0.03856 0.02314,-0.06556 0.02699,-0.02699 0.06556,-0.02699 h 0.177397 q 0.03856,0 0.06556,0.02699 0.02699,0.027 0.02699,0.06556 v 1.870383 q 0,0.258383 -0.0887,0.458919 -0.08484,0.200536 -0.285378,0.31623 -0.196679,0.115694 -0.532191,0.115694 z m -0.0077,-1.141513 q 0.192823,0 0.308517,-0.0887 0.11955,-0.0887 0.173541,-0.223675 0.05785,-0.134976 0.0617,-0.273808 0.0039,-0.05399 0.0039,-0.13112 0,-0.08099 -0.0039,-0.134976 -0.0039,-0.138833 -0.0617,-0.273809 -0.05399,-0.134976 -0.173541,-0.223675 -0.115694,-0.0887 -0.308517,-0.0887 -0.192823,0 -0.308517,0.0887 -0.115694,0.08484 -0.165828,0.227532 -0.05013,0.138832 -0.05785,0.300803 -0.0039,0.100268 0,0.204393 0.0077,0.161971 0.05785,0.30466 0.05013,0.138833 0.165828,0.227531 0.115694,0.08484 0.308517,0.08484 z" />
      <path
         id="path4706"
         style="font-style:normal;font-variant:normal;font-weight:normal;font-stretch:normal;font-size:3.85646px;font-family:Rubik;-inkscape-font-specification:'Rubik, @wght=400';font-variant-ligatures:normal;font-variant-caps:normal;font-variant-numeric:normal;font-variant-east-asian:normal;font-variation-settings:'wght' 400;stroke-width:0.0964121"
         d="m 48.238349,13.874647 q -0.397215,0 -0.632459,-0.242957 -0.235244,-0.246813 -0.258383,-0.671024 -0.0039,-0.05013 -0.0039,-0.127263 0,-0.08099 0.0039,-0.13112 0.01543,-0.273808 0.127263,-0.478201 0.111838,-0.208249 0.304661,-0.320086 0.196679,-0.111837 0.458918,-0.111837 0.293091,0 0.489771,0.123406 0.200536,0.123407 0.30466,0.350938 0.104125,0.227531 0.104125,0.532192 v 0.06556 q 0,0.04242 -0.027,0.06556 -0.02314,0.02314 -0.0617,0.02314 h -1.334335 q 0,0.0039 0,0.01543 0,0.01157 0,0.01928 0.0077,0.158115 0.06942,0.296948 0.0617,0.134976 0.177397,0.219818 0.115694,0.08484 0.277665,0.08484 0.138833,0 0.231388,-0.04242 0.09255,-0.04242 0.150402,-0.09256 0.05785,-0.05399 0.07713,-0.08099 0.03471,-0.05013 0.05399,-0.05785 0.01928,-0.01157 0.0617,-0.01157 h 0.18511 q 0.03856,0 0.0617,0.02314 0.027,0.01928 0.02314,0.05785 -0.0039,0.05785 -0.0617,0.142689 -0.05785,0.08099 -0.165828,0.161971 -0.107981,0.08099 -0.262239,0.134976 -0.154259,0.05013 -0.354795,0.05013 z m -0.524478,-1.18779 h 1.05667 v -0.01157 q 0,-0.173541 -0.06556,-0.308517 -0.0617,-0.134976 -0.181253,-0.212105 -0.119551,-0.08099 -0.285379,-0.08099 -0.165827,0 -0.285378,0.08099 -0.115693,0.07713 -0.177397,0.212105 -0.0617,0.134976 -0.0617,0.308517 z" />
      <path
         id="path4708"
         style="font-style:normal;font-variant:normal;font-weight:normal;font-stretch:normal;font-size:3.85646px;font-family:Rubik;-inkscape-font-specification:'Rubik, @wght=400';font-variant-ligatures:normal;font-variant-caps:normal;font-variant-numeric:normal;font-variant-east-asian:normal;font-variation-settings:'wght' 400;stroke-width:0.0964121"
         d="m 49.690489,13.836082 q -0.03856,0 -0.06556,-0.02314 -0.02314,-0.027 -0.02314,-0.06556 v -1.824106 q 0,-0.03856 0.02314,-0.06556 0.02699,-0.02699 0.06556,-0.02699 h 0.177397 q 0.03856,0 0.06556,0.02699 0.02699,0.027 0.02699,0.06556 v 0.169684 q 0.07713,-0.131119 0.212105,-0.196679 0.134976,-0.06556 0.323943,-0.06556 h 0.154258 q 0.03856,0 0.0617,0.02699 0.02314,0.02314 0.02314,0.0617 v 0.158115 q 0,0.03856 -0.02314,0.0617 -0.02314,0.02314 -0.0617,0.02314 H 50.41936 q -0.208249,0 -0.327799,0.123407 -0.119551,0.11955 -0.119551,0.327799 v 1.133799 q 0,0.03856 -0.02699,0.06556 -0.02699,0.02314 -0.06556,0.02314 z" />
    </g>
  </g>
</svg>
