<?xml version="1.0" encoding="UTF-8" standalone="no"?>
<!-- Generator: visioncortex VTracer 0.6.3 -->

<svg
   version="1.1"
   width="1280"
   height="300"
   id="svg15"
   sodipodi:docname="square-side-text-white.svg"
   inkscape:version="1.3.2 (091e20e, 2023-11-25)"
   xmlns:inkscape="http://www.inkscape.org/namespaces/inkscape"
   xmlns:sodipodi="http://sodipodi.sourceforge.net/DTD/sodipodi-0.dtd"
   xmlns="http://www.w3.org/2000/svg"
   xmlns:svg="http://www.w3.org/2000/svg">
  <sodipodi:namedview
     id="namedview1"
     pagecolor="#ffffff"
     bordercolor="#000000"
     borderopacity="0.25"
     inkscape:showpageshadow="2"
     inkscape:pageopacity="0.0"
     inkscape:pagecheckerboard="0"
     inkscape:deskcolor="#d1d1d1"
     inkscape:zoom="0.19360131"
     inkscape:cx="782.53603"
     inkscape:cy="557.84746"
     inkscape:window-width="1312"
     inkscape:window-height="449"
     inkscape:window-x="0"
     inkscape:window-y="25"
     inkscape:window-maximized="0"
     inkscape:current-layer="svg15" />
  <defs
     id="defs15" />
  <path
     d="m 248.76868,73.95402 c 0,0.207875 0,0.415729 0,0.629908 0.46928,-0.157479 0.46928,-0.157479 0.94485,-0.314959 1.99679,0.214168 3.8109,0.850359 5.66911,1.574745 0.52281,0.119661 1.04563,0.233068 1.57475,0.31496 0,0.207864 0,0.41573 0,0.629899 0.22361,0.03468 0.44409,0.06926 0.67399,0.107116 0.9858,0.226763 1.81411,0.582654 2.73062,1.014142 0.46297,0.21731 0.46297,0.21731 0.93225,0.43463 0.23306,0.110193 0.46297,0.220461 0.70234,0.333859 0,0.207855 0,0.415729 0,0.629887 0.337,0.11965 0.337,0.11965 0.6803,0.239372 0.98894,0.431478 1.76056,0.966899 2.62668,1.612534 0.28975,0.211017 0.57951,0.425195 0.87557,0.645658 2.53219,1.927493 2.53219,1.927493 3.37625,3.171541 -1.02988,2.258192 -2.98258,3.968366 -4.75889,5.653358 -0.63935,0.658243 -0.63935,0.658243 -1.19682,1.56216 -0.69289,1.023578 -1.44248,1.807803 -2.33062,2.667617 -1.20941,1.177917 -2.35268,2.387327 -3.44556,3.672316 -0.63304,0.711802 -1.30704,1.37004 -1.98734,2.034597 -0.86611,0.85036 -1.63774,1.69126 -2.34322,2.67705 -0.90706,1.26296 -1.96529,2.31176 -3.07706,3.39517 -0.83148,0.82834 -1.59365,1.70703 -2.35583,2.60149 -0.5858,0.65511 -1.19997,1.2661 -1.82986,1.87711 -0.79367,0.78108 -1.48342,1.5527 -2.12592,2.45977 -1.04563,1.45506 -2.32117,2.64558 -3.59988,3.89278 -1.06453,1.08973 -1.98734,2.25505 -2.89755,3.47389 -0.16376,0.18583 -0.32438,0.37481 -0.49132,0.56692 -0.20786,0 -0.41573,0 -0.62989,0 -0.10394,0.3118 -0.20786,0.62361 -0.31496,0.94485 -0.20786,0 -0.41573,0 -0.62989,0 -0.0788,0.17951 -0.15748,0.35589 -0.23622,0.53857 -0.45981,0.8409 -1.00468,1.45506 -1.65348,2.15741 -0.24881,0.27401 -0.50078,0.54801 -0.75903,0.82831 -0.2677,0.2929 -0.53856,0.58582 -0.81573,0.88501 -0.43777,0.47557 -0.87241,0.95115 -1.3102,1.42671 -0.40627,0.44409 -0.81255,0.88818 -1.21884,1.3291 -0.62676,0.65511 -0.62676,0.65511 -0.9354,1.33855 -0.20787,0 -0.41575,0 -0.6299,0 -0.12599,0.2803 -0.12599,0.2803 -0.25197,0.5669 -0.39053,0.7181 -0.78737,1.15587 -1.38263,1.71648 -0.80312,0.77792 -1.55586,1.57161 -2.28338,2.42196 -0.78109,0.91022 -1.59995,1.76058 -2.45976,2.59835 -0.88816,0.86925 -1.51176,1.69128 -2.12593,2.77471 -0.51021,0.53857 -1.03932,1.06137 -1.57473,1.57475 -1.34484,1.3102 -2.61095,2.65818 -3.83612,4.08176 -0.5984,0.67084 -1.22828,1.29443 -1.87079,1.92119 -0.80627,0.79052 -1.48972,1.5716 -2.12906,2.50069 -0.22047,0.31182 -0.44094,0.62361 -0.6677,0.94487 -0.20786,0 -0.41574,0 -0.6299,0 0.56692,1.66607 1.14956,2.4566 2.51645,3.53374 1.03934,0.91965 1.84246,2.02828 2.70542,3.11485 1.0299,1.23145 2.15742,2.32434 3.32274,3.42981 0.58896,0.6299 0.58896,0.6299 0.58896,1.2598 0.20784,0 0.41572,0 0.62989,0 0.36535,0.44094 0.36535,0.44094 0.78736,1.06454 1.02674,1.42042 2.22356,2.60464 3.47707,3.82978 0.885,0.88502 1.70388,1.81097 2.51643,2.76212 0.3874,0.44723 0.80628,0.8661 1.23146,1.28184 0.49134,0.51023 0.49134,0.51023 0.49134,1.14013 0.3118,0.10394 0.6236,0.20786 0.94485,0.31494 0.21731,0.64881 0.21731,0.64881 0.31493,1.2598 0.20788,0 0.41575,0 0.62992,0 0.45352,0.45353 0.45352,0.45353 0.97947,1.08659 1.23148,1.44562 2.51962,2.82825 3.82351,4.20773 0.22362,0.23622 0.44409,0.47243 0.67399,0.71494 1.13067,1.2094 1.13067,1.2094 2.30858,2.37156 0.40314,0.43779 0.40314,0.43779 0.40314,1.0677 0.20787,0 0.41573,0 0.62992,0 0.29918,0.44722 0.5984,0.89759 0.88815,1.35429 0.62676,0.90075 1.41413,1.62828 2.2015,2.38732 1.2976,1.26609 2.53849,2.55424 3.71327,3.93687 0.47871,0.56692 0.47871,0.56692 1.20941,1.25981 0.49131,0.5102 0.49131,0.5102 0.49131,1.14011 0.31181,0.10393 0.62361,0.20787 0.94484,0.31495 0.29922,0.44407 0.59527,0.8913 0.87873,1.34483 0.71493,1.02045 1.63458,1.84877 2.52589,2.71174 4.28648,4.21402 4.28648,4.21402 4.7841,5.70689 0.31179,0.10393 0.6236,0.20786 0.94485,0.31495 0,0.20785 0,0.41572 0,0.62989 0.20788,0 0.41573,0 0.6299,0 0.35273,0.42833 0.35273,0.42833 0.76847,1.04249 0.97636,1.35114 2.09757,2.49126 3.28809,3.65342 1.07398,1.05194 2.07866,2.14166 3.04871,3.28493 0.45039,0.53541 0.45039,0.53541 0.98579,1.02358 0.41258,0.44409 0.41258,0.44409 0.41258,1.074 0.31181,0.10393 0.62362,0.20785 0.94486,0.31494 0.54172,0.6173 0.54172,0.6173 1.10233,1.37948 0.75902,1.03619 0.75902,1.03619 1.66294,1.9401 0.38423,0.45982 0.38423,0.45982 0.39053,1.04564 -0.47872,1.00153 -1.19366,1.59048 -2.01568,2.32746 -0.15431,0.14489 -0.31179,0.28977 -0.47241,0.43779 -1.17478,1.05824 -1.17478,1.05824 -2.24245,1.05824 -0.0755,0.19212 -0.15117,0.38109 -0.22992,0.57951 -0.48819,0.82832 -0.90391,1.06138 -1.75427,1.50545 -0.274,0.14489 -0.54802,0.28976 -0.82832,0.43778 -0.29291,0.14804 -0.58582,0.29607 -0.88817,0.45039 -0.29919,0.15118 -0.5984,0.30549 -0.90705,0.46297 -3.36367,1.69758 -6.56986,2.91959 -10.33666,3.37942 -0.79998,0.0693 -0.79998,0.0693 -1.43302,0.42834 -0.76848,0.0348 -1.52437,0.0504 -2.29283,0.0536 -0.22993,0 -0.45984,0 -0.69606,0.003 -0.48502,0 -0.97318,0.003 -1.46135,0.003 -0.73384,0 -1.47083,0.006 -2.20466,0.009 -2.46291,0.009 -4.80929,-0.0598 -7.20291,-0.69919 -0.53227,-0.12285 -0.53227,-0.12285 -1.07397,-0.24881 -4.55733,-1.23146 -8.79659,-3.04242 -12.46888,-6.0502 -0.42205,-0.33385 -0.42205,-0.33385 -0.85353,-0.674 -0.77161,-0.61099 -1.53381,-1.22514 -2.29597,-1.84559 -0.39685,-0.29921 -0.39685,-0.29921 -0.79998,-0.60786 -0.80314,-0.67714 -1.39838,-1.37319 -2.03459,-2.2078 -0.88814,-1.13381 -1.78577,-2.17316 -2.83453,-3.1684 -1.3354,-1.2976 -2.60151,-2.63297 -3.81721,-4.04081 -0.66141,-0.76218 -1.33224,-1.51177 -2.00939,-2.2582 -0.86296,-0.95744 -1.71646,-1.91803 -2.55739,-2.89438 -0.71493,-0.81888 -1.45192,-1.59995 -2.22671,-2.36212 -0.83775,-0.82518 -1.61568,-1.65665 -2.30227,-2.61724 0,-0.20788 0,-0.41574 0,-0.6299 -0.31181,-0.10394 -0.6236,-0.20788 -0.94485,-0.31495 0,-0.20788 0,-0.41575 0,-0.62991 -0.27086,-0.10712 -0.27086,-0.10712 -0.54801,-0.21416 -0.91335,-0.53228 -1.38578,-1.17477 -2.03143,-2.00939 -1.18422,-1.496 -2.44402,-2.83454 -3.8298,-4.14474 -0.51967,-0.5606 -0.51967,-0.5606 -0.51967,-1.19051 -0.20786,0 -0.41574,0 -0.62989,0 -0.085,-0.25196 -0.17008,-0.50707 -0.25511,-0.76848 -0.12285,-0.26456 -0.24882,-0.53228 -0.37481,-0.80627 -0.31179,-0.10393 -0.62359,-0.20787 -0.94485,-0.31495 0,-0.20787 0,-0.41574 0,-0.62991 -0.18581,-0.0819 -0.37477,-0.16376 -0.5669,-0.24565 -0.75273,-0.4189 -1.14957,-0.82516 -1.69758,-1.48657 -0.85666,-1.01414 -1.72593,-2.00937 -2.61722,-2.99203 -1.41729,-1.56844 -2.80937,-3.1558 -4.19201,-4.75574 -0.77477,-0.89131 -1.5464,-1.77003 -2.38417,-2.60779 -1.2724,-1.27239 -2.45976,-2.62983 -3.65971,-3.97467 -0.22047,-0.24566 -0.43778,-0.49133 -0.66455,-0.74643 -1.64089,-1.84246 -1.64089,-1.84246 -2.41253,-2.73692 -1.13066,-1.3102 -2.30859,-2.54165 -3.54318,-3.75736 -0.81258,-0.82517 -1.56845,-1.69758 -2.32119,-2.57943 -0.45982,-0.51653 -0.93225,-0.9984 -1.43301,-1.48027 -0.64881,-0.66769 -0.64881,-0.66769 -0.64881,-1.2976 -0.20786,0 -0.41572,0 -0.62989,0 -0.15749,-0.6236 -0.15749,-0.6236 -0.31495,-1.25979 -0.20788,0 -0.41573,0 -0.62991,0 -0.48818,-0.49448 -0.48818,-0.49448 -1.04248,-1.16218 -0.62675,-0.73698 -1.24405,-1.43931 -1.93064,-2.12591 -0.73068,-0.73068 -1.44249,-1.46767 -2.14481,-2.22355 -0.32441,-0.34645 -0.32441,-0.34645 -0.65511,-0.6992 -0.61099,-0.83146 -0.86925,-1.25348 -0.84092,-2.29283 0.54173,-0.68345 1.03306,-1.21256 1.6724,-1.79207 0.16063,-0.15116 0.32439,-0.3055 0.49132,-0.46296 0.42833,-0.4063 0.8661,-0.80943 1.30075,-1.20942 0.63618,-0.60786 0.63618,-0.60786 1.12122,-1.2787 0.68029,-0.82201 1.38577,-1.54011 2.14796,-2.28339 0.86925,-0.85982 1.65349,-1.69757 2.36212,-2.69912 1.2661,-1.77632 2.88494,-3.24714 4.4471,-4.76204 0.6362,-0.60787 0.6362,-0.60787 1.12123,-1.27871 0.90706,-1.09602 1.90858,-2.05976 2.93532,-3.04241 0.68345,-0.68343 0.68345,-0.68343 1.10548,-1.47081 0.68029,-1.09918 1.54641,-1.9149 2.47552,-2.80935 1.32594,-1.30076 2.59834,-2.6078 3.79829,-4.02822 0.85982,-0.9669 1.79837,-1.85507 2.73061,-2.74637 0.65511,-0.65824 0.65511,-0.65824 1.07083,-1.43617 0.6803,-1.09918 1.54956,-1.91805 2.47868,-2.81252 1.33223,-1.30704 2.61408,-2.62352 3.82033,-4.0471 0.77164,-0.8787 1.6157,-1.67867 2.46292,-2.48182 0.5921,-0.5984 0.5921,-0.5984 0.9795,-1.34483 0.73066,-1.1653 1.67237,-2.04087 2.65817,-2.99202 1.38894,-1.36374 2.73377,-2.73062 3.98727,-4.21719 0.77163,-0.8724 1.61255,-1.66923 2.45347,-2.46922 0.59525,-0.601536 0.59525,-0.601536 1.00152,-1.366872 0.63935,-1.033033 1.45193,-1.82041 2.32119,-2.655022 1.26295,-1.237755 2.46607,-2.488118 3.60933,-3.839251 0.94801,-1.061376 1.98419,-2.03773 3.01093,-3.02667 0.71495,-0.711789 0.71495,-0.711789 1.14325,-1.505461 0.68976,-1.127529 1.57477,-1.984182 2.51332,-2.906989 0.26455,-0.270856 0.26455,-0.270856 0.53858,-0.548017 0.97948,-0.976344 1.90544,-1.729074 3.12113,-2.406226 0.45039,-0.346435 0.89762,-0.702335 1.33855,-1.064529 1.37004,-1.080275 2.79045,-1.902302 4.33056,-2.714862 0.47872,-0.274007 0.95746,-0.551168 1.43617,-0.825165 2.78417,-1.546413 5.751,-2.29284 8.8753,-2.809372 0.69919,-0.07558 0.69919,-0.07558 1.02675,-0.459811 4.01245,-0.456682 7.95563,-0.355901 11.96809,0 z"
     fill="#e17003"
     id="path1"
     style="stroke-width:0.31495;fill:#ffffff;fill-opacity:1" />
  <path
     d="m 60.113525,74.268969 c 0.340154,0.08496 0.683453,0.173227 1.036186,0.261401 4.021922,1.04564 7.640696,2.37159 11.246869,4.462856 0,0.207865 0,0.415732 0,0.629899 0.233068,0.03468 0.466136,0.06609 0.708638,0.100769 4.119553,1.017274 8.676873,6.887952 11.350808,9.999665 0.519668,0.585806 1.05824,1.12752 1.621992,1.672386 0.806277,0.825166 0.806277,0.825166 0.806277,1.455075 0.3118,0.103932 0.623611,0.207855 0.944848,0.314939 0.217325,0.648797 0.217325,0.648797 0.314953,1.259807 0.207857,0 0.415733,0 0.629895,0 0.453524,0.453528 0.453524,0.453528 0.979496,1.086578 1.231458,1.445622 2.519612,2.82825 3.823498,4.207727 0.22362,0.236215 0.444077,0.472429 0.673991,0.714939 1.130678,1.20941 1.130678,1.20941 2.308593,2.37157 0.403133,0.43778 0.403133,0.43778 0.403133,1.06769 0.207878,0 0.415724,0 0.629896,0 0.296058,0.44408 0.592105,0.89132 0.878715,1.34484 0.670849,0.9606 1.527496,1.74169 2.368427,2.55425 1.35114,1.32278 2.66132,2.65817 3.88018,4.1038 0.43148,0.5165 0.43148,0.5165 0.96061,1.00154 0.41572,0.44408 0.41572,0.44408 0.41572,1.07398 0.31181,0.10394 0.6236,0.20786 0.94485,0.31495 0,0.20786 0,0.41572 0,0.62991 0.20788,0 0.41575,0 0.62991,0 0.2992,0.44722 0.59841,0.8976 0.88816,1.35427 0.62675,0.90077 1.41412,1.62831 2.20151,2.38733 1.29759,1.2661 2.53848,2.55425 3.71327,3.93688 0.4787,0.56691 0.4787,0.56691 1.2094,1.2598 0.4913,0.51021 0.4913,0.51021 0.4913,1.14012 0.31181,0.10394 0.6236,0.20785 0.94486,0.31494 0,0.20788 0,0.41574 0,0.62991 0.20786,0 0.41574,0 0.62989,0 0.29921,0.44722 0.59841,0.8976 0.88817,1.35428 0.62675,0.90077 1.41413,1.62829 2.2015,2.38734 1.2976,1.26608 2.5385,2.55424 3.71327,3.93686 0.47872,0.56692 0.47872,0.56692 1.2094,1.25981 0.49134,0.5102 0.49134,0.5102 0.49134,1.14011 0.20785,0 0.41572,0 0.62988,0 0.40944,0.56377 0.81888,1.13068 1.2283,1.69759 0.82834,1.02988 1.74483,1.94324 2.68967,2.8692 4.09121,4.02505 4.09121,4.02505 4.58569,5.51162 0.31181,0.10393 0.62361,0.20787 0.94485,0.31496 0,0.20785 0,0.41572 0,0.62989 0.20787,0 0.41574,0 0.62991,0 0.38739,0.46297 0.38739,0.46297 0.82518,1.10231 0.91333,1.27871 1.94953,2.28969 3.13058,3.31958 0.45353,0.61732 0.45353,0.61732 0.38738,1.37004 -0.27714,0.91335 -0.58579,1.32909 -1.24719,2.01254 -0.20156,0.21416 -0.40628,0.42517 -0.61729,0.64563 -0.21419,0.22048 -0.42834,0.43779 -0.6488,0.66454 -0.31182,0.32441 -0.31182,0.32441 -0.62991,0.65825 -0.9543,0.9921 -1.9212,1.96844 -2.91014,2.9259 -0.86297,0.77792 -0.86297,0.77792 -1.12436,1.78891 -0.20787,0 -0.41574,0 -0.62992,0 -0.0725,0.17637 -0.14801,0.35275 -0.2236,0.53543 -0.50707,0.9039 -1.13698,1.5023 -1.88342,2.22039 -1.1716,1.14642 -2.27079,2.31489 -3.33532,3.56209 -0.77476,0.87556 -1.61569,1.67868 -2.46604,2.48496 -0.63936,0.65823 -0.63936,0.65823 -1.19682,1.56215 -0.6929,1.02359 -1.44246,1.80781 -2.33063,2.66762 -1.22201,1.19051 -2.38103,2.41252 -3.4865,3.71012 -0.68659,0.78107 -1.42987,1.49286 -2.18575,2.20465 -0.57951,0.60471 -0.57951,0.60471 -1.12122,1.48656 -0.69605,1.02359 -1.44878,1.81412 -2.34008,2.67707 -1.6031,1.56531 -3.19675,3.14952 -4.48805,4.98882 -0.15117,0.18582 -0.29918,0.37164 -0.45353,0.56061 -0.20786,0 -0.41573,0 -0.62989,0 -0.10393,0.31181 -0.20787,0.62361 -0.31496,0.94486 -0.20785,0 -0.41573,0 -0.62988,0 -0.0913,0.32438 -0.0913,0.32438 -0.18583,0.65823 -0.61101,1.25982 -1.50232,2.05033 -2.51015,3.00148 -1.65034,1.60311 -3.13692,3.23139 -4.563631,5.03606 -0.711791,0.87242 -1.480268,1.65034 -2.289688,2.42827 -0.771619,0.77162 -1.470819,1.60309 -2.1826,2.42826 -0.535421,0.60156 -1.092888,1.16216 -1.672393,1.72278 -0.992086,0.9669 -1.788926,2.01252 -2.576287,3.1495 -0.129124,0.15432 -0.26142,0.3118 -0.396838,0.47243 -0.207867,0 -0.415744,0 -0.629906,0 -0.08187,0.18267 -0.163772,0.36534 -0.245657,0.55431 -0.412581,0.75904 -0.87242,1.28815 -1.47083,1.91174 -0.214152,0.22676 -0.431477,0.45038 -0.651934,0.68345 -0.337,0.35275 -0.337,0.35275 -0.683438,0.70864 -2.850307,2.97314 -2.850307,2.97314 -5.486433,6.13522 -0.677153,0.81258 -1.404687,1.43303 -2.229861,2.09443 -0.305494,0.2425 -0.611009,0.48815 -0.925948,0.74013 -0.299213,0.2362 -0.595262,0.47242 -0.903908,0.71492 -0.248815,0.20473 -0.500773,0.40629 -0.755882,0.61732 -1.555856,1.25349 -3.12745,2.26764 -4.913212,3.16209 -0.355901,0.17952 -0.708638,0.35904 -1.073993,0.54172 -2.614081,1.28814 -5.215572,2.25505 -8.059566,2.92274 -0.211017,0.0567 -0.425189,0.11339 -0.642495,0.17006 -2.368436,0.56377 -4.730558,0.55433 -7.146229,0.54172 -0.71494,-0.003 -1.426721,0 -2.138515,0.003 -2.425105,0.004 -4.724244,-0.0976 -7.080075,-0.71495 -0.525962,-0.11658 -0.525962,-0.11658 -1.061383,-0.2362 -5.536822,-1.46137 -10.793341,-4.17624 -15.038871,-8.01233 -0.179517,-0.16063 -0.359036,-0.32126 -0.544857,-0.48818 -0.881863,-0.82517 -1.461374,-1.38893 -1.621998,-2.60149 0.428334,-0.58266 0.428334,-0.58266 1.042487,-1.14011 0.302355,-0.28031 0.302355,-0.28031 0.607853,-0.56376 0.182676,-0.16693 0.365339,-0.33069 0.554316,-0.50078 0.636193,-0.60785 0.636193,-0.60785 1.121221,-1.27869 0.907048,-1.09602 1.908591,-2.05978 2.93533,-3.04242 0.68344,-0.68344 0.68344,-0.68344 1.10863,-1.47082 0.664548,-1.08342 1.505454,-1.8897 2.412514,-2.77156 0.170071,-0.16693 0.343299,-0.33384 0.519672,-0.50707 0.447229,-0.44408 0.900759,-0.88187 1.351131,-1.32279 0.636207,-0.60786 0.636207,-0.60786 1.121222,-1.27871 0.907061,-1.09602 1.908604,-2.05977 2.935345,-3.04241 0.68344,-0.6803 0.68344,-0.6803 1.096024,-1.46136 0.721228,-1.16216 1.662933,-2.03143 2.642424,-2.9763 1.388932,-1.36372 2.733774,-2.73061 3.987279,-4.21717 0.771621,-0.87242 1.61254,-1.66924 2.453459,-2.46921 0.592103,-0.60156 0.592103,-0.60156 0.98894,-1.3543 0.689742,-1.10546 1.559002,-1.92748 2.491259,-2.82509 1.332238,-1.30704 2.614083,-2.62354 3.82034,-4.04712 0.771634,-0.8787 1.615697,-1.67868 2.462919,-2.4818 0.595247,-0.60155 0.595247,-0.60155 1.001531,-1.36688 0.63935,-1.03303 1.451928,-1.8204 2.321188,-2.65503 1.275546,-1.25036 2.494402,-2.51646 3.650267,-3.88018 0.777943,-0.87871 1.625151,-1.68498 2.47551,-2.49126 0.592099,-0.60156 0.592099,-0.60156 0.988939,-1.35429 0.689739,-1.10548 1.558999,-1.9275 2.491261,-2.8251 1.332233,-1.30704 2.614081,-2.62353 3.820351,-4.04711 0.771618,-0.87871 1.615685,-1.67868 2.462905,-2.48181 0.595268,-0.60154 0.595268,-0.60154 0.995248,-1.36058 0.670849,-1.07714 1.511754,-1.8708 2.425117,-2.74006 1.496001,-1.38264 1.496001,-1.38264 2.500707,-3.13061 -1.716488,-2.19205 -3.499109,-4.16679 -5.483291,-6.11634 -2.859756,-2.84715 -2.859756,-2.84715 -3.335327,-4.27702 -0.207864,0 -0.41573,0 -0.629898,0 -0.431478,-0.49132 -0.840914,-0.99839 -1.240897,-1.5149 -1.319647,-1.65665 -2.73062,-3.11803 -4.242384,-4.60144 -0.903907,-0.90075 -1.744822,-1.8393 -2.566837,-2.80934 -0.450389,-0.53542 -0.450389,-0.53542 -0.985799,-1.0236 -0.412577,-0.44407 -0.412577,-0.44407 -0.412577,-1.07397 -0.207877,0 -0.415742,0 -0.629909,0 -1.259807,-1.40783 -1.259807,-1.40783 -1.259807,-2.20466 -0.207855,0 -0.415731,0 -0.629888,0 -0.444083,-0.44093 -0.444083,-0.44093 -0.963755,-1.06452 -1.143259,-1.34799 -2.330623,-2.64559 -3.533736,-3.94319 -0.54171,-0.66139 -0.54171,-0.66139 -0.54171,-1.29129 -0.3118,-0.10393 -0.623601,-0.20787 -0.944861,-0.31495 0,-0.20787 0,-0.41574 0,-0.6299 -0.207859,0 -0.415731,0 -0.629891,0 -0.418887,-0.47871 -0.812578,-0.97319 -1.199967,-1.47712 -1.168457,-1.46453 -2.399923,-2.78731 -3.741607,-4.09436 -1.272399,-1.24404 -2.456604,-2.4629 -3.455003,-3.94632 -0.592103,-0.78738 -1.294449,-1.44247 -1.996784,-2.13535 -0.837761,-0.87242 -1.669234,-1.75428 -2.500706,-2.63929 -0.217306,-0.22677 -0.434624,-0.45668 -0.658244,-0.69603 -3.769949,-3.99987 -3.769949,-3.99987 -3.769949,-4.8534 -0.207871,0 -0.415743,0 -0.629904,0 -0.45353,-0.45668 -0.45353,-0.45668 -0.982648,-1.08972 -1.420418,-1.669235 -2.929028,-3.250294 -4.43764,-4.837636 -1.181071,-1.247201 -2.314886,-2.507008 -3.39832,-3.83609 -1.121221,-1.32595 -2.270784,-2.595191 -3.524289,-3.798298 -1.083434,-1.06454 -1.782623,-2.088126 -2.459761,-3.445563 1.483415,-1.543248 2.888096,-2.966829 4.724256,-4.094349 0.258251,-0.214179 0.519659,-0.428337 0.78737,-0.648797 0.850366,-0.661405 1.707035,-1.089721 2.67708,-1.555857 0.233067,-0.148025 0.469279,-0.299201 0.708635,-0.453529 1.02674,-0.582654 2.075518,-0.998384 3.177846,-1.423581 0.535421,-0.211016 1.070829,-0.431476 1.596803,-0.664535 1.867647,-0.818874 3.647125,-1.174763 5.669105,-1.429872 0.790515,-0.03785 0.790515,-0.03785 1.130669,-0.437781 4.176231,-0.440933 8.815451,-0.799974 12.912949,0.314939 z"
     fill="#e17003"
     id="path2"
     style="stroke-width:0.31495;fill:#ffffff;fill-opacity:1" />
  <path
     d="m 147.66968,159.62048 c 1.39208,0.0849 2.02513,0.63934 2.94478,1.65662 0.15118,0.17324 0.3055,0.3496 0.45983,0.52913 0.15747,0.17323 0.31809,0.34643 0.47873,0.52597 1.15587,1.29129 1.15587,1.29129 1.15587,2.01252 0.20786,0 0.41572,0 0.62988,0 0.42204,0.41889 0.42204,0.41889 0.92596,1.02359 0.9669,1.13697 1.959,2.24875 2.97313,3.34792 0.29605,0.32125 0.59212,0.64565 0.88817,0.9669 0.57636,0.6299 1.15586,1.25665 1.73538,1.88024 0.38422,0.42204 0.38422,0.42204 0.78106,0.85038 0.22992,0.25195 0.46297,0.50392 0.70235,0.76218 0.49761,0.6173 0.49761,0.6173 0.49761,1.2472 0.31181,0.10393 0.62362,0.20787 0.94485,0.31495 0.47557,0.47242 0.47557,0.47242 0.98266,1.08342 1.11806,1.31965 2.27709,2.59205 3.45184,3.86131 0.54172,0.64878 0.90076,1.2157 1.23461,1.98417 0.20786,0 0.41574,0 0.6299,0 0.47557,0.45984 0.47557,0.45984 0.98265,1.06454 0.25509,0.2929 0.25509,0.2929 0.51652,0.59524 0.39054,0.54488 0.39054,0.54488 0.39054,1.17478 0.3118,0.10393 0.62359,0.20787 0.94485,0.31495 0.55115,0.53856 0.55115,0.53856 1.12121,1.19997 0.28346,0.32439 0.28346,0.32439 0.57321,0.65507 0.47872,0.62361 0.81887,1.21257 1.14011,1.92435 0.20788,0 0.41574,0 0.62991,0 0.42204,0.4189 0.42204,0.4189 0.92595,1.0236 0.97949,1.15271 1.9842,2.27393 3.01093,3.38571 0.93856,1.01729 1.87081,2.04088 2.77471,3.08966 0.73698,0.85667 1.50231,1.68184 2.27709,2.50071 0.20157,0.21417 0.40314,0.42834 0.611,0.64564 0.40629,0.4315 0.81572,0.86298 1.2283,1.2913 0.18583,0.19841 0.37481,0.39684 0.56693,0.59841 0.1732,0.17952 0.34328,0.35903 0.51965,0.54172 0.3685,0.46611 0.3685,0.46611 0.3685,1.09602 0.20787,0 0.41573,0 0.6299,0 0.47556,0.45983 0.47556,0.45983 0.98264,1.06452 0.17008,0.19529 0.34015,0.3937 0.51653,0.59527 0.39052,0.54486 0.39052,0.54486 0.39052,1.17476 0.31182,0.10392 0.62361,0.20787 0.94486,0.31495 0.45353,0.45037 0.45353,0.45037 0.94485,1.04249 0.70865,0.83776 1.42357,1.66293 2.17316,2.4629 0.15748,0.17008 0.31494,0.337 0.47872,0.51022 0.31496,0.34015 0.63305,0.67715 0.95115,1.01099 1.12123,1.20311 1.12123,1.20311 1.12123,1.9023 0.20787,0 0.41574,0 0.6299,0 0.42203,0.41888 0.42203,0.41888 0.92596,1.02359 0.9669,1.13697 1.95897,2.24875 2.97313,3.34792 0.29605,0.32125 0.5921,0.64566 0.88814,0.9669 0.57638,0.6299 1.15587,1.25665 1.73538,1.88025 0.25827,0.28031 0.51337,0.56377 0.78107,0.85037 0.22992,0.25196 0.46299,0.50392 0.70234,0.76216 0.49763,0.61732 0.49763,0.61732 0.49763,1.24722 0.3118,0.10393 0.6236,0.20786 0.94483,0.31495 0.4756,0.47243 0.4756,0.47243 0.98267,1.08343 0.84721,0.99525 1.70387,1.98103 2.57943,2.95109 0.23623,0.26139 0.47243,0.52595 0.71494,0.79366 0.54487,0.60156 1.08973,1.19681 1.64404,1.78892 0.14487,0.15748 0.28976,0.31496 0.43779,0.47558 0.41257,0.44408 0.8283,0.88816 1.24089,1.33224 0.58896,0.70862 0.58896,0.70862 0.58896,1.33854 0.3118,0.10393 0.6236,0.20786 0.94485,0.31493 0,0.20788 0,0.41574 0,0.62992 0.20788,0 0.41573,0 0.62991,0 0.47557,0.45982 0.47557,0.45982 0.98264,1.06452 0.17006,0.19527 0.34015,0.39369 0.51651,0.59526 0.39055,0.54487 0.39055,0.54487 0.39055,1.17476 0.3118,0.10393 0.62361,0.20788 0.94484,0.31496 0.45353,0.45038 0.45353,0.45038 0.94485,1.04248 0.70865,0.83777 1.42359,1.66294 2.17317,2.46291 0.15746,0.17007 0.31494,0.337 0.47873,0.51022 0.31493,0.34015 0.63305,0.67715 0.95114,1.01099 1.12123,1.20311 1.12123,1.20311 1.12123,1.9023 0.3118,0.10394 0.6236,0.20786 0.94484,0.31494 0.56377,0.52598 0.56377,0.52598 1.14012,1.18108 0.28975,0.31808 0.28975,0.31808 0.58582,0.64563 0.55429,0.80314 0.78106,1.28815 0.79367,2.26765 -4.11956,5.51793 -12.7933,8.5005 -19.22142,9.63433 -1.59049,0.22046 -3.1684,0.23621 -4.77463,0.22676 -0.34331,0 -0.68976,-0.004 -1.04565,-0.004 -6.76198,-0.10076 -15.34752,-2.35897 -20.31113,-7.33834 0,-0.20785 0,-0.41572 0,-0.62988 -0.26456,-0.11658 -0.26456,-0.11658 -0.53227,-0.23621 -2.24245,-1.21256 -3.7416,-3.24085 -5.33211,-5.17778 -0.90391,-1.0677 -1.87395,-2.04088 -2.89439,-2.99203 -0.37478,-0.41259 -0.37478,-0.41259 -0.37478,-1.04249 -0.20787,0 -0.41574,0 -0.62992,0 -0.38737,-0.38423 -0.38737,-0.38423 -0.8661,-0.96375 -1.14011,-1.34484 -2.33378,-2.63299 -3.54319,-3.91797 -2.31174,-2.46607 -2.31174,-2.46607 -3.30698,-3.62194 -1.2283,-1.42671 -2.52275,-2.79044 -3.80774,-4.16363 -2.33693,-2.49441 -4.66442,-4.99828 -6.90056,-7.5903 -0.44723,-0.50078 -0.91336,-0.97005 -1.39838,-1.43618 -0.6488,-0.66769 -0.6488,-0.66769 -0.6488,-1.29759 -0.20787,0 -0.41573,0 -0.6299,0 -0.48817,-0.48503 -0.48817,-0.48503 -1.04248,-1.14013 -0.19528,-0.2299 -0.38738,-0.45666 -0.58895,-0.69289 -0.28346,-0.34014 -0.28346,-0.34014 -0.57322,-0.68659 -0.16378,-0.19527 -0.32755,-0.38739 -0.49447,-0.58896 -0.36219,-0.43147 -0.72125,-0.86609 -1.08028,-1.30073 -1.02673,0.3433 -1.222,0.55116 -1.88971,1.35743 -0.97319,1.14642 -1.97159,2.26134 -2.99203,3.36682 -0.93854,1.01727 -1.8708,2.04088 -2.7747,3.08965 -1.31649,1.52122 -2.70542,2.97628 -4.08806,4.43766 -0.28029,0.29604 -0.28029,0.29604 -0.56691,0.5984 -0.16691,0.17952 -0.337,0.35905 -0.51022,0.54173 -0.43778,0.46296 -0.43778,0.46296 -0.72123,1.09602 -0.20786,0 -0.41573,0 -0.6299,0 -0.0819,0.18266 -0.16377,0.36533 -0.24566,0.5543 -0.41259,0.75903 -0.87241,1.28814 -1.47082,1.91175 -0.21416,0.22677 -0.43148,0.45038 -0.65195,0.68344 -0.337,0.35275 -0.337,0.35275 -0.68345,0.70865 -1.46765,1.53065 -2.91013,3.0739 -4.29906,4.67702 -0.97634,1.11805 -1.99678,2.19517 -3.01092,3.27861 -0.70863,0.75904 -1.3417,1.48972 -1.92119,2.35898 -0.20787,0 -0.41574,0 -0.62991,0 -0.0819,0.18582 -0.16692,0.3685 -0.25196,0.55747 -0.39053,0.72753 -0.81256,1.2409 -1.37318,1.8393 -0.19527,0.21102 -0.39369,0.42203 -0.59526,0.63936 -0.21102,0.2173 -0.41889,0.43777 -0.63305,0.66454 -0.21415,0.22677 -0.42834,0.45353 -0.6488,0.68658 -6.38718,6.6927 -14.46879,11.41065 -23.901564,11.76654 -9.71935,0.20472 -18.386786,-2.65187 -25.618041,-9.27212 -0.519673,-0.58266 -0.519673,-0.58266 -0.579513,-1.3102 0.488176,-1.10233 1.199955,-1.75427 2.07868,-2.56369 0.532259,-0.46613 0.532259,-0.46613 0.815712,-1.11807 0.207865,0 0.415741,0 0.629898,0 0.08191,-0.18269 0.163783,-0.36535 0.248817,-0.55433 0.409426,-0.75587 0.859815,-1.2787 1.455065,-1.89914 0.207865,-0.21731 0.41574,-0.43777 0.629898,-0.6614 0.217319,-0.22676 0.43464,-0.45038 0.658243,-0.68344 0.431488,-0.45038 0.859814,-0.90075 1.288151,-1.35112 0.192117,-0.19844 0.381082,-0.39685 0.579513,-0.59842 0.551158,-0.58896 0.551158,-0.58896 1.124358,-1.49601 0.207875,0 0.41575,0 0.629908,0 0.07875,-0.17638 0.15748,-0.34959 0.23621,-0.53226 0.466136,-0.85982 1.001545,-1.57159 1.653499,-2.30229 0.207857,0 0.415724,0 0.629896,0 0.103933,-0.31181 0.207867,-0.6236 0.314943,-0.94485 0.207867,0 0.415733,0 0.629905,0 0.103934,-0.25197 0.103934,-0.25197 0.207868,-0.51022 0.570067,-1.01414 1.338543,-1.80153 2.135373,-2.63928 0.340133,-0.3622 0.680276,-0.72754 1.020429,-1.08973 0.173219,-0.18584 0.346447,-0.3685 0.52283,-0.55747 0.821999,-0.87871 1.637733,-1.76057 2.450305,-2.64243 0.42203,-0.45667 0.42203,-0.45667 0.850363,-0.91965 0.714924,-0.77163 0.714924,-0.77163 1.316497,-1.71963 0.207856,0 0.415723,0 0.629905,0 0.07256,-0.17007 0.141714,-0.337 0.217294,-0.51022 0.557468,-1.00785 1.212563,-1.78577 1.987345,-2.63929 0.207867,0 0.415744,0 0.629905,0 0.122849,-0.274 0.122849,-0.274 0.245657,-0.5543 0.412582,-0.75904 0.869258,-1.28815 1.467668,-1.9086 0.21101,-0.22047 0.418886,-0.44093 0.636201,-0.66769 0.217315,-0.22677 0.437781,-0.45354 0.661391,-0.68659 0.434638,-0.45353 0.869257,-0.90706 1.300754,-1.36374 0.192114,-0.19842 0.384227,-0.39683 0.582647,-0.60471 0.488182,-0.49761 0.488182,-0.49761 0.774782,-1.14327 0.207867,0 0.415733,0 0.629916,0 0.08187,-0.18266 0.163761,-0.36533 0.248792,-0.55431 0.40945,-0.75587 0.85982,-1.27869 1.45507,-1.89914 0.20787,-0.21732 0.41573,-0.43779 0.62991,-0.6614 0.2173,-0.22676 0.43462,-0.45039 0.65825,-0.68345 0.43147,-0.45038 0.8598,-0.90075 1.28813,-1.35112 0.19212,-0.19842 0.38109,-0.39685 0.5795,-0.59842 0.55118,-0.58896 0.55118,-0.58896 1.12439,-1.49602 0.20787,0 0.41573,0 0.62991,0 0.0788,-0.17635 0.15745,-0.34958 0.23621,-0.53225 0.46612,-0.85982 1.00154,-1.57161 1.65348,-2.30228 0.20787,0 0.41573,0 0.6299,0 0.12598,-0.28031 0.12598,-0.28031 0.25197,-0.56692 0.39053,-0.71807 0.78737,-1.15586 1.38263,-1.71648 0.97003,-0.94171 1.86134,-1.92434 2.7432,-2.94793 1.02675,-1.16847 2.09127,-2.30229 3.15265,-3.4361 0.70865,-0.75904 1.3417,-1.48973 1.91805,-2.35582 0.20787,0 0.41573,0 0.6299,0 0.0819,-0.1827 0.16377,-0.36536 0.24881,-0.55432 0.40943,-0.75589 0.85981,-1.2787 1.45507,-1.89917 0.3118,-0.32753 0.3118,-0.32753 0.6299,-0.66138 0.21732,-0.22677 0.43463,-0.45039 0.65825,-0.68345 0.43148,-0.45038 0.8598,-0.90075 1.28815,-1.35114 0.19212,-0.19841 0.38108,-0.39683 0.5795,-0.5984 0.55116,-0.58895 0.55116,-0.58895 1.12438,-1.49601 0.20786,0 0.41572,0 0.62989,0 0.0788,-0.17637 0.15749,-0.3496 0.23622,-0.53226 0.46612,-0.85981 1.00155,-1.57161 1.65349,-2.30231 0.20786,0 0.41574,0 0.62989,0 0.12599,-0.2803 0.12599,-0.2803 0.25196,-0.5669 0.39054,-0.71808 0.78738,-1.15586 1.38264,-1.71648 1.40783,-1.36688 2.76841,-2.7999 3.90222,-4.40615 0.14804,-0.18266 0.29606,-0.36534 0.44725,-0.5543 0.20786,0 0.41573,0 0.62988,0 0.12599,-0.27716 0.12599,-0.27716 0.25198,-0.55747 0.39369,-0.73384 0.82201,-1.2409 1.39521,-1.83931 0.20157,-0.21101 0.40314,-0.42518 0.61101,-0.6425 0.31495,-0.32754 0.31495,-0.32754 0.63619,-0.66139 2.13852,-2.2393 4.1983,-4.52584 6.15728,-6.92891 0.39684,-0.39368 0.39684,-0.39368 1.02675,-0.39368 0.0819,-0.17953 0.16061,-0.35904 0.2425,-0.54486 0.42835,-0.79053 0.9291,-1.3858 1.52752,-2.05348 0.20156,-0.22362 0.39999,-0.44408 0.60471,-0.674 0.15117,-0.16692 0.30234,-0.33385 0.45982,-0.50707 z"
     fill="#000000"
     id="path3"
     style="stroke-width:0.31495;fill:#ffffff;fill-opacity:1" />
  <path
     d="m 91.96287,47.08484 c 0.314943,0.0032 0.629886,0.0032 0.954296,0.0063 10.815394,0.173218 18.748984,5.407694 26.090474,12.969645 2.65817,2.799906 2.65817,2.799906 3.15265,3.867595 0.28975,0.689739 0.28975,0.689739 1.25979,0.891311 0.45038,0.450367 0.45038,0.450367 0.94487,1.042476 0.94799,1.118076 1.91804,2.210959 2.91013,3.288082 0.22046,0.239361 0.22046,0.239361 0.44093,0.478733 0.78421,0.856652 1.5716,1.70387 2.36528,2.551078 0.16062,0.173238 0.31809,0.343304 0.48502,0.519673 0.30864,0.333859 0.61731,0.661405 0.9291,0.992102 1.05822,1.136965 1.05822,1.136965 1.05822,1.836158 0.31182,0.103932 0.62361,0.207854 0.94487,0.314949 0.41888,0.41573 0.41888,0.41573 0.88501,0.985788 0.78737,0.935402 1.59995,1.842461 2.44402,2.730619 0.29919,0.314961 0.29919,0.314961 0.60471,0.639355 0.40627,0.428326 0.81255,0.856662 1.22199,1.281837 0.28345,0.29606 0.28345,0.29606 0.57005,0.601564 0.17007,0.17638 0.34016,0.35589 0.51652,0.541714 0.37166,0.462974 0.37166,0.462974 0.37166,1.092883 0.20471,0 0.41258,0 0.62989,0 0.47243,0.459822 0.47243,0.459822 0.98264,1.064527 0.17007,0.195269 0.34014,0.393691 0.51337,0.598402 0.39369,0.541716 0.39369,0.541716 0.39369,1.171613 0.31181,0.103933 0.62361,0.207875 0.94486,0.314949 0.49446,0.494471 0.49446,0.494471 1.02043,1.124378 0.19212,0.223603 0.38109,0.447227 0.5795,0.680294 0.29921,0.352749 0.29921,0.352749 0.60473,0.714942 0.40942,0.47557 0.82514,0.947989 1.23773,1.417266 0.32126,0.368487 0.64252,0.736982 0.9669,1.102327 1.04879,-0.447236 1.6472,-0.979495 2.38103,-1.848765 0.18266,-0.214157 0.36533,-0.428326 0.55115,-0.648797 0.35906,-0.440923 0.70235,-0.897594 1.02988,-1.36373 0.14804,-0.17952 0.29608,-0.362193 0.44726,-0.548017 0.20785,0 0.41256,0 0.62988,0 0.10077,-0.311797 0.20788,-0.623595 0.31496,-0.944847 0.20786,0 0.41258,0 0.62989,0 0.0755,-0.173217 0.15434,-0.349586 0.23307,-0.532259 0.46612,-0.859814 1.00468,-1.568452 1.65664,-2.302283 0.20786,0 0.41259,0 0.62989,0 0.0788,-0.182684 0.16064,-0.365355 0.24568,-0.554321 0.40943,-0.755882 0.86295,-1.278696 1.45505,-1.895998 0.20788,-0.220461 0.41575,-0.437782 0.63305,-0.664545 0.21418,-0.226766 0.43149,-0.450389 0.65826,-0.683436 0.42833,-0.450388 0.85981,-0.897614 1.28813,-1.351143 0.28663,-0.296059 0.28663,-0.296059 0.57637,-0.598413 0.55432,-0.588947 0.55432,-0.588947 1.12753,-1.496006 0.20785,0 0.41258,0 0.62988,0 0.0756,-0.173227 0.15433,-0.349596 0.23307,-0.532258 0.46613,-0.859815 1.00469,-1.568453 1.65664,-2.302294 0.20787,0 0.41259,0 0.62991,0 0.0818,-0.185825 0.16376,-0.371649 0.25195,-0.563755 0.39055,-0.721235 0.78738,-1.159016 1.37949,-1.71964 1.40782,-1.366881 2.77156,-2.796754 3.90223,-4.406146 0.14802,-0.182672 0.29604,-0.365345 0.45037,-0.55431 0.20787,0 0.41259,0 0.62992,0 0.10076,-0.311798 0.20785,-0.623595 0.31494,-0.944859 0.20787,0 0.41258,0 0.62991,0 0.10076,-0.251946 0.10076,-0.251946 0.2047,-0.507066 0.57951,-1.02989 1.36688,-1.829864 2.1763,-2.680223 0.34331,-0.365345 0.68659,-0.733831 1.0299,-1.099176 0.17007,-0.179532 0.34014,-0.362193 0.51336,-0.548008 0.6677,-0.718102 1.31335,-1.455075 1.95899,-2.192057 5.97146,-6.610801 14.69242,-10.88153 23.61812,-11.363403 7.10212,-0.211017 13.5775,1.410972 19.63084,5.162028 0.37164,0.19842 0.74644,0.396851 1.12122,0.592109 1.89286,1.06768 3.64398,2.598334 5.17778,4.132149 -0.044,1.558998 -0.86296,2.384165 -1.88969,3.46444 -0.21102,0 -0.41574,0 -0.62989,0 -0.10394,0.311808 -0.21103,0.623606 -0.31496,0.944869 -0.21102,0 -0.41573,0 -0.6299,0 -0.0788,0.176358 -0.15747,0.352728 -0.23937,0.532258 -0.46298,0.862956 -1.00154,1.571595 -1.65034,2.302284 -0.21102,0 -0.41574,0 -0.62989,0 -0.085,0.188966 -0.16692,0.374789 -0.25512,0.566906 -0.39053,0.718083 -0.78736,1.159026 -1.37947,1.716488 -1.40782,1.366881 -2.77156,2.799895 -3.90224,4.406148 -0.14802,0.182682 -0.29606,0.365343 -0.44724,0.55432 -0.21101,0 -0.41573,0 -0.62988,0 -0.12599,0.277149 -0.12599,0.277149 -0.25197,0.560603 -0.39684,0.73069 -0.82202,1.237755 -1.39838,1.836157 -0.19842,0.211017 -0.39999,0.425195 -0.60785,0.642495 -0.21101,0.217321 -0.42203,0.437782 -0.6362,0.661405 -2.72748,2.787309 -2.72748,2.787309 -5.16205,5.823423 -0.14801,0.182673 -0.29604,0.365355 -0.44722,0.554321 -0.21102,0 -0.41573,0 -0.62989,0 -0.12285,0.273998 -0.12285,0.273998 -0.24881,0.554309 -0.41259,0.762175 -0.86926,1.288151 -1.46768,1.911747 -0.3244,0.340142 -0.3244,0.340142 -0.65509,0.686587 -0.337,0.349607 -0.337,0.349607 -0.6803,0.705496 -1.98103,2.066063 -3.91798,4.147886 -5.71004,6.377734 -0.22675,0.261411 -0.45353,0.519672 -0.68659,0.787377 -0.21102,0 -0.41573,0 -0.6299,0 -0.0788,0.176369 -0.15747,0.352739 -0.23937,0.53227 -0.71178,1.319637 -1.68811,2.343234 -2.74636,3.395156 -0.99525,1.001546 -1.95584,2.034578 -2.92274,3.061327 -0.21415,0.226765 -0.42834,0.456669 -0.65194,0.689739 -0.20472,0.22047 -0.40944,0.43778 -0.62045,0.66138 -0.18583,0.19844 -0.37165,0.39685 -0.56376,0.60158 -0.47243,0.49446 -0.47243,0.49446 -0.75905,1.13697 -0.21101,0 -0.41572,0 -0.62989,0 -0.0819,0.18266 -0.16377,0.36533 -0.2488,0.5543 -0.41259,0.76218 -0.86927,1.28814 -1.46767,1.91175 -0.21731,0.22676 -0.4315,0.45352 -0.65509,0.6866 -0.337,0.34959 -0.337,0.34959 -0.6803,0.70548 -2.9133,2.95737 -2.9133,2.95737 -5.45178,6.22028 -0.21102,0 -0.41574,0 -0.62992,0 -0.0819,0.18265 -0.16061,0.36532 -0.24565,0.55115 -0.42833,0.78738 -0.91651,1.3354 -1.5401,1.98103 -0.22362,0.23622 -0.44724,0.46928 -0.67714,0.71179 -0.23308,0.24252 -0.46613,0.48502 -0.70865,0.73385 -0.46298,0.48186 -0.92596,0.96373 -1.38893,1.44877 -0.20471,0.21415 -0.40944,0.42517 -0.62046,0.64563 -0.51336,0.51968 -0.51336,0.51968 -0.80311,1.17163 -0.21101,0 -0.41573,0 -0.62991,0 -0.0819,0.17952 -0.16377,0.36219 -0.24881,0.54801 -0.41888,0.77793 -0.90391,1.38577 -1.48341,2.05032 -0.19212,0.22361 -0.38423,0.44723 -0.58266,0.674 -0.51966,0.50706 -0.51966,0.50706 -1.14957,0.50706 -0.085,0.18582 -0.17007,0.37481 -0.25825,0.56378 -0.37165,0.69603 -0.75904,1.17474 -1.30075,1.74166 -0.18267,0.19527 -0.36534,0.38739 -0.55115,0.5858 -0.19529,0.20156 -0.3874,0.4063 -0.58896,0.61415 -0.39999,0.42204 -0.79683,0.84408 -1.19681,1.26611 -0.19529,0.20786 -0.39055,0.41256 -0.59211,0.62359 -0.74329,0.79369 -1.47712,1.59367 -2.20781,2.39992 -0.21416,0.23938 -0.43147,0.47874 -0.65194,0.72439 -0.57637,0.64566 -0.57637,0.64566 -1.15586,1.559 -0.21102,0 -0.41575,0 -0.62991,0 -0.0819,0.18269 -0.16062,0.36535 -0.24566,0.55118 -0.42833,0.78737 -0.91651,1.33537 -1.54011,1.98103 -0.22362,0.23622 -0.44722,0.46928 -0.67714,0.71178 -0.3496,0.36219 -0.3496,0.36219 -0.70865,0.73384 -0.46296,0.48187 -0.92594,0.96374 -1.38892,1.44877 -0.20472,0.21416 -0.40944,0.42518 -0.62045,0.64564 -0.51338,0.51967 -0.51338,0.51967 -0.80312,1.17161 -0.21101,0 -0.41574,0 -0.6299,0 -0.11966,0.26456 -0.11966,0.26456 -0.23937,0.53227 -0.80627,1.49286 -1.95585,2.76212 -3.22509,3.87703 -0.88816,0.25512 -0.88816,0.25512 -1.57474,0.31496 -0.17638,-0.22676 -0.35275,-0.45354 -0.53227,-0.68974 -0.88816,-1.07713 -1.85506,-2.04087 -2.8755,-2.99204 -0.37164,-0.41258 -0.37164,-0.41258 -0.37164,-1.04248 -0.20786,0 -0.41573,0 -0.62991,0 -0.41258,-0.40627 -0.41258,-0.40627 -0.90704,-1.00468 -0.74329,-0.87557 -1.49917,-1.73224 -2.28339,-2.57 -0.17324,-0.18267 -0.3433,-0.36535 -0.51968,-0.55432 -0.34644,-0.36848 -0.69604,-0.73383 -1.04249,-1.09916 -1.23145,-1.31651 -1.23145,-1.31651 -1.23145,-2.0157 -0.20786,0 -0.41573,0 -0.6299,0 -0.42203,-0.41887 -0.42203,-0.41887 -0.92595,-1.02358 -0.96689,-1.13696 -1.96213,-2.24875 -2.97313,-3.34477 -0.29605,-0.32441 -0.59211,-0.64564 -0.88815,-0.97003 -0.57952,-0.62677 -1.15588,-1.25351 -1.73538,-1.88026 -0.25826,-0.28032 -0.51652,-0.56062 -0.78107,-0.85037 -0.23307,-0.25196 -0.46297,-0.50392 -0.70235,-0.76218 -0.49762,-0.6173 -0.49762,-0.6173 -0.49762,-1.24721 -0.20786,0 -0.41573,0 -0.6299,0 -0.52281,-0.50706 -0.52281,-0.50706 -1.10232,-1.18106 -0.19212,-0.21731 -0.38425,-0.43779 -0.58267,-0.66455 -0.48187,-0.62359 -0.82831,-1.2157 -1.14957,-1.93378 -0.20787,0 -0.41572,0 -0.62989,0 -0.44723,-0.44093 -0.44723,-0.44093 -0.9669,-1.06138 -1.14011,-1.35115 -2.33062,-2.64874 -3.53059,-3.94634 -0.54172,-0.6614 -0.54172,-0.6614 -0.54172,-1.29129 -0.20787,0 -0.41573,0 -0.6299,0 -0.52282,-0.50707 -0.52282,-0.50707 -1.10233,-1.18107 -0.1921,-0.2173 -0.38422,-0.43777 -0.58265,-0.66454 -0.48187,-0.6236 -0.82832,-1.21571 -1.14956,-1.9338 -0.20787,0 -0.41573,0 -0.62991,0 -0.41258,-0.40629 -0.41258,-0.40629 -0.90705,-1.00468 -0.74328,-0.87557 -1.49917,-1.73223 -2.28339,-2.57 -0.17322,-0.18267 -0.34329,-0.36535 -0.51966,-0.55432 -0.34645,-0.36847 -0.69605,-0.73383 -1.04248,-1.09916 -1.23146,-1.3165 -1.23146,-1.3165 -1.23146,-2.01568 -0.20788,0 -0.41576,0 -0.62991,0 -0.42203,-0.4189 -0.42203,-0.4189 -0.92596,-1.0236 -0.97948,-1.15273 -1.98733,-2.273934 -3.0109,-3.385706 -2.06294,-2.242444 -2.06294,-2.242444 -3.0141,-3.30697 -0.16376,-0.185825 -0.33068,-0.368498 -0.50391,-0.560625 -0.44407,-0.570058 -0.74958,-1.143268 -1.048782,-1.801511 -0.207866,0 -0.415733,0 -0.629905,0 -0.52281,-0.507065 -0.52281,-0.507065 -1.102325,-1.181067 -0.192114,-0.217319 -0.384238,-0.437781 -0.582657,-0.664546 -0.481866,-0.623595 -0.828315,-1.215704 -1.149562,-1.933786 -0.207867,0 -0.415734,0 -0.629906,0 -0.447229,-0.440929 -0.447229,-0.440929 -0.966896,-1.061372 -1.140115,-1.351143 -2.33063,-2.648738 -3.530584,-3.946335 -0.541714,-0.661394 -0.541714,-0.661394 -0.541714,-1.291292 -0.469276,-0.154329 -0.469276,-0.154329 -0.944848,-0.31495 0,-0.207864 0,-0.415739 0,-0.629897 -0.207877,0 -0.415744,0 -0.629905,0 -0.44723,-0.440934 -0.44723,-0.440934 -0.966907,-1.061387 -0.847219,-0.995243 -1.700724,-1.981031 -2.57943,-2.954233 -0.34961,-0.390538 -0.34961,-0.390538 -0.711801,-0.79052 -0.57321,-0.63306 -1.149562,-1.256655 -1.73222,-1.88026 -0.160619,-0.170076 -0.321248,-0.343283 -0.485019,-0.519663 -0.31181,-0.333849 -0.626753,-0.670849 -0.941706,-1.001535 -1.086582,-1.168471 -1.086582,-1.168471 -1.086582,-1.870806 -0.207867,0 -0.415733,0 -0.629885,0 -0.422039,-0.418892 -0.422039,-0.418892 -0.925963,-1.023599 -0.7118,-0.840914 -1.433024,-1.666081 -2.185765,-2.472348 -0.154318,-0.166935 -0.311798,-0.333859 -0.472419,-0.507066 -0.311807,-0.330709 -0.623605,-0.664556 -0.938553,-0.995244 -0.696043,-0.749588 -1.133824,-1.259807 -1.461369,-2.245605 -0.211018,0 -0.41573,0 -0.629899,0 -0.47558,-0.459833 -0.47558,-0.459833 -0.985788,-1.061377 -0.170076,-0.19843 -0.340152,-0.39684 -0.51337,-0.598411 -0.390547,-0.544866 -0.390547,-0.544866 -0.390547,-1.174754 -0.211017,0 -0.415729,0 -0.629887,0 -0.522815,-0.529117 -0.522815,-0.529117 -1.102328,-1.218867 -0.563766,-0.667686 -1.118075,-1.313344 -1.732225,-1.930635 0.0567,-0.932261 0.192117,-1.433024 0.806267,-2.144824 0.207875,-0.166925 0.415729,-0.33699 0.629909,-0.510207 0.229906,-0.188977 0.459821,-0.377941 0.696031,-0.57007 0.233068,-0.182672 0.462973,-0.365333 0.702346,-0.55431 0.185823,-0.157479 0.374788,-0.3181 0.570047,-0.481873 1.625141,-1.316484 3.44241,-2.210948 5.316356,-3.10856 0.777935,-0.374791 1.527523,-0.771631 2.280243,-1.193665 3.845544,-1.921191 8.727271,-2.582584 12.972808,-2.557382 z"
     fill="#000000"
     id="path4"
     style="stroke-width:0.31495;fill:#ffffff;fill-opacity:1" />
  <path
     d="m 847.12247,95.774062 c 0.58967,-0.0074 1.17935,-0.01571 1.78476,-0.01571 1.25797,-0.01571 2.50809,-0.02361 3.76609,-0.03141 1.26586,-0.0074 2.53954,-0.02361 3.8054,-0.04712 7.31207,-0.133679 13.53123,-0.165122 20.1278,3.428011 1.04569,0.526789 2.09928,1.045707 3.14498,1.572487 0,0.51892 0,1.03784 0,1.57249 0.47175,0.21228 0.94349,0.42456 1.43096,0.65258 8.27127,4.45014 11.82509,17.01428 15.36318,25.24624 1.84766,4.28502 3.80542,8.515 5.83392,12.72926 1.09287,2.29583 2.04421,4.46586 2.53169,6.97397 2.22506,-1.11647 2.45309,-2.47666 3.42801,-4.74891 0.35383,-0.82555 0.70765,-1.65111 1.07716,-2.50025 0.37741,-0.88059 0.75479,-1.76903 1.1479,-2.68108 0.77841,-1.80049 1.56464,-3.60885 2.3509,-5.41721 0.37736,-0.87274 0.76264,-1.75332 1.15577,-2.6575 2.0914,-4.79607 4.28501,-9.52925 6.5651,-14.23098 0.36169,-0.78624 0.73122,-1.57248 1.10862,-2.38232 3.98624,-8.06685 9.74154,-13.15384 18.07569,-16.479643 4.96905,-1.391651 9.90666,-1.344481 15.04085,-1.265858 1.85551,0.03141 3.71099,0.01571 5.57447,0 1.19507,0.0074 2.39014,0.01571 3.5852,0.02361 0.55037,0 1.09286,-0.0074 1.65895,-0.0074 3.93126,0.09433 6.15628,1.171486 9.20696,3.600976 2.75966,3.144965 3.24712,5.731705 3.23925,9.843755 0,1.35234 0,1.35234 0,2.73613 0,0.99066 0,1.98133 -0.0123,3.00344 0,1.05357 0,2.10713 0,3.1607 0,2.86192 0,5.72384 -0.0122,8.58576 0,2.99558 -0.0123,5.98331 -0.0123,8.97889 0,5.66094 -0.0123,11.32189 -0.016,16.9907 -0.0122,6.44718 -0.0122,12.89436 -0.0159,19.34156 -0.0123,13.26389 -0.0233,26.5278 -0.0393,39.79171 -1.1323,0.0157 -2.26447,0.0236 -3.4045,0.0314 -0.62898,0.007 -1.25796,0.0157 -1.91052,0.0157 -7.09191,-0.20442 -13.28749,-5.22851 -18.02857,-10.07175 -4.85901,-6.83246 -6.62802,-12.80789 -6.69877,-21.15779 -0.0123,-0.58182 -0.016,-1.16363 -0.0233,-1.76903 -0.0234,-1.91058 -0.0393,-3.82901 -0.0627,-5.73957 -0.0159,-1.33662 -0.0319,-2.66536 -0.0468,-4.00197 -0.0393,-3.4988 -0.0787,-6.99757 -0.11792,-10.48847 -0.0393,-3.57741 -0.0861,-7.14694 -0.12581,-10.72436 -0.086,-7.0054 -0.16523,-14.00296 -0.24373,-21.00838 -0.77837,-0.25946 -1.55685,-0.51892 -2.35881,-0.78624 -0.19654,0.64472 -0.39312,1.28944 -0.59754,1.95773 -1.11643,3.16856 -2.50809,6.12483 -3.97049,9.14401 -2.21722,4.63882 -4.29291,9.29337 -6.22705,14.05014 -1.36019,3.23145 -2.86192,6.39214 -4.35579,9.5607 -1.70615,3.61673 -3.31794,7.26488 -4.89829,10.93663 -2.14642,4.97691 -4.50514,9.79658 -6.98182,14.62411 -1.59608,3.28649 -2.90123,6.64376 -4.15136,10.07176 -1.29731,2.45309 -2.67323,3.62457 -4.98477,5.13417 -1.61967,0.44028 -1.61967,0.44028 -3.14498,0.44028 -0.50318,0.0157 -1.00638,0.0314 -1.52529,0.055 -3.42019,-1.0457 -5.01625,-3.45159 -6.65948,-6.4629 -1.21869,-2.5317 -2.37446,-5.07913 -3.51454,-7.64228 -0.40882,-0.91991 -0.82552,-1.83981 -1.25795,-2.7833 -2.61819,-5.82604 -5.19706,-11.67569 -7.72876,-17.54107 -1.23441,-2.83046 -2.53168,-5.62948 -3.84472,-8.42064 -3.12926,-6.6752 -6.17989,-13.38972 -9.23051,-20.10421 -0.54249,-1.19509 -1.08499,-2.39018 -1.6275,-3.58527 -1.30518,-2.88551 -2.6182,-5.77103 -3.92335,-8.64866 -0.77837,0 -1.55677,0 -2.35874,0 0,0.74692 -0.007,1.49385 -0.007,2.27223 -0.0314,7.08405 -0.0787,14.17595 -0.13366,21.26785 -0.0314,3.64031 -0.063,7.28845 -0.0708,10.92878 -0.0157,3.52236 -0.0393,7.04473 -0.0787,10.56708 -0.007,1.34448 -0.0157,2.68109 -0.0157,4.0177 -0.0157,11.25113 -1.42309,20.19856 -9.64717,28.53273 -4.96119,4.53662 -10.56712,7.47717 -17.36813,7.37495 -0.62898,-0.007 -1.25797,-0.0157 -1.90269,-0.0236 -0.71549,-0.007 -0.71549,-0.007 -1.43883,-0.0236 -0.0393,-13.64131 -0.063,-27.2826 -0.0787,-40.92392 -0.007,-6.3371 -0.0236,-12.67421 -0.0393,-19.00346 -0.0157,-5.52729 -0.0236,-11.0467 -0.0314,-16.56613 0,-2.92482 -0.007,-5.84964 -0.0157,-8.77447 -0.0157,-3.26289 -0.0157,-6.52581 -0.0157,-9.79657 0,-0.95923 -0.007,-1.9263 -0.0157,-2.92482 0.0236,-10.76366 0.0236,-10.76366 2.90125,-14.238842 3.97836,-2.885518 6.21917,-3.49093 11.05456,-3.5381 z"
     fill="#000000"
     id="path5"
     style="stroke-width:0.786241;fill:#ffffff;fill-opacity:1" />
  <path
     d="m 587.80593,95.720505 c 0.66045,-0.0074 1.32088,-0.01571 2.00492,-0.02361 2.17003,-0.01571 4.34008,-0.02361 6.51008,-0.02361 1.51746,-0.0074 3.04277,-0.01571 4.56022,-0.02361 3.18427,-0.01571 6.36855,-0.02361 9.55282,-0.02361 4.06487,0 8.1219,-0.03141 12.17891,-0.07073 3.14496,-0.02361 6.28206,-0.02361 9.42706,-0.03141 1.49383,0 2.9877,-0.0074 4.48941,-0.02361 11.13322,-0.117931 20.15927,0.80983 28.59562,8.916005 5.56662,6.33709 8.0826,12.83933 8.07473,21.18135 0,0.66831 0.007,1.33662 0.0157,2.02851 0.0157,2.20934 0.0157,4.41868 0.0157,6.62801 0.007,1.54105 0.0157,3.08994 0.0157,4.63098 0.0157,3.23146 0.0157,6.4629 0.0157,9.69437 0,4.12776 0.0236,8.25554 0.0472,12.38331 0.0157,3.19214 0.0236,6.37642 0.0236,9.56856 0,1.51745 0.007,3.04276 0.0157,4.56021 0.0787,11.15677 -0.6683,19.57743 -8.48357,28.24182 -6.58082,5.95973 -12.85503,8.5779 -21.78676,8.52287 -0.6683,0.007 -1.33659,0.007 -2.02851,0.0157 -2.19359,0.0157 -4.38722,0.0157 -6.57298,0.007 -1.54102,0 -3.08206,0.007 -4.61525,0.0157 -3.21573,0 -6.43144,0 -9.64717,-0.007 -4.10419,-0.007 -8.20839,0.007 -12.30469,0.0314 -3.17644,0.0157 -6.35284,0.0157 -9.52138,0.007 -1.51746,0 -3.02705,0.007 -4.53664,0.0157 -11.32189,0.063 -19.95485,-0.51105 -28.46983,-8.76661 -5.83392,-6.36856 -8.35773,-13.59412 -8.31058,-22.17202 0,-0.65259 -0.007,-1.30516 -0.0157,-1.98133 -0.0157,-2.13857 -0.007,-4.27717 -0.007,-6.42361 0,-1.50171 -0.007,-3.00344 -0.007,-4.50516 -0.007,-3.14496 -0.007,-6.28206 0,-9.42705 0.007,-4.00198 -0.007,-8.01181 -0.0314,-12.02165 -0.007,-3.09779 -0.007,-6.20343 -0.007,-9.30122 0,-1.47814 0,-2.95629 -0.0157,-4.42655 -0.0551,-10.44131 0.58185,-18.68113 7.19414,-27.23544 1.07715,-1.06928 1.07715,-1.06928 2.64965,-1.06928 0.25944,-0.77839 0.5189,-1.55677 0.78623,-2.35874 1.60391,-1.21081 1.60391,-1.21081 3.63244,-2.413766 0.66043,-0.393119 1.32087,-0.794103 1.99703,-1.202939 4.81969,-2.38232 9.29341,-2.909109 14.56122,-2.916971 z m 0.25158,32.479685 c -0.83339,2.49237 -0.89631,4.27714 -0.90414,6.9032 0,0.93562 -0.007,1.87126 -0.0157,2.83046 0,1.01426 0,2.02065 0,3.05849 0,1.03785 -0.007,2.07568 -0.007,3.14498 -0.007,2.1936 -0.007,4.38723 -0.007,6.58084 0,2.80688 -0.007,5.61377 -0.0236,8.42064 -0.007,2.6811 -0.007,5.37005 -0.007,8.05112 -0.007,1.00641 -0.0157,2.01278 -0.0157,3.05064 0,0.93561 0,1.87126 0,2.83832 0,0.82557 0,1.65112 0,2.50025 0.20443,2.24867 0.42459,3.48307 1.76905,5.29927 2.81477,1.52533 5.24424,1.76906 8.41279,1.78478 0.8806,0.007 1.76904,0.0157 2.67324,0.0236 0.94349,0 1.89484,0 2.86192,0 0.98282,0 1.95772,0.007 2.96412,0.007 2.59462,0.007 5.18922,0 7.7838,0 1.58822,0 3.17643,0.007 4.76465,0.0157 3.05063,0.0236 6.10124,0.0236 9.1597,0.0236 1.41524,0.007 1.41524,0.007 2.86194,0.0236 6.35282,0.0393 6.35282,0.0393 11.98233,-2.66534 0.83343,-2.51599 0.89633,-4.34007 0.91203,-6.98184 0.007,-0.95135 0.0157,-1.90271 0.0236,-2.87765 0,-1.02998 0.007,-2.05208 0.007,-3.11351 0.007,-1.06144 0.007,-2.13073 0.0157,-3.19215 0.007,-2.23293 0.007,-4.46586 0.0157,-6.69092 0,-2.86193 0.0236,-5.71598 0.0472,-8.57004 0.007,-2.20148 0.0157,-4.3951 0.0157,-6.59657 0.007,-1.56462 0.0157,-3.12923 0.0314,-4.69388 0,-0.95134 0,-1.9027 -0.007,-2.88549 0.007,-0.83344 0.007,-1.6747 0.0157,-2.53957 -0.33022,-2.49239 -0.8963,-3.54594 -2.64961,-5.32286 -2.4688,-0.82555 -4.22999,-0.89632 -6.82457,-0.91205 -0.91205,-0.007 -1.83195,-0.0157 -2.77546,-0.0236 -0.99067,-0.007 -1.98131,-0.007 -3.00344,-0.0157 -1.01424,0 -2.02851,-0.007 -3.08207,-0.007 -2.14643,-0.007 -4.30075,-0.0157 -6.45505,-0.0157 -2.75184,-0.007 -5.51156,-0.0236 -8.26341,-0.0472 -2.6339,-0.0157 -5.26781,-0.0236 -7.89389,-0.0236 -1.48598,-0.0157 -1.48598,-0.0157 -2.99556,-0.0314 -0.91991,0 -1.83979,0.007 -2.79116,0.007 -0.80195,0 -1.61179,-0.007 -2.44522,-0.007 -2.60246,0.33809 -4.07274,1.0693 -6.14842,2.64965 z"
     fill="#000000"
     id="path6"
     style="stroke-width:0.786241;fill:#ffffff;fill-opacity:1" />
  <path
     d="m 1032.2547,95.439307 c 1.5098,0 3.0271,-0.0074 4.5366,-0.0074 3.1608,-0.0074 6.3215,0 9.4743,0.01571 4.0256,0.02361 8.0434,0.0074 12.0688,-0.01571 3.1215,-0.0074 6.2429,-0.0074 9.3642,0 1.478,0.0074 2.9641,0 4.4421,-0.0074 11.1884,-0.05503 20.9221,0.73907 29.3821,9.002483 5.8732,6.78526 8.0588,13.79854 8.0274,22.63591 0,0.63686 0.013,1.27371 0.016,1.93416 0.013,2.09927 0.013,4.19852 0.013,6.29779 0,1.47028 0,2.94055 0.013,4.41082 0.013,3.07421 0.013,6.14841 0,9.22262 0,3.93121 0.013,7.85456 0.032,11.7779 0.013,3.0349 0.013,6.06981 0.013,9.10469 0,1.44668 0,2.89337 0.013,4.34007 0.062,11.67568 -0.7627,20.70174 -8.9474,29.68064 -8.7039,8.42066 -18.5868,8.18478 -29.9952,8.12975 -1.5331,0 -3.0741,0 -4.6074,0.007 -3.2078,0 -6.4156,-0.007 -9.6236,-0.0157 -4.0885,-0.0236 -8.1768,-0.007 -12.2654,0.007 -3.1684,0.007 -6.337,0.007 -9.5055,0 -1.5017,0 -3.0114,0 -4.5209,0.007 -10.7716,0.0393 -20.3165,-0.4403 -28.5406,-8.29486 -6.01478,-6.70663 -7.98823,-13.34253 -7.98042,-22.27424 0,-0.65258 -0.0117,-1.29729 -0.0117,-1.97346 -0.0117,-2.13859 -0.0117,-4.28502 -0.0117,-6.43147 -0.0117,-1.49386 -0.0117,-2.98772 -0.0117,-4.48158 -0.0117,-3.1371 -0.0117,-6.26634 -0.0117,-9.40345 0,-4.00198 -0.0117,-8.00394 -0.0234,-12.01378 -0.0117,-3.08994 -0.0117,-6.17987 -0.0117,-9.26192 0,-1.47816 -0.0117,-2.95629 -0.0156,-4.43442 -0.0117,-2.0678 0,-4.13565 0,-6.20347 0,-0.6054 -0.0117,-1.2108 -0.0117,-1.83193 0.039,-8.15334 2.62609,-14.79707 8.04332,-20.93764 9.0102,-8.687969 18.854,-9.057499 30.6553,-8.986738 z m -8.617,33.541103 c -0.086,1.53317 -0.1106,3.06634 -0.118,4.59951 -0.013,0.98279 -0.013,1.97346 -0.016,2.98771 0,1.07716 0,2.16217 0,3.24719 -0.013,1.10075 -0.013,2.20933 -0.013,3.31008 -0.013,2.31941 -0.013,4.63096 -0.013,6.95038 0,2.97199 -0.013,5.944 -0.023,8.91598 -0.013,2.28011 -0.013,4.56022 -0.013,6.84032 0,1.09288 -0.013,2.1936 -0.016,3.28648 -0.013,1.53318 0,3.06635 0,4.59952 0,0.87274 0,1.74547 0,2.64177 0.032,2.32729 0.032,2.32729 1.769,4.51304 2.8462,1.47812 5.2285,1.77691 8.4128,1.79263 0.8807,0.007 1.7612,0.0157 2.6732,0.0236 0.9435,0 1.8869,0 2.8618,-0.007 0.9829,0.007 1.9578,0.007 2.9642,0.0157 2.5947,0.007 5.1893,0 7.7839,0 1.5881,0 3.1763,0.007 4.7567,0.0157 3.0585,0.0157 6.1092,0.0236 9.1676,0.0236 1.4153,0.007 1.4153,0.007 2.8542,0.0236 6.3528,0.0393 6.3528,0.0393 11.99,-2.67321 0.8335,-2.50812 0.8884,-4.3322 0.9121,-6.97397 0.013,-0.95136 0.016,-1.90272 0.024,-2.87765 0,-1.02999 0,-2.05995 0.013,-3.11351 0,-1.0693 0.013,-2.13073 0.016,-3.19215 0.013,-2.23294 0.013,-4.46584 0.016,-6.69093 0,-2.86192 0.016,-5.71597 0.039,-8.57003 0.016,-2.20149 0.024,-4.39509 0.024,-6.59657 0,-1.56463 0.016,-3.12925 0.032,-4.69386 0,-0.95136 -0.013,-1.90272 -0.013,-2.88551 0.013,-0.84128 0.013,-1.6747 0.013,-2.53957 -0.3303,-2.49239 -0.8884,-3.55381 -2.6417,-5.33072 -2.4769,-0.81769 -4.23,-0.89632 -6.8247,-0.91206 -0.92,-0.007 -1.832,-0.0157 -2.7754,-0.0236 -0.9908,0 -1.9814,0 -3.0034,-0.007 -1.0143,0 -2.0364,-0.007 -3.0821,-0.0157 -2.1544,-0.007 -4.3086,-0.007 -6.4551,-0.0157 -2.7597,0 -5.5116,-0.0236 -8.2634,-0.0393 -2.6339,-0.0236 -5.2679,-0.0236 -7.9017,-0.0236 -1.4781,-0.0157 -1.4781,-0.0157 -2.9878,-0.0314 -0.9199,0 -1.8397,0 -2.7911,0.007 -0.8099,-0.007 -1.6119,-0.007 -2.4451,-0.007 -2.807,0.36169 -4.922,1.41525 -6.9347,3.42803 z"
     fill="#000000"
     id="path7"
     style="stroke-width:0.786241;fill:#ffffff;fill-opacity:1" />
  <path
     d="m 437.30148,95.840417 c 0.69975,-0.0074 1.40739,-0.01571 2.13074,-0.02361 0.7705,0 1.54889,0 2.34298,-0.0074 0.81769,-0.0074 1.62753,-0.01571 2.4688,-0.01571 2.69682,-0.02361 5.40148,-0.03932 8.10614,-0.04722 1.38381,-0.0074 1.38381,-0.0074 2.79904,-0.01571 4.89042,-0.01571 9.78872,-0.03141 14.67914,-0.04712 5.04766,-0.0074 10.0875,-0.04721 15.1273,-0.08654 3.89191,-0.02361 7.77593,-0.03141 11.65999,-0.03932 1.86337,-0.0074 3.7189,-0.01571 5.57443,-0.03932 12.83147,-0.117931 22.55729,0.07864 32.24381,9.466353 7.5715,8.68799 8.30271,18.23297 8.27126,29.31898 -0.007,1.65112 0.0157,3.29435 0.0314,4.94547 0.0551,10.70076 -1.58036,20.28504 -8.96316,28.46197 -4.00197,3.83685 -8.06685,5.99117 -13.33467,7.65798 3.05848,6.51009 7.66589,12.35187 11.8408,18.18579 0.33022,0.46389 0.66046,0.91991 0.99854,1.39952 1.53319,2.13071 3.0742,4.25358 4.63881,6.36855 0.5032,0.69191 1.01426,1.39166 1.54105,2.10714 0.44816,0.6054 0.89633,1.2108 1.36022,1.83193 0.28304,0.51107 0.55821,1.02999 0.84913,1.55678 -0.78624,2.35872 -0.78624,2.35872 -3.14497,3.68746 -7.19413,2.44522 -16.70766,2.16218 -23.5401,-1.18721 -0.80195,-0.45603 -0.80195,-0.45603 -1.61965,-0.92777 -0.47961,-0.24374 -0.95136,-0.49534 -1.4467,-0.74693 -4.89826,-2.96414 -7.90172,-8.02753 -11.13316,-12.61919 -0.47178,-0.66046 -0.94352,-1.32088 -1.42312,-1.99705 -0.4403,-0.62114 -0.88059,-1.24227 -1.32874,-1.87912 -0.42458,-0.58969 -0.84914,-1.17936 -1.28944,-1.77691 -1.46241,-2.20934 -1.46241,-2.20934 -2.69683,-4.79608 -2.72037,-5.19707 -2.72037,-5.19707 -7.54005,-8.20051 -4.92185,-0.857 -9.88305,-0.629 -14.85999,-0.46388 -1.52531,0.0157 -3.04273,0.0236 -4.56806,0.0236 -3.70319,0.0236 -7.4064,0.10224 -11.10959,0.22015 0.0236,1.20296 0.0236,1.20296 0.0472,2.42162 0.007,1.06143 0.0157,2.12287 0.0314,3.19216 0.007,0.5189 0.0157,1.04568 0.0314,1.5882 0.063,8.16905 -3.19213,14.49044 -8.75873,20.31649 -4.98477,4.64669 -10.91303,7.96464 -17.82412,7.90174 -0.63686,-0.007 -1.2737,-0.0157 -1.93414,-0.0157 -0.73122,-0.007 -0.73122,-0.007 -1.47028,-0.0236 -0.0551,-13.74351 -0.0944,-27.48705 -0.1258,-41.23055 -0.007,-6.38429 -0.0236,-12.76071 -0.055,-19.145 -0.0236,-5.56658 -0.0393,-11.12532 -0.0393,-16.69192 -0.007,-2.94054 -0.0157,-5.88896 -0.0314,-8.82949 -0.0157,-3.29436 -0.0157,-6.58084 -0.0157,-9.87519 -0.007,-0.97496 -0.0157,-1.94203 -0.0236,-2.94843 0.0157,-4.90616 0.16511,-8.64081 2.64964,-12.925829 2.94056,-2.720398 4.8747,-4.0177 8.85308,-4.049143 z m 18.66541,29.995143 c 0,8.04325 0,16.08652 0,24.37351 8.84521,0.0472 8.84521,0.0472 17.6983,0.0787 3.60886,0.007 7.21771,0.0236 10.82654,0.0393 2.9091,0.0236 5.8182,0.0314 8.73518,0.0314 1.10859,0.007 2.21718,0.007 3.32577,0.0236 1.55678,0.007 3.11353,0.007 4.67031,0.007 1.32873,0.007 1.32873,0.007 2.68107,0.007 2.46093,-0.18871 4.13563,-0.60542 6.31351,-1.76119 2.34303,-3.5145 1.83194,-6.87176 1.81625,-11.00738 0.0157,-0.79412 0.0236,-1.58822 0.0393,-2.40591 0,-1.14005 0,-1.14005 0,-2.31156 0.007,-0.69188 0.007,-1.39164 0.007,-2.10712 -0.35382,-2.1936 -0.88847,-2.86193 -2.64965,-4.18282 -2.61817,-0.87273 -4.56019,-0.88057 -7.31992,-0.87273 -1.0221,0 -2.04421,0 -3.09778,0 -1.11647,0.007 -2.23293,0.007 -3.3494,0.0157 -1.14005,0 -2.28795,0 -3.42801,0 -3.00346,0 -6.01477,0.007 -9.01819,0.0236 -3.60101,0.007 -7.20984,0.007 -10.8187,0.0157 -5.4801,0.007 -10.95235,0.0236 -16.43246,0.0314 z"
     fill="#000000"
     id="path8"
     style="stroke-width:0.786241;fill:#ffffff;fill-opacity:1" />
  <path
     d="m 310.8304,95.541996 c 0.80984,-0.0074 1.62755,-0.01571 2.46881,-0.02361 2.68111,-0.01571 5.37005,-0.0074 8.05114,0 1.8791,-0.0074 3.75034,-0.0074 5.62947,-0.01571 3.92337,-0.0074 7.85459,-0.0074 11.78578,0.0074 5.01621,0.0074 10.03246,-0.0074 15.05655,-0.03141 3.86832,-0.02361 7.74446,-0.01571 11.61277,-0.01571 1.85554,0 3.70322,0 5.55088,-0.01571 12.79217,-0.06293 22.46294,0.212282 32.14945,9.521374 4.5366,5.24425 7.29633,10.91304 7.36709,17.84772 0.0157,1.21867 0.0157,1.21867 0.0314,2.45308 0.007,0.87271 0.0157,1.74544 0.0157,2.64177 0.007,0.89631 0.0157,1.80048 0.0236,2.72826 0.007,1.91056 0.0157,3.82112 0.0236,5.73171 0.0157,2.90121 0.0472,5.81033 0.0865,8.71155 0.007,1.85552 0.007,3.71892 0.0157,5.57446 0.0157,0.86486 0.0314,1.72187 0.0393,2.61032 -0.0157,6.98184 -1.6904,13.24819 -5.8732,18.95631 -0.51894,0 -1.03787,0 -1.57251,0 -0.16511,0.44028 -0.33022,0.88059 -0.49533,1.32875 -3.27862,5.51155 -8.64868,7.03686 -14.44326,8.89239 -1.17152,0.39313 -1.17152,0.39313 -2.35876,0.78625 -2.0049,0.0708 -3.97835,0.10225 -5.97543,0.0944 -0.90417,0 -0.90417,0 -1.83193,0 -2.00489,0 -4.00985,-0.007 -6.01476,-0.0157 -1.39162,0 -2.77543,0 -4.16708,0 -3.65602,-0.007 -7.31206,-0.0157 -10.96806,-0.0236 -3.73466,-0.007 -7.46146,-0.007 -11.1961,-0.0157 -7.31992,-0.007 -14.63984,-0.0236 -21.95975,-0.0393 0.007,1.31302 0.007,1.31302 0.0157,2.64178 -0.0472,7.42998 -3.82897,13.15383 -8.66436,18.58676 -4.90617,4.21425 -10.56713,7.24129 -17.1008,7.13121 -0.62897,-0.007 -1.25797,-0.0157 -1.91057,-0.0236 -0.47174,-0.007 -0.94347,-0.0157 -1.43095,-0.0314 -0.0787,-13.96365 -0.13365,-27.91946 -0.16513,-41.88312 -0.0157,-6.48649 -0.0393,-12.97299 -0.0787,-19.45162 -0.0314,-5.65309 -0.0473,-11.30617 -0.0551,-16.95139 -0.007,-2.99559 -0.0157,-5.99116 -0.0393,-8.97889 -0.0157,-2.81474 -0.0236,-5.63736 -0.0236,-8.45211 0,-1.5253 -0.0157,-3.05061 -0.0314,-4.57593 0.0393,-8.53072 0.0393,-8.53072 3.5381,-12.139573 4.06486,-3.65602 7.68945,-3.593123 12.89436,-3.56168 z m 13.05163,31.080154 c -0.0708,2.27224 -0.0944,4.5209 -0.0787,6.78528 0,0.68402 0,1.36019 0,2.05995 0.007,2.1779 0.0157,4.35578 0.0236,6.54155 0.007,1.47026 0.007,2.94053 0.0157,4.41867 0.007,3.61672 0.0157,7.24128 0.0393,10.85801 6.58087,0.0551 13.16171,0.10224 19.74257,0.12579 3.05847,0.007 6.10908,0.0314 9.16756,0.0551 2.95629,0.0236 5.90468,0.0393 8.8531,0.0472 1.12431,0 2.24865,0.007 3.37295,0.0236 1.58037,0.0157 3.16072,0.0157 4.74104,0.0157 0.89633,0.007 1.79263,0.0157 2.72041,0.0157 2.88551,-0.32236 4.76464,-1.09288 7.22555,-2.64178 1.41527,-4.2457 0.95922,-8.82165 0.98282,-13.2639 0.0157,-1.00639 0.0314,-2.01278 0.0473,-3.05062 0,-0.96707 0.007,-1.94202 0.007,-2.94055 0.007,-0.88845 0.0157,-1.76904 0.0236,-2.68895 -0.31452,-2.72826 -0.96708,-4.19067 -2.63395,-6.3607 -2.61816,-0.86487 -4.56018,-0.88058 -7.31202,-0.88845 -1.01425,0 -2.03637,0 -3.08995,-0.007 -1.11646,0.007 -2.22506,0.007 -3.34153,0.007 -1.14005,0 -2.28007,0 -3.42014,0 -2.39018,0 -4.78033,0 -7.17052,0 -3.06636,0.007 -6.13269,0.007 -9.19905,0 -2.35872,0 -4.7096,0 -7.06044,0 -1.13218,0 -2.26437,0 -3.39659,0 -1.58033,-0.007 -3.1607,0 -4.73317,0 -0.90418,0 -1.80051,0.007 -2.72825,0.007 -1.96561,-0.13366 -1.96561,-0.13366 -2.79903,0.88059 z"
     fill="#000000"
     id="path9"
     style="stroke-width:0.786241;fill:#ffffff;fill-opacity:1" />
  <path
     d="m 1155.7624,98.221862 c 0.5032,0.290916 1.0143,0.581822 1.5332,0.880591 0.4796,0.228019 0.9593,0.456016 1.4546,0.691889 3.546,1.753328 5.7631,4.174958 8.2556,7.201988 1.1478,1.36021 2.3193,2.58673 3.6088,3.80541 1.6196,1.66683 1.6196,1.66683 1.6196,3.23931 0.5189,0 1.0378,0 1.5724,0 1.0223,1.02213 1.0223,1.02213 2.2567,2.50812 2.6967,3.17642 5.4801,6.24276 8.3105,9.28552 0.6369,0.69976 0.6369,0.69976 1.2973,1.40738 1.0222,1.10073 2.0443,2.20934 3.0742,3.31008 3.0584,-1.21868 4.7647,-3.15283 6.9268,-5.59806 0.5268,-0.58968 0.5268,-0.58968 1.0615,-1.18722 1.8712,-2.10713 3.7267,-4.24569 5.5744,-6.37643 2.7676,-3.1764 5.5981,-6.28993 8.4521,-9.38772 0.456,-0.50319 0.912,-1.01426 1.3837,-1.53317 5.433,-5.87323 10.9995,-9.914517 19.1215,-10.763665 9.0575,-0.314486 15.8979,2.240799 22.7381,8.114025 -0.7863,1.57248 -1.5726,3.14497 -2.3587,4.71745 -0.5189,0 -1.0378,0 -1.5725,0 -0.3146,0.69975 -0.3146,0.69975 -0.629,1.41524 -0.9748,1.8005 -1.9656,2.89337 -3.4516,4.29289 -1.9106,1.84766 -3.719,3.72678 -5.4566,5.74742 -3.1685,3.68749 -6.5022,7.22558 -9.8437,10.76366 -0.4246,0.45602 -0.8569,0.91989 -1.3051,1.39165 -0.3853,0.40884 -0.7784,0.82554 -1.1715,1.25012 -1.03,1.09288 -1.03,1.09288 -1.7298,2.6575 -0.519,0 -1.0379,0 -1.5725,0 -0.1809,0.42458 -0.3538,0.84914 -0.5425,1.28157 -1.3916,2.51598 -3.0269,4.458 -4.9611,6.58085 -0.519,0 -1.038,0 -1.5726,0 -0.2044,0.45602 -0.4009,0.90419 -0.6054,1.36807 -1.0692,1.97345 -2.3193,3.45946 -3.8211,5.1263 -0.739,0.82556 -0.739,0.82556 -1.5017,1.68257 -0.3774,0.41669 -0.7548,0.8334 -1.1479,1.25797 1.0457,2.31155 2.2013,3.98625 3.9627,5.81034 0.684,0.71548 0.684,0.71548 1.3837,1.45455 0.9592,0.99851 1.9263,1.99705 2.8934,2.99556 0.6762,0.7155 0.6762,0.7155 1.376,1.4467 0.4166,0.43243 0.8334,0.86487 1.2658,1.31302 0.912,1.13219 0.912,1.13219 0.912,2.70468 0.519,0 1.0379,0 1.5725,0 1.0536,1.04569 1.0536,1.04569 2.3116,2.56315 1.7848,2.10713 3.5931,4.17495 5.48,6.19557 0.5897,0.629 0.5897,0.629 1.1874,1.27373 0.7863,0.84127 1.5802,1.68255 2.3744,2.52383 2.7989,2.99559 2.7989,2.99559 2.7989,4.74103 0.7784,0.25948 1.5568,0.52679 2.3588,0.78625 1.1873,1.17937 1.1873,1.17937 2.453,2.70468 2.8069,3.33366 5.7633,6.49436 8.7744,9.6472 1.3524,1.80048 1.3524,1.80048 1.3524,4.94545 -4.1041,4.46586 -9.5685,6.82459 -15.4969,7.32778 -9.0653,0.3774 -15.4889,-1.52531 -22.7144,-7.03686 -0.5425,-0.52679 -0.5425,-0.52679 -1.1008,-1.07715 0,-0.51894 0,-1.02999 0,-1.5725 -0.5189,0 -1.0377,0 -1.5725,0 -1.0536,-1.03783 -1.0536,-1.03783 -2.3115,-2.54741 -1.7769,-2.09928 -3.5695,-4.16709 -5.4486,-6.17201 -0.5897,-0.629 -0.5897,-0.629 -1.1794,-1.26585 -0.7784,-0.83341 -1.5645,-1.66682 -2.3508,-2.49239 -1.7378,-1.87125 -2.8305,-3.14497 -3.6483,-5.60591 -0.5189,0 -1.0377,0 -1.5723,0 -1.1873,-1.14791 -1.1873,-1.14791 -2.4611,-2.64962 -0.4166,-0.49534 -0.8413,-0.98281 -1.2815,-1.49388 -0.975,-1.36019 -0.975,-1.36019 -0.975,-2.93266 -1.0378,0 -2.0755,0 -3.1448,0 -0.3932,1.17149 -0.3932,1.17149 -0.7863,2.35872 -0.519,0 -1.0379,0 -1.5725,0 -0.2045,0.46387 -0.4168,0.92776 -0.6291,1.39951 -0.9827,1.82408 -2.052,3.08992 -3.4829,4.58379 -0.5033,0.53464 -1.0065,1.06142 -1.5253,1.60393 -0.5191,0.55037 -1.0458,1.09288 -1.5884,1.65898 -3.5458,3.71104 -7.0368,7.45357 -10.3939,11.3376 -4.6154,5.29928 -9.7653,10.39413 -16.9751,11.65211 -10.3156,0.69976 -17.6276,-0.5661 -25.946,-7.07618 0.4559,-2.4688 1.1322,-3.79755 2.8697,-5.59804 0.4168,-0.4403 0.8335,-0.8806 1.266,-1.33662 0.4324,-0.44815 0.8648,-0.90418 1.3209,-1.36806 0.8569,-0.89631 1.7139,-1.80048 2.5708,-2.70467 0.3853,-0.39312 0.7706,-0.79409 1.1639,-1.1951 1.2029,-1.2973 1.2029,-1.2973 2.6023,-3.52236 0.5189,0 1.0378,0 1.5724,0 0.2046,-0.45601 0.4089,-0.91203 0.6133,-1.38377 1.0299,-1.89485 2.17,-3.20787 3.664,-4.76464 0.5267,-0.55036 1.0456,-1.10073 1.5882,-1.66683 0.5424,-0.56609 1.0929,-1.13219 1.6511,-1.71401 1.085,-1.13218 2.1699,-2.26436 3.2472,-3.39656 0.4796,-0.49533 0.9593,-0.99853 1.4545,-1.50958 1.2107,-1.25013 1.2107,-1.25013 1.9342,-2.86193 0.5189,0 1.0377,0 1.5723,0 0.1968,-0.44815 0.4012,-0.90418 0.6056,-1.37593 1.0772,-1.96561 2.2959,-3.29435 3.8683,-4.88256 0.5661,-0.58182 1.132,-1.16364 1.706,-1.75331 1.1873,-1.21083 2.3825,-2.42162 3.5774,-3.62458 0.5583,-0.57396 1.1245,-1.15578 1.6984,-1.75331 0.5189,-0.51894 1.0299,-1.04572 1.5646,-1.58034 1.4389,-1.64327 1.4389,-1.64327 1.1323,-4.68602 -0.7784,-0.25946 -1.5568,-0.51107 -2.3588,-0.78625 -1.1323,-1.11646 -1.1323,-1.11646 -2.3588,-2.60246 -1.7689,-2.0914 -3.5539,-4.14349 -5.425,-6.14054 -0.5896,-0.63685 -0.5896,-0.63685 -1.1951,-1.28158 -0.7941,-0.84129 -1.5803,-1.68256 -2.3744,-2.52384 -2.7991,-2.99558 -2.7991,-2.99558 -2.7991,-4.74891 -0.5189,0 -1.0378,0 -1.5725,0 -1.0535,-1.03783 -1.0535,-1.03783 -2.3115,-2.54741 -2.4138,-2.84622 -4.8905,-5.61378 -7.4222,-8.35777 -0.739,-0.80983 -1.4781,-1.61179 -2.2171,-2.42162 -1.4389,-1.56462 -2.8854,-3.12924 -4.3323,-4.69386 -0.6447,-0.69976 -1.2815,-1.39951 -1.9499,-2.12287 -0.5739,-0.62898 -1.1557,-1.25012 -1.7532,-1.89483 -1.2422,-1.54891 -1.2422,-1.54891 -1.2422,-3.12139 -0.7786,-0.25945 -1.5569,-0.51105 -2.3589,-0.78624 0,-0.51106 0,-1.03783 0,-1.57249 -0.5189,0 -1.0378,0 -1.5724,0 0.2516,-2.35085 0.7469,-3.10563 2.5081,-4.76461 8.3185,-5.731726 18.9012,-8.137626 28.1946,-3.192158 z"
     fill="#000000"
     id="path10"
     style="stroke-width:0.786241;fill:#ffffff;fill-opacity:1" />
  <path
     d="m 721.02272,98.519767 c 6.26636,3.797553 12.13958,9.560713 16.41674,15.528293 0,0.51892 0,1.03783 0,1.57249 0.77837,0.25945 1.55676,0.5189 2.35872,0.78624 1.38381,1.33661 1.38381,1.33661 2.80691,2.99558 0.69975,0.80983 0.69975,0.80983 1.42309,1.63539 1.19508,1.5489 2.04421,3.02702 2.84618,4.80393 0.51894,0 1.03786,0 1.57248,0 1.18725,1.20295 1.18725,1.20295 2.46096,2.75185 0.42456,0.51105 0.84913,1.02212 1.28156,1.54103 0.32235,0.40099 0.64474,0.80197 0.97493,1.21081 2.08355,-2.19361 4.16711,-4.38722 6.24278,-6.58871 0.59753,-0.62113 1.1872,-1.2501 1.80049,-1.89482 0.56608,-0.59755 1.12432,-1.19511 1.714,-1.80838 0.51892,-0.55036 1.04572,-1.10073 1.58037,-1.6747 1.29728,-1.34447 1.29728,-1.34447 2.02849,-2.97198 0.51893,0 1.03783,0 1.5725,0 0.20439,-0.45603 0.40882,-0.90419 0.61327,-1.36807 1.05356,-1.94988 2.25651,-3.45946 3.71106,-5.11843 0.4796,-0.55823 0.9592,-1.11646 1.45452,-1.68256 1.29732,-1.26585 1.29732,-1.26585 2.86979,-1.26585 0.25947,-0.77838 0.51892,-1.55676 0.78625,-2.35873 0.51892,0 1.03785,0 1.57249,0 0.25945,-0.77838 0.51891,-1.55676 0.78624,-2.35873 1.63538,-1.21081 1.63538,-1.21081 3.68747,-2.413762 0.66832,-0.39312 1.33661,-0.794104 2.02065,-1.202949 6.32923,-3.239321 13.27179,-3.868313 20.175,-2.083541 4.88253,1.879112 9.63144,3.891892 11.85651,8.845222 -0.5425,0.58968 -1.08501,1.17936 -1.64326,1.78477 -2.33513,2.54743 -4.67027,5.09485 -7.0054,7.65014 -0.53466,0.58967 -0.53466,0.58967 -1.09287,1.18722 -0.97497,1.07716 -1.95777,2.1543 -2.93269,3.23147 -0.85701,0.94348 -0.85701,0.94348 -1.72974,1.9027 -1.36021,1.45454 -1.36021,1.45454 -2.10711,3.11352 -0.51895,0 -1.03786,0 -1.57248,0 -0.25949,0.77838 -0.51895,1.55676 -0.78626,2.35872 -0.51894,0 -1.03784,0 -1.57247,0 -0.15727,0.40884 -0.32238,0.82555 -0.48748,1.25013 -1.5489,2.71253 -3.64817,4.79607 -5.80249,7.05259 -0.84913,0.89631 -1.70616,1.8005 -2.5553,2.70467 -0.37735,0.39313 -0.75477,0.79409 -1.14004,1.20296 -1.18721,1.28943 -1.18721,1.28943 -2.59459,3.5145 -0.51891,0 -1.03782,0 -1.57247,0 -0.20441,0.44816 -0.40099,0.89631 -0.61329,1.36019 -1.0457,1.94989 -2.25648,3.45948 -3.71105,5.12631 -0.4796,0.55037 -0.95135,1.1086 -1.4467,1.68256 -1.30515,1.26584 -1.30515,1.26584 -2.87763,1.26584 0.40099,3.27863 1.21866,4.70173 3.64028,6.92679 2.27225,2.16217 4.45015,4.34006 6.53367,6.68307 0.66833,0.74693 0.66833,0.74693 1.35233,1.50958 1.05358,1.39165 1.05358,1.39165 1.83983,3.75038 1.17153,0.38525 1.17153,0.38525 2.35872,0.78624 1.18724,1.17151 1.18724,1.17151 2.46095,2.6968 2.11499,2.4924 4.24569,4.95333 6.43932,7.37498 0.58179,0.65257 1.17148,1.30514 1.77691,1.98131 1.36019,1.49386 2.72827,2.97986 4.10419,4.46585 0.36165,0.39312 0.72334,0.77839 1.10076,1.18723 1.0221,1.10861 2.05993,2.21721 3.0899,3.32581 1.47029,1.76904 1.47029,1.76904 1.47029,3.34153 0.77837,0.25946 1.55676,0.51891 2.35872,0.78625 1.26584,1.19508 1.26584,1.19508 2.5081,2.64962 0.41671,0.47962 0.83342,0.95136 1.26585,1.44669 0.9435,1.40737 0.9435,1.40737 0.9435,3.7661 -2.13858,1.89485 -4.59952,3.2865 -7.07617,4.71746 -0.47177,0.26732 -0.94349,0.54251 -1.42311,0.82555 -6.172,2.90124 -15.3317,2.58673 -21.66882,0.40098 -4.52877,-2.14644 -7.98037,-5.59019 -11.50274,-9.08896 -0.51108,-0.49533 -1.02211,-0.98279 -1.5489,-1.49385 -3.0506,-2.97199 -6.17201,-6.05408 -8.67224,-9.51353 0,-0.51893 0,-1.03786 0,-1.57249 -1.16364,-0.39313 -1.16364,-0.39313 -2.35872,-0.78623 -1.37593,-1.3445 -1.37593,-1.3445 -2.79904,-3.00345 -0.47176,-0.53466 -0.94349,-1.07716 -1.43096,-1.63541 -1.18722,-1.54889 -2.04422,-3.01915 -2.84618,-4.79606 -0.51894,0 -1.03786,0 -1.57247,0 -0.51896,-0.51891 -1.03787,-1.03784 -1.57253,-1.57249 -0.51891,0 -1.03782,0 -1.57248,0 -0.19656,0.44816 -0.40097,0.90419 -0.60541,1.36807 -1.06927,1.96561 -2.28794,3.34154 -3.84471,4.95332 -0.55822,0.58182 -1.11647,1.1715 -1.69043,1.76905 -0.87273,0.91205 -0.87273,0.91205 -1.76904,1.83194 -1.15577,1.20295 -2.31155,2.41377 -3.46732,3.61671 -0.51108,0.53465 -1.02211,1.06929 -1.55677,1.61181 -1.27369,1.30517 -1.27369,1.30517 -2.0049,2.93267 -0.51893,0 -1.03784,0 -1.5725,0 -0.29091,0.65259 -0.29091,0.65259 -0.58968,1.32088 -3.60886,6.68306 -10.44128,12.17891 -17.57251,14.69488 -7.60297,1.64324 -15.93712,1.45454 -22.7224,-2.64964 -1.9892,-1.47813 -3.70319,-3.00344 -5.5037,-4.71746 1.07717,-2.39016 2.30372,-4.09632 4.11205,-5.98328 0.7312,-0.77052 0.7312,-0.77052 1.47813,-1.55677 0.5032,-0.52678 1.01427,-1.06144 1.54104,-1.60393 1.00641,-1.05357 2.01276,-2.115 3.01917,-3.17642 0.44817,-0.46389 0.8963,-0.92777 1.36019,-1.40737 1.14792,-1.19508 1.14792,-1.19508 1.85553,-2.78331 0.51894,0 1.03787,0 1.57248,0 0.20445,-0.45602 0.40101,-0.91204 0.60544,-1.37592 1.07714,-1.96561 2.29583,-3.33367 3.84472,-4.94547 0.55821,-0.58968 1.11647,-1.17149 1.69828,-1.7769 0.5818,-0.60541 1.16364,-1.2108 1.76903,-1.83195 1.15579,-1.20295 2.31155,-2.40589 3.46732,-3.61671 0.51107,-0.53464 1.02214,-1.06143 1.5489,-1.61179 1.2816,-1.30517 1.2816,-1.30517 2.00494,-2.92483 0.51892,0 1.03781,0 1.57248,0 0.2909,-0.66045 0.2909,-0.66045 0.58968,-1.32875 1.64326,-3.04275 3.86832,-5.84176 6.4865,-8.10615 0.51891,0 1.03782,0 1.57247,0 0.22801,-0.45603 0.45602,-0.91205 0.6919,-1.37593 0.81769,-1.64324 1.63537,-3.27863 2.45309,-4.91402 -2.54743,-2.96412 -5.12629,-5.89681 -7.79167,-8.75873 -0.39312,-0.41671 -0.78622,-0.84127 -1.18723,-1.27371 -0.78624,-0.84128 -1.58035,-1.68256 -2.37444,-2.52384 -2.79902,-2.99558 -2.79902,-2.99558 -2.79902,-4.74103 -0.7784,-0.25948 -1.55676,-0.51893 -2.35873,-0.78626 -1.12435,-1.12432 -1.12435,-1.12432 -2.35872,-2.61032 -1.7612,-2.0914 -3.55384,-4.14349 -5.42508,-6.14054 -0.58968,-0.63687 -0.58968,-0.63687 -1.19511,-1.28159 -0.78624,-0.84128 -1.58034,-1.68255 -2.37444,-2.52383 -2.79902,-2.99557 -2.79902,-2.99557 -2.79902,-4.74104 -0.51892,0 -1.03782,0 -1.57249,0 -1.16366,-1.15577 -1.16366,-1.15577 -2.50024,-2.75185 -0.73121,-0.85701 -0.73121,-0.85701 -1.4624,-1.72187 -0.51107,-0.59754 -1.01426,-1.20296 -1.54105,-1.81621 -1.02999,-1.18724 -2.05995,-2.36659 -3.08994,-3.5381 -0.8098,-0.9199 -1.6118,-1.83981 -2.41376,-2.75185 1.15578,-2.95627 2.59459,-4.03343 5.30714,-5.605913 0.66045,-0.393119 1.3209,-0.778376 2.00491,-1.187222 8.059,-4.072731 16.88063,-3.915482 25.01823,-0.08644 z"
     fill="#000000"
     id="path11"
     style="stroke-width:0.786241;fill:#ffffff;fill-opacity:1" />
  <path
     d=""
     fill="#e27104"
     id="path12" />
  <path
     d=""
     fill="#e27104"
     id="path13" />
  <path
     d=""
     fill="#e27104"
     id="path14" />
  <path
     d=""
     fill="#e27104"
     id="path15" />
</svg>
