<?xml version="1.0" encoding="UTF-8"?>
<!-- Generator: visioncortex VTracer 0.6.3 -->
<svg version="1.1" xmlns="http://www.w3.org/2000/svg" width="1280" height="1219">
<path d="M0 0 C0 0.66 0 1.32 0 2 C1.49 1.5 1.49 1.5 3 1 C9.34 1.68 15.1 3.7 21 6 C22.66 6.38 24.32 6.74 26 7 C26 7.66 26 8.32 26 9 C26.71 9.11 27.41 9.22 28.14 9.34 C31.27 10.06 33.9 11.19 36.81 12.56 C38.28 13.25 38.28 13.25 39.77 13.94 C40.51 14.29 41.24 14.64 42 15 C42 15.66 42 16.32 42 17 C43.07 17.38 43.07 17.38 44.16 17.76 C47.3 19.13 49.75 20.83 52.5 22.88 C53.42 23.55 54.34 24.23 55.28 24.93 C63.32 31.05 63.32 31.05 66 35 C62.73 42.17 56.53 47.6 50.89 52.95 C48.86 55.04 48.86 55.04 47.09 57.91 C44.89 61.16 42.51 63.65 39.69 66.38 C35.85 70.12 32.22 73.96 28.75 78.04 C26.74 80.3 24.6 82.39 22.44 84.5 C19.69 87.2 17.24 89.87 15 93 C12.12 97.01 8.76 100.34 5.23 103.78 C2.59 106.41 0.17 109.2 -2.25 112.04 C-4.11 114.12 -6.06 116.06 -8.06 118 C-10.58 120.48 -12.77 122.93 -14.81 125.81 C-18.13 130.43 -22.18 134.21 -26.24 138.17 C-29.62 141.63 -32.55 145.33 -35.44 149.2 C-35.96 149.79 -36.47 150.39 -37 151 C-37.66 151 -38.32 151 -39 151 C-39.33 151.99 -39.66 152.98 -40 154 C-40.66 154 -41.32 154 -42 154 C-42.25 154.57 -42.5 155.13 -42.75 155.71 C-44.21 158.38 -45.94 160.33 -48 162.56 C-48.79 163.43 -49.59 164.3 -50.41 165.19 C-51.26 166.12 -52.12 167.05 -53 168 C-54.39 169.51 -55.77 171.02 -57.16 172.53 C-58.45 173.94 -59.74 175.35 -61.03 176.75 C-63.02 178.83 -63.02 178.83 -64 181 C-64.66 181 -65.32 181 -66 181 C-66.4 181.89 -66.4 181.89 -66.8 182.8 C-68.04 185.08 -69.3 186.47 -71.19 188.25 C-73.74 190.72 -76.13 193.24 -78.44 195.94 C-80.92 198.83 -83.52 201.53 -86.25 204.19 C-89.07 206.95 -91.05 209.56 -93 213 C-94.62 214.71 -96.3 216.37 -98 218 C-102.27 222.16 -106.29 226.44 -110.18 230.96 C-112.08 233.09 -114.08 235.07 -116.12 237.06 C-118.68 239.57 -120.85 242.05 -122.88 245 C-123.58 245.99 -124.28 246.98 -125 248 C-125.66 248 -126.32 248 -127 248 C-125.2 253.29 -123.35 255.8 -119.01 259.22 C-115.71 262.14 -113.16 265.66 -110.42 269.11 C-107.15 273.02 -103.57 276.49 -99.87 280 C-98 282 -98 282 -98 284 C-97.34 284 -96.68 284 -96 284 C-94.84 285.4 -94.84 285.4 -93.5 287.38 C-90.24 291.89 -86.44 295.65 -82.46 299.54 C-79.65 302.35 -77.05 305.29 -74.47 308.31 C-73.24 309.73 -71.91 311.06 -70.56 312.38 C-69 314 -69 314 -69 316 C-68.01 316.33 -67.02 316.66 -66 317 C-65.31 319.06 -65.31 319.06 -65 321 C-64.34 321 -63.68 321 -63 321 C-61.56 322.44 -61.56 322.44 -59.89 324.45 C-55.98 329.04 -51.89 333.43 -47.75 337.81 C-47.04 338.56 -46.34 339.31 -45.61 340.08 C-42.02 343.92 -42.02 343.92 -38.28 347.61 C-37 349 -37 349 -37 351 C-36.34 351 -35.68 351 -35 351 C-34.05 352.42 -33.1 353.85 -32.18 355.3 C-30.19 358.16 -27.69 360.47 -25.19 362.88 C-21.07 366.9 -17.13 370.99 -13.4 375.38 C-11.88 377.18 -11.88 377.18 -9.56 379.38 C-8 381 -8 381 -8 383 C-7.01 383.33 -6.02 383.66 -5 384 C-4.05 385.41 -3.11 386.83 -2.21 388.27 C0.06 391.51 2.98 394.14 5.81 396.88 C19.42 410.26 19.42 410.26 21 415 C21.99 415.33 22.98 415.66 24 416 C24 416.66 24 417.32 24 418 C24.66 418 25.32 418 26 418 C27.12 419.36 27.12 419.36 28.44 421.31 C31.54 425.6 35.1 429.22 38.88 432.91 C42.29 436.25 45.48 439.71 48.56 443.34 C49.99 445.04 49.99 445.04 51.69 446.59 C53 448 53 448 53 450 C53.99 450.33 54.98 450.66 56 451 C57.72 452.96 57.72 452.96 59.5 455.38 C61.91 458.67 61.91 458.67 64.78 461.54 C66 463 66 463 66.02 464.86 C64.5 468.04 62.23 469.91 59.62 472.25 C59.13 472.71 58.63 473.17 58.12 473.64 C54.39 477 54.39 477 51 477 C50.76 477.61 50.52 478.21 50.27 478.84 C48.72 481.47 47.4 482.21 44.7 483.62 C43.83 484.08 42.96 484.54 42.07 485.01 C41.14 485.48 40.21 485.95 39.25 486.44 C38.3 486.92 37.35 487.41 36.37 487.91 C25.69 493.3 15.51 497.18 3.55 498.64 C1.01 498.86 1.01 498.86 -1 500 C-3.44 500.11 -5.84 500.16 -8.28 500.17 C-9.01 500.17 -9.74 500.17 -10.49 500.18 C-12.03 500.18 -13.58 500.19 -15.13 500.19 C-17.46 500.19 -19.8 500.21 -22.13 500.22 C-29.95 500.25 -37.4 500.03 -45 498 C-46.69 497.61 -46.69 497.61 -48.41 497.21 C-62.88 493.3 -76.34 487.55 -88 478 C-89.34 476.94 -89.34 476.94 -90.71 475.86 C-93.16 473.92 -95.58 471.97 -98 470 C-99.26 469.05 -99.26 469.05 -100.54 468.07 C-103.09 465.92 -104.98 463.71 -107 461.06 C-109.82 457.46 -112.67 454.16 -116 451 C-120.24 446.88 -124.26 442.64 -128.12 438.17 C-130.22 435.75 -132.35 433.37 -134.5 431 C-137.24 427.96 -139.95 424.91 -142.62 421.81 C-144.89 419.21 -147.23 416.73 -149.69 414.31 C-152.35 411.69 -154.82 409.05 -157 406 C-157 405.34 -157 404.68 -157 404 C-157.99 403.67 -158.98 403.34 -160 403 C-160 402.34 -160 401.68 -160 401 C-160.86 400.66 -160.86 400.66 -161.74 400.32 C-164.64 398.63 -166.14 396.59 -168.19 393.94 C-171.95 389.19 -175.95 384.94 -180.35 380.78 C-182 379 -182 379 -182 377 C-182.66 377 -183.32 377 -184 377 C-184.27 376.2 -184.54 375.39 -184.81 374.56 C-185.2 373.72 -185.6 372.87 -186 372 C-186.99 371.67 -187.98 371.34 -189 371 C-189 370.34 -189 369.68 -189 369 C-189.59 368.74 -190.19 368.48 -190.8 368.22 C-193.19 366.89 -194.45 365.6 -196.19 363.5 C-198.91 360.28 -201.67 357.12 -204.5 354 C-209 349.02 -213.42 343.98 -217.81 338.9 C-220.27 336.07 -222.72 333.28 -225.38 330.62 C-229.42 326.58 -233.19 322.27 -237 318 C-237.7 317.22 -238.39 316.44 -239.11 315.63 C-244.32 309.78 -244.32 309.78 -246.77 306.94 C-250.36 302.78 -254.1 298.87 -258.02 295.01 C-260.6 292.39 -263 289.62 -265.39 286.82 C-266.85 285.18 -268.35 283.65 -269.94 282.12 C-272 280 -272 280 -272 278 C-272.66 278 -273.32 278 -274 278 C-274.5 276.02 -274.5 276.02 -275 274 C-275.66 274 -276.32 274 -277 274 C-278.55 272.43 -278.55 272.43 -280.31 270.31 C-282.3 267.97 -284.26 265.74 -286.44 263.56 C-288.76 261.24 -291.02 258.9 -293.25 256.5 C-294.28 255.4 -294.28 255.4 -295.33 254.28 C-297.27 251.64 -298.09 250.3 -298 247 C-296.28 244.83 -294.72 243.15 -292.69 241.31 C-292.18 240.83 -291.66 240.34 -291.13 239.84 C-289.77 238.55 -288.38 237.27 -287 236 C-284.98 234.07 -284.98 234.07 -283.44 231.94 C-281.28 229.33 -279.04 227.05 -276.62 224.69 C-273.86 221.96 -271.37 219.3 -269.12 216.12 C-265.1 210.48 -259.96 205.81 -255 201 C-252.98 199.07 -252.98 199.07 -251.44 196.94 C-248.56 193.46 -245.38 190.4 -242.12 187.28 C-239.95 185.11 -239.95 185.11 -238.61 182.61 C-236.45 179.12 -233.7 176.53 -230.75 173.69 C-226.54 169.56 -222.5 165.41 -218.69 160.9 C-215.96 157.83 -212.98 155.01 -210.02 152.18 C-207.94 150.09 -207.94 150.09 -206.62 147.62 C-204.46 144.13 -201.7 141.53 -198.75 138.69 C-194.52 134.54 -190.45 130.36 -186.62 125.84 C-184.17 123.05 -181.49 120.51 -178.8 117.96 C-176.92 116.06 -176.92 116.06 -175.69 113.69 C-173.37 109.99 -170.38 107.21 -167.25 104.19 C-162.84 99.86 -158.57 95.52 -154.59 90.8 C-152.14 88.03 -149.47 85.5 -146.8 82.96 C-144.91 81.05 -144.91 81.05 -143.62 78.62 C-141.59 75.34 -139.01 72.84 -136.25 70.19 C-132.24 66.26 -128.42 62.29 -124.79 58 C-121.78 54.63 -118.49 51.53 -115.23 48.39 C-112.96 46.13 -112.96 46.13 -111.6 43.61 C-109.41 40.03 -106.6 37.31 -103.62 34.38 C-102.78 33.52 -102.78 33.52 -101.91 32.64 C-98.8 29.54 -95.86 27.15 -92 25 C-90.57 23.9 -89.15 22.77 -87.75 21.62 C-83.4 18.19 -78.89 15.58 -74 13 C-72.48 12.13 -70.96 11.25 -69.44 10.38 C-60.6 5.47 -51.18 3.1 -41.26 1.46 C-39.04 1.22 -39.04 1.22 -38 0 C-25.26 -1.45 -12.74 -1.13 0 0 Z " fill="#E17003" transform="translate(959,205)"/>
<path d="M0 0 C1.08 0.27 2.17 0.55 3.29 0.83 C16.06 4.15 27.55 8.36 39 15 C39 15.66 39 16.32 39 17 C39.74 17.11 40.48 17.21 41.25 17.32 C54.33 20.55 68.8 39.19 77.29 49.07 C78.94 50.93 80.65 52.65 82.44 54.38 C85 57 85 57 85 59 C85.99 59.33 86.98 59.66 88 60 C88.69 62.06 88.69 62.06 89 64 C89.66 64 90.32 64 91 64 C92.44 65.44 92.44 65.44 94.11 67.45 C98.02 72.04 102.11 76.43 106.25 80.81 C106.96 81.56 107.66 82.31 108.39 83.08 C111.98 86.92 111.98 86.92 115.72 90.61 C117 92 117 92 117 94 C117.66 94 118.32 94 119 94 C119.94 95.41 120.88 96.83 121.79 98.27 C123.92 101.32 126.64 103.8 129.31 106.38 C133.6 110.58 137.76 114.82 141.63 119.41 C143 121.05 143 121.05 144.68 122.59 C146 124 146 124 146 126 C146.99 126.33 147.98 126.66 149 127 C149 127.66 149 128.32 149 129 C149.66 129 150.32 129 151 129 C151.95 130.42 152.9 131.85 153.82 133.3 C155.81 136.16 158.31 138.47 160.81 140.88 C164.93 144.9 168.87 148.99 172.6 153.38 C174.12 155.18 174.12 155.18 176.44 157.38 C178 159 178 159 178 161 C178.99 161.33 179.98 161.66 181 162 C181 162.66 181 163.32 181 164 C181.66 164 182.32 164 183 164 C183.95 165.42 184.9 166.85 185.82 168.3 C187.81 171.16 190.31 173.47 192.81 175.88 C196.93 179.9 200.87 183.99 204.6 188.38 C206.12 190.18 206.12 190.18 208.44 192.38 C210 194 210 194 210 196 C210.66 196 211.32 196 212 196 C213.3 197.79 214.6 199.59 215.9 201.39 C218.53 204.66 221.44 207.56 224.44 210.5 C237.43 223.28 237.43 223.28 239 228 C239.99 228.33 240.98 228.66 242 229 C242 229.66 242 230.32 242 231 C242.66 231 243.32 231 244 231 C245.23 232.47 245.23 232.47 246.62 234.5 C249.52 238.56 252.81 241.77 256.56 245.04 C258 247 258 247 257.79 249.39 C256.91 252.29 255.93 253.61 253.83 255.78 C253.19 256.46 252.54 257.13 251.87 257.83 C251.19 258.53 250.51 259.22 249.81 259.94 C248.82 260.97 248.82 260.97 247.81 262.03 C244.78 265.18 241.71 268.28 238.57 271.32 C235.83 273.79 235.83 273.79 235 277 C234.34 277 233.68 277 233 277 C232.77 277.56 232.53 278.12 232.29 278.7 C230.68 281.57 228.68 283.47 226.31 285.75 C222.59 289.39 219.1 293.1 215.72 297.06 C213.26 299.84 210.59 302.39 207.89 304.95 C205.86 307.04 205.86 307.04 204.09 309.91 C201.89 313.16 199.51 315.65 196.69 318.38 C192.81 322.16 189.13 326.04 185.62 330.16 C183.44 332.64 181.08 334.9 178.68 337.16 C176.84 339.08 176.84 339.08 175.12 341.88 C172.91 345.13 170.52 347.64 167.69 350.38 C162.6 355.35 157.54 360.38 153.44 366.22 C152.96 366.81 152.49 367.4 152 368 C151.34 368 150.68 368 150 368 C149.67 368.99 149.34 369.98 149 371 C148.34 371 147.68 371 147 371 C146.71 372.03 146.71 372.03 146.41 373.09 C144.47 377.09 141.64 379.6 138.44 382.62 C133.2 387.71 128.48 392.88 123.95 398.61 C121.69 401.38 119.25 403.85 116.68 406.32 C114.23 408.77 112.01 411.41 109.75 414.03 C108.05 415.94 106.28 417.72 104.44 419.5 C101.29 422.57 98.76 425.89 96.26 429.5 C95.85 429.99 95.43 430.49 95 431 C94.34 431 93.68 431 93 431 C92.74 431.58 92.48 432.16 92.22 432.76 C90.91 435.17 89.45 436.85 87.55 438.83 C86.87 439.55 86.18 440.26 85.48 441 C84.41 442.12 84.41 442.12 83.31 443.25 C74.26 452.69 74.26 452.69 65.89 462.73 C63.74 465.31 61.43 467.28 58.81 469.38 C57.84 470.15 56.87 470.93 55.87 471.73 C54.92 472.48 53.98 473.23 53 474 C52.21 474.65 51.41 475.29 50.6 475.96 C45.66 479.94 40.67 483.16 35 486 C33.87 486.57 32.75 487.14 31.59 487.72 C23.29 491.81 15.03 494.88 6 497 C5.33 497.18 4.65 497.36 3.96 497.54 C-3.56 499.33 -11.06 499.3 -18.73 499.26 C-21 499.25 -23.26 499.26 -25.52 499.27 C-33.22 499.28 -40.52 498.96 -48 497 C-49.67 496.63 -49.67 496.63 -51.37 496.25 C-68.95 491.61 -85.64 482.99 -99.12 470.81 C-99.69 470.3 -100.26 469.79 -100.85 469.26 C-103.65 466.64 -105.49 464.85 -106 461 C-104.64 459.15 -104.64 459.15 -102.69 457.38 C-101.73 456.49 -101.73 456.49 -100.76 455.59 C-100.18 455.06 -99.6 454.54 -99 454 C-96.98 452.07 -96.98 452.07 -95.44 449.94 C-92.56 446.46 -89.38 443.4 -86.12 440.28 C-83.95 438.11 -83.95 438.11 -82.6 435.61 C-80.49 432.17 -77.82 429.61 -74.94 426.81 C-74.4 426.28 -73.85 425.75 -73.29 425.2 C-71.87 423.79 -70.43 422.4 -69 421 C-66.98 419.07 -66.98 419.07 -65.44 416.94 C-62.56 413.46 -59.38 410.4 -56.12 407.28 C-53.95 405.12 -53.95 405.12 -52.64 402.64 C-50.35 398.95 -47.36 396.19 -44.25 393.19 C-39.84 388.86 -35.57 384.52 -31.59 379.8 C-29.14 377.03 -26.47 374.5 -23.8 371.96 C-21.92 370.05 -21.92 370.05 -20.66 367.66 C-18.47 364.15 -15.71 361.54 -12.75 358.69 C-8.52 354.54 -4.45 350.36 -0.62 345.84 C1.83 343.05 4.51 340.51 7.2 337.96 C9.09 336.05 9.09 336.05 10.38 333.62 C12.41 330.34 14.99 327.84 17.75 325.19 C21.8 321.22 25.67 317.2 29.34 312.87 C31.81 310.08 34.5 307.52 37.2 304.96 C39.08 303.05 39.08 303.05 40.34 300.66 C42.53 297.15 45.29 294.54 48.25 291.69 C52.48 287.54 56.55 283.36 60.38 278.84 C62.83 276.05 65.51 273.51 68.2 270.96 C70.09 269.05 70.09 269.05 71.36 266.64 C73.49 263.22 76.16 260.7 79.06 257.94 C83.81 253.55 83.81 253.55 87 248 C81.55 241.04 75.89 234.77 69.59 228.58 C60.51 219.54 60.51 219.54 59 215 C58.34 215 57.68 215 57 215 C55.63 213.44 54.33 211.83 53.06 210.19 C48.87 204.93 44.39 200.29 39.59 195.58 C36.72 192.72 34.05 189.74 31.44 186.66 C30.01 184.96 30.01 184.96 28.31 183.41 C27 182 27 182 27 180 C26.34 180 25.68 180 25 180 C21 175.53 21 175.53 21 173 C20.34 173 19.68 173 19 173 C17.59 171.6 17.59 171.6 15.94 169.62 C12.31 165.34 8.54 161.22 4.72 157.1 C3 155 3 155 3 153 C2.01 152.67 1.02 152.34 0 152 C0 151.34 0 150.68 0 150 C-0.66 150 -1.32 150 -2 150 C-3.33 148.48 -4.58 146.91 -5.81 145.31 C-9.52 140.66 -13.43 136.46 -17.69 132.31 C-21.73 128.36 -25.49 124.49 -28.66 119.78 C-30.54 117.28 -32.77 115.2 -35 113 C-37.66 110.23 -40.3 107.43 -42.94 104.62 C-43.63 103.9 -44.32 103.17 -45.03 102.41 C-57 89.71 -57 89.71 -57 87 C-57.66 87 -58.32 87 -59 87 C-60.44 85.55 -60.44 85.55 -62.12 83.54 C-66.63 78.24 -71.42 73.22 -76.21 68.18 C-79.96 64.22 -83.56 60.22 -87 56 C-90.56 51.79 -94.21 47.76 -98.19 43.94 C-101.63 40.56 -103.85 37.31 -106 33 C-101.29 28.1 -96.83 23.58 -91 20 C-90.18 19.32 -89.35 18.64 -88.5 17.94 C-85.8 15.84 -83.08 14.48 -80 13 C-79.26 12.53 -78.51 12.05 -77.75 11.56 C-74.49 9.71 -71.16 8.39 -67.66 7.04 C-65.96 6.37 -64.26 5.67 -62.59 4.93 C-56.66 2.33 -51.01 1.2 -44.59 0.39 C-42.08 0.27 -42.08 0.27 -41 -1 C-27.74 -2.4 -13.01 -3.54 0 0 Z " fill="#E17003" transform="translate(360,206)"/>
<path d="M0 0 C4.42 0.27 6.43 2.03 9.35 5.26 C9.83 5.81 10.32 6.37 10.81 6.94 C11.31 7.49 11.82 8.04 12.33 8.61 C16 12.71 16 12.71 16 15 C16.66 15 17.32 15 18 15 C19.34 16.33 19.34 16.33 20.94 18.25 C24.01 21.86 27.16 25.39 30.38 28.88 C31.32 29.9 32.26 30.93 33.2 31.95 C35.03 33.95 36.87 35.94 38.71 37.92 C39.93 39.26 39.93 39.26 41.19 40.62 C41.92 41.42 42.66 42.22 43.42 43.04 C45 45 45 45 45 47 C45.99 47.33 46.98 47.66 48 48 C49.51 49.5 49.51 49.5 51.12 51.44 C54.67 55.63 58.35 59.67 62.08 63.7 C63.8 65.76 64.94 67.56 66 70 C66.66 70 67.32 70 68 70 C69.51 71.46 69.51 71.46 71.12 73.38 C71.93 74.31 71.93 74.31 72.76 75.27 C74 77 74 77 74 79 C74.99 79.33 75.98 79.66 77 80 C78.75 81.71 78.75 81.71 80.56 83.81 C81.46 84.84 81.46 84.84 82.38 85.89 C83.9 87.87 84.98 89.74 86 92 C86.66 92 87.32 92 88 92 C89.34 93.33 89.34 93.33 90.94 95.25 C94.05 98.91 97.24 102.47 100.5 106 C103.48 109.23 106.44 112.48 109.31 115.81 C111.65 118.53 114.08 121.15 116.54 123.75 C117.18 124.43 117.82 125.11 118.48 125.8 C119.77 127.17 121.07 128.54 122.38 129.9 C122.97 130.53 123.57 131.16 124.18 131.8 C124.73 132.37 125.27 132.94 125.83 133.52 C127 135 127 135 127 137 C127.66 137 128.32 137 129 137 C130.51 138.46 130.51 138.46 132.12 140.38 C132.66 141 133.2 141.63 133.76 142.27 C135 144 135 144 135 146 C135.99 146.33 136.98 146.66 138 147 C139.44 148.43 139.44 148.43 141 150.31 C143.25 152.97 145.52 155.59 147.9 158.13 C148.4 158.67 148.9 159.2 149.42 159.75 C150.42 160.83 151.43 161.9 152.44 162.96 C156 166.78 156 166.78 156 169 C156.66 169 157.32 169 158 169 C159.34 170.33 159.34 170.33 160.94 172.25 C164.01 175.86 167.16 179.39 170.38 182.88 C171.32 183.9 172.26 184.93 173.2 185.95 C175.03 187.95 176.87 189.94 178.71 191.92 C179.53 192.81 180.34 193.71 181.19 194.62 C181.92 195.42 182.66 196.22 183.42 197.04 C185 199 185 199 185 201 C185.99 201.33 186.98 201.66 188 202 C189.51 203.5 189.51 203.5 191.12 205.44 C193.81 208.6 196.53 211.73 199.31 214.81 C200.06 215.64 200.81 216.48 201.58 217.33 C203.31 219.24 205.04 221.13 206.8 223.01 C207.26 223.51 207.72 224.01 208.19 224.52 C209.5 225.93 210.82 227.34 212.13 228.75 C214 231 214 231 214 233 C214.99 233.33 215.98 233.66 217 234 C217 234.66 217 235.32 217 236 C217.66 236 218.32 236 219 236 C220.51 237.46 220.51 237.46 222.12 239.38 C222.66 240 223.2 240.63 223.76 241.27 C225 243 225 243 225 245 C225.99 245.33 226.98 245.66 228 246 C229.44 247.43 229.44 247.43 231 249.31 C233.25 251.97 235.52 254.59 237.9 257.13 C238.4 257.67 238.9 258.2 239.42 258.75 C240.42 259.83 241.43 260.9 242.44 261.96 C246 265.78 246 265.78 246 268 C246.99 268.33 247.98 268.66 249 269 C250.79 270.67 250.79 270.67 252.62 272.75 C253.54 273.76 253.54 273.76 254.48 274.8 C256.24 277.35 256.96 278.89 257 282 C243.92 299.52 216.38 308.99 195.97 312.59 C190.92 313.29 185.91 313.34 180.81 313.31 C179.72 313.31 178.62 313.3 177.49 313.3 C156.02 312.98 128.76 305.81 113 290 C113 289.34 113 288.68 113 288 C112.16 287.63 112.16 287.63 111.31 287.25 C104.19 283.4 99.43 276.96 94.38 270.81 C91.51 267.42 88.43 264.33 85.19 261.31 C84 260 84 260 84 258 C83.34 258 82.68 258 82 258 C80.77 256.78 80.77 256.78 79.25 254.94 C75.63 250.67 71.84 246.58 68 242.5 C60.66 234.67 60.66 234.67 57.5 231 C53.6 226.47 49.49 222.14 45.41 217.78 C37.99 209.86 30.6 201.91 23.5 193.68 C22.08 192.09 20.6 190.6 19.06 189.12 C17 187 17 187 17 185 C16.34 185 15.68 185 15 185 C13.45 183.46 13.45 183.46 11.69 181.38 C11.07 180.65 10.46 179.93 9.82 179.18 C8.92 178.1 8.92 178.1 8 177 C7.48 176.38 6.96 175.77 6.43 175.13 C5.28 173.76 4.14 172.38 3 171 C-0.26 172.09 -0.88 172.75 -3 175.31 C-6.09 178.95 -9.26 182.49 -12.5 186 C-15.48 189.23 -18.44 192.48 -21.31 195.81 C-25.49 200.64 -29.9 205.26 -34.29 209.9 C-35.18 210.84 -35.18 210.84 -36.09 211.8 C-36.62 212.37 -37.16 212.94 -37.71 213.52 C-39.1 214.99 -39.1 214.99 -40 217 C-40.66 217 -41.32 217 -42 217 C-42.26 217.58 -42.52 218.16 -42.78 218.76 C-44.09 221.17 -45.55 222.85 -47.45 224.83 C-48.13 225.55 -48.82 226.26 -49.52 227 C-50.59 228.12 -50.59 228.12 -51.69 229.25 C-56.35 234.11 -60.93 239.01 -65.34 244.1 C-68.44 247.65 -71.68 251.07 -74.9 254.51 C-77.15 256.92 -79.16 259.24 -81 262 C-81.66 262 -82.32 262 -83 262 C-83.26 262.59 -83.53 263.17 -83.8 263.77 C-85.04 266.08 -86.38 267.71 -88.16 269.61 C-88.78 270.28 -89.41 270.95 -90.05 271.64 C-90.72 272.33 -91.38 273.03 -92.06 273.75 C-92.74 274.47 -93.42 275.19 -94.12 275.93 C-114.4 297.18 -140.06 312.16 -170.01 313.29 C-200.87 313.94 -228.39 304.87 -251.35 283.85 C-253 282 -253 282 -253.19 279.69 C-251.64 276.19 -249.38 274.12 -246.59 271.55 C-244.9 270.07 -244.9 270.07 -244 268 C-243.34 268 -242.68 268 -242 268 C-241.74 267.42 -241.48 266.84 -241.21 266.24 C-239.91 263.84 -238.48 262.18 -236.59 260.21 C-235.93 259.52 -235.27 258.82 -234.59 258.11 C-233.9 257.39 -233.21 256.68 -232.5 255.94 C-231.13 254.51 -229.77 253.08 -228.41 251.65 C-227.8 251.02 -227.2 250.39 -226.57 249.75 C-224.82 247.88 -224.82 247.88 -223 245 C-222.34 245 -221.68 245 -221 245 C-220.75 244.44 -220.5 243.89 -220.25 243.31 C-218.77 240.58 -217.07 238.32 -215 236 C-214.34 236 -213.68 236 -213 236 C-212.67 235.01 -212.34 234.02 -212 233 C-211.34 233 -210.68 233 -210 233 C-209.67 232.2 -209.67 232.2 -209.34 231.38 C-207.53 228.16 -205.09 225.66 -202.56 223 C-201.48 221.85 -200.4 220.69 -199.32 219.54 C-198.77 218.95 -198.22 218.37 -197.66 217.77 C-195.05 214.98 -192.46 212.18 -189.88 209.38 C-188.54 207.93 -188.54 207.93 -187.18 206.46 C-184.91 204.01 -184.91 204.01 -183 201 C-182.34 201 -181.68 201 -181 201 C-180.77 200.46 -180.55 199.93 -180.31 199.38 C-178.54 196.18 -176.46 193.71 -174 191 C-173.34 191 -172.68 191 -172 191 C-171.61 190.13 -171.61 190.13 -171.22 189.24 C-169.91 186.83 -168.46 185.15 -166.56 183.18 C-165.89 182.48 -165.23 181.78 -164.54 181.06 C-163.85 180.34 -163.15 179.62 -162.44 178.88 C-161.06 177.44 -159.68 176 -158.31 174.55 C-157.7 173.92 -157.09 173.29 -156.46 172.63 C-154.91 171.05 -154.91 171.05 -154 169 C-153.34 169 -152.68 169 -152 169 C-151.74 168.42 -151.48 167.84 -151.21 167.24 C-149.91 164.84 -148.48 163.18 -146.59 161.21 C-145.93 160.52 -145.27 159.82 -144.59 159.11 C-143.9 158.39 -143.21 157.68 -142.5 156.94 C-141.13 155.51 -139.77 154.08 -138.41 152.65 C-137.8 152.02 -137.2 151.39 -136.57 150.75 C-134.82 148.88 -134.82 148.88 -133 146 C-132.34 146 -131.68 146 -131 146 C-130.75 145.44 -130.5 144.89 -130.25 144.31 C-128.77 141.58 -127.07 139.32 -125 137 C-124.34 137 -123.68 137 -123 137 C-122.6 136.11 -122.6 136.11 -122.2 135.2 C-120.96 132.92 -119.7 131.53 -117.81 129.75 C-114.73 126.76 -111.9 123.64 -109.1 120.39 C-105.84 116.68 -102.46 113.08 -99.09 109.48 C-96.84 107.07 -94.83 104.75 -93 102 C-92.34 102 -91.68 102 -91 102 C-90.74 101.42 -90.48 100.84 -90.21 100.24 C-88.91 97.84 -87.48 96.18 -85.59 94.21 C-84.6 93.17 -84.6 93.17 -83.59 92.11 C-82.9 91.39 -82.21 90.68 -81.5 89.94 C-80.13 88.51 -78.77 87.08 -77.41 85.65 C-76.8 85.02 -76.2 84.39 -75.57 83.75 C-73.82 81.88 -73.82 81.88 -72 79 C-71.34 79 -70.68 79 -70 79 C-69.75 78.44 -69.5 77.89 -69.25 77.31 C-67.77 74.58 -66.07 72.32 -64 70 C-63.34 70 -62.68 70 -62 70 C-61.6 69.11 -61.6 69.11 -61.2 68.2 C-59.96 65.92 -58.7 64.53 -56.81 62.75 C-52.34 58.41 -48.02 53.86 -44.42 48.76 C-43.95 48.18 -43.48 47.6 -43 47 C-42.34 47 -41.68 47 -41 47 C-40.6 46.12 -40.6 46.12 -40.2 45.23 C-38.95 42.9 -37.59 41.29 -35.77 39.39 C-35.13 38.72 -34.49 38.04 -33.83 37.35 C-32.83 36.31 -32.83 36.31 -31.81 35.25 C-25.02 28.14 -18.48 20.88 -12.26 13.25 C-11 12 -11 12 -9 12 C-8.74 11.43 -8.49 10.86 -8.23 10.27 C-6.87 7.76 -5.28 5.87 -3.38 3.75 C-2.74 3.04 -2.11 2.34 -1.46 1.61 C-0.98 1.08 -0.5 0.55 0 0 Z " fill="#000000" transform="translate(638,477)"/>
<path d="M0 0 C1 0.01 2 0.01 3.03 0.02 C37.37 0.57 62.56 17.19 85.87 41.2 C94.31 50.09 94.31 50.09 95.88 53.48 C96.8 55.67 96.8 55.67 99.88 56.31 C101.31 57.74 101.31 57.74 102.88 59.62 C105.89 63.17 108.97 66.64 112.12 70.06 C112.82 70.82 112.82 70.82 113.52 71.58 C116.01 74.3 118.51 76.99 121.03 79.68 C121.54 80.23 122.04 80.77 122.57 81.33 C123.55 82.39 124.53 83.43 125.52 84.48 C128.88 88.09 128.88 88.09 128.88 90.31 C129.87 90.64 130.86 90.97 131.88 91.31 C133.21 92.63 133.21 92.63 134.69 94.44 C137.19 97.41 139.77 100.29 142.45 103.11 C143.4 104.11 143.4 104.11 144.37 105.14 C145.66 106.5 146.95 107.86 148.25 109.21 C149.15 110.15 149.15 110.15 150.06 111.12 C150.6 111.68 151.14 112.25 151.7 112.84 C152.88 114.31 152.88 114.31 152.88 116.31 C153.53 116.31 154.19 116.31 154.88 116.31 C156.38 117.77 156.38 117.77 158 119.69 C158.54 120.31 159.08 120.94 159.63 121.59 C160.88 123.31 160.88 123.31 160.88 125.31 C161.87 125.64 162.86 125.97 163.88 126.31 C165.45 127.88 165.45 127.88 167.12 129.88 C167.73 130.59 168.33 131.3 168.96 132.04 C169.91 133.16 169.91 133.16 170.88 134.31 C172.18 135.82 173.5 137.32 174.81 138.81 C175.83 139.98 176.85 141.15 177.88 142.31 C181.21 140.89 183.11 139.2 185.44 136.44 C186.02 135.76 186.6 135.08 187.19 134.38 C188.33 132.98 189.42 131.53 190.46 130.05 C190.93 129.48 191.4 128.9 191.88 128.31 C192.54 128.31 193.19 128.31 193.88 128.31 C194.2 127.32 194.54 126.33 194.88 125.31 C195.54 125.31 196.19 125.31 196.88 125.31 C197.12 124.76 197.37 124.2 197.62 123.62 C199.1 120.89 200.81 118.64 202.88 116.31 C203.54 116.31 204.19 116.31 204.88 116.31 C205.13 115.73 205.39 115.15 205.66 114.55 C206.96 112.15 208.4 110.49 210.28 108.53 C210.94 107.83 211.6 107.14 212.29 106.42 C212.97 105.7 213.66 104.99 214.38 104.25 C215.74 102.82 217.11 101.4 218.47 99.96 C219.38 99.02 219.38 99.02 220.3 98.06 C222.06 96.19 222.06 96.19 223.88 93.31 C224.54 93.31 225.19 93.31 225.88 93.31 C226.12 92.76 226.37 92.2 226.62 91.62 C228.1 88.89 229.81 86.64 231.88 84.31 C232.54 84.31 233.19 84.31 233.88 84.31 C234.14 83.72 234.4 83.13 234.68 82.52 C235.92 80.23 237.18 78.84 239.06 77.06 C243.53 72.72 247.86 68.18 251.45 63.07 C251.92 62.49 252.39 61.91 252.88 61.31 C253.54 61.31 254.19 61.31 254.88 61.31 C255.2 60.32 255.54 59.33 255.88 58.31 C256.54 58.31 257.19 58.31 257.88 58.31 C258.2 57.51 258.2 57.51 258.53 56.7 C260.37 53.43 262.87 50.89 265.44 48.19 C266.53 47.03 267.62 45.86 268.71 44.7 C269.25 44.13 269.79 43.55 270.34 42.96 C272.46 40.68 274.51 38.34 276.56 36 C295.52 15.01 323.21 1.45 351.55 -0.08 C374.1 -0.75 394.66 4.4 413.88 16.31 C415.06 16.94 416.25 17.57 417.44 18.19 C423.45 21.58 429.01 26.44 433.88 31.31 C433.74 36.26 431.14 38.88 427.88 42.31 C427.21 42.31 426.56 42.31 425.88 42.31 C425.55 43.3 425.21 44.29 424.88 45.31 C424.21 45.31 423.56 45.31 422.88 45.31 C422.63 45.87 422.38 46.43 422.12 47 C420.65 49.74 418.94 51.99 416.88 54.31 C416.21 54.31 415.56 54.31 414.88 54.31 C414.61 54.91 414.35 55.5 414.07 56.11 C412.83 58.39 411.57 59.79 409.69 61.56 C405.22 65.9 400.89 70.45 397.3 75.55 C396.83 76.13 396.36 76.71 395.88 77.31 C395.21 77.31 394.56 77.31 393.88 77.31 C393.48 78.19 393.48 78.19 393.08 79.09 C391.82 81.41 390.47 83.02 388.64 84.92 C388.01 85.59 387.37 86.27 386.71 86.96 C386.04 87.65 385.37 88.35 384.69 89.06 C376.03 97.91 376.03 97.91 368.3 107.55 C367.83 108.13 367.36 108.71 366.88 109.31 C366.21 109.31 365.56 109.31 364.88 109.31 C364.49 110.18 364.49 110.18 364.09 111.07 C362.78 113.49 361.33 115.16 359.43 117.14 C358.4 118.22 358.4 118.22 357.35 119.32 C356.28 120.43 356.28 120.43 355.19 121.56 C348.9 128.12 342.75 134.73 337.06 141.81 C336.34 142.64 335.62 143.46 334.88 144.31 C334.21 144.31 333.56 144.31 332.88 144.31 C332.63 144.87 332.38 145.43 332.12 146 C329.86 150.19 326.76 153.44 323.4 156.78 C320.24 159.96 317.19 163.24 314.12 166.5 C313.44 167.22 312.76 167.95 312.05 168.69 C311.4 169.39 310.75 170.08 310.08 170.79 C309.49 171.42 308.9 172.05 308.29 172.7 C306.79 174.27 306.79 174.27 305.88 176.31 C305.21 176.31 304.56 176.31 303.88 176.31 C303.62 176.89 303.36 177.47 303.09 178.07 C301.78 180.49 300.33 182.16 298.43 184.14 C297.74 184.86 297.06 185.58 296.35 186.32 C295.28 187.43 295.28 187.43 294.19 188.56 C284.94 197.95 284.94 197.95 276.88 208.31 C276.21 208.31 275.56 208.31 274.88 208.31 C274.62 208.89 274.37 209.47 274.1 210.06 C272.74 212.56 271.19 214.3 269.21 216.35 C268.5 217.1 267.79 217.84 267.06 218.61 C266.32 219.38 265.58 220.15 264.81 220.94 C263.34 222.47 261.87 224 260.4 225.54 C259.75 226.22 259.1 226.89 258.43 227.59 C256.8 229.24 256.8 229.24 255.88 231.31 C255.21 231.31 254.56 231.31 253.88 231.31 C253.62 231.88 253.36 232.46 253.09 233.05 C251.76 235.52 250.22 237.45 248.38 239.56 C247.77 240.27 247.16 240.98 246.53 241.7 C244.88 243.31 244.88 243.31 242.88 243.31 C242.61 243.9 242.34 244.5 242.06 245.1 C240.88 247.31 239.65 248.83 237.93 250.63 C237.35 251.25 236.77 251.86 236.18 252.49 C235.56 253.13 234.95 253.78 234.31 254.44 C233.04 255.78 231.78 257.12 230.51 258.46 C229.89 259.12 229.27 259.77 228.63 260.44 C226.27 262.96 223.94 265.5 221.62 268.06 C220.94 268.82 220.25 269.58 219.55 270.36 C217.72 272.41 217.72 272.41 215.88 275.31 C215.21 275.31 214.56 275.31 213.88 275.31 C213.62 275.89 213.37 276.47 213.1 277.06 C211.74 279.56 210.19 281.3 208.21 283.35 C207.5 284.1 206.79 284.84 206.06 285.61 C204.95 286.76 204.95 286.76 203.81 287.94 C202.34 289.47 200.87 291 199.4 292.54 C198.75 293.22 198.1 293.89 197.43 294.59 C195.8 296.24 195.8 296.24 194.88 298.31 C194.21 298.31 193.56 298.31 192.88 298.31 C192.5 299.15 192.5 299.15 192.12 300 C189.56 304.74 185.91 308.77 181.88 312.31 C179.06 313.12 179.06 313.12 176.88 313.31 C176.32 312.59 175.76 311.87 175.19 311.12 C172.37 307.7 169.3 304.64 166.06 301.62 C164.88 300.31 164.88 300.31 164.88 298.31 C164.22 298.31 163.56 298.31 162.88 298.31 C161.57 297.02 161.57 297.02 160 295.12 C157.64 292.34 155.24 289.62 152.75 286.96 C152.2 286.38 151.66 285.8 151.1 285.2 C150 284.03 148.89 282.87 147.79 281.71 C143.88 277.53 143.88 277.53 143.88 275.31 C143.22 275.31 142.56 275.31 141.88 275.31 C140.54 273.98 140.54 273.98 138.94 272.06 C135.87 268.45 132.71 264.92 129.5 261.44 C128.56 260.41 127.62 259.39 126.68 258.36 C124.84 256.37 123.01 254.38 121.17 252.39 C120.35 251.5 119.53 250.61 118.69 249.69 C117.95 248.89 117.22 248.09 116.46 247.27 C114.88 245.31 114.88 245.31 114.88 243.31 C114.22 243.31 113.56 243.31 112.88 243.31 C111.22 241.7 111.22 241.7 109.38 239.56 C108.77 238.87 108.16 238.17 107.53 237.45 C106 235.47 104.9 233.59 103.88 231.31 C103.22 231.31 102.56 231.31 101.88 231.31 C100.46 229.91 100.46 229.91 98.81 227.94 C95.19 223.65 91.41 219.53 87.6 215.41 C85.88 213.31 85.88 213.31 85.88 211.31 C85.22 211.31 84.56 211.31 83.88 211.31 C82.22 209.7 82.22 209.7 80.38 207.56 C79.77 206.87 79.16 206.17 78.53 205.45 C77 203.47 75.9 201.59 74.88 199.31 C74.22 199.31 73.56 199.31 72.88 199.31 C71.57 198.02 71.57 198.02 70 196.12 C67.64 193.34 65.24 190.62 62.75 187.96 C62.2 187.38 61.66 186.8 61.1 186.2 C60 185.03 58.89 183.87 57.79 182.71 C53.88 178.53 53.88 178.53 53.88 176.31 C53.22 176.31 52.56 176.31 51.88 176.31 C50.54 174.98 50.54 174.98 48.94 173.06 C45.83 169.4 42.63 165.84 39.38 162.31 C32.83 155.19 32.83 155.19 29.81 151.81 C29.29 151.22 28.76 150.64 28.21 150.03 C26.8 148.22 25.83 146.4 24.88 144.31 C24.22 144.31 23.56 144.31 22.88 144.31 C21.22 142.7 21.22 142.7 19.38 140.56 C18.77 139.87 18.16 139.17 17.53 138.45 C16 136.47 14.9 134.59 13.88 132.31 C13.22 132.31 12.56 132.31 11.88 132.31 C10.46 130.91 10.46 130.91 8.81 128.94 C5.19 124.65 1.41 120.53 -2.4 116.41 C-4.12 114.31 -4.12 114.31 -4.12 112.31 C-5.61 111.82 -5.61 111.82 -7.12 111.31 C-7.12 110.65 -7.12 109.99 -7.12 109.31 C-7.78 109.31 -8.44 109.31 -9.12 109.31 C-10.54 107.91 -10.54 107.91 -12.19 105.94 C-14.88 102.78 -17.59 99.65 -20.38 96.56 C-21.49 95.32 -21.49 95.32 -22.64 94.05 C-24.46 92.04 -26.29 90.06 -28.14 88.08 C-28.65 87.54 -29.16 86.99 -29.68 86.43 C-30.67 85.37 -31.67 84.3 -32.67 83.25 C-36.12 79.54 -36.12 79.54 -36.12 77.31 C-36.78 77.31 -37.44 77.31 -38.12 77.31 C-39.46 75.98 -39.46 75.98 -41.06 74.06 C-43.32 71.39 -45.61 68.77 -48 66.21 C-48.49 65.68 -48.99 65.15 -49.5 64.6 C-50.49 63.55 -51.48 62.49 -52.48 61.44 C-54.69 59.06 -56.08 57.44 -57.12 54.31 C-57.79 54.31 -58.44 54.31 -59.12 54.31 C-60.63 52.85 -60.63 52.85 -62.25 50.94 C-62.79 50.31 -63.33 49.68 -63.88 49.04 C-65.12 47.31 -65.12 47.31 -65.12 45.31 C-65.79 45.31 -66.44 45.31 -67.12 45.31 C-68.78 43.63 -68.78 43.63 -70.62 41.44 C-72.41 39.32 -74.17 37.27 -76.12 35.31 C-75.94 32.35 -75.51 30.76 -73.56 28.5 C-72.9 27.97 -72.24 27.43 -71.56 26.88 C-70.83 26.28 -70.1 25.68 -69.35 25.07 C-68.61 24.49 -67.88 23.91 -67.12 23.31 C-66.53 22.81 -65.93 22.3 -65.31 21.78 C-60.15 17.6 -54.38 14.76 -48.43 11.91 C-45.96 10.72 -43.58 9.46 -41.19 8.12 C-28.98 2.02 -13.48 -0.08 0 0 Z " fill="#000000" transform="translate(461.125,119.6875)"/>
<path d="M0 0 C0.75 -0.01 1.5 -0.02 2.27 -0.02 C3.87 -0.04 5.46 -0.05 7.06 -0.06 C8.67 -0.07 10.29 -0.09 11.9 -0.12 C21.2 -0.29 29.11 -0.33 37.5 4.24 C38.83 4.91 40.17 5.57 41.5 6.24 C41.5 6.9 41.5 7.56 41.5 8.24 C42.1 8.51 42.7 8.78 43.32 9.07 C53.84 14.73 58.36 30.71 62.86 41.18 C65.21 46.63 67.7 52.01 70.28 57.37 C71.67 60.29 72.88 63.05 73.5 66.24 C76.33 64.82 76.62 63.09 77.86 60.2 C78.31 59.15 78.76 58.1 79.23 57.02 C79.71 55.9 80.19 54.77 80.69 53.61 C81.68 51.32 82.68 49.02 83.68 46.72 C84.16 45.61 84.65 44.49 85.15 43.34 C87.81 37.24 90.6 31.22 93.5 25.24 C93.96 24.24 94.43 23.24 94.91 22.21 C99.98 11.95 107.3 5.48 117.9 1.25 C124.22 -0.52 130.5 -0.46 137.03 -0.36 C139.39 -0.32 141.75 -0.34 144.12 -0.36 C145.64 -0.35 147.16 -0.34 148.68 -0.33 C149.38 -0.33 150.07 -0.34 150.79 -0.34 C155.79 -0.22 158.62 1.15 162.5 4.24 C166.01 8.24 166.63 11.53 166.62 16.76 C166.62 18.48 166.62 18.48 166.62 20.24 C166.62 21.5 166.62 22.76 166.61 24.06 C166.61 25.4 166.61 26.74 166.61 28.08 C166.61 31.72 166.61 35.36 166.6 39 C166.6 42.81 166.59 46.61 166.59 50.42 C166.59 57.62 166.58 64.82 166.57 72.03 C166.56 80.23 166.56 88.43 166.55 96.63 C166.54 113.5 166.52 130.37 166.5 147.24 C165.06 147.26 163.62 147.27 162.17 147.28 C161.37 147.29 160.57 147.3 159.74 147.3 C150.72 147.04 142.84 140.65 136.81 134.49 C130.63 125.8 128.38 118.2 128.29 107.58 C128.28 106.84 128.27 106.1 128.26 105.33 C128.23 102.9 128.21 100.46 128.18 98.03 C128.16 96.33 128.14 94.64 128.12 92.94 C128.07 88.49 128.02 84.04 127.97 79.6 C127.92 75.05 127.86 70.51 127.81 65.96 C127.7 57.05 127.6 48.15 127.5 39.24 C126.51 38.91 125.52 38.58 124.5 38.24 C124.25 39.06 124 39.88 123.74 40.73 C122.32 44.76 120.55 48.52 118.69 52.36 C115.87 58.26 113.23 64.18 110.77 70.23 C109.04 74.34 107.13 78.36 105.23 82.39 C103.06 86.99 101.01 91.63 99 96.3 C96.27 102.63 93.27 108.76 90.12 114.9 C88.09 119.08 86.43 123.35 84.84 127.71 C83.19 130.83 81.44 132.32 78.5 134.24 C76.44 134.8 76.44 134.8 74.5 134.8 C73.86 134.82 73.22 134.84 72.56 134.87 C68.21 133.54 66.18 130.48 64.09 126.65 C62.54 123.43 61.07 120.19 59.62 116.93 C59.1 115.76 58.57 114.59 58.02 113.39 C54.69 105.98 51.41 98.54 48.19 91.08 C46.62 87.48 44.97 83.92 43.3 80.37 C39.32 71.88 35.44 63.34 31.56 54.8 C30.87 53.28 30.18 51.76 29.49 50.24 C27.83 46.57 26.16 42.9 24.5 39.24 C23.51 39.24 22.52 39.24 21.5 39.24 C21.5 40.19 21.49 41.14 21.49 42.13 C21.45 51.14 21.39 60.16 21.32 69.18 C21.28 73.81 21.24 78.45 21.23 83.08 C21.21 87.56 21.18 92.04 21.13 96.52 C21.12 98.23 21.11 99.93 21.11 101.63 C21.09 115.94 19.3 127.32 8.84 137.92 C2.53 143.69 -4.6 147.43 -13.25 147.3 C-14.05 147.29 -14.85 147.28 -15.67 147.27 C-16.58 147.26 -16.58 147.26 -17.5 147.24 C-17.55 129.89 -17.58 112.54 -17.6 95.19 C-17.61 87.13 -17.63 79.07 -17.65 71.02 C-17.67 63.99 -17.68 56.97 -17.69 49.95 C-17.69 46.23 -17.7 42.51 -17.71 38.79 C-17.73 34.64 -17.73 30.49 -17.73 26.33 C-17.73 25.11 -17.74 23.88 -17.75 22.61 C-17.72 8.92 -17.72 8.92 -14.06 4.5 C-9 0.83 -6.15 0.06 0 0 Z " fill="#000000" transform="translate(732.5,934.76171875)"/>
<path d="M0 0 C0.84 -0.01 1.68 -0.02 2.55 -0.03 C5.31 -0.05 8.07 -0.06 10.83 -0.06 C12.76 -0.07 14.7 -0.08 16.63 -0.09 C20.68 -0.11 24.73 -0.12 28.78 -0.12 C33.95 -0.12 39.11 -0.16 44.27 -0.21 C48.27 -0.24 52.26 -0.24 56.26 -0.25 C58.16 -0.25 60.06 -0.26 61.97 -0.28 C76.13 -0.43 87.61 0.75 98.34 11.06 C105.42 19.12 108.62 27.39 108.61 38 C108.61 38.85 108.62 39.7 108.63 40.58 C108.65 43.39 108.65 46.2 108.65 49.01 C108.66 50.97 108.67 52.94 108.67 54.9 C108.69 59.01 108.69 63.12 108.69 67.23 C108.69 72.48 108.72 77.73 108.75 82.98 C108.77 87.04 108.78 91.09 108.78 95.15 C108.78 97.08 108.79 99.02 108.8 100.95 C108.9 115.14 107.95 125.85 98.01 136.87 C89.64 144.45 81.66 147.78 70.3 147.71 C69.45 147.72 68.6 147.72 67.72 147.73 C64.93 147.75 62.14 147.75 59.36 147.74 C57.4 147.74 55.44 147.75 53.49 147.76 C49.4 147.76 45.31 147.76 41.22 147.75 C36 147.74 30.78 147.76 25.57 147.79 C21.53 147.81 17.49 147.81 13.46 147.8 C11.53 147.8 9.61 147.81 7.69 147.82 C-6.71 147.9 -17.69 147.17 -28.52 136.67 C-35.94 128.57 -39.15 119.38 -39.09 108.47 C-39.09 107.64 -39.1 106.81 -39.11 105.95 C-39.13 103.23 -39.12 100.51 -39.12 97.78 C-39.12 95.87 -39.13 93.96 -39.13 92.05 C-39.14 88.05 -39.14 84.06 -39.13 80.06 C-39.12 74.97 -39.14 69.87 -39.17 64.77 C-39.18 60.83 -39.18 56.88 -39.18 52.94 C-39.18 51.06 -39.18 49.18 -39.2 47.31 C-39.27 34.03 -38.46 23.55 -30.05 12.67 C-28.68 11.31 -28.68 11.31 -26.68 11.31 C-26.35 10.32 -26.02 9.33 -25.68 8.31 C-23.64 6.77 -23.64 6.77 -21.06 5.24 C-20.22 4.74 -19.38 4.23 -18.52 3.71 C-12.39 0.68 -6.7 0.01 0 0 Z M0.32 41.31 C-0.74 44.48 -0.82 46.75 -0.83 50.09 C-0.83 51.28 -0.84 52.47 -0.85 53.69 C-0.85 54.98 -0.85 56.26 -0.85 57.58 C-0.85 58.9 -0.86 60.22 -0.86 61.58 C-0.87 64.37 -0.87 67.16 -0.87 69.95 C-0.87 73.52 -0.88 77.09 -0.9 80.66 C-0.91 84.07 -0.91 87.49 -0.91 90.9 C-0.92 92.18 -0.93 93.46 -0.93 94.78 C-0.93 95.97 -0.93 97.16 -0.93 98.39 C-0.93 99.44 -0.93 100.49 -0.93 101.57 C-0.67 104.43 -0.39 106 1.32 108.31 C4.9 110.25 7.99 110.56 12.02 110.58 C13.14 110.59 14.27 110.6 15.42 110.61 C16.62 110.61 17.83 110.61 19.06 110.61 C20.31 110.61 21.55 110.62 22.83 110.62 C26.13 110.63 29.43 110.62 32.73 110.62 C34.75 110.62 36.77 110.63 38.79 110.64 C42.67 110.67 46.55 110.67 50.44 110.67 C52.24 110.68 52.24 110.68 54.08 110.7 C62.16 110.75 62.16 110.75 69.32 107.31 C70.38 104.11 70.46 101.79 70.48 98.43 C70.49 97.22 70.5 96.01 70.51 94.77 C70.51 93.46 70.52 92.16 70.52 90.81 C70.53 89.46 70.53 88.1 70.54 86.75 C70.55 83.91 70.55 81.07 70.56 78.24 C70.56 74.6 70.59 70.97 70.62 67.34 C70.63 64.54 70.64 61.75 70.64 58.95 C70.65 56.96 70.66 54.97 70.68 52.98 C70.68 51.77 70.68 50.56 70.67 49.31 C70.68 48.25 70.68 47.18 70.69 46.08 C70.27 42.91 69.55 41.57 67.32 39.31 C64.18 38.26 61.94 38.17 58.64 38.15 C57.48 38.14 56.31 38.13 55.11 38.12 C53.85 38.11 52.59 38.11 51.29 38.1 C50 38.1 48.71 38.09 47.37 38.09 C44.64 38.08 41.9 38.07 39.16 38.07 C35.66 38.06 32.15 38.04 28.65 38.01 C25.3 37.99 21.95 37.98 18.61 37.98 C16.72 37.96 16.72 37.96 14.8 37.94 C13.63 37.94 12.46 37.95 11.25 37.95 C10.23 37.95 9.2 37.94 8.14 37.94 C4.83 38.37 2.96 39.3 0.32 41.31 Z " fill="#000000" transform="translate(402.682373046875,934.693603515625)"/>
<path d="M0 0 C1.92 -0 3.85 -0.01 5.77 -0.01 C9.79 -0.02 13.81 -0.01 17.82 0.01 C22.94 0.04 28.05 0.02 33.17 -0.01 C37.14 -0.02 41.11 -0.02 45.08 -0.01 C46.96 -0 48.85 -0.01 50.73 -0.02 C64.96 -0.09 77.34 0.92 88.1 11.43 C95.57 20.06 98.35 28.98 98.31 40.22 C98.31 41.03 98.32 41.84 98.33 42.68 C98.34 45.35 98.34 48.02 98.34 50.69 C98.34 52.56 98.34 54.43 98.35 56.3 C98.36 60.21 98.36 64.12 98.35 68.03 C98.35 73.03 98.36 78.02 98.39 83.01 C98.4 86.87 98.4 90.73 98.4 94.59 C98.4 96.43 98.4 98.27 98.41 100.11 C98.49 114.96 97.44 126.44 87.03 137.86 C75.96 148.57 63.39 148.27 48.88 148.2 C46.93 148.2 44.97 148.2 43.02 148.21 C38.94 148.21 34.86 148.2 30.78 148.19 C25.58 148.16 20.38 148.18 15.18 148.2 C11.15 148.21 7.12 148.21 3.09 148.2 C1.18 148.2 -0.74 148.2 -2.66 148.21 C-16.36 148.26 -28.5 147.65 -38.96 137.66 C-46.61 129.13 -49.12 120.69 -49.11 109.33 C-49.11 108.5 -49.12 107.68 -49.12 106.82 C-49.13 104.1 -49.13 101.37 -49.13 98.64 C-49.14 96.74 -49.14 94.84 -49.14 92.94 C-49.15 88.95 -49.15 84.97 -49.15 80.98 C-49.15 75.89 -49.16 70.8 -49.18 65.7 C-49.19 61.77 -49.19 57.84 -49.19 53.92 C-49.19 52.04 -49.2 50.16 -49.21 48.28 C-49.22 45.65 -49.21 43.02 -49.21 40.39 C-49.21 39.62 -49.22 38.85 -49.22 38.06 C-49.17 27.69 -45.88 19.24 -38.99 11.43 C-27.53 0.38 -15.01 -0.09 0 0 Z M-10.96 42.66 C-11.07 44.61 -11.1 46.56 -11.11 48.51 C-11.12 49.76 -11.12 51.02 -11.13 52.31 C-11.13 53.68 -11.13 55.06 -11.13 56.44 C-11.14 57.84 -11.14 59.25 -11.14 60.65 C-11.15 63.6 -11.15 66.54 -11.15 69.49 C-11.15 73.27 -11.16 77.05 -11.18 80.83 C-11.19 83.73 -11.19 86.63 -11.19 89.53 C-11.19 90.92 -11.2 92.32 -11.21 93.71 C-11.22 95.66 -11.21 97.61 -11.21 99.56 C-11.21 100.67 -11.21 101.78 -11.21 102.92 C-11.17 105.88 -11.17 105.88 -8.96 108.66 C-5.34 110.54 -2.31 110.92 1.74 110.94 C2.86 110.95 3.98 110.96 5.14 110.97 C6.34 110.97 7.54 110.97 8.78 110.96 C10.03 110.97 11.27 110.97 12.55 110.98 C15.85 110.99 19.15 110.98 22.45 110.98 C24.47 110.98 26.49 110.99 28.5 111 C32.39 111.02 36.27 111.03 40.16 111.03 C41.96 111.04 41.96 111.04 43.79 111.06 C51.87 111.11 51.87 111.11 59.04 107.66 C60.1 104.47 60.17 102.15 60.2 98.79 C60.21 97.58 60.22 96.37 60.23 95.13 C60.23 93.82 60.23 92.51 60.24 91.17 C60.24 89.81 60.25 88.46 60.26 87.11 C60.27 84.27 60.27 81.43 60.28 78.6 C60.28 74.96 60.3 71.33 60.33 67.7 C60.35 64.9 60.36 62.11 60.36 59.31 C60.36 57.32 60.38 55.33 60.4 53.34 C60.4 52.13 60.39 50.92 60.39 49.67 C60.4 48.6 60.4 47.54 60.4 46.44 C59.98 43.27 59.27 41.92 57.04 39.66 C53.89 38.62 51.66 38.52 48.36 38.5 C47.19 38.49 46.03 38.48 44.83 38.47 C43.57 38.47 42.31 38.47 41.01 38.46 C39.72 38.46 38.42 38.45 37.09 38.44 C34.35 38.43 31.61 38.43 28.88 38.42 C25.37 38.42 21.87 38.39 18.37 38.37 C15.02 38.34 11.67 38.34 8.32 38.34 C6.44 38.32 6.44 38.32 4.52 38.3 C3.35 38.3 2.18 38.3 0.97 38.31 C-0.06 38.3 -1.08 38.3 -2.14 38.3 C-5.71 38.76 -8.4 40.1 -10.96 42.66 Z " fill="#000000" transform="translate(967.96484375,934.3359375)"/>
<path d="M0 0 C0.89 -0.01 1.79 -0.02 2.71 -0.03 C3.69 -0.03 4.68 -0.03 5.69 -0.04 C6.73 -0.05 7.76 -0.06 8.83 -0.06 C12.26 -0.09 15.7 -0.11 19.14 -0.12 C20.9 -0.13 20.9 -0.13 22.7 -0.14 C28.92 -0.16 35.15 -0.18 41.37 -0.2 C47.79 -0.21 54.2 -0.26 60.61 -0.31 C65.56 -0.34 70.5 -0.35 75.44 -0.36 C77.81 -0.37 80.17 -0.38 82.53 -0.41 C98.85 -0.56 111.22 -0.31 123.54 11.63 C133.17 22.68 134.1 34.82 134.06 48.92 C134.05 51.02 134.08 53.11 134.1 55.21 C134.17 68.82 132.09 81.01 122.7 91.41 C117.61 96.29 112.44 99.03 105.74 101.15 C109.63 109.43 115.49 116.86 120.8 124.28 C121.22 124.87 121.64 125.45 122.07 126.06 C124.02 128.77 125.98 131.47 127.97 134.16 C128.61 135.04 129.26 135.93 129.93 136.84 C130.5 137.61 131.07 138.38 131.66 139.17 C132.02 139.82 132.37 140.48 132.74 141.15 C131.74 144.15 131.74 144.15 128.74 145.84 C119.59 148.95 107.49 148.59 98.8 144.33 C97.78 143.75 97.78 143.75 96.74 143.15 C96.13 142.84 95.53 142.52 94.9 142.2 C88.67 138.43 84.85 131.99 80.74 126.15 C80.14 125.31 79.54 124.47 78.93 123.61 C78.37 122.82 77.81 122.03 77.24 121.22 C76.7 120.47 76.16 119.72 75.6 118.96 C73.74 116.15 73.74 116.15 72.17 112.86 C68.71 106.25 68.71 106.25 62.58 102.43 C56.32 101.34 50.01 101.63 43.68 101.84 C41.74 101.86 39.81 101.87 37.87 101.87 C33.16 101.9 28.45 102 23.74 102.15 C23.77 103.68 23.77 103.68 23.8 105.23 C23.81 106.58 23.82 107.93 23.84 109.29 C23.85 109.95 23.86 110.62 23.88 111.31 C23.96 121.7 19.82 129.74 12.74 137.15 C6.4 143.06 -1.14 147.28 -9.93 147.2 C-10.74 147.19 -11.55 147.18 -12.39 147.18 C-13.32 147.17 -13.32 147.17 -14.26 147.15 C-14.33 129.67 -14.38 112.19 -14.42 94.71 C-14.43 86.59 -14.45 78.48 -14.49 70.36 C-14.52 63.28 -14.54 56.21 -14.54 49.13 C-14.55 45.39 -14.56 41.64 -14.58 37.9 C-14.6 33.71 -14.6 29.53 -14.6 25.34 C-14.61 24.1 -14.62 22.87 -14.63 21.59 C-14.61 15.35 -14.42 10.6 -11.26 5.15 C-7.52 1.69 -5.06 0.04 0 0 Z M23.74 38.15 C23.74 48.38 23.74 58.61 23.74 69.15 C34.99 69.21 34.99 69.21 46.25 69.25 C50.84 69.26 55.43 69.28 60.02 69.3 C63.72 69.33 67.42 69.34 71.13 69.34 C72.54 69.35 73.95 69.35 75.36 69.37 C77.34 69.38 79.32 69.38 81.3 69.38 C82.99 69.39 82.99 69.39 84.71 69.39 C87.84 69.15 89.97 68.62 92.74 67.15 C95.72 62.68 95.07 58.41 95.05 53.15 C95.07 52.14 95.08 51.13 95.1 50.09 C95.1 48.64 95.1 48.64 95.1 47.15 C95.11 46.27 95.11 45.38 95.11 44.47 C94.66 41.68 93.98 40.83 91.74 39.15 C88.41 38.04 85.94 38.03 82.43 38.04 C81.13 38.04 79.83 38.04 78.49 38.04 C77.07 38.05 75.65 38.05 74.23 38.06 C72.78 38.06 71.32 38.06 69.87 38.06 C66.05 38.06 62.22 38.07 58.4 38.09 C53.82 38.1 49.23 38.1 44.64 38.11 C37.67 38.12 30.71 38.14 23.74 38.15 Z " fill="#000000" transform="translate(211.25985717773438,934.8460998535156)"/>
<path d="M0 0 C1.03 -0.01 2.07 -0.02 3.14 -0.03 C6.55 -0.05 9.97 -0.04 13.38 -0.03 C15.77 -0.04 18.15 -0.04 20.54 -0.05 C25.53 -0.06 30.53 -0.06 35.53 -0.04 C41.91 -0.03 48.29 -0.05 54.68 -0.08 C59.6 -0.11 64.53 -0.1 69.45 -0.1 C71.81 -0.1 74.16 -0.1 76.51 -0.12 C92.78 -0.2 105.08 0.15 117.4 11.99 C123.17 18.66 126.68 25.87 126.77 34.69 C126.79 36.24 126.79 36.24 126.81 37.81 C126.82 38.92 126.83 40.03 126.83 41.17 C126.84 42.31 126.85 43.46 126.86 44.64 C126.87 47.07 126.88 49.5 126.89 51.93 C126.91 55.62 126.95 59.32 127 63.01 C127.01 65.37 127.01 67.74 127.02 70.1 C127.04 71.2 127.06 72.29 127.07 73.42 C127.05 82.3 124.92 90.27 119.6 97.53 C118.94 97.53 118.28 97.53 117.6 97.53 C117.39 98.09 117.18 98.65 116.97 99.22 C112.8 106.23 105.97 108.17 98.6 110.53 C97.11 111.03 97.11 111.03 95.6 111.53 C93.05 111.62 90.54 111.66 88 111.65 C86.85 111.65 86.85 111.65 85.67 111.65 C83.12 111.65 80.57 111.64 78.02 111.63 C76.25 111.63 74.49 111.63 72.72 111.63 C68.07 111.62 63.42 111.61 58.77 111.6 C54.02 111.59 49.28 111.59 44.53 111.58 C35.22 111.57 25.91 111.55 16.6 111.53 C16.61 113.2 16.61 113.2 16.62 114.89 C16.56 124.34 11.75 131.62 5.6 138.53 C-0.64 143.89 -7.84 147.74 -16.15 147.6 C-16.95 147.59 -17.75 147.58 -18.58 147.57 C-19.18 147.56 -19.78 147.55 -20.4 147.53 C-20.5 129.77 -20.57 112.02 -20.61 94.26 C-20.63 86.01 -20.66 77.76 -20.71 69.52 C-20.75 62.33 -20.77 55.14 -20.78 47.96 C-20.79 44.15 -20.8 40.34 -20.83 36.54 C-20.85 32.96 -20.86 29.37 -20.86 25.79 C-20.86 23.85 -20.88 21.91 -20.9 19.97 C-20.85 9.12 -20.85 9.12 -16.4 4.53 C-11.23 -0.12 -6.62 -0.04 0 0 Z M16.6 39.53 C16.51 42.42 16.48 45.28 16.5 48.16 C16.5 49.03 16.5 49.89 16.5 50.78 C16.51 53.55 16.52 56.32 16.53 59.1 C16.54 60.97 16.54 62.84 16.55 64.72 C16.56 69.32 16.57 73.93 16.6 78.53 C24.97 78.6 33.34 78.66 41.71 78.69 C45.6 78.7 49.48 78.73 53.37 78.76 C57.13 78.79 60.88 78.81 64.63 78.82 C66.06 78.82 67.49 78.83 68.92 78.85 C70.93 78.87 72.94 78.87 74.95 78.87 C76.09 78.88 77.23 78.89 78.41 78.89 C82.08 78.48 84.47 77.5 87.6 75.53 C89.4 70.13 88.82 64.31 88.85 58.66 C88.87 57.38 88.89 56.1 88.91 54.78 C88.91 53.55 88.92 52.31 88.92 51.04 C88.93 49.91 88.94 48.79 88.95 47.62 C88.55 44.15 87.72 42.29 85.6 39.53 C82.27 38.43 79.8 38.41 76.3 38.4 C75.01 38.4 73.71 38.4 72.37 38.39 C70.95 38.4 69.54 38.4 68.12 38.4 C66.67 38.4 65.22 38.4 63.77 38.4 C60.73 38.4 57.69 38.4 54.65 38.4 C50.75 38.41 46.85 38.41 42.95 38.4 C39.95 38.4 36.96 38.4 33.97 38.4 C32.53 38.4 31.09 38.4 29.65 38.4 C27.64 38.39 25.63 38.4 23.63 38.4 C22.48 38.4 21.34 38.41 20.16 38.41 C17.66 38.24 17.66 38.24 16.6 39.53 Z " fill="#000000" transform="translate(50.40478515625,934.466552734375)"/>
<path d="M0 0 C0.64 0.37 1.29 0.74 1.95 1.12 C2.56 1.41 3.17 1.7 3.8 2 C8.31 4.23 11.13 7.31 14.3 11.16 C15.76 12.89 17.25 14.45 18.89 16 C20.95 18.12 20.95 18.12 20.95 20.12 C21.61 20.12 22.27 20.12 22.95 20.12 C24.25 21.42 24.25 21.42 25.82 23.31 C29.25 27.35 32.79 31.25 36.39 35.12 C37.2 36.01 37.2 36.01 38.04 36.91 C39.34 38.31 40.64 39.72 41.95 41.12 C45.84 39.57 48.01 37.11 50.76 34 C51.43 33.25 51.43 33.25 52.11 32.49 C54.49 29.81 56.85 27.09 59.2 24.38 C62.72 20.34 66.32 16.38 69.95 12.44 C70.53 11.8 71.11 11.15 71.71 10.49 C78.62 3.02 85.7 -2.12 96.03 -3.2 C107.55 -3.6 116.25 -0.35 124.95 7.12 C123.95 9.12 122.95 11.12 121.95 13.12 C121.29 13.12 120.63 13.12 119.95 13.12 C119.55 14.01 119.55 14.01 119.15 14.92 C117.91 17.21 116.65 18.6 114.76 20.38 C112.33 22.73 110.03 25.12 107.82 27.69 C103.79 32.38 99.55 36.88 95.3 41.38 C94.76 41.96 94.21 42.55 93.64 43.15 C93.15 43.67 92.65 44.2 92.15 44.74 C90.84 46.13 90.84 46.13 89.95 48.12 C89.29 48.12 88.63 48.12 87.95 48.12 C87.72 48.66 87.5 49.2 87.26 49.75 C85.49 52.95 83.41 55.42 80.95 58.12 C80.29 58.12 79.63 58.12 78.95 58.12 C78.69 58.7 78.44 59.27 78.18 59.86 C76.82 62.37 75.23 64.26 73.32 66.38 C72.38 67.43 72.38 67.43 71.41 68.52 C70.93 69.05 70.45 69.58 69.95 70.12 C71.28 73.06 72.75 75.19 74.99 77.51 C75.86 78.42 75.86 78.42 76.75 79.36 C77.97 80.63 79.2 81.9 80.43 83.17 C81.29 84.08 81.29 84.08 82.18 85.01 C82.71 85.56 83.24 86.11 83.79 86.68 C84.95 88.12 84.95 88.12 84.95 90.12 C85.61 90.12 86.27 90.12 86.95 90.12 C88.29 91.45 88.29 91.45 89.89 93.38 C92.16 96.06 94.46 98.69 96.86 101.26 C97.61 102.06 97.61 102.06 98.37 102.88 C99.37 103.95 100.38 105.02 101.39 106.09 C104.95 109.9 104.95 109.9 104.95 112.12 C105.94 112.45 106.93 112.79 107.95 113.12 C109.46 114.62 109.46 114.62 111.07 116.56 C114.64 120.8 118.4 124.82 122.23 128.83 C123.95 131.12 123.95 131.12 123.95 135.12 C118.73 140.8 111.78 143.8 104.24 144.44 C92.71 144.92 84.54 142.5 75.35 135.49 C74.66 134.82 74.66 134.82 73.95 134.12 C73.95 133.46 73.95 132.81 73.95 132.12 C73.29 132.12 72.63 132.12 71.95 132.12 C70.61 130.8 70.61 130.8 69.01 128.88 C66.75 126.21 64.47 123.58 62.08 121.03 C61.33 120.23 61.33 120.23 60.58 119.42 C59.59 118.36 58.59 117.3 57.59 116.25 C55.38 113.87 53.99 112.25 52.95 109.12 C52.29 109.12 51.63 109.12 50.95 109.12 C49.44 107.66 49.44 107.66 47.82 105.75 C47.29 105.12 46.75 104.5 46.19 103.85 C44.95 102.12 44.95 102.12 44.95 100.12 C43.63 100.12 42.31 100.12 40.95 100.12 C40.45 101.61 40.45 101.61 39.95 103.12 C39.29 103.12 38.63 103.12 37.95 103.12 C37.69 103.71 37.42 104.3 37.15 104.9 C35.9 107.22 34.54 108.83 32.72 110.73 C32.08 111.41 31.44 112.08 30.78 112.77 C30.12 113.47 29.45 114.16 28.76 114.88 C24.25 119.6 19.81 124.36 15.54 129.3 C9.67 136.04 3.12 142.52 -6.05 144.12 C-19.17 145.01 -28.47 143.4 -39.05 135.12 C-38.47 131.98 -37.61 130.29 -35.4 128 C-34.87 127.44 -34.34 126.88 -33.79 126.3 C-33.24 125.73 -32.69 125.15 -32.11 124.56 C-31.02 123.42 -29.93 122.27 -28.84 121.12 C-28.35 120.62 -27.86 120.11 -27.36 119.6 C-25.83 117.95 -25.83 117.95 -24.05 115.12 C-23.39 115.12 -22.73 115.12 -22.05 115.12 C-21.79 114.54 -21.53 113.96 -21.27 113.36 C-19.96 110.95 -18.51 109.28 -16.61 107.3 C-15.94 106.6 -15.28 105.9 -14.59 105.18 C-13.9 104.46 -13.2 103.74 -12.49 103 C-11.11 101.56 -9.73 100.12 -8.36 98.68 C-7.75 98.05 -7.14 97.41 -6.51 96.76 C-4.97 95.17 -4.97 95.17 -4.05 93.12 C-3.39 93.12 -2.73 93.12 -2.05 93.12 C-1.8 92.55 -1.54 91.97 -1.28 91.37 C0.09 88.87 1.64 87.18 3.64 85.16 C4.36 84.42 5.08 83.68 5.81 82.93 C7.32 81.39 8.84 79.85 10.36 78.32 C11.07 77.59 11.79 76.85 12.52 76.09 C13.18 75.43 13.83 74.76 14.51 74.08 C16.34 71.99 16.34 71.99 15.95 68.12 C14.96 67.79 13.97 67.47 12.95 67.12 C11.51 65.7 11.51 65.7 9.95 63.81 C7.7 61.15 5.43 58.54 3.05 56 C2.3 55.19 2.3 55.19 1.53 54.37 C0.52 53.3 -0.48 52.23 -1.49 51.16 C-5.05 47.35 -5.05 47.35 -5.05 45.12 C-5.71 45.12 -6.37 45.12 -7.05 45.12 C-8.39 43.8 -8.39 43.8 -9.99 41.88 C-13.06 38.26 -16.21 34.74 -19.43 31.25 C-20.37 30.22 -21.31 29.2 -22.25 28.17 C-24.08 26.18 -25.92 24.19 -27.76 22.2 C-28.58 21.31 -29.39 20.42 -30.24 19.5 C-30.97 18.7 -31.71 17.91 -32.47 17.09 C-34.05 15.12 -34.05 15.12 -34.05 13.12 C-35.04 12.79 -36.03 12.47 -37.05 12.12 C-37.05 11.47 -37.05 10.8 -37.05 10.12 C-37.71 10.12 -38.37 10.12 -39.05 10.12 C-38.73 7.13 -38.1 6.17 -35.86 4.06 C-25.28 -3.23 -11.82 -6.29 0 0 Z " fill="#000000" transform="translate(1125.05078125,937.875)"/>
<path d="M0 0 C7.97 4.83 15.44 12.16 20.88 19.75 C20.88 20.41 20.88 21.07 20.88 21.75 C21.87 22.08 22.86 22.41 23.88 22.75 C25.64 24.45 25.64 24.45 27.45 26.56 C28.34 27.59 28.34 27.59 29.26 28.64 C30.78 30.61 31.86 32.49 32.88 34.75 C33.54 34.75 34.2 34.75 34.88 34.75 C36.39 36.28 36.39 36.28 38.01 38.25 C38.55 38.9 39.09 39.55 39.64 40.21 C40.05 40.72 40.46 41.23 40.88 41.75 C43.53 38.96 46.18 36.17 48.82 33.37 C49.58 32.58 50.33 31.78 51.11 30.96 C51.83 30.2 52.54 29.44 53.29 28.66 C53.95 27.96 54.62 27.26 55.3 26.53 C56.95 24.82 56.95 24.82 57.88 22.75 C58.54 22.75 59.2 22.75 59.88 22.75 C60.14 22.17 60.4 21.6 60.66 21.01 C62 18.53 63.53 16.61 65.38 14.5 C65.99 13.79 66.6 13.08 67.23 12.36 C68.88 10.75 68.88 10.75 70.88 10.75 C71.21 9.76 71.54 8.77 71.88 7.75 C72.54 7.75 73.2 7.75 73.88 7.75 C74.21 6.76 74.54 5.77 74.88 4.75 C76.96 3.21 76.96 3.21 79.57 1.68 C80.42 1.18 81.27 0.67 82.14 0.15 C90.19 -3.97 99.02 -4.77 107.8 -2.5 C114.01 -0.11 120.05 2.45 122.88 8.75 C122.19 9.5 121.5 10.25 120.79 11.02 C117.82 14.26 114.85 17.5 111.88 20.75 C111.2 21.5 111.2 21.5 110.49 22.26 C109.25 23.63 108 25 106.76 26.37 C105.67 27.57 105.67 27.57 104.56 28.79 C102.83 30.64 102.83 30.64 101.88 32.75 C101.22 32.75 100.56 32.75 99.88 32.75 C99.55 33.74 99.22 34.73 98.88 35.75 C98.22 35.75 97.56 35.75 96.88 35.75 C96.68 36.27 96.47 36.8 96.26 37.34 C94.29 40.79 91.62 43.44 88.88 46.31 C87.8 47.45 86.71 48.6 85.63 49.75 C85.15 50.25 84.67 50.76 84.18 51.28 C82.67 52.92 82.67 52.92 80.88 55.75 C80.22 55.75 79.56 55.75 78.88 55.75 C78.62 56.32 78.37 56.89 78.1 57.48 C76.77 59.96 75.23 61.88 73.38 64 C72.77 64.7 72.17 65.41 71.54 66.14 C69.88 67.75 69.88 67.75 67.88 67.75 C68.39 71.92 69.43 73.73 72.51 76.56 C75.4 79.31 78.17 82.08 80.82 85.06 C81.67 86.01 81.67 86.01 82.54 86.98 C83.88 88.75 83.88 88.75 84.88 91.75 C86.37 92.24 86.37 92.24 87.88 92.75 C89.39 94.24 89.39 94.24 91.01 96.18 C93.7 99.35 96.41 102.48 99.2 105.56 C99.94 106.39 100.69 107.22 101.46 108.08 C103.19 109.98 104.93 111.87 106.68 113.76 C107.14 114.26 107.6 114.75 108.08 115.27 C109.38 116.68 110.7 118.09 112.01 119.5 C113.88 121.75 113.88 121.75 113.88 123.75 C114.87 124.08 115.86 124.41 116.88 124.75 C118.49 126.27 118.49 126.27 120.07 128.12 C120.6 128.73 121.13 129.33 121.68 129.96 C122.88 131.75 122.88 131.75 122.88 134.75 C120.16 137.16 117.03 138.93 113.88 140.75 C113.28 141.09 112.68 141.44 112.07 141.8 C104.22 145.49 92.57 145.09 84.51 142.31 C78.75 139.58 74.36 135.2 69.88 130.75 C69.23 130.12 68.58 129.5 67.91 128.85 C64.03 125.07 60.06 121.15 56.88 116.75 C56.88 116.09 56.88 115.43 56.88 114.75 C55.4 114.25 55.4 114.25 53.88 113.75 C52.13 112.04 52.13 112.04 50.32 109.93 C49.72 109.25 49.12 108.56 48.5 107.85 C46.99 105.88 45.9 104.01 44.88 101.75 C44.22 101.75 43.56 101.75 42.88 101.75 C42.22 101.09 41.56 100.43 40.88 99.75 C40.22 99.75 39.56 99.75 38.88 99.75 C38.63 100.32 38.37 100.9 38.11 101.49 C36.75 103.99 35.2 105.74 33.22 107.79 C32.51 108.53 31.8 109.28 31.07 110.04 C29.96 111.2 29.96 111.2 28.82 112.37 C27.35 113.9 25.88 115.44 24.41 116.97 C23.76 117.65 23.11 118.33 22.43 119.02 C20.81 120.68 20.81 120.68 19.88 122.75 C19.22 122.75 18.56 122.75 17.88 122.75 C17.51 123.58 17.51 123.58 17.13 124.43 C12.54 132.93 3.85 139.92 -5.22 143.12 C-14.89 145.21 -25.49 144.97 -34.12 139.75 C-36.65 137.87 -38.83 135.93 -41.12 133.75 C-39.75 130.71 -38.19 128.54 -35.89 126.14 C-34.96 125.16 -34.96 125.16 -34.01 124.16 C-33.37 123.49 -32.72 122.81 -32.05 122.12 C-30.77 120.78 -29.49 119.43 -28.21 118.08 C-27.64 117.49 -27.07 116.9 -26.48 116.29 C-25.02 114.77 -25.02 114.77 -24.12 112.75 C-23.46 112.75 -22.8 112.75 -22.12 112.75 C-21.86 112.17 -21.61 111.59 -21.35 111 C-19.98 108.5 -18.43 106.76 -16.46 104.71 C-15.75 103.96 -15.04 103.22 -14.3 102.45 C-13.56 101.68 -12.82 100.91 -12.05 100.12 C-10.58 98.59 -9.11 97.06 -7.64 95.52 C-6.99 94.84 -6.34 94.17 -5.67 93.47 C-4.04 91.81 -4.04 91.81 -3.12 89.75 C-2.46 89.75 -1.8 89.75 -1.12 89.75 C-0.75 88.91 -0.75 88.91 -0.37 88.06 C1.72 84.19 4.55 80.63 7.88 77.75 C8.54 77.75 9.2 77.75 9.88 77.75 C10.17 77.17 10.46 76.59 10.76 76 C11.8 73.91 12.84 71.83 13.88 69.75 C10.64 65.98 7.36 62.25 3.97 58.61 C3.47 58.08 2.97 57.54 2.46 56.99 C1.46 55.92 0.45 54.85 -0.56 53.78 C-4.12 49.97 -4.12 49.97 -4.12 47.75 C-5.11 47.42 -6.1 47.09 -7.12 46.75 C-8.55 45.32 -8.55 45.32 -10.12 43.43 C-12.36 40.77 -14.64 38.16 -17.02 35.62 C-17.77 34.81 -17.77 34.81 -18.54 33.99 C-19.54 32.92 -20.55 31.85 -21.56 30.78 C-25.12 26.97 -25.12 26.97 -25.12 24.75 C-25.78 24.75 -26.44 24.75 -27.12 24.75 C-28.6 23.28 -28.6 23.28 -30.3 21.25 C-31.23 20.16 -31.23 20.16 -32.16 19.06 C-32.81 18.3 -33.45 17.53 -34.12 16.75 C-35.43 15.24 -36.74 13.74 -38.05 12.25 C-39.08 11.08 -40.1 9.91 -41.12 8.75 C-39.65 4.99 -37.82 3.62 -34.37 1.62 C-33.53 1.12 -32.69 0.63 -31.82 0.11 C-21.57 -5.07 -10.35 -4.87 0 0 Z " fill="#000000" transform="translate(572.1171875,938.25390625)"/>
<path d="" fill="#E27104" transform="translate(0,0)"/>
<path d="" fill="#E27104" transform="translate(0,0)"/>
<path d="" fill="#E27104" transform="translate(0,0)"/>
<path d="" fill="#E27104" transform="translate(0,0)"/>
</svg>
