<?xml version="1.0" encoding="UTF-8" standalone="no"?>
<svg xmlns:dc="http://purl.org/dc/elements/1.1/" xmlns:cc="http://creativecommons.org/ns#" xmlns:rdf="http://www.w3.org/1999/02/22-rdf-syntax-ns#" xmlns:svg="http://www.w3.org/2000/svg" xmlns="http://www.w3.org/2000/svg" id="svg4027" version="1.1" viewBox="0 0 27.781249 11.1125" height="42" width="105">
  <defs id="defs4021">
    <style id="style2">.cls-1{fill:#fff;stroke:#d9d9d9;}.cls-2{fill:#e00;}</style>
  </defs>
  <g id="layer1">
    <g transform="matrix(0.15733265,0,0,0.15733265,0.28233046,1.9934839)" id="g1280">
      <g transform="translate(-26.61,-44.82)" data-name="Group 81" id="Group_81">
        <g data-name="Group 80" id="Group_80" transform="matrix(1.1621815,0,0,1.1621815,-4.3156506,-2.2312259)">
          <path style="fill:#616870;" d="m 53.36,62.31 c 2.64,0 6.45,-0.55 6.45,-3.68 a 2.88,2.88 0 0 0 -0.06,-0.72 l -1.57,-6.82 c -0.37,-1.5 -0.68,-2.18 -3.32,-3.5 -2,-1 -6.49,-2.77 -7.81,-2.77 -1.32,0 -1.59,1.59 -3,1.59 -1.41,0 -2.45,-1.18 -3.77,-1.18 -1.32,0 -2.09,0.86 -2.73,2.63 0,0 -1.77,5 -2,5.72 a 1.43,1.43 0 0 0 0,0.41 c 0,1.94 7.64,8.31 17.89,8.31 m 6.86,-2.4 a 10.2,10.2 0 0 1 0.28,2.1 c 0,3 -3.31,4.59 -7.67,4.59 -9.86,0 -18.49,-5.77 -18.49,-9.59 a 3.9,3.9 0 0 1 0.32,-1.54 c -3.54,0.18 -8.13,0.82 -8.13,4.86 0,6.63 15.72,14.8 28.16,14.8 9.54,0 11.94,-4.31 11.94,-7.72 0,-2.68 -2.31,-5.72 -6.49,-7.54" class="cls-2" data-name="Path 392" id="Path_392" />
          <path style="fill:#ccc;" d="m 60.22,59.9 a 9.67,9.67 0 0 1 0.36,2.1 c 0,2.95 -3.31,4.58 -7.67,4.58 -9.86,0 -18.48,-5.76 -18.48,-9.58 a 3.85,3.85 0 0 1 0.31,-1.54 l 0.78,-1.91 a 1.13,1.13 0 0 0 -0.05,0.41 c 0,1.94 7.65,8.31 17.89,8.31 2.64,0 6.45,-0.55 6.45,-3.68 a 2.92,2.92 0 0 0 -0.06,-0.72 z" data-name="Path 393" id="Path_393" />
        </g>
        <path d="m 149.90363,60.955366 c 0,2.294732 1.38602,3.423739 3.90104,3.423739 a 10.647553,10.647553 0 0 0 2.29473,-0.330441 v -2.661888 a 4.7822198,4.7822198 0 0 1 -1.4778,0.229473 c -1.03722,0 -1.42274,-0.330441 -1.42274,-1.303407 v -4.093801 h 3.00151 v -2.753677 h -3.00151 V 49.99573 l -3.29523,0.715956 v 2.753678 h -2.17541 v 2.753677 h 2.17541 z m -10.2345,0.06425 c 0,-0.706777 0.70677,-1.055576 1.78989,-1.055576 a 8.1876009,8.1876009 0 0 1 1.94593,0.238652 v 1.422733 a 3.9928323,3.9928323 0 0 1 -2.05608,0.504841 c -1.05558,0 -1.67974,-0.403873 -1.67974,-1.073934 m 1.00968,3.396202 a 5.0208719,5.0208719 0 0 0 2.96479,-0.835282 v 0.651703 h 3.25852 v -6.930088 c 0,-2.625172 -1.77153,-4.066264 -4.71797,-4.066264 a 11.932602,11.932602 0 0 0 -5.03005,1.184082 l 1.14737,2.414057 a 8.8851992,8.8851992 0 0 1 3.24934,-0.85364 c 1.36766,0 2.05608,0.532378 2.05608,1.606312 v 0.532377 a 9.5277239,9.5277239 0 0 0 -2.4416,-0.312083 c -2.75368,0 -4.43342,1.165723 -4.43342,3.24016 0,1.890859 1.50534,3.33195 3.91022,3.33195 M 122.76155,64.23224 h 3.49717 v -5.571608 h 5.86533 v 5.571608 h 3.49717 V 49.99573 h -3.49717 v 5.507355 h -5.86533 V 49.99573 h -3.49717 z m -13.29109,-5.360493 a 2.7536774,2.7536774 0 0 1 2.75368,-2.753677 h 0.10097 a 3.3411286,3.3411286 0 0 1 2.27637,0.835282 v 3.75418 a 3.1667291,3.1667291 0 0 1 -2.27637,0.85364 2.7536774,2.7536774 0 0 1 -2.82711,-2.64353 v -0.04589 m 5.14938,5.388029 h 3.24934 V 49.288953 l -3.29524,0.706777 v 4.047906 a 5.6083231,5.6083231 0 0 0 -8.33446,4.690431 v 0.137683 a 5.5073549,5.5073549 0 0 0 5.41557,5.507355 h 0.0918 a 4.8372934,4.8372934 0 0 0 2.89137,-0.917892 z M 99.722458,55.998747 a 2.3681626,2.3681626 0 0 1 2.248832,1.70728 h -4.497668 a 2.2488366,2.2488366 0 0 1 2.239658,-1.70728 m -5.580787,2.873003 a 5.6633966,5.6633966 0 0 0 5.71847,5.580787 h 0.137684 a 6.4252474,6.4252474 0 0 0 4.497663,-1.62467 l -2.1754,-1.927574 a 2.8730035,2.8730035 0 0 1 -2.14786,0.816924 2.7536774,2.7536774 0 0 1 -2.643534,-1.70728 h 7.664394 v -0.816924 c 0,-3.41456 -2.29473,-5.874512 -5.433915,-5.874512 a 5.5073549,5.5073549 0 0 0 -5.608323,5.433923 v 0.119326 m -5.672575,-5.874511 a 1.6338486,1.6338486 0 0 1 1.835785,1.441091 c 0,0.05507 0,0.110147 0,0.16522 a 1.6338486,1.6338486 0 0 1 -1.652207,1.615491 h -3.644033 v -3.221802 z m -6.957625,11.244183 h 3.49717 v -5.186093 h 2.661888 l 2.680246,5.186093 h 3.891864 l -3.130013,-5.690934 a 4.3049157,4.3049157 0 0 0 2.680246,-4.002011 c 0,-2.570099 -2.010185,-4.534389 -5.020872,-4.534389 h -7.260529 z" data-name="Path 394" id="Path_394" style="fill:#616870;stroke-width:0.917892" />
      </g>
      <path id="path875" d="M 91.230283,40.59332 C 88.936156,39.761224 88.451336,38.530578 88.55143,33.793402 l 0.07299,-3.454421 h 1.023532 1.023532 l 0.127942,3.797672 c 0.12151,3.606829 0.158299,3.822218 0.732025,4.286041 0.831425,0.672159 2.574585,0.650988 3.455536,-0.04197 l 0.674216,-0.530338 v -3.819673 -3.819675 h 1.023533 1.023532 v 5.245603 5.245603 h -1.023532 c -0.739218,0 -1.023533,-0.106618 -1.023533,-0.383825 0,-0.475223 -0.123975,-0.478849 -0.840621,-0.02459 -0.884657,0.560758 -2.498757,0.695398 -3.590299,0.299491 z m 64.482327,0.0046 c -0.78953,-0.215891 -1.5983,-0.694168 -2.25007,-1.330605 -3.47753,-3.395712 -1.12153,-9.18238 3.73852,-9.18238 5.68401,0 7.48228,7.560309 2.43089,10.219962 -1.02418,0.539256 -2.59057,0.656366 -3.91934,0.293023 z m 3.1415,-2.105376 c 2.14063,-1.2645 2.14063,-4.807329 0,-6.071828 -2.50536,-1.479951 -5.46899,0.93856 -4.81766,3.931505 0.29434,1.352434 1.73578,2.558831 3.0574,2.558831 0.57849,0 1.3706,-0.188328 1.76026,-0.418508 z m -99.903382,1.967965 c -0.08217,-0.132957 -0.309233,-0.679907 -0.504579,-1.215444 -0.195346,-0.535538 -1.451972,-3.650881 -2.7925,-6.922986 l -2.437327,-5.949286 h 1.201225 1.201227 l 2.279837,5.757368 c 1.253908,3.166553 2.362903,5.75737 2.464432,5.75737 0.206812,0 0.791211,-1.347555 3.162645,-7.292668 l 1.633097,-4.094129 1.210921,-0.07935 c 0.92001,-0.06029 1.177528,0.0013 1.071927,0.255883 -0.07644,0.184376 -0.842088,2.004869 -1.70143,4.045537 -0.85934,2.040668 -2.152959,5.12086 -2.874702,6.844872 l -1.312266,3.134568 h -1.226553 c -0.674602,0 -1.293783,-0.108784 -1.375954,-0.241741 z m 9.645544,-4.939887 0.06927,-5.181631 h 1.023531 1.023532 l 0.06927,5.181631 0.06926,5.181633 h -1.16207 -1.162071 z m 4.547224,-0.06397 v -5.245611 h 0.919547 c 0.701892,0 0.950971,0.120171 1.052311,0.5077 0.131086,0.501276 0.14065,0.501498 0.755712,0.01768 0.747129,-0.587695 1.928865,-0.880937 2.640224,-0.655159 0.387024,0.122837 0.517516,0.385732 0.517516,1.042601 0,0.868158 -0.01313,0.878347 -1.131839,0.878347 -0.84434,0 -1.331824,0.168271 -1.919124,0.662453 l -0.787282,0.662456 v 3.687556 3.68756 h -1.023533 -1.023532 v -5.245604 z m 9.715741,4.509507 -0.759835,-0.759834 v -3.602049 -3.602045 h -1.167686 c -1.163247,0 -1.167382,-0.0031 -1.087503,-0.83162 0.07527,-0.780577 0.146931,-0.836449 1.167687,-0.910304 l 1.087502,-0.07868 v -1.2496 c 0,-1.373043 0.01758,-1.396953 1.215445,-1.65387 l 0.83162,-0.178363 v 1.555629 1.55563 h 1.535298 1.535299 v 0.895591 0.895591 h -1.535299 -1.535298 v 3.147361 c 0,2.10677 0.101522,3.248883 0.30706,3.454422 0.168883,0.168883 0.867062,0.307059 1.551511,0.307059 h 1.244452 l -0.08019,0.83162 -0.08019,0.831621 -1.735025,0.07585 c -1.629578,0.07123 -1.781201,0.02966 -2.494859,-0.683996 z m 18.149383,0.151004 c -1.711939,-1.152024 -1.78691,-3.676438 -0.14529,-4.891955 0.62105,-0.459844 1.08566,-0.536067 3.26251,-0.535237 2.4473,10e-4 2.53832,-0.01929 2.53832,-0.563696 0,-1.938795 -1.63865,-2.719661 -4.20811,-2.005286 -1.44819,0.402631 -1.55,0.40136 -1.86049,-0.02326 -0.49773,-0.680688 -0.39956,-1.029165 0.37522,-1.331902 3.31672,-1.295989 6.26426,-0.792716 7.29226,1.245106 0.36754,0.7286 0.44746,1.583333 0.44779,4.789103 l 4e-4,3.902219 h -1.02354 c -0.73921,0 -1.02353,-0.106618 -1.02353,-0.383825 0,-0.473335 -0.0257,-0.473378 -0.93031,-0.0016 -1.17044,0.610427 -3.67891,0.504417 -4.72523,-0.199691 z m 4.9006,-1.340602 c 0.61398,-0.317502 0.75494,-0.554711 0.75494,-1.270414 0,-1.101914 -0.61311,-1.474632 -2.46989,-1.501473 -1.08258,-0.01566 -1.4721,0.09995 -1.99639,0.592493 -0.81345,0.764205 -0.81805,1.146957 -0.0233,1.941712 0.74857,0.748571 2.52773,0.861798 3.73464,0.237682 z m 5.10495,-5.221787 c 0,-6.928501 0.0157,-7.151932 0.51177,-7.292668 0.28148,-0.07986 0.74206,-0.210518 1.02354,-0.290371 0.50335,-0.142798 0.51176,-0.02298 0.51176,7.292667 v 7.437853 h -1.02353 -1.02354 z m 4.35001,1.901878 v -5.245611 h 1.02354 1.02353 v 5.245603 5.245603 h -1.02353 -1.02354 z m 3.83825,4.389449 c 0,-0.667847 0.32467,-1.244712 1.47615,-2.622801 2.78877,-3.337588 3.8974,-4.756624 3.8974,-4.988643 0,-0.127834 -1.20905,-0.232426 -2.68677,-0.232426 h -2.68678 v -0.895599 -0.895591 h 4.22207 4.22208 v 0.778985 c 0,0.763138 -0.96336,2.103226 -4.51841,6.285386 -0.61106,0.718852 -1.11103,1.38095 -1.11103,1.471328 0,0.09038 1.26663,0.164326 2.81472,0.164326 h 2.81472 v 0.89559 0.895591 h -4.22208 -4.22207 z m 11.52242,0.528801 c -0.83312,-0.421562 -1.79911,-1.881429 -1.7979,-2.717112 9.1e-4,-0.943165 0.8585,-2.231091 1.81352,-2.724953 0.61951,-0.320363 1.3394,-0.399623 3.01794,-0.332277 2.19998,0.08826 2.20451,0.08714 2.2805,-0.565251 0.0431,-0.370639 -0.15116,-0.942673 -0.4488,-1.321065 -0.74272,-0.944217 -2.12141,-1.125474 -3.9262,-0.516181 l -1.4329,0.483744 -0.30563,-0.737849 c -0.39591,-0.95583 -0.20648,-1.121381 1.86935,-1.633642 2.91719,-0.719888 5.36097,0.07589 6.00875,1.956659 0.17957,0.521339 0.31137,2.441974 0.31986,4.661005 l 0.0144,3.774275 h -0.99615 c -0.65951,0 -1.0471,-0.132737 -1.14688,-0.392772 -0.1355,-0.353109 -0.22743,-0.353109 -0.91026,0 -0.91688,0.474135 -3.47601,0.512535 -4.35964,0.06542 z m 4.85013,-1.844065 c 0.60223,-0.545011 0.67162,-1.474391 0.14908,-1.996925 -1.06337,-1.063378 -4.16031,-0.60905 -4.61196,0.676586 -0.22723,0.64677 -0.17134,0.803627 0.48851,1.371205 0.64279,0.552902 0.93136,0.625448 2.10186,0.528382 0.82254,-0.06821 1.55985,-0.296298 1.87251,-0.579248 z m 6.49216,1.565254 -0.73082,-0.62831 -0.0879,-3.732777 -0.0879,-3.732773 h -0.99954 c -0.97173,0 -0.99954,-0.02491 -0.99954,-0.895591 0,-0.874268 0.0243,-0.895591 1.02354,-0.895591 h 1.02353 v -1.264312 c 0,-1.386335 0.0185,-1.411881 1.20215,-1.665664 l 0.81833,-0.175446 0.0773,1.488741 0.0773,1.48874 1.47132,0.07674 1.47133,0.07675 v 0.870051 0.870051 l -1.47133,0.07674 -1.47132,0.07673 -0.0719,2.980455 c -0.0855,3.549837 0.0936,3.901132 1.91565,3.756215 l 1.12248,-0.08927 -0.0757,0.898374 -0.0757,0.898373 -1.70007,0.07505 c -1.49612,0.06604 -1.78774,-2.56e-4 -2.43089,-0.553265 z m 5.79419,-4.639439 v -5.245611 h 1.02354 1.02353 v 5.245603 5.245603 h -1.02353 -1.02354 z m 16.63241,0 v -5.245611 h 1.02353 c 0.73922,0 1.02352,0.106619 1.02352,0.383825 0,0.477539 -0.007,0.477961 1.0482,-0.06041 1.22341,-0.624018 3.25055,-0.554988 4.39044,0.149501 1.49376,0.923196 1.72609,1.751607 1.72609,6.154738 v 3.863546 h -1.02353 -1.02353 v -3.562729 c 0,-3.459547 -0.0192,-3.585534 -0.66246,-4.350013 -0.56946,-0.676767 -0.83401,-0.787283 -1.88461,-0.787283 -0.84897,0 -1.42803,0.161941 -1.89638,0.530338 l -0.67422,0.530338 v 3.819674 3.819675 h -1.02352 -1.02353 z M 68.84466,28.36868 c -0.168883,-0.168883 -0.307059,-0.606442 -0.307059,-0.972355 0,-0.804625 0.427312,-1.279416 1.151474,-1.279416 0.724162,0 1.151474,0.474791 1.151474,1.279416 0,0.804624 -0.427312,1.279415 -1.151474,1.279415 -0.295545,0 -0.675532,-0.138177 -0.844415,-0.30706 z m 46.64046,-0.212454 c -0.67385,-0.744584 -0.25774,-1.879732 0.73087,-1.993836 0.92665,-0.106951 1.45114,0.347108 1.45114,1.256263 0,1.205711 -1.34646,1.660848 -2.18201,0.737573 z m 32.49714,0 c -0.37184,-0.410885 -0.41928,-0.665033 -0.22686,-1.215445 0.44585,-1.275311 2.40888,-0.997706 2.40888,0.340658 0,1.269305 -1.33912,1.806173 -2.18202,0.874787 z" style="fill:#616870;stroke-width:0.255883" />
    </g>
  </g>
</svg>
