<?xml version="1.0" encoding="UTF-8" standalone="no"?>
<svg xmlns:dc="http://purl.org/dc/elements/1.1/" xmlns:cc="http://creativecommons.org/ns#" xmlns:rdf="http://www.w3.org/1999/02/22-rdf-syntax-ns#" xmlns:svg="http://www.w3.org/2000/svg" xmlns="http://www.w3.org/2000/svg" id="svg1679" version="1.1" viewBox="0 0 50.799999 33.866668" height="128" width="192">
  <defs id="defs1673">
    <style id="style2">.cls-1{fill:#fff;stroke:#d9d9d9;}.cls-2{fill:#e00;}</style>
  </defs>
  <g id="layer1">
    <g id="g1280" transform="matrix(0.26914776,0,0,0.26914776,0.65975349,7.7612912)">
      <g id="Group_81" data-name="Group 81" transform="matrix(1.0339177,0,0,1.0339177,-27.512549,-46.824412)">
        <g transform="matrix(1.5722095,0,0,1.5722095,42.155928,-46.191591)" id="Group_80" data-name="Group 80">
          <path id="Path_392" data-name="Path 392" class="cls-2" d="m 53.36,62.31 c 2.64,0 6.45,-0.55 6.45,-3.68 a 2.88,2.88 0 0 0 -0.06,-0.72 l -1.57,-6.82 c -0.37,-1.5 -0.68,-2.18 -3.32,-3.5 -2,-1 -6.49,-2.77 -7.81,-2.77 -1.32,0 -1.59,1.59 -3,1.59 -1.41,0 -2.45,-1.18 -3.77,-1.18 -1.32,0 -2.09,0.86 -2.73,2.63 0,0 -1.77,5 -2,5.72 a 1.43,1.43 0 0 0 0,0.41 c 0,1.94 7.64,8.31 17.89,8.31 m 6.86,-2.4 a 10.2,10.2 0 0 1 0.28,2.1 c 0,3 -3.31,4.59 -7.67,4.59 -9.86,0 -18.49,-5.77 -18.49,-9.59 a 3.9,3.9 0 0 1 0.32,-1.54 c -3.54,0.18 -8.13,0.82 -8.13,4.86 0,6.63 15.72,14.8 28.16,14.8 9.54,0 11.94,-4.31 11.94,-7.72 0,-2.68 -2.31,-5.72 -6.49,-7.54" />
          <path id="Path_393" data-name="Path 393" d="m 60.22,59.9 a 9.67,9.67 0 0 1 0.36,2.1 c 0,2.95 -3.31,4.58 -7.67,4.58 -9.86,0 -18.48,-5.76 -18.48,-9.58 a 3.85,3.85 0 0 1 0.31,-1.54 l 0.78,-1.91 a 1.13,1.13 0 0 0 -0.05,0.41 c 0,1.94 7.65,8.31 17.89,8.31 2.64,0 6.45,-0.55 6.45,-3.68 a 2.92,2.92 0 0 0 -0.06,-0.72 z" />
        </g>
        <path id="Path_394" data-name="Path 394" d="m 149.34023,101.58214 c 0,2.49999 1.51,3.72999 4.25,3.72999 a 11.6,11.6 0 0 0 2.5,-0.36 v -2.9 a 5.21,5.21 0 0 1 -1.61,0.25 c -1.13,0 -1.55,-0.36 -1.55,-1.41999 v -4.460001 h 3.27 v -3 h -3.27 v -3.78 l -3.59,0.78 v 3 h -2.37 v 3 h 2.37 z m -11.15,0.07 c 0,-0.77 0.77,-1.15 1.95,-1.15 a 8.92,8.92 0 0 1 2.12,0.26 v 1.54999 a 4.35,4.35 0 0 1 -2.24,0.55 c -1.15,0 -1.83,-0.44 -1.83,-1.16999 m 1.1,3.69999 a 5.47,5.47 0 0 0 3.23,-0.91 v 0.71 h 3.55 v -7.549991 c 0,-2.86 -1.93,-4.43 -5.14,-4.43 a 13,13 0 0 0 -5.48,1.29 l 1.25,2.63 a 9.68,9.68 0 0 1 3.54,-0.93 c 1.49,0 2.24,0.58 2.24,1.75 v 0.579996 a 10.38,10.38 0 0 0 -2.66,-0.34 c -3,0 -4.83,1.27 -4.83,3.530005 0,2.05999 1.64,3.62999 4.26,3.62999 m -19.48001,-0.2 h 3.81001 v -6.069995 h 6.39 v 6.069995 h 3.81 V 89.642139 h -3.81 v 6 h -6.39 v -6 h -3.81001 z m -14.48,-5.839995 a 3,3 0 0 1 3,-2.999996 h 0.11 a 3.64,3.64 0 0 1 2.48,0.91 v 4.090001 a 3.45,3.45 0 0 1 -2.48,0.92999 3,3 0 0 1 -3.08,-2.879995 v -0.05 m 5.61,5.869995 h 3.54 V 88.872139 l -3.59,0.77 v 4.41 a 6.11,6.11 0 0 0 -9.08,5.109996 v 0.15 a 6,6 0 0 0 5.9,5.999995 h 0.1 a 5.27,5.27 0 0 0 3.15,-1 z m -16.26,-8.999991 a 2.58,2.58 0 0 1 2.45,1.86 h -4.9 a 2.45,2.45 0 0 1 2.44,-1.86 m -6.08,3.129996 a 6.17,6.17 0 0 0 6.23,6.079995 h 0.15 a 7,7 0 0 0 4.9,-1.77 l -2.37,-2.09999 a 3.13,3.13 0 0 1 -2.34,0.88999 3,3 0 0 1 -2.88,-1.85999 h 8.35 v -0.890005 c 0,-3.719996 -2.5,-6.399996 -5.92,-6.399996 a 6,6 0 0 0 -6.11,5.919996 v 0.13 m -6.18,-6.399996 a 1.78,1.78 0 0 1 2,1.57 c 0,0.06 0,0.12 0,0.18 a 1.78,1.78 0 0 1 -1.8,1.76 h -3.97 v -3.51 z m -7.58,12.249991 h 3.81 v -5.649995 h 2.9 l 2.92,5.649995 h 4.24 l -3.41,-6.199995 a 4.69,4.69 0 0 0 2.92,-4.359996 c 0,-2.8 -2.19,-4.94 -5.47,-4.94 h -7.91 z" />
      </g>
      <path style="fill:#000000;stroke-width:0.288227" d="m 66.879996,85.752687 c -2.584114,-0.937276 -3.130217,-2.32348 -3.01747,-7.659454 l 0.08222,-3.891074 h 1.15291 1.15291 l 0.144115,4.277714 c 0.13687,4.062745 0.178308,4.30536 0.824556,4.827813 0.93652,0.757122 2.900023,0.733275 3.892329,-0.04727 l 0.75944,-0.597375 V 78.360546 74.05805 h 1.152911 1.15291 v 5.908668 5.908667 h -1.15291 c -0.832658,0 -1.152911,-0.120095 -1.152911,-0.432342 0,-0.535293 -0.139646,-0.539377 -0.946879,-0.0277 -0.996481,0.63164 -2.81461,0.783299 -4.044128,0.337347 z m 72.633164,0.0052 c -0.88932,-0.243181 -1.80033,-0.781913 -2.53448,-1.498798 -3.9171,-3.824943 -1.26331,-10.343069 4.21108,-10.343069 6.40248,0 8.42806,8.515962 2.73817,11.511805 -1.15365,0.607421 -2.91804,0.739333 -4.41477,0.330062 z m 3.5386,-2.371503 c 2.41121,-1.424338 2.41121,-5.414994 0,-6.839332 -2.82204,-1.667022 -6.16029,1.057199 -5.42663,4.428463 0.33154,1.523387 1.95519,2.882277 3.44387,2.882277 0.65161,0 1.54385,-0.212133 1.98276,-0.471408 z M 30.520179,85.603077 C 30.427619,85.453313 30.171858,84.837228 29.95182,84.233996 29.73178,83.630764 28.316312,80.121629 26.806336,76.435918 L 24.060922,69.73463 h 1.353064 1.353068 l 2.568016,6.485122 c 1.412407,3.566818 2.661584,6.485124 2.775946,6.485124 0.232954,0 0.891224,-1.517892 3.562416,-8.21449 l 1.839527,-4.611642 1.363986,-0.08938 c 1.036303,-0.06791 1.326372,0.0014 1.207423,0.288228 -0.08611,0.207682 -0.948531,2.258292 -1.916498,4.556908 -0.967964,2.298616 -2.425101,5.768156 -3.238076,7.710091 L 33.451653,85.87538 H 32.07006 c -0.759875,0 -1.457323,-0.122535 -1.549881,-0.272298 z m 10.864779,-5.564308 0.07803,-5.83661 h 1.15291 1.15291 l 0.07803,5.83661 0.07802,5.836611 h -1.30896 -1.308961 z m 5.122011,-0.07205 v -5.908667 h 1.03578 c 0.790614,0 1.071178,0.13536 1.185328,0.571875 0.147656,0.564639 0.158429,0.564889 0.851237,0.01991 0.84157,-0.661981 2.172681,-0.99229 2.973959,-0.737973 0.435945,0.138364 0.582932,0.434489 0.582932,1.17439 0,0.977896 -0.01479,0.989373 -1.274909,0.989373 -0.951067,0 -1.500171,0.189541 -2.161708,0.74619 L 48.81279,77.56801 v 4.153677 4.153682 h -1.152911 -1.15291 v -5.908668 z m 10.943849,5.079526 -0.855882,-0.85588 V 80.133003 76.075646 H 55.27965 c -1.310285,0 -1.314943,-0.0035 -1.224968,-0.93674 0.08478,-0.879245 0.165504,-0.942179 1.315287,-1.02537 l 1.224967,-0.08863 v -1.407555 c 0,-1.5466 0.0198,-1.573532 1.369082,-1.862925 l 0.93674,-0.200909 v 1.752267 1.752268 h 1.729366 1.729367 v 1.008797 1.008797 h -1.729367 -1.729366 v 3.5452 c 0,2.373074 0.114354,3.659555 0.345873,3.891074 0.190231,0.19023 0.976663,0.345873 1.747628,0.345873 h 1.401756 l -0.09032,0.93674 -0.09032,0.936741 -1.954339,0.08543 c -1.835564,0.08023 -2.006353,0.03341 -2.81022,-0.770455 z m 20.443535,0.170092 c -1.928335,-1.297644 -2.012782,-4.141154 -0.16365,-5.510317 0.69955,-0.517971 1.2229,-0.603828 3.6749,-0.602894 2.75665,0.0011 2.85919,-0.02173 2.85919,-0.634948 0,-2.183867 -1.84579,-3.063437 -4.74005,-2.258763 -1.63125,0.453526 -1.74593,0.452094 -2.09566,-0.0262 -0.56065,-0.76673 -0.45007,-1.159256 0.42264,-1.50026 3.73598,-1.459807 7.0561,-0.892919 8.21405,1.402492 0.414,0.820697 0.50402,1.783472 0.5044,5.394464 l 4.4e-4,4.395475 h -1.15291 c -0.83266,0 -1.15291,-0.120095 -1.15291,-0.432342 0,-0.533166 -0.0289,-0.533215 -1.04791,-0.0018 -1.31839,0.687587 -4.14395,0.568177 -5.32253,-0.224933 z m 5.52007,-1.510059 c 0.69159,-0.357635 0.85037,-0.624829 0.85037,-1.430999 0,-1.241201 -0.69062,-1.661032 -2.7821,-1.691265 -1.21943,-0.01764 -1.65819,0.112587 -2.24874,0.667385 -0.91629,0.860804 -0.92146,1.291937 -0.0262,2.187153 0.84319,0.843193 2.84724,0.970733 4.20671,0.267726 z m 5.75024,-5.881842 c 0,-7.80429 0.0177,-8.055964 0.57646,-8.21449 0.31705,-0.08995 0.83586,-0.237127 1.15291,-0.327074 0.56698,-0.160849 0.57645,-0.02588 0.57645,8.214488 v 8.378027 h -1.15291 -1.15291 z m 4.89987,2.142283 v -5.908667 h 1.15291 1.15291 v 5.908667 5.908668 h -1.15291 -1.15291 z m 4.32342,4.944293 c 0,-0.752266 0.3657,-1.402049 1.662737,-2.954334 3.14128,-3.759471 4.39005,-5.357879 4.39005,-5.619227 0,-0.143992 -1.36188,-0.261805 -3.02639,-0.261805 h -3.026397 v -1.008797 -1.008797 h 4.755757 4.75576 v 0.877451 c 0,0.859602 -1.08512,2.369082 -5.08955,7.079884 -0.6883,0.809718 -1.25146,1.555507 -1.25146,1.657309 0,0.10181 1.42673,0.185097 3.1705,0.185097 h 3.17051 v 1.008797 1.008797 h -4.75576 -4.755757 z m 12.978897,0.595643 c -0.93842,-0.474849 -2.02652,-2.119249 -2.02517,-3.060566 0.001,-1.062384 0.96703,-2.513109 2.04277,-3.069397 0.69782,-0.360858 1.5087,-0.450137 3.39942,-0.374279 2.47806,0.09942 2.48317,0.09816 2.56876,-0.636701 0.0486,-0.417488 -0.17027,-1.06183 -0.50553,-1.488052 -0.8366,-1.06357 -2.38957,-1.267738 -4.42249,-0.581428 l -1.61402,0.544891 -0.34426,-0.831115 c -0.44596,-1.076652 -0.23258,-1.263129 2.10563,-1.840141 3.28594,-0.810885 6.03863,0.08548 6.76829,2.203988 0.20226,0.587238 0.35072,2.750649 0.36029,5.250174 l 0.0162,4.251358 h -1.12207 c -0.74287,0 -1.17945,-0.149515 -1.29185,-0.44242 -0.15263,-0.397743 -0.25617,-0.397743 -1.02531,0 -1.03279,0.534068 -3.9154,0.577322 -4.91072,0.07369 z m 5.46321,-2.077162 c 0.67835,-0.613902 0.75651,-1.660759 0.16792,-2.249344 -1.19778,-1.197794 -4.68619,-0.686036 -5.19493,0.762109 -0.25595,0.728524 -0.193,0.905208 0.55026,1.544531 0.72404,0.622791 1.04909,0.704507 2.36755,0.595171 0.9265,-0.07683 1.75702,-0.333751 2.1092,-0.652467 z m 7.31279,1.763109 -0.8232,-0.707732 -0.0991,-4.204614 -0.0991,-4.20461 h -1.12588 c -1.09457,0 -1.12589,-0.02806 -1.12589,-1.008797 0,-0.984779 0.0274,-1.008797 1.15292,-1.008797 h 1.15291 v -1.424127 c 0,-1.561572 0.0208,-1.590348 1.35411,-1.87621 l 0.92177,-0.197623 0.0871,1.676924 0.0871,1.676922 1.65731,0.08644 1.6573,0.08645 v 0.980029 0.980029 l -1.6573,0.08645 -1.65731,0.08644 -0.081,3.357196 c -0.0964,3.998551 0.1054,4.394251 2.15779,4.231016 l 1.26437,-0.100559 -0.0853,1.011932 -0.0853,1.011931 -1.91496,0.08453 c -1.68523,0.07439 -2.01372,-2.89e-4 -2.73817,-0.6232 z m 6.5266,-5.225883 v -5.908667 h 1.15291 1.15291 v 5.908667 5.908668 h -1.15291 -1.15291 z m 18.73481,0 v -5.908667 h 1.15291 c 0.83265,0 1.1529,0.120095 1.1529,0.432342 0,0.537901 -0.008,0.538377 1.18069,-0.06804 1.37806,-0.702895 3.66144,-0.625139 4.94542,0.1684 1.68257,1.039891 1.94427,1.973017 1.94427,6.932721 v 4.351912 h -1.15291 -1.15291 v -4.013072 c 0,-3.896847 -0.0216,-4.038759 -0.74619,-4.899871 -0.64145,-0.762313 -0.93944,-0.886798 -2.12284,-0.886798 -0.95628,0 -1.60854,0.182411 -2.13609,0.597375 l -0.75944,0.597374 v 4.302496 4.302496 h -1.1529 -1.15291 z M 41.664743,71.982805 c -0.19023,-0.19023 -0.345873,-0.683099 -0.345873,-1.095265 0,-0.906332 0.481326,-1.441138 1.297025,-1.441138 0.815699,0 1.297025,0.534806 1.297025,1.441138 0,0.906332 -0.481326,1.441139 -1.297025,1.441139 -0.332903,0 -0.760921,-0.155643 -0.951152,-0.345874 z m 52.53601,-0.239309 c -0.75902,-0.838702 -0.29032,-2.117338 0.82325,-2.245865 1.04378,-0.12047 1.63458,0.390984 1.63458,1.41506 0,1.358117 -1.51667,1.870785 -2.45783,0.830805 z m 36.604917,0 c -0.41885,-0.462822 -0.47228,-0.749095 -0.25554,-1.369082 0.5022,-1.436515 2.71337,-1.12382 2.71337,0.383718 0,1.429751 -1.50839,2.034481 -2.45783,0.985364 z" id="path875" />
    </g>
  </g>
</svg>
