<?xml version="1.0" encoding="UTF-8"?>
<svg width="80px" height="32px" viewBox="0 0 80 32" version="1.1" xmlns="http://www.w3.org/2000/svg" xmlns:xlink="http://www.w3.org/1999/xlink">
        <g id="Provider/SCVMM/scvmm-32" stroke="none" stroke-width="1" fill="none" fill-rule="evenodd">
        <path d="M9.64611128,2.21151436 C9.71403973,3.03463185 9.8875484,3.82392258 10.1883744,4.65831565 C9.25134993,4.39353388 6.96856581,4.02960475 6.1844774,3.92306994 C7.53800031,3.05057319 9.41825984,2.31688273 9.64611128,2.21151436 M5.035128,5.80453687 C4.54216152,5.39239491 5.06501652,4.80995278 5.37399393,4.5300073 C5.49510066,4.41997317 5.63134572,4.31032786 5.77807118,4.20184899 C6.16235213,4.71935932 7.14479162,6.06854102 7.52286197,6.49468025 L8.20641627,6.44180166 C7.85901076,6.10975521 6.35526893,4.50123513 5.92790193,4.09531418 C5.93294805,4.09142604 5.93915865,4.08792673 5.94459292,4.08403859 C6.64639087,4.38459118 9.04678825,4.89471406 10.3083166,4.97636482 C10.3110338,4.98336346 10.3133628,4.9903621 10.3168562,4.99813836 C9.87046925,5.23648083 9.0619266,5.66145363 8.18894895,6.28277707 L8.76071243,6.38620138 C9.41903617,6.02110581 9.88871289,5.6548438 10.3882781,5.17582598 C10.6180704,5.73027356 10.9018172,6.31038281 11.2492227,6.93831608 L11.8042952,7.00363669 C10.8001186,5.12216976 10.0408726,3.42111214 9.72296747,2 C8.99322182,2.23873129 4.96642322,3.7477152 4.22619718,4.8398914 C3.93934504,5.26408657 4.76807215,5.59457776 5.035128,5.80453687" id="Fill-45-Copy" fill="#616870"></path>
        <path d="M13.4313388,22.283242 C12.3770892,21.9690809 11.3864983,21.421632 10.4933362,20.7890329 C12.347977,19.7932824 13.5598206,18.830581 13.6964538,18.6762222 C13.7046052,20.0071297 13.5959197,21.2427779 13.4313388,22.283242 M13.4053319,22.443433 C12.6119276,22.9562776 9.96038899,24.0433992 8.72137403,24.5399136 C9.3699937,23.2902681 9.83540064,22.1109977 10.1614572,21.0495378 C11.5312829,21.9546948 12.9647673,22.3333989 13.4064964,22.4356567 C13.4061082,22.4387672 13.40572,22.4407113 13.4053319,22.443433 M13.2908239,23.0624235 C13.1196442,23.9026488 12.7501134,25.2378332 12.3681615,26.4936998 C11.0810144,26.2592454 9.69061599,25.833495 8.46673938,25.1977855 C9.80512395,24.5877376 12.5882496,23.2249475 13.3661275,22.6689446 C13.3420614,22.8038628 13.317219,22.9352816 13.2908239,23.0624235 M6.34232559,28.5664628 C6.32912806,28.5703509 6.31748318,28.5750167 6.30700279,28.5804601 C6.24101515,28.5633523 6.17696833,28.5470221 6.11563864,28.5310808 C6.91447723,27.5279428 7.58522216,26.5376357 8.14728158,25.5792112 C10.0884826,26.4520968 12.0347298,26.6107325 12.2854828,26.6379495 C11.3686428,27.0217081 6.57522313,28.4945324 6.34232559,28.5664628 M11.3527282,29.4957263 C10.3046892,29.3611969 8.14961055,29.0065993 6.70719841,28.6757193 C8.70623569,28.176872 10.0228832,27.9544709 12.2773314,26.7903642 C11.9124586,27.9715786 11.5506911,29.038482 11.3527282,29.4957263 M5.84470116,28.4548734 C5.7550356,28.4268789 5.67390962,28.4004396 5.60326404,28.3751667 C4.25284642,27.8883726 3.63993771,27.6103712 2.82440813,27.0143206 C3.44779723,26.824191 6.16648794,26.0570626 7.49012233,25.5970966 C6.74717916,26.9070082 6.0880791,27.9400848 5.8474183,28.4470972 C5.84625381,28.4490412 5.84586565,28.4509853 5.84470116,28.4548734 M2.47700262,26.7522605 C3.26342001,25.5045591 4.21558282,24.3630036 5.08040904,23.2214481 C5.2935103,23.500616 5.53028947,23.7650089 5.77987801,24.0107389 C6.22548865,24.4485425 6.72583021,24.8132493 7.2467444,25.1180788 C5.72514709,25.708686 4.14183193,26.318345 2.63382031,26.8727926 C2.58258284,26.8339113 2.53056906,26.7938635 2.47700262,26.7522605 M0.71707349,24.0037402 C1.96967413,23.6716938 3.2987428,23.3633649 4.61112048,23.0149883 C3.6379969,24.5741292 2.79451961,25.7203504 2.29689519,26.6049003 C1.56093894,25.9808552 0.765593812,24.9909369 0.71707349,24.0037402 M7.60890008,22.0938899 C8.30720456,21.8368844 8.9655283,21.5511068 9.57416722,21.257164 C9.10720764,22.5239173 8.49468709,23.7657866 7.89730488,24.8645726 C7.89264693,24.8661278 7.88760081,24.8688495 7.88294286,24.870016 C7.58522216,24.6903843 7.30147532,24.4967553 7.0371366,24.2883515 C6.46343231,23.8365506 5.93902467,23.3272053 5.5372764,22.7603157 C6.24489678,22.5577441 6.94048412,22.3396199 7.60890008,22.0938899 M10.8244389,16.6928862 C11.4586965,17.1481864 13.0979071,18.1804854 13.6766575,18.4176614 C12.9271156,19.0148784 11.8678199,19.6599195 10.3594201,20.3535622 C10.7867871,18.7364882 10.8803343,17.4510719 10.8244389,16.6928862 M14.0062075,15.4028041 C13.983306,15.2861601 13.5644785,15.5493867 13.4565693,15.5742707 C13.5951434,16.4763173 13.6673416,17.3701987 13.6890787,18.2318087 C12.9243984,17.8021702 11.4513215,16.7687048 11.0581128,16.4036092 L10.810465,16.5404714 C10.8061952,16.5008125 10.8011491,16.46232 10.7957149,16.4257715 L10.3966837,16.5688548 C10.2693664,16.6738343 10.3167222,16.5529134 10.3357422,16.7197143 C10.4634477,17.837941 10.2654848,19.0716452 9.89168421,20.3107927 C9.10216152,19.5969318 8.38367259,18.5918497 8.18726232,17.6400351 C8.10225472,17.6738618 8.01763528,17.7080774 7.93301584,17.7422929 C7.83442254,17.7803966 7.78124427,17.7605672 7.81190911,17.8744894 C8.14145914,19.1284119 9.02957512,20.1319387 9.65296422,20.668112 C8.92166592,20.9822731 8.09759677,21.3065433 7.16950004,21.640145 C6.8380092,21.7595106 6.40326711,21.912703 5.89904392,22.0853361 C6.36134555,21.3714751 7.42607551,19.1529071 7.80259321,17.7835071 L7.23587584,18.0280706 C6.60744063,19.6432005 5.62189584,21.3236511 5.21937124,22.0110727 C5.19685782,22.0495652 5.17512071,22.0853361 5.15299544,22.1234397 C4.74387209,21.3042104 4.60296907,20.378835 4.91078199,19.3430368 L4.89913712,19.3605334 C4.95503253,19.1879003 4.40811145,19.6264816 4.35493318,19.6517544 C4.19539836,19.7279618 4.20704324,19.8554925 4.17560207,20.0242374 C4.12941072,20.2785212 4.10495648,20.5390261 4.10767362,20.8030302 C4.11504871,21.3870276 4.30874183,21.9694697 4.61461395,22.5184739 C3.41480341,22.9166186 2.02906301,23.3571439 0.723284091,23.7350703 C0.727553879,23.6880239 0.732988155,23.6405887 0.741915895,23.5931535 C0.925128632,22.5697973 1.88505469,21.2921572 2.96104136,20.6113453 L3.22072212,20.2730779 L1.74298719,21.3827507 C1.03381415,22.0266253 0.248173094,23.0293744 0.0525391542,23.9364756 C-0.236641967,25.2829356 0.716685327,26.3521718 1.71775662,27.1177449 C2.82440813,27.9618583 3.98384976,28.3821654 5.3183527,28.7966402 C6.77978481,29.250774 9.73952448,29.6776908 11.2529704,29.6971315 C11.3515637,29.6986867 11.5087695,29.6823566 11.5087695,29.6823566 C11.5087695,29.6823566 11.5813559,29.5353852 11.5895073,29.5256649 C11.7203181,29.2752692 13.474813,25.7390134 13.947595,22.7498178 C14.267441,20.7334327 14.4999503,18.0035754 14.0062075,15.4028041" id="Fill-47-Copy" fill="#616870"></path>
        <polyline id="Fill-49-Copy" fill="#616870" points="12.6236556 28.8356957 12.3992977 28.8356957 12.3992977 29.5857163 12.3080795 29.5857163 12.3080795 28.8356957 12.0833333 28.8356957 12.0833333 28.7462687 12.6236556 28.7462687"></polyline>
        <path d="M13.7108473,29.5861051 L13.6200173,29.5861051 L13.6200173,29.022326 C13.6200173,28.9780013 13.6223462,28.9235675 13.6277805,28.8594133 L13.6254515,28.8594133 C13.6165238,28.8971282 13.6087605,28.9243451 13.6017736,28.9414529 L13.3362704,29.5861051 L13.2920199,29.5861051 L13.0261285,28.9457298 C13.0179771,28.9274556 13.010602,28.8986834 13.0028388,28.8594133 L13.0001216,28.8594133 C13.0032269,28.89324 13.0047796,28.9476739 13.0047796,29.0231036 L13.0047796,29.5861051 L12.9166667,29.5861051 L12.9166667,28.7462687 L13.0373852,28.7462687 L13.2761052,29.3318213 C13.2943489,29.376146 13.3059937,29.4091951 13.3110398,29.4321351 L13.3153096,29.4321351 C13.3312243,29.3862551 13.3432573,29.3520396 13.3525732,29.3294884 L13.5963393,28.7466575 L13.7108473,28.7466575" id="Fill-51-Copy" fill="#616870"></path>
        <path d="M16.5736624,14.155409 C17.9830807,12.7436284 18.661977,11.8559679 19.4301508,10.0538189 C21.0584928,11.0118545 22.1915394,12.1712954 22.7737832,12.9007089 C22.8040599,12.9392014 22.8599553,12.9889695 22.9255548,13.0364047 C22.1465125,13.0842287 19.9227291,13.2673597 16.5736624,14.155409 L16.5736624,14.155409 Z M16.0888473,14.2868278 L16.0973869,14.2790516 C15.5279524,13.3147949 14.8350822,12.5546652 14.0719545,11.9395627 C15.6079139,11.2039282 17.308066,10.5188394 19.1363117,9.97722266 C18.5412585,11.0686212 17.5646414,12.2475028 16.0973869,14.2790516 L16.1035975,14.2829397 C16.0985514,14.2837173 16.0938934,14.2852726 16.0888473,14.2868278 L16.0888473,14.2868278 Z M10.3397713,16.2491679 C11.7344395,14.9167052 12.7300765,13.6425644 13.426052,12.465627 C14.2462395,13.027462 15.0291635,13.6732807 15.7045663,14.3945291 C14.1259091,14.84633 12.3279401,15.4470463 10.3397713,16.2491679 L10.3397713,16.2491679 Z M9.91162801,16.4225786 C9.91861494,15.6313438 9.73384955,15.0135197 9.46679369,14.5372235 C10.3875153,13.936896 11.44914,13.2965207 12.6303187,12.6681986 C11.9289089,13.7755385 11.0303126,15.029461 9.91434515,16.421801 L9.91162801,16.4225786 Z M5.72645908,18.3503143 C7.16227246,17.2709689 8.2572791,16.1531311 9.06504542,15.0426806 C9.42758927,15.5380286 9.60187427,16.0710915 9.64224318,16.5337792 C8.11404711,17.166767 6.89288763,17.6951641 5.72645908,18.3503143 L5.72645908,18.3503143 Z M6.36071674,16.7647342 C6.86998604,16.3654231 7.58342886,15.8214734 8.47581463,15.2036493 C7.6140937,16.3595909 6.48881039,17.4323264 5.10501079,18.3335953 C5.58788504,17.8090864 6.00438349,17.285355 6.36071674,16.7647342 L6.36071674,16.7647342 Z M7.75965467,13.9551702 C8.10395488,14.1316914 8.393136,14.3369847 8.63340864,14.5605523 C7.95257147,15.077285 7.3548011,15.5772988 6.83194611,16.0353207 C7.27018166,15.3626739 7.56829052,14.6600885 7.75965467,13.9551702 L7.75965467,13.9551702 Z M6.89521661,6.59688095 C8.03098031,6.87566 9.23311982,7.10389333 9.93181246,7.22870236 C9.42642479,7.50553733 8.26271337,8.26139014 7.71307516,8.98885958 C7.44291401,7.86946646 7.08037016,7.00124665 6.89521661,6.59688095 L6.89521661,6.59688095 Z M5.00719382,6.03776762 C5.45823874,6.21078948 6.03271936,6.37875677 6.63864114,6.53311559 C6.90647332,7.36323171 7.1203509,8.11636283 7.28648449,8.80261807 C6.76130052,7.74971201 5.97721211,6.8138387 5.00719382,6.03776762 L5.00719382,6.03776762 Z M10.2438952,7.28352501 C10.5105629,8.14785669 10.6041101,9.08061949 10.5260894,10.0405992 C9.69192799,9.73810256 8.85854293,9.49703839 8.07096106,9.26569456 C8.58876994,8.6144325 9.36160163,7.97289077 10.2217699,7.2800257 C10.2287568,7.28158095 10.2365201,7.28235857 10.2438952,7.28352501 L10.2438952,7.28352501 Z M14.1907323,8.07281575 C13.0367249,8.61793182 12.0562263,9.1428296 10.9651012,9.97800029 C10.9977069,8.99080365 10.8210929,8.09070116 10.4958127,7.3274609 C11.7348276,7.54558509 12.9711255,7.77381842 14.1907323,8.07281575 L14.1907323,8.07281575 Z M10.8579684,11.002523 C11.4580677,11.2832461 12.0791279,11.6129597 12.6924247,11.9893308 C11.6843665,12.509174 10.7741253,13.0601223 9.95587854,13.6114594 C10.4240026,12.7140786 10.7143482,11.8361384 10.8579684,11.002523 L10.8579684,11.002523 Z M10.3708243,11.1059473 C10.1592757,12.1176392 9.76490255,13.1394402 9.19003377,14.1243039 C8.81623321,13.6491742 8.37644501,13.3688399 8.07329003,13.2210909 C8.48280156,12.7949517 9.27077159,12.0161589 10.3708243,11.1059473 L10.3708243,11.1059473 Z M7.90909726,9.96711352 C8.51618354,10.0915337 9.28086382,10.3306538 10.1150252,10.6755311 C9.47727408,11.2307563 8.78323939,11.9049584 7.98983508,12.7517934 C8.10201407,11.7774276 8.04573049,10.8263906 7.90909726,9.96711352 L7.90909726,9.96711352 Z M13.3682158,11.4251629 C12.7149382,10.9912474 12.0240088,10.6428708 11.3222108,10.3504833 C12.2580708,9.63662232 13.3534656,8.8862129 14.581612,8.18907089 C14.5140717,8.96747486 14.1251328,10.05343 13.3682158,11.4251629 L13.3682158,11.4251629 Z M17.761828,9.23497832 C18.146109,9.38778189 18.5098173,9.55691562 18.855282,9.73576968 C17.0569248,10.1506333 15.4460501,10.7148012 14.0102367,11.356343 C14.5540525,10.1786279 14.7978186,9.12416656 14.8591482,8.24428236 C15.8415877,8.50984175 16.8123823,8.82827974 17.761828,9.23497832 L17.761828,9.23497832 Z M23.2162886,13.0434033 C21.8293837,10.6817521 19.693325,8.50945294 13.3313403,7.24269963 C11.984028,6.97480736 10.391397,6.76212655 7.60865943,6.23839521 C6.63165422,6.0548754 3.70529653,5.57196944 4.07172201,4.92537313 C3.8725946,5.17849051 4.02708331,5.42499806 4.15090717,5.56419317 C5.60302338,7.34612393 7.69327887,8.39125374 7.69327887,12.0188806 C7.69327887,15.3529536 4.9078242,18.4428518 2.11887607,20.9413653 C1.97059797,21.0704512 1.81999089,21.2026477 1.66666667,21.3418428 C5.03320072,19.1294959 7.13510108,18.2220059 9.74588259,17.125164 C13.0266327,15.7472101 19.5458232,13.7708728 23.3102239,13.2039832 L23.2162886,13.0434033 Z" id="Fill-53-Copy" fill="#616870"></path>
        <g id="Group-2-Copy" transform="translate(26.250000, 8.686567)" fill="#616870">
            <path d="M3.0602797,10.4841913 L1.74554789,14.1155047 L1.28749631,14.1155047 L0,10.4841913 L0.463003482,10.4841913 L1.4459574,13.3634126 C1.47731965,13.456264 1.50125363,13.5634635 1.51776008,13.6850143 L1.5276639,13.6850143 C1.54086905,13.5837219 1.56810428,13.4748343 1.60937039,13.358348 L2.61213195,10.4841913 L3.0602797,10.4841913 Z M3.5970666,10.8640358 C3.52443824,10.8640358 3.46254,10.8387131 3.41137002,10.7880669 C3.36020004,10.7374207 3.33461543,10.6732698 3.33461543,10.5956124 C3.33461543,10.5179549 3.36020004,10.453382 3.41137002,10.4018917 C3.46254,10.3504014 3.52443824,10.3246566 3.5970666,10.3246566 C3.67134561,10.3246566 3.73448182,10.3504014 3.78647712,10.4018917 C3.83847242,10.453382 3.86446968,10.5179549 3.86446968,10.5956124 C3.86446968,10.6698934 3.83847242,10.7332002 3.78647712,10.7855346 C3.73448182,10.837869 3.67134561,10.8640358 3.5970666,10.8640358 Z M3.79514296,14.1155047 L3.38908643,14.1155047 L3.38908643,11.5224329 L3.79514296,11.5224329 L3.79514296,14.1155047 Z M5.81255062,11.9427942 C5.74157291,11.8870834 5.63923448,11.8592284 5.50553227,11.8592284 C5.33221459,11.8592284 5.18737271,11.9427934 5.07100226,12.1099258 C4.95463182,12.2770582 4.89644748,12.5049626 4.89644748,12.7936459 L4.89644748,14.1155047 L4.49039095,14.1155047 L4.49039095,11.5224329 L4.89644748,11.5224329 L4.89644748,12.0567475 L4.90635129,12.0567475 C4.96412385,11.8744213 5.05243201,11.732192 5.17127842,11.6300556 C5.29012483,11.5279191 5.42299972,11.4768516 5.56990709,11.4768516 C5.67554834,11.4768516 5.75642871,11.4886689 5.81255062,11.5123038 L5.81255062,11.9427942 Z M7.4486613,14.0901818 C7.35292392,14.1442044 7.2266515,14.1712153 7.06984027,14.1712153 C6.62581688,14.1712153 6.40380852,13.9179881 6.40380852,13.4115263 L6.40380852,11.8769545 L5.96804054,11.8769545 L5.96804054,11.5224329 L6.40380852,11.5224329 L6.40380852,10.8893588 L6.80986505,10.7551471 L6.80986505,11.5224329 L7.4486613,11.5224329 L7.4486613,11.8769545 L6.80986505,11.8769545 L6.80986505,13.3380897 C6.80986505,13.5119749 6.8387509,13.6360562 6.89652346,13.7103373 C6.95429602,13.7846183 7.05003196,13.8217583 7.18373417,13.8217583 C7.28607414,13.8217583 7.37438229,13.7930592 7.4486613,13.7356602 L7.4486613,14.0901818 Z M9.91421672,14.1155047 L9.50816019,14.1155047 L9.50816019,13.7052727 L9.49825637,13.7052727 C9.32989063,14.019279 9.0690927,14.1762799 8.71585476,14.1762799 C8.11171886,14.1762799 7.80965543,13.8082564 7.80965543,13.0721985 L7.80965543,11.5224329 L8.21323601,11.5224329 L8.21323601,13.0063588 C8.21323601,13.5533376 8.41791286,13.8268229 8.82727271,13.8268229 C9.02535006,13.8268229 9.18834877,13.7521209 9.31627372,13.6027147 C9.44419867,13.4533084 9.50816019,13.2579015 9.50816019,13.016488 L9.50816019,11.5224329 L9.91421672,11.5224329 L9.91421672,14.1155047 Z M12.4218634,14.1155047 L12.0158068,14.1155047 L12.0158068,13.7103373 L12.005903,13.7103373 C11.829284,14.0209672 11.5693114,14.1762799 11.2259774,14.1762799 C10.9734287,14.1762799 10.775767,14.1079085 10.6329863,13.9711638 C10.4902055,13.8344191 10.4188162,13.6529397 10.4188162,13.42672 C10.4188162,12.9422049 10.697771,12.6602786 11.2556888,12.580933 L12.0158068,12.4720442 C12.0158068,12.0314224 11.8416664,11.8111148 11.4933804,11.8111148 C11.1880112,11.8111148 10.9123577,11.9174702 10.6664117,12.1301841 L10.6664117,11.7047583 C10.915659,11.5426905 11.2028668,11.4616578 11.5280438,11.4616578 C12.1239265,11.4616578 12.4218634,11.7841004 12.4218634,12.4289952 L12.4218634,14.1155047 Z M12.0158068,12.8037751 L11.4042461,12.8898731 C11.2160726,12.9168844 11.0741193,12.9645756 10.9783819,13.0329479 C10.8826445,13.1013203 10.8347766,13.2224472 10.8347766,13.3963325 C10.8347766,13.5229479 10.8789306,13.626349 10.9672401,13.7065388 C11.0555496,13.7867286 11.1731563,13.8268229 11.3200636,13.8268229 C11.5214423,13.8268229 11.6877422,13.7546532 11.8189685,13.6103116 C11.9501947,13.4659699 12.0158068,13.2832243 12.0158068,13.0620693 L12.0158068,12.8037751 Z M13.4662209,14.1155047 L13.0601644,14.1155047 L13.0601644,10.276543 L13.4662209,10.276543 L13.4662209,14.1155047 Z M19.0980269,14.1155047 L18.6845425,14.1155047 L18.6845425,11.6794353 C18.6845425,11.4869798 18.6960968,11.2514786 18.7192058,10.9729246 L18.709302,10.9729246 C18.6696866,11.1366806 18.6341982,11.2540091 18.602836,11.3249138 L17.3896183,14.1155047 L17.18659,14.1155047 L15.9758483,11.3451722 C15.9411848,11.2641383 15.9056964,11.140057 15.8693823,10.9729246 L15.8594785,10.9729246 C15.8726836,11.1181103 15.8792861,11.3552997 15.8792861,11.6844999 L15.8792861,14.1155047 L15.4781815,14.1155047 L15.4781815,10.4841913 L16.0278434,10.4841913 L17.1172633,13.016488 C17.2014462,13.2106317 17.2559166,13.3558153 17.2806763,13.452043 L17.295532,13.452043 C17.3665097,13.2528347 17.4234561,13.1042748 17.4663729,13.0063588 L18.5780764,10.4841913 L19.0980269,10.4841913 L19.0980269,14.1155047 Z M21.6650964,14.1155047 L21.2590399,14.1155047 L21.2590399,13.7103373 L21.2491361,13.7103373 C21.0725171,14.0209672 20.8125445,14.1762799 20.4692104,14.1762799 C20.2166618,14.1762799 20.0190001,14.1079085 19.8762193,13.9711638 C19.7334386,13.8344191 19.6620493,13.6529397 19.6620493,13.42672 C19.6620493,12.9422049 19.941004,12.6602786 20.4989219,12.580933 L21.2590399,12.4720442 C21.2590399,12.0314224 21.0848995,11.8111148 20.7366135,11.8111148 C20.4312443,11.8111148 20.1555908,11.9174702 19.9096447,12.1301841 L19.9096447,11.7047583 C20.158892,11.5426905 20.4460999,11.4616578 20.7712769,11.4616578 C21.3671596,11.4616578 21.6650964,11.7841004 21.6650964,12.4289952 L21.6650964,14.1155047 Z M21.2590399,12.8037751 L20.6474791,12.8898731 C20.4593057,12.9168844 20.3173524,12.9645756 20.221615,13.0329479 C20.1258776,13.1013203 20.0780096,13.2224472 20.0780096,13.3963325 C20.0780096,13.5229479 20.1221637,13.626349 20.2104732,13.7065388 C20.2987827,13.7867286 20.4163893,13.8268229 20.5632967,13.8268229 C20.7646753,13.8268229 20.9309753,13.7546532 21.0622015,13.6103116 C21.1934278,13.4659699 21.2590399,13.2832243 21.2590399,13.0620693 L21.2590399,12.8037751 Z M24.0316137,13.9964868 C23.8368376,14.1163494 23.6057508,14.1762799 23.3383464,14.1762799 C22.9768553,14.1762799 22.6851082,14.055997 22.4630965,13.8154276 C22.2410848,13.5748582 22.1300806,13.2629668 22.1300806,12.879744 C22.1300806,12.4526278 22.2497506,12.109505 22.489094,11.8503654 C22.7284375,11.5912257 23.0478324,11.4616578 23.4472884,11.4616578 C23.6701254,11.4616578 23.8665492,11.5038623 24.0365656,11.5882727 L24.0365656,12.0136985 C23.8483921,11.878642 23.6470165,11.8111148 23.4324327,11.8111148 C23.1732815,11.8111148 22.9607642,11.9060749 22.7948744,12.0959981 C22.6289846,12.2859213 22.546041,12.5353501 22.546041,12.8442918 C22.546041,13.1481689 22.6240328,13.3878906 22.7800187,13.5634641 C22.9360046,13.7390375 23.1452207,13.8268229 23.4076731,13.8268229 C23.6288595,13.8268229 23.8368376,13.7516989 24.0316137,13.6014485 L24.0316137,13.9964868 Z M26.6234428,14.1155047 L26.2173862,14.1155047 L26.2173862,12.6214497 C26.2173862,12.0812237 26.0209625,11.8111148 25.6281091,11.8111148 C25.4300317,11.8111148 25.2633191,11.8891931 25.1279663,12.0453522 C24.9926134,12.2015113 24.924938,12.4019828 24.924938,12.6467727 L24.924938,14.1155047 L24.5188815,14.1155047 L24.5188815,10.276543 L24.924938,10.276543 L24.924938,11.9529234 L24.9348418,11.9529234 C25.1296179,11.6254114 25.406922,11.4616578 25.7667625,11.4616578 C26.3378855,11.4616578 26.6234428,11.8136435 26.6234428,12.5176255 L26.6234428,14.1155047 Z M27.469724,10.8640358 C27.3970956,10.8640358 27.3351974,10.8387131 27.2840274,10.7880669 C27.2328574,10.7374207 27.2072728,10.6732698 27.2072728,10.5956124 C27.2072728,10.5179549 27.2328574,10.453382 27.2840274,10.4018917 C27.3351974,10.3504014 27.3970956,10.3246566 27.469724,10.3246566 C27.544003,10.3246566 27.6071392,10.3504014 27.6591345,10.4018917 C27.7111298,10.453382 27.737127,10.5179549 27.737127,10.5956124 C27.737127,10.6698934 27.7111298,10.7332002 27.6591345,10.7855346 C27.6071392,10.837869 27.544003,10.8640358 27.469724,10.8640358 Z M27.6678003,14.1155047 L27.2617438,14.1155047 L27.2617438,11.5224329 L27.6678003,11.5224329 L27.6678003,14.1155047 Z M30.4676096,14.1155047 L30.0615531,14.1155047 L30.0615531,12.6366435 C30.0615531,12.0862883 29.8651293,11.8111148 29.4722759,11.8111148 C29.2692466,11.8111148 29.1012961,11.8891931 28.9684192,12.0453522 C28.8355423,12.2015113 28.7691048,12.3986064 28.7691048,12.6366435 L28.7691048,14.1155047 L28.3630483,14.1155047 L28.3630483,11.5224329 L28.7691048,11.5224329 L28.7691048,11.9529234 L28.7790087,11.9529234 C28.9704834,11.6254114 29.2477876,11.4616578 29.6109294,11.4616578 C29.8882376,11.4616578 30.1003423,11.5532416 30.2472496,11.736412 C30.394157,11.9195824 30.4676096,12.1842047 30.4676096,12.530287 L30.4676096,14.1155047 Z M33.1436211,12.922793 L31.3535061,12.922793 C31.3601087,13.2114763 31.4360372,13.4343161 31.5812939,13.5913193 C31.7265506,13.7483225 31.9262756,13.8268229 32.1804749,13.8268229 C32.4660364,13.8268229 32.7284849,13.7305966 32.9678284,13.5381411 L32.9678284,13.9281148 C32.7449914,14.093559 32.4503557,14.1762799 32.0839126,14.1762799 C31.7257228,14.1762799 31.4442921,14.0585292 31.2396122,13.8230245 C31.0349322,13.5875197 30.9325938,13.2562142 30.9325938,12.829098 C30.9325938,12.4256167 31.0444233,12.0968435 31.2680856,11.8427685 C31.491748,11.5886934 31.7694648,11.4616578 32.1012443,11.4616578 C32.4330239,11.4616578 32.6896953,11.5713896 32.8712662,11.7908564 C33.0528371,12.0103232 33.1436211,12.3150399 33.1436211,12.7050155 L33.1436211,12.922793 Z M32.7276608,12.5708038 C32.7260101,12.3310785 32.6694764,12.1445345 32.5580579,12.0111662 C32.4466394,11.8777979 32.2918938,11.8111148 32.0938165,11.8111148 C31.9023417,11.8111148 31.7397556,11.8811743 31.6060534,12.0212954 C31.4723512,12.1614165 31.3898202,12.3445841 31.358458,12.5708038 L32.7276608,12.5708038 Z M38.5674469,14.1155047 L38.1539625,14.1155047 L38.1539625,11.6794353 C38.1539625,11.4869798 38.1655169,11.2514786 38.1886259,10.9729246 L38.1787221,10.9729246 C38.1391066,11.1366806 38.1036183,11.2540091 38.072256,11.3249138 L36.8590383,14.1155047 L36.6560101,14.1155047 L35.4452684,11.3451722 C35.4106048,11.2641383 35.3751165,11.140057 35.3388023,10.9729246 L35.3288985,10.9729246 C35.3421036,11.1181103 35.3487061,11.3552997 35.3487061,11.6844999 L35.3487061,14.1155047 L34.9476015,14.1155047 L34.9476015,10.4841913 L35.4972634,10.4841913 L36.5866834,13.016488 C36.6708662,13.2106317 36.7253367,13.3558153 36.7500963,13.452043 L36.7649521,13.452043 C36.8359298,13.2528347 36.8928762,13.1042748 36.9357929,13.0063588 L38.0474965,10.4841913 L38.5674469,10.4841913 L38.5674469,14.1155047 Z M41.1345165,14.1155047 L40.7284599,14.1155047 L40.7284599,13.7103373 L40.7185561,13.7103373 C40.5419372,14.0209672 40.2819645,14.1762799 39.9386305,14.1762799 C39.6860818,14.1762799 39.4884201,14.1079085 39.3456394,13.9711638 C39.2028586,13.8344191 39.1314693,13.6529397 39.1314693,13.42672 C39.1314693,12.9422049 39.4104241,12.6602786 39.9683419,12.580933 L40.7284599,12.4720442 C40.7284599,12.0314224 40.5543195,11.8111148 40.2060335,11.8111148 C39.9006643,11.8111148 39.6250108,11.9174702 39.3790648,12.1301841 L39.3790648,11.7047583 C39.6283121,11.5426905 39.9155199,11.4616578 40.2406969,11.4616578 C40.8365796,11.4616578 41.1345165,11.7841004 41.1345165,12.4289952 L41.1345165,14.1155047 Z M40.7284599,12.8037751 L40.1168992,12.8898731 C39.9287257,12.9168844 39.7867724,12.9645756 39.691035,13.0329479 C39.5952976,13.1013203 39.5474297,13.2224472 39.5474297,13.3963325 C39.5474297,13.5229479 39.5915837,13.626349 39.6798932,13.7065388 C39.7682027,13.7867286 39.8858094,13.8268229 40.0327167,13.8268229 C40.2340954,13.8268229 40.4003953,13.7546532 40.5316216,13.6103116 C40.6628478,13.4659699 40.7284599,13.2832243 40.7284599,13.0620693 L40.7284599,12.8037751 Z M43.8773788,14.1155047 L43.4713223,14.1155047 L43.4713223,12.6366435 C43.4713223,12.0862883 43.2748985,11.8111148 42.8820451,11.8111148 C42.6790158,11.8111148 42.5110653,11.8891931 42.3781884,12.0453522 C42.2453115,12.2015113 42.178874,12.3986064 42.178874,12.6366435 L42.178874,14.1155047 L41.7728175,14.1155047 L41.7728175,11.5224329 L42.178874,11.5224329 L42.178874,11.9529234 L42.1887778,11.9529234 C42.3802526,11.6254114 42.6575567,11.4616578 43.0206985,11.4616578 C43.2980068,11.4616578 43.5101115,11.5532416 43.6570188,11.736412 C43.8039262,11.9195824 43.8773788,12.1842047 43.8773788,12.530287 L43.8773788,14.1155047 Z M46.3305544,14.1155047 L45.9244979,14.1155047 L45.9244979,13.7103373 L45.9145941,13.7103373 C45.7379751,14.0209672 45.4780025,14.1762799 45.1346684,14.1762799 C44.8821198,14.1762799 44.6844581,14.1079085 44.5416773,13.9711638 C44.3988966,13.8344191 44.3275073,13.6529397 44.3275073,13.42672 C44.3275073,12.9422049 44.606462,12.6602786 45.1643799,12.580933 L45.9244979,12.4720442 C45.9244979,12.0314224 45.7503575,11.8111148 45.4020715,11.8111148 C45.0967023,11.8111148 44.8210488,11.9174702 44.5751027,12.1301841 L44.5751027,11.7047583 C44.8243501,11.5426905 45.1115579,11.4616578 45.4367349,11.4616578 C46.0326176,11.4616578 46.3305544,11.7841004 46.3305544,12.4289952 L46.3305544,14.1155047 Z M45.9244979,12.8037751 L45.3129372,12.8898731 C45.1247637,12.9168844 44.9828104,12.9645756 44.887073,13.0329479 C44.7913356,13.1013203 44.7434676,13.2224472 44.7434676,13.3963325 C44.7434676,13.5229479 44.7876217,13.626349 44.8759312,13.7065388 C44.9642407,13.7867286 45.0818473,13.8268229 45.2287547,13.8268229 C45.4301333,13.8268229 45.5964333,13.7546532 45.7276595,13.6103116 C45.8588858,13.4659699 45.9244979,13.2832243 45.9244979,13.0620693 L45.9244979,12.8037751 Z M49.1328397,13.9078564 C49.1328397,14.8600047 48.6871723,15.3360717 47.7958243,15.3360717 C47.4822018,15.3360717 47.2081989,15.2752972 46.9738074,15.1537464 L46.9738074,14.7384497 C47.2593689,14.9005175 47.5317211,14.9815502 47.7908723,14.9815502 C48.414816,14.9815502 48.7267831,14.6422258 48.7267831,13.9635669 L48.7267831,13.6799497 L48.7168793,13.6799497 C48.5237539,14.0108381 48.2332448,14.1762799 47.8453433,14.1762799 C47.5300702,14.1762799 47.2762874,14.0610615 47.0839873,13.8306214 C46.8916873,13.6001812 46.7955387,13.2908221 46.7955387,12.9025346 C46.7955387,12.4619128 46.899115,12.1116153 47.1062709,11.8516315 C47.3134268,11.5916478 47.5969208,11.4616578 47.9567613,11.4616578 C48.2984447,11.4616578 48.5518149,11.6017768 48.7168793,11.8820191 L48.7267831,11.8820191 L48.7267831,11.5224329 L49.1328397,11.5224329 L49.1328397,13.9078564 Z M48.7267831,12.9430514 L48.7267831,12.5606746 C48.7267831,12.3547134 48.6586951,12.1782985 48.5225169,12.0314246 C48.3863387,11.8845506 48.2167375,11.8111148 48.0137082,11.8111148 C47.7628103,11.8111148 47.5663865,11.9043868 47.4244311,12.0909335 C47.2824757,12.2774803 47.211499,12.5387263 47.211499,12.8746794 C47.211499,13.1633626 47.2795871,13.3942214 47.4157652,13.5672625 C47.5519434,13.7403036 47.7322736,13.8268229 47.9567613,13.8268229 C48.1845502,13.8268229 48.3698323,13.7441021 48.5126131,13.5786578 C48.6553938,13.4132136 48.7267831,13.2013469 48.7267831,12.9430514 Z M51.8657982,12.922793 L50.0756831,12.922793 C50.0822857,13.2114763 50.1582142,13.4343161 50.3034709,13.5913193 C50.4487276,13.7483225 50.6484526,13.8268229 50.9026519,13.8268229 C51.1882134,13.8268229 51.4506619,13.7305966 51.6900054,13.5381411 L51.6900054,13.9281148 C51.4671684,14.093559 51.1725327,14.1762799 50.8060896,14.1762799 C50.4478998,14.1762799 50.1664691,14.0585292 49.9617892,13.8230245 C49.7571093,13.5875197 49.6547708,13.2562142 49.6547708,12.829098 C49.6547708,12.4256167 49.7666003,12.0968435 49.9902627,11.8427685 C50.213925,11.5886934 50.4916418,11.4616578 50.8234213,11.4616578 C51.1552009,11.4616578 51.4118723,11.5713896 51.5934432,11.7908564 C51.7750141,12.0103232 51.8657982,12.3150399 51.8657982,12.7050155 L51.8657982,12.922793 Z M51.4498378,12.5708038 C51.4481872,12.3310785 51.3916534,12.1445345 51.2802349,12.0111662 C51.1688164,11.8777979 51.0140708,11.8111148 50.8159935,11.8111148 C50.6245187,11.8111148 50.4619326,11.8811743 50.3282304,12.0212954 C50.1945282,12.1614165 50.1119972,12.3445841 50.080635,12.5708038 L51.4498378,12.5708038 Z M53.6752256,11.9427942 C53.6042479,11.8870834 53.5019095,11.8592284 53.3682073,11.8592284 C53.1948896,11.8592284 53.0500477,11.9427934 52.9336773,12.1099258 C52.8173068,12.2770582 52.7591225,12.5049626 52.7591225,12.7936459 L52.7591225,14.1155047 L52.353066,14.1155047 L52.353066,11.5224329 L52.7591225,11.5224329 L52.7591225,12.0567475 L52.7690263,12.0567475 C52.8267989,11.8744213 52.915107,11.732192 53.0339534,11.6300556 C53.1527998,11.5279191 53.2856747,11.4768516 53.4325821,11.4768516 C53.5382234,11.4768516 53.6191037,11.4886689 53.6752256,11.5123038 L53.6752256,11.9427942 Z" id="Virtual-Machine-Mana"></path>
            <path d="M0,8.31796344 L0,7.65612238 C0.0740809276,7.72297535 0.162867766,7.78314212 0.26636318,7.83662449 C0.369858593,7.89010686 0.4787995,7.93523194 0.593189168,7.97200107 C0.707578835,8.0087702 0.822511491,8.03718229 0.937990584,8.05723818 C1.05346968,8.07729407 1.16023177,8.08732186 1.25828005,8.08732186 C1.59600193,8.08732186 1.84820013,8.0232554 2.01488221,7.89512054 C2.1815643,7.76698569 2.26490409,7.58258569 2.26490409,7.34191501 C2.26490409,7.21266595 2.23712416,7.10013181 2.18156347,7.00430922 C2.12600277,6.90848664 2.04919943,6.82102198 1.95115115,6.74191264 C1.85310286,6.6628033 1.73708079,6.58703774 1.60308147,6.51461369 C1.46908214,6.44218964 1.32473544,6.36586699 1.17003704,6.28564343 C1.00662322,6.200963 0.854105956,6.11516965 0.712480653,6.02826079 C0.57085535,5.94135194 0.447752126,5.84553079 0.343167287,5.74079447 C0.238582448,5.63605816 0.156332064,5.51739592 0.0964136663,5.38480421 C0.036495269,5.25221249 0.00653651975,5.09678168 0.00653651975,4.9185071 C0.00653651975,4.70012074 0.0533811095,4.51014974 0.147071694,4.34858841 C0.240762279,4.18702707 0.363865504,4.05388025 0.51638506,3.94914393 C0.668904617,3.84440762 0.842665363,3.76641366 1.03767251,3.71515972 C1.23267966,3.66390578 1.43149681,3.63827919 1.63412994,3.63827919 C2.09604631,3.63827919 2.43267371,3.69510336 2.64402224,3.8087534 L2.64402224,4.44051078 C2.36730819,4.24440874 2.01216083,4.1463592 1.57856952,4.1463592 C1.45873273,4.1463592 1.33889773,4.15917249 1.21906093,4.18479946 C1.09922414,4.21042643 0.992462051,4.25220891 0.898771466,4.31014815 C0.805080881,4.36808738 0.728822247,4.44273874 0.669993275,4.53410446 C0.611164303,4.62547018 0.581750258,4.73689012 0.581750258,4.86836762 C0.581750258,4.9909314 0.604083144,5.09678034 0.648749585,5.18591763 C0.693416027,5.27505492 0.759325275,5.35639147 0.846479308,5.42992973 C0.93363334,5.503468 1.03985072,5.57477676 1.16513465,5.64385816 C1.29041857,5.71293956 1.43476527,5.78870511 1.59817908,5.87115711 C1.76595059,5.95583753 1.92500432,6.04497348 2.07534502,6.13856763 C2.22568573,6.23216179 2.35750422,6.33578233 2.47080447,6.44943237 C2.58410471,6.56308242 2.67398096,6.68898695 2.74043591,6.82714975 C2.80689086,6.96531254 2.84011783,7.12352886 2.84011783,7.30180343 C2.84011783,7.53801725 2.79490736,7.73801604 2.70448505,7.90180581 C2.61406274,8.06559558 2.49204892,8.1987424 2.33843994,8.30125029 C2.18483096,8.40375817 2.00780199,8.47785243 1.80734771,8.52353529 C1.60689344,8.56921815 1.39554808,8.59205924 1.1733053,8.59205924 C1.09922437,8.59205924 1.00771401,8.58593114 0.898771466,8.57367476 C0.789828925,8.56141838 0.678709201,8.54359119 0.565408959,8.52019266 C0.452108716,8.49679412 0.344801924,8.46782493 0.243485361,8.43328423 C0.142168798,8.39874353 0.0610078227,8.36030366 0,8.31796344 Z M6.04562713,5.08898131 L4.50627673,9.06002766 C4.23174153,9.7686691 3.84609072,10.1229845 3.34931274,10.1229845 C3.20986628,10.1229845 3.09329951,10.1084999 2.99960893,10.0795303 L2.99960893,9.58816345 C3.11508802,9.62827523 3.2207607,9.64833082 3.31663014,9.64833082 C3.58680764,9.64833082 3.78943772,9.48342931 3.92452647,9.15362135 L4.19252378,8.50515081 L2.88521983,5.08898131 L3.48004313,5.08898131 L4.38535112,7.72297502 C4.39624537,7.7564015 4.41912296,7.84330905 4.45398457,7.98370028 L4.47359413,7.98370028 C4.48448839,7.93021791 4.50627657,7.84553876 4.53895933,7.72966028 L5.49002295,5.08898131 L6.04562713,5.08898131 Z M6.25087387,8.38815871 L6.25087387,7.79985554 C6.54283988,8.02047033 6.86421555,8.13077607 7.21501053,8.13077607 C7.68564231,8.13077607 7.92095466,7.97033136 7.92095466,7.64943712 C7.92095466,7.5580714 7.9008006,7.48063454 7.86049186,7.41712422 C7.82018312,7.35361391 7.76571266,7.29734684 7.69707886,7.24832133 C7.62844506,7.19929582 7.54782879,7.15528494 7.45522763,7.11628738 C7.36262647,7.07728982 7.26294554,7.03662154 7.15618185,6.99428133 C7.00802,6.93411366 6.87783562,6.87338979 6.7656248,6.8121079 C6.65341398,6.75082602 6.5597248,6.68174566 6.48455445,6.60486474 C6.4093841,6.52798383 6.35273482,6.44051918 6.31460494,6.34246816 C6.27647505,6.24441715 6.25741039,6.12965461 6.25741039,5.99817711 C6.25741039,5.83772999 6.29336089,5.69566957 6.36526296,5.57199158 C6.43716504,5.44831359 6.53303304,5.34469305 6.65286983,5.26112684 C6.77270663,5.17756063 6.90942747,5.11460836 7.06303645,5.07226815 C7.21664543,5.02992794 7.37515445,5.00875815 7.53856826,5.00875815 C7.82835542,5.00875815 8.08763477,5.06001132 8.31641411,5.16251921 L8.31641411,5.71739605 C8.07020397,5.55249207 7.78695761,5.47004131 7.46666654,5.47004131 C7.3664394,5.47004131 7.27601845,5.48174041 7.19540097,5.50513895 C7.11478349,5.52853748 7.04560602,5.56140637 6.98786647,5.60374658 C6.93012692,5.64608679 6.88546115,5.69678286 6.85386782,5.75583632 C6.82227448,5.81488977 6.80647805,5.88007043 6.80647805,5.95138026 C6.80647805,6.04051755 6.82227448,6.11516891 6.85386782,6.17533658 C6.88546115,6.23550425 6.93176104,6.28898582 6.99276886,6.3357829 C7.05377668,6.38257998 7.1278565,6.42491955 7.21501053,6.4628029 C7.30216456,6.50068625 7.40130079,6.54191163 7.51242218,6.58648027 C7.66058404,6.64441951 7.79349194,6.70402918 7.91114989,6.76531106 C8.02880783,6.82659295 8.12903346,6.89567331 8.21182979,6.97255422 C8.29462612,7.04943513 8.35835656,7.13801398 8.403023,7.23829343 C8.44768944,7.33857288 8.47002232,7.45779222 8.47002232,7.59595502 C8.47002232,7.76531586 8.43352712,7.91239018 8.36053562,8.03718239 C8.28754412,8.16197459 8.190042,8.26559514 8.06802636,8.34804713 C7.94601071,8.43049912 7.80547694,8.49178009 7.64642084,8.53189187 C7.48736473,8.57200365 7.32068514,8.59205924 7.14637707,8.59205924 C6.80211865,8.59205924 6.50362056,8.52409307 6.25087387,8.38815871 Z M10.6787124,8.47840976 C10.552339,8.54971959 10.3856594,8.58537397 10.1786686,8.58537397 C9.59255773,8.58537397 9.2995067,8.25111415 9.2995067,7.58258449 L9.2995067,5.55694974 L8.72429296,5.55694974 L8.72429296,5.08898131 L9.2995067,5.08898131 L9.2995067,4.25332341 L9.83550131,4.07616393 L9.83550131,5.08898131 L10.6787124,5.08898131 L10.6787124,5.55694974 L9.83550131,5.55694974 L9.83550131,7.48564817 C9.83550131,7.71517669 9.87363063,7.878964 9.94989041,7.97701502 C10.0261502,8.07506604 10.1525216,8.12409081 10.3290086,8.12409081 C10.4640973,8.12409081 10.5806641,8.08620803 10.6787124,8.01044134 L10.6787124,8.47840976 Z M13.8646121,6.93745659 L11.5016602,6.93745659 C11.5103756,7.3185185 11.6106013,7.61266714 11.8023401,7.81991133 C11.994079,8.02715553 12.257716,8.13077607 12.593259,8.13077607 C12.9702002,8.13077607 13.3166323,8.00375734 13.6325657,7.74971607 L13.6325657,8.26448134 C13.3384208,8.48286769 12.9495018,8.59205924 12.4657969,8.59205924 C11.9929863,8.59205924 11.6214978,8.43662842 11.3513203,8.12576213 C11.0811428,7.81489583 10.946056,7.37757257 10.946056,6.81377922 C10.946056,6.28118392 11.093671,5.84720326 11.3889052,5.51182421 C11.6841395,5.17644516 12.0507257,5.00875815 12.4886747,5.00875815 C12.9266237,5.00875815 13.2654299,5.15360407 13.5051035,5.44330026 C13.7447771,5.73299645 13.8646121,6.13522243 13.8646121,6.64999027 L13.8646121,6.93745659 Z M13.3155444,6.4728308 C13.3133656,6.15639342 13.2387411,5.91015536 13.0916686,5.73410921 C12.9445962,5.55806307 12.740332,5.47004131 12.4788699,5.47004131 C12.2261232,5.47004131 12.0115096,5.56251986 11.8350227,5.74747974 C11.6585358,5.93243961 11.5495949,6.17422088 11.5081967,6.4728308 L13.3155444,6.4728308 Z M19.2598555,8.51183608 L18.7238609,8.51183608 L18.7238609,6.54636869 C18.7238609,6.16753521 18.6666669,5.89344216 18.5522773,5.72408132 C18.4378876,5.55472047 18.2456069,5.47004131 17.9754294,5.47004131 C17.7466501,5.47004131 17.5521905,5.57700446 17.392045,5.79093395 C17.2318995,6.00486344 17.1518279,6.2611293 17.1518279,6.55973922 L17.1518279,8.51183608 L16.6158333,8.51183608 L16.6158333,6.47951606 C16.6158333,5.80652953 16.362001,5.47004131 15.8543287,5.47004131 C15.6190128,5.47004131 15.425098,5.57087636 15.2725785,5.77254947 C15.1200589,5.97422259 15.0438003,6.23661655 15.0438003,6.55973922 L15.0438003,8.51183608 L14.5078057,8.51183608 L14.5078057,5.08898131 L15.0438003,5.08898131 L15.0438003,5.63048763 L15.0568733,5.63048763 C15.2943681,5.21599924 15.6408001,5.00875815 16.09618,5.00875815 C16.3249593,5.00875815 16.5243212,5.07393882 16.6942715,5.2043021 C16.8642219,5.33466539 16.9807887,5.50569499 17.0439753,5.71739605 C17.2923643,5.24496842 17.6627634,5.00875815 18.1551837,5.00875815 C18.8916353,5.00875815 19.2598555,5.4733793 19.2598555,6.40263553 L19.2598555,8.51183608 Z M25.0335634,8.31127818 C24.6871262,8.49846649 24.2557202,8.59205924 23.7393325,8.59205924 C23.0726042,8.59205924 22.5387937,8.37256195 22.1378852,7.93356081 C21.7369766,7.49455966 21.5365254,6.91851858 21.5365254,6.20542027 C21.5365254,5.43883959 21.7620331,4.81934472 22.2130552,4.34691709 C22.6640773,3.87448946 23.2360171,3.63827919 23.9288916,3.63827919 C24.3733772,3.63827919 24.7415974,3.70401696 25.0335634,3.83549446 L25.0335634,4.43382551 C24.6980204,4.24218034 24.3276213,4.1463592 23.9223551,4.1463592 C23.3841789,4.1463592 22.9478706,4.3302021 22.613417,4.69789341 C22.2789634,5.06558473 22.1117391,5.55694666 22.1117391,6.17199395 C22.1117391,6.75584319 22.2680693,7.22102144 22.5807344,7.56754265 C22.8933995,7.91406386 23.303562,8.08732186 23.8112343,8.08732186 C24.281866,8.08732186 24.689305,7.98035872 25.0335634,7.76642923 L25.0335634,8.31127818 Z M28.4384366,6.93745659 L26.0754847,6.93745659 C26.0842001,7.3185185 26.1844257,7.61266714 26.3761646,7.81991133 C26.5679035,8.02715553 26.8315405,8.13077607 27.1670835,8.13077607 C27.5440247,8.13077607 27.8904568,8.00375734 28.2063902,7.74971607 L28.2063902,8.26448134 C27.9122453,8.48286769 27.5233263,8.59205924 27.0396214,8.59205924 C26.5668107,8.59205924 26.1953223,8.43662842 25.9251448,8.12576213 C25.6549673,7.81489583 25.5198805,7.37757257 25.5198805,6.81377922 C25.5198805,6.28118392 25.6674955,5.84720326 25.9627297,5.51182421 C26.257964,5.17644516 26.6245502,5.00875815 27.0624992,5.00875815 C27.5004482,5.00875815 27.8392544,5.15360407 28.078928,5.44330026 C28.3186016,5.73299645 28.4384366,6.13522243 28.4384366,6.64999027 L28.4384366,6.93745659 Z M27.8893689,6.4728308 C27.8871901,6.15639342 27.8125656,5.91015536 27.6654931,5.73410921 C27.5184207,5.55806307 27.3141565,5.47004131 27.0526944,5.47004131 C26.7999477,5.47004131 26.5853341,5.56251986 26.4088472,5.74747974 C26.2323603,5.93243961 26.1234194,6.17422088 26.0820212,6.4728308 L27.8893689,6.4728308 Z M31.8596511,8.51183608 L31.3236564,8.51183608 L31.3236564,6.55973922 C31.3236564,5.83327032 31.0643771,5.47004131 30.5458106,5.47004131 C30.2778119,5.47004131 30.0561172,5.57310476 29.8807197,5.77923474 C29.7053222,5.98536472 29.6176248,6.24553028 29.6176248,6.55973922 L29.6176248,8.51183608 L29.0816302,8.51183608 L29.0816302,5.08898131 L29.6176248,5.08898131 L29.6176248,5.65722868 L29.6306978,5.65722868 C29.8834445,5.22491283 30.249486,5.00875815 30.7288331,5.00875815 C31.0948801,5.00875815 31.3748582,5.12964879 31.5687759,5.37143368 C31.7626936,5.61321858 31.8596511,5.96252009 31.8596511,6.41934869 L31.8596511,8.51183608 Z M34.2546319,8.47840976 C34.1282586,8.54971959 33.961579,8.58537397 33.7545881,8.58537397 C33.1684773,8.58537397 32.8754262,8.25111415 32.8754262,7.58258449 L32.8754262,5.55694974 L32.3002125,5.55694974 L32.3002125,5.08898131 L32.8754262,5.08898131 L32.8754262,4.25332341 L33.4114209,4.07616393 L33.4114209,5.08898131 L34.2546319,5.08898131 L34.2546319,5.55694974 L33.4114209,5.55694974 L33.4114209,7.48564817 C33.4114209,7.71517669 33.4495502,7.878964 33.52581,7.97701502 C33.6020697,8.07506604 33.7284412,8.12409081 33.9049281,8.12409081 C34.0400169,8.12409081 34.1565836,8.08620803 34.2546319,8.01044134 L34.2546319,8.47840976 Z M37.4405316,6.93745659 L35.0775798,6.93745659 C35.0862952,7.3185185 35.1865208,7.61266714 35.3782597,7.81991133 C35.5699985,8.02715553 35.8336355,8.13077607 36.1691786,8.13077607 C36.5461197,8.13077607 36.8925518,8.00375734 37.2084852,7.74971607 L37.2084852,8.26448134 C36.9143403,8.48286769 36.5254213,8.59205924 36.0417164,8.59205924 C35.5689058,8.59205924 35.1974173,8.43662842 34.9272398,8.12576213 C34.6570623,7.81489583 34.5219756,7.37757257 34.5219756,6.81377922 C34.5219756,6.28118392 34.6695905,5.84720326 34.9648248,5.51182421 C35.2600591,5.17644516 35.6266452,5.00875815 36.0645942,5.00875815 C36.5025433,5.00875815 36.8413495,5.15360407 37.0810231,5.44330026 C37.3206967,5.73299645 37.4405316,6.13522243 37.4405316,6.64999027 L37.4405316,6.93745659 Z M36.891464,6.4728308 C36.8892851,6.15639342 36.8146606,5.91015536 36.6675882,5.73410921 C36.5205158,5.55806307 36.3162516,5.47004131 36.0547895,5.47004131 C35.8020428,5.47004131 35.5874292,5.56251986 35.4109423,5.74747974 C35.2344554,5.93243961 35.1255144,6.17422088 35.0841163,6.4728308 L36.891464,6.4728308 Z M39.828976,5.64385816 C39.7352854,5.57031989 39.6001987,5.53355131 39.4237118,5.53355131 C39.1949324,5.53355131 39.0037411,5.64385705 38.8501321,5.86447184 C38.6965232,6.08508663 38.6197198,6.38592047 38.6197198,6.76698238 L38.6197198,8.51183608 L38.0837252,8.51183608 L38.0837252,5.08898131 L38.6197198,5.08898131 L38.6197198,5.79427658 L38.6327929,5.79427658 C38.7090526,5.5536059 38.8256194,5.3658633 38.9824967,5.23104315 C39.1393739,5.096223 39.3147688,5.02881394 39.5086865,5.02881394 C39.648133,5.02881394 39.7548951,5.04441273 39.828976,5.07561078 L39.828976,5.64385816 Z" id="System-Center"></path>
            <path d="M2.70977874,2.87023412 L2.40024861,2.87023412 L2.40024861,1.07493814 C2.40024861,0.933105311 2.40889807,0.759549327 2.42619725,0.554264976 L2.41878335,0.554264976 C2.38912762,0.674947291 2.36256143,0.761414251 2.33908397,0.81366845 L1.4308818,2.87023412 L1.27889694,2.87023412 L0.37254824,0.828598146 C0.346599477,0.768879062 0.320033284,0.677435587 0.292848865,0.554264976 L0.28543497,0.554264976 C0.295320213,0.661261668 0.300262761,0.836061781 0.300262761,1.07867056 L0.300262761,2.87023412 L0,2.87023412 L0,0.194086052 L0.411471191,0.194086052 L1.22699968,2.06029809 C1.2900181,2.20337506 1.33079412,2.31037015 1.34932895,2.38128656 L1.36044979,2.38128656 C1.41358297,2.23447715 1.45621245,2.1249938 1.48833949,2.05283324 L2.32054924,0.194086052 L2.70977874,0.194086052 L2.70977874,2.87023412 Z M3.42855587,0.474017858 C3.37418704,0.474017858 3.32785065,0.455355925 3.28954534,0.418031497 C3.25124002,0.38070707 3.23208765,0.333430171 3.23208765,0.276199382 C3.23208765,0.218968593 3.25124002,0.171380662 3.28954534,0.133434161 C3.32785065,0.0954876597 3.37418704,0.0765146937 3.42855587,0.0765146937 C3.48416037,0.0765146937 3.53142348,0.0954876597 3.57034662,0.133434161 C3.60926977,0.171380662 3.62873105,0.218968593 3.62873105,0.276199382 C3.62873105,0.330941876 3.60926977,0.37759671 3.57034662,0.416165285 C3.53142348,0.45473386 3.48416037,0.474017858 3.42855587,0.474017858 Z M3.57683378,2.87023412 L3.27286407,2.87023412 L3.27286407,0.959232989 L3.57683378,0.959232989 L3.57683378,2.87023412 Z M5.39101395,2.78252215 C5.24520661,2.87085663 5.07221745,2.91502321 4.87204128,2.91502321 C4.60143274,2.91502321 4.38303393,2.82637902 4.21683828,2.64908799 C4.05064263,2.47179696 3.96754605,2.24194414 3.96754605,1.95952264 C3.96754605,1.6447533 4.05712972,1.3918841 4.23629975,1.20090745 C4.41546979,1.00993079 4.65456552,0.9144439 4.95359413,0.9144439 C5.1204076,0.9144439 5.26744839,0.945547123 5.3947209,1.0077545 L5.3947209,1.32127812 C5.25385618,1.22174632 5.10310848,1.17198116 4.94247328,1.17198116 C4.74847538,1.17198116 4.58938714,1.24196341 4.46520377,1.38193002 C4.3410204,1.52189662 4.27892965,1.70571667 4.27892965,1.93339567 C4.27892965,2.15734224 4.33731349,2.33400855 4.45408293,2.46339989 C4.57085236,2.59279124 4.72746934,2.65748595 4.92393854,2.65748595 C5.08951637,2.65748595 5.24520661,2.60212221 5.39101395,2.49139307 L5.39101395,2.78252215 Z M6.74553261,1.26902419 C6.69239942,1.22796732 6.61578994,1.20743919 6.51570185,1.20743919 C6.38595803,1.20743919 6.2775309,1.26902357 6.19041719,1.39219418 C6.10330349,1.51536479 6.05974729,1.6833222 6.05974729,1.89607143 L6.05974729,2.87023412 L5.75577758,2.87023412 L5.75577758,0.959232989 L6.05974729,0.959232989 L6.05974729,1.35300373 L6.06716118,1.35300373 C6.11040912,1.21863579 6.1765157,1.11381793 6.26548288,1.038547 C6.35445007,0.963276072 6.45391884,0.925641172 6.56389217,0.925641172 C6.64297412,0.925641172 6.70352032,0.934350075 6.74553261,0.951768141 L6.74553261,1.26902419 Z M7.72379608,2.91502321 C7.4433023,2.91502321 7.21934312,2.82575696 7.05191181,2.64722178 C6.88448051,2.4686866 6.80076611,2.23199108 6.80076611,1.9371281 C6.80076611,1.61613802 6.88787851,1.36544605 7.06210592,1.18504465 C7.23633333,1.00464325 7.47172215,0.9144439 7.76827945,0.9144439 C8.05124454,0.9144439 8.27211462,1.00215499 8.43089634,1.1775798 C8.58967806,1.35300461 8.66906773,1.59623181 8.66906773,1.90726871 C8.66906773,2.21208486 8.58349988,2.45624516 8.41236161,2.63975693 C8.24122333,2.8232687 8.01170378,2.91502321 7.72379608,2.91502321 Z M7.74603776,1.17198116 C7.55080421,1.17198116 7.3963496,1.23885309 7.28266931,1.37259896 C7.16898901,1.50634482 7.11214971,1.69078693 7.11214971,1.92593083 C7.11214971,2.15236569 7.16960683,2.33089819 7.28452278,2.46153368 C7.39943873,2.59216918 7.55327552,2.65748595 7.74603776,2.65748595 C7.94250697,2.65748595 8.09356358,2.59341331 8.19921211,2.46526611 C8.30486065,2.33711891 8.35768413,2.15485402 8.35768413,1.91846598 C8.35768413,1.67958964 8.30486065,1.49545856 8.19921211,1.36606721 C8.09356358,1.23667587 7.94250697,1.17198116 7.74603776,1.17198116 Z M8.94486462,2.80118427 L8.94486462,2.47273095 C9.11044244,2.59590156 9.29269888,2.65748595 9.4916394,2.65748595 C9.75854097,2.65748595 9.89198975,2.56790866 9.89198975,2.38875141 C9.89198975,2.33774136 9.88056011,2.29450788 9.85770048,2.25904968 C9.83484086,2.22359147 9.80394993,2.19217721 9.76502679,2.16480597 C9.72610364,2.13743472 9.68038508,2.11286317 9.62786973,2.09109059 C9.57535437,2.06931801 9.51882398,2.04661266 9.45827687,2.02297385 C9.3742523,1.98938187 9.300423,1.95547935 9.23678675,1.9212653 C9.17315049,1.88705124 9.12001811,1.84848324 9.077388,1.80556015 C9.03475789,1.76263706 9.00263133,1.713805 8.98100736,1.6590625 C8.95938339,1.60432001 8.94857157,1.54024737 8.94857157,1.46684266 C8.94857157,1.37726404 8.96895957,1.29795082 9.0097362,1.22890063 C9.05051283,1.15985044 9.10488085,1.10199844 9.1728419,1.05534291 C9.24080295,1.00868737 9.31833916,0.973540733 9.40545287,0.949901929 C9.49256657,0.926263125 9.58245915,0.9144439 9.67513331,0.9144439 C9.83947548,0.9144439 9.98651626,0.943058865 10.1162601,1.00028965 L10.1162601,1.31008085 C9.97663102,1.21801393 9.81599823,1.17198116 9.63435688,1.17198116 C9.57751674,1.17198116 9.52623781,1.17851284 9.48051856,1.19157639 C9.43479931,1.20463994 9.39556784,1.22299084 9.36282297,1.24662964 C9.3300781,1.27026845 9.30474754,1.29857238 9.28683054,1.33154229 C9.26891354,1.3645122 9.25995517,1.40090297 9.25995517,1.4407157 C9.25995517,1.4904816 9.26891354,1.53215992 9.28683054,1.5657519 C9.30474754,1.59934389 9.33100483,1.62920298 9.36560318,1.65533008 C9.40020153,1.68145718 9.44221318,1.70509563 9.4916394,1.72624614 C9.54106562,1.74739665 9.59728709,1.77041303 9.66030552,1.79529598 C9.74433008,1.82764382 9.81970393,1.86092427 9.88642933,1.89513833 C9.95315472,1.92935239 10.009994,1.96792038 10.0569489,2.01084347 C10.1039038,2.05376657 10.1400462,2.10322069 10.1653771,2.15920733 C10.1907081,2.21519397 10.2033734,2.28175487 10.2033734,2.35889202 C10.2033734,2.45344724 10.1826764,2.53555974 10.141282,2.60523201 C10.0998875,2.67490427 10.0445928,2.73275627 9.97539607,2.77878973 C9.90619937,2.82482319 9.82650079,2.85903673 9.73629794,2.88143139 C9.6460951,2.90382605 9.55156888,2.91502321 9.45271645,2.91502321 C9.2574829,2.91502321 9.08820065,2.87707728 8.94486462,2.80118427 Z M11.3688377,2.91502321 C11.0883439,2.91502321 10.8643847,2.82575696 10.6969534,2.64722178 C10.5295221,2.4686866 10.4458077,2.23199108 10.4458077,1.9371281 C10.4458077,1.61613802 10.5329201,1.36544605 10.7071475,1.18504465 C10.8813749,1.00464325 11.1167638,0.9144439 11.413321,0.9144439 C11.6962861,0.9144439 11.9171562,1.00215499 12.0759379,1.1775798 C12.2347197,1.35300461 12.3141093,1.59623181 12.3141093,1.90726871 C12.3141093,2.21208486 12.2285415,2.45624516 12.0574032,2.63975693 C11.8862649,2.8232687 11.6567454,2.91502321 11.3688377,2.91502321 Z M11.3910794,1.17198116 C11.1958458,1.17198116 11.0413912,1.23885309 10.9277109,1.37259896 C10.8140306,1.50634482 10.7571913,1.69078693 10.7571913,1.92593083 C10.7571913,2.15236569 10.8146484,2.33089819 10.9295644,2.46153368 C11.0444803,2.59216918 11.1983171,2.65748595 11.3910794,2.65748595 C11.5875486,2.65748595 11.7386052,2.59341331 11.8442537,2.46526611 C11.9499023,2.33711891 12.0027257,2.15485402 12.0027257,1.91846598 C12.0027257,1.67958964 11.9499023,1.49545856 11.8442537,1.36606721 C11.7386052,1.23667587 11.5875486,1.17198116 11.3910794,1.17198116 Z M13.5741008,0.309791199 C13.5147894,0.276199214 13.4474472,0.259403474 13.3720722,0.259403474 C13.1595394,0.259403474 13.0532747,0.394391461 13.0532747,0.664371487 L13.0532747,0.959232989 L13.4981084,0.959232989 L13.4981084,1.22050267 L13.0532747,1.22050267 L13.0532747,2.87023412 L12.7511584,2.87023412 L12.7511584,1.22050267 L12.4268005,1.22050267 L12.4268005,0.959232989 L12.7511584,0.959232989 L12.7511584,0.64944179 C12.7511584,0.44913403 12.8086156,0.290818625 12.9235315,0.174490826 C13.0384475,0.058163027 13.1817813,-3.10862447e-15 13.3535374,-3.10862447e-15 C13.4462116,-3.10862447e-15 13.519732,0.0111971603 13.5741008,0.0335918167 L13.5741008,0.309791199 Z M14.6784005,2.851572 C14.6067325,2.89138472 14.5122063,2.91129078 14.394819,2.91129078 C14.0624277,2.91129078 13.8962346,2.72467145 13.8962346,2.35142717 L13.8962346,1.22050267 L13.5700232,1.22050267 L13.5700232,0.959232989 L13.8962346,0.959232989 L13.8962346,0.492679979 L14.2002043,0.393770741 L14.2002043,0.959232989 L14.6784005,0.959232989 L14.6784005,1.22050267 L14.2002043,1.22050267 L14.2002043,2.29730702 C14.2002043,2.42545422 14.2218279,2.5168977 14.2650758,2.57164019 C14.3083238,2.62638269 14.3799907,2.65375352 14.4800788,2.65375352 C14.5566894,2.65375352 14.622796,2.63260333 14.6784005,2.59030231 L14.6784005,2.851572 Z M16.3721049,2.39435005 C16.0644267,2.39435005 15.8021628,2.28548877 15.5853052,2.06776294 C15.3684477,1.85003711 15.2600206,1.58628178 15.2600206,1.27648904 C15.2600206,0.966696288 15.3684477,0.702629925 15.5853052,0.484282025 C15.8021628,0.265934124 16.0644267,0.156761811 16.3721049,0.156761811 C16.6785474,0.156761811 16.9401935,0.265934124 17.1570511,0.484282025 C17.3739086,0.702629925 17.4823357,0.966696288 17.4823357,1.27648904 C17.4823357,1.58628178 17.3739086,1.85003711 17.1570511,2.06776294 C16.9401935,2.28548877 16.6785474,2.39435005 16.3721049,2.39435005 Z M16.3739584,0.332185743 C16.1144707,0.332185743 15.8929828,0.424251283 15.709488,0.608385125 C15.5259932,0.792518967 15.4342471,1.01521804 15.4342471,1.27648904 C15.4342471,1.53651588 15.5259932,1.75859289 15.709488,1.94272673 C15.8929828,2.12686058 16.1144707,2.21892612 16.3739584,2.21892612 C16.6322103,2.21892612 16.8524626,2.12686058 17.0347218,1.94272673 C17.2169809,1.75859289 17.3081092,1.53651588 17.3081092,1.27648904 C17.3081092,1.01521804 17.2169809,0.792518967 17.0347218,0.608385125 C16.8524626,0.424251283 16.6322103,0.332185743 16.3739584,0.332185743 Z M16.9114658,1.97631855 L16.6556864,1.97631855 L16.5018481,1.63480175 C16.4240018,1.46310938 16.3399785,1.37726449 16.2497756,1.37726449 L16.153395,1.37726449 L16.153395,1.97631855 L15.9365385,1.97631855 L15.9365385,0.552398764 L16.3350354,0.552398764 C16.4993776,0.552398764 16.6263393,0.587234374 16.7159243,0.656906638 C16.8055093,0.726578903 16.8503011,0.821132701 16.8503011,0.940570869 C16.8503011,1.03761438 16.8187924,1.12065999 16.755774,1.18971018 C16.6927555,1.25876037 16.6050253,1.30510417 16.4925807,1.32874297 L16.4925807,1.33434161 C16.570427,1.35175968 16.6482721,1.43947076 16.7261184,1.59747751 L16.9114658,1.97631855 Z M16.153395,0.737153756 L16.153395,1.19437571 L16.3276215,1.19437571 C16.5228551,1.19437571 16.6204704,1.11786178 16.6204704,0.964831625 C16.6204704,0.876497147 16.5942131,0.816467926 16.5416977,0.784742163 C16.4891824,0.7530164 16.4060858,0.737153756 16.2924055,0.737153756 L16.153395,0.737153756 Z" id="Microsoft"></path>
        </g>
    </g>
</svg>
