<svg width="192" height="128" viewBox="0 0 192 128" fill="none" xmlns="http://www.w3.org/2000/svg">
<mask id="mask0_348_107" style="mask-type:luminance" maskUnits="userSpaceOnUse" x="0" y="92" width="192" height="128">
<path d="M192 92H0V129.486H192V92Z" fill="white"/>
</mask>
<g mask="url(#mask0_348_107)">
<mask id="mask1_348_107" style="mask-type:luminance" maskUnits="userSpaceOnUse" x="0" y="92" width="192" height="128">
<path d="M192 92H0V129.486H192V92Z" fill="white"/>
</mask>
<g mask="url(#mask1_348_107)">
<path d="M50.0558 107.806H49.8546L49.427 104.213H46.0062V128.439H50.496V113.062C51.5651 110.112 53.7534 108.486 56.8599 108.121V104.138C53.6278 104.024 51.2884 105.663 50.0558 107.806Z" fill="black"/>
<path d="M0 94.8737L15.1427 128.452H19.3182L34.3855 94.8737H29.2541L17.5323 121.746L17.331 122.377H17.1298L16.9286 121.746L5.11883 94.8737H0Z" fill="black"/>
<path d="M95.1196 118.57C95.1196 125.1 91.661 129.486 85.0204 129.486C78.3797 129.486 74.8833 125.1 74.9211 118.57V104.138H79.5369V118.117C79.5369 123.222 82.0018 125.213 85.0204 125.213C88.0389 125.213 90.4284 123.222 90.504 118.117V104.138H95.1196V118.57Z" fill="black"/>
<path d="M38.6623 104.15H33.9711V128.452H38.6623V104.15Z" fill="black"/>
<path d="M60.0166 119.566C60.0166 125.301 62.7585 128.691 68.481 128.691H69.7513V124.708C65.6511 124.633 64.5444 122.717 64.5444 118.053V108.058H70.4681V104.151H64.5444V94.8737H60.0166V119.566Z" fill="black"/>
<path d="M128.498 128.44H145.125V124.621H135.177L144.408 104.138H129.102V107.957H137.604L128.498 128.44Z" fill="black"/>
<path d="M147.666 128.44H164.318V124.621H154.382L163.564 104.138H148.257V107.957H156.772L147.666 128.44Z" fill="black"/>
<path d="M112.904 103.18C105.509 103.18 99.8993 108.915 99.8993 116.326C99.8993 123.738 105.509 129.473 112.904 129.473C120.299 129.473 125.909 123.738 125.909 116.326C125.909 108.915 120.299 103.18 112.904 103.18ZM112.904 125.212C108.175 125.212 104.716 121.192 104.716 116.326C104.716 111.461 108.175 107.44 112.904 107.44C117.633 107.44 121.092 111.461 121.092 116.326C121.092 121.192 117.633 125.212 112.904 125.212Z" fill="black"/>
<path d="M178.995 103.18C171.6 103.18 165.991 108.915 165.991 116.326C165.991 123.738 171.6 129.473 178.995 129.473C186.391 129.473 192 123.738 192 116.326C191.987 108.915 186.391 103.18 178.995 103.18ZM178.995 125.212C174.266 125.212 170.808 121.192 170.808 116.326C170.808 111.461 174.266 107.44 178.995 107.44C183.724 107.44 187.183 111.461 187.183 116.326C187.183 121.192 183.724 125.212 178.995 125.212Z" fill="black"/>
</g>
</g>
<path d="M125.761 17.4077C127.539 18.4528 127.538 21.0245 125.76 22.0686L97.5121 38.6487C96.6674 39.1445 95.6205 39.1445 94.7759 38.6487L66.5284 22.0686C64.7496 21.0245 64.7488 18.4528 66.5271 17.4077L94.7744 0.805509C95.6198 0.308646 96.6681 0.308646 97.5135 0.805506L125.761 17.4077Z" fill="#CB333B"/>
<path d="M100.304 81.7669C100.304 83.8562 102.573 85.1553 104.375 84.0977L132.554 67.5582C133.38 67.0728 133.888 66.1863 133.888 65.2274V32.0706C133.888 29.9814 131.619 28.6822 129.818 29.7397L101.639 46.2793C100.812 46.7647 100.304 47.6512 100.304 48.6101V81.7669Z" fill="#CB333B"/>
<path d="M91.9895 81.7669C91.9895 83.8562 89.7204 85.1553 87.9187 84.0977L59.74 67.5582C58.9132 67.0728 58.4054 66.1863 58.4054 65.2274V32.0706C58.4054 29.9814 60.6745 28.6822 62.4762 29.7397L90.6548 46.2793C91.4818 46.7647 91.9895 47.6512 91.9895 48.6101V81.7669Z" fill="#CB333B"/>
</svg>
