<svg width="323" height="64" viewBox="0 0 192 38" fill="none" xmlns="http://www.w3.org/2000/svg">
<mask id="mask0_94_77" style="mask-type:luminance" maskUnits="userSpaceOnUse" x="0" y="0" width="323" height="64">
<path d="M192 0.48645H0V37.9721H192V0.48645Z" fill="white"/>
</mask>
<g mask="url(#mask0_94_77)">
<mask id="mask1_94_77" style="mask-type:luminance" maskUnits="userSpaceOnUse" x="0" y="0" width="323" height="64">
<path d="M192 0.48645H0V37.9725H192V0.48645Z" fill="white"/>
</mask>
<g mask="url(#mask1_94_77)">
<path d="M50.0558 16.2925H49.8546L49.427 12.6995H46.0062V36.9255H50.496V21.5485C51.5651 18.5985 53.7534 16.9725 56.8599 16.6075V12.6245C53.6278 12.5105 51.2884 14.1495 50.0558 16.2925Z" fill="black"/>
<path d="M0 3.36011L15.1427 36.9385H19.3182L34.3855 3.36011H29.2541L17.5323 30.2325L17.331 30.8635H17.1298L16.9286 30.2325L5.11883 3.36011H0Z" fill="black"/>
<path d="M95.1196 27.0565C95.1196 33.5865 91.661 37.9725 85.0204 37.9725C78.3797 37.9725 74.8833 33.5865 74.9211 27.0565V12.6245H79.5369V26.6035C79.5369 31.7085 82.0018 33.6995 85.0204 33.6995C88.0389 33.6995 90.4284 31.7085 90.504 26.6035V12.6245H95.1196V27.0565Z" fill="black"/>
<path d="M38.6623 12.6365H33.9711V36.9385H38.6623V12.6365Z" fill="black"/>
<path d="M60.0166 28.0525C60.0166 33.7875 62.7585 37.1775 68.481 37.1775H69.7513V33.1945C65.6511 33.1195 64.5444 31.2035 64.5444 26.5395V16.5445H70.4681V12.6375H64.5444V3.36011H60.0166V28.0525Z" fill="black"/>
<path d="M128.498 36.9265H145.125V33.1075H135.177L144.408 12.6245H129.102V16.4435H137.604L128.498 36.9265Z" fill="black"/>
<path d="M147.666 36.9265H164.318V33.1075H154.382L163.564 12.6245H148.257V16.4435H156.772L147.666 36.9265Z" fill="black"/>
<path d="M112.904 11.6665C105.509 11.6665 99.8993 17.4015 99.8993 24.8125C99.8993 32.2245 105.509 37.9595 112.904 37.9595C120.299 37.9595 125.909 32.2245 125.909 24.8125C125.909 17.4015 120.299 11.6665 112.904 11.6665ZM112.904 33.6985C108.175 33.6985 104.716 29.6785 104.716 24.8125C104.716 19.9475 108.175 15.9265 112.904 15.9265C117.633 15.9265 121.092 19.9475 121.092 24.8125C121.092 29.6785 117.633 33.6985 112.904 33.6985Z" fill="black"/>
<path d="M178.995 11.6665C171.6 11.6665 165.991 17.4015 165.991 24.8125C165.991 32.2245 171.6 37.9595 178.995 37.9595C186.391 37.9595 192 32.2245 192 24.8125C191.987 17.4015 186.391 11.6665 178.995 11.6665ZM178.995 33.6985C174.266 33.6985 170.808 29.6785 170.808 24.8125C170.808 19.9475 174.266 15.9265 178.995 15.9265C183.724 15.9265 187.183 19.9475 187.183 24.8125C187.183 29.6785 183.724 33.6985 178.995 33.6985Z" fill="black"/>
</g>
</g>
</svg>
