<?xml version="1.0" encoding="UTF-8" standalone="no"?>
<svg
   id="svg4027"
   version="1.1"
   viewBox="0 0 27.781249 11.1125"
   height="42"
   width="105"
   sodipodi:docname="vhi-32-white.svg"
   xml:space="preserve"
   inkscape:version="1.4.2 (ebf0e940, 2025-05-08)"
   xmlns:inkscape="http://www.inkscape.org/namespaces/inkscape"
   xmlns:sodipodi="http://sodipodi.sourceforge.net/DTD/sodipodi-0.dtd"
   xmlns="http://www.w3.org/2000/svg"
   xmlns:svg="http://www.w3.org/2000/svg"><sodipodi:namedview
     id="namedview1"
     pagecolor="#ffffff"
     bordercolor="#000000"
     borderopacity="0.25"
     inkscape:showpageshadow="2"
     inkscape:pageopacity="0.0"
     inkscape:pagecheckerboard="0"
     inkscape:deskcolor="#d1d1d1"
     inkscape:zoom="2.8445055"
     inkscape:cx="37.792157"
     inkscape:cy="26.718176"
     inkscape:window-width="1016"
     inkscape:window-height="627"
     inkscape:window-x="0"
     inkscape:window-y="25"
     inkscape:window-maximized="0"
     inkscape:current-layer="svg4027" /><defs
     id="defs4021"><style
       id="style2">.cls-1{fill:#fff;stroke:#d9d9d9;}.cls-2{fill:#e00;}</style></defs><g
     style="fill:#ffffff;fill-opacity:1;stroke-width:2.44551"
     id="g1"
     transform="matrix(0.11015624,0,0,0.10626174,3.2857486,3.1280657)"><g
       mask="url(#mask0_94_77)"
       id="g12"
       style="fill:#ffffff;fill-opacity:1;stroke-width:2.44551"><mask
         id="mask1_94_77"
         maskUnits="userSpaceOnUse"
         x="0"
         y="0"
         width="192"
         height="38"><path
           d="M 192,0.48645 H 0 V 37.9725 h 192 z"
           fill="#ffffff"
           id="path2" /></mask><g
         mask="url(#mask1_94_77)"
         id="g11"
         style="fill:#ffffff;fill-opacity:1;stroke-width:2.44551"><path
           d="m 50.0558,16.2925 h -0.2012 l -0.4276,-3.593 h -3.4208 v 24.226 h 4.4898 v -15.377 c 1.0691,-2.95 3.2574,-4.576 6.3639,-4.941 v -3.983 c -3.2321,-0.114 -5.5715,1.525 -6.8041,3.668 z"
           fill="black"
           id="path3"
           style="fill:#ffffff;fill-opacity:1;stroke-width:2.44551" /><path
           d="M 0,3.36011 15.1427,36.9385 h 4.1755 L 34.3855,3.36011 H 29.2541 L 17.5323,30.2325 17.331,30.8635 H 17.1298 L 16.9286,30.2325 5.11883,3.36011 Z"
           fill="black"
           id="path4"
           style="fill:#ffffff;fill-opacity:1;stroke-width:2.44551" /><path
           d="m 95.1196,27.0565 c 0,6.53 -3.4586,10.916 -10.0992,10.916 -6.6407,0 -10.1371,-4.386 -10.0993,-10.916 v -14.432 h 4.6158 v 13.979 c 0,5.105 2.4649,7.096 5.4835,7.096 3.0185,0 5.408,-1.991 5.4836,-7.096 v -13.979 h 4.6156 z"
           fill="black"
           id="path5"
           style="fill:#ffffff;fill-opacity:1;stroke-width:2.44551" /><path
           d="m 38.6623,12.6365 h -4.6912 v 24.302 h 4.6912 z"
           fill="black"
           id="path6"
           style="fill:#ffffff;fill-opacity:1;stroke-width:2.44551" /><path
           d="m 60.0166,28.0525 c 0,5.735 2.7419,9.125 8.4644,9.125 h 1.2703 v -3.983 c -4.1002,-0.075 -5.2069,-1.991 -5.2069,-6.655 v -9.995 h 5.9237 v -3.907 H 64.5444 V 3.36011 h -4.5278 z"
           fill="black"
           id="path7"
           style="fill:#ffffff;fill-opacity:1;stroke-width:2.44551" /><path
           d="m 128.498,36.9265 h 16.627 v -3.819 h -9.948 l 9.231,-20.483 h -15.306 v 3.819 h 8.502 z"
           fill="black"
           id="path8"
           style="fill:#ffffff;fill-opacity:1;stroke-width:2.44551" /><path
           d="m 147.666,36.9265 h 16.652 v -3.819 h -9.936 l 9.182,-20.483 h -15.307 v 3.819 h 8.515 z"
           fill="black"
           id="path9"
           style="fill:#ffffff;fill-opacity:1;stroke-width:2.44551" /><path
           d="m 112.904,11.6665 c -7.395,0 -13.0047,5.735 -13.0047,13.146 0,7.412 5.6097,13.147 13.0047,13.147 7.395,0 13.005,-5.735 13.005,-13.147 0,-7.411 -5.61,-13.146 -13.005,-13.146 z m 0,22.032 c -4.729,0 -8.188,-4.02 -8.188,-8.886 0,-4.865 3.459,-8.886 8.188,-8.886 4.729,0 8.188,4.021 8.188,8.886 0,4.866 -3.459,8.886 -8.188,8.886 z"
           fill="black"
           id="path10"
           style="fill:#ffffff;fill-opacity:1;stroke-width:2.44551" /><path
           d="m 178.995,11.6665 c -7.395,0 -13.004,5.735 -13.004,13.146 0,7.412 5.609,13.147 13.004,13.147 7.396,0 13.005,-5.735 13.005,-13.147 -0.013,-7.411 -5.609,-13.146 -13.005,-13.146 z m 0,22.032 c -4.729,0 -8.187,-4.02 -8.187,-8.886 0,-4.865 3.458,-8.886 8.187,-8.886 4.729,0 8.188,4.021 8.188,8.886 0,4.866 -3.459,8.886 -8.188,8.886 z"
           fill="black"
           id="path11"
           style="fill:#ffffff;fill-opacity:1;stroke-width:2.44551" /></g></g></g></svg>
