<svg width="162" height="32" viewBox="0 0 162 32" fill="none" xmlns="http://www.w3.org/2000/svg">
<mask id="mask0_94_77" style="mask-type:luminance" maskUnits="userSpaceOnUse" x="0" y="0" width="162" height="32">
<path d="M192 0.48645H0V37.9721H192V0.48645Z" fill="white"/>
</mask>
<g mask="url(#mask0_94_77)">
<mask id="mask1_94_77" style="mask-type:luminance" maskUnits="userSpaceOnUse" x="0" y="0" width="162" height="32">
<path d="M192 0.48645H0V37.9725H192V0.48645Z" fill="white"/>
</mask>
<g mask="url(#mask1_94_77)">
<path style=" stroke:none;fill-rule:nonzero;fill:rgb(0%,0%,0%);fill-opacity:1;" d="M 41.972656 13.71875 L 41.804688 13.71875 L 41.445312 10.695312 L 38.578125 10.695312 L 38.578125 31.09375 L 42.34375 31.09375 L 42.34375 18.144531 C 43.238281 15.660156 45.074219 14.292969 47.679688 13.984375 L 47.679688 10.632812 C 44.96875 10.535156 43.007812 11.914062 41.972656 13.71875 Z M 41.972656 13.71875 "/>
<path style=" stroke:none;fill-rule:nonzero;fill:rgb(0%,0%,0%);fill-opacity:1;" d="M 0 2.828125 L 12.699219 31.105469 L 16.199219 31.105469 L 28.832031 2.828125 L 24.53125 2.828125 L 14.703125 25.457031 L 14.53125 25.992188 L 14.363281 25.992188 L 14.195312 25.457031 L 4.292969 2.828125 Z M 0 2.828125 "/>
<path style=" stroke:none;fill-rule:nonzero;fill:rgb(0%,0%,0%);fill-opacity:1;" d="M 79.761719 22.785156 C 79.761719 28.285156 76.863281 31.976562 71.292969 31.976562 C 65.726562 31.976562 62.792969 28.285156 62.824219 22.785156 L 62.824219 10.632812 L 66.695312 10.632812 L 66.695312 22.402344 C 66.695312 26.703125 68.761719 28.378906 71.292969 28.378906 C 73.824219 28.378906 75.828125 26.703125 75.890625 22.402344 L 75.890625 10.632812 L 79.761719 10.632812 Z M 79.761719 22.785156 "/>
<path style=" stroke:none;fill-rule:nonzero;fill:rgb(0%,0%,0%);fill-opacity:1;" d="M 32.421875 10.640625 L 28.484375 10.640625 L 28.484375 31.105469 L 32.421875 31.105469 Z M 32.421875 10.640625 "/>
<path style=" stroke:none;fill-rule:nonzero;fill:rgb(0%,0%,0%);fill-opacity:1;" d="M 50.328125 23.625 C 50.328125 28.453125 52.625 31.308594 57.425781 31.308594 L 58.488281 31.308594 L 58.488281 27.953125 C 55.050781 27.890625 54.125 26.277344 54.125 22.347656 L 54.125 13.933594 L 59.089844 13.933594 L 59.089844 10.640625 L 54.125 10.640625 L 54.125 2.828125 L 50.328125 2.828125 Z M 50.328125 23.625 "/>
<path style=" stroke:none;fill-rule:nonzero;fill:rgb(0%,0%,0%);fill-opacity:1;" d="M 107.75 31.097656 L 121.695312 31.097656 L 121.695312 27.878906 L 113.351562 27.878906 L 121.09375 10.632812 L 108.257812 10.632812 L 108.257812 13.847656 L 115.386719 13.847656 Z M 107.75 31.097656 "/>
<path style=" stroke:none;fill-rule:nonzero;fill:rgb(0%,0%,0%);fill-opacity:1;" d="M 123.824219 31.097656 L 137.789062 31.097656 L 137.789062 27.878906 L 129.457031 27.878906 L 137.15625 10.632812 L 124.320312 10.632812 L 124.320312 13.847656 L 131.460938 13.847656 Z M 123.824219 31.097656 "/>
<path style=" stroke:none;fill-rule:nonzero;fill:rgb(0%,0%,0%);fill-opacity:1;" d="M 94.675781 9.824219 C 88.472656 9.824219 83.769531 14.652344 83.769531 20.894531 C 83.769531 27.136719 88.472656 31.964844 94.675781 31.964844 C 100.875 31.964844 105.578125 27.136719 105.578125 20.894531 C 105.578125 14.652344 100.875 9.824219 94.675781 9.824219 Z M 94.675781 28.378906 C 90.710938 28.378906 87.808594 24.992188 87.808594 20.894531 C 87.808594 16.796875 90.710938 13.410156 94.675781 13.410156 C 98.640625 13.410156 101.539062 16.796875 101.539062 20.894531 C 101.539062 24.992188 98.640625 28.378906 94.675781 28.378906 Z M 94.675781 28.378906 "/>
<path style=" stroke:none;fill-rule:nonzero;fill:rgb(0%,0%,0%);fill-opacity:1;" d="M 150.09375 9.824219 C 143.894531 9.824219 139.191406 14.652344 139.191406 20.894531 C 139.191406 27.136719 143.894531 31.964844 150.09375 31.964844 C 156.296875 31.964844 161 27.136719 161 20.894531 C 160.988281 14.652344 156.296875 9.824219 150.09375 9.824219 Z M 150.09375 28.378906 C 146.128906 28.378906 143.230469 24.992188 143.230469 20.894531 C 143.230469 16.796875 146.128906 13.410156 150.09375 13.410156 C 154.058594 13.410156 156.960938 16.796875 156.960938 20.894531 C 156.960938 24.992188 154.058594 28.378906 150.09375 28.378906 Z M 150.09375 28.378906 "/>
</g>
</g>
</svg>
