<svg width="87" height="87" viewBox="0 0 87 87" fill="none" xmlns="http://www.w3.org/2000/svg">
<path d="M72.7611 17.4077C74.5395 18.4528 74.5384 21.0245 72.7596 22.0686L44.5121 38.6487C43.6674 39.1445 42.6205 39.1445 41.7759 38.6487L13.5284 22.0686C11.7496 21.0245 11.7488 18.4528 13.5271 17.4077L41.7744 0.805509C42.6198 0.308646 43.6681 0.308646 44.5135 0.805506L72.7611 17.4077Z" fill="#CB333B"/>
<path d="M47.3044 81.7669C47.3044 83.8562 49.5733 85.1553 51.3751 84.0977L79.5538 67.5582C80.3805 67.0728 80.8882 66.1863 80.8882 65.2274V32.0706C80.8882 29.9814 78.619 28.6822 76.8176 29.7397L48.6389 46.2793C47.8122 46.7647 47.3044 47.6512 47.3044 48.6101V81.7669Z" fill="#CB333B"/>
<path d="M38.9895 81.7669C38.9895 83.8562 36.7204 85.1553 34.9187 84.0977L6.73999 67.5582C5.91322 67.0728 5.4054 66.1863 5.4054 65.2274V32.0706C5.4054 29.9814 7.67448 28.6822 9.47621 29.7397L37.6548 46.2793C38.4818 46.7647 38.9895 47.6512 38.9895 48.6101V81.7669Z" fill="#CB333B"/>
</svg>
