<?xml version="1.0" encoding="UTF-8" standalone="no"?>
<svg xmlns:dc="http://purl.org/dc/elements/1.1/"
   xmlns:cc="http://creativecommons.org/ns#"
   xmlns:rdf="http://www.w3.org/1999/02/22-rdf-syntax-ns#"
   xmlns:svg="http://www.w3.org/2000/svg"
   xmlns="http://www.w3.org/2000/svg"
   id="svg886"
   version="1.1"
   viewBox="0 0 12.170833 12.170834"
   height="46"
   width="46">
  <defs
     id="defs880">
    <path
       d="M24,48 C37.254834,48 48,37.254834 48,24 C48,10.745166 37.254834,0 24,0 C10.745166,0 0,10.745166 0,24 C0,37.254834 10.745166,48 24,48 Z"
       id="path-1" />
  </defs>
  <g
     id="layer1"
     >
    <g
       transform="translate(-3.9404017,-2.4757439)"
       id="layer1-6"
       >
      <path
         d="m 8.6796875,2.5429688 c -0.1024615,0 -0.1855469,0.081681 -0.1855469,0.1835937 v 0.46875 a 0.06708357,0.06708357 0 0 1 -0.044922,0.0625 C 6.5572137,3.9192303 5.2940725,5.708545 5.3007812,7.7128906 V 8.046875 a 0.06708357,0.06708357 0 0 1 -0.041016,0.0625 L 4.7792969,8.3125 c -0.068195,0.028789 -0.1113281,0.093795 -0.1113281,0.1679688 v 1.3183593 c 0,0.1018315 0.083002,0.1835938 0.1855468,0.1835938 h 0.3261719 a 0.06708357,0.06708357 0 0 1 0.066406,0.066406 v 0.501953 c 0,0.102464 0.081683,0.185547 0.1835937,0.185547 h 0.9003906 a 0.06708357,0.06708357 0 0 1 0.064453,0.04883 c 0.084009,0.308479 0.2093469,0.605682 0.3691407,0.882813 a 0.06708357,0.06708357 0 0 1 -0.011719,0.08008 l -0.6386719,0.636719 c -0.071928,0.07224 -0.071959,0.187431 0,0.259765 l 1.0664063,1.066407 c 0.071917,0.07161 0.1896998,0.07164 0.2617187,0 L 8.078125,13.074219 a 0.06708357,0.06708357 0 0 1 0.080078,-0.01172 c 0.2762053,0.159647 0.5728314,0.282847 0.8808594,0.367188 a 0.06708357,0.06708357 0 0 1 0.048828,0.06445 v 0.902343 c 0,0.102463 0.081057,0.183594 0.1835938,0.183594 h 1.5058596 c 0.102541,0 0.185547,-0.08177 0.185547,-0.183594 v -0.902343 a 0.06708357,0.06708357 0 0 1 0.04883,-0.06445 c 0.308688,-0.08406 0.603767,-0.207212 0.880859,-0.367188 a 0.06708357,0.06708357 0 0 1 0.08008,0.01172 l 0.638672,0.636719 c 0.07225,0.07193 0.187428,0.07196 0.259766,0 L 13.9375,12.644531 c 0.07196,-0.07233 0.07192,-0.187527 0,-0.259765 l -0.636719,-0.636719 a 0.06708357,0.06708357 0 0 1 -0.01172,-0.08008 c 0.159677,-0.27693 0.283111,-0.574085 0.367188,-0.882813 a 0.06708357,0.06708357 0 0 1 0.06445,-0.04883 h 0.900391 c 0.101912,0 0.185547,-0.08372 0.185547,-0.185547 v -0.501953 a 0.06708357,0.06708357 0 0 1 0.06641,-0.066406 h 0.326172 c 0.102542,0 0.183593,-0.081136 0.183593,-0.1835938 V 8.4804688 C 15.382446,8.4054342 15.338234,8.3407068 15.269531,8.3125 a 0.06708357,0.06708357 0 0 1 -0.002,0 L 14.783203,8.1035156 a 0.06708357,0.06708357 0 0 1 -0.03906,-0.0625 V 7.7109375 C 14.750918,5.7066389 13.485769,3.9172819 11.59375,3.2558594 a 0.06708357,0.06708357 0 0 1 -0.04492,-0.0625 V 2.7265625 c 0,-0.1025404 -0.08114,-0.1835937 -0.183594,-0.1835937 z m 0.2460937,0.3710937 h 2.1874998 a 0.06708357,0.06708357 0 0 1 0.06641,0.066406 v 4.1933593 a 0.06708357,0.06708357 0 0 1 -0.06641,0.066406 H 8.9296875 A 0.06708357,0.06708357 0 0 1 8.8632812,7.1738281 L 8.859375,2.9804688 a 0.06708357,0.06708357 0 0 1 0.066406,-0.066406 z M 8.4238281,3.6621094 a 0.06708357,0.06708357 0 0 1 0.070312,0.066406 v 3.6953125 c 0,0.1018289 0.083649,0.1855469 0.1855469,0.1855469 h 2.6894535 c 0.101914,0 0.185547,-0.083715 0.185547,-0.1855469 V 3.7285156 a 0.06708357,0.06708357 0 0 1 0.0918,-0.0625 c 1.656879,0.6573276 2.73959,2.2627547 2.732422,4.0449219 v 0.5019531 c 0,0.073313 0.04486,0.1391422 0.113282,0.1679688 a 0.06708357,0.06708357 0 0 1 0.002,0 l 0.484375,0.2089844 a 0.06708357,0.06708357 0 0 1 0.03906,0.0625 V 9.546875 a 0.06708357,0.06708357 0 0 1 -0.06641,0.066406 H 5.1015625 A 0.06708357,0.06708357 0 0 1 5.0351562,9.546875 V 8.6464844 a 0.06708357,0.06708357 0 0 1 0.039063,-0.0625 L 5.5585938,8.375 a 0.06708357,0.06708357 0 0 1 0.00195,0 C 5.6287048,8.3462845 5.671875,8.2813212 5.671875,8.2070312 V 7.7050781 C 5.6662384,5.9251416 6.7482637,4.3235875 8.4023438,3.6660156 a 0.06708357,0.06708357 0 0 1 0.021484,-0.00391 z M 5.6757812,9.9824219 H 7.96875 a 0.06708357,0.06708357 0 0 1 0.066406,0.058594 c 0.1331549,1.097771 1.1307665,1.879493 2.2285158,1.746093 0.914206,-0.110965 1.633332,-0.831804 1.74414,-1.746093 a 0.06708357,0.06708357 0 0 1 0.06641,-0.058594 h 2.296875 a 0.06708357,0.06708357 0 0 1 0.06641,0.066406 l 0.002,0.251953 a 0.06708357,0.06708357 0 0 1 -0.06641,0.06641 h -0.835938 a 0.06708357,0.06708357 0 0 1 -0.002,0 c -0.089,-0.002 -0.162914,0.05763 -0.18164,0.144531 -0.08624,0.400945 -0.245158,0.784924 -0.46875,1.128906 -0.04782,0.07346 -0.03979,0.166877 0.02148,0.228516 l 0.601562,0.599609 a 0.06708357,0.06708357 0 0 1 0,0.09375 l -0.71875,0.712891 a 0.06708357,0.06708357 0 0 1 -0.09375,0 l -0.599609,-0.59961 c -0.06162,-0.06126 -0.157872,-0.07069 -0.230469,-0.02344 -0.34387,0.223435 -0.725955,0.382495 -1.126953,0.46875 -0.0863,0.01858 -0.146542,0.09458 -0.144531,0.183594 a 0.06708357,0.06708357 0 0 1 0,0.002 v 0.845703 a 0.06708357,0.06708357 0 0 1 -0.06641,0.06641 H 9.5234375 a 0.06708357,0.06708357 0 0 1 -0.066406,-0.06641 v -0.853516 a 0.06708357,0.06708357 0 0 1 0,-0.002 c 0.00202,-0.08827 -0.059338,-0.162876 -0.1464843,-0.181641 -0.4011171,-0.08613 -0.7832732,-0.246989 -1.1269531,-0.470703 -0.072662,-0.04723 -0.1687411,-0.03792 -0.2304688,0.02344 l -0.5996094,0.599609 a 0.06708357,0.06708357 0 0 1 -0.09375,0 L 6.5488281,12.558594 a 0.06708357,0.06708357 0 0 1 0,-0.09375 l 0.6015625,-0.59961 c 0.06093,-0.06124 0.069046,-0.157315 0.021484,-0.230468 -0.2256271,-0.341843 -0.3872726,-0.72337 -0.4765625,-1.123047 -0.018799,-0.08697 -0.092703,-0.146604 -0.1816406,-0.144531 a 0.06708357,0.06708357 0 0 1 -0.00195,0 H 5.6757812 a 0.06708357,0.06708357 0 0 1 -0.066406,-0.06641 v -0.251953 a 0.06708357,0.06708357 0 0 1 0.066406,-0.066406 z m 2.7949219,0 c 0.0026,0 0.00911,0 0.00977,0 h 3.0898432 a 0.06708357,0.06708357 0 0 1 0.06641,0.076172 C 11.492907,10.948055 10.655096,11.555939 9.765625,11.412109 9.0712748,11.299865 8.5243622,10.752942 8.4121094,10.058594 a 0.06708357,0.06708357 0 0 1 0.058594,-0.076172 z"
         style="fill:#0044ca;fill-opacity:1;fill-rule:nonzero;stroke:none;stroke-width:0.0217726"
         id="path867" />
    </g>
  </g>
</svg>
