<?xml version="1.0" encoding="UTF-8"?>
<svg width="45px" height="34px" viewBox="0 0 45 34" version="1.1" xmlns="http://www.w3.org/2000/svg" xmlns:xlink="http://www.w3.org/1999/xlink">
    <!-- Generator: Sketch 53.2 (72643) - https://sketchapp.com -->
    <title>Group 13</title>
    <desc>Created with Sketch.</desc>
    <g id="Coriolis" stroke="none" stroke-width="1" fill="none" fill-rule="evenodd">
        <g id="Replica/List/Collapsed" transform="translate(-17.000000, -927.000000)" stroke="#FFFFFF" stroke-width="1.5">
            <g id="Menu-Copy">
                <g id="Group-13" transform="translate(18.000000, 928.000000)">
                    <path d="M13.7724235,12.3408941 C14.8830118,12.3098353 15.9926588,12.3013647 17.1041882,12.3164235 C17.0298353,10.3013647 17.0326588,8.28818824 17.1145412,6.27312941 C16.8001882,6.19218824 16.4736,6.14230588 16.1413647,6.13289412 C15.2105412,6.1056 14.2806588,6.10371765 13.3498353,6.12818824 C11.4336,6.18089412 9.75077647,7.49289412 9.12207059,9.24254118 C9.28677647,9.24818824 9.45148235,9.25195294 9.61618824,9.25854118 C11.4891294,9.34042353 13.1352471,10.6307765 13.7724235,12.3408941 Z" id="Stroke-1"></path>
                    <path d="M9.61618824,9.25816471 C9.45148235,9.25157647 9.28677647,9.24781176 9.12207059,9.24216471 C7.62183529,9.18945882 6.12254118,9.1904 4.62136471,9.25157647 C2.27595294,9.34945882 0.279717647,11.3400471 0.177129412,13.6854588 C0.103717647,15.3513412 0.101835294,17.0144 0.1696,18.6802824 C0.266541176,21.0266353 2.25807059,23.0228706 4.60442353,23.1254588 C5.18795294,23.1518118 5.77148235,23.1649882 6.35595294,23.1734588 C6.32489412,21.0482824 6.3776,18.9249882 6.51312941,16.7969882 C6.61101176,15.2694588 7.55312941,13.8755765 8.85289412,13.1019294 C9.45430588,12.7442824 10.1310118,12.5193412 10.8359529,12.4741647 C11.8157176,12.4120471 12.7936,12.3687529 13.7724235,12.3405176 C13.1352471,10.6304 11.4891294,9.34098824 9.61618824,9.25816471 Z" id="Stroke-3"></path>
                    <path d="M42.4590118,15.7893647 C42.4006588,13.3648941 40.3667765,11.3310118 37.9423059,11.2726588 C37.1771294,11.2547765 36.4100706,11.2547765 35.6439529,11.2726588 L35.6345412,11.2726588 C35.6110118,12.2590118 35.5714824,13.2453647 35.5103059,14.2326588 C35.5027765,14.3540706 35.4896,14.4754824 35.4717176,14.5950118 C36.2378353,15.3912471 36.7347765,16.4472471 36.7837176,17.5879529 C36.8552471,19.2651294 36.8561882,20.9404235 36.7856,22.6176 C37.1714824,22.6176 37.5564235,22.6138353 37.9423059,22.6034824 C40.3667765,22.5460706 42.4006588,20.5121882 42.4590118,18.0877176 C42.4778353,17.3216 42.4778353,16.5545412 42.4590118,15.7893647 Z" id="Stroke-5"></path>
                    <path d="M36.7835294,17.5881412 C36.7345882,16.4474353 36.2376471,15.3914353 35.4715294,14.5952 C35.1590588,16.6940235 33.3021176,18.4464941 31.1684706,18.5820235 C31.1656471,18.5820235 31.1628235,18.5829647 31.16,18.5829647 C29.3294118,18.6949647 27.5025882,18.7410824 25.6738824,18.7250824 C25.7821176,21.3848471 25.7585882,24.0417882 25.6051765,26.7043765 C26.1209412,26.9396706 26.6818824,27.0808471 27.2654118,27.1062588 C28.9595294,27.1787294 30.6498824,27.1787294 32.344,27.1062588 C34.6894118,27.0055529 36.6828235,25.0130824 36.7835294,22.6667294 C36.7844706,22.6507294 36.7844706,22.6337882 36.7854118,22.6177882 C36.856,20.9406118 36.8550588,19.2653176 36.7835294,17.5881412 Z" id="Stroke-7"></path>
                    <path d="M35.5104941,4.61844706 C35.3721412,2.35962353 33.4192,0.406682353 31.1603765,0.268329412 C27.9528471,0.0706823529 24.7537882,0.0706823529 21.5462588,0.268329412 C19.2883765,0.406682353 17.3344941,2.35962353 17.1961412,4.61844706 C17.1622588,5.16997647 17.1368471,5.72150588 17.1142588,6.27303529 C17.0323765,8.28809412 17.0295529,10.3012706 17.1039059,12.3163294 C18.2784941,12.3304471 19.4530824,12.3728 20.6286118,12.4396235 C20.8366118,12.4499765 21.0455529,12.4603294 21.2535529,12.4744471 C22.5382588,12.5563294 23.7279059,13.2358588 24.5344941,14.2240941 C25.1293176,14.9525647 25.5161412,15.8495059 25.5763765,16.7963294 C25.6168471,17.4400941 25.6479059,18.0829176 25.6742588,18.7248 C27.5020235,18.7408 29.3297882,18.6946824 31.1603765,18.5826824 C31.1632,18.5826824 31.1660235,18.5817412 31.1688471,18.5817412 C33.3015529,18.4462118 35.1594353,16.6937412 35.4719059,14.5958588 C35.4897882,14.4753882 35.5029647,14.3539765 35.5104941,14.2325647 C35.5707294,13.2452706 35.6102588,12.2589176 35.6347294,11.2725647 C35.6864941,9.05515294 35.6479059,6.83868235 35.5104941,4.61844706 Z" id="Stroke-9"></path>
                    <path d="M25.6740706,18.7250824 C25.6486588,18.0822588 25.6166588,17.4403765 25.5761882,16.7966118 C25.5159529,15.8488471 25.1291294,14.9528471 24.5343059,14.2243765 C23.7286588,13.2361412 22.5380706,12.5556706 21.2533647,12.4737882 C21.0453647,12.4606118 20.8364235,12.4502588 20.6293647,12.4389647 C19.4538353,12.3730824 18.2792471,12.3307294 17.1046588,12.3156706 C15.9931294,12.3015529 14.8825412,12.3100235 13.7719529,12.3410824 C12.7931294,12.3683765 11.8152471,12.4116706 10.8354824,12.4737882 C10.1305412,12.5189647 9.45477647,12.7448471 8.85336471,13.1015529 C7.55265882,13.8761412 6.61054118,15.2690824 6.5136,16.7966118 C6.37712941,18.9246118 6.32442353,21.0488471 6.35642353,23.1740235 C6.37524706,24.5189647 6.42701176,25.8657882 6.5136,27.2144941 C6.65571765,29.4479059 8.60207059,31.3942588 10.8354824,31.5373176 C14.3121882,31.7594353 17.7766588,31.7594353 21.2533647,31.5373176 C23.4867765,31.3942588 25.4331294,29.4479059 25.5761882,27.2144941 C25.5865412,27.0441412 25.5950118,26.8737882 25.6053647,26.7043765 C25.7587765,24.0417882 25.7813647,21.3848471 25.6740706,18.7250824 Z" id="Stroke-11"></path>
                </g>
            </g>
        </g>
    </g>
</svg>