<?xml version="1.0" encoding="UTF-8"?>
<svg width="42px" height="32px" viewBox="0 0 42 32" version="1.1" xmlns="http://www.w3.org/2000/svg" xmlns:xlink="http://www.w3.org/1999/xlink">
    <!-- Generator: Sketch 53.2 (72643) - https://sketchapp.com -->
    <title>ID/Logos/cbsl-logo-small</title>
    <desc>Created with Sketch.</desc>
    <g id="ID/Logos/cbsl-logo-small" stroke="none" stroke-width="1" fill="none" fill-rule="evenodd">
        <path d="M25.9742882,27.0171111 C25.6044163,29.3176763 23.5449513,31.2198009 21.1792892,31.3692433 C17.7898506,31.5828025 14.4121471,31.5828025 11.0225923,31.369236 C8.50833223,31.2104064 6.3400756,29.0716996 6.17948233,26.5827057 C6.1104362,25.5220535 6.06370818,24.4568282 6.03903057,23.3870895 C5.67324195,23.3786821 5.34044128,23.3678236 5.01554578,23.3533526 C2.38045155,23.2397271 0.157520584,21.0422831 0.0481874405,18.4324493 C-0.0183568595,16.8191053 -0.0160557615,15.2137339 0.0555582623,13.6110353 C0.171225556,11.003036 2.39892693,8.8114825 5.03399517,8.7030271 C6.32356063,8.65119827 7.62668724,8.64354253 8.94742764,8.67889052 C9.7821192,6.96321438 11.5426335,5.77856964 13.4787,5.72605238 C14.3871763,5.70249831 15.2986796,5.70408977 16.2145458,5.73057567 C16.2958578,5.73284739 16.3772182,5.7372272 16.4585686,5.74367601 C16.4722591,5.4666075 16.4864775,5.2096785 16.5021948,4.95736065 C16.6583838,2.4424668 18.8351227,0.296036133 21.3744231,0.142582772 C24.502697,-0.0475249851 27.6228647,-0.0475249851 30.7508806,0.142567139 C33.2909519,0.296003172 35.4670253,2.44202585 35.6233525,4.95712932 C35.7407322,6.82766456 35.7853071,8.71242496 35.7585974,10.6173313 C36.2638623,10.6132977 36.7714536,10.6170926 37.2784383,10.6287779 C39.9992152,10.6933603 42.2732235,12.9359782 42.3390798,15.6301625 C42.3575616,16.3712282 42.35756,17.1140891 42.3390845,17.85568 C42.273327,20.5501606 39.9990084,22.7928248 37.2803738,22.8563121 C37.1186464,22.8605914 36.9541001,22.8638037 36.784601,22.8660385 C36.3729132,25.1879392 34.3000061,27.0447443 31.8817399,27.1471479 C30.2246808,27.2170567 28.5712331,27.2170567 26.9136347,27.147125 C26.5959722,27.1334819 26.2817558,27.0896849 25.9742882,27.0171111 Z M16.3882156,11.6169577 C16.3475081,10.1321882 16.3512036,8.65156872 16.3995129,7.17342419 C16.3241303,7.16626433 16.2489672,7.16161674 16.1741094,7.15952524 C15.2834272,7.13376797 14.397936,7.13222193 13.516433,7.15507615 C12.3291761,7.18728167 11.2202763,7.82073222 10.5430295,8.77636336 C12.1823356,9.0569729 13.6235481,10.144663 14.3657568,11.6350822 C15.0420555,11.6204475 15.7159624,11.6143889 16.3882156,11.6169577 Z M9.62942819,10.1299846 C9.60572103,10.1292854 9.60572103,10.1292854 9.58188039,10.1285867 C9.48585038,10.1257732 9.48585038,10.1257732 9.38709282,10.1225813 C7.93328312,10.0722101 6.50340557,10.0746433 5.0918262,10.1313757 C3.19263402,10.2095438 1.56296082,11.812773 1.48038,13.6747569 C1.4105926,15.2365771 1.40835032,16.80091 1.47319041,18.3729395 C1.55123222,20.2358317 3.17728381,21.8432399 5.07785404,21.9251934 C5.37658441,21.9384985 5.68306547,21.948679 6.01831495,21.9566858 C6.0089893,20.1616015 6.06258127,18.3647568 6.17902185,16.561666 C6.28718349,14.8969743 7.30301913,13.3435031 8.79146714,12.4697532 C9.48095861,12.0653757 10.243342,11.8243269 11.0235028,11.7750189 C11.5837004,11.7399914 12.150913,11.7107012 12.7275247,11.6868485 C12.052816,10.78682 10.9922868,10.1875206 9.85968677,10.1376453 C9.79419608,10.1350663 9.74608561,10.1334927 9.62942819,10.1299846 Z M37.2449434,21.4272306 C39.2094837,21.3813509 40.8662459,19.7476478 40.9132806,17.8203591 C40.9311739,17.1021334 40.9311739,16.3830198 40.9132811,15.6656983 C40.8662477,13.7384627 39.2095012,12.1045402 37.2451607,12.057913 C36.740821,12.0462889 36.23561,12.0427122 35.7249968,12.0472458 C35.7009451,12.7882166 35.6673105,13.5063705 35.6231505,14.2092277 C35.6219433,14.2284246 35.6206086,14.24765 35.6191475,14.2668997 C36.3611958,15.1324936 36.8055316,16.2069971 36.8544283,17.3309661 C36.9136908,18.701374 36.9233607,20.068633 36.8832959,21.4349069 C37.0060039,21.4329168 37.126223,21.4303707 37.2449434,21.4272306 Z M35.1091867,16.0879719 C34.3005765,17.701991 32.6433305,18.8830639 30.7715541,19.0202717 C30.8045856,19.0185841 30.8101691,19.0180365 30.8146153,19.0174118 C30.801036,19.0196998 30.7890023,19.02064 30.7504697,19.0236506 C29.2231365,19.1158094 27.6896611,19.1621354 26.1459153,19.1632984 C26.213024,21.294131 26.1911911,23.4268817 26.0806593,25.5662565 C26.3711652,25.6542874 26.6708266,25.7058606 26.9741535,25.7188882 C28.5912439,25.7871107 30.2046699,25.7871107 31.8216487,25.7188929 C33.7208853,25.6384681 35.348285,24.0337231 35.4299468,22.1594201 C35.4302993,22.1427308 35.4302993,22.1427308 35.4311463,22.1248874 C35.4983679,20.5497077 35.4976962,18.9736912 35.4293488,17.3931413 C35.4097615,16.9431843 35.2991418,16.500973 35.1091867,16.0879719 Z M30.6716625,17.5956451 C32.3850142,17.4882648 33.915709,16.0822038 34.1691949,14.4037824 C34.1838197,14.3066144 34.1941076,14.2116103 34.1998721,14.1199441 C34.2553986,13.2223671 34.2943424,12.2968395 34.3187579,11.3262969 C34.3688636,9.20952214 34.3299517,7.11881767 34.1999117,5.04663734 L34.1998828,5.0461747 C34.0887021,3.25598678 32.4904642,1.67976693 30.6648225,1.56948683 C27.5940399,1.38287286 24.5315218,1.38287286 21.460499,1.56950138 C19.635657,1.67977908 18.0368379,3.25633675 17.9256707,5.04630718 C17.8965568,5.51368803 17.8725918,5.9996522 17.8473239,6.6081101 C17.7784508,8.27967153 17.7678538,9.95426572 17.8152267,11.6345228 C18.7204057,11.6536459 19.6371526,11.6894983 20.5657157,11.7415695 C20.7170379,11.7489915 20.78599,11.7524472 20.870742,11.7569755 C20.9847514,11.763067 21.0855554,11.7690173 21.1793657,11.7753027 C22.5892231,11.8639238 23.9288457,12.5818044 24.8539717,13.6996575 C25.5392363,14.5273281 25.9569517,15.5276493 26.0236688,16.5619141 C26.0475738,16.9369312 26.0688646,17.3225516 26.0886143,17.7335247 C27.6070145,17.7334644 29.1198991,17.6888232 30.6572092,17.5981593 C30.6231512,17.6002422 30.6150716,17.6009475 30.6090554,17.6017982 C30.6225719,17.5995054 30.6342428,17.5985877 30.6716625,17.5956451 Z M24.6938836,18.4748994 C24.6687683,17.8483315 24.6378174,17.2442559 24.6001815,16.6538282 C24.5535445,15.9301337 24.2548608,15.2150571 23.7558885,14.6123922 C23.0762373,13.7901931 22.0960689,13.2646414 21.0901849,13.2014133 C20.9926123,13.1954653 20.9926123,13.1954653 20.893959,13.1899132 C20.7699583,13.1831651 20.7699583,13.1831651 20.6446364,13.1765931 C20.5691725,13.172631 20.5691725,13.172631 20.492294,13.1685261 C19.3441814,13.1050667 18.2208266,13.0660147 17.1166234,13.0520533 C16.0520717,13.0387186 14.9883892,13.0467179 13.9246036,13.076058 C12.9678028,13.1023705 12.0325238,13.1438439 11.1123269,13.201381 C10.5612866,13.2362081 10.0145328,13.4093929 9.51259657,13.7029959 C8.41974335,14.3448391 7.67836441,15.4783866 7.60269874,16.6542438 C7.47185558,18.6663872 7.42165993,20.6716375 7.4522523,22.6753681 C7.47039917,23.9540999 7.52038997,25.2252945 7.60272204,26.4900407 C7.71674775,28.2572945 9.30984272,29.8286782 11.1121887,29.9425351 C14.4420326,30.1523394 17.759965,30.1523394 21.0896928,29.9425424 C22.892078,29.828683 24.4854033,28.2573081 24.6000118,26.4928095 C24.6071329,26.3736603 24.6071329,26.3736603 24.6139202,26.2526309 C24.6207814,26.1303623 24.6207814,26.1303623 24.6281121,26.0082349 C24.7748522,23.4965254 24.7966832,20.9881386 24.6938836,18.4748994 Z" id="Combined-Shape" fill="#FFFFFF" fill-rule="nonzero"></path>
    </g>
</svg>