<?xml version="1.0" encoding="UTF-8"?>
<svg width="24px" height="17px" viewBox="0 0 24 17" version="1.1" xmlns="http://www.w3.org/2000/svg" xmlns:xlink="http://www.w3.org/1999/xlink">
    <!-- Generator: Sketch 53.2 (72643) - https://sketchapp.com -->
    <title>Icon/Replica/24 Copy 2</title>
    <desc>Created with Sketch.</desc>
    <g id="Coriolis" stroke="none" stroke-width="1" fill="none" fill-rule="evenodd">
        <g id="Replica/List/Collapsed" transform="translate(-28.000000, -231.000000)" stroke="#FFFFFF" stroke-width="1.5">
            <g id="Menu-Copy">
                <g id="Group" transform="translate(9.000000, 125.000000)">
                    <g id="Icon/Endpoint/24" transform="translate(19.000000, 103.000000)">
                        <path d="M18.6513931,18.5912346 L18.8017804,18.5818287 C21.2949988,18.4258905 23.25,16.3523663 23.25,13.8412346 C23.25,11.4570913 21.4828085,9.45048902 19.1430634,9.13430625 L18.5194921,9.05003958 L18.4941125,8.42131231 C18.3987542,6.05900659 16.4519703,4.18479731 14.0793989,4.18479731 C12.4945123,4.18479731 11.0565134,5.025556 10.2675063,6.36736626 L9.97683561,6.86168987 L9.4236026,6.71076441 C9.04711403,6.60805595 8.65613083,6.55543869 8.25744591,6.55543869 C5.81724385,6.55543869 3.83906922,8.53361332 3.83906922,10.9738154 C3.83906922,11.1086301 3.8450851,11.2426093 3.85703626,11.3755132 L3.91579018,12.0288915 L3.27604486,12.1740846 C1.80932898,12.5069624 0.75,13.8175316 0.75,15.3423971 C0.75,17.1366805 2.20455412,18.5912346 3.99883756,18.5912346 C3.99900167,18.5912346 3.99900167,18.5912346 3.99918949,18.5912346 C3.99960068,18.5912346 3.99960068,18.5912346 4,18.5912346 L18.6513931,18.5912346 Z" id="Combined-Shape"></path>
                    </g>
                </g>
            </g>
        </g>
    </g>
</svg>