<?xml version="1.0" encoding="UTF-8"?>
<svg width="48px" height="43px" viewBox="0 0 48 43" version="1.1" xmlns="http://www.w3.org/2000/svg" xmlns:xlink="http://www.w3.org/1999/xlink">
    <!-- Generator: Sketch 53.2 (72643) - https://sketchapp.com -->
    <title>Coriolis-Symbol-Small</title>
    <desc>Created with Sketch.</desc>
    <g id="Coriolis" stroke="none" stroke-width="1" fill="none" fill-rule="evenodd">
        <g id="Replica/List/Collapsed" transform="translate(-16.000000, -43.000000)" stroke-width="0.7">
            <g id="Menu-Copy">
                <g id="ID/Coriolis/Symbol-Small" transform="translate(16.000000, 40.000000)">
                    <path d="M33.327222,44.8988076 C33.2458771,44.8988076 33.1655006,44.8978486 33.0851241,44.8968895 C27.2641222,44.7866005 20.0931825,40.7596119 14.371925,34.3877824 C5.55278284,24.5653444 2.6805334,12.1352899 7.96891985,6.68029798 C9.66360513,4.93293595 12.0584375,4.03719712 14.9151927,4.09090309 C20.7361945,4.20119213 27.9061659,8.22818071 33.6274234,14.6000102 C42.4475339,24.4224482 45.3197834,36.8515437 40.0304285,42.3074947 C38.3851312,44.0059459 36.0706753,44.8988076 33.327222,44.8988076" id="Fill-3" stroke="#0044CA"></path>
                    <path d="M34.1288833,41.4486056 C28.8046664,41.4486056 22.1198592,38.6300013 16.2852999,33.8530472 C6.66917147,25.9822458 2.30269381,15.2458473 6.5510277,9.91936611 C7.85738795,8.28229312 9.88810511,7.27722428 12.4243227,7.00965348 C17.9489967,6.42847818 25.3387929,9.31133783 31.7156515,14.5313661 C41.3308116,22.4021676 45.6972892,33.1395251 41.4489553,38.4660063 C40.1435635,40.1021203 38.1128463,41.1081481 35.5756604,41.3747599 C35.1069588,41.4236707 34.6237314,41.4486056 34.1288833,41.4486056" id="Fill-6" stroke="#2F81B7"></path>
                    <path d="M34.352737,38.3136399 C29.6831528,38.3136399 23.8485935,36.6765669 18.2067441,33.4733895 C11.0726033,29.4233841 5.83650998,23.8063153 4.54370721,18.8154964 C4.00237631,16.7276768 4.20477015,14.8287873 5.1315209,13.3250201 C8.32721314,8.13472193 19.391087,8.71685626 29.7925811,14.6235537 C36.9267219,18.6735592 42.1628152,24.290628 43.4565864,29.2814469 C43.9979173,31.3692664 43.794555,33.268156 42.8678043,34.7719231 C41.405533,37.1474532 38.2940908,38.3136399 34.352737,38.3136399" id="Fill-8" stroke="#159588"></path>
                    <path d="M33.3978422,35.8918122 C29.4487413,35.8918122 24.8237031,35.0929359 20.1366878,33.4424364 C12.2597906,30.6698658 5.90907858,26.0540296 3.95873792,21.6856245 C3.21404479,20.0159444 3.13076311,18.4728568 3.71179807,17.0985594 C5.84710152,12.0492394 16.6814666,11.1429512 27.8634843,15.0788314 C35.7403814,17.8523611 42.0910935,22.4672382 44.0414341,26.8366023 C44.7861272,28.5053235 44.8694089,30.048411 44.2874056,31.4236674 C43.0478643,34.3563969 38.8721598,35.8918122 33.3978422,35.8918122" id="Fill-10" stroke="#8CC152"></path>
                    <path d="M30.4657242,33.8110604 C27.841383,33.8110604 25.0078692,33.580892 22.0697691,33.0975383 C13.2699947,31.6503543 5.8734198,28.2208446 3.2258372,24.3616871 C2.34266407,23.075621 2.02987359,21.8039404 2.29714967,20.5821296 C3.3865902,15.5865156 13.7687164,13.2407156 25.9307464,15.2412629 C34.7305207,16.689406 42.1270957,20.1179566 44.7746783,23.9771141 C45.656883,25.2641392 45.9696735,26.5358198 45.7033658,27.7566716 C44.8773278,31.5458194 38.7047998,33.8110604 30.4657242,33.8110604" id="Fill-12" stroke="#CDDA49"></path>
                    <path d="M23.9995181,32.8063174 C11.102592,32.8063174 1,29.0008659 1,24.1423939 C1,19.2829628 11.102592,15.4775113 23.9995181,15.4775113 C36.897408,15.4775113 47,19.2829628 47,24.1423939 C47,29.0008659 36.897408,32.8063174 23.9995181,32.8063174" id="Fill-25" stroke="#FFDC00"></path>
                    <path d="M2.29662145,27.7566716 C2.03031646,26.5358198 2.34310377,25.2641392 3.22626797,23.9771141 C5.87285539,20.1179566 13.2693555,16.689406 22.0700092,15.2412629 C34.2328844,13.2407156 44.6139372,15.5865156 45.7033667,20.5821296 C45.9696717,21.8029814 45.6568844,23.074662 44.7746886,24.3616871 C42.1271328,28.2208446 34.7306327,31.6503543 25.9309474,33.0975383 C22.992877,33.580892 20.1593919,33.8110604 17.5350773,33.8110604 C9.29511663,33.8110604 3.1236195,31.5458194 2.29662145,27.7566716 Z" id="Fill-23" stroke="#FDC02F"></path>
                    <path d="M14.6022438,35.8918122 C9.1279262,35.8918122 4.95222167,34.3563969 3.71171205,31.4227084 C3.1306771,30.048411 3.21395877,28.5053235 3.95865191,26.8366023 C5.90899256,22.4681972 12.2587362,17.8523611 20.1366018,15.0788314 C31.317651,11.1429512 42.1520161,12.0492394 44.2882879,17.0985594 C44.8693229,18.4728568 44.7860412,20.0159444 44.0413481,21.6856245 C42.0910074,26.0540296 35.7402954,30.6698658 27.8633982,33.4424364 C23.1773513,35.0919769 18.5513447,35.8918122 14.6022438,35.8918122" id="Fill-21" stroke="#FD9727"></path>
                    <path d="M13.6464413,38.3133131 C9.70508758,38.3133131 6.59461381,37.1471263 5.13137412,34.7715963 C4.20559176,33.2678292 4.00222953,31.3689396 4.54356042,29.2811201 C5.83733158,24.2903012 11.0724565,18.6741913 18.2065973,14.6232269 C28.6080914,8.71748845 39.6719653,8.13439508 42.8686259,13.3246933 C43.7944082,14.8284604 43.9977705,16.72735 43.4564396,18.8161285 C42.1626684,23.8059884 36.9275435,29.4230573 29.7934027,33.4730627 C24.1515533,36.6762401 18.3160256,38.3133131 13.6464413,38.3133131" id="Fill-19" stroke="#FC5830"></path>
                    <path d="M13.9458532,41.5121472 C13.4510051,41.5121472 12.9677777,41.4881713 12.4990761,41.4383015 C9.96189017,41.1716897 7.93117301,40.1656618 6.62578115,38.5285888 L6.62578115,38.5295479 C2.37744726,33.2030667 6.74392492,22.4657092 16.359085,14.5949077 C22.7359436,9.37487941 30.1247714,6.49489687 35.6504138,7.07319506 C38.1866314,7.34076587 40.2173485,8.3458347 41.5237088,9.9829077 C45.7720427,15.3093889 41.405565,26.0457874 31.7894365,33.9165888 C25.9548772,38.6925839 19.2700701,41.5121472 13.9458532,41.5121472" id="Fill-17" stroke="#FF2D55"></path>
                    <path d="M14.672797,44.8987313 C11.9293437,44.8987313 9.61488776,44.0058695 7.96959045,42.3074183 C2.6802356,36.8524264 5.55248505,24.4223718 14.3716272,14.5999339 C20.0938531,8.22810435 27.2638244,4.20111577 33.0848263,4.09082672 C35.9328659,4.03807979 38.3364138,4.93285958 40.0310991,6.68022162 C45.3194856,12.1361726 42.4472361,24.5652681 33.628094,34.387706 C27.9058681,40.7595356 20.7358967,44.7865241 14.9148949,44.8968132 C14.8345184,44.8977722 14.7531735,44.8987313 14.672797,44.8987313" id="Fill-14" stroke="#F91661"></path>
                </g>
            </g>
        </g>
    </g>
</svg>