<?xml version="1.0" encoding="UTF-8" standalone="no"?>
<svg
   xmlns="http://www.w3.org/2000/svg"
   viewBox="0 0 6.3499999 6.3500002"
   height="24"
   width="24">
  <g
     transform="scale(0.89) translate(0.5 0.2)"
     >
    <path
       id="path833"
       style="fill:#feffff;fill-opacity:1;stroke-width:0.3175"
       d="M 3.9567384,1.4287455 V 0.64703203 H 2.3932744 V 1.42875 Z M 0.48827166,2.234522 v 3.1509535 c 0,0.1746256 0.1428877,0.3175127 0.31751267,0.3175127 H 5.5442279 c 0.174625,0 0.3175127,-0.1428871 0.3175127,-0.3175127 V 2.234522 c 0,-0.1746251 -0.1428877,-0.3175128 -0.3175127,-0.3175128 H 0.80578433 c -0.17462497,0 -0.31751267,0.1428877 -0.31751267,0.3175128 z M 5.715,1.42875 c 0.352425,0 0.635,0.282575 0.635,0.635 v 3.4925001 c 0,0.3524247 -0.282575,0.635 -0.635,0.635 H 0.63500003 C 0.28257503,6.1912501 0,5.9086748 0,5.5562501 L 0.00317498,2.06375 c 0,-0.352425 0.27940005,-0.635 0.63182505,-0.635 H 1.9050001 V 0.79375013 C 1.9050001,0.44132511 2.1875751,0.15875 2.5400002,0.15875 H 3.8100003 C 4.162425,0.15875 4.445,0.44132511 4.445,0.79375013 V 1.42875 Z" />
  </g>
</svg>
