<?xml version="1.0" encoding="UTF-8" standalone="no"?>
<svg
   xmlns:dc="http://purl.org/dc/elements/1.1/"
   xmlns:cc="http://creativecommons.org/ns#"
   xmlns:rdf="http://www.w3.org/1999/02/22-rdf-syntax-ns#"
   xmlns:svg="http://www.w3.org/2000/svg"
   xmlns="http://www.w3.org/2000/svg"
   xmlns:xlink="http://www.w3.org/1999/xlink"
   xmlns:sodipodi="http://sodipodi.sourceforge.net/DTD/sodipodi-0.dtd"
   xmlns:inkscape="http://www.inkscape.org/namespaces/inkscape"
   sodipodi:docname="minion-pool-menu.svg"
   inkscape:version="1.0 (4035a4fb49, 2020-05-01)"
   id="svg2846"
   version="1.1"
   viewBox="0 0 6.3499999 6.3500002"
   height="24"
   width="24">
  <defs
     id="defs2840" />
  <sodipodi:namedview
     inkscape:window-maximized="0"
     inkscape:window-y="0"
     inkscape:window-x="171"
     inkscape:window-height="1040"
     inkscape:window-width="1274"
     inkscape:snap-global="false"
     units="px"
     showgrid="false"
     inkscape:document-rotation="0"
     inkscape:current-layer="layer1"
     inkscape:document-units="mm"
     inkscape:cy="27.171163"
     inkscape:cx="29.130502"
     inkscape:zoom="5.6"
     inkscape:pageshadow="2"
     inkscape:pageopacity="0.0"
     borderopacity="1.0"
     bordercolor="#666666"
     pagecolor="#ffffff"
     id="base" />
  <metadata
     id="metadata2843">
    <rdf:RDF>
      <cc:Work
         rdf:about="">
        <dc:format>image/svg+xml</dc:format>
        <dc:type
           rdf:resource="http://purl.org/dc/dcmitype/StillImage" />
        <dc:title></dc:title>
      </cc:Work>
    </rdf:RDF>
  </metadata>
  <g
     id="layer1"
     inkscape:groupmode="layer"
     inkscape:label="Layer 1">
    <path
       transform="matrix(0.66894872,0,0,0.66894872,-1.0732164,-1.0725631)"
       style="fill:#ffffff;fill-opacity:1;fill-rule:nonzero;stroke:none;stroke-width:0.0165542"
       sodipodi:type="inkscape:offset"
       inkscape:radius="0.069459192"
       inkscape:original="M 5.3261719 1.7226562 C 5.2208984 1.7226562 5.1347656 1.8087232 5.1347656 1.9140625 L 5.1347656 2.2714844 C 3.6758668 2.7814944 2.7018583 4.1595931 2.7070312 5.7050781 L 2.7070312 5.9589844 L 2.3417969 6.1132812 C 2.2711829 6.1430922 2.2265625 6.2125643 2.2265625 6.2890625 L 2.2265625 7.2910156 C 2.2265625 7.3962891 2.3106762 7.4804688 2.4160156 7.4804688 L 2.6640625 7.4804688 L 2.6640625 7.8632812 C 2.6640625 7.9685548 2.7501311 8.0546875 2.8554688 8.0546875 L 3.5410156 8.0546875 C 3.6060686 8.2935587 3.7005799 8.5219006 3.8242188 8.7363281 L 3.3398438 9.2207031 C 3.2658028 9.2950691 3.2658028 9.4158064 3.3398438 9.4902344 L 4.1503906 10.300781 C 4.2247536 10.374821 4.3454928 10.374821 4.4199219 10.300781 L 4.9042969 9.8164062 C 5.1182075 9.9400453 5.3476492 10.036316 5.5859375 10.101562 L 5.5859375 10.785156 C 5.5859375 10.890431 5.6720056 10.976562 5.7773438 10.976562 L 6.921875 10.976562 C 7.0272135 10.976562 7.1113281 10.890429 7.1113281 10.785156 L 7.1113281 10.101562 C 7.3501992 10.03651 7.5804294 9.9402393 7.7949219 9.8164062 L 8.2792969 10.300781 C 8.3536629 10.374821 8.4743992 10.374821 8.5488281 10.300781 L 9.359375 9.4902344 C 9.433416 9.4158064 9.433416 9.2950677 9.359375 9.2207031 L 8.875 8.7363281 C 8.9986386 8.5219006 9.0951034 8.2935587 9.1601562 8.0546875 L 9.84375 8.0546875 C 9.9490892 8.0546875 10.035156 7.9685545 10.035156 7.8632812 L 10.035156 7.4804688 L 10.283203 7.4804688 C 10.388542 7.4804688 10.474609 7.3962896 10.474609 7.2910156 L 10.474609 6.2890625 C 10.474233 6.2119795 10.426663 6.1425099 10.355469 6.1132812 L 9.9882812 5.9550781 L 9.9882812 5.703125 C 9.9934673 4.1576409 9.0174931 2.7795412 7.5585938 2.2695312 L 7.5585938 1.9140625 C 7.5585938 1.8087239 7.4724607 1.7226563 7.3671875 1.7226562 L 5.3261719 1.7226562 z M 5.5136719 2.1074219 L 7.1777344 2.1074219 L 7.1777344 5.2949219 L 5.5175781 5.2949219 L 5.5136719 2.1074219 z M 5.1347656 2.6757812 L 5.1347656 5.4863281 C 5.1347656 5.5916024 5.2208377 5.6757812 5.3261719 5.6757812 L 7.3710938 5.6757812 C 7.4764332 5.6757812 7.5625 5.5916021 7.5625 5.4863281 L 7.5625 2.6757812 C 8.802897 3.1678795 9.6147421 4.3688991 9.609375 5.703125 L 9.609375 6.0839844 C 9.609375 6.1604874 9.6559521 6.2300198 9.7265625 6.2597656 L 10.09375 6.4179688 L 10.09375 7.0996094 L 2.6054688 7.0996094 L 2.6054688 6.4140625 L 2.9746094 6.2558594 C 3.0452234 6.2261094 3.0898437 6.1566403 3.0898438 6.0800781 L 3.0898438 5.6992188 C 3.0856239 4.3666747 3.8964378 3.1680729 5.1347656 2.6757812 z M 3.0429688 7.4804688 L 4.7871094 7.4804688 C 4.8916718 8.3425129 5.6750652 8.9582721 6.5371094 8.8535156 C 7.2552744 8.7663488 7.8211647 8.1986338 7.9082031 7.4804688 L 9.6542969 7.4804688 L 9.65625 7.671875 L 9.0195312 7.671875 C 8.9279663 7.669765 8.8493479 7.7328378 8.8300781 7.8222656 C 8.7658041 8.1210809 8.6470448 8.4058428 8.4804688 8.6621094 C 8.4313867 8.7375044 8.4425524 8.8366952 8.5058594 8.9003906 L 8.9609375 9.3574219 L 8.4160156 9.8984375 L 7.9589844 9.4433594 C 7.8952907 9.3800526 7.7961025 9.3688864 7.7207031 9.4179688 C 7.4644382 9.5844805 7.1796755 9.7033025 6.8808594 9.7675781 C 6.7913647 9.7868488 6.7284001 9.8674197 6.7304688 9.9589844 L 6.7304688 10.601562 L 5.9667969 10.601562 L 5.9667969 9.953125 C 5.9689069 9.8615604 5.9058984 9.7809887 5.8164062 9.7617188 C 5.5176552 9.6975679 5.2327632 9.5788796 4.9765625 9.4121094 C 4.9011586 9.3630973 4.8020405 9.3741229 4.7382812 9.4375 L 4.2832031 9.8925781 L 3.7421875 9.3535156 L 4.1992188 8.8964844 C 4.2625898 8.8327907 4.271671 8.7336008 4.2226562 8.6582031 C 4.0545305 8.403482 3.9356804 8.1201112 3.8691406 7.8222656 C 3.8498064 7.7328343 3.7692995 7.6697414 3.6777344 7.671875 L 3.0429688 7.671875 L 3.0429688 7.4804688 z M 5.1757812 7.4804688 L 7.5234375 7.4804688 C 7.4184867 8.1295721 6.8072414 8.5717477 6.1582031 8.4667969 C 5.6523155 8.3850124 5.2581891 7.986139 5.1757812 7.4804688 z "
       xlink:href="#path867"
       id="path1461"
       inkscape:href="#path867"
       d="m 5.3261719,1.6523438 c -0.1431314,0 -0.2617188,0.1185163 -0.2617188,0.2617187 v 0.3125 C 3.6051295,2.7597755 2.631506,4.1476744 2.6367188,5.7050781 V 5.9121094 L 2.3144531,6.0488281 C 2.2178762,6.0895999 2.15625,6.1855545 2.15625,6.2890625 v 1.0019531 c 0,0.1422722 0.1174217,0.2597656 0.2597656,0.2597656 H 2.59375 v 0.3125 C 2.59375,8.0064134 2.7122674,8.125 2.8554688,8.125 H 3.4921875 C 3.552925,8.3327747 3.6355631,8.5330691 3.7402344,8.7226562 L 3.2910156,9.171875 c -0.1005628,0.1010042 -0.1005295,0.2661325 0,0.3671875 l 0.8105469,0.8105465 c 0.1010024,0.100564 0.266131,0.100529 0.3671875,0 L 4.9179688,9.9003906 C 5.1072301,10.005237 5.3079867,10.089258 5.515625,10.150391 v 0.634765 c 0,0.143133 0.1185178,0.261719 0.2617188,0.261719 H 6.921875 c 0.143202,0 0.2597656,-0.119447 0.2597656,-0.261719 V 10.150391 C 7.3898931,10.08938 7.5913775,10.005446 7.78125,9.9003906 l 0.4492188,0.4492184 c 0.1010041,0.100562 0.2661318,0.100528 0.3671874,0 L 9.4082031,9.5390625 c 0.1005299,-0.1010553 0.1005639,-0.2661841 0,-0.3671875 L 8.9589844,8.7226562 C 9.0637834,8.5332501 9.1479431,8.333048 9.2089844,8.125 H 9.84375 c 0.1432025,0 0.261719,-0.1185876 0.261719,-0.2617188 v -0.3125 h 0.177734 c 0.142344,0 0.261719,-0.1166339 0.261719,-0.2597656 V 6.2890625 C 10.544407,6.1836073 10.47972,6.0886137 10.382812,6.0488281 L 10.058594,5.9101562 V 5.703125 C 10.06382,4.1456636 9.0882555,2.7578151 7.6289062,2.2246094 V 1.9140625 c 0,-0.1432021 -0.1185873,-0.2617186 -0.2617187,-0.2617187 z m 0.2578125,0.5253906 h 1.5234375 v 3.046875 H 5.5878906 Z m -0.5195313,0.609375 v 2.6992187 c 0,0.1431341 0.1193786,0.2597656 0.2617188,0.2597657 h 2.0449219 c 0.1423436,0 0.2617187,-0.1166341 0.2617187,-0.2597657 V 2.7871094 c 1.1579711,0.5050512 1.9113587,1.646015 1.90625,2.9160156 v 0.3808594 c 0,0.1046954 0.063928,0.1996966 0.1601563,0.2402344 L 10.023438,6.4628906 V 7.0292969 H 2.6757812 V 6.4589844 L 3.0019531,6.3203125 C 3.0985724,6.2796064 3.1601561,6.1836274 3.1601562,6.0800781 V 5.6992188 C 3.1561399,4.430949 3.9085857,3.2922944 5.0644531,2.7871094 Z M 3.1132812,7.5507812 h 1.6191407 c 0.1394508,0.8653435 0.9347494,1.477759 1.8125,1.3710938 0.7281757,-0.088382 1.3021665,-0.6520113 1.4179687,-1.3710938 h 1.6230469 v 0.050781 H 9.0214844 9.0195312 C 8.8960018,7.5996544 8.7876293,7.6883473 8.7617188,7.8085938 8.6992359,8.0990818 8.5838585,8.3757987 8.421875,8.625 8.3549682,8.7277755 8.3711863,8.8628472 8.4570312,8.9492188 l 0.40625,0.4082031 -0.4472656,0.4433593 -0.4082031,-0.40625 C 7.921443,9.3086864 7.7863717,9.2924701 7.6835938,9.359375 7.4343825,9.5213035 7.1576675,9.6367362 6.8671875,9.6992188 6.7452981,9.7254649 6.6573479,9.8366348 6.6601562,9.9609375 V 10.53125 H 6.0371094 V 9.9550781 9.953125 C 6.0390362,9.8295795 5.9513256,9.719467 5.8300781,9.6933594 5.5396588,9.6309975 5.2627698,9.5156624 5.0136719,9.3535156 4.9109569,9.2867515 4.7758826,9.3027605 4.6894531,9.3886719 l -0.40625,0.40625 L 3.8398438,9.3535156 4.2480469,8.9453125 C 4.3345082,8.8584109 4.3475741,8.7231178 4.28125,8.6210938 a 0.06946614,0.06946614 0 0 0 0,-0.00195 C 4.1178805,8.3716255 4.0022465,8.0964592 3.9375,7.8066406 3.9111764,7.6848796 3.8001755,7.5986639 3.6757812,7.6015625 h -0.5625 z m 2.1582032,0 H 7.4335938 C 7.2980097,8.1163956 6.753423,8.4927908 6.1699219,8.3984375 5.7226459,8.3261285 5.3773985,7.9860294 5.2714844,7.5507812 Z" />
  </g>
</svg>
