<?xml version="1.0" encoding="UTF-8"?>
<svg width="26px" height="22px" viewBox="0 0 26 22" version="1.1" xmlns="http://www.w3.org/2000/svg" xmlns:xlink="http://www.w3.org/1999/xlink">
    <!-- Generator: Sketch 53.2 (72643) - https://sketchapp.com -->
    <title>Icon/Replica/24-Menu</title>
    <desc>Created with Sketch.</desc>
    <g id="Coriolis" stroke="none" stroke-width="1" fill="none" fill-rule="evenodd" stroke-linecap="round">
        <g id="Replica/List/Collapsed" transform="translate(-27.000000, -133.000000)" stroke="#FFFFFF" stroke-width="1.5">
            <g id="Menu-Copy">
                <g id="Group" transform="translate(9.000000, 125.000000)">
                    <g id="Icon/Replica/24-Menu" transform="translate(31.000000, 19.000000) scale(-1, 1) translate(-31.000000, -19.000000) translate(19.000000, 7.000000)">
                        <path d="M21.129848,9.55700589 C22.6159089,10.2395578 23.5,11.0928801 23.5,12.017654 C23.5,12.9673955 22.5671201,13.8418303 21.0071543,14.5332682 C21.7027441,17.1123397 21.4545844,19.4183241 20.1019259,20.7909676 C19.2988451,21.6064027 18.151587,22.0199517 16.7823593,21.9985696 C15.3563596,21.9720825 13.7635439,21.4771402 12.1699819,20.6059728 C10.5765048,21.4770565 8.98371757,21.9719874 7.55774092,21.9987127 C6.19150609,22.0264123 5.04175388,21.6065458 4.23817436,20.7911107 C2.90826329,19.4415508 2.64601506,17.1897777 3.29865447,14.6632923 C1.55555692,13.9530542 0.5,13.0279632 0.5,12.017654 C0.5,11.0314676 1.50531471,10.1265379 3.17388783,9.42331347 C2.49266442,6.86160819 2.74554749,4.57359146 4.09069116,3.20857392 C4.87082671,2.41646476 5.97618501,2 7.29253905,2 C7.33144607,2 7.37085189,2.00048596 7.41025772,2.00097191 C8.88031461,2.02827734 10.5276545,2.55343158 12.17027,3.47538915 C13.8128656,2.55352035 15.4601142,2.02841905 16.9298425,2.00111504 C16.9692483,2.00062908 17.0086542,2.00014312 17.0475612,2.00014312 C18.3639152,2.00014312 19.4692735,2.41660788 20.2494091,3.20871704 C21.6178855,4.59741211 21.8558802,6.94140468 21.129848,9.55700589 Z M6.48910065,8.46277727 C5.22003675,8.70784787 4.09573834,9.03479719 3.17388783,9.42331347 C3.40965503,10.3099038 3.75731037,11.2292768 4.2102975,12.154515 C4.78510399,10.9183071 5.54994323,9.66621275 6.48910065,8.46277727 Z M18.0590193,15.4590997 C19.1863677,15.2119826 20.1840528,14.898099 21.0071543,14.5332682 C20.7983171,13.7589526 20.5044119,12.9600213 20.129789,12.1543425 C19.5870085,13.2629374 18.8929943,14.3799569 18.0590193,15.4590997 Z M21.129848,9.55700589 C20.2497263,9.15276354 19.1584565,8.80842093 17.9146463,8.54461048 C17.5656335,8.09276861 17.1920854,7.6475558 16.7948295,7.21236988 C15.3704328,5.65165917 13.7725991,4.37473504 12.17027,3.47538915 C10.5677923,4.37474269 8.96974298,5.6517195 7.54527072,7.212513 C7.17206068,7.62135712 6.81977534,8.03905102 6.48910065,8.46277727 C8.12632635,8.14661046 10.0044955,7.96672022 11.9997518,7.96672022 C14.1612354,7.96672022 16.1853677,8.17783283 17.9146463,8.54461048 C18.8247535,9.7228609 19.568024,10.9461882 20.129789,12.1543425 C20.5600396,11.275583 20.8952642,10.402117 21.129848,9.55700589 Z M12.1699819,20.6059728 C13.8216859,19.7030591 15.4741311,18.3960006 16.9423127,16.7873148 C17.3383889,16.3534213 17.7108977,15.9095604 18.0590193,15.4590997 C16.2984625,15.8450173 14.2216773,16.0681017 11.9997518,16.0681017 C9.94646999,16.0681017 8.01718449,15.8775963 6.34687488,15.5441324 C5.48355207,14.4387538 4.76729661,13.2922005 4.2102975,12.154515 C3.81469742,13.0053126 3.50910882,13.8485853 3.29865447,14.6632923 C4.16122939,15.0147548 5.19216807,15.3136045 6.34687488,15.5441324 C6.6758791,15.9653819 7.02624191,16.3806515 7.39728871,16.7871716 C8.8657013,18.3958324 10.5182425,19.703001 12.1699819,20.6059728 Z" id="Combined-Shape"></path>
                    </g>
                </g>
            </g>
        </g>
    </g>
</svg>