<?xml version="1.0" encoding="UTF-8"?>
<svg width="24px" height="24px" viewBox="0 0 24 24" version="1.1" xmlns="http://www.w3.org/2000/svg" xmlns:xlink="http://www.w3.org/1999/xlink">
    <!-- Generator: Sketch 53.2 (72643) - https://sketchapp.com -->

    <desc>Created with Sketch.</desc>
    <g id="Coriolis" stroke="none" stroke-width="1" fill="none" fill-rule="evenodd">
        <g id="Replica/List/Collapsed" transform="translate(-28.000000, -370.000000)" stroke="#FFFFFF" stroke-width="1.5">
            <g id="Menu-Copy">
                <g id="Group" transform="translate(9.000000, 125.000000)">
                    <g id="Icon/Users/24" transform="translate(19.000000, 245.000000)">
                        <path d="M23,24 L23,23.4651163 C23,19.7744186 19.64555,18.3837209 17.39,17.4744186 C16.455,17.1 15.3,16.6180698 15.3,16.244186 L15.3,16.244186 L15.3,13.8372093 C16.675,12.8209302 17.5,11.2162791 17.5,9.55813953 L17.5,6.34883721 C17.5,3.40697674 15.025,1 12,1 C8.975,1 6.5,3.40697674 6.5,6.34883721 L6.5,9.55813953 C6.5,11.2162791 7.325,12.8744186 8.7,13.8372093 L8.7,16.244186 C8.7,16.5651163 7.545,17.0465116 6.61,17.4744186 C4.355,18.3837209 1,19.7744186 1,23.4651163 L1,24" id="Combined-Shape"></path>
                    </g>
                </g>
            </g>
        </g>
    </g>
</svg>
