<?xml version="1.0" encoding="UTF-8"?>
<svg width="362px" height="62px" viewBox="0 0 362 62" version="1.1" xmlns="http://www.w3.org/2000/svg" xmlns:xlink="http://www.w3.org/1999/xlink">
    <!-- Generator: Sketch 53.2 (72643) - https://sketchapp.com -->

    <desc>Created with Sketch.</desc>
    <g id="Coriolis" stroke="none" stroke-width="1" fill="none" fill-rule="evenodd">
        <g id="About/About-No-Licence" transform="translate(-112.000000, -113.000000)">
            <g id="ID/Coriolis/Logo-H-Black/About" transform="translate(112.000000, 108.000000)">
                <g id="ID/Coriolis/Symbol-Small" stroke-width="1.03428571">
                    <path d="M49.2426708,66.340279 C49.1224796,66.340279 49.0037192,66.338862 48.8849588,66.337445 C40.2841316,66.1744873 29.6887023,60.2244062 21.2352525,50.809703 C8.20451996,36.2965497 3.96062485,17.93051 11.7744857,9.8704811 C14.2784696,7.28866454 17.8169567,5.96516472 22.0379582,6.04451803 C30.6387854,6.20747572 41.2327838,12.1575568 49.6862337,21.57226 C62.7183971,36.0854133 66.9622922,54.450036 59.1470005,62.5114819 C56.7159898,65.0210303 53.2962631,66.340279 49.2426708,66.340279" id="Fill-3" stroke="#0044CA"></path>
                    <path d="M50.4271664,61.2424295 C42.5603642,61.2424295 32.6832206,57.0777978 24.0623615,50.0196045 C9.85404111,38.3900938 3.40234758,22.5265173 9.67947766,14.6563695 C11.6096916,12.2375106 14.6101798,10.7524702 18.3575706,10.3571206 C26.5205584,9.49840449 37.4393593,13.7579767 46.8614932,21.4708349 C61.0683828,33.1003456 67.5200763,48.9653391 61.2429462,56.8354868 C59.3141632,59.2529287 56.313675,60.7393862 52.5648533,61.1333187 C51.8723228,61.2055869 51.1583297,61.2424295 50.4271664,61.2424295" id="Fill-6" stroke="#2F81B7"></path>
                    <path d="M50.7579217,56.6103578 C43.8583727,56.6103578 35.2375137,54.1914989 26.9013933,49.4586409 C16.3603363,43.4745512 8.62374127,35.1750454 6.71355922,27.8008558 C5.9137152,24.715996 6.21276243,21.9102897 7.58208394,19.6883971 C12.3038823,12.0194667 28.6513204,12.8795999 44.0200585,21.6070467 C54.5611156,27.5911364 62.2977106,35.8906422 64.2093235,43.2648318 C65.0091675,46.3496916 64.7086895,49.1553979 63.3393679,51.3772905 C61.1787875,54.8872574 56.5814729,56.6103578 50.7579217,56.6103578" id="Fill-8" stroke="#159588"></path>
                    <path d="M49.3470158,53.0319837 C43.5120177,53.0319837 36.6782878,51.8516032 29.7529836,49.412906 C18.1144661,45.3162915 8.73096508,38.4961581 5.84923725,32.0416167 C4.74891516,29.574579 4.62586223,27.2945884 5.48437102,25.2639939 C8.63939081,17.803366 24.647718,16.4642789 41.1697196,22.2797427 C52.808237,26.3777743 62.1917381,33.1964907 65.0734659,39.6524491 C66.173788,42.1180698 66.2968409,44.3980604 65.4369013,46.4300719 C63.6054159,50.7633293 57.4355994,53.0319837 49.3470158,53.0319837" id="Fill-10" stroke="#8CC152"></path>
                    <path d="M45.0146618,49.9575669 C41.1370638,49.9575669 36.9504026,49.6174813 32.6092098,48.9033015 C19.6070943,46.7650132 8.67827742,41.6977377 4.76633905,35.9956357 C3.46140569,34.0954074 2.99924179,32.2164344 3.39415584,30.4111466 C5.00385981,23.029872 20.343981,19.5638328 38.3140007,22.5197435 C51.3161163,24.6594488 62.2449332,29.7253073 66.1568715,35.4274093 C67.460374,37.3290547 67.9225379,39.2080277 67.5290547,41.0118984 C66.3085414,46.6105577 57.1883164,49.9575669 45.0146618,49.9575669" id="Fill-12" stroke="#CDDA49"></path>
                    <path d="M35.4605124,48.4730077 C16.4046462,48.4730077 1.47755102,42.850259 1.47755102,35.6716187 C1.47755102,28.4915613 16.4046462,22.8688126 35.4605124,22.8688126 C54.5178028,22.8688126 69.444898,28.4915613 69.444898,35.6716187 C69.444898,42.850259 54.5178028,48.4730077 35.4605124,48.4730077" id="Fill-25" stroke="#FFDC00"></path>
                    <path d="M3.39337537,41.0118984 C2.99989615,39.2080277 3.46205537,37.3290547 4.76697552,35.4274093 C8.67744348,29.7253073 19.6061497,24.6594488 32.6095646,22.5197435 C50.5808333,19.5638328 65.9193684,23.029872 67.5290561,30.4111466 C67.9225353,32.2150174 67.4603761,34.0939904 66.1568868,35.9956357 C62.244988,41.6977377 51.3162817,46.7650132 38.3142977,48.9033015 C33.9731489,49.6174813 29.7865301,49.9575669 25.9089713,49.9575669 C13.7340091,49.9575669 4.61530717,46.6105577 3.39337537,41.0118984 Z" id="Fill-23" stroke="#FDC02F"></path>
                    <path d="M21.5755603,53.0319837 C13.4869767,53.0319837 7.31716019,50.7633293 5.48424393,46.4286548 C4.62573514,44.3980604 4.74878807,42.1180698 5.84911016,39.6524491 C8.73083799,33.1979077 18.1129082,26.3777743 29.7528565,22.2797427 C46.2734272,16.4642789 62.2817544,17.803366 65.4382051,25.2639939 C66.2967138,27.2945884 66.1736609,29.574579 65.0733388,32.0416167 C62.191611,38.4961581 52.80811,45.3162915 41.1695925,49.412906 C34.2457191,51.8501862 27.4105583,53.0319837 21.5755603,53.0319837" id="Fill-21" stroke="#FD9727"></path>
                    <path d="M20.1633133,56.6098748 C14.3397621,56.6098748 9.74387836,54.8867744 7.58186706,51.3768076 C6.2139764,49.1549149 5.91349832,46.3492087 6.71334234,43.2643488 C8.62495524,35.8901593 16.3601194,27.5920705 26.9011765,21.6065638 C42.2699146,12.880534 58.6173527,12.0189837 63.3405819,19.6879142 C64.7084726,21.9098068 65.0089507,24.7155131 64.2091066,27.8017899 C62.2974937,35.1745625 54.5623296,43.4740683 44.0212725,49.4581579 C35.6851522,54.191016 27.0628623,56.6098748 20.1633133,56.6098748" id="Fill-19" stroke="#FC5830"></path>
                    <path d="M20.6057096,61.3363154 C19.8745462,61.3363154 19.1605531,61.3008898 18.4680227,61.2272046 C14.719201,60.8332721 11.7187128,59.3468146 9.7899297,56.9279558 L9.7899297,56.9293728 C3.51279962,49.059225 9.96449315,33.1942315 24.1713827,21.5647208 C33.5935167,13.8518626 44.5108867,9.5965415 52.6753053,10.4510066 C56.4226961,10.8463561 59.4231844,12.3313966 61.3533983,14.7502555 C67.6305284,22.6204032 61.1788348,38.4839797 46.9705144,50.1134904 C38.3496553,57.1702668 28.4725117,61.3363154 20.6057096,61.3363154" id="Fill-17" stroke="#FF2D55"></path>
                    <path d="M21.6798062,66.3401662 C17.6262139,66.3401662 14.2064872,65.0209174 11.7754765,62.5113691 C3.96018485,54.4513402 8.20407995,36.0853004 21.2348125,21.5721472 C29.6896932,12.157444 40.2836916,6.20736289 48.8845188,6.0444052 C53.0926427,5.96646891 56.6440074,7.28855171 59.1479914,9.87036827 C66.9618522,17.9318142 62.7179571,36.2964369 49.6872245,50.8095902 C41.2323438,60.2242934 30.6383454,66.1743744 22.0375182,66.3373321 C21.9187578,66.3387492 21.7985666,66.3401662 21.6798062,66.3401662" id="Fill-14" stroke="#F91661"></path>
                </g>
                <path d="M222.561404,12.6675414 L223.508124,12.6675414 C224.162805,12.6675414 224.693931,13.1990129 224.693931,13.8544943 L224.693931,57.0679546 C224.693931,57.7234361 224.162805,58.2549075 223.508124,58.2549075 L222.561404,58.2549075 C221.906723,58.2549075 221.375597,57.7234361 221.375597,57.0679546 L221.375597,13.8544943 C221.375597,13.1990129 221.906723,12.6675414 222.561404,12.6675414 L222.561404,12.6675414 Z M327.369718,48.6884215 C327.965029,48.4710013 328.619709,48.7641159 328.866819,49.3487345 C330.320596,52.7743095 333.210499,56.0404432 339.523035,56.0404432 C344.986732,56.0404432 349.150695,52.6535206 349.150695,47.0537441 C349.150695,33.8329892 327.031145,37.5452368 327.031145,22.8266987 C327.031145,16.835566 331.585029,11.8204082 339.325668,11.8204082 C345.967149,11.8204082 349.537406,15.7371917 351.076227,18.6812214 C351.405172,19.3141556 351.100296,20.090426 350.432778,20.3400565 L349.808585,20.5719713 C349.256599,20.7781178 348.650057,20.542982 348.358018,20.0324473 C347.014959,17.6988045 344.256634,14.8159745 339.325668,14.8159745 C333.406261,14.8159745 330.349479,18.4638013 330.349479,22.8911195 C330.349479,34.678512 352.533213,32.0743019 352.533213,46.8572608 C352.533213,53.6311059 347.525225,59.1004303 339.457246,59.1004303 C331.750304,59.1004303 327.828637,54.8180588 326.029869,50.4873718 C325.771527,49.8641007 326.094053,49.1522511 326.727874,48.9219468 L327.369718,48.6884215 Z M315.333538,12.6675414 L316.278654,12.6675414 C316.934939,12.6675414 317.466065,13.1990129 317.466065,13.8544943 L317.466065,57.0679546 C317.466065,57.7234361 316.934939,58.2549075 316.278654,58.2549075 L315.333538,58.2549075 C314.678857,58.2549075 314.147731,57.7234361 314.147731,57.0679546 L314.147731,13.8544943 C314.147731,13.1990129 314.678857,12.6675414 315.333538,12.6675414 L315.333538,12.6675414 Z M286.314166,12.6675414 L287.260886,12.6675414 C287.915566,12.6675414 288.448297,13.1990129 288.448297,13.8544943 L288.448297,55.1933099 L305.412234,55.1933099 C306.066915,55.1933099 306.598041,55.7247813 306.598041,56.3802628 L306.598041,57.0679546 C306.598041,57.7234361 306.066915,58.2549075 305.412234,58.2549075 L286.314166,58.2549075 C285.659485,58.2549075 285.128359,57.7234361 285.128359,57.0679546 L285.128359,13.8544943 C285.128359,13.1990129 285.659485,12.6675414 286.314166,12.6675414 L286.314166,12.6675414 Z M254.464261,11.8204082 C267.34607,11.8204082 277.495229,22.1100175 277.495229,35.4612245 C277.495229,48.8768523 267.281886,59.1020408 254.400076,59.1020408 C241.582451,59.1020408 231.433293,49.0717251 231.433293,35.4612245 C231.433293,21.9811759 241.64824,11.8204082 254.464261,11.8204082 L254.464261,11.8204082 Z M254.464261,55.9744119 C265.460653,55.9744119 274.048526,47.3130378 274.048526,35.4612245 C274.048526,23.7382528 265.460653,14.9464266 254.464261,14.9464266 C243.405288,14.9464266 234.883204,23.7382528 234.883204,35.4612245 C234.883204,47.3130378 243.405288,55.9744119 254.464261,55.9744119 L254.464261,55.9744119 Z M187.020896,13.8544943 C187.020896,13.1990129 187.552022,12.6675414 188.206703,12.6675414 L197.49579,12.6675414 C206.34361,12.6675414 211.093256,18.39777 211.093256,25.0411631 C211.093256,30.6409395 207.709133,35.0698682 202.635356,36.7625243 L213.272316,56.5042728 C213.699143,57.2950379 213.126297,58.2549075 212.227715,58.2549075 L211.221625,58.2549075 C210.781962,58.2549075 210.379204,58.0117191 210.173814,57.6219734 L199.512785,37.4147847 L190.33923,37.4147847 L190.33923,57.0679546 C190.33923,57.7234361 189.808104,58.2549075 189.153423,58.2549075 L188.206703,58.2549075 C187.552022,58.2549075 187.020896,57.7234361 187.020896,57.0679546 L187.020896,13.8544943 Z M197.625764,34.4192183 C203.740933,34.4192183 207.57916,30.8374229 207.57916,25.0411631 C207.57916,19.6362595 203.936695,15.7291391 197.430001,15.7291391 L190.33923,15.7291391 L190.33923,34.4192183 L197.625764,34.4192183 Z M157.245752,11.8204082 C170.127562,11.8204082 180.27672,22.1100175 180.27672,35.4612245 C180.27672,48.8768523 170.061773,59.1020408 157.179963,59.1020408 C144.363943,59.1020408 134.214784,49.0717251 134.214784,35.4612245 C134.214784,21.9811759 144.429732,11.8204082 157.245752,11.8204082 L157.245752,11.8204082 Z M157.245752,55.9744119 C168.24054,55.9744119 176.828413,47.3130378 176.828413,35.4612245 C176.828413,23.7382528 168.24054,14.9464266 157.245752,14.9464266 C146.185175,14.9464266 137.663091,23.7382528 137.663091,35.4612245 C137.663091,47.3130378 146.185175,55.9744119 157.245752,55.9744119 L157.245752,55.9744119 Z M132.212231,52.692173 C132.387133,53.1560027 132.263578,53.6794215 131.8881,54.003136 C129.93208,55.6941815 124.757213,59.1004303 117.400075,59.1004303 C104.452477,59.1004303 94.5632653,48.941273 94.5632653,35.4612245 C94.5632653,21.9811759 104.712424,11.8204082 117.204313,11.8204082 C123.733471,11.8204082 128.455839,14.4310603 130.886823,16.2783262 C131.307231,16.5988196 131.454855,17.1592804 131.263906,17.6504889 L130.992727,18.3414018 C130.710316,19.0661356 129.824571,19.3238187 129.193959,18.8680417 C126.968365,17.2655747 122.749845,14.9464266 117.204313,14.9464266 C106.599445,14.9464266 98.0115723,23.673832 98.0115723,35.4612245 C98.0115723,47.248617 106.143736,55.9744119 117.400075,55.9744119 C123.659659,55.9744119 127.985688,53.2574654 130.148702,51.5535357 C130.7745,51.0623273 131.697151,51.331284 131.979562,52.0769546 L132.212231,52.692173 Z M356.670002,18.4349116 C356.127631,18.1164156 355.697028,17.6862884 355.37818,17.144517 C355.059331,16.6027456 354.89991,16.0100894 354.89991,15.3665306 C354.89991,14.7229718 355.059331,14.1303156 355.37818,13.5885442 C355.697028,13.0467728 356.127631,12.6166456 356.670002,12.2981497 C357.212372,11.9796537 357.805684,11.8204082 358.449955,11.8204082 C359.094226,11.8204082 359.687537,11.9796537 360.229908,12.2981497 C360.772279,12.6166456 361.202882,13.0467728 361.52173,13.5885442 C361.840578,14.1303156 362,14.7229718 362,15.3665306 C362,16.0100894 361.840578,16.6027456 361.52173,17.144517 C361.202882,17.6862884 360.772279,18.1164156 360.229908,18.4349116 C359.687537,18.7534075 359.094226,18.9126531 358.449955,18.9126531 C357.805684,18.9126531 357.212372,18.7534075 356.670002,18.4349116 Z M359.899557,17.9029932 C360.340027,17.6370327 360.690098,17.2791406 360.949778,16.8293061 C361.209459,16.3794717 361.339297,15.8918847 361.339297,15.3665306 C361.339297,14.8411765 361.209459,14.3535896 360.949778,13.9037551 C360.690098,13.4539207 360.340027,13.0960285 359.899557,12.830068 C359.459086,12.5641075 358.97589,12.4311293 358.449955,12.4311293 C357.92402,12.4311293 357.43918,12.5641075 356.995422,12.830068 C356.551665,13.0960285 356.199951,13.4539207 355.94027,13.9037551 C355.68059,14.3535896 355.550751,14.8411765 355.550751,15.3665306 C355.550751,15.8918847 355.68059,16.3794717 355.94027,16.8293061 C356.199951,17.2791406 356.551665,17.6370327 356.995422,17.9029932 C357.43918,18.1689537 357.92402,18.301932 358.449955,18.301932 C358.97589,18.301932 359.459086,18.1689537 359.899557,17.9029932 Z M357.148272,17.1001905 C357.108826,17.0607889 357.089104,17.0082543 357.089104,16.942585 L357.089104,13.7707755 C357.089104,13.7051062 357.108826,13.6525716 357.148272,13.6131701 C357.187717,13.5737685 357.24031,13.554068 357.306051,13.554068 L358.597873,13.554068 C359.012047,13.554068 359.345683,13.6460036 359.598789,13.8298776 C359.851895,14.0137515 359.978447,14.3059753 359.978447,14.7065578 C359.978447,14.9626679 359.915993,15.1777316 359.791083,15.3517551 C359.666173,15.5257786 359.498534,15.6554735 359.28816,15.7408435 L359.92914,16.8046803 C359.955437,16.8440818 359.968585,16.8900496 359.968585,16.942585 C359.968585,17.0016874 359.950507,17.0525803 359.914348,17.0952653 C359.87819,17.1379503 359.823954,17.1592925 359.751638,17.1592925 L359.495246,17.1592925 C359.37691,17.1592925 359.281586,17.0969077 359.20927,16.9721361 L358.56829,15.868898 L357.799113,15.868898 L357.799113,16.942585 C357.799113,17.0082543 357.779391,17.0607889 357.739946,17.1001905 C357.700501,17.139592 357.647908,17.1592925 357.582166,17.1592925 L357.306051,17.1592925 C357.24031,17.1592925 357.187717,17.139592 357.148272,17.1001905 Z M358.578151,15.2286259 C359.025196,15.2286259 359.248715,15.0546049 359.248715,14.7065578 C359.248715,14.5555185 359.197766,14.4307488 359.095866,14.3322449 C358.993966,14.233741 358.821396,14.1844898 358.578151,14.1844898 L357.799113,14.1844898 L357.799113,15.2286259 L358.578151,15.2286259 Z" id="Fill-1" fill="#202234" fill-rule="evenodd"></path>
            </g>
        </g>
    </g>
</svg>
