<?xml version="1.0" encoding="UTF-8"?>
<svg width="64px" height="64px" viewBox="0 0 64 64" version="1.1" xmlns="http://www.w3.org/2000/svg" xmlns:xlink="http://www.w3.org/1999/xlink">
    <!-- Generator: Sketch 47.1 (45422) - http://www.bohemiancoding.com/sketch -->

    <desc>Created with Sketch.</desc>
    <defs></defs>
    <g id="Symbols" stroke="none" stroke-width="1" fill="none" fill-rule="evenodd">
        <g id="Icon/Endpoint/Item-64">
            <path d="M32,64 C49.673112,64 64,49.673112 64,32 C64,14.326888 49.673112,0 32,0 C14.326888,0 0,14.326888 0,32 C0,49.673112 14.326888,64 32,64 Z" id="Pat-Benetar" fill="#FFFFFF"></path>
            <path d="M27.4,14 C21.45772,14 16.69948,18.9550014 16.44648,25.1511772 C12.14272,26.3884731 9,30.48144 9,35.3336566 C9,41.1952971 13.5586,46 19.12,46 L46.72,46 C51.2694,46 55,42.0679979 55,37.2729917 C55,33.4912881 52.608,30.2836278 49.39352,29.151056 C49.19848,23.465895 44.79904,18.8483379 39.36,18.8483379 C38.40412,18.8483379 37.51448,19.0965728 36.62852,19.3642011 C34.65144,16.1933881 31.27964,14 27.4,14 L27.4,14 Z" id="Path" stroke="#0044CA" stroke-width="1.5" stroke-linecap="round" transform="translate(32.000000, 30.000000) scale(-1, 1) translate(-32.000000, -30.000000) "></path>
            <g id="Group" transform="translate(20.960000, 29.542857)" stroke="#0044CA" stroke-width="1.5" stroke-linecap="round">
                <path d="M7.64227273,4.5320197 L15.6906392,4.5320197" id="Stroke-7"></path>
                <path d="M9.55349432,6.87475789 C8.9072381,7.91673058 7.81020015,8.60197044 6.56592981,8.60197044 L3.76632155,8.60197044 C1.77868426,8.60197044 0.167272727,6.85299345 0.167272727,4.69491295 L0.167272727,4.36946652 C0.167272727,2.21138603 1.77868426,0.462068966 3.76632155,0.462068966 L6.56592981,0.462068966 C7.80926037,0.462068966 8.90504527,1.14594856 9.55161476,2.18656096" id="Stroke-9"></path>
                <path d="M23.2718182,6.87475789 C22.625562,7.91673058 21.528524,8.60197044 20.2842537,8.60197044 L17.4846454,8.60197044 C15.4970081,8.60197044 13.8855966,6.85299345 13.8855966,4.69491295 L13.8855966,4.36946652 C13.8855966,2.21138603 15.4970081,0.462068966 17.4846454,0.462068966 L20.2842537,0.462068966 C21.5275842,0.462068966 22.6233691,1.14594856 23.2699386,2.18656096" id="Stroke-9-Copy" transform="translate(18.578707, 4.532020) scale(-1, 1) translate(-18.578707, -4.532020) "></path>
            </g>
        </g>
    </g>
</svg>
