<?xml version="1.0" encoding="UTF-8"?>
<svg width="16px" height="16px" viewBox="0 0 16 16" version="1.1" xmlns="http://www.w3.org/2000/svg" xmlns:xlink="http://www.w3.org/1999/xlink">
    <!-- Generator: Sketch 47 (45396) - http://www.bohemiancoding.com/sketch -->
    <title>Icon/Info/White</title>
    <desc>Created with Sketch.</desc>
    <defs></defs>
    <g id="Symbols" stroke="none" stroke-width="1" fill="none" fill-rule="evenodd">
        <g id="Icon/Info/White">
            <path d="M8.00033862,0 C3.58196825,0 0,3.58129101 0,7.99966138 C0,12.4180317 3.58196825,16 8.00033862,16 C12.4180317,16 16,12.4180317 16,7.99966138 C16,3.58129101 12.4180317,0 8.00033862,0 L8.00033862,0 Z" id="Fill-1-Copy" fill="#FFFFFF"></path>
            <path d="M9.5749418,5.03128042 C9.33655026,5.25409524 9.04804233,5.36448677 8.71144974,5.36448677 C8.37553439,5.36448677 8.08567196,5.25409524 7.84389418,5.03128042 C7.6048254,4.80914286 7.48292063,4.53959788 7.48292063,4.224 C7.48292063,3.90840212 7.6048254,3.6368254 7.84389418,3.41333333 C8.08567196,3.18848677 8.37553439,3.07674074 8.71144974,3.07674074 C9.04804233,3.07674074 9.33655026,3.18848677 9.5749418,3.41333333 C9.81401058,3.6368254 9.9338836,3.90840212 9.9338836,4.224 C9.9338836,4.53959788 9.81401058,4.80914286 9.5749418,5.03128042 L9.5749418,5.03128042 Z" id="Path" fill="#0044CA"></path>
            <path d="M9.66569312,12.3983915 C9.25324868,12.5616085 8.92613757,12.6841905 8.6802963,12.7695238 C8.43445503,12.8548571 8.15001058,12.8982011 7.82560847,12.8982011 C7.32715344,12.8982011 6.93908995,12.7762963 6.66277249,12.5324868 C6.38645503,12.2893545 6.24897354,11.9812063 6.24897354,11.6066878 C6.24897354,11.4617566 6.25913228,11.3127619 6.27944974,11.160381 C6.30044444,11.0093545 6.33362963,10.8380106 6.37900529,10.6470265 L6.89439153,8.82590476 C6.9397672,8.6511746 6.97904762,8.48592593 7.01020106,8.33083598 C7.0413545,8.17439153 7.05625397,8.03149206 7.05625397,7.90213757 C7.05625397,7.67051852 7.00816931,7.50797884 6.91267725,7.41722751 C6.81650794,7.32512169 6.63365079,7.27974603 6.36275132,7.27974603 C6.23001058,7.27974603 6.0925291,7.30006349 5.95233862,7.34137566 C5.81350265,7.38336508 5.69362963,7.4226455 5.59407407,7.46057143 L5.73020106,6.89913228 C6.0674709,6.76165079 6.39051852,6.64448677 6.69866667,6.54696296 C7.00681481,6.4487619 7.29803175,6.4 7.57231746,6.4 C8.06738624,6.4 8.4493545,6.51919577 8.71822222,6.75826455 C8.98573545,6.99733333 9.12050794,7.30819048 9.12050794,7.69083598 C9.12050794,7.77007407 9.11102646,7.90891005 9.09274074,8.10869841 C9.07445503,8.30848677 9.03991534,8.49066667 8.98979894,8.65726984 L8.47712169,10.4722963 C8.43513228,10.6172275 8.3978836,10.7845079 8.36402116,10.9714286 C8.33083598,11.1569947 8.31458201,11.2992169 8.31458201,11.394709 C8.31458201,11.6364868 8.36808466,11.800381 8.47644444,11.887746 C8.58344974,11.9751111 8.77104762,12.0191323 9.0365291,12.0191323 C9.16182011,12.0191323 9.30201058,11.9967831 9.46048677,11.9534392 C9.61828571,11.909418 9.73138624,11.8714921 9.8031746,11.8383069 L9.66569312,12.3983915 Z" id="Path" fill="#0044CA"></path>
        </g>
    </g>
</svg>