<?xml version="1.0" encoding="UTF-8"?>
<svg width="105px" height="42px" viewBox="0 0 105 42" version="1.1" xmlns="http://www.w3.org/2000/svg" xmlns:xlink="http://www.w3.org/1999/xlink">
    <!-- Generator: Sketch 47.1 (45422) - http://www.bohemiancoding.com/sketch -->
    <title>Provider/AWS/aws-42</title>
    <desc>Created with Sketch.</desc>
    <defs></defs>
    <g id="Symbols" stroke="none" stroke-width="1" fill="none" fill-rule="evenodd">
        <g id="Provider/AWS/aws-42" fill="#616870">
            <path d="M29.1843427,14.858945 L23.0818966,12.8269782 L23.0818966,4.02178899 L29.1918103,5.82798165 L29.1843427,14.858945 Z M30.7758621,5.82798165 L36.8857759,4.02178899 L36.8645043,12.8208823 L30.7758621,14.858945 L30.7758621,5.82798165 Z M35.6411638,3.06834504 L29.9548707,4.57358085 L24.3265086,3.06834504 L29.9467241,1.3125 L35.6411638,3.06834504 Z M44.5722737,14.858945 L38.4698276,12.8269782 L38.4698276,4.02178899 L44.5797414,5.82798165 L44.5722737,14.858945 Z M46.1637931,5.82798165 L52.2737069,4.02178899 L52.2524353,12.8208823 L46.1637931,14.858945 L46.1637931,5.82798165 Z M51.0290948,3.06834504 L45.3428017,4.57358085 L39.7144397,3.06834504 L45.3346552,1.3125 L51.0290948,3.06834504 Z M6.10991379,18.6971044 L6.10249138,27.7280677 L0,25.6961009 L0,16.8909117 L6.10991379,18.6971044 Z M7.69396552,18.6971044 L13.8038793,16.8909117 L13.7826756,25.6901856 L7.69396552,27.7280677 L7.69396552,18.6971044 Z M12.5592672,15.9374677 L6.87304203,17.4427036 L1.24461207,15.9374677 L6.86480496,14.1816227 L12.5592672,15.9374677 Z M21.4904224,27.7280677 L15.387931,25.6961009 L15.387931,16.8909117 L21.4978448,18.6971044 L21.4904224,27.7280677 Z M23.0818966,18.6971044 L29.1918103,16.8909117 L29.1705388,25.6901856 L23.0818966,27.7280677 L23.0818966,18.6971044 Z M27.9471983,15.9374677 L22.2609731,17.4427036 L16.6325431,15.9374677 L22.252736,14.1816227 L27.9471983,15.9374677 Z M13.7964569,40.5971904 L7.69396552,38.5652236 L7.69396552,29.7600344 L13.8038793,31.5662271 L13.7964569,40.5971904 Z M15.387931,31.5662271 L21.4978448,29.7600344 L21.4766412,38.5593151 L15.387931,40.5971904 L15.387931,31.5662271 Z M20.2532328,28.8065905 L14.5670075,30.3118488 L8.93857759,28.8065905 L14.5587705,27.0507454 L20.2532328,28.8065905 Z" id="Combined-Shape"></path>
            <path d="M40.73471,32.7580884 C40.8711647,32.7580884 40.9978889,32.816293 41.0655505,32.9100344 C41.111488,32.9737253 41.124613,33.0492919 41.1019837,33.117295 L39.1764557,40.1779414 C39.1330074,40.3565328 38.9850117,40.4784156 38.809182,40.4784156 L38.1771453,40.4784156 C37.9875117,40.4784156 37.8578458,40.322843 37.8175656,40.1785601 L36.4776841,35.4664969 L35.2464234,40.1731799 C35.2025225,40.3522113 35.0504535,40.4784156 34.8768867,40.4784156 L34.2344406,40.4784156 C34.0457122,40.4784156 33.9167251,40.328752 33.8725979,40.1801473 L31.8721669,33.1143825 C31.850669,33.0507142 31.8635678,32.9775183 31.9101841,32.9129469 C31.9789772,32.8177154 32.1072854,32.75854 32.2453242,32.75854 L32.891391,32.7596689 C33.0602057,32.7596689 33.2754104,32.8761683 33.3265527,33.0495628 L34.6214018,37.791699 L35.874613,33.0642155 C35.9133091,32.9133984 36.052932,32.7596689 36.2443759,32.7596689 L36.7759384,32.7596689 C36.9682876,32.7596689 37.1097208,32.9113665 37.1502272,33.0611224 L38.4973501,37.8382762 L39.8594083,33.0507142 C39.9110031,32.8707046 40.1210031,32.7596689 40.2857445,32.7596689 L40.73471,32.7580884 Z M44.6375872,32.7075602 L44.6375872,32.7075602 C46.9523393,32.7075602 47.7889449,34.658903 47.8002596,36.4853928 C47.8009384,36.5590403 47.7688048,36.6325749 47.7097423,36.6917503 C47.6391389,36.7631175 47.5391173,36.8055404 47.4424902,36.8055404 L42.8349363,36.8071208 C42.8387833,37.3004598 42.8731798,37.7856257 43.1058091,38.2778132 C43.3920699,38.8803591 44.0168652,39.2836638 44.6973285,39.3046541 C45.4044945,39.2838422 45.9679643,38.8846804 46.2770807,38.1811593 C46.3418005,38.0346771 46.537544,37.9336884 46.7083953,37.96042 L47.3447315,38.0818639 C47.4528997,38.1055927 47.5443221,38.1701416 47.5925225,38.2556874 C47.6321238,38.3261537 47.640044,38.4047344 47.6146992,38.4771401 C47.141294,39.7433263 46.0453565,40.4680088 44.6077165,40.4680088 C42.5989126,40.4680088 41.3008953,38.953117 41.3008953,36.6084171 C41.3008953,34.7297284 42.3450117,32.7075602 44.6375872,32.7075602 Z M46.2897531,35.7579713 C46.2650872,34.7835303 45.7550225,33.8208071 44.6400764,33.78448 C43.5923393,33.82241 42.9738803,34.8076881 42.8958091,35.7579713 L46.2897531,35.7579713 Z M52.093266,32.642018 L52.093266,32.642018 C52.955669,32.642018 53.7943113,33.1121022 54.2815203,33.8686937 C54.7031044,34.5215872 54.9450117,35.4574208 54.9450117,36.436174 C54.9450117,38.4024405 54.0298824,40.3865185 51.9853242,40.3865185 L51.8665203,40.3865185 C51.090335,40.3865185 50.3650656,39.9857693 49.8835139,39.3035094 L49.6762294,39.9598414 C49.6321022,40.0970692 49.5013048,40.2447931 49.3175548,40.2447931 L49.1229428,40.2458498 C48.9319514,40.2458498 48.7588372,40.0923956 48.7581583,39.9235053 L48.7581583,30.6252233 C48.7586109,30.4423237 48.9523178,30.3055272 49.125432,30.3055272 L49.7880182,30.3055272 C49.9792359,30.3055272 50.1523501,30.4579247 50.1523501,30.6252233 L50.153029,33.6038607 C50.6121777,32.9574018 51.2102703,32.642018 51.971294,32.642018 L52.093266,32.642018 Z M53.4686755,36.6197058 C53.4686755,36.152805 53.3903781,33.8216876 51.8470591,33.7609318 C50.8649471,33.8022936 50.1781475,34.8706565 50.153029,35.844217 L50.153029,37.1150767 C50.1851626,37.6932841 50.3103027,38.1606139 50.5246022,38.4986587 C50.8156152,38.9456213 51.3365419,39.2479464 51.8520376,39.2676136 C53.3901518,39.212317 53.4686755,37.0522889 53.4686755,36.6197058 Z M62.2001949,36.4104358 C62.7509923,36.802357 63.0671238,37.429151 63.0671238,38.1301795 C63.0671238,39.8523323 61.5317251,40.466245 60.0947639,40.466245 L60.0590096,40.4659804 C58.4500656,40.4538096 57.2894083,39.7304504 56.9542682,38.5309376 C56.9341281,38.4580013 56.9465742,38.3780998 56.9902488,38.3067507 C57.0422962,38.2211213 57.131682,38.1577014 57.2294406,38.137156 L57.8789018,38.0034526 C58.0547315,37.9669449 58.2552272,38.0793804 58.297544,38.2383028 C58.5084492,38.9612314 59.3769622,39.3026266 60.1440958,39.3191194 C60.4860247,39.312064 61.6170376,39.2131998 61.6170376,38.2435181 C61.6170376,37.5885024 60.9917897,37.3808128 60.3803458,37.2640424 L59.2665311,37.0522889 C57.8779966,36.7700713 57.1746777,36.0609149 57.1746777,34.9442137 C57.1746777,33.3103544 58.5838048,32.7253738 59.9024147,32.7224613 C61.361779,32.7224613 62.3264665,33.3060421 62.7064126,34.4103032 C62.7306259,34.4800674 62.7218005,34.5581852 62.681294,34.6297104 C62.6306044,34.719862 62.5360139,34.7891747 62.4346346,34.8114811 L61.8136863,34.948368 C61.7901518,34.9534705 61.7652596,34.9562023 61.7408199,34.9562023 C61.598029,34.9562023 61.460669,34.8674957 61.3986647,34.7356436 C61.1377488,34.1761529 60.6003027,33.8580372 59.885669,33.840043 C59.3004751,33.8558246 58.6102811,34.1098205 58.6102811,34.7742736 C58.6102811,35.4028286 59.0234923,35.5938561 59.7374471,35.7109651 L60.7324578,35.8950161 C61.2513479,35.9983981 61.7693328,36.1015768 62.2001949,36.4104358 Z M67.1161863,32.7140851 L67.1161863,32.7140851 C69.431391,32.7140851 70.2673178,34.6656085 70.2779535,36.4919176 C70.2786324,36.5659941 70.2464988,36.6395513 70.18721,36.6989976 C70.1166065,36.7698907 70.0172639,36.8120653 69.9213156,36.8120653 L65.3142143,36.8131942 C65.3176087,37.3077071 65.3522315,37.793302 65.5853134,38.2843494 C65.8704428,38.8867079 66.4950117,39.2899268 67.176154,39.3116215 C67.882641,39.2899268 68.4463372,38.890765 68.7556798,38.1876842 C68.8289988,38.0195051 69.0369622,37.9425161 69.1860893,37.966674 L69.8233307,38.0881178 C69.9312725,38.1113951 70.0229212,38.1759665 70.0711216,38.2616026 C70.1109492,38.3322383 70.1188695,38.4109951 70.0937509,38.4834889 C69.6198932,39.7494132 68.5239557,40.4741823 67.0860893,40.4741823 C65.0770591,40.4741823 63.7788156,38.9594681 63.7788156,36.6149419 C63.7788156,34.7363435 64.8231583,32.7140851 67.1161863,32.7140851 Z M68.7690311,35.7649477 C68.7432337,34.7897843 68.2324902,33.8271739 67.1179966,33.7918854 C66.0702596,33.8280544 65.4518005,34.813784 65.374182,35.7649477 L68.7690311,35.7649477 Z M74.6286647,32.8000598 C74.8135462,32.8201763 74.9586001,32.9666585 74.9586001,33.1335282 L74.9586001,33.7711593 C74.9586001,33.9506272 74.7988372,34.1091206 74.6168975,34.11043 C73.8909492,34.1160744 73.3496561,34.469027 72.962016,35.1885013 C72.6906906,35.6936031 72.637738,36.1205419 72.637738,36.6872574 L72.6372854,40.1239679 C72.6357014,40.3082041 72.4390527,40.4449904 72.2643544,40.4449904 L71.5929428,40.445255 C71.4028565,40.445255 71.2363048,40.2950617 71.2363048,40.1239679 L71.23721,33.307171 C71.2385678,33.1351086 71.4051195,32.9851946 71.5938479,32.9851946 L72.1693113,32.9851946 C72.3623393,32.9851946 72.5322854,33.134499 72.5329643,33.3044391 L72.5313803,34.0061902 C72.9672208,33.2048728 73.5951841,32.7854297 74.3684277,32.7854297 C74.4523824,32.7854297 74.5388264,32.7901935 74.6286647,32.8000598 Z M81.6779212,32.6661984 C81.8168652,32.6661984 81.951057,32.7287152 82.0203027,32.8251208 C82.0662402,32.8892406 82.0786863,32.961985 82.0553781,33.0294689 L79.7254643,40.135961 C79.6623285,40.3274292 79.524516,40.441639 79.3563803,40.441639 L78.4401195,40.441639 C78.2464126,40.441639 78.123988,40.2772482 78.0778242,40.1365796 L75.6757229,33.027166 C75.6528673,32.9595241 75.6655397,32.887028 75.7117035,32.8230888 C75.7804966,32.7275638 75.9149147,32.6657468 76.0538587,32.6657468 L76.8110354,32.6664467 C76.9780397,32.6664467 77.1914341,32.7865811 77.2432553,32.9653491 L78.9983846,38.3493475 L80.7170807,32.9599531 C80.7686755,32.7854297 80.9816173,32.6664467 81.1477165,32.6664467 L81.6779212,32.6661984 Z M83.4199255,29.9334515 C83.9084923,29.9334515 84.3060893,30.3307461 84.3060893,30.8196148 C84.3060893,31.3083705 83.9084923,31.7055071 83.4199255,31.7055071 C82.931585,31.7055071 82.5344406,31.3083705 82.5344406,30.8196148 C82.5344406,30.3307461 82.931585,29.9334515 83.4199255,29.9334515 Z M83.7844837,32.6228949 C83.9867897,32.6228949 84.1646561,32.7789048 84.1646561,32.9567922 L84.1646561,40.195317 C84.1646561,40.3705554 83.9883738,40.5258634 83.7876518,40.5276272 L83.7871992,40.5276272 L83.0549147,40.5264807 C82.9628134,40.5264807 82.8711647,40.4926145 82.7994298,40.4339663 C82.7211324,40.3694089 82.6758738,40.28245 82.6758738,40.1948745 L82.6794945,32.9567922 C82.6794945,32.7818173 82.8596238,32.6221724 83.057404,32.6221724 L83.7844837,32.6228949 Z M90.5793867,37.5311783 C90.7013587,37.5370936 90.8124686,37.5883217 90.8821669,37.6682232 C90.9360247,37.7298821 90.9622747,37.8057196 90.9554859,37.8815797 C90.6520268,39.4735444 89.5922962,40.4553972 88.1883738,40.4553972 L88.0815634,40.4553972 C85.8521238,40.4553972 85.061682,38.3866544 85.061682,36.6149419 C85.061682,34.6825416 85.9992143,32.7325986 88.0933307,32.7325986 L88.1496777,32.7339306 L88.1994622,32.7325986 C89.6393652,32.7325986 90.7167466,33.7352613 90.9466604,35.2864872 C90.9480182,35.468258 90.7957229,35.6148305 90.6015634,35.6358275 L89.9518759,35.6294832 C89.7676734,35.6064543 89.6328027,35.4739023 89.6024794,35.2987468 C89.4418113,34.4403763 88.9061755,33.9136002 88.1698178,33.8910228 C86.9498716,33.9269209 86.5128997,35.2854261 86.5128997,36.5442972 C86.5128997,37.1755841 86.6280828,39.2386874 88.1116604,39.2826953 C88.873363,39.2608223 89.3757337,38.766149 89.5975009,37.8115446 C89.6606367,37.6350796 89.8027488,37.5334812 89.9722423,37.5334812 L90.5793867,37.5311783 Z M94.9228565,32.7140851 L94.9228565,32.7140851 C97.2382876,32.7140851 98.0744406,34.6656085 98.0850764,36.4919176 C98.0862078,36.5648427 98.0545268,36.6384902 97.9956906,36.6982977 C97.9248609,36.7698907 97.8248393,36.8124943 97.7279859,36.8124943 L93.120432,36.8131942 C93.1240527,37.3069847 93.1586755,37.7925796 93.3919837,38.2843494 C93.677113,38.8867079 94.3014557,39.2899268 94.9823716,39.3118856 C95.6886324,39.2899268 96.2525548,38.890765 96.5628027,38.1876842 C96.6361216,38.0195051 96.8434061,37.9425161 96.9932122,37.966674 L97.6295484,38.0881178 C97.7393005,38.1122757 97.8282337,38.1753344 97.877113,38.2616026 C97.9167143,38.3317981 97.9248609,38.410819 97.9001949,38.4837553 C97.4258846,39.7498535 96.3303997,40.4741823 94.8932122,40.4741823 C92.884182,40.4741823 91.5859384,38.9594681 91.5859384,36.6149419 C91.5859384,34.7363435 92.6300548,32.7140851 94.9228565,32.7140851 Z M96.5757014,35.7649477 C96.5503565,34.7897843 96.0398393,33.8271739 94.9251195,33.7918854 C93.8767035,33.8280544 93.2580182,34.8135131 93.1803997,35.7649477 L96.5757014,35.7649477 Z M103.857135,36.4104358 C104.407706,36.8017474 104.723611,37.4286995 104.723611,38.1301795 C104.723611,39.8523323 103.187986,40.466245 101.750798,40.466245 L101.715044,40.4659804 C100.105874,40.4538096 98.9454428,39.7304504 98.6112078,38.5309376 C98.5908415,38.4584438 98.6032876,38.3791564 98.6465096,38.3076335 C98.698557,38.2218212 98.788169,38.1579723 98.8863803,38.137156 L99.53471,38.0034526 C99.7137078,37.9671255 99.9139772,38.0793804 99.9551626,38.2392058 C100.179872,39.0108836 101.090249,39.3039496 101.801488,39.3191194 C102.143417,39.312064 103.27443,39.2131998 103.27443,38.2435181 C103.27443,37.5885024 102.649182,37.3808128 102.037738,37.2640424 L100.923471,37.0522889 C99.5351626,36.7703422 98.8320699,36.0611859 98.8320699,34.9442137 C98.8320699,33.3103544 100.240744,32.7253738 101.558902,32.7224613 C103.018945,32.7224613 103.983859,33.3060421 104.363352,34.4103032 C104.387566,34.4800674 104.37874,34.5579369 104.33846,34.6295524 C104.28777,34.7195911 104.193406,34.7891747 104.092027,34.8114811 L103.471531,34.948368 C103.447544,34.9534705 103.422878,34.9562023 103.398212,34.9562023 C103.255195,34.9562023 103.117382,34.8677441 103.054926,34.7359146 C102.794462,34.1761529 102.257016,33.8580372 101.541704,33.840043 C101.33374,33.845597 100.267673,33.9172126 100.267673,34.7742736 C100.267673,35.4028286 100.680658,35.5938561 101.393934,35.7109651 L102.388945,35.8950161 C102.90693,35.9982175 103.425594,36.1013059 103.857135,36.4104358 Z M74.2996346,18.6871703 L74.2996346,17.043535 C74.3005397,16.7942804 74.4901734,16.6269818 74.7178242,16.6272076 L82.0983738,16.6269818 C82.3339449,16.6269818 82.5240311,16.7983443 82.5240311,17.0417288 L82.5240311,18.4512364 C82.5217682,18.6871703 82.3219514,18.995668 81.968029,19.4855752 L78.1452596,24.9314041 C79.5636647,24.8978089 81.0653458,25.1097205 82.3543113,25.8327394 C82.6455505,25.9957031 82.7229428,26.2375297 82.7467035,26.4736217 L82.7467035,28.2274348 C82.7467035,28.4692614 82.481488,28.7487471 82.2031475,28.6031454 C79.931391,27.4156189 76.916488,27.2859794 74.4039557,28.6168951 C74.1475656,28.753511 73.8787294,28.4783375 73.8787294,28.2365109 L73.8787294,26.5700272 C73.8787294,26.3041331 73.8841604,25.8473696 74.1532229,25.4405472 L78.5829104,19.1012174 L74.7266497,19.1003369 C74.4906259,19.1003369 74.3018975,18.9327673 74.2996346,18.6871703 Z M47.377544,28.9490313 L45.131585,28.9490313 C44.9181906,28.9351011 44.7473393,28.774508 44.7303673,28.5697083 L44.7319514,17.071531 C44.7319514,16.8414672 44.9261109,16.6576871 45.1650764,16.6576871 L47.2562509,16.6565582 C47.4753027,16.66875 47.6504535,16.8335651 47.6653889,17.0426319 L47.6653889,18.5450004 L47.7070268,18.5450004 C48.251488,17.092528 49.2786324,16.4161088 50.6617359,16.4161088 C52.0658846,16.4161088 52.946391,17.092528 53.5752596,18.5450004 C54.1206259,17.092528 55.3568652,16.4161088 56.6784169,16.4161088 C57.6216065,16.4161088 58.6473932,16.802634 59.2762617,17.6732189 C59.9888587,18.6415639 59.8419945,20.0440048 59.8419945,21.2785375 L59.8406367,28.534781 C59.8406367,28.7641901 59.6467035,28.9490313 59.4079643,28.9490313 L57.1653997,28.9490313 C56.9395591,28.9351011 56.761919,28.7553623 56.761919,28.5358422 L56.761919,22.4397613 C56.761919,21.9561307 56.8033307,20.7458461 56.6987833,20.2865313 C56.5306475,19.5115844 56.0273716,19.295067 55.3785893,19.295067 C54.8329966,19.295067 54.2668113,19.6579989 54.0362186,20.2374255 C53.8058522,20.8190421 53.8271238,21.7868001 53.8271238,22.4397613 L53.8271238,28.534781 C53.8271238,28.7641901 53.6331906,28.9490313 53.3939988,28.9490313 L51.1509815,28.9490313 C50.9262725,28.9351011 50.7481798,28.7553623 50.7481798,28.5358422 L50.745238,22.4397613 C50.745238,21.1572742 50.9554643,19.2708189 49.3628134,19.2708189 C47.748891,19.2708189 47.8118005,21.1092069 47.8118005,22.4397613 L47.8104428,28.534781 C47.8113479,28.7641901 47.6171884,28.9490313 47.377544,28.9490313 Z M88.8783415,16.4161088 C92.2107337,16.4161088 94.0136109,19.2708189 94.0136109,22.8988052 C94.0136109,26.4079214 92.0215527,29.190587 88.8783415,29.190587 C85.6081798,29.190587 83.8261216,26.3350867 83.8261216,22.7784224 C83.8261216,19.1976229 85.6283199,16.4161088 88.8783415,16.4161088 L88.8783415,16.4161088 Z M88.8987078,18.7622176 C87.242016,18.7622176 87.1376949,21.0121918 87.1376949,22.416055 C87.1376949,23.8191055 87.1168759,26.8190786 88.8783415,26.8190786 C90.6183091,26.8190786 90.7018113,24.3995029 90.7018113,22.9237758 C90.7018113,21.9561307 90.6603997,20.7950649 90.3668975,19.8755548 C90.1145807,19.0767886 89.6119837,18.7622176 88.8987078,18.7622176 L88.8987078,18.7622176 Z M98.3358091,28.9490313 L96.0984492,28.9490313 C95.8730613,28.9351011 95.6954212,28.7553623 95.6954212,28.5358422 L95.6922531,17.032472 C95.7108091,16.8229537 95.8972747,16.6576871 96.1226626,16.6576871 L98.2061432,16.6565582 C98.4025656,16.6673954 98.5636863,16.8006021 98.6048716,16.9787378 L98.6048716,18.7381275 L98.6474147,18.7381275 C99.2753781,17.1652272 100.156337,16.4161088 101.706671,16.4161088 C102.712997,16.4161088 103.698729,16.7780247 104.327145,17.7703017 C104.913697,18.6893603 104.913697,20.2374255 104.913697,21.350582 L104.913697,28.5864607 C104.888579,28.7903799 104.706413,28.9490313 104.484645,28.9490313 L102.232576,28.9490313 C102.024839,28.93553 101.857835,28.7824326 101.832716,28.5864607 L101.832716,22.3430171 C101.832716,21.0849588 101.979807,19.2456902 100.428115,19.2456902 C99.8834277,19.2456902 99.381057,19.60948 99.1291928,20.1652681 C98.814419,20.8666804 98.7727811,21.5682508 98.7727811,22.3430171 L98.7727811,28.534781 C98.7689341,28.7641901 98.5747747,28.9490313 98.3358091,28.9490313 Z M70.6798501,28.919929 C70.5309492,29.052481 70.3177811,29.0613088 70.1498716,28.9720603 C69.4042359,28.3536425 69.2702703,28.066932 68.8627165,27.4787679 C67.6300979,28.7313625 66.7572854,29.1070732 65.1612402,29.1070732 C63.2701087,29.1070732 61.8001087,27.9430046 61.8001087,25.6152512 C61.8001087,23.7971603 62.7869729,22.560415 64.1942897,21.9538278 C65.4126518,21.4202559 67.1143759,21.3230827 68.4164665,21.1771198 L68.4164665,20.8865259 C68.4164665,20.353383 68.4583307,19.722638 68.1428781,19.2621717 C67.8706475,18.8499534 67.3454212,18.6806228 66.8826518,18.6806228 C66.0261324,18.6806228 65.2651087,19.1186923 65.077738,20.0261912 C65.0397208,20.2277172 64.8912725,20.4279111 64.687835,20.4376193 L62.5120268,20.2024079 C62.3278242,20.1611364 62.1239341,20.0145413 62.177113,19.7347169 C62.6772208,17.0999785 65.0614449,16.3038991 67.1983307,16.3038991 C68.2899686,16.3038991 69.7190096,16.5946961 70.5802811,17.4189973 C71.6721453,18.437848 71.566919,19.795563 71.566919,21.2748348 L71.566919,24.764986 C71.566919,25.8148355 72.0043436,26.2756404 72.4155182,26.8414754 C72.5578565,27.0455526 72.5899902,27.2873792 72.4071453,27.4370449 C71.9486755,27.8204318 71.133794,28.5259758 70.68596,28.9248735 L70.6798501,28.919929 L70.6798501,28.919929 Z M68.4164665,23.4570768 L68.4164665,23.4570768 L68.4164665,22.9724527 C66.7925872,22.9724527 65.0768328,23.319761 65.0768328,25.2273713 C65.0768328,26.1977709 65.5807876,26.8522448 66.441154,26.8522448 C67.0713803,26.8522448 67.6389234,26.4646359 67.9960139,25.8336199 C68.4372854,25.0583117 68.4164665,24.3301903 68.4164665,23.4570768 Z M41.2450009,28.919929 C41.0965527,29.052481 40.8818005,29.0613088 40.713891,28.9720603 C39.9682553,28.3536425 39.8347423,28.066932 39.4267359,27.4787679 C38.1947962,28.7313625 37.3215311,29.1070732 35.7245807,29.1070732 C33.8341281,29.1070732 32.3636755,27.9430046 32.3636755,25.6152512 C32.3636755,23.7971603 33.3514449,22.560415 34.7587617,21.9538278 C35.9773501,21.4202559 37.6788479,21.3230827 38.9809384,21.1771198 L38.9809384,20.8865259 C38.9809384,20.353383 39.0232553,19.722638 38.7078027,19.2621717 C38.4348932,18.8499534 37.9092143,18.6806228 37.4478027,18.6806228 C36.5912833,18.6806228 35.8293544,19.1186923 35.6426626,20.0261912 C35.6037402,20.2277172 35.4559708,20.4279111 35.2527596,20.4376193 L33.0760462,20.2024079 C32.8922962,20.1611364 32.6881798,20.0145413 32.7409061,19.7347169 C33.2410139,17.0999785 35.6254643,16.3038991 37.7621238,16.3038991 C38.8551195,16.3038991 40.283029,16.5946961 41.1445268,17.4189973 C42.2368436,18.437848 42.131391,19.795563 42.131391,21.2748348 L42.131391,24.764986 C42.131391,25.8148355 42.5690419,26.2756404 42.979085,26.8414754 C43.1221022,27.0455526 43.1544622,27.2873792 42.9720699,27.4370449 C42.5131475,27.8204318 41.6978134,28.5259758 41.2502057,28.9248735 L41.2450009,28.919929 L41.2450009,28.919929 Z M38.9809384,23.4570768 L38.9809384,23.4570768 L38.9809384,22.9724527 C37.3563803,22.9724527 35.6410785,23.319761 35.6410785,25.2273713 C35.6410785,26.1977709 36.144807,26.8522448 37.0069837,26.8522448 C37.6363048,26.8522448 38.2043005,26.4646359 38.5611647,25.8336199 C39.0015311,25.0583117 38.9809384,24.3301903 38.9809384,23.4570768 Z" id="Combined-Shape"></path>
        </g>
    </g>
</svg>