<?xml version="1.0" encoding="UTF-8"?>
<svg width="192px" height="64px" viewBox="0 0 192 64" version="1.1" xmlns="http://www.w3.org/2000/svg" xmlns:xlink="http://www.w3.org/1999/xlink">
    <!-- Generator: Sketch 52.5 (67469) - http://www.bohemiancoding.com/sketch -->

    <desc>Created with Sketch.</desc>
    <g id="Provider/AWS/aws-64" stroke="none" stroke-width="1" fill="none" fill-rule="evenodd">
        <g id="Group" transform="translate(48.000000, 3.000000)">
            <path d="M27.3355489,21.0645161 C27.3355489,22.2580645 27.4645937,23.2258065 27.6904219,23.9354839 C27.9485114,24.6451613 28.2711232,25.4193548 28.7227797,26.2580645 C28.8840856,26.516129 28.948608,26.7741935 28.948608,27 C28.948608,27.3225806 28.7550409,27.6451613 28.3356455,27.9677419 L26.3031912,29.3225806 C26.0128405,29.516129 25.7224899,29.6129032 25.4644005,29.6129032 C25.1417887,29.6129032 24.8191769,29.4516129 24.496565,29.1612903 C24.0449085,28.6774194 23.6577744,28.1612903 23.3351626,27.6451613 C23.0125507,27.0967742 22.6899389,26.483871 22.335066,25.7419355 C19.8186939,28.7096774 16.6570982,30.1935484 12.8502789,30.1935484 C10.1403397,30.1935484 7.97884065,29.4193548 6.39804281,27.8709677 C4.81724497,26.3225806 4.01071546,24.2580645 4.01071546,21.6774194 C4.01071546,18.9354839 4.97855087,16.7096774 6.94648288,15.0322581 C8.91441489,13.3548387 11.5275705,12.516129 14.8504721,12.516129 C15.9473522,12.516129 17.0764935,12.6129032 18.2701572,12.7741935 C19.4638209,12.9354839 20.6897458,13.1935484 21.980193,13.483871 L21.980193,11.1290323 C21.980193,8.67741935 21.4640141,6.96774194 20.4639175,5.96774194 C19.4315597,4.96774194 17.689456,4.48387097 15.2053451,4.48387097 C14.0762038,4.48387097 12.9148013,4.61290323 11.7211376,4.90322581 C10.5274739,5.19354839 9.36607141,5.5483871 8.2369301,6 C7.72075121,6.22580645 7.33361704,6.35483871 7.10778878,6.41935484 C6.88196052,6.48387097 6.72065462,6.51612903 6.59160989,6.51612903 C6.13995337,6.51612903 5.9141251,6.19354839 5.9141251,5.51612903 L5.9141251,3.93548387 C5.9141251,3.41935484 5.97864746,3.03225806 6.13995337,2.80645161 C6.30125927,2.58064516 6.59160989,2.35483871 7.04326642,2.12903226 C8.17240774,1.5483871 9.52737732,1.06451613 11.1081752,0.677419355 C12.688973,0.258064516 14.3665544,0.064516129 16.1409193,0.064516129 C19.9799998,0.064516129 22.7867225,0.935483871 24.5933486,2.67741935 C26.3677135,4.41935484 27.2710266,7.06451613 27.2710266,10.6129032 L27.2710266,21.0645161 L27.3355489,21.0645161 Z M14.2375097,25.9677419 C15.3021286,25.9677419 16.3990088,25.7741935 17.5604112,25.3870968 C18.7218137,25 19.7541715,24.2903226 20.6252234,23.3225806 C21.1414023,22.7096774 21.5285364,22.0322581 21.7221035,21.2580645 C21.9156706,20.483871 22.0447153,19.5483871 22.0447153,18.4516129 L22.0447153,17.0967742 C21.1091411,16.8709677 20.1090445,16.6774194 19.0766867,16.5483871 C18.044329,16.4193548 17.0442324,16.3548387 16.0441358,16.3548387 C13.8826367,16.3548387 12.3018388,16.7741935 11.2372199,17.6451613 C10.1726009,18.516129 9.65642204,19.7419355 9.65642204,21.3548387 C9.65642204,22.8709677 10.0435562,24 10.8500857,24.7741935 C11.624354,25.5806452 12.7534954,25.9677419 14.2375097,25.9677419 Z M40.1432376,29.4516129 C39.5625363,29.4516129 39.1754022,29.3548387 38.9173127,29.1290323 C38.6592233,28.9354839 38.433395,28.483871 38.2398279,27.8709677 L30.6584505,2.93548387 C30.4648834,2.29032258 30.3680999,1.87096774 30.3680999,1.64516129 C30.3680999,1.12903226 30.6261893,0.838709677 31.1423682,0.838709677 L34.3039639,0.838709677 C34.9169263,0.838709677 35.3363217,0.935483871 35.5621499,1.16129032 C35.8202394,1.35483871 36.0138065,1.80645161 36.2073736,2.41935484 L41.6272519,23.7741935 L46.659996,2.41935484 C46.8213019,1.77419355 47.014869,1.35483871 47.2729585,1.16129032 C47.5310479,0.967741935 47.9827044,0.838709677 48.5634057,0.838709677 L51.1443001,0.838709677 C51.7572625,0.838709677 52.1766579,0.935483871 52.4347473,1.16129032 C52.6928368,1.35483871 52.918665,1.80645161 53.0477098,2.41935484 L58.1449763,24.0322581 L63.7261605,2.41935484 C63.9197276,1.77419355 64.1455558,1.35483871 64.3713841,1.16129032 C64.6294735,0.967741935 65.0488689,0.838709677 65.6295701,0.838709677 L68.6298599,0.838709677 C69.1460388,0.838709677 69.4363894,1.09677419 69.4363894,1.64516129 C69.4363894,1.80645161 69.4041283,1.96774194 69.3718671,2.16129032 C69.3396059,2.35483871 69.2750835,2.61290323 69.1460388,2.96774194 L61.3710943,27.9032258 C61.1775272,28.5483871 60.951699,28.9677419 60.6936095,29.1612903 C60.4355201,29.3548387 60.0161247,29.483871 59.4676847,29.483871 L56.6932231,29.483871 C56.0802607,29.483871 55.6608654,29.3870968 55.4027759,29.1612903 C55.1446865,28.9354839 54.9188582,28.516129 54.7898135,27.8709677 L49.7893305,7.06451613 L44.8211087,27.8387097 C44.6598028,28.483871 44.4662358,28.9032258 44.2081463,29.1290323 C43.9500569,29.3548387 43.4984003,29.4516129 42.9176991,29.4516129 L40.1432376,29.4516129 Z M81.5988545,30.3225806 C79.9212731,30.3225806 78.2436917,30.1290323 76.6306327,29.7419355 C75.0175737,29.3548387 73.7593876,28.9354839 72.9205969,28.4516129 C72.404418,28.1612903 72.049545,27.8387097 71.9205003,27.5483871 C71.7914556,27.2580645 71.7269332,26.9354839 71.7269332,26.6451613 L71.7269332,25 C71.7269332,24.3225806 71.9850227,24 72.4689404,24 C72.6625075,24 72.8560746,24.0322581 73.0496416,24.0967742 C73.2432087,24.1612903 73.5335593,24.2903226 73.8561712,24.4193548 C74.9530513,24.9032258 76.146715,25.2903226 77.404901,25.5483871 C78.6953482,25.8064516 79.9535343,25.9354839 81.2439815,25.9354839 C83.2764358,25.9354839 84.8572337,25.5806452 85.9541138,24.8709677 C87.050994,24.1612903 87.6316952,23.1290323 87.6316952,21.8064516 C87.6316952,20.9032258 87.3413446,20.1612903 86.7606433,19.5483871 C86.1799421,18.9354839 85.083062,18.3870968 83.5022641,17.8709677 L78.8243929,16.4193548 C76.4693268,15.6774194 74.727223,14.5806452 73.6626041,13.1290323 C72.5979851,11.7096774 72.049545,10.1290323 72.049545,8.4516129 C72.049545,7.09677419 72.3398957,5.90322581 72.9205969,4.87096774 C73.5012982,3.83870968 74.2755665,2.93548387 75.2434019,2.22580645 C76.2112373,1.48387097 77.3081175,0.935483871 78.5985647,0.548387097 C79.8890119,0.161290323 81.2439815,-9.5567998e-13 82.6634734,-9.5567998e-13 C83.3732194,-9.5567998e-13 84.1152265,0.0322580645 84.8249725,0.129032258 C85.5669797,0.225806452 86.2444645,0.35483871 86.9219492,0.483870968 C87.5671728,0.64516129 88.1801353,0.806451613 88.7608365,1 C89.3415378,1.19354839 89.7931943,1.38709677 90.1158061,1.58064516 C90.5674626,1.83870968 90.8900744,2.09677419 91.0836415,2.38709677 C91.2772086,2.64516129 91.3739921,3 91.3739921,3.4516129 L91.3739921,4.96774194 C91.3739921,5.64516129 91.1159027,6 90.631985,6 C90.3738955,6 89.9545002,5.87096774 89.4060601,5.61290323 C87.5671728,4.77419355 85.5024573,4.35483871 83.2119135,4.35483871 C81.3730262,4.35483871 79.9212731,4.64516129 78.9211765,5.25806452 C77.9210799,5.87096774 77.404901,6.80645161 77.404901,8.12903226 C77.404901,9.03225806 77.7275128,9.80645161 78.3727364,10.4193548 C79.01796,11.0322581 80.2116237,11.6451613 81.9214663,12.1935484 L86.5025539,13.6451613 C88.8253589,14.3870968 90.5029403,15.4193548 91.5030369,16.7419355 C92.5031335,18.0645161 92.9870512,19.5806452 92.9870512,21.2580645 C92.9870512,22.6451613 92.6967005,23.9032258 92.1482605,25 C91.5675592,26.0967742 90.7932909,27.0645161 89.7931943,27.8387097 C88.7930977,28.6451613 87.599434,29.2258065 86.2122033,29.6451613 C84.7604501,30.0967742 83.2441747,30.3225806 81.5988545,30.3225806 Z" id="Shape" fill="#232F3E" fill-rule="nonzero"></path>
            <path d="M87.6962176,46 C77.0822892,53.8387097 61.6614449,58 48.4020998,58 C29.8196598,58 13.0761072,51.1290323 0.429724425,39.7096774 C-0.570372169,38.8064516 0.332940884,37.5806452 1.52660456,38.2903226 C15.2053451,46.2258065 32.0779425,51.0322581 49.5312411,51.0322581 C61.306572,51.0322581 74.2433053,48.5806452 86.1476809,43.5483871 C87.9220458,42.7419355 89.4383213,44.7096774 87.6962176,46 Z M92.1159993,40.9677419 C90.7610297,39.2258065 83.1473911,40.1290323 79.6954448,40.5483871 C78.663087,40.6774194 78.5017811,39.7741935 79.4373554,39.0967742 C85.5024573,34.8387097 95.4711621,36.0645161 96.6325646,37.483871 C97.7939671,38.9354839 96.3099528,48.9032258 90.631985,53.6774194 C89.7609331,54.4193548 88.9221424,54.0322581 89.3092766,53.0645161 C90.5997238,49.8709677 93.4709689,42.6774194 92.1159993,40.9677419 Z" id="Combined-Shape" fill="#FF9900"></path>
        </g>
    </g>
</svg>
