<?xml version="1.0" encoding="UTF-8"?>
<svg width="112px" height="43px" viewBox="0 0 112 43" version="1.1" xmlns="http://www.w3.org/2000/svg" xmlns:xlink="http://www.w3.org/1999/xlink">
    <!-- Generator: Sketch 47.1 (45422) - http://www.bohemiancoding.com/sketch -->
    <title>Provider-AWS-3 Copy 2</title>
    <desc>Created with Sketch.</desc>
    <defs></defs>
    <g id="Coriolis" stroke="none" stroke-width="1" fill="none" fill-rule="evenodd">
        <g id="Endpoints-List" transform="translate(-672.000000, -331.000000)" fill="#616870">
            <g id="Item-Connection-Copy-2" transform="translate(352.000000, 320.000000)">
                <g id="Provider/AWS/32" transform="translate(320.000000, 10.000000)">
                    <path d="M31.1299655,15.9202982 L24.6206897,13.7431909 L24.6206897,4.30905963 L31.137931,6.24426606 L31.1299655,15.9202982 Z M32.8275862,6.24426606 L39.3448276,4.30905963 L39.3221379,13.7366596 L32.8275862,15.9202982 L32.8275862,6.24426606 Z M38.0172414,3.28751254 L31.9518621,4.90026519 L25.9482759,3.28751254 L31.9431724,1.40625 L38.0172414,3.28751254 Z M47.5437586,15.9202982 L41.0344828,13.7431909 L41.0344828,4.30905963 L47.5517241,6.24426606 L47.5437586,15.9202982 Z M49.2413793,6.24426606 L55.7586207,4.30905963 L55.735931,13.7366596 L49.2413793,15.9202982 L49.2413793,6.24426606 Z M54.4310345,3.28751254 L48.3656552,4.90026519 L42.362069,3.28751254 L48.3569655,1.40625 L54.4310345,3.28751254 Z M6.51724138,20.0326118 L6.50932414,29.7086439 L0,27.5315367 L0,18.0974054 L6.51724138,20.0326118 Z M8.20689655,20.0326118 L14.7241379,18.0974054 L14.7015207,27.5251989 L8.20689655,29.7086439 L8.20689655,20.0326118 Z M13.3965517,17.0758583 L7.33124483,18.688611 L1.32758621,17.0758583 L7.32245862,15.1945958 L13.3965517,17.0758583 Z M22.9231172,29.7086439 L16.4137931,27.5315367 L16.4137931,18.0974054 L22.9310345,20.0326118 L22.9231172,29.7086439 Z M24.6206897,20.0326118 L31.137931,18.0974054 L31.1152414,27.5251989 L24.6206897,29.7086439 L24.6206897,20.0326118 Z M29.8103448,17.0758583 L23.7450379,18.688611 L17.7413793,17.0758583 L23.7362517,15.1945958 L29.8103448,17.0758583 Z M14.7162207,43.4969897 L8.20689655,41.3198825 L8.20689655,31.8857511 L14.7241379,33.8209576 L14.7162207,43.4969897 Z M16.4137931,33.8209576 L22.9310345,31.8857511 L22.9084172,41.3135519 L16.4137931,43.4969897 L16.4137931,33.8209576 Z M21.6034483,30.8642041 L15.5381414,32.4769809 L9.53448276,30.8642041 L15.5293552,28.9829415 L21.6034483,30.8642041 Z" id="Combined-Shape"></path>
                    <path d="M43.4503573,35.0979519 C43.5959091,35.0979519 43.7310815,35.1603139 43.8032539,35.2607511 C43.8522539,35.3289914 43.8662539,35.4099556 43.842116,35.4828161 L41.7882194,43.0477944 C41.7418746,43.2391423 41.5840125,43.369731 41.3964608,43.369731 L40.7222884,43.369731 C40.5200125,43.369731 40.3817022,43.2030461 40.3387366,43.0484572 L38.9095297,37.9998181 L37.5961849,43.0426927 C37.5493573,43.2345121 37.3871504,43.369731 37.2020125,43.369731 L36.5167366,43.369731 C36.3154263,43.369731 36.1778401,43.2093771 36.1307711,43.0501578 L33.996978,35.4796956 C33.974047,35.4114795 33.9878056,35.3330553 34.0375297,35.2638717 C34.1109091,35.1618379 34.2477711,35.0984357 34.3950125,35.0984357 L35.0841504,35.0996452 C35.2642194,35.0996452 35.4937711,35.224466 35.5483228,35.4102458 L36.9294953,40.4911061 L38.2662539,35.4259452 C38.3075297,35.2643555 38.4564608,35.0996452 38.6606677,35.0996452 L39.2276677,35.0996452 C39.4328401,35.0996452 39.5837022,35.2621784 39.6269091,35.4226312 L41.0638401,40.5410102 L42.5167022,35.4114795 C42.5717366,35.218612 42.7957366,35.0996452 42.9714608,35.0996452 L43.4503573,35.0979519 Z M47.6134263,35.0438145 L47.6134263,35.0438145 C50.0824953,35.0438145 50.9748746,37.134539 50.9869435,39.0914923 C50.9876677,39.1704003 50.9533918,39.2491874 50.8903918,39.3125896 C50.8150815,39.3890544 50.7083918,39.4345076 50.6053228,39.4345076 L45.6905987,39.4362009 C45.6947022,39.9647783 45.7313918,40.484599 45.9795297,41.0119427 C46.2848746,41.6575276 46.9513228,42.0896398 47.6771504,42.1121294 C48.4314608,42.0898309 49.0324953,41.6621576 49.3622194,40.908385 C49.4312539,40.7514398 49.640047,40.6432375 49.8222884,40.6718786 L50.501047,40.801997 C50.6164263,40.8274208 50.7139435,40.8965802 50.7653573,40.9882365 C50.8075987,41.0637361 50.816047,41.1479297 50.7890125,41.2255073 C50.284047,42.5821354 49.115047,43.3585808 47.5815642,43.3585808 C45.4388401,43.3585808 44.0542884,41.7354825 44.0542884,39.223304 C44.0542884,37.2104232 45.1680125,35.0438145 47.6134263,35.0438145 Z M49.3757366,38.3121121 C49.3494263,37.2680682 48.8053573,36.236579 47.6160815,36.1976571 C46.4984953,36.2382965 45.8388056,37.2939516 45.7555297,38.3121121 L49.3757366,38.3121121 Z M55.5661504,34.9735907 L55.5661504,34.9735907 C56.486047,34.9735907 57.3805987,35.4772524 57.9002884,36.2878861 C58.349978,36.9874149 58.6080125,37.9900937 58.6080125,39.0387579 C58.6080125,41.145472 57.6318746,43.2712699 55.4510125,43.2712699 L55.3242884,43.2712699 C54.4963573,43.2712699 53.7227366,42.8418957 53.2090815,42.1109029 L52.987978,42.8141158 C52.9409091,42.9611455 52.8013918,43.1194212 52.6053918,43.1194212 L52.3978056,43.1205533 C52.1940815,43.1205533 52.0094263,42.9561382 52.0087022,42.7751843 L52.0087022,32.8127392 C52.0091849,32.6167754 52.2158056,32.4702077 52.4004608,32.4702077 L53.1072194,32.4702077 C53.3111849,32.4702077 53.4958401,32.6334907 53.4958401,32.8127392 L53.4965642,36.0041365 C53.9863228,35.3115019 54.6242884,34.9735907 55.436047,34.9735907 L55.5661504,34.9735907 Z M57.0332539,39.235399 C57.0332539,38.7351482 56.9497366,36.2375224 55.3035297,36.1724269 C54.2559435,36.2167431 53.5233573,37.3614177 53.4965642,38.4045182 L53.4965642,39.7661536 C53.5308401,40.3856616 53.6643228,40.886372 53.8929091,41.2485628 C54.2033228,41.7274514 54.758978,42.0513711 55.3088401,42.0724431 C56.9494953,42.0131968 57.0332539,39.698881 57.0332539,39.235399 Z M66.3468746,39.0111812 C66.9343918,39.4310968 67.2715987,40.1026618 67.2715987,40.8537638 C67.2715987,42.6989275 65.6338401,43.3566911 64.1010815,43.3566911 L64.0629435,43.3564076 C62.3467366,43.3433674 61.1087022,42.5683398 60.7512194,41.2831474 C60.7297366,41.2050013 60.7430125,41.1193926 60.7895987,41.0429472 C60.845116,40.9512014 60.9404608,40.8832515 61.0447366,40.8612385 L61.7374953,40.7179849 C61.925047,40.6788695 62.1389091,40.7993361 62.184047,40.9696101 C62.4090125,41.7441765 63.3354263,42.1099571 64.1537022,42.1276279 C64.5184263,42.1200685 65.7248401,42.0141426 65.7248401,40.975198 C65.7248401,40.2733954 65.0579091,40.0508708 64.4057022,39.9257597 L63.2176332,39.698881 C61.7365297,39.396505 60.9863228,38.6366946 60.9863228,37.440229 C60.9863228,35.6896655 62.4893918,35.0629005 63.8959091,35.05978 C65.4525642,35.05978 66.4815642,35.6850452 66.8868401,36.868182 C66.9126677,36.9429293 66.9032539,37.026627 66.860047,37.1032612 C66.805978,37.1998522 66.7050815,37.2741157 66.5969435,37.2980155 L65.9345987,37.44468 C65.9094953,37.4501469 65.8829435,37.4530739 65.8568746,37.4530739 C65.7045642,37.4530739 65.558047,37.3580311 65.4919091,37.216761 C65.2135987,36.6173067 64.6403228,36.2764684 63.878047,36.2571889 C63.2538401,36.2740978 62.5176332,36.5462362 62.5176332,37.2581503 C62.5176332,37.9316021 62.9583918,38.1362744 63.7199435,38.2617483 L64.7812884,38.4589459 C65.3347711,38.5697122 65.8872884,38.6802609 66.3468746,39.0111812 Z M71.5905987,35.0508054 L71.5905987,35.0508054 C74.0601504,35.0508054 74.9518056,37.1417234 74.9631504,39.0984832 C74.9638746,39.1778508 74.9295987,39.2566621 74.8663573,39.3203546 C74.791047,39.3963115 74.6850815,39.4414985 74.5827366,39.4414985 L69.6684953,39.442708 C69.672116,39.9725434 69.709047,40.4928236 69.9576677,41.0189458 C70.2618056,41.6643298 70.9280125,42.0963502 71.6545642,42.1195944 C72.4081504,42.0963502 73.0094263,41.6686768 73.3393918,40.9153759 C73.4175987,40.735184 73.6394263,40.6526959 73.7984953,40.6785792 L74.4782194,40.8086977 C74.5933573,40.8336377 74.691116,40.9028213 74.7425297,40.9945743 C74.7850125,41.0702553 74.7934608,41.1546376 74.7666677,41.2323095 C74.2612194,42.588657 73.0922194,43.3651953 71.5584953,43.3651953 C69.4155297,43.3651953 68.0307366,41.7422872 68.0307366,39.2302949 C68.0307366,37.2175109 69.1447022,35.0508054 71.5905987,35.0508054 Z M73.3536332,38.3195868 C73.326116,37.2747689 72.7813228,36.2434006 71.5925297,36.2055915 C70.4749435,36.244344 69.8152539,37.3004829 69.7324608,38.3195868 L73.3536332,38.3195868 Z M79.6039091,35.1429213 C79.801116,35.1644746 79.9558401,35.3214199 79.9558401,35.5002088 L79.9558401,36.183385 C79.9558401,36.3756719 79.7854263,36.5454863 79.5913573,36.5468893 C78.8170125,36.5529369 78.2396332,36.9311004 77.8261504,37.7019657 C77.5367366,38.2431461 77.4802539,38.7005806 77.4802539,39.3077758 L77.4797711,42.9899656 C77.4780815,43.1873615 77.2683228,43.3339183 77.081978,43.3339183 L76.3658056,43.3342018 C76.163047,43.3342018 75.9853918,43.1732804 75.9853918,42.9899656 L75.9863573,35.6862547 C75.9878056,35.5019021 76.1654608,35.3412799 76.3667711,35.3412799 L76.9805987,35.3412799 C77.1864953,35.3412799 77.3677711,35.5012489 77.3684953,35.6833277 L77.3668056,36.4352037 C77.8317022,35.5766494 78.5015297,35.1272461 79.3263228,35.1272461 C79.4158746,35.1272461 79.5080815,35.1323502 79.6039091,35.1429213 Z M87.123116,34.9994983 C87.2713228,34.9994983 87.4144608,35.0664806 87.4883228,35.1697723 C87.5373228,35.2384721 87.5505987,35.3164125 87.5257366,35.3887167 L85.0404953,43.0028154 C84.9731504,43.2079598 84.8261504,43.3303275 84.6468056,43.3303275 L83.6694608,43.3303275 C83.4628401,43.3303275 83.3322539,43.1541945 83.2830125,43.0034782 L80.7207711,35.3862493 C80.6963918,35.3137758 80.7099091,35.2361015 80.7591504,35.1675951 C80.8325297,35.0652469 80.9759091,34.9990145 81.124116,34.9990145 L81.9317711,34.9997644 C82.1099091,34.9997644 82.3375297,35.1284798 82.3928056,35.3200168 L84.2649435,41.0885866 L86.0982194,35.3142354 C86.1532539,35.1272461 86.3803918,34.9997644 86.5575642,34.9997644 L87.123116,34.9994983 Z M88.9812539,32.0715552 C89.5023918,32.0715552 89.9264953,32.497228 89.9264953,33.0210158 C89.9264953,33.5446827 89.5023918,33.9701862 88.9812539,33.9701862 C88.4603573,33.9701862 88.0367366,33.5446827 88.0367366,33.0210158 C88.0367366,32.497228 88.4603573,32.0715552 88.9812539,32.0715552 Z M89.370116,34.9531017 C89.5859091,34.9531017 89.7756332,35.1202552 89.7756332,35.3108488 L89.7756332,43.0664111 C89.7756332,43.2541665 89.5875987,43.4205679 89.3734953,43.4224578 L89.3730125,43.4224578 L88.5919091,43.4212294 C88.4936677,43.4212294 88.3959091,43.3849441 88.3193918,43.3221068 C88.2358746,43.2529381 88.1875987,43.1597679 88.1875987,43.065937 L88.1914608,35.3108488 C88.1914608,35.1233757 88.3835987,34.9523276 88.5945642,34.9523276 L89.370116,34.9531017 Z M96.6180125,40.2119768 C96.748116,40.2183146 96.8666332,40.2732019 96.940978,40.3588106 C96.9984263,40.4248737 97.0264263,40.5061282 97.0191849,40.5874068 C96.6954953,42.2930832 95.565116,43.3450685 94.0675987,43.3450685 L93.9536677,43.3450685 C91.5755987,43.3450685 90.7324608,41.1285583 90.7324608,39.2302949 C90.7324608,37.159866 91.7324953,35.0706413 93.9662194,35.0706413 L94.0263228,35.0720685 L94.0794263,35.0706413 C95.6153228,35.0706413 96.7645297,36.1449228 97.0097711,37.8069506 C97.0112194,38.001705 96.8487711,38.158747 96.6416677,38.1812437 L95.9486677,38.1744463 C95.7521849,38.1497724 95.6083228,38.0077525 95.575978,37.8200858 C95.4045987,36.9004032 94.8332539,36.3360002 94.0478056,36.3118101 C92.7465297,36.3502724 92.2804263,37.8058137 92.2804263,39.1546042 C92.2804263,39.830983 92.4032884,42.0414508 93.9857711,42.0886021 C94.7982539,42.0651667 95.334116,41.5351597 95.5706677,40.5123692 C95.6380125,40.3232995 95.7895987,40.2144442 95.9703918,40.2144442 L96.6180125,40.2119768 Z M101.251047,35.0508054 L101.251047,35.0508054 C103.72084,35.0508054 104.612737,37.1417234 104.624081,39.0984832 C104.625288,39.1766172 104.591495,39.2555252 104.528737,39.3196047 C104.453185,39.3963115 104.346495,39.4419581 104.243185,39.4419581 L99.3284608,39.442708 C99.3323228,39.9717693 99.3692539,40.4920495 99.618116,41.0189458 C99.9222539,41.6643298 100.588219,42.0963502 101.31453,42.1198774 C102.067875,42.0963502 102.669392,41.6686768 103.000323,40.9153759 C103.07853,40.735184 103.299633,40.6526959 103.459426,40.6785792 L104.138185,40.8086977 C104.255254,40.8345811 104.350116,40.902144 104.402254,40.9945743 C104.444495,41.0697836 104.453185,41.1544489 104.426875,41.232595 C103.920944,42.5891287 102.752426,43.3651953 101.219426,43.3651953 C99.0764608,43.3651953 97.6916677,41.7422872 97.6916677,39.2302949 C97.6916677,37.2175109 98.8053918,35.0508054 101.251047,35.0508054 Z M103.014081,38.3195868 C102.987047,37.2747689 102.442495,36.2434006 101.253461,36.2055915 C100.13515,36.244344 99.4752194,37.3001926 99.3924263,38.3195868 L103.014081,38.3195868 Z M110.780944,39.0111812 C111.368219,39.4304437 111.705185,40.102178 111.705185,40.8537638 C111.705185,42.6989275 110.067185,43.3566911 108.534185,43.3566911 L108.496047,43.3564076 C106.779599,43.3433674 105.541806,42.5683398 105.185288,41.2831474 C105.163564,41.2054755 105.17684,41.1205247 105.222944,41.043893 C105.278461,40.9519513 105.374047,40.8835418 105.478806,40.8612385 L106.170357,40.7179849 C106.361288,40.679063 106.574909,40.7993361 106.61884,40.9705777 C106.85853,41.7973753 107.829599,42.1113746 108.588254,42.1276279 C108.952978,42.1200685 110.159392,42.0141426 110.159392,40.975198 C110.159392,40.2733954 109.492461,40.0508708 108.840254,39.9257597 L107.651702,39.698881 C106.17084,39.3967953 105.420875,38.6369848 105.420875,37.440229 C105.420875,35.6896655 106.923461,35.0629005 108.329495,35.05978 C109.886875,35.05978 110.916116,35.6850452 111.320909,36.868182 C111.346737,36.9429293 111.337323,37.0263609 111.294357,37.1030919 C111.240288,37.1995619 111.139633,37.2741157 111.031495,37.2980155 L110.369633,37.44468 C110.344047,37.4501469 110.317737,37.4530739 110.291426,37.4530739 C110.138875,37.4530739 109.991875,37.3582972 109.925254,37.2170513 C109.647426,36.6173067 109.07415,36.2764684 108.31115,36.2571889 C108.089323,36.2631397 106.952185,36.3398706 106.952185,37.2581503 C106.952185,37.9316021 107.392702,38.1362744 108.15353,38.2617483 L109.214875,38.4589459 C109.767392,38.5695187 110.320633,38.6799706 110.780944,39.0111812 Z M79.2529435,20.0219682 L79.2529435,18.2609303 C79.2539091,17.9938718 79.4561849,17.8146234 79.6990125,17.8148653 L87.5715987,17.8146234 C87.8228746,17.8146234 88.0256332,17.9982261 88.0256332,18.2589951 L88.0256332,19.7691818 C88.0232194,20.0219682 87.8100815,20.3525014 87.4325642,20.877402 L83.3549435,26.7122187 C84.8679091,26.6762238 86.4697022,26.9032719 87.8445987,27.6779351 C88.1552539,27.8525391 88.2378056,28.111639 88.2631504,28.3645947 L88.2631504,30.2436801 C88.2631504,30.5027801 87.9802539,30.8022291 87.6833573,30.6462272 C85.2601504,29.3738774 82.0442539,29.234978 79.3642194,30.660959 C79.0907366,30.8073332 78.803978,30.5125045 78.803978,30.2534045 L78.803978,28.4678863 C78.803978,28.1829997 78.8097711,27.6936102 79.0967711,27.2577292 L83.8217711,20.4655901 L79.7084263,20.4646466 C79.4566677,20.4646466 79.2553573,20.2851079 79.2529435,20.0219682 Z M50.536047,31.0168193 L48.1403573,31.0168193 C47.9127366,31.001894 47.7304953,30.82983 47.7123918,30.6104017 L47.7140815,18.290926 C47.7140815,18.0444291 47.9211849,17.8475219 48.1760815,17.8475219 L50.4066677,17.8463124 C50.6403228,17.859375 50.8271504,18.0359626 50.8430815,18.2599627 L50.8430815,19.8696432 L50.8874953,19.8696432 C51.4682539,18.3134228 52.5638746,17.588688 54.0391849,17.588688 C55.5369435,17.588688 56.4761504,18.3134228 57.1469435,19.8696432 C57.7286677,18.3134228 59.0473228,17.588688 60.456978,17.588688 C61.463047,17.588688 62.5572194,18.0028222 63.2280125,18.9355917 C63.988116,19.9731042 63.8314608,21.4757194 63.8314608,22.798433 L63.8300125,30.5729797 C63.8300125,30.8187751 63.6231504,31.0168193 63.3684953,31.0168193 L60.9764263,31.0168193 C60.7355297,31.001894 60.546047,30.8093168 60.546047,30.5741166 L60.546047,24.0426014 C60.546047,23.5244257 60.5902194,22.2276923 60.4787022,21.7355693 C60.2993573,20.905269 59.7625297,20.6732861 59.0704953,20.6732861 C58.4885297,20.6732861 57.8845987,21.0621416 57.6386332,21.6829558 C57.3929091,22.3061165 57.4155987,23.3430001 57.4155987,24.0426014 L57.4155987,30.5729797 C57.4155987,30.8187751 57.2087366,31.0168193 56.9535987,31.0168193 L54.561047,31.0168193 C54.3213573,31.001894 54.1313918,30.8093168 54.1313918,30.5741166 L54.1282539,24.0426014 C54.1282539,22.6685081 54.3524953,20.6473059 52.6536677,20.6473059 C50.9321504,20.6473059 50.9992539,22.6170074 50.9992539,24.0426014 L50.9978056,30.5729797 C50.9987711,30.8187751 50.7916677,31.0168193 50.536047,31.0168193 Z M94.8035642,17.588688 C98.358116,17.588688 100.281185,20.6473059 100.281185,24.5344341 C100.281185,28.2942015 98.1563228,31.2756289 94.8035642,31.2756289 C91.3153918,31.2756289 89.4145297,28.2161643 89.4145297,24.4054526 C89.4145297,20.5688817 91.3368746,17.588688 94.8035642,17.588688 L94.8035642,17.588688 Z M94.8252884,20.102376 C93.0581504,20.102376 92.9468746,22.5130626 92.9468746,24.0172018 C92.9468746,25.5204702 92.9246677,28.7347271 94.8035642,28.7347271 C96.6595297,28.7347271 96.7485987,26.1423246 96.7485987,24.5611884 C96.7485987,23.5244257 96.7044263,22.2804266 96.3913573,21.2952372 C96.1222194,20.4394164 95.586116,20.102376 94.8252884,20.102376 L94.8252884,20.102376 Z M104.89153,31.0168193 L102.505013,31.0168193 C102.264599,31.001894 102.075116,30.8093168 102.075116,30.5741166 L102.071737,18.2490772 C102.09153,18.0245932 102.290426,17.8475219 102.53084,17.8475219 L104.753219,17.8463124 C104.962737,17.8579236 105.134599,18.0006451 105.17853,18.1915048 L105.17853,20.0765652 L105.223909,20.0765652 C105.893737,18.3913149 106.833426,17.588688 108.487116,17.588688 C109.56053,17.588688 110.611978,17.976455 111.282288,19.039609 C111.907944,20.0243146 111.907944,21.6829558 111.907944,22.8756236 L111.907944,30.6283508 C111.88115,30.8468356 111.68684,31.0168193 111.450288,31.0168193 L109.048081,31.0168193 C108.826495,31.0023536 108.648357,30.8383207 108.621564,30.6283508 L108.621564,23.9389469 C108.621564,22.5910273 108.778461,20.6203824 107.123323,20.6203824 C106.542323,20.6203824 106.006461,21.0101571 105.737806,21.6056444 C105.402047,22.3571576 105.357633,23.1088401 105.357633,23.9389469 L105.357633,30.5729797 C105.35353,30.8187751 105.146426,31.0168193 104.89153,31.0168193 Z M75.3918401,30.9856383 C75.2330125,31.1276582 75.0056332,31.1371165 74.8265297,31.0414932 C74.0311849,30.3789027 73.8882884,30.0717128 73.4535642,29.4415371 C72.1387711,30.7836027 71.2077711,31.1861498 69.5053228,31.1861498 C67.488116,31.1861498 65.920116,29.9389335 65.920116,27.444912 C65.920116,25.4969574 66.9727711,24.1718732 68.4739091,23.5219583 C69.7734953,22.9502742 71.5886677,22.84616 72.9775642,22.6897712 L72.9775642,22.3784207 C72.9775642,21.8071961 73.0222194,21.1313978 72.6857366,20.6380411 C72.3953573,20.1963787 71.835116,20.0149531 71.3414953,20.0149531 C70.4278746,20.0149531 69.616116,20.4843132 69.4162539,21.4566335 C69.3757022,21.6725541 69.2173573,21.8870476 69.0003573,21.8974493 L66.6794953,21.645437 C66.4830125,21.6012176 66.2655297,21.4441514 66.3222539,21.1443395 C66.8557022,18.3214055 69.3988746,17.4684633 71.6782194,17.4684633 C72.8426332,17.4684633 74.3669435,17.7800315 75.2856332,18.6632114 C76.4502884,19.7548371 76.338047,21.2095318 76.338047,22.7944658 L76.338047,26.5339136 C76.338047,27.6587523 76.8046332,28.1524719 77.2432194,28.7587237 C77.395047,28.9773778 77.4293228,29.2364777 77.2342884,29.3968338 C76.7452539,29.8076055 75.876047,30.5635455 75.3983573,30.9909359 L75.3918401,30.9856383 L75.3918401,30.9856383 Z M72.9775642,25.1325822 L72.9775642,25.1325822 L72.9775642,24.6133422 C71.2454263,24.6133422 69.4152884,24.9854582 69.4152884,27.0293264 C69.4152884,28.0690403 69.9528401,28.7702623 70.8705642,28.7702623 C71.5428056,28.7702623 72.1481849,28.354967 72.5290815,27.6788785 C72.9997711,26.8481911 72.9775642,26.068061 72.9775642,25.1325822 Z M43.9946677,30.9856383 C43.8363228,31.1276582 43.6072539,31.1371165 43.4281504,31.0414932 C42.6328056,30.3789027 42.4903918,30.0717128 42.0551849,29.4415371 C40.741116,30.7836027 39.8096332,31.1861498 38.1062194,31.1861498 C36.0897366,31.1861498 34.5212539,29.9389335 34.5212539,27.444912 C34.5212539,25.4969574 35.5748746,24.1718732 37.0760125,23.5219583 C38.3758401,22.9502742 40.1907711,22.84616 41.5796677,22.6897712 L41.5796677,22.3784207 C41.5796677,21.8071961 41.6248056,21.1313978 41.2883228,20.6380411 C40.9972194,20.1963787 40.4364953,20.0149531 39.9443228,20.0149531 C39.0307022,20.0149531 38.217978,20.4843132 38.0188401,21.4566335 C37.9773228,21.6725541 37.8197022,21.8870476 37.6029435,21.8974493 L35.281116,21.645437 C35.085116,21.6012176 34.8673918,21.4441514 34.9236332,21.1443395 C35.4570815,18.3214055 38.0004953,17.4684633 40.2795987,17.4684633 C41.4454608,17.4684633 42.9685642,17.7800315 43.8874953,18.6632114 C45.0526332,19.7548371 44.9401504,21.2095318 44.9401504,22.7944658 L44.9401504,26.5339136 C44.9401504,27.6587523 45.406978,28.1524719 45.8443573,28.7587237 C45.9969091,28.9773778 46.0314263,29.2364777 45.8368746,29.3968338 C45.3473573,29.8076055 44.4776677,30.5635455 44.0002194,30.9909359 L43.9946677,30.9856383 L43.9946677,30.9856383 Z M41.5796677,25.1325822 L41.5796677,25.1325822 L41.5796677,24.6133422 C39.8468056,24.6133422 38.0171504,24.9854582 38.0171504,27.0293264 C38.0171504,28.0690403 38.5544608,28.7702623 39.474116,28.7702623 C40.1453918,28.7702623 40.7512539,28.354967 41.1319091,27.6788785 C41.6016332,26.8481911 41.5796677,26.068061 41.5796677,25.1325822 Z" id="Combined-Shape"></path>
                </g>
            </g>
        </g>
    </g>
</svg>