<?xml version="1.0" encoding="UTF-8"?>
<svg width="80px" height="32px" viewBox="0 0 80 32" version="1.1" xmlns="http://www.w3.org/2000/svg" xmlns:xlink="http://www.w3.org/1999/xlink">
    <!-- Generator: Sketch 52.5 (67469) - http://www.bohemiancoding.com/sketch -->

    <desc>Created with Sketch.</desc>
    <g id="Provider/AWS/aws-32" stroke="none" stroke-width="1" fill="none" fill-rule="evenodd">
        <g id="Combined-Shape-Copy-2" transform="translate(19.000000, 3.000000)" fill="#616870" fill-rule="nonzero">
            <path d="M12.6814402,9.80589544 C12.6814402,10.3615128 12.7413063,10.8120133 12.846072,11.1423804 C12.9658042,11.4727475 13.1154695,11.8331479 13.3250009,12.2235818 C13.3998335,12.3437152 13.4297666,12.4638487 13.4297666,12.5689655 C13.4297666,12.7191324 13.3399674,12.8692992 13.1454026,13.0194661 L12.2025114,13.6501669 C12.0678126,13.740267 11.9331139,13.785317 11.8133817,13.785317 C11.6637164,13.785317 11.5140511,13.7102336 11.3643858,13.5750834 C11.1548545,13.3498331 10.9752561,13.1095662 10.8255909,12.8692992 C10.6759256,12.6140156 10.5262603,12.3286986 10.3616285,11.9833148 C9.19423943,13.3648498 7.72751978,14.0556174 5.96146959,14.0556174 C4.70428132,14.0556174 3.70152401,13.6952169 2.96816419,12.974416 C2.23480437,12.2536151 1.86064119,11.2925473 1.86064119,10.0912125 C1.86064119,8.81479422 2.309637,7.77864294 3.22259515,6.99777531 C4.1355533,6.21690768 5.34784199,5.82647386 6.88939427,5.82647386 C7.39825619,5.82647386 7.92208463,5.87152392 8.47584613,5.94660734 C9.02960763,6.02169077 9.59833566,6.14182425 10.1969967,6.27697442 L10.1969967,5.1807564 C10.1969967,4.03948832 9.95753231,3.243604 9.49356997,2.77808676 C9.01464111,2.31256952 8.20644865,2.08731924 7.05402607,2.08731924 C6.53019762,2.08731924 5.99140265,2.14738598 5.43764115,2.28253615 C4.88387965,2.41768632 4.34508468,2.58286986 3.82125623,2.79310345 C3.5817918,2.89822024 3.40219347,2.95828699 3.29742778,2.98832036 C3.1926621,3.01835373 3.11782946,3.03337041 3.05796335,3.03337041 C2.84843197,3.03337041 2.74366629,2.88320356 2.74366629,2.56785317 L2.74366629,1.8320356 C2.74366629,1.59176863 2.77359934,1.41156841 2.84843197,1.30645161 C2.92326461,1.20133482 3.05796335,1.09621802 3.26749473,0.991101224 C3.79132318,0.72080089 4.41991731,0.495550612 5.15327713,0.315350389 C5.88663696,0.120133482 6.66489636,0.0300333704 7.48805535,0.0300333704 C9.26907206,0.0300333704 10.5711599,0.435483871 11.4092854,1.24638487 C12.2324444,2.05728587 12.6515072,3.28865406 12.6515072,4.94048943 L12.6515072,9.80589544 L12.6814402,9.80589544 Z M6.60503026,12.0884316 C7.09892565,12.0884316 7.60778757,11.9983315 8.14658254,11.8181313 C8.68537751,11.637931 9.16430638,11.307564 9.56840261,10.8570634 C9.80786704,10.5717464 9.98746536,10.256396 10.0772645,9.89599555 C10.1670637,9.53559511 10.2269298,9.10011123 10.2269298,8.58954394 L10.2269298,7.95884316 C9.79290051,7.85372636 9.32893817,7.76362625 8.85000931,7.70355951 C8.37108044,7.64349277 7.90711811,7.6134594 7.44315577,7.6134594 C6.44039846,7.6134594 5.70703863,7.80867631 5.21314324,8.21412681 C4.71924785,8.61957731 4.47978342,9.19021135 4.47978342,9.94104561 C4.47978342,10.6468298 4.65938174,11.1724138 5.03354492,11.5328142 C5.39274157,11.9082314 5.91657001,12.0884316 6.60503026,12.0884316 Z M18.6231515,13.7102336 C18.353754,13.7102336 18.1741556,13.6651835 18.0544234,13.5600667 C17.9346912,13.4699666 17.8299255,13.259733 17.7401264,12.974416 L14.2229925,1.36651835 C14.1331933,1.06618465 14.0882938,0.870967742 14.0882938,0.765850945 C14.0882938,0.525583982 14.208026,0.390433815 14.4474904,0.390433815 L15.9142101,0.390433815 C16.1985741,0.390433815 16.3931389,0.435483871 16.4979046,0.540600667 C16.6176368,0.630700779 16.707436,0.840934372 16.7972352,1.12625139 L19.3116117,11.067297 L21.6463899,1.12625139 C21.7212225,0.825917686 21.8110217,0.630700779 21.9307539,0.540600667 C22.0504861,0.450500556 22.2600175,0.390433815 22.529415,0.390433815 L23.7267372,0.390433815 C24.0111012,0.390433815 24.205666,0.435483871 24.3253982,0.540600667 C24.4451305,0.630700779 24.5498962,0.840934372 24.6097623,1.12625139 L26.9744735,11.1874305 L29.5636827,1.12625139 C29.6534819,0.825917686 29.7582476,0.630700779 29.8630132,0.540600667 C29.9827455,0.450500556 30.1773103,0.390433815 30.4467078,0.390433815 L31.8385948,0.390433815 C32.0780592,0.390433815 32.212758,0.510567297 32.212758,0.765850945 C32.212758,0.840934372 32.1977915,0.916017798 32.1828249,1.00611791 C32.1678584,1.09621802 32.1379253,1.2163515 32.0780592,1.38153504 L28.4711262,12.9894327 C28.3813271,13.2897664 28.2765614,13.4849833 28.1568292,13.5750834 C28.0370969,13.6651835 27.8425321,13.7252503 27.5881011,13.7252503 L26.3009798,13.7252503 C26.0166158,13.7252503 25.8220509,13.6802002 25.7023187,13.5750834 C25.5825865,13.4699666 25.4778208,13.2747497 25.4179547,12.974416 L23.098143,3.28865406 L20.7932979,12.9593993 C20.7184652,13.259733 20.6286661,13.4549499 20.5089339,13.5600667 C20.3892016,13.6651835 20.1796703,13.7102336 19.9102728,13.7102336 L18.6231515,13.7102336 Z M37.8551387,14.1156841 C37.0768793,14.1156841 36.2986199,14.025584 35.5502935,13.8453838 C34.8019672,13.6651835 34.2182726,13.4699666 33.8291429,13.2447164 C33.5896785,13.1095662 33.4250467,12.9593993 33.3651806,12.8242492 C33.3053145,12.689099 33.2753814,12.5389321 33.2753814,12.403782 L33.2753814,11.637931 C33.2753814,11.3225806 33.3951136,11.1724138 33.6196115,11.1724138 C33.7094107,11.1724138 33.7992098,11.1874305 33.889009,11.2174638 C33.9788082,11.2474972 34.1135069,11.307564 34.2631722,11.3676307 C34.7720341,11.592881 35.3257956,11.7730812 35.9094902,11.8932147 C36.5081512,12.0133482 37.0918458,12.0734149 37.6905069,12.0734149 C38.6333981,12.0734149 39.3667579,11.9082314 39.8756198,11.5778643 C40.3844817,11.2474972 40.6538792,10.7669633 40.6538792,10.1512792 C40.6538792,9.73081201 40.5191805,9.38542825 40.249783,9.10011123 C39.9803855,8.81479422 39.4715236,8.55951057 38.7381638,8.3192436 L36.5680173,7.64349277 C35.4754609,7.29810901 34.6672684,6.78754171 34.173373,6.11179088 C33.6794776,5.45105673 33.4250467,4.71523915 33.4250467,3.93437152 C33.4250467,3.30367075 33.5597454,2.74805339 33.8291429,2.26751947 C34.0985404,1.78698554 34.457737,1.36651835 34.9067328,1.03615128 C35.3557287,0.690767519 35.8645906,0.435483871 36.4632517,0.255283648 C37.0619127,0.075083426 37.6905069,-2.20623519e-12 38.3490341,-2.20623519e-12 C38.6782977,-2.20623519e-12 39.0225278,0.0150166852 39.3517914,0.0600667408 C39.6960215,0.105116796 40.0103186,0.165183537 40.3246156,0.225250278 C40.6239462,0.300333704 40.9083102,0.37541713 41.1777077,0.465517241 C41.4471052,0.555617353 41.6566365,0.645717464 41.8063018,0.735817575 C42.0158332,0.855951057 42.1654985,0.976084538 42.2552976,1.11123471 C42.3450968,1.23136819 42.3899964,1.39655172 42.3899964,1.60678532 L42.3899964,2.31256952 C42.3899964,2.62791991 42.2702641,2.79310345 42.0457662,2.79310345 C41.926034,2.79310345 41.7314692,2.73303671 41.4770382,2.61290323 C40.6239462,2.22246941 39.6660884,2.0272525 38.603465,2.0272525 C37.750373,2.0272525 37.0768793,2.16240267 36.6129169,2.44771969 C36.1489546,2.73303671 35.9094902,3.16852058 35.9094902,3.78420467 C35.9094902,4.20467186 36.0591554,4.5650723 36.358486,4.85038932 C36.6578165,5.13570634 37.211578,5.42102336 38.0048039,5.67630701 L40.1300508,6.35205784 C41.2076407,6.6974416 41.9859001,7.17797553 42.4498625,7.79365962 C42.9138248,8.40934372 43.1383227,9.11512792 43.1383227,9.89599555 C43.1383227,10.541713 43.003624,11.1273637 42.749193,11.637931 C42.4797955,12.1484983 42.1205989,12.5989989 41.6566365,12.9593993 C41.1926742,13.3348165 40.6389127,13.6051168 39.995352,13.8003337 C39.3218583,14.0105673 38.6184315,14.1156841 37.8551387,14.1156841 Z M40.6838123,21.4137931 C35.7598249,25.0628476 28.605825,27 22.4545824,27 C13.8338628,27 6.06623528,23.8014461 0.199356692,18.4855395 C-0.264605645,18.0650723 0.154457111,17.4944383 0.708218611,17.8248053 C7.05402607,21.5189099 14.8815197,23.756396 22.9784108,23.756396 C28.4411932,23.756396 34.4427705,22.6151279 39.965419,20.272525 C40.788578,19.8971079 41.4920047,20.8131257 40.6838123,21.4137931 Z M42.7342265,19.0711902 C42.1056323,18.2602892 38.573532,18.6807564 36.9721136,18.8759733 C36.4931847,18.93604 36.4183521,18.5155729 36.8523814,18.2002225 C39.6660884,16.21802 44.2907453,16.7886541 44.8295403,17.4493882 C45.3683352,18.125139 44.679875,22.7652948 42.0457662,24.9877642 C41.64167,25.3331479 41.2525403,25.1529477 41.4321386,24.7024472 C42.0307997,23.2157953 43.3628206,19.8670745 42.7342265,19.0711902 Z" id="Combined-Shape-Copy"></path>
        </g>
    </g>
</svg>
