<?xml version="1.0" encoding="UTF-8"?>
<svg width="80px" height="32px" viewBox="0 0 80 32" version="1.1" xmlns="http://www.w3.org/2000/svg" xmlns:xlink="http://www.w3.org/1999/xlink">
    <!-- Generator: Sketch 47 (45396) - http://www.bohemiancoding.com/sketch -->
    <title>Provider/AWS/32</title>
    <desc>Created with Sketch.</desc>
    <defs></defs>
    <g id="Symbols" stroke="none" stroke-width="1" fill="none" fill-rule="evenodd">
        <g id="Provider/AWS/32" fill="#616870">
            <path d="M22.2356897,11.3211009 L17.5862069,9.77293578 L17.5862069,3.06422018 L22.2413793,4.44036697 L22.2356897,11.3211009 Z M23.4482759,4.44036697 L28.1034483,3.06422018 L28.0872414,9.76829128 L23.4482759,11.3211009 L23.4482759,4.44036697 Z M27.1551724,2.3377867 L22.8227586,3.48463303 L18.5344828,2.3377867 L22.8165517,1 L27.1551724,2.3377867 Z M33.9598276,11.3211009 L29.3103448,9.77293578 L29.3103448,3.06422018 L33.9655172,4.44036697 L33.9598276,11.3211009 Z M35.1724138,4.44036697 L39.8275862,3.06422018 L39.8113793,9.76829128 L35.1724138,11.3211009 L35.1724138,4.44036697 Z M38.8793103,2.3377867 L34.5468966,3.48463303 L30.2586207,2.3377867 L34.5406897,1 L38.8793103,2.3377867 Z M4.65517241,14.2454128 L4.64951724,21.1261468 L0,19.5779817 L0,12.8692661 L4.65517241,14.2454128 Z M5.86206897,14.2454128 L10.5172414,12.8692661 L10.5010862,19.5734748 L5.86206897,21.1261468 L5.86206897,14.2454128 Z M9.56896552,12.1428326 L5.23660345,13.2896789 L0.948275862,12.1428326 L5.23032759,10.8050459 L9.56896552,12.1428326 Z M16.3736552,21.1261468 L11.7241379,19.5779817 L11.7241379,12.8692661 L16.3793103,14.2454128 L16.3736552,21.1261468 Z M17.5862069,14.2454128 L22.2413793,12.8692661 L22.2251724,19.5734748 L17.5862069,21.1261468 L17.5862069,14.2454128 Z M21.2931034,12.1428326 L16.9607414,13.2896789 L12.6724138,12.1428326 L16.9544655,10.8050459 L21.2931034,12.1428326 Z M10.5115862,30.9311927 L5.86206897,29.3830275 L5.86206897,22.6743119 L10.5172414,24.0504587 L10.5115862,30.9311927 Z M11.7241379,24.0504587 L16.3793103,22.6743119 L16.3631552,29.3785258 L11.7241379,30.9311927 L11.7241379,24.0504587 Z M15.4310345,21.9478784 L11.0986724,23.094742 L6.81034483,21.9478784 L11.0923966,20.6100917 L15.4310345,21.9478784 Z" id="Combined-Shape"></path>
            <path d="M31.0359695,24.9585436 C31.139935,24.9585436 31.2364868,25.0028899 31.2880385,25.0743119 C31.3230385,25.1228383 31.3330385,25.1804128 31.3157971,25.2322248 L29.8487281,30.6117649 C29.8156247,30.7478345 29.7028661,30.8406976 29.5689006,30.8406976 L29.0873488,30.8406976 C28.9428661,30.8406976 28.844073,30.7221661 28.8133833,30.6122362 L27.7925212,27.0220929 L26.8544178,30.608137 C26.8209695,30.7445419 26.7051075,30.8406976 26.5728661,30.8406976 L26.0833833,30.8406976 C25.9395902,30.8406976 25.8413143,30.7266682 25.8076937,30.6134455 L24.2835557,25.2300057 C24.2671764,25.1814966 24.277004,25.1257282 24.3125212,25.076531 C24.364935,25.0039736 24.4626937,24.9588876 24.5678661,24.9588876 L25.0601075,24.9597477 C25.1887281,24.9597477 25.3526937,25.0485092 25.3916592,25.1806193 L26.3782109,28.7936755 L27.3330385,25.1917833 C27.3625212,25.076875 27.4689006,24.9597477 27.6147626,24.9597477 L28.0197626,24.9597477 C28.1663143,24.9597477 28.274073,25.0753268 28.304935,25.1894266 L29.3313143,28.8291628 L30.369073,25.1814966 C30.4083833,25.0443463 30.5683833,24.9597477 30.6939006,24.9597477 L31.0359695,24.9585436 Z M34.0095902,24.9200459 L34.0095902,24.9200459 C35.7732109,24.9200459 36.4106247,26.4067833 36.4192454,27.7983945 C36.4197626,27.8545069 36.3952799,27.9105333 36.3502799,27.9556193 C36.2964868,28.0099943 36.2202799,28.0423165 36.1466592,28.0423165 L32.6361419,28.0435206 C32.639073,28.4193979 32.6652799,28.7890482 32.8425212,29.1640482 C33.0606247,29.6231307 33.5366592,29.9304106 34.0551075,29.9464031 C34.5939006,29.9305464 35.0232109,29.6264232 35.2587281,29.0904071 C35.3080385,28.9788016 35.4571764,28.9018578 35.5873488,28.9222248 L36.0721764,29.0147534 C36.1545902,29.0328326 36.2242454,29.0820126 36.2609695,29.1471904 C36.2911419,29.200879 36.2971764,29.26075 36.2778661,29.3159163 C35.9171764,30.2806296 35.0821764,30.8327686 33.9868316,30.8327686 C32.4563143,30.8327686 31.4673488,29.6785654 31.4673488,27.8921273 C31.4673488,26.4607454 32.2628661,24.9200459 34.0095902,24.9200459 Z M35.2683833,27.2441686 C35.2495902,26.5017374 34.8609695,25.7682339 34.0114868,25.7405562 C33.2132109,25.7694553 32.742004,26.5201433 32.6825212,27.2441686 L35.2683833,27.2441686 Z M39.6901075,24.8701089 L39.6901075,24.8701089 C40.3471764,24.8701089 40.9861419,25.2282683 41.3573488,25.804719 C41.6785557,26.3021617 41.8628661,27.0151778 41.8628661,27.7608945 C41.8628661,29.2590023 41.1656247,30.7706808 39.6078661,30.7706808 L39.5173488,30.7706808 C38.9259695,30.7706808 38.3733833,30.4653481 38.0064868,29.945531 L37.8485557,30.4455935 C37.814935,30.5501479 37.7152799,30.6626995 37.5752799,30.6626995 L37.427004,30.6635046 C37.2814868,30.6635046 37.1495902,30.5465872 37.149073,30.4179088 L37.149073,23.3335034 C37.1494178,23.1941514 37.297004,23.0899255 37.4289006,23.0899255 L37.9337281,23.0899255 C38.0794178,23.0899255 38.2113143,23.2060378 38.2113143,23.3335034 L38.2118316,25.6029415 C38.5616592,25.1104014 39.0173488,24.8701089 39.5971764,24.8701089 L39.6901075,24.8701089 Z M40.7380385,27.9007282 C40.7380385,27.5449943 40.6783833,25.7689048 39.5025212,25.7226147 C38.7542454,25.7541284 38.2309695,26.5681193 38.2118316,27.3098796 L38.2118316,28.2781537 C38.2363143,28.7186927 38.3316592,29.0747534 38.494935,29.3323114 C38.7166592,29.6728544 39.1135557,29.9031972 39.5063143,29.9181818 C40.6782109,29.876051 40.7380385,28.2303154 40.7380385,27.9007282 Z M47.3906247,27.7412844 C47.8102799,28.0398911 48.0511419,28.5174484 48.0511419,29.0515654 C48.0511419,30.3636818 46.8813143,30.8314248 45.7864868,30.8314248 L45.7592454,30.8312232 C44.5333833,30.8219502 43.649073,30.2708194 43.3937281,29.3569048 C43.3783833,29.3013343 43.3878661,29.240457 43.4211419,29.1860958 C43.4607971,29.1208544 43.5289006,29.0725344 43.6033833,29.0568807 L44.0982109,28.9550115 C44.2321764,28.9271961 44.384935,29.0128612 44.4171764,29.133945 C44.5778661,29.6847477 45.2395902,29.9448584 45.824073,29.9574243 C46.0845902,29.9520487 46.9463143,29.8767236 46.9463143,29.1379186 C46.9463143,28.6388589 46.469935,28.4806193 46.004073,28.3916514 L45.1554523,28.2303154 C44.0975212,28.0152924 43.5616592,27.4749828 43.5616592,26.6241628 C43.5616592,25.3793177 44.6352799,24.9336181 45.639935,24.9313991 C46.7518316,24.9313991 47.4868316,25.3760321 47.7763143,26.2173739 C47.7947626,26.2705275 47.7880385,26.3300459 47.7571764,26.3845413 C47.7185557,26.4532282 47.6464868,26.5060378 47.5692454,26.5230333 L47.0961419,26.627328 C47.0782109,26.6312156 47.0592454,26.633297 47.0406247,26.633297 C46.9318316,26.633297 46.8271764,26.565711 46.779935,26.4652523 C46.5811419,26.0389736 46.1716592,25.7965998 45.6271764,25.7828899 C45.1813143,25.794914 44.6554523,25.9884346 44.6554523,26.4946846 C44.6554523,26.9735837 44.9702799,27.1191284 45.5142454,27.2083544 L46.2723488,27.3485837 C46.6676937,27.4273509 47.0623488,27.5059633 47.3906247,27.7412844 Z M51.1361419,24.9250172 L51.1361419,24.9250172 C52.9001075,24.9250172 53.537004,26.4118922 53.5451075,27.8033658 C53.5456247,27.859805 53.5211419,27.9158486 53.4759695,27.9611411 C53.4221764,28.0151548 53.3464868,28.0472878 53.2733833,28.0472878 L49.7632109,28.0481479 C49.7657971,28.4249197 49.7921764,28.7948968 49.9697626,29.1690281 C50.187004,29.6279679 50.6628661,29.9351823 51.1818316,29.9517116 C51.7201075,29.9351823 52.1495902,29.6310591 52.3852799,29.0953784 C52.4411419,28.967242 52.5995902,28.9085837 52.7132109,28.9269897 L53.1987281,29.0195183 C53.2809695,29.0372534 53.3507971,29.0864507 53.3875212,29.1516972 C53.4178661,29.2055149 53.4239006,29.2655201 53.4047626,29.3207534 C53.0437281,30.2852672 52.2087281,30.8374722 51.1132109,30.8374722 C49.5825212,30.8374722 48.5933833,29.6834042 48.5933833,27.8970986 C48.5933833,26.4657856 49.389073,24.9250172 51.1361419,24.9250172 Z M52.3954523,27.2494839 C52.3757971,26.5065023 51.9866592,25.7730849 51.1375212,25.7461984 C50.3392454,25.7737557 49.8680385,26.5247878 49.8089006,27.2494839 L52.3954523,27.2494839 Z M56.859935,24.9905218 C57.0007971,25.0058486 57.1113143,25.1174541 57.1113143,25.2445929 L57.1113143,25.7304071 C57.1113143,25.8671445 56.9895902,25.9879014 56.8509695,25.9888991 C56.2978661,25.9931995 55.8854523,26.2621158 55.5901075,26.8102867 C55.3833833,27.1951261 55.3430385,27.5204128 55.3430385,27.9521961 L55.3426937,30.5706422 C55.3414868,30.7110126 55.1916592,30.8152308 55.0585557,30.8152308 L54.547004,30.8154324 C54.4021764,30.8154324 54.2752799,30.7009994 54.2752799,30.5706422 L54.2759695,25.3768922 C54.277004,25.245797 54.4039006,25.1315768 54.5476937,25.1315768 L54.9861419,25.1315768 C55.1332109,25.1315768 55.2626937,25.2453326 55.2632109,25.3748108 L55.262004,25.9094782 C55.594073,25.2989507 56.0725212,24.979375 56.6616592,24.979375 C56.7256247,24.979375 56.7914868,24.9830046 56.859935,24.9905218 Z M62.2307971,24.8885321 C62.3366592,24.8885321 62.4389006,24.936164 62.4916592,25.0096158 C62.5266592,25.058469 62.5361419,25.1138933 62.5183833,25.1653096 L60.7432109,30.5797798 C60.6951075,30.7256603 60.5901075,30.8126774 60.462004,30.8126774 L59.7639006,30.8126774 C59.6163143,30.8126774 59.5230385,30.6874272 59.4878661,30.5802511 L57.6576937,25.163555 C57.6402799,25.1120183 57.649935,25.0567833 57.6851075,25.0080677 C57.7375212,24.9352867 57.839935,24.8881881 57.9457971,24.8881881 L58.5226937,24.8887213 C58.649935,24.8887213 58.8125212,24.9802523 58.852004,25.1164564 L60.1892454,29.2185505 L61.4987281,25.1123452 C61.5380385,24.979375 61.7002799,24.8887213 61.8268316,24.8887213 L62.2307971,24.8885321 Z M63.5580385,22.8064392 C63.9302799,22.8064392 64.2332109,23.1091399 64.2332109,23.4816112 C64.2332109,23.8539966 63.9302799,24.1565768 63.5580385,24.1565768 C63.1859695,24.1565768 62.8833833,23.8539966 62.8833833,23.4816112 C62.8833833,23.1091399 63.1859695,22.8064392 63.5580385,22.8064392 Z M63.8357971,24.855539 C63.989935,24.855539 64.1254523,24.9744037 64.1254523,25.1099369 L64.1254523,30.6250034 C64.1254523,30.7585184 63.9911419,30.8768483 63.8382109,30.8781922 L63.8378661,30.8781922 L63.279935,30.8773187 C63.2097626,30.8773187 63.139935,30.8515158 63.0852799,30.8068315 C63.0256247,30.7576449 62.9911419,30.6913905 62.9911419,30.6246663 L62.9939006,25.1099369 C62.9939006,24.9766227 63.1311419,24.8549885 63.2818316,24.8549885 L63.8357971,24.855539 Z M69.0128661,28.5951835 C69.1057971,28.5996904 69.1904523,28.6387213 69.2435557,28.6995986 C69.2845902,28.7465768 69.3045902,28.8043578 69.2994178,28.862156 C69.0682109,30.0750814 68.2607971,30.8231598 67.1911419,30.8231598 L67.1097626,30.8231598 C65.4111419,30.8231598 64.8089006,29.2469748 64.8089006,27.8970986 C64.8089006,26.4247936 65.5232109,24.9391227 67.1187281,24.9391227 L67.1616592,24.9401376 L67.1995902,24.9391227 C68.2966592,24.9391227 69.1175212,25.7030562 69.2926937,26.8849427 C69.2937281,27.0234346 69.1776937,27.1351089 69.0297626,27.1511067 L68.5347626,27.1462729 C68.3944178,27.1287271 68.2916592,27.0277351 68.2685557,26.8942833 C68.1461419,26.2402867 67.7380385,25.8389335 67.177004,25.8217317 C66.2475212,25.8490826 65.9145902,26.8841342 65.9145902,27.8432741 C65.9145902,28.3242546 66.0023488,29.8961428 67.1326937,29.9296726 C67.7130385,29.9130075 68.0957971,29.5361135 68.2647626,28.8087959 C68.3128661,28.6743463 68.4211419,28.5969381 68.5502799,28.5969381 L69.0128661,28.5951835 Z M72.3221764,24.9250172 L72.3221764,24.9250172 C74.0863143,24.9250172 74.7233833,26.4118922 74.7314868,27.8033658 C74.7323488,27.8589278 74.7082109,27.9150401 74.6633833,27.9606078 C74.6094178,28.0151548 74.5332109,28.0476147 74.4594178,28.0476147 L70.9489006,28.0481479 C70.9516592,28.4243693 70.9780385,28.7943463 71.1557971,29.1690281 C71.3730385,29.6279679 71.8487281,29.9351823 72.3675212,29.9519128 C72.9056247,29.9351823 73.3352799,29.6310591 73.5716592,29.0953784 C73.6275212,28.967242 73.7854523,28.9085837 73.8995902,28.9269897 L74.3844178,29.0195183 C74.4680385,29.0379243 74.5357971,29.085969 74.5730385,29.1516972 C74.6032109,29.2051795 74.6094178,29.2653859 74.5906247,29.3209564 C74.2292454,30.2856026 73.3945902,30.8374722 72.2995902,30.8374722 C70.7689006,30.8374722 69.7797626,29.6834042 69.7797626,27.8970986 C69.7797626,26.4657856 70.5752799,24.9250172 72.3221764,24.9250172 Z M73.5814868,27.2494839 C73.5621764,26.5065023 73.1732109,25.7730849 72.3239006,25.7461984 C71.5251075,25.7737557 71.0537281,26.5245814 70.9945902,27.2494839 L73.5814868,27.2494839 Z M79.1292454,27.7412844 C79.5487281,28.0394266 79.7894178,28.5171044 79.7894178,29.0515654 C79.7894178,30.3636818 78.6194178,30.8314248 77.5244178,30.8314248 L77.4971764,30.8312232 C76.2711419,30.8219502 75.387004,30.2708194 75.1323488,29.3569048 C75.1168316,29.3016714 75.1263143,29.241262 75.1592454,29.1867683 C75.1989006,29.1213876 75.2671764,29.0727408 75.342004,29.0568807 L75.8359695,28.9550115 C75.9723488,28.9273337 76.124935,29.0128612 76.1563143,29.134633 C76.3275212,29.722578 77.0211419,29.9458664 77.5630385,29.9574243 C77.8235557,29.9520487 78.6852799,29.8767236 78.6852799,29.1379186 C78.6852799,28.6388589 78.2089006,28.4806193 77.7430385,28.3916514 L76.894073,28.2303154 C75.8363143,28.0154989 75.3006247,27.4751892 75.3006247,26.6241628 C75.3006247,25.3793177 76.3739006,24.9336181 77.3782109,24.9313991 C78.4906247,24.9313991 79.2257971,25.3760321 79.514935,26.2173739 C79.5333833,26.2705275 79.5266592,26.3298567 79.4959695,26.3844209 C79.4573488,26.4530218 79.3854523,26.5060378 79.3082109,26.5230333 L78.8354523,26.627328 C78.8171764,26.6312156 78.7983833,26.633297 78.7795902,26.633297 C78.6706247,26.633297 78.5656247,26.5659002 78.5180385,26.4654587 C78.3195902,26.0389736 77.9101075,25.7965998 77.3651075,25.7828899 C77.2066592,25.7871216 76.3944178,25.8416858 76.3944178,26.4946846 C76.3944178,26.9735837 76.709073,27.1191284 77.2525212,27.2083544 L78.0106247,27.3485837 C78.4052799,27.4272133 78.8004523,27.5057569 79.1292454,27.7412844 Z M56.6092454,14.237844 L56.6092454,12.9855505 C56.609935,12.7956422 56.7544178,12.6681766 56.9278661,12.6683486 L62.5511419,12.6681766 C62.7306247,12.6681766 62.8754523,12.7987385 62.8754523,12.9841743 L62.8754523,14.0580849 C62.8737281,14.237844 62.7214868,14.4728899 62.4518316,14.8461525 L59.5392454,18.9953555 C60.619935,18.9697592 61.764073,19.1312156 62.7461419,19.6820872 C62.9680385,19.80625 63.027004,19.9904989 63.0451075,20.1703784 L63.0451075,21.506617 C63.0451075,21.6908658 62.8430385,21.9038073 62.6309695,21.7928727 C60.9001075,20.8880906 58.6030385,20.7893177 56.6887281,21.8033486 C56.4933833,21.9074369 56.2885557,21.697781 56.2885557,21.5135321 L56.2885557,20.2438303 C56.2885557,20.0412443 56.2926937,19.6932339 56.4976937,19.3832741 L59.8726937,14.5533085 L56.9345902,14.5526376 C56.7547626,14.5526376 56.6109695,14.4249656 56.6092454,14.237844 Z M36.0971764,22.0564048 L34.3859695,22.0564048 C34.2233833,22.0457913 34.0932109,21.9234346 34.0802799,21.7673968 L34.0814868,13.0068807 C34.0814868,12.831594 34.2294178,12.6915711 34.4114868,12.6915711 L36.0047626,12.690711 C36.1716592,12.7 36.3051075,12.8255734 36.3164868,12.9848624 L36.3164868,14.1295241 L36.3482109,14.1295241 C36.7630385,13.0228784 37.5456247,12.5075115 38.5994178,12.5075115 C39.6692454,12.5075115 40.3401075,13.0228784 40.8192454,14.1295241 C41.2347626,13.0228784 42.1766592,12.5075115 43.1835557,12.5075115 C43.9021764,12.5075115 44.6837281,12.8020069 45.1628661,13.4653096 C45.7057971,14.2030963 45.5939006,15.2716227 45.5939006,16.212219 L45.5928661,21.7407856 C45.5928661,21.9155734 45.4451075,22.0564048 45.2632109,22.0564048 L43.5545902,22.0564048 C43.3825212,22.0457913 43.2471764,21.9088475 43.2471764,21.741594 L43.2471764,17.096961 C43.2471764,16.7284805 43.2787281,15.8063589 43.199073,15.4564048 C43.0709695,14.865969 42.6875212,14.7010034 42.1932109,14.7010034 C41.7775212,14.7010034 41.3461419,14.9775229 41.1704523,15.4189908 C40.994935,15.8621273 41.0111419,16.5994667 41.0111419,17.096961 L41.0111419,21.7407856 C41.0111419,21.9155734 40.8633833,22.0564048 40.6811419,22.0564048 L38.9721764,22.0564048 C38.8009695,22.0457913 38.6652799,21.9088475 38.6652799,21.741594 L38.6630385,17.096961 C38.6630385,16.119828 38.8232109,14.6825287 37.6097626,14.6825287 C36.3801075,14.6825287 36.4280385,16.0832053 36.4280385,17.096961 L36.427004,21.7407856 C36.4276937,21.9155734 36.2797626,22.0564048 36.0971764,22.0564048 Z M67.7168316,12.5075115 C70.2557971,12.5075115 71.6294178,14.6825287 71.6294178,17.4467087 C71.6294178,20.1203211 70.1116592,22.2404472 67.7168316,22.2404472 C65.2252799,22.2404472 63.8675212,20.064828 63.8675212,17.3549885 C63.8675212,14.6267603 65.2406247,12.5075115 67.7168316,12.5075115 L67.7168316,12.5075115 Z M67.7323488,14.2950229 C66.4701075,14.2950229 66.3906247,16.009289 66.3906247,17.0788991 C66.3906247,18.1478899 66.3747626,20.4335837 67.7168316,20.4335837 C69.0425212,20.4335837 69.1061419,18.5900975 69.1061419,17.4657339 C69.1061419,16.7284805 69.0745902,15.8438589 68.8509695,15.1432798 C68.6587281,14.5346961 68.2757971,14.2950229 67.7323488,14.2950229 L67.7323488,14.2950229 Z M74.9225212,22.0564048 L73.2178661,22.0564048 C73.0461419,22.0457913 72.9107971,21.9088475 72.9107971,21.741594 L72.9083833,12.9771216 C72.9225212,12.8174885 73.0645902,12.6915711 73.2363143,12.6915711 L74.8237281,12.690711 C74.9733833,12.6989679 75.0961419,12.8004587 75.1275212,12.9361812 L75.1275212,14.2766686 L75.159935,14.2766686 C75.6383833,13.0782683 76.3095902,12.5075115 77.4907971,12.5075115 C78.2575212,12.5075115 79.0085557,12.7832569 79.4873488,13.5392775 C79.9342454,14.2395126 79.9342454,15.4189908 79.9342454,16.2671101 L79.9342454,21.7801606 C79.9151075,21.9355275 79.7763143,22.0564048 79.6073488,22.0564048 L77.8914868,22.0564048 C77.7332109,22.0461181 77.6059695,21.9294725 77.5868316,21.7801606 L77.5868316,17.0232511 C77.5868316,16.0647305 77.6989006,14.663383 76.5166592,14.663383 C76.1016592,14.663383 75.7189006,14.9405562 75.527004,15.3640138 C75.2871764,15.8984232 75.2554523,16.432953 75.2554523,17.0232511 L75.2554523,21.7407856 C75.2525212,21.9155734 75.1045902,22.0564048 74.9225212,22.0564048 Z M53.8513143,22.0342317 C53.7378661,22.1352236 53.5754523,22.1419495 53.4475212,22.0739507 C52.8794178,21.6027752 52.7773488,21.3843291 52.4668316,20.9362041 C51.5276937,21.8905619 50.8626937,22.1768177 49.6466592,22.1768177 C48.2057971,22.1768177 47.0857971,21.2899083 47.0857971,19.5163819 C47.0857971,18.1311697 47.8376937,17.1888876 48.909935,16.7267259 C49.8382109,16.320195 51.1347626,16.2461583 52.1268316,16.1349484 L52.1268316,15.9135436 C52.1268316,15.5073394 52.1587281,15.0267718 51.9183833,14.6759404 C51.7109695,14.3618693 51.3107971,14.2328555 50.9582109,14.2328555 C50.3056247,14.2328555 49.7257971,14.5666227 49.5830385,15.2580505 C49.554073,15.411594 49.4409695,15.5641227 49.2859695,15.5715195 L47.6282109,15.3923108 C47.4878661,15.3608658 47.3325212,15.2491743 47.3730385,15.0359748 C47.754073,13.028555 49.5706247,12.4220183 51.1987281,12.4220183 C52.0304523,12.4220183 53.1192454,12.643578 53.7754523,13.271617 C54.6073488,14.0478842 54.5271764,15.0823337 54.5271764,16.2093979 L54.5271764,18.8685608 C54.5271764,19.6684461 54.8604523,20.0195356 55.1737281,20.4506479 C55.2821764,20.6061353 55.3066592,20.7903842 55.1673488,20.9044151 C54.8180385,21.1965195 54.1971764,21.7340768 53.8559695,22.0379989 L53.8513143,22.0342317 L53.8513143,22.0342317 Z M52.1268316,17.8720585 L52.1268316,17.8720585 L52.1268316,17.5028211 C50.8895902,17.5028211 49.5823488,17.7674369 49.5823488,19.2208544 C49.5823488,19.9602064 49.9663143,20.4588532 50.6218316,20.4588532 C51.102004,20.4588532 51.5344178,20.1635321 51.8064868,19.682758 C52.1426937,19.092047 52.1268316,18.5372878 52.1268316,17.8720585 Z M31.4247626,22.0342317 C31.3116592,22.1352236 31.1480385,22.1419495 31.0201075,22.0739507 C30.452004,21.6027752 30.3502799,21.3843291 30.0394178,20.9362041 C29.1007971,21.8905619 28.4354523,22.1768177 27.2187281,22.1768177 C25.7783833,22.1768177 24.6580385,21.2899083 24.6580385,19.5163819 C24.6580385,18.1311697 25.4106247,17.1888876 26.4828661,16.7267259 C27.4113143,16.320195 28.7076937,16.2461583 29.6997626,16.1349484 L29.6997626,15.9135436 C29.6997626,15.5073394 29.732004,15.0267718 29.4916592,14.6759404 C29.2837281,14.3618693 28.8832109,14.2328555 28.5316592,14.2328555 C27.879073,14.2328555 27.2985557,14.5666227 27.1563143,15.2580505 C27.1266592,15.411594 27.014073,15.5641227 26.8592454,15.5715195 L25.2007971,15.3923108 C25.0607971,15.3608658 24.9052799,15.2491743 24.9454523,15.0359748 C25.3264868,13.028555 27.1432109,12.4220183 28.7711419,12.4220183 C29.6039006,12.4220183 30.6918316,12.643578 31.3482109,13.271617 C32.1804523,14.0478842 32.1001075,15.0823337 32.1001075,16.2093979 L32.1001075,18.8685608 C32.1001075,19.6684461 32.4335557,20.0195356 32.7459695,20.4506479 C32.854935,20.6061353 32.8795902,20.7903842 32.7406247,20.9044151 C32.3909695,21.1965195 31.7697626,21.7340768 31.4287281,22.0379989 L31.4247626,22.0342317 L31.4247626,22.0342317 Z M29.6997626,17.8720585 L29.6997626,17.8720585 L29.6997626,17.5028211 C28.462004,17.5028211 27.1551075,17.7674369 27.1551075,19.2208544 C27.1551075,19.9602064 27.5389006,20.4588532 28.1957971,20.4588532 C28.6752799,20.4588532 29.1080385,20.1635321 29.379935,19.682758 C29.7154523,19.092047 29.6997626,18.5372878 29.6997626,17.8720585 Z" id="Combined-Shape"></path>
        </g>
    </g>
</svg>