<?xml version="1.0" encoding="UTF-8"?>
<svg width="192px" height="64px" viewBox="0 0 192 64" version="1.1" xmlns="http://www.w3.org/2000/svg" xmlns:xlink="http://www.w3.org/1999/xlink">
    <!-- Generator: Sketch 47.1 (45422) - http://www.bohemiancoding.com/sketch -->
    <title>Provider/AWS/64</title>
    <desc>Created with Sketch.</desc>
    <defs></defs>
    <g id="Symbols" stroke="none" stroke-width="1" fill="none" fill-rule="evenodd">
        <g id="Provider/AWS/64">
            <path d="M47.5287866,22.0183486 L37.5905172,18.7155963 L37.5905172,4.40366972 L47.5409483,7.33944954 L47.5287866,22.0183486 Z M50.1206897,7.33944954 L60.0711207,4.40366972 L60.0364784,18.7056881 L50.1206897,22.0183486 L50.1206897,7.33944954 Z M58.044181,2.85394495 L48.7836466,5.30055046 L39.6174569,2.85394495 L48.7703793,0 L58.044181,2.85394495 Z M72.5891315,22.0183486 L62.6508621,18.7155963 L62.6508621,4.40366972 L72.6012931,7.33944954 L72.5891315,22.0183486 Z M75.1810345,7.33944954 L85.1314655,4.40366972 L85.0968233,18.7056881 L75.1810345,22.0183486 L75.1810345,7.33944954 Z M83.1045259,2.85394495 L73.8439914,5.30055046 L64.6778017,2.85394495 L73.8307241,0 L83.1045259,2.85394495 Z M9.95043103,28.2568807 L9.9383431,42.9357798 L0,39.6330275 L0,25.3211009 L9.95043103,28.2568807 Z M12.5301724,28.2568807 L22.4806034,25.3211009 L22.4460718,39.6234128 L12.5301724,42.9357798 L12.5301724,28.2568807 Z M20.4536638,23.7713761 L11.1932399,26.2179817 L2.02693966,23.7713761 L11.1798252,20.9174312 L20.4536638,23.7713761 Z M34.9986879,42.9357798 L25.0603448,39.6330275 L25.0603448,25.3211009 L35.0107759,28.2568807 L34.9986879,42.9357798 Z M37.5905172,28.2568807 L47.5409483,25.3211009 L47.506306,39.6234128 L37.5905172,42.9357798 L37.5905172,28.2568807 Z M45.5140086,23.7713761 L36.2535847,26.2179817 L27.0872845,23.7713761 L36.24017,20.9174312 L45.5140086,23.7713761 Z M22.4685155,63.853211 L12.5301724,60.5504587 L12.5301724,46.2385321 L22.4806034,49.1743119 L22.4685155,63.853211 Z M25.0603448,49.1743119 L35.0107759,46.2385321 L34.9762442,60.540855 L25.0603448,63.853211 L25.0603448,49.1743119 Z M32.9838362,44.6888073 L23.7234123,47.1354495 L14.5571121,44.6888073 L23.7099976,41.8348624 L32.9838362,44.6888073 Z" id="Combined-Shape" fill="#F68D11"></path>
            <path d="M66.3393849,51.1115596 C66.5616111,51.1115596 66.7679905,51.2061651 66.8781823,51.3585321 C66.9529948,51.462055 66.9743698,51.5848807 66.9375163,51.6954128 L63.8016564,63.1717651 C63.7308978,63.462047 63.4898762,63.6601549 63.2035249,63.6601549 L62.1742081,63.6601549 C61.8653762,63.6601549 61.654206,63.4072877 61.5886068,63.1727706 L59.4065142,55.5137982 L57.401318,63.1640257 C57.3298224,63.4550228 57.0821672,63.6601549 56.7995012,63.6601549 L55.7532318,63.6601549 C55.4458741,63.6601549 55.2358094,63.4168921 55.1639452,63.1753505 L51.9061004,51.6906789 C51.8710896,51.5871927 51.8920961,51.4682202 51.9680142,51.3632661 C52.0800486,51.2084771 52.2890077,51.1122936 52.5138137,51.1122936 L53.5659797,51.1141284 C53.8409064,51.1141284 54.1913827,51.3034862 54.2746715,51.5853211 L56.3834258,59.2931743 L58.4243698,51.6091376 C58.4873892,51.364 58.7147749,51.1141284 59.0265551,51.1141284 L59.8922426,51.1141284 C60.2054969,51.1141284 60.435831,51.3606972 60.5017986,51.6041101 L62.6956844,59.3688807 L64.9138935,51.5871927 C64.9979193,51.2946055 65.3399193,51.1141284 65.6082124,51.1141284 L66.3393849,51.1115596 Z M72.6954991,51.0294312 L72.6954991,51.0294312 C76.4652383,51.0294312 77.8277103,54.2011376 77.846137,57.1699083 C77.8472426,57.2896147 77.7949107,57.4091376 77.6987232,57.5053211 C77.5837405,57.6213211 77.4208482,57.6902752 77.263484,57.6902752 L69.7597534,57.692844 C69.7660185,58.4947156 69.8220357,59.2833028 70.2008892,60.0833028 C70.6670853,61.0626789 71.684609,61.7182092 72.7927922,61.7523266 C73.9444624,61.7184991 74.8621133,61.0697028 75.3655314,59.9262018 C75.4709323,59.6881101 75.7897146,59.5239633 76.0679581,59.5674128 L77.1042771,59.7648073 C77.2804366,59.8033761 77.4293245,59.9082936 77.5078224,60.0473394 C77.5723159,60.1618752 77.5852146,60.2896 77.5439387,60.4072881 C76.7729646,62.4653431 74.9881521,63.6432396 72.6468525,63.6432396 C69.3753719,63.6432396 67.2614581,61.1809394 67.2614581,57.3698716 C67.2614581,54.3162569 68.9618762,51.0294312 72.6954991,51.0294312 Z M75.3861693,55.9875596 C75.3459991,54.4037064 74.5153224,52.8388991 72.699553,52.7798532 C70.9932383,52.8415046 69.9860336,54.4429725 69.8588892,55.9875596 L75.3861693,55.9875596 Z M84.8376047,50.9228991 L84.8376047,50.9228991 C86.2420896,50.9228991 87.6078784,51.6869725 88.4013331,52.9167339 C89.0879129,53.977945 89.4818762,55.4990459 89.4818762,57.0899083 C89.4818762,60.2858716 87.9915228,63.5107857 84.6618137,63.5107857 L84.4683331,63.5107857 C83.2042599,63.5107857 82.0231068,62.8594092 81.2388655,61.7504661 L80.9012879,62.8172661 C80.8294236,63.0403156 80.6164107,63.2804257 80.3171607,63.2804257 L80.0002211,63.2821431 C79.689178,63.2821431 79.4072491,63.0327193 79.4061435,62.7582055 L79.4061435,47.6448073 C79.4068805,47.3475229 79.7223461,47.1251743 80.0042749,47.1251743 L81.0833439,47.1251743 C81.3947555,47.1251743 81.6766844,47.3728807 81.6766844,47.6448073 L81.67779,52.4862752 C82.4255465,51.4355229 83.3995831,50.9228991 84.6389646,50.9228991 L84.8376047,50.9228991 Z M87.0775573,57.3882202 C87.0775573,56.6293211 86.9500443,52.8403303 84.4366392,52.741578 C82.8371995,52.8088073 81.7186974,54.5453211 81.67779,56.1277431 L81.67779,58.1933945 C81.7301219,59.133211 81.9339215,59.8928073 82.2829236,60.4422642 C82.756859,61.168756 83.6052254,61.6601541 84.4447469,61.6921211 C86.9496758,61.6022422 87.0775573,58.0913394 87.0775573,57.3882202 Z M101.29746,57.0480734 C102.194473,57.6851009 102.709316,58.7038899 102.709316,59.8433394 C102.709316,62.6425211 100.208809,63.6403728 97.8686155,63.6403728 L97.810387,63.6399428 C95.1901068,63.6201604 93.2998935,62.4444147 92.7540939,60.4947303 C92.7212943,60.3761798 92.7415637,60.2463083 92.8126909,60.1303376 C92.8974538,59.991156 93.0430249,59.8880734 93.2022318,59.8546789 L94.2599258,59.6373578 C94.5462771,59.5780183 94.8727986,59.7607706 94.9417146,60.0190826 C95.2851887,61.1941284 96.6996241,61.7490312 97.948956,61.7758385 C98.5058116,61.7643706 100.347747,61.6036771 100.347747,60.0275596 C100.347747,58.9628991 99.3294861,58.6253211 98.333706,58.4355229 L96.5197793,58.0913394 C94.2584517,57.6326239 93.1130465,56.4799633 93.1130465,54.6648807 C93.1130465,52.009211 95.4079107,51.0583853 97.5553611,51.0536514 C99.93204,51.0536514 101.503103,52.0022018 102.121872,53.7970642 C102.161305,53.9104587 102.146932,54.0374312 102.080965,54.1536881 C101.998413,54.3002202 101.844365,54.4128807 101.679262,54.4491376 L100.668003,54.671633 C100.629676,54.6799266 100.589137,54.684367 100.549335,54.684367 C100.31679,54.684367 100.09309,54.5401835 99.9921111,54.3258716 C99.5671909,53.4164771 98.6919215,52.8994128 97.5280896,52.8701651 C96.5750594,52.8958165 95.4510293,53.3086606 95.4510293,54.3886606 C95.4510293,55.4103119 96.1239732,55.7208073 97.2866995,55.911156 L98.9071456,56.2103119 C99.7521952,56.3783486 100.595771,56.546055 101.29746,57.0480734 Z M109.303503,51.0400367 L109.303503,51.0400367 C113.07398,51.0400367 114.435346,54.2120367 114.452667,57.1805138 C114.453773,57.3009174 114.401441,57.4204771 114.304885,57.5171009 C114.189902,57.6323303 114.028115,57.7008807 113.871857,57.7008807 L106.368863,57.7027156 C106.374391,58.5064954 106.430777,59.2957798 106.810368,60.0939266 C107.274721,61.0729982 108.291876,61.728389 109.401165,61.7636514 C110.55173,61.728389 111.469749,61.0795927 111.973536,59.9368073 C112.092941,59.6634495 112.431624,59.5383119 112.674488,59.577578 L113.712281,59.7749725 C113.888072,59.8128073 114.037329,59.9177615 114.115827,60.0569541 C114.180689,60.1717651 114.193587,60.2997761 114.15268,60.4176073 C113.380969,62.4752367 111.596156,63.6532741 109.254488,63.6532741 C105.982639,63.6532741 103.868357,61.1912624 103.868357,57.3804771 C103.868357,54.3270092 105.569143,51.0400367 109.303503,51.0400367 Z M111.995279,55.9988991 C111.953266,54.4138716 111.121484,52.8492477 109.306452,52.7918899 C107.600137,52.8506789 106.592932,54.4528807 106.466525,55.9988991 L111.995279,55.9988991 Z M121.538111,51.1797798 C121.839204,51.2124771 122.075434,51.4505688 122.075434,51.7217982 L122.075434,52.7582018 C122.075434,53.0499083 121.815249,53.3075229 121.518947,53.3096514 C120.336689,53.3188257 119.455154,53.8925138 118.823855,55.061945 C118.381982,55.8829358 118.295745,56.5768807 118.295745,57.4980183 L118.295008,63.0840367 C118.292428,63.3834936 117.972171,63.6058257 117.687663,63.6058257 L116.594221,63.6062558 C116.284652,63.6062558 116.013411,63.3621321 116.013411,63.0840367 L116.014885,52.0040367 C116.017096,51.724367 116.288337,51.4806972 116.595695,51.4806972 L117.532878,51.4806972 C117.847238,51.4806972 118.124008,51.7233761 118.125113,51.9995963 L118.122534,53.1402202 C118.832331,51.8377615 119.855014,51.156 121.114296,51.156 C121.251023,51.156 121.391803,51.1637431 121.538111,51.1797798 Z M133.018329,50.9622018 C133.244609,50.9622018 133.46315,51.0638165 133.575921,51.2205138 C133.650734,51.3247339 133.671003,51.4429725 133.633044,51.5526606 L129.838613,63.1035303 C129.735792,63.414742 129.511355,63.6003783 129.237534,63.6003783 L127.745337,63.6003783 C127.429872,63.6003783 127.230495,63.333178 127.155314,63.1045358 L123.24332,51.5489174 C123.206098,51.4389725 123.226736,51.3211376 123.301917,51.217211 C123.413952,51.061945 123.632861,50.9614679 123.859141,50.9614679 L125.092258,50.9626055 C125.364236,50.9626055 125.711764,51.1578716 125.796159,51.4484404 L128.654512,60.1995743 L131.453531,51.4396697 C131.537557,51.156 131.884348,50.9626055 132.154853,50.9626055 L133.018329,50.9622018 Z M135.855307,46.5204037 C136.650973,46.5204037 137.298488,47.1661651 137.298488,47.9607706 C137.298488,48.7551927 136.650973,49.4006972 135.855307,49.4006972 C135.06001,49.4006972 134.413232,48.7551927 134.413232,47.9607706 C134.413232,47.1661651 135.06001,46.5204037 135.855307,46.5204037 Z M136.449016,50.8918165 C136.778486,50.8918165 137.068154,51.1453945 137.068154,51.4345321 L137.068154,63.2000073 C137.068154,63.4848393 136.781066,63.7372764 136.454176,63.7401433 L136.453439,63.7401433 L135.260861,63.7382798 C135.110868,63.7382798 134.961611,63.6832338 134.844786,63.5879072 C134.717273,63.4829758 134.643566,63.341633 134.643566,63.1992881 L134.649462,51.4345321 C134.649462,51.1501284 134.942816,50.8906422 135.264915,50.8906422 L136.449016,50.8918165 Z M147.515001,58.8697248 C147.713641,58.8793394 147.894592,58.9626055 148.0081,59.0924771 C148.095812,59.1926972 148.138562,59.3159633 148.127506,59.4392661 C147.633301,62.0268404 145.907454,63.6227409 143.621066,63.6227409 L143.447118,63.6227409 C139.816316,63.6227409 138.529025,60.2602128 138.529025,57.3804771 C138.529025,54.2395596 140.055863,51.0701284 143.466281,51.0701284 L143.558046,51.0722936 L143.639124,51.0701284 C145.984109,51.0701284 147.738702,52.6998532 148.113133,55.221211 C148.115344,55.5166606 147.86732,55.7548991 147.551118,55.7890275 L146.493055,55.7787156 C146.193068,55.7412844 145.973421,55.5258349 145.924038,55.2411376 C145.662378,53.845945 144.790057,52.9897248 143.590846,52.9530275 C141.604077,53.0113761 140.892437,55.2194862 140.892437,57.2656514 C140.892437,58.2917431 141.080021,61.6451046 143.496133,61.7166349 C144.73662,61.6810826 145.554766,60.8770422 145.91593,59.3254312 C146.018751,59.0386055 146.250191,58.8734679 146.526223,58.8734679 L147.515001,58.8697248 Z M154.588652,51.0400367 L154.588652,51.0400367 C158.359497,51.0400367 159.721232,54.2120367 159.738553,57.1805138 C159.740396,57.2990459 159.688801,57.4187523 159.592982,57.5159633 C159.477631,57.6323303 159.314738,57.701578 159.157006,57.701578 L151.653275,57.7027156 C151.659171,58.5053211 151.715557,59.2946055 152.095516,60.0939266 C152.55987,61.0729982 153.576656,61.728389 154.685577,61.7640807 C155.835773,61.728389 156.754161,61.0795927 157.259421,59.9368073 C157.378827,59.6634495 157.716404,59.5383119 157.960374,59.577578 L158.996693,59.7749725 C159.175432,59.8142385 159.320266,59.9167339 159.39987,60.0569541 C159.464363,60.1710495 159.477631,60.2994899 159.43746,60.4180404 C158.665012,62.4759523 156.880937,63.6532741 154.540374,63.6532741 C151.268525,63.6532741 149.154243,61.1912624 149.154243,57.3804771 C149.154243,54.3270092 150.854661,51.0400367 154.588652,51.0400367 Z M157.280428,55.9988991 C157.239152,54.4138716 156.407738,52.8492477 154.592337,52.7918899 C152.884917,52.8506789 151.877344,54.4524404 151.750937,55.9988991 L157.280428,55.9988991 Z M169.138762,57.0480734 C170.035406,57.6841101 170.549881,58.703156 170.549881,59.8433394 C170.549881,62.6425211 168.049006,63.6403728 165.708443,63.6403728 L165.650215,63.6399428 C163.029566,63.6201604 161.139721,62.4444147 160.595396,60.4947303 C160.562228,60.3768991 160.582497,60.2480257 160.652887,60.1317725 C160.73765,59.9922936 160.88359,59.8885138 161.043534,59.8546789 L162.099385,59.6373578 C162.390896,59.5783119 162.717049,59.7607706 162.784122,60.0205505 C163.150077,61.274833 164.632691,61.7511817 165.790995,61.7758385 C166.34785,61.7643706 168.189786,61.6036771 168.189786,60.0275596 C168.189786,58.9628991 167.171525,58.6253211 166.175745,58.4355229 L164.361081,58.0913394 C162.100122,57.6330642 160.955085,56.4804037 160.955085,54.6648807 C160.955085,52.009211 163.249212,51.0583853 165.395926,51.0536514 C167.77371,51.0536514 169.345141,52.0022018 169.963174,53.7970642 C170.002607,53.9104587 169.988234,54.0370275 169.922635,54.1534312 C169.840083,54.2997798 169.686404,54.4128807 169.521301,54.4491376 L168.510779,54.671633 C168.471715,54.6799266 168.431544,54.684367 168.391374,54.684367 C168.15846,54.684367 167.934023,54.5405872 167.832307,54.3263119 C167.408124,53.4164771 166.532855,52.8994128 165.367917,52.8701651 C165.029234,52.8791927 163.293068,52.9955963 163.293068,54.3886606 C163.293068,55.4103119 163.965643,55.7208073 165.127264,55.911156 L166.74771,56.2103119 C167.591286,56.378055 168.435967,56.5456147 169.138762,57.0480734 Z M121.002262,28.2407339 L121.002262,25.5691743 C121.003736,25.1640367 121.312568,24.8921101 121.683314,24.8924771 L133.703066,24.8921101 C134.08671,24.8921101 134.396279,25.1706422 134.396279,25.5662385 L134.396279,27.8572477 C134.392594,28.2407339 134.067178,28.7421651 133.49079,29.5384587 L127.265137,38.3900917 C129.575111,38.3354862 132.020706,38.6799266 134.119878,39.8551193 C134.594182,40.12 134.720221,40.5130642 134.758917,40.8968073 L134.758917,43.7474495 C134.758917,44.1405138 134.326995,44.594789 133.873697,44.3581284 C130.17398,42.4279266 125.263995,42.217211 121.172156,44.3804771 C120.754607,44.6025321 120.316788,44.1552661 120.316788,43.7622018 L120.316788,41.0535046 C120.316788,40.6213211 120.325633,39.8788991 120.76382,39.2176514 L127.977883,28.9137248 L121.697687,28.9122936 C121.313305,28.9122936 121.005947,28.6399266 121.002262,28.2407339 Z M77.1577146,44.9203303 L73.5000099,44.9203303 C73.1524818,44.8976881 72.8742383,44.6366606 72.8465982,44.3037798 L72.849178,25.6146789 C72.849178,25.2407339 73.1653805,24.9420183 73.554553,24.9420183 L76.9601801,24.9401835 C77.3169215,24.96 77.6021672,25.2278899 77.6264905,25.5677064 L77.6264905,28.0096514 L77.6943008,28.0096514 C78.5809948,25.6488073 80.2537728,24.5493578 82.5062555,24.5493578 C84.793012,24.5493578 86.2269797,25.6488073 87.251137,28.0096514 C88.1393051,25.6488073 90.152609,24.5493578 92.3048504,24.5493578 C93.8409021,24.5493578 95.5114689,25.1776147 96.5356262,26.5926606 C97.6961413,28.1666055 97.4569624,30.4461284 97.4569624,32.4527339 L97.4547512,44.2470092 C97.4547512,44.6198899 97.1389172,44.9203303 96.7501133,44.9203303 L93.0979366,44.9203303 C92.7301392,44.8976881 92.4408396,44.6055413 92.4408396,44.2487339 L92.4408396,34.3401835 C92.4408396,33.5540917 92.5082814,31.5868991 92.3380185,30.8403303 C92.0641974,29.5807339 91.2445767,29.2288073 90.1879883,29.2288073 C89.2994517,29.2288073 88.3773784,29.8187156 88.0018418,30.7605138 C87.6266736,31.7058716 87.6613159,33.2788624 87.6613159,34.3401835 L87.6613159,44.2470092 C87.6613159,44.6198899 87.3454818,44.9203303 86.9559409,44.9203303 L83.3030271,44.9203303 C82.9370724,44.8976881 82.6470357,44.6055413 82.6470357,44.2487339 L82.6422448,34.3401835 C82.6422448,32.255633 82.9846133,29.1893945 80.3908676,29.1893945 C77.7624797,29.1893945 77.8649323,32.1775046 77.8649323,34.3401835 L77.8627211,44.2470092 C77.8641952,44.6198899 77.5479926,44.9203303 77.1577146,44.9203303 Z M144.744728,24.5493578 C150.171766,24.5493578 153.107881,29.1893945 153.107881,35.0863119 C153.107881,40.7900183 149.863671,45.3129541 144.744728,45.3129541 C139.419036,45.3129541 136.516827,40.671633 136.516827,34.8906422 C136.516827,29.070422 139.451835,24.5493578 144.744728,24.5493578 L144.744728,24.5493578 Z M144.777896,28.3627156 C142.079855,28.3627156 141.90996,32.0198165 141.90996,34.3016514 C141.90996,36.5821651 141.876055,41.4583119 144.744728,41.4583119 C147.578389,41.4583119 147.714378,37.5255413 147.714378,35.1268991 C147.714378,33.5540917 147.646937,31.6668991 147.168947,30.1723303 C146.758031,28.8740183 145.939516,28.3627156 144.777896,28.3627156 L144.777896,28.3627156 Z M160.146889,44.9203303 L156.503189,44.9203303 C156.136128,44.8976881 155.846829,44.6055413 155.846829,44.2487339 L155.841669,25.5511927 C155.871889,25.2106422 156.175562,24.9420183 156.542622,24.9420183 L159.935719,24.9401835 C160.255607,24.9577982 160.518003,25.1743119 160.585077,25.4638532 L160.585077,28.3235596 L160.654361,28.3235596 C161.677044,25.7669725 163.111749,24.5493578 165.636579,24.5493578 C167.275452,24.5493578 168.880788,25.1376147 169.904208,26.7504587 C170.85945,28.2442936 170.85945,30.7605138 170.85945,32.5698349 L170.85945,44.3310092 C170.818542,44.6624587 170.521872,44.9203303 170.160708,44.9203303 L166.493053,44.9203303 C166.154738,44.8983853 165.88276,44.6495413 165.841853,44.3310092 L165.841853,34.1829358 C165.841853,32.1380917 166.0814,29.1485505 163.554359,29.1485505 C162.667296,29.1485505 161.84915,29.7398532 161.438971,30.6432294 C160.92634,31.7833028 160.858529,32.923633 160.858529,34.1829358 L160.858529,44.2470092 C160.852264,44.6198899 160.536062,44.9203303 160.146889,44.9203303 Z M115.107184,44.8730275 C114.864689,45.0884771 114.517529,45.1028257 114.244077,44.9577615 C113.029756,43.9525872 112.811583,43.4865688 112.147853,42.5305688 C110.140445,44.5665321 108.719008,45.177211 106.119734,45.177211 C103.039891,45.177211 100.645891,43.2851376 100.645891,39.5016147 C100.645891,36.5464954 102.25307,34.5362936 104.544986,33.5503486 C106.529176,32.6830826 109.300555,32.5251376 111.421103,32.2878899 L111.421103,31.8155596 C111.421103,30.9489908 111.489281,29.9237798 110.975544,29.1753394 C110.532197,28.5053211 109.676829,28.2300917 108.923176,28.2300917 C107.528273,28.2300917 106.288891,28.9421284 105.983745,30.4171743 C105.921831,30.7447339 105.680072,31.0701284 105.34876,31.0859083 L101.805301,30.7035963 C101.505314,30.6365138 101.173264,30.3982385 101.25987,29.9434128 C102.074331,25.6609174 105.95721,24.3669725 109.437281,24.3669725 C111.215092,24.3669725 113.542387,24.839633 114.945029,26.1794495 C116.723208,27.8354862 116.55184,30.0423119 116.55184,32.4467156 L116.55184,38.1195963 C116.55184,39.8260183 117.264217,40.5750092 117.933844,41.4947156 C118.165652,41.826422 118.217984,42.2194862 117.920208,42.4627523 C117.173557,43.0859083 115.846465,44.2326972 115.117135,44.8810642 L115.107184,44.8730275 L115.107184,44.8730275 Z M111.421103,35.9937248 L111.421103,35.9937248 L111.421103,35.2060183 C108.776499,35.2060183 105.982271,35.7705321 105.982271,38.871156 C105.982271,40.4484404 106.802997,41.5122202 108.204165,41.5122202 C109.230534,41.5122202 110.154818,40.8822018 110.736365,39.8565505 C111.455008,38.596367 111.421103,37.4128807 111.421103,35.9937248 Z M67.1704301,44.8730275 C66.9286715,45.0884771 66.5789323,45.1028257 66.3054797,44.9577615 C65.0911586,43.9525872 64.8737232,43.4865688 64.2092555,42.5305688 C62.2029538,44.5665321 60.7807793,45.177211 58.1800314,45.177211 C55.1012943,45.177211 52.7065573,43.2851376 52.7065573,39.5016147 C52.7065573,36.5464954 54.3152103,34.5362936 56.6071262,33.5503486 C58.5916844,32.6830826 61.3626952,32.5251376 63.4832426,32.2878899 L63.4832426,31.8155596 C63.4832426,30.9489908 63.5521586,29.9237798 63.0384215,29.1753394 C62.5939689,28.5053211 61.7378633,28.2300917 60.9864215,28.2300917 C59.5915185,28.2300917 58.3506629,28.9421284 58.0466219,30.4171743 C57.983234,30.7447339 57.742581,31.0701284 57.411637,31.0859083 L53.8667038,30.7035963 C53.5674538,30.6365138 53.2350357,30.3982385 53.3209043,29.9434128 C54.1353655,25.6609174 58.0186133,24.3669725 61.4983159,24.3669725 C63.2783374,24.3669725 65.60379,24.839633 67.0068008,26.1794495 C68.7857168,27.8354862 68.6139797,30.0423119 68.6139797,32.4467156 L68.6139797,38.1195963 C68.6139797,39.8260183 69.3267254,40.5750092 69.9945099,41.4947156 C70.2274236,41.826422 70.2801241,42.2194862 69.9830853,42.4627523 C69.2356974,43.0859083 67.9078676,44.2326972 67.1789064,44.8810642 L67.1704301,44.8730275 L67.1704301,44.8730275 Z M63.4832426,35.9937248 L63.4832426,35.9937248 L63.4832426,35.2060183 C60.8375336,35.2060183 58.0440422,35.7705321 58.0440422,38.871156 C58.0440422,40.4484404 58.8643999,41.5122202 60.2685163,41.5122202 C61.2934107,41.5122202 62.2184323,40.8822018 62.7996111,39.8565505 C63.5167793,38.596367 63.4832426,37.4128807 63.4832426,35.9937248 Z" id="Combined-Shape" fill="#000000"></path>
        </g>
    </g>
</svg>