<?xml version="1.0" encoding="UTF-8"?>
<svg width="192px" height="128px" viewBox="0 0 192 128" version="1.1" xmlns="http://www.w3.org/2000/svg" xmlns:xlink="http://www.w3.org/1999/xlink">
    <!-- Generator: Sketch 47.1 (45422) - http://www.bohemiancoding.com/sketch -->
    <title>Provider/AWS/128-disabled</title>
    <desc>Created with Sketch.</desc>
    <defs></defs>
    <g id="Symbols" stroke="none" stroke-width="1" fill="none" fill-rule="evenodd">
        <g id="Provider/AWS/128-disabled" fill="#A4AAB5">
            <path d="M53.3656552,49.1146789 L42.2068966,45.3474771 L42.2068966,29.0229358 L53.3793103,32.3715596 L53.3656552,49.1146789 Z M56.2758621,32.3715596 L67.4482759,29.0229358 L67.4093793,45.3361755 L56.2758621,49.1146789 L56.2758621,32.3715596 Z M65.1724138,27.255281 L54.7746207,30.0459404 L44.4827586,27.255281 L54.7597241,24 L65.1724138,27.255281 Z M81.5035862,49.1146789 L70.3448276,45.3474771 L70.3448276,29.0229358 L81.5172414,32.3715596 L81.5035862,49.1146789 Z M84.4137931,32.3715596 L95.5862069,29.0229358 L95.5473103,45.3361755 L84.4137931,49.1146789 L84.4137931,32.3715596 Z M93.3103448,27.255281 L82.9125517,30.0459404 L72.6206897,27.255281 L82.8976552,24 L93.3103448,27.255281 Z M11.1724138,56.2305046 L11.1588414,72.9736239 L0,69.206422 L0,52.8818807 L11.1724138,56.2305046 Z M14.0689655,56.2305046 L25.2413793,52.8818807 L25.2026069,69.1954553 L14.0689655,72.9736239 L14.0689655,56.2305046 Z M22.9655172,51.1142259 L12.5678483,53.9048853 L2.27586207,51.1142259 L12.5527862,47.858945 L22.9655172,51.1142259 Z M39.2967724,72.9736239 L28.137931,69.206422 L28.137931,52.8818807 L39.3103448,56.2305046 L39.2967724,72.9736239 Z M42.2068966,56.2305046 L53.3793103,52.8818807 L53.3404138,69.1954553 L42.2068966,72.9736239 L42.2068966,56.2305046 Z M51.1034483,51.1142259 L40.7057793,53.9048853 L30.4137931,51.1142259 L40.6907172,47.858945 L51.1034483,51.1142259 Z M25.2278069,96.8325688 L14.0689655,93.065367 L14.0689655,76.7408257 L25.2413793,80.0894495 L25.2278069,96.8325688 Z M28.137931,80.0894495 L39.3103448,76.7408257 L39.2715724,93.0544128 L28.137931,96.8325688 L28.137931,80.0894495 Z M37.0344828,74.9731709 L26.6368138,77.7638721 L16.3448276,74.9731709 L26.6217517,71.7178899 L37.0344828,74.9731709 Z" id="Combined-Shape"></path>
            <path d="M74.4863269,82.2991227 C74.7358441,82.2991227 74.9675682,82.4070321 75.0912924,82.5808257 C75.1752924,82.6989065 75.1992924,82.8390046 75.1579131,82.9650803 L71.6369475,96.0552946 C71.5574993,96.3863973 71.2868786,96.6123641 70.9653613,96.6123641 L69.8096372,96.6123641 C69.4628786,96.6123641 69.2257751,96.3239375 69.15212,96.0564415 L66.702051,87.320426 L64.4506027,96.0464668 C64.3703269,96.3783853 64.0922579,96.6123641 63.7748786,96.6123641 L62.60012,96.6123641 C62.2550165,96.6123641 62.0191544,96.3348926 61.9384648,96.0593841 L58.2805337,82.9596806 C58.2412234,82.8416416 58.2648096,82.7059386 58.350051,82.5862253 C58.4758441,82.4096692 58.7104648,82.2999599 58.9628786,82.2999599 L60.1442579,82.3020528 C60.4529475,82.3020528 60.8464648,82.518039 60.939982,82.8395069 L63.3077062,91.6312769 L65.5992924,82.8666726 C65.670051,82.5870625 65.9253613,82.3020528 66.2754303,82.3020528 L67.2474303,82.3020528 C67.5991544,82.3020528 67.8577751,82.5832953 67.9318441,82.8609381 L70.3951544,91.7176296 L72.8857751,82.8416416 C72.98012,82.5079094 73.36412,82.3020528 73.6653613,82.3020528 L74.4863269,82.2991227 Z M81.6230165,82.205445 L81.6230165,82.205445 C85.8557062,82.205445 87.3854993,85.8231726 87.4061889,89.2094266 C87.4074303,89.3459667 87.3486717,89.4822976 87.2406717,89.5920069 C87.1115682,89.7243194 86.9286717,89.8029702 86.751982,89.8029702 L78.3267406,89.8059002 C78.3337751,90.720535 78.3966717,91.6200172 78.822051,92.5325172 C79.3454993,93.6496181 80.487982,94.3973323 81.7322579,94.4362475 C83.0253613,94.397663 84.0557062,93.6576297 84.6209475,92.353324 C84.7392924,92.0817506 85.0972234,91.8945206 85.4096372,91.9440803 L86.5732234,92.1692334 C86.7710165,92.2132259 86.9381889,92.3328974 87.0263269,92.4914966 C87.0987406,92.6221389 87.1132234,92.767825 87.0668786,92.902063 C86.2012234,95.249532 84.1972234,96.5930702 81.5683958,96.5930702 C77.8951544,96.5930702 75.5216372,93.7845091 75.5216372,89.4375097 C75.5216372,85.9544805 77.4308786,82.205445 81.6230165,82.205445 Z M84.64412,87.8608102 C84.5990165,86.0542276 83.6663269,84.2693693 81.6275682,84.2020201 C79.7117062,84.2723412 78.5808096,86.0990155 78.438051,87.8608102 L84.64412,87.8608102 Z M95.2562579,82.0839318 L95.2562579,82.0839318 C96.8332234,82.0839318 98.3667406,82.955453 99.2576372,84.3581497 C100.028534,85.5685935 100.470879,87.3035992 100.470879,89.1181766 C100.470879,92.7635722 98.7974993,96.4419899 95.0588786,96.4419899 L94.8416372,96.4419899 C93.4223269,96.4419899 92.09612,95.6990136 91.2155682,94.4341253 L90.8365337,95.6509441 C90.7558441,95.90536 90.5166717,96.1792356 90.1806717,96.1792356 L89.8248096,96.1811945 C89.4755682,96.1811945 89.1590165,95.8966954 89.1577751,95.5835782 L89.1577751,78.3448584 C89.1586027,78.0057683 89.5128096,77.7521519 89.8293613,77.7521519 L91.0409475,77.7521519 C91.3906027,77.7521519 91.7071544,78.0346921 91.7071544,78.3448584 L91.7083958,83.8671577 C92.547982,82.6686433 93.6416372,82.0839318 95.0332234,82.0839318 L95.2562579,82.0839318 Z M97.7712924,89.4584386 C97.7712924,88.5928194 97.62812,84.2710017 94.806051,84.1583624 C93.0101889,84.2350459 91.7543269,86.2157569 91.7083958,88.020707 L91.7083958,90.3768406 C91.7671544,91.4488188 91.995982,92.3152334 92.3878441,92.9419576 C92.919982,93.7706123 93.8725337,94.3311133 94.8151544,94.3675756 C97.6277062,94.2650575 97.7712924,90.2604341 97.7712924,89.4584386 Z M113.737499,89.0704587 C114.744672,89.7970682 115.322741,90.9591244 115.322741,92.2588091 C115.322741,95.4516256 112.515154,96.5898003 109.887568,96.5898003 L109.822189,96.5893097 C106.88012,96.5667454 104.757775,95.2256605 104.144948,93.0018017 C104.10812,92.8665801 104.130879,92.7184454 104.210741,92.5861663 C104.305913,92.4274123 104.469361,92.3098337 104.64812,92.2717431 L105.835706,92.0238612 C106.157223,91.9561772 106.523844,92.164629 106.601223,92.4592661 C106.986879,93.7995528 108.575017,94.4324887 109.977775,94.4630658 C110.603017,94.4499853 112.671154,94.2666942 112.671154,92.4689352 C112.671154,91.2545568 111.527844,90.8695069 110.409775,90.6530183 L108.373085,90.2604341 C105.834051,89.7372116 104.547982,88.4224581 104.547982,86.3521296 C104.547982,83.3230063 107.124672,82.2384708 109.535844,82.2330711 C112.204396,82.2330711 113.968396,83.3150115 114.663154,85.3622764 C114.70743,85.491617 114.691292,85.636445 114.617223,85.7690505 C114.524534,85.9361886 114.351568,86.0646921 114.166189,86.1060476 L113.030741,86.3598314 C112.987706,86.3692913 112.942189,86.3743561 112.897499,86.3743561 C112.636396,86.3743561 112.385223,86.2098968 112.271844,85.9654472 C111.794741,84.9281692 110.811982,84.3383928 109.505223,84.3050321 C108.435154,84.3342907 107.173085,84.8051909 107.173085,86.0370659 C107.173085,87.202387 107.928672,87.5565459 109.234189,87.7736623 L111.053637,88.114887 C112.002465,88.3065539 112.949637,88.497844 113.737499,89.0704587 Z M122.726741,82.2175419 L122.726741,82.2175419 C126.960258,82.2175419 128.48881,85.8356044 128.508258,89.2215235 C128.509499,89.3588589 128.450741,89.4952317 128.342327,89.6054432 C128.213223,89.7368767 128.031568,89.8150671 127.85612,89.8150671 L119.431706,89.81716 C119.437913,90.7339713 119.501223,91.6342489 119.92743,92.544635 C120.44881,93.6613885 121.590879,94.4089437 122.836396,94.4491649 C124.128258,94.4089437 125.159017,93.6689104 125.724672,92.3654209 C125.858741,92.0536221 126.239017,91.910887 126.511706,91.9556749 L127.676948,92.180828 C127.874327,92.2239834 128.041913,92.3436967 128.130051,92.5024633 C128.202879,92.6334196 128.217361,92.7794322 128.17143,92.9138334 C127.304948,95.2608169 125.300948,96.6045158 122.671706,96.6045158 C118.998051,96.6045158 116.62412,93.7962837 116.62412,89.4496067 C116.62412,85.9667448 118.533775,82.2175419 122.726741,82.2175419 Z M125.749085,87.8737443 C125.701913,86.0658222 124.767982,84.2811732 122.730051,84.2157494 C120.814189,84.2828056 119.683292,86.1103171 119.541361,87.8737443 L125.749085,87.8737443 Z M136.463844,82.3769364 C136.801913,82.4142317 137.067154,82.685805 137.067154,82.995176 L137.067154,84.177324 C137.067154,84.5100516 136.775017,84.8038933 136.442327,84.8063211 C135.114879,84.8167856 134.125085,85.4711485 133.416258,86.805031 C132.92012,87.7414736 132.823292,88.5330046 132.823292,89.5836772 L132.822465,95.9552294 C132.819568,96.2967974 132.459982,96.5503949 132.140534,96.5503949 L130.91281,96.5508855 C130.565223,96.5508855 130.260672,96.2724319 130.260672,95.9552294 L130.262327,83.3171044 C130.26481,82.9981061 130.569361,82.7201703 130.914465,82.7201703 L131.966741,82.7201703 C132.319706,82.7201703 132.630465,82.9969759 132.631706,83.3120396 L132.62881,84.6130636 C133.425775,83.1274467 134.574051,82.3498125 135.987982,82.3498125 C136.141499,82.3498125 136.299568,82.3586445 136.463844,82.3769364 Z M149.353913,82.1287615 C149.607982,82.1287615 149.853361,82.2446657 149.979982,82.4233985 C150.063982,82.5422747 150.086741,82.6771405 150.04412,82.8022534 L145.783706,95.9774642 C145.668258,96.3324401 145.416258,96.5441816 145.10881,96.5441816 L143.433361,96.5441816 C143.079154,96.5441816 142.855292,96.2394061 142.770879,95.9786111 L138.378465,82.7979839 C138.336672,82.672578 138.359844,82.5381726 138.444258,82.4196313 C138.570051,82.242531 138.815844,82.1279243 139.069913,82.1279243 L140.454465,82.1292219 C140.759844,82.1292219 141.150051,82.3519472 141.24481,82.6833773 L144.454189,92.6651394 L147.596948,82.6733733 C147.691292,82.3498125 148.080672,82.1292219 148.384396,82.1292219 L149.353913,82.1287615 Z M152.539292,77.0623354 C153.432672,77.0623354 154.159706,77.7989071 154.159706,78.705254 C154.159706,79.6113916 153.432672,80.3476703 152.539292,80.3476703 C151.646327,80.3476703 150.92012,79.6113916 150.92012,78.705254 C150.92012,77.7989071 151.646327,77.0623354 152.539292,77.0623354 Z M153.205913,82.0484782 C153.575844,82.0484782 153.901085,82.3377156 153.901085,82.6675132 L153.901085,96.0875084 C153.901085,96.4123948 153.578741,96.7003309 153.211706,96.703601 L153.210879,96.703601 L151.871844,96.7014754 C151.70343,96.7014754 151.535844,96.6386885 151.404672,96.5299566 C151.261499,96.4102692 151.178741,96.2490502 151.178741,96.086688 L151.185361,82.6675132 C151.185361,82.3431153 151.514741,82.0471388 151.876396,82.0471388 L153.205913,82.0484782 Z M165.630879,91.1482798 C165.853913,91.1592466 166.057085,91.2542219 166.184534,91.4023567 C166.283017,91.5166703 166.331017,91.6572706 166.318603,91.7979128 C165.763706,94.7493648 163.825913,96.5696889 161.258741,96.5696889 L161.06343,96.5696889 C156.986741,96.5696889 155.541361,92.7343053 155.541361,89.4496067 C155.541361,85.8669977 157.255706,82.2518653 161.084948,82.2518653 L161.187982,82.2543349 L161.279017,82.2518653 C163.911982,82.2518653 165.882051,84.1107701 166.302465,86.9866938 C166.304948,87.3236909 166.026465,87.5954318 165.67143,87.6343595 L164.48343,87.6225975 C164.146603,87.5799025 163.899982,87.3341554 163.844534,87.0094226 C163.550741,85.418031 162.571292,84.4414048 161.22481,84.399547 C158.994051,84.4661009 158.195017,86.9847265 158.195017,89.3186336 C158.195017,90.4890195 158.405637,94.3139474 161.118465,94.3955366 C162.511292,94.3549848 163.429913,93.4378763 163.83543,91.66807 C163.950879,91.3409094 164.210741,91.1525493 164.520672,91.1525493 L165.630879,91.1482798 Z M173.573223,82.2175419 L173.573223,82.2175419 C177.807154,82.2175419 179.33612,85.8356044 179.355568,89.2215235 C179.357637,89.3567242 179.299706,89.4932643 179.19212,89.6041456 C179.062603,89.7368767 178.879706,89.8158624 178.702603,89.8158624 L170.277361,89.81716 C170.283982,90.7326319 170.347292,91.6329094 170.773913,92.544635 C171.295292,93.6613885 172.436948,94.4089437 173.682051,94.4496546 C174.973499,94.4089437 176.004672,93.6689104 176.571982,92.3654209 C176.706051,92.0536221 177.085085,91.910887 177.359017,91.9556749 L178.522603,92.180828 C178.723292,92.2256158 178.885913,92.3425247 178.975292,92.5024633 C179.047706,92.6326034 179.062603,92.7791057 179.017499,92.9143273 C178.150189,95.2616331 176.147017,96.6045158 173.519017,96.6045158 C169.845361,96.6045158 167.47143,93.7962837 167.47143,89.4496067 C167.47143,85.9667448 169.380672,82.2175419 173.573223,82.2175419 Z M176.595568,87.8737443 C176.549223,86.0658222 175.615706,84.2811732 173.577361,84.2157494 C171.660258,84.2828056 170.528948,86.1098148 170.387017,87.8737443 L176.595568,87.8737443 Z M189.910189,89.0704587 C190.916948,89.7959381 191.494603,90.9582873 191.494603,92.2588091 C191.494603,95.4516256 188.686603,96.5898003 186.058603,96.5898003 L185.993223,96.5893097 C183.050741,96.5667454 180.92881,95.2256605 180.317637,93.0018017 C180.280396,92.8674005 180.303154,92.7204043 180.382189,92.587803 C180.477361,92.4287099 180.641223,92.310336 180.82081,92.2717431 L182.006327,92.0238612 C182.333637,91.956512 182.699844,92.164629 182.775154,92.4609404 C183.186051,93.8916064 184.850741,94.4349416 186.151292,94.4630658 C186.776534,94.4499853 188.844672,94.2666942 188.844672,92.4689352 C188.844672,91.2545568 187.701361,90.8695069 186.583292,90.6530183 L184.545775,90.2604341 C182.007154,89.7377139 180.721499,88.4229604 180.721499,86.3521296 C180.721499,83.3230063 183.297361,82.2384708 185.707706,82.2330711 C188.377499,82.2330711 190.141913,83.3150115 190.835844,85.3622764 C190.88012,85.491617 190.863982,85.6359845 190.790327,85.7687575 C190.697637,85.9356864 190.525085,86.0646921 190.339706,86.1060476 L189.205085,86.3598314 C189.161223,86.3692913 189.11612,86.3743561 189.071017,86.3743561 C188.809499,86.3743561 188.557499,86.2103572 188.443292,85.9659495 C187.967017,84.9281692 186.984258,84.3383928 185.676258,84.3050321 C185.295982,84.3153291 183.346603,84.4481021 183.346603,86.0370659 C183.346603,87.202387 184.101775,87.5565459 185.406051,87.7736623 L187.225499,88.114887 C188.172672,88.306219 189.121085,88.4973417 189.910189,89.0704587 Z M135.862189,56.2120872 L135.862189,53.1648394 C135.863844,52.7027294 136.210603,52.3925631 136.626879,52.3929817 L150.122741,52.3925631 C150.553499,52.3925631 150.901085,52.7102638 150.901085,53.1614908 L150.901085,55.7746732 C150.896948,56.2120872 150.531568,56.7840321 149.884396,57.6923045 L142.894189,67.7886984 C145.487844,67.726414 148.233775,68.1192913 150.590741,69.4597454 C151.123292,69.761875 151.26481,70.2102139 151.308258,70.6479209 L151.308258,73.8994346 C151.308258,74.3477735 150.823292,74.8659312 150.314327,74.5959903 C146.160258,72.3943538 140.647292,72.1540063 136.052948,74.6214817 C135.58412,74.8747632 135.092534,74.3646003 135.092534,73.9162615 L135.092534,70.8266537 C135.092534,70.3336944 135.102465,69.4868693 135.594465,68.7326336 L143.694465,56.9797173 L136.643017,56.9780849 C136.21143,56.9780849 135.866327,56.6674163 135.862189,56.2120872 Z M86.6332234,75.2372517 L82.5263269,75.2372517 C82.13612,75.2114255 81.8237062,74.9136909 81.7926717,74.5339989 L81.7955682,53.2167431 C81.7955682,52.7902122 82.1506027,52.4494897 82.5875682,52.4494897 L86.4114303,52.4473968 C86.811982,52.47 87.1322579,52.7755619 87.1595682,53.1631651 L87.1595682,55.9485086 L87.2357062,55.9485086 C88.2312924,53.2556709 90.1094993,52.0016112 92.6386027,52.0016112 C95.2061889,52.0016112 96.8162579,53.2556709 97.9661889,55.9485086 C98.9634303,53.2556709 101.223982,52.0016112 103.640534,52.0016112 C105.365223,52.0016112 107.240948,52.7182167 108.390879,54.3322534 C109.693913,56.1275344 109.425361,58.7276153 109.425361,61.0163997 L109.422879,74.4692448 C109.422879,74.8945619 109.068258,75.2372517 108.631706,75.2372517 L104.531017,75.2372517 C104.118051,75.2114255 103.793223,74.8781955 103.793223,74.4712122 L103.793223,63.1692718 C103.793223,62.2726359 103.868948,60.0288068 103.677775,59.1772517 C103.370327,57.7405247 102.450051,57.3391084 101.263706,57.3391084 C100.266051,57.3391084 99.2307406,58.0119725 98.8090855,59.086211 C98.3878441,60.1645097 98.4267406,61.9587024 98.4267406,63.1692718 L98.4267406,74.4692448 C98.4267406,74.8945619 98.07212,75.2372517 97.6347406,75.2372517 L93.5332234,75.2372517 C93.1223269,75.2114255 92.7966717,74.8781955 92.7966717,74.4712122 L92.7912924,63.1692718 C92.7912924,60.7915814 93.1757062,57.2941531 90.2634303,57.2941531 C87.3122579,57.2941531 87.4272924,60.7024662 87.4272924,63.1692718 L87.4248096,74.4692448 C87.4264648,74.8945619 87.0714303,75.2372517 86.6332234,75.2372517 Z M162.520396,52.0016112 C168.613913,52.0016112 171.910603,57.2941531 171.910603,64.0203245 C171.910603,70.5261147 168.267982,75.6850883 162.520396,75.6850883 C156.540672,75.6850883 153.282051,70.3910814 153.282051,63.7971388 C153.282051,57.1584501 156.577499,52.0016112 162.520396,52.0016112 L162.520396,52.0016112 Z M162.557637,56.3512225 C159.528258,56.3512225 159.337499,60.5226032 159.337499,63.1253211 C159.337499,65.7265321 159.29943,71.288387 162.520396,71.288387 C165.702051,71.288387 165.854741,66.8025705 165.854741,64.0666193 C165.854741,62.2726359 165.779017,60.1200568 165.242327,58.4153142 C164.780948,56.9344272 163.861913,56.3512225 162.557637,56.3512225 L162.557637,56.3512225 Z M179.814051,75.2372517 L175.722879,75.2372517 C175.310741,75.2114255 174.985913,74.8781955 174.985913,74.4712122 L174.98012,53.1443291 C175.014051,52.7558888 175.355017,52.4494897 175.767154,52.4494897 L179.576948,52.4473968 C179.93612,52.4674885 180.230741,52.7144495 180.306051,53.0447076 L180.306051,56.3065602 L180.383844,56.3065602 C181.53212,53.390453 183.143017,52.0016112 185.977913,52.0016112 C187.818051,52.0016112 189.620534,52.6725917 190.769637,54.512242 C191.842189,56.2161474 191.842189,59.086211 191.842189,61.1499679 L191.842189,74.5650573 C191.796258,74.943117 191.463154,75.2372517 191.057637,75.2372517 L186.939568,75.2372517 C186.559706,75.2122208 186.254327,74.928383 186.208396,74.5650573 L186.208396,62.9899111 C186.208396,60.6575109 186.477361,57.2475654 183.639982,57.2475654 C182.643982,57.2475654 181.725361,57.9220201 181.26481,58.9524335 C180.689223,60.2528297 180.613085,61.5535189 180.613085,62.9899111 L180.613085,74.4692448 C180.606051,74.8945619 180.251017,75.2372517 179.814051,75.2372517 Z M129.243154,75.183297 C128.970879,75.4290442 128.581085,75.4454106 128.274051,75.2799467 C126.910603,74.1334197 126.665637,73.6018675 125.920396,72.51143 C123.666465,74.8337007 122.070465,75.5302563 119.151982,75.5302563 C115.693913,75.5302563 113.005913,73.3721101 113.005913,69.0565292 C113.005913,65.6858463 114.810465,63.3929599 117.383844,62.2683664 C119.611706,61.2791411 122.72343,61.0989851 125.104396,60.8283744 L125.104396,60.2896227 C125.104396,59.3011927 125.180948,58.1318114 124.60412,57.2781216 C124.106327,56.5138819 123.145913,56.1999484 122.299706,56.1999484 C120.733499,56.1999484 119.341913,57.0121153 118.999292,58.6945894 C118.929775,59.0682122 118.658327,59.4393653 118.286327,59.4573641 L114.307706,59.0212896 C113.970879,58.9447735 113.598051,58.6729908 113.695292,58.1542053 C114.609775,53.2694839 118.969499,51.793578 122.876948,51.793578 C124.873085,51.793578 127.486189,52.3327064 129.061085,53.8609346 C131.057637,55.7498515 130.865223,58.267012 130.865223,61.009535 L130.865223,67.4801646 C130.865223,69.4265522 131.665085,70.2808698 132.416948,71.32991 C132.677223,71.7082626 132.735982,72.1566015 132.401637,72.4340768 C131.563292,73.1448641 130.073223,74.4529203 129.254327,75.1924639 L129.243154,75.183297 L129.243154,75.183297 Z M125.104396,65.0553423 L125.104396,65.0553423 L125.104396,64.1568647 C122.135017,64.1568647 118.997637,64.8007632 118.997637,68.3374123 C118.997637,70.1365023 119.919154,71.3498761 121.492396,71.3498761 C122.64481,71.3498761 123.682603,70.6312615 124.335568,69.4613779 C125.142465,68.0239811 125.104396,66.6740671 125.104396,65.0553423 Z M75.4194303,75.183297 C75.147982,75.4290442 74.7552924,75.4454106 74.4482579,75.2799467 C73.0848096,74.1334197 72.8406717,73.6018675 72.0946027,72.51143 C69.8419131,74.8337007 68.2450855,75.5302563 65.3249475,75.5302563 C61.86812,75.5302563 59.1792924,73.3721101 59.1792924,69.0565292 C59.1792924,65.6858463 60.9854993,63.3929599 63.5588786,62.2683664 C65.7871544,61.2791411 68.8984648,61.0989851 71.2794303,60.8283744 L71.2794303,60.2896227 C71.2794303,59.3011927 71.3568096,58.1318114 70.779982,57.2781216 C70.2809475,56.5138819 69.3197062,56.1999484 68.475982,56.1999484 C66.9097751,56.1999484 65.5165337,57.0121153 65.1751544,58.6945894 C65.103982,59.0682122 64.8337751,59.4393653 64.4621889,59.4573641 L60.4819131,59.0212896 C60.1459131,58.9447735 59.7726717,58.6729908 59.8690855,58.1542053 C60.7835682,53.2694839 65.1437062,51.793578 69.0507406,51.793578 C71.0493613,51.793578 73.6603958,52.3327064 75.2357062,53.8609346 C77.2330855,55.7498515 77.0402579,58.267012 77.0402579,61.009535 L77.0402579,67.4801646 C77.0402579,69.4265522 77.8405337,70.2808698 78.5903269,71.32991 C78.8518441,71.7082626 78.9110165,72.1566015 78.5774993,72.4340768 C77.7383269,73.1448641 76.2474303,74.4529203 75.4289475,75.1924639 L75.4194303,75.183297 L75.4194303,75.183297 Z M71.2794303,65.0553423 L71.2794303,65.0553423 L71.2794303,64.1568647 C68.3088096,64.1568647 65.1722579,64.8007632 65.1722579,68.3374123 C65.1722579,70.1365023 66.0933613,71.3498761 67.6699131,71.3498761 C68.8206717,71.3498761 69.8592924,70.6312615 70.5118441,69.4613779 C71.3170855,68.0239811 71.2794303,66.6740671 71.2794303,65.0553423 Z" id="Combined-Shape"></path>
        </g>
    </g>
</svg>