<?xml version="1.0" encoding="UTF-8"?>
<svg width="192px" height="64px" viewBox="0 0 192 64" version="1.1" xmlns="http://www.w3.org/2000/svg" xmlns:xlink="http://www.w3.org/1999/xlink">
    <!-- Generator: Sketch 47.1 (45422) - http://www.bohemiancoding.com/sketch -->
    <title>Provider/Azure/64</title>
    <desc>Created with Sketch.</desc>
    <defs></defs>
    <g id="Symbols" stroke="none" stroke-width="1" fill="none" fill-rule="evenodd">
        <g id="Provider/Azure/64" fill="#0056B8">
            <path d="M40.055418,33.3367217 C37.9585197,33.3367217 35.9986187,34.3324193 34.7288303,35.965439 L16.5389362,35.965439 C18.398186,33.0776323 21.4111959,31.0238287 24.9218697,30.5009219 C26.5756236,23.6799679 32.6407855,18.6201598 39.8732209,18.6201598 C45.9873104,18.6201598 51.2691644,22.2355917 53.7560858,27.4741147 C61.1884255,27.5213938 67.2,33.6473453 67.2,41.1997069 C67.2,48.7813815 61.1422937,54.927663 53.66988,54.927663 L53.66988,55 L26.7000395,55 C20.5962015,55 15.5464043,50.4281121 14.6908698,44.4756749 L34.7288303,44.4756749 C35.9986187,46.1082218 37.9585197,47.1039194 40.055418,47.1039194 C43.7962847,47.1039194 46.8400491,44.0161222 46.8400491,40.2205569 C46.8400491,36.4245189 43.7962847,33.3367217 40.055418,33.3367217 Z M40.055418,35.700487 C42.5157787,35.700487 44.5101621,37.724032 44.5101621,40.2203678 C44.5101621,42.7167037 42.5157787,44.7402487 40.055418,44.7402487 C38.261405,44.7402487 36.7194858,43.6618127 36.01353,42.1115314 L11.0879324,42.1115314 C10.2887812,42.1115314 9.50966695,42.0231195 8.75804539,41.8595338 C3.75950573,40.7702236 0,36.2536523 0,30.8609995 C0,24.7114084 4.88903497,19.7007706 10.9299661,19.6147227 C10.9826215,19.6137771 11.034811,19.6104676 11.0879324,19.6104676 C11.3665869,19.6104676 11.6415136,19.6246513 11.9150423,19.6449813 C11.9197021,19.6336343 11.9238959,19.6218146 11.9285557,19.6104676 C13.9508976,14.5667344 18.831545,11 24.5206632,11 C29.0751264,11 33.1072289,13.2892535 35.5736473,16.7893244 C34.2894136,17.1127133 33.0564374,17.5779396 31.8942897,18.1703466 C30.0881613,16.0966857 27.4563209,14.7823271 24.5206632,14.7823271 C20.9517422,14.7823271 17.8292276,16.7221881 16.0976556,19.6104676 C15.9098667,19.9234552 15.738387,20.2468441 15.5850804,20.5811073 C15.1820099,21.4576616 14.9028895,22.4013522 14.7654261,23.3927947 L11.0879324,23.3927947 L10.9998627,23.3927947 C10.9993967,23.394213 10.9993967,23.3961042 10.9993967,23.3975226 C6.98220549,23.44622 3.72781927,26.7732495 3.72781927,30.8609995 C3.72781927,34.1520968 5.8391629,36.9472365 8.75804539,37.9396246 C9.49149383,38.1887854 10.2729379,38.3292043 11.0879324,38.3292043 L36.01353,38.3292043 C36.7194858,36.778923 38.261405,35.700487 40.055418,35.700487 Z" id="Combined-Shape"></path>
            <path d="M106.410938,50.5201823 L102.269531,50.5201823 L98.8851563,41.4036458 L85.3476562,41.4036458 L82.1636719,50.5201823 L78,50.5201823 L90.2460938,18 L94.1203125,18 L106.410938,50.5201823 Z M97.6605469,37.9792752 L92.6507813,24.1230469 C92.4874992,23.6694856 92.3242196,22.9437984 92.1609375,21.9459635 L92.071875,21.9459635 C91.9234368,22.8682048 91.7527353,23.593892 91.5597656,24.1230469 L86.5945313,37.9792752 L97.6605469,37.9792752 Z M125.539654,28.3638238 L112.046685,47.3452691 L125.40606,47.3452691 L125.40606,50.5201823 L106.68067,50.5201823 L106.68067,49.3636068 L120.173638,30.4728733 L107.94981,30.4728733 L107.94981,27.2979601 L125.539654,27.2979601 L125.539654,28.3638238 Z M147.718761,50.5201823 L144.067199,50.5201823 L144.067199,46.8463542 L143.978136,46.8463542 C142.464066,49.6584342 140.118777,51.0644531 136.942199,51.0644531 C131.509359,51.0644531 128.79298,47.7686238 128.79298,41.1768663 L128.79298,27.2979601 L132.422277,27.2979601 L132.422277,40.5872396 C132.422277,45.4857016 134.262884,47.9348958 137.944152,47.9348958 C139.725411,47.9348958 141.191217,47.265903 142.341613,45.9278971 C143.492009,44.5898913 144.067199,42.8399269 144.067199,40.6779514 L144.067199,27.2979601 L147.718761,27.2979601 L147.718761,50.5201823 Z M166.001384,31.0625 C165.3631,30.5635826 164.442796,30.3141276 163.240447,30.3141276 C161.681845,30.3141276 160.379319,31.0624925 159.33283,32.5592448 C158.28634,34.0559971 157.763103,36.0969923 157.763103,38.6822917 L157.763103,50.5201823 L154.11154,50.5201823 L154.11154,27.2979601 L157.763103,27.2979601 L157.763103,32.0830078 L157.852165,32.0830078 C158.371699,30.4501871 159.165832,29.1764549 160.234587,28.261773 C161.303343,27.3470911 162.498253,26.8897569 163.819353,26.8897569 C164.769358,26.8897569 165.496694,26.9955863 166.001384,27.2072483 L166.001384,31.0625 Z M186.71096,39.8388672 L170.612913,39.8388672 C170.672289,42.4241666 171.355094,44.4198063 172.661351,45.8258464 C173.967607,47.2318864 175.763683,47.9348958 178.049632,47.9348958 C180.617614,47.9348958 182.977746,47.0731423 185.130101,45.3496094 L185.130101,48.8420139 C183.126185,50.3236475 180.476602,51.0644531 177.181273,51.0644531 C173.960163,51.0644531 171.429329,50.0099389 169.588695,47.9008789 C167.74806,45.7918189 166.827757,42.8248166 166.827757,38.999783 C166.827757,35.3864113 167.833411,32.4420868 169.844749,30.1667209 C171.856087,27.8913551 174.353523,26.7536892 177.337132,26.7536892 C180.320741,26.7536892 182.628921,27.7363906 184.261741,29.7018229 C185.894562,31.6672552 186.71096,34.3961414 186.71096,37.8885634 L186.71096,39.8388672 Z M182.970335,36.6866319 C182.955491,34.5397751 182.447098,32.8691828 181.44514,31.6748047 C180.443182,30.4804266 179.051594,29.8832465 177.270335,29.8832465 C175.548452,29.8832465 174.086357,30.5106636 172.884007,31.7655165 C171.681657,33.0203694 170.939477,34.6607248 170.657445,36.6866319 L182.970335,36.6866319 Z" id="Combined-Shape"></path>
        </g>
    </g>
</svg>