<?xml version="1.0" encoding="UTF-8"?>
<svg width="192px" height="128px" viewBox="0 0 192 128" version="1.1" xmlns="http://www.w3.org/2000/svg" xmlns:xlink="http://www.w3.org/1999/xlink">
    <g id="Symbols" stroke="none" stroke-width="1" fill="none" fill-rule="evenodd">
        <g id="Provider/Azure/azure-128" fill="#2075B8">
            <g id="Group" transform="translate(10.000000, 10.000000)">
                <path d="M82.1236409,37.4918534 L93.768584,5.09666116 L132.010002,72.1924632 L61.0189786,72.1924632 L104.493433,64.4175006 L82.1236409,37.4918534 Z M63.4077733,23.1997198 L90.7201967,0 L61.101787,64.3013565 L61.101787,64.2460498 L40,64.2460498 L63.4077733,23.1997198 Z" id="Combined-Shape-Copy"></path>
                <path d="M18.8780488,106.689119 L16.7804878,106.689119 L16.7804878,94.357513 C16.7804878,93.4248705 16.7804878,92.1813472 16.8853659,90.8341969 C16.6756098,91.6632124 16.4658537,92.2849741 16.3609756,92.5958549 L9.96341463,106.689119 L8.91463415,106.689119 L2.62195122,92.6994819 C2.41219512,92.2849741 2.30731707,91.6632124 2.09756098,90.8341969 L2.09756098,94.357513 L2.09756098,106.689119 L5.68434189e-14,106.689119 L5.68434189e-14,88.3471503 L2.83170732,88.3471503 L8.49512195,101.093264 C8.91463415,102.025907 9.22926829,102.854922 9.33414634,103.26943 L9.43902439,103.26943 C9.85853659,102.233161 10.0682927,101.507772 10.3829268,100.989637 L16.1512195,88.2435233 L18.8780488,88.2435233 L18.8780488,106.689119 Z M23.9121951,90.2124352 C23.4926829,90.2124352 23.1780488,90.1088083 22.9682927,89.7979275 C22.7585366,89.4870466 22.5487805,89.1761658 22.5487805,88.865285 C22.5487805,88.5544041 22.6536585,88.1398964 22.9682927,87.9326425 C23.2829268,87.6217617 23.597561,87.5181347 23.9121951,87.5181347 C24.3317073,87.5181347 24.6463415,87.6217617 24.8560976,87.9326425 C25.1707317,88.2435233 25.2756098,88.5544041 25.2756098,88.865285 C25.2756098,89.2797927 25.1707317,89.5906736 24.8560976,89.7979275 C24.6463415,90.1088083 24.3317073,90.2124352 23.9121951,90.2124352 Z M24.9609756,106.689119 L22.8634146,106.689119 L22.8634146,93.5284974 L24.9609756,93.5284974 L24.9609756,106.689119 Z M37.5463415,106.067358 C36.497561,106.689119 35.3439024,107 33.8756098,107 C31.9878049,107 30.4146341,106.378238 29.2609756,105.134715 C28.1073171,103.891192 27.4780488,102.336788 27.4780488,100.367876 C27.4780488,98.1917098 28.1073171,96.5336788 29.3658537,95.1865285 C30.8341463,93.9430052 32.4073171,93.2176166 34.504878,93.2176166 C35.6585366,93.2176166 36.7073171,93.4248705 37.6512195,93.9430052 L37.6512195,96.119171 C36.7073171,95.3937824 35.6585366,95.0829016 34.504878,95.0829016 C33.1414634,95.0829016 32.0926829,95.6010363 31.1487805,96.5336788 C30.3097561,97.4663212 29.8902439,98.7098446 29.8902439,100.264249 C29.8902439,101.818653 30.3097561,102.958549 31.1487805,103.891192 C31.9878049,104.823834 33.0365854,105.238342 34.4,105.238342 C35.5536585,105.238342 36.602439,104.823834 37.6512195,104.098446 L37.6512195,106.067358 L37.5463415,106.067358 Z M47.0902439,95.7046632 C46.6707317,95.3937824 46.1463415,95.2901554 45.4121951,95.2901554 C44.4682927,95.2901554 43.7341463,95.7046632 43.104878,96.5336788 C42.4756098,97.3626943 42.1609756,98.5025907 42.1609756,99.9533679 L42.1609756,106.689119 L40.0634146,106.689119 L40.0634146,93.5284974 L42.1609756,93.5284974 L42.1609756,96.2227979 C42.4756098,95.2901554 42.895122,94.5647668 43.5243902,94.0466321 C44.1536585,93.5284974 44.8878049,93.3212435 45.6219512,93.3212435 C46.1463415,93.3212435 46.5658537,93.4248705 46.8804878,93.5284974 L46.8804878,95.7046632 L47.0902439,95.7046632 Z M53.9073171,107 C51.9146341,107 50.3414634,106.378238 49.1878049,105.134715 C48.0341463,103.891192 47.404878,102.336788 47.404878,100.264249 C47.404878,98.0880829 48.0341463,96.3264249 49.1878049,95.0829016 C50.3414634,93.8393782 52.1243902,93.2176166 54.2219512,93.2176166 C56.2146341,93.2176166 57.7878049,93.8393782 58.8365854,94.9792746 C59.9902439,96.2227979 60.5146341,97.880829 60.5146341,99.9533679 C60.5146341,102.025907 59.8853659,103.683938 58.7317073,104.927461 C57.4731707,106.274611 55.9,107 53.9073171,107 Z M54.0121951,94.9792746 C52.6487805,94.9792746 51.6,95.3937824 50.7609756,96.3264249 C49.9219512,97.2590674 49.6073171,98.5025907 49.6073171,100.160622 C49.6073171,101.715026 50.0268293,102.958549 50.7609756,103.787565 C51.6,104.720207 52.6487805,105.134715 54.0121951,105.134715 C55.3756098,105.134715 56.4243902,104.720207 57.1585366,103.787565 C57.8926829,102.958549 58.3121951,101.715026 58.3121951,100.056995 C58.3121951,98.3989637 57.8926829,97.1554404 57.1585366,96.3264249 C56.4243902,95.4974093 55.3756098,94.9792746 54.0121951,94.9792746 Z M62.402439,106.170984 L62.402439,103.891192 C63.5560976,104.720207 64.8146341,105.134715 66.1780488,105.134715 C68.0658537,105.134715 69.0097561,104.512953 69.0097561,103.26943 C69.0097561,102.958549 68.904878,102.647668 68.8,102.336788 C68.5902439,102.129534 68.3804878,101.92228 68.1707317,101.715026 C67.8560976,101.507772 67.5414634,101.404145 67.2268293,101.196891 C66.9121951,101.093264 66.4926829,100.88601 66.0731707,100.782383 C65.4439024,100.57513 65.0243902,100.367876 64.5,100.056995 C64.0804878,99.8497409 63.6609756,99.5388601 63.3463415,99.2279793 C63.0317073,98.9170984 62.8219512,98.6062176 62.7170732,98.1917098 C62.6121951,97.7772021 62.5073171,97.3626943 62.5073171,96.8445596 C62.5073171,96.2227979 62.6121951,95.7046632 62.9268293,95.1865285 C63.1365854,94.9792746 63.4512195,94.5647668 63.9756098,94.253886 C64.5,93.9430052 65.0243902,93.7357513 65.5487805,93.5284974 C66.1780488,93.3212435 66.8073171,93.2176166 67.4365854,93.2176166 C68.5902439,93.2176166 69.6390244,93.4248705 70.4780488,93.8393782 L70.4780488,95.9119171 C69.5341463,95.2901554 68.3804878,94.9792746 67.1219512,94.9792746 C66.702439,94.9792746 66.3878049,94.9792746 66.0731707,95.0829016 C65.7585366,95.1865285 65.4439024,95.2901554 65.2341463,95.4974093 C65.0243902,95.7046632 64.8146341,95.8082902 64.7097561,96.119171 C64.604878,96.3264249 64.5,96.6373057 64.5,96.8445596 C64.5,97.1554404 64.604878,97.4663212 64.7097561,97.6735751 C64.8146341,97.880829 65.0243902,98.0880829 65.2341463,98.2953368 C65.4439024,98.5025907 65.7585366,98.6062176 66.0731707,98.8134715 C66.3878049,98.9170984 66.8073171,99.1243523 67.2268293,99.3316062 C67.8560976,99.5388601 68.3804878,99.746114 68.8,100.056995 C69.2195122,100.264249 69.6390244,100.57513 69.9536585,100.88601 C70.2682927,101.196891 70.5829268,101.507772 70.6878049,101.92228 C70.897561,102.336788 71.002439,102.751295 71.002439,103.26943 C71.002439,103.891192 70.897561,104.512953 70.5829268,104.927461 C70.2682927,105.445596 69.9536585,105.756477 69.4292683,106.067358 C68.904878,106.378238 68.3804878,106.585492 67.7512195,106.792746 C67.1219512,106.896373 66.4926829,107 65.7585366,107 C64.604878,107 63.3463415,106.689119 62.402439,106.170984 Z M79.2878049,107 C77.295122,107 75.7219512,106.378238 74.5682927,105.134715 C73.4146341,103.891192 72.7853659,102.336788 72.7853659,100.264249 C72.7853659,98.0880829 73.4146341,96.3264249 74.5682927,95.0829016 C75.9317073,93.8393782 77.504878,93.2176166 79.602439,93.2176166 C81.595122,93.2176166 83.1682927,93.8393782 84.2170732,94.9792746 C85.3707317,96.2227979 85.895122,97.880829 85.895122,99.9533679 C85.895122,102.025907 85.2658537,103.683938 84.1121951,104.927461 C82.8536585,106.274611 81.2804878,107 79.2878049,107 Z M79.3926829,94.9792746 C78.0292683,94.9792746 76.9804878,95.3937824 76.1414634,96.3264249 C75.302439,97.2590674 74.9878049,98.5025907 74.9878049,100.160622 C74.9878049,101.715026 75.4073171,102.958549 76.1414634,103.787565 C76.9804878,104.720207 78.0292683,105.134715 79.3926829,105.134715 C80.7560976,105.134715 81.804878,104.720207 82.5390244,103.787565 C83.2731707,102.958549 83.6926829,101.715026 83.6926829,100.056995 C83.6926829,98.3989637 83.2731707,97.1554404 82.5390244,96.3264249 C81.9097561,95.4974093 80.7560976,94.9792746 79.3926829,94.9792746 Z M102.360976,95.3937824 L99.004878,95.3937824 L99.004878,102.854922 C99.004878,103.683938 99.1097561,104.305699 99.4243902,104.720207 C99.7390244,105.031088 100.158537,105.238342 100.892683,105.238342 C101.417073,105.238342 101.836585,105.134715 102.256098,104.823834 L102.256098,106.585492 C101.731707,106.896373 101.102439,107 100.263415,107 C97.9560976,107 96.802439,105.756477 96.802439,103.165803 L96.802439,95.3937824 L94.0756098,95.3937824 L92.502439,95.3937824 L91.0341463,95.3937824 L91.0341463,106.689119 L88.9365854,106.689119 L88.9365854,95.2901554 L86.6292683,95.2901554 L86.6292683,93.5284974 L88.9365854,93.5284974 L88.9365854,91.4559585 C88.9365854,90.1088083 89.2512195,89.0725389 90.0902439,88.2435233 C90.9292683,87.4145078 91.9780488,87 93.1317073,87 C93.7609756,87 94.2853659,87.1036269 94.704878,87.2072539 L94.704878,89.0725389 C94.2853659,88.865285 93.8658537,88.761658 93.3414634,88.761658 C91.8731707,88.761658 91.1390244,89.6943005 91.1390244,91.5595855 L91.1390244,93.6321244 L92.6073171,93.6321244 L94.1804878,93.6321244 L96.9073171,93.6321244 L96.9073171,90.4196891 L99.004878,89.6943005 L99.004878,93.5284974 L102.360976,93.5284974 L102.360976,95.3937824 Z M125.74878,106.689119 L123.336585,106.689119 L121.343902,101.507772 L113.478049,101.507772 L111.590244,106.689119 L109.178049,106.689119 L116.414634,88.3471503 L118.617073,88.3471503 L125.74878,106.689119 Z M120.714634,99.5388601 L117.778049,91.7668394 C117.673171,91.5595855 117.568293,91.1450777 117.463415,90.5233161 C117.358537,91.0414508 117.253659,91.4559585 117.14878,91.7668394 L114.317073,99.5388601 L120.714634,99.5388601 Z M136.760976,94.1502591 L128.895122,104.823834 L136.656098,104.823834 L136.656098,106.689119 L125.853659,106.689119 L125.853659,106.067358 L133.719512,95.3937824 L126.587805,95.3937824 L126.587805,93.5284974 L136.760976,93.5284974 L136.760976,94.1502591 Z M149.556098,106.689119 L147.458537,106.689119 L147.458537,104.61658 C146.619512,106.170984 145.256098,107 143.368293,107 C140.221951,107 138.64878,105.134715 138.64878,101.404145 L138.64878,93.5284974 L140.746341,93.5284974 L140.746341,100.989637 C140.746341,103.787565 141.795122,105.134715 143.997561,105.134715 C145.046341,105.134715 145.885366,104.720207 146.514634,103.994819 C147.143902,103.26943 147.563415,102.233161 147.563415,100.989637 L147.563415,93.5284974 L149.660976,93.5284974 L149.660976,106.689119 L149.556098,106.689119 Z M160.043902,95.7046632 C159.62439,95.3937824 159.1,95.2901554 158.470732,95.2901554 C157.526829,95.2901554 156.792683,95.7046632 156.163415,96.5336788 C155.534146,97.3626943 155.219512,98.5025907 155.219512,99.9533679 L155.219512,106.689119 L153.121951,106.689119 L153.121951,93.5284974 L155.219512,93.5284974 L155.219512,96.2227979 C155.534146,95.2901554 155.953659,94.5647668 156.582927,94.0466321 C157.212195,93.5284974 157.946341,93.3212435 158.680488,93.3212435 C159.204878,93.3212435 159.62439,93.4248705 159.939024,93.5284974 L159.939024,95.7046632 L160.043902,95.7046632 Z M172,100.57513 L162.665854,100.57513 C162.665854,102.025907 163.085366,103.165803 163.819512,103.994819 C164.553659,104.823834 165.602439,105.134715 166.965854,105.134715 C168.434146,105.134715 169.797561,104.61658 171.056098,103.683938 L171.056098,105.65285 C169.902439,106.481865 168.329268,106.896373 166.441463,106.896373 C164.553659,106.896373 163.085366,106.274611 162.036585,105.134715 C160.987805,103.994819 160.463415,102.233161 160.463415,100.160622 C160.463415,98.0880829 161.092683,96.4300518 162.246341,95.1865285 C163.4,93.9430052 164.868293,93.2176166 166.546341,93.2176166 C168.22439,93.2176166 169.587805,93.7357513 170.531707,94.8756477 C171.47561,96.015544 172,97.5699482 172,99.4352332 L172,100.57513 Z M169.797561,98.8134715 C169.797561,97.5699482 169.482927,96.6373057 168.958537,96.015544 C168.329268,95.3937824 167.595122,94.9792746 166.546341,94.9792746 C165.497561,94.9792746 164.658537,95.2901554 164.029268,96.015544 C163.295122,96.7409326 162.87561,97.6735751 162.770732,98.8134715 L169.797561,98.8134715 L169.797561,98.8134715 Z" id="Combined-Shape"></path>
            </g>
        </g>
    </g>
</svg>
