<?xml version="1.0" encoding="UTF-8"?>
<svg width="192px" height="128px" viewBox="0 0 192 128" version="1.1" xmlns="http://www.w3.org/2000/svg" xmlns:xlink="http://www.w3.org/1999/xlink">
    <!-- Generator: Sketch 47.1 (45422) - http://www.bohemiancoding.com/sketch -->
    <title>Provider/Azure/128-disabled</title>
    <desc>Created with Sketch.</desc>
    <defs></defs>
    <g id="Symbols" stroke="none" stroke-width="1" fill="none" fill-rule="evenodd">
        <g id="Provider/Azure/128-disabled" fill="#A4AAB5">
            <path d="M105.480563,48.0454418 C102.471459,48.0454418 99.6589506,49.4293455 97.8367713,51.6990527 L71.7338019,51.6990527 C74.4018737,47.6853377 78.725621,44.8307899 83.7635288,44.1040104 C86.1367084,34.6236786 94.840373,27.5911347 105.219105,27.5911347 C113.992982,27.5911347 121.572579,32.616164 125.141376,39.8971008 C135.806976,39.9628133 144.433741,48.4771724 144.433741,58.9740755 C144.433741,69.5117202 135.740776,78.0543357 125.017668,78.0543357 L125.017668,78.1548757 L86.3152486,78.1548757 C77.5560828,78.1548757 70.309493,71.8004841 69.0817788,63.5272895 L97.8367713,63.5272895 C99.6589506,65.7963396 102.471459,67.1802433 105.480563,67.1802433 C110.848803,67.1802433 115.216684,62.8885647 115.216684,57.6131711 C115.216684,52.3371204 110.848803,48.0454418 105.480563,48.0454418 Z M105.480563,51.3308003 C109.011244,51.3308003 111.873236,54.1432921 111.873236,57.6129083 C111.873236,61.0825244 109.011244,63.8950163 105.480563,63.8950163 C102.906108,63.8950163 100.693414,62.3961158 99.6803487,60.2414053 L63.9114703,60.2414053 C62.7646676,60.2414053 61.6466185,60.1185231 60.5680221,59.8911581 C53.3949881,58.3771438 48,52.0996357 48,44.6044763 C48,36.0572609 55.0158919,29.0930579 63.6847846,28.9734613 C63.7603465,28.972147 63.8352397,28.9675472 63.9114703,28.9675472 C64.3113468,28.9675472 64.7058737,28.9872609 65.0983945,29.0155172 C65.1050814,28.9997463 65.1110996,28.9833182 65.1177865,28.9675472 C68.0198996,21.9573455 75.023755,17 83.187787,17 C89.7235597,17 95.5097313,20.1817957 99.0491057,25.0464867 C97.206197,25.4959597 95.4368441,26.1425699 93.7691321,26.9659466 C91.177291,24.0837996 87.4005319,22.2569941 83.187787,22.2569941 C78.066293,22.2569941 73.5854036,24.953175 71.1005528,28.9675472 C70.8310709,29.4025634 70.5849931,29.8520364 70.3649942,30.3166233 C69.7865777,31.5349317 69.3860326,32.8465517 69.1887691,34.2245413 L63.9114703,34.2245413 L63.785088,34.2245413 C63.7844193,34.2265127 63.7844193,34.2291412 63.7844193,34.2311126 C58.0196458,34.2987964 53.3495172,38.9229798 53.3495172,44.6044763 C53.3495172,49.1787183 56.3793501,53.063637 60.5680221,54.4429408 C61.6205396,54.7892453 62.7419321,54.9844112 63.9114703,54.9844112 L99.6803487,54.9844112 C100.693414,52.8297007 102.906108,51.3308003 105.480563,51.3308003 Z" id="Combined-Shape-Copy-3"></path>
            <path d="M27.4268293,116.880752 L25.2682927,116.880752 L25.2682927,104.429123 C25.2682927,103.487403 25.2682927,102.231777 25.3762195,100.871515 C25.1603659,101.708599 24.9445122,102.336412 24.8365854,102.650319 L18.2530488,116.880752 L17.1737805,116.880752 L10.6981707,102.754955 C10.4823171,102.336412 10.3743902,101.708599 10.1585366,100.871515 L10.1585366,104.429123 L10.1585366,116.880752 L8,116.880752 L8,98.360262 L10.9140244,98.360262 L16.7420732,111.230433 C17.1737805,112.172153 17.497561,113.009237 17.6054878,113.42778 L17.7134146,113.42778 C18.145122,112.381424 18.3609756,111.648975 18.6847561,111.125798 L24.6207317,98.2556265 L27.4268293,98.2556265 L27.4268293,116.880752 Z M32.6073171,100.243702 C32.1756098,100.243702 31.8518293,100.139066 31.6359756,99.8251596 C31.420122,99.5112529 31.2042683,99.1973463 31.2042683,98.8834397 C31.2042683,98.5695331 31.3121951,98.1509909 31.6359756,97.9417199 C31.9597561,97.6278132 32.2835366,97.5231777 32.6073171,97.5231777 C33.0390244,97.5231777 33.3628049,97.6278132 33.5786585,97.9417199 C33.902439,98.2556265 34.0103659,98.5695331 34.0103659,98.8834397 C34.0103659,99.3019819 33.902439,99.6158885 33.5786585,99.8251596 C33.3628049,100.139066 33.0390244,100.243702 32.6073171,100.243702 Z M33.6865854,116.880752 L31.5280488,116.880752 L31.5280488,103.592039 L33.6865854,103.592039 L33.6865854,116.880752 Z M46.6378049,116.252939 C45.5585366,116.880752 44.3713415,117.194659 42.8603659,117.194659 C40.9176829,117.194659 39.2987805,116.566846 38.1115854,115.311219 C36.9243902,114.055593 36.2768293,112.48606 36.2768293,110.497985 C36.2768293,108.300638 36.9243902,106.62647 38.2195122,105.266208 C39.7304878,104.010581 41.3493902,103.278132 43.5079268,103.278132 C44.695122,103.278132 45.7743902,103.487403 46.7457317,104.010581 L46.7457317,106.207927 C45.7743902,105.475479 44.695122,105.161572 43.5079268,105.161572 C42.104878,105.161572 41.0256098,105.68475 40.0542683,106.62647 C39.1908537,107.568189 38.7591463,108.823816 38.7591463,110.393349 C38.7591463,111.962882 39.1908537,113.113873 40.0542683,114.055593 C40.9176829,114.997313 41.9969512,115.415855 43.4,115.415855 C44.5871951,115.415855 45.6664634,114.997313 46.7457317,114.264864 L46.7457317,116.252939 L46.6378049,116.252939 Z M56.4591463,105.789385 C56.027439,105.475479 55.4878049,105.370843 54.7323171,105.370843 C53.7609756,105.370843 53.0054878,105.789385 52.3579268,106.62647 C51.7103659,107.463554 51.3865854,108.614545 51.3865854,110.079442 L51.3865854,116.880752 L49.2280488,116.880752 L49.2280488,103.592039 L51.3865854,103.592039 L51.3865854,106.312563 C51.7103659,105.370843 52.1420732,104.638394 52.7896341,104.115217 C53.4371951,103.592039 54.1926829,103.382768 54.9481707,103.382768 C55.4878049,103.382768 55.9195122,103.487403 56.2432927,103.592039 L56.2432927,105.789385 L56.4591463,105.789385 Z M63.4743902,117.194659 C61.4237805,117.194659 59.804878,116.566846 58.6176829,115.311219 C57.4304878,114.055593 56.7829268,112.48606 56.7829268,110.393349 C56.7829268,108.196003 57.4304878,106.417199 58.6176829,105.161572 C59.804878,103.905946 61.6396341,103.278132 63.7981707,103.278132 C65.8487805,103.278132 67.4676829,103.905946 68.5469512,105.056937 C69.7341463,106.312563 70.2737805,107.986732 70.2737805,110.079442 C70.2737805,112.172153 69.6262195,113.846322 68.4390244,115.101948 C67.1439024,116.46221 65.525,117.194659 63.4743902,117.194659 Z M63.5823171,105.056937 C62.1792683,105.056937 61.1,105.475479 60.2365854,106.417199 C59.3731707,107.358918 59.0493902,108.614545 59.0493902,110.288713 C59.0493902,111.858247 59.4810976,113.113873 60.2365854,113.950957 C61.1,114.892677 62.1792683,115.311219 63.5823171,115.311219 C64.9853659,115.311219 66.0646341,114.892677 66.820122,113.950957 C67.5756098,113.113873 68.0073171,111.858247 68.0073171,110.184078 C68.0073171,108.509909 67.5756098,107.254283 66.820122,106.417199 C66.0646341,105.580114 64.9853659,105.056937 63.5823171,105.056937 Z M72.2164634,116.357575 L72.2164634,114.055593 C73.4036585,114.892677 74.6987805,115.311219 76.1018293,115.311219 C78.0445122,115.311219 79.0158537,114.683406 79.0158537,113.42778 C79.0158537,113.113873 78.9079268,112.799966 78.8,112.48606 C78.5841463,112.276789 78.3682927,112.067518 78.152439,111.858247 C77.8286585,111.648975 77.504878,111.54434 77.1810976,111.335069 C76.8573171,111.230433 76.4256098,111.021162 75.9939024,110.916527 C75.3463415,110.707256 74.9146341,110.497985 74.375,110.184078 C73.9432927,109.974807 73.5115854,109.6609 73.1878049,109.346994 C72.8640244,109.033087 72.6481707,108.71918 72.5402439,108.300638 C72.4323171,107.882096 72.3243902,107.463554 72.3243902,106.940376 C72.3243902,106.312563 72.4323171,105.789385 72.7560976,105.266208 C72.9719512,105.056937 73.2957317,104.638394 73.8353659,104.324488 C74.375,104.010581 74.9146341,103.80131 75.4542683,103.592039 C76.1018293,103.382768 76.7493902,103.278132 77.3969512,103.278132 C78.5841463,103.278132 79.6634146,103.487403 80.5268293,103.905946 L80.5268293,105.998656 C79.5554878,105.370843 78.3682927,105.056937 77.0731707,105.056937 C76.6414634,105.056937 76.3176829,105.056937 75.9939024,105.161572 C75.670122,105.266208 75.3463415,105.370843 75.1304878,105.580114 C74.9146341,105.789385 74.6987805,105.894021 74.5908537,106.207927 C74.4829268,106.417199 74.375,106.731105 74.375,106.940376 C74.375,107.254283 74.4829268,107.568189 74.5908537,107.777461 C74.6987805,107.986732 74.9146341,108.196003 75.1304878,108.405274 C75.3463415,108.614545 75.670122,108.71918 75.9939024,108.928451 C76.3176829,109.033087 76.7493902,109.242358 77.1810976,109.451629 C77.8286585,109.6609 78.3682927,109.870171 78.8,110.184078 C79.2317073,110.393349 79.6634146,110.707256 79.9871951,111.021162 C80.3109756,111.335069 80.6347561,111.648975 80.7426829,112.067518 C80.9585366,112.48606 81.0664634,112.904602 81.0664634,113.42778 C81.0664634,114.055593 80.9585366,114.683406 80.6347561,115.101948 C80.3109756,115.625126 79.9871951,115.939033 79.447561,116.252939 C78.9079268,116.566846 78.3682927,116.776117 77.7207317,116.985388 C77.0731707,117.090023 76.4256098,117.194659 75.670122,117.194659 C74.4829268,117.194659 73.1878049,116.880752 72.2164634,116.357575 Z M89.5926829,117.194659 C87.5420732,117.194659 85.9231707,116.566846 84.7359756,115.311219 C83.5487805,114.055593 82.9012195,112.48606 82.9012195,110.393349 C82.9012195,108.196003 83.5487805,106.417199 84.7359756,105.161572 C86.1390244,103.905946 87.7579268,103.278132 89.9164634,103.278132 C91.9670732,103.278132 93.5859756,103.905946 94.6652439,105.056937 C95.852439,106.312563 96.3920732,107.986732 96.3920732,110.079442 C96.3920732,112.172153 95.7445122,113.846322 94.5573171,115.101948 C93.2621951,116.46221 91.6432927,117.194659 89.5926829,117.194659 Z M89.7006098,105.056937 C88.297561,105.056937 87.2182927,105.475479 86.354878,106.417199 C85.4914634,107.358918 85.1676829,108.614545 85.1676829,110.288713 C85.1676829,111.858247 85.5993902,113.113873 86.354878,113.950957 C87.2182927,114.892677 88.297561,115.311219 89.7006098,115.311219 C91.1036585,115.311219 92.1829268,114.892677 92.9384146,113.950957 C93.6939024,113.113873 94.1256098,111.858247 94.1256098,110.184078 C94.1256098,108.509909 93.6939024,107.254283 92.9384146,106.417199 C92.2908537,105.580114 91.1036585,105.056937 89.7006098,105.056937 Z M113.336585,105.475479 L109.882927,105.475479 L109.882927,113.009237 C109.882927,113.846322 109.990854,114.474135 110.314634,114.892677 C110.638415,115.206584 111.070122,115.415855 111.82561,115.415855 C112.365244,115.415855 112.796951,115.311219 113.228659,114.997313 L113.228659,116.776117 C112.689024,117.090023 112.041463,117.194659 111.178049,117.194659 C108.803659,117.194659 107.616463,115.939033 107.616463,113.323144 L107.616463,105.475479 L104.810366,105.475479 L103.191463,105.475479 L101.680488,105.475479 L101.680488,116.880752 L99.5219512,116.880752 L99.5219512,105.370843 L97.147561,105.370843 L97.147561,103.592039 L99.5219512,103.592039 L99.5219512,101.499328 C99.5219512,100.139066 99.8457317,99.0927108 100.709146,98.2556265 C101.572561,97.4185422 102.651829,97 103.839024,97 C104.486585,97 105.02622,97.1046355 105.457927,97.2092711 L105.457927,99.0927108 C105.02622,98.8834397 104.594512,98.7788042 104.054878,98.7788042 C102.543902,98.7788042 101.788415,99.720524 101.788415,101.603964 L101.788415,103.696674 L103.29939,103.696674 L104.918293,103.696674 L107.72439,103.696674 L107.72439,100.452973 L109.882927,99.720524 L109.882927,103.592039 L113.336585,103.592039 L113.336585,105.475479 Z M137.404268,116.880752 L134.921951,116.880752 L132.871341,111.648975 L124.776829,111.648975 L122.834146,116.880752 L120.351829,116.880752 L127.79878,98.360262 L130.065244,98.360262 L137.404268,116.880752 Z M132.22378,109.6609 L129.201829,101.813235 C129.093902,101.603964 128.985976,101.185422 128.878049,100.557608 C128.770122,101.080786 128.662195,101.499328 128.554268,101.813235 L125.640244,109.6609 L132.22378,109.6609 Z M148.736585,104.219852 L140.642073,114.997313 L148.628659,114.997313 L148.628659,116.880752 L137.512195,116.880752 L137.512195,116.252939 L145.606707,105.475479 L138.267683,105.475479 L138.267683,103.592039 L148.736585,103.592039 L148.736585,104.219852 Z M161.903659,116.880752 L159.745122,116.880752 L159.745122,114.788042 C158.881707,116.357575 157.478659,117.194659 155.535976,117.194659 C152.298171,117.194659 150.679268,115.311219 150.679268,111.54434 L150.679268,103.592039 L152.837805,103.592039 L152.837805,111.125798 C152.837805,113.950957 153.917073,115.311219 156.183537,115.311219 C157.262805,115.311219 158.12622,114.892677 158.77378,114.160228 C159.421341,113.42778 159.853049,112.381424 159.853049,111.125798 L159.853049,103.592039 L162.011585,103.592039 L162.011585,116.880752 L161.903659,116.880752 Z M172.696341,105.789385 C172.264634,105.475479 171.725,105.370843 171.077439,105.370843 C170.106098,105.370843 169.35061,105.789385 168.703049,106.62647 C168.055488,107.463554 167.731707,108.614545 167.731707,110.079442 L167.731707,116.880752 L165.573171,116.880752 L165.573171,103.592039 L167.731707,103.592039 L167.731707,106.312563 C168.055488,105.370843 168.487195,104.638394 169.134756,104.115217 C169.782317,103.592039 170.537805,103.382768 171.293293,103.382768 C171.832927,103.382768 172.264634,103.487403 172.588415,103.592039 L172.588415,105.789385 L172.696341,105.789385 Z M185,110.707256 L175.394512,110.707256 C175.394512,112.172153 175.82622,113.323144 176.581707,114.160228 C177.337195,114.997313 178.416463,115.311219 179.819512,115.311219 C181.330488,115.311219 182.733537,114.788042 184.028659,113.846322 L184.028659,115.834397 C182.841463,116.671481 181.222561,117.090023 179.279878,117.090023 C177.337195,117.090023 175.82622,116.46221 174.746951,115.311219 C173.667683,114.160228 173.128049,112.381424 173.128049,110.288713 C173.128049,108.196003 173.77561,106.521834 174.962805,105.266208 C176.15,104.010581 177.660976,103.278132 179.387805,103.278132 C181.114634,103.278132 182.517683,103.80131 183.489024,104.952301 C184.460366,106.103292 185,107.672825 185,109.556265 L185,110.707256 Z M182.733537,108.928451 C182.733537,107.672825 182.409756,106.731105 181.870122,106.103292 C181.222561,105.475479 180.467073,105.056937 179.387805,105.056937 C178.308537,105.056937 177.445122,105.370843 176.797561,106.103292 C176.042073,106.835741 175.610366,107.777461 175.502439,108.928451 L182.733537,108.928451 L182.733537,108.928451 Z" id="Combined-Shape"></path>
        </g>
    </g>
</svg>