<?xml version="1.0" encoding="UTF-8"?>
<svg width="80px" height="32px" viewBox="0 0 80 32" version="1.1" xmlns="http://www.w3.org/2000/svg" xmlns:xlink="http://www.w3.org/1999/xlink">
    <!-- Generator: Sketch 47 (45396) - http://www.bohemiancoding.com/sketch -->
    <title>Provider/Azure/32</title>
    <desc>Created with Sketch.</desc>
    <defs></defs>
    <g id="Symbols" stroke="none" stroke-width="1" fill="none" fill-rule="evenodd">
        <g id="Provider/Azure/32" fill="#616870">
            <path d="M45.8378906,23.3037109 L44.1123047,23.3037109 L42.7021484,19.5742188 L37.0615234,19.5742188 L35.7348633,23.3037109 L34,23.3037109 L39.1025391,10 L40.7167969,10 L45.8378906,23.3037109 Z M42.1918945,18.1733398 L40.1044922,12.5048828 C40.036458,12.319335 39.9684248,12.022463 39.9003906,11.6142578 L39.8632812,11.6142578 C39.801432,11.9915383 39.7303064,12.2884104 39.6499023,12.5048828 L37.5810547,18.1733398 L42.1918945,18.1733398 Z M53.8081892,14.2397461 L48.1861189,22.0048828 L53.7525252,22.0048828 L53.7525252,23.3037109 L45.9502791,23.3037109 L45.9502791,22.8305664 L51.5723494,15.1025391 L46.4790877,15.1025391 L46.4790877,13.8037109 L53.8081892,13.8037109 L53.8081892,14.2397461 Z M63.0494839,23.3037109 L61.5279995,23.3037109 L61.5279995,21.8007812 L61.4908901,21.8007812 C60.8600276,22.9511776 59.8828238,23.5263672 58.5592495,23.5263672 C56.2955663,23.5263672 55.1637417,22.1780734 55.1637417,19.4814453 L55.1637417,13.8037109 L56.6759487,13.8037109 L56.6759487,19.2402344 C56.6759487,21.2441506 57.4428682,22.2460938 58.97673,22.2460938 C59.7189212,22.2460938 60.3296736,21.9724148 60.8090054,21.4250488 C61.2883372,20.8776828 61.5279995,20.1617883 61.5279995,19.2773438 L61.5279995,13.8037109 L63.0494839,13.8037109 L63.0494839,23.3037109 Z M70.6672434,15.34375 C70.4012916,15.1396474 70.0178319,15.0375977 69.5168528,15.0375977 C68.8674355,15.0375977 68.3247163,15.3437469 67.888679,15.9560547 C67.4526416,16.5683624 67.2346262,17.403315 67.2346262,18.4609375 L67.2346262,23.3037109 L65.7131419,23.3037109 L65.7131419,13.8037109 L67.2346262,13.8037109 L67.2346262,15.7612305 L67.2717356,15.7612305 C67.488208,15.0932584 67.8190967,14.5721861 68.2644114,14.197998 C68.7097261,13.82381 69.2076053,13.6367188 69.7580637,13.6367188 C70.153899,13.6367188 70.4569559,13.6800126 70.6672434,13.7666016 L70.6672434,15.34375 Z M79.2962334,18.934082 L72.5887139,18.934082 C72.6134536,19.9917045 72.897956,20.8081026 73.4422295,21.3833008 C73.9865031,21.958499 74.734868,22.2460938 75.6873467,22.2460938 C76.757339,22.2460938 77.7407276,21.8935582 78.637542,21.1884766 L78.637542,22.6171875 C77.8025769,23.2233103 76.698584,23.5263672 75.3255303,23.5263672 C73.9834012,23.5263672 72.928887,23.094975 72.1619561,22.2321777 C71.3950252,21.3693805 71.0115654,20.1556068 71.0115654,18.5908203 C71.0115654,17.1126228 71.4305879,15.9081264 72.2686455,14.9772949 C73.1067031,14.0464634 74.1473014,13.5810547 75.3904717,13.5810547 C76.633642,13.5810547 77.5953837,13.9830689 78.2757256,14.7871094 C78.9560675,15.5911499 79.2962334,16.7075124 79.2962334,18.1362305 L79.2962334,18.934082 Z M77.7376397,17.6445312 L72.6072686,17.6445312 C72.7247822,16.8157511 73.0340239,16.1446966 73.5350029,15.6313477 C74.035982,15.1179987 74.6451882,14.8613281 75.3626397,14.8613281 C76.1048309,14.8613281 76.6846591,15.1056291 77.1021416,15.5942383 C77.5196242,16.0828475 77.7314547,16.7662717 77.7376397,17.6445312 Z M16.6897575,15.1377498 C15.8160499,15.1377498 14.9994245,15.5450806 14.4703459,16.2131341 L6.8912234,16.2131341 C7.66591084,15.0317587 8.92133164,14.1915663 10.3841124,13.9776499 C11.0731765,11.1872596 13.6003273,9.1173381 16.613842,9.1173381 C19.1613793,9.1173381 21.3621518,10.5963784 22.3983691,12.7394106 C25.4951773,12.758752 28,15.2648231 28,18.3544255 C28,21.4560197 25.4759557,23.9704076 22.36245,23.9704076 L22.36245,24 L11.1250165,24 C8.58175061,24 6.47766845,22.1296822 6.12119573,19.6945943 L14.4703459,19.6945943 C14.9994245,20.3624544 15.8160499,20.7697852 16.6897575,20.7697852 C18.2484519,20.7697852 19.5166871,19.5065954 19.5166871,17.9538642 C19.5166871,16.4009396 18.2484519,15.1377498 16.6897575,15.1377498 Z M16.6897575,16.1047447 C17.7149078,16.1047447 18.5459009,16.9325585 18.5459009,17.9537868 C18.5459009,18.9750152 17.7149078,19.802829 16.6897575,19.802829 C15.9422521,19.802829 15.2997857,19.3616506 15.0056375,18.7274447 L4.61997185,18.7274447 C4.28699216,18.7274447 3.96236123,18.6912761 3.64918558,18.6243547 C1.56646072,18.1787278 0,16.3310396 0,14.1249543 C0,11.6092125 2.0370979,9.55940617 4.55415254,9.52420474 C4.57609231,9.52381792 4.59783792,9.52246401 4.61997185,9.52246401 C4.73607788,9.52246401 4.85063066,9.52826645 4.96460097,9.53658327 C4.96654254,9.53194132 4.96828996,9.52710596 4.97023153,9.52246401 C5.81287401,7.45911863 7.84647709,6 10.216943,6 C12.114636,6 13.7946787,6.93651278 14.822353,8.36835997 C14.2872557,8.50065546 13.7735156,8.69097528 13.2892874,8.93332359 C12.5367339,8.0850078 11.4401337,7.54731562 10.216943,7.54731562 C8.72989259,7.54731562 7.42884483,8.34089512 6.70735648,9.52246401 C6.62911111,9.65050438 6.55766124,9.78279987 6.4937835,9.91954389 C6.32583748,10.2781343 6.20953728,10.6641895 6.15226089,11.0697796 L4.61997185,11.0697796 L4.58327613,11.0697796 C4.58308197,11.0703599 4.58308197,11.0711335 4.58308197,11.0717138 C2.90925229,11.0916355 1.55325803,12.452693 1.55325803,14.1249543 C1.55325803,15.4713123 2.43298454,16.6147786 3.64918558,17.0207555 C3.9547891,17.1226849 4.28039081,17.180129 4.61997185,17.180129 L15.0056375,17.180129 C15.2997857,16.545923 15.9422521,16.1047447 16.6897575,16.1047447 Z" id="Combined-Shape"></path>
        </g>
    </g>
</svg>