<?xml version="1.0" encoding="UTF-8"?>
<svg width="112px" height="26px" viewBox="0 0 112 26" version="1.1" xmlns="http://www.w3.org/2000/svg" xmlns:xlink="http://www.w3.org/1999/xlink">
    <!-- Generator: Sketch 47.1 (45422) - http://www.bohemiancoding.com/sketch -->
    <title>Provider-AWS-3 Copy 2</title>
    <desc>Created with Sketch.</desc>
    <defs></defs>
    <g id="Coriolis" stroke="none" stroke-width="1" fill="none" fill-rule="evenodd">
        <g id="Endpoints-List" transform="translate(-672.000000, -274.000000)" fill="#616870">
            <g id="Item-Connection" transform="translate(352.000000, 256.000000)">
                <g id="Provider/Azure/32" transform="translate(320.000000, 10.000000)">
                    <path d="M64.1730469,32.7708435 L61.7572266,32.7708435 L59.7830078,27.5262451 L51.8861328,27.5262451 L50.0288086,32.7708435 L47.6,32.7708435 L54.7435547,14.0625 L57.0035156,14.0625 L64.1730469,32.7708435 Z M59.0686523,25.5562592 L56.1462891,17.5849915 C56.0510412,17.3240649 55.9557947,16.9065886 55.8605469,16.33255 L55.8085938,16.33255 C55.7220048,16.8631008 55.6224289,17.2805771 55.5098633,17.5849915 L52.6134766,25.5562592 L59.0686523,25.5562592 Z M75.3314649,20.0246429 L67.4605665,30.9443665 L75.2535352,30.9443665 L75.2535352,32.7708435 L64.3303907,32.7708435 L64.3303907,32.105484 L72.2012891,21.2379456 L65.0707227,21.2379456 L65.0707227,19.4114685 L75.3314649,19.4114685 L75.3314649,20.0246429 Z M88.2692775,32.7708435 L86.1391993,32.7708435 L86.1391993,30.6573486 L86.0872462,30.6573486 C85.2040387,32.2750935 83.8359534,33.0839539 81.9829493,33.0839539 C78.8137929,33.0839539 77.2292384,31.1879157 77.2292384,27.3957825 L77.2292384,19.4114685 L79.3463282,19.4114685 L79.3463282,27.0565796 C79.3463282,29.8745868 80.4200154,31.2835693 82.567422,31.2835693 C83.6064897,31.2835693 84.461543,30.8987084 85.1326075,30.1289749 C85.8036721,29.3592415 86.1391993,28.3525148 86.1391993,27.1087646 L86.1391993,19.4114685 L88.2692775,19.4114685 L88.2692775,32.7708435 Z M98.9341408,21.5771484 C98.5618082,21.2901292 98.0249646,21.1466217 97.3235939,21.1466217 C96.4144097,21.1466217 95.6546028,21.5771441 95.0441506,22.4382019 C94.4336983,23.2992597 94.1284767,24.4734118 94.1284767,25.9606934 L94.1284767,32.7708435 L91.9983986,32.7708435 L91.9983986,19.4114685 L94.1284767,19.4114685 L94.1284767,22.1642303 L94.1804299,22.1642303 C94.4834913,21.2248946 94.9467353,20.4921367 95.5701759,19.9659348 C96.1936166,19.4397328 96.8906474,19.1766357 97.6612892,19.1766357 C98.2154587,19.1766357 98.6397383,19.2375177 98.9341408,19.3592834 L98.9341408,21.5771484 Z M111.014727,26.6260529 L101.624199,26.6260529 C101.658835,28.1133345 102.057138,29.2613943 102.819121,30.0702667 C103.581104,30.8791392 104.628815,31.2835693 105.962285,31.2835693 C107.460275,31.2835693 108.837019,30.7878162 110.092559,29.7962952 L110.092559,31.8054199 C108.923608,32.6577801 107.378018,33.0839539 105.455742,33.0839539 C103.576762,33.0839539 102.100442,32.4773086 101.026739,31.2639999 C99.9530352,30.0506913 99.4161916,28.343822 99.4161916,26.1433411 C99.4161916,24.0646258 100.002823,22.3708027 101.176104,21.061821 C102.349384,19.7528392 103.806222,19.0983582 105.54666,19.0983582 C107.287099,19.0983582 108.633537,19.6636906 109.586016,20.7943726 C110.538495,21.9250545 111.014727,23.4949393 111.014727,25.5040741 L111.014727,26.6260529 Z M108.832696,24.8126221 L101.650176,24.8126221 C101.814695,23.6471499 102.247633,22.7034796 102.949004,21.9815826 C103.650375,21.2596857 104.503263,20.8987427 105.507696,20.8987427 C106.546763,20.8987427 107.358523,21.2422909 107.942998,21.9293976 C108.527474,22.6165043 108.824037,23.5775695 108.832696,24.8126221 Z M23.3656605,21.2874606 C22.1424698,21.2874606 20.9991942,21.8602696 20.2584843,22.7997199 L9.64771276,22.7997199 C10.7322752,21.1384106 12.4898643,19.9568901 14.5377573,19.6560702 C15.5024471,15.7320838 19.0404582,12.8212567 23.2593788,12.8212567 C26.8259311,12.8212567 29.9070125,14.9011572 31.3577167,17.9147961 C35.6932482,17.941995 39.2,21.4661574 39.2,25.8109109 C39.2,30.1725277 35.666338,33.7083857 31.30743,33.7083857 L31.30743,33.75 L15.5750231,33.75 C12.0144508,33.75 9.06873583,31.1198657 8.56967402,27.6955232 L20.2584843,27.6955232 C20.9991942,28.6347015 22.1424698,29.2075105 23.3656605,29.2075105 C25.5478327,29.2075105 27.323362,27.4311498 27.323362,25.2476215 C27.323362,23.0638213 25.5478327,21.2874606 23.3656605,21.2874606 Z M23.3656605,22.6472972 C24.8008709,22.6472972 25.9642612,23.8114104 25.9642612,25.2475127 C25.9642612,26.6836151 24.8008709,27.8477283 23.3656605,27.8477283 C22.3191529,27.8477283 21.4197,27.2273212 21.0078925,26.335469 L6.46796059,26.335469 C6.00178902,26.335469 5.54730572,26.2846071 5.10885981,26.1904989 C2.19304501,25.563836 0,22.9655244 0,19.863217 C0,16.3254551 2.85193707,13.4429149 6.37581355,13.3934129 C6.40652923,13.3928689 6.43697309,13.390965 6.46796059,13.390965 C6.63050904,13.390965 6.79088293,13.3991247 6.95044136,13.4108202 C6.95315956,13.4042925 6.95560594,13.3974928 6.95832415,13.390965 C8.13802362,10.4893856 10.9850679,8.4375 14.3037202,8.4375 C16.9604904,8.4375 19.3125502,9.7544711 20.7512943,11.7680062 C20.0021579,11.9540467 19.2829218,12.221684 18.6050023,12.5624863 C17.5514274,11.3695422 16.0161872,10.6134126 14.3037202,10.6134126 C12.2218496,10.6134126 10.4003828,11.7293838 9.39029907,13.390965 C9.28075555,13.5710218 9.18072573,13.7570623 9.0912969,13.9493586 C8.85617247,14.4536263 8.69335219,14.9965165 8.61316525,15.5668776 L6.46796059,15.5668776 L6.41658658,15.5668776 C6.41631476,15.5676936 6.41631476,15.5687815 6.41631476,15.5695975 C4.0729532,15.5976124 2.17456124,17.5115995 2.17456124,19.863217 C2.17456124,21.756533 3.40617836,23.3645324 5.10885981,23.9354374 C5.53670474,24.0787757 5.99254714,24.1595564 6.46796059,24.1595564 L21.0078925,24.1595564 C21.4197,23.2677043 22.3191529,22.6472972 23.3656605,22.6472972 Z" id="Combined-Shape"></path>
                </g>
            </g>
        </g>
    </g>
</svg>