<?xml version="1.0" encoding="UTF-8"?>
<svg width="73px" height="64px" viewBox="0 0 73 64" version="1.1" xmlns="http://www.w3.org/2000/svg" xmlns:xlink="http://www.w3.org/1999/xlink">
    <!-- Generator: Sketch 48.2 (47327) - http://www.bohemiancoding.com/sketch -->
    <title>Combined Shape</title>
    <desc>Created with Sketch.</desc>
    <defs></defs>
    <g id="Provider/Generic/generic-128" stroke="none" stroke-width="1" fill="none" fill-rule="evenodd" transform="translate(-60.000000, -16.000000)">
        <path d="M123.858428,40.6758392 C128.31145,42.7222644 130.960653,45.280693 130.960653,48.0533477 C130.960653,50.9008603 128.165253,53.5225882 123.490773,55.5956556 C125.575127,63.3282208 124.83151,70.2420173 120.778232,74.3574732 C118.371779,76.8023085 114.933989,78.0422101 110.831061,77.9781024 C106.558014,77.8986888 101.785099,76.4147541 97.009947,73.8028223 C92.2350497,76.414503 87.4622197,77.8984038 83.1892421,77.9785315 C79.0952825,78.0615801 75.6500189,76.8027376 73.2420711,74.3579023 C69.2569566,70.3116555 68.4711227,63.5603954 70.4267743,55.9854934 C65.2035353,53.8560596 62.0405305,51.082454 62.0405305,48.0533477 C62.0405305,45.0965664 65.0529832,42.3834086 70.0529077,40.2750029 C68.0116033,32.594505 68.7693743,25.7345793 72.8001337,21.6419874 C75.137831,19.2670878 78.450067,18.0184443 82.3945576,18.0184443 C82.5111435,18.0184443 82.6292241,18.0199012 82.7473047,18.0213582 C87.15237,18.1032253 92.0886685,19.6777413 97.0108102,22.4419521 C101.932893,19.6780075 106.868917,18.1036502 111.272998,18.0217874 C111.391079,18.0203304 111.509159,18.0188734 111.625745,18.0188734 C115.570236,18.0188734 118.882472,19.2675169 121.220169,21.6424165 C125.320846,25.8059983 126.034003,32.8337506 123.858428,40.6758392 Z M79.9870326,37.3951259 C76.1842483,38.1298959 72.8152577,39.1101545 70.0529077,40.2750029 C70.7593905,42.9331757 71.8011492,45.6896374 73.1585373,48.4636841 C74.8809605,44.7572887 77.172822,41.0032629 79.9870326,37.3951259 Z M114.656607,58.3714811 C118.034737,57.6305754 121.024327,56.6894904 123.490773,55.5956556 C122.864987,53.2741045 121.984292,50.878751 120.861725,48.4631668 C119.235268,51.7869531 117.155636,55.1359981 114.656607,58.3714811 Z M123.858428,40.6758392 C121.22112,39.4638408 117.9511,38.4314337 114.223989,37.6404779 C113.178163,36.2857669 112.058816,34.950931 110.868428,33.6461577 C106.600185,28.9668391 101.812233,25.1383685 97.0108102,22.4419521 C92.2089424,25.1383914 87.4203445,28.9670199 83.1518748,33.6465868 C82.0335409,34.8723822 80.9779083,36.1247109 79.9870326,37.3951259 C84.8930237,36.4471954 90.5210085,35.9078489 96.4998478,35.9078489 C102.976792,35.9078489 109.042159,36.5408062 114.223989,37.6404779 C116.95115,41.1731052 119.17838,44.8408819 120.861725,48.4631668 C122.150982,45.8284724 123.155491,43.209649 123.858428,40.6758392 Z M97.009947,73.8028223 C101.959323,71.0957088 106.910919,67.1768897 111.310365,62.353732 C112.497218,61.0528337 113.613451,59.7220511 114.656607,58.3714811 C109.381051,59.5285383 103.157908,60.1973894 96.4998478,60.1973894 C90.3471334,60.1973894 84.5659772,59.6262165 79.5608493,58.6264261 C76.9738791,55.3122828 74.8276003,51.8746896 73.1585373,48.4636841 C71.973111,51.0145431 71.0574065,53.5428413 70.4267743,55.9854934 C73.0115034,57.0392475 76.1007391,57.9352579 79.5608493,58.6264261 C80.5467193,59.8894149 81.596591,61.1344752 82.7084427,62.3533029 C87.1085808,67.1763852 92.0604651,71.0955347 97.009947,73.8028223 Z" id="Combined-Shape" stroke="#202234" stroke-width="2.5"></path>
    </g>
</svg>