<?xml version="1.0" encoding="UTF-8"?>
<svg width="49px" height="43px" viewBox="0 0 49 43" version="1.1" xmlns="http://www.w3.org/2000/svg" xmlns:xlink="http://www.w3.org/1999/xlink">
    <!-- Generator: Sketch 48.2 (47327) - http://www.bohemiancoding.com/sketch -->

    <desc>Created with Sketch.</desc>
    <defs></defs>
    <g id="Provider/Generic/generic-64" stroke="none" stroke-width="1" fill="none" fill-rule="evenodd" transform="translate(0.000000, -11.000000)">
        <path d="M42.6460255,28.4810126 L41.8186868,28.0999018 L42.0609529,27.2245608 C43.4922446,22.0531068 42.9381575,17.7342335 40.5353762,15.2888181 C39.1596725,13.8879129 37.187816,13.1417869 34.7817087,13.1417869 C34.7216131,13.1417869 34.6734859,13.1422348 34.5620213,13.1435852 C31.8008646,13.195031 28.6213292,14.1901711 25.3756248,16.0170774 L24.8468118,16.3147298 L24.3180097,16.0170584 C21.072216,14.1899481 17.8925152,13.1947411 15.1375076,13.1433976 C15.0192865,13.1419424 14.9711594,13.1414945 14.9110637,13.1414945 C12.5049565,13.1414945 10.5331,13.8876205 9.1571839,15.2887419 C6.79665459,17.6911556 6.21903504,21.9023085 7.56076799,26.9625882 L7.7985551,27.8593906 L6.94138035,28.2217061 C3.79902114,29.5499364 2.14978999,31.1231009 2.14978999,32.5360687 C2.14978999,33.9872621 3.89028687,35.6044612 7.18362097,36.9502808 L8.04939474,37.3040789 L7.81682954,38.2070151 C6.53221855,43.1945274 7.1244493,47.3360684 9.45759431,49.710612 C10.8780952,51.1562876 12.9332836,51.9068586 15.4309918,51.8560723 C18.1092208,51.8057307 21.1815614,50.8683398 24.3279611,49.1433094 L24.8462584,48.8591501 L25.3645504,49.1433187 C28.5112738,50.8686006 31.583572,51.8058882 34.2583996,51.8557216 C36.7740094,51.8951207 38.8216487,51.1497937 40.2351704,49.7103275 C42.6092434,47.2941298 43.1794042,43.0484095 41.8089774,37.9523454 L41.5716475,37.0698114 L42.4092216,36.6974795 C45.3317547,35.3983083 46.85021,33.8912701 46.85021,32.5360687 C46.85021,31.219966 45.4192681,29.7584974 42.6460255,28.4810126 Z M49,32.5360687 C49,34.7724265 47.2148177,36.7187914 44.103917,38.2680758 C45.3595091,43.6582954 44.6092412,48.3201899 41.7717446,51.208034 C39.922171,53.0915557 37.3023456,54.0451547 34.2214036,53.9968967 C31.3183057,53.9428156 28.1027443,53.003693 24.8462362,51.2972889 C21.5901195,53.003414 18.3747316,53.9426157 15.4732075,53.9971532 C12.4096323,54.059447 9.778223,53.0984356 7.92125342,51.208556 C5.13706227,48.3749631 4.3613838,43.8329168 5.52137576,38.5663634 C2.02388895,36.9719541 0,34.9187997 0,32.5360687 C0,30.21228 1.92522462,28.2019093 5.26379681,26.624624 C4.04269578,21.2784992 4.80218697,16.6594672 7.62062285,13.791022 C9.42132154,11.9573365 11.9513635,11 14.9110637,11 C14.9830552,11 15.0416138,11.0005449 15.1709506,11.0021727 C18.1642563,11.0579343 21.4892568,12.054687 24.846856,13.8615365 C28.2043463,12.0549011 31.5294478,11.0582199 34.5285749,11.0023605 C34.6511587,11.0008373 34.7097173,11.0002924 34.7817087,11.0002924 C37.741409,11.0002924 40.2714509,11.9576289 42.0719373,13.7910982 C44.9455774,16.7157271 45.6779081,21.4587659 44.3568261,26.9317537 C47.3106837,28.4598018 49,30.3609987 49,32.5360687 Z M13.0693406,24.2226547 L15.8751825,23.6792295 L14.1240521,25.9296919 C12.289213,28.2877323 10.7637017,30.7728923 9.60849625,33.2646048 L8.65769065,35.3154384 L7.66598091,33.2839184 C6.71760527,31.3411683 5.98294372,29.3977742 5.48225734,27.5094602 L5.24447024,26.6126579 L6.10164498,26.2503424 C8.06006892,25.4225446 10.4238926,24.7350154 13.0693406,24.2226547 Z M8.68905888,30.3123733 L8.67567847,30.2793857 C8.68013083,30.2903805 8.68459097,30.3013764 8.68905888,30.3123733 Z M8.67567847,30.2793857 L8.68905888,30.3123733 C9.30251233,29.1796452 9.9848925,28.0559992 10.7310792,26.9512756 C9.68607237,27.2287125 8.71160922,27.5368811 7.82000028,27.8717361 C8.06193349,28.6652528 8.34770156,29.4694676 8.67567847,30.2793857 Z M37.0736638,40.6122729 L34.1933549,41.2454898 L35.9893488,38.9147189 C37.620888,36.7973709 39.0035972,34.5795048 40.0934465,32.3470438 L41.085167,30.3155914 L42.0359529,32.3663722 C42.8214558,34.0606489 43.4423861,35.7502681 43.8855504,37.3982175 L44.1228803,38.2807515 L43.2853061,38.6530834 C41.5345814,39.4313436 39.4326971,40.0936551 37.0736638,40.6122729 Z M41.5505702,37.0567947 C41.3739821,36.4833566 41.1745373,35.9043372 40.9528339,35.3216242 C40.4833212,36.1511046 39.977193,36.9745633 39.4364843,37.7881337 C40.186726,37.5603551 40.8931862,37.3159529 41.5505702,37.0567947 Z M37.4007563,24.7891391 L36.7724068,24.3937611 C36.9019032,24.4213075 37.0306504,24.4492825 37.1586332,24.4776818 C37.2398813,24.5812291 37.3205905,24.6850506 37.4007563,24.7891391 Z M43.5483481,26.5372832 L44.3756869,26.918394 L44.1334208,27.7937349 C43.6355188,29.5927233 42.9274551,31.4385784 42.0267556,33.2835826 L41.0350352,35.3150351 L40.0842492,33.2642542 C39.0069665,30.9406282 37.6074126,28.622234 35.9349922,26.4072294 C32.4909351,25.7068017 28.5728633,25.3310599 24.4994943,25.3310599 C20.5925028,25.3310599 16.8263625,25.6766036 13.479634,26.3247858 L10.6737921,26.8682109 L12.4249226,24.6177486 C13.1206695,23.7236105 13.8565205,22.849632 14.6294795,22.0003934 C17.5692995,18.7698095 20.9071853,16.0725037 24.3180434,14.1526376 L24.8468563,13.8549852 L25.3756585,14.1526566 C28.7860557,16.0724249 32.1235202,18.7695689 35.063221,22.0000219 C35.7959526,22.8050633 36.4952546,23.6322338 37.1586332,24.4776818 C39.6022307,25.0199139 41.7671793,25.7167937 43.5483481,26.5372832 Z M33.470513,23.438361 C30.8352483,20.5424545 27.8700939,18.1040173 24.846811,16.3217584 C21.8230935,18.1041181 18.8575599,20.5427077 16.2221875,23.4387324 C16.127749,23.5424906 16.0338963,23.646632 15.9406354,23.7511473 C18.6454982,23.3821903 21.5352474,23.1895653 24.4994943,23.1895653 C27.7581458,23.1895653 30.9256415,23.4224305 33.8540917,23.8655292 C33.7273371,23.7224442 33.5994726,23.5800469 33.470513,23.438361 Z M41.0037037,30.3120669 C41.3038451,29.5733544 41.5689277,28.8392621 41.7977033,28.1135712 C40.9817502,27.7809441 40.0860685,27.471542 39.1213872,27.1891617 C39.8055116,28.2171047 40.4343138,29.2607045 41.0037037,30.3120669 Z M36.3234559,26.4880377 L35.9361645,26.4056534 L35.6951064,26.0926597 C35.1112959,25.3346307 34.4969707,24.5912337 33.8540917,23.8655292 C34.8568723,24.0172582 35.8316234,24.1936384 36.7724068,24.3937611 L37.1596982,24.4761454 L37.4007563,24.7891391 C38.0073999,25.576815 38.5816132,26.378115 39.1213872,27.1891617 C38.2432236,26.9321067 37.307882,26.6974441 36.3234559,26.4880377 Z M12.1354681,40.3967005 L12.7729592,40.7901532 C12.6418643,40.7639046 12.5114837,40.7372221 12.3818327,40.7101101 C12.299164,40.6059222 12.2170409,40.50145 12.1354681,40.3967005 Z M24.4994943,39.7400848 C28.843171,39.7400848 33.0093677,39.3127549 36.6103646,38.5210996 L39.4906735,37.8878827 L37.6946797,40.2186535 C36.9618668,41.1696696 36.1836881,42.0983643 35.3637112,42.9992607 C32.3335474,46.329124 28.8815673,49.0911879 25.3645334,51.0194205 L24.8462361,51.3035798 L24.3279441,51.0194112 C20.81111,49.0912054 17.3589102,46.3290264 14.3280767,42.9990029 C13.6500694,42.2540024 13.0006636,41.4900258 12.3818327,40.7101101 C10.1300259,40.2392222 8.09832251,39.6387612 6.3676951,38.931541 L5.50192132,38.5777429 L5.73448652,37.6748066 C6.18132415,35.939956 6.82722003,34.1560638 7.65679088,32.3667266 L8.60759648,30.3158929 L9.59930622,32.347413 C10.6639956,34.5284321 12.0079531,36.6951076 13.5900881,38.7676463 C16.9075888,39.4018477 20.6342728,39.7400848 24.4994943,39.7400848 Z M8.73989265,35.3220375 C8.48783474,35.984541 8.26456849,36.6422166 8.07096145,37.2922864 C8.80360819,37.5587336 9.58952251,37.8075079 10.4222162,38.0364837 C9.81884155,37.1424607 9.25715898,36.2359275 8.73989265,35.3220375 Z M15.9207631,41.5606402 C18.6450322,44.5538365 21.7206014,47.0572403 24.8462582,48.8523998 C27.9720182,47.0572528 31.0473106,44.5540021 33.7710032,41.5609217 C33.89104,41.429039 34.0101297,41.2965381 34.1282599,41.1634381 C31.1245848,41.6337869 27.8607451,41.8815794 24.4994943,41.8815794 C21.4355557,41.8815794 18.4515534,41.6757571 15.6697622,41.2823946 C15.7529618,41.3754434 15.8366302,41.4681941 15.9207631,41.5606402 Z M12.7729592,40.7901532 L12.3807039,40.7116135 L12.1354681,40.3967005 C11.5324644,39.6223695 10.9607348,38.8344092 10.4222162,38.0364837 C11.2978017,38.2772539 12.22511,38.4961333 13.1965975,38.6906505 L13.5888527,38.7691902 L13.8340885,39.0841032 C14.4169002,39.8325051 15.0294457,40.5662768 15.6697622,41.2823946 C14.6765273,41.1419451 13.7090711,40.9775872 12.7729592,40.7901532 Z" id="Combined-Shape" fill="#202234" fill-rule="nonzero"></path>
    </g>
</svg>
