<?xml version="1.0" encoding="UTF-8"?>
<svg width="192px" height="128px" viewBox="0 0 192 128" version="1.1" xmlns="http://www.w3.org/2000/svg" xmlns:xlink="http://www.w3.org/1999/xlink">
        <g id="Provider/HyperV/hyperv-128-disabled" stroke="none" stroke-width="1" fill="none" fill-rule="evenodd">
        <g id="Group-2" transform="translate(0.000000, 36.000000)" fill="#A4AAB5">
            <polygon id="Fill-1" points="84.1806268 44.2824615 84.1806268 33.2101538 71.3588178 33.2101538 71.3588178 44.2824615 69.1783338 44.2824615 69.1783338 20.6196923 71.3588178 20.6196923 71.3588178 31.2301538 84.1806268 31.2301538 84.1806268 20.6196923 86.3617223 20.6196923 86.3617223 44.2824615"></polygon>
            <path d="M96.1800459,47.3518769 C95.5242497,49.0017231 94.7703134,50.2257231 93.9179312,51.0232615 C93.0652433,51.8208 92.032479,52.2195692 90.8190268,52.2195692 C90.217651,52.2195692 89.7095236,52.1481846 89.2940331,52.0051077 L89.2940331,50.0251077 C89.5346446,50.1128 89.7777019,50.1789538 90.0241223,50.2229538 C90.2693197,50.2666462 90.5178803,50.2888 90.7694981,50.2888 C91.4586191,50.2888 92.0572433,50.0718769 92.565065,49.6371077 C93.0738038,49.2026462 93.5134471,48.5454154 93.8852178,47.6654154 L95.3441732,44.1998769 L88.8843516,27.3854154 L91.2125045,27.3854154 L96.0167847,40.7678769 C96.0819057,40.9438769 96.1445809,41.1444923 96.2048102,41.3703385 C96.2653452,41.5958769 96.3228229,41.8186462 96.377549,42.0383385 L96.4588739,42.0383385 C96.5139057,41.8512615 96.5658803,41.6617231 96.6154089,41.4691077 C96.6640204,41.2768 96.7321987,41.0644923 96.8196382,40.8334154 L101.91895,27.3854154 L104.132759,27.3854154 L96.1800459,47.3518769 Z" id="Fill-2"></path>
            <path d="M108.327531,37.2530154 C108.327531,38.0228615 108.455327,38.7465538 108.712448,39.4228615 C108.969569,40.0997846 109.327276,40.6936308 109.786181,41.2050154 C110.245391,41.7167077 110.800601,42.1207077 111.450894,42.4179385 C112.101493,42.7148615 112.819659,42.8634769 113.606614,42.8634769 C114.448296,42.8634769 115.207735,42.6847077 115.886155,42.3268615 C116.563353,41.9696308 117.14027,41.4610154 117.615684,40.8007077 C118.091098,40.1407077 118.457366,39.3434769 118.714487,38.4080923 C118.97069,37.4733231 119.09971,36.4277846 119.09971,35.2727077 C119.09971,34.2828615 118.979251,33.3893231 118.739251,32.5914769 C118.498334,31.7939385 118.156831,31.1148615 117.713824,30.5539385 C117.271124,29.9927077 116.73548,29.5634769 116.1072,29.2665538 C115.47892,28.9696308 114.776652,28.8213231 114.000703,28.8213231 C113.125697,28.8213231 112.339047,28.9831692 111.639225,29.3077846 C110.940015,29.6320923 110.343837,30.0748615 109.851913,30.6357846 C109.360601,31.1967077 108.983633,31.8545538 108.721009,32.6077846 C108.458385,33.3619385 108.327531,34.1619385 108.327531,35.0090154 L108.327531,37.2530154 Z M108.327531,41.5597846 L108.327531,52.0542462 L106.228678,52.0542462 L106.228678,27.3853231 L108.327531,27.3853231 L108.327531,30.6194769 L108.392652,30.6194769 C109.016041,29.4425538 109.849162,28.5431692 110.893544,27.9213231 C111.937315,27.3000923 113.11469,26.9893231 114.426283,26.9893231 C115.497875,26.9893231 116.456652,27.1847077 117.304448,27.5751692 C118.151633,27.9653231 118.867047,28.5182462 119.452219,29.2333231 C120.03678,29.9487077 120.485289,30.8176308 120.796219,31.8404 C121.108372,32.8634769 121.26399,34.0136308 121.26399,35.2893231 C121.26399,36.6865538 121.088805,37.9597846 120.739047,39.1090154 C120.388983,40.2591692 119.886665,41.2465538 119.230869,42.0714769 C118.575073,42.8964 117.779862,43.5376308 116.845238,43.9936308 C115.91092,44.4502462 114.858283,44.6785538 113.68855,44.6785538 C111.327684,44.6785538 109.562385,43.6388615 108.392652,41.5597846 L108.327531,41.5597846 Z" id="Fill-4"></path>
            <path d="M135.656836,34.3653846 C135.624428,32.6053846 135.208326,31.2410769 134.410976,30.2730769 C133.612708,29.3050769 132.503205,28.8210769 131.082466,28.8210769 C130.371638,28.8210769 129.713702,28.9475385 129.106517,29.2004615 C128.50025,29.4533846 127.966746,29.8195385 127.507842,30.2976923 C127.048632,30.7761538 126.669218,31.3592308 126.368683,32.0466154 C126.067536,32.7343077 125.857498,33.5072308 125.737039,34.3653846 L135.656836,34.3653846 Z M125.688122,36.2136923 C125.699129,37.2475385 125.83518,38.1773846 126.097498,39.002 C126.360122,39.8272308 126.73709,40.5256923 127.229014,41.098 C127.721243,41.6696923 128.319868,42.1072308 129.024581,42.4096923 C129.7296,42.7124615 130.525116,42.8635385 131.409906,42.8635385 C133.301473,42.8635385 135.088479,42.198 136.771536,40.8669231 L136.771536,42.9456923 C135.165218,44.1010769 133.219231,44.6786154 130.934492,44.6786154 C129.808785,44.6786154 128.786721,44.4804615 127.868301,44.0847692 C126.950186,43.6884615 126.169039,43.1136923 125.523944,42.3601538 C124.879154,41.6066154 124.382033,40.6795385 124.031969,39.5795385 C123.681906,38.4795385 123.507027,37.226 123.507027,35.8173846 C123.507027,34.5521538 123.698415,33.3807692 124.081498,32.3026154 C124.464275,31.2244615 124.993498,30.2924615 125.671918,29.5056923 C126.349422,28.7192308 127.152275,28.1029231 128.082313,27.6576923 C129.010517,27.2118462 130.027078,26.9890769 131.131078,26.9890769 C132.213676,26.9890769 133.169702,27.1789231 134.000683,27.5586154 C134.831358,27.9383077 135.528122,28.4801538 136.091282,29.1838462 C136.654135,29.8881538 137.083078,30.746 137.378721,31.758 C137.673753,32.77 137.82081,33.9032308 137.82081,35.1573846 L137.82081,36.2136923 L125.688122,36.2136923 Z" id="Fill-6"></path>
            <path d="M149.460504,29.5468615 C148.967969,29.1837846 148.333575,29.0019385 147.557931,29.0019385 C147.000581,29.0019385 146.508963,29.1096308 146.082161,29.3240923 C145.656581,29.5388615 145.281753,29.8274769 144.959511,30.1905538 C144.636963,30.5536308 144.363332,30.9745538 144.139842,31.4527077 C143.915129,31.9314769 143.734441,32.4293231 143.59839,32.9462462 C143.461422,33.4634769 143.363282,33.9859385 143.303358,34.5139385 C143.243129,35.0416308 143.212861,35.5425538 143.212861,36.0151692 L143.212861,44.2825538 L141.130823,44.2825538 L141.130823,27.3853231 L143.212861,27.3853231 L143.212861,30.9991692 L143.278594,30.9991692 C143.475485,30.3831692 143.72374,29.8302462 144.025192,29.3407077 C144.325422,28.8514769 144.672428,28.4388615 145.0656,28.1031692 C145.459689,27.7674769 145.888632,27.5120923 146.353345,27.3357846 C146.817753,27.1597846 147.306313,27.0717846 147.820555,27.0717846 C148.158696,27.0717846 148.462288,27.0939385 148.73011,27.1379385 C148.997931,27.1819385 149.241294,27.2477846 149.460504,27.3357846 L149.460504,29.5468615 Z" id="Fill-8"></path>
            <polygon id="Fill-10" points="149.244229 35.5369231 158.213503 35.5369231 158.213503 33.7218462 149.244229 33.7218462"></polygon>
            <path d="M170.638746,44.2824615 L168.50718,44.2824615 L159.948504,20.6196923 L162.391307,20.6196923 L169.048632,39.5301538 C169.168479,39.8821538 169.275485,40.2372308 169.368428,40.5944615 C169.461065,40.9523077 169.534746,41.3233846 169.589473,41.7083077 L169.655511,41.7083077 C169.709625,41.4006154 169.786364,41.0624615 169.88481,40.6935385 C169.98295,40.3252308 170.108606,39.9264615 170.261778,39.4972308 L177.197625,20.6196923 L179.558492,20.6196923 L170.638746,44.2824615 Z" id="Fill-12"></path>
            <path d="M190.607175,26.3673231 L190.401111,23.0476308 C190.380321,22.6116308 190.380321,22.0931692 190.359225,21.4704 L190.298079,21.4704 C190.153468,21.9685538 189.988678,22.6325538 189.823582,23.1513231 L188.814054,26.2839385 L187.659302,26.2839385 L186.669952,23.0682462 C186.56692,22.6534769 186.38134,21.9685538 186.257213,21.4704 L186.195149,21.4704 C186.195149,21.9894769 186.175276,22.5497846 186.154487,23.0476308 L185.948423,26.3673231 L184.875913,26.3673231 L185.288652,20.7242462 L186.979047,20.7242462 L187.927124,23.4833231 C188.071429,23.9190154 188.174461,24.3337846 188.298283,24.9147077 L188.339251,24.9147077 C188.463073,24.4168615 188.607073,23.9190154 188.710104,23.5245538 L189.679582,20.7242462 L191.307913,20.7242462 L191.720652,26.3673231 L190.607175,26.3673231 Z M184.546334,20.7242462 L184.546334,21.6574769 L182.753213,21.6574769 L182.753213,26.3673231 L181.639735,26.3673231 L181.639735,21.6574769 L179.866487,21.6574769 L179.866487,20.7242462 L184.546334,20.7242462 Z" id="Fill-13"></path>
            <path d="M78.3124586,15.4522154 L78.3124586,8.53036923 C78.3124586,8.17621538 78.3396688,7.60513846 78.3953121,6.81744615 L78.3674904,6.81744615 C78.3023694,7.02698462 78.2433631,7.20883077 78.1910828,7.36267692 C78.1375796,7.51652308 78.0871338,7.64236923 78.0415796,7.74021538 L74.5672357,15.4522154 L74.1716178,15.4522154 L70.6905478,7.78883077 C70.5890446,7.55590769 70.4844841,7.2276 70.3787006,6.80329231 L70.3505732,6.80329231 C70.3686115,7.01775385 70.381758,7.26267692 70.3887898,7.53713846 C70.3955159,7.81221538 70.3985732,8.11775385 70.3985732,8.45313846 L70.3985732,15.4522154 L69.496051,15.4522154 L69.496051,5.42606154 L70.5869045,5.42606154 L73.9695287,12.9629846 C74.0392357,13.1214462 74.107414,13.2836 74.1746752,13.4491385 C74.242242,13.6143692 74.3033885,13.7906769 74.3590318,13.9768308 L74.4009172,13.9768308 C74.4657325,13.7906769 74.5247389,13.6202154 74.578242,13.4663692 C74.630828,13.3128308 74.6974777,13.1472923 74.7757452,12.9700615 L78.1871083,5.42606154 L79.2223185,5.42606154 L79.2223185,15.4522154 L78.3124586,15.4522154 Z" id="Fill-14"></path>
            <path d="M81.6611465,15.4523077 L82.5499108,15.4523077 L82.5499108,8.29261538 L81.6611465,8.29261538 L81.6611465,15.4523077 Z M82.0986497,6.48184615 C81.926828,6.48184615 81.7788535,6.42092308 81.6541146,6.3 C81.5287643,6.17876923 81.4660892,6.02492308 81.4660892,5.83846154 C81.4660892,5.65661538 81.5287643,5.50615385 81.6541146,5.38738462 C81.7788535,5.26861538 81.926828,5.20892308 82.0986497,5.20892308 C82.1860892,5.20892308 82.2695541,5.22430769 82.3487389,5.25446154 C82.4267006,5.28492308 82.4957962,5.328 82.5538854,5.384 C82.6113631,5.44 82.6575287,5.50615385 82.6923822,5.58338462 C82.7272357,5.66030769 82.7443567,5.74492308 82.7443567,5.83846154 C82.7443567,5.92707692 82.7281529,6.01076923 82.6954395,6.09015385 C82.6636433,6.16923077 82.6174777,6.23815385 82.5569427,6.29630769 C82.4967134,6.35476923 82.428535,6.4 82.3517962,6.43261538 C82.2759745,6.46553846 82.1906752,6.48184615 82.0986497,6.48184615 L82.0986497,6.48184615 Z" id="Fill-15"></path>
            <path d="M89.5733503,15.1304 C89.0453503,15.4522462 88.4066752,15.6177846 87.6561019,15.6273231 C87.1461401,15.6313231 86.6878471,15.5430154 86.2803057,15.3614769 C85.8724586,15.1796308 85.5254522,14.9267077 85.2383694,14.6030154 C84.9509809,14.2787077 84.7311592,13.8965538 84.5785987,13.4559385 C84.4254268,13.0156308 84.3486879,12.5368615 84.3486879,12.0193231 C84.3486879,11.4833231 84.4300127,10.9787077 84.5923567,10.5054769 C84.7543949,10.0322462 84.9904204,9.61963077 85.3010446,9.26793846 C85.6107516,8.91624615 85.9907771,8.63747692 86.4398981,8.43224615 C86.8890191,8.22732308 87.4029554,8.12486154 87.9823185,8.12486154 C88.5705478,8.12486154 89.1080255,8.23901538 89.5941401,8.46732308 L89.5941401,9.4184 C89.0756178,9.07347692 88.5149045,8.90086154 87.9132229,8.90086154 C87.4913121,8.90086154 87.1164841,8.98116923 86.7875159,9.14209231 C86.4585478,9.30301538 86.1821656,9.52178462 85.9574522,9.79932308 C85.7324331,10.0768615 85.5609172,10.4005538 85.4435159,10.7710154 C85.3248917,11.1414769 85.2661911,11.5340923 85.2661911,11.9491692 C85.2661911,12.3313231 85.3157197,12.6971692 85.4153885,13.0470154 C85.5147516,13.3965538 85.6679236,13.7057846 85.8739873,13.9731692 C86.0797452,14.2417846 86.3408408,14.4547077 86.6551338,14.6134769 C86.9703439,14.7716308 87.3411975,14.8510154 87.7670828,14.8510154 C88.4335796,14.8510154 89.0361783,14.6504 89.5733503,14.2494769 L89.5733503,15.1304 Z" id="Fill-16"></path>
            <path d="M94.8120153,9.20836923 C94.6038115,9.05483077 94.3350726,8.9776 94.0061045,8.9776 C93.7697732,8.9776 93.5615694,9.02313846 93.3802701,9.11390769 C93.2001936,9.20467692 93.0412127,9.32744615 92.9051618,9.48098462 C92.7678879,9.63483077 92.6526268,9.81329231 92.5572382,10.0160615 C92.4621554,10.2188308 92.3863338,10.4296 92.3282446,10.6486769 C92.2701554,10.8680615 92.2282701,11.0892923 92.2028943,11.3129846 C92.1772127,11.5366769 92.1646777,11.7489846 92.1646777,11.9492923 L92.1646777,15.4520615 L91.2829452,15.4520615 L91.2829452,8.29267692 L92.1646777,8.29267692 L92.1646777,9.82375385 L92.1928051,9.82375385 C92.2762701,9.56283077 92.3817478,9.32867692 92.5086268,9.12098462 C92.6364229,8.9136 92.7834803,8.73883077 92.9501045,8.59667692 C93.1164229,8.45452308 93.2983338,8.34621538 93.4949197,8.27175385 C93.6924229,8.19667692 93.8990981,8.15975385 94.1167796,8.15975385 C94.2607796,8.15975385 94.3891873,8.16929231 94.5023083,8.18744615 C94.6160408,8.20621538 94.7190726,8.23421538 94.8120153,8.27175385 L94.8120153,9.20836923 Z" id="Fill-17"></path>
            <path d="M98.8969987,8.90083077 C98.5078013,8.90083077 98.1559032,8.96821538 97.8409987,9.1036 C97.5257885,9.23867692 97.2564382,9.43590769 97.0317248,9.69467692 C96.8064,9.95313846 96.6348841,10.2700615 96.513814,10.6451385 C96.3936611,11.0205231 96.3334318,11.4457538 96.3334318,11.9211385 C96.3334318,12.3688308 96.3936611,12.7722154 96.513814,13.1309846 C96.6348841,13.4897538 96.8048713,13.7977538 97.0249987,14.0540615 C97.2448204,14.3103692 97.5120306,14.5076 97.826935,14.6445231 C98.1421452,14.7820615 98.4937376,14.8509846 98.882935,14.8509846 C99.2809987,14.8509846 99.6332025,14.7845231 99.9392408,14.6516 C100.244973,14.5186769 100.50454,14.3254462 100.71733,14.0716 C100.93012,13.8174462 101.091546,13.5060615 101.199776,13.1380615 C101.308922,12.7697538 101.363037,12.3500615 101.363037,11.8796 C101.363037,10.9143692 101.150247,10.1768308 100.724362,9.66636923 C100.297559,9.15621538 99.6891516,8.90083077 98.8969987,8.90083077 M98.8272917,15.6202154 C98.2992917,15.6202154 97.8263236,15.5312923 97.4065529,15.3543692 C96.9876994,15.1771385 96.6299924,14.9266769 96.3334318,14.6029846 C96.0371771,14.2786769 95.8100178,13.8906769 95.6528713,13.4386769 C95.4948076,12.9863692 95.4159287,12.4854462 95.4159287,11.9352923 C95.4159287,11.3386769 95.4996994,10.8048308 95.666935,10.3343692 C95.8332535,9.86329231 96.0701962,9.4636 96.3783745,9.13498462 C96.6865529,8.80667692 97.0580178,8.55590769 97.4933809,8.3836 C97.9293554,8.21098462 98.4154701,8.12483077 98.9529478,8.12483077 C99.4668841,8.12483077 99.9300688,8.20975385 100.34189,8.37990769 C100.754324,8.55006154 101.103776,8.79621538 101.390859,9.11744615 C101.678247,9.43929231 101.898069,9.83098462 102.051241,10.2922154 C102.203801,10.7534462 102.28054,11.2780615 102.28054,11.8654462 C102.28054,12.4245231 102.200132,12.9340615 102.04054,13.3931385 C101.881254,13.8525231 101.652871,14.2469846 101.356005,14.5783692 C101.059445,14.9091385 100.698986,15.1654462 100.272795,15.3476 C99.8462981,15.5291385 99.3647694,15.6202154 98.8272917,15.6202154" id="Fill-18"></path>
            <path d="M103.669575,14.1657231 C103.804097,14.2728 103.949931,14.3684923 104.107078,14.4524923 C104.264836,14.5361846 104.426874,14.6088 104.593192,14.6691077 C104.760428,14.7297231 104.928581,14.7749538 105.097345,14.8054154 C105.26611,14.8358769 105.427231,14.8512615 105.580403,14.8512615 C106.636403,14.8512615 107.164097,14.4524923 107.164097,13.6552615 C107.164097,13.4734154 107.127715,13.3164923 107.053116,13.1835692 C106.978823,13.0506462 106.872734,12.9294154 106.73332,12.8195692 C106.594517,12.7103385 106.427587,12.6088 106.233141,12.5158769 C106.038696,12.4226462 105.818874,12.3244923 105.573676,12.2220308 C105.244403,12.0869538 104.961906,11.9491077 104.725575,11.8094154 C104.489549,11.6694154 104.295103,11.5171077 104.141931,11.3515692 C103.989371,11.1860308 103.875638,11.0044923 103.802262,10.8063385 C103.727664,10.6081846 103.690364,10.3829538 103.690364,10.1312615 C103.690364,9.81464615 103.758543,9.53249231 103.895511,9.28541538 C104.032173,9.03833846 104.216224,8.82849231 104.447664,8.65618462 C104.679409,8.48356923 104.947231,8.35187692 105.249906,8.26110769 C105.553498,8.17033846 105.87146,8.1248 106.20532,8.1248 C106.821676,8.1248 107.358848,8.24141538 107.817141,8.47433846 L107.817141,9.41833846 C107.284555,9.07341538 106.710084,8.9008 106.094645,8.9008 C105.87146,8.9008 105.669676,8.9288 105.486543,8.9848 C105.303409,9.0408 105.146874,9.11987692 105.017549,9.22233846 C104.887307,9.32541538 104.786721,9.44756923 104.715791,9.58941538 C104.643638,9.73187692 104.607256,9.88910769 104.607256,10.0617231 C104.607256,10.2389538 104.635078,10.3934154 104.691027,10.5263385 C104.746364,10.6592615 104.833498,10.7792615 104.951817,10.8863385 C105.069524,10.9937231 105.222696,11.0964923 105.41011,11.1940308 C105.597524,11.2918769 105.825906,11.3968 106.094645,11.5091077 C106.436759,11.6488 106.73332,11.7875692 106.983409,11.9248 C107.233498,12.0623385 107.439562,12.2112615 107.601906,12.3721846 C107.763944,12.5331077 107.884708,12.7124923 107.962976,12.9106462 C108.041855,13.1088 108.0816,13.3383385 108.0816,13.5992615 C108.0816,13.9211077 108.015562,14.2078769 107.88318,14.4595692 C107.751715,14.7112615 107.567969,14.9232615 107.334084,15.0955692 C107.100504,15.2681846 106.826262,15.3989538 106.511052,15.4872615 C106.196148,15.5758769 105.854033,15.6201846 105.48318,15.6201846 C104.76532,15.6201846 104.160275,15.4684923 103.669575,15.1657231 L103.669575,14.1657231 Z" id="Fill-19"></path>
            <path d="M112.833783,8.90083077 C112.444586,8.90083077 112.092688,8.96821538 111.777783,9.1036 C111.462573,9.23867692 111.193223,9.43590769 110.96851,9.69467692 C110.743185,9.95313846 110.571363,10.2700615 110.450599,10.6451385 C110.330446,11.0205231 110.270217,11.4457538 110.270217,11.9211385 C110.270217,12.3688308 110.330446,12.7722154 110.450599,13.1309846 C110.571363,13.4897538 110.741656,13.7977538 110.961783,14.0540615 C111.181605,14.3103692 111.448815,14.5076 111.76372,14.6445231 C112.07893,14.7820615 112.430522,14.8509846 112.81972,14.8509846 C113.217783,14.8509846 113.569987,14.7845231 113.876025,14.6516 C114.181758,14.5186769 114.441325,14.3254462 114.654115,14.0716 C114.866904,13.8174462 115.028025,13.5060615 115.136255,13.1380615 C115.245707,12.7697538 115.299822,12.3500615 115.299822,11.8796 C115.299822,10.9143692 115.086726,10.1768308 114.661146,9.66636923 C114.234344,9.15621538 113.625936,8.90083077 112.833783,8.90083077 M112.764076,15.6202154 C112.236076,15.6202154 111.763108,15.5312923 111.343338,15.3543692 C110.924484,15.1771385 110.566777,14.9266769 110.270217,14.6029846 C109.973656,14.2786769 109.746803,13.8906769 109.589656,13.4386769 C109.431592,12.9863692 109.352713,12.4854462 109.352713,11.9352923 C109.352713,11.3386769 109.436484,10.8048308 109.60372,10.3343692 C109.770038,9.86329231 110.006981,9.4636 110.315159,9.13498462 C110.623338,8.80667692 110.994803,8.55590769 111.42986,8.3836 C111.865834,8.21098462 112.352255,8.12483077 112.889732,8.12483077 C113.403669,8.12483077 113.866548,8.20975385 114.278675,8.37990769 C114.691108,8.55006154 115.040561,8.79621538 115.327643,9.11744615 C115.615032,9.43929231 115.834854,9.83098462 115.988025,10.2922154 C116.140586,10.7534462 116.217325,11.2780615 116.217325,11.8654462 C116.217325,12.4245231 116.136917,12.9340615 115.977325,13.3931385 C115.817732,13.8525231 115.58935,14.2469846 115.29279,14.5783692 C114.996229,14.9091385 114.635771,15.1654462 114.20958,15.3476 C113.782777,15.5291385 113.301248,15.6202154 112.764076,15.6202154" id="Fill-20"></path>
            <path d="M121.066487,5.69861538 C120.866843,5.56815385 120.609722,5.50261538 120.295429,5.50261538 C119.461391,5.50261538 119.044372,6.05061538 119.044372,7.14569231 L119.044372,8.29276923 L120.816703,8.29276923 L120.816703,9.07553846 L119.044372,9.07553846 L119.044372,15.4521538 L118.155608,15.4521538 L118.155608,9.07553846 L116.911888,9.07553846 L116.911888,8.29276923 L118.155608,8.29276923 L118.155608,7.09 C118.155608,6.73123077 118.200245,6.40569231 118.290741,6.11430769 C118.381544,5.82323077 118.51362,5.574 118.690639,5.36630769 C118.86613,5.15923077 119.08748,4.99923077 119.353773,4.88753846 C119.620372,4.77553846 119.926716,4.71953846 120.274334,4.71953846 C120.607276,4.71953846 120.871429,4.76384615 121.066487,4.85246154 L121.066487,5.69861538 Z" id="Fill-21"></path>
            <path d="M125.255969,15.3685538 C124.950237,15.5220923 124.616377,15.5993231 124.255001,15.5993231 C123.106976,15.5993231 122.532199,14.9325538 122.532199,13.5993231 L122.532199,9.07532308 L121.281753,9.07532308 L121.281753,8.29255385 L122.532199,8.29255385 L122.532199,6.48886154 L123.42188,6.19501538 L123.42188,8.29255385 L125.255969,8.29255385 L125.255969,9.07532308 L123.42188,9.07532308 L123.42188,13.4593231 C123.42188,13.9445538 123.500148,14.2937846 123.657906,14.5082462 C123.815052,14.7230154 124.081345,14.8300923 124.45709,14.8300923 C124.735001,14.8300923 125.001294,14.7460923 125.255969,14.5784 L125.255969,15.3685538 Z" id="Fill-22"></path>
            <path d="M128.476922,5.89076923 L128.476922,7.01630769 L129.011954,7.01630769 C129.222604,7.01630769 129.391368,6.96861538 129.518247,6.87384615 C129.645432,6.77876923 129.708718,6.63569231 129.708718,6.44553846 C129.708718,6.076 129.451292,5.89076923 128.934604,5.89076923 L128.476922,5.89076923 Z M129.790349,8.71292308 L129.41705,7.93815385 C129.30882,7.70461538 129.20426,7.54738462 129.102757,7.46707692 C129.001254,7.38676923 128.887521,7.34676923 128.760642,7.34676923 L128.476922,7.34676923 L128.476922,8.71292308 L128.08375,8.71292308 L128.08375,5.56461538 L128.999725,5.56461538 C129.345814,5.56461538 129.618222,5.64 129.818171,5.79107692 C130.017814,5.94184615 130.1184,6.14246154 130.1184,6.39261538 C130.1184,6.87384615 129.845381,7.16492308 129.299037,7.26523077 L129.299037,7.27723077 C129.456489,7.31538462 129.629228,7.50615385 129.818171,7.84861538 L130.231521,8.71292308 L129.790349,8.71292308 Z M129.032132,5.08307692 C128.461636,5.08307692 127.976132,5.29076923 127.575011,5.70523077 C127.17389,6.12 126.97333,6.61815385 126.97333,7.19969231 C126.97333,7.77907692 127.172362,8.27476923 127.571037,8.68646154 C127.969101,9.09876923 128.456132,9.30461538 129.032132,9.30461538 C129.609661,9.30461538 130.102808,9.09876923 130.510961,8.68646154 C130.919113,8.27476923 131.123343,7.77907692 131.123343,7.19969231 C131.123343,6.61815385 130.918196,6.12 130.509432,5.70523077 C130.100056,5.29076923 129.607521,5.08307692 129.032132,5.08307692 L129.032132,5.08307692 Z M129.048336,9.63938462 C128.372362,9.63938462 127.79789,9.40123077 127.324005,8.92553846 C126.849508,8.44923077 126.612566,7.87415385 126.612566,7.19969231 C126.612566,6.51753846 126.851343,5.93815385 127.32798,5.46246154 C127.804922,4.98676923 128.377254,4.74892308 129.04375,4.74892308 C129.714222,4.74892308 130.288082,4.98707692 130.766553,5.46461538 C131.245024,5.94184615 131.483496,6.516 131.483496,7.18769231 C131.483496,7.86769231 131.246859,8.44615385 130.772668,8.92307692 C130.298171,9.40030769 129.723699,9.63938462 129.048336,9.63938462 L129.048336,9.63938462 Z" id="Fill-23"></path>
            <path d="M55.5655338,0.226861538 L25.4193936,4.39763077 L25.4193936,26.7465538 L55.5655338,26.7465538 L55.5655338,0.226861538 Z M0.257610191,7.87670769 L0.258833121,26.7465538 L22.9123873,26.7465538 L22.9123873,4.74286154 L0.257610191,7.87670769 Z M25.4193936,29.5625538 L25.4193936,51.6619385 L55.5655338,55.8277846 L55.5655338,29.5625538 L25.4193936,29.5625538 Z M22.9123873,29.5637846 L22.9123873,29.5625538 L22.9123873,29.5637846 Z M0.258833121,29.5637846 L0.260056051,48.1865538 L22.9123873,51.3154769 L22.9123873,29.5637846 L0.258833121,29.5637846 Z" id="Fill-25"></path>
        </g>
    </g>
</svg>
