<?xml version="1.0" encoding="UTF-8"?>
<svg width="105px" height="42px" viewBox="0 0 105 42" version="1.1" xmlns="http://www.w3.org/2000/svg" xmlns:xlink="http://www.w3.org/1999/xlink">
    <!-- Generator: Sketch 53 (72520) - https://sketchapp.com -->
    <title>Provider/HyperV/hyperv-42</title>
    <desc>Created with Sketch.</desc>
    <g id="Provider/HyperV/hyperv-42" stroke="none" stroke-width="1" fill="none" fill-rule="evenodd">
        <polygon id="Fill-1" fill="#616870" points="46.0362803 30.4335144 46.0362803 24.4648486 39.0243535 24.4648486 39.0243535 30.4335144 37.8319013 30.4335144 37.8319013 17.6778029 39.0243535 17.6778029 39.0243535 23.3975048 46.0362803 23.3975048 46.0362803 17.6778029 47.2290669 17.6778029 47.2290669 30.4335144"></polygon>
        <path d="M52.5984626,32.0881212 C52.239824,32.9774913 51.8275151,33.6373038 51.3613686,34.0672269 C50.8950549,34.49715 50.3302619,34.7121115 49.6666553,34.7121115 C49.3377779,34.7121115 49.0598957,34.6736308 48.8326744,34.5965034 L48.8326744,33.5291596 C48.9642588,33.5764313 49.0971807,33.6120923 49.2319419,33.6358111 C49.3660342,33.6593639 49.5019658,33.6713063 49.6395693,33.6713063 C50.0164323,33.6713063 50.3438049,33.5543712 50.6215199,33.3200034 C50.8997365,33.0858014 51.1401664,32.731513 51.3434785,32.257138 L52.1413447,30.3889962 L48.6086298,21.3249505 L49.8818384,21.3249505 L52.5091791,28.5389337 C52.5447922,28.6338087 52.5790677,28.7419529 52.6120056,28.8636981 C52.6451107,28.9852774 52.6765438,29.1053639 52.7064721,29.2237918 L52.7509467,29.2237918 C52.7810422,29.1229457 52.8094658,29.0207726 52.8365518,28.9169409 C52.8631361,28.813275 52.9004212,28.6988279 52.9482396,28.574263 L55.736926,21.3249505 L56.9476027,21.3249505 L52.5984626,32.0881212 Z" id="Fill-2" fill="#616870"></path>
        <path d="M59.2416186,26.6442036 C59.2416186,27.0591988 59.3115072,27.4493142 59.4521202,27.8138863 C59.5927333,28.1787901 59.7883543,28.4989103 60.0393177,28.7745786 C60.2904482,29.0504127 60.5940788,29.268194 60.9497078,29.42842 C61.305504,29.58848 61.6982508,29.668593 62.128617,29.668593 C62.5889116,29.668593 63.0042301,29.5722252 63.3752412,29.3793238 C63.7455836,29.1867541 64.0610852,28.9125786 64.3210772,28.5566315 C64.5810693,28.2008502 64.7813718,27.771093 64.9219849,27.2668623 C65.0620963,26.7629632 65.1326537,26.1993526 65.1326537,25.576694 C65.1326537,25.043105 65.0667779,24.561432 64.9355279,24.131343 C64.8037763,23.70142 64.6170167,23.335355 64.3747476,23.0329825 C64.1326457,22.730444 63.8397158,22.4990618 63.496125,22.3390017 C63.1525342,22.1789416 62.7684817,22.0989945 62.3441346,22.0989945 C61.8656154,22.0989945 61.4354164,22.1862397 61.0527014,22.3612276 C60.6703209,22.5360498 60.3442858,22.77473 60.0752651,23.0771026 C59.8065788,23.3794752 59.6004244,23.7340954 59.4568018,24.1401339 C59.3131791,24.54667 59.2416186,24.97792 59.2416186,25.4345474 L59.2416186,26.6442036 Z M59.2416186,28.9658214 L59.2416186,34.6229921 L58.0938081,34.6229921 L58.0938081,21.3249007 L59.2416186,21.3249007 L59.2416186,23.0683118 L59.2772317,23.0683118 C59.6181473,22.4338767 60.0737604,21.9490522 60.6449068,21.6138382 C61.2157189,21.278956 61.8595963,21.111432 62.5768734,21.111432 C63.1629005,21.111432 63.6872317,21.2167565 64.1508702,21.4272397 C64.6141744,21.637557 65.0054164,21.9356171 65.3254323,22.3210882 C65.6451139,22.7067252 65.8903925,23.1751291 66.0604323,23.7264656 C66.2311409,24.277968 66.3162444,24.8979728 66.3162444,25.5856507 C66.3162444,26.3388454 66.2204403,27.0251964 66.0291664,27.6447036 C65.8377253,28.2647084 65.5630199,28.7969704 65.2043814,29.2416555 C64.8457428,29.6863406 64.4108623,30.0320041 63.8997396,30.2778166 C63.3887842,30.5239608 62.8131234,30.6470329 62.173426,30.6470329 C60.8823272,30.6470329 59.9169291,30.0865738 59.2772317,28.9658214 L59.2416186,28.9658214 Z" id="Fill-4" fill="#616870"></path>
        <path d="M74.187332,25.0875901 C74.1696091,24.1388401 73.9420533,23.403393 73.5060024,22.8815805 C73.0694498,22.359768 72.4626903,22.0988618 71.6857237,22.0988618 C71.2969896,22.0988618 70.9371807,22.1670325 70.6051266,22.3033738 C70.273574,22.4397151 69.9818145,22.637095 69.7308511,22.8948498 C69.4797205,23.1527704 69.2722285,23.4670853 69.1078734,23.8376286 C68.9431839,24.2083377 68.8283193,24.6249916 68.7624435,25.0875901 L74.187332,25.0875901 Z M68.7356919,26.0839435 C68.741711,26.6412512 68.8161139,27.1424964 68.9595693,27.5870156 C69.1031919,28.0318666 69.3093463,28.408381 69.578367,28.7168906 C69.8475549,29.0250685 70.1749275,29.2609291 70.5603177,29.4239748 C70.945875,29.5871863 71.3809228,29.6686262 71.8647922,29.6686262 C72.8992428,29.6686262 73.8765119,29.3098594 74.7969339,28.5923257 L74.7969339,29.7129123 C73.9184785,30.3357368 72.8542667,30.6470661 71.6048002,30.6470661 C70.9891791,30.6470661 70.4302381,30.5402488 69.9279769,30.3269459 C69.425883,30.1133113 68.9986935,29.8034748 68.6459068,29.3972704 C68.2932874,28.9910661 68.0214244,28.4913137 67.8299833,27.898345 C67.6385422,27.3053762 67.5429053,26.6296406 67.5429053,25.8703089 C67.5429053,25.1882704 67.6475709,24.5568209 67.8570693,23.9756286 C68.0664005,23.3944363 68.3558193,22.89203 68.7268304,22.4679123 C69.09734,22.0439603 69.5364005,21.711732 70.0450151,21.4717248 C70.5526266,21.2313858 71.1085581,21.1112993 71.7123081,21.1112993 C72.3043543,21.1112993 72.8271807,21.2136382 73.2816234,21.4183161 C73.7358989,21.622994 74.1169419,21.9150829 74.4249196,22.2944171 C74.7327301,22.6740829 74.9673081,23.1365156 75.1289881,23.6820469 C75.2903336,24.2275781 75.3707556,24.8384603 75.3707556,25.5145276 L75.3707556,26.0839435 L68.7356919,26.0839435 Z" id="Fill-6" fill="#616870"></path>
        <path d="M81.7362134,22.490105 C81.4668583,22.2943839 81.1199236,22.1963575 80.6957436,22.1963575 C80.3909427,22.1963575 80.1220892,22.2544103 79.8886815,22.3700185 C79.6559427,22.4857925 79.4509586,22.6413743 79.2747325,22.8370954 C79.0983392,23.0328166 78.9486975,23.2597204 78.8264761,23.5174752 C78.703586,23.7755618 78.6047723,24.043932 78.5303694,24.3225858 C78.455465,24.6014055 78.4017946,24.883045 78.3690239,25.16767 C78.336086,25.4521291 78.3195334,25.7221579 78.3195334,25.9769272 L78.3195334,30.4335642 L77.1809188,30.4335642 L77.1809188,21.3249007 L78.3195334,21.3249007 L78.3195334,23.2729897 L78.3554809,23.2729897 C78.4631561,22.9409272 78.5989204,22.6428671 78.7637771,22.3789752 C78.927965,22.1152493 79.1177341,21.8928238 79.33275,21.7118647 C79.5482675,21.5309055 79.7828455,21.3932373 80.0369857,21.2981964 C80.2909586,21.2033214 80.5581401,21.1558839 80.8393662,21.1558839 C81.0242866,21.1558839 81.1903137,21.1678262 81.3367787,21.191545 C81.4832436,21.2152637 81.6163328,21.2507589 81.7362134,21.2981964 L81.7362134,22.490105 Z" id="Fill-8" fill="#616870"></path>
        <polygon id="Fill-10" fill="#616870" points="81.6179379 25.7191226 86.5230096 25.7191226 86.5230096 24.7406827 81.6179379 24.7406827"></polygon>
        <path d="M93.3180645,30.4335144 L92.1523639,30.4335144 L87.4718384,17.6778029 L88.807746,17.6778029 L92.4484705,27.8717236 C92.5140119,28.0614736 92.5725311,28.2528822 92.6233591,28.4454519 C92.6740199,28.6383534 92.7143145,28.838387 92.7442428,29.0458846 L92.7803575,29.0458846 C92.8099514,28.8800192 92.851918,28.6977332 92.9057556,28.4988606 C92.959426,28.3003197 93.0281441,28.0853582 93.11191,27.853976 L96.9049514,17.6778029 L98.1960502,17.6778029 L93.3180645,30.4335144 Z" id="Fill-12" fill="#616870"></path>
        <path d="M104.238299,20.7761351 L104.125607,18.9866135 C104.114238,18.7515822 104.114238,18.472099 104.102701,18.1363875 L104.069262,18.1363875 C103.990178,18.4049236 103.900058,18.7628611 103.809771,19.0425101 L103.257686,20.7311856 L102.626181,20.7311856 L102.08513,18.9977264 C102.028784,18.7741399 101.927295,18.4049236 101.859413,18.1363875 L101.825472,18.1363875 C101.825472,18.4162024 101.814604,18.7182433 101.803235,18.9866135 L101.690544,20.7761351 L101.104015,20.7761351 L101.329732,17.7341639 L102.254166,17.7341639 L102.772646,19.2214788 C102.851563,19.4563442 102.907908,19.6799308 102.975623,19.9930846 L102.998028,19.9930846 C103.065743,19.7247144 103.144493,19.4563442 103.200838,19.2437048 L103.731021,17.7341639 L104.621515,17.7341639 L104.847232,20.7761351 L104.238299,20.7761351 Z M100.923776,17.7341639 L100.923776,18.2372337 L99.9431632,18.2372337 L99.9431632,20.7761351 L99.3342301,20.7761351 L99.3342301,18.2372337 L98.3644849,18.2372337 L98.3644849,17.7341639 L100.923776,17.7341639 Z" id="Fill-13" fill="#616870"></path>
        <path d="M42.8271258,14.8922099 L42.8271258,11.1609022 C42.8271258,10.9699911 42.8420064,10.662145 42.8724363,10.2375296 L42.8572213,10.2375296 C42.8216083,10.3504839 42.7893392,10.4485103 42.7607484,10.531443 C42.7314889,10.6143757 42.7039013,10.6822147 42.6789889,10.7349599 L40.778957,14.8922099 L40.5626035,14.8922099 L38.6588933,10.7611666 C38.6033838,10.6356065 38.5462022,10.4586281 38.4883519,10.2298998 L38.4729697,10.2298998 C38.4828344,10.3455079 38.4900239,10.4775368 38.4938694,10.6254887 C38.4975478,10.7737724 38.4992197,10.9384767 38.4992197,11.11927 L38.4992197,14.8922099 L38.0056529,14.8922099 L38.0056529,9.4874863 L38.6022134,9.4874863 L40.452086,13.5503589 C40.490207,13.6357796 40.527492,13.7231906 40.5642755,13.8124262 C40.6012261,13.9014959 40.6346656,13.9965368 40.6650955,14.0968853 L40.6880016,14.0968853 C40.7234475,13.9965368 40.7557166,13.9046474 40.7849761,13.8217147 C40.8137341,13.7389478 40.8501831,13.6497123 40.8929857,13.5541738 L42.7585748,9.4874863 L43.3247054,9.4874863 L43.3247054,14.8922099 L42.8271258,14.8922099 Z" id="Fill-14" fill="#616870"></path>
        <path d="M44.6584395,14.8922596 L45.1444825,14.8922596 L45.1444825,11.032738 L44.6584395,11.032738 L44.6584395,14.8922596 Z M44.897699,10.0566202 C44.8037341,10.0566202 44.7228105,10.0237788 44.6545939,9.95859375 C44.586043,9.89324279 44.5517675,9.8103101 44.5517675,9.70979567 C44.5517675,9.61176923 44.586043,9.53066106 44.6545939,9.46663702 C44.7228105,9.40261298 44.8037341,9.3704351 44.897699,9.3704351 C44.9455175,9.3704351 44.9911624,9.37872837 45.0344666,9.39498317 C45.0771019,9.41140385 45.1148885,9.434625 45.1466561,9.4648125 C45.1780892,9.495 45.203336,9.53066106 45.2223965,9.57229327 C45.241457,9.61375962 45.2508201,9.6593726 45.2508201,9.70979567 C45.2508201,9.7575649 45.2419586,9.80268029 45.2240685,9.84547356 C45.2066799,9.88810096 45.1814331,9.92525481 45.148328,9.95660337 C45.1153901,9.98811779 45.0781051,10.0125 45.0361385,10.0300817 C44.9946736,10.0478293 44.9480255,10.0566202 44.897699,10.0566202 L44.897699,10.0566202 Z" id="Fill-15" fill="#616870"></path>
        <path d="M48.985426,14.7187312 C48.696676,14.8922264 48.3474005,14.981462 47.9369307,14.9866038 C47.6580454,14.9887601 47.4074164,14.9411567 47.1845422,14.8432962 C46.9615008,14.7452697 46.7717317,14.6089284 46.6147333,14.434438 C46.4575677,14.2596159 46.3373527,14.0536111 46.2539212,13.8160918 C46.1701553,13.5787385 46.1281887,13.3206519 46.1281887,13.0416663 C46.1281887,12.7527288 46.1726632,12.4807096 46.2614451,12.2256087 C46.3500597,11.9705077 46.4791361,11.7480822 46.6490088,11.5584981 C46.8183798,11.3689139 47.0262062,11.2186399 47.2718193,11.1080077 C47.5174323,10.9975413 47.7984912,10.9423082 48.1153304,10.9423082 C48.4370183,10.9423082 48.7309514,11.0038442 48.9967954,11.1269163 L48.9967954,11.6396062 C48.7132285,11.4536712 48.4065884,11.3606207 48.0775438,11.3606207 C47.8468113,11.3606207 47.6418272,11.4039115 47.4619228,11.4906591 C47.2820183,11.5774067 47.1308718,11.695337 47.0079817,11.8449476 C46.8849244,11.9945582 46.7911266,12.1690486 46.7269228,12.3687505 C46.6620502,12.5684524 46.6299482,12.7800966 46.6299482,13.003849 C46.6299482,13.2098538 46.6570342,13.4070678 46.7115406,13.5956567 C46.7658798,13.7840798 46.8496457,13.9507745 46.9623368,14.0949115 C47.0748607,14.239712 47.2176473,14.3544909 47.3895263,14.4400774 C47.5619068,14.5253322 47.7647174,14.5681255 47.9976234,14.5681255 C48.3621139,14.5681255 48.69166,14.4599812 48.985426,14.2438587 L48.985426,14.7187312 Z" id="Fill-16" fill="#616870"></path>
        <path d="M51.8503209,11.5263865 C51.7364594,11.4436197 51.5894928,11.4019875 51.4095884,11.4019875 C51.2803447,11.4019875 51.1664833,11.4265356 51.0673352,11.4754659 C50.9688559,11.5243962 50.8819132,11.5905764 50.8075104,11.6733433 C50.7324387,11.756276 50.6694053,11.8524779 50.6172396,11.9617832 C50.5652412,12.0710885 50.5237763,12.1847063 50.4920088,12.3028024 C50.4602412,12.4210644 50.4373352,12.5403216 50.4234578,12.6609058 C50.4094132,12.7814899 50.4025581,12.895937 50.4025581,13.0039154 L50.4025581,14.8921269 L49.9203607,14.8921269 L49.9203607,11.0327712 L50.4025581,11.0327712 L50.4025581,11.8581173 L50.4179403,11.8581173 C50.4635852,11.7174635 50.5212683,11.5912399 50.5906553,11.4792808 C50.6605438,11.3674875 50.7409658,11.273276 50.8320884,11.1966462 C50.9230438,11.1200163 51.0225263,11.0616317 51.1300342,11.0214923 C51.2380438,10.9810212 51.3510693,10.9611173 51.4701139,10.9611173 C51.5488639,10.9611173 51.6190868,10.9662591 51.6809498,10.9760452 C51.7431473,10.986163 51.7994928,11.0012567 51.8503209,11.0214923 L51.8503209,11.5263865 Z" id="Fill-17" fill="#616870"></path>
        <path d="M54.0842962,11.3606041 C53.8714538,11.3606041 53.6790096,11.3969286 53.5067962,11.4699094 C53.3344156,11.5427243 53.1871146,11.649044 53.0642245,11.7885368 C52.941,11.9278637 52.8472022,12.098705 52.780992,12.300895 C52.7152834,12.5032507 52.6823455,12.7324767 52.6823455,12.9887387 C52.6823455,13.2300728 52.7152834,13.4475224 52.780992,13.6409214 C52.8472022,13.8343204 52.940164,14.0003517 53.0605462,14.1385175 C53.1807611,14.2766834 53.3268917,14.3830031 53.4991051,14.4568132 C53.6714857,14.530955 53.8637627,14.5681089 54.0766051,14.5681089 C54.2942962,14.5681089 54.4869076,14.532282 54.6542723,14.4606281 C54.8214697,14.3889743 54.9634204,14.2848108 55.0797898,14.1479719 C55.1961592,14.0109671 55.2844395,13.8431113 55.3436274,13.6447363 C55.4033169,13.4461954 55.4329108,13.219955 55.4329108,12.9663469 C55.4329108,12.4460272 55.3165414,12.0484478 55.0836354,11.7732772 C54.8502277,11.4982724 54.5175048,11.3606041 54.0842962,11.3606041 M54.0461752,14.9827724 C53.7574252,14.9827724 53.4987707,14.9348373 53.2692086,14.8394647 C53.0401481,14.7439262 52.8445271,14.6089118 52.6823455,14.4344214 C52.5203312,14.2595993 52.3961035,14.050443 52.310164,13.8067868 C52.2237229,13.5629647 52.180586,13.2929358 52.180586,12.9963685 C52.180586,12.6747555 52.2263981,12.3869791 52.3178551,12.1333709 C52.4088105,11.879431 52.5383885,11.6639719 52.7069236,11.4868276 C52.8754586,11.3098493 53.0786035,11.174669 53.3166927,11.0817844 C53.5551162,10.9887339 53.8209602,10.9422916 54.1148933,10.9422916 C54.3959522,10.9422916 54.6492564,10.9880704 54.8744713,11.079794 C55.1000207,11.1715175 55.2911274,11.3042099 55.4481258,11.4773733 C55.6052914,11.6508685 55.7255064,11.8620151 55.8092723,12.1106474 C55.8927038,12.3592796 55.9346704,12.64208 55.9346704,12.9587171 C55.9346704,13.2600945 55.8906975,13.5347675 55.8034204,13.7822387 C55.7163105,14.0298757 55.591414,14.2425151 55.4290653,14.4211522 C55.2668838,14.5994575 55.069758,14.7376233 54.8366847,14.8358156 C54.6034443,14.9336762 54.3401083,14.9827724 54.0461752,14.9827724" id="Fill-18" fill="#616870"></path>
        <path d="M56.6942986,14.1987101 C56.7678654,14.2564312 56.8476186,14.3080154 56.9335581,14.3532966 C57.019832,14.398412 57.1084467,14.4375562 57.1994021,14.4700659 C57.2908591,14.5027413 57.3828177,14.5271236 57.4751107,14.5435442 C57.5674037,14.5599649 57.6555167,14.5682582 57.7392826,14.5682582 C58.3167826,14.5682582 58.6053654,14.3532966 58.6053654,13.9235394 C58.6053654,13.825513 58.5854689,13.7409216 58.5446728,13.6692678 C58.5040438,13.5976139 58.4460263,13.532263 58.3697842,13.473049 C58.2938766,13.4141668 58.2025868,13.3594312 58.0962492,13.3093399 C57.9899116,13.2590827 57.8696967,13.2061716 57.7356043,13.1509385 C57.5555326,13.0781236 57.4010422,13.0038159 57.2717986,12.928513 C57.1427221,12.8530442 57.0363846,12.7709409 56.9526186,12.6817053 C56.8691871,12.5924697 56.8069896,12.4946091 56.7668623,12.3877918 C56.7260661,12.2809745 56.705668,12.1595611 56.705668,12.0238832 C56.705668,11.8532077 56.742953,11.7011091 56.8178575,11.5679192 C56.8925947,11.4347293 56.9932476,11.3216091 57.1198161,11.2287245 C57.2465518,11.135674 57.3930167,11.0646837 57.5585422,11.0157534 C57.7245693,10.9668231 57.8984546,10.942275 58.0810342,10.942275 C58.4181043,10.942275 58.7118702,11.005138 58.9624992,11.1306981 L58.9624992,11.6395731 C58.6712412,11.453638 58.3570772,11.3605875 58.0205088,11.3605875 C57.8984546,11.3605875 57.7881043,11.3756812 57.687953,11.4058687 C57.5878018,11.4360562 57.5021967,11.4786837 57.4314721,11.5339168 C57.360246,11.5894817 57.3052381,11.6553303 57.2664482,11.7317942 C57.2269896,11.8085899 57.2070932,11.8933471 57.2070932,11.9863976 C57.2070932,12.0819361 57.2223081,12.1652005 57.2529053,12.2368543 C57.283168,12.3085082 57.3308193,12.3731957 57.3955247,12.4309168 C57.4598957,12.4888038 57.5436616,12.5442029 57.6461537,12.5967822 C57.7486457,12.6495274 57.8735422,12.7060875 58.0205088,12.7666284 C58.2076027,12.8419312 58.3697842,12.9167365 58.5065518,12.9907125 C58.6433193,13.0648543 58.7560104,13.1451332 58.8447922,13.2318808 C58.9334068,13.3186284 58.9994498,13.4153279 59.0422524,13.5221452 C59.0853893,13.6289625 59.107125,13.7526981 59.107125,13.8933519 C59.107125,14.0668471 59.0710104,14.2214337 58.9986139,14.3571115 C58.9267189,14.4927894 58.8262333,14.6070707 58.6983272,14.6999553 C58.5705884,14.7930058 58.4206123,14.8634986 58.2482317,14.9111019 C58.0760183,14.9588712 57.8889244,14.9827558 57.6861139,14.9827558 C57.2935342,14.9827558 56.9626505,14.9009841 56.6942986,14.7377726 L56.6942986,14.1987101 Z" id="Fill-19" fill="#616870"></path>
        <path d="M61.7059753,11.3606041 C61.493133,11.3606041 61.3006887,11.3969286 61.1284753,11.4699094 C60.9560947,11.5427243 60.8087938,11.649044 60.6859037,11.7885368 C60.5626791,11.9278637 60.4687142,12.098705 60.4026712,12.300895 C60.3369626,12.5032507 60.3040247,12.7324767 60.3040247,12.9887387 C60.3040247,13.2300728 60.3369626,13.4475224 60.4026712,13.6409214 C60.4687142,13.8343204 60.5618432,14.0003517 60.6822253,14.1385175 C60.8024403,14.2766834 60.9485709,14.3830031 61.1207842,14.4568132 C61.2931648,14.530955 61.4854419,14.5681089 61.6982842,14.5681089 C61.9159753,14.5681089 62.1085868,14.532282 62.2759514,14.4606281 C62.4431489,14.3889743 62.5850995,14.2848108 62.7014689,14.1479719 C62.8178384,14.0109671 62.9059514,13.8431113 62.9651393,13.6447363 C63.024996,13.4461954 63.05459,13.219955 63.05459,12.9663469 C63.05459,12.4460272 62.9380533,12.0484478 62.7053145,11.7732772 C62.4719068,11.4982724 62.1391839,11.3606041 61.7059753,11.3606041 M61.6678543,14.9827724 C61.3791043,14.9827724 61.1204498,14.9348373 60.8908877,14.8394647 C60.6618272,14.7439262 60.4662062,14.6089118 60.3040247,14.4344214 C60.1418432,14.2595993 60.0177826,14.050443 59.9318432,13.8067868 C59.8454021,13.5629647 59.8022651,13.2929358 59.8022651,12.9963685 C59.8022651,12.6747555 59.8480772,12.3869791 59.9395342,12.1333709 C60.0304896,11.879431 60.1600677,11.6639719 60.3286027,11.4868276 C60.4971377,11.3098493 60.7002826,11.174669 60.9382046,11.0817844 C61.1766282,10.9887339 61.4426393,10.9422916 61.7365725,10.9422916 C62.0176314,10.9422916 62.2707683,10.9880704 62.4961505,11.079794 C62.7216998,11.1715175 62.9128065,11.3042099 63.0698049,11.4773733 C63.2269705,11.6508685 63.3471855,11.8620151 63.4309514,12.1106474 C63.514383,12.3592796 63.5563495,12.64208 63.5563495,12.9587171 C63.5563495,13.2600945 63.5123766,13.5347675 63.4250995,13.7822387 C63.3378225,14.0298757 63.212926,14.2425151 63.0507444,14.4211522 C62.8885629,14.5994575 62.6914371,14.7376233 62.4583639,14.8358156 C62.2249562,14.9336762 61.9616202,14.9827724 61.6678543,14.9827724" id="Fill-20" fill="#616870"></path>
        <path d="M66.2082349,9.63440986 C66.0990549,9.56408293 65.9584419,9.52875361 65.7865629,9.52875361 C65.3304482,9.52875361 65.1023909,9.82415986 65.1023909,10.4144748 L65.1023909,11.0328209 L66.0716346,11.0328209 L66.0716346,11.4547825 L65.1023909,11.4547825 L65.1023909,14.8921767 L64.6163479,14.8921767 L64.6163479,11.4547825 L63.9361887,11.4547825 L63.9361887,11.0328209 L64.6163479,11.0328209 L64.6163479,10.3844531 C64.6163479,10.1910541 64.6407588,10.0155685 64.6902492,9.85849399 C64.7399068,9.70158534 64.8121361,9.56723438 64.9089435,9.45527524 C65.0049148,9.34364784 65.1259658,9.25739784 65.2715947,9.1971887 C65.4173909,9.1368137 65.5849228,9.1066262 65.7750263,9.1066262 C65.9571043,9.1066262 66.1015629,9.13051082 66.2082349,9.17828005 L66.2082349,9.63440986 Z" id="Fill-21" fill="#616870"></path>
        <path d="M68.4993583,14.8471111 C68.3321608,14.9298779 68.1495812,14.9715101 67.9519538,14.9715101 C67.3241274,14.9715101 67.0097962,14.6120798 67.0097962,13.8933851 L67.0097962,11.4546663 L66.3259586,11.4546663 L66.3259586,11.0327048 L67.0097962,11.0327048 L67.0097962,10.0604019 L67.4963408,9.90200048 L67.4963408,11.0327048 L68.4993583,11.0327048 L68.4993583,11.4546663 L67.4963408,11.4546663 L67.4963408,13.8179163 C67.4963408,14.0794861 67.5391433,14.2677433 67.6254172,14.3833514 C67.7113567,14.4991255 67.8569857,14.5568466 68.0624713,14.5568466 C68.2144538,14.5568466 68.3600828,14.5115654 68.4993583,14.4211687 L68.4993583,14.8471111 Z" id="Fill-22" fill="#616870"></path>
        <path d="M70.2608169,9.73799279 L70.2608169,10.3447284 L70.5534124,10.3447284 C70.6686115,10.3447284 70.7609045,10.3190192 70.8302914,10.2679327 C70.8998455,10.2166803 70.9344554,10.1395529 70.9344554,10.0370481 C70.9344554,9.83784375 70.7936752,9.73799279 70.5111115,9.73799279 L70.2608169,9.73799279 Z M70.9790971,11.2593101 L70.774949,10.8416611 C70.7157611,10.7157692 70.6585796,10.631012 70.6030701,10.5877212 C70.5475605,10.5444303 70.4853631,10.5228678 70.4159761,10.5228678 L70.2608169,10.5228678 L70.2608169,11.2593101 L70.045801,11.2593101 L70.045801,9.56217548 L70.5467245,9.56217548 C70.735992,9.56217548 70.884965,9.6028125 70.9943121,9.6842524 C71.103492,9.76552644 71.1585,9.87367067 71.1585,10.0085192 C71.1585,10.2679327 71.0091927,10.4248413 70.7104108,10.4789135 L70.7104108,10.4853822 C70.7965175,10.5059495 70.8909841,10.6087861 70.9943121,10.7933942 L71.2203631,11.2593101 L70.9790971,11.2593101 Z M70.5644475,9.30259615 C70.252457,9.30259615 69.9869475,9.41455529 69.7675844,9.63797596 C69.5482213,9.8615625 69.4385398,10.1300986 69.4385398,10.4435841 C69.4385398,10.7559087 69.5473854,11.0231178 69.7654108,11.2450457 C69.9831019,11.4673053 70.2494475,11.5782692 70.5644475,11.5782692 C70.8802834,11.5782692 71.1499729,11.4673053 71.3731815,11.2450457 C71.5963901,11.0231178 71.708078,10.7559087 71.708078,10.4435841 C71.708078,10.1300986 71.5958885,9.8615625 71.3723455,9.63797596 C71.1484682,9.41455529 70.8791131,9.30259615 70.5644475,9.30259615 L70.5644475,9.30259615 Z M70.5733089,11.7587308 C70.2036354,11.7587308 69.8894713,11.630351 69.6303153,11.3739231 C69.3708248,11.1171635 69.2412468,10.8071611 69.2412468,10.4435841 C69.2412468,10.0758606 69.371828,9.76353606 69.6324889,9.50710817 C69.8933169,9.25068029 70.2063105,9.12246635 70.570801,9.12246635 C70.937465,9.12246635 71.2512946,9.25084615 71.5129586,9.50826923 C71.7746226,9.76552644 71.9050366,10.0750312 71.9050366,10.4371154 C71.9050366,10.8036779 71.7756258,11.1155048 71.5163025,11.3725962 C71.2568121,11.6298534 70.9426481,11.7587308 70.5733089,11.7587308 L70.5733089,11.7587308 Z" id="Fill-23" fill="#616870"></path>
        <path d="M30.3874013,6.68479255 L13.9012309,8.93309784 L13.9012309,20.9805642 L30.3874013,20.9805642 L30.3874013,6.68479255 Z M0.140880573,10.8085377 L0.141549363,20.9805642 L12.5302118,20.9805642 L12.5302118,9.1191988 L0.140880573,10.8085377 Z M13.9012309,22.4985642 L13.9012309,34.4115137 L30.3874013,36.6571651 L30.3874013,22.4985642 L13.9012309,22.4985642 Z M12.5302118,22.4992276 L12.5302118,22.4985642 L12.5302118,22.4992276 Z M0.141549363,22.4992276 L0.142218153,32.5380642 L12.5302118,34.2247493 L12.5302118,22.4992276 L0.141549363,22.4992276 Z" id="Fill-25" fill="#616870"></path>
    </g>
</svg>