<?xml version="1.0" encoding="UTF-8"?>
<svg width="192px" height="128px" viewBox="0 0 192 128" version="1.1" xmlns="http://www.w3.org/2000/svg" xmlns:xlink="http://www.w3.org/1999/xlink">
        <g id="Provider/HyperV/hyperv-128" stroke="none" stroke-width="1" fill="none" fill-rule="evenodd">
        <polygon id="Fill-1" fill="#000000" points="84.1806268 80.2824615 84.1806268 69.2101538 71.3588178 69.2101538 71.3588178 80.2824615 69.1783338 80.2824615 69.1783338 56.6196923 71.3588178 56.6196923 71.3588178 67.2301538 84.1806268 67.2301538 84.1806268 56.6196923 86.3617223 56.6196923 86.3617223 80.2824615"></polygon>
        <path d="M96.1800459,83.3518769 C95.5242497,85.0017231 94.7703134,86.2257231 93.9179312,87.0232615 C93.0652433,87.8208 92.032479,88.2195692 90.8190268,88.2195692 C90.217651,88.2195692 89.7095236,88.1481846 89.2940331,88.0051077 L89.2940331,86.0251077 C89.5346446,86.1128 89.7777019,86.1789538 90.0241223,86.2229538 C90.2693197,86.2666462 90.5178803,86.2888 90.7694981,86.2888 C91.4586191,86.2888 92.0572433,86.0718769 92.565065,85.6371077 C93.0738038,85.2026462 93.5134471,84.5454154 93.8852178,83.6654154 L95.3441732,80.1998769 L88.8843516,63.3854154 L91.2125045,63.3854154 L96.0167847,76.7678769 C96.0819057,76.9438769 96.1445809,77.1444923 96.2048102,77.3703385 C96.2653452,77.5958769 96.3228229,77.8186462 96.377549,78.0383385 L96.4588739,78.0383385 C96.5139057,77.8512615 96.5658803,77.6617231 96.6154089,77.4691077 C96.6640204,77.2768 96.7321987,77.0644923 96.8196382,76.8334154 L101.91895,63.3854154 L104.132759,63.3854154 L96.1800459,83.3518769 Z" id="Fill-2" fill="#000000"></path>
        <path d="M108.327531,73.2530154 C108.327531,74.0228615 108.455327,74.7465538 108.712448,75.4228615 C108.969569,76.0997846 109.327276,76.6936308 109.786181,77.2050154 C110.245391,77.7167077 110.800601,78.1207077 111.450894,78.4179385 C112.101493,78.7148615 112.819659,78.8634769 113.606614,78.8634769 C114.448296,78.8634769 115.207735,78.6847077 115.886155,78.3268615 C116.563353,77.9696308 117.14027,77.4610154 117.615684,76.8007077 C118.091098,76.1407077 118.457366,75.3434769 118.714487,74.4080923 C118.97069,73.4733231 119.09971,72.4277846 119.09971,71.2727077 C119.09971,70.2828615 118.979251,69.3893231 118.739251,68.5914769 C118.498334,67.7939385 118.156831,67.1148615 117.713824,66.5539385 C117.271124,65.9927077 116.73548,65.5634769 116.1072,65.2665538 C115.47892,64.9696308 114.776652,64.8213231 114.000703,64.8213231 C113.125697,64.8213231 112.339047,64.9831692 111.639225,65.3077846 C110.940015,65.6320923 110.343837,66.0748615 109.851913,66.6357846 C109.360601,67.1967077 108.983633,67.8545538 108.721009,68.6077846 C108.458385,69.3619385 108.327531,70.1619385 108.327531,71.0090154 L108.327531,73.2530154 Z M108.327531,77.5597846 L108.327531,88.0542462 L106.228678,88.0542462 L106.228678,63.3853231 L108.327531,63.3853231 L108.327531,66.6194769 L108.392652,66.6194769 C109.016041,65.4425538 109.849162,64.5431692 110.893544,63.9213231 C111.937315,63.3000923 113.11469,62.9893231 114.426283,62.9893231 C115.497875,62.9893231 116.456652,63.1847077 117.304448,63.5751692 C118.151633,63.9653231 118.867047,64.5182462 119.452219,65.2333231 C120.03678,65.9487077 120.485289,66.8176308 120.796219,67.8404 C121.108372,68.8634769 121.26399,70.0136308 121.26399,71.2893231 C121.26399,72.6865538 121.088805,73.9597846 120.739047,75.1090154 C120.388983,76.2591692 119.886665,77.2465538 119.230869,78.0714769 C118.575073,78.8964 117.779862,79.5376308 116.845238,79.9936308 C115.91092,80.4502462 114.858283,80.6785538 113.68855,80.6785538 C111.327684,80.6785538 109.562385,79.6388615 108.392652,77.5597846 L108.327531,77.5597846 Z" id="Fill-4" fill="#000000"></path>
        <path d="M135.656836,70.3653846 C135.624428,68.6053846 135.208326,67.2410769 134.410976,66.2730769 C133.612708,65.3050769 132.503205,64.8210769 131.082466,64.8210769 C130.371638,64.8210769 129.713702,64.9475385 129.106517,65.2004615 C128.50025,65.4533846 127.966746,65.8195385 127.507842,66.2976923 C127.048632,66.7761538 126.669218,67.3592308 126.368683,68.0466154 C126.067536,68.7343077 125.857498,69.5072308 125.737039,70.3653846 L135.656836,70.3653846 Z M125.688122,72.2136923 C125.699129,73.2475385 125.83518,74.1773846 126.097498,75.002 C126.360122,75.8272308 126.73709,76.5256923 127.229014,77.098 C127.721243,77.6696923 128.319868,78.1072308 129.024581,78.4096923 C129.7296,78.7124615 130.525116,78.8635385 131.409906,78.8635385 C133.301473,78.8635385 135.088479,78.198 136.771536,76.8669231 L136.771536,78.9456923 C135.165218,80.1010769 133.219231,80.6786154 130.934492,80.6786154 C129.808785,80.6786154 128.786721,80.4804615 127.868301,80.0847692 C126.950186,79.6884615 126.169039,79.1136923 125.523944,78.3601538 C124.879154,77.6066154 124.382033,76.6795385 124.031969,75.5795385 C123.681906,74.4795385 123.507027,73.226 123.507027,71.8173846 C123.507027,70.5521538 123.698415,69.3807692 124.081498,68.3026154 C124.464275,67.2244615 124.993498,66.2924615 125.671918,65.5056923 C126.349422,64.7192308 127.152275,64.1029231 128.082313,63.6576923 C129.010517,63.2118462 130.027078,62.9890769 131.131078,62.9890769 C132.213676,62.9890769 133.169702,63.1789231 134.000683,63.5586154 C134.831358,63.9383077 135.528122,64.4801538 136.091282,65.1838462 C136.654135,65.8881538 137.083078,66.746 137.378721,67.758 C137.673753,68.77 137.82081,69.9032308 137.82081,71.1573846 L137.82081,72.2136923 L125.688122,72.2136923 Z" id="Fill-6" fill="#000000"></path>
        <path d="M149.460504,65.5468615 C148.967969,65.1837846 148.333575,65.0019385 147.557931,65.0019385 C147.000581,65.0019385 146.508963,65.1096308 146.082161,65.3240923 C145.656581,65.5388615 145.281753,65.8274769 144.959511,66.1905538 C144.636963,66.5536308 144.363332,66.9745538 144.139842,67.4527077 C143.915129,67.9314769 143.734441,68.4293231 143.59839,68.9462462 C143.461422,69.4634769 143.363282,69.9859385 143.303358,70.5139385 C143.243129,71.0416308 143.212861,71.5425538 143.212861,72.0151692 L143.212861,80.2825538 L141.130823,80.2825538 L141.130823,63.3853231 L143.212861,63.3853231 L143.212861,66.9991692 L143.278594,66.9991692 C143.475485,66.3831692 143.72374,65.8302462 144.025192,65.3407077 C144.325422,64.8514769 144.672428,64.4388615 145.0656,64.1031692 C145.459689,63.7674769 145.888632,63.5120923 146.353345,63.3357846 C146.817753,63.1597846 147.306313,63.0717846 147.820555,63.0717846 C148.158696,63.0717846 148.462288,63.0939385 148.73011,63.1379385 C148.997931,63.1819385 149.241294,63.2477846 149.460504,63.3357846 L149.460504,65.5468615 Z" id="Fill-8" fill="#000000"></path>
        <polygon id="Fill-10" fill="#000000" points="149.244229 71.5369231 158.213503 71.5369231 158.213503 69.7218462 149.244229 69.7218462"></polygon>
        <path d="M170.638746,80.2824615 L168.50718,80.2824615 L159.948504,56.6196923 L162.391307,56.6196923 L169.048632,75.5301538 C169.168479,75.8821538 169.275485,76.2372308 169.368428,76.5944615 C169.461065,76.9523077 169.534746,77.3233846 169.589473,77.7083077 L169.655511,77.7083077 C169.709625,77.4006154 169.786364,77.0624615 169.88481,76.6935385 C169.98295,76.3252308 170.108606,75.9264615 170.261778,75.4972308 L177.197625,56.6196923 L179.558492,56.6196923 L170.638746,80.2824615 Z" id="Fill-12" fill="#000000"></path>
        <path d="M190.607175,62.3673231 L190.401111,59.0476308 C190.380321,58.6116308 190.380321,58.0931692 190.359225,57.4704 L190.298079,57.4704 C190.153468,57.9685538 189.988678,58.6325538 189.823582,59.1513231 L188.814054,62.2839385 L187.659302,62.2839385 L186.669952,59.0682462 C186.56692,58.6534769 186.38134,57.9685538 186.257213,57.4704 L186.195149,57.4704 C186.195149,57.9894769 186.175276,58.5497846 186.154487,59.0476308 L185.948423,62.3673231 L184.875913,62.3673231 L185.288652,56.7242462 L186.979047,56.7242462 L187.927124,59.4833231 C188.071429,59.9190154 188.174461,60.3337846 188.298283,60.9147077 L188.339251,60.9147077 C188.463073,60.4168615 188.607073,59.9190154 188.710104,59.5245538 L189.679582,56.7242462 L191.307913,56.7242462 L191.720652,62.3673231 L190.607175,62.3673231 Z M184.546334,56.7242462 L184.546334,57.6574769 L182.753213,57.6574769 L182.753213,62.3673231 L181.639735,62.3673231 L181.639735,57.6574769 L179.866487,57.6574769 L179.866487,56.7242462 L184.546334,56.7242462 Z" id="Fill-13" fill="#000000"></path>
        <path d="M78.3124586,51.4522154 L78.3124586,44.5303692 C78.3124586,44.1762154 78.3396688,43.6051385 78.3953121,42.8174462 L78.3674904,42.8174462 C78.3023694,43.0269846 78.2433631,43.2088308 78.1910828,43.3626769 C78.1375796,43.5165231 78.0871338,43.6423692 78.0415796,43.7402154 L74.5672357,51.4522154 L74.1716178,51.4522154 L70.6905478,43.7888308 C70.5890446,43.5559077 70.4844841,43.2276 70.3787006,42.8032923 L70.3505732,42.8032923 C70.3686115,43.0177538 70.381758,43.2626769 70.3887898,43.5371385 C70.3955159,43.8122154 70.3985732,44.1177538 70.3985732,44.4531385 L70.3985732,51.4522154 L69.496051,51.4522154 L69.496051,41.4260615 L70.5869045,41.4260615 L73.9695287,48.9629846 C74.0392357,49.1214462 74.107414,49.2836 74.1746752,49.4491385 C74.242242,49.6143692 74.3033885,49.7906769 74.3590318,49.9768308 L74.4009172,49.9768308 C74.4657325,49.7906769 74.5247389,49.6202154 74.578242,49.4663692 C74.630828,49.3128308 74.6974777,49.1472923 74.7757452,48.9700615 L78.1871083,41.4260615 L79.2223185,41.4260615 L79.2223185,51.4522154 L78.3124586,51.4522154 Z" id="Fill-14" fill="#000000"></path>
        <path d="M81.6611465,51.4523077 L82.5499108,51.4523077 L82.5499108,44.2926154 L81.6611465,44.2926154 L81.6611465,51.4523077 Z M82.0986497,42.4818462 C81.926828,42.4818462 81.7788535,42.4209231 81.6541146,42.3 C81.5287643,42.1787692 81.4660892,42.0249231 81.4660892,41.8384615 C81.4660892,41.6566154 81.5287643,41.5061538 81.6541146,41.3873846 C81.7788535,41.2686154 81.926828,41.2089231 82.0986497,41.2089231 C82.1860892,41.2089231 82.2695541,41.2243077 82.3487389,41.2544615 C82.4267006,41.2849231 82.4957962,41.328 82.5538854,41.384 C82.6113631,41.44 82.6575287,41.5061538 82.6923822,41.5833846 C82.7272357,41.6603077 82.7443567,41.7449231 82.7443567,41.8384615 C82.7443567,41.9270769 82.7281529,42.0107692 82.6954395,42.0901538 C82.6636433,42.1692308 82.6174777,42.2381538 82.5569427,42.2963077 C82.4967134,42.3547692 82.428535,42.4 82.3517962,42.4326154 C82.2759745,42.4655385 82.1906752,42.4818462 82.0986497,42.4818462 L82.0986497,42.4818462 Z" id="Fill-15" fill="#000000"></path>
        <path d="M89.5733503,51.1304 C89.0453503,51.4522462 88.4066752,51.6177846 87.6561019,51.6273231 C87.1461401,51.6313231 86.6878471,51.5430154 86.2803057,51.3614769 C85.8724586,51.1796308 85.5254522,50.9267077 85.2383694,50.6030154 C84.9509809,50.2787077 84.7311592,49.8965538 84.5785987,49.4559385 C84.4254268,49.0156308 84.3486879,48.5368615 84.3486879,48.0193231 C84.3486879,47.4833231 84.4300127,46.9787077 84.5923567,46.5054769 C84.7543949,46.0322462 84.9904204,45.6196308 85.3010446,45.2679385 C85.6107516,44.9162462 85.9907771,44.6374769 86.4398981,44.4322462 C86.8890191,44.2273231 87.4029554,44.1248615 87.9823185,44.1248615 C88.5705478,44.1248615 89.1080255,44.2390154 89.5941401,44.4673231 L89.5941401,45.4184 C89.0756178,45.0734769 88.5149045,44.9008615 87.9132229,44.9008615 C87.4913121,44.9008615 87.1164841,44.9811692 86.7875159,45.1420923 C86.4585478,45.3030154 86.1821656,45.5217846 85.9574522,45.7993231 C85.7324331,46.0768615 85.5609172,46.4005538 85.4435159,46.7710154 C85.3248917,47.1414769 85.2661911,47.5340923 85.2661911,47.9491692 C85.2661911,48.3313231 85.3157197,48.6971692 85.4153885,49.0470154 C85.5147516,49.3965538 85.6679236,49.7057846 85.8739873,49.9731692 C86.0797452,50.2417846 86.3408408,50.4547077 86.6551338,50.6134769 C86.9703439,50.7716308 87.3411975,50.8510154 87.7670828,50.8510154 C88.4335796,50.8510154 89.0361783,50.6504 89.5733503,50.2494769 L89.5733503,51.1304 Z" id="Fill-16" fill="#000000"></path>
        <path d="M94.8120153,45.2083692 C94.6038115,45.0548308 94.3350726,44.9776 94.0061045,44.9776 C93.7697732,44.9776 93.5615694,45.0231385 93.3802701,45.1139077 C93.2001936,45.2046769 93.0412127,45.3274462 92.9051618,45.4809846 C92.7678879,45.6348308 92.6526268,45.8132923 92.5572382,46.0160615 C92.4621554,46.2188308 92.3863338,46.4296 92.3282446,46.6486769 C92.2701554,46.8680615 92.2282701,47.0892923 92.2028943,47.3129846 C92.1772127,47.5366769 92.1646777,47.7489846 92.1646777,47.9492923 L92.1646777,51.4520615 L91.2829452,51.4520615 L91.2829452,44.2926769 L92.1646777,44.2926769 L92.1646777,45.8237538 L92.1928051,45.8237538 C92.2762701,45.5628308 92.3817478,45.3286769 92.5086268,45.1209846 C92.6364229,44.9136 92.7834803,44.7388308 92.9501045,44.5966769 C93.1164229,44.4545231 93.2983338,44.3462154 93.4949197,44.2717538 C93.6924229,44.1966769 93.8990981,44.1597538 94.1167796,44.1597538 C94.2607796,44.1597538 94.3891873,44.1692923 94.5023083,44.1874462 C94.6160408,44.2062154 94.7190726,44.2342154 94.8120153,44.2717538 L94.8120153,45.2083692 Z" id="Fill-17" fill="#000000"></path>
        <path d="M98.8969987,44.9008308 C98.5078013,44.9008308 98.1559032,44.9682154 97.8409987,45.1036 C97.5257885,45.2386769 97.2564382,45.4359077 97.0317248,45.6946769 C96.8064,45.9531385 96.6348841,46.2700615 96.513814,46.6451385 C96.3936611,47.0205231 96.3334318,47.4457538 96.3334318,47.9211385 C96.3334318,48.3688308 96.3936611,48.7722154 96.513814,49.1309846 C96.6348841,49.4897538 96.8048713,49.7977538 97.0249987,50.0540615 C97.2448204,50.3103692 97.5120306,50.5076 97.826935,50.6445231 C98.1421452,50.7820615 98.4937376,50.8509846 98.882935,50.8509846 C99.2809987,50.8509846 99.6332025,50.7845231 99.9392408,50.6516 C100.244973,50.5186769 100.50454,50.3254462 100.71733,50.0716 C100.93012,49.8174462 101.091546,49.5060615 101.199776,49.1380615 C101.308922,48.7697538 101.363037,48.3500615 101.363037,47.8796 C101.363037,46.9143692 101.150247,46.1768308 100.724362,45.6663692 C100.297559,45.1562154 99.6891516,44.9008308 98.8969987,44.9008308 M98.8272917,51.6202154 C98.2992917,51.6202154 97.8263236,51.5312923 97.4065529,51.3543692 C96.9876994,51.1771385 96.6299924,50.9266769 96.3334318,50.6029846 C96.0371771,50.2786769 95.8100178,49.8906769 95.6528713,49.4386769 C95.4948076,48.9863692 95.4159287,48.4854462 95.4159287,47.9352923 C95.4159287,47.3386769 95.4996994,46.8048308 95.666935,46.3343692 C95.8332535,45.8632923 96.0701962,45.4636 96.3783745,45.1349846 C96.6865529,44.8066769 97.0580178,44.5559077 97.4933809,44.3836 C97.9293554,44.2109846 98.4154701,44.1248308 98.9529478,44.1248308 C99.4668841,44.1248308 99.9300688,44.2097538 100.34189,44.3799077 C100.754324,44.5500615 101.103776,44.7962154 101.390859,45.1174462 C101.678247,45.4392923 101.898069,45.8309846 102.051241,46.2922154 C102.203801,46.7534462 102.28054,47.2780615 102.28054,47.8654462 C102.28054,48.4245231 102.200132,48.9340615 102.04054,49.3931385 C101.881254,49.8525231 101.652871,50.2469846 101.356005,50.5783692 C101.059445,50.9091385 100.698986,51.1654462 100.272795,51.3476 C99.8462981,51.5291385 99.3647694,51.6202154 98.8272917,51.6202154" id="Fill-18" fill="#000000"></path>
        <path d="M103.669575,50.1657231 C103.804097,50.2728 103.949931,50.3684923 104.107078,50.4524923 C104.264836,50.5361846 104.426874,50.6088 104.593192,50.6691077 C104.760428,50.7297231 104.928581,50.7749538 105.097345,50.8054154 C105.26611,50.8358769 105.427231,50.8512615 105.580403,50.8512615 C106.636403,50.8512615 107.164097,50.4524923 107.164097,49.6552615 C107.164097,49.4734154 107.127715,49.3164923 107.053116,49.1835692 C106.978823,49.0506462 106.872734,48.9294154 106.73332,48.8195692 C106.594517,48.7103385 106.427587,48.6088 106.233141,48.5158769 C106.038696,48.4226462 105.818874,48.3244923 105.573676,48.2220308 C105.244403,48.0869538 104.961906,47.9491077 104.725575,47.8094154 C104.489549,47.6694154 104.295103,47.5171077 104.141931,47.3515692 C103.989371,47.1860308 103.875638,47.0044923 103.802262,46.8063385 C103.727664,46.6081846 103.690364,46.3829538 103.690364,46.1312615 C103.690364,45.8146462 103.758543,45.5324923 103.895511,45.2854154 C104.032173,45.0383385 104.216224,44.8284923 104.447664,44.6561846 C104.679409,44.4835692 104.947231,44.3518769 105.249906,44.2611077 C105.553498,44.1703385 105.87146,44.1248 106.20532,44.1248 C106.821676,44.1248 107.358848,44.2414154 107.817141,44.4743385 L107.817141,45.4183385 C107.284555,45.0734154 106.710084,44.9008 106.094645,44.9008 C105.87146,44.9008 105.669676,44.9288 105.486543,44.9848 C105.303409,45.0408 105.146874,45.1198769 105.017549,45.2223385 C104.887307,45.3254154 104.786721,45.4475692 104.715791,45.5894154 C104.643638,45.7318769 104.607256,45.8891077 104.607256,46.0617231 C104.607256,46.2389538 104.635078,46.3934154 104.691027,46.5263385 C104.746364,46.6592615 104.833498,46.7792615 104.951817,46.8863385 C105.069524,46.9937231 105.222696,47.0964923 105.41011,47.1940308 C105.597524,47.2918769 105.825906,47.3968 106.094645,47.5091077 C106.436759,47.6488 106.73332,47.7875692 106.983409,47.9248 C107.233498,48.0623385 107.439562,48.2112615 107.601906,48.3721846 C107.763944,48.5331077 107.884708,48.7124923 107.962976,48.9106462 C108.041855,49.1088 108.0816,49.3383385 108.0816,49.5992615 C108.0816,49.9211077 108.015562,50.2078769 107.88318,50.4595692 C107.751715,50.7112615 107.567969,50.9232615 107.334084,51.0955692 C107.100504,51.2681846 106.826262,51.3989538 106.511052,51.4872615 C106.196148,51.5758769 105.854033,51.6201846 105.48318,51.6201846 C104.76532,51.6201846 104.160275,51.4684923 103.669575,51.1657231 L103.669575,50.1657231 Z" id="Fill-19" fill="#000000"></path>
        <path d="M112.833783,44.9008308 C112.444586,44.9008308 112.092688,44.9682154 111.777783,45.1036 C111.462573,45.2386769 111.193223,45.4359077 110.96851,45.6946769 C110.743185,45.9531385 110.571363,46.2700615 110.450599,46.6451385 C110.330446,47.0205231 110.270217,47.4457538 110.270217,47.9211385 C110.270217,48.3688308 110.330446,48.7722154 110.450599,49.1309846 C110.571363,49.4897538 110.741656,49.7977538 110.961783,50.0540615 C111.181605,50.3103692 111.448815,50.5076 111.76372,50.6445231 C112.07893,50.7820615 112.430522,50.8509846 112.81972,50.8509846 C113.217783,50.8509846 113.569987,50.7845231 113.876025,50.6516 C114.181758,50.5186769 114.441325,50.3254462 114.654115,50.0716 C114.866904,49.8174462 115.028025,49.5060615 115.136255,49.1380615 C115.245707,48.7697538 115.299822,48.3500615 115.299822,47.8796 C115.299822,46.9143692 115.086726,46.1768308 114.661146,45.6663692 C114.234344,45.1562154 113.625936,44.9008308 112.833783,44.9008308 M112.764076,51.6202154 C112.236076,51.6202154 111.763108,51.5312923 111.343338,51.3543692 C110.924484,51.1771385 110.566777,50.9266769 110.270217,50.6029846 C109.973656,50.2786769 109.746803,49.8906769 109.589656,49.4386769 C109.431592,48.9863692 109.352713,48.4854462 109.352713,47.9352923 C109.352713,47.3386769 109.436484,46.8048308 109.60372,46.3343692 C109.770038,45.8632923 110.006981,45.4636 110.315159,45.1349846 C110.623338,44.8066769 110.994803,44.5559077 111.42986,44.3836 C111.865834,44.2109846 112.352255,44.1248308 112.889732,44.1248308 C113.403669,44.1248308 113.866548,44.2097538 114.278675,44.3799077 C114.691108,44.5500615 115.040561,44.7962154 115.327643,45.1174462 C115.615032,45.4392923 115.834854,45.8309846 115.988025,46.2922154 C116.140586,46.7534462 116.217325,47.2780615 116.217325,47.8654462 C116.217325,48.4245231 116.136917,48.9340615 115.977325,49.3931385 C115.817732,49.8525231 115.58935,50.2469846 115.29279,50.5783692 C114.996229,50.9091385 114.635771,51.1654462 114.20958,51.3476 C113.782777,51.5291385 113.301248,51.6202154 112.764076,51.6202154" id="Fill-20" fill="#000000"></path>
        <path d="M121.066487,41.6986154 C120.866843,41.5681538 120.609722,41.5026154 120.295429,41.5026154 C119.461391,41.5026154 119.044372,42.0506154 119.044372,43.1456923 L119.044372,44.2927692 L120.816703,44.2927692 L120.816703,45.0755385 L119.044372,45.0755385 L119.044372,51.4521538 L118.155608,51.4521538 L118.155608,45.0755385 L116.911888,45.0755385 L116.911888,44.2927692 L118.155608,44.2927692 L118.155608,43.09 C118.155608,42.7312308 118.200245,42.4056923 118.290741,42.1143077 C118.381544,41.8232308 118.51362,41.574 118.690639,41.3663077 C118.86613,41.1592308 119.08748,40.9992308 119.353773,40.8875385 C119.620372,40.7755385 119.926716,40.7195385 120.274334,40.7195385 C120.607276,40.7195385 120.871429,40.7638462 121.066487,40.8524615 L121.066487,41.6986154 Z" id="Fill-21" fill="#000000"></path>
        <path d="M125.255969,51.3685538 C124.950237,51.5220923 124.616377,51.5993231 124.255001,51.5993231 C123.106976,51.5993231 122.532199,50.9325538 122.532199,49.5993231 L122.532199,45.0753231 L121.281753,45.0753231 L121.281753,44.2925538 L122.532199,44.2925538 L122.532199,42.4888615 L123.42188,42.1950154 L123.42188,44.2925538 L125.255969,44.2925538 L125.255969,45.0753231 L123.42188,45.0753231 L123.42188,49.4593231 C123.42188,49.9445538 123.500148,50.2937846 123.657906,50.5082462 C123.815052,50.7230154 124.081345,50.8300923 124.45709,50.8300923 C124.735001,50.8300923 125.001294,50.7460923 125.255969,50.5784 L125.255969,51.3685538 Z" id="Fill-22" fill="#000000"></path>
        <path d="M128.476922,41.8907692 L128.476922,43.0163077 L129.011954,43.0163077 C129.222604,43.0163077 129.391368,42.9686154 129.518247,42.8738462 C129.645432,42.7787692 129.708718,42.6356923 129.708718,42.4455385 C129.708718,42.076 129.451292,41.8907692 128.934604,41.8907692 L128.476922,41.8907692 Z M129.790349,44.7129231 L129.41705,43.9381538 C129.30882,43.7046154 129.20426,43.5473846 129.102757,43.4670769 C129.001254,43.3867692 128.887521,43.3467692 128.760642,43.3467692 L128.476922,43.3467692 L128.476922,44.7129231 L128.08375,44.7129231 L128.08375,41.5646154 L128.999725,41.5646154 C129.345814,41.5646154 129.618222,41.64 129.818171,41.7910769 C130.017814,41.9418462 130.1184,42.1424615 130.1184,42.3926154 C130.1184,42.8738462 129.845381,43.1649231 129.299037,43.2652308 L129.299037,43.2772308 C129.456489,43.3153846 129.629228,43.5061538 129.818171,43.8486154 L130.231521,44.7129231 L129.790349,44.7129231 Z M129.032132,41.0830769 C128.461636,41.0830769 127.976132,41.2907692 127.575011,41.7052308 C127.17389,42.12 126.97333,42.6181538 126.97333,43.1996923 C126.97333,43.7790769 127.172362,44.2747692 127.571037,44.6864615 C127.969101,45.0987692 128.456132,45.3046154 129.032132,45.3046154 C129.609661,45.3046154 130.102808,45.0987692 130.510961,44.6864615 C130.919113,44.2747692 131.123343,43.7790769 131.123343,43.1996923 C131.123343,42.6181538 130.918196,42.12 130.509432,41.7052308 C130.100056,41.2907692 129.607521,41.0830769 129.032132,41.0830769 L129.032132,41.0830769 Z M129.048336,45.6393846 C128.372362,45.6393846 127.79789,45.4012308 127.324005,44.9255385 C126.849508,44.4492308 126.612566,43.8741538 126.612566,43.1996923 C126.612566,42.5175385 126.851343,41.9381538 127.32798,41.4624615 C127.804922,40.9867692 128.377254,40.7489231 129.04375,40.7489231 C129.714222,40.7489231 130.288082,40.9870769 130.766553,41.4646154 C131.245024,41.9418462 131.483496,42.516 131.483496,43.1876923 C131.483496,43.8676923 131.246859,44.4461538 130.772668,44.9230769 C130.298171,45.4003077 129.723699,45.6393846 129.048336,45.6393846 L129.048336,45.6393846 Z" id="Fill-23" fill="#000000"></path>
        <path d="M55.5655338,36.2268615 L25.4193936,40.3976308 L25.4193936,62.7465538 L55.5655338,62.7465538 L55.5655338,36.2268615 Z M0.257610191,43.8767077 L0.258833121,62.7465538 L22.9123873,62.7465538 L22.9123873,40.7428615 L0.257610191,43.8767077 Z M25.4193936,65.5625538 L25.4193936,87.6619385 L55.5655338,91.8277846 L55.5655338,65.5625538 L25.4193936,65.5625538 Z M22.9123873,65.5637846 L22.9123873,65.5625538 L22.9123873,65.5637846 Z M0.258833121,65.5637846 L0.260056051,84.1865538 L22.9123873,87.3154769 L22.9123873,65.5637846 L0.258833121,65.5637846 Z" id="Fill-25" fill="#00ABF3"></path>
    </g>
</svg>
