<?xml version="1.0" encoding="UTF-8"?>
<svg width="80px" height="32px" viewBox="0 0 80 32" version="1.1" xmlns="http://www.w3.org/2000/svg" xmlns:xlink="http://www.w3.org/1999/xlink">
    <g id="Provider/OracleCI/oci-32" stroke="none" stroke-width="1" fill="none" fill-rule="evenodd">
        <path d="M70.9583925,14.2529429 C69.4769579,14.2529429 68.2198587,13.2727273 67.8354791,11.9209075 L76.0829981,11.9209075 L77.2199501,10.1738504 L67.8354791,10.1738504 C68.2198587,8.83013347 69.4769579,7.84204011 70.9583925,7.84204011 L76.6192145,7.84204011 L77.7643739,6.09475793 L70.8302659,6.09475793 C68.0595865,6.09475793 65.8098486,8.31627991 65.8098486,11.0514304 C65.8098486,13.7865808 68.0595865,16 70.8302659,16 L76.7794866,16 L77.9166667,14.2529429 L70.9583925,14.2529429 L70.9583925,14.2529429 Z M47.3612229,16 C44.5909994,16 42.3410336,13.7865808 42.3410336,11.0514304 C42.3410336,8.31627991 44.5909994,6.09475793 47.3612229,6.09475793 L54.2875794,6.09475793 L53.1586068,7.84204011 L47.4895774,7.84204011 C45.6958058,7.84204011 44.2385374,9.28074006 44.2385374,11.0514304 C44.2385374,12.8221207 45.6958058,14.2529429 47.4895774,14.2529429 L54.4476236,14.2529429 L53.3106716,16 L47.3612229,16 Z M10.7190845,14.2529429 C12.513768,14.2529429 13.9669327,12.8221207 13.9669327,11.0514304 C13.9669327,9.28074006 12.513768,7.84204011 10.7190845,7.84204011 L5.146264,7.84204011 C3.35272044,7.84204011 1.89841582,9.28074006 1.89841582,11.0514304 C1.89841582,12.8221207 3.35272044,14.2529429 5.146264,14.2529429 L10.7190845,14.2529429 Z M5.01745351,16 C2.24768603,16 0,13.7865808 0,11.0514304 C0,8.31627991 2.24768603,6.09475793 5.01745351,6.09475793 L10.8490349,6.09475793 C13.6192584,6.09475793 15.8653485,8.31627991 15.8653485,11.0514304 C15.8653485,13.7865808 13.6192584,16 10.8490349,16 L5.01745351,16 Z M25.3337174,12.7903847 C27.207511,12.7903847 28.7288427,11.2965405 28.7288427,9.4466227 C28.7288427,7.59692993 27.207511,6.09475793 25.3337174,6.09475793 L16.8919567,6.09475793 L16.8919567,16 L18.8209223,16 L18.8209223,7.84204011 L25.2055908,7.84204011 C26.1024766,7.84204011 26.8231314,8.561165 26.8231314,9.4466227 C26.8231314,10.3320804 26.1024766,11.0514304 25.2055908,11.0514304 L19.7656845,11.0435526 L25.5259072,16 L28.3285042,16 L24.4530184,12.7903847 L25.3337174,12.7903847 Z M57.2582001,14.2529429 L57.2582001,6.09475793 L55.3283226,6.09475793 L55.3283226,15.0512953 C55.3283226,15.2964055 55.4245315,15.5336379 55.6087419,15.7155011 C55.7927243,15.8971393 56.040998,16 56.3134378,16 L65.1131321,16 L66.2503121,14.2529429 L57.2582001,14.2529429 Z M33.6370923,12.5058858 L38.7856361,12.5058858 L36.0632891,8.18190821 L31.06681,16 L28.7929059,16 L34.8702532,6.60883657 C35.1344857,6.2293547 35.5749492,6 36.0632891,6 C36.5358982,6 36.9761337,6.22125189 37.2321588,6.59285602 L43.3336723,16 L41.0597682,16 L39.9866514,14.2529429 L34.7740443,14.2529429 L33.6370923,12.5058858 Z M78.9546391,8.04682231 C78.3836171,8.04682231 77.9166667,7.58951613 77.9166667,7.02330783 C77.9166667,6.45730619 78.3836171,6 78.9546391,6 C79.5330496,6 80,6.45730619 80,7.02330783 C80,7.58951613 79.5330496,8.04682231 78.9546391,8.04682231 Z M78.858167,6.41370402 C79.0213463,6.41370402 79.0880535,6.4209366 79.1623603,6.4500736 C79.3698703,6.51537353 79.3922468,6.69680816 79.3922468,6.76934068 C79.3922468,6.78380586 79.3922468,6.82017544 79.3772588,6.86357097 C79.3698703,6.90717314 79.3401054,6.99437748 79.2362448,7.05967742 C79.221679,7.06691001 79.2142905,7.07414259 79.1845256,7.08860777 L79.4515655,7.56058578 L79.1919141,7.56058578 L78.9546391,7.12497735 L78.7916709,7.12497735 L78.7916709,7.56058578 L78.5617844,7.56058578 L78.5617844,6.41370402 L78.858167,6.41370402 Z M78.9398622,6.93631014 C79.0139578,6.92907755 79.0880535,6.92907755 79.1325953,6.86357097 C79.1549718,6.83464062 79.1623603,6.80571027 79.1623603,6.7621081 C79.1623603,6.70404075 79.1252069,6.65320599 79.0732766,6.62427564 C79.0213463,6.60237123 78.9696271,6.60237123 78.858167,6.60237123 L78.7916709,6.60237123 L78.7916709,6.93631014 L78.9398622,6.93631014 Z M78.1391647,7.01607525 C78.1391647,7.46614885 78.5024656,7.82178551 78.9546391,7.82178551 C79.4144121,7.82178551 79.777713,7.46614885 79.777713,7.01607525 C79.777713,6.57344088 79.4144121,6.21780421 78.9546391,6.21780421 C78.5024656,6.21780421 78.1391647,6.57344088 78.1391647,7.01607525 Z" id="Combined-Shape-Copy" fill="white"></path>
        <path d="M4.8016909,21.9294274 L3.90815885,21.9294274 C3.87475579,21.6964048 3.76619582,20.7643142 2.60543924,20.7643142 C1.15240582,20.7643142 0.893532046,22.4234354 0.893532046,23.5419441 C0.893532046,24.8095872 1.21921195,26.1797603 2.59708847,26.1797603 C2.96452221,26.1797603 3.31525441,26.0772304 3.57412818,25.7789614 C3.79124812,25.517976 3.84135272,25.229028 3.86640502,25.0705726 L4.78498937,25.0705726 C4.65972786,26.3941411 3.56577742,26.9440746 2.53028234,26.9440746 C0.409187572,26.9440746 0,24.8561917 0,23.551265 C0,22.1344874 0.49269524,20.0186418 2.6388423,20.0186418 C3.49062052,20.0186418 4.69313093,20.4007989 4.8016909,21.9294274 Z M5.86223828,26.8415446 L5.86223828,20.1211718 L6.64721036,20.1211718 L6.64721036,26.8415446 L5.86223828,26.8415446 Z M7.85807154,24.5579228 C7.85807154,23.4021305 8.34241602,22.0412783 9.98751707,22.0412783 C11.6660212,22.0412783 12.0418057,23.5139814 12.0418057,24.4926764 C12.0418057,25.8628495 11.3486921,27 9.92071094,27 C8.53448365,27 7.85807154,25.9280959 7.85807154,24.5579228 Z M8.67644669,24.5019973 C8.67644669,25.4620506 9.04388043,26.3475366 9.93741247,26.3475366 C10.5303169,26.3475366 11.206729,25.8721704 11.206729,24.4647137 C11.206729,23.2996005 10.7223845,22.6844208 9.98751707,22.6844208 C9.48647107,22.6844208 8.67644669,23.0386152 8.67644669,24.5019973 Z M13.1858607,22.1624501 L13.9875344,22.1624501 L13.9875344,25.1731025 C13.9875344,25.6298269 14.0793928,26.207723 14.8810664,26.207723 C15.2735524,26.207723 15.6409862,26.0585885 15.8664569,25.6857523 C16.041823,25.4061252 16.041823,25.0426099 16.041823,24.8095872 L16.041823,22.1624501 L16.8518474,22.1624501 L16.8518474,25.9653795 C16.8518474,26.0585885 16.8685489,26.5805593 16.8768997,26.8415446 L16.0585245,26.8415446 L16.041823,26.0399467 C15.8915092,26.3661784 15.6075831,26.8881491 14.7057003,26.8881491 C13.6702052,26.8881491 13.1858607,26.2263648 13.1858607,25.3035952 L13.1858607,22.1624501 Z M21.2777538,22.7962716 L21.2777538,20.1211718 L22.0627258,20.1211718 L22.0627258,26.0958722 C22.0627258,26.1984021 22.0794274,26.5992011 22.0961289,26.8415446 L21.3111568,26.8415446 L21.2944553,26.0958722 C21.2276492,26.2263648 21.1357907,26.4221039 20.9186708,26.5898802 C20.5762894,26.8508655 20.1671018,26.9347537 19.8831757,26.9347537 C19.3236743,26.9347537 18.0794101,26.608522 18.0794101,24.5579228 C18.0794101,22.7776298 18.9896437,22.0039947 19.9750341,22.0039947 C20.876917,22.0039947 21.1775446,22.6005326 21.2777538,22.7962716 Z M21.3028061,24.436751 C21.3028061,23.7563249 21.160843,23.3834887 20.9854769,23.1318242 C20.8184616,22.8894807 20.5094832,22.6564581 20.0668926,22.6564581 C18.9144868,22.6564581 18.9144868,24.2130493 18.9144868,24.5299601 C18.9144868,25.3595206 19.1065544,26.3195739 20.0668926,26.3195739 C21.3028061,26.3195739 21.3028061,24.8002663 21.3028061,24.436751 Z M25.7955186,26.8415446 L25.7955186,20.1118509 L26.6305953,20.1118509 L26.6305953,26.8415446 L25.7955186,26.8415446 Z M28.1420841,26.8415446 L28.1420841,22.7030626 L28.1337333,22.1624501 L28.9187054,22.1624501 L28.9270561,22.9174434 C29.0189146,22.7217044 29.3195422,22.069241 30.2715296,22.069241 C30.6473141,22.069241 31.7913691,22.2276964 31.7913691,23.6631158 L31.7913691,26.8415446 L30.9896955,26.8415446 L30.9896955,23.8681758 C30.9896955,23.5605859 30.9562925,23.2809587 30.7642248,23.0665779 C30.5638064,22.8521971 30.2882311,22.7496671 30.0210066,22.7496671 C29.4531544,22.7496671 28.9270561,23.2063915 28.9270561,24.1478029 L28.9270561,26.8415446 L28.1420841,26.8415446 Z M35.3153927,20.0652463 L35.3153927,20.7643142 C35.1817805,20.7549933 35.0147651,20.7456724 34.8561006,20.7456724 C34.2214423,20.7456724 34.2214423,21.0998668 34.2214423,21.4260985 L34.2214423,22.1624501 L35.198482,22.1624501 L35.198482,22.7962716 L34.2214423,22.7962716 L34.2214423,26.8415446 L33.444821,26.8415446 L33.444821,22.7962716 L32.6180951,22.7962716 L32.6180951,22.1624501 L33.444821,22.1624501 L33.444821,21.6311585 C33.444821,20.988016 33.478224,20.7549933 33.6201871,20.5126498 C33.7955532,20.2143808 34.1295838,20 34.6723837,20 C34.8978544,20 35.1483774,20.0372836 35.3153927,20.0652463 Z M36.0419094,26.8415446 L36.0419094,23.1131824 C36.0419094,22.7962716 36.0252079,22.4700399 36.0001556,22.1624501 L36.7934784,22.1624501 L36.81018,23.0665779 C36.9604938,22.4141145 37.4615398,22.1997337 37.812272,22.1438083 C38.0460935,22.1065246 38.2214596,22.1158455 38.3550718,22.1251664 L38.3550718,22.9826897 C38.313318,22.9640479 38.2632134,22.954727 38.204758,22.9454061 C38.1463027,22.9360852 38.0711458,22.9360852 37.9792873,22.9360852 C37.0523522,22.9360852 36.8352323,23.551265 36.8352323,24.3528628 L36.8352323,26.8415446 L36.0419094,26.8415446 Z M42.5137537,26.8415446 L41.8039385,26.8415446 C41.7454831,26.608522 41.7287816,26.3848202 41.7287816,26.1424767 C41.3529971,26.9161119 40.785145,26.9906791 40.4344128,26.9906791 C39.4740746,26.9906791 38.956327,26.3848202 38.956327,25.6111851 C38.956327,25.2383489 39.0732378,24.6418109 39.6911945,24.241012 C40.1421359,23.9613848 40.8101973,23.9334221 41.1442279,23.9334221 C41.3446463,23.9334221 41.4699078,23.942743 41.7120801,23.9613848 C41.7120801,23.3834887 41.7120801,23.1318242 41.5617663,22.9267643 C41.4031017,22.6937417 41.0607203,22.6191744 40.8352496,22.6191744 C40.0419267,22.6191744 40.0001729,23.2250333 39.9918221,23.4114514 L39.20685,23.4114514 C39.2319023,23.1691079 39.2569546,22.8428762 39.4991269,22.5259654 C39.816456,22.1344874 40.4093605,22.0226365 40.8519511,22.0226365 C41.4615571,22.0226365 42.1129169,22.2370173 42.3383876,22.7123835 C42.4719999,22.9920107 42.4803506,23.2157124 42.4803506,23.4300932 L42.4469476,25.6671105 C42.4469476,25.7416778 42.4552983,26.3661784 42.5137537,26.8415446 Z M41.7120801,24.5672437 C41.570117,24.5486019 41.4532063,24.539281 41.2611387,24.539281 C40.9438095,24.539281 39.7496499,24.539281 39.7496499,25.4900133 C39.7496499,25.7882823 39.9166652,26.3009321 40.6181296,26.3009321 C41.0189664,26.3009321 41.319594,26.1238349 41.5116617,25.7976032 C41.6870278,25.4806924 41.6953785,25.2197071 41.7120801,24.5672437 Z M43.5158457,25.4527297 L44.3425716,25.4527297 C44.3342208,25.8069241 44.5012362,26.3009321 45.261156,26.3009321 C45.5868359,26.3009321 45.8290081,26.2356858 45.9960234,26.0026631 C46.0795311,25.8814913 46.1296357,25.723036 46.1296357,25.5645806 C46.1296357,25.1078562 45.8373589,25.023968 45.2110514,24.8655126 C44.3342208,24.6418109 43.5993534,24.4460719 43.5993534,23.4673768 C43.5993534,22.6098535 44.2674147,22.0505992 45.2361037,22.0505992 C45.762202,22.0505992 46.4970694,22.2183755 46.7475924,22.7776298 C46.8561524,23.0386152 46.8561524,23.2623169 46.8561524,23.4580559 L46.0544788,23.4580559 C46.0795311,22.7496671 45.5283805,22.6937417 45.2444544,22.6937417 C45.1275437,22.6937417 44.3926762,22.6937417 44.3926762,23.3648469 C44.3926762,23.7936085 44.7684607,23.8961385 44.9855807,23.9613848 C46.1463372,24.2689747 46.3968602,24.3435419 46.6473832,24.6045273 C46.8812047,24.8468708 46.9647124,25.1731025 46.9647124,25.4713715 C46.9647124,25.9933422 46.7058386,26.4407457 46.3968602,26.6551265 C46.0294265,26.9067909 45.5868359,26.9720373 45.152596,26.9720373 C44.3008178,26.9720373 43.5074949,26.5805593 43.5158457,25.4527297 Z M47.4240046,22.7869507 L47.4240046,22.1438083 L48.1672228,22.1438083 L48.1672228,21.1651132 L48.9438441,20.885486 L48.9438441,22.1438083 L49.87913,22.1438083 L49.87913,22.7869507 L48.9438441,22.7869507 L48.9438441,25.5925433 C48.9438441,25.8255659 48.9438441,26.2170439 49.5033455,26.2170439 C49.6620101,26.2170439 49.8123239,26.1890812 49.87913,26.1704394 L49.87913,26.8508655 C49.737167,26.8788282 49.5116963,26.9067909 49.2277702,26.9067909 C48.5096042,26.9067909 48.1672228,26.6737683 48.1672228,25.9094541 L48.1672228,22.7869507 L47.4240046,22.7869507 Z M50.8895728,26.8415446 L50.8895728,23.1131824 C50.8895728,22.7962716 50.8728712,22.4700399 50.8478189,22.1624501 L51.6411418,22.1624501 L51.6578433,23.0665779 C51.8081571,22.4141145 52.3092031,22.1997337 52.6599353,22.1438083 C52.8937568,22.1065246 53.0691229,22.1158455 53.2027352,22.1251664 L53.2027352,22.9826897 C53.1609813,22.9640479 53.1108767,22.954727 53.0524214,22.9454061 C52.993966,22.9360852 52.9188091,22.9360852 52.8269507,22.9360852 C51.9000156,22.9360852 51.6828956,23.551265 51.6828956,24.3528628 L51.6828956,26.8415446 L50.8895728,26.8415446 Z M54.0127596,22.1624501 L54.8144332,22.1624501 L54.8144332,25.1731025 C54.8144332,25.6298269 54.9062916,26.207723 55.7079652,26.207723 C56.1004512,26.207723 56.467885,26.0585885 56.6933557,25.6857523 C56.8687218,25.4061252 56.8687218,25.0426099 56.8687218,24.8095872 L56.8687218,22.1624501 L57.6787462,22.1624501 L57.6787462,25.9653795 C57.6787462,26.0585885 57.6954477,26.5805593 57.7037985,26.8415446 L56.8854233,26.8415446 L56.8687218,26.0399467 C56.718408,26.3661784 56.4344819,26.8881491 55.5325991,26.8881491 C54.497104,26.8881491 54.0127596,26.2263648 54.0127596,25.3035952 L54.0127596,22.1624501 Z M62.3802279,23.6631158 L61.586905,23.6631158 C61.5702035,23.448735 61.5117481,22.6844208 60.7518283,22.6844208 C59.6662287,22.6844208 59.6662287,24.0918775 59.6662287,24.4460719 C59.6662287,25.4061252 59.8749978,26.3009321 60.7100745,26.3009321 C61.3781359,26.3009321 61.6036066,25.7416778 61.6203081,25.2849534 L62.4136309,25.2849534 C62.3635263,26.1984021 61.7539204,26.9627164 60.7184253,26.9627164 C60.4344992,26.9627164 59.7831394,26.89747 59.3405488,26.3568575 C59.0900258,26.0306258 58.8395028,25.5366178 58.8395028,24.5672437 C58.8395028,22.6191744 59.9084009,22.0412783 60.7434776,22.0412783 C61.0190529,22.0412783 61.6453604,22.1065246 62.0294957,22.6191744 C62.338474,23.0199734 62.3635263,23.4021305 62.3802279,23.6631158 Z M62.7309601,22.7869507 L62.7309601,22.1438083 L63.4741783,22.1438083 L63.4741783,21.1651132 L64.2507996,20.885486 L64.2507996,22.1438083 L65.1860855,22.1438083 L65.1860855,22.7869507 L64.2507996,22.7869507 L64.2507996,25.5925433 C64.2507996,25.8255659 64.2507996,26.2170439 64.810301,26.2170439 C64.9689656,26.2170439 65.1192794,26.1890812 65.1860855,26.1704394 L65.1860855,26.8508655 C65.0441225,26.8788282 64.8186518,26.9067909 64.5347257,26.9067909 C63.8165598,26.9067909 63.4741783,26.6737683 63.4741783,25.9094541 L63.4741783,22.7869507 L62.7309601,22.7869507 Z M66.0712668,22.1624501 L66.8729404,22.1624501 L66.8729404,25.1731025 C66.8729404,25.6298269 66.9647988,26.207723 67.7664724,26.207723 C68.1589585,26.207723 68.5263922,26.0585885 68.7518629,25.6857523 C68.927229,25.4061252 68.927229,25.0426099 68.927229,24.8095872 L68.927229,22.1624501 L69.7372534,22.1624501 L69.7372534,25.9653795 C69.7372534,26.0585885 69.7539549,26.5805593 69.7623057,26.8415446 L68.9439306,26.8415446 L68.927229,26.0399467 C68.7769152,26.3661784 68.4929892,26.8881491 67.5911063,26.8881491 C66.5556113,26.8881491 66.0712668,26.2263648 66.0712668,25.3035952 L66.0712668,22.1624501 Z M71.2988468,26.8415446 L71.2988468,23.1131824 C71.2988468,22.7962716 71.2821453,22.4700399 71.257093,22.1624501 L72.0504158,22.1624501 L72.0671173,23.0665779 C72.2174311,22.4141145 72.7184771,22.1997337 73.0692093,22.1438083 C73.3030308,22.1065246 73.4783969,22.1158455 73.6120092,22.1251664 L73.6120092,22.9826897 C73.5702554,22.9640479 73.5201508,22.954727 73.4616954,22.9454061 C73.40324,22.9360852 73.3280831,22.9360852 73.2362247,22.9360852 C72.3092896,22.9360852 72.0921696,23.551265 72.0921696,24.3528628 L72.0921696,26.8415446 L71.2988468,26.8415446 Z M77.9961617,24.6604527 L74.9815349,24.6604527 C74.9648334,25.6298269 75.3239164,26.3475366 76.1840454,26.3475366 C76.6934421,26.3475366 77.1026297,26.0492676 77.1694358,25.3781625 L77.9544079,25.3781625 C77.9293556,25.6111851 77.8959525,25.9933422 77.5953249,26.3568575 C77.4116081,26.5898802 76.9940697,26.9813582 76.1506423,26.9813582 C74.8312211,26.9813582 74.2049136,26.0679095 74.2049136,24.5858855 C74.2049136,23.6631158 74.371929,22.8988016 75.0316395,22.3861518 C75.4324763,22.069241 75.9335224,22.0412783 76.1756946,22.0412783 C78.0546171,22.0412783 78.0128633,23.8961385 77.9961617,24.6604527 Z M75.014938,24.045273 L77.1944881,24.045273 C77.2028389,23.5978695 77.127682,22.665779 76.1589931,22.665779 C75.6495963,22.665779 75.0316395,23.0106525 75.014938,24.045273 Z" id="Cloud-Infrastructure-Copy" fill="white"></path>
    </g>
</svg>
