<?xml version="1.0" encoding="UTF-8"?>
<svg width="192px" height="128px" viewBox="0 0 192 128" version="1.1" xmlns="http://www.w3.org/2000/svg" xmlns:xlink="http://www.w3.org/1999/xlink">
    <!-- Generator: Sketch 50.2 (55047) - http://www.bohemiancoding.com/sketch -->
    <title>Provider/OracleCI/oci-128</title>
    <desc>Created with Sketch.</desc>
    <defs></defs>
    <g id="Provider/OracleCI/oci-128" stroke="none" stroke-width="1" fill="none" fill-rule="evenodd">
        <path d="M170.300142,56.2239943 C166.744699,56.2239943 163.727661,53.8295128 162.80515,50.5272727 L182.599195,50.5272727 L185.32788,46.2595424 L162.80515,46.2595424 C163.727661,42.977096 166.744699,40.5633707 170.300142,40.5633707 L183.886115,40.5633707 L186.634497,36.2950906 L169.992638,36.2950906 C163.343008,36.2950906 157.943637,41.7218488 157.943637,48.4033044 C157.943637,55.0847599 163.343008,60.4917246 169.992638,60.4917246 L184.270768,60.4917246 L187,56.2239943 L170.300142,56.2239943 Z M113.666935,60.4917246 C107.018399,60.4917246 101.618481,55.0847599 101.618481,48.4033044 C101.618481,41.7218488 107.018399,36.2950906 113.666935,36.2950906 L130.290191,36.2950906 L127.580656,40.5633707 L113.974986,40.5633707 C109.669934,40.5633707 106.17249,44.0778427 106.17249,48.4033044 C106.17249,52.7287661 109.669934,56.2239943 113.974986,56.2239943 L130.674297,56.2239943 L127.945612,60.4917246 L113.666935,60.4917246 Z M25.7258028,56.2239943 C30.0330432,56.2239943 33.5206385,52.7287661 33.5206385,48.4033044 C33.5206385,44.0778427 30.0330432,40.5633707 25.7258028,40.5633707 L12.3510336,40.5633707 C8.04652905,40.5633707 4.55619797,44.0778427 4.55619797,48.4033044 C4.55619797,52.7287661 8.04652905,56.2239943 12.3510336,56.2239943 L25.7258028,56.2239943 Z M12.0418884,60.4917246 C5.39444648,60.4917246 0,55.0847599 0,48.4033044 C0,41.7218488 5.39444648,36.2950906 12.0418884,36.2950906 L26.0376838,36.2950906 C32.6862201,36.2950906 38.0768364,41.7218488 38.0768364,48.4033044 C38.0768364,55.0847599 32.6862201,60.4917246 26.0376838,60.4917246 L12.0418884,60.4917246 Z M60.8009217,52.651241 C65.2980264,52.651241 68.9492224,49.0020622 68.9492224,44.4830626 C68.9492224,39.9646128 65.2980264,36.2950906 60.8009217,36.2950906 L40.5406961,36.2950906 L40.5406961,60.4917246 L45.1702135,60.4917246 L45.1702135,40.5633707 L60.493418,40.5633707 C62.6459439,40.5633707 64.3755153,42.3200568 64.3755153,44.4830626 C64.3755153,46.6460684 62.6459439,48.4033044 60.493418,48.4033044 L47.4376428,48.3840606 L61.2621772,60.4917246 L67.9884102,60.4917246 L58.6872442,52.651241 L60.8009217,52.651241 Z M137.41968,56.2239943 L137.41968,36.2950906 L132.787974,36.2950906 L132.787974,58.1742184 C132.787974,58.7729762 133.018876,59.3524902 133.46098,59.7967476 C133.902538,60.2404552 134.498395,60.4917246 135.152251,60.4917246 L156.271517,60.4917246 L159.000749,56.2239943 L137.41968,56.2239943 Z M80.7290214,51.9562641 L93.0855266,51.9562641 L86.5518938,41.3936042 L74.5603441,60.4917246 L69.1029743,60.4917246 L83.6886077,37.5508875 C84.3227656,36.623885 85.379878,36.0636149 86.5518938,36.0636149 C87.6861557,36.0636149 88.7427209,36.6040914 89.3571811,37.5118501 L104.000813,60.4917246 L98.5434436,60.4917246 L95.9679634,56.2239943 L83.4577063,56.2239943 L80.7290214,51.9562641 Z M189.491134,41.0636149 C188.120681,41.0636149 187,39.9465023 187,38.5633625 C187,37.1807274 188.120681,36.0636149 189.491134,36.0636149 C190.879319,36.0636149 192,37.1807274 192,38.5633625 C192,39.9465023 190.879319,41.0636149 189.491134,41.0636149 Z M189.259601,37.0742156 C189.651231,37.0742156 189.811328,37.0918834 189.989665,37.1630596 C190.487689,37.322575 190.541392,37.7657855 190.541392,37.9429687 C190.541392,37.9783044 190.541392,38.0671484 190.505421,38.1731555 C190.487689,38.2796674 190.416253,38.4926911 190.166988,38.6522065 C190.13203,38.6698743 190.114297,38.6875422 190.042861,38.7228779 L190.683757,39.8758309 L190.060594,39.8758309 L189.491134,38.8117219 L189.10001,38.8117219 L189.10001,39.8758309 L188.548283,39.8758309 L188.548283,37.0742156 L189.259601,37.0742156 Z M189.455669,38.3508435 C189.633499,38.3331757 189.811328,38.3331757 189.918229,38.1731555 C189.971932,38.1024841 189.989665,38.0318127 189.989665,37.9253009 C189.989665,37.7834533 189.900497,37.6592736 189.775864,37.5886022 C189.651231,37.5350939 189.527105,37.5350939 189.259601,37.5350939 L189.10001,37.5350939 L189.10001,38.3508435 L189.455669,38.3508435 Z M187.533995,38.5456946 C187.533995,39.6451394 188.405918,40.5138925 189.491134,40.5138925 C190.594589,40.5138925 191.466511,39.6451394 191.466511,38.5456946 C191.466511,37.4644225 190.594589,36.5956694 189.491134,36.5956694 C188.405918,36.5956694 187.533995,37.4644225 187.533995,38.5456946 Z" id="Combined-Shape-Copy" fill="#EC1D24"></path>
        <path d="M5.98121478,87.0720977 C4.07352762,87.0720977 2.62126877,86.5521532 1.62439466,85.5122485 C0.627520547,84.4723439 0.0932327232,83.0487716 0.0215151611,81.241489 C0.00717164864,80.8542142 -5.01820807e-14,80.2231091 -5.01820807e-14,79.3481549 C-5.01820807e-14,78.4588571 0.00717164864,77.8134087 0.0215151611,77.4117904 C0.0932327232,75.6045078 0.627520547,74.1809355 1.62439466,73.1410309 C2.62126877,72.1011262 4.07352762,71.5811817 5.98121478,71.5811817 C7.25778738,71.5811817 8.34070633,71.8070886 9.2300041,72.2589093 C10.1193019,72.7107299 10.789851,73.3023909 11.2416717,74.0339101 C11.6934923,74.7654292 11.9409142,75.5471389 11.9839447,76.3790626 C11.9839447,76.5081542 11.937329,76.6121431 11.8440962,76.6910325 C11.7508633,76.7699218 11.6397028,76.8093659 11.5106112,76.8093659 L10.4348531,76.8093659 C10.291418,76.8093659 10.1766716,76.7735076 10.0906105,76.70179 C10.0045495,76.6300725 9.94000463,76.5081545 9.89697409,76.3360323 C9.65313438,75.2315819 9.21207799,74.4570438 8.57379168,74.0123949 C7.93550538,73.567746 7.07132172,73.3454249 5.98121478,73.3454249 C3.48544361,73.3454249 2.18737521,74.7367248 2.08697062,77.5193662 C2.07262711,77.906641 2.06545546,78.5018878 2.06545546,79.3051245 C2.06545546,80.1083612 2.07262711,80.7179514 2.08697062,81.1339132 C2.18737521,83.9022111 3.48544361,85.2863393 5.98121478,85.2863393 C7.05697821,85.2863393 7.91757604,85.0640182 8.5630341,84.6193693 C9.20849216,84.1747204 9.65313438,83.407354 9.89697409,82.3172471 C9.94000463,82.1451249 10.0045495,82.0232069 10.0906105,81.9514893 C10.1766716,81.8797718 10.291418,81.8439135 10.4348531,81.8439135 L11.5106112,81.8439135 C11.6397028,81.8439135 11.7508633,81.8833576 11.8440962,81.9622469 C11.937329,82.0411362 11.9839447,82.1451252 11.9839447,82.2742168 C11.9409142,83.1061405 11.6934923,83.8878502 11.2416717,84.6193693 C10.789851,85.3508885 10.1193019,85.9425495 9.2300041,86.3943701 C8.34070633,86.8461907 7.25778738,87.0720977 5.98121478,87.0720977 Z M14.4327612,86.8569461 C14.2893261,86.8569461 14.1709939,86.8103304 14.0777611,86.7170975 C13.9845282,86.6238647 13.9379125,86.5055325 13.9379125,86.3620974 L13.9379125,72.0760304 C13.9379125,71.9182518 13.9845282,71.7963338 14.0777611,71.7102727 C14.1709939,71.6242116 14.2893261,71.5811817 14.4327612,71.5811817 L15.3794283,71.5811817 C15.5228634,71.5811817 15.6411956,71.6277974 15.7344285,71.7210303 C15.8276613,71.8142631 15.874277,71.9325953 15.874277,72.0760304 L15.874277,86.3620974 C15.874277,86.5055325 15.8276613,86.6238647 15.7344285,86.7170975 C15.6411956,86.8103304 15.5228634,86.8569461 15.3794283,86.8569461 L14.4327612,86.8569461 Z M22.927338,87.0720977 C21.3495516,87.0720977 20.1339572,86.6274555 19.2805182,85.7381577 C18.4270792,84.8488599 17.9716795,83.6655379 17.9143054,82.1881561 L17.8927903,81.2630042 L17.9143054,80.3378523 C17.9716795,78.8604705 18.4342508,77.6771485 19.3020333,76.7878507 C20.1698158,75.8985529 21.3782386,75.4539107 22.927338,75.4539107 C24.4764373,75.4539107 25.6848601,75.8985529 26.5526426,76.7878507 C27.4204251,77.6771485 27.8829964,78.8604705 27.9403705,80.3378523 C27.9690575,80.6534095 27.9834008,80.9617904 27.9834008,81.2630042 C27.9834008,81.564218 27.9690575,81.8725988 27.9403705,82.1881561 C27.8829964,83.6655379 27.4275968,84.8488599 26.5741578,85.7381577 C25.7207188,86.6274555 24.5051243,87.0720977 22.927338,87.0720977 Z M22.927338,85.4584606 C23.8453228,85.4584606 24.5732451,85.1680088 25.1111268,84.5870966 C25.6490085,84.0061843 25.9394603,83.1706873 25.9824908,82.0805803 C25.9968343,81.9371452 26.004006,81.6646225 26.004006,81.2630042 C26.004006,80.8613858 25.9968343,80.5888632 25.9824908,80.4454281 C25.9394603,79.3553211 25.6490085,78.5198241 25.1111268,77.9389118 C24.5732451,77.3579996 23.8453228,77.0675478 22.927338,77.0675478 C22.0093532,77.0675478 21.2814308,77.3579996 20.7435491,77.9389118 C20.2056674,78.5198241 19.9152156,79.3553211 19.8721851,80.4454281 L19.8506699,81.2630042 L19.8721851,82.0805803 C19.9152156,83.1706873 20.2056674,84.0061843 20.7435491,84.5870966 C21.2814308,85.1680088 22.0093532,85.4584606 22.927338,85.4584606 Z M34.1543402,87.0720977 C32.7917065,87.0720977 31.7374741,86.6310413 30.9916115,85.7489153 C30.2457488,84.8667893 29.8728231,83.6942247 29.8728231,82.2311864 L29.8728231,76.163911 C29.8728231,76.0204759 29.9194388,75.9021437 30.0126717,75.8089109 C30.1059045,75.715678 30.2242367,75.6690623 30.3676718,75.6690623 L31.3573692,75.6690623 C31.5008044,75.6690623 31.6191366,75.715678 31.7123694,75.8089109 C31.8056022,75.9021437 31.8522179,76.0204759 31.8522179,76.163911 L31.8522179,82.1236106 C31.8522179,84.3038245 32.7988756,85.3939151 34.6922192,85.3939151 C35.610204,85.3939151 36.3381263,85.1034633 36.876008,84.5225511 C37.4138898,83.9416388 37.6828266,83.142 37.6828266,82.1236106 L37.6828266,76.163911 C37.6828266,76.0204759 37.7294423,75.9021437 37.8226751,75.8089109 C37.915908,75.715678 38.0342402,75.6690623 38.1776753,75.6690623 L39.1673727,75.6690623 C39.3108078,75.6690623 39.42914,75.715678 39.5223729,75.8089109 C39.6156057,75.9021437 39.6622214,76.0204759 39.6622214,76.163911 L39.6622214,86.3620974 C39.6622214,86.5055325 39.6156057,86.6238647 39.5223729,86.7170975 C39.42914,86.8103304 39.3108078,86.8569461 39.1673727,86.8569461 L38.2422208,86.8569461 C38.0987857,86.8569461 37.9804534,86.8103304 37.8872206,86.7170975 C37.7939878,86.6238647 37.7473721,86.5055325 37.7473721,86.3620974 L37.7473721,85.3939151 C37.3314102,85.9533121 36.8437381,86.3728535 36.2843411,86.652552 C35.7249441,86.9322505 35.0149509,87.0720977 34.1543402,87.0720977 Z M46.263464,87.0720977 C44.7573952,87.0720977 43.6278605,86.5844256 42.8748261,85.6090667 C42.1217917,84.6337079 41.7165936,83.4001843 41.6592195,81.908459 L41.6377044,81.2630042 L41.6592195,80.6175494 C41.7165936,79.1401676 42.1253775,77.9102298 42.8855837,76.9276992 C43.6457899,75.9451686 44.7717387,75.4539107 46.263464,75.4539107 C47.7551893,75.4539107 48.9169964,75.9846127 49.7489201,77.0460326 L49.7489201,72.0760304 C49.7489201,71.9325953 49.7955358,71.8142631 49.8887686,71.7210303 C49.9820015,71.6277974 50.1003337,71.5811817 50.2437688,71.5811817 L51.211951,71.5811817 C51.3553862,71.5811817 51.4737184,71.6277974 51.5669512,71.7210303 C51.660184,71.8142631 51.7067997,71.9325953 51.7067997,72.0760304 L51.7067997,86.3620974 C51.7067997,86.5055325 51.660184,86.6238647 51.5669512,86.7170975 C51.4737184,86.8103304 51.3553862,86.8569461 51.211951,86.8569461 L50.2867991,86.8569461 C50.143364,86.8569461 50.0286176,86.8103304 49.9425565,86.7170975 C49.8564955,86.6238647 49.8134656,86.5055325 49.8134656,86.3620974 L49.8134656,85.4369454 C48.9958854,86.5270524 47.8125633,87.0720977 46.263464,87.0720977 Z M46.672252,85.3939151 C47.6762979,85.3939151 48.429321,85.0604335 48.931344,84.3934601 C49.4333669,83.7264868 49.7058895,82.9340196 49.7489201,82.0160348 C49.7632636,81.8582562 49.7704352,81.5857335 49.7704352,81.1984587 C49.7704352,80.7968404 49.7632636,80.5171461 49.7489201,80.3593674 C49.7202331,79.4844132 49.4441246,78.7278042 48.9205864,78.0895179 C48.3970482,77.4512316 47.6476109,77.1320933 46.672252,77.1320933 C45.6395192,77.1320933 44.886496,77.4548175 44.4131601,78.1002755 C43.9398242,78.7457336 43.6816449,79.5919881 43.6386143,80.6390645 L43.6170992,81.2630042 C43.6170992,84.0169586 44.6354733,85.3939151 46.672252,85.3939151 Z M59.573525,86.8569461 C59.4300898,86.8569461 59.3153434,86.8103304 59.2292824,86.7170975 C59.1432213,86.6238647 59.1001914,86.5055325 59.1001914,86.3620974 L59.1001914,72.291182 C59.1001914,72.1477469 59.1432213,72.0294147 59.2292824,71.9361819 C59.3153434,71.842949 59.4300898,71.7963333 59.573525,71.7963333 L60.649283,71.7963333 C60.8070616,71.7963333 60.9289797,71.8393632 61.0150407,71.9254243 C61.1011018,72.0114854 61.1441317,72.1334034 61.1441317,72.291182 L61.1441317,86.3620974 C61.1441317,86.5055325 61.097516,86.6238647 61.0042832,86.7170975 C60.9110503,86.8103304 60.7927181,86.8569461 60.649283,86.8569461 L59.573525,86.8569461 Z M64.4320395,86.8569461 C64.2886044,86.8569461 64.1702722,86.8103304 64.0770393,86.7170975 C63.9838065,86.6238647 63.9371908,86.5055325 63.9371908,86.3620974 L63.9371908,76.163911 C63.9371908,76.0204759 63.9838065,75.9021437 64.0770393,75.8089109 C64.1702722,75.715678 64.2886044,75.6690623 64.4320395,75.6690623 L65.3571914,75.6690623 C65.51497,75.6690623 65.6368881,75.7120922 65.7229492,75.7981533 C65.8090102,75.8842144 65.8520401,76.0061324 65.8520401,76.163911 L65.8520401,77.1105781 C66.2823455,76.5798681 66.7807751,76.1710842 67.3473438,75.8842139 C67.9139126,75.5973437 68.6203199,75.4539107 69.4665872,75.4539107 C70.8435644,75.4539107 71.91214,75.8949671 72.6723462,76.7770931 C73.4325523,77.6592191 73.8126497,78.824612 73.8126497,80.2733068 L73.8126497,86.3620974 C73.8126497,86.5055325 73.766034,86.6238647 73.6728012,86.7170975 C73.5795683,86.8103304 73.4612361,86.8569461 73.317801,86.8569461 L72.3281036,86.8569461 C72.1846685,86.8569461 72.0663363,86.8103304 71.9731034,86.7170975 C71.8798706,86.6238647 71.8332549,86.5055325 71.8332549,86.3620974 L71.8332549,80.4023978 C71.8332549,79.3696649 71.5822472,78.5664402 71.0802243,77.9926997 C70.5782013,77.4189592 69.8610365,77.1320933 68.9287081,77.1320933 C68.0107234,77.1320933 67.2792152,77.422545 66.7341617,78.0034573 C66.1891082,78.5843695 65.9165856,79.3840084 65.9165856,80.4023978 L65.9165856,86.3620974 C65.9165856,86.5055325 65.8699699,86.6238647 65.7767371,86.7170975 C65.6835042,86.8103304 65.565172,86.8569461 65.4217369,86.8569461 L64.4320395,86.8569461 Z M77.6599517,86.8569461 C77.5165166,86.8569461 77.3981843,86.8103304 77.3049515,86.7170975 C77.2117187,86.6238647 77.165103,86.5055325 77.165103,86.3620974 L77.165103,77.3257297 L75.3147991,77.3257297 C75.171364,77.3257297 75.0530318,77.2826998 74.959799,77.1966388 C74.8665661,77.1105777 74.8199504,76.9958313 74.8199504,76.8523962 L74.8199504,76.163911 C74.8199504,76.0204759 74.8665661,75.9021437 74.959799,75.8089109 C75.0530318,75.715678 75.171364,75.6690623 75.3147991,75.6690623 L77.165103,75.6690623 L77.165103,74.5933043 C77.165103,73.4314798 77.4483831,72.5314379 78.0149518,71.8931515 C78.5815206,71.2548652 79.5102491,70.9357269 80.8011652,70.9357269 L82.0705597,70.9357269 C82.2139948,70.9357269 82.332327,70.9823426 82.4255599,71.0755754 C82.5187927,71.1688083 82.5654084,71.2871405 82.5654084,71.4305756 L82.5654084,72.1190607 C82.5654084,72.2624959 82.5187927,72.3772422 82.4255599,72.4633033 C82.332327,72.5493644 82.2139948,72.5923943 82.0705597,72.5923943 L80.8441955,72.5923943 C80.1843939,72.5923943 79.7254084,72.7645139 79.4672252,73.1087581 C79.209042,73.4530024 79.0799523,73.9837044 79.0799523,74.7008801 L79.0799523,75.6690623 L81.8554081,75.6690623 C81.9988432,75.6690623 82.1171754,75.715678 82.2104082,75.8089109 C82.3036411,75.9021437 82.3502568,76.0204759 82.3502568,76.163911 L82.3502568,76.8523962 C82.3502568,76.9958313 82.3036411,77.1105777 82.2104082,77.1966388 C82.1171754,77.2826998 81.9988432,77.3257297 81.8554081,77.3257297 L79.0799523,77.3257297 L79.0799523,86.3620974 C79.0799523,86.5055325 79.0333366,86.6238647 78.9401038,86.7170975 C78.8468709,86.8103304 78.7285387,86.8569461 78.5851036,86.8569461 L77.6599517,86.8569461 Z M84.0460426,86.8569461 C83.9026075,86.8569461 83.7842753,86.8103304 83.6910425,86.7170975 C83.5978097,86.6238647 83.5511939,86.5055325 83.5511939,86.3620974 L83.5511939,76.1854262 C83.5511939,76.0419911 83.5978097,75.920073 83.6910425,75.8196684 C83.7842753,75.7192639 83.9026075,75.6690623 84.0460426,75.6690623 L84.9496794,75.6690623 C85.107458,75.6690623 85.2329619,75.715678 85.3261947,75.8089109 C85.4194276,75.9021437 85.4660433,76.0276475 85.4660433,76.1854262 L85.4660433,77.1320933 C86.0541273,76.1567344 87.0509864,75.6690623 88.4566507,75.6690623 L89.2957419,75.6690623 C89.4535206,75.6690623 89.5754386,75.7120922 89.6614997,75.7981533 C89.7475608,75.8842144 89.7905906,76.0061324 89.7905906,76.163911 L89.7905906,76.959972 C89.7905906,77.1034071 89.7475608,77.2217393 89.6614997,77.3149721 C89.5754386,77.408205 89.4535206,77.4548207 89.2957419,77.4548207 L88.0693778,77.4548207 C87.2804846,77.4548207 86.660137,77.6843134 86.2083163,78.1433058 C85.7564957,78.6022982 85.5305888,79.2262317 85.5305888,80.0151249 L85.5305888,86.3620974 C85.5305888,86.5055325 85.4803872,86.6238647 85.3799826,86.7170975 C85.279578,86.8103304 85.15766,86.8569461 85.0142249,86.8569461 L84.0460426,86.8569461 Z M93.8530442,87.0720977 C93.1502121,87.0720977 92.5011779,86.9286647 91.9059221,86.6417945 C91.3106664,86.3549242 90.8373376,85.9640694 90.4859215,85.4692182 C90.1345055,84.974367 89.9588001,84.4257359 89.9588001,83.8233084 C89.9588001,82.8766365 90.3460691,82.1020985 91.1206188,81.499671 C91.8951684,80.8972434 92.9494008,80.4956311 94.2833474,80.2948219 L97.5106216,79.8430036 L97.5106216,79.2190639 C97.5106216,77.7416821 96.6571954,77.0030023 94.9503174,77.0030023 C94.2905159,77.0030023 93.7598139,77.1356778 93.3581955,77.4010328 C92.9565772,77.6663878 92.6625396,77.9783545 92.4760739,78.3369423 C92.4186999,78.4803774 92.3577409,78.5771947 92.293195,78.627397 C92.2286492,78.6775993 92.1390036,78.7027 92.0242555,78.7027 L91.1851643,78.7027 C91.0560726,78.7027 90.9449121,78.6560843 90.8516793,78.5628515 C90.7584464,78.4696186 90.7118307,78.3584581 90.7118307,78.2293665 C90.7118307,77.8994657 90.8660212,77.5157825 91.1744067,77.0783054 C91.4827922,76.6408282 91.9597068,76.2607309 92.6051649,75.9380018 C93.2506229,75.6152728 94.0395043,75.4539107 94.9718326,75.4539107 C96.578306,75.4539107 97.7293556,75.8268364 98.425016,76.5726991 C99.1206763,77.3185617 99.4685013,78.2508761 99.4685013,79.36967 L99.4685013,86.3620974 C99.4685013,86.5055325 99.4218855,86.6238647 99.3286527,86.7170975 C99.2354199,86.8103304 99.1170877,86.8569461 98.9736526,86.8569461 L98.0269855,86.8569461 C97.8835503,86.8569461 97.768804,86.8103304 97.6827429,86.7170975 C97.5966818,86.6238647 97.5536519,86.5055325 97.5536519,86.3620974 L97.5536519,85.4154303 C97.2380947,85.8887662 96.7791091,86.2832069 96.1766816,86.5987641 C95.5742541,86.9143214 94.799716,87.0720977 93.8530442,87.0720977 Z M94.2833474,85.5014909 C95.2300193,85.5014909 96.0045573,85.19311 96.6069848,84.576339 C97.2094124,83.959568 97.5106216,83.0631119 97.5106216,81.8869439 L97.5106216,81.2845194 L94.9933478,81.6502771 C93.9606149,81.7937122 93.1789052,82.0375483 92.6481952,82.3817926 C92.1174852,82.7260369 91.8521342,83.1563358 91.8521342,83.6727022 C91.8521342,84.2607862 92.0923845,84.7126001 92.5728921,85.0281574 C93.0533998,85.3437147 93.6235459,85.5014909 94.2833474,85.5014909 Z M105.703986,87.0720977 C104.714284,87.0720977 103.878787,86.9107356 103.19747,86.5880066 C102.516153,86.2652775 102.010552,85.8959376 101.680651,85.4799758 C101.35075,85.0640139 101.185802,84.7197748 101.185802,84.447248 C101.185802,84.3038129 101.236004,84.1926524 101.336408,84.113763 C101.436813,84.0348737 101.544388,83.9954296 101.659136,83.9954296 L102.562773,83.9954296 C102.648834,83.9954296 102.716964,84.0097729 102.767167,84.03846 C102.817369,84.067147 102.8855,84.1316918 102.971561,84.2320964 C103.301461,84.6337148 103.670801,84.9492673 104.079591,85.1787635 C104.488382,85.4082597 105.037013,85.5230061 105.725501,85.5230061 C106.500051,85.5230061 107.120399,85.3795731 107.586563,85.0927029 C108.052727,84.8058326 108.285805,84.389877 108.285805,83.8448235 C108.285805,83.4862357 108.185402,83.1993698 107.984593,82.9842171 C107.783784,82.7690644 107.450302,82.5754299 106.984138,82.4033077 C106.517974,82.2311856 105.82591,82.0447227 104.907925,81.8439135 C103.66004,81.5713868 102.777927,81.1769461 102.26156,80.6605797 C101.745194,80.1442132 101.487015,79.4772499 101.487015,78.6596697 C101.487015,78.1289597 101.644791,77.6161869 101.960348,77.1213357 C102.275905,76.6264845 102.745648,76.2248722 103.369591,75.9164867 C103.993534,75.6081012 104.7358,75.4539107 105.59641,75.4539107 C106.500052,75.4539107 107.271004,75.6045153 107.90929,75.9057291 C108.547576,76.2069428 109.028077,76.5583536 109.350806,76.959972 C109.673535,77.3615903 109.834897,77.6986578 109.834897,77.9711846 C109.834897,78.1002762 109.788281,78.2078509 109.695048,78.293912 C109.601816,78.379973 109.490655,78.4230029 109.361563,78.4230029 L108.543987,78.4230029 C108.343178,78.4230029 108.199745,78.3441148 108.113684,78.1863362 C107.869844,77.9138094 107.665452,77.7022458 107.500502,77.5516389 C107.335552,77.401032 107.095301,77.2719424 106.779744,77.164366 C106.464187,77.0567897 106.069746,77.0030023 105.59641,77.0030023 C104.893578,77.0030023 104.355705,77.1500211 103.982773,77.4440631 C103.609842,77.7381051 103.423379,78.12896 103.423379,78.6166394 C103.423379,78.9178531 103.502267,79.1724467 103.660046,79.3804276 C103.817824,79.5884085 104.119034,79.782043 104.563683,79.9613369 C105.008331,80.1406309 105.668123,80.3235079 106.543077,80.5099736 C107.905711,80.7968438 108.870298,81.2056278 109.436867,81.7363377 C110.003435,82.2670477 110.286715,82.9483543 110.286715,83.780278 C110.286715,84.3970491 110.11101,84.9564377 109.759594,85.4584606 C109.408178,85.9604835 108.884648,86.3549242 108.188987,86.6417945 C107.493327,86.9286647 106.665001,87.0720977 105.703986,87.0720977 Z M116.371594,86.8569461 C114.14835,86.8569461 113.036744,85.6019076 113.036744,83.0917929 L113.036744,77.3257297 L111.337046,77.3257297 C111.193611,77.3257297 111.078865,77.2826998 110.992804,77.1966388 C110.906743,77.1105777 110.863713,76.9958313 110.863713,76.8523962 L110.863713,76.163911 C110.863713,76.0204759 110.906743,75.9021437 110.992804,75.8089109 C111.078865,75.715678 111.193611,75.6690623 111.337046,75.6690623 L113.036744,75.6690623 L113.036744,72.0760304 C113.036744,71.9325953 113.079774,71.8142631 113.165835,71.7210303 C113.251896,71.6277974 113.366643,71.5811817 113.510078,71.5811817 L114.456745,71.5811817 C114.60018,71.5811817 114.718512,71.6277974 114.811745,71.7210303 C114.904978,71.8142631 114.951593,71.9325953 114.951593,72.0760304 L114.951593,75.6690623 L117.619473,75.6690623 C117.762909,75.6690623 117.881241,75.715678 117.974474,75.8089109 C118.067706,75.9021437 118.114322,76.0204759 118.114322,76.163911 L118.114322,76.8523962 C118.114322,76.9958313 118.067706,77.1105777 117.974474,77.1966388 C117.881241,77.2826998 117.762909,77.3257297 117.619473,77.3257297 L114.951593,77.3257297 L114.951593,82.9411868 C114.951593,83.6727059 115.069926,84.2249228 115.306594,84.5978542 C115.543262,84.9707855 115.94846,85.1572483 116.5222,85.1572483 L117.834625,85.1572483 C117.97806,85.1572483 118.092807,85.2038641 118.178868,85.2970969 C118.264929,85.3903297 118.307959,85.5086619 118.307959,85.6520971 L118.307959,86.3620974 C118.307959,86.5055325 118.264929,86.6238647 118.178868,86.7170975 C118.092807,86.8103304 117.97806,86.8569461 117.834625,86.8569461 L116.371594,86.8569461 Z M120.197381,86.8569461 C120.053946,86.8569461 119.935614,86.8103304 119.842381,86.7170975 C119.749148,86.6238647 119.702532,86.5055325 119.702532,86.3620974 L119.702532,76.1854262 C119.702532,76.0419911 119.749148,75.920073 119.842381,75.8196684 C119.935614,75.7192639 120.053946,75.6690623 120.197381,75.6690623 L121.101018,75.6690623 C121.258796,75.6690623 121.3843,75.715678 121.477533,75.8089109 C121.570766,75.9021437 121.617382,76.0276475 121.617382,76.1854262 L121.617382,77.1320933 C122.205466,76.1567344 123.202325,75.6690623 124.607989,75.6690623 L125.44708,75.6690623 C125.604859,75.6690623 125.726777,75.7120922 125.812838,75.7981533 C125.898899,75.8842144 125.941929,76.0061324 125.941929,76.163911 L125.941929,76.959972 C125.941929,77.1034071 125.898899,77.2217393 125.812838,77.3149721 C125.726777,77.408205 125.604859,77.4548207 125.44708,77.4548207 L124.220716,77.4548207 C123.431823,77.4548207 122.811475,77.6843134 122.359655,78.1433058 C121.907834,78.6022982 121.681927,79.2262317 121.681927,80.0151249 L121.681927,86.3620974 C121.681927,86.5055325 121.631726,86.6238647 121.531321,86.7170975 C121.430916,86.8103304 121.308998,86.8569461 121.165563,86.8569461 L120.197381,86.8569461 Z M131.252262,87.0720977 C129.889628,87.0720977 128.835396,86.6310413 128.089533,85.7489153 C127.343671,84.8667893 126.970745,83.6942247 126.970745,82.2311864 L126.970745,76.163911 C126.970745,76.0204759 127.017361,75.9021437 127.110593,75.8089109 C127.203826,75.715678 127.322158,75.6690623 127.465594,75.6690623 L128.455291,75.6690623 C128.598726,75.6690623 128.717058,75.715678 128.810291,75.8089109 C128.903524,75.9021437 128.95014,76.0204759 128.95014,76.163911 L128.95014,82.1236106 C128.95014,84.3038245 129.896797,85.3939151 131.790141,85.3939151 C132.708126,85.3939151 133.436048,85.1034633 133.97393,84.5225511 C134.511811,83.9416388 134.780748,83.142 134.780748,82.1236106 L134.780748,76.163911 C134.780748,76.0204759 134.827364,75.9021437 134.920597,75.8089109 C135.01383,75.715678 135.132162,75.6690623 135.275597,75.6690623 L136.265294,75.6690623 C136.40873,75.6690623 136.527062,75.715678 136.620295,75.8089109 C136.713527,75.9021437 136.760143,76.0204759 136.760143,76.163911 L136.760143,86.3620974 C136.760143,86.5055325 136.713527,86.6238647 136.620295,86.7170975 C136.527062,86.8103304 136.40873,86.8569461 136.265294,86.8569461 L135.340142,86.8569461 C135.196707,86.8569461 135.078375,86.8103304 134.985142,86.7170975 C134.891909,86.6238647 134.845294,86.5055325 134.845294,86.3620974 L134.845294,85.3939151 C134.429332,85.9533121 133.94166,86.3728535 133.382263,86.652552 C132.822866,86.9322505 132.112873,87.0720977 131.252262,87.0720977 Z M143.748659,87.0720977 C142.213903,87.0720977 141.016237,86.6382129 140.155627,85.7704304 C139.295016,84.9026479 138.843202,83.6870535 138.800172,82.1236106 L138.778656,81.2630042 L138.800172,80.4023978 C138.843202,78.8389549 139.295016,77.6233605 140.155627,76.755578 C141.016237,75.8877954 142.213903,75.4539107 143.748659,75.4539107 C144.781391,75.4539107 145.652747,75.6367877 146.362751,76.0025473 C147.072754,76.3683069 147.603456,76.8237066 147.954873,77.36876 C148.306289,77.9138135 148.496337,78.4588588 148.525024,79.0039123 C148.539368,79.1330039 148.492752,79.2477503 148.385176,79.3481549 C148.277599,79.4485594 148.159267,79.498761 148.030176,79.498761 L147.083509,79.498761 C146.940073,79.498761 146.832499,79.4664886 146.760781,79.4019428 C146.689064,79.337397 146.617347,79.2190648 146.54563,79.0469426 C146.287446,78.3441105 145.93245,77.8456809 145.480629,77.5516389 C145.028808,77.2575969 144.458662,77.1105781 143.770174,77.1105781 C142.866532,77.1105781 142.149368,77.3902724 141.618658,77.9496694 C141.087948,78.5090664 140.801082,79.3624926 140.758051,80.5099736 L140.736536,81.2630042 L140.758051,82.0160348 C140.801082,83.1635158 141.087948,84.016942 141.618658,84.576339 C142.149368,85.135736 142.866532,85.4154303 143.770174,85.4154303 C144.473006,85.4154303 145.046738,85.2684115 145.491387,84.9743695 C145.936035,84.6803275 146.287446,84.1818979 146.54563,83.4790658 C146.617347,83.3069436 146.689064,83.1886114 146.760781,83.1240656 C146.832499,83.0595198 146.940073,83.0272474 147.083509,83.0272474 L148.030176,83.0272474 C148.159267,83.0272474 148.277599,83.0774489 148.385176,83.1778535 C148.492752,83.2782581 148.539368,83.3930045 148.525024,83.5220961 C148.496337,84.0528061 148.306289,84.5906797 147.954873,85.1357332 C147.603456,85.6807867 147.072754,86.1397722 146.362751,86.5127035 C145.652747,86.8856348 144.781391,87.0720977 143.748659,87.0720977 Z M154.695964,86.8569461 C152.472719,86.8569461 151.361114,85.6019076 151.361114,83.0917929 L151.361114,77.3257297 L149.661416,77.3257297 C149.517981,77.3257297 149.403234,77.2826998 149.317173,77.1966388 C149.231112,77.1105777 149.188082,76.9958313 149.188082,76.8523962 L149.188082,76.163911 C149.188082,76.0204759 149.231112,75.9021437 149.317173,75.8089109 C149.403234,75.715678 149.517981,75.6690623 149.661416,75.6690623 L151.361114,75.6690623 L151.361114,72.0760304 C151.361114,71.9325953 151.404144,71.8142631 151.490205,71.7210303 C151.576266,71.6277974 151.691012,71.5811817 151.834447,71.5811817 L152.781114,71.5811817 C152.924549,71.5811817 153.042882,71.6277974 153.136115,71.7210303 C153.229347,71.8142631 153.275963,71.9325953 153.275963,72.0760304 L153.275963,75.6690623 L155.943843,75.6690623 C156.087278,75.6690623 156.20561,75.715678 156.298843,75.8089109 C156.392076,75.9021437 156.438692,76.0204759 156.438692,76.163911 L156.438692,76.8523962 C156.438692,76.9958313 156.392076,77.1105777 156.298843,77.1966388 C156.20561,77.2826998 156.087278,77.3257297 155.943843,77.3257297 L153.275963,77.3257297 L153.275963,82.9411868 C153.275963,83.6727059 153.394295,84.2249228 153.630963,84.5978542 C153.867631,84.9707855 154.272829,85.1572483 154.84657,85.1572483 L156.158995,85.1572483 C156.30243,85.1572483 156.417176,85.2038641 156.503237,85.2970969 C156.589298,85.3903297 156.632328,85.5086619 156.632328,85.6520971 L156.632328,86.3620974 C156.632328,86.5055325 156.589298,86.6238647 156.503237,86.7170975 C156.417176,86.8103304 156.30243,86.8569461 156.158995,86.8569461 L154.695964,86.8569461 Z M162.200843,87.0720977 C160.838209,87.0720977 159.783977,86.6310413 159.038114,85.7489153 C158.292252,84.8667893 157.919326,83.6942247 157.919326,82.2311864 L157.919326,76.163911 C157.919326,76.0204759 157.965942,75.9021437 158.059175,75.8089109 C158.152407,75.715678 158.27074,75.6690623 158.414175,75.6690623 L159.403872,75.6690623 C159.547307,75.6690623 159.665639,75.715678 159.758872,75.8089109 C159.852105,75.9021437 159.898721,76.0204759 159.898721,76.163911 L159.898721,82.1236106 C159.898721,84.3038245 160.845378,85.3939151 162.738722,85.3939151 C163.656707,85.3939151 164.384629,85.1034633 164.922511,84.5225511 C165.460393,83.9416388 165.729329,83.142 165.729329,82.1236106 L165.729329,76.163911 C165.729329,76.0204759 165.775945,75.9021437 165.869178,75.8089109 C165.962411,75.715678 166.080743,75.6690623 166.224178,75.6690623 L167.213876,75.6690623 C167.357311,75.6690623 167.475643,75.715678 167.568876,75.8089109 C167.662109,75.9021437 167.708724,76.0204759 167.708724,76.163911 L167.708724,86.3620974 C167.708724,86.5055325 167.662109,86.6238647 167.568876,86.7170975 C167.475643,86.8103304 167.357311,86.8569461 167.213876,86.8569461 L166.288724,86.8569461 C166.145289,86.8569461 166.026956,86.8103304 165.933723,86.7170975 C165.840491,86.6238647 165.793875,86.5055325 165.793875,86.3620974 L165.793875,85.3939151 C165.377913,85.9533121 164.890241,86.3728535 164.330844,86.652552 C163.771447,86.9322505 163.061454,87.0720977 162.200843,87.0720977 Z M170.716935,86.8569461 C170.5735,86.8569461 170.455168,86.8103304 170.361935,86.7170975 C170.268702,86.6238647 170.222086,86.5055325 170.222086,86.3620974 L170.222086,76.1854262 C170.222086,76.0419911 170.268702,75.920073 170.361935,75.8196684 C170.455168,75.7192639 170.5735,75.6690623 170.716935,75.6690623 L171.620572,75.6690623 C171.77835,75.6690623 171.903854,75.715678 171.997087,75.8089109 C172.09032,75.9021437 172.136936,76.0276475 172.136936,76.1854262 L172.136936,77.1320933 C172.72502,76.1567344 173.721879,75.6690623 175.127543,75.6690623 L175.966634,75.6690623 C176.124413,75.6690623 176.246331,75.7120922 176.332392,75.7981533 C176.418453,75.8842144 176.461483,76.0061324 176.461483,76.163911 L176.461483,76.959972 C176.461483,77.1034071 176.418453,77.2217393 176.332392,77.3149721 C176.246331,77.408205 176.124413,77.4548207 175.966634,77.4548207 L174.74027,77.4548207 C173.951377,77.4548207 173.331029,77.6843134 172.879209,78.1433058 C172.427388,78.6022982 172.201481,79.2262317 172.201481,80.0151249 L172.201481,86.3620974 C172.201481,86.5055325 172.15128,86.6238647 172.050875,86.7170975 C171.95047,86.8103304 171.828552,86.8569461 171.685117,86.8569461 L170.716935,86.8569461 Z M182.029998,87.0720977 C180.56696,87.0720977 179.397981,86.616698 178.523027,85.705885 C177.648072,84.7950719 177.167572,83.5507909 177.081511,81.9730045 L177.059996,81.241489 L177.081511,80.5314887 C177.167572,78.9823894 177.648072,77.7488658 178.523027,76.830881 C179.397981,75.9128962 180.56696,75.4539107 182.029998,75.4539107 C183.607784,75.4539107 184.83055,75.9559261 185.698333,76.959972 C186.566115,77.9640179 187,79.3266311 187,81.0478526 L187,81.4351255 C187,81.5785606 186.953384,81.6968928 186.860151,81.7901256 C186.766919,81.8833585 186.648586,81.9299742 186.505151,81.9299742 L179.03939,81.9299742 L179.03939,82.1236106 C179.082421,83.0559389 179.369287,83.8519919 179.899997,84.5117935 C180.430707,85.1715951 181.133528,85.5014909 182.008483,85.5014909 C182.682628,85.5014909 183.231259,85.3688154 183.654392,85.1034604 C184.077526,84.8381055 184.396664,84.561997 184.611817,84.2751267 C184.740909,84.1030046 184.841312,83.9990157 184.913029,83.9631569 C184.984747,83.9272981 185.106665,83.909369 185.278787,83.909369 L186.225454,83.909369 C186.354546,83.909369 186.465706,83.9452272 186.558939,84.0169448 C186.652172,84.0886624 186.698788,84.1818938 186.698788,84.2966419 C186.698788,84.6121992 186.505153,84.9922966 186.117878,85.4369454 C185.730604,85.8815943 185.181972,86.2652775 184.471969,86.5880066 C183.761965,86.9107356 182.947983,87.0720977 182.029998,87.0720977 Z M185.04212,80.4669432 L185.04212,80.4023978 C185.04212,79.3983519 184.769598,78.5807839 184.224544,77.9496694 C183.679491,77.3185548 182.947983,77.0030023 182.029998,77.0030023 C181.097669,77.0030023 180.366161,77.3185548 179.835451,77.9496694 C179.304741,78.5807839 179.03939,79.3983519 179.03939,80.4023978 L179.03939,80.4669432 L185.04212,80.4669432 Z" id="Cloud-Infrastructure" fill="#202234"></path>
    </g>
</svg>