<?xml version="1.0" encoding="UTF-8"?>
<svg width="80px" height="32px" viewBox="0 0 80 32" version="1.1" xmlns="http://www.w3.org/2000/svg" xmlns:xlink="http://www.w3.org/1999/xlink">
    <!-- Generator: Sketch 50.2 (55047) - http://www.bohemiancoding.com/sketch -->
    <title>Provider/OracleCI/oci-32</title>
    <desc>Created with Sketch.</desc>
    <defs></defs>
    <g id="Provider/OracleCI/oci-32" stroke="none" stroke-width="1" fill="none" fill-rule="evenodd">
        <path d="M2.55849066,27 C1.74246918,27 1.12125913,26.7744467 0.694841889,26.3233333 C0.268424646,25.87222 0.0398807033,25.2546706 0.00920320383,24.4706667 C0.00306770393,24.3026658 0,24.0288908 0,23.6493333 C0,23.2635536 0.00306770393,22.9835564 0.00920320383,22.8093333 C0.0398807033,22.0253294 0.268424646,21.40778 0.694841889,20.9566667 C1.12125913,20.5055533 1.74246918,20.28 2.55849066,20.28 C3.10455016,20.28 3.56777345,20.377999 3.94817444,20.574 C4.32857544,20.770001 4.61540575,21.0266651 4.808674,21.344 C5.00194225,21.6613349 5.10777803,22.0004426 5.12618453,22.3613333 C5.12618453,22.4173336 5.10624446,22.4624443 5.06636371,22.4966667 C5.02648296,22.5308891 4.97893355,22.548 4.92371405,22.548 L4.46355386,22.548 C4.40219886,22.548 4.3531156,22.5324446 4.3163026,22.5013333 C4.2794896,22.4702221 4.25188026,22.4173337 4.23347376,22.3426667 C4.12917026,21.8635532 3.94050647,21.5275565 3.66747673,21.3346667 C3.39444698,21.1417768 3.02478866,21.0453333 2.55849066,21.0453333 C1.49091368,21.0453333 0.935659271,21.6488829 0.892710771,22.856 C0.886575272,23.0240008 0.883507568,23.2822205 0.883507568,23.6306667 C0.883507568,23.9791129 0.886575272,24.2435547 0.892710771,24.424 C0.935659271,25.6248949 1.49091368,26.2253333 2.55849066,26.2253333 C3.01865316,26.2253333 3.38677763,26.1288899 3.66287512,25.936 C3.93897262,25.7431101 4.12917026,25.4102246 4.23347376,24.9373333 C4.25188026,24.8626663 4.2794896,24.8097779 4.3163026,24.7786667 C4.3531156,24.7475554 4.40219886,24.732 4.46355386,24.732 L4.92371405,24.732 C4.97893355,24.732 5.02648296,24.7491109 5.06636371,24.7833333 C5.10624446,24.8175557 5.12618453,24.8626664 5.12618453,24.9186667 C5.10777803,25.2795574 5.00194225,25.6186651 4.808674,25.936 C4.61540575,26.2533349 4.32857544,26.509999 3.94817444,26.706 C3.56777345,26.902001 3.10455016,27 2.55849066,27 Z M6.17419939,26.9066667 C6.11284439,26.9066667 6.06222727,26.8864446 6.02234652,26.846 C5.98246577,26.8055554 5.9625257,26.7542225 5.9625257,26.692 L5.9625257,20.4946667 C5.9625257,20.4262219 5.98246577,20.3733335 6.02234652,20.336 C6.06222727,20.2986665 6.11284439,20.28 6.17419939,20.28 L6.57914035,20.28 C6.64049535,20.28 6.69111247,20.300222 6.73099322,20.3406667 C6.77087397,20.3811113 6.79081404,20.4324441 6.79081404,20.4946667 L6.79081404,26.692 C6.79081404,26.7542225 6.77087397,26.8055554 6.73099322,26.846 C6.69111247,26.8864446 6.64049535,26.9066667 6.57914035,26.9066667 L6.17419939,26.9066667 Z M9.80831451,27 C9.13340953,27 8.61343371,26.807113 8.24837146,26.4213333 C7.88330922,26.0355536 7.68851002,25.5222254 7.66396802,24.8813333 L7.65476482,24.48 L7.66396802,24.0786667 C7.68851002,23.4377746 7.88637693,22.9244464 8.25757467,22.5386667 C8.62877241,22.152887 9.14568053,21.96 9.80831451,21.96 C10.4709485,21.96 10.9878566,22.152887 11.3590544,22.5386667 C11.7302521,22.9244464 11.928119,23.4377746 11.952661,24.0786667 C11.964932,24.2155562 11.9710674,24.3493327 11.9710674,24.48 C11.9710674,24.6106673 11.964932,24.7444438 11.952661,24.8813333 C11.928119,25.5222254 11.7333198,26.0355536 11.3682576,26.4213333 C11.0031953,26.807113 10.4832195,27 9.80831451,27 Z M9.80831451,26.3 C10.2009865,26.3 10.5123585,26.1740013 10.7424397,25.922 C10.9725209,25.6699987 11.096763,25.3075579 11.1151695,24.8346667 C11.121305,24.7724441 11.1243727,24.6542231 11.1243727,24.48 C11.1243727,24.3057769 11.121305,24.1875559 11.1151695,24.1253333 C11.096763,23.6524421 10.9725209,23.2900013 10.7424397,23.038 C10.5123585,22.7859987 10.2009865,22.66 9.80831451,22.66 C9.41564252,22.66 9.10427057,22.7859987 8.87418933,23.038 C8.64410808,23.2900013 8.51986607,23.6524421 8.50145957,24.1253333 L8.49225637,24.48 L8.50145957,24.8346667 C8.51986607,25.3075579 8.64410808,25.6699987 8.87418933,25.922 C9.10427057,26.1740013 9.41564252,26.3 9.80831451,26.3 Z M14.6112365,27 C14.028364,27 13.5774116,26.8086686 13.2583656,26.426 C12.9393196,26.0433314 12.779799,25.5346698 12.779799,24.9 L12.779799,22.268 C12.779799,22.2057775 12.799739,22.1544446 12.8396198,22.114 C12.8795005,22.0735554 12.9301177,22.0533333 12.9914727,22.0533333 L13.41482,22.0533333 C13.476175,22.0533333 13.5267921,22.0735554 13.5666729,22.114 C13.6065536,22.1544446 13.6264937,22.2057775 13.6264937,22.268 L13.6264937,24.8533333 C13.6264937,25.7991158 14.0314306,26.272 14.8413166,26.272 C15.2339886,26.272 15.5453606,26.1460013 15.7754418,25.894 C16.0055231,25.6419987 16.120562,25.2951133 16.120562,24.8533333 L16.120562,22.268 C16.120562,22.2057775 16.140502,22.1544446 16.1803828,22.114 C16.2202635,22.0735554 16.2708806,22.0533333 16.3322356,22.0533333 L16.755583,22.0533333 C16.816938,22.0533333 16.8675551,22.0735554 16.9074359,22.114 C16.9473166,22.1544446 16.9672567,22.2057775 16.9672567,22.268 L16.9672567,26.692 C16.9672567,26.7542225 16.9473166,26.8055554 16.9074359,26.846 C16.8675551,26.8864446 16.816938,26.9066667 16.755583,26.9066667 L16.3598453,26.9066667 C16.2984903,26.9066667 16.2478731,26.8864446 16.2079924,26.846 C16.1681116,26.8055554 16.1481716,26.7542225 16.1481716,26.692 L16.1481716,26.272 C15.9702421,26.5146679 15.7616382,26.6966661 15.5223537,26.818 C15.2830692,26.9393339 14.9793665,27 14.6112365,27 Z M19.7914899,27 C19.1472624,27 18.664099,26.7884466 18.3419853,26.3653333 C18.0198716,25.9422201 17.8465463,25.4071143 17.8220043,24.76 L17.8128011,24.48 L17.8220043,24.2 C17.8465463,23.5591079 18.0214054,23.0255577 18.3465869,22.5993333 C18.6717684,22.173109 19.1533979,21.96 19.7914899,21.96 C20.4295819,21.96 20.9265499,22.1902199 21.2824089,22.6506667 L21.2824089,20.4946667 C21.2824089,20.4324441 21.302349,20.3811113 21.3422297,20.3406667 C21.3821105,20.300222 21.4327276,20.28 21.4940826,20.28 L21.9082268,20.28 C21.9695818,20.28 22.0201989,20.300222 22.0600796,20.3406667 C22.0999604,20.3811113 22.1199005,20.4324441 22.1199005,20.4946667 L22.1199005,26.692 C22.1199005,26.7542225 22.0999604,26.8055554 22.0600796,26.846 C22.0201989,26.8864446 21.9695818,26.9066667 21.9082268,26.9066667 L21.512489,26.9066667 C21.451134,26.9066667 21.4020508,26.8864446 21.3652378,26.846 C21.3284248,26.8055554 21.3100185,26.7542225 21.3100185,26.692 L21.3100185,26.2906667 C20.960295,26.7635579 20.4541239,27 19.7914899,27 Z M19.9663508,26.272 C20.3958358,26.272 20.7179447,26.1273348 20.9326872,25.838 C21.1474297,25.5486652 21.2640024,25.2048909 21.2824089,24.8066667 C21.2885444,24.7382219 21.2916121,24.6200008 21.2916121,24.452 C21.2916121,24.2777769 21.2885444,24.1564448 21.2824089,24.088 C21.2701379,23.7084425 21.1520313,23.3802236 20.9280856,23.1033333 C20.7041398,22.8264431 20.3835648,22.688 19.9663508,22.688 C19.5245948,22.688 19.2024859,22.8279986 19.0000144,23.108 C18.7975429,23.3880014 18.6871055,23.7551088 18.668699,24.2093333 L18.6594958,24.48 C18.6594958,25.6746726 19.0951098,26.272 19.9663508,26.272 Z M25.4859723,26.9066667 C25.4246173,26.9066667 25.375534,26.8864446 25.338721,26.846 C25.301908,26.8055554 25.2835018,26.7542225 25.2835018,26.692 L25.2835018,20.588 C25.2835018,20.5257775 25.301908,20.4744446 25.338721,20.434 C25.375534,20.3935554 25.4246173,20.3733333 25.4859723,20.3733333 L25.9461325,20.3733333 C26.013623,20.3733333 26.065774,20.3919998 26.102587,20.4293333 C26.1394,20.4666669 26.1578062,20.5195552 26.1578062,20.588 L26.1578062,26.692 C26.1578062,26.7542225 26.1378661,26.8055554 26.0979854,26.846 C26.0581046,26.8864446 26.0074875,26.9066667 25.9461325,26.9066667 L25.4859723,26.9066667 Z M27.564746,26.9066667 C27.503391,26.9066667 27.4527739,26.8864446 27.4128931,26.846 C27.3730124,26.8055554 27.3530723,26.7542225 27.3530723,26.692 L27.3530723,22.268 C27.3530723,22.2057775 27.3730124,22.1544446 27.4128931,22.114 C27.4527739,22.0735554 27.503391,22.0533333 27.564746,22.0533333 L27.9604837,22.0533333 C28.0279742,22.0533333 28.0801252,22.0719998 28.1169382,22.1093333 C28.1537512,22.1466669 28.1721574,22.1995552 28.1721574,22.268 L28.1721574,22.6786667 C28.3562224,22.4484433 28.5694279,22.2711117 28.8117801,22.1466667 C29.0541323,22.0222216 29.3563012,21.96 29.7182957,21.96 C30.3073037,21.96 30.7643916,22.1513314 31.0895731,22.534 C31.4147545,22.9166686 31.5773429,23.4222191 31.5773429,24.0506667 L31.5773429,26.692 C31.5773429,26.7542225 31.5574028,26.8055554 31.517522,26.846 C31.4776413,26.8864446 31.4270242,26.9066667 31.3656692,26.9066667 L30.9423218,26.9066667 C30.8809668,26.9066667 30.8303497,26.8864446 30.7904689,26.846 C30.7505882,26.8055554 30.7306481,26.7542225 30.7306481,26.692 L30.7306481,24.1066667 C30.7306481,23.6586644 30.6232785,23.3102235 30.408536,23.0613333 C30.1937935,22.8124432 29.8870231,22.688 29.4882156,22.688 C29.0955436,22.688 28.7826378,22.8139987 28.5494888,23.066 C28.3163398,23.3180013 28.199767,23.6648867 28.199767,24.1066667 L28.199767,26.692 C28.199767,26.7542225 28.179827,26.8055554 28.1399462,26.846 C28.1000655,26.8864446 28.0494484,26.9066667 27.9880934,26.9066667 L27.564746,26.9066667 Z M33.223566,26.9066667 C33.162211,26.9066667 33.1115938,26.8864446 33.0717131,26.846 C33.0318323,26.8055554 33.0118923,26.7542225 33.0118923,26.692 L33.0118923,22.772 L32.2204167,22.772 C32.1590617,22.772 32.1084446,22.7533335 32.0685639,22.716 C32.0286831,22.6786665 32.0087431,22.6288892 32.0087431,22.5666667 L32.0087431,22.268 C32.0087431,22.2057775 32.0286831,22.1544446 32.0685639,22.114 C32.1084446,22.0735554 32.1590617,22.0533333 32.2204167,22.0533333 L33.0118923,22.0533333 L33.0118923,21.5866667 C33.0118923,21.0826641 33.1330666,20.6922236 33.3754188,20.4153333 C33.6177711,20.1384431 34.0150387,20 34.5672337,20 L35.1102227,20 C35.1715777,20 35.2221949,20.020222 35.2620756,20.0606667 C35.3019564,20.1011113 35.3218964,20.1524441 35.3218964,20.2146667 L35.3218964,20.5133333 C35.3218964,20.5755559 35.3019564,20.6253331 35.2620756,20.6626667 C35.2221949,20.7000002 35.1715777,20.7186667 35.1102227,20.7186667 L34.5856401,20.7186667 C34.3034071,20.7186667 34.1070741,20.7933326 33.9966351,20.9426667 C33.8861961,21.0920007 33.8309774,21.3222207 33.8309774,21.6333333 L33.8309774,22.0533333 L35.0181907,22.0533333 C35.0795457,22.0533333 35.1301628,22.0735554 35.1700436,22.114 C35.2099243,22.1544446 35.2298644,22.2057775 35.2298644,22.268 L35.2298644,22.5666667 C35.2298644,22.6288892 35.2099243,22.6786665 35.1700436,22.716 C35.1301628,22.7533335 35.0795457,22.772 35.0181907,22.772 L33.8309774,22.772 L33.8309774,26.692 C33.8309774,26.7542225 33.8110373,26.8055554 33.7711566,26.846 C33.7312758,26.8864446 33.6806587,26.9066667 33.6193037,26.9066667 L33.223566,26.9066667 Z M35.9557671,26.9066667 C35.8944121,26.9066667 35.843795,26.8864446 35.8039142,26.846 C35.7640335,26.8055554 35.7440934,26.7542225 35.7440934,26.692 L35.7440934,22.2773333 C35.7440934,22.2151108 35.7640335,22.1622224 35.8039142,22.1186667 C35.843795,22.0751109 35.8944121,22.0533333 35.9557671,22.0533333 L36.3423017,22.0533333 C36.4097922,22.0533333 36.463477,22.0735554 36.5033577,22.114 C36.5432385,22.1544446 36.5631786,22.2088885 36.5631786,22.2773333 L36.5631786,22.688 C36.8147341,22.2648868 37.2411449,22.0533333 37.8424239,22.0533333 L38.2013488,22.0533333 C38.2688393,22.0533333 38.3209903,22.0719998 38.3578033,22.1093333 C38.3946163,22.1466669 38.4130225,22.1995552 38.4130225,22.268 L38.4130225,22.6133333 C38.4130225,22.6755559 38.3946163,22.7268887 38.3578033,22.7673333 C38.3209903,22.807778 38.2688393,22.828 38.2013488,22.828 L37.6767662,22.828 C37.3393137,22.828 37.0739573,22.9275546 36.8806891,23.1266667 C36.6874208,23.3257788 36.5907882,23.5964427 36.5907882,23.9386667 L36.5907882,26.692 C36.5907882,26.7542225 36.5693142,26.8055554 36.5263657,26.846 C36.4834172,26.8864446 36.4312663,26.9066667 36.3699113,26.9066667 L35.9557671,26.9066667 Z M40.1512777,27 C39.8506382,27 39.573011,26.9377784 39.3183877,26.8133333 C39.0637645,26.6888883 38.861296,26.5193344 38.7109763,26.3046667 C38.5606565,26.0899989 38.4854978,25.8520013 38.4854978,25.5906667 C38.4854978,25.1799979 38.6511538,24.8440013 38.9824708,24.5826667 C39.3137878,24.321332 39.7647403,24.1471115 40.3353417,24.06 L41.7158223,23.864 L41.7158223,23.5933333 C41.7158223,22.9524412 41.3507656,22.632 40.6206411,22.632 C40.3384081,22.632 40.111398,22.689555 39.939604,22.8046667 C39.76781,22.9197784 39.6420341,23.0551103 39.5622726,23.2106667 C39.5377306,23.2728892 39.5116551,23.3148888 39.4840454,23.3366667 C39.4564356,23.3584446 39.4180893,23.3693333 39.3690053,23.3693333 L39.0100804,23.3693333 C38.9548609,23.3693333 38.9073115,23.3491113 38.8674307,23.3086667 C38.82755,23.268222 38.8076099,23.2200003 38.8076099,23.164 C38.8076099,23.0208882 38.8735655,22.8544454 39.0054788,22.6646667 C39.137392,22.4748879 39.3413944,22.3100007 39.6174918,22.17 C39.8935893,22.0299993 40.2310368,21.96 40.6298443,21.96 C41.3170203,21.96 41.8093867,22.1217762 42.1069585,22.4453333 C42.4045302,22.7688905 42.5533139,23.1733309 42.5533139,23.6586667 L42.5533139,26.692 C42.5533139,26.7542225 42.5333738,26.8055554 42.493493,26.846 C42.4536123,26.8864446 42.4029952,26.9066667 42.3416402,26.9066667 L41.9366992,26.9066667 C41.8753442,26.9066667 41.826261,26.8864446 41.789448,26.846 C41.752635,26.8055554 41.7342287,26.7542225 41.7342287,26.692 L41.7342287,26.2813333 C41.5992477,26.4866677 41.4029147,26.6577771 41.1452237,26.7946667 C40.8875327,26.9315562 40.5562207,27 40.1512777,27 Z M40.3353417,26.3186667 C40.7402847,26.3186667 41.0715968,26.1848902 41.3292878,25.9173333 C41.5869788,25.6497764 41.7158223,25.2608914 41.7158223,24.7506667 L41.7158223,24.4893333 L40.6390475,24.648 C40.1972915,24.7102225 39.8629118,24.8159993 39.6358983,24.9653333 C39.4088848,25.1146674 39.2953797,25.3013322 39.2953797,25.5253333 C39.2953797,25.7804457 39.3981478,25.9764438 39.603687,26.1133333 C39.8092263,26.2502229 40.0531088,26.3186667 40.3353417,26.3186667 Z M45.2210926,27 C44.7977431,27 44.4403556,26.9300007 44.1489194,26.79 C43.8574831,26.6499993 43.64121,26.4897787 43.5000935,26.3093333 C43.358977,26.128888 43.2884198,25.9795561 43.2884198,25.8613333 C43.2884198,25.7991108 43.3098937,25.7508891 43.3528422,25.7166667 C43.3957907,25.6824443 43.4418063,25.6653333 43.4908903,25.6653333 L43.8774248,25.6653333 C43.9142378,25.6653333 43.943381,25.6715555 43.9648553,25.684 C43.9863295,25.6964445 44.0154727,25.7244442 44.0522857,25.768 C44.1934022,25.9422231 44.351389,26.0791106 44.5262507,26.1786667 C44.7011125,26.2782227 44.9357918,26.328 45.2302958,26.328 C45.5616128,26.328 45.8269692,26.2657784 46.0263729,26.1413333 C46.2257767,26.0168883 46.3254771,25.8364456 46.3254771,25.6 C46.3254771,25.4444437 46.2825292,25.3200005 46.1966322,25.2266667 C46.1107352,25.1333329 45.968087,25.0493337 45.7686832,24.9746667 C45.5692795,24.8999996 45.273246,24.8191115 44.8805741,24.732 C44.3467856,24.6137772 43.969458,24.4426678 43.74858,24.2186667 C43.527702,23.9946655 43.4172646,23.7053351 43.4172646,23.3506667 C43.4172646,23.1204433 43.4847541,22.8980011 43.6197351,22.6833333 C43.7547161,22.4686656 43.9556507,22.2944451 44.222545,22.1606667 C44.4894392,22.0268882 44.8069466,21.96 45.1750766,21.96 C45.5616131,21.96 45.8913912,22.0253327 46.164421,22.156 C46.4374507,22.2866673 46.6429869,22.4391102 46.7810356,22.6133333 C46.9190844,22.7875564 46.9881077,22.9337772 46.9881077,23.052 C46.9881077,23.1080003 46.9681677,23.1546665 46.9282869,23.192 C46.8884062,23.2293335 46.8408567,23.248 46.7856372,23.248 L46.4359155,23.248 C46.3500185,23.248 46.2886644,23.2137781 46.2518514,23.1453333 C46.1475479,23.0271105 46.0601184,22.9353337 45.9895601,22.87 C45.9190019,22.8046663 45.8162338,22.7486669 45.6812528,22.702 C45.5462718,22.6553331 45.3775481,22.632 45.1750766,22.632 C44.8744371,22.632 44.6443593,22.6957771 44.4848363,22.8233333 C44.3253133,22.9508895 44.245553,23.1204434 44.245553,23.332 C44.245553,23.4626673 44.2792977,23.5731107 44.3467882,23.6633333 C44.4142787,23.753556 44.5431223,23.8375552 44.7333228,23.9153333 C44.9235233,23.9931115 45.2057521,24.072444 45.5800175,24.1533333 C46.16289,24.2777784 46.5754962,24.45511 46.8178485,24.6853333 C47.0602007,24.9155567 47.181375,25.2111093 47.181375,25.572 C47.181375,25.8395569 47.1062163,26.0822211 46.9558965,26.3 C46.8055768,26.5177789 46.5816344,26.6888883 46.2840626,26.8133333 C45.9864909,26.9377784 45.6321711,27 45.2210926,27 Z M49.7847313,26.9066667 C48.8337288,26.9066667 48.3582347,26.3622277 48.3582347,25.2733333 L48.3582347,22.772 L47.6311816,22.772 C47.5698266,22.772 47.5207434,22.7533335 47.4839304,22.716 C47.4471174,22.6786665 47.4287111,22.6288892 47.4287111,22.5666667 L47.4287111,22.268 C47.4287111,22.2057775 47.4471174,22.1544446 47.4839304,22.114 C47.5207434,22.0735554 47.5698266,22.0533333 47.6311816,22.0533333 L48.3582347,22.0533333 L48.3582347,20.4946667 C48.3582347,20.4324441 48.3766409,20.3811113 48.4134539,20.3406667 C48.4502669,20.300222 48.4993502,20.28 48.5607052,20.28 L48.9656462,20.28 C49.0270012,20.28 49.0776183,20.300222 49.117499,20.3406667 C49.1573798,20.3811113 49.1773199,20.4324441 49.1773199,20.4946667 L49.1773199,22.0533333 L50.3185171,22.0533333 C50.3798721,22.0533333 50.4304892,22.0735554 50.47037,22.114 C50.5102507,22.1544446 50.5301908,22.2057775 50.5301908,22.268 L50.5301908,22.5666667 C50.5301908,22.6288892 50.5102507,22.6786665 50.47037,22.716 C50.4304892,22.7533335 50.3798721,22.772 50.3185171,22.772 L49.1773199,22.772 L49.1773199,25.208 C49.1773199,25.5253349 49.227937,25.7648881 49.3291727,25.9266667 C49.4304085,26.0884453 49.6037337,26.1693333 49.8491537,26.1693333 L50.4105492,26.1693333 C50.4719042,26.1693333 50.5209874,26.1895554 50.5578004,26.23 C50.5946134,26.2704446 50.6130197,26.3217775 50.6130197,26.384 L50.6130197,26.692 C50.6130197,26.7542225 50.5946134,26.8055554 50.5578004,26.846 C50.5209874,26.8864446 50.4719042,26.9066667 50.4105492,26.9066667 L49.7847313,26.9066667 Z M51.4217512,26.9066667 C51.3603962,26.9066667 51.3097791,26.8864446 51.2698983,26.846 C51.2300176,26.8055554 51.2100775,26.7542225 51.2100775,26.692 L51.2100775,22.2773333 C51.2100775,22.2151108 51.2300176,22.1622224 51.2698983,22.1186667 C51.3097791,22.0751109 51.3603962,22.0533333 51.4217512,22.0533333 L51.8082858,22.0533333 C51.8757763,22.0533333 51.9294611,22.0735554 51.9693418,22.114 C52.0092226,22.1544446 52.0291627,22.2088885 52.0291627,22.2773333 L52.0291627,22.688 C52.2807182,22.2648868 52.707129,22.0533333 53.308408,22.0533333 L53.6673329,22.0533333 C53.7348234,22.0533333 53.7869744,22.0719998 53.8237874,22.1093333 C53.8606004,22.1466669 53.8790066,22.1995552 53.8790066,22.268 L53.8790066,22.6133333 C53.8790066,22.6755559 53.8606004,22.7268887 53.8237874,22.7673333 C53.7869744,22.807778 53.7348234,22.828 53.6673329,22.828 L53.1427503,22.828 C52.8052978,22.828 52.5399414,22.9275546 52.3466732,23.1266667 C52.1534049,23.3257788 52.0567723,23.5964427 52.0567723,23.9386667 L52.0567723,26.692 C52.0567723,26.7542225 52.0352983,26.8055554 51.9923498,26.846 C51.9494013,26.8864446 51.8972504,26.9066667 51.8358954,26.9066667 L51.4217512,26.9066667 Z M56.1510476,27 C55.5681751,27 55.1172226,26.8086686 54.7981766,26.426 C54.4791306,26.0433314 54.31961,25.5346698 54.31961,24.9 L54.31961,22.268 C54.31961,22.2057775 54.3395501,22.1544446 54.3794309,22.114 C54.4193116,22.0735554 54.4699287,22.0533333 54.5312837,22.0533333 L54.9546311,22.0533333 C55.0159861,22.0533333 55.0666032,22.0735554 55.106484,22.114 C55.1463647,22.1544446 55.1663048,22.2057775 55.1663048,22.268 L55.1663048,24.8533333 C55.1663048,25.7991158 55.5712417,26.272 56.3811277,26.272 C56.7737997,26.272 57.0851716,26.1460013 57.3152529,25.894 C57.5453341,25.6419987 57.660373,25.2951133 57.660373,24.8533333 L57.660373,22.268 C57.660373,22.2057775 57.6803131,22.1544446 57.7201938,22.114 C57.7600746,22.0735554 57.8106917,22.0533333 57.8720467,22.0533333 L58.2953941,22.0533333 C58.3567491,22.0533333 58.4073662,22.0735554 58.4472469,22.114 C58.4871277,22.1544446 58.5070678,22.2057775 58.5070678,22.268 L58.5070678,26.692 C58.5070678,26.7542225 58.4871277,26.8055554 58.4472469,26.846 C58.4073662,26.8864446 58.3567491,26.9066667 58.2953941,26.9066667 L57.8996563,26.9066667 C57.8383013,26.9066667 57.7876842,26.8864446 57.7478035,26.846 C57.7079227,26.8055554 57.6879826,26.7542225 57.6879826,26.692 L57.6879826,26.272 C57.5100531,26.5146679 57.3014493,26.6966661 57.0621648,26.818 C56.8228803,26.9393339 56.5191776,27 56.1510476,27 Z M61.4969586,27 C60.8404601,27 60.3281536,26.8117797 59.9600236,26.4353333 C59.5918936,26.058887 59.3986283,25.5315589 59.3802218,24.8533333 L59.3710186,24.48 L59.3802218,24.1066667 C59.3986283,23.4284411 59.5918936,22.901113 59.9600236,22.5246667 C60.3281536,22.1482203 60.8404601,21.96 61.4969586,21.96 C61.9387146,21.96 62.3114407,22.0393325 62.6151479,22.198 C62.9188551,22.3566675 63.1458652,22.554221 63.296185,22.7906667 C63.4465047,23.0271123 63.5277989,23.2635544 63.5400699,23.5 C63.5462054,23.5560003 63.5262653,23.6057776 63.4802491,23.6493333 C63.4342328,23.6928891 63.3836157,23.7146667 63.3283962,23.7146667 L62.9234552,23.7146667 C62.8621002,23.7146667 62.8160847,23.7006668 62.7854072,23.6726667 C62.7547297,23.6446665 62.7240526,23.5933337 62.6933751,23.5186667 C62.5829361,23.2137763 62.4310848,22.9975562 62.2378165,22.87 C62.0445483,22.7424438 61.8006658,22.6786667 61.5061618,22.6786667 C61.1196253,22.6786667 60.812855,22.7999988 60.5858415,23.0426667 C60.358828,23.2853345 60.2361198,23.6555531 60.2177133,24.1533333 L60.2085101,24.48 L60.2177133,24.8066667 C60.2361198,25.3044469 60.358828,25.6746655 60.5858415,25.9173333 C60.812855,26.1600012 61.1196253,26.2813333 61.5061618,26.2813333 C61.8068013,26.2813333 62.0522176,26.2175562 62.2424181,26.09 C62.4326186,25.9624438 62.5829361,25.7462237 62.6933751,25.4413333 C62.7240526,25.3666663 62.7547297,25.3153335 62.7854072,25.2873333 C62.8160847,25.2593332 62.8621002,25.2453333 62.9234552,25.2453333 L63.3283962,25.2453333 C63.3836157,25.2453333 63.4342328,25.2671109 63.4802491,25.3106667 C63.5262653,25.3542224 63.5462054,25.4039997 63.5400699,25.46 C63.5277989,25.6902234 63.4465047,25.9235544 63.296185,26.16 C63.1458652,26.3964456 62.9188551,26.5955547 62.6151479,26.7573333 C62.3114407,26.9191119 61.9387146,27 61.4969586,27 Z M66.180239,26.9066667 C65.2292365,26.9066667 64.7537424,26.3622277 64.7537424,25.2733333 L64.7537424,22.772 L64.0266893,22.772 C63.9653343,22.772 63.916251,22.7533335 63.879438,22.716 C63.842625,22.6786665 63.8242188,22.6288892 63.8242188,22.5666667 L63.8242188,22.268 C63.8242188,22.2057775 63.842625,22.1544446 63.879438,22.114 C63.916251,22.0735554 63.9653343,22.0533333 64.0266893,22.0533333 L64.7537424,22.0533333 L64.7537424,20.4946667 C64.7537424,20.4324441 64.7721486,20.3811113 64.8089616,20.3406667 C64.8457746,20.300222 64.8948579,20.28 64.9562129,20.28 L65.3611539,20.28 C65.4225089,20.28 65.473126,20.300222 65.5130067,20.3406667 C65.5528875,20.3811113 65.5728275,20.4324441 65.5728275,20.4946667 L65.5728275,22.0533333 L66.7140248,22.0533333 C66.7753798,22.0533333 66.8259969,22.0735554 66.8658777,22.114 C66.9057584,22.1544446 66.9256985,22.2057775 66.9256985,22.268 L66.9256985,22.5666667 C66.9256985,22.6288892 66.9057584,22.6786665 66.8658777,22.716 C66.8259969,22.7533335 66.7753798,22.772 66.7140248,22.772 L65.5728275,22.772 L65.5728275,25.208 C65.5728275,25.5253349 65.6234447,25.7648881 65.7246804,25.9266667 C65.8259162,26.0884453 65.9992414,26.1693333 66.2446614,26.1693333 L66.8060569,26.1693333 C66.8674119,26.1693333 66.9164951,26.1895554 66.9533081,26.23 C66.9901211,26.2704446 67.0085273,26.3217775 67.0085273,26.384 L67.0085273,26.692 C67.0085273,26.7542225 66.9901211,26.8055554 66.9533081,26.846 C66.9164951,26.8864446 66.8674119,26.9066667 66.8060569,26.9066667 L66.180239,26.9066667 Z M69.3910068,27 C68.8081343,27 68.3571818,26.8086686 68.0381358,26.426 C67.7190898,26.0433314 67.5595692,25.5346698 67.5595692,24.9 L67.5595692,22.268 C67.5595692,22.2057775 67.5795093,22.1544446 67.61939,22.114 C67.6592708,22.0735554 67.7098879,22.0533333 67.7712429,22.0533333 L68.1945903,22.0533333 C68.2559453,22.0533333 68.3065624,22.0735554 68.3464431,22.114 C68.3863239,22.1544446 68.4062639,22.2057775 68.4062639,22.268 L68.4062639,24.8533333 C68.4062639,25.7991158 68.8112009,26.272 69.6210868,26.272 C70.0137588,26.272 70.3251308,26.1460013 70.555212,25.894 C70.7852933,25.6419987 70.9003322,25.2951133 70.9003322,24.8533333 L70.9003322,22.268 C70.9003322,22.2057775 70.9202723,22.1544446 70.960153,22.114 C71.0000338,22.0735554 71.0506509,22.0533333 71.1120059,22.0533333 L71.5353532,22.0533333 C71.5967082,22.0533333 71.6473254,22.0735554 71.6872061,22.114 C71.7270869,22.1544446 71.7470269,22.2057775 71.7470269,22.268 L71.7470269,26.692 C71.7470269,26.7542225 71.7270869,26.8055554 71.6872061,26.846 C71.6473254,26.8864446 71.5967082,26.9066667 71.5353532,26.9066667 L71.1396155,26.9066667 C71.0782605,26.9066667 71.0276434,26.8864446 70.9877626,26.846 C70.9478819,26.8055554 70.9279418,26.7542225 70.9279418,26.692 L70.9279418,26.272 C70.7500123,26.5146679 70.5414084,26.6966661 70.3021239,26.818 C70.0628394,26.9393339 69.7591367,27 69.3910068,27 Z M73.0343251,26.9066667 C72.9729701,26.9066667 72.922353,26.8864446 72.8824722,26.846 C72.8425915,26.8055554 72.8226514,26.7542225 72.8226514,26.692 L72.8226514,22.2773333 C72.8226514,22.2151108 72.8425915,22.1622224 72.8824722,22.1186667 C72.922353,22.0751109 72.9729701,22.0533333 73.0343251,22.0533333 L73.4208596,22.0533333 C73.4883501,22.0533333 73.542035,22.0735554 73.5819157,22.114 C73.6217965,22.1544446 73.6417365,22.2088885 73.6417365,22.2773333 L73.6417365,22.688 C73.893292,22.2648868 74.3197029,22.0533333 74.9209819,22.0533333 L75.2799068,22.0533333 C75.3473973,22.0533333 75.3995483,22.0719998 75.4363613,22.1093333 C75.4731743,22.1466669 75.4915805,22.1995552 75.4915805,22.268 L75.4915805,22.6133333 C75.4915805,22.6755559 75.4731743,22.7268887 75.4363613,22.7673333 C75.3995483,22.807778 75.3473973,22.828 75.2799068,22.828 L74.7553242,22.828 C74.4178717,22.828 74.1525153,22.9275546 73.9592471,23.1266667 C73.7659788,23.3257788 73.6693461,23.5964427 73.6693461,23.9386667 L73.6693461,26.692 C73.6693461,26.7542225 73.6478722,26.8055554 73.6049237,26.846 C73.5619752,26.8864446 73.5098243,26.9066667 73.4484693,26.9066667 L73.0343251,26.9066667 Z M77.8740599,27 C77.2482389,27 76.7482032,26.8024464 76.3739377,26.4073333 C75.9996722,26.0122202 75.794136,25.4724479 75.757323,24.788 L75.7481198,24.4706667 L75.757323,24.1626667 C75.794136,23.4906633 75.9996722,22.9555575 76.3739377,22.5573333 C76.7482032,22.1591091 77.2482389,21.96 77.8740599,21.96 C78.5489649,21.96 79.0720084,22.1777756 79.4432062,22.6133333 C79.8144039,23.0488911 80,23.6399963 80,24.3866667 L80,24.5546667 C80,24.6168892 79.9800599,24.668222 79.9401792,24.7086667 C79.9002984,24.7491113 79.8496813,24.7693333 79.7883263,24.7693333 L76.5948146,24.7693333 L76.5948146,24.8533333 C76.6132211,25.2577798 76.7359292,25.6031097 76.9629427,25.8893333 C77.1899562,26.175557 77.4905912,26.3186667 77.8648567,26.3186667 C78.1532252,26.3186667 78.3879046,26.2611117 78.5689018,26.146 C78.7498991,26.0308883 78.8864119,25.9111117 78.9784444,25.7866667 C79.0336639,25.7119996 79.0766117,25.666889 79.1072892,25.6513333 C79.1379667,25.6357777 79.1901177,25.628 79.2637437,25.628 L79.6686847,25.628 C79.7239042,25.628 79.7714536,25.6435554 79.8113343,25.6746667 C79.8512151,25.7057779 79.8711551,25.746222 79.8711551,25.796 C79.8711551,25.9328896 79.7883271,26.0977768 79.6226686,26.2906667 C79.4570101,26.4835565 79.2223308,26.6499993 78.9186236,26.79 C78.6149163,26.9300007 78.2667319,27 77.8740599,27 Z M79.1625085,24.1346667 L79.1625085,24.1066667 C79.1625085,23.6711089 79.0459357,23.3164458 78.8127867,23.0426667 C78.5796377,22.7688875 78.2667319,22.632 77.8740599,22.632 C77.4752524,22.632 77.1623466,22.7688875 76.9353331,23.0426667 C76.7083196,23.3164458 76.5948146,23.6711089 76.5948146,24.1066667 L76.5948146,24.1346667 L79.1625085,24.1346667 Z" id="Combined-Shape" fill="#616870"></path>
        <path d="M70.9583925,14.2529429 C69.4769579,14.2529429 68.2198587,13.2727273 67.8354791,11.9209075 L76.0829981,11.9209075 L77.2199501,10.1738504 L67.8354791,10.1738504 C68.2198587,8.83013347 69.4769579,7.84204011 70.9583925,7.84204011 L76.6192145,7.84204011 L77.7643739,6.09475793 L70.8302659,6.09475793 C68.0595865,6.09475793 65.8098486,8.31627991 65.8098486,11.0514304 C65.8098486,13.7865808 68.0595865,16 70.8302659,16 L76.7794866,16 L77.9166667,14.2529429 L70.9583925,14.2529429 Z M47.3612229,16 C44.5909994,16 42.3410336,13.7865808 42.3410336,11.0514304 C42.3410336,8.31627991 44.5909994,6.09475793 47.3612229,6.09475793 L54.2875794,6.09475793 L53.1586068,7.84204011 L47.4895774,7.84204011 C45.6958058,7.84204011 44.2385374,9.28074006 44.2385374,11.0514304 C44.2385374,12.8221207 45.6958058,14.2529429 47.4895774,14.2529429 L54.4476236,14.2529429 L53.3106716,16 L47.3612229,16 Z M10.7190845,14.2529429 C12.513768,14.2529429 13.9669327,12.8221207 13.9669327,11.0514304 C13.9669327,9.28074006 12.513768,7.84204011 10.7190845,7.84204011 L5.146264,7.84204011 C3.35272044,7.84204011 1.89841582,9.28074006 1.89841582,11.0514304 C1.89841582,12.8221207 3.35272044,14.2529429 5.146264,14.2529429 L10.7190845,14.2529429 Z M5.01745351,16 C2.24768603,16 0,13.7865808 0,11.0514304 C0,8.31627991 2.24768603,6.09475793 5.01745351,6.09475793 L10.8490349,6.09475793 C13.6192584,6.09475793 15.8653485,8.31627991 15.8653485,11.0514304 C15.8653485,13.7865808 13.6192584,16 10.8490349,16 L5.01745351,16 Z M25.3337174,12.7903847 C27.207511,12.7903847 28.7288427,11.2965405 28.7288427,9.4466227 C28.7288427,7.59692993 27.207511,6.09475793 25.3337174,6.09475793 L16.8919567,6.09475793 L16.8919567,16 L18.8209223,16 L18.8209223,7.84204011 L25.2055908,7.84204011 C26.1024766,7.84204011 26.8231314,8.561165 26.8231314,9.4466227 C26.8231314,10.3320804 26.1024766,11.0514304 25.2055908,11.0514304 L19.7656845,11.0435526 L25.5259072,16 L28.3285042,16 L24.4530184,12.7903847 L25.3337174,12.7903847 Z M57.2582001,14.2529429 L57.2582001,6.09475793 L55.3283226,6.09475793 L55.3283226,15.0512953 C55.3283226,15.2964055 55.4245315,15.5336379 55.6087419,15.7155011 C55.7927243,15.8971393 56.040998,16 56.3134378,16 L65.1131321,16 L66.2503121,14.2529429 L57.2582001,14.2529429 Z M33.6370923,12.5058858 L38.7856361,12.5058858 L36.0632891,8.18190821 L31.06681,16 L28.7929059,16 L34.8702532,6.60883657 C35.1344857,6.2293547 35.5749492,6 36.0632891,6 C36.5358982,6 36.9761337,6.22125189 37.2321588,6.59285602 L43.3336723,16 L41.0597682,16 L39.9866514,14.2529429 L34.7740443,14.2529429 L33.6370923,12.5058858 Z M78.9546391,8.04682231 C78.3836171,8.04682231 77.9166667,7.58951613 77.9166667,7.02330783 C77.9166667,6.45730619 78.3836171,6 78.9546391,6 C79.5330496,6 80,6.45730619 80,7.02330783 C80,7.58951613 79.5330496,8.04682231 78.9546391,8.04682231 Z M78.858167,6.41370402 C79.0213463,6.41370402 79.0880535,6.4209366 79.1623603,6.4500736 C79.3698703,6.51537353 79.3922468,6.69680816 79.3922468,6.76934068 C79.3922468,6.78380586 79.3922468,6.82017544 79.3772588,6.86357097 C79.3698703,6.90717314 79.3401054,6.99437748 79.2362448,7.05967742 C79.221679,7.06691001 79.2142905,7.07414259 79.1845256,7.08860777 L79.4515655,7.56058578 L79.1919141,7.56058578 L78.9546391,7.12497735 L78.7916709,7.12497735 L78.7916709,7.56058578 L78.5617844,7.56058578 L78.5617844,6.41370402 L78.858167,6.41370402 Z M78.9398622,6.93631014 C79.0139578,6.92907755 79.0880535,6.92907755 79.1325953,6.86357097 C79.1549718,6.83464062 79.1623603,6.80571027 79.1623603,6.7621081 C79.1623603,6.70404075 79.1252069,6.65320599 79.0732766,6.62427564 C79.0213463,6.60237123 78.9696271,6.60237123 78.858167,6.60237123 L78.7916709,6.60237123 L78.7916709,6.93631014 L78.9398622,6.93631014 Z M78.1391647,7.01607525 C78.1391647,7.46614885 78.5024656,7.82178551 78.9546391,7.82178551 C79.4144121,7.82178551 79.777713,7.46614885 79.777713,7.01607525 C79.777713,6.57344088 79.4144121,6.21780421 78.9546391,6.21780421 C78.5024656,6.21780421 78.1391647,6.57344088 78.1391647,7.01607525 Z" id="Combined-Shape-Copy" fill="#616870"></path>
    </g>
</svg>