<?xml version="1.0" encoding="UTF-8"?>
<svg width="192px" height="128px" viewBox="0 0 192 128" version="1.1" xmlns="http://www.w3.org/2000/svg" xmlns:xlink="http://www.w3.org/1999/xlink">
    <!-- Generator: Sketch 50.2 (55047) - http://www.bohemiancoding.com/sketch -->
    <title>Provider/OracleCI/oci-128-disabled</title>
    <desc>Created with Sketch.</desc>
    <defs></defs>
    <g id="Provider/OracleCI/oci-128-disabled" stroke="none" stroke-width="1" fill="none" fill-rule="evenodd">
        <path d="M170.300142,56.2239943 C166.744699,56.2239943 163.727661,53.8295128 162.80515,50.5272727 L182.599195,50.5272727 L185.32788,46.2595424 L162.80515,46.2595424 C163.727661,42.977096 166.744699,40.5633707 170.300142,40.5633707 L183.886115,40.5633707 L186.634497,36.2950906 L169.992638,36.2950906 C163.343008,36.2950906 157.943637,41.7218488 157.943637,48.4033044 C157.943637,55.0847599 163.343008,60.4917246 169.992638,60.4917246 L184.270768,60.4917246 L187,56.2239943 L170.300142,56.2239943 Z M113.666935,60.4917246 C107.018399,60.4917246 101.618481,55.0847599 101.618481,48.4033044 C101.618481,41.7218488 107.018399,36.2950906 113.666935,36.2950906 L130.290191,36.2950906 L127.580656,40.5633707 L113.974986,40.5633707 C109.669934,40.5633707 106.17249,44.0778427 106.17249,48.4033044 C106.17249,52.7287661 109.669934,56.2239943 113.974986,56.2239943 L130.674297,56.2239943 L127.945612,60.4917246 L113.666935,60.4917246 Z M25.7258028,56.2239943 C30.0330432,56.2239943 33.5206385,52.7287661 33.5206385,48.4033044 C33.5206385,44.0778427 30.0330432,40.5633707 25.7258028,40.5633707 L12.3510336,40.5633707 C8.04652905,40.5633707 4.55619797,44.0778427 4.55619797,48.4033044 C4.55619797,52.7287661 8.04652905,56.2239943 12.3510336,56.2239943 L25.7258028,56.2239943 Z M12.0418884,60.4917246 C5.39444648,60.4917246 0,55.0847599 0,48.4033044 C0,41.7218488 5.39444648,36.2950906 12.0418884,36.2950906 L26.0376838,36.2950906 C32.6862201,36.2950906 38.0768364,41.7218488 38.0768364,48.4033044 C38.0768364,55.0847599 32.6862201,60.4917246 26.0376838,60.4917246 L12.0418884,60.4917246 Z M60.8009217,52.651241 C65.2980264,52.651241 68.9492224,49.0020622 68.9492224,44.4830626 C68.9492224,39.9646128 65.2980264,36.2950906 60.8009217,36.2950906 L40.5406961,36.2950906 L40.5406961,60.4917246 L45.1702135,60.4917246 L45.1702135,40.5633707 L60.493418,40.5633707 C62.6459439,40.5633707 64.3755153,42.3200568 64.3755153,44.4830626 C64.3755153,46.6460684 62.6459439,48.4033044 60.493418,48.4033044 L47.4376428,48.3840606 L61.2621772,60.4917246 L67.9884102,60.4917246 L58.6872442,52.651241 L60.8009217,52.651241 Z M137.41968,56.2239943 L137.41968,36.2950906 L132.787974,36.2950906 L132.787974,58.1742184 C132.787974,58.7729762 133.018876,59.3524902 133.46098,59.7967476 C133.902538,60.2404552 134.498395,60.4917246 135.152251,60.4917246 L156.271517,60.4917246 L159.000749,56.2239943 L137.41968,56.2239943 Z M80.7290214,51.9562641 L93.0855266,51.9562641 L86.5518938,41.3936042 L74.5603441,60.4917246 L69.1029743,60.4917246 L83.6886077,37.5508875 C84.3227656,36.623885 85.379878,36.0636149 86.5518938,36.0636149 C87.6861557,36.0636149 88.7427209,36.6040914 89.3571811,37.5118501 L104.000813,60.4917246 L98.5434436,60.4917246 L95.9679634,56.2239943 L83.4577063,56.2239943 L80.7290214,51.9562641 Z M189.491134,41.0636149 C188.120681,41.0636149 187,39.9465023 187,38.5633625 C187,37.1807274 188.120681,36.0636149 189.491134,36.0636149 C190.879319,36.0636149 192,37.1807274 192,38.5633625 C192,39.9465023 190.879319,41.0636149 189.491134,41.0636149 Z M189.259601,37.0742156 C189.651231,37.0742156 189.811328,37.0918834 189.989665,37.1630596 C190.487689,37.322575 190.541392,37.7657855 190.541392,37.9429687 C190.541392,37.9783044 190.541392,38.0671484 190.505421,38.1731555 C190.487689,38.2796674 190.416253,38.4926911 190.166988,38.6522065 C190.13203,38.6698743 190.114297,38.6875422 190.042861,38.7228779 L190.683757,39.8758309 L190.060594,39.8758309 L189.491134,38.8117219 L189.10001,38.8117219 L189.10001,39.8758309 L188.548283,39.8758309 L188.548283,37.0742156 L189.259601,37.0742156 Z M189.455669,38.3508435 C189.633499,38.3331757 189.811328,38.3331757 189.918229,38.1731555 C189.971932,38.1024841 189.989665,38.0318127 189.989665,37.9253009 C189.989665,37.7834533 189.900497,37.6592736 189.775864,37.5886022 C189.651231,37.5350939 189.527105,37.5350939 189.259601,37.5350939 L189.10001,37.5350939 L189.10001,38.3508435 L189.455669,38.3508435 Z M187.533995,38.5456946 C187.533995,39.6451394 188.405918,40.5138925 189.491134,40.5138925 C190.594589,40.5138925 191.466511,39.6451394 191.466511,38.5456946 C191.466511,37.4644225 190.594589,36.5956694 189.491134,36.5956694 C188.405918,36.5956694 187.533995,37.4644225 187.533995,38.5456946 Z M5.96665533,87.0524581 C4.06361186,87.0524581 2.61488809,86.5337793 1.62044057,85.4964059 C0.625993039,84.4590326 0.0930057765,83.0389256 0.021462789,81.2360423 C0.00715419144,80.8497102 0,80.2201414 0,79.3473169 C0,78.4601839 0.00715419144,77.8163066 0.021462789,77.4156659 C0.0930057765,75.6127826 0.625993039,74.1926756 1.62044057,73.1553023 C2.61488809,72.117929 4.06361186,71.5992501 5.96665533,71.5992501 C7.24012051,71.5992501 8.32040341,71.8246071 9.20753646,72.2753279 C10.0946695,72.7260488 10.7635864,73.3162696 11.2143072,74.046008 C11.665028,74.7757465 11.9118477,75.5555534 11.9547734,76.385452 C11.9547734,76.5142294 11.9082712,76.6179652 11.8152653,76.6966625 C11.7222594,76.7753598 11.6113695,76.8147078 11.4825921,76.8147078 L10.4094526,76.8147078 C10.2663667,76.8147078 10.1518996,76.7789369 10.066048,76.7073939 C9.98019643,76.6358509 9.91580871,76.5142296 9.87288292,76.3425265 C9.62963676,75.2407644 9.18965399,74.4681118 8.5529214,74.0245452 C7.91618881,73.5809787 7.05410874,73.3591988 5.96665533,73.3591988 C3.47695936,73.3591988 2.18205071,74.7471119 2.08189053,77.5229798 C2.06758193,77.909312 2.06042774,78.5031099 2.06042774,79.3043913 C2.06042774,80.1056728 2.06758193,80.7137791 2.08189053,81.1287284 C2.18205071,83.8902877 3.47695936,85.2710467 5.96665533,85.2710467 C7.03980014,85.2710467 7.89830311,85.0492667 8.54219,84.6057002 C9.18607689,84.1621337 9.62963676,83.3966352 9.87288292,82.3091818 C9.91580871,82.1374786 9.98019643,82.0158574 10.066048,81.9443144 C10.1518996,81.8727714 10.2663667,81.8370004 10.4094526,81.8370004 L11.4825921,81.8370004 C11.6113695,81.8370004 11.7222594,81.8763485 11.8152653,81.9550458 C11.9082712,82.033743 11.9547734,82.1374788 11.9547734,82.2662562 C11.9118477,83.0961549 11.665028,83.8759617 11.2143072,84.6057002 C10.7635864,85.3354387 10.0946695,85.9256595 9.20753646,86.3763803 C8.32040341,86.8271011 7.24012051,87.0524581 5.96665533,87.0524581 Z M14.397629,86.8378302 C14.2545431,86.8378302 14.1364989,86.791328 14.043493,86.6983221 C13.9504871,86.6053162 13.9039849,86.4872721 13.9039849,86.3441861 L13.9039849,72.0928942 C13.9039849,71.9354997 13.9504871,71.8138784 14.043493,71.7280268 C14.1364989,71.6421752 14.2545431,71.5992501 14.397629,71.5992501 L15.3419918,71.5992501 C15.4850777,71.5992501 15.6031219,71.6457523 15.6961278,71.7387582 C15.7891337,71.8317641 15.8356359,71.9498083 15.8356359,72.0928942 L15.8356359,86.3441861 C15.8356359,86.4872721 15.7891337,86.6053162 15.6961278,86.6983221 C15.6031219,86.791328 15.4850777,86.8378302 15.3419918,86.8378302 L14.397629,86.8378302 Z M22.8715283,87.0524581 C21.2975826,87.0524581 20.0849472,86.6088983 19.2335856,85.7217652 C18.3822241,84.8346322 17.9279329,83.6541906 17.8706985,82.180405 L17.8492357,81.2575051 L17.8706985,80.3346052 C17.9279329,78.8608197 18.3893782,77.6803781 19.2550484,76.793245 C20.1207185,75.906112 21.3261998,75.4625521 22.8715283,75.4625521 C24.4168569,75.4625521 25.6223381,75.906112 26.4880083,76.793245 C27.3536784,77.6803781 27.8151238,78.8608197 27.8723582,80.3346052 C27.9009754,80.6493943 27.9152837,80.9570246 27.9152837,81.2575051 C27.9152837,81.5579857 27.9009754,81.8656159 27.8723582,82.180405 C27.8151238,83.6541906 27.3608326,84.8346322 26.5094711,85.7217652 C25.6581095,86.6088983 24.4454741,87.0524581 22.8715283,87.0524581 Z M22.8715283,85.442749 C23.7872786,85.442749 24.513429,85.1530042 25.0500014,84.573506 C25.5865738,83.9940078 25.8763186,83.1605445 25.9192444,82.0730911 C25.933553,81.9300051 25.9407072,81.6581459 25.9407072,81.2575051 C25.9407072,80.8568644 25.933553,80.5850051 25.9192444,80.4419191 C25.8763186,79.3544657 25.5865738,78.5210024 25.0500014,77.9415042 C24.513429,77.362006 23.7872786,77.0722613 22.8715283,77.0722613 C21.9557781,77.0722613 21.2296277,77.362006 20.6930553,77.9415042 C20.1564828,78.5210024 19.8667381,79.3544657 19.8238123,80.4419191 L19.8023495,81.2575051 L19.8238123,82.0730911 C19.8667381,83.1605445 20.1564828,83.9940078 20.6930553,84.573506 C21.2296277,85.1530042 21.9557781,85.442749 22.8715283,85.442749 Z M34.0712018,87.0524581 C32.7118851,87.0524581 31.6602189,86.6124754 30.9161718,85.7324966 C30.1721248,84.8525179 29.8001068,83.6828076 29.8001068,82.2233306 L29.8001068,76.1708241 C29.8001068,76.0277382 29.8466091,75.909694 29.939615,75.8166881 C30.0326208,75.7236822 30.150665,75.67718 30.293751,75.67718 L31.2810393,75.67718 C31.4241252,75.67718 31.5421694,75.7236822 31.6351753,75.8166881 C31.7281812,75.909694 31.7746834,76.0277382 31.7746834,76.1708241 L31.7746834,82.1160167 C31.7746834,84.2909235 32.7190367,85.3783606 34.6077715,85.3783606 C35.5235218,85.3783606 36.2496722,85.0886158 36.7862446,84.5091176 C37.322817,83.9296194 37.5910992,83.1319271 37.5910992,82.1160167 L37.5910992,76.1708241 C37.5910992,76.0277382 37.6376015,75.909694 37.7306073,75.8166881 C37.8236132,75.7236822 37.9416574,75.67718 38.0847434,75.67718 L39.0720316,75.67718 C39.2151176,75.67718 39.3331618,75.7236822 39.4261677,75.8166881 C39.5191736,75.909694 39.5656758,76.0277382 39.5656758,76.1708241 L39.5656758,86.3441861 C39.5656758,86.4872721 39.5191736,86.6053162 39.4261677,86.6983221 C39.3331618,86.791328 39.2151176,86.8378302 39.0720316,86.8378302 L38.1491317,86.8378302 C38.0060457,86.8378302 37.8880016,86.791328 37.7949957,86.6983221 C37.7019898,86.6053162 37.6554876,86.4872721 37.6554876,86.3441861 L37.6554876,85.3783606 C37.2405383,85.9363959 36.7540532,86.3549161 36.1960179,86.6339338 C35.6379826,86.9129514 34.9297177,87.0524581 34.0712018,87.0524581 Z M46.1508497,87.0524581 C44.6484469,87.0524581 43.5216618,86.5659731 42.7704604,85.5929885 C42.019259,84.6200039 41.6150472,83.3894829 41.5578128,81.9013888 L41.53635,81.2575051 L41.5578128,80.6136215 C41.6150472,79.1398359 42.0228361,77.9128921 42.7811918,76.9327531 C43.5395475,75.9526142 44.6627555,75.4625521 46.1508497,75.4625521 C47.6389438,75.4625521 48.7979228,75.9919623 49.6278215,77.0507985 L49.6278215,72.0928942 C49.6278215,71.9498083 49.6743237,71.8317641 49.7673296,71.7387582 C49.8603355,71.6457523 49.9783796,71.5992501 50.1214656,71.5992501 L51.0872911,71.5992501 C51.2303771,71.5992501 51.3484213,71.6457523 51.4414271,71.7387582 C51.534433,71.8317641 51.5809353,71.9498083 51.5809353,72.0928942 L51.5809353,86.3441861 C51.5809353,86.4872721 51.534433,86.6053162 51.4414271,86.6983221 C51.3484213,86.791328 51.2303771,86.8378302 51.0872911,86.8378302 L50.1643912,86.8378302 C50.0213052,86.8378302 49.9068382,86.791328 49.8209866,86.6983221 C49.735135,86.6053162 49.6922098,86.4872721 49.6922098,86.3441861 L49.6922098,85.4212862 C48.8766198,86.5087396 47.6961782,87.0524581 46.1508497,87.0524581 Z M46.5586426,85.3783606 C47.5602445,85.3783606 48.3114346,85.0456907 48.8122355,84.3803409 C49.3130364,83.7149911 49.5848957,82.924453 49.6278215,82.0087027 C49.6421301,81.8513082 49.6492843,81.5794489 49.6492843,81.1931168 C49.6492843,80.792476 49.6421301,80.5134626 49.6278215,80.356068 C49.5992043,79.4832435 49.3237679,78.7284763 48.8015041,78.0917438 C48.2792403,77.4550112 47.5316273,77.1366496 46.5586426,77.1366496 C45.5284236,77.1366496 44.7772335,77.4585883 44.3050498,78.1024751 C43.8328661,78.746362 43.5753152,79.5905566 43.5323894,80.6350842 L43.5109266,81.2575051 C43.5109266,84.0047558 44.5268218,85.3783606 46.5586426,85.3783606 Z M59.4285113,86.8378302 C59.2854254,86.8378302 59.1709583,86.791328 59.0851067,86.6983221 C58.9992551,86.6053162 58.95633,86.4872721 58.95633,86.3441861 L58.95633,72.3075221 C58.95633,72.1644362 58.9992551,72.046392 59.0851067,71.9533861 C59.1709583,71.8603802 59.2854254,71.813878 59.4285113,71.813878 L60.5016508,71.813878 C60.6590454,71.813878 60.7806666,71.8568031 60.8665182,71.9426547 C60.9523698,72.0285063 60.9952949,72.1501276 60.9952949,72.3075221 L60.9952949,86.3441861 C60.9952949,86.4872721 60.9487927,86.6053162 60.8557868,86.6983221 C60.7627809,86.791328 60.6447368,86.8378302 60.5016508,86.8378302 L59.4285113,86.8378302 Z M64.2751993,86.8378302 C64.1321133,86.8378302 64.0140692,86.791328 63.9210633,86.6983221 C63.8280574,86.6053162 63.7815551,86.4872721 63.7815551,86.3441861 L63.7815551,76.1708241 C63.7815551,76.0277382 63.8280574,75.909694 63.9210633,75.8166881 C64.0140692,75.7236822 64.1321133,75.67718 64.2751993,75.67718 L65.1980992,75.67718 C65.3554938,75.67718 65.477115,75.7201051 65.5629666,75.8059567 C65.6488182,75.8918083 65.6917434,76.0134296 65.6917434,76.1708241 L65.6917434,77.1151869 C66.1210013,76.5857687 66.6182176,76.1779798 67.1834072,75.8918079 C67.7485968,75.6056359 68.4532847,75.4625521 69.2974919,75.4625521 C70.6711173,75.4625521 71.7370918,75.9025349 72.4954475,76.7825136 C73.2538031,77.6624924 73.6329753,78.8250485 73.6329753,80.2702168 L73.6329753,86.3441861 C73.6329753,86.4872721 73.586473,86.6053162 73.4934671,86.6983221 C73.4004613,86.791328 73.2824171,86.8378302 73.1393311,86.8378302 L72.1520428,86.8378302 C72.0089569,86.8378302 71.8909127,86.791328 71.7979068,86.6983221 C71.7049009,86.6053162 71.6583987,86.4872721 71.6583987,86.3441861 L71.6583987,80.3989936 C71.6583987,79.3687745 71.408002,78.5675051 70.9072011,77.9951612 C70.4064002,77.4228173 69.690981,77.1366496 68.7609222,77.1366496 C67.8451719,77.1366496 67.1154444,77.4263944 66.5717177,78.0058926 C66.027991,78.5853908 65.7561317,79.3830831 65.7561317,80.3989936 L65.7561317,86.3441861 C65.7561317,86.4872721 65.7096295,86.6053162 65.6166236,86.6983221 C65.5236177,86.791328 65.4055736,86.8378302 65.2624876,86.8378302 L64.2751993,86.8378302 Z M77.4709122,86.8378302 C77.3278262,86.8378302 77.209782,86.791328 77.1167761,86.6983221 C77.0237703,86.6053162 76.977268,86.4872721 76.977268,86.3441861 L76.977268,77.3298147 L75.1314682,77.3298147 C74.9883822,77.3298147 74.870338,77.2868896 74.7773321,77.201038 C74.6843263,77.1151864 74.637824,77.0007194 74.637824,76.8576334 L74.637824,76.1708241 C74.637824,76.0277382 74.6843263,75.909694 74.7773321,75.8166881 C74.870338,75.7236822 74.9883822,75.67718 75.1314682,75.67718 L76.977268,75.67718 L76.977268,74.6040405 C76.977268,73.4450441 77.2598586,72.5471931 77.8250482,71.9104605 C78.3902378,71.2737279 79.3167056,70.9553664 80.6044793,70.9553664 L81.8707839,70.9553664 C82.0138699,70.9553664 82.131914,71.0018687 82.2249199,71.0948746 C82.3179258,71.1878804 82.364428,71.3059246 82.364428,71.4490106 L82.364428,72.1358198 C82.364428,72.2789058 82.3179258,72.3933729 82.2249199,72.4792244 C82.131914,72.565076 82.0138699,72.6080012 81.8707839,72.6080012 L80.6474049,72.6080012 C79.9892094,72.6080012 79.5313412,72.7797018 79.2737864,73.1231081 C79.0162317,73.4665144 78.8874562,73.9959246 78.8874562,74.7113545 L78.8874562,75.67718 L81.656156,75.67718 C81.799242,75.67718 81.9172861,75.7236822 82.010292,75.8166881 C82.1032979,75.909694 82.1498001,76.0277382 82.1498001,76.1708241 L82.1498001,76.8576334 C82.1498001,77.0007194 82.1032979,77.1151864 82.010292,77.201038 C81.9172861,77.2868896 81.799242,77.3298147 81.656156,77.3298147 L78.8874562,77.3298147 L78.8874562,86.3441861 C78.8874562,86.4872721 78.840954,86.6053162 78.7479481,86.6983221 C78.6549422,86.791328 78.5368981,86.8378302 78.3938121,86.8378302 L77.4709122,86.8378302 Z M83.8414581,86.8378302 C83.6983722,86.8378302 83.580328,86.791328 83.4873221,86.6983221 C83.3943162,86.6053162 83.347814,86.4872721 83.347814,86.3441861 L83.347814,76.1922869 C83.347814,76.049201 83.3943162,75.9275797 83.4873221,75.8274195 C83.580328,75.7272593 83.6983722,75.67718 83.8414581,75.67718 L84.7428953,75.67718 C84.9002898,75.67718 85.0254882,75.7236822 85.1184941,75.8166881 C85.2115,75.909694 85.2580022,76.0348924 85.2580022,76.1922869 L85.2580022,77.1366496 C85.8446547,76.163665 86.8390873,75.67718 88.2413299,75.67718 L89.0783786,75.67718 C89.2357732,75.67718 89.3573945,75.7201051 89.443246,75.8059567 C89.5290976,75.8918083 89.5720228,76.0134296 89.5720228,76.1708241 L89.5720228,76.9649473 C89.5720228,77.1080333 89.5290976,77.2260775 89.443246,77.3190833 C89.3573945,77.4120892 89.2357732,77.4585915 89.0783786,77.4585915 L87.8549997,77.4585915 C87.0680268,77.4585915 86.4491892,77.6875256 85.9984684,78.1454007 C85.5477476,78.6032758 85.3223906,79.2256905 85.3223906,80.0126634 L85.3223906,86.3441861 C85.3223906,86.4872721 85.2723112,86.6053162 85.172151,86.6983221 C85.0719909,86.791328 84.9503696,86.8378302 84.8072836,86.8378302 L83.8414581,86.8378302 Z M93.6245875,87.0524581 C92.9234663,87.0524581 92.2760119,86.9093743 91.6822051,86.6232024 C91.0883983,86.3370304 90.6162217,85.947127 90.2656611,85.4534804 C89.9151004,84.9598337 89.7398227,84.4125381 89.7398227,83.811577 C89.7398227,82.8672096 90.1261491,82.0945569 90.8988133,81.4935958 C91.6714776,80.8926347 92.7231438,80.492 94.0538433,80.2916796 L97.2732617,79.8409611 L97.2732617,79.2185402 C97.2732617,77.7447546 96.4219129,77.0078729 94.7191898,77.0078729 C94.0609943,77.0078729 93.5315841,77.1402255 93.1309434,77.4049345 C92.7303027,77.6696436 92.4369808,77.9808509 92.2509691,78.3385658 C92.1937347,78.4816518 92.132924,78.5782334 92.0685353,78.6283135 C92.0041467,78.6783936 91.9147193,78.7034332 91.8002505,78.7034332 L90.9632017,78.7034332 C90.8344243,78.7034332 90.7235344,78.656931 90.6305285,78.5639251 C90.5375226,78.4709192 90.4910204,78.3600293 90.4910204,78.2312519 C90.4910204,77.9021541 90.6448355,77.5194049 90.9524703,77.0829927 C91.2601052,76.6465804 91.7358589,76.2674083 92.3797458,75.9454649 C93.0236327,75.6235214 93.8105937,75.4625521 94.7406526,75.4625521 C96.3432155,75.4625521 97.4914632,75.8345701 98.1854302,76.5786171 C98.8793972,77.3226642 99.2263755,78.2527091 99.2263755,79.3687797 L99.2263755,86.3441861 C99.2263755,86.4872721 99.1798732,86.6053162 99.0868673,86.6983221 C98.9938615,86.791328 98.8758173,86.8378302 98.7327313,86.8378302 L97.7883686,86.8378302 C97.6452826,86.8378302 97.5308156,86.791328 97.444964,86.6983221 C97.3591124,86.6053162 97.3161872,86.4872721 97.3161872,86.3441861 L97.3161872,85.3998234 C97.0013981,85.8720071 96.5435298,86.2654876 95.9425688,86.5802768 C95.3416077,86.8950659 94.568955,87.0524581 93.6245875,87.0524581 Z M94.0538433,85.4856745 C94.9982108,85.4856745 95.7708634,85.1780443 96.3718245,84.5627746 C96.9727856,83.9475049 97.2732617,83.053231 97.2732617,81.879926 L97.2732617,81.2789679 L94.7621154,81.6438353 C93.7318963,81.7869213 92.9520895,82.0301638 92.4226714,82.3735701 C91.8932533,82.7169765 91.6285482,83.146228 91.6285482,83.6613375 C91.6285482,84.24799 91.8682136,84.698704 92.3475516,85.0134932 C92.8268896,85.3282823 93.3956478,85.4856745 94.0538433,85.4856745 Z M105.446682,87.0524581 C104.459389,87.0524581 103.625925,86.8914888 102.946267,86.5695454 C102.266609,86.2476019 101.762238,85.8791611 101.43314,85.4642118 C101.104043,85.0492624 100.939496,84.7058612 100.939496,84.4339979 C100.939496,84.2909119 100.989576,84.1800219 101.089736,84.1013247 C101.189896,84.0226274 101.297209,83.9832793 101.411678,83.9832793 L102.313115,83.9832793 C102.398966,83.9832793 102.466931,83.9975877 102.517011,84.0262049 C102.567091,84.0548221 102.635056,84.1192098 102.720908,84.21937 C103.050005,84.6200107 103.418446,84.9347952 103.826241,85.1637327 C104.234036,85.3926703 104.781332,85.5071373 105.468145,85.5071373 C106.240809,85.5071373 106.859647,85.3640535 107.324676,85.0778816 C107.789705,84.7917096 108.022217,84.3767665 108.022217,83.8330398 C108.022217,83.4753249 107.922058,83.1891572 107.721738,82.9745282 C107.521417,82.7598993 107.188747,82.5667361 106.723718,82.3950329 C106.258688,82.2233298 105.568309,82.0373208 104.652559,81.8370004 C103.407711,81.5651371 102.527745,81.1716565 102.012636,80.656547 C101.497526,80.1414375 101.239975,79.4760977 101.239975,78.6605077 C101.239975,78.1310896 101.397367,77.6195649 101.712157,77.1259182 C102.026946,76.6322716 102.495545,76.2316369 103.117969,75.9240021 C103.740393,75.6163672 104.480852,75.4625521 105.339368,75.4625521 C106.24081,75.4625521 107.009885,75.6127901 107.646618,75.9132707 C108.28335,76.2137512 108.762681,76.5643066 109.084625,76.9649473 C109.406568,77.3655881 109.567537,77.7018351 109.567537,77.9736984 C109.567537,78.1024758 109.521035,78.2097887 109.428029,78.2956402 C109.335023,78.3814918 109.224133,78.424417 109.095356,78.424417 L108.27977,78.424417 C108.07945,78.424417 107.936366,78.3457209 107.850514,78.1883263 C107.607268,77.9164629 107.403374,77.7054143 107.238825,77.555174 C107.074276,77.4049338 106.834611,77.2761583 106.519821,77.1688438 C106.205032,77.0615293 105.811552,77.0078729 105.339368,77.0078729 C104.638247,77.0078729 104.101682,77.1545338 103.729659,77.4478601 C103.357635,77.7411863 103.171626,78.1310898 103.171626,78.6175821 C103.171626,78.9180626 103.250322,79.1720364 103.407717,79.3795111 C103.565112,79.5869858 103.865588,79.7801489 104.309154,79.9590064 C104.752721,80.1378639 105.410906,80.3202957 106.283731,80.5063075 C107.643047,80.7924795 108.605286,81.2002684 109.170476,81.7296865 C109.735665,82.2591046 110.018256,82.9387528 110.018256,83.7686514 C110.018256,84.3839211 109.842978,84.9419481 109.492418,85.442749 C109.141857,85.9435499 108.619601,86.3370304 107.925634,86.6232024 C107.231667,86.9093743 106.405358,87.0524581 105.446682,87.0524581 Z M116.088323,86.8378302 C113.87049,86.8378302 112.761591,85.5858467 112.761591,83.0818422 L112.761591,77.3298147 L111.06603,77.3298147 C110.922944,77.3298147 110.808477,77.2868896 110.722626,77.201038 C110.636774,77.1151864 110.593849,77.0007194 110.593849,76.8576334 L110.593849,76.1708241 C110.593849,76.0277382 110.636774,75.909694 110.722626,75.8166881 C110.808477,75.7236822 110.922944,75.67718 111.06603,75.67718 L112.761591,75.67718 L112.761591,72.0928942 C112.761591,71.9498083 112.804516,71.8317641 112.890367,71.7387582 C112.976219,71.6457523 113.090686,71.5992501 113.233772,71.5992501 L114.178135,71.5992501 C114.321221,71.5992501 114.439265,71.6457523 114.532271,71.7387582 C114.625277,71.8317641 114.671779,71.9498083 114.671779,72.0928942 L114.671779,75.67718 L117.333165,75.67718 C117.476251,75.67718 117.594295,75.7236822 117.687301,75.8166881 C117.780307,75.909694 117.826809,76.0277382 117.826809,76.1708241 L117.826809,76.8576334 C117.826809,77.0007194 117.780307,77.1151864 117.687301,77.201038 C117.594295,77.2868896 117.476251,77.3298147 117.333165,77.3298147 L114.671779,77.3298147 L114.671779,82.9316027 C114.671779,83.6613411 114.789823,84.2122139 115.025915,84.5842374 C115.262007,84.9562609 115.666219,85.1422699 116.238562,85.1422699 L117.547793,85.1422699 C117.690879,85.1422699 117.805346,85.1887722 117.891197,85.281778 C117.977049,85.3747839 118.019974,85.4928281 118.019974,85.6359141 L118.019974,86.3441861 C118.019974,86.4872721 117.977049,86.6053162 117.891197,86.6983221 C117.805346,86.791328 117.690879,86.8378302 117.547793,86.8378302 L116.088323,86.8378302 Z M119.904797,86.8378302 C119.761711,86.8378302 119.643667,86.791328 119.550661,86.6983221 C119.457655,86.6053162 119.411153,86.4872721 119.411153,86.3441861 L119.411153,76.1922869 C119.411153,76.049201 119.457655,75.9275797 119.550661,75.8274195 C119.643667,75.7272593 119.761711,75.67718 119.904797,75.67718 L120.806234,75.67718 C120.963629,75.67718 121.088827,75.7236822 121.181833,75.8166881 C121.274839,75.909694 121.321341,76.0348924 121.321341,76.1922869 L121.321341,77.1366496 C121.907994,76.163665 122.902426,75.67718 124.304669,75.67718 L125.141717,75.67718 C125.299112,75.67718 125.420733,75.7201051 125.506585,75.8059567 C125.592436,75.8918083 125.635362,76.0134296 125.635362,76.1708241 L125.635362,76.9649473 C125.635362,77.1080333 125.592436,77.2260775 125.506585,77.3190833 C125.420733,77.4120892 125.299112,77.4585915 125.141717,77.4585915 L123.918339,77.4585915 C123.131366,77.4585915 122.512528,77.6875256 122.061807,78.1454007 C121.611086,78.6032758 121.385729,79.2256905 121.385729,80.0126634 L121.385729,86.3441861 C121.385729,86.4872721 121.33565,86.6053162 121.23549,86.6983221 C121.13533,86.791328 121.013708,86.8378302 120.870622,86.8378302 L119.904797,86.8378302 Z M130.932768,87.0524581 C129.573451,87.0524581 128.521785,86.6124754 127.777738,85.7324966 C127.033691,84.8525179 126.661673,83.6828076 126.661673,82.2233306 L126.661673,76.1708241 C126.661673,76.0277382 126.708175,75.909694 126.801181,75.8166881 C126.894187,75.7236822 127.012231,75.67718 127.155317,75.67718 L128.142606,75.67718 C128.285692,75.67718 128.403736,75.7236822 128.496742,75.8166881 C128.589747,75.909694 128.63625,76.0277382 128.63625,76.1708241 L128.63625,82.1160167 C128.63625,84.2909235 129.580603,85.3783606 131.469338,85.3783606 C132.385088,85.3783606 133.111239,85.0886158 133.647811,84.5091176 C134.184383,83.9296194 134.452666,83.1319271 134.452666,82.1160167 L134.452666,76.1708241 C134.452666,76.0277382 134.499168,75.909694 134.592174,75.8166881 C134.68518,75.7236822 134.803224,75.67718 134.94631,75.67718 L135.933598,75.67718 C136.076684,75.67718 136.194728,75.7236822 136.287734,75.8166881 C136.38074,75.909694 136.427242,76.0277382 136.427242,76.1708241 L136.427242,86.3441861 C136.427242,86.4872721 136.38074,86.6053162 136.287734,86.6983221 C136.194728,86.791328 136.076684,86.8378302 135.933598,86.8378302 L135.010698,86.8378302 C134.867612,86.8378302 134.749568,86.791328 134.656562,86.6983221 C134.563556,86.6053162 134.517054,86.4872721 134.517054,86.3441861 L134.517054,85.3783606 C134.102105,85.9363959 133.61562,86.3549161 133.057584,86.6339338 C132.499549,86.9129514 131.791284,87.0524581 130.932768,87.0524581 Z M143.398746,87.0524581 C141.867726,87.0524581 140.672976,86.6196296 139.81446,85.7539594 C138.955945,84.8882893 138.505231,83.6756538 138.462305,82.1160167 L138.440842,81.2575051 L138.462305,80.3989936 C138.505231,78.8393564 138.955945,77.626721 139.81446,76.7610508 C140.672976,75.8953807 141.867726,75.4625521 143.398746,75.4625521 C144.428965,75.4625521 145.298199,75.644984 146.006475,76.0098532 C146.714751,76.3747225 147.244161,76.8290136 147.594721,77.3727403 C147.945282,77.916467 148.134868,78.4601856 148.163485,79.0039123 C148.177794,79.1326897 148.131292,79.2471567 148.023977,79.3473169 C147.916663,79.4474771 147.798619,79.4975564 147.669841,79.4975564 L146.725478,79.4975564 C146.582393,79.4975564 146.47508,79.4653626 146.403537,79.4009739 C146.331994,79.3365852 146.260452,79.218541 146.188909,79.0468379 C145.931354,78.3457166 145.577222,77.8485003 145.126501,77.555174 C144.67578,77.2618478 144.107022,77.1151869 143.420209,77.1151869 C142.518767,77.1151869 141.803348,77.3942003 141.27393,77.9522356 C140.744512,78.5102709 140.458344,79.3616197 140.415419,80.5063075 L140.393956,81.2575051 L140.415419,82.0087027 C140.458344,83.1533905 140.744512,84.0047393 141.27393,84.5627746 C141.803348,85.1208099 142.518767,85.3998234 143.420209,85.3998234 C144.12133,85.3998234 144.693666,85.2531625 145.137232,84.9598362 C145.580799,84.66651 145.931354,84.1692937 146.188909,83.4681724 C146.260452,83.2964692 146.331994,83.1784251 146.403537,83.1140364 C146.47508,83.0496477 146.582393,83.0174538 146.725478,83.0174538 L147.669841,83.0174538 C147.798619,83.0174538 147.916663,83.0675332 148.023977,83.1676933 C148.131292,83.2678535 148.177794,83.3823206 148.163485,83.511098 C148.134868,84.0405161 147.945282,84.5770804 147.594721,85.1208071 C147.244161,85.6645338 146.714751,86.1224021 146.006475,86.4944256 C145.298199,86.8664492 144.428965,87.0524581 143.398746,87.0524581 Z M154.319403,86.8378302 C152.101571,86.8378302 150.992671,85.5858467 150.992671,83.0818422 L150.992671,77.3298147 L149.297111,77.3298147 C149.154025,77.3298147 149.039558,77.2868896 148.953706,77.201038 C148.867855,77.1151864 148.824929,77.0007194 148.824929,76.8576334 L148.824929,76.1708241 C148.824929,76.0277382 148.867855,75.909694 148.953706,75.8166881 C149.039558,75.7236822 149.154025,75.67718 149.297111,75.67718 L150.992671,75.67718 L150.992671,72.0928942 C150.992671,71.9498083 151.035596,71.8317641 151.121448,71.7387582 C151.207299,71.6457523 151.321767,71.5992501 151.464852,71.5992501 L152.409215,71.5992501 C152.552301,71.5992501 152.670345,71.6457523 152.763351,71.7387582 C152.856357,71.8317641 152.902859,71.9498083 152.902859,72.0928942 L152.902859,75.67718 L155.564245,75.67718 C155.707331,75.67718 155.825375,75.7236822 155.918381,75.8166881 C156.011387,75.909694 156.057889,76.0277382 156.057889,76.1708241 L156.057889,76.8576334 C156.057889,77.0007194 156.011387,77.1151864 155.918381,77.201038 C155.825375,77.2868896 155.707331,77.3298147 155.564245,77.3298147 L152.902859,77.3298147 L152.902859,82.9316027 C152.902859,83.6613411 153.020904,84.2122139 153.256995,84.5842374 C153.493087,84.9562609 153.897299,85.1422699 154.469643,85.1422699 L155.778873,85.1422699 C155.921959,85.1422699 156.036426,85.1887722 156.122278,85.281778 C156.208129,85.3747839 156.251054,85.4928281 156.251054,85.6359141 L156.251054,86.3441861 C156.251054,86.4872721 156.208129,86.6053162 156.122278,86.6983221 C156.036426,86.791328 155.921959,86.8378302 155.778873,86.8378302 L154.319403,86.8378302 Z M161.806014,87.0524581 C160.446698,87.0524581 159.395032,86.6124754 158.650984,85.7324966 C157.906937,84.8525179 157.534919,83.6828076 157.534919,82.2233306 L157.534919,76.1708241 C157.534919,76.0277382 157.581422,75.909694 157.674428,75.8166881 C157.767433,75.7236822 157.885478,75.67718 158.028564,75.67718 L159.015852,75.67718 C159.158938,75.67718 159.276982,75.7236822 159.369988,75.8166881 C159.462994,75.909694 159.509496,76.0277382 159.509496,76.1708241 L159.509496,82.1160167 C159.509496,84.2909235 160.453849,85.3783606 162.342584,85.3783606 C163.258334,85.3783606 163.984485,85.0886158 164.521057,84.5091176 C165.05763,83.9296194 165.325912,83.1319271 165.325912,82.1160167 L165.325912,76.1708241 C165.325912,76.0277382 165.372414,75.909694 165.46542,75.8166881 C165.558426,75.7236822 165.67647,75.67718 165.819556,75.67718 L166.806844,75.67718 C166.94993,75.67718 167.067974,75.7236822 167.16098,75.8166881 C167.253986,75.909694 167.300488,76.0277382 167.300488,76.1708241 L167.300488,86.3441861 C167.300488,86.4872721 167.253986,86.6053162 167.16098,86.6983221 C167.067974,86.791328 166.94993,86.8378302 166.806844,86.8378302 L165.883944,86.8378302 C165.740858,86.8378302 165.622814,86.791328 165.529808,86.6983221 C165.436802,86.6053162 165.3903,86.4872721 165.3903,86.3441861 L165.3903,85.3783606 C164.975351,85.9363959 164.488866,86.3549161 163.930831,86.6339338 C163.372795,86.9129514 162.66453,87.0524581 161.806014,87.0524581 Z M170.301377,86.8378302 C170.158291,86.8378302 170.040246,86.791328 169.94724,86.6983221 C169.854235,86.6053162 169.807732,86.4872721 169.807732,86.3441861 L169.807732,76.1922869 C169.807732,76.049201 169.854235,75.9275797 169.94724,75.8274195 C170.040246,75.7272593 170.158291,75.67718 170.301377,75.67718 L171.202814,75.67718 C171.360208,75.67718 171.485407,75.7236822 171.578412,75.8166881 C171.671418,75.909694 171.717921,76.0348924 171.717921,76.1922869 L171.717921,77.1366496 C172.304573,76.163665 173.299006,75.67718 174.701248,75.67718 L175.538297,75.67718 C175.695692,75.67718 175.817313,75.7201051 175.903164,75.8059567 C175.989016,75.8918083 176.031941,76.0134296 176.031941,76.1708241 L176.031941,76.9649473 C176.031941,77.1080333 175.989016,77.2260775 175.903164,77.3190833 C175.817313,77.4120892 175.695692,77.4585915 175.538297,77.4585915 L174.314918,77.4585915 C173.527945,77.4585915 172.909108,77.6875256 172.458387,78.1454007 C172.007666,78.6032758 171.782309,79.2256905 171.782309,80.0126634 L171.782309,86.3441861 C171.782309,86.4872721 171.73223,86.6053162 171.632069,86.6983221 C171.531909,86.791328 171.410288,86.8378302 171.267202,86.8378302 L170.301377,86.8378302 Z M181.586901,87.0524581 C180.127424,87.0524581 178.961291,86.598167 178.088467,85.689571 C177.215642,84.7809751 176.736311,83.5397229 176.65046,81.9657772 L176.628997,81.2360423 L176.65046,80.5277703 C176.736311,78.9824418 177.215642,77.7519208 178.088467,76.8361706 C178.961291,75.9204204 180.127424,75.4625521 181.586901,75.4625521 C183.160847,75.4625521 184.380637,75.9633455 185.246307,76.9649473 C186.111977,77.9665492 186.544805,79.3258455 186.544805,81.0428772 L186.544805,81.4292074 C186.544805,81.5722934 186.498303,81.6903376 186.405297,81.7833435 C186.312291,81.8763493 186.194247,81.9228516 186.051161,81.9228516 L178.603573,81.9228516 L178.603573,82.1160167 C178.646499,83.0460755 178.932667,83.8401908 179.462085,84.4983863 C179.991503,85.1565817 180.692614,85.4856745 181.565438,85.4856745 C182.237942,85.4856745 182.785238,85.353322 183.207342,85.0886129 C183.629445,84.8239039 183.947807,84.5484675 184.162436,84.2622956 C184.291213,84.0905924 184.391372,83.9868566 184.462915,83.9510851 C184.534458,83.9153136 184.656079,83.8974282 184.827782,83.8974282 L185.772145,83.8974282 C185.900922,83.8974282 186.011812,83.9331991 186.104818,84.0047421 C186.197824,84.0762851 186.244326,84.1692896 186.244326,84.2837584 C186.244326,84.5985475 186.051163,84.9777197 185.664831,85.4212862 C185.278499,85.8648527 184.731203,86.2476019 184.022928,86.5695454 C183.314652,86.8914888 182.502651,87.0524581 181.586901,87.0524581 Z M184.591692,80.4633819 L184.591692,80.3989936 C184.591692,79.3973917 184.319832,78.5818139 183.776106,77.9522356 C183.232379,77.3226573 182.502651,77.0078729 181.586901,77.0078729 C180.656842,77.0078729 179.927115,77.3226573 179.397697,77.9522356 C178.868279,78.5818139 178.603573,79.3973917 178.603573,80.3989936 L178.603573,80.4633819 L184.591692,80.4633819 Z" id="Combined-Shape" fill="#B0B5BE"></path>
    </g>
</svg>