<?xml version="1.0" encoding="UTF-8"?>
<svg width="105px" height="42px" viewBox="0 0 105 42" version="1.1" xmlns="http://www.w3.org/2000/svg" xmlns:xlink="http://www.w3.org/1999/xlink">
    <!-- Generator: Sketch 52.6 (67491) - http://www.bohemiancoding.com/sketch -->
    <title>Provider/OracleCI/oci-42</title>
    <desc>Created with Sketch.</desc>
    <g id="Provider/OracleCI/oci-42" stroke="none" stroke-width="1" fill="none" fill-rule="evenodd">
        <path d="M93.1328901,19.7288258 C91.1885072,19.7288258 89.5385645,18.4545455 89.0340663,16.6971798 L99.858935,16.6971798 L101.351185,14.4260055 L89.0340663,14.4260055 C89.5385645,12.6791735 91.1885072,11.3946521 93.1328901,11.3946521 L100.562719,11.3946521 L102.065741,9.12318531 L92.964724,9.12318531 C89.3282073,9.12318531 86.3754263,12.0111639 86.3754263,15.5668595 C86.3754263,19.1225551 89.3282073,22 92.964724,22 L100.773076,22 L102.265625,19.7288258 L93.1328901,19.7288258 Z M62.161605,22 C58.5256867,22 55.5726065,19.1225551 55.5726065,15.5668595 C55.5726065,12.0111639 58.5256867,9.12318531 62.161605,9.12318531 L71.252448,9.12318531 L69.7706714,11.3946521 L62.3300703,11.3946521 C59.9757452,11.3946521 58.0630804,13.2649621 58.0630804,15.5668595 C58.0630804,17.8687569 59.9757452,19.7288258 62.3300703,19.7288258 L71.462506,19.7288258 L69.9702564,22 L62.161605,22 Z M14.0687984,19.7288258 C16.4243205,19.7288258 18.3315992,17.8687569 18.3315992,15.5668595 C18.3315992,13.2649621 16.4243205,11.3946521 14.0687984,11.3946521 L6.7544715,11.3946521 C4.40044557,11.3946521 2.49167077,13.2649621 2.49167077,15.5668595 C2.49167077,17.8687569 4.40044557,19.7288258 6.7544715,19.7288258 L14.0687984,19.7288258 Z M6.58540774,22 C2.95008792,22 0,19.1225551 0,15.5668595 C0,12.0111639 2.95008792,9.12318531 6.58540774,9.12318531 L14.2393583,9.12318531 C17.8752766,9.12318531 20.8232699,12.0111639 20.8232699,15.5668595 C20.8232699,19.1225551 17.8752766,22 14.2393583,22 L6.58540774,22 Z M33.250504,17.8275001 C35.7098582,17.8275001 37.706606,15.8855027 37.706606,13.4806095 C37.706606,11.0760089 35.7098582,9.12318531 33.250504,9.12318531 L22.1706932,9.12318531 L22.1706932,22 L24.7024605,22 L24.7024605,11.3946521 L33.082338,11.3946521 C34.2595005,11.3946521 35.20536,12.3295145 35.20536,13.4806095 C35.20536,14.6317045 34.2595005,15.5668595 33.082338,15.5668595 L25.9424609,15.5566184 L33.5027532,22 L37.1811618,22 L32.0945866,17.8275001 L33.250504,17.8275001 Z M75.1513876,19.7288258 L75.1513876,9.12318531 L72.6184234,9.12318531 L72.6184234,20.7666839 C72.6184234,21.0853272 72.7446976,21.3937293 72.9864737,21.6301515 C73.2279506,21.866281 73.5538098,22 73.9113872,22 L85.4609858,22 L86.9535346,19.7288258 L75.1513876,19.7288258 Z M44.1486836,17.4576515 L50.9061474,17.4576515 L47.3330669,11.8364807 L40.7751882,22 L37.7906891,22 L45.7672073,9.79148754 C46.1140125,9.29816111 46.6921208,9 47.3330669,9 C47.9533664,9 48.5311755,9.28762745 48.8672084,9.77071282 L56.8754448,22 L53.8909457,22 L52.48248,19.7288258 L45.6409331,19.7288258 L44.1486836,17.4576515 Z M103.627964,11.660869 C102.878497,11.660869 102.265625,11.066371 102.265625,10.3303002 C102.265625,9.59449804 102.878497,9 103.627964,9 C104.387128,9 105,9.59449804 105,10.3303002 C105,11.066371 104.387128,11.660869 103.627964,11.660869 Z M103.501344,9.53781522 C103.715517,9.53781522 103.80307,9.54721758 103.900598,9.58509568 C104.172955,9.66998559 104.202324,9.90585061 104.202324,10.0001429 C104.202324,10.0189476 104.202324,10.0662281 104.182652,10.1226423 C104.172955,10.1793251 104.133888,10.2926907 103.997571,10.3775806 C103.978454,10.386983 103.968756,10.3963854 103.92969,10.4151901 L104.28018,11.0287615 L103.939387,11.0287615 L103.627964,10.4624706 L103.414068,10.4624706 L103.414068,11.0287615 L103.112342,11.0287615 L103.112342,9.53781522 L103.501344,9.53781522 Z M103.608569,10.2172032 C103.70582,10.2078008 103.80307,10.2078008 103.861531,10.1226423 C103.8909,10.0850328 103.900598,10.0474233 103.900598,9.99074053 C103.900598,9.91525297 103.851834,9.84916779 103.783676,9.81155833 C103.715517,9.7830826 103.647636,9.7830826 103.501344,9.7830826 L103.414068,9.7830826 L103.414068,10.2172032 L103.608569,10.2172032 Z M102.557654,10.3208978 C102.557654,10.9059935 103.034486,11.3683212 103.627964,11.3683212 C104.231416,11.3683212 104.708248,10.9059935 104.708248,10.3208978 C104.708248,9.74547314 104.231416,9.28314548 103.627964,9.28314548 C103.034486,9.28314548 102.557654,9.74547314 102.557654,10.3208978 Z" id="Combined-Shape-Copy" fill="#616870"></path>
        <path d="M6.27913425,28.4806924 L5.11066927,28.4806924 C5.06698834,28.1810919 4.9250253,26.9826897 3.40711285,26.9826897 C1.50699222,26.9826897 1.16846498,29.1158455 1.16846498,30.5539281 C1.16846498,32.183755 1.59435409,33.9454061 3.39619261,33.9454061 C3.87668289,33.9454061 4.33533269,33.8135819 4.67385993,33.4300932 C4.957786,33.0945406 5.0233074,32.723036 5.0560681,32.5193076 L6.25729379,32.5193076 C6.09349028,34.2210386 4.6629397,34.9280959 3.30883075,34.9280959 C0.535091441,34.9280959 0,32.2436751 0,30.5659121 C0,28.7443409 0.644293776,26.023968 3.45079378,26.023968 C4.5646576,26.023968 6.13717122,26.5153129 6.27913425,28.4806924 Z M7.66600391,34.7962716 L7.66600391,26.1557923 L8.69250585,26.1557923 L8.69250585,34.7962716 L7.66600391,34.7962716 Z M10.2759397,31.8601864 C10.2759397,30.3741678 10.9093133,28.6245007 13.0605992,28.6245007 C15.2555662,28.6245007 15.7469767,30.517976 15.7469767,31.7762983 C15.7469767,33.5379494 14.8405973,35 12.9732374,35 C11.1604786,35 10.2759397,33.6218375 10.2759397,31.8601864 Z M11.3461226,31.7882823 C11.3461226,33.0226365 11.8266129,34.1611185 12.9950778,34.1611185 C13.7704144,34.1611185 14.6549533,33.5499334 14.6549533,31.7403462 C14.6549533,30.2423435 14.0215798,29.4513981 13.0605992,29.4513981 C12.4053852,29.4513981 11.3461226,29.9067909 11.3461226,31.7882823 Z M17.2430487,28.7802929 L18.2913911,28.7802929 L18.2913911,32.6511318 C18.2913911,33.2383489 18.4115137,33.9813582 19.4598561,33.9813582 C19.973107,33.9813582 20.4535973,33.7896138 20.7484436,33.310253 C20.9777685,32.9507324 20.9777685,32.4833555 20.9777685,32.183755 L20.9777685,28.7802929 L22.0370312,28.7802929 L22.0370312,33.6697736 C22.0370312,33.7896138 22.0588716,34.460719 22.0697919,34.7962716 L20.999609,34.7962716 L20.9777685,33.7656458 C20.7812043,34.1850866 20.4099164,34.8561917 19.2305312,34.8561917 C17.8764222,34.8561917 17.2430487,34.0053262 17.2430487,32.8189081 L17.2430487,28.7802929 Z M27.8247549,29.5952064 L27.8247549,26.1557923 L28.8512569,26.1557923 L28.8512569,33.8375499 C28.8512569,33.9693742 28.8730973,34.4846871 28.8949378,34.7962716 L27.8684359,34.7962716 L27.8465954,33.8375499 C27.7592335,34.0053262 27.639111,34.2569907 27.3551849,34.4727031 C26.9074553,34.8082557 26.3723639,34.9161119 26.0010759,34.9161119 C25.2694203,34.9161119 23.6423055,34.4966711 23.6423055,31.8601864 C23.6423055,29.5712383 24.8326109,28.5765646 26.1211985,28.5765646 C27.3005837,28.5765646 27.6937121,29.3435419 27.8247549,29.5952064 Z M27.8575156,31.7043941 C27.8575156,30.8295606 27.6718717,30.3501997 27.4425467,30.0266312 C27.2241421,29.7150466 26.8200934,29.4154461 26.2413211,29.4154461 C24.7343288,29.4154461 24.7343288,31.4167776 24.7343288,31.8242344 C24.7343288,32.8908123 24.9854942,34.1251664 26.2413211,34.1251664 C27.8575156,34.1251664 27.8575156,32.171771 27.8575156,31.7043941 Z M33.7326012,34.7962716 L33.7326012,26.1438083 L34.8246246,26.1438083 L34.8246246,34.7962716 L33.7326012,34.7962716 Z M36.8011868,34.7962716 L36.8011868,29.4753662 L36.7902666,28.7802929 L37.8167686,28.7802929 L37.8276888,29.7509987 C37.9478114,29.4993342 38.3409398,28.6604527 39.5858464,28.6604527 C40.0772569,28.6604527 41.5733289,28.8641811 41.5733289,30.7097204 L41.5733289,34.7962716 L40.5249865,34.7962716 L40.5249865,30.9733688 C40.5249865,30.5778961 40.4813055,30.2183755 40.2301402,29.942743 C39.9680546,29.6671105 39.6076869,29.5352863 39.2582394,29.5352863 C38.5156635,29.5352863 37.8276888,30.1225033 37.8276888,31.3328895 L37.8276888,34.7962716 L36.8011868,34.7962716 Z M46.1816674,26.0838881 L46.1816674,26.9826897 C46.0069437,26.9707057 45.788539,26.9587217 45.5810546,26.9587217 C44.7511168,26.9587217 44.7511168,27.4141145 44.7511168,27.8335553 L44.7511168,28.7802929 L46.0287841,28.7802929 L46.0287841,29.5952064 L44.7511168,29.5952064 L44.7511168,34.7962716 L43.7355351,34.7962716 L43.7355351,29.5952064 L42.654432,29.5952064 L42.654432,28.7802929 L43.7355351,28.7802929 L43.7355351,28.0972037 C43.7355351,27.2703063 43.779216,26.9707057 43.96486,26.6591212 C44.1941849,26.2756325 44.6309943,26 45.3408094,26 C45.6356557,26 45.9632627,26.0479361 46.1816674,26.0838881 Z M47.1317277,34.7962716 L47.1317277,30.0026631 C47.1317277,29.5952064 47.1098873,29.1757656 47.0771266,28.7802929 L48.1145487,28.7802929 L48.1363892,29.942743 C48.3329534,29.1038615 48.9881674,28.828229 49.4468172,28.7563249 C49.7525838,28.7083888 49.9819087,28.7203728 50.1566324,28.7323569 L50.1566324,29.8348868 C50.1020312,29.8109188 50.0365098,29.7989348 49.9600682,29.7869507 C49.8836266,29.7749667 49.7853445,29.7749667 49.6652219,29.7749667 C48.453076,29.7749667 48.1691499,30.5659121 48.1691499,31.5965379 L48.1691499,34.7962716 L47.1317277,34.7962716 Z M55.5949087,34.7962716 L54.6666888,34.7962716 C54.5902472,34.4966711 54.5684067,34.2090546 54.5684067,33.89747 C54.0769962,34.8921438 53.3344203,34.988016 52.8757705,34.988016 C51.6199437,34.988016 50.9428892,34.2090546 50.9428892,33.2143808 C50.9428892,32.73502 51.0957725,31.9680426 51.9038698,31.4527297 C52.4935624,31.0932091 53.367181,31.057257 53.8039904,31.057257 C54.066076,31.057257 54.2298795,31.069241 54.5465663,31.0932091 C54.5465663,30.3501997 54.5465663,30.0266312 54.3500021,29.7629827 C54.1425176,29.4633822 53.694788,29.36751 53.3999417,29.36751 C52.3625196,29.36751 52.3079184,30.1464714 52.2969982,30.3861518 L51.2704962,30.3861518 C51.3032569,30.0745672 51.3360176,29.6551265 51.6527044,29.2476698 C52.0676733,28.7443409 52.8430098,28.6005326 53.4217822,28.6005326 C54.2189593,28.6005326 55.0707375,28.8761651 55.3655838,29.4873502 C55.5403075,29.8468708 55.5512277,30.1344874 55.5512277,30.4101198 L55.5075468,33.286285 C55.5075468,33.3821571 55.518467,34.1850866 55.5949087,34.7962716 Z M54.5465663,31.8721704 C54.3609223,31.8482024 54.208039,31.8362184 53.9568736,31.8362184 C53.5419048,31.8362184 51.9803114,31.8362184 51.9803114,33.0585885 C51.9803114,33.4420772 52.1987161,34.1011984 53.1160157,34.1011984 C53.6401869,34.1011984 54.0333153,33.873502 54.2844807,33.4540613 C54.5138056,33.0466045 54.5247258,32.7110519 54.5465663,31.8721704 Z M56.9053367,33.0106525 L57.9864398,33.0106525 C57.9755196,33.4660453 58.1939242,34.1011984 59.1876655,34.1011984 C59.6135546,34.1011984 59.9302414,34.0173103 60.148646,33.7177097 C60.2578484,33.5619174 60.3233698,33.3581891 60.3233698,33.1544607 C60.3233698,32.5672437 59.9411616,32.4593875 59.1221441,32.2556591 C57.9755196,31.9680426 57.014539,31.7163782 57.014539,30.4580559 C57.014539,29.355526 57.8881577,28.6364847 59.1549048,28.6364847 C59.8428795,28.6364847 60.80386,28.8521971 61.131467,29.5712383 C61.2734301,29.9067909 61.2734301,30.1944075 61.2734301,30.4460719 L60.2250877,30.4460719 C60.2578484,29.5352863 59.537113,29.4633822 59.165825,29.4633822 C59.0129418,29.4633822 58.0519612,29.4633822 58.0519612,30.3262317 C58.0519612,30.8774967 58.5433717,31.0093209 58.8272978,31.0932091 C60.3452102,31.4886818 60.6728172,31.5845539 61.0004242,31.9201065 C61.3061908,32.2316911 61.4153931,32.6511318 61.4153931,33.0346205 C61.4153931,33.7057257 61.0768659,34.2809587 60.6728172,34.5565912 C60.192327,34.8801598 59.6135546,34.9640479 59.0457025,34.9640479 C57.9318386,34.9640479 56.8944165,34.460719 56.9053367,33.0106525 Z M62.016006,29.5832224 L62.016006,28.7563249 L62.9879067,28.7563249 L62.9879067,27.4980027 L64.0034885,27.138482 L64.0034885,28.7563249 L65.2265546,28.7563249 L65.2265546,29.5832224 L64.0034885,29.5832224 L64.0034885,33.1904128 C64.0034885,33.4900133 64.0034885,33.9933422 64.7351441,33.9933422 C64.9426285,33.9933422 65.1391927,33.9573901 65.2265546,33.9334221 L65.2265546,34.8082557 C65.0409106,34.8442077 64.7460643,34.8801598 64.3747764,34.8801598 C63.4356363,34.8801598 62.9879067,34.5805593 62.9879067,33.5978695 L62.9879067,29.5832224 L62.016006,29.5832224 Z M66.5479029,34.7962716 L66.5479029,30.0026631 C66.5479029,29.5952064 66.5260624,29.1757656 66.4933017,28.7802929 L67.5307239,28.7802929 L67.5525643,29.942743 C67.7491285,29.1038615 68.4043425,28.828229 68.8629924,28.7563249 C69.1687589,28.7083888 69.3980838,28.7203728 69.5728075,28.7323569 L69.5728075,29.8348868 C69.5182064,29.8109188 69.452685,29.7989348 69.3762433,29.7869507 C69.2998017,29.7749667 69.2015196,29.7749667 69.081397,29.7749667 C67.8692511,29.7749667 67.585325,30.5659121 67.585325,31.5965379 L67.585325,34.7962716 L66.5479029,34.7962716 Z M70.6320702,28.7802929 L71.6804126,28.7802929 L71.6804126,32.6511318 C71.6804126,33.2383489 71.8005352,33.9813582 72.8488776,33.9813582 C73.3621286,33.9813582 73.8426188,33.7896138 74.1374651,33.310253 C74.36679,32.9507324 74.36679,32.4833555 74.36679,32.183755 L74.36679,28.7802929 L75.4260527,28.7802929 L75.4260527,33.6697736 C75.4260527,33.7896138 75.4478931,34.460719 75.4588134,34.7962716 L74.3886305,34.7962716 L74.36679,33.7656458 C74.1702258,34.1850866 73.7989379,34.8561917 72.6195527,34.8561917 C71.2654437,34.8561917 70.6320702,34.0053262 70.6320702,32.8189081 L70.6320702,28.7802929 Z M81.5741441,30.7097204 L80.536722,30.7097204 C80.5148815,30.4340879 80.4384399,29.4513981 79.4446986,29.4513981 C78.0250683,29.4513981 78.0250683,31.2609854 78.0250683,31.7163782 C78.0250683,32.9507324 78.2980741,34.1011984 79.3900974,34.1011984 C80.2637161,34.1011984 80.5585624,33.3821571 80.5804029,32.7949401 L81.6178251,32.7949401 C81.5523037,33.9693742 80.7551266,34.9520639 79.4010177,34.9520639 C79.0297297,34.9520639 78.1779515,34.8681758 77.5991791,34.1731025 C77.2715721,33.7536618 76.9439651,33.1185087 76.9439651,31.8721704 C76.9439651,29.36751 78.341755,28.6245007 79.4337784,28.6245007 C79.7941461,28.6245007 80.6131636,28.7083888 81.1154943,29.36751 C81.519543,29.8828229 81.5523037,30.3741678 81.5741441,30.7097204 Z M82.0327939,29.5832224 L82.0327939,28.7563249 L83.0046947,28.7563249 L83.0046947,27.4980027 L84.0202764,27.138482 L84.0202764,28.7563249 L85.2433426,28.7563249 L85.2433426,29.5832224 L84.0202764,29.5832224 L84.0202764,33.1904128 C84.0202764,33.4900133 84.0202764,33.9933422 84.7519321,33.9933422 C84.9594165,33.9933422 85.1559807,33.9573901 85.2433426,33.9334221 L85.2433426,34.8082557 C85.0576986,34.8442077 84.7628523,34.8801598 84.3915644,34.8801598 C83.4524243,34.8801598 83.0046947,34.5805593 83.0046947,33.5978695 L83.0046947,29.5832224 L82.0327939,29.5832224 Z M86.4008873,28.7802929 L87.4492297,28.7802929 L87.4492297,32.6511318 C87.4492297,33.2383489 87.5693523,33.9813582 88.6176947,33.9813582 C89.1309457,33.9813582 89.611436,33.7896138 89.9062823,33.310253 C90.1356072,32.9507324 90.1356072,32.4833555 90.1356072,32.183755 L90.1356072,28.7802929 L91.1948698,28.7802929 L91.1948698,33.6697736 C91.1948698,33.7896138 91.2167103,34.460719 91.2276305,34.7962716 L90.1574477,34.7962716 L90.1356072,33.7656458 C89.939043,34.1850866 89.567755,34.8561917 88.3883698,34.8561917 C87.0342609,34.8561917 86.4008873,34.0053262 86.4008873,32.8189081 L86.4008873,28.7802929 Z M93.2369535,34.7962716 L93.2369535,30.0026631 C93.2369535,29.5952064 93.215113,29.1757656 93.1823523,28.7802929 L94.2197745,28.7802929 L94.241615,29.942743 C94.4381792,29.1038615 95.0933932,28.828229 95.552043,28.7563249 C95.8578095,28.7083888 96.0871344,28.7203728 96.2618582,28.7323569 L96.2618582,29.8348868 C96.207257,29.8109188 96.1417356,29.7989348 96.065294,29.7869507 C95.9888523,29.7749667 95.8905702,29.7749667 95.7704477,29.7749667 C94.5583017,29.7749667 94.2743757,30.5659121 94.2743757,31.5965379 L94.2743757,34.7962716 L93.2369535,34.7962716 Z M101.994981,31.9920107 L98.0527765,31.9920107 C98.030936,33.2383489 98.500506,34.1611185 99.6252901,34.1611185 C100.291424,34.1611185 100.826516,33.7776298 100.913878,32.9147803 L101.94038,32.9147803 C101.907619,33.2143808 101.863938,33.7057257 101.47081,34.1731025 C101.230564,34.4727031 100.684553,34.976032 99.5816091,34.976032 C97.8562123,34.976032 97.0371947,33.8015979 97.0371947,31.8961385 C97.0371947,30.7097204 97.2555994,29.7270306 98.1182979,29.0679095 C98.6424691,28.6604527 99.2976831,28.6245007 99.6143699,28.6245007 C102.071422,28.6245007 102.016821,31.0093209 101.994981,31.9920107 Z M98.0964574,31.2010652 L100.946638,31.2010652 C100.957559,30.6258322 100.859276,29.4274301 99.5925294,29.4274301 C98.9263951,29.4274301 98.1182979,29.8708389 98.0964574,31.2010652 Z" id="Cloud-Infrastructure" fill="#616870"></path>
    </g>
</svg>