<?xml version="1.0" encoding="UTF-8"?>
<svg width="192px" height="64px" viewBox="0 0 192 64" version="1.1" xmlns="http://www.w3.org/2000/svg" xmlns:xlink="http://www.w3.org/1999/xlink">
    <!-- Generator: Sketch 50.2 (55047) - http://www.bohemiancoding.com/sketch -->
    <title>Provider/OracleCI/oci-64</title>
    <desc>Created with Sketch.</desc>
    <defs></defs>
    <g id="Provider/OracleCI/oci-64" stroke="none" stroke-width="1" fill="none" fill-rule="evenodd">
        <path d="M4.18952846,54.6478048 C2.85329328,54.6478048 1.83606183,54.2836109 1.13780359,53.555212 C0.439545358,52.8268131 0.0653046517,51.8296751 0.0150702463,50.5637681 C0.00502336519,50.2925023 2.04281037e-14,49.8504462 2.04281037e-14,49.2375864 C2.04281037e-14,48.6146798 0.00502336519,48.1625769 0.0150702463,47.8812643 C0.0653046517,46.6153573 0.439545358,45.6182193 1.13780359,44.8898204 C1.83606183,44.1614215 2.85329328,43.7972275 4.18952846,43.7972275 C5.08370088,43.7972275 5.84222902,43.9554635 6.46513565,44.2719403 C7.08804228,44.588417 7.55772692,45.0028447 7.87420368,45.5152356 C8.19068043,46.0276265 8.36398653,46.5751733 8.39412717,47.1578925 C8.39412717,47.2483144 8.3614753,47.3211532 8.29617057,47.376411 C8.23086584,47.4316689 8.15300368,47.4592974 8.06258175,47.4592974 L7.30906944,47.4592974 C7.20860063,47.4592974 7.12822679,47.4341805 7.0679455,47.3839461 C7.00766421,47.3337117 6.96245393,47.2483145 6.93231328,47.127752 C6.76151631,46.3541421 6.45257935,45.8116187 6.00549314,45.5001654 C5.55840693,45.188712 4.95309143,45.0329877 4.18952846,45.0329877 C2.44137116,45.0329877 1.53214206,46.0075206 1.46181389,47.9566155 C1.45176701,48.2278813 1.44674364,48.6448206 1.44674364,49.2074459 C1.44674364,49.7700713 1.45176701,50.1970573 1.46181389,50.4884169 C1.53214206,52.4274649 2.44137116,53.3969744 4.18952846,53.3969744 C4.94304454,53.3969744 5.54584837,53.2412501 5.99795802,52.9297968 C6.45006766,52.6183435 6.76151631,52.0808434 6.93231328,51.3172804 C6.96245393,51.1967178 7.00766421,51.1113206 7.0679455,51.0610862 C7.12822679,51.0108518 7.20860063,50.985735 7.30906944,50.985735 L8.06258175,50.985735 C8.15300368,50.985735 8.23086584,51.0133635 8.29617057,51.0686214 C8.3614753,51.1238792 8.39412717,51.196718 8.39412717,51.2871399 C8.36398653,51.869859 8.19068043,52.4174058 7.87420368,52.9297968 C7.55772692,53.4421877 7.08804228,53.8566153 6.46513565,54.1730921 C5.84222902,54.4895688 5.08370088,54.6478048 4.18952846,54.6478048 Z M10.1102515,54.4971024 C10.0097827,54.4971024 9.92689716,54.4644505 9.86159243,54.3991458 C9.7962877,54.3338411 9.76363583,54.2509555 9.76363583,54.1504867 L9.76363583,44.1438432 C9.76363583,44.0333275 9.7962877,43.9479303 9.86159243,43.887649 C9.92689716,43.8273677 10.0097827,43.7972275 10.1102515,43.7972275 L10.7733423,43.7972275 C10.8738111,43.7972275 10.9566967,43.8298794 11.0220014,43.8951841 C11.0873061,43.9604889 11.119958,44.0433744 11.119958,44.1438432 L11.119958,54.1504867 C11.119958,54.2509555 11.0873061,54.3338411 11.0220014,54.3991458 C10.9566967,54.4644505 10.8738111,54.4971024 10.7733423,54.4971024 L10.1102515,54.4971024 Z M16.061115,54.6478048 C14.9559581,54.6478048 14.1044977,54.3363562 13.5067083,53.7134496 C12.9089188,53.090543 12.5899352,52.2616877 12.5497476,51.2268589 L12.5346774,50.5788384 L12.5497476,49.9308178 C12.5899352,48.895989 12.9139422,48.0671338 13.5217785,47.4442271 C14.1296148,46.8213205 14.9760519,46.5098719 16.061115,46.5098719 C17.1461782,46.5098719 17.9926152,46.8213205 18.6004515,47.4442271 C19.2082878,48.0671338 19.5322949,48.895989 19.5724824,49.9308178 C19.5925762,50.1518491 19.6026229,50.3678539 19.6026229,50.5788384 C19.6026229,50.7898229 19.5925762,51.0058276 19.5724824,51.2268589 C19.5322949,52.2616877 19.2133112,53.090543 18.6155218,53.7134496 C18.0177323,54.3363562 17.1662719,54.6478048 16.061115,54.6478048 Z M16.061115,53.5175364 C16.7041154,53.5175364 17.213987,53.3140901 17.590745,52.9071914 C17.9675031,52.5002927 18.1709493,51.9150707 18.20109,51.1515077 C18.2111369,51.0510389 18.2161602,50.860151 18.2161602,50.5788384 C18.2161602,50.2975257 18.2111369,50.1066378 18.20109,50.006169 C18.1709493,49.242606 17.9675031,48.657384 17.590745,48.2504853 C17.213987,47.8435866 16.7041154,47.6401403 16.061115,47.6401403 C15.4181146,47.6401403 14.9082431,47.8435866 14.531485,48.2504853 C14.154727,48.657384 13.9512807,49.242606 13.92114,50.006169 L13.9060698,50.5788384 L13.92114,51.1515077 C13.9512807,51.9150707 14.154727,52.5002927 14.531485,52.9071914 C14.9082431,53.3140901 15.4181146,53.5175364 16.061115,53.5175364 Z M23.9258998,54.6478048 C22.9714461,54.6478048 22.2330114,54.3388679 21.7105736,53.7209847 C21.1881358,53.1031015 20.9269208,52.2817813 20.9269208,51.2569994 L20.9269208,47.00719 C20.9269208,46.9067212 20.9595727,46.8238357 21.0248774,46.7585309 C21.0901821,46.6932262 21.1730677,46.6605743 21.2735365,46.6605743 L21.9667678,46.6605743 C22.0672366,46.6605743 22.1501221,46.6932262 22.2154269,46.7585309 C22.2807316,46.8238357 22.3133835,46.9067212 22.3133835,47.00719 L22.3133835,51.1816482 C22.3133835,52.7087741 22.9764677,53.4723256 24.302656,53.4723256 C24.9456564,53.4723256 25.4555279,53.2688793 25.832286,52.8619807 C26.209044,52.455082 26.3974202,51.8949768 26.3974202,51.1816482 L26.3974202,47.00719 C26.3974202,46.9067212 26.4300721,46.8238357 26.4953768,46.7585309 C26.5606815,46.6932262 26.6435671,46.6605743 26.7440359,46.6605743 L27.4372672,46.6605743 C27.537736,46.6605743 27.6206215,46.6932262 27.6859263,46.7585309 C27.751231,46.8238357 27.7838829,46.9067212 27.7838829,47.00719 L27.7838829,54.1504867 C27.7838829,54.2509555 27.751231,54.3338411 27.6859263,54.3991458 C27.6206215,54.4644505 27.537736,54.4971024 27.4372672,54.4971024 L26.7892466,54.4971024 C26.6887778,54.4971024 26.6058923,54.4644505 26.5405875,54.3991458 C26.4752828,54.3338411 26.4426309,54.2509555 26.4426309,54.1504867 L26.4426309,53.4723256 C26.1512714,53.864154 25.8096826,54.1580209 25.4178542,54.353935 C25.0260258,54.5498492 24.5287127,54.6478048 23.9258998,54.6478048 Z M32.4085647,54.6478048 C31.3536422,54.6478048 30.5624622,54.306216 30.0350009,53.6230281 C29.5075397,52.9398402 29.2237195,52.0758214 29.183532,51.0309457 L29.1684618,50.5788384 L29.183532,50.126731 C29.2237195,49.0919022 29.5100514,48.2303951 30.042536,47.5421837 C30.5750207,46.8539724 31.3636891,46.5098719 32.4085647,46.5098719 C33.4534403,46.5098719 34.2672255,46.8816009 34.8499446,47.6250701 L34.8499446,44.1438432 C34.8499446,44.0433744 34.8825965,43.9604889 34.9479012,43.8951841 C35.0132059,43.8298794 35.0960915,43.7972275 35.1965603,43.7972275 L35.8747214,43.7972275 C35.9751902,43.7972275 36.0580757,43.8298794 36.1233804,43.8951841 C36.1886851,43.9604889 36.221337,44.0433744 36.221337,44.1438432 L36.221337,54.1504867 C36.221337,54.2509555 36.1886851,54.3338411 36.1233804,54.3991458 C36.0580757,54.4644505 35.9751902,54.4971024 35.8747214,54.4971024 L35.2267008,54.4971024 C35.126232,54.4971024 35.0458581,54.4644505 34.9855768,54.3991458 C34.9252955,54.3338411 34.8951553,54.2509555 34.8951553,54.1504867 L34.8951553,53.5024661 C34.3224831,54.2660291 33.4936279,54.6478048 32.4085647,54.6478048 Z M32.6948994,53.4723256 C33.3981811,53.4723256 33.9256344,53.2387392 34.2772753,52.7715592 C34.6289161,52.3043792 34.819804,51.7492974 34.8499446,51.106297 C34.8599915,50.9957813 34.8650149,50.8048934 34.8650149,50.5336276 C34.8650149,50.2523149 34.8599915,50.0564037 34.8499446,49.945888 C34.8298508,49.3330283 34.6364513,48.8030632 34.2697401,48.355977 C33.903029,47.9088908 33.3780873,47.6853511 32.6948994,47.6853511 C31.971524,47.6853511 31.4440706,47.9114025 31.1125235,48.3635122 C30.7809765,48.8156218 30.6001353,49.4083789 30.5699947,50.1418012 L30.5549244,50.5788384 C30.5549244,52.5078395 31.2682423,53.4723256 32.6948994,53.4723256 Z M41.7332796,54.4971024 C41.6328108,54.4971024 41.552437,54.4644505 41.4921557,54.3991458 C41.4318744,54.3338411 41.4017342,54.2509555 41.4017342,54.1504867 L41.4017342,44.2945457 C41.4017342,44.1940768 41.4318744,44.1111913 41.4921557,44.0458866 C41.552437,43.9805819 41.6328108,43.94793 41.7332796,43.94793 L42.486792,43.94793 C42.5973077,43.94793 42.6827049,43.9780702 42.7429861,44.0383515 C42.8032674,44.0986328 42.8334076,44.18403 42.8334076,44.2945457 L42.8334076,54.1504867 C42.8334076,54.2509555 42.8007558,54.3338411 42.735451,54.3991458 C42.6701463,54.4644505 42.5872608,54.4971024 42.486792,54.4971024 L41.7332796,54.4971024 Z M45.1372715,54.4971024 C45.0368027,54.4971024 44.9539172,54.4644505 44.8886125,54.3991458 C44.8233078,54.3338411 44.7906559,54.2509555 44.7906559,54.1504867 L44.7906559,47.00719 C44.7906559,46.9067212 44.8233078,46.8238357 44.8886125,46.7585309 C44.9539172,46.6932262 45.0368027,46.6605743 45.1372715,46.6605743 L45.7852921,46.6605743 C45.8958078,46.6605743 45.981205,46.6907145 46.0414863,46.7509958 C46.1017676,46.8112771 46.1319078,46.8966743 46.1319078,47.00719 L46.1319078,47.6702808 C46.4333142,47.2985462 46.7824381,47.0122144 47.1792899,46.8112768 C47.5761417,46.6103392 48.0709432,46.5098719 48.6637092,46.5098719 C49.6282098,46.5098719 50.3766912,46.8188088 50.9091759,47.436692 C51.4416606,48.0545752 51.7078989,48.870872 51.7078989,49.885607 L51.7078989,54.1504867 C51.7078989,54.2509555 51.6752471,54.3338411 51.6099423,54.3991458 C51.5446376,54.4644505 51.4617521,54.4971024 51.3612833,54.4971024 L50.6680519,54.4971024 C50.5675831,54.4971024 50.4846976,54.4644505 50.4193929,54.3991458 C50.3540881,54.3338411 50.3214363,54.2509555 50.3214363,54.1504867 L50.3214363,49.9760285 C50.3214363,49.2526531 50.1456185,48.6900362 49.7939776,48.2881609 C49.4423368,47.8862857 48.9400003,47.6853511 48.286953,47.6853511 C47.6439526,47.6853511 47.1315694,47.8887974 46.7497879,48.295696 C46.3680064,48.7025947 46.1771185,49.2626999 46.1771185,49.9760285 L46.1771185,54.1504867 C46.1771185,54.2509555 46.1444667,54.3338411 46.0791619,54.3991458 C46.0138572,54.4644505 45.9309717,54.4971024 45.8305029,54.4971024 L45.1372715,54.4971024 Z M54.4035893,54.4971024 C54.3031204,54.4971024 54.2202349,54.4644505 54.1549302,54.3991458 C54.0896255,54.3338411 54.0569736,54.2509555 54.0569736,54.1504867 L54.0569736,47.8209833 L52.7609324,47.8209833 C52.6604636,47.8209833 52.5775781,47.7908431 52.5122733,47.7305618 C52.4469686,47.6702805 52.4143167,47.5899067 52.4143167,47.4894379 L52.4143167,47.00719 C52.4143167,46.9067212 52.4469686,46.8238357 52.5122733,46.7585309 C52.5775781,46.6932262 52.6604636,46.6605743 52.7609324,46.6605743 L54.0569736,46.6605743 L54.0569736,45.907062 C54.0569736,45.0932646 54.2553965,44.4628323 54.6522483,44.0157461 C55.0491001,43.5686599 55.6996259,43.3451201 56.6038452,43.3451201 L57.4929897,43.3451201 C57.5934585,43.3451201 57.6763441,43.377772 57.7416488,43.4430767 C57.8069535,43.5083815 57.8396054,43.591267 57.8396054,43.6917358 L57.8396054,44.1739837 C57.8396054,44.2744525 57.8069535,44.3548263 57.7416488,44.4151076 C57.6763441,44.4753889 57.5934585,44.5055291 57.4929897,44.5055291 L56.6339857,44.5055291 C56.1718292,44.5055291 55.8503338,44.6260899 55.6694899,44.867215 C55.4886461,45.1083402 55.3982255,45.4800692 55.3982255,45.9824132 L55.3982255,46.6605743 L57.3422873,46.6605743 C57.4427561,46.6605743 57.5256416,46.6932262 57.5909463,46.7585309 C57.6562511,46.8238357 57.6889029,46.9067212 57.6889029,47.00719 L57.6889029,47.4894379 C57.6889029,47.5899067 57.6562511,47.6702805 57.5909463,47.7305618 C57.5256416,47.7908431 57.4427561,47.8209833 57.3422873,47.8209833 L55.3982255,47.8209833 L55.3982255,54.1504867 C55.3982255,54.2509555 55.3655736,54.3338411 55.3002689,54.3991458 C55.2349642,54.4644505 55.1520787,54.4971024 55.0516098,54.4971024 L54.4035893,54.4971024 Z M58.8775686,54.4971024 C58.7770998,54.4971024 58.6942143,54.4644505 58.6289096,54.3991458 C58.5636049,54.3338411 58.530953,54.2509555 58.530953,54.1504867 L58.530953,47.0222602 C58.530953,46.9217914 58.5636049,46.8363942 58.6289096,46.766066 C58.6942143,46.6957379 58.7770998,46.6605743 58.8775686,46.6605743 L59.510519,46.6605743 C59.6210347,46.6605743 59.7089436,46.6932262 59.7742483,46.7585309 C59.839553,46.8238357 59.8722049,46.9117445 59.8722049,47.0222602 L59.8722049,47.6853511 C60.284127,47.0021632 60.9823748,46.6605743 61.9669691,46.6605743 L62.5547087,46.6605743 C62.6652244,46.6605743 62.7506216,46.6907145 62.8109029,46.7509958 C62.8711842,46.8112771 62.9013244,46.8966743 62.9013244,47.00719 L62.9013244,47.5647891 C62.9013244,47.6652579 62.8711842,47.7481434 62.8109029,47.8134482 C62.7506216,47.8787529 62.6652244,47.9114048 62.5547087,47.9114048 L61.6957047,47.9114048 C61.1431262,47.9114048 60.7086051,48.0721524 60.3921284,48.3936526 C60.0756516,48.7151528 59.9174156,49.1521856 59.9174156,49.7047641 L59.9174156,54.1504867 C59.9174156,54.2509555 59.8822521,54.3338411 59.8119239,54.3991458 C59.7415957,54.4644505 59.6561985,54.4971024 59.5557297,54.4971024 L58.8775686,54.4971024 Z M65.7477172,54.6478048 C65.25542,54.6478048 64.8008055,54.5473375 64.3838599,54.3463999 C63.9669143,54.1454623 63.6353722,53.8716889 63.3892236,53.5250715 C63.1430751,53.1784541 63.0200026,52.7941667 63.0200026,52.3721977 C63.0200026,51.7091035 63.2912643,51.1665801 63.8337959,50.7446111 C64.3763275,50.3226421 65.1147622,50.0413336 66.0491221,49.9006773 L68.3096591,49.5842021 L68.3096591,49.147165 C68.3096591,48.1123362 67.7118786,47.5949296 66.5162997,47.5949296 C66.0541432,47.5949296 65.6824142,47.6878618 65.4011015,47.8737291 C65.1197889,48.0595964 64.9138309,48.2781128 64.7832214,48.5292849 C64.7430339,48.6297537 64.7003353,48.6975691 64.6551243,48.7327332 C64.6099134,48.7678973 64.5471213,48.785479 64.4667463,48.785479 L63.8790066,48.785479 C63.7885847,48.785479 63.7107226,48.7528272 63.6454178,48.6875224 C63.5801131,48.6222177 63.5474612,48.5443556 63.5474612,48.4539336 C63.5474612,48.2228554 63.6554636,47.9541053 63.8714715,47.6476755 C64.0874795,47.3412456 64.4215333,47.0750072 64.8736429,46.8489524 C65.3257526,46.6228976 65.8783227,46.5098719 66.53137,46.5098719 C67.6566207,46.5098719 68.4628708,46.7710869 68.9501445,47.2935247 C69.4374183,47.8159625 69.6810515,48.469 69.6810515,49.2526567 L69.6810515,54.1504867 C69.6810515,54.2509555 69.6483996,54.3338411 69.5830949,54.3991458 C69.5177901,54.4644505 69.4349046,54.4971024 69.3344358,54.4971024 L68.671345,54.4971024 C68.5708762,54.4971024 68.4905023,54.4644505 68.430221,54.3991458 C68.3699397,54.3338411 68.3397995,54.2509555 68.3397995,54.1504867 L68.3397995,53.4873959 C68.1187682,53.818943 67.7972728,54.095228 67.3753038,54.3162594 C66.9533348,54.5372908 66.4108113,54.6478048 65.7477172,54.6478048 Z M66.0491221,53.5476769 C66.7122163,53.5476769 67.2547397,53.3316722 67.6767087,52.8996563 C68.0986777,52.4676404 68.3096591,51.8397197 68.3096591,51.0158755 L68.3096591,50.5939086 L66.5464402,50.8501028 C65.8230648,50.9505716 65.275518,51.121366 64.9037834,51.3624912 C64.5320488,51.6036163 64.3461843,51.9050182 64.3461843,52.2667059 C64.3461843,52.6786281 64.514467,52.9951001 64.8510375,53.2161315 C65.187608,53.4371628 65.5869656,53.5476769 66.0491221,53.5476769 Z M74.0495391,54.6478048 C73.3563043,54.6478048 72.7710823,54.5347791 72.2938554,54.3087243 C71.8166286,54.0826695 71.4624813,53.8239662 71.2314031,53.5326066 C71.0003248,53.2412471 70.8847874,53.0001255 70.8847874,52.8092348 C70.8847874,52.708766 70.919951,52.6309038 70.9902791,52.575646 C71.0606073,52.5203881 71.1359578,52.4927596 71.2163328,52.4927596 L71.8492832,52.4927596 C71.9095645,52.4927596 71.9572864,52.5028064 71.9924505,52.5229001 C72.0276146,52.5429939 72.0753366,52.5882042 72.1356179,52.6585323 C72.3666961,52.939845 72.6253994,53.1608731 72.9117355,53.3216232 C73.1980716,53.4823733 73.5823591,53.5627471 74.0646094,53.5627471 C74.607141,53.5627471 75.041662,53.4622798 75.3681857,53.2613422 C75.6947093,53.0604046 75.8579687,52.7690494 75.8579687,52.3872679 C75.8579687,52.1360959 75.7876416,51.9351613 75.6469852,51.7844581 C75.5063289,51.6337548 75.2727424,51.498124 74.9462188,51.3775614 C74.6196951,51.2569988 74.1349404,51.1263913 73.49194,50.985735 C72.6178614,50.7948443 71.9999874,50.5185592 71.6382997,50.1568715 C71.276612,49.7951837 71.0957709,49.3280108 71.0957709,48.7553386 C71.0957709,48.383604 71.2062849,48.0244333 71.4273163,47.6778159 C71.6483477,47.3311985 71.9773781,47.0498901 72.4144174,46.8338822 C72.8514567,46.6178742 73.371375,46.5098719 73.9741879,46.5098719 C74.6071414,46.5098719 75.1471532,46.6153625 75.5942394,46.826347 C76.0413256,47.0373315 76.377891,47.2834764 76.6039459,47.5647891 C76.8300007,47.8461018 76.9430264,48.0821999 76.9430264,48.2730907 C76.9430264,48.3635126 76.9103745,48.4388631 76.8450698,48.4991444 C76.7797651,48.5594257 76.7019029,48.5895658 76.611481,48.5895658 L76.0388116,48.5895658 C75.8981553,48.5895658 75.797688,48.5343088 75.7374067,48.4237931 C75.5666097,48.2329024 75.4234438,48.0847131 75.3079047,47.9792209 C75.1923656,47.8737286 75.0240828,47.783308 74.8030514,47.7079564 C74.5820201,47.6326048 74.305735,47.5949296 73.9741879,47.5949296 C73.4818907,47.5949296 73.1051383,47.6979086 72.8439194,47.9038696 C72.5827005,48.1098307 72.452093,48.3836041 72.452093,48.7251981 C72.452093,48.9361826 72.50735,49.114512 72.6178657,49.2601918 C72.7283814,49.4058716 72.9393628,49.5415024 73.2508161,49.6670885 C73.5622694,49.7926745 74.024419,49.9207703 74.6372787,50.0513797 C75.5917324,50.2523174 76.2673751,50.5386492 76.6642269,50.9103838 C77.0610787,51.2821184 77.2595016,51.7593381 77.2595016,52.3420572 C77.2595016,52.7740731 77.1364291,53.1658955 76.8902805,53.5175364 C76.644132,53.8691772 76.2774263,54.1454623 75.7901526,54.3463999 C75.3028788,54.5473375 74.7226802,54.6478048 74.0495391,54.6478048 Z M81.5224975,54.4971024 C79.965231,54.4971024 79.1866094,53.6180135 79.1866094,51.8598093 L79.1866094,47.8209833 L77.9960599,47.8209833 C77.8955911,47.8209833 77.8152172,47.7908431 77.754936,47.7305618 C77.6946547,47.6702805 77.6645145,47.5899067 77.6645145,47.4894379 L77.6645145,47.00719 C77.6645145,46.9067212 77.6946547,46.8238357 77.754936,46.7585309 C77.8152172,46.6932262 77.8955911,46.6605743 77.9960599,46.6605743 L79.1866094,46.6605743 L79.1866094,44.1438432 C79.1866094,44.0433744 79.2167495,43.9604889 79.2770308,43.8951841 C79.3373121,43.8298794 79.417686,43.7972275 79.5181548,43.7972275 L80.1812456,43.7972275 C80.2817144,43.7972275 80.3645999,43.8298794 80.4299047,43.8951841 C80.4952094,43.9604889 80.5278613,44.0433744 80.5278613,44.1438432 L80.5278613,46.6605743 L82.3965718,46.6605743 C82.4970406,46.6605743 82.5799261,46.6932262 82.6452309,46.7585309 C82.7105356,46.8238357 82.7431875,46.9067212 82.7431875,47.00719 L82.7431875,47.4894379 C82.7431875,47.5899067 82.7105356,47.6702805 82.6452309,47.7305618 C82.5799261,47.7908431 82.4970406,47.8209833 82.3965718,47.8209833 L80.5278613,47.8209833 L80.5278613,51.7543176 C80.5278613,52.2667085 80.6107468,52.6535076 80.7765203,52.9147265 C80.9422939,53.1759454 81.226114,53.3065529 81.6279892,53.3065529 L82.5472743,53.3065529 C82.6477431,53.3065529 82.7281169,53.3392048 82.7883982,53.4045095 C82.8486795,53.4698143 82.8788197,53.5526998 82.8788197,53.6531686 L82.8788197,54.1504867 C82.8788197,54.2509555 82.8486795,54.3338411 82.7883982,54.3991458 C82.7281169,54.4644505 82.6477431,54.4971024 82.5472743,54.4971024 L81.5224975,54.4971024 Z M84.2031176,54.4971024 C84.1026488,54.4971024 84.0197633,54.4644505 83.9544585,54.3991458 C83.8891538,54.3338411 83.8565019,54.2509555 83.8565019,54.1504867 L83.8565019,47.0222602 C83.8565019,46.9217914 83.8891538,46.8363942 83.9544585,46.766066 C84.0197633,46.6957379 84.1026488,46.6605743 84.2031176,46.6605743 L84.8360679,46.6605743 C84.9465836,46.6605743 85.0344925,46.6932262 85.0997973,46.7585309 C85.165102,46.8238357 85.1977539,46.9117445 85.1977539,47.0222602 L85.1977539,47.6853511 C85.609676,47.0021632 86.3079237,46.6605743 87.2925181,46.6605743 L87.8802577,46.6605743 C87.9907734,46.6605743 88.0761706,46.6907145 88.1364519,46.7509958 C88.1967332,46.8112771 88.2268734,46.8966743 88.2268734,47.00719 L88.2268734,47.5647891 C88.2268734,47.6652579 88.1967332,47.7481434 88.1364519,47.8134482 C88.0761706,47.8787529 87.9907734,47.9114048 87.8802577,47.9114048 L87.0212537,47.9114048 C86.4686752,47.9114048 86.0341541,48.0721524 85.7176774,48.3936526 C85.4012006,48.7151528 85.2429646,49.1521856 85.2429646,49.7047641 L85.2429646,54.1504867 C85.2429646,54.2509555 85.207801,54.3338411 85.1374729,54.3991458 C85.0671447,54.4644505 84.9817475,54.4971024 84.8812787,54.4971024 L84.2031176,54.4971024 Z M91.9473404,54.6478048 C90.9928867,54.6478048 90.2544521,54.3388679 89.7320142,53.7209847 C89.2095764,53.1031015 88.9483614,52.2817813 88.9483614,51.2569994 L88.9483614,47.00719 C88.9483614,46.9067212 88.9810133,46.8238357 89.046318,46.7585309 C89.1116228,46.6932262 89.1945083,46.6605743 89.2949771,46.6605743 L89.9882084,46.6605743 C90.0886772,46.6605743 90.1715628,46.6932262 90.2368675,46.7585309 C90.3021722,46.8238357 90.3348241,46.9067212 90.3348241,47.00719 L90.3348241,51.1816482 C90.3348241,52.7087741 90.9979083,53.4723256 92.3240966,53.4723256 C92.967097,53.4723256 93.4769685,53.2688793 93.8537266,52.8619807 C94.2304846,52.455082 94.4188608,51.8949768 94.4188608,51.1816482 L94.4188608,47.00719 C94.4188608,46.9067212 94.4515127,46.8238357 94.5168174,46.7585309 C94.5821222,46.6932262 94.6650077,46.6605743 94.7654765,46.6605743 L95.4587078,46.6605743 C95.5591766,46.6605743 95.6420622,46.6932262 95.7073669,46.7585309 C95.7726716,46.8238357 95.8053235,46.9067212 95.8053235,47.00719 L95.8053235,54.1504867 C95.8053235,54.2509555 95.7726716,54.3338411 95.7073669,54.3991458 C95.6420622,54.4644505 95.5591766,54.4971024 95.4587078,54.4971024 L94.8106872,54.4971024 C94.7102184,54.4971024 94.6273329,54.4644505 94.5620282,54.3991458 C94.4967234,54.3338411 94.4640716,54.2509555 94.4640716,54.1504867 L94.4640716,53.4723256 C94.172712,53.864154 93.8311232,54.1580209 93.4392948,54.353935 C93.0474665,54.5498492 92.5501533,54.6478048 91.9473404,54.6478048 Z M100.70127,54.6478048 C99.6262535,54.6478048 98.7873515,54.3438913 98.1845386,53.7360549 C97.5817258,53.1282186 97.2652538,52.2767582 97.2351131,51.1816482 L97.2200429,50.5788384 L97.2351131,49.9760285 C97.2652538,48.8809185 97.5817258,48.0294581 98.1845386,47.4216218 C98.7873515,46.8137855 99.6262535,46.5098719 100.70127,46.5098719 C101.424645,46.5098719 102.034984,46.6379677 102.532305,46.8941631 C103.029625,47.1503586 103.401354,47.4693423 103.647503,47.8511238 C103.893651,48.2329053 104.026771,48.614681 104.046864,48.9964625 C104.056911,49.0868844 104.024259,49.1672583 103.948908,49.2375864 C103.873556,49.3079146 103.790671,49.3430782 103.700249,49.3430782 L103.037158,49.3430782 C102.936689,49.3430782 102.861339,49.320473 102.811104,49.2752621 C102.76087,49.2300511 102.710636,49.1471656 102.660402,49.026603 C102.479558,48.5343058 102.230901,48.1851819 101.914425,47.9792209 C101.597948,47.7732598 101.19859,47.6702808 100.71634,47.6702808 C100.083387,47.6702808 99.58105,47.8661921 99.2093154,48.2580204 C98.8375808,48.6498488 98.6366462,49.2476292 98.6065055,50.0513797 L98.5914353,50.5788384 L98.6065055,51.106297 C98.6366462,51.9100475 98.8375808,52.5078279 99.2093154,52.8996563 C99.58105,53.2914846 100.083387,53.4873959 100.71634,53.4873959 C101.208637,53.4873959 101.610506,53.3844169 101.92196,53.1784558 C102.233413,52.9724948 102.479558,52.6233709 102.660402,52.1310737 C102.710636,52.0105111 102.76087,51.9276256 102.811104,51.8824147 C102.861339,51.8372037 102.936689,51.8145985 103.037158,51.8145985 L103.700249,51.8145985 C103.790671,51.8145985 103.873556,51.8497621 103.948908,51.9200903 C104.024259,51.9904184 104.056911,52.0707923 104.046864,52.1612142 C104.026771,52.5329488 103.893651,52.9097012 103.647503,53.2914827 C103.401354,53.6732642 103.029625,53.9947595 102.532305,54.2559784 C102.034984,54.5171974 101.424645,54.6478048 100.70127,54.6478048 Z M108.370141,54.4971024 C106.812875,54.4971024 106.034253,53.6180135 106.034253,51.8598093 L106.034253,47.8209833 L104.843704,47.8209833 C104.743235,47.8209833 104.662861,47.7908431 104.60258,47.7305618 C104.542299,47.6702805 104.512158,47.5899067 104.512158,47.4894379 L104.512158,47.00719 C104.512158,46.9067212 104.542299,46.8238357 104.60258,46.7585309 C104.662861,46.6932262 104.743235,46.6605743 104.843704,46.6605743 L106.034253,46.6605743 L106.034253,44.1438432 C106.034253,44.0433744 106.064393,43.9604889 106.124675,43.8951841 C106.184956,43.8298794 106.26533,43.7972275 106.365799,43.7972275 L107.028889,43.7972275 C107.129358,43.7972275 107.212244,43.8298794 107.277549,43.8951841 C107.342853,43.9604889 107.375505,44.0433744 107.375505,44.1438432 L107.375505,46.6605743 L109.244216,46.6605743 C109.344684,46.6605743 109.42757,46.6932262 109.492875,46.7585309 C109.558179,46.8238357 109.590831,46.9067212 109.590831,47.00719 L109.590831,47.4894379 C109.590831,47.5899067 109.558179,47.6702805 109.492875,47.7305618 C109.42757,47.7908431 109.344684,47.8209833 109.244216,47.8209833 L107.375505,47.8209833 L107.375505,51.7543176 C107.375505,52.2667085 107.458391,52.6535076 107.624164,52.9147265 C107.789938,53.1759454 108.073758,53.3065529 108.475633,53.3065529 L109.394918,53.3065529 C109.495387,53.3065529 109.575761,53.3392048 109.636042,53.4045095 C109.696323,53.4698143 109.726464,53.5526998 109.726464,53.6531686 L109.726464,54.1504867 C109.726464,54.2509555 109.696323,54.3338411 109.636042,54.3991458 C109.575761,54.4644505 109.495387,54.4971024 109.394918,54.4971024 L108.370141,54.4971024 Z M113.627774,54.6478048 C112.67332,54.6478048 111.934885,54.3388679 111.412447,53.7209847 C110.89001,53.1031015 110.628795,52.2817813 110.628795,51.2569994 L110.628795,47.00719 C110.628795,46.9067212 110.661446,46.8238357 110.726751,46.7585309 C110.792056,46.6932262 110.874941,46.6605743 110.97541,46.6605743 L111.668642,46.6605743 C111.76911,46.6605743 111.851996,46.6932262 111.917301,46.7585309 C111.982605,46.8238357 112.015257,46.9067212 112.015257,47.00719 L112.015257,51.1816482 C112.015257,52.7087741 112.678341,53.4723256 114.00453,53.4723256 C114.64753,53.4723256 115.157402,53.2688793 115.53416,52.8619807 C115.910918,52.455082 116.099294,51.8949768 116.099294,51.1816482 L116.099294,47.00719 C116.099294,46.9067212 116.131946,46.8238357 116.197251,46.7585309 C116.262555,46.6932262 116.345441,46.6605743 116.44591,46.6605743 L117.139141,46.6605743 C117.23961,46.6605743 117.322495,46.6932262 117.3878,46.7585309 C117.453105,46.8238357 117.485757,46.9067212 117.485757,47.00719 L117.485757,54.1504867 C117.485757,54.2509555 117.453105,54.3338411 117.3878,54.3991458 C117.322495,54.4644505 117.23961,54.4971024 117.139141,54.4971024 L116.49112,54.4971024 C116.390652,54.4971024 116.307766,54.4644505 116.242461,54.3991458 C116.177157,54.3338411 116.144505,54.2509555 116.144505,54.1504867 L116.144505,53.4723256 C115.853145,53.864154 115.511556,54.1580209 115.119728,54.353935 C114.7279,54.5498492 114.230586,54.6478048 113.627774,54.6478048 Z M119.593707,54.4971024 C119.493239,54.4971024 119.410353,54.4644505 119.345048,54.3991458 C119.279744,54.3338411 119.247092,54.2509555 119.247092,54.1504867 L119.247092,47.0222602 C119.247092,46.9217914 119.279744,46.8363942 119.345048,46.766066 C119.410353,46.6957379 119.493239,46.6605743 119.593707,46.6605743 L120.226658,46.6605743 C120.337173,46.6605743 120.425082,46.6932262 120.490387,46.7585309 C120.555692,46.8238357 120.588344,46.9117445 120.588344,47.0222602 L120.588344,47.6853511 C121.000266,47.0021632 121.698513,46.6605743 122.683108,46.6605743 L123.270847,46.6605743 C123.381363,46.6605743 123.46676,46.6907145 123.527042,46.7509958 C123.587323,46.8112771 123.617463,46.8966743 123.617463,47.00719 L123.617463,47.5647891 C123.617463,47.6652579 123.587323,47.7481434 123.527042,47.8134482 C123.46676,47.8787529 123.381363,47.9114048 123.270847,47.9114048 L122.411843,47.9114048 C121.859265,47.9114048 121.424744,48.0721524 121.108267,48.3936526 C120.79179,48.7151528 120.633554,49.1521856 120.633554,49.7047641 L120.633554,54.1504867 C120.633554,54.2509555 120.598391,54.3338411 120.528063,54.3991458 C120.457734,54.4644505 120.372337,54.4971024 120.271868,54.4971024 L119.593707,54.4971024 Z M127.518773,54.6478048 C126.493991,54.6478048 125.675183,54.3288212 125.062323,53.6908442 C124.449463,53.0528673 124.112898,52.1813134 124.052616,51.0761565 L124.037546,50.5637681 L124.052616,50.06645 C124.112898,48.9813868 124.449463,48.117368 125.062323,47.4743676 C125.675183,46.8313672 126.493991,46.5098719 127.518773,46.5098719 C128.62393,46.5098719 129.480414,46.8615074 130.08825,47.5647891 C130.696086,48.2680708 131,49.2225102 131,50.4281359 L131,50.6994003 C131,50.7998691 130.967348,50.8827547 130.902043,50.9480594 C130.836739,51.0133641 130.753853,51.046016 130.653384,51.046016 L125.424009,51.046016 L125.424009,51.1816482 C125.45415,51.8346955 125.655084,52.392289 126.026819,52.8544455 C126.398553,53.3166021 126.890843,53.5476769 127.503703,53.5476769 C127.975906,53.5476769 128.360194,53.4547446 128.656577,53.2688773 C128.95296,53.08301 129.176499,52.8896105 129.327203,52.6886728 C129.417625,52.5681103 129.487952,52.4952715 129.538186,52.4701543 C129.588421,52.4450371 129.673818,52.4324786 129.79438,52.4324786 L130.457471,52.4324786 C130.547893,52.4324786 130.625755,52.4575955 130.69106,52.5078299 C130.756365,52.5580643 130.789017,52.623368 130.789017,52.7037431 C130.789017,52.9247745 130.653386,53.1910128 130.38212,53.5024661 C130.110854,53.8139194 129.726567,54.0826695 129.229246,54.3087243 C128.731925,54.5347791 128.161774,54.6478048 127.518773,54.6478048 Z M129.628608,50.0212392 L129.628608,49.9760285 C129.628608,49.2727468 129.43772,48.7000832 129.055938,48.2580204 C128.674157,47.8159577 128.161774,47.5949296 127.518773,47.5949296 C126.865726,47.5949296 126.353343,47.8159577 125.981608,48.2580204 C125.609873,48.7000832 125.424009,49.2727468 125.424009,49.9760285 L125.424009,50.0212392 L129.628608,50.0212392 Z" id="Cloud-Infrastructure" fill="#202234"></path>
        <path d="M170.665382,29.0608232 C167.102313,29.0608232 164.078805,26.6862023 163.154315,23.411352 L182.990813,23.411352 L185.72535,19.1790197 L163.154315,19.1790197 C164.078805,15.9237989 167.102313,13.5300938 170.665382,13.5300938 L184.280492,13.5300938 L187.034769,9.29721626 L170.357218,9.29721626 C163.693326,9.29721626 158.282376,14.6789632 158.282376,21.3050006 C158.282376,27.931038 163.693326,33.2931555 170.357218,33.2931555 L184.66597,33.2931555 L187.401056,29.0608232 L170.665382,29.0608232 Z M113.910714,33.2931555 C107.247919,33.2931555 101.83642,27.931038 101.83642,21.3050006 C101.83642,14.6789632 107.247919,9.29721626 113.910714,9.29721626 L130.569622,9.29721626 L127.854276,13.5300938 L114.219426,13.5300938 C109.905141,13.5300938 106.400196,17.0154157 106.400196,21.3050006 C106.400196,25.5945856 109.905141,29.0608232 114.219426,29.0608232 L130.954552,29.0608232 L128.220014,33.2931555 L113.910714,33.2931555 Z M25.7809765,29.0608232 C30.0974545,29.0608232 33.5925296,25.5945856 33.5925296,21.3050006 C33.5925296,17.0154157 30.0974545,13.5300938 25.7809765,13.5300938 L12.3775226,13.5300938 C8.0637863,13.5300938 4.56596957,17.0154157 4.56596957,21.3050006 C4.56596957,25.5945856 8.0637863,29.0608232 12.3775226,29.0608232 L25.7809765,29.0608232 Z M12.0677145,33.2931555 C5.40601585,33.2931555 0,27.931038 0,21.3050006 C0,14.6789632 5.40601585,9.29721626 12.0677145,9.29721626 L26.0935263,9.29721626 C32.7563216,9.29721626 38.1584991,14.6789632 38.1584991,21.3050006 C38.1584991,27.931038 32.7563216,33.2931555 26.0935263,33.2931555 L12.0677145,33.2931555 Z M60.9313203,25.5177035 C65.4380699,25.5177035 69.0970966,21.8987922 69.0970966,17.4172746 C69.0970966,12.9363023 65.4380699,9.29721626 60.9313203,9.29721626 L40.627643,9.29721626 L40.627643,33.2931555 L45.2670892,33.2931555 L45.2670892,13.5300938 L60.6231571,13.5300938 C62.7802995,13.5300938 64.5135804,15.2722095 64.5135804,17.4172746 C64.5135804,19.5623397 62.7802995,21.3050006 60.6231571,21.3050006 L47.5393815,21.2859164 L61.3935651,33.2931555 L68.1342237,33.2931555 L58.8131096,25.5177035 L60.9313203,25.5177035 Z M137.714402,29.0608232 L137.714402,9.29721626 L133.072762,9.29721626 L133.072762,30.9948715 C133.072762,31.588663 133.304159,32.1633703 133.747212,32.6039429 C134.189717,33.0439703 134.786851,33.2931555 135.442109,33.2931555 L156.60667,33.2931555 L159.341755,29.0608232 L137.714402,29.0608232 Z M80.9021595,24.8284909 L93.2851655,24.8284909 L86.7375202,14.3534411 L74.7202523,33.2931555 L69.2511782,33.2931555 L83.8680931,10.5425972 C84.5036112,9.6232836 85.5629907,9.06766049 86.7375202,9.06766049 C87.8742146,9.06766049 88.9330458,9.60365413 89.5488239,10.5038835 L104.223862,33.2931555 L98.754788,33.2931555 L96.1737842,29.0608232 L83.6366966,29.0608232 L80.9021595,24.8284909 Z M189.957624,13.3467151 C188.841989,13.3467151 187.929684,12.4467878 187.929684,11.3325533 C187.929684,10.2187256 188.841989,9.31879827 189.957624,9.31879827 C191.087695,9.31879827 192,10.2187256 192,11.3325533 C192,12.4467878 191.087695,13.3467151 189.957624,13.3467151 Z M189.769142,10.1329214 C190.087954,10.1329214 190.218283,10.1471543 190.36346,10.2044926 C190.768883,10.3329956 190.812601,10.6900386 190.812601,10.8327745 C190.812601,10.8612403 190.812601,10.9328116 190.783318,11.0182091 C190.768883,11.1040133 190.71073,11.2756216 190.507812,11.4041246 C190.479354,11.4183575 190.464919,11.4325904 190.406766,11.4610563 L190.928495,12.3898561 L190.421201,12.3898561 L189.957624,11.5326275 L189.639225,11.5326275 L189.639225,12.3898561 L189.190084,12.3898561 L189.190084,10.1329214 L189.769142,10.1329214 Z M189.928754,11.1613516 C190.073519,11.1471187 190.218283,11.1471187 190.305307,11.0182091 C190.349025,10.9612774 190.36346,10.9043457 190.36346,10.8185415 C190.36346,10.7042715 190.290872,10.6042344 190.189413,10.5473027 C190.087954,10.5041973 189.986907,10.5041973 189.769142,10.5041973 L189.639225,10.5041973 L189.639225,11.1613516 L189.928754,11.1613516 Z M188.36439,11.3183204 C188.36439,12.2040148 189.07419,12.9038679 189.957624,12.9038679 C190.855907,12.9038679 191.565706,12.2040148 191.565706,11.3183204 C191.565706,10.4472656 190.855907,9.74741253 189.957624,9.74741253 C189.07419,9.74741253 188.36439,10.4472656 188.36439,11.3183204 Z" id="Combined-Shape-Copy" fill="#EC1D24"></path>
    </g>
</svg>