<?xml version="1.0" encoding="UTF-8"?>
<svg width="105px" height="42px" viewBox="0 0 105 42" version="1.1" xmlns="http://www.w3.org/2000/svg" xmlns:xlink="http://www.w3.org/1999/xlink">
    <!-- Generator: Sketch 50.2 (55047) - http://www.bohemiancoding.com/sketch -->
    <title>Provider/OracleCI/oci-42</title>
    <desc>Created with Sketch.</desc>
    <defs></defs>
    <g id="Provider/OracleCI/oci-42" stroke="none" stroke-width="1" fill="none" fill-rule="evenodd">
        <path d="M3.358019,34.8092059 C2.2869908,34.8092059 1.47165261,34.5172947 0.911979979,33.9334635 C0.352307348,33.3496324 0.0523434231,32.5503996 0.012079205,31.5357413 C0.00402636141,31.3183146 0,30.9639948 0,30.4727713 C0,29.973495 0.00402636141,29.6111225 0.012079205,29.3856428 C0.0523434231,28.3709846 0.352307348,27.5717518 0.911979979,26.9879207 C1.47165261,26.4040895 2.2869908,26.1121783 3.358019,26.1121783 C4.07472208,26.1121783 4.68270265,26.2390087 5.18197896,26.4926732 C5.68125526,26.7463378 6.05772005,27.0785126 6.31138463,27.4892077 C6.5650492,27.8999027 6.70395867,28.3387761 6.7281172,28.805841 C6.7281172,28.8783166 6.70194585,28.9366988 6.64960237,28.9809895 C6.59725888,29.0252801 6.53485028,29.0474251 6.46237469,29.0474251 L5.85841444,29.0474251 C5.777886,29.0474251 5.71346422,29.0272933 5.66514716,28.9870291 C5.6168301,28.9467649 5.58059284,28.8783167 5.55643431,28.7816826 C5.41953597,28.1616136 5.17191474,27.7267666 4.8135632,27.4771285 C4.45521166,27.2274903 3.97003511,27.1026731 3.358019,27.1026731 C1.95682421,27.1026731 1.22805279,27.8837872 1.17168289,29.4460389 C1.16363004,29.6634657 1.15960368,29.9976536 1.15960368,30.4486129 C1.15960368,30.8995721 1.16363004,31.2418129 1.17168289,31.4753453 C1.22805279,33.0295441 1.95682421,33.8066319 3.358019,33.8066319 C3.96198227,33.8066319 4.44514564,33.6818147 4.8075236,33.4321765 C5.16990156,33.1825384 5.41953597,32.7517177 5.55643431,32.1397016 C5.58059284,32.0430675 5.6168301,31.9746193 5.66514716,31.9343551 C5.71346422,31.8940909 5.777886,31.8739591 5.85841444,31.8739591 L6.46237469,31.8739591 C6.53485028,31.8739591 6.59725888,31.8961041 6.64960237,31.9403947 C6.70194585,31.9846854 6.7281172,32.0430676 6.7281172,32.1155432 C6.70395867,32.5826081 6.5650492,33.0214815 6.31138463,33.4321765 C6.05772005,33.8428716 5.68125526,34.1750464 5.18197896,34.4287109 C4.68270265,34.6823755 4.07472208,34.8092059 3.358019,34.8092059 Z M8.10363669,34.6884139 C8.02310826,34.6884139 7.95667329,34.6622425 7.90432981,34.609899 C7.85198633,34.5575555 7.82581498,34.4911206 7.82581498,34.4105921 L7.82581498,26.39 C7.82581498,26.3014187 7.85198633,26.2329706 7.90432981,26.1846535 C7.95667329,26.1363365 8.02310826,26.1121783 8.10363669,26.1121783 L8.63512171,26.1121783 C8.71565015,26.1121783 8.78208511,26.1383496 8.8344286,26.1906931 C8.88677208,26.2430366 8.91294343,26.3094716 8.91294343,26.39 L8.91294343,34.4105921 C8.91294343,34.4911206 8.88677208,34.5575555 8.8344286,34.609899 C8.78208511,34.6622425 8.71565015,34.6884139 8.63512171,34.6884139 L8.10363669,34.6884139 Z M12.8734128,34.8092059 C11.9876,34.8092059 11.3051317,34.5595715 10.8259875,34.0602952 C10.3468434,33.5610189 10.0911694,32.8966693 10.058958,32.0672264 L10.0468788,31.5478205 L10.058958,31.0284147 C10.0911694,30.1989718 10.3508697,29.5346222 10.8380668,29.0353459 C11.3252638,28.5360696 12.0037057,28.2864352 12.8734128,28.2864352 C13.7431199,28.2864352 14.4215618,28.5360696 14.9087588,29.0353459 C15.3959559,29.5346222 15.6556562,30.1989718 15.6878676,31.0284147 C15.7039733,31.2055773 15.712026,31.3787108 15.712026,31.5478205 C15.712026,31.7169303 15.7039733,31.8900638 15.6878676,32.0672264 C15.6556562,32.8966693 15.3999822,33.5610189 14.9208381,34.0602952 C14.4416939,34.5595715 13.7592256,34.8092059 12.8734128,34.8092059 Z M12.8734128,33.9032655 C13.3887948,33.9032655 13.7974705,33.7401979 14.0994521,33.4140577 C14.4014337,33.0879176 14.5645014,32.6188465 14.5886599,32.0068303 C14.5967128,31.9263019 14.6007391,31.7733002 14.6007391,31.5478205 C14.6007391,31.3223409 14.5967128,31.1693392 14.5886599,31.0888108 C14.5645014,30.4767946 14.4014337,30.0077235 14.0994521,29.6815834 C13.7974705,29.3554432 13.3887948,29.1923756 12.8734128,29.1923756 C12.3580308,29.1923756 11.9493551,29.3554432 11.6473735,29.6815834 C11.3453919,30.0077235 11.1823242,30.4767946 11.1581657,31.0888108 L11.1460865,31.5478205 L11.1581657,32.0068303 C11.1823242,32.6188465 11.3453919,33.0879176 11.6473735,33.4140577 C11.9493551,33.7401979 12.3580308,33.9032655 12.8734128,33.9032655 Z M19.1772479,34.8092059 C18.4122278,34.8092059 17.8203527,34.5615847 17.4016048,34.0663348 C16.9828569,33.5710849 16.7734861,32.9127748 16.7734861,32.0913848 L16.7734861,28.685049 C16.7734861,28.6045205 16.7996575,28.5380856 16.852001,28.4857421 C16.9043445,28.4333986 16.9707794,28.4072272 17.0513079,28.4072272 L17.6069513,28.4072272 C17.6874797,28.4072272 17.7539147,28.4333986 17.8062582,28.4857421 C17.8586017,28.5380856 17.884773,28.6045205 17.884773,28.685049 L17.884773,32.0309887 C17.884773,33.255021 18.4162527,33.8670279 19.4792281,33.8670279 C19.9946101,33.8670279 20.4032857,33.7039603 20.7052674,33.3778201 C21.007249,33.0516799 21.1582376,32.6027406 21.1582376,32.0309887 L21.1582376,28.685049 C21.1582376,28.6045205 21.1844089,28.5380856 21.2367524,28.4857421 C21.2890959,28.4333986 21.3555308,28.4072272 21.4360593,28.4072272 L21.9917027,28.4072272 C22.0722312,28.4072272 22.1386661,28.4333986 22.1910096,28.4857421 C22.2433531,28.5380856 22.2695244,28.6045205 22.2695244,28.685049 L22.2695244,34.4105921 C22.2695244,34.4911206 22.2433531,34.5575555 22.1910096,34.609899 C22.1386661,34.6622425 22.0722312,34.6884139 21.9917027,34.6884139 L21.4722969,34.6884139 C21.3917685,34.6884139 21.3253335,34.6622425 21.27299,34.609899 C21.2206465,34.5575555 21.1944752,34.4911206 21.1944752,34.4105921 L21.1944752,33.8670279 C20.9609427,34.1810888 20.6871501,34.416631 20.3730892,34.5736614 C20.0590283,34.7306919 19.6604186,34.8092059 19.1772479,34.8092059 Z M25.9763305,34.8092059 C25.1307819,34.8092059 24.49663,34.5354133 24.0738557,33.98782 C23.6510814,33.4402266 23.423592,32.7476924 23.3913806,31.9101967 L23.3793014,31.5478205 L23.3913806,31.1854444 C23.423592,30.3560015 23.6530946,29.6654805 24.0798953,29.1138607 C24.506696,28.5622409 25.1388348,28.2864352 25.9763305,28.2864352 C26.8138262,28.2864352 27.4660968,28.5843859 27.9331617,29.1802964 L27.9331617,26.39 C27.9331617,26.3094716 27.9593331,26.2430366 28.0116765,26.1906931 C28.06402,26.1383496 28.130455,26.1121783 28.2109834,26.1121783 L28.7545477,26.1121783 C28.8350761,26.1121783 28.9015111,26.1383496 28.9538545,26.1906931 C29.006198,26.2430366 29.0323694,26.3094716 29.0323694,26.39 L29.0323694,34.4105921 C29.0323694,34.4911206 29.006198,34.5575555 28.9538545,34.609899 C28.9015111,34.6622425 28.8350761,34.6884139 28.7545477,34.6884139 L28.2351418,34.6884139 C28.1546134,34.6884139 28.0901916,34.6622425 28.0418746,34.609899 C27.9935575,34.5575555 27.9693993,34.4911206 27.9693993,34.4105921 L27.9693993,33.8911863 C27.5103872,34.5032024 26.8460376,34.8092059 25.9763305,34.8092059 Z M26.2058354,33.8670279 C26.7695344,33.8670279 27.1923024,33.6798021 27.4741519,33.3053449 C27.7560014,32.9308877 27.9090032,32.4859747 27.9331617,31.9705927 C27.9412146,31.8820114 27.9452409,31.7290097 27.9452409,31.5115829 C27.9452409,31.2861033 27.9412146,31.1290752 27.9331617,31.0404939 C27.917056,30.5492705 27.7620411,30.1244893 27.4681123,29.7661378 C27.1741835,29.4077863 26.7534288,29.2286132 26.2058354,29.2286132 C25.6260307,29.2286132 25.2032627,29.4097994 24.9375189,29.7721774 C24.671775,30.1345554 24.526826,30.609666 24.5026675,31.1975236 L24.4905883,31.5478205 C24.4905883,33.0939665 25.0623316,33.8670279 26.2058354,33.8670279 Z M33.4503386,34.6884139 C33.3698102,34.6884139 33.3053884,34.6622425 33.2570714,34.609899 C33.2087543,34.5575555 33.1845961,34.4911206 33.1845961,34.4105921 L33.1845961,26.5107921 C33.1845961,26.4302636 33.2087543,26.3638287 33.2570714,26.3114852 C33.3053884,26.2591417 33.3698102,26.2329703 33.4503386,26.2329703 L34.0542989,26.2329703 C34.1428802,26.2329703 34.2113283,26.2571285 34.2596454,26.3054456 C34.3079624,26.3537626 34.3321206,26.4222108 34.3321206,26.5107921 L34.3321206,34.4105921 C34.3321206,34.4911206 34.3059493,34.5575555 34.2536058,34.609899 C34.2012623,34.6622425 34.1348273,34.6884139 34.0542989,34.6884139 L33.4503386,34.6884139 Z M36.1787291,34.6884139 C36.0982007,34.6884139 36.0317657,34.6622425 35.9794222,34.609899 C35.9270787,34.5575555 35.9009074,34.4911206 35.9009074,34.4105921 L35.9009074,28.685049 C35.9009074,28.6045205 35.9270787,28.5380856 35.9794222,28.4857421 C36.0317657,28.4333986 36.0982007,28.4072272 36.1787291,28.4072272 L36.6981349,28.4072272 C36.7867162,28.4072272 36.8551643,28.4313854 36.9034814,28.4797025 C36.9517985,28.5280195 36.9759566,28.5964677 36.9759566,28.685049 L36.9759566,29.216534 C37.2175419,28.9185788 37.4973741,28.6890762 37.8154614,28.5280193 C38.1335487,28.3669624 38.5301453,28.2864352 39.0052631,28.2864352 C39.7783361,28.2864352 40.3782639,28.5340564 40.8050646,29.0293063 C41.2318653,29.5245562 41.4452625,30.1788399 41.4452625,30.9921771 L41.4452625,34.4105921 C41.4452625,34.4911206 41.4190911,34.5575555 41.3667477,34.609899 C41.3144042,34.6622425 41.2479692,34.6884139 41.1674408,34.6884139 L40.6117973,34.6884139 C40.5312689,34.6884139 40.4648339,34.6622425 40.4124905,34.609899 C40.360147,34.5575555 40.3339756,34.4911206 40.3339756,34.4105921 L40.3339756,31.0646523 C40.3339756,30.4848476 40.193053,30.0338951 39.9112035,29.7117814 C39.6293539,29.3896676 39.2267178,29.2286132 38.703283,29.2286132 C38.187901,29.2286132 37.7772121,29.3916808 37.471204,29.717821 C37.165196,30.0439612 37.0121943,30.4929004 37.0121943,31.0646523 L37.0121943,34.4105921 C37.0121943,34.4911206 36.9860229,34.5575555 36.9336794,34.609899 C36.8813359,34.6622425 36.814901,34.6884139 36.7343725,34.6884139 L36.1787291,34.6884139 Z M43.6059303,34.6884139 C43.5254019,34.6884139 43.4589669,34.6622425 43.4066234,34.609899 C43.35428,34.5575555 43.3281086,34.4911206 43.3281086,34.4105921 L43.3281086,29.337326 L42.289297,29.337326 C42.2087685,29.337326 42.1423336,29.3131679 42.0899901,29.2648508 C42.0376466,29.2165337 42.0114753,29.152112 42.0114753,29.0715835 L42.0114753,28.685049 C42.0114753,28.6045205 42.0376466,28.5380856 42.0899901,28.4857421 C42.1423336,28.4333986 42.2087685,28.4072272 42.289297,28.4072272 L43.3281086,28.4072272 L43.3281086,27.803267 C43.3281086,27.1509867 43.4871499,26.6456783 43.8052372,26.2873268 C44.1233245,25.9289752 44.6447383,25.7498021 45.3694943,25.7498021 L46.0821673,25.7498021 C46.1626958,25.7498021 46.2291307,25.7759735 46.2814742,25.828317 C46.3338177,25.8806605 46.3599891,25.9470954 46.3599891,26.0276239 L46.3599891,26.4141584 C46.3599891,26.4946868 46.3338177,26.5591086 46.2814742,26.6074257 C46.2291307,26.6557428 46.1626958,26.6799009 46.0821673,26.6799009 L45.3936527,26.6799009 C45.0232219,26.6799009 44.7655347,26.7765336 44.6205835,26.9698018 C44.4756324,27.1630701 44.4031578,27.4610208 44.4031578,27.863663 L44.4031578,28.4072272 L45.9613753,28.4072272 C46.0419037,28.4072272 46.1083387,28.4333986 46.1606822,28.4857421 C46.2130257,28.5380856 46.239197,28.6045205 46.239197,28.685049 L46.239197,29.0715835 C46.239197,29.152112 46.2130257,29.2165337 46.1606822,29.2648508 C46.1083387,29.3131679 46.0419037,29.337326 45.9613753,29.337326 L44.4031578,29.337326 L44.4031578,34.4105921 C44.4031578,34.4911206 44.3769865,34.5575555 44.324643,34.609899 C44.2722995,34.6622425 44.2058646,34.6884139 44.1253361,34.6884139 L43.6059303,34.6884139 Z M47.1919443,34.6884139 C47.1114159,34.6884139 47.0449809,34.6622425 46.9926374,34.609899 C46.940294,34.5575555 46.9141226,34.4911206 46.9141226,34.4105921 L46.9141226,28.6971282 C46.9141226,28.6165997 46.940294,28.5481516 46.9926374,28.4917817 C47.0449809,28.4354118 47.1114159,28.4072272 47.1919443,28.4072272 L47.6992709,28.4072272 C47.7878522,28.4072272 47.8583135,28.4333986 47.910657,28.4857421 C47.9630005,28.5380856 47.9891719,28.6085469 47.9891719,28.6971282 L47.9891719,29.2286132 C48.3193385,28.6810198 48.8790027,28.4072272 49.6681814,28.4072272 L50.1392704,28.4072272 C50.2278516,28.4072272 50.2962998,28.4313854 50.3446168,28.4797025 C50.3929339,28.5280195 50.4170921,28.5964677 50.4170921,28.685049 L50.4170921,29.1319795 C50.4170921,29.212508 50.3929339,29.2789429 50.3446168,29.3312864 C50.2962998,29.3836299 50.2278516,29.4098013 50.1392704,29.4098013 L49.4507557,29.4098013 C49.0078493,29.4098013 48.659569,29.5386448 48.4059044,29.7963358 C48.1522399,30.0540268 48.0254095,30.4043203 48.0254095,30.8472267 L48.0254095,34.4105921 C48.0254095,34.4911206 47.9972249,34.5575555 47.940855,34.609899 C47.8844851,34.6622425 47.816037,34.6884139 47.7355086,34.6884139 L47.1919443,34.6884139 Z M52.6985519,34.8092059 C52.3039626,34.8092059 51.9395769,34.7286787 51.6053839,34.5676218 C51.2711909,34.4065649 51.005451,34.1871282 50.8081564,33.9093051 C50.6108617,33.631482 50.5122158,33.3234654 50.5122158,32.9852459 C50.5122158,32.4537583 50.7296393,32.0189112 51.1644929,31.6806918 C51.5993465,31.3424724 52.1912216,31.1169961 52.940136,31.0042563 L54.7520168,30.750593 L54.7520168,30.4002961 C54.7520168,29.5708532 54.2728798,29.156138 53.3145914,29.156138 C52.9441606,29.156138 52.6462098,29.2306256 52.4207302,29.3796032 C52.1952506,29.5285809 52.0301698,29.7037276 51.9254828,29.9050487 C51.8932714,29.9855771 51.8590474,30.039933 51.8228096,30.0681179 C51.7865718,30.0963029 51.7362423,30.1103951 51.6718195,30.1103951 L51.2007305,30.1103951 C51.1282549,30.1103951 51.0658463,30.0842238 51.0135028,30.0318803 C50.9611594,29.9795368 50.934988,29.9171282 50.934988,29.8446526 C50.934988,29.6594372 51.0215548,29.4440269 51.1946909,29.1984152 C51.3678271,28.9528034 51.6355801,28.7394063 51.9979581,28.5582173 C52.360336,28.3770283 52.8032358,28.2864352 53.3266706,28.2864352 C54.2285891,28.2864352 54.8748201,28.495806 55.265383,28.9145539 C55.6559459,29.3333017 55.8512245,29.8567287 55.8512245,30.4848505 L55.8512245,34.4105921 C55.8512245,34.4911206 55.8250531,34.5575555 55.7727096,34.609899 C55.7203661,34.6622425 55.6539312,34.6884139 55.5734027,34.6884139 L55.0419177,34.6884139 C54.9613893,34.6884139 54.8969675,34.6622425 54.8486504,34.609899 C54.8003334,34.5575555 54.7761752,34.4911206 54.7761752,34.4105921 L54.7761752,33.8791071 C54.5990126,34.144851 54.3413255,34.3663008 54.0031061,34.5434634 C53.6648867,34.720626 53.2300396,34.8092059 52.6985519,34.8092059 Z M52.940136,33.9274239 C53.4716237,33.9274239 53.9064708,33.7542904 54.2446902,33.4080181 C54.5829096,33.0617458 54.7520168,32.5584507 54.7520168,31.8981175 L54.7520168,31.5598998 L53.3387498,31.7652462 C52.7589451,31.8457747 52.3200717,31.982671 52.0221165,32.1759392 C51.7241612,32.3692075 51.5751859,32.6107891 51.5751859,32.9006915 C51.5751859,33.2308581 51.710069,33.4845189 51.9798392,33.6616814 C52.2496095,33.838844 52.5697052,33.9274239 52.940136,33.9274239 Z M59.352684,34.8092059 C58.7970378,34.8092059 58.3279667,34.7186128 57.9454566,34.5374238 C57.5629466,34.3562348 57.2790881,34.1488772 57.0938727,33.9153447 C56.9086573,33.6818123 56.816051,33.4885469 56.816051,33.3355429 C56.816051,33.2550145 56.8442355,33.1926059 56.9006054,33.1483152 C56.9569753,33.1040246 57.0173707,33.0818796 57.0817935,33.0818796 L57.5891201,33.0818796 C57.6374372,33.0818796 57.6756876,33.0899323 57.7038725,33.106038 C57.7320575,33.1221437 57.7703079,33.1583809 57.818625,33.2147508 C58.0038404,33.4402305 58.211198,33.6173904 58.4407041,33.7462359 C58.6702101,33.8750814 58.9782267,33.9395031 59.3647632,33.9395031 C59.7996168,33.9395031 60.1478971,33.8589759 60.4096145,33.697919 C60.6713319,33.5368622 60.8021886,33.3033332 60.8021886,32.9973252 C60.8021886,32.7960041 60.7458196,32.6349496 60.6330798,32.5141569 C60.52034,32.3933643 60.3331142,32.2846525 60.0713967,32.1880184 C59.8096793,32.0913843 59.4211354,31.9866989 58.9057534,31.8739591 C58.2051561,31.7209551 57.7099136,31.4995052 57.4200112,31.2096028 C57.1301089,30.9197004 56.9851598,30.5452488 56.9851598,30.0862367 C56.9851598,29.7882815 57.0737398,29.5003967 57.2509024,29.2225736 C57.4280649,28.9447505 57.6917916,28.7192742 58.0420903,28.5461381 C58.392389,28.373002 58.8091174,28.2864352 59.292288,28.2864352 C59.7996172,28.2864352 60.232451,28.3709888 60.5908025,28.5400985 C60.9491541,28.7092082 61.2189203,28.9064999 61.4001093,29.1319795 C61.5812983,29.3574592 61.6718914,29.5466981 61.6718914,29.6997022 C61.6718914,29.7721778 61.64572,29.8325732 61.5933766,29.8808903 C61.5410331,29.9292073 61.4786245,29.9533655 61.4061489,29.9533655 L60.9471391,29.9533655 C60.8343993,29.9533655 60.7538721,29.9090755 60.705555,29.8204942 C60.5686567,29.6674902 60.4539054,29.5487125 60.3612977,29.4641577 C60.26869,29.3796028 60.1338068,29.3071283 59.9566443,29.246732 C59.7794817,29.1863357 59.5580318,29.156138 59.292288,29.156138 C58.8976987,29.156138 58.5957216,29.2386784 58.3863476,29.4037617 C58.1769737,29.5688449 58.0722883,29.7882816 58.0722883,30.0620783 C58.0722883,30.231188 58.1165783,30.3741239 58.2051596,30.4908901 C58.2937408,30.6076563 58.462848,30.7163681 58.7124862,30.8170286 C58.9621243,30.9176892 59.3325496,31.0203614 59.823773,31.1250484 C60.5887932,31.2861052 61.1303388,31.5156078 61.4484261,31.8135631 C61.7665134,32.1115183 61.9255547,32.4940226 61.9255547,32.9610875 C61.9255547,33.3073598 61.8269088,33.621416 61.6296142,33.9032655 C61.4323195,34.1851151 61.1383951,34.4065649 60.7478322,34.5676218 C60.3572693,34.7286787 59.8922246,34.8092059 59.352684,34.8092059 Z M65.3424598,34.6884139 C64.0942691,34.6884139 63.4701831,33.9838006 63.4701831,32.574553 L63.4701831,29.337326 L62.5159259,29.337326 C62.4353974,29.337326 62.3709757,29.3131679 62.3226586,29.2648508 C62.2743415,29.2165337 62.2501834,29.152112 62.2501834,29.0715835 L62.2501834,28.685049 C62.2501834,28.6045205 62.2743415,28.5380856 62.3226586,28.4857421 C62.3709757,28.4333986 62.4353974,28.4072272 62.5159259,28.4072272 L63.4701831,28.4072272 L63.4701831,26.39 C63.4701831,26.3094716 63.4943412,26.2430366 63.5426583,26.1906931 C63.5909754,26.1383496 63.6553971,26.1121783 63.7359256,26.1121783 L64.2674106,26.1121783 C64.347939,26.1121783 64.414374,26.1383496 64.4667175,26.1906931 C64.519061,26.2430366 64.5452323,26.3094716 64.5452323,26.39 L64.5452323,28.4072272 L66.0430537,28.4072272 C66.1235822,28.4072272 66.1900171,28.4333986 66.2423606,28.4857421 C66.2947041,28.5380856 66.3208755,28.6045205 66.3208755,28.685049 L66.3208755,29.0715835 C66.3208755,29.152112 66.2947041,29.2165337 66.2423606,29.2648508 C66.1900171,29.3131679 66.1235822,29.337326 66.0430537,29.337326 L64.5452323,29.337326 L64.5452323,32.4899985 C64.5452323,32.9006936 64.6116673,33.2107234 64.7445392,33.4200973 C64.8774111,33.6294713 65.1049005,33.7341567 65.4270143,33.7341567 L66.1638458,33.7341567 C66.2443742,33.7341567 66.308796,33.760328 66.3571131,33.8126715 C66.4054301,33.865015 66.4295883,33.9314499 66.4295883,34.0119784 L66.4295883,34.4105921 C66.4295883,34.4911206 66.4054301,34.5575555 66.3571131,34.609899 C66.308796,34.6622425 66.2443742,34.6884139 66.1638458,34.6884139 L65.3424598,34.6884139 Z M67.4910485,34.6884139 C67.41052,34.6884139 67.3440851,34.6622425 67.2917416,34.609899 C67.2393981,34.5575555 67.2132267,34.4911206 67.2132267,34.4105921 L67.2132267,28.6971282 C67.2132267,28.6165997 67.2393981,28.5481516 67.2917416,28.4917817 C67.3440851,28.4354118 67.41052,28.4072272 67.4910485,28.4072272 L67.9983751,28.4072272 C68.0869564,28.4072272 68.1574177,28.4333986 68.2097612,28.4857421 C68.2621046,28.5380856 68.288276,28.6085469 68.288276,28.6971282 L68.288276,29.2286132 C68.6184426,28.6810198 69.1781068,28.4072272 69.9672855,28.4072272 L70.4383745,28.4072272 C70.5269558,28.4072272 70.5954039,28.4313854 70.643721,28.4797025 C70.692038,28.5280195 70.7161962,28.5964677 70.7161962,28.685049 L70.7161962,29.1319795 C70.7161962,29.212508 70.692038,29.2789429 70.643721,29.3312864 C70.5954039,29.3836299 70.5269558,29.4098013 70.4383745,29.4098013 L69.7498598,29.4098013 C69.3069534,29.4098013 68.9586731,29.5386448 68.7050086,29.7963358 C68.451344,30.0540268 68.3245136,30.4043203 68.3245136,30.8472267 L68.3245136,34.4105921 C68.3245136,34.4911206 68.2963291,34.5575555 68.2399592,34.609899 C68.1835893,34.6622425 68.1151411,34.6884139 68.0346127,34.6884139 L67.4910485,34.6884139 Z M73.69825,34.8092059 C72.9332298,34.8092059 72.3413547,34.5615847 71.9226068,34.0663348 C71.503859,33.5710849 71.2944882,32.9127748 71.2944882,32.0913848 L71.2944882,28.685049 C71.2944882,28.6045205 71.3206595,28.5380856 71.373003,28.4857421 C71.4253465,28.4333986 71.4917814,28.4072272 71.5723099,28.4072272 L72.1279533,28.4072272 C72.2084818,28.4072272 72.2749167,28.4333986 72.3272602,28.4857421 C72.3796037,28.5380856 72.405775,28.6045205 72.405775,28.685049 L72.405775,32.0309887 C72.405775,33.255021 72.9372547,33.8670279 74.0002301,33.8670279 C74.5156121,33.8670279 74.9242878,33.7039603 75.2262694,33.3778201 C75.528251,33.0516799 75.6792396,32.6027406 75.6792396,32.0309887 L75.6792396,28.685049 C75.6792396,28.6045205 75.7054109,28.5380856 75.7577544,28.4857421 C75.8100979,28.4333986 75.8765329,28.4072272 75.9570613,28.4072272 L76.5127047,28.4072272 C76.5932332,28.4072272 76.6596681,28.4333986 76.7120116,28.4857421 C76.7643551,28.5380856 76.7905265,28.6045205 76.7905265,28.685049 L76.7905265,34.4105921 C76.7905265,34.4911206 76.7643551,34.5575555 76.7120116,34.609899 C76.6596681,34.6622425 76.5932332,34.6884139 76.5127047,34.6884139 L75.9932989,34.6884139 C75.9127705,34.6884139 75.8463355,34.6622425 75.793992,34.609899 C75.7416486,34.5575555 75.7154772,34.4911206 75.7154772,34.4105921 L75.7154772,33.8670279 C75.4819447,34.1810888 75.2081522,34.416631 74.8940913,34.5736614 C74.5800304,34.7306919 74.1814206,34.8092059 73.69825,34.8092059 Z M80.7147582,34.8092059 C79.8531039,34.8092059 79.1807016,34.565611 78.697531,34.078414 C78.2143604,33.591217 77.9606996,32.9087487 77.9365411,32.0309887 L77.9244618,31.5478205 L77.9365411,31.0646523 C77.9606996,30.1868924 78.2143604,29.5044241 78.697531,29.0172271 C79.1807016,28.5300301 79.8531039,28.2864352 80.7147582,28.2864352 C81.2945629,28.2864352 81.7837659,28.3891074 82.1823816,28.5944549 C82.5809974,28.7998024 82.8789481,29.0554764 83.0762428,29.3614844 C83.2735375,29.6674925 83.380236,29.973496 83.3963417,30.279504 C83.4043946,30.3519796 83.3782232,30.4164014 83.3178269,30.4727713 C83.2574306,30.5291412 83.1909956,30.5573257 83.11852,30.5573257 L82.587035,30.5573257 C82.5065066,30.5573257 82.4461111,30.5392071 82.4058469,30.5029693 C82.3655827,30.4667315 82.3253191,30.4002966 82.2850549,30.3036624 C82.1401037,29.9090731 81.9407988,29.629241 81.6871342,29.4641577 C81.4334696,29.2990744 81.1133739,29.216534 80.7268374,29.216534 C80.2195083,29.216534 79.8168721,29.3735621 79.5189169,29.687623 C79.2209617,30.0016839 79.0599072,30.4808209 79.0357487,31.1250484 L79.0236695,31.5478205 L79.0357487,31.9705927 C79.0599072,32.6148202 79.2209617,33.0939572 79.5189169,33.4080181 C79.8168721,33.722079 80.2195083,33.8791071 80.7268374,33.8791071 C81.1214268,33.8791071 81.4435357,33.7965667 81.6931738,33.6314834 C81.942812,33.4664001 82.1401037,33.186568 82.2850549,32.7919787 C82.3253191,32.6953445 82.3655827,32.6289096 82.4058469,32.5926718 C82.4461111,32.556434 82.5065066,32.5383154 82.587035,32.5383154 L83.11852,32.5383154 C83.1909956,32.5383154 83.2574306,32.5664999 83.3178269,32.6228698 C83.3782232,32.6792397 83.4043946,32.7436615 83.3963417,32.8161371 C83.380236,33.1140923 83.2735375,33.4160694 83.0762428,33.7220775 C82.8789481,34.0280855 82.5809974,34.2857726 82.1823816,34.4951466 C81.7837659,34.7045205 81.2945629,34.8092059 80.7147582,34.8092059 Z M86.8615637,34.6884139 C85.6133729,34.6884139 84.9892869,33.9838006 84.9892869,32.574553 L84.9892869,29.337326 L84.0350297,29.337326 C83.9545013,29.337326 83.8900795,29.3131679 83.8417624,29.2648508 C83.7934454,29.2165337 83.7692872,29.152112 83.7692872,29.0715835 L83.7692872,28.685049 C83.7692872,28.6045205 83.7934454,28.5380856 83.8417624,28.4857421 C83.8900795,28.4333986 83.9545013,28.4072272 84.0350297,28.4072272 L84.9892869,28.4072272 L84.9892869,26.39 C84.9892869,26.3094716 85.0134451,26.2430366 85.0617621,26.1906931 C85.1100792,26.1383496 85.174501,26.1121783 85.2550294,26.1121783 L85.7865144,26.1121783 C85.8670429,26.1121783 85.9334778,26.1383496 85.9858213,26.1906931 C86.0381648,26.2430366 86.0643362,26.3094716 86.0643362,26.39 L86.0643362,28.4072272 L87.5621576,28.4072272 C87.642686,28.4072272 87.709121,28.4333986 87.7614645,28.4857421 C87.8138079,28.5380856 87.8399793,28.6045205 87.8399793,28.685049 L87.8399793,29.0715835 C87.8399793,29.152112 87.8138079,29.2165337 87.7614645,29.2648508 C87.709121,29.3131679 87.642686,29.337326 87.5621576,29.337326 L86.0643362,29.337326 L86.0643362,32.4899985 C86.0643362,32.9006936 86.1307711,33.2107234 86.263643,33.4200973 C86.396515,33.6294713 86.6240044,33.7341567 86.9461181,33.7341567 L87.6829496,33.7341567 C87.7634781,33.7341567 87.8278998,33.760328 87.8762169,33.8126715 C87.924534,33.865015 87.9486921,33.9314499 87.9486921,34.0119784 L87.9486921,34.4105921 C87.9486921,34.4911206 87.924534,34.5575555 87.8762169,34.609899 C87.8278998,34.6622425 87.7634781,34.6884139 87.6829496,34.6884139 L86.8615637,34.6884139 Z M91.0756964,34.8092059 C90.3106762,34.8092059 89.7188011,34.5615847 89.3000532,34.0663348 C88.8813054,33.5710849 88.6719346,32.9127748 88.6719346,32.0913848 L88.6719346,28.685049 C88.6719346,28.6045205 88.6981059,28.5380856 88.7504494,28.4857421 C88.8027929,28.4333986 88.8692278,28.4072272 88.9497563,28.4072272 L89.5053997,28.4072272 C89.5859281,28.4072272 89.6523631,28.4333986 89.7047066,28.4857421 C89.7570501,28.5380856 89.7832214,28.6045205 89.7832214,28.685049 L89.7832214,32.0309887 C89.7832214,33.255021 90.3147011,33.8670279 91.3776765,33.8670279 C91.8930585,33.8670279 92.3017342,33.7039603 92.6037158,33.3778201 C92.9056974,33.0516799 93.056686,32.6027406 93.056686,32.0309887 L93.056686,28.685049 C93.056686,28.6045205 93.0828573,28.5380856 93.1352008,28.4857421 C93.1875443,28.4333986 93.2539793,28.4072272 93.3345077,28.4072272 L93.8901511,28.4072272 C93.9706796,28.4072272 94.0371145,28.4333986 94.089458,28.4857421 C94.1418015,28.5380856 94.1679728,28.6045205 94.1679728,28.685049 L94.1679728,34.4105921 C94.1679728,34.4911206 94.1418015,34.5575555 94.089458,34.609899 C94.0371145,34.6622425 93.9706796,34.6884139 93.8901511,34.6884139 L93.3707453,34.6884139 C93.2902169,34.6884139 93.2237819,34.6622425 93.1714384,34.609899 C93.119095,34.5575555 93.0929236,34.4911206 93.0929236,34.4105921 L93.0929236,33.8670279 C92.8593911,34.1810888 92.5855986,34.416631 92.2715377,34.5736614 C91.9574768,34.7306919 91.558867,34.8092059 91.0756964,34.8092059 Z M95.8575517,34.6884139 C95.7770232,34.6884139 95.7105883,34.6622425 95.6582448,34.609899 C95.6059013,34.5575555 95.57973,34.4911206 95.57973,34.4105921 L95.57973,28.6971282 C95.57973,28.6165997 95.6059013,28.5481516 95.6582448,28.4917817 C95.7105883,28.4354118 95.7770232,28.4072272 95.8575517,28.4072272 L96.3648783,28.4072272 C96.4534596,28.4072272 96.5239209,28.4333986 96.5762644,28.4857421 C96.6286079,28.5380856 96.6547792,28.6085469 96.6547792,28.6971282 L96.6547792,29.2286132 C96.9849458,28.6810198 97.54461,28.4072272 98.3337887,28.4072272 L98.8048777,28.4072272 C98.893459,28.4072272 98.9619071,28.4313854 99.0102242,28.4797025 C99.0585412,28.5280195 99.0826994,28.5964677 99.0826994,28.685049 L99.0826994,29.1319795 C99.0826994,29.212508 99.0585412,29.2789429 99.0102242,29.3312864 C98.9619071,29.3836299 98.893459,29.4098013 98.8048777,29.4098013 L98.116363,29.4098013 C97.6734566,29.4098013 97.3251764,29.5386448 97.0715118,29.7963358 C96.8178472,30.0540268 96.6910168,30.4043203 96.6910168,30.8472267 L96.6910168,34.4105921 C96.6910168,34.4911206 96.6628323,34.5575555 96.6064624,34.609899 C96.5500925,34.6622425 96.4816443,34.6884139 96.4011159,34.6884139 L95.8575517,34.6884139 Z M102.209704,34.8092059 C101.388314,34.8092059 100.732017,34.553532 100.240793,34.0421764 C99.7495698,33.5308208 99.4798035,32.8322471 99.4314865,31.9464343 L99.4194073,31.5357413 L99.4314865,31.1371276 C99.4798035,30.2674205 99.7495698,29.5748863 100.240793,29.0595043 C100.732017,28.5441223 101.388314,28.2864352 102.209704,28.2864352 C103.095516,28.2864352 103.782011,28.5682805 104.269208,29.1319795 C104.756405,29.6956786 105,30.4606873 105,31.4270285 L105,31.6444542 C105,31.7249826 104.973829,31.7914176 104.921485,31.8437611 C104.869142,31.8961046 104.802707,31.9222759 104.722178,31.9222759 L100.530694,31.9222759 L100.530694,32.0309887 C100.554853,32.5544236 100.715907,33.0013497 101.013862,33.3717805 C101.311818,33.7422113 101.706401,33.9274239 102.197624,33.9274239 C102.576108,33.9274239 102.884125,33.8529363 103.121684,33.7039586 C103.359243,33.554981 103.538416,33.3999661 103.659208,33.2389093 C103.731684,33.1422751 103.788053,33.0838929 103.828317,33.0637608 C103.868581,33.0436287 103.937029,33.0335628 104.033664,33.0335628 L104.565149,33.0335628 C104.637624,33.0335628 104.700033,33.0536946 104.752376,33.0939588 C104.80472,33.134223 104.830891,33.1865657 104.830891,33.2509885 C104.830891,33.428151 104.722179,33.6415482 104.504753,33.8911863 C104.287326,34.1408245 103.979309,34.3562348 103.580693,34.5374238 C103.182078,34.7186128 102.725086,34.8092059 102.209704,34.8092059 Z M103.900792,31.10089 L103.900792,31.0646523 C103.900792,30.5009533 103.747791,30.0419481 103.441783,29.687623 C103.135774,29.3332979 102.725086,29.156138 102.209704,29.156138 C101.686269,29.156138 101.27558,29.3332979 100.977625,29.687623 C100.67967,30.0419481 100.530694,30.5009533 100.530694,31.0646523 L100.530694,31.10089 L103.900792,31.10089 Z" id="Combined-Shape" fill="#616870"></path>
        <path d="M93.1328901,19.7288258 C91.1885072,19.7288258 89.5385645,18.4545455 89.0340663,16.6971798 L99.858935,16.6971798 L101.351185,14.4260055 L89.0340663,14.4260055 C89.5385645,12.6791735 91.1885072,11.3946521 93.1328901,11.3946521 L100.562719,11.3946521 L102.065741,9.12318531 L92.964724,9.12318531 C89.3282073,9.12318531 86.3754263,12.0111639 86.3754263,15.5668595 C86.3754263,19.1225551 89.3282073,22 92.964724,22 L100.773076,22 L102.265625,19.7288258 L93.1328901,19.7288258 Z M62.161605,22 C58.5256867,22 55.5726065,19.1225551 55.5726065,15.5668595 C55.5726065,12.0111639 58.5256867,9.12318531 62.161605,9.12318531 L71.252448,9.12318531 L69.7706714,11.3946521 L62.3300703,11.3946521 C59.9757452,11.3946521 58.0630804,13.2649621 58.0630804,15.5668595 C58.0630804,17.8687569 59.9757452,19.7288258 62.3300703,19.7288258 L71.462506,19.7288258 L69.9702564,22 L62.161605,22 Z M14.0687984,19.7288258 C16.4243205,19.7288258 18.3315992,17.8687569 18.3315992,15.5668595 C18.3315992,13.2649621 16.4243205,11.3946521 14.0687984,11.3946521 L6.7544715,11.3946521 C4.40044557,11.3946521 2.49167077,13.2649621 2.49167077,15.5668595 C2.49167077,17.8687569 4.40044557,19.7288258 6.7544715,19.7288258 L14.0687984,19.7288258 Z M6.58540774,22 C2.95008792,22 0,19.1225551 0,15.5668595 C0,12.0111639 2.95008792,9.12318531 6.58540774,9.12318531 L14.2393583,9.12318531 C17.8752766,9.12318531 20.8232699,12.0111639 20.8232699,15.5668595 C20.8232699,19.1225551 17.8752766,22 14.2393583,22 L6.58540774,22 Z M33.250504,17.8275001 C35.7098582,17.8275001 37.706606,15.8855027 37.706606,13.4806095 C37.706606,11.0760089 35.7098582,9.12318531 33.250504,9.12318531 L22.1706932,9.12318531 L22.1706932,22 L24.7024605,22 L24.7024605,11.3946521 L33.082338,11.3946521 C34.2595005,11.3946521 35.20536,12.3295145 35.20536,13.4806095 C35.20536,14.6317045 34.2595005,15.5668595 33.082338,15.5668595 L25.9424609,15.5566184 L33.5027532,22 L37.1811618,22 L32.0945866,17.8275001 L33.250504,17.8275001 Z M75.1513876,19.7288258 L75.1513876,9.12318531 L72.6184234,9.12318531 L72.6184234,20.7666839 C72.6184234,21.0853272 72.7446976,21.3937293 72.9864737,21.6301515 C73.2279506,21.866281 73.5538098,22 73.9113872,22 L85.4609858,22 L86.9535346,19.7288258 L75.1513876,19.7288258 Z M44.1486836,17.4576515 L50.9061474,17.4576515 L47.3330669,11.8364807 L40.7751882,22 L37.7906891,22 L45.7672073,9.79148754 C46.1140125,9.29816111 46.6921208,9 47.3330669,9 C47.9533664,9 48.5311755,9.28762745 48.8672084,9.77071282 L56.8754448,22 L53.8909457,22 L52.48248,19.7288258 L45.6409331,19.7288258 L44.1486836,17.4576515 Z M103.627964,11.660869 C102.878497,11.660869 102.265625,11.066371 102.265625,10.3303002 C102.265625,9.59449804 102.878497,9 103.627964,9 C104.387128,9 105,9.59449804 105,10.3303002 C105,11.066371 104.387128,11.660869 103.627964,11.660869 Z M103.501344,9.53781522 C103.715517,9.53781522 103.80307,9.54721758 103.900598,9.58509568 C104.172955,9.66998559 104.202324,9.90585061 104.202324,10.0001429 C104.202324,10.0189476 104.202324,10.0662281 104.182652,10.1226423 C104.172955,10.1793251 104.133888,10.2926907 103.997571,10.3775806 C103.978454,10.386983 103.968756,10.3963854 103.92969,10.4151901 L104.28018,11.0287615 L103.939387,11.0287615 L103.627964,10.4624706 L103.414068,10.4624706 L103.414068,11.0287615 L103.112342,11.0287615 L103.112342,9.53781522 L103.501344,9.53781522 Z M103.608569,10.2172032 C103.70582,10.2078008 103.80307,10.2078008 103.861531,10.1226423 C103.8909,10.0850328 103.900598,10.0474233 103.900598,9.99074053 C103.900598,9.91525297 103.851834,9.84916779 103.783676,9.81155833 C103.715517,9.7830826 103.647636,9.7830826 103.501344,9.7830826 L103.414068,9.7830826 L103.414068,10.2172032 L103.608569,10.2172032 Z M102.557654,10.3208978 C102.557654,10.9059935 103.034486,11.3683212 103.627964,11.3683212 C104.231416,11.3683212 104.708248,10.9059935 104.708248,10.3208978 C104.708248,9.74547314 104.231416,9.28314548 103.627964,9.28314548 C103.034486,9.28314548 102.557654,9.74547314 102.557654,10.3208978 Z" id="Combined-Shape-Copy" fill="#616870"></path>
    </g>
</svg>