<?xml version="1.0" encoding="UTF-8"?>
<svg width="105px" height="42px" viewBox="0 0 105 42" version="1.1" xmlns="http://www.w3.org/2000/svg" xmlns:xlink="http://www.w3.org/1999/xlink">
    <!-- Generator: Sketch 47.1 (45422) - http://www.bohemiancoding.com/sketch -->
    <title>Provider/OraclePC/opc-42</title>
    <desc>Created with Sketch.</desc>
    <defs></defs>
    <g id="Symbols" stroke="none" stroke-width="1" fill="none" fill-rule="evenodd">
        <g id="Provider/OraclePC/opc-42" fill="#616870">
            <path d="M76.0850877,25.3248698 C75.516079,24.7081132 75.2111113,23.8638074 75.1701754,22.7919271 C75.1619883,22.5622384 75.1578947,22.1879366 75.1578947,21.6690104 C75.1578947,21.1415772 75.1619883,20.7587686 75.1701754,20.5205729 C75.2111113,19.4486926 75.516079,18.6043868 76.0850877,17.9876302 C76.6540964,17.3708737 77.4830355,17.0625 78.5719298,17.0625 C79.3005884,17.0625 79.9187109,17.196483 80.4263158,17.4644531 C80.9339207,17.7324232 81.3166654,18.0833312 81.5745614,18.5171875 C81.8324574,18.9510438 81.9736841,19.4146677 81.9982456,19.9080729 C81.9982456,19.9846358 81.9716377,20.0463105 81.9184211,20.093099 C81.8652044,20.1398874 81.8017548,20.1632812 81.7280702,20.1632812 L81.1140351,20.1632812 C81.0321633,20.1632812 80.9666669,20.1420141 80.9175439,20.0994792 C80.8684208,20.0569442 80.8315791,19.9846359 80.8070175,19.8825521 C80.6678356,19.2275141 80.4160837,18.7681437 80.0517544,18.5044271 C79.6874251,18.2407105 79.1941552,18.1088542 78.5719298,18.1088542 C77.1473613,18.1088542 76.406433,18.9340195 76.3491228,20.584375 C76.3409356,20.8140636 76.3368421,21.1670983 76.3368421,21.6434896 C76.3368421,22.1198809 76.3409356,22.4814224 76.3491228,22.728125 C76.406433,24.3699735 77.1473613,25.1908854 78.5719298,25.1908854 C79.185968,25.1908854 79.6771911,25.0590291 80.045614,24.7953125 C80.4140369,24.5315959 80.6678356,24.0764789 80.8070175,23.4299479 C80.8315791,23.3278641 80.8684208,23.2555558 80.9175439,23.2130208 C80.9666669,23.1704859 81.0321633,23.1492188 81.1140351,23.1492188 L81.7280702,23.1492188 C81.8017548,23.1492188 81.8652044,23.1726126 81.9184211,23.219401 C81.9716377,23.2661895 81.9982456,23.3278642 81.9982456,23.4044271 C81.9736841,23.8978323 81.8324574,24.3614562 81.5745614,24.7953125 C81.3166654,25.2291688 80.9339207,25.5800768 80.4263158,25.8480469 C79.9187109,26.116017 79.3005884,26.25 78.5719298,26.25 C77.4830355,26.25 76.6540964,25.9416263 76.0850877,25.3248698 Z M83.2101276,26.0394531 C83.156911,25.9841577 83.130303,25.9139761 83.130303,25.8289062 L83.130303,17.3559896 C83.130303,17.2624127 83.156911,17.1901044 83.2101276,17.1390625 C83.2633442,17.0880206 83.3308874,17.0625 83.4127592,17.0625 L83.9531101,17.0625 C84.0349818,17.0625 84.102525,17.0901473 84.1557416,17.1454427 C84.2089583,17.2007381 84.2355662,17.2709197 84.2355662,17.3559896 L84.2355662,25.8289062 C84.2355662,25.9139761 84.2089583,25.9841577 84.1557416,26.0394531 C84.102525,26.0947485 84.0349818,26.1223958 83.9531101,26.1223958 L83.4127592,26.1223958 C83.3308874,26.1223958 83.2633442,26.0947485 83.2101276,26.0394531 Z M86.196571,25.4588542 C85.709434,24.931421 85.4494951,24.2296051 85.4167464,23.3533854 L85.4044657,22.8046875 L85.4167464,22.2559896 C85.4494951,21.3797699 85.7135276,20.677954 86.2088517,20.1505208 C86.7041758,19.6230876 87.393935,19.359375 88.2781499,19.359375 C89.1623649,19.359375 89.8521241,19.6230876 90.3474482,20.1505208 C90.8427723,20.677954 91.1068047,21.3797699 91.1395534,22.2559896 C91.1559278,22.4431433 91.1641148,22.6260408 91.1641148,22.8046875 C91.1641148,22.9833342 91.1559278,23.1662317 91.1395534,23.3533854 C91.1068047,24.2296051 90.8468658,24.931421 90.3597289,25.4588542 C89.8725919,25.9862874 89.1787392,26.25 88.2781499,26.25 C87.3775606,26.25 86.6837079,25.9862874 86.196571,25.4588542 Z M89.5246412,24.7761719 C89.8316602,24.4316389 89.9974481,23.9361143 90.0220096,23.2895833 C90.0301968,23.2045135 90.0342903,23.0428831 90.0342903,22.8046875 C90.0342903,22.5664919 90.0301968,22.4048615 90.0220096,22.3197917 C89.9974481,21.6732607 89.8316602,21.1777361 89.5246412,20.8332031 C89.2176221,20.4886702 88.8021292,20.3164062 88.2781499,20.3164062 C87.7541707,20.3164062 87.3386778,20.4886702 87.0316587,20.8332031 C86.7246396,21.1777361 86.5588518,21.6732607 86.5342903,22.3197917 L86.5220096,22.8046875 L86.5342903,23.2895833 C86.5588518,23.9361143 86.7246396,24.4316389 87.0316587,24.7761719 C87.3386778,25.1207048 87.7541707,25.2929688 88.2781499,25.2929688 C88.8021292,25.2929688 89.2176221,25.1207048 89.5246412,24.7761719 Z M92.8979267,25.4652344 C92.4721935,24.9420547 92.2593302,24.2466189 92.2593302,23.3789062 L92.2593302,19.7804688 C92.2593302,19.6953989 92.2859381,19.6252173 92.3391547,19.5699219 C92.3923714,19.5146265 92.4599145,19.4869792 92.5417863,19.4869792 L93.1066986,19.4869792 C93.1885703,19.4869792 93.2561135,19.5146265 93.3093302,19.5699219 C93.3625468,19.6252173 93.3891547,19.6953989 93.3891547,19.7804688 L93.3891547,23.3151042 C93.3891547,24.6081662 93.9295002,25.2546875 95.0102074,25.2546875 C95.5341866,25.2546875 95.9496795,25.0824236 96.2566986,24.7378906 C96.5637177,24.3933577 96.7172249,23.9191002 96.7172249,23.3151042 L96.7172249,19.7804688 C96.7172249,19.6953989 96.7438328,19.6252173 96.7970495,19.5699219 C96.8502661,19.5146265 96.9178093,19.4869792 96.999681,19.4869792 L97.5645933,19.4869792 C97.6464651,19.4869792 97.7140083,19.5146265 97.7672249,19.5699219 C97.8204415,19.6252173 97.8470495,19.6953989 97.8470495,19.7804688 L97.8470495,25.8289063 C97.8470495,25.9139761 97.8204415,25.9841577 97.7672249,26.0394531 C97.7140083,26.0947485 97.6464651,26.1223958 97.5645933,26.1223958 L97.0365231,26.1223958 C96.9546514,26.1223958 96.8871082,26.0947485 96.8338916,26.0394531 C96.7806749,25.9841577 96.754067,25.9139761 96.754067,25.8289063 L96.754067,25.2546875 C96.5166389,25.58646 96.2382791,25.8352856 95.9189793,26.0011719 C95.5996794,26.1670581 95.1944203,26.25 94.7031898,26.25 C93.9254081,26.25 93.3236598,25.9884141 92.8979267,25.4652344 Z M99.6975279,25.3822917 C99.2677012,24.8038166 99.036417,24.0722266 99.0036683,23.1875 L98.9913876,22.8046875 L99.0036683,22.421875 C99.036417,21.5456553 99.269748,20.8161921 99.7036683,20.2334635 C100.137589,19.6507349 100.780272,19.359375 101.631738,19.359375 C102.483205,19.359375 103.146356,19.6741288 103.621212,20.3036458 L103.621212,17.3559896 C103.621212,17.2709197 103.64782,17.2007381 103.701037,17.1454427 C103.754253,17.0901473 103.821797,17.0625 103.903668,17.0625 L104.4563,17.0625 C104.538172,17.0625 104.605715,17.0901473 104.658931,17.1454427 C104.712148,17.2007381 104.738756,17.2709197 104.738756,17.3559896 L104.738756,25.8289063 C104.738756,25.9139761 104.712148,25.9841577 104.658931,26.0394531 C104.605715,26.0947485 104.538172,26.1223958 104.4563,26.1223958 L103.92823,26.1223958 C103.846358,26.1223958 103.780862,26.0947485 103.731738,26.0394531 C103.682615,25.9841577 103.658054,25.9139761 103.658054,25.8289063 L103.658054,25.2802083 C103.191385,25.9267393 102.515953,26.25 101.631738,26.25 C100.772085,26.25 100.127355,25.9607668 99.6975279,25.3822917 Z M103.154545,24.6613281 C103.441097,24.2657532 103.596651,23.7957493 103.621212,23.2513021 C103.629399,23.1577252 103.633493,22.9960949 103.633493,22.7664062 C103.633493,22.5282106 103.629399,22.3623269 103.621212,22.26875 C103.604838,21.7498238 103.447237,21.301087 103.148405,20.922526 C102.849573,20.5439651 102.4218,20.3546875 101.865072,20.3546875 C101.275595,20.3546875 100.845775,20.5460918 100.575598,20.9289062 C100.305421,21.3117207 100.158054,21.8136254 100.133493,22.4346354 L100.121212,22.8046875 C100.121212,24.438029 100.702493,25.2546875 101.865072,25.2546875 C102.438174,25.2546875 102.867994,25.056903 103.154545,24.6613281 Z" id="Cloud"></path>
            <path d="M61.6425831,24.6448913 C60.3556394,24.6448913 59.2635791,23.7443182 58.929663,22.5023338 L66.0944022,22.5023338 L67.0820889,20.8972251 L58.929663,20.8972251 C59.2635791,19.6626851 60.3556394,18.7548744 61.6425831,18.7548744 L66.5602211,18.7548744 L67.5550377,17.1495588 L61.5312777,17.1495588 C59.1243484,17.1495588 57.1699685,19.1905822 57.1699685,21.7035017 C57.1699685,24.2164211 59.1243484,26.25 61.5312777,26.25 L66.6994519,26.25 L67.6873366,24.6448913 L61.6425831,24.6448913 L61.6425831,24.6448913 Z M41.1433801,26.25 C38.7368469,26.25 36.782269,24.2164211 36.782269,21.7035017 C36.782269,19.1905822 38.7368469,17.1495588 41.1433801,17.1495588 L47.1604064,17.1495588 L46.1796515,18.7548744 L41.2548836,18.7548744 C39.6966083,18.7548744 38.4306581,20.0766799 38.4306581,21.7035017 C38.4306581,23.3303234 39.6966083,24.6448913 41.2548836,24.6448913 L47.2994391,24.6448913 L46.3117524,26.25 L41.1433801,26.25 Z M9.31182393,24.6448913 C10.8708915,24.6448913 12.1332767,23.3303234 12.1332767,21.7035017 C12.1332767,20.0766799 10.8708915,18.7548744 9.31182393,18.7548744 L4.47063406,18.7548744 C2.91255679,18.7548744 1.64918132,20.0766799 1.64918132,21.7035017 C1.64918132,23.3303234 2.91255679,24.6448913 4.47063406,24.6448913 L9.31182393,24.6448913 Z M4.35873452,26.25 C1.9525974,26.25 0,24.2164211 0,21.7035017 C0,19.1905822 1.9525974,17.1495588 4.35873452,17.1495588 L9.42471373,17.1495588 C11.831247,17.1495588 13.782458,19.1905822 13.782458,21.7035017 C13.782458,24.2164211 11.831247,26.25 9.42471373,26.25 L4.35873452,26.25 Z M22.0077671,23.3011659 C23.6355588,23.3011659 24.9571617,21.9286966 24.9571617,20.2290846 C24.9571617,18.5296794 23.6355588,17.1495588 22.0077671,17.1495588 L14.6742874,17.1495588 L14.6742874,26.25 L16.3500077,26.25 L16.3500077,18.7548744 L21.8964618,18.7548744 C22.6755994,18.7548744 23.3016427,19.4155703 23.3016427,20.2290846 C23.3016427,21.0425989 22.6755994,21.7035017 21.8964618,21.7035017 L17.1707364,21.696264 L22.1747252,26.25 L24.6093819,26.25 L21.2426912,23.3011659 L22.0077671,23.3011659 Z M49.7410276,24.6448913 L49.7410276,17.1495588 L48.064515,17.1495588 L48.064515,25.3783776 C48.064515,25.6035726 48.1480931,25.8215299 48.3081193,25.9886167 C48.4679475,26.1554967 48.6836265,26.25 48.9202989,26.25 L56.5647207,26.25 L57.5526055,24.6448913 L49.7410276,24.6448913 Z M29.2210291,23.0397826 L33.6936437,23.0397826 L31.3287015,19.0671282 L26.9881878,26.25 L25.0128143,26.25 L30.2922939,17.6218686 C30.5218365,17.2732196 30.9044735,17.0625 31.3287015,17.0625 C31.7392638,17.0625 32.1217028,17.2657752 32.3441155,17.6071865 L37.6445886,26.25 L35.6692152,26.25 L34.7369831,24.6448913 L30.2087158,24.6448913 L29.2210291,23.0397826 Z M68.5890383,18.943018 C68.0929832,18.943018 67.6873366,18.5228679 67.6873366,18.0026641 C67.6873366,17.4826501 68.0929832,17.0625 68.5890383,17.0625 C69.0915119,17.0625 69.4971585,17.4826501 69.4971585,18.0026641 C69.4971585,18.5228679 69.0915119,18.943018 68.5890383,18.943018 Z M68.5052316,17.4425906 C68.6469878,17.4425906 68.7049374,17.4492355 68.7694887,17.4760051 C68.9497557,17.5359994 68.9691944,17.7026925 68.9691944,17.7693318 C68.9691944,17.7826216 68.9691944,17.8160362 68.9561741,17.8559058 C68.9497557,17.8959653 68.9238985,17.9760843 68.8336733,18.0360786 C68.8210198,18.0427236 68.8146013,18.0493685 68.7887441,18.0626584 L69.0207255,18.4962882 L68.7951625,18.4962882 L68.5890383,18.0960729 L68.4474655,18.0960729 L68.4474655,18.4962882 L68.2477597,18.4962882 L68.2477597,17.4425906 L68.5052316,17.4425906 Z M68.5762014,17.9227349 C68.6405694,17.91609 68.7049374,17.91609 68.7436315,17.8559058 C68.7630702,17.8293261 68.7694887,17.8027463 68.7694887,17.7626868 C68.7694887,17.7093374 68.737213,17.662633 68.6921004,17.6360532 C68.6469878,17.6159286 68.6020586,17.6159286 68.5052316,17.6159286 L68.4474655,17.6159286 L68.4474655,17.9227349 L68.5762014,17.9227349 Z M67.8806239,17.9960191 C67.8806239,18.4095243 68.1962287,18.7362654 68.5890383,18.7362654 C68.9884498,18.7362654 69.3040546,18.4095243 69.3040546,17.9960191 C69.3040546,17.5893488 68.9884498,17.2626076 68.5890383,17.2626076 C68.1962287,17.2626076 67.8806239,17.5893488 67.8806239,17.9960191 Z" id="Combined-Shape-Copy"></path>
        </g>
    </g>
</svg>