<?xml version="1.0" encoding="UTF-8"?>
<svg width="192px" height="128px" viewBox="0 0 192 128" version="1.1" xmlns="http://www.w3.org/2000/svg" xmlns:xlink="http://www.w3.org/1999/xlink">
    <!-- Generator: Sketch 52.6 (67491) - http://www.bohemiancoding.com/sketch -->

    <desc>Created with Sketch.</desc>
    <g id="Provider/OracleCIC/opc-128-disabled" stroke="none" stroke-width="1" fill="none" fill-rule="evenodd">
        <path d="M8.70555467,76.0319574 L7.0855645,76.0319574 C7.02500412,75.665779 6.82818288,74.2010652 4.72370966,74.2010652 C2.08933312,74.2010652 1.61999017,76.8082557 1.61999017,78.5659121 C1.61999017,80.5579228 2.21045388,82.7110519 4.70856957,82.7110519 C5.37473375,82.7110519 6.01061775,82.5499334 6.47996069,82.081225 C6.87360317,81.6711052 6.96444374,81.2170439 7.00986402,80.9680426 L8.67527448,80.9680426 C8.44817305,83.0479361 6.4648206,83.9121172 4.58744881,83.9121172 C0.741864659,83.9121172 0,80.6311585 0,78.5805593 C0,76.3541944 0.89326561,73.0292943 4.78427005,73.0292943 C6.32855974,73.0292943 8.50873343,73.6298269 8.70555467,76.0319574 Z M10.494642,83.7509987 L10.494642,73.1904128 L11.9178109,73.1904128 L11.9178109,83.7509987 L10.494642,83.7509987 Z M13.97942,80.1624501 C13.97942,78.3462051 14.8575455,76.207723 17.8401442,76.207723 C20.8833033,76.207723 21.5646076,78.5219707 21.5646076,80.0599201 C21.5646076,82.2130493 20.3079797,84 17.7190234,84 C15.2057677,84 13.97942,82.3155792 13.97942,80.1624501 Z M15.4631493,80.0745672 C15.4631493,81.5832224 16.1293135,82.9747004 17.7493036,82.9747004 C18.8242504,82.9747004 20.0505981,82.2276964 20.0505981,80.0159787 C20.0505981,78.1850866 19.1724726,77.2183755 17.8401442,77.2183755 C16.9317385,77.2183755 15.4631493,77.7749667 15.4631493,80.0745672 Z M23.5050959,76.3981358 L24.958545,76.3981358 L24.958545,81.1291611 C24.958545,81.8468708 25.125086,82.7549933 26.5785352,82.7549933 C27.2901196,82.7549933 27.9562838,82.5206391 28.3650664,81.9347537 C28.6830084,81.4953395 28.6830084,80.9241012 28.6830084,80.5579228 L28.6830084,76.3981358 L30.1515976,76.3981358 L30.1515976,82.3741678 C30.1515976,82.5206391 30.1818778,83.3408788 30.1970179,83.7509987 L28.7132886,83.7509987 L28.6830084,82.4913449 C28.4104867,83.0039947 27.8957234,83.8242344 26.2605932,83.8242344 C24.3832214,83.8242344 23.5050959,82.7842876 23.5050959,81.334221 L23.5050959,76.3981358 Z M38.0421432,77.3941411 L38.0421432,73.1904128 L39.4653122,73.1904128 L39.4653122,82.5792277 C39.4653122,82.7403462 39.4955924,83.3701731 39.5258726,83.7509987 L38.1027036,83.7509987 L38.0724234,82.5792277 C37.9513027,82.7842876 37.7847616,83.0918775 37.3911191,83.355526 C36.7703752,83.7656458 36.0285106,83.89747 35.5137474,83.89747 C34.499361,83.89747 32.2434868,83.3848202 32.2434868,80.1624501 C32.2434868,77.3648469 33.8937572,76.1491345 35.6802884,76.1491345 C37.3154187,76.1491345 37.8604621,77.0865513 38.0421432,77.3941411 Z M38.0875635,79.9720373 C38.0875635,78.9027963 37.8301819,78.3169108 37.5122399,77.9214381 C37.209438,77.5406125 36.6492545,77.1744341 35.8468294,77.1744341 C33.7574963,77.1744341 33.7574963,79.620506 33.7574963,80.1185087 C33.7574963,81.4221039 34.1057185,82.930759 35.8468294,82.930759 C38.0875635,82.930759 38.0875635,80.5432756 38.0875635,79.9720373 Z M45.9655252,83.7509987 L45.9655252,73.1757656 L47.4795347,73.1757656 L47.4795347,83.7509987 L45.9655252,83.7509987 Z M50.0861871,83.7509987 L50.0861871,77.2476698 L50.071047,76.3981358 L51.494216,76.3981358 L51.5093561,77.5845539 C51.6758971,77.276964 52.2209405,76.2516644 53.9469114,76.2516644 C54.6282156,76.2516644 56.7024087,76.5006658 56.7024087,78.7563249 L56.7024087,83.7509987 L55.2489595,83.7509987 L55.2489595,79.0785619 C55.2489595,78.5952064 55.1883992,78.1557923 54.840177,77.8189081 C54.4768147,77.482024 53.9771916,77.3209055 53.4927085,77.3209055 C52.463182,77.3209055 51.5093561,78.0386152 51.5093561,79.517976 L51.5093561,83.7509987 L50.0861871,83.7509987 Z M62.957824,73.10253 L62.957824,74.2010652 C62.7155825,74.1864181 62.4127806,74.171771 62.1251188,74.171771 C60.9744716,74.171771 60.9744716,74.7283622 60.9744716,75.241012 L60.9744716,76.3981358 L62.7458627,76.3981358 L62.7458627,77.3941411 L60.9744716,77.3941411 L60.9744716,83.7509987 L59.5664427,83.7509987 L59.5664427,77.3941411 L58.0675733,77.3941411 L58.0675733,76.3981358 L59.5664427,76.3981358 L59.5664427,75.563249 C59.5664427,74.5525965 59.6270031,74.1864181 59.8843847,73.8055925 C60.2023267,73.3368842 60.8079305,73 61.7920367,73 C62.2008193,73 62.6550221,73.0585885 62.957824,73.10253 Z M64.1413076,83.7509987 L64.1413076,77.8921438 C64.1413076,77.3941411 64.1110274,76.8814913 64.0656071,76.3981358 L65.5039161,76.3981358 L65.5341963,77.8189081 C65.806718,76.7936085 66.7151237,76.4567244 67.3510077,76.3688415 C67.7749304,76.310253 68.0928724,76.3249001 68.3351139,76.3395473 L68.3351139,77.6870839 C68.2594134,77.6577896 68.1685728,77.6431425 68.0625922,77.6284953 C67.9566115,77.6138482 67.8203507,77.6138482 67.6538096,77.6138482 C65.9732591,77.6138482 65.5796166,78.5805593 65.5796166,79.840213 L65.5796166,83.7509987 L64.1413076,83.7509987 Z M75.7411765,83.7509987 L74.4542684,83.7509987 C74.3482877,83.3848202 74.3180075,83.0332889 74.3180075,82.6524634 C73.6367033,83.8681758 72.6071768,83.9853529 71.9712928,83.9853529 C70.2301819,83.9853529 69.291496,83.0332889 69.291496,81.8175766 C69.291496,81.2316911 69.5034573,80.2942743 70.6238243,79.6644474 C71.4413895,79.2250333 72.6525971,79.1810919 73.2582009,79.1810919 C73.6215632,79.1810919 73.8486646,79.195739 74.2877274,79.2250333 C74.2877274,78.3169108 74.2877274,77.9214381 74.0152056,77.5992011 C73.7275438,77.2330226 73.1067999,77.1158455 72.6980174,77.1158455 C71.2597083,77.1158455 71.1840079,78.0679095 71.1688678,78.3608522 L69.7456988,78.3608522 C69.7911191,77.9800266 69.8365394,77.4673768 70.2756022,76.9693742 C70.8509258,76.3541944 71.9258725,76.1784288 72.7282976,76.1784288 C73.8335245,76.1784288 75.0144519,76.5153129 75.4232345,77.2623169 C75.665476,77.701731 75.6806161,78.0532623 75.6806161,78.3901465 L75.6200557,81.9054594 C75.6200557,82.0226365 75.6351958,83.0039947 75.7411765,83.7509987 Z M74.2877274,80.1770972 C74.0303457,80.1478029 73.8183844,80.1331558 73.4701622,80.1331558 C72.8948386,80.1331558 70.729805,80.1331558 70.729805,81.6271638 C70.729805,82.0958722 71.0326069,82.9014647 72.3043749,82.9014647 C73.0310995,82.9014647 73.5761429,82.6231691 73.9243651,82.1105193 C74.2423071,81.6125166 74.2574472,81.2023968 74.2877274,80.1770972 Z M77.4242831,81.5685752 L78.9231525,81.5685752 C78.9080125,82.1251664 79.2108144,82.9014647 80.588563,82.9014647 C81.1790267,82.9014647 81.6180895,82.7989348 81.9208914,82.4327563 C82.0722923,82.2423435 82.1631329,81.9933422 82.1631329,81.7443409 C82.1631329,81.0266312 81.6332296,80.8948069 80.4977224,80.6458056 C78.9080125,80.2942743 77.5756841,79.9866844 77.5756841,78.448735 C77.5756841,77.1011984 78.7868917,76.2223702 80.5431427,76.2223702 C81.4969687,76.2223702 82.8292971,76.4860186 83.2834999,77.3648469 C83.4803212,77.7749667 83.4803212,78.126498 83.4803212,78.4340879 L82.026872,78.4340879 C82.0722923,77.3209055 81.0730461,77.2330226 80.5582828,77.2330226 C80.3463215,77.2330226 79.0139931,77.2330226 79.0139931,78.2876165 C79.0139931,78.9613848 79.6952974,79.1225033 80.0889399,79.2250333 C82.1934131,79.7083888 82.6476159,79.8255659 83.1018188,80.2356858 C83.5257415,80.6165113 83.6771424,81.1291611 83.6771424,81.5978695 C83.6771424,82.4181092 83.2077995,83.1211718 82.6476159,83.4580559 C81.9814518,83.8535286 81.1790267,83.9560586 80.3917418,83.9560586 C78.8474521,83.9560586 77.409143,83.3408788 77.4242831,81.5685752 Z M84.3761429,77.379494 L84.3761429,76.3688415 L85.7236113,76.3688415 L85.7236113,74.8308921 L87.1316402,74.391478 L87.1316402,76.3688415 L88.8273308,76.3688415 L88.8273308,77.379494 L87.1316402,77.379494 L87.1316402,81.7882823 C87.1316402,82.1544607 87.1316402,82.7696405 88.1460266,82.7696405 C88.4336884,82.7696405 88.7062101,82.7256991 88.8273308,82.6964048 L88.8273308,83.7656458 C88.5699492,83.8095872 88.1611666,83.8535286 87.6464034,83.8535286 C86.3443552,83.8535286 85.7236113,83.4873502 85.7236113,82.286285 L85.7236113,77.379494 L84.3761429,77.379494 Z M90.5255776,83.7509987 L90.5255776,77.8921438 C90.5255776,77.3941411 90.4952974,76.8814913 90.4498771,76.3981358 L91.8881861,76.3981358 L91.9184663,77.8189081 C92.190988,76.7936085 93.0993937,76.4567244 93.7352777,76.3688415 C94.1592004,76.310253 94.4771424,76.3249001 94.7193839,76.3395473 L94.7193839,77.6870839 C94.6436834,77.6577896 94.5528429,77.6431425 94.4468622,77.6284953 C94.3408815,77.6138482 94.2046207,77.6138482 94.0380796,77.6138482 C92.3575291,77.6138482 91.9638866,78.5805593 91.9638866,79.840213 L91.9638866,83.7509987 L90.5255776,83.7509987 Z M96.0542684,76.3981358 L97.5077175,76.3981358 L97.5077175,81.1291611 C97.5077175,81.8468708 97.6742586,82.7549933 99.1277077,82.7549933 C99.8392922,82.7549933 100.505456,82.5206391 100.914239,81.9347537 C101.232181,81.4953395 101.232181,80.9241012 101.232181,80.5579228 L101.232181,76.3981358 L102.70077,76.3981358 L102.70077,82.3741678 C102.70077,82.5206391 102.73105,83.3408788 102.74619,83.7509987 L101.262461,83.7509987 L101.232181,82.4913449 C100.959659,83.0039947 100.444896,83.8242344 98.8097657,83.8242344 C96.9323939,83.8242344 96.0542684,82.7842876 96.0542684,81.334221 L96.0542684,76.3981358 Z M111.090939,78.7563249 L109.65263,78.7563249 C109.62235,78.4194407 109.516369,77.2183755 108.13862,77.2183755 C106.170408,77.2183755 106.170408,79.4300932 106.170408,79.9866844 C106.170408,81.4953395 106.54891,82.9014647 108.06292,82.9014647 C109.274127,82.9014647 109.68291,82.0226365 109.71319,81.3049268 L111.151499,81.3049268 C111.060659,82.7403462 109.955432,83.9414115 108.07806,83.9414115 C107.563297,83.9414115 106.382369,83.8388815 105.579944,82.9893475 C105.125741,82.4766977 104.671539,81.7003995 104.671539,80.1770972 C104.671539,77.1158455 106.609471,76.207723 108.12348,76.207723 C108.623103,76.207723 109.758611,76.310253 110.455055,77.1158455 C111.015238,77.7456724 111.060659,78.3462051 111.090939,78.7563249 Z M111.593118,77.379494 L111.593118,76.3688415 L112.940587,76.3688415 L112.940587,74.8308921 L114.348615,74.391478 L114.348615,76.3688415 L116.044306,76.3688415 L116.044306,77.379494 L114.348615,77.379494 L114.348615,81.7882823 C114.348615,82.1544607 114.348615,82.7696405 115.363002,82.7696405 C115.650664,82.7696405 115.923185,82.7256991 116.044306,82.6964048 L116.044306,83.7656458 C115.786924,83.8095872 115.378142,83.8535286 114.863379,83.8535286 C113.56133,83.8535286 112.940587,83.4873502 112.940587,82.286285 L112.940587,77.379494 L111.593118,77.379494 Z M117.515451,76.3981358 L118.968901,76.3981358 L118.968901,81.1291611 C118.968901,81.8468708 119.135442,82.7549933 120.588891,82.7549933 C121.300475,82.7549933 121.966639,82.5206391 122.375422,81.9347537 C122.693364,81.4953395 122.693364,80.9241012 122.693364,80.5579228 L122.693364,76.3981358 L124.161953,76.3981358 L124.161953,82.3741678 C124.161953,82.5206391 124.192233,83.3408788 124.207373,83.7509987 L122.723644,83.7509987 L122.693364,82.4913449 C122.420842,83.0039947 121.906079,83.8242344 120.270949,83.8242344 C118.393577,83.8242344 117.515451,82.7842876 117.515451,81.334221 L117.515451,76.3981358 Z M126.859446,83.7509987 L126.859446,77.8921438 C126.859446,77.3941411 126.829166,76.8814913 126.783746,76.3981358 L128.222055,76.3981358 L128.252335,77.8189081 C128.524857,76.7936085 129.433262,76.4567244 130.069146,76.3688415 C130.493069,76.310253 130.811011,76.3249001 131.053253,76.3395473 L131.053253,77.6870839 C130.977552,77.6577896 130.886711,77.6431425 130.780731,77.6284953 C130.67475,77.6138482 130.538489,77.6138482 130.371948,77.6138482 C128.691398,77.6138482 128.297755,78.5805593 128.297755,79.840213 L128.297755,83.7509987 L126.859446,83.7509987 Z M138.868098,80.3235686 L133.402523,80.3235686 C133.372243,81.8468708 134.023267,82.9747004 135.582697,82.9747004 C136.506243,82.9747004 137.248107,82.505992 137.369228,81.4513981 L138.792397,81.4513981 C138.746977,81.8175766 138.686417,82.4181092 138.141373,82.9893475 C137.808291,83.355526 137.051286,83.9707057 135.522137,83.9707057 C133.130002,83.9707057 131.994495,82.5352863 131.994495,80.2063915 C131.994495,78.7563249 132.297296,77.5552597 133.493364,76.7496671 C134.220088,76.2516644 135.128494,76.207723 135.567557,76.207723 C138.974078,76.207723 138.898378,79.1225033 138.868098,80.3235686 Z M133.463084,79.3568575 L137.414649,79.3568575 C137.429789,78.6537949 137.293528,77.1890812 135.537277,77.1890812 C134.613731,77.1890812 133.493364,77.7310253 133.463084,79.3568575 Z M153.104899,76.0319574 L151.484909,76.0319574 C151.424349,75.665779 151.227527,74.2010652 149.123054,74.2010652 C146.488678,74.2010652 146.019335,76.8082557 146.019335,78.5659121 C146.019335,80.5579228 146.609798,82.7110519 149.107914,82.7110519 C149.774078,82.7110519 150.409962,82.5499334 150.879305,82.081225 C151.272948,81.6711052 151.363788,81.2170439 151.409209,80.9680426 L153.074619,80.9680426 C152.847518,83.0479361 150.864165,83.9121172 148.986793,83.9121172 C145.141209,83.9121172 144.399345,80.6311585 144.399345,78.5805593 C144.399345,76.3541944 145.29261,73.0292943 149.183615,73.0292943 C150.727904,73.0292943 152.908078,73.6298269 153.104899,76.0319574 Z M154.893987,83.7509987 L154.893987,73.1904128 L156.317155,73.1904128 L156.317155,83.7509987 L154.893987,83.7509987 Z M164.858725,83.7509987 L163.571817,83.7509987 C163.465836,83.3848202 163.435556,83.0332889 163.435556,82.6524634 C162.754252,83.8681758 161.724726,83.9853529 161.088842,83.9853529 C159.347731,83.9853529 158.409045,83.0332889 158.409045,81.8175766 C158.409045,81.2316911 158.621006,80.2942743 159.741373,79.6644474 C160.558938,79.2250333 161.770146,79.1810919 162.37575,79.1810919 C162.739112,79.1810919 162.966213,79.195739 163.405276,79.2250333 C163.405276,78.3169108 163.405276,77.9214381 163.132754,77.5992011 C162.845093,77.2330226 162.224349,77.1158455 161.815566,77.1158455 C160.377257,77.1158455 160.301557,78.0679095 160.286417,78.3608522 L158.863248,78.3608522 C158.908668,77.9800266 158.954088,77.4673768 159.393151,76.9693742 C159.968475,76.3541944 161.043421,76.1784288 161.845846,76.1784288 C162.951073,76.1784288 164.132001,76.5153129 164.540783,77.2623169 C164.783025,77.701731 164.798165,78.0532623 164.798165,78.3901465 L164.737604,81.9054594 C164.737604,82.0226365 164.752745,83.0039947 164.858725,83.7509987 Z M163.405276,80.1770972 C163.147894,80.1478029 162.935933,80.1331558 162.587711,80.1331558 C162.012387,80.1331558 159.847354,80.1331558 159.847354,81.6271638 C159.847354,82.0958722 160.150156,82.9014647 161.421924,82.9014647 C162.148648,82.9014647 162.693692,82.6231691 163.041914,82.1105193 C163.359856,81.6125166 163.374996,81.2023968 163.405276,80.1770972 Z M166.541832,81.5685752 L168.040701,81.5685752 C168.025561,82.1251664 168.328363,82.9014647 169.706112,82.9014647 C170.296575,82.9014647 170.735638,82.7989348 171.03844,82.4327563 C171.189841,82.2423435 171.280682,81.9933422 171.280682,81.7443409 C171.280682,81.0266312 170.750778,80.8948069 169.615271,80.6458056 C168.025561,80.2942743 166.693233,79.9866844 166.693233,78.448735 C166.693233,77.1011984 167.90444,76.2223702 169.660691,76.2223702 C170.614517,76.2223702 171.946846,76.4860186 172.401049,77.3648469 C172.59787,77.7749667 172.59787,78.126498 172.59787,78.4340879 L171.144421,78.4340879 C171.189841,77.3209055 170.190595,77.2330226 169.675832,77.2330226 C169.46387,77.2330226 168.131542,77.2330226 168.131542,78.2876165 C168.131542,78.9613848 168.812846,79.1225033 169.206489,79.2250333 C171.310962,79.7083888 171.765165,79.8255659 172.219368,80.2356858 C172.64329,80.6165113 172.794691,81.1291611 172.794691,81.5978695 C172.794691,82.4181092 172.325348,83.1211718 171.765165,83.4580559 C171.099,83.8535286 170.296575,83.9560586 169.509291,83.9560586 C167.965001,83.9560586 166.526692,83.3408788 166.541832,81.5685752 Z M173.978175,81.5685752 L175.477044,81.5685752 C175.461904,82.1251664 175.764706,82.9014647 177.142455,82.9014647 C177.732918,82.9014647 178.171981,82.7989348 178.474783,82.4327563 C178.626184,82.2423435 178.717024,81.9933422 178.717024,81.7443409 C178.717024,81.0266312 178.187121,80.8948069 177.051614,80.6458056 C175.461904,80.2942743 174.129576,79.9866844 174.129576,78.448735 C174.129576,77.1011984 175.340783,76.2223702 177.097034,76.2223702 C178.05086,76.2223702 179.383189,76.4860186 179.837391,77.3648469 C180.034213,77.7749667 180.034213,78.126498 180.034213,78.4340879 L178.580764,78.4340879 C178.626184,77.3209055 177.626938,77.2330226 177.112174,77.2330226 C176.900213,77.2330226 175.567885,77.2330226 175.567885,78.2876165 C175.567885,78.9613848 176.249189,79.1225033 176.642831,79.2250333 C178.747305,79.7083888 179.201507,79.8255659 179.65571,80.2356858 C180.079633,80.6165113 180.231034,81.1291611 180.231034,81.5978695 C180.231034,82.4181092 179.761691,83.1211718 179.201507,83.4580559 C178.535343,83.8535286 177.732918,83.9560586 176.945633,83.9560586 C175.401344,83.9560586 173.963035,83.3408788 173.978175,81.5685752 Z M181.959561,74.713715 L181.959561,73.2050599 L183.670392,73.2050599 L183.670392,74.713715 L181.959561,74.713715 Z M182.110962,83.7509987 L182.110962,76.3981358 L183.534131,76.3981358 L183.534131,83.7509987 L182.110962,83.7509987 Z M191.93944,78.7563249 L190.501131,78.7563249 C190.47085,78.4194407 190.36487,77.2183755 188.987121,77.2183755 C187.018909,77.2183755 187.018909,79.4300932 187.018909,79.9866844 C187.018909,81.4953395 187.397411,82.9014647 188.911421,82.9014647 C190.122628,82.9014647 190.531411,82.0226365 190.561691,81.3049268 L192,81.3049268 C191.909159,82.7403462 190.803932,83.9414115 188.926561,83.9414115 C188.411797,83.9414115 187.23087,83.8388815 186.428445,82.9893475 C185.974242,82.4766977 185.520039,81.7003995 185.520039,80.1770972 C185.520039,77.1158455 187.457971,76.207723 188.971981,76.207723 C189.471604,76.207723 190.607111,76.310253 191.303556,77.1158455 C191.863739,77.7456724 191.909159,78.3462051 191.93944,78.7563249 Z" id="Cloud-Infrastructure" fill="#B0B5BE"></path>
        <path d="M126.022105,58.8552972 C123.391077,58.8552972 121.158469,57.0909091 120.475811,54.6576335 L135.123405,54.6576335 L137.142631,51.5129307 L120.475811,51.5129307 C121.158469,49.0942402 123.391077,47.3156722 126.022105,47.3156722 L136.075725,47.3156722 L138.109528,44.1705643 L125.794552,44.1705643 C120.873826,44.1705643 116.878291,48.1693038 116.878291,53.0925747 C116.878291,58.0158455 120.873826,62 125.794552,62 L136.360368,62 L138.38,58.8552972 L126.022105,58.8552972 Z M84.1135318,62 C79.193615,62 75.1976756,58.0158455 75.1976756,53.0925747 C75.1976756,48.1693038 79.193615,44.1705643 84.1135318,44.1705643 L96.4147411,44.1705643 L94.4096857,47.3156722 L84.3414894,47.3156722 C81.1557512,47.3156722 78.5676425,49.9053321 78.5676425,53.0925747 C78.5676425,56.2798172 81.1557512,58.8552972 84.3414894,58.8552972 L96.6989795,58.8552972 L94.6797527,62 L84.1135318,62 Z M19.0370941,58.8552972 C22.2244519,58.8552972 24.8052725,56.2798172 24.8052725,53.0925747 C24.8052725,49.9053321 22.2244519,47.3156722 19.0370941,47.3156722 L9.13976487,47.3156722 C5.9544315,47.3156722 3.3715865,49.9053321 3.3715865,53.0925747 C3.3715865,56.2798172 5.9544315,58.8552972 9.13976487,58.8552972 L19.0370941,58.8552972 Z M8.91099744,62 C3.99189039,62 -4.26325641e-14,58.0158455 -4.26325641e-14,53.0925747 C-4.26325641e-14,48.1693038 3.99189039,44.1705643 8.91099744,44.1705643 L19.267886,44.1705643 C24.1878028,44.1705643 28.176859,48.1693038 28.176859,53.0925747 C28.176859,58.0158455 24.1878028,62 19.267886,62 L8.91099744,62 Z M44.992682,56.2226924 C48.3205396,56.2226924 51.0224246,53.533773 51.0224246,50.2039209 C51.0224246,46.8744739 48.3205396,44.1705643 44.992682,44.1705643 L30.0001151,44.1705643 L30.0001151,62 L33.425958,62 L33.425958,47.3156722 L44.7651293,47.3156722 C46.3579984,47.3156722 47.6378814,48.610097 47.6378814,50.2039209 C47.6378814,51.7977447 46.3579984,53.0925747 44.7651293,53.0925747 L35.1038557,53.0783947 L45.3340111,62 L50.3114235,62 L43.4285607,56.2226924 L44.992682,56.2226924 Z M101.690563,58.8552972 L101.690563,44.1705643 L98.2631009,44.1705643 L98.2631009,60.2923316 C98.2631009,60.7335299 98.4339679,61.1605483 98.7611256,61.487902 C99.0878783,61.8148507 99.5288124,62 100.012666,62 L115.640923,62 L117.660554,58.8552972 L101.690563,58.8552972 Z M59.7394758,55.7105944 L68.8832897,55.7105944 L64.0484014,47.9274348 L55.1746546,62 L51.136201,62 L61.9295697,45.0959058 C62.3988466,44.4128385 63.1811097,44 64.0484014,44 C64.8877552,44 65.6696134,44.3982534 66.124314,45.0671408 L76.9606019,62 L72.9221483,62 L71.0162929,58.8552972 L61.7587027,58.8552972 L59.7394758,55.7105944 Z M140.223439,47.6842802 C139.209304,47.6842802 138.38,46.861129 138.38,45.8419541 C138.38,44.8231511 139.209304,44 140.223439,44 C141.250696,44 142.08,44.8231511 142.08,45.8419541 C142.08,46.861129 141.250696,47.6842802 140.223439,47.6842802 Z M140.052105,44.7446672 C140.341911,44.7446672 140.460383,44.7576859 140.592352,44.8101325 C140.96089,44.9276724 141.00063,45.2542547 141.00063,45.3848132 C141.00063,45.4108505 141.00063,45.4763158 140.974012,45.5544277 C140.96089,45.6329117 140.908027,45.7898795 140.723571,45.9074194 C140.697702,45.920438 140.68458,45.9334567 140.631717,45.959494 L141.10598,46.8090544 L140.644839,46.8090544 L140.223439,46.0249592 L139.934007,46.0249592 L139.934007,46.8090544 L139.525729,46.8090544 L139.525729,44.7446672 L140.052105,44.7446672 Z M140.197195,45.6853582 C140.328789,45.6723396 140.460383,45.6723396 140.539489,45.5544277 C140.57923,45.5023531 140.592352,45.4502785 140.592352,45.3717946 C140.592352,45.2672733 140.526367,45.1757708 140.434139,45.1236962 C140.341911,45.0842682 140.250058,45.0842682 140.052105,45.0842682 L139.934007,45.0842682 L139.934007,45.6853582 L140.197195,45.6853582 Z M138.775157,45.8289354 C138.775157,46.6390679 139.420379,47.2792139 140.223439,47.2792139 C141.039996,47.2792139 141.685218,46.6390679 141.685218,45.8289354 C141.685218,45.0321936 141.039996,44.3920476 140.223439,44.3920476 C139.420379,44.3920476 138.775157,45.0321936 138.775157,45.8289354 Z" id="ORACLE" fill="#B0B5BE"></path>
    </g>
</svg>
