<?xml version="1.0" encoding="UTF-8"?>
<svg width="80px" height="32px" viewBox="0 0 80 32" version="1.1" xmlns="http://www.w3.org/2000/svg" xmlns:xlink="http://www.w3.org/1999/xlink">
    <!-- Generator: Sketch 47 (45396) - http://www.bohemiancoding.com/sketch -->
    <title>Provider/OraclePC/32</title>
    <desc>Created with Sketch.</desc>
    <defs></defs>
    <g id="Symbols" stroke="none" stroke-width="1" fill="none" fill-rule="evenodd">
        <g id="Provider/OraclePC/32" fill="#616870">
            <path d="M57.9695906,19.2951389 C57.5360602,18.8252291 57.3037039,18.1819485 57.2725146,17.3652778 C57.2662768,17.1902769 57.2631579,16.9050946 57.2631579,16.5097222 C57.2631579,16.1078684 57.2662768,15.8162046 57.2725146,15.6347222 C57.3037039,14.8180515 57.5360602,14.1747709 57.9695906,13.7048611 C58.4031211,13.2349514 59.0346937,13 59.8643275,13 C60.419496,13 60.8904464,13.1020823 61.277193,13.30625 C61.6639396,13.5104177 61.9555546,13.7777761 62.1520468,14.1083333 C62.348539,14.4388905 62.4561403,14.7921278 62.4748538,15.1680556 C62.4748538,15.2263892 62.4545811,15.2733795 62.4140351,15.3090278 C62.3734891,15.3446761 62.3251465,15.3625 62.2690058,15.3625 L61.8011696,15.3625 C61.7387911,15.3625 61.6888891,15.3462965 61.651462,15.3138889 C61.6140349,15.2814813 61.585965,15.2263893 61.5672515,15.1486111 C61.461208,14.6495345 61.2693971,14.299538 60.9918129,14.0986111 C60.7142286,13.8976842 60.3384039,13.7972222 59.8643275,13.7972222 C58.7789419,13.7972222 58.2144252,14.4259196 58.1707602,15.6833333 C58.1645224,15.8583342 58.1614035,16.127313 58.1614035,16.4902778 C58.1614035,16.8532426 58.1645224,17.1287028 58.1707602,17.3166667 C58.2144252,18.5675988 58.7789419,19.1930556 59.8643275,19.1930556 C60.3321661,19.1930556 60.7064313,19.0925936 60.9871345,18.8916667 C61.2678377,18.6907397 61.461208,18.3439839 61.5672515,17.8513889 C61.585965,17.7736107 61.6140349,17.7185187 61.651462,17.6861111 C61.6888891,17.6537035 61.7387911,17.6375 61.8011696,17.6375 L62.2690058,17.6375 C62.3251465,17.6375 62.3734891,17.6553239 62.4140351,17.6909722 C62.4545811,17.7266205 62.4748538,17.7736108 62.4748538,17.8319444 C62.4561403,18.2078723 62.348539,18.5611095 62.1520468,18.8916667 C61.9555546,19.2222239 61.6639396,19.4895823 61.277193,19.69375 C60.8904464,19.8979177 60.419496,20 59.8643275,20 C59.0346937,20 58.4031211,19.7650486 57.9695906,19.2951389 Z M63.3981925,19.8395833 C63.3576464,19.7974535 63.3373737,19.7439818 63.3373737,19.6791667 L63.3373737,13.2236111 C63.3373737,13.1523145 63.3576464,13.0972224 63.3981925,13.0583333 C63.4387385,13.0194442 63.4901999,13 63.5525784,13 L63.9642743,13 C64.0266528,13 64.0781143,13.0210646 64.1186603,13.0631944 C64.1592063,13.1053243 64.179479,13.158796 64.179479,13.2236111 L64.179479,19.6791667 C64.179479,19.7439818 64.1592063,19.7974535 64.1186603,19.8395833 C64.0781143,19.8817132 64.0266528,19.9027778 63.9642743,19.9027778 L63.5525784,19.9027778 C63.4901999,19.9027778 63.4387385,19.8817132 63.3981925,19.8395833 Z M65.6735779,19.3972222 C65.3024259,18.9953684 65.1043772,18.4606515 65.0794258,17.7930556 L65.0700691,17.375 L65.0794258,16.9569444 C65.1043772,16.2893485 65.3055448,15.7546316 65.6829346,15.3527778 C66.0603244,14.9509239 66.5858552,14.75 67.2595428,14.75 C67.9332304,14.75 68.4587612,14.9509239 68.836151,15.3527778 C69.2135408,15.7546316 69.4147084,16.2893485 69.4396598,16.9569444 C69.4521355,17.0995378 69.4583732,17.2388882 69.4583732,17.375 C69.4583732,17.5111118 69.4521355,17.6504622 69.4396598,17.7930556 C69.4147084,18.4606515 69.2166597,18.9953684 68.8455077,19.3972222 C68.4743558,19.7990761 67.9457061,20 67.2595428,20 C66.5733795,20 66.0447298,19.7990761 65.6735779,19.3972222 Z M68.2092504,18.8770833 C68.4431697,18.614582 68.5694842,18.2370395 68.5881978,17.7444444 C68.5944356,17.6796293 68.5975545,17.5564824 68.5975545,17.375 C68.5975545,17.1935176 68.5944356,17.0703707 68.5881978,17.0055556 C68.5694842,16.5129605 68.4431697,16.135418 68.2092504,15.8729167 C67.9753311,15.6104154 67.6587651,15.4791667 67.2595428,15.4791667 C66.8603205,15.4791667 66.5437545,15.6104154 66.3098352,15.8729167 C66.0759159,16.135418 65.9496014,16.5129605 65.9308878,17.0055556 L65.9215311,17.375 L65.9308878,17.7444444 C65.9496014,18.2370395 66.0759159,18.614582 66.3098352,18.8770833 C66.5437545,19.1395846 66.8603205,19.2708333 67.2595428,19.2708333 C67.6587651,19.2708333 67.9753311,19.1395846 68.2092504,18.8770833 Z M70.7793727,19.4020833 C70.4550046,19.0034702 70.292823,18.4736144 70.292823,17.8125 L70.292823,15.0708333 C70.292823,15.0060182 70.3130957,14.9525465 70.3536417,14.9104167 C70.3941877,14.8682868 70.4456492,14.8472222 70.5080277,14.8472222 L70.938437,14.8472222 C71.0008155,14.8472222 71.052277,14.8682868 71.092823,14.9104167 C71.133369,14.9525465 71.1536417,15.0060182 71.1536417,15.0708333 L71.1536417,17.7638889 C71.1536417,18.749079 71.5653335,19.2416667 72.3887294,19.2416667 C72.7879517,19.2416667 73.1045177,19.110418 73.338437,18.8479167 C73.5723563,18.5854154 73.6893142,18.2240764 73.6893142,17.7638889 L73.6893142,15.0708333 C73.6893142,15.0060182 73.7095869,14.9525465 73.7501329,14.9104167 C73.7906789,14.8682868 73.8421404,14.8472222 73.9045189,14.8472222 L74.3349282,14.8472222 C74.3973067,14.8472222 74.4487682,14.8682868 74.4893142,14.9104167 C74.5298602,14.9525465 74.5501329,15.0060182 74.5501329,15.0708333 L74.5501329,19.6791667 C74.5501329,19.7439818 74.5298602,19.7974535 74.4893142,19.8395833 C74.4487682,19.8817132 74.3973067,19.9027778 74.3349282,19.9027778 L73.9325891,19.9027778 C73.8702106,19.9027778 73.8187491,19.8817132 73.7782031,19.8395833 C73.7376571,19.7974535 73.7173844,19.7439818 73.7173844,19.6791667 L73.7173844,19.2416667 C73.5364868,19.4944457 73.3244031,19.6840271 73.0811271,19.8104167 C72.837851,19.9368062 72.5290822,20 72.1548113,20 C71.5622157,20 71.1037408,19.8006964 70.7793727,19.4020833 Z M75.9600213,19.3388889 C75.6325343,18.8981459 75.4563177,18.3407441 75.4313663,17.6666667 L75.4220096,17.375 L75.4313663,17.0833333 C75.4563177,16.4157374 75.6340937,15.8599559 75.9646996,15.4159722 C76.2953056,14.9719885 76.7849693,14.75 77.4337055,14.75 C78.0824417,14.75 78.5876998,14.9898124 78.949495,15.4694444 L78.949495,13.2236111 C78.949495,13.158796 78.9697677,13.1053243 79.0103137,13.0631944 C79.0508597,13.0210646 79.1023212,13 79.1646996,13 L79.5857523,13 C79.6481308,13 79.6995922,13.0210646 79.7401382,13.0631944 C79.7806843,13.1053243 79.800957,13.158796 79.800957,13.2236111 L79.800957,19.6791667 C79.800957,19.7439818 79.7806843,19.7974535 79.7401382,19.8395833 C79.6995922,19.8817132 79.6481308,19.9027778 79.5857523,19.9027778 L79.1834131,19.9027778 C79.1210346,19.9027778 79.0711326,19.8817132 79.0337055,19.8395833 C78.9962784,19.7974535 78.9775651,19.7439818 78.9775651,19.6791667 L78.9775651,19.2611111 C78.6220078,19.7537062 78.1073931,20 77.4337055,20 C76.7787315,20 76.2875083,19.7796318 75.9600213,19.3388889 Z M78.5939394,18.7895833 C78.8122641,18.4881929 78.9307814,18.1300947 78.949495,17.7152778 C78.9557328,17.6439811 78.9588517,17.5208342 78.9588517,17.3458333 C78.9588517,17.1643509 78.9557328,17.0379633 78.949495,16.9666667 C78.9370193,16.5712943 78.8169425,16.2293996 78.5892611,15.9409722 C78.3615796,15.6525449 78.0356569,15.5083333 77.6114833,15.5083333 C77.1623582,15.5083333 76.8348761,15.6541652 76.6290271,15.9458333 C76.4231782,16.2375015 76.3108986,16.619905 76.292185,17.0930556 L76.2828283,17.375 C76.2828283,18.6194507 76.7257089,19.2416667 77.6114833,19.2416667 C78.0481326,19.2416667 78.3756147,19.0909737 78.5939394,18.7895833 Z" id="Cloud"></path>
            <path d="M46.9657776,18.77706 C45.9852491,18.77706 45.1532031,18.0909091 44.8987908,17.1446353 L50.3576398,17.1446353 L51.110163,15.9216953 L44.8987908,15.9216953 C45.1532031,14.9810934 45.9852491,14.2894281 46.9657776,14.2894281 L50.7125494,14.2894281 L51.4705049,13.0663305 L46.8809735,13.0663305 C45.0471226,13.0663305 43.5580712,14.6213959 43.5580712,16.5360013 C43.5580712,18.4506066 45.0471226,20 46.8809735,20 L50.81863,20 L51.5713041,18.77706 L46.9657776,18.77706 L46.9657776,18.77706 Z M31.3473373,20 C29.5137881,20 28.0245859,18.4506066 28.0245859,16.5360013 C28.0245859,14.6213959 29.5137881,13.0663305 31.3473373,13.0663305 L35.9317382,13.0663305 L35.1844964,14.2894281 L31.4322922,14.2894281 C30.2450349,14.2894281 29.2805014,15.296518 29.2805014,16.5360013 C29.2805014,17.7754845 30.2450349,18.77706 31.4322922,18.77706 L36.0376679,18.77706 L35.2851447,20 L31.3473373,20 Z M7.094723,18.77706 C8.28258397,18.77706 9.24440128,17.7754845 9.24440128,16.5360013 C9.24440128,15.296518 8.28258397,14.2894281 7.094723,14.2894281 L3.40619738,14.2894281 C2.21909089,14.2894281 1.2565191,15.296518 1.2565191,16.5360013 C1.2565191,17.7754845 2.21909089,18.77706 3.40619738,18.77706 L7.094723,18.77706 Z M3.32094059,20 C1.48769326,20 0,18.4506066 0,16.5360013 C0,14.6213959 1.48769326,13.0663305 3.32094059,13.0663305 L7.18073427,13.0663305 C9.0142834,13.0663305 10.5009204,14.6213959 10.5009204,16.5360013 C10.5009204,18.4506066 9.0142834,20 7.18073427,20 L3.32094059,20 Z M16.7678226,17.7532693 C18.0080448,17.7532693 19.0149803,16.7075784 19.0149803,15.4126359 C19.0149803,14.117851 18.0080448,13.0663305 16.7678226,13.0663305 L11.1804094,13.0663305 L11.1804094,20 L12.4571487,20 L12.4571487,14.2894281 L16.6830185,14.2894281 C17.2766472,14.2894281 17.7536325,14.7928155 17.7536325,15.4126359 C17.7536325,16.0324563 17.2766472,16.5360013 16.6830185,16.5360013 L13.0824658,16.5304868 L16.8950287,20 L18.7500052,20 L16.1849076,17.7532693 L16.7678226,17.7532693 Z M37.8979258,18.77706 L37.8979258,13.0663305 L36.6205829,13.0663305 L36.6205829,19.3359067 C36.6205829,19.5074839 36.6842614,19.6735466 36.8061862,19.8008508 C36.92796,19.9279975 37.0922868,20 37.2726087,20 L43.0969301,20 L43.8496042,18.77706 L37.8979258,18.77706 Z M22.2636412,17.5541201 L25.6713476,17.5541201 L23.8694868,14.5273357 L20.5624288,20 L19.0573824,20 L23.079843,13.4261856 C23.2547326,13.1605483 23.5462655,13 23.8694868,13 C24.1822963,13 24.4736783,13.1548763 24.6431356,13.4149992 L28.6815913,20 L27.1765449,20 L26.4662729,18.77706 L23.0161645,18.77706 L22.2636412,17.5541201 Z M52.2583149,14.4327756 C51.8803682,14.4327756 51.5713041,14.1126613 51.5713041,13.7163155 C51.5713041,13.3201143 51.8803682,13 52.2583149,13 C52.6411519,13 52.950216,13.3201143 52.950216,13.7163155 C52.950216,14.1126613 52.6411519,14.4327756 52.2583149,14.4327756 Z M52.1944622,13.2895928 C52.3024669,13.2895928 52.3466189,13.2946556 52.3958009,13.3150515 C52.5331472,13.3607615 52.5479577,13.4877657 52.5479577,13.5385385 C52.5479577,13.5486641 52.5479577,13.5741228 52.5380374,13.6044997 C52.5331472,13.6350212 52.5134465,13.6960642 52.4447035,13.7417742 C52.4350627,13.746837 52.4301724,13.7518998 52.4104717,13.7620254 L52.5872194,14.09241 L52.4153619,14.09241 L52.2583149,13.7874841 L52.1504499,13.7874841 L52.1504499,14.09241 L51.9982931,14.09241 L51.9982931,13.2895928 L52.1944622,13.2895928 Z M52.2485344,13.6554171 C52.2975767,13.6503543 52.3466189,13.6503543 52.3761002,13.6044997 C52.3909107,13.5842484 52.3958009,13.5639972 52.3958009,13.5334757 C52.3958009,13.4928285 52.3712099,13.4572442 52.3368384,13.4369929 C52.3024669,13.4216599 52.2682352,13.4216599 52.1944622,13.4216599 L52.1504499,13.4216599 L52.1504499,13.6554171 L52.2485344,13.6554171 Z M51.7185706,13.7112527 C51.7185706,14.0263042 51.9590314,14.2752499 52.2583149,14.2752499 C52.5626284,14.2752499 52.8030892,14.0263042 52.8030892,13.7112527 C52.8030892,13.4014086 52.5626284,13.1524629 52.2583149,13.1524629 C51.9590314,13.1524629 51.7185706,13.4014086 51.7185706,13.7112527 Z" id="Combined-Shape-Copy"></path>
        </g>
    </g>
</svg>