<?xml version="1.0" encoding="UTF-8"?>
<svg width="192px" height="128px" viewBox="0 0 192 128" version="1.1" xmlns="http://www.w3.org/2000/svg" xmlns:xlink="http://www.w3.org/1999/xlink">
    <!-- Generator: Sketch 47.1 (45422) - http://www.bohemiancoding.com/sketch -->
    <title>Provider/OraclePC/opc-128-disabled</title>
    <desc>Created with Sketch.</desc>
    <defs></defs>
    <g id="Symbols" stroke="none" stroke-width="1" fill="none" fill-rule="evenodd">
        <g id="Provider/OraclePC/opc-128-disabled">
            <path d="M64.21,93.13 C62.9126602,91.7766599 62.2173338,89.9240118 62.124,87.572 C62.1053333,87.0679975 62.096,86.2466724 62.096,85.108 C62.096,83.9506609 62.1053333,83.1106693 62.124,82.588 C62.2173338,80.2359882 62.9126602,78.3833401 64.21,77.03 C65.5073398,75.6766599 67.3973209,75 69.88,75 C71.5413417,75 72.9506609,75.2939971 74.108,75.882 C75.2653391,76.4700029 76.1379971,77.2399952 76.726,78.192 C77.314003,79.1440048 77.6359997,80.1613279 77.692,81.244 C77.692,81.4120008 77.631334,81.5473328 77.51,81.65 C77.3886661,81.7526672 77.2440009,81.804 77.076,81.804 L75.676,81.804 C75.4893324,81.804 75.3400006,81.7573338 75.228,81.664 C75.1159995,81.5706662 75.0320003,81.4120011 74.976,81.188 C74.6586651,79.7506595 74.0846708,78.7426696 73.254,78.164 C72.4233292,77.5853304 71.2986738,77.296 69.88,77.296 C66.6319838,77.296 64.9426673,79.1066486 64.812,82.728 C64.7933333,83.2320025 64.784,84.0066614 64.784,85.052 C64.784,86.0973386 64.7933333,86.890664 64.812,87.432 C64.9426673,91.0346847 66.6319838,92.836 69.88,92.836 C71.280007,92.836 72.3999958,92.5466696 73.24,91.968 C74.0800042,91.3893304 74.6586651,90.3906738 74.976,88.972 C75.0320003,88.7479989 75.1159995,88.5893338 75.228,88.496 C75.3400006,88.4026662 75.4893324,88.356 75.676,88.356 L77.076,88.356 C77.2440009,88.356 77.3886661,88.4073328 77.51,88.51 C77.631334,88.6126672 77.692,88.7479992 77.692,88.916 C77.6359997,89.9986721 77.314003,91.0159952 76.726,91.968 C76.1379971,92.9200048 75.2653391,93.6899971 74.108,94.278 C72.9506609,94.8660029 71.5413417,95.16 69.88,95.16 C67.3973209,95.16 65.5073398,94.4833401 64.21,93.13 Z M80.546,94.698 C80.4246661,94.5766661 80.364,94.4226676 80.364,94.236 L80.364,75.644 C80.364,75.4386656 80.4246661,75.2800006 80.546,75.168 C80.667334,75.0559994 80.8213324,75 81.008,75 L82.24,75 C82.4266676,75 82.5806661,75.0606661 82.702,75.182 C82.823334,75.3033339 82.884,75.4573324 82.884,75.644 L82.884,94.236 C82.884,94.4226676 82.823334,94.5766661 82.702,94.698 C82.5806661,94.8193339 82.4266676,94.88 82.24,94.88 L81.008,94.88 C80.8213324,94.88 80.667334,94.8193339 80.546,94.698 Z M87.446,93.424 C86.3353278,92.2666609 85.742667,90.7266763 85.668,88.804 L85.64,87.6 L85.668,86.396 C85.742667,84.4733237 86.344661,82.9333391 87.474,81.776 C88.603339,80.6186609 90.1759899,80.04 92.192,80.04 C94.2080101,80.04 95.780661,80.6186609 96.91,81.776 C98.039339,82.9333391 98.641333,84.4733237 98.716,86.396 C98.7533335,86.8066687 98.772,87.207998 98.772,87.6 C98.772,87.992002 98.7533335,88.3933313 98.716,88.804 C98.641333,90.7266763 98.0486722,92.2666609 96.938,93.424 C95.8273278,94.5813391 94.2453436,95.16 92.192,95.16 C90.1386564,95.16 88.5566722,94.5813391 87.446,93.424 Z M95.034,91.926 C95.7340035,91.1699962 96.1119997,90.0826738 96.168,88.664 C96.1866668,88.4773324 96.196,88.1226693 96.196,87.6 C96.196,87.0773307 96.1866668,86.7226676 96.168,86.536 C96.1119997,85.1173262 95.7340035,84.0300038 95.034,83.274 C94.3339965,82.5179962 93.3866726,82.14 92.192,82.14 C90.9973274,82.14 90.0500035,82.5179962 89.35,83.274 C88.6499965,84.0300038 88.2720003,85.1173262 88.216,86.536 L88.188,87.6 L88.216,88.664 C88.2720003,90.0826738 88.6499965,91.1699962 89.35,91.926 C90.0500035,92.6820038 90.9973274,93.06 92.192,93.06 C93.3866726,93.06 94.3339965,92.6820038 95.034,91.926 Z M102.816,93.438 C101.845328,92.2899943 101.36,90.7640095 101.36,88.86 L101.36,80.964 C101.36,80.7773324 101.420666,80.6233339 101.542,80.502 C101.663334,80.3806661 101.817332,80.32 102.004,80.32 L103.292,80.32 C103.478668,80.32 103.632666,80.3806661 103.754,80.502 C103.875334,80.6233339 103.936,80.7773324 103.936,80.964 L103.936,88.72 C103.936,91.5573475 105.167988,92.976 107.632,92.976 C108.826673,92.976 109.773996,92.5980038 110.474,91.842 C111.174003,91.0859962 111.524,90.04534 111.524,88.72 L111.524,80.964 C111.524,80.7773324 111.584666,80.6233339 111.706,80.502 C111.827334,80.3806661 111.981332,80.32 112.168,80.32 L113.456,80.32 C113.642668,80.32 113.796666,80.3806661 113.918,80.502 C114.039334,80.6233339 114.1,80.7773324 114.1,80.964 L114.1,94.236 C114.1,94.4226676 114.039334,94.5766661 113.918,94.698 C113.796666,94.8193339 113.642668,94.88 113.456,94.88 L112.252,94.88 C112.065332,94.88 111.911334,94.8193339 111.79,94.698 C111.668666,94.5766661 111.608,94.4226676 111.608,94.236 L111.608,92.976 C111.066664,93.7040036 110.432004,94.2499982 109.704,94.614 C108.975996,94.9780018 108.052006,95.16 106.932,95.16 C105.158658,95.16 103.786672,94.5860057 102.816,93.438 Z M118.41,93.256 C117.429995,91.9866603 116.902667,90.381343 116.828,88.44 L116.8,87.6 L116.828,86.76 C116.902667,84.8373237 117.434662,83.2366731 118.424,81.958 C119.413338,80.6793269 120.878657,80.04 122.82,80.04 C124.761343,80.04 126.273328,80.7306598 127.356,82.112 L127.356,75.644 C127.356,75.4573324 127.416666,75.3033339 127.538,75.182 C127.659334,75.0606661 127.813332,75 128,75 L129.26,75 C129.446668,75 129.600666,75.0606661 129.722,75.182 C129.843334,75.3033339 129.904,75.4573324 129.904,75.644 L129.904,94.236 C129.904,94.4226676 129.843334,94.5766661 129.722,94.698 C129.600666,94.8193339 129.446668,94.88 129.26,94.88 L128.056,94.88 C127.869332,94.88 127.720001,94.8193339 127.608,94.698 C127.495999,94.5766661 127.44,94.4226676 127.44,94.236 L127.44,93.032 C126.375995,94.4506738 124.83601,95.16 122.82,95.16 C120.85999,95.16 119.390005,94.5253397 118.41,93.256 Z M126.292,91.674 C126.945337,90.8059957 127.3,89.7746726 127.356,88.58 C127.374667,88.3746656 127.384,88.0200025 127.384,87.516 C127.384,86.9933307 127.374667,86.6293344 127.356,86.424 C127.318666,85.2853276 126.959337,84.3006708 126.278,83.47 C125.596663,82.6393292 124.62134,82.224 123.352,82.224 C122.007993,82.224 121.028003,82.6439958 120.412,83.484 C119.795997,84.3240042 119.46,85.4253265 119.404,86.788 L119.376,87.6 C119.376,91.1840179 120.70132,92.976 123.352,92.976 C124.658673,92.976 125.638663,92.5420043 126.292,91.674 Z" id="Open-Cloud" fill="#A4AAB5"></path>
            <path d="M170.300142,55.2239943 C166.744699,55.2239943 163.727661,52.8295128 162.80515,49.5272727 L182.599195,49.5272727 L185.32788,45.2595424 L162.80515,45.2595424 C163.727661,41.977096 166.744699,39.5633707 170.300142,39.5633707 L183.886115,39.5633707 L186.634497,35.2950906 L169.992638,35.2950906 C163.343008,35.2950906 157.943637,40.7218488 157.943637,47.4033044 C157.943637,54.0847599 163.343008,59.4917246 169.992638,59.4917246 L184.270768,59.4917246 L187,55.2239943 L170.300142,55.2239943 L170.300142,55.2239943 Z M113.666935,59.4917246 C107.018399,59.4917246 101.618481,54.0847599 101.618481,47.4033044 C101.618481,40.7218488 107.018399,35.2950906 113.666935,35.2950906 L130.290191,35.2950906 L127.580656,39.5633707 L113.974986,39.5633707 C109.669934,39.5633707 106.17249,43.0778427 106.17249,47.4033044 C106.17249,51.7287661 109.669934,55.2239943 113.974986,55.2239943 L130.674297,55.2239943 L127.945612,59.4917246 L113.666935,59.4917246 Z M25.7258028,55.2239943 C30.0330432,55.2239943 33.5206385,51.7287661 33.5206385,47.4033044 C33.5206385,43.0778427 30.0330432,39.5633707 25.7258028,39.5633707 L12.3510336,39.5633707 C8.04652905,39.5633707 4.55619797,43.0778427 4.55619797,47.4033044 C4.55619797,51.7287661 8.04652905,55.2239943 12.3510336,55.2239943 L25.7258028,55.2239943 Z M12.0418884,59.4917246 C5.39444648,59.4917246 0,54.0847599 0,47.4033044 C0,40.7218488 5.39444648,35.2950906 12.0418884,35.2950906 L26.0376838,35.2950906 C32.6862201,35.2950906 38.0768364,40.7218488 38.0768364,47.4033044 C38.0768364,54.0847599 32.6862201,59.4917246 26.0376838,59.4917246 L12.0418884,59.4917246 Z M60.8009217,51.651241 C65.2980264,51.651241 68.9492224,48.0020622 68.9492224,43.4830626 C68.9492224,38.9646128 65.2980264,35.2950906 60.8009217,35.2950906 L40.5406961,35.2950906 L40.5406961,59.4917246 L45.1702135,59.4917246 L45.1702135,39.5633707 L60.493418,39.5633707 C62.6459439,39.5633707 64.3755153,41.3200568 64.3755153,43.4830626 C64.3755153,45.6460684 62.6459439,47.4033044 60.493418,47.4033044 L47.4376428,47.3840606 L61.2621772,59.4917246 L67.9884102,59.4917246 L58.6872442,51.651241 L60.8009217,51.651241 Z M137.41968,55.2239943 L137.41968,35.2950906 L132.787974,35.2950906 L132.787974,57.1742184 C132.787974,57.7729762 133.018876,58.3524902 133.46098,58.7967476 C133.902538,59.2404552 134.498395,59.4917246 135.152251,59.4917246 L156.271517,59.4917246 L159.000749,55.2239943 L137.41968,55.2239943 Z M80.7290214,50.9562641 L93.0855266,50.9562641 L86.5518938,40.3936042 L74.5603441,59.4917246 L69.1029743,59.4917246 L83.6886077,36.5508875 C84.3227656,35.623885 85.379878,35.0636149 86.5518938,35.0636149 C87.6861557,35.0636149 88.7427209,35.6040914 89.3571811,36.5118501 L104.000813,59.4917246 L98.5434436,59.4917246 L95.9679634,55.2239943 L83.4577063,55.2239943 L80.7290214,50.9562641 Z M189.491134,40.0636149 C188.120681,40.0636149 187,38.9465023 187,37.5633625 C187,36.1807274 188.120681,35.0636149 189.491134,35.0636149 C190.879319,35.0636149 192,36.1807274 192,37.5633625 C192,38.9465023 190.879319,40.0636149 189.491134,40.0636149 Z M189.259601,36.0742156 C189.651231,36.0742156 189.811328,36.0918834 189.989665,36.1630596 C190.487689,36.322575 190.541392,36.7657855 190.541392,36.9429687 C190.541392,36.9783044 190.541392,37.0671484 190.505421,37.1731555 C190.487689,37.2796674 190.416253,37.4926911 190.166988,37.6522065 C190.13203,37.6698743 190.114297,37.6875422 190.042861,37.7228779 L190.683757,38.8758309 L190.060594,38.8758309 L189.491134,37.8117219 L189.10001,37.8117219 L189.10001,38.8758309 L188.548283,38.8758309 L188.548283,36.0742156 L189.259601,36.0742156 Z M189.455669,37.3508435 C189.633499,37.3331757 189.811328,37.3331757 189.918229,37.1731555 C189.971932,37.1024841 189.989665,37.0318127 189.989665,36.9253009 C189.989665,36.7834533 189.900497,36.6592736 189.775864,36.5886022 C189.651231,36.5350939 189.527105,36.5350939 189.259601,36.5350939 L189.10001,36.5350939 L189.10001,37.3508435 L189.455669,37.3508435 Z M187.533995,37.5456946 C187.533995,38.6451394 188.405918,39.5138925 189.491134,39.5138925 C190.594589,39.5138925 191.466511,38.6451394 191.466511,37.5456946 C191.466511,36.4644225 190.594589,35.5956694 189.491134,35.5956694 C188.405918,35.5956694 187.533995,36.4644225 187.533995,37.5456946 Z" id="Combined-Shape-Copy" fill="#B0B5BE"></path>
        </g>
    </g>
</svg>