<?xml version="1.0" encoding="UTF-8"?>
<svg width="192px" height="128px" viewBox="0 0 192 128" version="1.1" xmlns="http://www.w3.org/2000/svg" xmlns:xlink="http://www.w3.org/1999/xlink">
    <!-- Generator: Sketch 47.1 (45422) - http://www.bohemiancoding.com/sketch -->
    <title>Provider/OraclePC/128-disabled</title>
    <desc>Created with Sketch.</desc>
    <defs></defs>
    <g id="Symbols" stroke="none" stroke-width="1" fill="none" fill-rule="evenodd">
        <g id="Provider/OraclePC/128-disabled" fill="#A4AAB5">
            <path d="M171.187122,55.2653814 C167.613161,55.2653814 164.580409,52.8584287 163.653093,49.5389894 L183.550233,49.5389894 L186.29313,45.2490314 L163.653093,45.2490314 C164.580409,41.9494888 167.613161,39.523192 171.187122,39.523192 L184.843855,39.523192 L187.606552,35.2326813 L170.878017,35.2326813 C164.193752,35.2326813 158.76626,40.6877039 158.76626,47.4039587 C158.76626,54.1202135 164.193752,59.5553394 170.878017,59.5553394 L185.230512,59.5553394 L187.973958,55.2653814 L171.187122,55.2653814 L171.187122,55.2653814 Z M114.25895,59.5553394 C107.575786,59.5553394 102.147743,54.1202135 102.147743,47.4039587 C102.147743,40.6877039 107.575786,35.2326813 114.25895,35.2326813 L130.968785,35.2326813 L128.245139,39.523192 L114.568605,39.523192 C110.241132,39.523192 106.725472,43.0559686 106.725472,47.4039587 C106.725472,51.7519489 110.241132,55.2653814 114.568605,55.2653814 L131.354892,55.2653814 L128.611995,59.5553394 L114.25895,59.5553394 Z M25.8597914,55.2653814 C30.1894653,55.2653814 33.6952251,51.7519489 33.6952251,47.4039587 C33.6952251,43.0559686 30.1894653,39.523192 25.8597914,39.523192 L12.4153619,39.523192 C8.08843805,39.523192 4.57992817,43.0559686 4.57992817,47.4039587 C4.57992817,51.7519489 8.08843805,55.2653814 12.4153619,55.2653814 L25.8597914,55.2653814 Z M12.1046066,59.5553394 C5.42254255,59.5553394 0,54.1202135 0,47.4039587 C0,40.6877039 5.42254255,35.2326813 12.1046066,35.2326813 L26.1732967,35.2326813 C32.8564608,35.2326813 38.2751533,40.6877039 38.2751533,47.4039587 C38.2751533,54.1202135 32.8564608,59.5553394 26.1732967,59.5553394 L12.1046066,59.5553394 Z M61.1175932,51.67402 C65.6381203,51.67402 69.308333,48.0058351 69.308333,43.463299 C69.308333,38.9213157 65.6381203,35.2326813 61.1175932,35.2326813 L40.7518456,35.2326813 L40.7518456,59.5553394 L45.405475,59.5553394 L45.405475,39.523192 L60.8084879,39.523192 C62.9722248,39.523192 64.7108045,41.2890276 64.7108045,43.463299 C64.7108045,45.6375705 62.9722248,47.4039587 60.8084879,47.4039587 L47.6847139,47.3846147 L61.5812511,59.5553394 L68.3425165,59.5553394 L58.9929069,51.67402 L61.1175932,51.67402 Z M138.135408,55.2653814 L138.135408,35.2326813 L133.479578,35.2326813 L133.479578,57.2257629 C133.479578,57.8276393 133.711682,58.4101716 134.15609,58.8567428 C134.599947,59.3027614 135.198908,59.5553394 135.856169,59.5553394 L157.085431,59.5553394 L159.828878,55.2653814 L138.135408,55.2653814 Z M81.1494851,50.9754234 L93.5703471,50.9754234 L87.002685,40.3577497 L74.9486792,59.5553394 L69.4628856,59.5553394 L84.1244858,36.4950189 C84.7619467,35.5631883 85.8245649,35 87.002685,35 C88.1428544,35 89.2049225,35.5432915 89.8225831,36.4557781 L104.542484,59.5553394 L99.0566907,59.5553394 L96.4677965,55.2653814 L83.8923819,55.2653814 L81.1494851,50.9754234 Z M190.478067,40.0260417 C189.100476,40.0260417 187.973958,38.9031108 187.973958,37.5127671 C187.973958,36.1229309 189.100476,35 190.478067,35 C191.873482,35 193,36.1229309 193,37.5127671 C193,38.9031108 191.873482,40.0260417 190.478067,40.0260417 Z M190.245328,36.0158643 C190.638998,36.0158643 190.799929,36.0336241 190.979194,36.105171 C191.479812,36.2655172 191.533795,36.7110361 191.533795,36.8891422 C191.533795,36.9246619 191.533795,37.0139686 191.497637,37.1205278 C191.479812,37.2275944 191.408004,37.4417277 191.157441,37.6020739 C191.122301,37.6198337 191.104476,37.6375936 191.032668,37.6731133 L191.676902,38.8320713 L191.050493,38.8320713 L190.478067,37.7624201 L190.084906,37.7624201 L190.084906,38.8320713 L189.530305,38.8320713 L189.530305,36.0158643 L190.245328,36.0158643 Z M190.442418,37.2991413 C190.621173,37.2813815 190.799929,37.2813815 190.907386,37.1205278 C190.961369,37.0494884 190.979194,36.9784489 190.979194,36.8713823 C190.979194,36.728796 190.889562,36.6039695 190.76428,36.53293 C190.638998,36.479143 190.514225,36.479143 190.245328,36.479143 L190.084906,36.479143 L190.084906,37.2991413 L190.442418,37.2991413 Z M188.510735,37.4950073 C188.510735,38.6001783 189.387198,39.4734562 190.478067,39.4734562 C191.587269,39.4734562 192.463733,38.6001783 192.463733,37.4950073 C192.463733,36.4081035 191.587269,35.5348256 190.478067,35.5348256 C189.387198,35.5348256 188.510735,36.4081035 188.510735,37.4950073 Z" id="Combined-Shape-Copy"></path>
            <path d="M64.114,93.13 C62.8166602,91.7766599 62.1213338,89.9240118 62.028,87.572 C62.0093332,87.0679975 62,86.2466724 62,85.108 C62,83.9506609 62.0093332,83.1106693 62.028,82.588 C62.1213338,80.2359882 62.8166602,78.3833401 64.114,77.03 C65.4113398,75.6766599 67.3013209,75 69.784,75 C71.4453416,75 72.8546609,75.2939971 74.012,75.882 C75.1693391,76.4700029 76.0419971,77.2399952 76.63,78.192 C77.2180029,79.1440048 77.5399997,80.1613279 77.596,81.244 C77.596,81.4120008 77.5353339,81.5473328 77.414,81.65 C77.2926661,81.7526672 77.1480008,81.804 76.98,81.804 L75.58,81.804 C75.3933324,81.804 75.2440006,81.7573338 75.132,81.664 C75.0199994,81.5706662 74.9360003,81.4120011 74.88,81.188 C74.5626651,79.7506595 73.9886708,78.7426696 73.158,78.164 C72.3273292,77.5853304 71.2026738,77.296 69.784,77.296 C66.5359838,77.296 64.8466673,79.1066486 64.716,82.728 C64.6973332,83.2320025 64.688,84.0066614 64.688,85.052 C64.688,86.0973386 64.6973332,86.890664 64.716,87.432 C64.8466673,91.0346847 66.5359838,92.836 69.784,92.836 C71.184007,92.836 72.3039958,92.5466696 73.144,91.968 C73.9840042,91.3893304 74.5626651,90.3906738 74.88,88.972 C74.9360003,88.7479989 75.0199994,88.5893338 75.132,88.496 C75.2440006,88.4026662 75.3933324,88.356 75.58,88.356 L76.98,88.356 C77.1480008,88.356 77.2926661,88.4073328 77.414,88.51 C77.5353339,88.6126672 77.596,88.7479992 77.596,88.916 C77.5399997,89.9986721 77.2180029,91.0159952 76.63,91.968 C76.0419971,92.9200048 75.1693391,93.6899971 74.012,94.278 C72.8546609,94.8660029 71.4453416,95.16 69.784,95.16 C67.3013209,95.16 65.4113398,94.4833401 64.114,93.13 Z M80.45,94.698 C80.328666,94.5766661 80.268,94.4226676 80.268,94.236 L80.268,75.644 C80.268,75.4386656 80.328666,75.2800006 80.45,75.168 C80.5713339,75.0559994 80.7253324,75 80.912,75 L82.144,75 C82.3306676,75 82.484666,75.0606661 82.606,75.182 C82.7273339,75.3033339 82.788,75.4573324 82.788,75.644 L82.788,94.236 C82.788,94.4226676 82.7273339,94.5766661 82.606,94.698 C82.484666,94.8193339 82.3306676,94.88 82.144,94.88 L80.912,94.88 C80.7253324,94.88 80.5713339,94.8193339 80.45,94.698 Z M87.35,93.424 C86.2393278,92.2666609 85.646667,90.7266763 85.572,88.804 L85.544,87.6 L85.572,86.396 C85.646667,84.4733237 86.248661,82.9333391 87.378,81.776 C88.507339,80.6186609 90.0799899,80.04 92.096,80.04 C94.1120101,80.04 95.684661,80.6186609 96.814,81.776 C97.943339,82.9333391 98.5453329,84.4733237 98.62,86.396 C98.6573335,86.8066687 98.676,87.207998 98.676,87.6 C98.676,87.992002 98.6573335,88.3933313 98.62,88.804 C98.5453329,90.7266763 97.9526722,92.2666609 96.842,93.424 C95.7313278,94.5813391 94.1493436,95.16 92.096,95.16 C90.0426564,95.16 88.4606722,94.5813391 87.35,93.424 Z M94.938,91.926 C95.6380035,91.1699962 96.0159997,90.0826738 96.072,88.664 C96.0906667,88.4773324 96.1,88.1226693 96.1,87.6 C96.1,87.0773307 96.0906667,86.7226676 96.072,86.536 C96.0159997,85.1173262 95.6380035,84.0300038 94.938,83.274 C94.2379965,82.5179962 93.2906726,82.14 92.096,82.14 C90.9013273,82.14 89.9540035,82.5179962 89.254,83.274 C88.5539965,84.0300038 88.1760003,85.1173262 88.12,86.536 L88.092,87.6 L88.12,88.664 C88.1760003,90.0826738 88.5539965,91.1699962 89.254,91.926 C89.9540035,92.6820038 90.9013273,93.06 92.096,93.06 C93.2906726,93.06 94.2379965,92.6820038 94.938,91.926 Z M102.72,93.438 C101.749328,92.2899943 101.264,90.7640095 101.264,88.86 L101.264,80.964 C101.264,80.7773324 101.324666,80.6233339 101.446,80.502 C101.567334,80.3806661 101.721332,80.32 101.908,80.32 L103.196,80.32 C103.382668,80.32 103.536666,80.3806661 103.658,80.502 C103.779334,80.6233339 103.84,80.7773324 103.84,80.964 L103.84,88.72 C103.84,91.5573475 105.071988,92.976 107.536,92.976 C108.730673,92.976 109.677996,92.5980038 110.378,91.842 C111.078003,91.0859962 111.428,90.04534 111.428,88.72 L111.428,80.964 C111.428,80.7773324 111.488666,80.6233339 111.61,80.502 C111.731334,80.3806661 111.885332,80.32 112.072,80.32 L113.36,80.32 C113.546668,80.32 113.700666,80.3806661 113.822,80.502 C113.943334,80.6233339 114.004,80.7773324 114.004,80.964 L114.004,94.236 C114.004,94.4226676 113.943334,94.5766661 113.822,94.698 C113.700666,94.8193339 113.546668,94.88 113.36,94.88 L112.156,94.88 C111.969332,94.88 111.815334,94.8193339 111.694,94.698 C111.572666,94.5766661 111.512,94.4226676 111.512,94.236 L111.512,92.976 C110.970664,93.7040036 110.336004,94.2499982 109.608,94.614 C108.879996,94.9780018 107.956006,95.16 106.836,95.16 C105.062658,95.16 103.690671,94.5860057 102.72,93.438 Z M118.314,93.256 C117.333995,91.9866603 116.806667,90.381343 116.732,88.44 L116.704,87.6 L116.732,86.76 C116.806667,84.8373237 117.338662,83.2366731 118.328,81.958 C119.317338,80.6793269 120.782657,80.04 122.724,80.04 C124.665343,80.04 126.177328,80.7306598 127.26,82.112 L127.26,75.644 C127.26,75.4573324 127.320666,75.3033339 127.442,75.182 C127.563334,75.0606661 127.717332,75 127.904,75 L129.164,75 C129.350668,75 129.504666,75.0606661 129.626,75.182 C129.747334,75.3033339 129.808,75.4573324 129.808,75.644 L129.808,94.236 C129.808,94.4226676 129.747334,94.5766661 129.626,94.698 C129.504666,94.8193339 129.350668,94.88 129.164,94.88 L127.96,94.88 C127.773332,94.88 127.624001,94.8193339 127.512,94.698 C127.399999,94.5766661 127.344,94.4226676 127.344,94.236 L127.344,93.032 C126.279995,94.4506738 124.74001,95.16 122.724,95.16 C120.76399,95.16 119.294005,94.5253397 118.314,93.256 Z M126.196,91.674 C126.849337,90.8059957 127.204,89.7746726 127.26,88.58 C127.278667,88.3746656 127.288,88.0200025 127.288,87.516 C127.288,86.9933307 127.278667,86.6293344 127.26,86.424 C127.222666,85.2853276 126.863337,84.3006708 126.182,83.47 C125.500663,82.6393292 124.52534,82.224 123.256,82.224 C121.911993,82.224 120.932003,82.6439958 120.316,83.484 C119.699997,84.3240042 119.364,85.4253265 119.308,86.788 L119.28,87.6 C119.28,91.1840179 120.60532,92.976 123.256,92.976 C124.562673,92.976 125.542663,92.5420043 126.196,91.674 Z" id="Open-Cloud"></path>
        </g>
    </g>
</svg>