<?xml version="1.0" encoding="UTF-8"?>
<svg width="112px" height="11px" viewBox="0 0 112 11" version="1.1" xmlns="http://www.w3.org/2000/svg" xmlns:xlink="http://www.w3.org/1999/xlink">
    <!-- Generator: Sketch 47.1 (45422) - http://www.bohemiancoding.com/sketch -->
    <title>Provider-AWS-3 Copy 2</title>
    <desc>Created with Sketch.</desc>
    <defs></defs>
    <g id="Coriolis" stroke="none" stroke-width="1" fill="none" fill-rule="evenodd">
        <g id="Endpoints-List" transform="translate(-672.000000, -412.000000)" fill="#616870">
            <g id="Item-Connection-Copy-3" transform="translate(352.000000, 384.000000)">
                <g id="Provider/OraclePC/32" transform="translate(320.000000, 10.000000)">
                    <path d="M81.1574269,27.1337891 C80.5504843,26.4729785 80.2251854,25.5683651 80.1815205,24.4199219 C80.1727875,24.1738269 80.1684211,23.7727892 80.1684211,23.2167969 C80.1684211,22.6516899 80.1727875,22.2415377 80.1815205,21.9863281 C80.2251854,20.8378849 80.5504843,19.9332715 81.1574269,19.2724609 C81.7643695,18.6116503 82.6485712,18.28125 83.8100585,18.28125 C84.5872943,18.28125 85.246625,18.4248033 85.7880702,18.7119141 C86.3295154,18.9990249 86.7377764,19.3749977 87.0128655,19.8398437 C87.2879546,20.3046898 87.4385964,20.8014296 87.4647953,21.3300781 C87.4647953,21.4121098 87.4364135,21.4781899 87.3796491,21.5283203 C87.3228847,21.5784508 87.2552051,21.6035156 87.1766082,21.6035156 L86.5216374,21.6035156 C86.4343076,21.6035156 86.3644447,21.5807294 86.3120468,21.5351562 C86.2596489,21.4895831 86.220351,21.4121099 86.194152,21.3027344 C86.0456913,20.6009079 85.7771559,20.1087254 85.388538,19.8261719 C84.9999201,19.5436184 84.4737655,19.4023438 83.8100585,19.4023438 C82.2905187,19.4023438 81.5001952,20.2864495 81.4390643,22.0546875 C81.4303313,22.3007825 81.4259649,22.6790339 81.4259649,23.1894531 C81.4259649,23.6998723 81.4303313,24.0872383 81.4390643,24.3515625 C81.5001952,26.1106859 82.2905187,26.9902344 83.8100585,26.9902344 C84.4650325,26.9902344 84.9890039,26.8489597 85.3819883,26.5664062 C85.7749727,26.2838528 86.0456913,25.7962274 86.194152,25.1035156 C86.220351,24.9941401 86.2596489,24.9166669 86.3120468,24.8710938 C86.3644447,24.8255206 86.4343076,24.8027344 86.5216374,24.8027344 L87.1766082,24.8027344 C87.2552051,24.8027344 87.3228847,24.8277992 87.3796491,24.8779297 C87.4364135,24.9280601 87.4647953,24.9941402 87.4647953,25.0761719 C87.4385964,25.6048204 87.2879546,26.1015602 87.0128655,26.5664062 C86.7377764,27.0312523 86.3295154,27.4072251 85.7880702,27.6943359 C85.246625,27.9814467 84.5872943,28.125 83.8100585,28.125 C82.6485712,28.125 81.7643695,27.7945997 81.1574269,27.1337891 Z M88.7574694,27.8994141 C88.700705,27.840169 88.6723232,27.7649744 88.6723232,27.6738281 L88.6723232,18.5957031 C88.6723232,18.4954422 88.700705,18.417969 88.7574694,18.3632812 C88.8142339,18.3085935 88.8862799,18.28125 88.9736098,18.28125 L89.5499841,18.28125 C89.6373139,18.28125 89.70936,18.3108721 89.7661244,18.3701172 C89.8228888,18.4293623 89.8512706,18.5045568 89.8512706,18.5957031 L89.8512706,27.6738281 C89.8512706,27.7649744 89.8228888,27.840169 89.7661244,27.8994141 C89.70936,27.9586592 89.6373139,27.9882812 89.5499841,27.9882812 L88.9736098,27.9882812 C88.8862799,27.9882812 88.8142339,27.9586592 88.7574694,27.8994141 Z M91.9430091,27.2773438 C91.4233963,26.7122368 91.1461281,25.9602912 91.1111962,25.0214844 L91.0980968,24.4335938 L91.1111962,23.8457031 C91.1461281,22.9068963 91.4277627,22.1549507 91.9561085,21.5898438 C92.4844542,21.0247368 93.2201973,20.7421875 94.1633599,20.7421875 C95.1065225,20.7421875 95.8422657,21.0247368 96.3706114,21.5898438 C96.8989571,22.1549507 97.1805917,22.9068963 97.2155237,23.8457031 C97.2329896,24.046225 97.2417225,24.2421865 97.2417225,24.4335938 C97.2417225,24.625001 97.2329896,24.8209625 97.2155237,25.0214844 C97.1805917,25.9602912 96.9033235,26.7122368 96.3837108,27.2773438 C95.8640981,27.8424507 95.1239885,28.125 94.1633599,28.125 C93.2027313,28.125 92.4626218,27.8424507 91.9430091,27.2773438 Z M95.4929506,26.5458984 C95.8204376,26.176756 95.9972779,25.6458368 96.0234769,24.953125 C96.0322099,24.8619787 96.0365763,24.6888034 96.0365763,24.4335938 C96.0365763,24.1783841 96.0322099,24.0052088 96.0234769,23.9140625 C95.9972779,23.2213507 95.8204376,22.6904315 95.4929506,22.3212891 C95.1654636,21.9521466 94.7222711,21.7675781 94.1633599,21.7675781 C93.6044488,21.7675781 93.1612563,21.9521466 92.8337693,22.3212891 C92.5062823,22.6904315 92.3294419,23.2213507 92.303243,23.9140625 L92.2901436,24.4335938 L92.303243,24.953125 C92.3294419,25.6458368 92.5062823,26.176756 92.8337693,26.5458984 C93.1612563,26.9150409 93.6044488,27.0996094 94.1633599,27.0996094 C94.7222711,27.0996094 95.1654636,26.9150409 95.4929506,26.5458984 Z M99.0911218,27.2841797 C98.6370064,26.72363 98.4099522,25.9785203 98.4099522,25.0488281 L98.4099522,21.1933594 C98.4099522,21.1022131 98.438334,21.0270185 98.4950984,20.9677734 C98.5518628,20.9085283 98.6239089,20.8789062 98.7112387,20.8789062 L99.3138118,20.8789062 C99.4011417,20.8789062 99.4731878,20.9085283 99.5299522,20.9677734 C99.5867166,21.0270185 99.6150984,21.1022131 99.6150984,21.1933594 L99.6150984,24.9804688 C99.6150984,26.3658923 100.191467,27.0585938 101.344221,27.0585938 C101.903132,27.0585938 102.346325,26.8740253 102.673812,26.5048828 C103.001299,26.1357403 103.16504,25.6276074 103.16504,24.9804688 L103.16504,21.1933594 C103.16504,21.1022131 103.193422,21.0270185 103.250186,20.9677734 C103.306951,20.9085283 103.378997,20.8789062 103.466326,20.8789062 L104.0689,20.8789062 C104.156229,20.8789062 104.228275,20.9085283 104.28504,20.9677734 C104.341804,21.0270185 104.370186,21.1022131 104.370186,21.1933594 L104.370186,27.6738281 C104.370186,27.7649744 104.341804,27.840169 104.28504,27.8994141 C104.228275,27.9586592 104.156229,27.9882813 104.0689,27.9882813 L103.505625,27.9882813 C103.418295,27.9882813 103.346249,27.9586592 103.289484,27.8994141 C103.23272,27.840169 103.204338,27.7649744 103.204338,27.6738281 L103.204338,27.0585938 C102.951082,27.4140643 102.654164,27.6806632 102.313578,27.8583984 C101.972991,28.0361337 101.540715,28.125 101.016736,28.125 C100.187102,28.125 99.5452371,27.8447294 99.0911218,27.2841797 Z M106.34403,27.1953125 C105.885548,26.5755177 105.638845,25.7916714 105.603913,24.84375 L105.590813,24.4335938 L105.603913,24.0234375 C105.638845,23.0846307 105.887731,22.303063 106.35058,21.6787109 C106.813428,21.0543589 107.498957,20.7421875 108.407188,20.7421875 C109.315418,20.7421875 110.02278,21.0794237 110.529293,21.7539062 L110.529293,18.5957031 C110.529293,18.5045568 110.557675,18.4293623 110.614439,18.3701172 C110.671204,18.3108721 110.74325,18.28125 110.83058,18.28125 L111.420053,18.28125 C111.507383,18.28125 111.579429,18.3108721 111.636194,18.3701172 C111.692958,18.4293623 111.72134,18.5045568 111.72134,18.5957031 L111.72134,27.6738281 C111.72134,27.7649744 111.692958,27.840169 111.636194,27.8994141 C111.579429,27.9586592 111.507383,27.9882812 111.420053,27.9882812 L110.856778,27.9882812 C110.769448,27.9882812 110.699586,27.9586592 110.647188,27.8994141 C110.59479,27.840169 110.568591,27.7649744 110.568591,27.6738281 L110.568591,27.0859375 C110.070811,27.7786493 109.35035,28.125 108.407188,28.125 C107.490224,28.125 106.802512,27.8151073 106.34403,27.1953125 Z M110.031515,26.4228516 C110.33717,25.9990213 110.503094,25.4954456 110.529293,24.9121094 C110.538026,24.8118485 110.542392,24.6386731 110.542392,24.3925781 C110.542392,24.1373685 110.538026,23.9596359 110.529293,23.859375 C110.511827,23.3033826 110.34372,22.8225932 110.024965,22.4169922 C109.706211,22.0113912 109.24992,21.8085938 108.656077,21.8085938 C108.027302,21.8085938 107.568827,22.0136698 107.280638,22.4238281 C106.992449,22.8339864 106.835258,23.3717415 106.809059,24.0371094 L106.79596,24.4335938 C106.79596,26.1836025 107.415992,27.0585938 108.656077,27.0585938 C109.267386,27.0585938 109.725861,26.8466818 110.031515,26.4228516 Z" id="Cloud"></path>
                    <path d="M65.7520886,26.4052407 C64.3793487,26.4052407 63.2144844,25.4403409 62.8583072,24.1096433 L70.5006957,24.1096433 L71.5542281,22.389884 L62.8583072,22.389884 C63.2144844,21.0671626 64.3793487,20.0945082 65.7520886,20.0945082 L70.9975692,20.0945082 L72.0587069,18.3745273 L65.6333629,18.3745273 C63.0659716,18.3745273 60.9812997,20.561338 60.9812997,23.2537518 C60.9812997,25.9461655 63.0659716,28.125 65.6333629,28.125 L71.146082,28.125 L72.1998258,26.4052407 L65.7520886,26.4052407 L65.7520886,26.4052407 Z M43.8862722,28.125 C41.3193034,28.125 39.2344203,25.9461655 39.2344203,23.2537518 C39.2344203,20.561338 41.3193034,18.3745273 43.8862722,18.3745273 L50.3044335,18.3745273 L49.2582949,20.0945082 L44.0052091,20.0945082 C42.3430488,20.0945082 40.992702,21.5107285 40.992702,23.2537518 C40.992702,24.9967751 42.3430488,26.4052407 44.0052091,26.4052407 L50.452735,26.4052407 L49.3992025,28.125 L43.8862722,28.125 Z M9.9326122,26.4052407 C11.5956176,26.4052407 12.9421618,24.9967751 12.9421618,23.2537518 C12.9421618,21.5107285 11.5956176,20.0945082 9.9326122,20.0945082 L4.76867633,20.0945082 C3.10672725,20.0945082 1.75912674,21.5107285 1.75912674,23.2537518 C1.75912674,24.9967751 3.10672725,26.4052407 4.76867633,26.4052407 L9.9326122,26.4052407 Z M4.64931683,28.125 C2.08277056,28.125 0,25.9461655 0,23.2537518 C0,20.561338 2.08277056,18.3745273 4.64931683,18.3745273 L10.053028,18.3745273 C12.6199968,18.3745273 14.7012885,20.561338 14.7012885,23.2537518 C14.7012885,25.9461655 12.6199968,28.125 10.053028,28.125 L4.64931683,28.125 Z M23.4749516,24.9655349 C25.2112627,24.9655349 26.6209724,23.4950321 26.6209724,21.6740192 C26.6209724,19.8532279 25.2112627,18.3745273 23.4749516,18.3745273 L15.6525732,18.3745273 L15.6525732,28.125 L17.4400082,28.125 L17.4400082,20.0945082 L23.3562259,20.0945082 C24.187306,20.0945082 24.8550855,20.8023968 24.8550855,21.6740192 C24.8550855,22.5456416 24.187306,23.2537518 23.3562259,23.2537518 L18.3154521,23.2459971 L23.6530402,28.125 L26.2500073,28.125 L22.6588706,24.9655349 L23.4749516,24.9655349 Z M53.0570961,26.4052407 L53.0570961,18.3745273 L51.268816,18.3745273 L51.268816,27.1911188 C51.268816,27.4323992 51.357966,27.6659248 51.5286606,27.8449464 C51.699144,28.0237465 51.9292016,28.125 52.1816522,28.125 L60.3357021,28.125 L61.3894459,26.4052407 L53.0570961,26.4052407 Z M31.1690977,24.6854813 L35.9398866,24.6854813 L33.4172816,20.4290659 L28.7874003,28.125 L26.6803353,28.125 L32.3117802,18.8805735 C32.5566256,18.507021 32.9647717,18.28125 33.4172816,18.28125 C33.8552148,18.28125 34.2631496,18.4990448 34.5003899,18.8648426 L40.1542278,28.125 L38.0471629,28.125 L37.052782,26.4052407 L32.2226302,26.4052407 L31.1690977,24.6854813 Z M73.1616409,20.2960907 C72.6325154,20.2960907 72.1998258,19.8459299 72.1998258,19.2885686 C72.1998258,18.7314108 72.6325154,18.28125 73.1616409,18.28125 C73.6976127,18.28125 74.1303024,18.7314108 74.1303024,19.2885686 C74.1303024,19.8459299 73.6976127,20.2960907 73.1616409,20.2960907 Z M73.072247,18.6884899 C73.2234537,18.6884899 73.2852665,18.6956095 73.3541213,18.7242912 C73.5464061,18.7885708 73.5671407,18.9671705 73.5671407,19.0385697 C73.5671407,19.0528089 73.5671407,19.0886102 73.5532524,19.1313277 C73.5464061,19.1742486 73.518825,19.2600903 73.4225848,19.32437 C73.4090877,19.3314895 73.4022414,19.3386091 73.3746603,19.3528483 L73.6221072,19.8174516 L73.3815067,19.8174516 L73.1616409,19.3886496 L73.0106299,19.3886496 L73.0106299,19.8174516 L72.7976104,19.8174516 L72.7976104,18.6884899 L73.072247,18.6884899 Z M73.1479482,19.2029303 C73.2166073,19.1958107 73.2852665,19.1958107 73.3265403,19.1313277 C73.3472749,19.1028494 73.3541213,19.074371 73.3541213,19.0314502 C73.3541213,18.9742901 73.3196939,18.9242496 73.2715738,18.8957713 C73.2234537,18.8742092 73.1755292,18.8742092 73.072247,18.8742092 L73.0106299,18.8742092 L73.0106299,19.2029303 L73.1479482,19.2029303 Z M72.4059989,19.2814491 C72.4059989,19.7244903 72.7426439,20.0745701 73.1616409,20.0745701 C73.5876798,20.0745701 73.9243249,19.7244903 73.9243249,19.2814491 C73.9243249,18.8457309 73.5876798,18.495651 73.1616409,18.495651 C72.7426439,18.495651 72.4059989,18.8457309 72.4059989,19.2814491 Z" id="Combined-Shape-Copy"></path>
                </g>
            </g>
        </g>
    </g>
</svg>