<?xml version="1.0" encoding="UTF-8"?>
<svg width="192px" height="64px" viewBox="0 0 192 64" version="1.1" xmlns="http://www.w3.org/2000/svg" xmlns:xlink="http://www.w3.org/1999/xlink">
    <!-- Generator: Sketch 47.1 (45422) - http://www.bohemiancoding.com/sketch -->
    <title>Provider/OraclePC/64</title>
    <desc>Created with Sketch.</desc>
    <defs></defs>
    <g id="Symbols" stroke="none" stroke-width="1" fill="none" fill-rule="evenodd">
        <g id="Provider/OraclePC/64">
            <path d="M139.127018,38.3888889 C138.086545,37.3148094 137.528889,35.8444538 137.454035,33.9777778 C137.439064,33.5777758 137.431579,32.9259304 137.431579,32.0222222 C137.431579,31.1036991 137.439064,30.4370391 137.454035,30.0222222 C137.528889,28.1555462 138.086545,26.6851906 139.127018,25.6111111 C140.167491,24.5370317 141.683265,24 143.674386,24 C145.00679,24 146.137071,24.233331 147.065263,24.7 C147.993455,25.166669 148.693331,25.777774 149.164912,26.5333333 C149.636494,27.2888927 149.894737,28.096292 149.939649,28.9555556 C149.939649,29.0888896 149.890995,29.1962959 149.793684,29.2777778 C149.696374,29.3592597 149.580352,29.4 149.445614,29.4 L148.322807,29.4 C148.173099,29.4 148.053334,29.3629633 147.963509,29.2888889 C147.873684,29.2148144 147.806316,29.0888898 147.761404,28.9111111 C147.506899,27.7703647 147.046553,26.9703727 146.380351,26.5111111 C145.714149,26.0518496 144.812169,25.8222222 143.674386,25.8222222 C141.069461,25.8222222 139.71462,27.2592449 139.609825,30.1333333 C139.594854,30.5333353 139.587368,31.148144 139.587368,31.9777778 C139.587368,32.8074116 139.594854,33.4370349 139.609825,33.8666667 C139.71462,36.7259402 141.069461,38.1555556 143.674386,38.1555556 C144.797199,38.1555556 145.695435,37.9259282 146.369123,37.4666667 C147.04281,37.0074051 147.506899,36.2148204 147.761404,35.0888889 C147.806316,34.9111102 147.873684,34.7851856 147.963509,34.7111111 C148.053334,34.6370367 148.173099,34.6 148.322807,34.6 L149.445614,34.6 C149.580352,34.6 149.696374,34.6407403 149.793684,34.7222222 C149.890995,34.8037041 149.939649,34.9111104 149.939649,35.0444444 C149.894737,35.903708 149.636494,36.7111073 149.164912,37.4666667 C148.693331,38.222226 147.993455,38.833331 147.065263,39.3 C146.137071,39.766669 145.00679,40 143.674386,40 C141.683265,40 140.167491,39.4629683 139.127018,38.3888889 Z M152.155662,39.6333333 C152.058351,39.5370366 152.009697,39.4148156 152.009697,39.2666667 L152.009697,24.5111111 C152.009697,24.3481473 152.058351,24.2222227 152.155662,24.1333333 C152.252972,24.044444 152.37648,24 152.526188,24 L153.514258,24 C153.663967,24 153.787474,24.0481477 153.884785,24.1444444 C153.982095,24.2407412 154.03075,24.3629622 154.03075,24.5111111 L154.03075,39.2666667 C154.03075,39.4148156 153.982095,39.5370366 153.884785,39.6333333 C153.787474,39.7296301 153.663967,39.7777778 153.514258,39.7777778 L152.526188,39.7777778 C152.37648,39.7777778 152.252972,39.7296301 152.155662,39.6333333 Z M157.616587,38.6222222 C156.725822,37.7036991 156.250505,36.4814891 156.190622,34.9555556 L156.168166,34 L156.190622,33.0444444 C156.250505,31.5185109 156.733308,30.2963009 157.639043,29.3777778 C158.544779,28.4592547 159.806053,28 161.422903,28 C163.039753,28 164.301027,28.4592547 165.206762,29.3777778 C166.112498,30.2963009 166.5953,31.5185109 166.655183,33.0444444 C166.685125,33.370372 166.700096,33.6888873 166.700096,34 C166.700096,34.3111127 166.685125,34.629628 166.655183,34.9555556 C166.5953,36.4814891 166.119983,37.7036991 165.229219,38.6222222 C164.338454,39.5407453 163.069695,40 161.422903,40 C159.776111,40 158.507352,39.5407453 157.616587,38.6222222 Z M163.702201,37.4333333 C164.263607,36.8333303 164.566762,35.970376 164.611675,34.8444444 C164.626646,34.6962956 164.634131,34.4148169 164.634131,34 C164.634131,33.5851831 164.626646,33.3037044 164.611675,33.1555556 C164.566762,32.029624 164.263607,31.1666697 163.702201,30.5666667 C163.140795,29.9666637 162.381036,29.6666667 161.422903,29.6666667 C160.464769,29.6666667 159.705011,29.9666637 159.143604,30.5666667 C158.582198,31.1666697 158.279043,32.029624 158.234131,33.1555556 L158.211675,34 L158.234131,34.8444444 C158.279043,35.970376 158.582198,36.8333303 159.143604,37.4333333 C159.705011,38.0333363 160.464769,38.3333333 161.422903,38.3333333 C162.381036,38.3333333 163.140795,38.0333363 163.702201,37.4333333 Z M169.870494,38.6333333 C169.092011,37.7222177 168.702775,36.5111187 168.702775,35 L168.702775,28.7333333 C168.702775,28.5851844 168.75143,28.4629634 168.84874,28.3666667 C168.94605,28.2703699 169.069558,28.2222222 169.219266,28.2222222 L170.252249,28.2222222 C170.401957,28.2222222 170.525465,28.2703699 170.622775,28.3666667 C170.720086,28.4629634 170.76874,28.5851844 170.76874,28.7333333 L170.76874,34.8888889 C170.76874,37.140752 171.7568,38.2666667 173.732951,38.2666667 C174.691084,38.2666667 175.450843,37.9666697 176.012249,37.3666667 C176.573655,36.7666637 176.854354,35.940746 176.854354,34.8888889 L176.854354,28.7333333 C176.854354,28.5851844 176.903009,28.4629634 177.000319,28.3666667 C177.097629,28.2703699 177.221137,28.2222222 177.370845,28.2222222 L178.403828,28.2222222 C178.553536,28.2222222 178.677044,28.2703699 178.774354,28.3666667 C178.871665,28.4629634 178.920319,28.5851844 178.920319,28.7333333 L178.920319,39.2666667 C178.920319,39.4148156 178.871665,39.5370366 178.774354,39.6333333 C178.677044,39.7296301 178.553536,39.7777778 178.403828,39.7777778 L177.438214,39.7777778 C177.288505,39.7777778 177.164998,39.7296301 177.067687,39.6333333 C176.970377,39.5370366 176.921723,39.4148156 176.921723,39.2666667 L176.921723,38.2666667 C176.487568,38.8444473 175.978568,39.2777763 175.394705,39.5666667 C174.810842,39.855557 174.069797,40 173.171547,40 C171.749318,40 170.648978,39.544449 169.870494,38.6333333 Z M182.304051,38.4888889 C181.518082,37.4814764 181.095162,36.2074151 181.035279,34.6666667 L181.012823,34 L181.035279,33.3333333 C181.095162,31.8073998 181.521825,30.5370421 182.315279,29.5222222 C183.108733,28.5074023 184.283926,28 185.840893,28 C187.39786,28 188.610479,28.5481427 189.478788,29.6444444 L189.478788,24.5111111 C189.478788,24.3629622 189.527442,24.2407412 189.624753,24.1444444 C189.722063,24.0481477 189.845571,24 189.995279,24 L191.005805,24 C191.155514,24 191.279021,24.0481477 191.376332,24.1444444 C191.473642,24.2407412 191.522297,24.3629622 191.522297,24.5111111 L191.522297,39.2666667 C191.522297,39.4148156 191.473642,39.5370366 191.376332,39.6333333 C191.279021,39.7296301 191.155514,39.7777778 191.005805,39.7777778 L190.040191,39.7777778 C189.890483,39.7777778 189.770718,39.7296301 189.680893,39.6333333 C189.591068,39.5370366 189.546156,39.4148156 189.546156,39.2666667 L189.546156,38.3111111 C188.692819,39.4370427 187.457743,40 185.840893,40 C184.268956,40 183.09002,39.4963013 182.304051,38.4888889 Z M188.625455,37.2333333 C189.149434,36.544441 189.433875,35.7259307 189.478788,34.7777778 C189.493759,34.614814 189.501244,34.3333353 189.501244,33.9333333 C189.501244,33.5185164 189.493759,33.2296304 189.478788,33.0666667 C189.448846,32.1629584 189.160662,31.3814848 188.614227,30.7222222 C188.067791,30.0629597 187.285577,29.7333333 186.26756,29.7333333 C185.18966,29.7333333 184.403703,30.0666633 183.909665,30.7333333 C183.415628,31.4000033 183.146157,32.2740687 183.101244,33.3555556 L183.078788,34 C183.078788,36.8444587 184.141701,38.2666667 186.26756,38.2666667 C187.315518,38.2666667 188.101475,37.9222257 188.625455,37.2333333 Z" id="Cloud" fill="#000000"></path>
            <path d="M112.717866,37.2047086 C110.364598,37.2047086 108.367688,35.6363636 107.757098,33.473452 L120.858335,33.473452 L122.664391,30.6781607 L107.757098,30.6781607 C108.367688,28.5282136 110.364598,26.9472642 112.717866,26.9472642 L121.710119,26.9472642 L123.529212,24.1516127 L112.514336,24.1516127 C108.113094,24.1516127 104.539371,27.7060479 104.539371,32.0822886 C104.539371,36.4585293 108.113094,40 112.514336,40 L121.964712,40 L123.77113,37.2047086 L112.717866,37.2047086 L112.717866,37.2047086 Z M75.2336094,40 C70.8330915,40 67.2590062,36.4585293 67.2590062,32.0822886 C67.2590062,27.7060479 70.8330915,24.1516127 75.2336094,24.1516127 L86.2361717,24.1516127 L84.4427913,26.9472642 L75.4375014,26.9472642 C72.5880837,26.9472642 70.2732034,29.2491841 70.2732034,32.0822886 C70.2732034,34.9153931 72.5880837,37.2047086 75.4375014,37.2047086 L86.4904029,37.2047086 L84.6843472,40 L75.2336094,40 Z M17.0273352,37.2047086 C19.8782015,37.2047086 22.1865631,34.9153931 22.1865631,32.0822886 C22.1865631,29.2491841 19.8782015,26.9472642 17.0273352,26.9472642 L8.17487371,26.9472642 C5.32581814,26.9472642 3.01564583,29.2491841 3.01564583,32.0822886 C3.01564583,34.9153931 5.32581814,37.2047086 8.17487371,37.2047086 L17.0273352,37.2047086 Z M7.97025742,40 C3.57046383,40 0,36.4585293 0,32.0822886 C0,27.7060479 3.57046383,24.1516127 7.97025742,24.1516127 L17.2337623,24.1516127 C21.6342802,24.1516127 25.2022089,27.7060479 25.2022089,32.0822886 C25.2022089,36.4585293 21.6342802,40 17.2337623,40 L7.97025742,40 Z M40.2427742,34.8646155 C43.2193075,34.8646155 45.6359527,32.4744649 45.6359527,29.5145963 C45.6359527,26.5550879 43.2193075,24.1516127 40.2427742,24.1516127 L26.8329827,24.1516127 L26.8329827,40 L29.897157,40 L29.897157,26.9472642 L40.0392444,26.9472642 C41.4639532,26.9472642 42.608718,28.097864 42.608718,29.5145963 C42.608718,30.9313286 41.4639532,32.0822886 40.0392444,32.0822886 L31.3979179,32.0696842 L40.5480689,40 L45.0000125,40 L38.8437782,34.8646155 L40.2427742,34.8646155 Z M90.9550218,37.2047086 L90.9550218,24.1516127 L87.8893989,24.1516127 L87.8893989,38.4820725 C87.8893989,38.8742488 88.0422274,39.2538207 88.3348468,39.5448018 C88.627104,39.8354228 89.0214884,40 89.4542609,40 L103.432632,40 L105.23905,37.2047086 L90.9550218,37.2047086 Z M53.432739,34.4094173 L61.6112342,34.4094173 L57.2867684,27.4910531 L49.349829,40 L45.7377177,40 L55.3916231,24.9741385 C55.8113582,24.3669675 56.5110373,24 57.2867684,24 C58.037511,24 58.736828,24.354003 59.1435255,24.9485696 L68.8358192,40 L65.2237078,40 L63.5190548,37.2047086 L55.2387947,37.2047086 L53.432739,34.4094173 Z M125.419956,27.2749157 C124.512884,27.2749157 123.77113,26.5432258 123.77113,25.6372925 C123.77113,24.7316899 124.512884,24 125.419956,24 C126.338765,24 127.080518,24.7316899 127.080518,25.6372925 C127.080518,26.5432258 126.338765,27.2749157 125.419956,27.2749157 Z M125.266709,24.6619264 C125.525921,24.6619264 125.631885,24.6734986 125.749922,24.7201178 C126.079553,24.8245977 126.115098,25.1148931 126.115098,25.2309451 C126.115098,25.2540894 126.115098,25.3122807 126.09129,25.3817136 C126.079553,25.451477 126.032271,25.591004 125.867288,25.6954839 C125.84415,25.707056 125.832414,25.7186281 125.785132,25.7417724 L126.209327,26.4969372 L125.796869,26.4969372 L125.419956,25.7999638 L125.16108,25.7999638 L125.16108,26.4969372 L124.795904,26.4969372 L124.795904,24.6619264 L125.266709,24.6619264 Z M125.396483,25.4980962 C125.514184,25.4865241 125.631885,25.4865241 125.70264,25.3817136 C125.738186,25.335425 125.749922,25.2891364 125.749922,25.219373 C125.749922,25.1264652 125.690904,25.0451296 125.608412,24.998841 C125.525921,24.963794 125.443764,24.963794 125.266709,24.963794 L125.16108,24.963794 L125.16108,25.4980962 L125.396483,25.4980962 Z M124.124569,25.6257204 C124.124569,26.3458382 124.701675,26.9148568 125.419956,26.9148568 C126.150308,26.9148568 126.727414,26.3458382 126.727414,25.6257204 C126.727414,24.9175054 126.150308,24.3484867 125.419956,24.3484867 C124.701675,24.3484867 124.124569,24.9175054 124.124569,25.6257204 Z" id="Combined-Shape-Copy" fill="#EC1D24"></path>
        </g>
    </g>
</svg>