<?xml version="1.0" encoding="UTF-8"?>
<svg width="80px" height="32px" viewBox="0 0 80 32" version="1.1" xmlns="http://www.w3.org/2000/svg" xmlns:xlink="http://www.w3.org/1999/xlink">
    <!-- Generator: Sketch 52.6 (67491) - http://www.bohemiancoding.com/sketch -->

    <desc>Created with Sketch.</desc>
    <g id="Provider/OracleCIC/opc-32" stroke="none" stroke-width="1" fill="none" fill-rule="evenodd">
        <path d="M70.9583925,14.2529429 C69.4769579,14.2529429 68.2198587,13.2727273 67.8354791,11.9209075 L76.0829981,11.9209075 L77.2199501,10.1738504 L67.8354791,10.1738504 C68.2198587,8.83013347 69.4769579,7.84204011 70.9583925,7.84204011 L76.6192145,7.84204011 L77.7643739,6.09475793 L70.8302659,6.09475793 C68.0595865,6.09475793 65.8098486,8.31627991 65.8098486,11.0514304 C65.8098486,13.7865808 68.0595865,16 70.8302659,16 L76.7794866,16 L77.9166667,14.2529429 L70.9583925,14.2529429 Z M47.3612229,16 C44.5909994,16 42.3410336,13.7865808 42.3410336,11.0514304 C42.3410336,8.31627991 44.5909994,6.09475793 47.3612229,6.09475793 L54.2875794,6.09475793 L53.1586068,7.84204011 L47.4895774,7.84204011 C45.6958058,7.84204011 44.2385374,9.28074006 44.2385374,11.0514304 C44.2385374,12.8221207 45.6958058,14.2529429 47.4895774,14.2529429 L54.4476236,14.2529429 L53.3106716,16 L47.3612229,16 Z M10.7190845,14.2529429 C12.513768,14.2529429 13.9669327,12.8221207 13.9669327,11.0514304 C13.9669327,9.28074006 12.513768,7.84204011 10.7190845,7.84204011 L5.146264,7.84204011 C3.35272044,7.84204011 1.89841582,9.28074006 1.89841582,11.0514304 C1.89841582,12.8221207 3.35272044,14.2529429 5.146264,14.2529429 L10.7190845,14.2529429 Z M5.01745351,16 C2.24768603,16 0,13.7865808 0,11.0514304 C0,8.31627991 2.24768603,6.09475793 5.01745351,6.09475793 L10.8490349,6.09475793 C13.6192584,6.09475793 15.8653485,8.31627991 15.8653485,11.0514304 C15.8653485,13.7865808 13.6192584,16 10.8490349,16 L5.01745351,16 Z M25.3337174,12.7903847 C27.207511,12.7903847 28.7288427,11.2965405 28.7288427,9.4466227 C28.7288427,7.59692993 27.207511,6.09475793 25.3337174,6.09475793 L16.8919567,6.09475793 L16.8919567,16 L18.8209223,16 L18.8209223,7.84204011 L25.2055908,7.84204011 C26.1024766,7.84204011 26.8231314,8.561165 26.8231314,9.4466227 C26.8231314,10.3320804 26.1024766,11.0514304 25.2055908,11.0514304 L19.7656845,11.0435526 L25.5259072,16 L28.3285042,16 L24.4530184,12.7903847 L25.3337174,12.7903847 Z M57.2582001,14.2529429 L57.2582001,6.09475793 L55.3283226,6.09475793 L55.3283226,15.0512953 C55.3283226,15.2964055 55.4245315,15.5336379 55.6087419,15.7155011 C55.7927243,15.8971393 56.040998,16 56.3134378,16 L65.1131321,16 L66.2503121,14.2529429 L57.2582001,14.2529429 Z M33.6370923,12.5058858 L38.7856361,12.5058858 L36.0632891,8.18190821 L31.06681,16 L28.7929059,16 L34.8702532,6.60883657 C35.1344857,6.2293547 35.5749492,6 36.0632891,6 C36.5358982,6 36.9761337,6.22125189 37.2321588,6.59285602 L43.3336723,16 L41.0597682,16 L39.9866514,14.2529429 L34.7740443,14.2529429 L33.6370923,12.5058858 Z M78.9546391,8.04682231 C78.3836171,8.04682231 77.9166667,7.58951613 77.9166667,7.02330783 C77.9166667,6.45730619 78.3836171,6 78.9546391,6 C79.5330496,6 80,6.45730619 80,7.02330783 C80,7.58951613 79.5330496,8.04682231 78.9546391,8.04682231 Z M78.858167,6.41370402 C79.0213463,6.41370402 79.0880535,6.4209366 79.1623603,6.4500736 C79.3698703,6.51537353 79.3922468,6.69680816 79.3922468,6.76934068 C79.3922468,6.78380586 79.3922468,6.82017544 79.3772588,6.86357097 C79.3698703,6.90717314 79.3401054,6.99437748 79.2362448,7.05967742 C79.221679,7.06691001 79.2142905,7.07414259 79.1845256,7.08860777 L79.4515655,7.56058578 L79.1919141,7.56058578 L78.9546391,7.12497735 L78.7916709,7.12497735 L78.7916709,7.56058578 L78.5617844,7.56058578 L78.5617844,6.41370402 L78.858167,6.41370402 Z M78.9398622,6.93631014 C79.0139578,6.92907755 79.0880535,6.92907755 79.1325953,6.86357097 C79.1549718,6.83464062 79.1623603,6.80571027 79.1623603,6.7621081 C79.1623603,6.70404075 79.1252069,6.65320599 79.0732766,6.62427564 C79.0213463,6.60237123 78.9696271,6.60237123 78.858167,6.60237123 L78.7916709,6.60237123 L78.7916709,6.93631014 L78.9398622,6.93631014 Z M78.1391647,7.01607525 C78.1391647,7.46614885 78.5024656,7.82178551 78.9546391,7.82178551 C79.4144121,7.82178551 79.777713,7.46614885 79.777713,7.01607525 C79.777713,6.57344088 79.4144121,6.21780421 78.9546391,6.21780421 C78.5024656,6.21780421 78.1391647,6.57344088 78.1391647,7.01607525 Z" id="Combined-Shape-Copy" fill="#616870"></path>
        <path d="M3.53663158,21.3781625 L2.87851058,21.3781625 C2.85390792,21.2117177 2.7739493,20.5459387 1.91900705,20.5459387 C0.84879158,20.5459387 0.658121008,21.7310253 0.658121008,22.5299601 C0.658121008,23.4354194 0.897996889,24.4141145 1.91285639,24.4141145 C2.18348559,24.4141145 2.44181346,24.3408788 2.63248403,24.1278296 C2.79240129,23.9414115 2.82930527,23.73502 2.84775726,23.6218375 L3.52433026,23.6218375 C3.4320703,24.5672437 2.62633337,24.9600533 1.86365108,24.9600533 C0.301382518,24.9600533 0,23.4687084 0,22.5366178 C0,21.5246338 0.362889154,20.0133156 1.94360971,20.0133156 C2.5709774,20.0133156 3.45667296,20.286285 3.53663158,21.3781625 Z M4.26344831,24.8868176 L4.26344831,20.0865513 L4.84161069,20.0865513 L4.84161069,24.8868176 L4.26344831,24.8868176 Z M5.67913936,23.2556591 C5.67913936,22.4300932 6.03587785,21.4580559 7.24755858,21.4580559 C8.48384197,21.4580559 8.76062183,22.5099867 8.76062183,23.2090546 C8.76062183,24.1877497 8.25011675,25 7.19835327,25 C6.17734311,25 5.67913936,24.2343542 5.67913936,23.2556591 Z M6.28190439,23.2157124 C6.28190439,23.9014647 6.55253359,24.5339547 7.2106546,24.5339547 C7.64735172,24.5339547 8.14555547,24.1944075 8.14555547,23.1890812 C8.14555547,22.3568575 7.78881698,21.9174434 7.24755858,21.9174434 C6.87851876,21.9174434 6.28190439,22.1704394 6.28190439,23.2157124 Z M9.54894519,21.5446072 L10.1394089,21.5446072 L10.1394089,23.6950732 C10.1394089,24.0213049 10.2070662,24.4340879 10.7975299,24.4340879 C11.0866111,24.4340879 11.3572403,24.3275632 11.5233082,24.0612517 C11.6524722,23.861518 11.6524722,23.6018642 11.6524722,23.4354194 L11.6524722,21.5446072 L12.2490865,21.5446072 L12.2490865,24.2609854 C12.2490865,24.3275632 12.2613879,24.7003995 12.2675385,24.8868176 L11.6647735,24.8868176 L11.6524722,24.3142477 C11.5417602,24.5472703 11.3326376,24.9201065 10.668366,24.9201065 C9.90568368,24.9201065 9.54894519,24.4474035 9.54894519,23.7882823 L9.54894519,21.5446072 Z M15.4546207,21.9973369 L15.4546207,20.0865513 L16.0327831,20.0865513 L16.0327831,24.3541944 C16.0327831,24.4274301 16.0450844,24.713715 16.0573857,24.8868176 L15.4792233,24.8868176 L15.466922,24.3541944 C15.4177167,24.4474035 15.3500594,24.587217 15.1901422,24.7070573 C14.9379649,24.8934754 14.6365824,24.9533955 14.4274599,24.9533955 C14.0153654,24.9533955 13.0989165,24.7203728 13.0989165,23.2556591 C13.0989165,21.9840213 13.7693389,21.4314248 14.4951172,21.4314248 C15.1593888,21.4314248 15.3808127,21.8575233 15.4546207,21.9973369 Z M15.4730727,23.1691079 C15.4730727,22.6830892 15.3685114,22.4167776 15.2393475,22.2370173 C15.1163342,22.0639148 14.8887596,21.89747 14.5627745,21.89747 C13.7139829,21.89747 13.7139829,23.0093209 13.7139829,23.2356858 C13.7139829,23.828229 13.8554481,24.5139814 14.5627745,24.5139814 C15.4730727,24.5139814 15.4730727,23.4287617 15.4730727,23.1691079 Z M18.6734946,24.8868176 L18.6734946,20.0798935 L19.288561,20.0798935 L19.288561,24.8868176 L18.6734946,24.8868176 Z M20.3475135,24.8868176 L20.3475135,21.930759 L20.3413629,21.5446072 L20.9195252,21.5446072 L20.9256759,22.0838881 C20.9933332,21.9440746 21.2147571,21.4780293 21.9159327,21.4780293 C22.1927126,21.4780293 23.0353535,21.5912117 23.0353535,22.6165113 L23.0353535,24.8868176 L22.4448898,24.8868176 L22.4448898,22.7629827 C22.4448898,22.5432756 22.4202872,22.3435419 22.2788219,22.1904128 C22.131206,22.0372836 21.9282341,21.9640479 21.7314128,21.9640479 C21.3131677,21.9640479 20.9256759,22.2902796 20.9256759,22.9627164 L20.9256759,24.8868176 L20.3475135,24.8868176 Z M25.576616,20.0466045 L25.576616,20.5459387 C25.4782054,20.539281 25.3551921,20.5326232 25.2383295,20.5326232 C24.7708791,20.5326232 24.7708791,20.7856192 24.7708791,21.0186418 L24.7708791,21.5446072 L25.4905067,21.5446072 L25.4905067,21.9973369 L24.7708791,21.9973369 L24.7708791,24.8868176 L24.1988674,24.8868176 L24.1988674,21.9973369 L23.5899517,21.9973369 L23.5899517,21.5446072 L24.1988674,21.5446072 L24.1988674,21.1651132 C24.1988674,20.7057257 24.22347,20.539281 24.3280313,20.3661784 C24.4571952,20.1531292 24.7032218,20 25.1030149,20 C25.2690828,20 25.4536027,20.0266312 25.576616,20.0466045 Z M26.0574062,24.8868176 L26.0574062,22.2237017 C26.0574062,21.9973369 26.0451049,21.7643142 26.0266529,21.5446072 L26.6109659,21.5446072 L26.6232672,22.1904128 C26.7339792,21.7243675 27.103019,21.5712383 27.3613469,21.5312916 C27.5335655,21.5046605 27.6627294,21.5113182 27.76114,21.517976 L27.76114,22.1304927 C27.7303867,22.1171771 27.6934827,22.1105193 27.6504281,22.1038615 C27.6073734,22.0972037 27.5520175,22.0972037 27.4843602,22.0972037 C26.8016365,22.0972037 26.6417192,22.5366178 26.6417192,23.1091877 L26.6417192,24.8868176 L26.0574062,24.8868176 Z M30.7698529,24.8868176 L30.2470465,24.8868176 C30.2039919,24.7203728 30.1916906,24.5605859 30.1916906,24.3874834 C29.9149107,24.9400799 29.4966656,24.9933422 29.2383377,24.9933422 C28.5310114,24.9933422 28.1496702,24.5605859 28.1496702,24.0079893 C28.1496702,23.7416778 28.2357795,23.3155792 28.6909286,23.0292943 C29.0230645,22.8295606 29.5151176,22.8095872 29.7611441,22.8095872 C29.90876,22.8095872 30.00102,22.816245 30.1793892,22.8295606 C30.1793892,22.4167776 30.1793892,22.2370173 30.0686773,22.0905459 C29.9518147,21.9241012 29.6996375,21.8708389 29.5335696,21.8708389 C28.9492565,21.8708389 28.9185032,22.3035952 28.9123525,22.436751 L28.3341902,22.436751 C28.3526421,22.2636485 28.3710941,22.0306258 28.5494634,21.804261 C28.7831886,21.5246338 29.2198857,21.4447403 29.5458709,21.4447403 C29.9948693,21.4447403 30.4746211,21.5978695 30.640689,21.9374168 C30.7390996,22.1371505 30.7452503,22.2969374 30.7452503,22.4500666 L30.7206476,24.0479361 C30.7206476,24.1011984 30.7267983,24.5472703 30.7698529,24.8868176 Z M30.1793892,23.2623169 C30.074828,23.2490013 29.9887187,23.2423435 29.8472534,23.2423435 C29.6135282,23.2423435 28.7339833,23.2423435 28.7339833,23.9214381 C28.7339833,24.1344874 28.8569966,24.5006658 29.3736523,24.5006658 C29.6688842,24.5006658 29.890308,24.3741678 30.0317733,24.1411451 C30.1609372,23.9147803 30.1670879,23.7283622 30.1793892,23.2623169 Z M31.453615,23.8948069 L32.0625307,23.8948069 C32.0563801,24.1478029 32.1793933,24.5006658 32.7391037,24.5006658 C32.9789796,24.5006658 33.1573488,24.4540613 33.2803621,24.2876165 C33.3418688,24.2010652 33.3787727,24.0878828 33.3787727,23.9747004 C33.3787727,23.6484687 33.1634995,23.5885486 32.7021997,23.4753662 C32.0563801,23.3155792 31.5151217,23.1757656 31.5151217,22.4766977 C31.5151217,21.8641811 32.0071748,21.4647137 32.7206517,21.4647137 C33.1081435,21.4647137 33.6494019,21.5845539 33.8339218,21.9840213 C33.9138805,22.1704394 33.9138805,22.3302264 33.9138805,22.4700399 L33.3234168,22.4700399 C33.3418688,21.9640479 32.935925,21.9241012 32.7268024,21.9241012 C32.6406931,21.9241012 32.0994347,21.9241012 32.0994347,22.4034621 C32.0994347,22.7097204 32.3762146,22.7829561 32.5361318,22.8295606 C33.3910741,23.0492676 33.575594,23.10253 33.7601139,23.2889481 C33.9323325,23.4620506 33.9938391,23.6950732 33.9938391,23.9081225 C33.9938391,24.2809587 33.8031685,24.6005326 33.575594,24.7536618 C33.3049648,24.9334221 32.9789796,24.9800266 32.6591451,24.9800266 C32.0317774,24.9800266 31.4474644,24.7003995 31.453615,23.8948069 Z M34.277808,21.9906791 L34.277808,21.5312916 L34.8252171,21.5312916 L34.8252171,20.8322237 L35.3972288,20.63249 L35.3972288,21.5312916 L36.0861032,21.5312916 L36.0861032,21.9906791 L35.3972288,21.9906791 L35.3972288,23.9946738 C35.3972288,24.1611185 35.3972288,24.4407457 35.8093233,24.4407457 C35.9261859,24.4407457 36.0368978,24.4207723 36.0861032,24.4074567 L36.0861032,24.8934754 C35.9815419,24.9134487 35.815474,24.9334221 35.6063514,24.9334221 C35.0773943,24.9334221 34.8252171,24.7669774 34.8252171,24.2210386 L34.8252171,21.9906791 L34.277808,21.9906791 Z M36.7760159,24.8868176 L36.7760159,22.2237017 C36.7760159,21.9973369 36.7637146,21.7643142 36.7452626,21.5446072 L37.3295756,21.5446072 L37.3418769,22.1904128 C37.4525889,21.7243675 37.8216287,21.5712383 38.0799566,21.5312916 C38.2521752,21.5046605 38.3813391,21.5113182 38.4797497,21.517976 L38.4797497,22.1304927 C38.4489964,22.1171771 38.4120924,22.1105193 38.3690378,22.1038615 C38.3259831,22.0972037 38.2706272,22.0972037 38.2029699,22.0972037 C37.5202462,22.0972037 37.3603289,22.5366178 37.3603289,23.1091877 L37.3603289,24.8868176 L36.7760159,24.8868176 Z M39.0220465,21.5446072 L39.6125102,21.5446072 L39.6125102,23.6950732 C39.6125102,24.0213049 39.6801675,24.4340879 40.2706312,24.4340879 C40.5597124,24.4340879 40.8303416,24.3275632 40.9964096,24.0612517 C41.1255735,23.861518 41.1255735,23.6018642 41.1255735,23.4354194 L41.1255735,21.5446072 L41.7221879,21.5446072 L41.7221879,24.2609854 C41.7221879,24.3275632 41.7344892,24.7003995 41.7406399,24.8868176 L41.1378748,24.8868176 L41.1255735,24.3142477 C41.0148615,24.5472703 40.805739,24.9201065 40.1414673,24.9201065 C39.378785,24.9201065 39.0220465,24.4474035 39.0220465,23.7882823 L39.0220465,21.5446072 Z M45.1306939,22.6165113 L44.5463809,22.6165113 C44.5340796,22.4633822 44.4910249,21.9174434 43.9313145,21.9174434 C43.1317282,21.9174434 43.1317282,22.9227696 43.1317282,23.1757656 C43.1317282,23.861518 43.2854948,24.5006658 43.9005612,24.5006658 C44.3926143,24.5006658 44.5586822,24.1011984 44.5709835,23.7749667 L45.1552966,23.7749667 C45.1183926,24.4274301 44.6693942,24.9733688 43.9067119,24.9733688 C43.6975893,24.9733688 43.2178375,24.9267643 42.8918524,24.5406125 C42.7073325,24.3075899 42.5228125,23.954727 42.5228125,23.2623169 C42.5228125,21.8708389 43.3100975,21.4580559 43.9251639,21.4580559 C44.1281358,21.4580559 44.5894355,21.5046605 44.8723661,21.8708389 C45.0999406,22.1571238 45.1183926,22.4300932 45.1306939,22.6165113 Z M45.3347042,21.9906791 L45.3347042,21.5312916 L45.8821133,21.5312916 L45.8821133,20.8322237 L46.454125,20.63249 L46.454125,21.5312916 L47.1429993,21.5312916 L47.1429993,21.9906791 L46.454125,21.9906791 L46.454125,23.9946738 C46.454125,24.1611185 46.454125,24.4407457 46.8662195,24.4407457 C46.9830821,24.4407457 47.093794,24.4207723 47.1429993,24.4074567 L47.1429993,24.8934754 C47.0384381,24.9134487 46.8723701,24.9334221 46.6632476,24.9334221 C46.1342905,24.9334221 45.8821133,24.7669774 45.8821133,24.2210386 L45.8821133,21.9906791 L45.3347042,21.9906791 Z M47.7406521,21.5446072 L48.3311158,21.5446072 L48.3311158,23.6950732 C48.3311158,24.0213049 48.3987731,24.4340879 48.9892369,24.4340879 C49.278318,24.4340879 49.5489472,24.3275632 49.7150152,24.0612517 C49.8441791,23.861518 49.8441791,23.6018642 49.8441791,23.4354194 L49.8441791,21.5446072 L50.4407935,21.5446072 L50.4407935,24.2609854 C50.4407935,24.3275632 50.4530948,24.7003995 50.4592455,24.8868176 L49.8564804,24.8868176 L49.8441791,24.3142477 C49.7334671,24.5472703 49.5243446,24.9201065 48.8600729,24.9201065 C48.0973906,24.9201065 47.7406521,24.4474035 47.7406521,23.7882823 L47.7406521,21.5446072 Z M51.53665,24.8868176 L51.53665,22.2237017 C51.53665,21.9973369 51.5243487,21.7643142 51.5058967,21.5446072 L52.0902097,21.5446072 L52.1025111,22.1904128 C52.213223,21.7243675 52.5822628,21.5712383 52.8405907,21.5312916 C53.0128093,21.5046605 53.1419732,21.5113182 53.2403838,21.517976 L53.2403838,22.1304927 C53.2096305,22.1171771 53.1727265,22.1105193 53.1296719,22.1038615 C53.0866172,22.0972037 53.0312613,22.0972037 52.963604,22.0972037 C52.2808803,22.0972037 52.1209631,22.5366178 52.1209631,23.1091877 L52.1209631,24.8868176 L51.53665,24.8868176 Z M56.4151647,23.3288948 L54.1947751,23.3288948 C54.1824738,24.0213049 54.4469523,24.5339547 55.0804707,24.5339547 C55.4556612,24.5339547 55.7570437,24.3209055 55.806249,23.8415446 L56.3844114,23.8415446 C56.3659594,24.0079893 56.3413567,24.2809587 56.1199328,24.5406125 C55.9846182,24.7070573 55.677085,24.9866844 55.055868,24.9866844 C54.0840632,24.9866844 53.6227634,24.334221 53.6227634,23.2756325 C53.6227634,22.6165113 53.7457767,22.0705726 54.2316791,21.7043941 C54.5269109,21.4780293 54.8959508,21.4580559 55.07432,21.4580559 C56.4582193,21.4580559 56.427466,22.7829561 56.4151647,23.3288948 Z M54.2193778,22.8894807 L55.824701,22.8894807 C55.8308516,22.5699068 55.7754957,21.9041278 55.0620187,21.9041278 C54.6868282,21.9041278 54.2316791,22.150466 54.2193778,22.8894807 Z M62.1988653,21.3781625 L61.5407443,21.3781625 C61.5161417,21.2117177 61.436183,20.5459387 60.5812408,20.5459387 C59.5110253,20.5459387 59.3203547,21.7310253 59.3203547,22.5299601 C59.3203547,23.4354194 59.5602306,24.4141145 60.5750901,24.4141145 C60.8457193,24.4141145 61.1040472,24.3408788 61.2947178,24.1278296 C61.454635,23.9414115 61.491539,23.73502 61.509991,23.6218375 L62.186564,23.6218375 C62.094304,24.5672437 61.2885671,24.9600533 60.5258848,24.9600533 C58.9636162,24.9600533 58.6622337,23.4687084 58.6622337,22.5366178 C58.6622337,21.5246338 59.0251229,20.0133156 60.6058434,20.0133156 C61.2332111,20.0133156 62.1189067,20.286285 62.1988653,21.3781625 Z M62.925682,24.8868176 L62.925682,20.0865513 L63.5038444,20.0865513 L63.5038444,24.8868176 L62.925682,24.8868176 Z M66.9738571,24.8868176 L66.4510507,24.8868176 C66.4079961,24.7203728 66.3956947,24.5605859 66.3956947,24.3874834 C66.1189149,24.9400799 65.7006698,24.9933422 65.4423419,24.9933422 C64.7350156,24.9933422 64.3536744,24.5605859 64.3536744,24.0079893 C64.3536744,23.7416778 64.4397837,23.3155792 64.8949328,23.0292943 C65.2270687,22.8295606 65.7191217,22.8095872 65.9651483,22.8095872 C66.1127642,22.8095872 66.2050242,22.816245 66.3833934,22.8295606 C66.3833934,22.4167776 66.3833934,22.2370173 66.2726815,22.0905459 C66.1558189,21.9241012 65.9036417,21.8708389 65.7375737,21.8708389 C65.1532607,21.8708389 65.1225074,22.3035952 65.1163567,22.436751 L64.5381943,22.436751 C64.5566463,22.2636485 64.5750983,22.0306258 64.7534676,21.804261 C64.9871928,21.5246338 65.4238899,21.4447403 65.7498751,21.4447403 C66.1988735,21.4447403 66.6786253,21.5978695 66.8446932,21.9374168 C66.9431038,22.1371505 66.9492545,22.2969374 66.9492545,22.4500666 L66.9246518,24.0479361 C66.9246518,24.1011984 66.9308025,24.5472703 66.9738571,24.8868176 Z M66.3833934,23.2623169 C66.2788321,23.2490013 66.1927228,23.2423435 66.0512576,23.2423435 C65.8175324,23.2423435 64.9379875,23.2423435 64.9379875,23.9214381 C64.9379875,24.1344874 65.0610007,24.5006658 65.5776565,24.5006658 C65.8728883,24.5006658 66.0943122,24.3741678 66.2357775,24.1411451 C66.3649414,23.9147803 66.3710921,23.7283622 66.3833934,23.2623169 Z M67.6576192,23.8948069 L68.2665349,23.8948069 C68.2603842,24.1478029 68.3833975,24.5006658 68.9431079,24.5006658 C69.1829838,24.5006658 69.361353,24.4540613 69.4843663,24.2876165 C69.5458729,24.2010652 69.5827769,24.0878828 69.5827769,23.9747004 C69.5827769,23.6484687 69.3675037,23.5885486 68.9062039,23.4753662 C68.2603842,23.3155792 67.7191258,23.1757656 67.7191258,22.4766977 C67.7191258,21.8641811 68.2111789,21.4647137 68.9246559,21.4647137 C69.3121477,21.4647137 69.8534061,21.5845539 70.037926,21.9840213 C70.1178846,22.1704394 70.1178846,22.3302264 70.1178846,22.4700399 L69.5274209,22.4700399 C69.5458729,21.9640479 69.1399291,21.9241012 68.9308066,21.9241012 C68.8446973,21.9241012 68.3034389,21.9241012 68.3034389,22.4034621 C68.3034389,22.7097204 68.5802187,22.7829561 68.740136,22.8295606 C69.5950782,23.0492676 69.7795981,23.10253 69.9641181,23.2889481 C70.1363366,23.4620506 70.1978433,23.6950732 70.1978433,23.9081225 C70.1978433,24.2809587 70.0071727,24.6005326 69.7795981,24.7536618 C69.508969,24.9334221 69.1829838,24.9800266 68.8631493,24.9800266 C68.2357816,24.9800266 67.6514685,24.7003995 67.6576192,23.8948069 Z M70.6786335,23.8948069 L71.2875492,23.8948069 C71.2813985,24.1478029 71.4044118,24.5006658 71.9641222,24.5006658 C72.203998,24.5006658 72.3823673,24.4540613 72.5053806,24.2876165 C72.5668872,24.2010652 72.6037912,24.0878828 72.6037912,23.9747004 C72.6037912,23.6484687 72.3885179,23.5885486 71.9272182,23.4753662 C71.2813985,23.3155792 70.7401401,23.1757656 70.7401401,22.4766977 C70.7401401,21.8641811 71.2321932,21.4647137 71.9456702,21.4647137 C72.333162,21.4647137 72.8744204,21.5845539 73.0589403,21.9840213 C73.1388989,22.1704394 73.1388989,22.3302264 73.1388989,22.4700399 L72.5484352,22.4700399 C72.5668872,21.9640479 72.1609434,21.9241012 71.9518208,21.9241012 C71.8657115,21.9241012 71.3244531,21.9241012 71.3244531,22.4034621 C71.3244531,22.7097204 71.601233,22.7829561 71.7611503,22.8295606 C72.6160925,23.0492676 72.8006124,23.10253 72.9851323,23.2889481 C73.1573509,23.4620506 73.2188575,23.6950732 73.2188575,23.9081225 C73.2188575,24.2809587 73.028187,24.6005326 72.8006124,24.7536618 C72.5299832,24.9334221 72.203998,24.9800266 71.8841635,24.9800266 C71.2567958,24.9800266 70.6724828,24.7003995 70.6786335,23.8948069 Z M73.9210716,20.7789614 L73.9210716,20.0932091 L74.6160966,20.0932091 L74.6160966,20.7789614 L73.9210716,20.7789614 Z M73.9825782,24.8868176 L73.9825782,21.5446072 L74.5607406,21.5446072 L74.5607406,24.8868176 L73.9825782,24.8868176 Z M77.9753973,22.6165113 L77.3910843,22.6165113 C77.378783,22.4633822 77.3357283,21.9174434 76.7760179,21.9174434 C75.9764317,21.9174434 75.9764317,22.9227696 75.9764317,23.1757656 C75.9764317,23.861518 76.1301983,24.5006658 76.7452646,24.5006658 C77.2373177,24.5006658 77.4033856,24.1011984 77.415687,23.7749667 L78,23.7749667 C77.963096,24.4274301 77.5140976,24.9733688 76.7514153,24.9733688 C76.5422927,24.9733688 76.062541,24.9267643 75.7365558,24.5406125 C75.5520359,24.3075899 75.367516,23.954727 75.367516,23.2623169 C75.367516,21.8708389 76.1548009,21.4580559 76.7698673,21.4580559 C76.9728392,21.4580559 77.4341389,21.5046605 77.7170695,21.8708389 C77.944644,22.1571238 77.963096,22.4300932 77.9753973,22.6165113 Z" id="Cloud-Infrastructure" fill="#616870"></path>
    </g>
</svg>
