<?xml version="1.0" encoding="UTF-8"?>
<svg width="105px" height="42px" viewBox="0 0 105 42" version="1.1" xmlns="http://www.w3.org/2000/svg" xmlns:xlink="http://www.w3.org/1999/xlink">
    <!-- Generator: Sketch 52.6 (67491) - http://www.bohemiancoding.com/sketch -->
    <title>Provider/OracleCIC/opc-42</title>
    <desc>Created with Sketch.</desc>
    <g id="Provider/OracleCIC/opc-42" stroke="none" stroke-width="1" fill="none" fill-rule="evenodd">
        <path d="M93.1328901,19.7288258 C91.1885072,19.7288258 89.5385645,18.4545455 89.0340663,16.6971798 L99.858935,16.6971798 L101.351185,14.4260055 L89.0340663,14.4260055 C89.5385645,12.6791735 91.1885072,11.3946521 93.1328901,11.3946521 L100.562719,11.3946521 L102.065741,9.12318531 L92.964724,9.12318531 C89.3282073,9.12318531 86.3754263,12.0111639 86.3754263,15.5668595 C86.3754263,19.1225551 89.3282073,22 92.964724,22 L100.773076,22 L102.265625,19.7288258 L93.1328901,19.7288258 Z M62.161605,22 C58.5256867,22 55.5726065,19.1225551 55.5726065,15.5668595 C55.5726065,12.0111639 58.5256867,9.12318531 62.161605,9.12318531 L71.252448,9.12318531 L69.7706714,11.3946521 L62.3300703,11.3946521 C59.9757452,11.3946521 58.0630804,13.2649621 58.0630804,15.5668595 C58.0630804,17.8687569 59.9757452,19.7288258 62.3300703,19.7288258 L71.462506,19.7288258 L69.9702564,22 L62.161605,22 Z M14.0687984,19.7288258 C16.4243205,19.7288258 18.3315992,17.8687569 18.3315992,15.5668595 C18.3315992,13.2649621 16.4243205,11.3946521 14.0687984,11.3946521 L6.7544715,11.3946521 C4.40044557,11.3946521 2.49167077,13.2649621 2.49167077,15.5668595 C2.49167077,17.8687569 4.40044557,19.7288258 6.7544715,19.7288258 L14.0687984,19.7288258 Z M6.58540774,22 C2.95008792,22 0,19.1225551 0,15.5668595 C0,12.0111639 2.95008792,9.12318531 6.58540774,9.12318531 L14.2393583,9.12318531 C17.8752766,9.12318531 20.8232699,12.0111639 20.8232699,15.5668595 C20.8232699,19.1225551 17.8752766,22 14.2393583,22 L6.58540774,22 Z M33.250504,17.8275001 C35.7098582,17.8275001 37.706606,15.8855027 37.706606,13.4806095 C37.706606,11.0760089 35.7098582,9.12318531 33.250504,9.12318531 L22.1706932,9.12318531 L22.1706932,22 L24.7024605,22 L24.7024605,11.3946521 L33.082338,11.3946521 C34.2595005,11.3946521 35.20536,12.3295145 35.20536,13.4806095 C35.20536,14.6317045 34.2595005,15.5668595 33.082338,15.5668595 L25.9424609,15.5566184 L33.5027532,22 L37.1811618,22 L32.0945866,17.8275001 L33.250504,17.8275001 Z M75.1513876,19.7288258 L75.1513876,9.12318531 L72.6184234,9.12318531 L72.6184234,20.7666839 C72.6184234,21.0853272 72.7446976,21.3937293 72.9864737,21.6301515 C73.2279506,21.866281 73.5538098,22 73.9113872,22 L85.4609858,22 L86.9535346,19.7288258 L75.1513876,19.7288258 Z M44.1486836,17.4576515 L50.9061474,17.4576515 L47.3330669,11.8364807 L40.7751882,22 L37.7906891,22 L45.7672073,9.79148754 C46.1140125,9.29816111 46.6921208,9 47.3330669,9 C47.9533664,9 48.5311755,9.28762745 48.8672084,9.77071282 L56.8754448,22 L53.8909457,22 L52.48248,19.7288258 L45.6409331,19.7288258 L44.1486836,17.4576515 Z M103.627964,11.660869 C102.878497,11.660869 102.265625,11.066371 102.265625,10.3303002 C102.265625,9.59449804 102.878497,9 103.627964,9 C104.387128,9 105,9.59449804 105,10.3303002 C105,11.066371 104.387128,11.660869 103.627964,11.660869 Z M103.501344,9.53781522 C103.715517,9.53781522 103.80307,9.54721758 103.900598,9.58509568 C104.172955,9.66998559 104.202324,9.90585061 104.202324,10.0001429 C104.202324,10.0189476 104.202324,10.0662281 104.182652,10.1226423 C104.172955,10.1793251 104.133888,10.2926907 103.997571,10.3775806 C103.978454,10.386983 103.968756,10.3963854 103.92969,10.4151901 L104.28018,11.0287615 L103.939387,11.0287615 L103.627964,10.4624706 L103.414068,10.4624706 L103.414068,11.0287615 L103.112342,11.0287615 L103.112342,9.53781522 L103.501344,9.53781522 Z M103.608569,10.2172032 C103.70582,10.2078008 103.80307,10.2078008 103.861531,10.1226423 C103.8909,10.0850328 103.900598,10.0474233 103.900598,9.99074053 C103.900598,9.91525297 103.851834,9.84916779 103.783676,9.81155833 C103.715517,9.7830826 103.647636,9.7830826 103.501344,9.7830826 L103.414068,9.7830826 L103.414068,10.2172032 L103.608569,10.2172032 Z M102.557654,10.3208978 C102.557654,10.9059935 103.034486,11.3683212 103.627964,11.3683212 C104.231416,11.3683212 104.708248,10.9059935 104.708248,10.3208978 C104.708248,9.74547314 104.231416,9.28314548 103.627964,9.28314548 C103.034486,9.28314548 102.557654,9.74547314 102.557654,10.3208978 Z" id="Combined-Shape-Copy" fill="#616870"></path>
        <path d="M4.67016735,28.6537949 L3.80111012,28.6537949 C3.768622,28.4540613 3.66303561,27.6551265 2.53407341,27.6551265 C1.12084016,27.6551265 0.869057228,29.0772304 0.869057228,30.0359521 C0.869057228,31.1225033 1.18581641,32.2969374 2.52595138,32.2969374 C2.88332071,32.2969374 3.22444598,32.2090546 3.47622891,31.9533955 C3.6874017,31.7296937 3.73613388,31.482024 3.76049997,31.3462051 L4.65392329,31.3462051 C4.53209284,32.4806924 3.46810688,32.9520639 2.46097514,32.9520639 C0.397979478,32.9520639 0,31.1624501 0,30.0439414 C0,28.8295606 0.47919978,27.0159787 2.56656153,27.0159787 C3.39500861,27.0159787 4.56458096,27.3435419 4.67016735,28.6537949 Z M5.62993815,32.8641811 L5.62993815,27.1038615 L6.39340899,27.1038615 L6.39340899,32.8641811 L5.62993815,32.8641811 Z M7.49937633,30.9067909 C7.49937633,29.9161119 7.97045408,28.7496671 9.57049402,28.7496671 C11.2030221,28.7496671 11.5685134,30.011984 11.5685134,30.8508655 C11.5685134,32.0252996 10.8943849,33 9.50551778,33 C8.15726077,33 7.49937633,32.081225 7.49937633,30.9067909 Z M8.29533529,30.8588549 C8.29533529,31.6817577 8.65270462,32.4407457 9.52176184,32.4407457 C10.098426,32.4407457 10.7563104,32.0332889 10.7563104,30.8268975 C10.7563104,29.828229 10.2852327,29.3009321 9.57049402,29.3009321 C9.08317221,29.3009321 8.29533529,29.6045273 8.29533529,30.8588549 Z M12.6095046,28.8535286 L13.3892194,28.8535286 L13.3892194,31.4340879 C13.3892194,31.8255659 13.4785618,32.3209055 14.2582767,32.3209055 C14.6400121,32.3209055 14.9973814,32.1930759 15.2166762,31.873502 C15.3872389,31.6338216 15.3872389,31.322237 15.3872389,31.1225033 L15.3872389,28.8535286 L16.1750758,28.8535286 L16.1750758,32.1131824 C16.1750758,32.1930759 16.1913199,32.6404794 16.1994419,32.8641811 L15.4034829,32.8641811 L15.3872389,32.1770972 C15.2410423,32.4567244 14.9648933,32.9041278 14.087714,32.9041278 C13.0805823,32.9041278 12.6095046,32.3368842 12.6095046,31.5459387 L12.6095046,28.8535286 Z M20.4080248,29.3968043 L20.4080248,27.1038615 L21.1714956,27.1038615 L21.1714956,32.2250333 C21.1714956,32.3129161 21.1877397,32.6564581 21.2039837,32.8641811 L20.4405129,32.8641811 L20.4242688,32.2250333 C20.3592926,32.3368842 20.2699502,32.5046605 20.0587775,32.6484687 C19.7257742,32.8721704 19.3277947,32.9440746 19.0516457,32.9440746 C18.5074697,32.9440746 17.2972872,32.6644474 17.2972872,30.9067909 C17.2972872,29.3808256 18.1825885,28.7177097 19.140988,28.7177097 C20.0181673,28.7177097 20.3105604,29.229028 20.4080248,29.3968043 Z M20.4323908,30.8029294 C20.4323908,30.2197071 20.2943163,29.9001332 20.1237537,29.6844208 C19.9613131,29.4766977 19.660798,29.276964 19.2303304,29.276964 C18.1094902,29.276964 18.1094902,30.6111851 18.1094902,30.8828229 C18.1094902,31.5938748 18.2962969,32.4167776 19.2303304,32.4167776 C20.4323908,32.4167776 20.4323908,31.114514 20.4323908,30.8029294 Z M24.658589,32.8641811 L24.658589,27.0958722 L25.470792,27.0958722 L25.470792,32.8641811 L24.658589,32.8641811 Z M26.8691525,32.8641811 L26.8691525,29.3169108 L26.8610304,28.8535286 L27.6245013,28.8535286 L27.6326233,29.5006658 C27.7219656,29.3328895 28.0143587,28.7736352 28.9402702,28.7736352 C29.3057615,28.7736352 30.4184797,28.9094541 30.4184797,30.1398136 L30.4184797,32.8641811 L29.6387648,32.8641811 L29.6387648,30.3155792 C29.6387648,30.0519308 29.6062766,29.8122503 29.4194699,29.6284953 C29.2245412,29.4447403 28.9565142,29.3568575 28.6966093,29.3568575 C28.1443112,29.3568575 27.6326233,29.7483356 27.6326233,30.5552597 L27.6326233,32.8641811 L26.8691525,32.8641811 Z M33.7742494,27.0559254 L33.7742494,27.6551265 C33.6442969,27.6471372 33.4818563,27.6391478 33.3275377,27.6391478 C32.7102634,27.6391478 32.7102634,27.942743 32.7102634,28.2223702 L32.7102634,28.8535286 L33.6605409,28.8535286 L33.6605409,29.3968043 L32.7102634,29.3968043 L32.7102634,32.8641811 L31.9549146,32.8641811 L31.9549146,29.3968043 L31.1508336,29.3968043 L31.1508336,28.8535286 L31.9549146,28.8535286 L31.9549146,28.3981358 C31.9549146,27.8468708 31.9874027,27.6471372 32.1254772,27.4394141 C32.2960399,27.183755 32.6209211,27 33.148853,27 C33.3681478,27 33.6118088,27.0319574 33.7742494,27.0559254 Z M34.4091389,32.8641811 L34.4091389,29.6684421 C34.4091389,29.3968043 34.3928949,29.1171771 34.3685288,28.8535286 L35.1401217,28.8535286 L35.1563657,29.6284953 C35.3025623,29.069241 35.7898841,28.885486 36.1310093,28.8375499 C36.3584262,28.8055925 36.5289888,28.8135819 36.6589413,28.8215712 L36.6589413,29.5565912 C36.6183312,29.5406125 36.569599,29.5326232 36.5127448,29.5246338 C36.4558906,29.5166445 36.3827923,29.5166445 36.2934499,29.5166445 C35.3919046,29.5166445 35.1807318,30.0439414 35.1807318,30.7310253 L35.1807318,32.8641811 L34.4091389,32.8641811 Z M40.6319853,32.8641811 L39.9416127,32.8641811 C39.8847585,32.6644474 39.8685145,32.4727031 39.8685145,32.26498 C39.5030231,32.9280959 38.9507251,32.9920107 38.6095998,32.9920107 C37.6755663,32.9920107 37.1720004,32.4727031 37.1720004,31.8095872 C37.1720004,31.4900133 37.2857089,30.9786951 37.8867391,30.6351531 C38.3253287,30.3954727 38.9750911,30.3715047 39.2999724,30.3715047 C39.4949011,30.3715047 39.6167315,30.379494 39.8522704,30.3954727 C39.8522704,29.9001332 39.8522704,29.6844208 39.7060739,29.5086551 C39.5517553,29.3089214 39.2187521,29.2450067 38.9994572,29.2450067 C38.2278644,29.2450067 38.1872542,29.7643142 38.1791322,29.9241012 L37.4156614,29.9241012 C37.4400274,29.7163782 37.4643935,29.436751 37.6999324,29.1651132 C38.0085696,28.8295606 38.5852337,28.7336884 39.0157013,28.7336884 C39.6086095,28.7336884 40.2421279,28.9174434 40.4614227,29.3249001 C40.5913752,29.5645806 40.5994972,29.7563249 40.5994972,29.9400799 L40.5670091,31.8575233 C40.5670091,31.9214381 40.5751311,32.4567244 40.6319853,32.8641811 Z M39.8522704,30.9147803 C39.7141959,30.8988016 39.6004875,30.8908123 39.4136808,30.8908123 C39.1050436,30.8908123 37.9435933,30.8908123 37.9435933,31.7057257 C37.9435933,31.9613848 38.1060339,32.4007989 38.7882845,32.4007989 C39.1781419,32.4007989 39.470535,32.2490013 39.6573417,31.9693742 C39.8279043,31.6977364 39.8360263,31.4740346 39.8522704,30.9147803 Z M41.5349019,31.6737683 L42.3389829,31.6737683 C42.3308608,31.9773635 42.4933015,32.4007989 43.2324062,32.4007989 C43.5491654,32.4007989 43.7847042,32.3448735 43.9471449,32.1451398 C44.0283652,32.0412783 44.0770973,31.9054594 44.0770973,31.7696405 C44.0770973,31.3781625 43.7928263,31.3062583 43.183674,31.1704394 C42.3308608,30.9786951 41.6161222,30.8109188 41.6161222,29.9720373 C41.6161222,29.2370173 42.2658846,28.7576565 43.2080401,28.7576565 C43.719728,28.7576565 44.4344667,28.9014647 44.6781276,29.3808256 C44.783714,29.6045273 44.783714,29.7962716 44.783714,29.9640479 L44.0039991,29.9640479 C44.0283652,29.3568575 43.4923112,29.3089214 43.2161621,29.3089214 C43.1024537,29.3089214 42.3877151,29.3089214 42.3877151,29.8841545 C42.3877151,30.2516644 42.7532064,30.3395473 42.9643792,30.3954727 C44.0933414,30.6591212 44.3370023,30.723036 44.5806632,30.9467377 C44.8080801,31.1544607 44.8893004,31.4340879 44.8893004,31.689747 C44.8893004,32.1371505 44.6375174,32.5206391 44.3370023,32.7043941 C43.979633,32.9201065 43.5491654,32.976032 43.1268198,32.976032 C42.2983727,32.976032 41.5267799,32.6404794 41.5349019,31.6737683 Z M45.264285,29.3888149 L45.264285,28.8375499 L45.9871457,28.8375499 L45.9871457,27.9986684 L46.7424945,27.758988 L46.7424945,28.8375499 L47.6521619,28.8375499 L47.6521619,29.3888149 L46.7424945,29.3888149 L46.7424945,31.7936085 C46.7424945,31.9933422 46.7424945,32.3288948 47.2866705,32.3288948 C47.4409891,32.3288948 47.5871856,32.3049268 47.6521619,32.2889481 L47.6521619,32.8721704 C47.5140873,32.8961385 47.2947925,32.9201065 47.0186435,32.9201065 C46.3201489,32.9201065 45.9871457,32.7203728 45.9871457,32.0652463 L45.9871457,29.3888149 L45.264285,29.3888149 Z M48.5632005,32.8641811 L48.5632005,29.6684421 C48.5632005,29.3968043 48.5469564,29.1171771 48.5225903,28.8535286 L49.2941832,28.8535286 L49.3104272,29.6284953 C49.4566238,29.069241 49.9439456,28.885486 50.2850709,28.8375499 C50.5124877,28.8055925 50.6830503,28.8135819 50.8130028,28.8215712 L50.8130028,29.5565912 C50.7723927,29.5406125 50.7236605,29.5326232 50.6668063,29.5246338 C50.6099521,29.5166445 50.5368538,29.5166445 50.4475115,29.5166445 C49.5459661,29.5166445 49.3347933,30.0439414 49.3347933,30.7310253 L49.3347933,32.8641811 L48.5632005,32.8641811 Z M51.5291127,28.8535286 L52.3088276,28.8535286 L52.3088276,31.4340879 C52.3088276,31.8255659 52.39817,32.3209055 53.1778849,32.3209055 C53.5596203,32.3209055 53.9169896,32.1930759 54.1362844,31.873502 C54.306847,31.6338216 54.306847,31.322237 54.306847,31.1225033 L54.306847,28.8535286 L55.094684,28.8535286 L55.094684,32.1131824 C55.094684,32.1930759 55.110928,32.6404794 55.1190501,32.8641811 L54.3230911,32.8641811 L54.306847,32.1770972 C54.1606505,32.4567244 53.8845015,32.9041278 53.0073222,32.9041278 C52.0001905,32.9041278 51.5291127,32.3368842 51.5291127,31.5459387 L51.5291127,28.8535286 Z M59.5956599,30.1398136 L58.8240671,30.1398136 C58.807823,29.9560586 58.7509688,29.3009321 58.011864,29.3009321 C56.9560001,29.3009321 56.9560001,30.5073236 56.9560001,30.8109188 C56.9560001,31.6338216 57.1590509,32.4007989 57.9712539,32.4007989 C58.6210163,32.4007989 58.8403111,31.9214381 58.8565552,31.5299601 L59.628148,31.5299601 C59.5794159,32.3129161 58.9865077,32.9680426 57.9793759,32.9680426 C57.7032269,32.9680426 57.0697085,32.9121172 56.6392409,32.448735 C56.39558,32.1691079 56.1519191,31.7456724 56.1519191,30.9147803 C56.1519191,29.2450067 57.191539,28.7496671 58.003742,28.7496671 C58.271769,28.7496671 58.8809213,28.8055925 59.2545347,29.2450067 C59.5550498,29.5885486 59.5794159,29.9161119 59.5956599,30.1398136 Z M59.8650582,29.3888149 L59.8650582,28.8375499 L60.5879189,28.8375499 L60.5879189,27.9986684 L61.3432677,27.758988 L61.3432677,28.8375499 L62.252935,28.8375499 L62.252935,29.3888149 L61.3432677,29.3888149 L61.3432677,31.7936085 C61.3432677,31.9933422 61.3432677,32.3288948 61.8874437,32.3288948 C62.0417623,32.3288948 62.1879588,32.3049268 62.252935,32.2889481 L62.252935,32.8721704 C62.1148605,32.8961385 61.8955657,32.9201065 61.6194167,32.9201065 C60.9209221,32.9201065 60.5879189,32.7203728 60.5879189,32.0652463 L60.5879189,29.3888149 L59.8650582,29.3888149 Z M63.0421432,28.8535286 L63.8218581,28.8535286 L63.8218581,31.4340879 C63.8218581,31.8255659 63.9112004,32.3209055 64.6909153,32.3209055 C65.0726507,32.3209055 65.4300201,32.1930759 65.6493149,31.873502 C65.8198775,31.6338216 65.8198775,31.322237 65.8198775,31.1225033 L65.8198775,28.8535286 L66.6077144,28.8535286 L66.6077144,32.1131824 C66.6077144,32.1930759 66.6239585,32.6404794 66.6320805,32.8641811 L65.8361216,32.8641811 L65.8198775,32.1770972 C65.673681,32.4567244 65.397532,32.9041278 64.5203527,32.9041278 C63.513221,32.9041278 63.0421432,32.3368842 63.0421432,31.5459387 L63.0421432,28.8535286 Z M68.0548071,32.8641811 L68.0548071,29.6684421 C68.0548071,29.3968043 68.038563,29.1171771 68.0141969,28.8535286 L68.7857898,28.8535286 L68.8020338,29.6284953 C68.9482304,29.069241 69.4355522,28.885486 69.7766775,28.8375499 C70.0040943,28.8055925 70.1746569,28.8135819 70.3046094,28.8215712 L70.3046094,29.5565912 C70.2639993,29.5406125 70.2152671,29.5326232 70.1584129,29.5246338 C70.1015587,29.5166445 70.0284604,29.5166445 69.9391181,29.5166445 C69.0375727,29.5166445 68.8263999,30.0439414 68.8263999,30.7310253 L68.8263999,32.8641811 L68.0548071,32.8641811 Z M74.4969482,30.9946738 L71.5648953,30.9946738 C71.5486513,31.8255659 71.8978986,32.4407457 72.7344677,32.4407457 C73.2299115,32.4407457 73.627891,32.1850866 73.6928672,31.6098535 L74.4563381,31.6098535 C74.431972,31.8095872 74.3994839,32.1371505 74.1070908,32.448735 C73.9284061,32.6484687 73.5223046,32.9840213 72.7019796,32.9840213 C71.4186988,32.9840213 70.8095465,32.2010652 70.8095465,30.930759 C70.8095465,30.1398136 70.9719871,29.4846871 71.6136275,29.045273 C72.003485,28.7736352 72.4908068,28.7496671 72.7263457,28.7496671 C74.5538024,28.7496671 74.5131923,30.3395473 74.4969482,30.9946738 Z M71.5973835,30.4673768 L73.7172333,30.4673768 C73.7253554,30.0838881 73.6522571,29.2849534 72.7101016,29.2849534 C72.2146577,29.2849534 71.6136275,29.5805593 71.5973835,30.4673768 Z M82.1343991,28.6537949 L81.2653418,28.6537949 C81.2328537,28.4540613 81.1272673,27.6551265 79.9983051,27.6551265 C78.5850719,27.6551265 78.333289,29.0772304 78.333289,30.0359521 C78.333289,31.1225033 78.6500481,32.2969374 79.9901831,32.2969374 C80.3475524,32.2969374 80.6886777,32.2090546 80.9404606,31.9533955 C81.1516334,31.7296937 81.2003656,31.482024 81.2247317,31.3462051 L82.118155,31.3462051 C81.9963246,32.4806924 80.9323386,32.9520639 79.9252069,32.9520639 C77.8622112,32.9520639 77.4642317,31.1624501 77.4642317,30.0439414 C77.4642317,28.8295606 77.9434315,27.0159787 80.0307933,27.0159787 C80.8592403,27.0159787 82.0288127,27.3435419 82.1343991,28.6537949 Z M83.0941699,32.8641811 L83.0941699,27.1038615 L83.8576407,27.1038615 L83.8576407,32.8641811 L83.0941699,32.8641811 Z M88.439837,32.8641811 L87.7494644,32.8641811 C87.6926102,32.6644474 87.6763661,32.4727031 87.6763661,32.26498 C87.3108748,32.9280959 86.7585767,32.9920107 86.4174515,32.9920107 C85.483418,32.9920107 84.9798521,32.4727031 84.9798521,31.8095872 C84.9798521,31.4900133 85.0935605,30.9786951 85.6945908,30.6351531 C86.1331804,30.3954727 86.7829428,30.3715047 87.107824,30.3715047 C87.3027527,30.3715047 87.4245832,30.379494 87.6601221,30.3954727 C87.6601221,29.9001332 87.6601221,29.6844208 87.5139255,29.5086551 C87.359607,29.3089214 87.0266037,29.2450067 86.8073089,29.2450067 C86.035716,29.2450067 85.9951059,29.7643142 85.9869839,29.9241012 L85.223513,29.9241012 C85.2478791,29.7163782 85.2722452,29.436751 85.5077841,29.1651132 C85.8164212,28.8295606 86.3930854,28.7336884 86.823553,28.7336884 C87.4164612,28.7336884 88.0499795,28.9174434 88.2692743,29.3249001 C88.3992268,29.5645806 88.4073488,29.7563249 88.4073488,29.9400799 L88.3748607,31.8575233 C88.3748607,31.9214381 88.3829828,32.4567244 88.439837,32.8641811 Z M87.6601221,30.9147803 C87.5220476,30.8988016 87.4083391,30.8908123 87.2215324,30.8908123 C86.9128953,30.8908123 85.751445,30.8908123 85.751445,31.7057257 C85.751445,31.9613848 85.9138856,32.4007989 86.5961361,32.4007989 C86.9859936,32.4007989 87.2783867,32.2490013 87.4651933,31.9693742 C87.635756,31.6977364 87.643878,31.4740346 87.6601221,30.9147803 Z M89.3427536,31.6737683 L90.1468345,31.6737683 C90.1387125,31.9773635 90.3011531,32.4007989 91.0402579,32.4007989 C91.357017,32.4007989 91.5925559,32.3448735 91.7549965,32.1451398 C91.8362168,32.0412783 91.884949,31.9054594 91.884949,31.7696405 C91.884949,31.3781625 91.6006779,31.3062583 90.9915257,31.1704394 C90.1387125,30.9786951 89.4239739,30.8109188 89.4239739,29.9720373 C89.4239739,29.2370173 90.0737363,28.7576565 91.0158918,28.7576565 C91.5275797,28.7576565 92.2423183,28.9014647 92.4859792,29.3808256 C92.5915656,29.6045273 92.5915656,29.7962716 92.5915656,29.9640479 L91.8118507,29.9640479 C91.8362168,29.3568575 91.3001628,29.3089214 91.0240138,29.3089214 C90.9103054,29.3089214 90.1955667,29.3089214 90.1955667,29.8841545 C90.1955667,30.2516644 90.5610581,30.3395473 90.7722309,30.3954727 C91.9011931,30.6591212 92.144854,30.723036 92.3885149,30.9467377 C92.6159317,31.1544607 92.697152,31.4340879 92.697152,31.689747 C92.697152,32.1371505 92.4453691,32.5206391 92.144854,32.7043941 C91.7874846,32.9201065 91.357017,32.976032 90.9346715,32.976032 C90.1062244,32.976032 89.3346315,32.6404794 89.3427536,31.6737683 Z M93.3320416,31.6737683 L94.1361226,31.6737683 C94.1280006,31.9773635 94.2904412,32.4007989 95.0295459,32.4007989 C95.3463051,32.4007989 95.581844,32.3448735 95.7442846,32.1451398 C95.8255049,32.0412783 95.8742371,31.9054594 95.8742371,31.7696405 C95.8742371,31.3781625 95.589966,31.3062583 94.9808137,31.1704394 C94.1280006,30.9786951 93.4132619,30.8109188 93.4132619,29.9720373 C93.4132619,29.2370173 94.0630243,28.7576565 95.0051798,28.7576565 C95.5168677,28.7576565 96.2316064,28.9014647 96.4752673,29.3808256 C96.5808537,29.6045273 96.5808537,29.7962716 96.5808537,29.9640479 L95.8011388,29.9640479 C95.8255049,29.3568575 95.2894509,29.3089214 95.0133019,29.3089214 C94.8995934,29.3089214 94.1848548,29.3089214 94.1848548,29.8841545 C94.1848548,30.2516644 94.5503461,30.3395473 94.7615189,30.3954727 C95.8904811,30.6591212 96.134142,30.723036 96.3778029,30.9467377 C96.6052198,31.1544607 96.6864401,31.4340879 96.6864401,31.689747 C96.6864401,32.1371505 96.4346571,32.5206391 96.134142,32.7043941 C95.7767727,32.9201065 95.3463051,32.976032 94.9239595,32.976032 C94.0955124,32.976032 93.3239196,32.6404794 93.3320416,31.6737683 Z M97.6137228,27.9347537 L97.6137228,27.1118509 L98.5315122,27.1118509 L98.5315122,27.9347537 L97.6137228,27.9347537 Z M97.6949431,32.8641811 L97.6949431,28.8535286 L98.4584139,28.8535286 L98.4584139,32.8641811 L97.6949431,32.8641811 Z M102.967512,30.1398136 L102.195919,30.1398136 C102.179675,29.9560586 102.122821,29.3009321 101.383716,29.3009321 C100.327852,29.3009321 100.327852,30.5073236 100.327852,30.8109188 C100.327852,31.6338216 100.530903,32.4007989 101.343106,32.4007989 C101.992868,32.4007989 102.212163,31.9214381 102.228407,31.5299601 L103,31.5299601 C102.951268,32.3129161 102.35836,32.9680426 101.351228,32.9680426 C101.075079,32.9680426 100.44156,32.9121172 100.011093,32.448735 C99.767432,32.1691079 99.5237711,31.7456724 99.5237711,30.9147803 C99.5237711,29.2450067 100.563391,28.7496671 101.375594,28.7496671 C101.643621,28.7496671 102.252773,28.8055925 102.626387,29.2450067 C102.926902,29.5885486 102.951268,29.9161119 102.967512,30.1398136 Z" id="Cloud-Infrastructure" fill="#616870"></path>
    </g>
</svg>