<?xml version="1.0" encoding="UTF-8"?>
<svg width="80px" height="32px" viewBox="0 0 80 32" version="1.1" xmlns="http://www.w3.org/2000/svg" xmlns:xlink="http://www.w3.org/1999/xlink">
    <g id="Symbols" stroke="none" stroke-width="1" fill="none" fill-rule="evenodd">
        <g id="Provider/OpenStack/openstack-32" fill="white">
            <path d="M13.1629439,9 C13.9045655,9 14.5113015,9.59386047 14.5113015,10.3197442 L14.5113015,13.4293721 L11.2341289,13.4293721 L11.2341289,12.9213023 C11.2341289,12.5270233 10.9076424,12.2074651 10.5049813,12.2074651 L4.00635343,12.2074651 C3.60352599,12.2074651 3.2770395,12.5270233 3.2770395,12.9213023 L3.2770395,13.4293721 L3.32640332e-05,13.4293721 L3.32640332e-05,10.3197442 C3.32640332e-05,9.59386047 0.606769231,9 1.34822453,9 L13.1629439,9 Z M11.2341622,18.9793791 L11.2341622,18.4713093 L14.5111684,18.4713093 L14.5111684,21.5809372 C14.5111684,22.3068209 13.9045988,22.9006814 13.1629771,22.9006814 L1.3482578,22.9006814 C0.606802495,22.9006814 6.65280666e-05,22.3068209 6.65280666e-05,21.5809372 L6.65280666e-05,18.4713093 L3.27707277,18.4713093 L3.27707277,18.9793791 C3.27707277,19.3736581 3.60355925,19.6932163 4.00638669,19.6932163 L10.5048482,19.6932163 C10.9076757,19.6932163 11.2341622,19.3736581 11.2341622,18.9793791 Z M0,17.5539837 L0,14.3465186 L3.27700624,14.3465186 L3.27700624,17.5539837 L0,17.5539837 Z M11.234262,17.5539837 L11.234262,14.3465186 L14.5112682,14.3465186 L14.5112682,17.5539837 L11.234262,17.5539837 Z M79.936948,18.6443233 C79.936948,19.1419744 79.5233098,19.5466721 79.0150353,19.5466721 C78.5067609,19.5466721 78.0931227,19.1419744 78.0931227,18.6443233 C78.0931227,18.1468349 78.5067609,17.7421372 79.0150353,17.7421372 C79.5233098,17.7421372 79.936948,18.1468349 79.936948,18.6443233 Z M79.0150353,19.3249512 C79.3984033,19.3249512 79.71042,19.0197186 79.71042,18.6443233 C79.71042,18.2690907 79.3984033,17.9638581 79.0150353,17.9638581 C78.6316674,17.9638581 78.3196507,18.2690907 78.3196507,18.6443233 C78.3196507,19.0197186 78.6316674,19.3249512 79.0150353,19.3249512 Z M79.3608316,18.4808488 C79.3608316,18.6146628 79.292474,18.699314 79.1930146,18.7422907 L79.3852807,19.0706395 L79.1710603,19.0706395 L79.0045738,18.7802209 L78.8871518,18.7802209 L78.8871518,19.0706395 L78.7002079,19.0706395 L78.7002079,18.1865233 L79.039501,18.1865233 C79.1441164,18.1865233 79.2277755,18.2155 79.284657,18.2711744 C79.3337214,18.3191977 79.3608316,18.3885465 79.3608316,18.4758023 L79.3608316,18.4808488 Z M79.1723909,18.4858953 L79.1723909,18.484593 C79.1723909,18.3961977 79.1170062,18.3519186 79.0213721,18.3519186 L78.8871518,18.3519186 L78.8871518,18.6185698 L79.0251975,18.6185698 C79.1208316,18.6185698 79.1723909,18.5655 79.1723909,18.4858953 Z M24.5671518,16.0114767 C24.5671518,18.1326395 23.1224948,19.6962442 21.1639085,19.6962442 C19.2191268,19.6962442 17.7882744,18.1598256 17.7882744,16.0251512 L17.7882744,15.9028953 C17.7882744,13.7817326 19.2329314,12.2044535 21.191684,12.2044535 C23.1364657,12.2044535 24.5671518,13.7543837 24.5671518,15.8890581 L24.5671518,16.0114767 Z M19.3580042,15.9844535 C19.3580042,17.330407 20.1219127,18.3501279 21.191684,18.3501279 C22.2890644,18.3501279 22.9975884,17.3440814 22.9975884,15.9979651 L22.9975884,15.916407 C22.9975884,14.5704535 22.2335135,13.5642442 21.1639085,13.5642442 C20.0665281,13.5642442 19.3580042,14.5566163 19.3580042,15.9028953 L19.3580042,15.9844535 Z M32.0399168,16.0388907 C32.0399168,18.4589372 30.6644491,19.6826349 29.1782121,19.6826349 C28.1086071,19.6826349 27.469605,19.0978907 27.0250312,18.4589372 L27.0250312,21.5998209 L25.4553015,21.5998209 L25.4553015,12.3404488 L27.0250312,12.3404488 L27.0250312,13.4962628 C27.4834096,12.8027744 28.1224116,12.2045186 29.1782121,12.2045186 C30.6506445,12.2045186 32.0399168,13.4145419 32.0399168,15.8484256 L32.0399168,16.0388907 Z M26.9972557,16.0115419 C26.9972557,17.4255419 27.8030769,18.323007 28.7474428,18.323007 C29.7059459,18.323007 30.4562162,17.4528907 30.4562162,16.0115419 L30.4562162,15.8891233 C30.4562162,14.4481 29.6921414,13.5643093 28.7474428,13.5643093 C27.8030769,13.5643093 26.9972557,14.4616116 26.9972557,15.8756116 L26.9972557,16.0115419 Z M38.8414802,18.5814372 C38.174869,19.2747628 37.3552432,19.6962279 36.2578628,19.6962279 C34.3684657,19.6962279 32.8960333,18.2822279 32.8960333,16.0251349 L32.8960333,15.9165535 C32.8960333,13.7545302 34.2295884,12.2044372 36.0354927,12.2044372 C38.0358254,12.2044372 39.0914595,13.8362512 39.0914595,15.9979488 C39.0914595,16.0930186 39.0914595,16.3108326 39.0776549,16.5283209 L34.465763,16.5283209 C34.6046403,17.7383442 35.3687152,18.3909721 36.3272183,18.3909721 C37.0217713,18.3909721 37.5357006,18.0917628 38.0218545,17.6294372 L38.8414802,18.5814372 Z M36.0354927,13.4963442 C35.1742869,13.4963442 34.5630603,14.2440419 34.4519584,15.4677395 L37.5636424,15.4677395 C37.4801497,14.3256 36.9524158,13.4963442 36.0354927,13.4963442 Z M43.7009064,12.2045023 C45.1177879,12.2045023 45.9651892,13.1835256 45.9651892,14.7199442 L45.9651892,19.5466884 L44.3954595,19.5466884 L44.3954595,15.1549209 C44.3954595,14.1487116 43.9093056,13.5914791 43.0758753,13.5914791 C42.2562495,13.5914791 41.6866029,14.1897349 41.6866029,15.1822698 L41.6866029,19.5466884 L40.1168732,19.5466884 L40.1168732,12.3404326 L41.6866029,12.3404326 L41.6866029,13.401014 C42.1034012,12.7620605 42.7008233,12.2045023 43.7009064,12.2045023 Z M52.2927069,17.4935233 C52.2927069,18.9075233 51.1953264,19.6825698 49.7782786,19.6825698 C48.9032682,19.6825698 47.8892141,19.3698488 47.0418129,18.6765233 L47.7781123,17.5752442 C48.4447235,18.1052907 49.1532474,18.4181744 49.8060541,18.4181744 C50.459027,18.4181744 50.834079,18.0782674 50.834079,17.6294535 L50.834079,17.6159419 C50.834079,17.0992442 50.2644324,16.8682442 49.389422,16.5009884 C48.2920416,16.0388256 47.3751185,15.549314 47.3751185,14.3664767 L47.3751185,14.3391279 C47.3751185,13.0475465 48.4309189,12.2318023 49.8060541,12.2318023 C50.6256798,12.2318023 51.5008565,12.5173372 52.1954096,13.006686 L51.528632,14.135314 C50.9729563,13.7682209 50.3617297,13.4963605 49.7782786,13.4963605 C49.1948274,13.4963605 48.8477173,13.8089186 48.8477173,14.2031977 L48.8477173,14.2305465 C48.8477173,14.7063837 49.4310021,14.9510581 50.2923742,15.3318256 C51.4313347,15.8350116 52.2927069,16.3513837 52.2927069,17.4800116 L52.2927069,17.4935233 Z M57.1532474,19.3427442 C56.792,19.5332093 56.375368,19.6554651 55.8474678,19.6554651 C54.7638919,19.6554651 53.9442661,19.206814 53.9442661,17.8063256 L53.9442661,13.6593953 L53.3964075,13.6593953 L53.1386112,12.3404651 L53.9442661,12.3404651 L53.9442661,10.3962558 L55.5139958,10.3962558 L55.5139958,12.3404651 L57.167052,12.3404651 L57.167052,13.6593953 L55.5139958,13.6593953 L55.5139958,17.4936047 C55.5139958,18.0511628 55.8057214,18.2821628 56.3058462,18.2821628 C56.6115426,18.2821628 56.8892973,18.2141163 57.1532474,18.078186 L57.1532474,19.3427442 Z M63.1677672,12.9931093 C63.653921,13.4689465 63.9040665,14.1761093 63.9040665,15.0734116 L63.9040665,19.5467372 L62.3621123,19.5467372 L62.3621123,18.6629465 C61.9315094,19.274714 61.2787027,19.6826674 60.3201996,19.6826674 C59.0977464,19.6826674 58.0697214,18.8804349 58.0697214,17.4799465 L58.0697214,17.4120628 C58.0697214,15.8619698 59.1255218,15.1007605 60.6812807,15.1007605 C61.3758337,15.1007605 61.8759584,15.2228535 62.3760832,15.3861326 L62.3760832,15.0869233 C62.3760832,14.1217372 61.792632,13.6185512 60.7923825,13.6185512 C60.0840249,13.6185512 59.5005738,13.8362023 59.0142536,14.0536907 L58.5696798,12.8301558 C59.2782037,12.4902488 60.0145031,12.2589233 61.0007817,12.2589233 C61.9592848,12.2589233 62.6954179,12.5172721 63.1677672,12.9931093 Z M62.3898877,17.1265279 L62.3898877,16.4058535 C62.0288067,16.2564116 61.5564574,16.1475047 61.0285572,16.1475047 C60.125605,16.1475047 59.5978711,16.5963186 59.5978711,17.3575279 L59.5978711,17.3848767 C59.5978711,18.1053884 60.1118004,18.5135047 60.7923825,18.5270163 C61.6953347,18.5405279 62.3898877,17.9422721 62.3898877,17.1265279 Z M70.5765821,18.6085256 C69.993131,19.2476419 69.2569979,19.6961302 68.131842,19.6961302 C66.2148358,19.6961302 64.8255634,18.1870605 64.8255634,16.0388744 L64.8255634,15.9029442 C64.8255634,13.7544326 66.2564158,12.2045023 68.1873929,12.2045023 C69.243027,12.2045023 69.9377464,12.5852698 70.548973,13.1835256 L69.6736299,14.3121535 C69.2847734,13.9177116 68.8541705,13.5914791 68.1873929,13.5914791 C67.159368,13.5914791 66.409264,14.5566651 66.409264,15.9164558 L66.409264,15.9845023 C66.409264,17.3848279 67.159368,18.3229907 68.228973,18.3229907 C68.8679751,18.3229907 69.298578,18.0102698 69.7293472,17.5888047 L70.5765821,18.6085256 Z M75.3811393,15.8064744 L77.5768981,19.5465907 L75.7571892,19.5465907 L74.2792682,16.965707 L75.3811393,15.8064744 Z M75.6459709,12.3404488 L77.5074262,12.3404488 L73.1317089,17.4664023 L73.1317089,19.5467047 L71.5619792,19.5467047 L71.5619792,9.72993721 L73.1317089,9.72993721 L73.1317089,15.5085186 L75.6459709,12.3404488 Z" id="Combined-Shape"></path>
        </g>
    </g>
</svg>
