<?xml version="1.0" encoding="UTF-8"?>
<svg width="112px" height="21px" viewBox="0 0 112 21" version="1.1" xmlns="http://www.w3.org/2000/svg" xmlns:xlink="http://www.w3.org/1999/xlink">
    <!-- Generator: Sketch 47.1 (45422) - http://www.bohemiancoding.com/sketch -->
    <title>Provider-AWS-3 Copy 2</title>
    <desc>Created with Sketch.</desc>
    <defs></defs>
    <g id="Coriolis" stroke="none" stroke-width="1" fill="none" fill-rule="evenodd">
        <g id="Endpoints-List" transform="translate(-672.000000, -470.000000)" fill="#616870">
            <g id="Item-Connection-Copy-4" transform="translate(352.000000, 448.000000)">
                <g id="Provider/OpenStack/32" transform="translate(320.000000, 10.000000)">
                    <path d="M18.4281214,12.65625 C19.4663917,12.65625 20.315822,13.4913663 20.315822,14.5121403 L20.315822,18.8850545 L15.7277805,18.8850545 L15.7277805,18.1705814 C15.7277805,17.6161265 15.2706994,17.1667478 14.7069738,17.1667478 L5.6088948,17.1667478 C5.04493638,17.1667478 4.5878553,17.6161265 4.5878553,18.1705814 L4.5878553,18.8850545 L4.65696464e-05,18.8850545 L4.65696464e-05,14.5121403 C4.65696464e-05,13.4913663 0.849476923,12.65625 1.88751435,12.65625 L18.4281214,12.65625 Z M15.727827,26.6897518 L15.727827,25.9752787 L20.3156358,25.9752787 L20.3156358,30.348193 C20.3156358,31.3689669 19.4664383,32.2040832 18.428168,32.2040832 L1.88756091,32.2040832 C0.849523493,32.2040832 9.31392932e-05,31.3689669 9.31392932e-05,30.348193 L9.31392932e-05,25.9752787 L4.58790187,25.9752787 L4.58790187,26.6897518 C4.58790187,27.2442068 5.04498295,27.6935854 5.60894137,27.6935854 L14.7067875,27.6935854 C15.2707459,27.6935854 15.727827,27.2442068 15.727827,26.6897518 Z M0,24.6852896 L0,20.1747918 L4.58780873,20.1747918 L4.58780873,24.6852896 L0,24.6852896 Z M15.7279667,24.6852896 L15.7279667,20.1747918 L20.3157755,20.1747918 L20.3157755,24.6852896 L15.7279667,24.6852896 Z M111.911727,26.2185796 C111.911727,26.9184015 111.332634,27.4875076 110.621049,27.4875076 C109.909465,27.4875076 109.330372,26.9184015 109.330372,26.2185796 C109.330372,25.5189866 109.909465,24.9498805 110.621049,24.9498805 C111.332634,24.9498805 111.911727,25.5189866 111.911727,26.2185796 Z M110.621049,27.1757126 C111.157765,27.1757126 111.594588,26.7464793 111.594588,26.2185796 C111.594588,25.6909088 111.157765,25.2616755 110.621049,25.2616755 C110.084334,25.2616755 109.647511,25.6909088 109.647511,26.2185796 C109.647511,26.7464793 110.084334,27.1757126 110.621049,27.1757126 Z M111.105164,25.9886937 C111.105164,26.1768695 111.009464,26.2959102 110.87022,26.3563463 L111.139393,26.8180868 L110.839484,26.8180868 L110.606403,26.4096857 L110.442012,26.4096857 L110.442012,26.8180868 L110.180291,26.8180868 L110.180291,25.5747983 L110.655301,25.5747983 C110.801763,25.5747983 110.918886,25.6155469 110.99852,25.693839 C111.06721,25.7613717 111.105164,25.8588935 111.105164,25.981597 L111.105164,25.9886937 Z M110.841347,25.9957903 L110.841347,25.9939589 C110.841347,25.869653 110.763809,25.8073855 110.629921,25.8073855 L110.442012,25.8073855 L110.442012,26.1823637 L110.635277,26.1823637 C110.769164,26.1823637 110.841347,26.1077344 110.841347,25.9957903 Z M34.3940125,22.5161392 C34.3940125,25.4990243 32.3714927,27.6978434 29.6294719,27.6978434 C26.9067775,27.6978434 24.9035842,25.5372547 24.9035842,22.5353688 L24.9035842,22.3634466 C24.9035842,19.3805614 26.926104,17.1625127 29.6683576,17.1625127 C32.391052,17.1625127 34.3940125,19.3421021 34.3940125,22.343988 L34.3940125,22.5161392 Z M27.1012058,22.4781377 C27.1012058,24.3708848 28.1706778,25.8048674 29.6683576,25.8048674 C31.2046902,25.8048674 32.1966237,24.3901145 32.1966237,22.4971384 L32.1966237,22.3824473 C32.1966237,20.4897002 31.1269189,19.0747184 29.6294719,19.0747184 C28.0931393,19.0747184 27.1012058,20.4702416 27.1012058,22.3634466 L27.1012058,22.4781377 Z M44.8558836,22.55469 C44.8558836,25.9578805 42.9302287,27.6787053 40.8494969,27.6787053 C39.3520499,27.6787053 38.457447,26.8564088 37.8350437,25.9578805 L37.8350437,30.3747482 L35.637422,30.3747482 L35.637422,17.3537562 L37.8350437,17.3537562 L37.8350437,18.9791195 C38.4767734,18.0039015 39.3713763,17.1626043 40.8494969,17.1626043 C42.9109023,17.1626043 44.8558836,18.8641995 44.8558836,22.2868485 L44.8558836,22.55469 Z M37.796158,22.5162307 C37.796158,24.5046682 38.9243077,25.7667286 40.24642,25.7667286 C41.5883243,25.7667286 42.6387027,24.5431275 42.6387027,22.5162307 L42.6387027,22.3440796 C42.6387027,20.3176406 41.5689979,19.07481 40.24642,19.07481 C38.9243077,19.07481 37.796158,20.3366414 37.796158,22.3250789 L37.796158,22.5162307 Z M54.3780723,26.1301461 C53.4448166,27.1051352 52.2973405,27.6978205 50.7610079,27.6978205 C48.115852,27.6978205 46.0544466,25.709383 46.0544466,22.5353459 L46.0544466,22.3826533 C46.0544466,19.3423081 47.9214237,17.1624898 50.4496898,17.1624898 C53.2501555,17.1624898 54.7280432,19.4572282 54.7280432,22.4971156 C54.7280432,22.6308074 54.7280432,22.9371083 54.7087168,23.2429513 L48.2520682,23.2429513 C48.4464965,24.9445465 49.5162012,25.8623045 50.8581056,25.8623045 C51.8304798,25.8623045 52.5499809,25.4415414 53.2305963,24.7913961 L54.3780723,26.1301461 Z M50.4496898,18.979234 C49.2440017,18.979234 48.3882844,20.0306839 48.2327418,21.7515087 L52.5890994,21.7515087 C52.4722096,20.145375 51.7333821,18.979234 50.4496898,18.979234 Z M61.181269,17.1625814 C63.1649031,17.1625814 64.3512649,18.5393328 64.3512649,20.6999215 L64.3512649,27.4875305 L62.1536432,27.4875305 L62.1536432,21.3116076 C62.1536432,19.8966257 61.4730279,19.1130174 60.3062254,19.1130174 C59.1587493,19.1130174 58.3612441,19.9543147 58.3612441,21.3500669 L58.3612441,27.4875305 L56.1636225,27.4875305 L56.1636225,17.3537333 L58.3612441,17.3537333 L58.3612441,18.8451759 C58.9447617,17.9466475 59.7811526,17.1625814 61.181269,17.1625814 Z M73.2097896,24.6002671 C73.2097896,26.5887046 71.673457,27.6786137 69.68959,27.6786137 C68.4645755,27.6786137 67.0448998,27.2388499 65.858538,26.2638608 L66.8893572,24.7151871 C67.8226129,25.460565 68.8145464,25.9005578 69.7284757,25.9005578 C70.6426378,25.9005578 71.1677106,25.4225636 71.1677106,24.791419 L71.1677106,24.7724182 C71.1677106,24.0458121 70.3702054,23.7209684 69.1451909,23.2045149 C67.6088582,22.5545985 66.3251659,21.8662227 66.3251659,20.2028579 L66.3251659,20.1643986 C66.3251659,18.3481123 67.8032865,17.200972 69.7284757,17.200972 C70.8759518,17.200972 72.1011992,17.6025055 73.0735734,18.2906523 L72.1400848,19.8777852 C71.3621389,19.3615607 70.5064216,18.9792569 69.68959,18.9792569 C68.8727584,18.9792569 68.3868042,19.4187918 68.3868042,19.9732467 L68.3868042,20.011706 C68.3868042,20.6808521 69.2034029,21.0249255 70.4093239,21.5603797 C72.0038686,22.2679851 73.2097896,22.9941334 73.2097896,24.5812664 L73.2097896,24.6002671 Z M80.0145464,27.200734 C79.5088,27.4685756 78.9255152,27.6404978 78.1864549,27.6404978 C76.6694486,27.6404978 75.5219726,27.0095821 75.5219726,25.0401453 L75.5219726,19.2085247 L74.7549705,19.2085247 L74.3940557,17.3537791 L75.5219726,17.3537791 L75.5219726,14.6197347 L77.7195942,14.6197347 L77.7195942,17.3537791 L80.0338728,17.3537791 L80.0338728,19.2085247 L77.7195942,19.2085247 L77.7195942,24.6003815 C77.7195942,25.3844477 78.12801,25.7092914 78.8281846,25.7092914 C79.2561597,25.7092914 79.6450162,25.613601 80.0145464,25.4224491 L80.0145464,27.200734 Z M88.434874,18.27156 C89.1154894,18.940706 89.4656931,19.9351537 89.4656931,21.1969851 L89.4656931,27.4875992 L87.3069572,27.4875992 L87.3069572,26.2447685 C86.7041131,27.1050665 85.7901838,27.6787511 84.4482794,27.6787511 C82.7368449,27.6787511 81.29761,26.5506116 81.29761,24.5811748 L81.29761,24.4857133 C81.29761,22.305895 82.7757306,21.2354444 84.9537929,21.2354444 C85.9261672,21.2354444 86.6263418,21.4071377 87.3265164,21.6367489 L87.3265164,21.2159858 C87.3265164,19.858693 86.5096848,19.1510876 85.1093356,19.1510876 C84.1176349,19.1510876 83.3008033,19.4571595 82.6199551,19.7630025 L81.9975518,18.0424066 C82.9894852,17.5644124 84.0203044,17.2391108 85.4010944,17.2391108 C86.7429988,17.2391108 87.773585,17.6024139 88.434874,18.27156 Z M87.3458428,24.0841799 L87.3458428,23.0707315 C86.8403293,22.8605789 86.1790403,22.7074284 85.43998,22.7074284 C84.175847,22.7074284 83.4370195,23.338573 83.4370195,24.4090236 L83.4370195,24.4474829 C83.4370195,25.4607024 84.1565206,26.0346159 85.1093356,26.0536166 C86.3734686,26.0726174 87.3458428,25.2313201 87.3458428,24.0841799 Z M98.807215,26.1682391 C97.9903834,27.0669964 96.9597971,27.6976831 95.3845788,27.6976831 C92.7007701,27.6976831 90.7557888,25.5755538 90.7557888,22.5546672 L90.7557888,22.3635153 C90.7557888,19.3421708 92.7589821,17.1625814 95.4623501,17.1625814 C96.9402378,17.1625814 97.9128449,17.6980356 98.7685622,18.5393328 L97.5430819,20.1264658 C96.9986827,19.571782 96.3958387,19.1130174 95.4623501,19.1130174 C94.0231152,19.1130174 92.9729696,20.4703103 92.9729696,22.382516 L92.9729696,22.4782064 C92.9729696,24.4474142 94.0231152,25.7667057 95.5205622,25.7667057 C96.4151651,25.7667057 97.0180091,25.3269419 97.6210861,24.7342565 L98.807215,26.1682391 Z M105.533595,22.2278547 L108.607657,27.4873932 L106.060065,27.4873932 L103.990975,23.8580254 L105.533595,22.2278547 Z M105.904359,17.3537562 L108.510397,17.3537562 L102.384393,24.5621283 L102.384393,27.4875534 L100.186771,27.4875534 L100.186771,13.6827242 L102.384393,13.6827242 L102.384393,21.8088543 L105.904359,17.3537562 Z" id="Combined-Shape"></path>
                </g>
            </g>
        </g>
    </g>
</svg>