<?xml version="1.0" encoding="UTF-8"?>
<svg width="192px" height="64px" viewBox="0 0 192 64" version="1.1" xmlns="http://www.w3.org/2000/svg" xmlns:xlink="http://www.w3.org/1999/xlink">
    <!-- Generator: Sketch 47.1 (45422) - http://www.bohemiancoding.com/sketch -->
    <title>Provider/OpenStack/64</title>
    <desc>Created with Sketch.</desc>
    <defs></defs>
    <g id="Symbols" stroke="none" stroke-width="1" fill="none" fill-rule="evenodd">
        <g id="Provider/OpenStack/64">
            <path d="M192,38.8954724 C192,40.0768885 191.006485,41.0376344 189.785664,41.0376344 C188.564844,41.0376344 187.571329,40.0768885 187.571329,38.8954724 C187.571329,37.7144428 188.564844,36.7536969 189.785664,36.7536969 C191.006485,36.7536969 192,37.7144428 192,38.8954724 Z M189.785664,40.5112724 C190.706473,40.5112724 191.455904,39.7866551 191.455904,38.8954724 C191.455904,38.0046762 190.706473,37.2800589 189.785664,37.2800589 C188.864855,37.2800589 188.115425,38.0046762 188.115425,38.8954724 C188.115425,39.7866551 188.864855,40.5112724 189.785664,40.5112724 Z M190.61623,38.5073867 C190.61623,38.8250589 190.452042,39.0260195 190.213151,39.1280456 L190.674954,39.9075406 L190.16042,39.9075406 L189.760537,39.2180914 L189.478502,39.2180914 L189.478502,39.9075406 L189.029482,39.9075406 L189.029482,37.8086624 L189.844428,37.8086624 C190.095703,37.8086624 190.296643,37.8774527 190.433267,38.0096229 C190.551114,38.1236294 190.61623,38.2882624 190.61623,38.4954064 L190.61623,38.5073867 Z M190.163615,38.519367 L190.163615,38.5162753 C190.163615,38.3064262 190.030588,38.2013084 189.800885,38.2013084 L189.478502,38.2013084 L189.478502,38.834334 L189.810073,38.834334 C190.039776,38.834334 190.163615,38.7083472 190.163615,38.519367 Z M59.0076711,32.645136 C59.0076711,37.6807433 55.5377596,41.3927162 50.8334448,41.3927162 C46.1622872,41.3927162 42.7255327,37.7452825 42.7255327,32.6775989 L42.7255327,32.3873655 C42.7255327,27.3517582 46.1954443,23.6073224 50.9001585,23.6073224 C55.5713162,23.6073224 59.0076711,27.2868325 59.0076711,32.3545162 L59.0076711,32.645136 Z M46.4958557,32.5809832 C46.4958557,35.7762557 48.3306822,38.1970573 50.9001585,38.1970573 C53.535949,38.1970573 55.2377477,35.8087186 55.2377477,32.6130596 L55.2377477,32.4194419 C55.2377477,29.2241694 53.4025216,26.8354442 50.8334448,26.8354442 C48.1976543,26.8354442 46.4958557,29.1913201 46.4958557,32.3873655 L46.4958557,32.5809832 Z M76.9564536,32.7102163 C76.9564536,38.4553688 73.6527271,41.360408 70.0829448,41.360408 C67.513868,41.360408 65.9790533,39.9722344 64.9112346,38.4553688 L64.9112346,45.9117776 L61.1409117,45.9117776 L61.1409117,23.9301732 L64.9112346,23.9301732 L64.9112346,26.6740575 C66.0122105,25.0277269 67.5470251,23.607477 70.0829448,23.607477 C73.61957,23.607477 76.9564536,26.4800533 76.9564536,32.2580551 L76.9564536,32.7102163 Z M64.8445209,32.6452906 C64.8445209,36.0021045 66.7800173,38.1326726 69.0482832,38.1326726 C71.3505051,38.1326726 73.1525741,36.0670302 73.1525741,32.6452906 L73.1525741,32.3546708 C73.1525741,28.9337041 71.317348,26.8355988 69.0482832,26.8355988 C66.7800173,26.8355988 64.8445209,28.9657805 64.8445209,32.3225944 L64.8445209,32.6452906 Z M93.2930815,38.7461819 C91.6919526,40.392126 89.7232992,41.3926776 87.0875087,41.3926776 C82.5493789,41.3926776 79.0127537,38.0358637 79.0127537,32.6775602 L79.0127537,32.4197897 C79.0127537,27.2871803 82.2158104,23.6072838 86.5533996,23.6072838 C91.3579846,23.6072838 93.8935048,27.4811845 93.8935048,32.613021 C93.8935048,32.8387151 93.8935048,33.355802 93.8603477,33.872116 L82.7830766,33.872116 C83.1166452,36.7446923 84.9518712,38.2940207 87.2540932,38.2940207 C88.9223353,38.2940207 90.1567385,37.5837025 91.324428,36.4861488 L93.2930815,38.7461819 Z M86.5533996,26.6742507 C84.4848753,26.6742507 83.0167743,28.4492733 82.7499195,31.3543124 L90.2238517,31.3543124 C90.0233111,28.642891 88.7557507,26.6742507 86.5533996,26.6742507 Z M104.964904,23.6074384 C108.368101,23.6074384 110.403469,25.9316242 110.403469,29.5790579 L110.403469,41.0376731 L106.633146,41.0376731 L106.633146,30.6116859 C106.633146,28.2229608 105.465456,26.9000994 103.463645,26.9000994 C101.494992,26.9000994 100.126762,28.3203494 100.126762,30.6766116 L100.126762,41.0376731 L96.3564389,41.0376731 L96.3564389,23.9301346 L100.126762,23.9301346 L100.126762,26.4479382 C101.127867,24.9310726 102.562811,23.6074384 104.964904,23.6074384 Z M125.601489,36.1634912 C125.601489,39.5203051 122.965699,41.3602534 119.562101,41.3602534 C117.46042,41.3602534 115.024771,40.6178588 112.989403,38.9719147 L114.757916,36.3574954 C116.359045,37.6158176 118.060843,38.3585986 119.628815,38.3585986 C121.197186,38.3585986 122.098021,37.5516648 122.098021,36.4861875 L122.098021,36.4541111 C122.098021,35.2274789 120.729791,34.6790885 118.62811,33.807229 C115.992319,32.7100617 113.789968,31.5479688 113.789968,28.7399318 L113.789968,28.6750061 C113.789968,25.608812 116.325888,23.6722481 119.628815,23.6722481 C121.597469,23.6722481 123.699549,24.3501035 125.367792,25.5118099 L123.766263,28.1911549 C122.43159,27.3196818 120.963489,26.6742893 119.562101,26.6742893 C118.160714,26.6742893 117.326993,27.4162975 117.326993,28.3523098 L117.326993,28.4172355 C117.326993,29.5468656 118.72798,30.1277189 120.796904,31.0316548 C123.532565,32.2262106 125.601489,33.4520699 125.601489,36.1314148 L125.601489,36.1634912 Z M137.275988,40.5535128 C136.40831,41.005674 135.407605,41.2959074 134.139645,41.2959074 C131.537011,41.2959074 129.568358,40.2308165 129.568358,36.9060791 L129.568358,27.0613316 L128.25246,27.0613316 L127.633261,23.9302119 L129.568358,23.9302119 L129.568358,19.3146894 L133.338681,19.3146894 L133.338681,23.9302119 L137.309145,23.9302119 L137.309145,27.0613316 L133.338681,27.0613316 L133.338681,36.1636845 C133.338681,37.4873188 134.039374,38.0357091 135.240621,38.0357091 C135.974871,38.0357091 136.642008,37.8741678 137.275988,37.5514715 L137.275988,40.5535128 Z M151.722221,25.479579 C152.889911,26.6092091 153.490733,28.2880024 153.490733,30.4181841 L153.490733,41.037789 L149.787124,41.037789 L149.787124,38.9396837 C148.752862,40.3920101 147.18489,41.3604853 144.882668,41.3604853 C141.946466,41.3604853 139.47726,39.4559977 139.47726,36.1312603 L139.47726,35.9701054 C139.47726,32.2902088 142.01318,30.4831098 145.749946,30.4831098 C147.418188,30.4831098 148.619435,30.7729568 149.820681,31.1605787 L149.820681,30.4502605 C149.820681,28.1589239 148.419293,26.9643682 146.016801,26.9643682 C144.315402,26.9643682 142.914015,27.4810686 141.745926,27.9973826 L140.678107,25.0927299 C142.379906,24.2857961 144.148418,23.7366328 146.517354,23.7366328 C148.819576,23.7366328 150.587689,24.3499489 151.722221,25.479579 Z M149.853838,35.29225 L149.853838,33.5813802 C148.98656,33.2266076 147.852027,32.9680641 146.584067,32.9680641 C144.415273,32.9680641 143.147712,34.0335414 143.147712,35.8406404 L143.147712,35.9055661 C143.147712,37.6160494 144.382116,38.5849111 146.016801,38.6169875 C148.185596,38.6490639 149.853838,37.2288139 149.853838,35.29225 Z M169.517402,38.8104893 C168.116015,40.3277413 166.347902,41.3924457 163.645398,41.3924457 C159.040954,41.3924457 155.70407,37.8099377 155.70407,32.7101777 L155.70407,32.3874814 C155.70407,27.2869485 159.140825,23.6074384 163.778825,23.6074384 C166.314345,23.6074384 167.982987,24.5113743 169.451088,25.9316242 L167.348608,28.6109692 C166.414616,27.6745704 165.380354,26.9000994 163.778825,26.9000994 C161.309619,26.9000994 159.50795,29.191436 159.50795,32.4195578 L159.50795,32.5810992 C159.50795,35.9054502 161.309619,38.132634 163.878696,38.132634 C165.413511,38.132634 166.447773,37.3902394 167.482434,36.3896878 L169.517402,38.8104893 Z M181.057435,32.1584637 L186.331413,41.0374412 L181.960666,41.0374412 L178.410858,34.9104636 L181.057435,32.1584637 Z M181.693532,23.9301732 L186.164548,23.9301732 L175.654544,36.0991066 L175.654544,41.0377117 L171.884221,41.0377117 L171.884221,17.7328595 L175.654544,17.7328595 L175.654544,31.4511213 L181.693532,23.9301732 Z" id="Combined-Shape-Copy" fill="#4D4540"></path>
            <path d="M31.6159834,16 C33.3972792,16 34.8545941,17.4098154 34.8545941,19.133052 L34.8545941,26.51526 L26.9831761,26.51526 L26.9831761,25.3091103 C26.9831761,24.373098 26.1989905,23.614472 25.2318416,23.614472 L9.62283247,23.614472 C8.65528403,23.614472 7.87109841,24.373098 7.87109841,25.3091103 L7.87109841,26.51526 L7.98966501e-05,26.51526 L7.98966501e-05,19.133052 C7.98966501e-05,17.4098154 1.4573948,16 3.23829114,16 L31.6159834,16 Z M26.983256,39.6908897 L26.983256,38.48474 L34.8542745,38.48474 L34.8542745,45.866948 C34.8542745,47.5901846 33.3973591,49 31.6160633,49 L3.23837103,49 C1.4574747,49 0.000159793301,47.5901846 0.000159793301,45.866948 L0.000159793301,38.48474 L7.8711783,38.48474 L7.8711783,39.6908897 C7.8711783,40.626902 8.65536393,41.385528 9.62291236,41.385528 L25.231522,41.385528 C26.1990704,41.385528 26.983256,40.626902 26.983256,39.6908897 Z M0,36.3070234 L0,28.6925515 L7.87101851,28.6925515 L7.87101851,36.3070234 L0,36.3070234 Z M26.9834957,36.3070234 L26.9834957,28.6925515 L34.8545142,28.6925515 L34.8545142,36.3070234 L26.9834957,36.3070234 Z" id="Combined-Shape" fill="#EC1944"></path>
        </g>
    </g>
</svg>