<?xml version="1.0" encoding="UTF-8"?>
<svg width="192px" height="64px" viewBox="0 0 192 64" version="1.1" xmlns="http://www.w3.org/2000/svg" xmlns:xlink="http://www.w3.org/1999/xlink">
    <!-- Generator: Sketch 47.1 (45422) - http://www.bohemiancoding.com/sketch -->
    <title>Provider/OracleVM/64</title>
    <desc>Created with Sketch.</desc>
    <defs></defs>
    <g id="Symbols" stroke="none" stroke-width="1" fill="none" fill-rule="evenodd">
        <g id="Provider/OracleVM/64">
            <path d="M130.234832,38.6364871 C127.515853,38.6364871 125.208612,36.7792364 124.503134,34.2178937 L139.640374,34.2178937 L141.727101,30.9076803 L124.503134,30.9076803 C125.208612,28.3616903 127.515853,26.4895134 130.234832,26.4895134 L140.624529,26.4895134 L142.726319,23.1788734 L129.999672,23.1788734 C124.914453,23.1788734 120.785354,27.388073 120.785354,32.5704633 C120.785354,37.7528537 124.914453,41.9467005 129.999672,41.9467005 L140.918688,41.9467005 L143.005832,38.6364871 L130.234832,38.6364871 L130.234832,38.6364871 Z M86.925319,41.9467005 C81.8409368,41.9467005 77.7114193,37.7528537 77.7114193,32.5704633 C77.7114193,27.388073 81.8409368,23.1788734 86.925319,23.1788734 L99.6377389,23.1788734 L97.5656576,26.4895134 L87.1608969,26.4895134 C83.8686642,26.4895134 81.194039,29.2154712 81.194039,32.5704633 C81.194039,35.9254555 83.8686642,38.6364871 87.1608969,38.6364871 L99.931479,38.6364871 L97.8447525,41.9467005 L86.925319,41.9467005 Z M19.6734751,38.6364871 C22.9673815,38.6364871 25.6344749,35.9254555 25.6344749,32.5704633 C25.6344749,29.2154712 22.9673815,26.4895134 19.6734751,26.4895134 L9.44529328,26.4895134 C6.15347906,26.4895134 3.4842935,29.2154712 3.4842935,32.5704633 C3.4842935,35.9254555 6.15347906,38.6364871 9.44529328,38.6364871 L19.6734751,38.6364871 Z M9.2088785,41.9467005 C4.1253332,41.9467005 0,37.7528537 0,32.5704633 C0,27.388073 4.1253332,23.1788734 9.2088785,23.1788734 L19.9119821,23.1788734 C24.9963642,23.1788734 29.1187684,27.388073 29.1187684,32.5704633 C29.1187684,37.7528537 24.9963642,41.9467005 19.9119821,41.9467005 L9.2088785,41.9467005 Z M46.4967188,35.8653241 C49.9358215,35.8653241 52.7280265,33.0348826 52.7280265,29.5297751 C52.7280265,26.0250941 49.9358215,23.1788734 46.4967188,23.1788734 L31.0029732,23.1788734 L31.0029732,41.9467005 L34.5433368,41.9467005 L34.5433368,26.4895134 L46.2615594,26.4895134 C47.9076757,26.4895134 49.2303431,27.8520658 49.2303431,29.5297751 C49.2303431,31.2074844 47.9076757,32.5704633 46.2615594,32.5704633 L36.2773241,32.5555371 L46.849458,41.9467005 L51.9932577,41.9467005 L44.8803113,35.8653241 L46.4967188,35.8653241 Z M105.089924,38.6364871 L105.089924,23.1788734 L101.547887,23.1788734 L101.547887,40.1491548 C101.547887,40.6135741 101.724465,41.0630671 102.062559,41.40765 C102.400235,41.7518065 102.855909,41.9467005 103.355937,41.9467005 L119.506622,41.9467005 L121.593767,38.6364871 L105.089924,38.6364871 Z M61.7364755,35.3262736 L71.1859531,35.3262736 L66.1894419,27.133474 L57.0190592,41.9467005 L52.8456062,41.9467005 L63.9997808,24.1529172 C64.4847449,23.4338989 65.2931579,22.9993321 66.1894419,22.9993321 C67.056854,22.9993321 67.8648485,23.4185462 68.334749,24.1226382 L79.5332776,41.9467005 L75.3598245,41.9467005 L73.3902593,38.6364871 L63.823202,38.6364871 L61.7364755,35.3262736 Z M144.910895,26.8775217 C143.862859,26.8775217 143.005832,26.0110469 143.005832,24.9382312 C143.005832,23.865807 143.862859,22.9993321 144.910895,22.9993321 C145.972492,22.9993321 146.829518,23.865807 146.829518,24.9382312 C146.829518,26.0110469 145.972492,26.8775217 144.910895,26.8775217 Z M144.733833,23.7831923 C145.033327,23.7831923 145.15576,23.7968962 145.29214,23.8521031 C145.672997,23.9758293 145.714066,24.3196002 145.714066,24.4570302 C145.714066,24.4844379 145.714066,24.5533487 145.686558,24.6355718 C145.672997,24.7181865 145.618368,24.8834158 145.427745,25.0071419 C145.401012,25.0208458 145.387451,25.0345496 145.332821,25.0619573 L145.822938,25.9562315 L145.346382,25.9562315 L144.910895,25.1308681 L144.611788,25.1308681 L144.611788,25.9562315 L144.189862,25.9562315 L144.189862,23.7831923 L144.733833,23.7831923 Z M144.883774,24.7733934 C145.019767,24.7596896 145.15576,24.7596896 145.23751,24.6355718 C145.278579,24.5807564 145.29214,24.525941 145.29214,24.4433264 C145.29214,24.333304 145.22395,24.2369856 145.128638,24.1821702 C145.033327,24.1406671 144.938403,24.1406671 144.733833,24.1406671 L144.611788,24.1406671 L144.611788,24.7733934 L144.883774,24.7733934 Z M143.414199,24.9245273 C143.414199,25.7772983 144.08099,26.4511362 144.910895,26.4511362 C145.754748,26.4511362 146.421539,25.7772983 146.421539,24.9245273 C146.421539,24.0858517 145.754748,23.4120138 144.910895,23.4120138 C144.08099,23.4120138 143.414199,24.0858517 143.414199,24.9245273 Z" id="Combined-Shape-Copy" fill="#EC1D24"></path>
            <path d="M163.730483,40.6646617 L157.72585,23.2601504 L157.672476,22.962406 C157.672476,22.8180444 157.730297,22.6917299 157.845943,22.5834586 C157.961588,22.4751874 158.090575,22.4210526 158.232908,22.4210526 L159.513897,22.4210526 C159.709604,22.4210526 159.865278,22.4706762 159.980924,22.5699248 C160.096569,22.6691734 160.172182,22.7819543 160.207765,22.9082707 L165.491842,38.3909774 L170.802607,22.9082707 C170.83819,22.7819543 170.913803,22.6691734 171.029449,22.5699248 C171.145094,22.4706762 171.300768,22.4210526 171.496476,22.4210526 L172.777464,22.4210526 C172.919797,22.4210526 173.044336,22.4751874 173.151086,22.5834586 C173.257835,22.6917299 173.311209,22.8180444 173.311209,22.962406 C173.311209,23.0887224 173.302314,23.1879696 173.284522,23.2601504 L167.279889,40.6646617 C167.101973,41.1338369 166.781729,41.3684211 166.319147,41.3684211 L164.691225,41.3684211 C164.228643,41.3684211 163.908399,41.1338369 163.730483,40.6646617 Z M175.291785,41.1924812 C175.17614,41.0751874 175.118318,40.9263167 175.118318,40.7458647 L175.118318,23.0706767 C175.118318,22.8721795 175.171692,22.7142863 175.278441,22.5969925 C175.385191,22.4796987 175.536417,22.4210526 175.732125,22.4210526 L176.986426,22.4210526 C177.306675,22.4210526 177.529066,22.5563896 177.653608,22.8270677 L183.337994,33.8977444 L189.075754,22.8270677 C189.218087,22.5563896 189.431583,22.4210526 189.716248,22.4210526 L190.97055,22.4210526 C191.166257,22.4210526 191.317483,22.4796987 191.424233,22.5969925 C191.530983,22.7142863 191.584357,22.8721795 191.584357,23.0706767 L191.584357,40.7458647 C191.584357,40.9263167 191.526535,41.0751874 191.410889,41.1924812 C191.295244,41.309775 191.148466,41.3684211 190.97055,41.3684211 L189.742936,41.3684211 C189.56502,41.3684211 189.422689,41.309775 189.31594,41.1924812 C189.20919,41.0751874 189.155816,40.9263167 189.155816,40.7458647 L189.155816,27.2932331 L184.592295,36.2526316 C184.414379,36.6315808 184.129718,36.8210526 183.738303,36.8210526 L182.937685,36.8210526 C182.564061,36.8210526 182.2794,36.6315808 182.083692,36.2526316 L177.546858,27.2932331 L177.546858,40.7458647 C177.546858,40.9263167 177.489037,41.0751874 177.373391,41.1924812 C177.257746,41.309775 177.110967,41.3684211 176.933052,41.3684211 L175.732125,41.3684211 C175.554209,41.3684211 175.40743,41.309775 175.291785,41.1924812 Z" id="VM" fill="#000000"></path>
        </g>
    </g>
</svg>