<?xml version="1.0" encoding="UTF-8"?>
<svg width="80px" height="32px" viewBox="0 0 80 32" version="1.1" xmlns="http://www.w3.org/2000/svg" xmlns:xlink="http://www.w3.org/1999/xlink">
    <!-- Generator: Sketch 52.6 (67491) - http://www.bohemiancoding.com/sketch -->

    <desc>Created with Sketch.</desc>
    <g id="Provider/OracleVM/oraclevm-32" stroke="none" stroke-width="1" fill="none" fill-rule="evenodd">
        <path d="M54.2645133,18.4861738 C53.1316053,18.4861738 52.170255,17.7432735 51.8763056,16.7187364 L58.1834892,16.7187364 L59.0529586,15.394651 L51.8763056,15.394651 C52.170255,14.376255 53.1316053,13.6273843 54.2645133,13.6273843 L58.5935537,13.6273843 L59.4692996,12.3031283 L54.1665302,12.3031283 C52.0476889,12.3031283 50.327231,13.9868081 50.327231,16.0597643 C50.327231,18.1327204 52.0476889,19.8102592 54.1665302,19.8102592 L58.7161198,19.8102592 L59.5857635,18.4861738 L54.2645133,18.4861738 Z M36.2188829,19.8102592 C34.1003903,19.8102592 32.379758,18.1327204 32.379758,16.0597643 C32.379758,13.9868081 34.1003903,12.3031283 36.2188829,12.3031283 L41.5157245,12.3031283 L40.6523573,13.6273843 L36.3170404,13.6273843 C34.9452768,13.6273843 33.8308496,14.7177674 33.8308496,16.0597643 C33.8308496,17.4017611 34.9452768,18.4861738 36.3170404,18.4861738 L41.6381163,18.4861738 L40.7686469,19.8102592 L36.2188829,19.8102592 Z M8.1972813,18.4861738 C9.56974229,18.4861738 10.6810312,17.4017611 10.6810312,16.0597643 C10.6810312,14.7177674 9.56974229,13.6273843 8.1972813,13.6273843 L3.93553887,13.6273843 C2.56394961,13.6273843 1.45178896,14.7177674 1.45178896,16.0597643 C1.45178896,17.4017611 2.56394961,18.4861738 3.93553887,18.4861738 L8.1972813,18.4861738 Z M3.83703271,19.8102592 C1.71888883,19.8102592 0,18.1327204 0,16.0597643 C0,13.9868081 1.71888883,12.3031283 3.83703271,12.3031283 L8.29665919,12.3031283 C10.4151518,12.3031283 12.1328202,13.9868081 12.1328202,16.0597643 C12.1328202,18.1327204 10.4151518,19.8102592 8.29665919,19.8102592 L3.83703271,19.8102592 Z M19.3736328,17.3777086 C20.8065923,17.3777086 21.970011,16.245532 21.970011,14.843489 C21.970011,13.4416166 20.8065923,12.3031283 19.3736328,12.3031283 L12.9179055,12.3031283 L12.9179055,19.8102592 L14.393057,19.8102592 L14.393057,13.6273843 L19.2756497,13.6273843 C19.9615315,13.6273843 20.512643,14.1724053 20.512643,14.843489 C20.512643,15.5145727 19.9615315,16.0597643 19.2756497,16.0597643 L15.1155517,16.0537938 L19.5206075,19.8102592 L21.6638574,19.8102592 L18.7001297,17.3777086 L19.3736328,17.3777086 Z M43.7874683,18.4861738 L43.7874683,12.3031283 L42.3116194,12.3031283 L42.3116194,19.0912409 C42.3116194,19.2770086 42.3851939,19.4568058 42.5260664,19.594639 C42.6667646,19.7323015 42.8566287,19.8102592 43.0649736,19.8102592 L49.794426,19.8102592 L50.6640697,18.4861738 L43.7874683,18.4861738 Z M25.7235314,17.1620884 L29.6608138,17.1620884 L27.5789341,13.8849685 L23.7579413,19.8102592 L22.0190026,19.8102592 L26.6665753,12.6927458 C26.8686437,12.4051385 27.2054825,12.2313118 27.5789341,12.2313118 C27.9403558,12.2313118 28.2770202,12.3989974 28.4728121,12.6806342 L33.1388656,19.8102592 L31.3999269,19.8102592 L30.5792747,18.4861738 L26.5930008,18.4861738 L25.7235314,17.1620884 Z M60.3795395,13.7825876 C59.9428578,13.7825876 59.5857635,13.4359977 59.5857635,13.0068714 C59.5857635,12.5779017 59.9428578,12.2313118 60.3795395,12.2313118 C60.8218715,12.2313118 61.1789658,12.5779017 61.1789658,13.0068714 C61.1789658,13.4359977 60.8218715,13.7825876 60.3795395,13.7825876 Z M60.3057637,12.5448559 C60.430553,12.5448559 60.4815665,12.5503374 60.5383916,12.5724202 C60.6970822,12.6219107 60.7141943,12.759419 60.7141943,12.814391 C60.7141943,12.8253541 60.7141943,12.8529184 60.7027325,12.8858077 C60.6970822,12.9188535 60.6743199,12.9849452 60.5948939,13.0344357 C60.5837548,13.0399173 60.5781046,13.0453988 60.5553423,13.0563619 L60.7595576,13.4140715 L60.5609925,13.4140715 L60.3795395,13.0839262 L60.2549117,13.0839262 L60.2549117,13.4140715 L60.079109,13.4140715 L60.079109,12.5448559 L60.3057637,12.5448559 Z M60.3682391,12.9409363 C60.4249028,12.9354548 60.4815665,12.9354548 60.5156293,12.8858077 C60.5327414,12.8638815 60.5383916,12.8419554 60.5383916,12.8089095 C60.5383916,12.7649006 60.509979,12.7263732 60.470266,12.704447 C60.430553,12.6878458 60.3910014,12.6878458 60.3057637,12.6878458 L60.2549117,12.6878458 L60.2549117,12.9409363 L60.3682391,12.9409363 Z M59.755916,13.0013899 C59.755916,13.3424983 60.0337457,13.6120334 60.3795395,13.6120334 C60.731145,13.6120334 61.0089747,13.3424983 61.0089747,13.0013899 C61.0089747,12.6659196 60.731145,12.3963845 60.3795395,12.3963845 C60.0337457,12.3963845 59.755916,12.6659196 59.755916,13.0013899 Z" id="Combined-Shape" fill="#616870"></path>
        <path d="M71,12 L68.0584518,20 L66.8420221,20 L64,12 L65.2274882,12 L67.4944708,18.8365651 L69.8830964,12 L71,12 Z M72,20 L72,12 L73.8754967,12 L76.0370861,18.5927978 L78.2516556,12 L80,12 L80,20 L78.9615894,20 L78.9615894,12.7977839 L76.4503311,20 L75.4437086,20 L73.0278146,12.8421053 L73.0278146,20 L72,20 Z" id="VM" fill="#616870"></path>
    </g>
</svg>
