<?xml version="1.0" encoding="UTF-8"?>
<svg width="192px" height="128px" viewBox="0 0 192 128" version="1.1" xmlns="http://www.w3.org/2000/svg" xmlns:xlink="http://www.w3.org/1999/xlink">
    <!-- Generator: Sketch 47.1 (45422) - http://www.bohemiancoding.com/sketch -->
    <title>Provider/OracleVM/oraclevm-128</title>
    <desc>Created with Sketch.</desc>
    <defs></defs>
    <g id="Symbols" stroke="none" stroke-width="1" fill="none" fill-rule="evenodd">
        <g id="Provider/OracleVM/oraclevm-128">
            <path d="M170.300142,55.2239943 C166.744699,55.2239943 163.727661,52.8295128 162.80515,49.5272727 L182.599195,49.5272727 L185.32788,45.2595424 L162.80515,45.2595424 C163.727661,41.977096 166.744699,39.5633707 170.300142,39.5633707 L183.886115,39.5633707 L186.634497,35.2950906 L169.992638,35.2950906 C163.343008,35.2950906 157.943637,40.7218488 157.943637,47.4033044 C157.943637,54.0847599 163.343008,59.4917246 169.992638,59.4917246 L184.270768,59.4917246 L187,55.2239943 L170.300142,55.2239943 L170.300142,55.2239943 Z M113.666935,59.4917246 C107.018399,59.4917246 101.618481,54.0847599 101.618481,47.4033044 C101.618481,40.7218488 107.018399,35.2950906 113.666935,35.2950906 L130.290191,35.2950906 L127.580656,39.5633707 L113.974986,39.5633707 C109.669934,39.5633707 106.17249,43.0778427 106.17249,47.4033044 C106.17249,51.7287661 109.669934,55.2239943 113.974986,55.2239943 L130.674297,55.2239943 L127.945612,59.4917246 L113.666935,59.4917246 Z M25.7258028,55.2239943 C30.0330432,55.2239943 33.5206385,51.7287661 33.5206385,47.4033044 C33.5206385,43.0778427 30.0330432,39.5633707 25.7258028,39.5633707 L12.3510336,39.5633707 C8.04652905,39.5633707 4.55619797,43.0778427 4.55619797,47.4033044 C4.55619797,51.7287661 8.04652905,55.2239943 12.3510336,55.2239943 L25.7258028,55.2239943 Z M12.0418884,59.4917246 C5.39444648,59.4917246 0,54.0847599 0,47.4033044 C0,40.7218488 5.39444648,35.2950906 12.0418884,35.2950906 L26.0376838,35.2950906 C32.6862201,35.2950906 38.0768364,40.7218488 38.0768364,47.4033044 C38.0768364,54.0847599 32.6862201,59.4917246 26.0376838,59.4917246 L12.0418884,59.4917246 Z M60.8009217,51.651241 C65.2980264,51.651241 68.9492224,48.0020622 68.9492224,43.4830626 C68.9492224,38.9646128 65.2980264,35.2950906 60.8009217,35.2950906 L40.5406961,35.2950906 L40.5406961,59.4917246 L45.1702135,59.4917246 L45.1702135,39.5633707 L60.493418,39.5633707 C62.6459439,39.5633707 64.3755153,41.3200568 64.3755153,43.4830626 C64.3755153,45.6460684 62.6459439,47.4033044 60.493418,47.4033044 L47.4376428,47.3840606 L61.2621772,59.4917246 L67.9884102,59.4917246 L58.6872442,51.651241 L60.8009217,51.651241 Z M137.41968,55.2239943 L137.41968,35.2950906 L132.787974,35.2950906 L132.787974,57.1742184 C132.787974,57.7729762 133.018876,58.3524902 133.46098,58.7967476 C133.902538,59.2404552 134.498395,59.4917246 135.152251,59.4917246 L156.271517,59.4917246 L159.000749,55.2239943 L137.41968,55.2239943 Z M80.7290214,50.9562641 L93.0855266,50.9562641 L86.5518938,40.3936042 L74.5603441,59.4917246 L69.1029743,59.4917246 L83.6886077,36.5508875 C84.3227656,35.623885 85.379878,35.0636149 86.5518938,35.0636149 C87.6861557,35.0636149 88.7427209,35.6040914 89.3571811,36.5118501 L104.000813,59.4917246 L98.5434436,59.4917246 L95.9679634,55.2239943 L83.4577063,55.2239943 L80.7290214,50.9562641 Z M189.491134,40.0636149 C188.120681,40.0636149 187,38.9465023 187,37.5633625 C187,36.1807274 188.120681,35.0636149 189.491134,35.0636149 C190.879319,35.0636149 192,36.1807274 192,37.5633625 C192,38.9465023 190.879319,40.0636149 189.491134,40.0636149 Z M189.259601,36.0742156 C189.651231,36.0742156 189.811328,36.0918834 189.989665,36.1630596 C190.487689,36.322575 190.541392,36.7657855 190.541392,36.9429687 C190.541392,36.9783044 190.541392,37.0671484 190.505421,37.1731555 C190.487689,37.2796674 190.416253,37.4926911 190.166988,37.6522065 C190.13203,37.6698743 190.114297,37.6875422 190.042861,37.7228779 L190.683757,38.8758309 L190.060594,38.8758309 L189.491134,37.8117219 L189.10001,37.8117219 L189.10001,38.8758309 L188.548283,38.8758309 L188.548283,36.0742156 L189.259601,36.0742156 Z M189.455669,37.3508435 C189.633499,37.3331757 189.811328,37.3331757 189.918229,37.1731555 C189.971932,37.1024841 189.989665,37.0318127 189.989665,36.9253009 C189.989665,36.7834533 189.900497,36.6592736 189.775864,36.5886022 C189.651231,36.5350939 189.527105,36.5350939 189.259601,36.5350939 L189.10001,36.5350939 L189.10001,37.3508435 L189.455669,37.3508435 Z M187.533995,37.5456946 C187.533995,38.6451394 188.405918,39.5138925 189.491134,39.5138925 C190.594589,39.5138925 191.466511,38.6451394 191.466511,37.5456946 C191.466511,36.4644225 190.594589,35.5956694 189.491134,35.5956694 C188.405918,35.5956694 187.533995,36.4644225 187.533995,37.5456946 Z" id="Combined-Shape-Copy" fill="#EC1D24"></path>
            <path d="M40.162,94.272 L33.862,76.268 L33.806,75.96 C33.806,75.8106659 33.8666661,75.6800006 33.988,75.568 C34.109334,75.4559994 34.244666,75.4 34.394,75.4 L35.738,75.4 C35.9433344,75.4 36.1066661,75.4513328 36.228,75.554 C36.349334,75.6566672 36.4286665,75.7733327 36.466,75.904 L42.01,91.92 L47.582,75.904 C47.6193336,75.7733327 47.6986661,75.6566672 47.82,75.554 C47.941334,75.4513328 48.1046657,75.4 48.31,75.4 L49.654,75.4 C49.8033341,75.4 49.9339995,75.4559994 50.046,75.568 C50.1580006,75.6800006 50.214,75.8106659 50.214,75.96 C50.214,76.0906673 50.2046668,76.193333 50.186,76.268 L43.886,94.272 C43.6993324,94.7573358 43.3633358,95 42.878,95 L41.17,95 C40.6846643,95 40.3486676,94.7573358 40.162,94.272 Z M53.012,94.818 C52.8906661,94.6966661 52.83,94.5426676 52.83,94.356 L52.83,76.072 C52.83,75.8666656 52.8859995,75.7033339 52.998,75.582 C53.1100006,75.4606661 53.2686657,75.4 53.474,75.4 L54.79,75.4 C55.1260017,75.4 55.3593327,75.5399986 55.49,75.82 L61.454,87.272 L67.474,75.82 C67.6233341,75.5399986 67.8473319,75.4 68.146,75.4 L69.462,75.4 C69.6673344,75.4 69.8259995,75.4606661 69.938,75.582 C70.0500006,75.7033339 70.106,75.8666656 70.106,76.072 L70.106,94.356 C70.106,94.5426676 70.045334,94.6966661 69.924,94.818 C69.8026661,94.9393339 69.6486676,95 69.462,95 L68.174,95 C67.9873324,95 67.8380006,94.9393339 67.726,94.818 C67.6139995,94.6966661 67.558,94.5426676 67.558,94.356 L67.558,80.44 L62.77,89.708 C62.5833324,90.100002 62.2846688,90.296 61.874,90.296 L61.034,90.296 C60.6419981,90.296 60.3433344,90.100002 60.138,89.708 L55.378,80.44 L55.378,94.356 C55.378,94.5426676 55.317334,94.6966661 55.196,94.818 C55.0746661,94.9393339 54.9206676,95 54.734,95 L53.474,95 C53.2873324,95 53.133334,94.9393339 53.012,94.818 Z M82.576,94.552 C81.446661,94.0666642 80.588003,93.4273373 80,92.634 C79.4119971,91.8406627 79.0993335,90.9866712 79.062,90.072 C79.062,89.9226659 79.1179995,89.7920006 79.23,89.68 C79.3420006,89.5679994 79.4819992,89.512 79.65,89.512 L81.022,89.512 C81.3580017,89.512 81.5913327,89.6986648 81.722,90.072 C81.8900009,90.8560039 82.3706627,91.5326638 83.164,92.102 C83.9573373,92.6713362 85.091326,92.956 86.566,92.956 C88.1526746,92.956 89.3379961,92.6760028 90.122,92.116 C90.9060039,91.5559972 91.298,90.7813383 91.298,89.792 C91.298,89.1573302 91.1066686,88.6346687 90.724,88.224 C90.3413314,87.8133313 89.7720038,87.4540015 89.016,87.146 C88.2599962,86.8379985 87.1260076,86.4600022 85.614,86.012 C84.1766595,85.6013313 83.0333376,85.162669 82.184,84.696 C81.3346624,84.229331 80.6953355,83.6553367 80.266,82.974 C79.8366645,82.2926633 79.622,81.4293386 79.622,80.384 C79.622,79.375995 79.892664,78.4753373 80.434,77.682 C80.9753361,76.8886627 81.7593282,76.2633356 82.786,75.806 C83.8126718,75.3486644 85.025993,75.12 86.426,75.12 C87.8820073,75.12 89.1279948,75.3766641 90.164,75.89 C91.2000052,76.4033359 91.988664,77.0473295 92.53,77.822 C93.0713361,78.5966705 93.3606665,79.3759961 93.398,80.16 C93.398,80.3280008 93.3420006,80.4679994 93.23,80.58 C93.1179995,80.6920006 92.9780009,80.748 92.81,80.748 L91.41,80.748 C91.2606659,80.748 91.1206673,80.7013338 90.99,80.608 C90.8593327,80.5146662 90.7660003,80.3746676 90.71,80.188 C90.5979995,79.3853293 90.1500039,78.7226693 89.366,78.2 C88.5819961,77.6773307 87.6020059,77.416 86.426,77.416 C85.1566603,77.416 84.1486704,77.6633309 83.402,78.158 C82.6553296,78.6526691 82.282,79.3853285 82.282,80.356 C82.282,81.0093366 82.454665,81.5413313 82.8,81.952 C83.1453351,82.3626687 83.6773298,82.7266651 84.396,83.044 C85.1146703,83.3613349 86.1646598,83.7253313 87.546,84.136 C89.1326746,84.5840022 90.3786622,85.0319978 91.284,85.48 C92.1893379,85.9280022 92.8659978,86.48333 93.314,87.146 C93.7620023,87.80867 93.986,88.6626614 93.986,89.708 C93.986,91.4626754 93.3186734,92.8299951 91.984,93.81 C90.6493267,94.7900049 88.8433447,95.28 86.566,95.28 C85.0353257,95.28 83.705339,95.0373358 82.576,94.552 Z M97.722,93.502 C96.5833276,92.3166607 95.9580006,90.6973436 95.846,88.644 L95.818,87.692 L95.846,86.768 C95.9580006,84.7519899 96.5833276,83.1466726 97.722,81.952 C98.8606724,80.7573274 100.38199,80.16 102.286,80.16 C104.339344,80.16 105.930661,80.8133268 107.06,82.12 C108.189339,83.4266732 108.754,85.1999888 108.754,87.44 L108.754,87.944 C108.754,88.1306676 108.693334,88.2846661 108.572,88.406 C108.450666,88.5273339 108.296668,88.588 108.11,88.588 L98.394,88.588 L98.394,88.84 C98.4500003,90.0533394 98.8233299,91.089329 99.514,91.948 C100.20467,92.806671 101.119328,93.236 102.258,93.236 C103.135338,93.236 103.849331,93.0633351 104.4,92.718 C104.950669,92.3726649 105.365999,92.0133352 105.646,91.64 C105.814001,91.4159989 105.944666,91.2806669 106.038,91.234 C106.131334,91.1873331 106.289999,91.164 106.514,91.164 L107.746,91.164 C107.914001,91.164 108.058666,91.2106662 108.18,91.304 C108.301334,91.3973338 108.362,91.5186659 108.362,91.668 C108.362,92.0786687 108.110003,92.5733304 107.606,93.152 C107.101997,93.7306696 106.388005,94.2299979 105.464,94.65 C104.539995,95.0700021 103.480673,95.28 102.286,95.28 C100.38199,95.28 98.8606724,94.6873393 97.722,93.502 Z M106.206,86.684 L106.206,86.6 C106.206,85.2933268 105.851337,84.2293374 105.142,83.408 C104.432663,82.5866626 103.480673,82.176 102.286,82.176 C101.072661,82.176 100.12067,82.5866626 99.43,83.408 C98.7393299,84.2293374 98.394,85.2933268 98.394,86.6 L98.394,86.684 L106.206,86.684 Z M111.552,94.818 C111.430666,94.6966661 111.37,94.5426676 111.37,94.356 L111.37,81.112 C111.37,80.9253324 111.430666,80.7666673 111.552,80.636 C111.673334,80.5053327 111.827332,80.44 112.014,80.44 L113.19,80.44 C113.395334,80.44 113.558666,80.5006661 113.68,80.622 C113.801334,80.7433339 113.862,80.9066656 113.862,81.112 L113.862,82.344 C114.627337,81.0746603 115.924658,80.44 117.754,80.44 L118.846,80.44 C119.051334,80.44 119.209999,80.4959994 119.322,80.608 C119.434001,80.7200006 119.49,80.8786656 119.49,81.084 L119.49,82.12 C119.49,82.3066676 119.434001,82.4606661 119.322,82.582 C119.209999,82.7033339 119.051334,82.764 118.846,82.764 L117.25,82.764 C116.223328,82.764 115.416003,83.0626637 114.828,83.66 C114.239997,84.2573363 113.946,85.0693282 113.946,86.096 L113.946,94.356 C113.946,94.5426676 113.880667,94.6966661 113.75,94.818 C113.619333,94.9393339 113.460668,95 113.274,95 L112.014,95 C111.827332,95 111.673334,94.9393339 111.552,94.818 Z M125.13,94.3 L119.922,81.308 C119.903333,81.2519997 119.894,81.1586673 119.894,81.028 C119.894,80.8599992 119.949999,80.7200006 120.062,80.608 C120.174001,80.4959994 120.304666,80.44 120.454,80.44 L121.742,80.44 C122.040668,80.44 122.264666,80.5893318 122.414,80.888 L126.726,92.06 L131.038,80.888 C131.075333,80.7759994 131.154666,80.6733338 131.276,80.58 C131.397334,80.4866662 131.541999,80.44 131.71,80.44 L132.998,80.44 C133.147334,80.44 133.277999,80.4959994 133.39,80.608 C133.502001,80.7200006 133.558,80.8599992 133.558,81.028 L133.502,81.308 L128.322,94.3 C128.116666,94.766669 127.771336,95 127.286,95 L126.166,95 C125.680664,95 125.335334,94.766669 125.13,94.3 Z M136.426,93.502 C135.287328,92.3166607 134.662001,90.6973436 134.55,88.644 L134.522,87.692 L134.55,86.768 C134.662001,84.7519899 135.287328,83.1466726 136.426,81.952 C137.564672,80.7573274 139.08599,80.16 140.99,80.16 C143.043344,80.16 144.634661,80.8133268 145.764,82.12 C146.893339,83.4266732 147.458,85.1999888 147.458,87.44 L147.458,87.944 C147.458,88.1306676 147.397334,88.2846661 147.276,88.406 C147.154666,88.5273339 147.000668,88.588 146.814,88.588 L137.098,88.588 L137.098,88.84 C137.154,90.0533394 137.52733,91.089329 138.218,91.948 C138.90867,92.806671 139.823328,93.236 140.962,93.236 C141.839338,93.236 142.553331,93.0633351 143.104,92.718 C143.654669,92.3726649 144.069999,92.0133352 144.35,91.64 C144.518001,91.4159989 144.648666,91.2806669 144.742,91.234 C144.835334,91.1873331 144.993999,91.164 145.218,91.164 L146.45,91.164 C146.618001,91.164 146.762666,91.2106662 146.884,91.304 C147.005334,91.3973338 147.066,91.5186659 147.066,91.668 C147.066,92.0786687 146.814002,92.5733304 146.31,93.152 C145.805997,93.7306696 145.092005,94.2299979 144.168,94.65 C143.243995,95.0700021 142.184673,95.28 140.99,95.28 C139.08599,95.28 137.564672,94.6873393 136.426,93.502 Z M144.91,86.684 L144.91,86.6 C144.91,85.2933268 144.555337,84.2293374 143.846,83.408 C143.136663,82.5866626 142.184673,82.176 140.99,82.176 C139.776661,82.176 138.82467,82.5866626 138.134,83.408 C137.44333,84.2293374 137.098,85.2933268 137.098,86.6 L137.098,86.684 L144.91,86.684 Z M150.256,94.818 C150.134666,94.6966661 150.074,94.5426676 150.074,94.356 L150.074,81.112 C150.074,80.9253324 150.134666,80.7666673 150.256,80.636 C150.377334,80.5053327 150.531332,80.44 150.718,80.44 L151.894,80.44 C152.099334,80.44 152.262666,80.5006661 152.384,80.622 C152.505334,80.7433339 152.566,80.9066656 152.566,81.112 L152.566,82.344 C153.331337,81.0746603 154.628657,80.44 156.458,80.44 L157.55,80.44 C157.755334,80.44 157.913999,80.4959994 158.026,80.608 C158.138001,80.7200006 158.194,80.8786656 158.194,81.084 L158.194,82.12 C158.194,82.3066676 158.138001,82.4606661 158.026,82.582 C157.913999,82.7033339 157.755334,82.764 157.55,82.764 L155.954,82.764 C154.927328,82.764 154.120003,83.0626637 153.532,83.66 C152.943997,84.2573363 152.65,85.0693282 152.65,86.096 L152.65,94.356 C152.65,94.5426676 152.584667,94.6966661 152.454,94.818 C152.323333,94.9393339 152.164668,95 151.978,95 L150.718,95 C150.531332,95 150.377334,94.9393339 150.256,94.818 Z" id="VM-Server" fill="#202234"></path>
        </g>
    </g>
</svg>