<?xml version="1.0" encoding="UTF-8"?>
<svg width="192px" height="128px" viewBox="0 0 192 128" version="1.1" xmlns="http://www.w3.org/2000/svg" xmlns:xlink="http://www.w3.org/1999/xlink">
    <!-- Generator: Sketch 47.1 (45422) - http://www.bohemiancoding.com/sketch -->
    <title>Provider/OracleVM/128-color</title>
    <desc>Created with Sketch.</desc>
    <defs></defs>
    <g id="Symbols" stroke="none" stroke-width="1" fill="none" fill-rule="evenodd">
        <g id="Provider/OracleVM/128-color">
            <path d="M171.187122,55.2653814 C167.613161,55.2653814 164.580409,52.8584287 163.653093,49.5389894 L183.550233,49.5389894 L186.29313,45.2490314 L163.653093,45.2490314 C164.580409,41.9494888 167.613161,39.523192 171.187122,39.523192 L184.843855,39.523192 L187.606552,35.2326813 L170.878017,35.2326813 C164.193752,35.2326813 158.76626,40.6877039 158.76626,47.4039587 C158.76626,54.1202135 164.193752,59.5553394 170.878017,59.5553394 L185.230512,59.5553394 L187.973958,55.2653814 L171.187122,55.2653814 L171.187122,55.2653814 Z M114.25895,59.5553394 C107.575786,59.5553394 102.147743,54.1202135 102.147743,47.4039587 C102.147743,40.6877039 107.575786,35.2326813 114.25895,35.2326813 L130.968785,35.2326813 L128.245139,39.523192 L114.568605,39.523192 C110.241132,39.523192 106.725472,43.0559686 106.725472,47.4039587 C106.725472,51.7519489 110.241132,55.2653814 114.568605,55.2653814 L131.354892,55.2653814 L128.611995,59.5553394 L114.25895,59.5553394 Z M25.8597914,55.2653814 C30.1894653,55.2653814 33.6952251,51.7519489 33.6952251,47.4039587 C33.6952251,43.0559686 30.1894653,39.523192 25.8597914,39.523192 L12.4153619,39.523192 C8.08843805,39.523192 4.57992817,43.0559686 4.57992817,47.4039587 C4.57992817,51.7519489 8.08843805,55.2653814 12.4153619,55.2653814 L25.8597914,55.2653814 Z M12.1046066,59.5553394 C5.42254255,59.5553394 0,54.1202135 0,47.4039587 C0,40.6877039 5.42254255,35.2326813 12.1046066,35.2326813 L26.1732967,35.2326813 C32.8564608,35.2326813 38.2751533,40.6877039 38.2751533,47.4039587 C38.2751533,54.1202135 32.8564608,59.5553394 26.1732967,59.5553394 L12.1046066,59.5553394 Z M61.1175932,51.67402 C65.6381203,51.67402 69.308333,48.0058351 69.308333,43.463299 C69.308333,38.9213157 65.6381203,35.2326813 61.1175932,35.2326813 L40.7518456,35.2326813 L40.7518456,59.5553394 L45.405475,59.5553394 L45.405475,39.523192 L60.8084879,39.523192 C62.9722248,39.523192 64.7108045,41.2890276 64.7108045,43.463299 C64.7108045,45.6375705 62.9722248,47.4039587 60.8084879,47.4039587 L47.6847139,47.3846147 L61.5812511,59.5553394 L68.3425165,59.5553394 L58.9929069,51.67402 L61.1175932,51.67402 Z M138.135408,55.2653814 L138.135408,35.2326813 L133.479578,35.2326813 L133.479578,57.2257629 C133.479578,57.8276393 133.711682,58.4101716 134.15609,58.8567428 C134.599947,59.3027614 135.198908,59.5553394 135.856169,59.5553394 L157.085431,59.5553394 L159.828878,55.2653814 L138.135408,55.2653814 Z M81.1494851,50.9754234 L93.5703471,50.9754234 L87.002685,40.3577497 L74.9486792,59.5553394 L69.4628856,59.5553394 L84.1244858,36.4950189 C84.7619467,35.5631883 85.8245649,35 87.002685,35 C88.1428544,35 89.2049225,35.5432915 89.8225831,36.4557781 L104.542484,59.5553394 L99.0566907,59.5553394 L96.4677965,55.2653814 L83.8923819,55.2653814 L81.1494851,50.9754234 Z M190.478067,40.0260417 C189.100476,40.0260417 187.973958,38.9031108 187.973958,37.5127671 C187.973958,36.1229309 189.100476,35 190.478067,35 C191.873482,35 193,36.1229309 193,37.5127671 C193,38.9031108 191.873482,40.0260417 190.478067,40.0260417 Z M190.245328,36.0158643 C190.638998,36.0158643 190.799929,36.0336241 190.979194,36.105171 C191.479812,36.2655172 191.533795,36.7110361 191.533795,36.8891422 C191.533795,36.9246619 191.533795,37.0139686 191.497637,37.1205278 C191.479812,37.2275944 191.408004,37.4417277 191.157441,37.6020739 C191.122301,37.6198337 191.104476,37.6375936 191.032668,37.6731133 L191.676902,38.8320713 L191.050493,38.8320713 L190.478067,37.7624201 L190.084906,37.7624201 L190.084906,38.8320713 L189.530305,38.8320713 L189.530305,36.0158643 L190.245328,36.0158643 Z M190.442418,37.2991413 C190.621173,37.2813815 190.799929,37.2813815 190.907386,37.1205278 C190.961369,37.0494884 190.979194,36.9784489 190.979194,36.8713823 C190.979194,36.728796 190.889562,36.6039695 190.76428,36.53293 C190.638998,36.479143 190.514225,36.479143 190.245328,36.479143 L190.084906,36.479143 L190.084906,37.2991413 L190.442418,37.2991413 Z M188.510735,37.4950073 C188.510735,38.6001783 189.387198,39.4734562 190.478067,39.4734562 C191.587269,39.4734562 192.463733,38.6001783 192.463733,37.4950073 C192.463733,36.4081035 191.587269,35.5348256 190.478067,35.5348256 C189.387198,35.5348256 188.510735,36.4081035 188.510735,37.4950073 Z" id="Combined-Shape-Copy" fill="#EC1D24"></path>
            <path d="M44.136,94.272 L37.836,76.268 L37.78,75.96 C37.78,75.8106659 37.8406661,75.6800006 37.962,75.568 C38.083334,75.4559994 38.218666,75.4 38.368,75.4 L39.712,75.4 C39.9173344,75.4 40.0806661,75.4513328 40.202,75.554 C40.323334,75.6566672 40.4026665,75.7733327 40.44,75.904 L45.984,91.92 L51.556,75.904 C51.5933336,75.7733327 51.6726661,75.6566672 51.794,75.554 C51.915334,75.4513328 52.0786657,75.4 52.284,75.4 L53.628,75.4 C53.7773341,75.4 53.9079995,75.4559994 54.02,75.568 C54.1320006,75.6800006 54.188,75.8106659 54.188,75.96 C54.188,76.0906673 54.1786668,76.193333 54.16,76.268 L47.86,94.272 C47.6733324,94.7573358 47.3373358,95 46.852,95 L45.144,95 C44.6586643,95 44.3226676,94.7573358 44.136,94.272 Z M56.986,94.818 C56.8646661,94.6966661 56.804,94.5426676 56.804,94.356 L56.804,76.072 C56.804,75.8666656 56.8599995,75.7033339 56.972,75.582 C57.0840006,75.4606661 57.2426657,75.4 57.448,75.4 L58.764,75.4 C59.1000017,75.4 59.3333327,75.5399986 59.464,75.82 L65.428,87.272 L71.448,75.82 C71.5973341,75.5399986 71.8213319,75.4 72.12,75.4 L73.436,75.4 C73.6413344,75.4 73.7999995,75.4606661 73.912,75.582 C74.0240006,75.7033339 74.08,75.8666656 74.08,76.072 L74.08,94.356 C74.08,94.5426676 74.019334,94.6966661 73.898,94.818 C73.7766661,94.9393339 73.6226676,95 73.436,95 L72.148,95 C71.9613324,95 71.8120006,94.9393339 71.7,94.818 C71.5879995,94.6966661 71.532,94.5426676 71.532,94.356 L71.532,80.44 L66.744,89.708 C66.5573324,90.100002 66.2586687,90.296 65.848,90.296 L65.008,90.296 C64.6159981,90.296 64.3173344,90.100002 64.112,89.708 L59.352,80.44 L59.352,94.356 C59.352,94.5426676 59.291334,94.6966661 59.17,94.818 C59.0486661,94.9393339 58.8946676,95 58.708,95 L57.448,95 C57.2613324,95 57.107334,94.9393339 56.986,94.818 Z M86.55,94.552 C85.420661,94.0666642 84.5620029,93.4273373 83.974,92.634 C83.3859971,91.8406627 83.0733335,90.9866712 83.036,90.072 C83.036,89.9226659 83.0919994,89.7920006 83.204,89.68 C83.3160006,89.5679994 83.4559992,89.512 83.624,89.512 L84.996,89.512 C85.3320017,89.512 85.5653327,89.6986648 85.696,90.072 C85.8640008,90.8560039 86.3446627,91.5326638 87.138,92.102 C87.9313373,92.6713362 89.065326,92.956 90.54,92.956 C92.1266746,92.956 93.3119961,92.6760028 94.096,92.116 C94.8800039,91.5559972 95.272,90.7813383 95.272,89.792 C95.272,89.1573302 95.0806686,88.6346687 94.698,88.224 C94.3153314,87.8133313 93.7460038,87.4540015 92.99,87.146 C92.2339962,86.8379985 91.1000076,86.4600022 89.588,86.012 C88.1506595,85.6013313 87.0073376,85.162669 86.158,84.696 C85.3086624,84.229331 84.6693355,83.6553367 84.24,82.974 C83.8106645,82.2926633 83.596,81.4293386 83.596,80.384 C83.596,79.375995 83.866664,78.4753373 84.408,77.682 C84.949336,76.8886627 85.7333282,76.2633356 86.76,75.806 C87.7866718,75.3486644 88.999993,75.12 90.4,75.12 C91.8560073,75.12 93.1019948,75.3766641 94.138,75.89 C95.1740052,76.4033359 95.962664,77.0473295 96.504,77.822 C97.045336,78.5966705 97.3346665,79.3759961 97.372,80.16 C97.372,80.3280008 97.3160006,80.4679994 97.204,80.58 C97.0919994,80.6920006 96.9520008,80.748 96.784,80.748 L95.384,80.748 C95.2346659,80.748 95.0946673,80.7013338 94.964,80.608 C94.8333327,80.5146662 94.7400003,80.3746676 94.684,80.188 C94.5719994,79.3853293 94.1240039,78.7226693 93.34,78.2 C92.5559961,77.6773307 91.5760059,77.416 90.4,77.416 C89.1306603,77.416 88.1226704,77.6633309 87.376,78.158 C86.6293296,78.6526691 86.256,79.3853285 86.256,80.356 C86.256,81.0093366 86.4286649,81.5413313 86.774,81.952 C87.1193351,82.3626687 87.6513297,82.7266651 88.37,83.044 C89.0886703,83.3613349 90.1386598,83.7253313 91.52,84.136 C93.1066746,84.5840022 94.3526621,85.0319978 95.258,85.48 C96.1633379,85.9280022 96.8399978,86.48333 97.288,87.146 C97.7360022,87.80867 97.96,88.6626614 97.96,89.708 C97.96,91.4626754 97.2926733,92.8299951 95.958,93.81 C94.6233267,94.7900049 92.8173447,95.28 90.54,95.28 C89.0093257,95.28 87.679339,95.0373358 86.55,94.552 Z M101.696,93.502 C100.557328,92.3166607 99.9320006,90.6973436 99.82,88.644 L99.792,87.692 L99.82,86.768 C99.9320006,84.7519899 100.557328,83.1466726 101.696,81.952 C102.834672,80.7573274 104.35599,80.16 106.26,80.16 C108.313344,80.16 109.904661,80.8133268 111.034,82.12 C112.163339,83.4266732 112.728,85.1999888 112.728,87.44 L112.728,87.944 C112.728,88.1306676 112.667334,88.2846661 112.546,88.406 C112.424666,88.5273339 112.270668,88.588 112.084,88.588 L102.368,88.588 L102.368,88.84 C102.424,90.0533394 102.79733,91.089329 103.488,91.948 C104.17867,92.806671 105.093328,93.236 106.232,93.236 C107.109338,93.236 107.823331,93.0633351 108.374,92.718 C108.924669,92.3726649 109.339999,92.0133352 109.62,91.64 C109.788001,91.4159989 109.918666,91.2806669 110.012,91.234 C110.105334,91.1873331 110.263999,91.164 110.488,91.164 L111.72,91.164 C111.888001,91.164 112.032666,91.2106662 112.154,91.304 C112.275334,91.3973338 112.336,91.5186659 112.336,91.668 C112.336,92.0786687 112.084003,92.5733304 111.58,93.152 C111.075997,93.7306696 110.362005,94.2299979 109.438,94.65 C108.513995,95.0700021 107.454673,95.28 106.26,95.28 C104.35599,95.28 102.834672,94.6873393 101.696,93.502 Z M110.18,86.684 L110.18,86.6 C110.18,85.2933268 109.825337,84.2293374 109.116,83.408 C108.406663,82.5866626 107.454673,82.176 106.26,82.176 C105.046661,82.176 104.09467,82.5866626 103.404,83.408 C102.71333,84.2293374 102.368,85.2933268 102.368,86.6 L102.368,86.684 L110.18,86.684 Z M115.526,94.818 C115.404666,94.6966661 115.344,94.5426676 115.344,94.356 L115.344,81.112 C115.344,80.9253324 115.404666,80.7666673 115.526,80.636 C115.647334,80.5053327 115.801332,80.44 115.988,80.44 L117.164,80.44 C117.369334,80.44 117.532666,80.5006661 117.654,80.622 C117.775334,80.7433339 117.836,80.9066656 117.836,81.112 L117.836,82.344 C118.601337,81.0746603 119.898658,80.44 121.728,80.44 L122.82,80.44 C123.025334,80.44 123.183999,80.4959994 123.296,80.608 C123.408001,80.7200006 123.464,80.8786656 123.464,81.084 L123.464,82.12 C123.464,82.3066676 123.408001,82.4606661 123.296,82.582 C123.183999,82.7033339 123.025334,82.764 122.82,82.764 L121.224,82.764 C120.197328,82.764 119.390003,83.0626637 118.802,83.66 C118.213997,84.2573363 117.92,85.0693282 117.92,86.096 L117.92,94.356 C117.92,94.5426676 117.854667,94.6966661 117.724,94.818 C117.593333,94.9393339 117.434668,95 117.248,95 L115.988,95 C115.801332,95 115.647334,94.9393339 115.526,94.818 Z M129.104,94.3 L123.896,81.308 C123.877333,81.2519997 123.868,81.1586673 123.868,81.028 C123.868,80.8599992 123.923999,80.7200006 124.036,80.608 C124.148001,80.4959994 124.278666,80.44 124.428,80.44 L125.716,80.44 C126.014668,80.44 126.238666,80.5893318 126.388,80.888 L130.7,92.06 L135.012,80.888 C135.049333,80.7759994 135.128666,80.6733338 135.25,80.58 C135.371334,80.4866662 135.515999,80.44 135.684,80.44 L136.972,80.44 C137.121334,80.44 137.251999,80.4959994 137.364,80.608 C137.476001,80.7200006 137.532,80.8599992 137.532,81.028 L137.476,81.308 L132.296,94.3 C132.090666,94.766669 131.745336,95 131.26,95 L130.14,95 C129.654664,95 129.309334,94.766669 129.104,94.3 Z M140.4,93.502 C139.261328,92.3166607 138.636001,90.6973436 138.524,88.644 L138.496,87.692 L138.524,86.768 C138.636001,84.7519899 139.261328,83.1466726 140.4,81.952 C141.538672,80.7573274 143.05999,80.16 144.964,80.16 C147.017344,80.16 148.608661,80.8133268 149.738,82.12 C150.867339,83.4266732 151.432,85.1999888 151.432,87.44 L151.432,87.944 C151.432,88.1306676 151.371334,88.2846661 151.25,88.406 C151.128666,88.5273339 150.974668,88.588 150.788,88.588 L141.072,88.588 L141.072,88.84 C141.128,90.0533394 141.50133,91.089329 142.192,91.948 C142.88267,92.806671 143.797328,93.236 144.936,93.236 C145.813338,93.236 146.527331,93.0633351 147.078,92.718 C147.628669,92.3726649 148.043999,92.0133352 148.324,91.64 C148.492001,91.4159989 148.622666,91.2806669 148.716,91.234 C148.809334,91.1873331 148.967999,91.164 149.192,91.164 L150.424,91.164 C150.592001,91.164 150.736666,91.2106662 150.858,91.304 C150.979334,91.3973338 151.04,91.5186659 151.04,91.668 C151.04,92.0786687 150.788002,92.5733304 150.284,93.152 C149.779997,93.7306696 149.066005,94.2299979 148.142,94.65 C147.217995,95.0700021 146.158673,95.28 144.964,95.28 C143.05999,95.28 141.538672,94.6873393 140.4,93.502 Z M148.884,86.684 L148.884,86.6 C148.884,85.2933268 148.529337,84.2293374 147.82,83.408 C147.110663,82.5866626 146.158673,82.176 144.964,82.176 C143.750661,82.176 142.79867,82.5866626 142.108,83.408 C141.41733,84.2293374 141.072,85.2933268 141.072,86.6 L141.072,86.684 L148.884,86.684 Z M154.23,94.818 C154.108666,94.6966661 154.048,94.5426676 154.048,94.356 L154.048,81.112 C154.048,80.9253324 154.108666,80.7666673 154.23,80.636 C154.351334,80.5053327 154.505332,80.44 154.692,80.44 L155.868,80.44 C156.073334,80.44 156.236666,80.5006661 156.358,80.622 C156.479334,80.7433339 156.54,80.9066656 156.54,81.112 L156.54,82.344 C157.305337,81.0746603 158.602657,80.44 160.432,80.44 L161.524,80.44 C161.729334,80.44 161.887999,80.4959994 162,80.608 C162.112001,80.7200006 162.168,80.8786656 162.168,81.084 L162.168,82.12 C162.168,82.3066676 162.112001,82.4606661 162,82.582 C161.887999,82.7033339 161.729334,82.764 161.524,82.764 L159.928,82.764 C158.901328,82.764 158.094003,83.0626637 157.506,83.66 C156.917997,84.2573363 156.624,85.0693282 156.624,86.096 L156.624,94.356 C156.624,94.5426676 156.558667,94.6966661 156.428,94.818 C156.297333,94.9393339 156.138668,95 155.952,95 L154.692,95 C154.505332,95 154.351334,94.9393339 154.23,94.818 Z" id="VM-Server" fill="#202234"></path>
        </g>
    </g>
</svg>