<?xml version="1.0" encoding="UTF-8"?>
<svg width="105px" height="42px" viewBox="0 0 105 42" version="1.1" xmlns="http://www.w3.org/2000/svg" xmlns:xlink="http://www.w3.org/1999/xlink">
    <!-- Generator: Sketch 47.1 (45422) - http://www.bohemiancoding.com/sketch -->
    <title>Provider/OracleVM/oraclevm-42</title>
    <desc>Created with Sketch.</desc>
    <defs></defs>
    <g id="Symbols" stroke="none" stroke-width="1" fill="none" fill-rule="evenodd">
        <g id="Provider/OracleVM/oraclevm-42" fill="#616870">
            <path d="M71.2221737,24.2631031 C69.735232,24.2631031 68.4734597,23.2880465 68.0876512,21.9433416 L76.3658295,21.9433416 L77.5070081,20.2054795 L68.0876512,20.2054795 C68.4734597,18.8688348 69.735232,17.8859419 71.2221737,17.8859419 L76.9040393,17.8859419 L78.0534557,16.1478559 L71.0935709,16.1478559 C68.3125917,16.1478559 66.0544906,18.3576857 66.0544906,21.0784406 C66.0544906,23.7991956 68.3125917,26.0009651 71.0935709,26.0009651 L77.0649072,26.0009651 L78.2063146,24.2631031 L71.2221737,24.2631031 L71.2221737,24.2631031 Z M47.5372838,26.0009651 C44.7567623,26.0009651 42.4984324,23.7991956 42.4984324,21.0784406 C42.4984324,18.3576857 44.7567623,16.1478559 47.5372838,16.1478559 L54.4893885,16.1478559 L53.356219,17.8859419 L47.6661155,17.8859419 C45.8656758,17.8859419 44.4029901,19.3170697 44.4029901,21.0784406 C44.4029901,22.8398115 45.8656758,24.2631031 47.6661155,24.2631031 L54.6500276,24.2631031 L53.508849,26.0009651 L47.5372838,26.0009651 Z M10.7589317,24.2631031 C12.5602868,24.2631031 14.0188535,22.8398115 14.0188535,21.0784406 C14.0188535,19.3170697 12.5602868,17.8859419 10.7589317,17.8859419 L5.16539476,17.8859419 C3.36518386,17.8859419 1.90547301,19.3170697 1.90547301,21.0784406 C1.90547301,22.8398115 3.36518386,24.2631031 5.16539476,24.2631031 L10.7589317,24.2631031 Z M5.03610543,26.0009651 C2.2560416,26.0009651 0,23.7991956 0,21.0784406 C0,18.3576857 2.2560416,16.1478559 5.03610543,16.1478559 L10.8893652,16.1478559 C13.6698867,16.1478559 15.9243265,18.3576857 15.9243265,21.0784406 C15.9243265,23.7991956 13.6698867,26.0009651 10.8893652,26.0009651 L5.03610543,26.0009651 Z M25.4278931,22.8082425 C27.3086524,22.8082425 28.8356395,21.3222607 28.8356395,19.4820793 C28.8356395,17.6421218 27.3086524,16.1478559 25.4278931,16.1478559 L16.954751,16.1478559 L16.954751,26.0009651 L18.8908873,26.0009651 L18.8908873,17.8859419 L25.2992903,17.8859419 C26.1995101,17.8859419 26.9228439,18.6012819 26.9228439,19.4820793 C26.9228439,20.3628767 26.1995101,21.0784406 25.2992903,21.0784406 L19.8391616,21.0706043 L25.6207974,26.0009651 L28.4338128,26.0009651 L24.5439202,22.8082425 L25.4278931,22.8082425 Z M57.4710521,24.2631031 L57.4710521,16.1478559 L55.5340005,16.1478559 L55.5340005,25.0572536 C55.5340005,25.3010738 55.630567,25.5370576 55.8154622,25.7179636 C56.0001286,25.8986458 56.2493252,26.0009651 56.5227778,26.0009651 L65.3551841,26.0009651 L66.4965915,24.2631031 L57.4710521,24.2631031 Z M33.762135,22.525241 L38.9298181,22.525241 L36.197351,18.2240212 L31.182298,26.0009651 L28.8999409,26.0009651 L34.9998801,16.6592289 C35.2650949,16.2817443 35.7071957,16.0535967 36.197351,16.0535967 C36.671717,16.0535967 37.113589,16.2736841 37.3705659,16.6433324 L43.4947612,26.0009651 L41.212404,26.0009651 L40.1352981,24.2631031 L34.9033136,24.2631031 L33.762135,22.525241 Z M79.2481456,18.0896463 C78.6750009,18.0896463 78.2063146,17.634747 78.2063146,17.0715187 C78.2063146,16.508496 78.6750009,16.0535967 79.2481456,16.0535967 C79.8287063,16.0535967 80.2973926,16.508496 80.2973926,17.0715187 C80.2973926,17.634747 79.8287063,18.0896463 79.2481456,18.0896463 Z M79.1513149,16.4651233 C79.3151008,16.4651233 79.382056,16.4723179 79.456639,16.5013015 C79.6649204,16.5662578 79.6873801,16.7467375 79.6873801,16.8188882 C79.6873801,16.8332773 79.6873801,16.8694555 79.6723363,16.9126226 C79.6649204,16.9559953 79.6350449,17.0427406 79.5307982,17.1076969 C79.5161782,17.1148914 79.5087623,17.1220859 79.4788867,17.136475 L79.7469193,17.6059689 L79.4863027,17.6059689 L79.2481456,17.1726531 L79.0845716,17.1726531 L79.0845716,17.6059689 L78.8538305,17.6059689 L78.8538305,16.4651233 L79.1513149,16.4651233 Z M79.2333138,16.9849789 C79.3076849,16.9777844 79.382056,16.9777844 79.4267634,16.9126226 C79.4492231,16.8838445 79.456639,16.8550664 79.456639,16.8116937 C79.456639,16.753932 79.4193475,16.7033648 79.3672242,16.6745867 C79.3151008,16.6527976 79.2631894,16.6527976 79.1513149,16.6527976 L79.0845716,16.6527976 L79.0845716,16.9849789 L79.2333138,16.9849789 Z M78.4296398,17.0643242 C78.4296398,17.512029 78.7942913,17.8657939 79.2481456,17.8657939 C79.7096278,17.8657939 80.0742793,17.512029 80.0742793,17.0643242 C80.0742793,16.6240195 79.7096278,16.2702546 79.2481456,16.2702546 C78.7942913,16.2702546 78.4296398,16.6240195 78.4296398,17.0643242 Z M89.5401081,25.3278947 L86.2563243,16.1905263 L86.2271351,16.0342105 C86.2271351,15.9584207 86.2587564,15.8921055 86.322,15.8352632 C86.3852436,15.7784208 86.4557834,15.75 86.5336216,15.75 L87.2341622,15.75 C87.3411897,15.75 87.426324,15.7760524 87.4895676,15.8281579 C87.5528111,15.8802634 87.5941621,15.9394734 87.6136216,16.0057895 L90.5033514,24.1342105 L93.4076757,16.0057895 C93.4271352,15.9394734 93.4684862,15.8802634 93.5317297,15.8281579 C93.5949733,15.7760524 93.6801076,15.75 93.7871351,15.75 L94.4876757,15.75 C94.5655139,15.75 94.6336213,15.7784208 94.692,15.8352632 C94.7503787,15.8921055 94.7795676,15.9584207 94.7795676,16.0342105 C94.7795676,16.1005266 94.7747028,16.1526314 94.764973,16.1905263 L91.4811892,25.3278947 C91.3838914,25.5742118 91.208758,25.6973684 90.9557838,25.6973684 L90.0655135,25.6973684 C89.8125393,25.6973684 89.6374059,25.5742118 89.5401081,25.3278947 Z M95.862695,25.605 C95.7994514,25.5434207 95.7678301,25.4652636 95.7678301,25.3705263 L95.7678301,16.0910526 C95.7678301,15.9868416 95.797019,15.9039477 95.8553977,15.8423684 C95.9137764,15.7807892 95.9964782,15.75 96.1035058,15.75 L96.7894517,15.75 C96.9645878,15.75 97.0862082,15.8210519 97.1543166,15.9631579 L100.262965,21.7752632 L103.400803,15.9631579 C103.478641,15.8210519 103.595397,15.75 103.751073,15.75 L104.437019,15.75 C104.544047,15.75 104.626749,15.7807892 104.685127,15.8423684 C104.743506,15.9039477 104.772695,15.9868416 104.772695,16.0910526 L104.772695,25.3705263 C104.772695,25.4652636 104.741074,25.5434207 104.67783,25.605 C104.614587,25.6665793 104.534317,25.6973684 104.437019,25.6973684 L103.765668,25.6973684 C103.66837,25.6973684 103.590533,25.6665793 103.532154,25.605 C103.473776,25.5434207 103.444587,25.4652636 103.444587,25.3705263 L103.444587,18.3078947 L100.948911,23.0115789 C100.851613,23.2105273 100.695939,23.31 100.481884,23.31 L100.044046,23.31 C99.839721,23.31 99.6840469,23.2105273 99.5770193,23.0115789 L97.0959382,18.3078947 L97.0959382,25.3705263 C97.0959382,25.4652636 97.0643169,25.5434207 97.0010734,25.605 C96.9378298,25.6665793 96.8575603,25.6973684 96.7602626,25.6973684 L96.1035058,25.6973684 C96.006208,25.6973684 95.9259386,25.6665793 95.862695,25.605 Z" id="Combined-Shape"></path>
        </g>
    </g>
</svg>