<?xml version="1.0" encoding="UTF-8"?>
<svg width="192px" height="128px" viewBox="0 0 192 128" version="1.1" xmlns="http://www.w3.org/2000/svg" xmlns:xlink="http://www.w3.org/1999/xlink">
    <!-- Generator: Sketch 52.6 (67491) - http://www.bohemiancoding.com/sketch -->

    <desc>Created with Sketch.</desc>
    <g id="Provider/OracleVM/oraclevm-128" stroke="none" stroke-width="1" fill="none" fill-rule="evenodd">
        <path d="M170.300142,55.2239943 C166.744699,55.2239943 163.727661,52.8295128 162.80515,49.5272727 L182.599195,49.5272727 L185.32788,45.2595424 L162.80515,45.2595424 C163.727661,41.977096 166.744699,39.5633707 170.300142,39.5633707 L183.886115,39.5633707 L186.634497,35.2950906 L169.992638,35.2950906 C163.343008,35.2950906 157.943637,40.7218488 157.943637,47.4033044 C157.943637,54.0847599 163.343008,59.4917246 169.992638,59.4917246 L184.270768,59.4917246 L187,55.2239943 L170.300142,55.2239943 Z M113.666935,59.4917246 C107.018399,59.4917246 101.618481,54.0847599 101.618481,47.4033044 C101.618481,40.7218488 107.018399,35.2950906 113.666935,35.2950906 L130.290191,35.2950906 L127.580656,39.5633707 L113.974986,39.5633707 C109.669934,39.5633707 106.17249,43.0778427 106.17249,47.4033044 C106.17249,51.7287661 109.669934,55.2239943 113.974986,55.2239943 L130.674297,55.2239943 L127.945612,59.4917246 L113.666935,59.4917246 Z M25.7258028,55.2239943 C30.0330432,55.2239943 33.5206385,51.7287661 33.5206385,47.4033044 C33.5206385,43.0778427 30.0330432,39.5633707 25.7258028,39.5633707 L12.3510336,39.5633707 C8.04652905,39.5633707 4.55619797,43.0778427 4.55619797,47.4033044 C4.55619797,51.7287661 8.04652905,55.2239943 12.3510336,55.2239943 L25.7258028,55.2239943 Z M12.0418884,59.4917246 C5.39444648,59.4917246 0,54.0847599 0,47.4033044 C0,40.7218488 5.39444648,35.2950906 12.0418884,35.2950906 L26.0376838,35.2950906 C32.6862201,35.2950906 38.0768364,40.7218488 38.0768364,47.4033044 C38.0768364,54.0847599 32.6862201,59.4917246 26.0376838,59.4917246 L12.0418884,59.4917246 Z M60.8009217,51.651241 C65.2980264,51.651241 68.9492224,48.0020622 68.9492224,43.4830626 C68.9492224,38.9646128 65.2980264,35.2950906 60.8009217,35.2950906 L40.5406961,35.2950906 L40.5406961,59.4917246 L45.1702135,59.4917246 L45.1702135,39.5633707 L60.493418,39.5633707 C62.6459439,39.5633707 64.3755153,41.3200568 64.3755153,43.4830626 C64.3755153,45.6460684 62.6459439,47.4033044 60.493418,47.4033044 L47.4376428,47.3840606 L61.2621772,59.4917246 L67.9884102,59.4917246 L58.6872442,51.651241 L60.8009217,51.651241 Z M137.41968,55.2239943 L137.41968,35.2950906 L132.787974,35.2950906 L132.787974,57.1742184 C132.787974,57.7729762 133.018876,58.3524902 133.46098,58.7967476 C133.902538,59.2404552 134.498395,59.4917246 135.152251,59.4917246 L156.271517,59.4917246 L159.000749,55.2239943 L137.41968,55.2239943 Z M80.7290214,50.9562641 L93.0855266,50.9562641 L86.5518938,40.3936042 L74.5603441,59.4917246 L69.1029743,59.4917246 L83.6886077,36.5508875 C84.3227656,35.623885 85.379878,35.0636149 86.5518938,35.0636149 C87.6861557,35.0636149 88.7427209,35.6040914 89.3571811,36.5118501 L104.000813,59.4917246 L98.5434436,59.4917246 L95.9679634,55.2239943 L83.4577063,55.2239943 L80.7290214,50.9562641 Z M189.491134,40.0636149 C188.120681,40.0636149 187,38.9465023 187,37.5633625 C187,36.1807274 188.120681,35.0636149 189.491134,35.0636149 C190.879319,35.0636149 192,36.1807274 192,37.5633625 C192,38.9465023 190.879319,40.0636149 189.491134,40.0636149 Z M189.259601,36.0742156 C189.651231,36.0742156 189.811328,36.0918834 189.989665,36.1630596 C190.487689,36.322575 190.541392,36.7657855 190.541392,36.9429687 C190.541392,36.9783044 190.541392,37.0671484 190.505421,37.1731555 C190.487689,37.2796674 190.416253,37.4926911 190.166988,37.6522065 C190.13203,37.6698743 190.114297,37.6875422 190.042861,37.7228779 L190.683757,38.8758309 L190.060594,38.8758309 L189.491134,37.8117219 L189.10001,37.8117219 L189.10001,38.8758309 L188.548283,38.8758309 L188.548283,36.0742156 L189.259601,36.0742156 Z M189.455669,37.3508435 C189.633499,37.3331757 189.811328,37.3331757 189.918229,37.1731555 C189.971932,37.1024841 189.989665,37.0318127 189.989665,36.9253009 C189.989665,36.7834533 189.900497,36.6592736 189.775864,36.5886022 C189.651231,36.5350939 189.527105,36.5350939 189.259601,36.5350939 L189.10001,36.5350939 L189.10001,37.3508435 L189.455669,37.3508435 Z M187.533995,37.5456946 C187.533995,38.6451394 188.405918,39.5138925 189.491134,39.5138925 C190.594589,39.5138925 191.466511,38.6451394 191.466511,37.5456946 C191.466511,36.4644225 190.594589,35.5956694 189.491134,35.5956694 C188.405918,35.5956694 187.533995,36.4644225 187.533995,37.5456946 Z" id="Combined-Shape-Copy" fill="#EC1D24"></path>
        <path d="M50.9601074,76.3532537 L44.2533324,94.5710491 L41.479854,94.5710491 L35,76.3532537 L37.7986918,76.3532537 L42.967447,91.9216467 L48.41355,76.3532537 L50.9601074,76.3532537 Z M53.5109216,94.5710491 L53.5109216,76.3532537 L57.9737004,76.3532537 L63.1172421,91.3665339 L68.386851,76.3532537 L72.5470686,76.3532537 L72.5470686,94.5710491 L70.0761515,94.5710491 L70.0761515,78.1699867 L64.1005663,94.5710491 L61.7052895,94.5710491 L55.9566252,78.2709163 L55.9566252,94.5710491 L53.5109216,94.5710491 Z M83.0191597,89.247012 L85.6413574,89.247012 C85.6917843,90.5086321 85.8430649,92.8552457 90.0284959,92.8552457 C93.8105119,92.8552457 94.2895672,90.5086321 94.2895672,89.6002656 C94.2895672,87.5564409 92.6506937,87.1527224 90.1041362,86.5219124 C87.3306579,85.8406375 86.0951993,85.5378486 85.162302,84.9070385 C83.6747091,83.8977424 83.2712941,82.5351926 83.2712941,81.3240372 C83.2712941,77.6148738 86.7759622,76 90.20499,76 C91.4152351,76 93.8609388,76.2018592 95.3233183,77.7915007 C96.3318559,78.9017264 96.3822827,80.1381142 96.4327096,80.8950863 L93.8105119,80.8950863 C93.6844447,78.62417 91.7682233,78.1195219 89.978069,78.1195219 C87.4567251,78.1195219 85.9439187,79.2549801 85.9439187,81.0717131 C85.9439187,82.686587 87.0028831,83.2416999 89.2216658,83.7715803 C93.5583775,84.8818061 94.0374328,84.9827357 95.0963973,85.689243 C96.7856978,86.7994688 96.911765,88.5657371 96.911765,89.3227092 C96.911765,92.5524568 94.390421,95 89.7259346,95 C88.3391955,95 85.5152902,94.7729084 84.0781241,92.9309429 C83.0443731,91.5936255 83.0191597,90.1301461 83.0191597,89.247012 Z M110.455639,88.6666667 L101.353587,88.6666667 C101.30316,91.2908367 102.387338,93.2337317 104.984322,93.2337317 C106.522342,93.2337317 107.757801,92.4262948 107.959508,90.6095618 L110.329572,90.6095618 C110.253931,91.2403718 110.153078,92.2749004 109.245394,93.2589641 C108.690698,93.8897742 107.430026,94.9495352 104.883469,94.9495352 C100.899745,94.9495352 99.0087373,92.4767596 99.0087373,88.4648074 C99.0087373,85.9667995 99.5130061,83.8977424 101.504868,82.5099602 C102.715113,81.6520584 104.227919,81.5763612 104.959109,81.5763612 C110.632133,81.5763612 110.506066,86.5976096 110.455639,88.6666667 Z M101.454441,87.001328 L108.035149,87.001328 C108.060362,85.7901726 107.833441,83.2669323 104.908682,83.2669323 C103.370662,83.2669323 101.504868,84.2005312 101.454441,87.001328 Z M113.838497,94.5710491 L113.838497,84.4780876 C113.838497,83.6201859 113.78807,82.7370518 113.712429,81.9043825 L116.107706,81.9043825 L116.158133,84.3519256 C116.611975,82.5856574 118.124781,82.0053121 119.183746,81.8539177 C119.889722,81.752988 120.419204,81.7782205 120.822619,81.8034529 L120.822619,84.124834 C120.696552,84.0743692 120.545272,84.0491368 120.368778,84.0239044 C120.192283,83.998672 119.965362,83.998672 119.688015,83.998672 C116.889323,83.998672 116.233773,85.6640106 116.233773,87.8339973 L116.233773,94.5710491 L113.838497,94.5710491 Z M126.676394,94.5710491 L121.381572,81.9043825 L124.028983,81.9043825 L128.063133,91.9468792 L131.99643,81.9043825 L134.618628,81.9043825 L129.071671,94.5710491 L126.676394,94.5710491 Z M147.633019,88.6666667 L138.530968,88.6666667 C138.480541,91.2908367 139.564719,93.2337317 142.161703,93.2337317 C143.699723,93.2337317 144.935181,92.4262948 145.136889,90.6095618 L147.506952,90.6095618 C147.431312,91.2403718 147.330458,92.2749004 146.422774,93.2589641 C145.868079,93.8897742 144.607407,94.9495352 142.060849,94.9495352 C138.077126,94.9495352 136.186118,92.4767596 136.186118,88.4648074 C136.186118,85.9667995 136.690387,83.8977424 138.682248,82.5099602 C139.892493,81.6520584 141.4053,81.5763612 142.13649,81.5763612 C147.809514,81.5763612 147.683446,86.5976096 147.633019,88.6666667 Z M138.631821,87.001328 L145.212529,87.001328 C145.237743,85.7901726 145.010822,83.2669323 142.086063,83.2669323 C140.548043,83.2669323 138.682248,84.2005312 138.631821,87.001328 Z M151.015877,94.5710491 L151.015877,84.4780876 C151.015877,83.6201859 150.96545,82.7370518 150.88981,81.9043825 L153.285087,81.9043825 L153.335514,84.3519256 C153.789356,82.5856574 155.302162,82.0053121 156.361126,81.8539177 C157.067103,81.752988 157.596585,81.7782205 158,81.8034529 L158,84.124834 C157.873933,84.0743692 157.722652,84.0491368 157.546158,84.0239044 C157.369664,83.998672 157.142743,83.998672 156.865395,83.998672 C154.066703,83.998672 153.411154,85.6640106 153.411154,87.8339973 L153.411154,94.5710491 L151.015877,94.5710491 Z" id="VM-Server" fill="#000000"></path>
    </g>
</svg>
