<?xml version="1.0" encoding="UTF-8"?>
<svg width="192px" height="64px" viewBox="0 0 192 64" version="1.1" xmlns="http://www.w3.org/2000/svg" xmlns:xlink="http://www.w3.org/1999/xlink">
    <g id="Provider/OracleVM/oraclevm-64" stroke="none" stroke-width="1" fill="none" fill-rule="evenodd">
        <g id="Group" transform="translate(27.000000, 10.000000)">
            <path d="M126.022105,14.8552972 C123.391077,14.8552972 121.158469,13.0909091 120.475811,10.6576335 L135.123405,10.6576335 L137.142631,7.51293074 L120.475811,7.51293074 C121.158469,5.09424025 123.391077,3.3156722 126.022105,3.3156722 L136.075725,3.3156722 L138.109528,0.170564271 L125.794552,0.170564271 C120.873826,0.170564271 116.878291,4.16930383 116.878291,9.09257467 C116.878291,14.0158455 120.873826,18 125.794552,18 L136.360368,18 L138.38,14.8552972 L126.022105,14.8552972 L126.022105,14.8552972 Z M84.1135318,18 C79.193615,18 75.1976756,14.0158455 75.1976756,9.09257467 C75.1976756,4.16930383 79.193615,0.170564271 84.1135318,0.170564271 L96.4147411,0.170564271 L94.4096857,3.3156722 L84.3414894,3.3156722 C81.1557512,3.3156722 78.5676425,5.9053321 78.5676425,9.09257467 C78.5676425,12.2798172 81.1557512,14.8552972 84.3414894,14.8552972 L96.6989795,14.8552972 L94.6797527,18 L84.1135318,18 Z M19.0370941,14.8552972 C22.2244519,14.8552972 24.8052725,12.2798172 24.8052725,9.09257467 C24.8052725,5.9053321 22.2244519,3.3156722 19.0370941,3.3156722 L9.13976487,3.3156722 C5.9544315,3.3156722 3.3715865,5.9053321 3.3715865,9.09257467 C3.3715865,12.2798172 5.9544315,14.8552972 9.13976487,14.8552972 L19.0370941,14.8552972 Z M8.91099744,18 C3.99189039,18 0,14.0158455 0,9.09257467 C0,4.16930383 3.99189039,0.170564271 8.91099744,0.170564271 L19.267886,0.170564271 C24.1878028,0.170564271 28.176859,4.16930383 28.176859,9.09257467 C28.176859,14.0158455 24.1878028,18 19.267886,18 L8.91099744,18 Z M44.992682,12.2226924 C48.3205396,12.2226924 51.0224246,9.53377299 51.0224246,6.20392086 C51.0224246,2.87447388 48.3205396,0.170564271 44.992682,0.170564271 L30.0001151,0.170564271 L30.0001151,18 L33.425958,18 L33.425958,3.3156722 L44.7651293,3.3156722 C46.3579984,3.3156722 47.6378814,4.61009701 47.6378814,6.20392086 C47.6378814,7.79774472 46.3579984,9.09257467 44.7651293,9.09257467 L35.1038557,9.07839474 L45.3340111,18 L50.3114235,18 L43.4285607,12.2226924 L44.992682,12.2226924 Z M101.690563,14.8552972 L101.690563,0.170564271 L98.2631009,0.170564271 L98.2631009,16.2923316 C98.2631009,16.7335299 98.4339679,17.1605483 98.7611256,17.487902 C99.0878783,17.8148507 99.5288124,18 100.012666,18 L115.640923,18 L117.660554,14.8552972 L101.690563,14.8552972 Z M59.7394758,11.7105944 L68.8832897,11.7105944 L64.0484014,3.92743478 L55.1746546,18 L51.136201,18 L61.9295697,1.09590583 C62.3988466,0.412838461 63.1811097,0 64.0484014,0 C64.8877552,0 65.6696134,0.398253393 66.124314,1.06714083 L76.9606019,18 L72.9221483,18 L71.0162929,14.8552972 L61.7587027,14.8552972 L59.7394758,11.7105944 Z M140.223439,3.68428017 C139.209304,3.68428017 138.38,2.86112903 138.38,1.8419541 C138.38,0.823151136 139.209304,0 140.223439,0 C141.250696,0 142.08,0.823151136 142.08,1.8419541 C142.08,2.86112903 141.250696,3.68428017 140.223439,3.68428017 Z M140.052105,0.744667228 C140.341911,0.744667228 140.460383,0.757685886 140.592352,0.810132478 C140.96089,0.927672361 141.00063,1.25425469 141.00063,1.38481323 C141.00063,1.41085055 141.00063,1.4763158 140.974012,1.55442774 C140.96089,1.63291165 140.908027,1.78987947 140.723571,1.90741935 C140.697702,1.92043801 140.68458,1.93345667 140.631717,1.95949398 L141.10598,2.8090544 L140.644839,2.8090544 L140.223439,2.02495923 L139.934007,2.02495923 L139.934007,2.8090544 L139.525729,2.8090544 L139.525729,0.744667228 L140.052105,0.744667228 Z M140.197195,1.68535825 C140.328789,1.67233959 140.460383,1.67233959 140.539489,1.55442774 C140.57923,1.50235311 140.592352,1.45027848 140.592352,1.37179457 C140.592352,1.26727335 140.526367,1.17577078 140.434139,1.12369615 C140.341911,1.08426822 140.250058,1.08426822 140.052105,1.08426822 L139.934007,1.08426822 L139.934007,1.68535825 L140.197195,1.68535825 Z M138.775157,1.82893544 C138.775157,2.63906792 139.420379,3.27921393 140.223439,3.27921393 C141.039996,3.27921393 141.685218,2.63906792 141.685218,1.82893544 C141.685218,1.03219358 141.039996,0.392047581 140.223439,0.392047581 C139.420379,0.392047581 138.775157,1.03219358 138.775157,1.82893544 Z" id="ORACLE" fill="#EC1D24"></path>
            <path d="M30.4947249,28.2974768 L24.8239558,43.6387782 L22.478901,43.6387782 L17,28.2974768 L19.3663736,28.2974768 L23.7367031,41.4077025 L28.3415382,28.2974768 L30.4947249,28.2974768 Z M32.6515109,43.6387782 L32.6515109,28.2974768 L36.4249174,28.2974768 L40.7739283,40.940239 L45.2295326,28.2974768 L48.7471149,28.2974768 L48.7471149,43.6387782 L46.6578842,43.6387782 L46.6578842,29.8273572 L41.6053569,43.6387782 L39.5800822,43.6387782 L34.719423,29.9123506 L34.719423,43.6387782 L32.6515109,43.6387782 Z M57.6015659,39.1553785 L59.8187087,39.1553785 C59.8613461,40.2177955 59.9892581,42.1938911 63.5281592,42.1938911 C66.7259613,42.1938911 67.1310162,40.2177955 67.1310162,39.4528552 C67.1310162,37.7317397 65.745302,37.3917663 63.5921152,36.8605578 C61.2470603,36.2868526 60.2024449,36.0318725 59.4136538,35.500664 C58.1558516,34.6507304 57.8147527,33.5033201 57.8147527,32.4833997 C57.8147527,29.3598938 60.7780493,28 63.6773899,28 C64.7006866,28 66.7685986,28.1699867 68.0050821,29.5086321 C68.8578293,30.4435591 68.9004667,31.4847278 68.9431041,32.122178 L66.7259613,32.122178 C66.6193679,30.2098274 64.9991481,29.7848606 63.4855218,29.7848606 C61.3536537,29.7848606 60.0745329,30.7410359 60.0745329,32.2709163 C60.0745329,33.6308101 60.9699175,34.0982736 62.8459614,34.5444887 C66.5127745,35.4794157 66.9178294,35.564409 67.813214,36.1593625 C69.2415656,37.0942895 69.348159,38.5816733 69.348159,39.2191235 C69.348159,41.938911 67.2162909,44 63.272335,44 C62.0998075,44 59.7121153,43.8087649 58.4969505,42.2576361 C57.6228846,41.1314741 57.6015659,39.8990704 57.6015659,39.1553785 Z M80.7998898,38.6666667 L73.1038461,38.6666667 C73.0612087,40.876494 73.977912,42.5126162 76.1737361,42.5126162 C77.4741756,42.5126162 78.518791,41.8326693 78.6893404,40.3027888 L80.6932964,40.3027888 C80.6293404,40.8339973 80.5440656,41.7051793 79.7765931,42.5338645 C79.3075822,43.065073 78.2416481,43.9575033 76.0884614,43.9575033 C72.7201098,43.9575033 71.1212087,41.875166 71.1212087,38.4966799 C71.1212087,36.3930943 71.5475824,34.6507304 73.2317581,33.4820717 C74.2550548,32.7596282 75.5341757,32.6958831 76.1524174,32.6958831 C80.9491206,32.6958831 80.8425272,36.9243028 80.7998898,38.6666667 Z M73.1891208,37.2642762 L78.7532965,37.2642762 C78.7746151,36.2443559 78.582747,34.1195219 76.10978,34.1195219 C74.8093405,34.1195219 73.2317581,34.9057105 73.1891208,37.2642762 Z M83.6601923,43.6387782 L83.6601923,35.1394422 C83.6601923,34.4169987 83.6175549,33.6733068 83.5535989,32.9721116 L85.5788735,32.9721116 L85.6215109,35.0332005 C86.0052472,33.5458167 87.284368,33.0571049 88.1797526,32.9296149 C88.7766757,32.8446215 89.2243679,32.8658699 89.5654668,32.8871182 L89.5654668,34.8419655 C89.4588734,34.7994688 89.3309614,34.7782205 89.1817306,34.7569721 C89.0324998,34.7357238 88.8406317,34.7357238 88.6061262,34.7357238 C86.2397526,34.7357238 85.6854669,36.1381142 85.6854669,37.9654714 L85.6854669,43.6387782 L83.6601923,43.6387782 Z M94.515,43.6387782 L90.038077,32.9721116 L92.2765385,32.9721116 L95.6875275,41.4289509 L99.0132417,32.9721116 L101.230384,32.9721116 L96.5402747,43.6387782 L94.515,43.6387782 Z M112.234423,38.6666667 L104.538379,38.6666667 C104.495742,40.876494 105.412445,42.5126162 107.608269,42.5126162 C108.908709,42.5126162 109.953324,41.8326693 110.123874,40.3027888 L112.12783,40.3027888 C112.063874,40.8339973 111.978599,41.7051793 111.211126,42.5338645 C110.742115,43.065073 109.676181,43.9575033 107.522995,43.9575033 C104.154643,43.9575033 102.555742,41.875166 102.555742,38.4966799 C102.555742,36.3930943 102.982116,34.6507304 104.666291,33.4820717 C105.689588,32.7596282 106.968709,32.6958831 107.586951,32.6958831 C112.383654,32.6958831 112.27706,36.9243028 112.234423,38.6666667 Z M104.623654,37.2642762 L110.18783,37.2642762 C110.209148,36.2443559 110.01728,34.1195219 107.544313,34.1195219 C106.243874,34.1195219 104.666291,34.9057105 104.623654,37.2642762 Z M115.094725,43.6387782 L115.094725,35.1394422 C115.094725,34.4169987 115.052088,33.6733068 114.988132,32.9721116 L117.013407,32.9721116 L117.056044,35.0332005 C117.43978,33.5458167 118.718901,33.0571049 119.614286,32.9296149 C120.211209,32.8446215 120.658901,32.8658699 121,32.8871182 L121,34.8419655 C120.893407,34.7994688 120.765495,34.7782205 120.616264,34.7569721 C120.467033,34.7357238 120.275165,34.7357238 120.040659,34.7357238 C117.674286,34.7357238 117.12,36.1381142 117.12,37.9654714 L117.12,43.6387782 L115.094725,43.6387782 Z" id="VM-Server" fill="#000000"></path>
        </g>
    </g>
</svg>