<?xml version="1.0" encoding="UTF-8"?>
<svg width="105px" height="42px" viewBox="0 0 105 42" version="1.1" xmlns="http://www.w3.org/2000/svg" xmlns:xlink="http://www.w3.org/1999/xlink">
    <!-- Generator: Sketch 52.6 (67491) - http://www.bohemiancoding.com/sketch -->

    <desc>Created with Sketch.</desc>
    <g id="Provider/OracleVM/oraclevm-42" stroke="none" stroke-width="1" fill="none" fill-rule="evenodd">
        <path d="M71.2221737,24.2631031 C69.735232,24.2631031 68.4734597,23.2880465 68.0876512,21.9433416 L76.3658295,21.9433416 L77.5070081,20.2054795 L68.0876512,20.2054795 C68.4734597,18.8688348 69.735232,17.8859419 71.2221737,17.8859419 L76.9040393,17.8859419 L78.0534557,16.1478559 L71.0935709,16.1478559 C68.3125917,16.1478559 66.0544906,18.3576857 66.0544906,21.0784406 C66.0544906,23.7991956 68.3125917,26.0009651 71.0935709,26.0009651 L77.0649072,26.0009651 L78.2063146,24.2631031 L71.2221737,24.2631031 Z M47.5372838,26.0009651 C44.7567623,26.0009651 42.4984324,23.7991956 42.4984324,21.0784406 C42.4984324,18.3576857 44.7567623,16.1478559 47.5372838,16.1478559 L54.4893885,16.1478559 L53.356219,17.8859419 L47.6661155,17.8859419 C45.8656758,17.8859419 44.4029901,19.3170697 44.4029901,21.0784406 C44.4029901,22.8398115 45.8656758,24.2631031 47.6661155,24.2631031 L54.6500276,24.2631031 L53.508849,26.0009651 L47.5372838,26.0009651 Z M10.7589317,24.2631031 C12.5602868,24.2631031 14.0188535,22.8398115 14.0188535,21.0784406 C14.0188535,19.3170697 12.5602868,17.8859419 10.7589317,17.8859419 L5.16539476,17.8859419 C3.36518386,17.8859419 1.90547301,19.3170697 1.90547301,21.0784406 C1.90547301,22.8398115 3.36518386,24.2631031 5.16539476,24.2631031 L10.7589317,24.2631031 Z M5.03610543,26.0009651 C2.2560416,26.0009651 0,23.7991956 0,21.0784406 C0,18.3576857 2.2560416,16.1478559 5.03610543,16.1478559 L10.8893652,16.1478559 C13.6698867,16.1478559 15.9243265,18.3576857 15.9243265,21.0784406 C15.9243265,23.7991956 13.6698867,26.0009651 10.8893652,26.0009651 L5.03610543,26.0009651 Z M25.4278931,22.8082425 C27.3086524,22.8082425 28.8356395,21.3222607 28.8356395,19.4820793 C28.8356395,17.6421218 27.3086524,16.1478559 25.4278931,16.1478559 L16.954751,16.1478559 L16.954751,26.0009651 L18.8908873,26.0009651 L18.8908873,17.8859419 L25.2992903,17.8859419 C26.1995101,17.8859419 26.9228439,18.6012819 26.9228439,19.4820793 C26.9228439,20.3628767 26.1995101,21.0784406 25.2992903,21.0784406 L19.8391616,21.0706043 L25.6207974,26.0009651 L28.4338128,26.0009651 L24.5439202,22.8082425 L25.4278931,22.8082425 Z M57.4710521,24.2631031 L57.4710521,16.1478559 L55.5340005,16.1478559 L55.5340005,25.0572536 C55.5340005,25.3010738 55.630567,25.5370576 55.8154622,25.7179636 C56.0001286,25.8986458 56.2493252,26.0009651 56.5227778,26.0009651 L65.3551841,26.0009651 L66.4965915,24.2631031 L57.4710521,24.2631031 Z M33.762135,22.525241 L38.9298181,22.525241 L36.197351,18.2240212 L31.182298,26.0009651 L28.8999409,26.0009651 L34.9998801,16.6592289 C35.2650949,16.2817443 35.7071957,16.0535967 36.197351,16.0535967 C36.671717,16.0535967 37.113589,16.2736841 37.3705659,16.6433324 L43.4947612,26.0009651 L41.212404,26.0009651 L40.1352981,24.2631031 L34.9033136,24.2631031 L33.762135,22.525241 Z M79.2481456,18.0896463 C78.6750009,18.0896463 78.2063146,17.634747 78.2063146,17.0715187 C78.2063146,16.508496 78.6750009,16.0535967 79.2481456,16.0535967 C79.8287063,16.0535967 80.2973926,16.508496 80.2973926,17.0715187 C80.2973926,17.634747 79.8287063,18.0896463 79.2481456,18.0896463 Z M79.1513149,16.4651233 C79.3151008,16.4651233 79.382056,16.4723179 79.456639,16.5013015 C79.6649204,16.5662578 79.6873801,16.7467375 79.6873801,16.8188882 C79.6873801,16.8332773 79.6873801,16.8694555 79.6723363,16.9126226 C79.6649204,16.9559953 79.6350449,17.0427406 79.5307982,17.1076969 C79.5161782,17.1148914 79.5087623,17.1220859 79.4788867,17.136475 L79.7469193,17.6059689 L79.4863027,17.6059689 L79.2481456,17.1726531 L79.0845716,17.1726531 L79.0845716,17.6059689 L78.8538305,17.6059689 L78.8538305,16.4651233 L79.1513149,16.4651233 Z M79.2333138,16.9849789 C79.3076849,16.9777844 79.382056,16.9777844 79.4267634,16.9126226 C79.4492231,16.8838445 79.456639,16.8550664 79.456639,16.8116937 C79.456639,16.753932 79.4193475,16.7033648 79.3672242,16.6745867 C79.3151008,16.6527976 79.2631894,16.6527976 79.1513149,16.6527976 L79.0845716,16.6527976 L79.0845716,16.9849789 L79.2333138,16.9849789 Z M78.4296398,17.0643242 C78.4296398,17.512029 78.7942913,17.8657939 79.2481456,17.8657939 C79.7096278,17.8657939 80.0742793,17.512029 80.0742793,17.0643242 C80.0742793,16.6240195 79.7096278,16.2702546 79.2481456,16.2702546 C78.7942913,16.2702546 78.4296398,16.6240195 78.4296398,17.0643242 Z" id="Combined-Shape" fill="#616870"></path>
        <path d="M94,16 L90.2180095,26 L88.6540284,26 L85,16 L86.5781991,16 L89.492891,24.5457064 L92.563981,16 L94,16 Z M95,26 L95,16 L97.3443709,16 L100.046358,24.2409972 L102.81457,16 L105,16 L105,26 L103.701987,26 L103.701987,16.9972299 L100.562914,26 L99.3046358,26 L96.2847682,17.0526316 L96.2847682,26 L95,26 Z" id="VM" fill="#616870"></path>
    </g>
</svg>
