<?xml version="1.0" encoding="UTF-8"?>
<svg width="112px" height="12px" viewBox="0 0 112 12" version="1.1" xmlns="http://www.w3.org/2000/svg" xmlns:xlink="http://www.w3.org/1999/xlink">
    <!-- Generator: Sketch 47.1 (45422) - http://www.bohemiancoding.com/sketch -->
    <title>Provider-AWS-3 Copy 2</title>
    <desc>Created with Sketch.</desc>
    <defs></defs>
    <g id="Coriolis" stroke="none" stroke-width="1" fill="none" fill-rule="evenodd">
        <g id="Endpoints-List" transform="translate(-672.000000, -474.000000)" fill="#616870">
            <g id="Item-Connection-Copy-4" transform="translate(352.000000, 448.000000)">
                <g id="Provider/OracleVM/32" transform="translate(320.000000, 10.000000)">
                    <path d="M75.9703186,25.9961819 C74.3842475,25.9961819 73.038357,24.9514784 72.6268279,23.5107231 L81.4568848,23.5107231 L82.674142,21.648728 L72.6268279,21.648728 C73.038357,20.2166087 74.3842475,19.1635092 75.9703186,19.1635092 L82.0309752,19.1635092 L83.2570195,17.3012742 L75.8331422,17.3012742 C72.8667645,17.3012742 70.4581233,19.6689489 70.4581233,22.5840435 C70.4581233,25.4991381 72.8667645,27.8581769 75.8331422,27.8581769 L82.2025677,27.8581769 L83.4200689,25.9961819 L75.9703186,25.9961819 L75.9703186,25.9961819 Z M50.7064361,27.8581769 C47.7405465,27.8581769 45.3316612,25.4991381 45.3316612,22.5840435 C45.3316612,19.6689489 47.7405465,17.3012742 50.7064361,17.3012742 L58.1220144,17.3012742 L56.9133002,19.1635092 L50.8438565,19.1635092 C48.9233875,19.1635092 47.3631894,20.6968604 47.3631894,22.5840435 C47.3631894,24.4712266 48.9233875,25.9961819 50.8438565,25.9961819 L58.2933628,25.9961819 L57.0761056,27.8581769 L50.7064361,27.8581769 Z M11.4761938,25.9961819 C13.3976392,25.9961819 14.9534437,24.4712266 14.9534437,22.5840435 C14.9534437,20.6968604 13.3976392,19.1635092 11.4761938,19.1635092 L5.50975441,19.1635092 C3.58952945,19.1635092 2.03250454,20.6968604 2.03250454,22.5840435 C2.03250454,24.4712266 3.58952945,25.9961819 5.50975441,25.9961819 L11.4761938,25.9961819 Z M5.37184579,27.8581769 C2.40644437,27.8581769 0,25.4991381 0,22.5840435 C0,19.6689489 2.40644437,17.3012742 5.37184579,17.3012742 L11.6153229,17.3012742 C14.5812125,17.3012742 16.9859482,19.6689489 16.9859482,22.5840435 C16.9859482,25.4991381 14.5812125,27.8581769 11.6153229,27.8581769 L5.37184579,27.8581769 Z M27.123086,24.4374027 C29.1292292,24.4374027 30.7580154,22.8452794 30.7580154,20.8736564 C30.7580154,18.9022733 29.1292292,17.3012742 27.123086,17.3012742 L18.0850677,17.3012742 L18.0850677,27.8581769 L20.1502798,27.8581769 L20.1502798,19.1635092 L26.9859096,19.1635092 C27.9461441,19.1635092 28.7177002,19.9299449 28.7177002,20.8736564 C28.7177002,21.8173679 27.9461441,22.5840435 26.9859096,22.5840435 L21.1617724,22.5756475 L27.3288505,27.8581769 L30.3294003,27.8581769 L26.1801816,24.4374027 L27.123086,24.4374027 Z M61.3024556,25.9961819 L61.3024556,17.3012742 L59.2362672,17.3012742 L59.2362672,26.8470575 C59.2362672,27.1082933 59.3392715,27.3611332 59.536493,27.554961 C59.7334705,27.748549 59.9992802,27.8581769 60.290963,27.8581769 L69.7121964,27.8581769 L70.9296976,25.9961819 L61.3024556,25.9961819 Z M36.012944,24.1341868 L41.5251393,24.1341868 L38.6105078,19.525737 L33.2611179,27.8581769 L30.8266036,27.8581769 L37.3332055,17.8491738 C37.6161012,17.444726 38.0876754,17.2002822 38.6105078,17.2002822 C39.1164981,17.2002822 39.5878283,17.4360901 39.8619369,17.8321419 L46.3944119,27.8581769 L43.9598976,27.8581769 L42.8109846,25.9961819 L37.2302012,25.9961819 L36.012944,24.1341868 Z M84.5313554,19.3817639 C83.9200009,19.3817639 83.4200689,18.8943718 83.4200689,18.2909129 C83.4200689,17.6876743 83.9200009,17.2002822 84.5313554,17.2002822 C85.1506201,17.2002822 85.6505521,17.6876743 85.6505521,18.2909129 C85.6505521,18.8943718 85.1506201,19.3817639 84.5313554,19.3817639 Z M84.4280692,17.6412036 C84.6027742,17.6412036 84.6741931,17.648912 84.7537482,17.6799659 C84.9759151,17.7495619 84.9998721,17.942933 84.9998721,18.0202374 C84.9998721,18.0356542 84.9998721,18.0744166 84.9838254,18.120667 C84.9759151,18.1671378 84.9440478,18.2600793 84.8328514,18.3296752 C84.8172568,18.3373837 84.8093465,18.3450921 84.7774792,18.3605089 L85.0633806,18.8635381 L84.7853895,18.8635381 L84.5313554,18.3992712 L84.3568764,18.3992712 L84.3568764,18.8635381 L84.1107525,18.8635381 L84.1107525,17.6412036 L84.4280692,17.6412036 Z M84.5155347,18.1981917 C84.5948639,18.1904833 84.6741931,18.1904833 84.721881,18.120667 C84.7458379,18.0898334 84.7537482,18.0589997 84.7537482,18.012529 C84.7537482,17.9506414 84.7139707,17.8964623 84.6583724,17.8656286 C84.6027742,17.8422831 84.547402,17.8422831 84.4280692,17.8422831 L84.3568764,17.8422831 L84.3568764,18.1981917 L84.5155347,18.1981917 Z M83.6582825,18.2832045 C83.6582825,18.7628882 84.047244,19.141922 84.5313554,19.141922 C85.023603,19.141922 85.4125646,18.7628882 85.4125646,18.2832045 C85.4125646,17.8114495 85.023603,17.4324156 84.5313554,17.4324156 C84.047244,17.4324156 83.6582825,17.8114495 83.6582825,18.2832045 Z M95.5094486,27.1370301 L92.0067459,17.3469925 L91.9756108,17.1795113 C91.9756108,17.0983079 92.0093402,17.0272559 92.0768,16.9663534 C92.1442598,16.9054508 92.2195023,16.875 92.3025297,16.875 L93.049773,16.875 C93.1639357,16.875 93.2547456,16.9029133 93.3222054,16.9587406 C93.3896652,17.0145679 93.4337729,17.0780072 93.4545297,17.1490602 L96.5369081,25.8580827 L99.6348541,17.1490602 C99.6556109,17.0780072 99.6997186,17.0145679 99.7671784,16.9587406 C99.8346382,16.9029133 99.9254481,16.875 100.039611,16.875 L100.786854,16.875 C100.869881,16.875 100.942529,16.9054508 101.0048,16.9663534 C101.067071,17.0272559 101.098205,17.0983079 101.098205,17.1795113 C101.098205,17.2505643 101.093016,17.3063908 101.082638,17.3469925 L97.5799351,27.1370301 C97.4761508,27.4009412 97.2893419,27.5328947 97.0195027,27.5328947 L96.0698811,27.5328947 C95.8000419,27.5328947 95.613233,27.4009412 95.5094486,27.1370301 Z M102.253541,27.4339286 C102.186082,27.3679508 102.152352,27.284211 102.152352,27.1827068 L102.152352,17.2404135 C102.152352,17.1287588 102.183487,17.0399439 102.245758,16.9739662 C102.308028,16.9079884 102.396243,16.875 102.510406,16.875 L103.242082,16.875 C103.428894,16.875 103.558622,16.9511271 103.631271,17.1033835 L106.947163,23.3306391 L110.29419,17.1033835 C110.377217,16.9511271 110.501757,16.875 110.667812,16.875 L111.399487,16.875 C111.51365,16.875 111.601865,16.9079884 111.664136,16.9739662 C111.726406,17.0399439 111.757541,17.1287588 111.757541,17.2404135 L111.757541,27.1827068 C111.757541,27.284211 111.723812,27.3679508 111.656352,27.4339286 C111.588892,27.4999063 111.503272,27.5328947 111.399487,27.5328947 L110.683379,27.5328947 C110.579595,27.5328947 110.496569,27.4999063 110.434298,27.4339286 C110.372027,27.3679508 110.340893,27.284211 110.340893,27.1827068 L110.340893,19.6156015 L107.678839,24.6552632 C107.575054,24.8684221 107.409002,24.975 107.180676,24.975 L106.713649,24.975 C106.495702,24.975 106.32965,24.8684221 106.215487,24.6552632 L103.569001,19.6156015 L103.569001,27.1827068 C103.569001,27.284211 103.535271,27.3679508 103.467812,27.4339286 C103.400352,27.4999063 103.314731,27.5328947 103.210947,27.5328947 L102.510406,27.5328947 C102.406622,27.5328947 102.321001,27.4999063 102.253541,27.4339286 Z" id="Combined-Shape"></path>
                </g>
            </g>
        </g>
    </g>
</svg>