<?xml version="1.0" encoding="UTF-8"?>
<svg width="192px" height="128px" viewBox="0 0 192 128" version="1.1" xmlns="http://www.w3.org/2000/svg" xmlns:xlink="http://www.w3.org/1999/xlink">
    <!-- Generator: Sketch 53 (72520) - https://sketchapp.com -->
    <title>Provider/SCVMM/scvmm-128</title>
    <desc>Created with Sketch.</desc>
    <g id="Provider/SCVMM/scvmm-128" stroke="none" stroke-width="1" fill="none" fill-rule="evenodd">
        <g id="Group-2" transform="translate(65.000000, 0.000000)">
            <g id="Group">
                <g id="Group-5">
                    <path d="M30.6714597,1.32178009 C30.8831104,3.8793237 31.4237269,6.33176277 32.3610374,8.92434122 C29.4414664,8.10162644 22.3287917,6.97084665 19.8857373,6.63982778 C24.1030297,3.92885572 29.9615226,1.64917467 30.6714597,1.32178009 M16.3046065,12.4858143 C14.7686268,11.2052304 16.3977328,9.39549947 17.3604414,8.52566886 C17.7377845,8.18377711 18.1622954,7.84309345 18.619461,7.50603409 C19.8167996,9.11401262 22.8778742,13.3061129 24.0558618,14.6301884 L26.1856731,14.4658871 C25.1032307,13.4341713 20.4178877,8.4362696 19.0863021,7.17501522 C19.1020248,7.16293424 19.1213757,7.15206136 19.1383077,7.13998038 C21.3249624,8.07384018 28.8040953,9.65886485 32.7347522,9.91256544 C32.7432182,9.93431121 32.7504748,9.95605697 32.7613597,9.98021893 C31.3705119,10.720783 28.8512632,12.0412342 26.1312486,13.9717749 L27.9127433,14.293129 C29.9639414,13.1587249 31.4273552,12.0206966 32.9838953,10.5323197 C33.6998796,12.2550676 34.583975,14.0575499 35.6664175,16.0086283 L37.3959065,16.2115888 C34.2671036,10.3656022 31.9014529,5.08017318 30.9109274,0.664574746 C28.6371936,1.40634696 16.0905369,6.09497555 13.7841484,9.48852302 C12.8903775,10.806558 15.4725167,11.8334414 16.3046065,12.4858143" id="Fill-45" fill="#A4AAB5"></path>
                    <path d="M42.7200719,63.2824721 C39.4352522,62.3063288 36.3487795,60.6053268 33.5658744,58.6397512 C39.3445447,55.5458121 43.1203942,52.5545613 43.5461145,52.0749463 C43.5715126,56.210266 43.2328714,60.0496017 42.7200719,63.2824721 M42.6390399,63.7802085 C40.1669591,65.3736898 31.9053231,68.751532 28.0448133,70.2942733 C30.0657757,66.4114461 31.5158857,62.7472846 32.5318093,59.4491769 C36.799898,62.2616292 41.2663336,63.4383167 42.6426682,63.7560465 C42.6414588,63.7657113 42.6402493,63.7717518 42.6390399,63.7802085 M42.2822572,65.7035006 C41.7488973,68.3142005 40.5975172,72.4628093 39.4074352,76.364966 C35.3969558,75.6364829 31.0647672,74.3136155 27.2514254,72.3383752 C31.4215499,70.4428693 40.0931837,66.2084856 42.5168872,64.4809054 C42.4419023,64.9001154 42.3644986,65.3084525 42.2822572,65.7035006 M20.6321992,82.8053368 C20.5910785,82.8174178 20.5547955,82.831915 20.5221408,82.8488284 C20.3165373,82.795672 20.1169808,82.7449319 19.9258904,82.6953999 C22.4149033,79.5785069 24.5048033,76.5014811 26.2560621,73.5235194 C32.3044359,76.2356995 38.3685324,76.7286036 39.149826,76.8131704 C36.2931456,78.0055632 21.357859,82.5818387 20.6321992,82.8053368 M36.2435588,85.6926912 C32.9780901,85.2746893 26.2633187,84.1729038 21.7690661,83.1448124 C27.9976455,81.5948226 32.1000418,80.9037905 39.1244279,77.2867449 C37.987561,80.9569468 36.8603696,84.2719679 36.2435588,85.6926912 M19.0817063,82.4586127 C18.8023273,82.3716296 18.5495558,82.289479 18.329439,82.2109526 C14.1218221,80.6984138 12.2121275,79.8346237 9.67110907,77.9826093 C11.6134583,77.3918494 20.0843261,75.0082719 24.2084923,73.5790919 C21.8936377,77.6491743 19.8400207,80.8590908 19.0901723,82.4344507 C19.086544,82.4404912 19.0853346,82.4465317 19.0817063,82.4586127 M8.58866664,77.1683513 C11.0389777,73.2915646 14.0057165,69.7445886 16.700333,66.1976127 C17.3643116,67.0650271 18.1020657,67.8865338 18.879731,68.6500518 C20.2681599,70.0103702 21.8271189,71.1435662 23.4501778,72.0907151 C18.709201,73.925816 13.7759243,75.8201138 9.07727752,77.5428617 C8.91763238,77.4220518 8.75556838,77.2976177 8.58866664,77.1683513 M3.10509797,68.628306 C7.00793787,67.5965903 11.149036,66.6385685 15.2381286,65.5561126 C12.2060804,70.4005859 9.57798273,73.962059 8.02748978,76.7104821 C5.73440505,74.7714847 3.25627708,71.695667 3.10509797,68.628306 M24.5785787,62.6941283 C26.7543485,61.8955755 28.8055466,61.0076234 30.7019374,60.0943013 C29.2469896,64.0302848 27.3385045,67.88895 25.4771873,71.3030351 C25.4626742,71.3078675 25.4469515,71.3163242 25.4324383,71.3199485 C24.5048033,70.7618072 23.6207079,70.1601744 22.7970841,69.5126338 C21.0095423,68.1088239 19.3755985,66.5262154 18.1238355,64.7648084 C20.3286316,64.1353893 22.4959353,63.4576463 24.5785787,62.6941283 M34.5975207,45.9124381 C36.573734,47.3271209 41.681169,50.5346213 43.4844335,51.2715611 C41.1490186,53.1271997 37.8484763,55.1314344 33.1486201,57.2866814 C34.4802057,52.2622015 34.771679,48.2682293 34.5975207,45.9124381 M44.511242,41.9039687 C44.4398854,41.5415393 43.1349074,42.3594217 42.798685,42.43674 C43.2304526,45.2395275 43.4554071,48.0169449 43.5231353,50.6940902 C41.1405526,49.3591419 36.5507548,46.1480172 35.3255993,45.0136131 L34.5539811,45.4388636 C34.5406773,45.3156376 34.5249547,45.1960359 34.5080226,45.0824747 L33.2647257,45.5270548 C32.8680317,45.8532413 33.0155825,45.4775228 33.0748447,45.9957969 C33.4727481,49.4702869 32.8559373,53.3035821 31.6912535,57.1537906 C29.231267,54.9357225 26.9926067,51.812789 26.3806337,48.855365 C26.1157679,48.9604695 25.8521115,49.0667821 25.5884552,49.1730948 C25.2812592,49.2914884 25.1155669,49.2298754 25.2111121,49.5838481 C26.2379206,53.4799644 29.0051031,56.5980655 30.9474523,58.2640327 C28.6688807,59.240176 26.1012547,60.2477297 23.2095007,61.2842779 C22.176645,61.655164 20.8220802,62.1311546 19.2510269,62.6675502 C20.6914615,60.4494821 24.0089358,53.5560746 25.1820857,49.3011532 L23.4163137,50.0610468 C21.4582419,55.0794862 18.3874918,60.3008861 17.1333099,62.4368034 C17.0631628,62.5564051 16.9954346,62.6675502 16.9264969,62.7859438 C15.6517546,60.2404812 15.2127305,57.3652078 16.1718108,54.1468345 L16.1355278,54.2011989 C16.3096861,53.6648034 14.6055952,55.027538 14.4399029,55.1060644 C13.942826,55.3428516 13.979109,55.7391078 13.8811449,56.2634223 C13.7372224,57.0535185 13.6610281,57.8629442 13.6694942,58.6832427 C13.6924734,60.497806 14.2959804,62.3075369 15.2490135,64.0133714 C11.5106565,65.2504638 7.1929811,66.6192389 3.1244489,67.7935103 C3.13775266,67.6473304 3.15468472,67.4999424 3.18250168,67.3525545 C3.75335399,64.1728404 6.7442815,60.2030301 10.0968294,58.0876504 L10.90594,57.0366051 L6.30162907,60.484517 C4.0919952,62.4851274 1.64410305,65.6008123 1.03454888,68.4193051 C0.13352139,72.6029487 3.10388854,75.9252183 6.22301593,78.3039634 C9.67110907,80.9267443 13.2836851,82.2326983 17.4417153,83.5205309 C21.9952301,84.9315894 31.2171558,86.2580811 35.9327346,86.318486 C36.2399305,86.3233184 36.7297508,86.2725783 36.7297508,86.2725783 C36.7297508,86.2725783 36.9559148,85.8159172 36.9813129,85.7857148 C37.3888918,85.0076996 42.8555284,74.0200477 44.3286176,64.7321898 C45.3251903,58.4669932 46.0496406,49.9849367 44.511242,41.9039687" id="Fill-47" fill="#A4AAB5"></path>
                    <polyline id="Fill-49" fill="#727272" points="40.6692366 83.9858903 39.9701844 83.9858903 39.9701844 86.3163114 39.6859676 86.3163114 39.6859676 83.9858903 38.985706 83.9858903 38.985706 83.7080277 40.6692366 83.7080277"></polyline>
                    <path d="M43.5236191,86.3153449 L43.2406118,86.3153449 L43.2406118,84.5636028 C43.2406118,84.4258796 43.2478684,84.2567458 43.2648005,84.0574097 L43.2575439,84.0574097 C43.2297269,84.1745952 43.2055382,84.259162 43.1837685,84.3123184 L42.3565164,86.3153449 L42.218641,86.3153449 L41.3901795,84.3256074 C41.3647814,84.2688268 41.3418022,84.1794276 41.3176135,84.0574097 L41.3091475,84.0574097 C41.318823,84.1625142 41.3236607,84.3316479 41.3236607,84.5660189 L41.3236607,86.3153449 L41.0491194,86.3153449 L41.0491194,83.7058531 L41.4252531,83.7058531 L42.1690543,85.5252488 C42.2258976,85.662972 42.2621806,85.7656603 42.2779032,85.8369381 L42.291207,85.8369381 C42.3407937,85.6943825 42.3782862,85.5880699 42.4073125,85.5180002 L43.1668364,83.7070612 L43.5236191,83.7070612" id="Fill-51" fill="#727272"></path>
                    <path d="M52.7379254,38.1682879 C57.1293761,33.7816838 59.2446742,31.0235959 61.6381419,25.4240614 C66.7117128,28.400815 70.2420474,32.0033634 72.0561967,34.2697554 C72.1505325,34.3893571 72.3246908,34.5439937 72.529085,34.6913816 C70.1017532,34.8399777 63.1729122,35.4089919 52.7379254,38.1682879 L52.7379254,38.1682879 Z M51.2273437,38.576625 L51.2539512,38.5524631 C49.4797132,35.5563798 47.3208755,33.1945481 44.9431305,31.283337 C49.7288564,28.9976154 55.0261724,26.8689467 60.7226012,25.186066 C58.8685406,28.5771973 55.8256075,32.2401507 51.2539512,38.5524631 L51.2733021,38.564544 C51.2575795,38.5669602 51.2430663,38.5717926 51.2273437,38.576625 L51.2273437,38.576625 Z M33.3144333,44.673896 C37.6599257,40.5337439 40.762121,36.5748065 42.9306342,32.9178937 C45.4861658,34.6635954 47.9255919,36.6702463 50.0300051,38.9112682 C45.1112416,40.3150781 39.5091485,42.1815896 33.3144333,44.673896 L33.3144333,44.673896 Z M31.9804289,45.2127077 C32.0021987,42.7542281 31.4265086,40.8345603 30.5944188,39.3546402 C33.4631936,37.4893368 36.7709925,35.4995992 40.4512968,33.5473128 C38.2658515,36.9879761 35.4660144,40.8840923 31.9888949,45.2102915 L31.9804289,45.2127077 Z M18.9403236,51.2024579 C23.4140158,47.8487777 26.825826,44.3754957 29.3426558,40.9251677 C30.4722661,42.4642846 31.0153014,44.120587 31.1410825,45.5582237 C26.3795452,47.5250074 22.5746694,49.1668127 18.9403236,51.2024579 L18.9403236,51.2024579 Z M20.9165369,46.275834 C22.5033128,45.0351173 24.7262505,43.3449881 27.5067367,41.4253203 C24.8217957,45.0169958 21.3156498,48.3501384 17.0040215,51.1505097 C18.508556,49.5207854 19.8062775,47.8934773 20.9165369,46.275834 L20.9165369,46.275834 Z M25.275333,37.5461174 C26.3481,38.0945939 27.2491275,38.7324697 27.9977664,39.4271261 C25.8764211,41.0326884 24.0138945,42.5863025 22.3847884,44.009442 C23.7502381,41.9194324 24.6790826,39.7363992 25.275333,37.5461174 L25.275333,37.5461174 Z M22.581926,14.6828615 C26.1207266,15.5490678 29.8663402,16.2582213 32.0433194,16.6460208 C30.4686378,17.5061866 26.842758,19.8547293 25.1302011,22.1150808 C24.2884358,18.6369664 23.1588255,15.9392835 22.581926,14.6828615 L22.581926,14.6828615 Z M16.6992445,12.9456164 C18.1046055,13.4832201 19.8945661,14.0051184 21.7824908,14.4847334 C22.6169995,17.0640228 23.2833971,19.4041087 23.8010343,21.5364018 C22.1646716,18.2648722 19.7216172,15.3569802 16.6992445,12.9456164 L16.6992445,12.9456164 Z M33.0157034,16.8163626 C33.8465838,19.5019646 34.1380571,22.4001919 33.8949611,25.382986 C31.2958899,24.4430857 28.6992375,23.6940649 26.2452982,22.9752466 C27.8586816,20.9516823 30.2666625,18.9583205 32.9467657,16.8054898 C32.9685355,16.8103222 32.9927242,16.8127384 33.0157034,16.8163626 L33.0157034,16.8163626 Z M45.3132169,19.2688017 C41.717573,20.9625552 38.6625455,22.5934876 35.2628297,25.1884822 C35.3644221,22.1211213 34.8141301,19.3243742 33.8006254,16.9528777 C37.6611351,17.6306207 41.5131788,18.3397743 45.3132169,19.2688017 L45.3132169,19.2688017 Z M34.9290262,28.3718206 C36.7988095,29.2440675 38.7339021,30.2685346 40.644806,31.4379735 C37.5039088,33.0532007 34.6677887,34.7650756 32.1183042,36.4781587 C33.5768803,33.6898683 34.4815361,30.9619829 34.9290262,28.3718206 L34.9290262,28.3718206 Z M33.411188,28.6931747 C32.7520471,31.8366459 31.5232632,35.0115276 29.7320932,38.07164 C28.5674093,36.5953442 27.1971218,35.7243055 26.2525548,35.2652282 C27.5285065,33.9411527 29.9836552,31.5213323 33.411188,28.6931747 L33.411188,28.6931747 Z M25.7409647,25.1546555 C27.6325177,25.5412469 30.0151005,26.2842272 32.6141717,27.3558102 C30.6270735,29.0809742 28.4646075,31.1758163 25.9925267,33.8070538 C26.3420528,30.7795601 26.166685,27.8245522 25.7409647,25.1546555 L25.7409647,25.1546555 Z M42.7504287,29.6850232 C40.7149531,28.3367858 38.5621626,27.2543299 36.375508,26.3458402 C39.2914506,24.1277721 42.7044702,21.7961429 46.5311158,19.630023 C46.3206745,22.0486354 45.1088228,25.4228533 42.7504287,29.6850232 L42.7504287,29.6850232 Z M56.4399994,22.8798068 C57.637338,23.3545894 58.7705766,23.880112 59.8469718,24.4358372 C54.2436693,25.7248778 49.2245229,27.4778281 44.7508306,29.4711899 C46.4452461,25.8118608 47.2047699,22.5354989 47.3958603,19.801573 C50.456935,20.6267039 53.4817266,21.6161363 56.4399994,22.8798068 L56.4399994,22.8798068 Z M73.4349502,34.7131274 C69.1136465,27.3751397 62.4581374,20.6254959 42.6355325,16.6895124 C38.437591,15.8571328 33.4752879,15.1963031 24.8048636,13.568995 C21.7607211,12.9987728 12.6428066,11.498315 13.7845112,9.48924788 C13.1640722,10.2757197 13.6454264,11.0416539 14.0312355,11.474153 C18.5557239,17.0108664 25.06852,20.258234 25.06852,31.529789 C25.06852,41.8892299 16.3896296,51.4899852 7.69985442,59.2532234 C7.23785106,59.654312 6.7685911,60.0650653 6.29086512,60.4975644 C16.7802765,53.6234864 23.3293555,50.8037855 31.464001,47.3957409 C41.6861277,43.1142413 61.9985529,36.9734789 73.727633,35.2120719 L73.4349502,34.7131274 Z" id="Fill-53" fill="#0056B8"></path>
                </g>
            </g>
        </g>
        <g id="Group-6" transform="translate(27.000000, 88.000000)" fill="#202234">
            <g id="Group-3">
                <path d="M7.91402565,27.1212671 L4.51406803,36.5150123 L3.32952535,36.5150123 L0,27.1212671 L1.19734854,27.1212671 L3.73931309,34.5694458 C3.82041732,34.8096404 3.88231172,35.0869518 3.92499816,35.4013884 L3.95060989,35.4013884 C3.98475904,35.1393579 4.0551906,34.8576794 4.16190669,34.5563443 L6.75509471,27.1212671 L7.91402565,27.1212671 Z M9.30218154,28.1038764 C9.11436122,28.1038764 8.95428949,28.0383698 8.82196154,27.9073546 C8.68963359,27.7763393 8.6234706,27.6103892 8.6234706,27.4094992 C8.6234706,27.2086091 8.68963359,27.0415672 8.82196154,26.9083684 C8.95428949,26.7751696 9.11436122,26.7085712 9.30218154,26.7085712 C9.4942705,26.7085712 9.65754367,26.7751696 9.79200594,26.9083684 C9.92646822,27.0415672 9.99369835,27.2086091 9.99369835,27.4094992 C9.99369835,27.6016548 9.92646822,27.7654214 9.79200594,27.9008038 C9.65754367,28.0361862 9.4942705,28.1038764 9.30218154,28.1038764 Z M9.81441621,36.5150123 L8.76433514,36.5150123 L8.76433514,29.8070659 L9.81441621,29.8070659 L9.81441621,36.5150123 Z M15.0315263,30.8944869 C14.8479746,30.7503702 14.5833227,30.6783129 14.2375625,30.6783129 C13.7893549,30.6783129 13.4147871,30.8944847 13.1138477,31.326835 C12.8129083,31.7591853 12.6624409,32.348745 12.6624409,33.0955318 L12.6624409,36.5150123 L11.6123598,36.5150123 L11.6123598,29.8070659 L12.6624409,29.8070659 L12.6624409,31.1892697 L12.6880526,31.1892697 C12.8374552,30.7176149 13.0658242,30.3496859 13.3731665,30.0854719 C13.6805089,29.8212578 14.0241295,29.6891528 14.4040388,29.6891528 C14.677232,29.6891528 14.8863924,29.7197226 15.0315263,29.780863 L15.0315263,30.8944869 Z M19.2625846,36.449505 C19.0150032,36.5892545 18.6884569,36.6591283 18.2829358,36.6591283 C17.1346706,36.6591283 16.5605467,36.004062 16.5605467,34.6939096 L16.5605467,30.724168 L15.4336304,30.724168 L15.4336304,29.8070659 L16.5605467,29.8070659 L16.5605467,28.1693837 L17.6106278,27.8221951 L17.6106278,29.8070659 L19.2625846,29.8070659 L19.2625846,30.724168 L17.6106278,30.724168 L17.6106278,34.5039385 C17.6106278,34.9537575 17.6853279,35.27474 17.8347304,35.4668956 C17.984133,35.6590513 18.2317106,35.7551277 18.5774707,35.7551277 C18.8421266,35.7551277 19.0704956,35.6808869 19.2625846,35.5324029 L19.2625846,36.449505 Z M25.6386256,36.5150123 L24.5885445,36.5150123 L24.5885445,35.4537942 L24.5629328,35.4537942 C24.1275311,36.2660886 23.4530955,36.6722297 22.5396058,36.6722297 C20.9772823,36.6722297 20.1961322,35.7202 20.1961322,33.816112 L20.1961322,29.8070659 L21.2398103,29.8070659 L21.2398103,33.645793 C21.2398103,35.0607575 21.7691142,35.7682292 22.8277378,35.7682292 C23.339975,35.7682292 23.7614973,35.5749846 24.0923172,35.1884897 C24.423137,34.8019947 24.5885445,34.2965019 24.5885445,33.6719959 L24.5885445,29.8070659 L25.6386256,29.8070659 L25.6386256,36.5150123 Z M32.1235164,36.5150123 L31.0734353,36.5150123 L31.0734353,35.4668956 L31.0478236,35.4668956 C30.5910787,36.2704557 29.9187775,36.6722297 29.0308996,36.6722297 C28.3777971,36.6722297 27.8666347,36.4953618 27.4973971,36.1416207 C27.1281594,35.7878796 26.9435433,35.3184154 26.9435433,34.733214 C26.9435433,33.479835 27.6649333,32.7505278 29.1077348,32.5452706 L31.0734353,32.2635892 C31.0734353,31.1237567 30.6231002,30.553849 29.7224164,30.553849 C28.9327173,30.553849 28.2198646,30.8289769 27.5838367,31.3792408 L27.5838367,30.2787184 C28.2284018,29.8594697 28.9711347,29.6498484 29.8120575,29.6498484 C31.3530378,29.6498484 32.1235164,30.4839662 32.1235164,32.1522268 L32.1235164,36.5150123 Z M31.0734353,33.1217347 L29.4919108,33.3444595 C29.0052854,33.4143343 28.6381876,33.5377051 28.3906063,33.7145757 C28.1430249,33.8914462 28.0192361,34.2047863 28.0192361,34.6546053 C28.0192361,34.9821433 28.1334206,35.2496288 28.3617931,35.4570695 C28.5901655,35.6645103 28.8943018,35.7682292 29.2742111,35.7682292 C29.7949856,35.7682292 30.225045,35.5815353 30.5644021,35.2081419 C30.9037593,34.8347484 31.0734353,34.3620089 31.0734353,33.7899091 L31.0734353,33.1217347 Z M34.8242737,36.5150123 L33.7741926,36.5150123 L33.7741926,26.5841073 L34.8242737,26.5841073 L34.8242737,36.5150123 Z M49.3883858,36.5150123 L48.3190959,36.5150123 L48.3190959,30.2132111 C48.3190959,29.7153532 48.348976,29.1061415 48.408737,28.3855578 L48.3831252,28.3855578 C48.2806778,28.8091737 48.1889033,29.1126877 48.1077991,29.2961091 L44.9703617,36.5150123 L44.4453212,36.5150123 L41.3142868,29.3485149 C41.2246453,29.1388905 41.1328708,28.817908 41.0389607,28.3855578 L41.0133489,28.3855578 C41.0474981,28.7611348 41.0645724,29.3747136 41.0645724,30.2263126 L41.0645724,36.5150123 L40.0272972,36.5150123 L40.0272972,27.1212671 L41.4487484,27.1212671 L44.2660391,33.6719959 C44.4837399,34.174221 44.624603,34.5497924 44.6886327,34.7987213 L44.7270503,34.7987213 C44.910602,34.2833947 45.057868,33.8990891 45.1688527,33.645793 L48.0437698,27.1212671 L49.3883858,27.1212671 L49.3883858,36.5150123 Z M56.026947,36.5150123 L54.976866,36.5150123 L54.976866,35.4668956 L54.9512542,35.4668956 C54.4945094,36.2704557 53.8222081,36.6722297 52.9343302,36.6722297 C52.2812277,36.6722297 51.7700653,36.4953618 51.4008277,36.1416207 C51.03159,35.7878796 50.8469739,35.3184154 50.8469739,34.733214 C50.8469739,33.479835 51.5683639,32.7505278 53.0111654,32.5452706 L54.976866,32.2635892 C54.976866,31.1237567 54.5265308,30.553849 53.625847,30.553849 C52.836148,30.553849 52.1232952,30.8289769 51.4872673,31.3792408 L51.4872673,30.2787184 C52.1318325,29.8594697 52.8745653,29.6498484 53.7154881,29.6498484 C55.2564684,29.6498484 56.026947,30.4839662 56.026947,32.1522268 L56.026947,36.5150123 Z M54.976866,33.1217347 L53.3953414,33.3444595 C52.908716,33.4143343 52.5416182,33.5377051 52.2940369,33.7145757 C52.0464555,33.8914462 51.9226667,34.2047863 51.9226667,34.6546053 C51.9226667,34.9821433 52.0368512,35.2496288 52.2652237,35.4570695 C52.4935961,35.6645103 52.7977324,35.7682292 53.1776417,35.7682292 C53.6984162,35.7682292 54.1284756,35.5815353 54.4678328,35.2081419 C54.8071899,34.8347484 54.976866,34.3620089 54.976866,33.7899091 L54.976866,33.1217347 Z M62.1468707,36.207128 C61.6431707,36.5171974 61.0455696,36.6722297 60.3540493,36.6722297 C59.4192164,36.6722297 58.664745,36.3610732 58.0906124,35.7387509 C57.5164798,35.1164285 57.2294179,34.3096052 57.2294179,33.3182566 C57.2294179,32.2133615 57.5388899,31.3257466 58.1578432,30.6553853 C58.7767965,29.985024 59.6027667,29.6498484 60.6357784,29.6498484 C61.2120453,29.6498484 61.7200063,29.7590261 62.1596766,29.9773849 L62.1596766,31.0779073 C61.6730512,30.7285334 61.1522845,30.553849 60.5973608,30.553849 C59.9271838,30.553849 59.3776042,30.7994989 58.9486055,31.290806 C58.5196068,31.7821131 58.3051107,32.4273535 58.3051107,33.2265464 C58.3051107,34.0126378 58.5068011,34.6327672 58.9101879,35.0869534 C59.3135747,35.5411395 59.8546171,35.7682292 60.5333315,35.7682292 C61.1053297,35.7682292 61.6431707,35.5738928 62.1468707,35.1852143 L62.1468707,36.207128 Z M68.8494613,36.5150123 L67.7993802,36.5150123 L67.7993802,32.6500822 C67.7993802,31.2525864 67.2914192,30.553849 66.2754821,30.553849 C65.7632448,30.553849 65.3321183,30.7558278 64.9820895,31.1597914 C64.6320607,31.5637551 64.457049,32.0823492 64.457049,32.7155895 L64.457049,36.5150123 L63.4069679,36.5150123 L63.4069679,26.5841073 L64.457049,26.5841073 L64.457049,30.9206898 L64.4826607,30.9206898 C64.9863607,30.073458 65.703482,29.6498484 66.6340463,29.6498484 C68.110997,29.6498484 68.8494613,30.5603906 68.8494613,32.3815024 L68.8494613,36.5150123 Z M71.0379838,28.1038764 C70.8501635,28.1038764 70.6900918,28.0383698 70.5577638,27.9073546 C70.4254359,27.7763393 70.3592729,27.6103892 70.3592729,27.4094992 C70.3592729,27.2086091 70.4254359,27.0415672 70.5577638,26.9083684 C70.6900918,26.7751696 70.8501635,26.7085712 71.0379838,26.7085712 C71.2300728,26.7085712 71.393346,26.7751696 71.5278082,26.9083684 C71.6622705,27.0415672 71.7295007,27.2086091 71.7295007,27.4094992 C71.7295007,27.6016548 71.6622705,27.7654214 71.5278082,27.9008038 C71.393346,28.0361862 71.2300728,28.1038764 71.0379838,28.1038764 Z M71.5502185,36.5150123 L70.5001374,36.5150123 L70.5001374,29.8070659 L71.5502185,29.8070659 L71.5502185,36.5150123 Z M78.7906555,36.5150123 L77.7405744,36.5150123 L77.7405744,32.6893866 C77.7405744,31.2656878 77.2326135,30.553849 76.2166763,30.553849 C75.6916331,30.553849 75.2573052,30.7558278 74.9136794,31.1597914 C74.5700535,31.5637551 74.3982432,32.073615 74.3982432,32.6893866 L74.3982432,36.5150123 L73.3481621,36.5150123 L73.3481621,29.8070659 L74.3982432,29.8070659 L74.3982432,30.9206898 L74.423855,30.9206898 C74.9190176,30.073458 75.636139,29.6498484 76.5752406,29.6498484 C77.2923727,29.6498484 77.8408852,29.8867641 78.2207944,30.3606025 C78.6007037,30.8344409 78.7906555,31.5189852 78.7906555,32.414256 L78.7906555,36.5150123 Z M85.7109458,33.429619 L81.081625,33.429619 C81.0986996,34.1764058 81.2950542,34.7528642 81.6706949,35.1590114 C82.0463355,35.5651586 82.5628336,35.7682292 83.2202048,35.7682292 C83.9586801,35.7682292 84.6373842,35.519304 85.2563376,35.0214461 L85.2563376,36.0302583 C84.6800707,36.4582414 83.9181292,36.6722297 82.9704904,36.6722297 C82.0441947,36.6722297 81.3164019,36.3676239 80.7870901,35.7584031 C80.2577783,35.1491822 79.9931263,34.2921371 79.9931263,33.187242 C79.9931263,32.1434873 80.2823226,31.2929929 80.8607238,30.6357331 C81.439125,29.9784734 82.1573135,29.6498484 83.0153109,29.6498484 C83.8733082,29.6498484 84.5370724,29.9337105 85.0066232,30.5014432 C85.476174,31.0691758 85.7109458,31.857439 85.7109458,32.8662563 L85.7109458,33.429619 Z M84.635253,32.5190677 C84.6309844,31.8989289 84.4847855,31.4163634 84.1966521,31.0713566 C83.9085187,30.7263498 83.5083393,30.553849 82.9961021,30.553849 C82.5009394,30.553849 82.0804843,30.735084 81.7347242,31.0975595 C81.3889641,31.460035 81.1755351,31.9338663 81.0944309,32.5190677 L84.635253,32.5190677 Z M99.7372116,36.5150123 L98.6679217,36.5150123 L98.6679217,30.2132111 C98.6679217,29.7153532 98.6978017,29.1061415 98.7575628,28.3855578 L98.731951,28.3855578 C98.6295036,28.8091737 98.5377291,29.1126877 98.4566249,29.2961091 L95.3191875,36.5150123 L94.794147,36.5150123 L91.6631126,29.3485149 C91.5734711,29.1388905 91.4816966,28.817908 91.3877864,28.3855578 L91.3621747,28.3855578 C91.3963239,28.7611348 91.4133982,29.3747136 91.4133982,30.2263126 L91.4133982,36.5150123 L90.376123,36.5150123 L90.376123,27.1212671 L91.7975742,27.1212671 L94.6148649,33.6719959 C94.8325657,34.174221 94.9734288,34.5497924 95.0374585,34.7987213 L95.0758761,34.7987213 C95.2594277,34.2833947 95.4066937,33.8990891 95.5176785,33.645793 L98.3925956,27.1212671 L99.7372116,27.1212671 L99.7372116,36.5150123 Z M106.375773,36.5150123 L105.325692,36.5150123 L105.325692,35.4668956 L105.30008,35.4668956 C104.843335,36.2704557 104.171034,36.6722297 103.283156,36.6722297 C102.630054,36.6722297 102.118891,36.4953618 101.749653,36.1416207 C101.380416,35.7878796 101.1958,35.3184154 101.1958,34.733214 C101.1958,33.479835 101.91719,32.7505278 103.359991,32.5452706 L105.325692,32.2635892 C105.325692,31.1237567 104.875357,30.553849 103.974673,30.553849 C103.184974,30.553849 102.472121,30.8289769 101.836093,31.3792408 L101.836093,30.2787184 C102.480658,29.8594697 103.223391,29.6498484 104.064314,29.6498484 C105.605294,29.6498484 106.375773,30.4839662 106.375773,32.1522268 L106.375773,36.5150123 Z M105.325692,33.1217347 L103.744167,33.3444595 C103.257542,33.4143343 102.890444,33.5377051 102.642863,33.7145757 C102.395281,33.8914462 102.271493,34.2047863 102.271493,34.6546053 C102.271493,34.9821433 102.385677,35.2496288 102.614049,35.4570695 C102.842422,35.6645103 103.146558,35.7682292 103.526467,35.7682292 C104.047242,35.7682292 104.477301,35.5815353 104.816659,35.2081419 C105.156016,34.8347484 105.325692,34.3620089 105.325692,33.7899091 L105.325692,33.1217347 Z M113.468942,36.5150123 L112.418861,36.5150123 L112.418861,32.6893866 C112.418861,31.2656878 111.9109,30.553849 110.894963,30.553849 C110.36992,30.553849 109.935592,30.7558278 109.591966,31.1597914 C109.24834,31.5637551 109.07653,32.073615 109.07653,32.6893866 L109.07653,36.5150123 L108.026449,36.5150123 L108.026449,29.8070659 L109.07653,29.8070659 L109.07653,30.9206898 L109.102142,30.9206898 C109.597304,30.073458 110.314426,29.6498484 111.253527,29.6498484 C111.97066,29.6498484 112.519172,29.8867641 112.899081,30.3606025 C113.278991,30.8344409 113.468942,31.5189852 113.468942,32.414256 L113.468942,36.5150123 Z M119.812969,36.5150123 L118.762888,36.5150123 L118.762888,35.4668956 L118.737276,35.4668956 C118.280531,36.2704557 117.60823,36.6722297 116.720352,36.6722297 C116.067249,36.6722297 115.556087,36.4953618 115.186849,36.1416207 C114.817612,35.7878796 114.632996,35.3184154 114.632996,34.733214 C114.632996,33.479835 115.354386,32.7505278 116.797187,32.5452706 L118.762888,32.2635892 C118.762888,31.1237567 118.312552,30.553849 117.411869,30.553849 C116.62217,30.553849 115.909317,30.8289769 115.273289,31.3792408 L115.273289,30.2787184 C115.917854,29.8594697 116.660587,29.6498484 117.50151,29.6498484 C119.04249,29.6498484 119.812969,30.4839662 119.812969,32.1522268 L119.812969,36.5150123 Z M118.762888,33.1217347 L117.181363,33.3444595 C116.694738,33.4143343 116.32764,33.5377051 116.080059,33.7145757 C115.832477,33.8914462 115.708688,34.2047863 115.708688,34.6546053 C115.708688,34.9821433 115.822873,35.2496288 116.051245,35.4570695 C116.279618,35.6645103 116.583754,35.7682292 116.963663,35.7682292 C117.484438,35.7682292 117.914497,35.5815353 118.253854,35.2081419 C118.593212,34.8347484 118.762888,34.3620089 118.762888,33.7899091 L118.762888,33.1217347 Z M127.059809,35.9778525 C127.059809,38.4409389 125.907292,39.6724636 123.602225,39.6724636 C122.791182,39.6724636 122.082598,39.5152476 121.476451,39.2008111 L121.476451,38.1264916 C122.214926,38.5457403 122.919242,38.7553615 123.589419,38.7553615 C125.202966,38.7553615 126.009728,37.8775726 126.009728,36.1219685 L126.009728,35.3882869 L125.984116,35.3882869 C125.484684,36.2442531 124.733414,36.6722297 123.730283,36.6722297 C122.914972,36.6722297 122.258678,36.3741746 121.761381,35.7780553 C121.264084,35.181936 121.015439,34.3816633 121.015439,33.3772131 C121.015439,32.2373806 121.283293,31.3312055 121.819008,30.6586607 C122.354722,29.9861158 123.087851,29.6498484 124.018415,29.6498484 C124.902024,29.6498484 125.557251,30.0123185 125.984116,30.7372694 L126.009728,30.7372694 L126.009728,29.8070659 L127.059809,29.8070659 L127.059809,35.9778525 Z M126.009728,33.4820248 L126.009728,32.4928647 C126.009728,31.9600695 125.833649,31.5037066 125.481486,31.1237624 C125.129322,30.7438182 124.690726,30.553849 124.165683,30.553849 C123.516849,30.553849 123.008888,30.7951318 122.641785,31.2777045 C122.274681,31.7602773 122.091132,32.4360874 122.091132,33.3051551 C122.091132,34.0519419 122.267211,34.6491441 122.619374,35.0967795 C122.971537,35.5444148 123.43788,35.7682292 124.018415,35.7682292 C124.607488,35.7682292 125.086636,35.5542408 125.455874,35.1262577 C125.825111,34.6982746 126.009728,34.1502025 126.009728,33.4820248 Z M134.127366,33.429619 L129.498046,33.429619 C129.51512,34.1764058 129.711475,34.7528642 130.087115,35.1590114 C130.462756,35.5651586 130.979254,35.7682292 131.636625,35.7682292 C132.375101,35.7682292 133.053805,35.519304 133.672758,35.0214461 L133.672758,36.0302583 C133.096491,36.4582414 132.33455,36.6722297 131.386911,36.6722297 C130.460615,36.6722297 129.732822,36.3676239 129.203511,35.7584031 C128.674199,35.1491822 128.409547,34.2921371 128.409547,33.187242 C128.409547,32.1434873 128.698743,31.2929929 129.277144,30.6357331 C129.855546,29.9784734 130.573734,29.6498484 131.431731,29.6498484 C132.289729,29.6498484 132.953493,29.9337105 133.423044,30.5014432 C133.892595,31.0691758 134.127366,31.857439 134.127366,32.8662563 L134.127366,33.429619 Z M133.051674,32.5190677 C133.047405,31.8989289 132.901206,31.4163634 132.613073,31.0713566 C132.324939,30.7263498 131.92476,30.553849 131.412523,30.553849 C130.91736,30.553849 130.496905,30.735084 130.151145,31.0975595 C129.805385,31.460035 129.591956,31.9338663 129.510851,32.5190677 L133.051674,32.5190677 Z M138.80663,30.8944869 C138.623078,30.7503702 138.358426,30.6783129 138.012666,30.6783129 C137.564459,30.6783129 137.189891,30.8944847 136.888951,31.326835 C136.588012,31.7591853 136.437545,32.348745 136.437545,33.0955318 L136.437545,36.5150123 L135.387464,36.5150123 L135.387464,29.8070659 L136.437545,29.8070659 L136.437545,31.1892697 L136.463156,31.1892697 C136.612559,30.7176149 136.840928,30.3496859 137.14827,30.0854719 C137.455613,29.8212578 137.799233,29.6891528 138.179143,29.6891528 C138.452336,29.6891528 138.661496,29.7197226 138.80663,29.780863 L138.80663,30.8944869 Z" id="Virtual-Machine-Mana"></path>
                <path d="M0,21.5175116 L0,19.8054131 C0.191576724,19.9783532 0.421183619,20.133997 0.688827572,20.2723491 C0.956471525,20.4107012 1.23819778,20.527434 1.53401478,20.622551 C1.82983178,20.7176681 2.12705297,20.7911665 2.42568728,20.8430486 C2.72432158,20.8949306 3.00041331,20.9208712 3.25397074,20.9208712 C4.12733522,20.9208712 4.77953149,20.7551394 5.21057912,20.4236709 C5.64162675,20.0922024 5.85714733,19.6151831 5.85714733,18.9925987 C5.85714733,18.6582478 5.78530714,18.3671363 5.64162459,18.1192555 C5.49794205,17.8713747 5.29932504,17.6451148 5.04576761,17.440469 C4.79221019,17.2358232 4.49217173,17.0398274 4.14564324,16.8524756 C3.79911475,16.6651238 3.42582747,16.4676868 3.02577019,16.2601587 C2.60317448,16.0411012 2.20875773,15.8191647 1.84250811,15.5943426 C1.47625849,15.3695205 1.15790782,15.1216434 0.887446565,14.8507039 C0.616985307,14.5797644 0.404281988,14.2728003 0.249330226,13.9298024 C0.0943784632,13.5868045 0.0169037441,13.1847248 0.0169037441,12.7235512 C0.0169037441,12.1586135 0.138046032,11.6671827 0.380334242,11.2492441 C0.622622453,10.8313056 0.940973116,10.4868717 1.33539578,10.2159322 C1.72981845,9.94499268 2.17917182,9.74323225 2.68346938,9.61064483 C3.18776693,9.47805742 3.70191734,9.41176471 4.22593603,9.41176471 C5.42047325,9.41176471 6.29100736,9.55876159 6.83756449,9.85275977 L6.83756449,11.4870356 C6.12196908,10.9797446 5.2035415,10.7261029 4.0822542,10.7261029 C3.77235068,10.7261029 3.4624518,10.7592493 3.15254828,10.825543 C2.84264475,10.8918367 2.56655302,10.9999227 2.32426481,11.1498041 C2.0819766,11.2996855 1.88476823,11.4927991 1.73263377,11.7291505 C1.58049931,11.965502 1.50443323,12.2537312 1.50443323,12.5938467 C1.50443323,12.9109036 1.56218711,13.1847213 1.6776966,13.4153081 C1.7932061,13.645895 1.96365048,13.8563023 2.18903486,14.0465364 C2.41441924,14.2367705 2.68910234,14.4212372 3.01309239,14.599942 C3.33708244,14.7786467 3.71036972,14.9746426 4.13296543,15.1879354 C4.56683037,15.4069928 4.97815069,15.6375762 5.36693875,15.8796923 C5.75572681,16.1218085 6.09661558,16.3898616 6.38961527,16.6838598 C6.68261497,16.977858 6.91503912,17.303557 7.08689472,17.6609665 C7.25875031,18.0183761 7.34467681,18.4276615 7.34467681,18.8888351 C7.34467681,19.4998902 7.22776042,20.0172616 6.99392412,20.4409648 C6.76008783,20.8646681 6.44455443,21.209102 6.04731445,21.4742768 C5.65007448,21.7394516 5.19226932,21.931124 4.67388524,22.0492998 C4.15550117,22.1674755 3.60895224,22.2265625 3.03422207,22.2265625 C2.84264534,22.2265625 2.60599529,22.2107099 2.32426481,22.1790042 C2.04253434,22.1472985 1.75517356,22.1011819 1.46217386,22.0406528 C1.16917417,21.9801238 0.891673812,21.9051842 0.629664468,21.8158318 C0.367655124,21.7264794 0.157769067,21.6270403 0,21.5175116 Z M15.634273,13.1645462 L11.6534412,23.4371372 C10.9434804,25.2703023 9.94616949,26.1868711 8.66147852,26.1868711 C8.30086351,26.1868711 7.99941642,26.1494013 7.75712821,26.0744606 L7.75712821,24.8033572 C8.05576251,24.9071213 8.32903698,24.9590025 8.5769598,24.9590025 C9.27565138,24.9590025 9.79966221,24.5324233 10.149008,23.6792521 L10.8420615,22.0017415 L7.46131268,13.1645462 L8.9995534,13.1645462 L11.340722,19.9783524 C11.368895,20.0648224 11.4280575,20.2896412 11.5182113,20.6528154 L11.5689225,20.6528154 C11.5970955,20.5144633 11.6534408,20.2954091 11.7379599,19.9956463 L14.1974547,13.1645462 L15.634273,13.1645462 Z M16.1650506,21.6990978 L16.1650506,20.1772325 C16.9200882,20.7479348 17.7511807,21.0332817 18.6583528,21.0332817 C19.8754285,21.0332817 20.4839572,20.6182317 20.4839572,19.7881192 C20.4839572,19.5517677 20.4318378,19.3514484 20.3275975,19.1871553 C20.2233573,19.0228622 20.0824941,18.8773065 19.9050039,18.7504837 C19.7275137,18.623661 19.5190363,18.5098105 19.2795654,18.4089287 C19.0400945,18.308047 18.782315,18.2028434 18.5062191,18.0933146 C18.1230657,17.9376685 17.7864028,17.7805836 17.4962204,17.6220552 C17.206038,17.4635268 16.9637534,17.2848247 16.7693594,17.0859435 C16.5749654,16.8870624 16.4284677,16.6608025 16.3298621,16.407157 C16.2312564,16.1535115 16.1819543,15.8566355 16.1819543,15.5165199 C16.1819543,15.1014637 16.274924,14.7339715 16.4608661,14.4140323 C16.6468082,14.0940931 16.8947273,13.8260399 17.2046308,13.6098648 C17.5145343,13.3936897 17.8681008,13.2308402 18.2653408,13.1213114 C18.6625807,13.0117827 19.0724924,12.9570192 19.4950881,12.9570192 C20.2444912,12.9570192 20.9149997,13.0896046 21.5066337,13.3547794 L21.5066337,14.7901751 C20.8699228,14.3635895 20.1374346,14.1502999 19.309147,14.1502999 C19.0499549,14.1502999 18.8161221,14.180564 18.6076416,14.241093 C18.399161,14.3016221 18.2202649,14.3866497 18.0709477,14.4961784 C17.9216306,14.6057071 17.8061228,14.7368514 17.724421,14.8896152 C17.6427191,15.0423789 17.6018688,15.210993 17.6018688,15.3954625 C17.6018688,15.6260493 17.6427191,15.8191628 17.724421,15.9748089 C17.8061228,16.130455 17.9258565,16.268805 18.0836255,16.3898631 C18.2413946,16.5109212 18.4329684,16.6204483 18.6583528,16.7184477 C18.8837372,16.8164471 19.1401081,16.9230919 19.4274732,17.0383853 C19.8106266,17.1882667 20.1543326,17.3424693 20.4586016,17.5009977 C20.7628705,17.6595262 21.0220586,17.8382283 21.2361738,18.0371094 C21.450289,18.2359905 21.6150988,18.4651327 21.7306083,18.7245429 C21.8461178,18.983953 21.9038717,19.2923582 21.9038717,19.6497678 C21.9038717,20.0878827 21.8094934,20.4683453 21.620734,20.7911668 C21.4319746,21.1139883 21.1798296,21.3820415 20.8642914,21.5953343 C20.5487533,21.8086271 20.1853264,21.9671531 19.7739999,22.0709172 C19.3626734,22.1746812 18.9316323,22.2265625 18.4808635,22.2265625 C17.5905952,22.2265625 16.8186653,22.0507427 16.1650506,21.6990978 Z M27.6156469,21.9325658 C27.2888395,22.1170352 26.8577983,22.2092686 26.3225104,22.2092686 C24.8068005,22.2092686 24.0489568,21.344581 24.0489568,19.61518 L24.0489568,14.3751209 L22.5614274,14.3751209 L22.5614274,13.1645462 L24.0489568,13.1645462 L24.0489568,11.0028057 L25.4350639,10.5445167 L25.4350639,13.1645462 L27.6156469,13.1645462 L27.6156469,14.3751209 L25.4350639,14.3751209 L25.4350639,19.3644181 C25.4350639,19.9581791 25.5336681,20.381876 25.7308794,20.6355215 C25.9280907,20.889167 26.2548932,21.0159878 26.7112965,21.0159878 C27.0606423,21.0159878 27.3620894,20.9179899 27.6156469,20.7219911 L27.6156469,21.9325658 Z M35.8545318,17.9463163 L29.7438283,17.9463163 C29.7663667,18.9320749 30.0255549,19.6929999 30.5214005,20.2291143 C31.0172461,20.7652286 31.6990237,21.0332817 32.5667535,21.0332817 C33.541541,21.0332817 34.4374305,20.7047005 35.2544489,20.0475281 L35.2544489,21.3791602 C34.4937766,21.9440979 33.4880138,22.2265625 32.2371305,22.2265625 C31.0144203,22.2265625 30.0537337,21.8244828 29.3550422,21.0203113 C28.6563506,20.2161398 28.30701,19.0848402 28.30701,17.6263787 C28.30701,16.2486225 28.6887491,15.1259698 29.4522387,14.2583869 C30.2157283,13.3908041 31.1637371,12.9570192 32.2962936,12.9570192 C33.4288502,12.9570192 34.3050188,13.3317171 34.9248258,14.0811242 C35.5446329,14.8305314 35.8545318,15.8710387 35.8545318,17.2026775 L35.8545318,17.9463163 Z M34.4346173,16.7443885 C34.4289827,15.9258054 34.2360002,15.2888189 33.855664,14.8334099 C33.4753279,14.378001 32.9470912,14.1502999 32.270938,14.1502999 C31.6173233,14.1502999 31.0623226,14.3895301 30.6059192,14.8679978 C30.1495159,15.3464654 29.8677896,15.9719227 29.760732,16.7443885 L34.4346173,16.7443885 Z M49.8068822,22.0190354 L48.4207752,22.0190354 L48.4207752,16.9346217 C48.4207752,15.9546278 48.2728689,15.245584 47.9770519,14.807469 C47.6812349,14.3693541 47.1839881,14.1502999 46.4852965,14.1502999 C45.8936625,14.1502999 45.3907811,14.4269999 44.9766373,14.9804083 C44.5624935,15.5338166 44.3554247,16.1967438 44.3554247,16.9692096 L44.3554247,22.0190354 L42.9693177,22.0190354 L42.9693177,16.7616825 C42.9693177,15.0207521 42.3128955,14.1502999 41.0000315,14.1502999 C40.3914937,14.1502999 39.890021,14.4111473 39.4955983,14.93285 C39.1011756,15.4545526 38.9039672,16.1333324 38.9039672,16.9692096 L38.9039672,22.0190354 L37.5178602,22.0190354 L37.5178602,13.1645462 L38.9039672,13.1645462 L38.9039672,14.5653541 L38.9377747,14.5653541 C39.5519472,13.4931254 40.4478366,12.9570192 41.62547,12.9570192 C42.217104,12.9570192 42.7326631,13.1256332 43.1721626,13.4628664 C43.6116622,13.8000996 43.9131093,14.2425314 44.0765129,14.7901751 C44.7188584,13.568065 45.6767277,12.9570192 46.9501494,12.9570192 C48.8546475,12.9570192 49.8068822,14.1589349 49.8068822,16.5628023 L49.8068822,22.0190354 Z M64.7379594,21.5002177 C63.8420565,21.98445 62.7264206,22.2265625 61.3910181,22.2265625 C59.6668276,22.2265625 58.2863689,21.658751 57.2496008,20.523111 C56.2128326,19.3874709 55.6944563,17.897326 55.6944563,16.0526316 C55.6944563,14.069585 56.2776297,12.4670307 57.4439939,11.2449207 C58.610358,10.0228106 60.0894208,9.41176471 61.8812267,9.41176471 C63.030687,9.41176471 63.9829218,9.58181993 64.7379594,9.92193547 L64.7379594,11.4697417 C63.8702296,10.97398 62.9123603,10.7261029 61.8643229,10.7261029 C60.4725744,10.7261029 59.3442607,11.2016811 58.4793482,12.1528517 C57.6144356,13.1040223 57.1819858,14.375113 57.1819858,15.966162 C57.1819858,17.4765056 57.586263,18.6798624 58.3948295,19.5762686 C59.2033959,20.4726748 60.2640953,20.9208712 61.5769593,20.9208712 C62.7940349,20.9208712 63.8476911,20.6441712 64.7379594,20.0907629 L64.7379594,21.5002177 Z M73.5431198,17.9463163 L67.4324163,17.9463163 C67.4549547,18.9320749 67.7141429,19.6929999 68.2099885,20.2291143 C68.7058341,20.7652286 69.3876117,21.0332817 70.2553415,21.0332817 C71.230129,21.0332817 72.1260185,20.7047005 72.9430369,20.0475281 L72.9430369,21.3791602 C72.1823646,21.9440979 71.1766019,22.2265625 69.9257185,22.2265625 C68.7030083,22.2265625 67.7423217,21.8244828 67.0436302,21.0203113 C66.3449386,20.2161398 65.995598,19.0848402 65.995598,17.6263787 C65.995598,16.2486225 66.3773371,15.1259698 67.1408267,14.2583869 C67.9043163,13.3908041 68.8523251,12.9570192 69.9848816,12.9570192 C71.1174382,12.9570192 71.9936068,13.3317171 72.6134138,14.0811242 C73.2332209,14.8305314 73.5431198,15.8710387 73.5431198,17.2026775 L73.5431198,17.9463163 Z M72.1232053,16.7443885 C72.1175707,15.9258054 71.9245882,15.2888189 71.544252,14.8334099 C71.1639159,14.378001 70.6356792,14.1502999 69.959526,14.1502999 C69.3059113,14.1502999 68.7509106,14.3895301 68.2945072,14.8679978 C67.8381039,15.3464654 67.5563776,15.9719227 67.44932,16.7443885 L72.1232053,16.7443885 Z M82.3905395,22.0190354 L81.0044325,22.0190354 L81.0044325,16.9692096 C81.0044325,15.0899271 80.333924,14.1502999 78.9928869,14.1502999 C78.2998299,14.1502999 77.726517,14.4169119 77.2729309,14.9501439 C76.8193449,15.4833759 76.5925552,16.1563911 76.5925552,16.9692096 L76.5925552,22.0190354 L75.2064482,22.0190354 L75.2064482,13.1645462 L76.5925552,13.1645462 L76.5925552,14.6345298 L76.6263627,14.6345298 C77.2799774,13.5161838 78.2265776,12.9570192 79.4661917,12.9570192 C80.4128061,12.9570192 81.1368426,13.2697478 81.6383229,13.8952145 C82.1398031,14.5206813 82.3905395,15.4242798 82.3905395,16.6060372 L82.3905395,22.0190354 Z M88.5840714,21.9325658 C88.257264,22.1170352 87.8262228,22.2092686 87.2909349,22.2092686 C85.775225,22.2092686 85.0173813,21.344581 85.0173813,19.61518 L85.0173813,14.3751209 L83.5298519,14.3751209 L83.5298519,13.1645462 L85.0173813,13.1645462 L85.0173813,11.0028057 L86.4034884,10.5445167 L86.4034884,13.1645462 L88.5840714,13.1645462 L88.5840714,14.3751209 L86.4034884,14.3751209 L86.4034884,19.3644181 C86.4034884,19.9581791 86.5020925,20.381876 86.6993039,20.6355215 C86.8965152,20.889167 87.2233177,21.0159878 87.679721,21.0159878 C88.0290668,21.0159878 88.3305139,20.9179899 88.5840714,20.7219911 L88.5840714,21.9325658 Z M96.8229563,17.9463163 L90.7122528,17.9463163 C90.7347912,18.9320749 90.9939794,19.6929999 91.489825,20.2291143 C91.9856706,20.7652286 92.6674482,21.0332817 93.535178,21.0332817 C94.5099655,21.0332817 95.405855,20.7047005 96.2228733,20.0475281 L96.2228733,21.3791602 C95.4622011,21.9440979 94.4564383,22.2265625 93.205555,22.2265625 C91.9828448,22.2265625 91.0221582,21.8244828 90.3234667,21.0203113 C89.6247751,20.2161398 89.2754345,19.0848402 89.2754345,17.6263787 C89.2754345,16.2486225 89.6571736,15.1259698 90.4206632,14.2583869 C91.1841528,13.3908041 92.1321616,12.9570192 93.2647181,12.9570192 C94.3972746,12.9570192 95.2734433,13.3317171 95.8932503,14.0811242 C96.5130574,14.8305314 96.8229563,15.8710387 96.8229563,17.2026775 L96.8229563,17.9463163 Z M95.4030418,16.7443885 C95.3974072,15.9258054 95.2044247,15.2888189 94.8240885,14.8334099 C94.4437524,14.378001 93.9155157,14.1502999 93.2393625,14.1502999 C92.5857478,14.1502999 92.0307471,14.3895301 91.5743437,14.8679978 C91.1179403,15.3464654 90.8362141,15.9719227 90.7291565,16.7443885 L95.4030418,16.7443885 Z M102.999584,14.599942 C102.757296,14.4097078 102.407956,14.3145922 101.951552,14.3145922 C101.359918,14.3145922 100.865489,14.5999391 100.468249,15.1706414 C100.071009,15.7413438 99.8723917,16.5195626 99.8723917,17.5053212 L99.8723917,22.0190354 L98.4862847,22.0190354 L98.4862847,13.1645462 L99.8723917,13.1645462 L99.8723917,14.9890552 L99.9061992,14.9890552 C100.103411,14.3664709 100.404858,13.8808047 100.81055,13.5320421 C101.216241,13.1832796 101.669821,13.0089009 102.171301,13.0089009 C102.531916,13.0089009 102.808008,13.049253 102.999584,13.1299584 L102.999584,14.599942 Z" id="System-Center"></path>
                <path d="M4.80502962,5.09117784 L4.25616509,5.09117784 L4.25616509,1.906709 C4.25616509,1.65512808 4.27150247,1.3472771 4.30217769,0.983146826 L4.28903123,0.983146826 C4.23644514,1.19721129 4.18933748,1.35058508 4.14770683,1.44327278 L2.53726598,5.09117784 L2.26776364,5.09117784 L0.660609408,1.46975485 C0.614596582,1.36382604 0.56748892,1.20162499 0.519285007,0.983146826 L0.506138551,0.983146826 C0.523667247,1.17293594 0.532431463,1.48299373 0.532431463,1.91332951 L0.532431463,5.09117784 L0,5.09117784 L0,0.344266902 L0.729628301,0.344266902 L2.17573845,3.65452558 C2.28748388,3.90831334 2.35978867,4.09809961 2.39265497,4.22389007 L2.41237465,4.22389007 C2.50659139,3.96348175 2.58218276,3.76928185 2.63915102,3.64128454 L4.11484069,0.344266902 L4.80502962,0.344266902 L4.80502962,5.09117784 Z M6.07957849,0.840805703 C5.98317066,0.840805703 5.90100614,0.807703448 5.83308244,0.741497943 C5.76515875,0.675292439 5.73119741,0.591433391 5.73119741,0.489918284 C5.73119741,0.388403177 5.76515875,0.303992425 5.83308244,0.236683495 C5.90100614,0.169374566 5.98317066,0.135720606 6.07957849,0.135720606 C6.1781774,0.135720606 6.26198522,0.169374566 6.33100446,0.236683495 C6.4000237,0.303992425 6.4345328,0.388403177 6.4345328,0.489918284 C6.4345328,0.587019691 6.4000237,0.66977533 6.33100446,0.738187685 C6.26198522,0.806600039 6.1781774,0.840805703 6.07957849,0.840805703 Z M6.34250761,5.09117784 L5.80350292,5.09117784 L5.80350292,1.70147296 L6.34250761,1.70147296 L6.34250761,5.09117784 Z M9.55944533,4.93559568 C9.30089707,5.09228205 8.9941495,5.17062405 8.63919342,5.17062405 C8.15934538,5.17062405 7.77207657,5.01338834 7.47737538,4.69891219 C7.18267419,4.38443604 7.0353258,3.97672659 7.0353258,3.47577161 C7.0353258,2.91743852 7.19417722,2.46890296 7.51188483,2.13015146 C7.82959243,1.79139996 8.25356139,1.62202675 8.78380443,1.62202675 C9.07960117,1.62202675 9.3403366,1.67719718 9.56601856,1.78753968 L9.56601856,2.34366314 C9.31623465,2.16711513 9.04892605,2.07884245 8.76408475,2.07884245 C8.4200841,2.07884245 8.13798589,2.20297591 7.91778165,2.45124655 C7.69757741,2.69951719 7.58747695,3.02557441 7.58747695,3.42942799 C7.58747695,3.82666101 7.69100425,4.14002904 7.89806197,4.36954145 C8.10511968,4.59905387 8.38283579,4.71380835 8.73121861,4.71380835 C9.02482426,4.71380835 9.30089707,4.61560499 9.55944533,4.41919533 L9.55944533,4.93559568 Z M11.9613028,2.2509759 C11.867086,2.17814984 11.7312407,2.14173736 11.5537627,2.14173736 C11.3236985,2.14173736 11.1314335,2.25097481 10.9769619,2.46945297 C10.8224903,2.68793114 10.7452556,2.98585144 10.7452556,3.36322281 L10.7452556,5.09117784 L10.2062509,5.09117784 L10.2062509,1.70147296 L10.7452556,1.70147296 L10.7452556,2.39993754 L10.7584021,2.39993754 C10.8350901,2.16159772 10.9523115,1.97567339 11.1100698,1.84215895 C11.267828,1.70864452 11.4442079,1.6418883 11.6392146,1.6418883 C11.7794442,1.6418883 11.8868058,1.65733602 11.9613028,1.68823192 L11.9613028,2.2509759 Z M13.6959776,5.17062405 C13.1986009,5.17062405 12.8014723,5.01228493 12.50458,4.69560193 C12.2076878,4.37891893 12.0592439,3.95907199 12.0592439,3.4360485 C12.0592439,2.86668117 12.2137132,2.42200753 12.5226564,2.10201426 C12.8315997,1.78202099 13.2489955,1.62202675 13.7748563,1.62202675 C14.2766153,1.62202675 14.6682662,1.77760735 14.9498208,2.08877322 C15.2313755,2.3999391 15.3721507,2.83137183 15.3721507,3.38308437 C15.3721507,3.92376265 15.2204202,4.3568505 14.9169547,4.6823609 C14.6134892,5.00787129 14.2065009,5.17062405 13.6959776,5.17062405 Z M13.735417,2.07884245 C13.3892252,2.07884245 13.1153435,2.19745886 12.9137635,2.43469526 C12.7121835,2.67193165 12.611395,2.99909227 12.611395,3.41618695 C12.611395,3.81783368 12.713279,4.13451193 12.9170501,4.36623119 C13.1208212,4.59795046 13.3936074,4.71380835 13.735417,4.71380835 C14.0837998,4.71380835 14.3516562,4.60015728 14.5389941,4.37285171 C14.726332,4.14554614 14.8199996,3.82224745 14.8199996,3.40294592 C14.8199996,2.97923069 14.726332,2.65262177 14.5389941,2.42310935 C14.3516562,2.19359693 14.0837998,2.07884245 13.735417,2.07884245 Z M15.8611989,4.96869827 L15.8611989,4.38609274 C16.1548045,4.60457091 16.477985,4.71380835 16.83075,4.71380835 C17.3040248,4.71380835 17.5406586,4.55491753 17.5406586,4.2371311 C17.5406586,4.14665025 17.5203913,4.06996336 17.4798562,4.00706813 C17.4393211,3.9441729 17.3845448,3.88845077 17.3155255,3.83990006 C17.2465063,3.79134936 17.1654373,3.74776472 17.0723161,3.70914485 C16.9791949,3.67052497 16.8789542,3.63025056 16.7715909,3.5883204 C16.622597,3.52873545 16.4916815,3.46859968 16.3788406,3.40791131 C16.2659996,3.34722293 16.1717843,3.2788116 16.0961918,3.20267527 C16.0205993,3.12653894 15.9636319,3.03992137 15.9252878,2.94281996 C15.8869438,2.84571856 15.8677721,2.73206748 15.8677721,2.60186332 C15.8677721,2.44297011 15.9039245,2.30228552 15.9762303,2.17980534 C16.0485362,2.05732515 16.1449426,1.95470816 16.2654524,1.87195128 C16.3859622,1.7891944 16.5234508,1.72685182 16.6779224,1.68492167 C16.8323941,1.64299151 16.9917932,1.62202675 17.1561248,1.62202675 C17.4475393,1.62202675 17.7082748,1.67278354 17.9383389,1.77429865 L17.9383389,2.32380159 C17.6907461,2.16049468 17.405909,2.07884245 17.0838193,2.07884245 C16.9830293,2.07884245 16.8921005,2.09042824 16.8110303,2.11360016 C16.7299601,2.13677209 16.6603941,2.16932264 16.6023303,2.21125279 C16.5442665,2.25318295 16.4993499,2.30338804 16.4675791,2.36186956 C16.4358084,2.42035109 16.4199232,2.48490049 16.4199232,2.5555197 C16.4199232,2.6437937 16.4358084,2.71772207 16.4675791,2.77730703 C16.4993499,2.83689198 16.5459098,2.88985559 16.6072602,2.93619944 C16.6686107,2.9825433 16.7431065,3.02447282 16.83075,3.06198927 C16.9183935,3.09950573 17.0180864,3.14033184 17.1298319,3.18446885 C17.2788258,3.24184695 17.4124801,3.30087931 17.5307988,3.36156768 C17.6491175,3.42225606 17.7499059,3.49066739 17.8331672,3.56680372 C17.9164285,3.64294005 17.9805169,3.73066103 18.0254342,3.82996929 C18.0703514,3.92927754 18.0928097,4.04734226 18.0928097,4.18416697 C18.0928097,4.35188758 18.0561096,4.4975375 17.9827082,4.62112111 C17.9093068,4.74470472 17.8112571,4.84732171 17.6885562,4.92897517 C17.5658554,5.01062862 17.4245324,5.07131609 17.264583,5.11103939 C17.1046337,5.1507627 16.937018,5.17062405 16.7617311,5.17062405 C16.4155394,5.17062405 16.1153649,5.10331613 15.8611989,4.96869827 Z M20.1594326,5.17062405 C19.6620558,5.17062405 19.2649273,5.01228493 18.968035,4.69560193 C18.6711427,4.37891893 18.5226988,3.95907199 18.5226988,3.4360485 C18.5226988,2.86668117 18.6771681,2.42200753 18.9861114,2.10201426 C19.2950546,1.78202099 19.7124504,1.62202675 20.2383113,1.62202675 C20.7400702,1.62202675 21.1317211,1.77760735 21.4132758,2.08877322 C21.6948305,2.3999391 21.8356057,2.83137183 21.8356057,3.38308437 C21.8356057,3.92376265 21.6838752,4.3568505 21.3804097,4.6823609 C21.0769441,5.00787129 20.6699558,5.17062405 20.1594326,5.17062405 Z M20.1988719,2.07884245 C19.8526802,2.07884245 19.5787985,2.19745886 19.3772185,2.43469526 C19.1756385,2.67193165 19.07485,2.99909227 19.07485,3.41618695 C19.07485,3.81783368 19.176734,4.13451193 19.3805051,4.36623119 C19.5842762,4.59795046 19.8570624,4.71380835 20.1988719,4.71380835 C20.5472548,4.71380835 20.8151111,4.60015728 21.0024491,4.37285171 C21.189787,4.14554614 21.2834546,3.82224745 21.2834546,3.40294592 C21.2834546,2.97923069 21.189787,2.65262177 21.0024491,2.42310935 C20.8151111,2.19359693 20.5472548,2.07884245 20.1988719,2.07884245 Z M24.0698458,0.54950294 C23.9646737,0.489917986 23.8452612,0.460125956 23.7116049,0.460125956 C23.334738,0.460125956 23.1463073,0.699565606 23.1463073,1.17845209 L23.1463073,1.70147296 L23.9350947,1.70147296 L23.9350947,2.16490917 L23.1463073,2.16490917 L23.1463073,5.09117784 L22.6105892,5.09117784 L22.6105892,2.16490917 L22.0354318,2.16490917 L22.0354318,1.70147296 L22.6105892,1.70147296 L22.6105892,1.15197002 C22.6105892,0.796667145 22.7124733,0.515849675 22.9162443,0.309509186 C23.1200154,0.103168697 23.3741777,-5.32907052e-15 23.6787388,-5.32907052e-15 C23.8430703,-5.32907052e-15 23.973438,0.0198613534 24.0698458,0.0595846561 L24.0698458,0.54950294 Z M26.0280104,5.05807526 C25.9009274,5.12869446 25.7333117,5.16400353 25.5251585,5.16400353 C24.9357561,5.16400353 24.6410593,4.83298098 24.6410593,4.17092593 L24.6410593,2.16490917 L24.0626153,2.16490917 L24.0626153,1.70147296 L24.6410593,1.70147296 L24.6410593,0.87390829 L25.180064,0.69846458 L25.180064,1.70147296 L26.0280104,1.70147296 L26.0280104,2.16490917 L25.180064,2.16490917 L25.180064,4.07492843 C25.180064,4.30223399 25.2184075,4.46443505 25.2950955,4.56153645 C25.3717835,4.65863786 25.4988647,4.70718784 25.6763427,4.70718784 C25.8121901,4.70718784 25.9294115,4.66967195 26.0280104,4.59463904 L26.0280104,5.05807526 Z M29.0313182,4.24706188 C28.4857376,4.24706188 28.0206864,4.05396539 27.6361506,3.66776661 C27.2516148,3.28156784 27.0593498,2.81372262 27.0593498,2.26421693 C27.0593498,1.71471125 27.2516148,1.24631433 27.6361506,0.859012126 C28.0206864,0.471709925 28.4857376,0.278061729 29.0313182,0.278061729 C29.5747078,0.278061729 30.0386635,0.471709925 30.4231992,0.859012126 C30.807735,1.24631433 31,1.71471125 31,2.26421693 C31,2.81372262 30.807735,3.28156784 30.4231992,3.66776661 C30.0386635,4.05396539 29.5747078,4.24706188 29.0313182,4.24706188 Z M29.0346048,0.589226044 C28.5744766,0.589226044 28.1817301,0.752530506 27.8563537,1.07914433 C27.5309773,1.40575815 27.3682916,1.8007784 27.3682916,2.26421693 C27.3682916,2.72544862 27.5309773,3.11936546 27.8563537,3.44597928 C28.1817301,3.7725931 28.5744766,3.93589756 29.0346048,3.93589756 C29.492542,3.93589756 29.8830974,3.7725931 30.2062827,3.44597928 C30.529468,3.11936546 30.6910583,2.72544862 30.6910583,2.26421693 C30.6910583,1.8007784 30.529468,1.40575815 30.2062827,1.07914433 C29.8830974,0.752530506 29.492542,0.589226044 29.0346048,0.589226044 Z M29.9877229,3.50556394 L29.5341702,3.50556394 L29.2613812,2.8997866 C29.1233427,2.59524128 28.9743511,2.4429709 28.8144017,2.4429709 L28.6434978,2.4429709 L28.6434978,3.50556394 L28.2589639,3.50556394 L28.2589639,0.979836568 L28.965586,0.979836568 C29.2570005,0.979836568 29.4821313,1.04162745 29.6409851,1.16521105 C29.7998389,1.28879466 29.8792646,1.45651276 29.8792646,1.66837037 C29.8792646,1.84050468 29.8233928,1.98780972 29.7116473,2.11028991 C29.5999019,2.23277009 29.4443371,2.31497402 29.2449481,2.35690418 L29.2449481,2.36683495 C29.3829866,2.39773085 29.521023,2.55331146 29.6590615,2.83358143 L29.9877229,3.50556394 Z M28.6434978,1.30755218 L28.6434978,2.11856555 L28.9524395,2.11856555 C29.2986312,2.11856555 29.4717245,1.9828463 29.4717245,1.71140373 C29.4717245,1.55471737 29.4251646,1.44823845 29.3320434,1.39196377 C29.2389222,1.33568909 29.0915738,1.30755218 28.8899938,1.30755218 L28.6434978,1.30755218 Z" id="Microsoft"></path>
            </g>
        </g>
    </g>
</svg>