<?xml version="1.0" encoding="UTF-8"?>
<svg width="192px" height="128px" viewBox="0 0 192 128" version="1.1" xmlns="http://www.w3.org/2000/svg" xmlns:xlink="http://www.w3.org/1999/xlink">
        <g id="Provider/SCVMM/scvmm-128-disabled" stroke="none" stroke-width="1" fill="none" fill-rule="evenodd">
        <path d="M95.6714597,1.32178009 C95.8831104,3.8793237 96.4237269,6.33176277 97.3610374,8.92434122 C94.4414664,8.10162644 87.3287917,6.97084665 84.8857373,6.63982778 C89.1030297,3.92885572 94.9615226,1.64917467 95.6714597,1.32178009 M81.3046065,12.4858143 C79.7686268,11.2052304 81.3977328,9.39549947 82.3604414,8.52566886 C82.7377845,8.18377711 83.1622954,7.84309345 83.619461,7.50603409 C84.8167996,9.11401262 87.8778742,13.3061129 89.0558618,14.6301884 L91.1856731,14.4658871 C90.1032307,13.4341713 85.4178877,8.4362696 84.0863021,7.17501522 C84.1020248,7.16293424 84.1213757,7.15206136 84.1383077,7.13998038 C86.3249624,8.07384018 93.8040953,9.65886485 97.7347522,9.91256544 C97.7432182,9.93431121 97.7504748,9.95605697 97.7613597,9.98021893 C96.3705119,10.720783 93.8512632,12.0412342 91.1312486,13.9717749 L92.9127433,14.293129 C94.9639414,13.1587249 96.4273552,12.0206966 97.9838953,10.5323197 C98.6998796,12.2550676 99.583975,14.0575499 100.666417,16.0086283 L102.395906,16.2115888 C99.2671036,10.3656022 96.9014529,5.08017318 95.9109274,0.664574746 C93.6371936,1.40634696 81.0905369,6.09497555 78.7841484,9.48852302 C77.8903775,10.806558 80.4725167,11.8334414 81.3046065,12.4858143" id="Fill-45" fill="#A4AAB5"></path>
        <path d="M107.720072,63.2824721 C104.435252,62.3063288 101.348779,60.6053268 98.5658744,58.6397512 C104.344545,55.5458121 108.120394,52.5545613 108.546115,52.0749463 C108.571513,56.210266 108.232871,60.0496017 107.720072,63.2824721 M107.63904,63.7802085 C105.166959,65.3736898 96.9053231,68.751532 93.0448133,70.2942733 C95.0657757,66.4114461 96.5158857,62.7472846 97.5318093,59.4491769 C101.799898,62.2616292 106.266334,63.4383167 107.642668,63.7560465 C107.641459,63.7657113 107.640249,63.7717518 107.63904,63.7802085 M107.282257,65.7035006 C106.748897,68.3142005 105.597517,72.4628093 104.407435,76.364966 C100.396956,75.6364829 96.0647672,74.3136155 92.2514254,72.3383752 C96.4215499,70.4428693 105.093184,66.2084856 107.516887,64.4809054 C107.441902,64.9001154 107.364499,65.3084525 107.282257,65.7035006 M85.6321992,82.8053368 C85.5910785,82.8174178 85.5547955,82.831915 85.5221408,82.8488284 C85.3165373,82.795672 85.1169808,82.7449319 84.9258904,82.6953999 C87.4149033,79.5785069 89.5048033,76.5014811 91.2560621,73.5235194 C97.3044359,76.2356995 103.368532,76.7286036 104.149826,76.8131704 C101.293146,78.0055632 86.357859,82.5818387 85.6321992,82.8053368 M101.243559,85.6926912 C97.9780901,85.2746893 91.2633187,84.1729038 86.7690661,83.1448124 C92.9976455,81.5948226 97.1000418,80.9037905 104.124428,77.2867449 C102.987561,80.9569468 101.86037,84.2719679 101.243559,85.6926912 M84.0817063,82.4586127 C83.8023273,82.3716296 83.5495558,82.289479 83.329439,82.2109526 C79.1218221,80.6984138 77.2121275,79.8346237 74.6711091,77.9826093 C76.6134583,77.3918494 85.0843261,75.0082719 89.2084923,73.5790919 C86.8936377,77.6491743 84.8400207,80.8590908 84.0901723,82.4344507 C84.086544,82.4404912 84.0853346,82.4465317 84.0817063,82.4586127 M73.5886666,77.1683513 C76.0389777,73.2915646 79.0057165,69.7445886 81.700333,66.1976127 C82.3643116,67.0650271 83.1020657,67.8865338 83.879731,68.6500518 C85.2681599,70.0103702 86.8271189,71.1435662 88.4501778,72.0907151 C83.709201,73.925816 78.7759243,75.8201138 74.0772775,77.5428617 C73.9176324,77.4220518 73.7555684,77.2976177 73.5886666,77.1683513 M68.105098,68.628306 C72.0079379,67.5965903 76.149036,66.6385685 80.2381286,65.5561126 C77.2060804,70.4005859 74.5779827,73.962059 73.0274898,76.7104821 C70.734405,74.7714847 68.2562771,71.695667 68.105098,68.628306 M89.5785787,62.6941283 C91.7543485,61.8955755 93.8055466,61.0076234 95.7019374,60.0943013 C94.2469896,64.0302848 92.3385045,67.88895 90.4771873,71.3030351 C90.4626742,71.3078675 90.4469515,71.3163242 90.4324383,71.3199485 C89.5048033,70.7618072 88.6207079,70.1601744 87.7970841,69.5126338 C86.0095423,68.1088239 84.3755985,66.5262154 83.1238355,64.7648084 C85.3286316,64.1353893 87.4959353,63.4576463 89.5785787,62.6941283 M99.5975207,45.9124381 C101.573734,47.3271209 106.681169,50.5346213 108.484433,51.2715611 C106.149019,53.1271997 102.848476,55.1314344 98.1486201,57.2866814 C99.4802057,52.2622015 99.771679,48.2682293 99.5975207,45.9124381 M109.511242,41.9039687 C109.439885,41.5415393 108.134907,42.3594217 107.798685,42.43674 C108.230453,45.2395275 108.455407,48.0169449 108.523135,50.6940902 C106.140553,49.3591419 101.550755,46.1480172 100.325599,45.0136131 L99.5539811,45.4388636 C99.5406773,45.3156376 99.5249547,45.1960359 99.5080226,45.0824747 L98.2647257,45.5270548 C97.8680317,45.8532413 98.0155825,45.4775228 98.0748447,45.9957969 C98.4727481,49.4702869 97.8559373,53.3035821 96.6912535,57.1537906 C94.231267,54.9357225 91.9926067,51.812789 91.3806337,48.855365 C91.1157679,48.9604695 90.8521115,49.0667821 90.5884552,49.1730948 C90.2812592,49.2914884 90.1155669,49.2298754 90.2111121,49.5838481 C91.2379206,53.4799644 94.0051031,56.5980655 95.9474523,58.2640327 C93.6688807,59.240176 91.1012547,60.2477297 88.2095007,61.2842779 C87.176645,61.655164 85.8220802,62.1311546 84.2510269,62.6675502 C85.6914615,60.4494821 89.0089358,53.5560746 90.1820857,49.3011532 L88.4163137,50.0610468 C86.4582419,55.0794862 83.3874918,60.3008861 82.1333099,62.4368034 C82.0631628,62.5564051 81.9954346,62.6675502 81.9264969,62.7859438 C80.6517546,60.2404812 80.2127305,57.3652078 81.1718108,54.1468345 L81.1355278,54.2011989 C81.3096861,53.6648034 79.6055952,55.027538 79.4399029,55.1060644 C78.942826,55.3428516 78.979109,55.7391078 78.8811449,56.2634223 C78.7372224,57.0535185 78.6610281,57.8629442 78.6694942,58.6832427 C78.6924734,60.497806 79.2959804,62.3075369 80.2490135,64.0133714 C76.5106565,65.2504638 72.1929811,66.6192389 68.1244489,67.7935103 C68.1377527,67.6473304 68.1546847,67.4999424 68.1825017,67.3525545 C68.753354,64.1728404 71.7442815,60.2030301 75.0968294,58.0876504 L75.90594,57.0366051 L71.3016291,60.484517 C69.0919952,62.4851274 66.6441031,65.6008123 66.0345489,68.4193051 C65.1335214,72.6029487 68.1038885,75.9252183 71.2230159,78.3039634 C74.6711091,80.9267443 78.2836851,82.2326983 82.4417153,83.5205309 C86.9952301,84.9315894 96.2171558,86.2580811 100.932735,86.318486 C101.239931,86.3233184 101.729751,86.2725783 101.729751,86.2725783 C101.729751,86.2725783 101.955915,85.8159172 101.981313,85.7857148 C102.388892,85.0076996 107.855528,74.0200477 109.328618,64.7321898 C110.32519,58.4669932 111.049641,49.9849367 109.511242,41.9039687" id="Fill-47" fill="#A4AAB5"></path>
        <polyline id="Fill-49" fill="#A4AAB5" points="105.669237 83.9858903 104.970184 83.9858903 104.970184 86.3163114 104.685968 86.3163114 104.685968 83.9858903 103.985706 83.9858903 103.985706 83.7080277 105.669237 83.7080277"></polyline>
        <path d="M108.523619,86.3153449 L108.240612,86.3153449 L108.240612,84.5636028 C108.240612,84.4258796 108.247868,84.2567458 108.2648,84.0574097 L108.257544,84.0574097 C108.229727,84.1745952 108.205538,84.259162 108.183768,84.3123184 L107.356516,86.3153449 L107.218641,86.3153449 L106.390179,84.3256074 C106.364781,84.2688268 106.341802,84.1794276 106.317614,84.0574097 L106.309147,84.0574097 C106.318823,84.1625142 106.323661,84.3316479 106.323661,84.5660189 L106.323661,86.3153449 L106.049119,86.3153449 L106.049119,83.7058531 L106.425253,83.7058531 L107.169054,85.5252488 C107.225898,85.662972 107.262181,85.7656603 107.277903,85.8369381 L107.291207,85.8369381 C107.340794,85.6943825 107.378286,85.5880699 107.407313,85.5180002 L108.166836,83.7070612 L108.523619,83.7070612" id="Fill-51" fill="#A4AAB5"></path>
        <path d="M117.737925,38.1682879 C122.129376,33.7816838 124.244674,31.0235959 126.638142,25.4240614 C131.711713,28.400815 135.242047,32.0033634 137.056197,34.2697554 C137.150532,34.3893571 137.324691,34.5439937 137.529085,34.6913816 C135.101753,34.8399777 128.172912,35.4089919 117.737925,38.1682879 L117.737925,38.1682879 Z M116.227344,38.576625 L116.253951,38.5524631 C114.479713,35.5563798 112.320876,33.1945481 109.94313,31.283337 C114.728856,28.9976154 120.026172,26.8689467 125.722601,25.186066 C123.868541,28.5771973 120.825608,32.2401507 116.253951,38.5524631 L116.273302,38.564544 C116.25758,38.5669602 116.243066,38.5717926 116.227344,38.576625 L116.227344,38.576625 Z M98.3144333,44.673896 C102.659926,40.5337439 105.762121,36.5748065 107.930634,32.9178937 C110.486166,34.6635954 112.925592,36.6702463 115.030005,38.9112682 C110.111242,40.3150781 104.509149,42.1815896 98.3144333,44.673896 L98.3144333,44.673896 Z M96.9804289,45.2127077 C97.0021987,42.7542281 96.4265086,40.8345603 95.5944188,39.3546402 C98.4631936,37.4893368 101.770993,35.4995992 105.451297,33.5473128 C103.265852,36.9879761 100.466014,40.8840923 96.9888949,45.2102915 L96.9804289,45.2127077 Z M83.9403236,51.2024579 C88.4140158,47.8487777 91.825826,44.3754957 94.3426558,40.9251677 C95.4722661,42.4642846 96.0153014,44.120587 96.1410825,45.5582237 C91.3795452,47.5250074 87.5746694,49.1668127 83.9403236,51.2024579 L83.9403236,51.2024579 Z M85.9165369,46.275834 C87.5033128,45.0351173 89.7262505,43.3449881 92.5067367,41.4253203 C89.8217957,45.0169958 86.3156498,48.3501384 82.0040215,51.1505097 C83.508556,49.5207854 84.8062775,47.8934773 85.9165369,46.275834 L85.9165369,46.275834 Z M90.275333,37.5461174 C91.3481,38.0945939 92.2491275,38.7324697 92.9977664,39.4271261 C90.8764211,41.0326884 89.0138945,42.5863025 87.3847884,44.009442 C88.7502381,41.9194324 89.6790826,39.7363992 90.275333,37.5461174 L90.275333,37.5461174 Z M87.581926,14.6828615 C91.1207266,15.5490678 94.8663402,16.2582213 97.0433194,16.6460208 C95.4686378,17.5061866 91.842758,19.8547293 90.1302011,22.1150808 C89.2884358,18.6369664 88.1588255,15.9392835 87.581926,14.6828615 L87.581926,14.6828615 Z M81.6992445,12.9456164 C83.1046055,13.4832201 84.8945661,14.0051184 86.7824908,14.4847334 C87.6169995,17.0640228 88.2833971,19.4041087 88.8010343,21.5364018 C87.1646716,18.2648722 84.7216172,15.3569802 81.6992445,12.9456164 L81.6992445,12.9456164 Z M98.0157034,16.8163626 C98.8465838,19.5019646 99.1380571,22.4001919 98.8949611,25.382986 C96.2958899,24.4430857 93.6992375,23.6940649 91.2452982,22.9752466 C92.8586816,20.9516823 95.2666625,18.9583205 97.9467657,16.8054898 C97.9685355,16.8103222 97.9927242,16.8127384 98.0157034,16.8163626 L98.0157034,16.8163626 Z M110.313217,19.2688017 C106.717573,20.9625552 103.662546,22.5934876 100.26283,25.1884822 C100.364422,22.1211213 99.8141301,19.3243742 98.8006254,16.9528777 C102.661135,17.6306207 106.513179,18.3397743 110.313217,19.2688017 L110.313217,19.2688017 Z M99.9290262,28.3718206 C101.798809,29.2440675 103.733902,30.2685346 105.644806,31.4379735 C102.503909,33.0532007 99.6677887,34.7650756 97.1183042,36.4781587 C98.5768803,33.6898683 99.4815361,30.9619829 99.9290262,28.3718206 L99.9290262,28.3718206 Z M98.411188,28.6931747 C97.7520471,31.8366459 96.5232632,35.0115276 94.7320932,38.07164 C93.5674093,36.5953442 92.1971218,35.7243055 91.2525548,35.2652282 C92.5285065,33.9411527 94.9836552,31.5213323 98.411188,28.6931747 L98.411188,28.6931747 Z M90.7409647,25.1546555 C92.6325177,25.5412469 95.0151005,26.2842272 97.6141717,27.3558102 C95.6270735,29.0809742 93.4646075,31.1758163 90.9925267,33.8070538 C91.3420528,30.7795601 91.166685,27.8245522 90.7409647,25.1546555 L90.7409647,25.1546555 Z M107.750429,29.6850232 C105.714953,28.3367858 103.562163,27.2543299 101.375508,26.3458402 C104.291451,24.1277721 107.70447,21.7961429 111.531116,19.630023 C111.320675,22.0486354 110.108823,25.4228533 107.750429,29.6850232 L107.750429,29.6850232 Z M121.439999,22.8798068 C122.637338,23.3545894 123.770577,23.880112 124.846972,24.4358372 C119.243669,25.7248778 114.224523,27.4778281 109.750831,29.4711899 C111.445246,25.8118608 112.20477,22.5354989 112.39586,19.801573 C115.456935,20.6267039 118.481727,21.6161363 121.439999,22.8798068 L121.439999,22.8798068 Z M138.43495,34.7131274 C134.113647,27.3751397 127.458137,20.6254959 107.635533,16.6895124 C103.437591,15.8571328 98.4752879,15.1963031 89.8048636,13.568995 C86.7607211,12.9987728 77.6428066,11.498315 78.7845112,9.48924788 C78.1640722,10.2757197 78.6454264,11.0416539 79.0312355,11.474153 C83.5557239,17.0108664 90.06852,20.258234 90.06852,31.529789 C90.06852,41.8892299 81.3896296,51.4899852 72.6998544,59.2532234 C72.2378511,59.654312 71.7685911,60.0650653 71.2908651,60.4975644 C81.7802765,53.6234864 88.3293555,50.8037855 96.464001,47.3957409 C106.686128,43.1142413 126.998553,36.9734789 138.727633,35.2120719 L138.43495,34.7131274 Z" id="Fill-53" fill="#A4AAB5"></path>
        <path d="M34.9140256,115.121267 L31.514068,124.515012 L30.3295254,124.515012 L27,115.121267 L28.1973485,115.121267 L30.7393131,122.569446 C30.8204173,122.80964 30.8823117,123.086952 30.9249982,123.401388 L30.9506099,123.401388 C30.984759,123.139358 31.0551906,122.857679 31.1619067,122.556344 L33.7550947,115.121267 L34.9140256,115.121267 Z M36.3021815,116.103876 C36.1143612,116.103876 35.9542895,116.03837 35.8219615,115.907355 C35.6896336,115.776339 35.6234706,115.610389 35.6234706,115.409499 C35.6234706,115.208609 35.6896336,115.041567 35.8219615,114.908368 C35.9542895,114.77517 36.1143612,114.708571 36.3021815,114.708571 C36.4942705,114.708571 36.6575437,114.77517 36.7920059,114.908368 C36.9264682,115.041567 36.9936983,115.208609 36.9936983,115.409499 C36.9936983,115.601655 36.9264682,115.765421 36.7920059,115.900804 C36.6575437,116.036186 36.4942705,116.103876 36.3021815,116.103876 Z M36.8144162,124.515012 L35.7643351,124.515012 L35.7643351,117.807066 L36.8144162,117.807066 L36.8144162,124.515012 Z M42.0315263,118.894487 C41.8479746,118.75037 41.5833227,118.678313 41.2375625,118.678313 C40.7893549,118.678313 40.4147871,118.894485 40.1138477,119.326835 C39.8129083,119.759185 39.6624409,120.348745 39.6624409,121.095532 L39.6624409,124.515012 L38.6123598,124.515012 L38.6123598,117.807066 L39.6624409,117.807066 L39.6624409,119.18927 L39.6880526,119.18927 C39.8374552,118.717615 40.0658242,118.349686 40.3731665,118.085472 C40.6805089,117.821258 41.0241295,117.689153 41.4040388,117.689153 C41.677232,117.689153 41.8863924,117.719723 42.0315263,117.780863 L42.0315263,118.894487 Z M46.2625846,124.449505 C46.0150032,124.589255 45.6884569,124.659128 45.2829358,124.659128 C44.1346706,124.659128 43.5605467,124.004062 43.5605467,122.69391 L43.5605467,118.724168 L42.4336304,118.724168 L42.4336304,117.807066 L43.5605467,117.807066 L43.5605467,116.169384 L44.6106278,115.822195 L44.6106278,117.807066 L46.2625846,117.807066 L46.2625846,118.724168 L44.6106278,118.724168 L44.6106278,122.503938 C44.6106278,122.953757 44.6853279,123.27474 44.8347304,123.466896 C44.984133,123.659051 45.2317106,123.755128 45.5774707,123.755128 C45.8421266,123.755128 46.0704956,123.680887 46.2625846,123.532403 L46.2625846,124.449505 Z M52.6386256,124.515012 L51.5885445,124.515012 L51.5885445,123.453794 L51.5629328,123.453794 C51.1275311,124.266089 50.4530955,124.67223 49.5396058,124.67223 C47.9772823,124.67223 47.1961322,123.7202 47.1961322,121.816112 L47.1961322,117.807066 L48.2398103,117.807066 L48.2398103,121.645793 C48.2398103,123.060758 48.7691142,123.768229 49.8277378,123.768229 C50.339975,123.768229 50.7614973,123.574985 51.0923172,123.18849 C51.423137,122.801995 51.5885445,122.296502 51.5885445,121.671996 L51.5885445,117.807066 L52.6386256,117.807066 L52.6386256,124.515012 Z M59.1235164,124.515012 L58.0734353,124.515012 L58.0734353,123.466896 L58.0478236,123.466896 C57.5910787,124.270456 56.9187775,124.67223 56.0308996,124.67223 C55.3777971,124.67223 54.8666347,124.495362 54.4973971,124.141621 C54.1281594,123.78788 53.9435433,123.318415 53.9435433,122.733214 C53.9435433,121.479835 54.6649333,120.750528 56.1077348,120.545271 L58.0734353,120.263589 C58.0734353,119.123757 57.6231002,118.553849 56.7224164,118.553849 C55.9327173,118.553849 55.2198646,118.828977 54.5838367,119.379241 L54.5838367,118.278718 C55.2284018,117.85947 55.9711347,117.649848 56.8120575,117.649848 C58.3530378,117.649848 59.1235164,118.483966 59.1235164,120.152227 L59.1235164,124.515012 Z M58.0734353,121.121735 L56.4919108,121.344459 C56.0052854,121.414334 55.6381876,121.537705 55.3906063,121.714576 C55.1430249,121.891446 55.0192361,122.204786 55.0192361,122.654605 C55.0192361,122.982143 55.1334206,123.249629 55.3617931,123.45707 C55.5901655,123.66451 55.8943018,123.768229 56.2742111,123.768229 C56.7949856,123.768229 57.225045,123.581535 57.5644021,123.208142 C57.9037593,122.834748 58.0734353,122.362009 58.0734353,121.789909 L58.0734353,121.121735 Z M61.8242737,124.515012 L60.7741926,124.515012 L60.7741926,114.584107 L61.8242737,114.584107 L61.8242737,124.515012 Z M76.3883858,124.515012 L75.3190959,124.515012 L75.3190959,118.213211 C75.3190959,117.715353 75.348976,117.106142 75.408737,116.385558 L75.3831252,116.385558 C75.2806778,116.809174 75.1889033,117.112688 75.1077991,117.296109 L71.9703617,124.515012 L71.4453212,124.515012 L68.3142868,117.348515 C68.2246453,117.138891 68.1328708,116.817908 68.0389607,116.385558 L68.0133489,116.385558 C68.0474981,116.761135 68.0645724,117.374714 68.0645724,118.226313 L68.0645724,124.515012 L67.0272972,124.515012 L67.0272972,115.121267 L68.4487484,115.121267 L71.2660391,121.671996 C71.4837399,122.174221 71.624603,122.549792 71.6886327,122.798721 L71.7270503,122.798721 C71.910602,122.283395 72.057868,121.899089 72.1688527,121.645793 L75.0437698,115.121267 L76.3883858,115.121267 L76.3883858,124.515012 Z M83.026947,124.515012 L81.976866,124.515012 L81.976866,123.466896 L81.9512542,123.466896 C81.4945094,124.270456 80.8222081,124.67223 79.9343302,124.67223 C79.2812277,124.67223 78.7700653,124.495362 78.4008277,124.141621 C78.03159,123.78788 77.8469739,123.318415 77.8469739,122.733214 C77.8469739,121.479835 78.5683639,120.750528 80.0111654,120.545271 L81.976866,120.263589 C81.976866,119.123757 81.5265308,118.553849 80.625847,118.553849 C79.836148,118.553849 79.1232952,118.828977 78.4872673,119.379241 L78.4872673,118.278718 C79.1318325,117.85947 79.8745653,117.649848 80.7154881,117.649848 C82.2564684,117.649848 83.026947,118.483966 83.026947,120.152227 L83.026947,124.515012 Z M81.976866,121.121735 L80.3953414,121.344459 C79.908716,121.414334 79.5416182,121.537705 79.2940369,121.714576 C79.0464555,121.891446 78.9226667,122.204786 78.9226667,122.654605 C78.9226667,122.982143 79.0368512,123.249629 79.2652237,123.45707 C79.4935961,123.66451 79.7977324,123.768229 80.1776417,123.768229 C80.6984162,123.768229 81.1284756,123.581535 81.4678328,123.208142 C81.8071899,122.834748 81.976866,122.362009 81.976866,121.789909 L81.976866,121.121735 Z M89.1468707,124.207128 C88.6431707,124.517197 88.0455696,124.67223 87.3540493,124.67223 C86.4192164,124.67223 85.664745,124.361073 85.0906124,123.738751 C84.5164798,123.116429 84.2294179,122.309605 84.2294179,121.318257 C84.2294179,120.213361 84.5388899,119.325747 85.1578432,118.655385 C85.7767965,117.985024 86.6027667,117.649848 87.6357784,117.649848 C88.2120453,117.649848 88.7200063,117.759026 89.1596766,117.977385 L89.1596766,119.077907 C88.6730512,118.728533 88.1522845,118.553849 87.5973608,118.553849 C86.9271838,118.553849 86.3776042,118.799499 85.9486055,119.290806 C85.5196068,119.782113 85.3051107,120.427353 85.3051107,121.226546 C85.3051107,122.012638 85.5068011,122.632767 85.9101879,123.086953 C86.3135747,123.54114 86.8546171,123.768229 87.5333315,123.768229 C88.1053297,123.768229 88.6431707,123.573893 89.1468707,123.185214 L89.1468707,124.207128 Z M95.8494613,124.515012 L94.7993802,124.515012 L94.7993802,120.650082 C94.7993802,119.252586 94.2914192,118.553849 93.2754821,118.553849 C92.7632448,118.553849 92.3321183,118.755828 91.9820895,119.159791 C91.6320607,119.563755 91.457049,120.082349 91.457049,120.71559 L91.457049,124.515012 L90.4069679,124.515012 L90.4069679,114.584107 L91.457049,114.584107 L91.457049,118.92069 L91.4826607,118.92069 C91.9863607,118.073458 92.703482,117.649848 93.6340463,117.649848 C95.110997,117.649848 95.8494613,118.560391 95.8494613,120.381502 L95.8494613,124.515012 Z M98.0379838,116.103876 C97.8501635,116.103876 97.6900918,116.03837 97.5577638,115.907355 C97.4254359,115.776339 97.3592729,115.610389 97.3592729,115.409499 C97.3592729,115.208609 97.4254359,115.041567 97.5577638,114.908368 C97.6900918,114.77517 97.8501635,114.708571 98.0379838,114.708571 C98.2300728,114.708571 98.393346,114.77517 98.5278082,114.908368 C98.6622705,115.041567 98.7295007,115.208609 98.7295007,115.409499 C98.7295007,115.601655 98.6622705,115.765421 98.5278082,115.900804 C98.393346,116.036186 98.2300728,116.103876 98.0379838,116.103876 Z M98.5502185,124.515012 L97.5001374,124.515012 L97.5001374,117.807066 L98.5502185,117.807066 L98.5502185,124.515012 Z M105.790656,124.515012 L104.740574,124.515012 L104.740574,120.689387 C104.740574,119.265688 104.232613,118.553849 103.216676,118.553849 C102.691633,118.553849 102.257305,118.755828 101.913679,119.159791 C101.570054,119.563755 101.398243,120.073615 101.398243,120.689387 L101.398243,124.515012 L100.348162,124.515012 L100.348162,117.807066 L101.398243,117.807066 L101.398243,118.92069 L101.423855,118.92069 C101.919018,118.073458 102.636139,117.649848 103.575241,117.649848 C104.292373,117.649848 104.840885,117.886764 105.220794,118.360603 C105.600704,118.834441 105.790656,119.518985 105.790656,120.414256 L105.790656,124.515012 Z M112.710946,121.429619 L108.081625,121.429619 C108.0987,122.176406 108.295054,122.752864 108.670695,123.159011 C109.046336,123.565159 109.562834,123.768229 110.220205,123.768229 C110.95868,123.768229 111.637384,123.519304 112.256338,123.021446 L112.256338,124.030258 C111.680071,124.458241 110.918129,124.67223 109.97049,124.67223 C109.044195,124.67223 108.316402,124.367624 107.78709,123.758403 C107.257778,123.149182 106.993126,122.292137 106.993126,121.187242 C106.993126,120.143487 107.282323,119.292993 107.860724,118.635733 C108.439125,117.978473 109.157314,117.649848 110.015311,117.649848 C110.873308,117.649848 111.537072,117.933711 112.006623,118.501443 C112.476174,119.069176 112.710946,119.857439 112.710946,120.866256 L112.710946,121.429619 Z M111.635253,120.519068 C111.630984,119.898929 111.484786,119.416363 111.196652,119.071357 C110.908519,118.72635 110.508339,118.553849 109.996102,118.553849 C109.500939,118.553849 109.080484,118.735084 108.734724,119.09756 C108.388964,119.460035 108.175535,119.933866 108.094431,120.519068 L111.635253,120.519068 Z M126.737212,124.515012 L125.667922,124.515012 L125.667922,118.213211 C125.667922,117.715353 125.697802,117.106142 125.757563,116.385558 L125.731951,116.385558 C125.629504,116.809174 125.537729,117.112688 125.456625,117.296109 L122.319188,124.515012 L121.794147,124.515012 L118.663113,117.348515 C118.573471,117.138891 118.481697,116.817908 118.387786,116.385558 L118.362175,116.385558 C118.396324,116.761135 118.413398,117.374714 118.413398,118.226313 L118.413398,124.515012 L117.376123,124.515012 L117.376123,115.121267 L118.797574,115.121267 L121.614865,121.671996 C121.832566,122.174221 121.973429,122.549792 122.037458,122.798721 L122.075876,122.798721 C122.259428,122.283395 122.406694,121.899089 122.517678,121.645793 L125.392596,115.121267 L126.737212,115.121267 L126.737212,124.515012 Z M133.375773,124.515012 L132.325692,124.515012 L132.325692,123.466896 L132.30008,123.466896 C131.843335,124.270456 131.171034,124.67223 130.283156,124.67223 C129.630054,124.67223 129.118891,124.495362 128.749653,124.141621 C128.380416,123.78788 128.1958,123.318415 128.1958,122.733214 C128.1958,121.479835 128.91719,120.750528 130.359991,120.545271 L132.325692,120.263589 C132.325692,119.123757 131.875357,118.553849 130.974673,118.553849 C130.184974,118.553849 129.472121,118.828977 128.836093,119.379241 L128.836093,118.278718 C129.480658,117.85947 130.223391,117.649848 131.064314,117.649848 C132.605294,117.649848 133.375773,118.483966 133.375773,120.152227 L133.375773,124.515012 Z M132.325692,121.121735 L130.744167,121.344459 C130.257542,121.414334 129.890444,121.537705 129.642863,121.714576 C129.395281,121.891446 129.271493,122.204786 129.271493,122.654605 C129.271493,122.982143 129.385677,123.249629 129.614049,123.45707 C129.842422,123.66451 130.146558,123.768229 130.526467,123.768229 C131.047242,123.768229 131.477301,123.581535 131.816659,123.208142 C132.156016,122.834748 132.325692,122.362009 132.325692,121.789909 L132.325692,121.121735 Z M140.468942,124.515012 L139.418861,124.515012 L139.418861,120.689387 C139.418861,119.265688 138.9109,118.553849 137.894963,118.553849 C137.36992,118.553849 136.935592,118.755828 136.591966,119.159791 C136.24834,119.563755 136.07653,120.073615 136.07653,120.689387 L136.07653,124.515012 L135.026449,124.515012 L135.026449,117.807066 L136.07653,117.807066 L136.07653,118.92069 L136.102142,118.92069 C136.597304,118.073458 137.314426,117.649848 138.253527,117.649848 C138.97066,117.649848 139.519172,117.886764 139.899081,118.360603 C140.278991,118.834441 140.468942,119.518985 140.468942,120.414256 L140.468942,124.515012 Z M146.812969,124.515012 L145.762888,124.515012 L145.762888,123.466896 L145.737276,123.466896 C145.280531,124.270456 144.60823,124.67223 143.720352,124.67223 C143.067249,124.67223 142.556087,124.495362 142.186849,124.141621 C141.817612,123.78788 141.632996,123.318415 141.632996,122.733214 C141.632996,121.479835 142.354386,120.750528 143.797187,120.545271 L145.762888,120.263589 C145.762888,119.123757 145.312552,118.553849 144.411869,118.553849 C143.62217,118.553849 142.909317,118.828977 142.273289,119.379241 L142.273289,118.278718 C142.917854,117.85947 143.660587,117.649848 144.50151,117.649848 C146.04249,117.649848 146.812969,118.483966 146.812969,120.152227 L146.812969,124.515012 Z M145.762888,121.121735 L144.181363,121.344459 C143.694738,121.414334 143.32764,121.537705 143.080059,121.714576 C142.832477,121.891446 142.708688,122.204786 142.708688,122.654605 C142.708688,122.982143 142.822873,123.249629 143.051245,123.45707 C143.279618,123.66451 143.583754,123.768229 143.963663,123.768229 C144.484438,123.768229 144.914497,123.581535 145.253854,123.208142 C145.593212,122.834748 145.762888,122.362009 145.762888,121.789909 L145.762888,121.121735 Z M154.059809,123.977852 C154.059809,126.440939 152.907292,127.672464 150.602225,127.672464 C149.791182,127.672464 149.082598,127.515248 148.476451,127.200811 L148.476451,126.126492 C149.214926,126.54574 149.919242,126.755362 150.589419,126.755362 C152.202966,126.755362 153.009728,125.877573 153.009728,124.121969 L153.009728,123.388287 L152.984116,123.388287 C152.484684,124.244253 151.733414,124.67223 150.730283,124.67223 C149.914972,124.67223 149.258678,124.374175 148.761381,123.778055 C148.264084,123.181936 148.015439,122.381663 148.015439,121.377213 C148.015439,120.237381 148.283293,119.331206 148.819008,118.658661 C149.354722,117.986116 150.087851,117.649848 151.018415,117.649848 C151.902024,117.649848 152.557251,118.012318 152.984116,118.737269 L153.009728,118.737269 L153.009728,117.807066 L154.059809,117.807066 L154.059809,123.977852 Z M153.009728,121.482025 L153.009728,120.492865 C153.009728,119.960069 152.833649,119.503707 152.481486,119.123762 C152.129322,118.743818 151.690726,118.553849 151.165683,118.553849 C150.516849,118.553849 150.008888,118.795132 149.641785,119.277705 C149.274681,119.760277 149.091132,120.436087 149.091132,121.305155 C149.091132,122.051942 149.267211,122.649144 149.619374,123.096779 C149.971537,123.544415 150.43788,123.768229 151.018415,123.768229 C151.607488,123.768229 152.086636,123.554241 152.455874,123.126258 C152.825111,122.698275 153.009728,122.150202 153.009728,121.482025 Z M161.127366,121.429619 L156.498046,121.429619 C156.51512,122.176406 156.711475,122.752864 157.087115,123.159011 C157.462756,123.565159 157.979254,123.768229 158.636625,123.768229 C159.375101,123.768229 160.053805,123.519304 160.672758,123.021446 L160.672758,124.030258 C160.096491,124.458241 159.33455,124.67223 158.386911,124.67223 C157.460615,124.67223 156.732822,124.367624 156.203511,123.758403 C155.674199,123.149182 155.409547,122.292137 155.409547,121.187242 C155.409547,120.143487 155.698743,119.292993 156.277144,118.635733 C156.855546,117.978473 157.573734,117.649848 158.431731,117.649848 C159.289729,117.649848 159.953493,117.933711 160.423044,118.501443 C160.892595,119.069176 161.127366,119.857439 161.127366,120.866256 L161.127366,121.429619 Z M160.051674,120.519068 C160.047405,119.898929 159.901206,119.416363 159.613073,119.071357 C159.324939,118.72635 158.92476,118.553849 158.412523,118.553849 C157.91736,118.553849 157.496905,118.735084 157.151145,119.09756 C156.805385,119.460035 156.591956,119.933866 156.510851,120.519068 L160.051674,120.519068 Z M165.80663,118.894487 C165.623078,118.75037 165.358426,118.678313 165.012666,118.678313 C164.564459,118.678313 164.189891,118.894485 163.888951,119.326835 C163.588012,119.759185 163.437545,120.348745 163.437545,121.095532 L163.437545,124.515012 L162.387464,124.515012 L162.387464,117.807066 L163.437545,117.807066 L163.437545,119.18927 L163.463156,119.18927 C163.612559,118.717615 163.840928,118.349686 164.14827,118.085472 C164.455613,117.821258 164.799233,117.689153 165.179143,117.689153 C165.452336,117.689153 165.661496,117.719723 165.80663,117.780863 L165.80663,118.894487 Z" id="Virtual-Machine-Mana" fill="#A4AAB5"></path>
        <path d="M27,109.517512 L27,107.805413 C27.1915767,107.978353 27.4211836,108.133997 27.6888276,108.272349 C27.9564715,108.410701 28.2381978,108.527434 28.5340148,108.622551 C28.8298318,108.717668 29.127053,108.791167 29.4256873,108.843049 C29.7243216,108.894931 30.0004133,108.920871 30.2539707,108.920871 C31.1273352,108.920871 31.7795315,108.755139 32.2105791,108.423671 C32.6416267,108.092202 32.8571473,107.615183 32.8571473,106.992599 C32.8571473,106.658248 32.7853071,106.367136 32.6416246,106.119256 C32.4979421,105.871375 32.299325,105.645115 32.0457676,105.440469 C31.7922102,105.235823 31.4921717,105.039827 31.1456432,104.852476 C30.7991148,104.665124 30.4258275,104.467687 30.0257702,104.260159 C29.6031745,104.041101 29.2087577,103.819165 28.8425081,103.594343 C28.4762585,103.36952 28.1579078,103.121643 27.8874466,102.850704 C27.6169853,102.579764 27.404282,102.2728 27.2493302,101.929802 C27.0943785,101.586805 27.0169037,101.184725 27.0169037,100.723551 C27.0169037,100.158614 27.138046,99.6671827 27.3803342,99.2492441 C27.6226225,98.8313056 27.9409731,98.4868717 28.3353958,98.2159322 C28.7298185,97.9449927 29.1791718,97.7432322 29.6834694,97.6106448 C30.1877669,97.4780574 30.7019173,97.4117647 31.225936,97.4117647 C32.4204732,97.4117647 33.2910074,97.5587616 33.8375645,97.8527598 L33.8375645,99.4870356 C33.1219691,98.9797446 32.2035415,98.7261029 31.0822542,98.7261029 C30.7723507,98.7261029 30.4624518,98.7592493 30.1525483,98.825543 C29.8426448,98.8918367 29.566553,98.9999227 29.3242648,99.1498041 C29.0819766,99.2996855 28.8847682,99.4927991 28.7326338,99.7291505 C28.5804993,99.965502 28.5044332,100.253731 28.5044332,100.593847 C28.5044332,100.910904 28.5621871,101.184721 28.6776966,101.415308 C28.7932061,101.645895 28.9636505,101.856302 29.1890349,102.046536 C29.4144192,102.23677 29.6891023,102.421237 30.0130924,102.599942 C30.3370824,102.778647 30.7103697,102.974643 31.1329654,103.187935 C31.5668304,103.406993 31.9781507,103.637576 32.3669388,103.879692 C32.7557268,104.121808 33.0966156,104.389862 33.3896153,104.68386 C33.682615,104.977858 33.9150391,105.303557 34.0868947,105.660967 C34.2587503,106.018376 34.3446768,106.427662 34.3446768,106.888835 C34.3446768,107.49989 34.2277604,108.017262 33.9939241,108.440965 C33.7600878,108.864668 33.4445544,109.209102 33.0473145,109.474277 C32.6500745,109.739452 32.1922693,109.931124 31.6738852,110.0493 C31.1555012,110.167476 30.6089522,110.226562 30.0342221,110.226562 C29.8426453,110.226562 29.6059953,110.21071 29.3242648,110.179004 C29.0425343,110.147299 28.7551736,110.101182 28.4621739,110.040653 C28.1691742,109.980124 27.8916738,109.905184 27.6296645,109.815832 C27.3676551,109.726479 27.1577691,109.62704 27,109.517512 Z M42.634273,101.164546 L38.6534412,111.437137 C37.9434804,113.270302 36.9461695,114.186871 35.6614785,114.186871 C35.3008635,114.186871 34.9994164,114.149401 34.7571282,114.074461 L34.7571282,112.803357 C35.0557625,112.907121 35.329037,112.959003 35.5769598,112.959003 C36.2756514,112.959003 36.7996622,112.532423 37.149008,111.679252 L37.8420615,110.001741 L34.4613127,101.164546 L35.9995534,101.164546 L38.340722,107.978352 C38.368895,108.064822 38.4280575,108.289641 38.5182113,108.652815 L38.5689225,108.652815 C38.5970955,108.514463 38.6534408,108.295409 38.7379599,107.995646 L41.1974547,101.164546 L42.634273,101.164546 Z M43.1650506,109.699098 L43.1650506,108.177232 C43.9200882,108.747935 44.7511807,109.033282 45.6583528,109.033282 C46.8754285,109.033282 47.4839572,108.618232 47.4839572,107.788119 C47.4839572,107.551768 47.4318378,107.351448 47.3275975,107.187155 C47.2233573,107.022862 47.0824941,106.877306 46.9050039,106.750484 C46.7275137,106.623661 46.5190363,106.50981 46.2795654,106.408929 C46.0400945,106.308047 45.782315,106.202843 45.5062191,106.093315 C45.1230657,105.937669 44.7864028,105.780584 44.4962204,105.622055 C44.206038,105.463527 43.9637534,105.284825 43.7693594,105.085944 C43.5749654,104.887062 43.4284677,104.660803 43.3298621,104.407157 C43.2312564,104.153512 43.1819543,103.856635 43.1819543,103.51652 C43.1819543,103.101464 43.274924,102.733971 43.4608661,102.414032 C43.6468082,102.094093 43.8947273,101.82604 44.2046308,101.609865 C44.5145343,101.39369 44.8681008,101.23084 45.2653408,101.121311 C45.6625807,101.011783 46.0724924,100.957019 46.4950881,100.957019 C47.2444912,100.957019 47.9149997,101.089605 48.5066337,101.354779 L48.5066337,102.790175 C47.8699228,102.36359 47.1374346,102.1503 46.309147,102.1503 C46.0499549,102.1503 45.8161221,102.180564 45.6076416,102.241093 C45.399161,102.301622 45.2202649,102.38665 45.0709477,102.496178 C44.9216306,102.605707 44.8061228,102.736851 44.724421,102.889615 C44.6427191,103.042379 44.6018688,103.210993 44.6018688,103.395462 C44.6018688,103.626049 44.6427191,103.819163 44.724421,103.974809 C44.8061228,104.130455 44.9258565,104.268805 45.0836255,104.389863 C45.2413946,104.510921 45.4329684,104.620448 45.6583528,104.718448 C45.8837372,104.816447 46.1401081,104.923092 46.4274732,105.038385 C46.8106266,105.188267 47.1543326,105.342469 47.4586016,105.500998 C47.7628705,105.659526 48.0220586,105.838228 48.2361738,106.037109 C48.450289,106.23599 48.6150988,106.465133 48.7306083,106.724543 C48.8461178,106.983953 48.9038717,107.292358 48.9038717,107.649768 C48.9038717,108.087883 48.8094934,108.468345 48.620734,108.791167 C48.4319746,109.113988 48.1798296,109.382041 47.8642914,109.595334 C47.5487533,109.808627 47.1853264,109.967153 46.7739999,110.070917 C46.3626734,110.174681 45.9316323,110.226562 45.4808635,110.226562 C44.5905952,110.226562 43.8186653,110.050743 43.1650506,109.699098 Z M54.6156469,109.932566 C54.2888395,110.117035 53.8577983,110.209269 53.3225104,110.209269 C51.8068005,110.209269 51.0489568,109.344581 51.0489568,107.61518 L51.0489568,102.375121 L49.5614274,102.375121 L49.5614274,101.164546 L51.0489568,101.164546 L51.0489568,99.0028057 L52.4350639,98.5445167 L52.4350639,101.164546 L54.6156469,101.164546 L54.6156469,102.375121 L52.4350639,102.375121 L52.4350639,107.364418 C52.4350639,107.958179 52.5336681,108.381876 52.7308794,108.635521 C52.9280907,108.889167 53.2548932,109.015988 53.7112965,109.015988 C54.0606423,109.015988 54.3620894,108.91799 54.6156469,108.721991 L54.6156469,109.932566 Z M62.8545318,105.946316 L56.7438283,105.946316 C56.7663667,106.932075 57.0255549,107.693 57.5214005,108.229114 C58.0172461,108.765229 58.6990237,109.033282 59.5667535,109.033282 C60.541541,109.033282 61.4374305,108.7047 62.2544489,108.047528 L62.2544489,109.37916 C61.4937766,109.944098 60.4880138,110.226562 59.2371305,110.226562 C58.0144203,110.226562 57.0537337,109.824483 56.3550422,109.020311 C55.6563506,108.21614 55.30701,107.08484 55.30701,105.626379 C55.30701,104.248622 55.6887491,103.12597 56.4522387,102.258387 C57.2157283,101.390804 58.1637371,100.957019 59.2962936,100.957019 C60.4288502,100.957019 61.3050188,101.331717 61.9248258,102.081124 C62.5446329,102.830531 62.8545318,103.871039 62.8545318,105.202678 L62.8545318,105.946316 Z M61.4346173,104.744389 C61.4289827,103.925805 61.2360002,103.288819 60.855664,102.83341 C60.4753279,102.378001 59.9470912,102.1503 59.270938,102.1503 C58.6173233,102.1503 58.0623226,102.38953 57.6059192,102.867998 C57.1495159,103.346465 56.8677896,103.971923 56.760732,104.744389 L61.4346173,104.744389 Z M76.8068822,110.019035 L75.4207752,110.019035 L75.4207752,104.934622 C75.4207752,103.954628 75.2728689,103.245584 74.9770519,102.807469 C74.6812349,102.369354 74.1839881,102.1503 73.4852965,102.1503 C72.8936625,102.1503 72.3907811,102.427 71.9766373,102.980408 C71.5624935,103.533817 71.3554247,104.196744 71.3554247,104.96921 L71.3554247,110.019035 L69.9693177,110.019035 L69.9693177,104.761682 C69.9693177,103.020752 69.3128955,102.1503 68.0000315,102.1503 C67.3914937,102.1503 66.890021,102.411147 66.4955983,102.93285 C66.1011756,103.454553 65.9039672,104.133332 65.9039672,104.96921 L65.9039672,110.019035 L64.5178602,110.019035 L64.5178602,101.164546 L65.9039672,101.164546 L65.9039672,102.565354 L65.9377747,102.565354 C66.5519472,101.493125 67.4478366,100.957019 68.62547,100.957019 C69.217104,100.957019 69.7326631,101.125633 70.1721626,101.462866 C70.6116622,101.8001 70.9131093,102.242531 71.0765129,102.790175 C71.7188584,101.568065 72.6767277,100.957019 73.9501494,100.957019 C75.8546475,100.957019 76.8068822,102.158935 76.8068822,104.562802 L76.8068822,110.019035 Z M91.7379594,109.500218 C90.8420565,109.98445 89.7264206,110.226562 88.3910181,110.226562 C86.6668276,110.226562 85.2863689,109.658751 84.2496008,108.523111 C83.2128326,107.387471 82.6944563,105.897326 82.6944563,104.052632 C82.6944563,102.069585 83.2776297,100.467031 84.4439939,99.2449207 C85.610358,98.0228106 87.0894208,97.4117647 88.8812267,97.4117647 C90.030687,97.4117647 90.9829218,97.5818199 91.7379594,97.9219355 L91.7379594,99.4697417 C90.8702296,98.97398 89.9123603,98.7261029 88.8643229,98.7261029 C87.4725744,98.7261029 86.3442607,99.2016811 85.4793482,100.152852 C84.6144356,101.104022 84.1819858,102.375113 84.1819858,103.966162 C84.1819858,105.476506 84.586263,106.679862 85.3948295,107.576269 C86.2033959,108.472675 87.2640953,108.920871 88.5769593,108.920871 C89.7940349,108.920871 90.8476911,108.644171 91.7379594,108.090763 L91.7379594,109.500218 Z M100.54312,105.946316 L94.4324163,105.946316 C94.4549547,106.932075 94.7141429,107.693 95.2099885,108.229114 C95.7058341,108.765229 96.3876117,109.033282 97.2553415,109.033282 C98.230129,109.033282 99.1260185,108.7047 99.9430369,108.047528 L99.9430369,109.37916 C99.1823646,109.944098 98.1766019,110.226562 96.9257185,110.226562 C95.7030083,110.226562 94.7423217,109.824483 94.0436302,109.020311 C93.3449386,108.21614 92.995598,107.08484 92.995598,105.626379 C92.995598,104.248622 93.3773371,103.12597 94.1408267,102.258387 C94.9043163,101.390804 95.8523251,100.957019 96.9848816,100.957019 C98.1174382,100.957019 98.9936068,101.331717 99.6134138,102.081124 C100.233221,102.830531 100.54312,103.871039 100.54312,105.202678 L100.54312,105.946316 Z M99.1232053,104.744389 C99.1175707,103.925805 98.9245882,103.288819 98.544252,102.83341 C98.1639159,102.378001 97.6356792,102.1503 96.959526,102.1503 C96.3059113,102.1503 95.7509106,102.38953 95.2945072,102.867998 C94.8381039,103.346465 94.5563776,103.971923 94.44932,104.744389 L99.1232053,104.744389 Z M109.390539,110.019035 L108.004432,110.019035 L108.004432,104.96921 C108.004432,103.089927 107.333924,102.1503 105.992887,102.1503 C105.29983,102.1503 104.726517,102.416912 104.272931,102.950144 C103.819345,103.483376 103.592555,104.156391 103.592555,104.96921 L103.592555,110.019035 L102.206448,110.019035 L102.206448,101.164546 L103.592555,101.164546 L103.592555,102.63453 L103.626363,102.63453 C104.279977,101.516184 105.226578,100.957019 106.466192,100.957019 C107.412806,100.957019 108.136843,101.269748 108.638323,101.895215 C109.139803,102.520681 109.390539,103.42428 109.390539,104.606037 L109.390539,110.019035 Z M115.584071,109.932566 C115.257264,110.117035 114.826223,110.209269 114.290935,110.209269 C112.775225,110.209269 112.017381,109.344581 112.017381,107.61518 L112.017381,102.375121 L110.529852,102.375121 L110.529852,101.164546 L112.017381,101.164546 L112.017381,99.0028057 L113.403488,98.5445167 L113.403488,101.164546 L115.584071,101.164546 L115.584071,102.375121 L113.403488,102.375121 L113.403488,107.364418 C113.403488,107.958179 113.502093,108.381876 113.699304,108.635521 C113.896515,108.889167 114.223318,109.015988 114.679721,109.015988 C115.029067,109.015988 115.330514,108.91799 115.584071,108.721991 L115.584071,109.932566 Z M123.822956,105.946316 L117.712253,105.946316 C117.734791,106.932075 117.993979,107.693 118.489825,108.229114 C118.985671,108.765229 119.667448,109.033282 120.535178,109.033282 C121.509965,109.033282 122.405855,108.7047 123.222873,108.047528 L123.222873,109.37916 C122.462201,109.944098 121.456438,110.226562 120.205555,110.226562 C118.982845,110.226562 118.022158,109.824483 117.323467,109.020311 C116.624775,108.21614 116.275435,107.08484 116.275435,105.626379 C116.275435,104.248622 116.657174,103.12597 117.420663,102.258387 C118.184153,101.390804 119.132162,100.957019 120.264718,100.957019 C121.397275,100.957019 122.273443,101.331717 122.89325,102.081124 C123.513057,102.830531 123.822956,103.871039 123.822956,105.202678 L123.822956,105.946316 Z M122.403042,104.744389 C122.397407,103.925805 122.204425,103.288819 121.824089,102.83341 C121.443752,102.378001 120.915516,102.1503 120.239363,102.1503 C119.585748,102.1503 119.030747,102.38953 118.574344,102.867998 C118.11794,103.346465 117.836214,103.971923 117.729157,104.744389 L122.403042,104.744389 Z M129.999584,102.599942 C129.757296,102.409708 129.407956,102.314592 128.951552,102.314592 C128.359918,102.314592 127.865489,102.599939 127.468249,103.170641 C127.071009,103.741344 126.872392,104.519563 126.872392,105.505321 L126.872392,110.019035 L125.486285,110.019035 L125.486285,101.164546 L126.872392,101.164546 L126.872392,102.989055 L126.906199,102.989055 C127.103411,102.366471 127.404858,101.880805 127.81055,101.532042 C128.216241,101.18328 128.669821,101.008901 129.171301,101.008901 C129.531916,101.008901 129.808008,101.049253 129.999584,101.129958 L129.999584,102.599942 Z" id="System-Center" fill="#A4AAB5"></path>
        <path d="M31.8050296,93.0911778 L31.2561651,93.0911778 L31.2561651,89.906709 C31.2561651,89.6551281 31.2715025,89.3472771 31.3021777,88.9831468 L31.2890312,88.9831468 C31.2364451,89.1972113 31.1893375,89.3505851 31.1477068,89.4432728 L29.537266,93.0911778 L29.2677636,93.0911778 L27.6606094,89.4697549 C27.6145966,89.363826 27.5674889,89.201625 27.519285,88.9831468 L27.5061386,88.9831468 C27.5236672,89.1729359 27.5324315,89.4829937 27.5324315,89.9133295 L27.5324315,93.0911778 L27,93.0911778 L27,88.3442669 L27.7296283,88.3442669 L29.1757384,91.6545256 C29.2874839,91.9083133 29.3597887,92.0980996 29.392655,92.2238901 L29.4123747,92.2238901 C29.5065914,91.9634818 29.5821828,91.7692819 29.639151,91.6412845 L31.1148407,88.3442669 L31.8050296,88.3442669 L31.8050296,93.0911778 Z M33.0795785,88.8408057 C32.9831707,88.8408057 32.9010061,88.8077034 32.8330824,88.7414979 C32.7651587,88.6752924 32.7311974,88.5914334 32.7311974,88.4899183 C32.7311974,88.3884032 32.7651587,88.3039924 32.8330824,88.2366835 C32.9010061,88.1693746 32.9831707,88.1357206 33.0795785,88.1357206 C33.1781774,88.1357206 33.2619852,88.1693746 33.3310045,88.2366835 C33.4000237,88.3039924 33.4345328,88.3884032 33.4345328,88.4899183 C33.4345328,88.5870197 33.4000237,88.6697753 33.3310045,88.7381877 C33.2619852,88.8066 33.1781774,88.8408057 33.0795785,88.8408057 Z M33.3425076,93.0911778 L32.8035029,93.0911778 L32.8035029,89.701473 L33.3425076,89.701473 L33.3425076,93.0911778 Z M36.5594453,92.9355957 C36.3008971,93.092282 35.9941495,93.1706241 35.6391934,93.1706241 C35.1593454,93.1706241 34.7720766,93.0133883 34.4773754,92.6989122 C34.1826742,92.384436 34.0353258,91.9767266 34.0353258,91.4757716 C34.0353258,90.9174385 34.1941772,90.468903 34.5118848,90.1301515 C34.8295924,89.7914 35.2535614,89.6220268 35.7838044,89.6220268 C36.0796012,89.6220268 36.3403366,89.6771972 36.5660186,89.7875397 L36.5660186,90.3436631 C36.3162346,90.1671151 36.0489261,90.0788424 35.7640847,90.0788424 C35.4200841,90.0788424 35.1379859,90.2029759 34.9177817,90.4512465 C34.6975774,90.6995172 34.5874769,91.0255744 34.5874769,91.429428 C34.5874769,91.826661 34.6910043,92.140029 34.898062,92.3695415 C35.1051197,92.5990539 35.3828358,92.7138084 35.7312186,92.7138084 C36.0248243,92.7138084 36.3008971,92.615605 36.5594453,92.4191953 L36.5594453,92.9355957 Z M38.9613028,90.2509759 C38.867086,90.1781498 38.7312407,90.1417374 38.5537627,90.1417374 C38.3236985,90.1417374 38.1314335,90.2509748 37.9769619,90.469453 C37.8224903,90.6879311 37.7452556,90.9858514 37.7452556,91.3632228 L37.7452556,93.0911778 L37.2062509,93.0911778 L37.2062509,89.701473 L37.7452556,89.701473 L37.7452556,90.3999375 L37.7584021,90.3999375 C37.8350901,90.1615977 37.9523115,89.9756734 38.1100698,89.842159 C38.267828,89.7086445 38.4442079,89.6418883 38.6392146,89.6418883 C38.7794442,89.6418883 38.8868058,89.657336 38.9613028,89.6882319 L38.9613028,90.2509759 Z M40.6959776,93.1706241 C40.1986009,93.1706241 39.8014723,93.0122849 39.50458,92.6956019 C39.2076878,92.3789189 39.0592439,91.959072 39.0592439,91.4360485 C39.0592439,90.8666812 39.2137132,90.4220075 39.5226564,90.1020143 C39.8315997,89.782021 40.2489955,89.6220268 40.7748563,89.6220268 C41.2766153,89.6220268 41.6682662,89.7776074 41.9498208,90.0887732 C42.2313755,90.3999391 42.3721507,90.8313718 42.3721507,91.3830844 C42.3721507,91.9237627 42.2204202,92.3568505 41.9169547,92.6823609 C41.6134892,93.0078713 41.2065009,93.1706241 40.6959776,93.1706241 Z M40.735417,90.0788424 C40.3892252,90.0788424 40.1153435,90.1974589 39.9137635,90.4346953 C39.7121835,90.6719316 39.611395,90.9990923 39.611395,91.416187 C39.611395,91.8178337 39.713279,92.1345119 39.9170501,92.3662312 C40.1208212,92.5979505 40.3936074,92.7138084 40.735417,92.7138084 C41.0837998,92.7138084 41.3516562,92.6001573 41.5389941,92.3728517 C41.726332,92.1455461 41.8199996,91.8222474 41.8199996,91.4029459 C41.8199996,90.9792307 41.726332,90.6526218 41.5389941,90.4231094 C41.3516562,90.1935969 41.0837998,90.0788424 40.735417,90.0788424 Z M42.8611989,92.9686983 L42.8611989,92.3860927 C43.1548045,92.6045709 43.477985,92.7138084 43.83075,92.7138084 C44.3040248,92.7138084 44.5406586,92.5549175 44.5406586,92.2371311 C44.5406586,92.1466502 44.5203913,92.0699634 44.4798562,92.0070681 C44.4393211,91.9441729 44.3845448,91.8884508 44.3155255,91.8399001 C44.2465063,91.7913494 44.1654373,91.7477647 44.0723161,91.7091448 C43.9791949,91.670525 43.8789542,91.6302506 43.7715909,91.5883204 C43.622597,91.5287354 43.4916815,91.4685997 43.3788406,91.4079113 C43.2659996,91.3472229 43.1717843,91.2788116 43.0961918,91.2026753 C43.0205993,91.1265389 42.9636319,91.0399214 42.9252878,90.94282 C42.8869438,90.8457186 42.8677721,90.7320675 42.8677721,90.6018633 C42.8677721,90.4429701 42.9039245,90.3022855 42.9762303,90.1798053 C43.0485362,90.0573252 43.1449426,89.9547082 43.2654524,89.8719513 C43.3859622,89.7891944 43.5234508,89.7268518 43.6779224,89.6849217 C43.8323941,89.6429915 43.9917932,89.6220268 44.1561248,89.6220268 C44.4475393,89.6220268 44.7082748,89.6727835 44.9383389,89.7742986 L44.9383389,90.3238016 C44.6907461,90.1604947 44.405909,90.0788424 44.0838193,90.0788424 C43.9830293,90.0788424 43.8921005,90.0904282 43.8110303,90.1136002 C43.7299601,90.1367721 43.6603941,90.1693226 43.6023303,90.2112528 C43.5442665,90.2531829 43.4993499,90.303388 43.4675791,90.3618696 C43.4358084,90.4203511 43.4199232,90.4849005 43.4199232,90.5555197 C43.4199232,90.6437937 43.4358084,90.7177221 43.4675791,90.777307 C43.4993499,90.836892 43.5459098,90.8898556 43.6072602,90.9361994 C43.6686107,90.9825433 43.7431065,91.0244728 43.83075,91.0619893 C43.9183935,91.0995057 44.0180864,91.1403318 44.1298319,91.1844688 C44.2788258,91.2418469 44.4124801,91.3008793 44.5307988,91.3615677 C44.6491175,91.4222561 44.7499059,91.4906674 44.8331672,91.5668037 C44.9164285,91.6429401 44.9805169,91.730661 45.0254342,91.8299693 C45.0703514,91.9292775 45.0928097,92.0473423 45.0928097,92.184167 C45.0928097,92.3518876 45.0561096,92.4975375 44.9827082,92.6211211 C44.9093068,92.7447047 44.8112571,92.8473217 44.6885562,92.9289752 C44.5658554,93.0106286 44.4245324,93.0713161 44.264583,93.1110394 C44.1046337,93.1507627 43.937018,93.1706241 43.7617311,93.1706241 C43.4155394,93.1706241 43.1153649,93.1033161 42.8611989,92.9686983 Z M47.1594326,93.1706241 C46.6620558,93.1706241 46.2649273,93.0122849 45.968035,92.6956019 C45.6711427,92.3789189 45.5226988,91.959072 45.5226988,91.4360485 C45.5226988,90.8666812 45.6771681,90.4220075 45.9861114,90.1020143 C46.2950546,89.782021 46.7124504,89.6220268 47.2383113,89.6220268 C47.7400702,89.6220268 48.1317211,89.7776074 48.4132758,90.0887732 C48.6948305,90.3999391 48.8356057,90.8313718 48.8356057,91.3830844 C48.8356057,91.9237627 48.6838752,92.3568505 48.3804097,92.6823609 C48.0769441,93.0078713 47.6699558,93.1706241 47.1594326,93.1706241 Z M47.1988719,90.0788424 C46.8526802,90.0788424 46.5787985,90.1974589 46.3772185,90.4346953 C46.1756385,90.6719316 46.07485,90.9990923 46.07485,91.416187 C46.07485,91.8178337 46.176734,92.1345119 46.3805051,92.3662312 C46.5842762,92.5979505 46.8570624,92.7138084 47.1988719,92.7138084 C47.5472548,92.7138084 47.8151111,92.6001573 48.0024491,92.3728517 C48.189787,92.1455461 48.2834546,91.8222474 48.2834546,91.4029459 C48.2834546,90.9792307 48.189787,90.6526218 48.0024491,90.4231094 C47.8151111,90.1935969 47.5472548,90.0788424 47.1988719,90.0788424 Z M51.0698458,88.5495029 C50.9646737,88.489918 50.8452612,88.460126 50.7116049,88.460126 C50.334738,88.460126 50.1463073,88.6995656 50.1463073,89.1784521 L50.1463073,89.701473 L50.9350947,89.701473 L50.9350947,90.1649092 L50.1463073,90.1649092 L50.1463073,93.0911778 L49.6105892,93.0911778 L49.6105892,90.1649092 L49.0354318,90.1649092 L49.0354318,89.701473 L49.6105892,89.701473 L49.6105892,89.15197 C49.6105892,88.7966671 49.7124733,88.5158497 49.9162443,88.3095092 C50.1200154,88.1031687 50.3741777,88 50.6787388,88 C50.8430703,88 50.973438,88.0198614 51.0698458,88.0595847 L51.0698458,88.5495029 Z M53.0280104,93.0580753 C52.9009274,93.1286945 52.7333117,93.1640035 52.5251585,93.1640035 C51.9357561,93.1640035 51.6410593,92.832981 51.6410593,92.1709259 L51.6410593,90.1649092 L51.0626153,90.1649092 L51.0626153,89.701473 L51.6410593,89.701473 L51.6410593,88.8739083 L52.180064,88.6984646 L52.180064,89.701473 L53.0280104,89.701473 L53.0280104,90.1649092 L52.180064,90.1649092 L52.180064,92.0749284 C52.180064,92.302234 52.2184075,92.464435 52.2950955,92.5615365 C52.3717835,92.6586379 52.4988647,92.7071878 52.6763427,92.7071878 C52.8121901,92.7071878 52.9294115,92.6696719 53.0280104,92.594639 L53.0280104,93.0580753 Z M56.0313182,92.2470619 C55.4857376,92.2470619 55.0206864,92.0539654 54.6361506,91.6677666 C54.2516148,91.2815678 54.0593498,90.8137226 54.0593498,90.2642169 C54.0593498,89.7147112 54.2516148,89.2463143 54.6361506,88.8590121 C55.0206864,88.4717099 55.4857376,88.2780617 56.0313182,88.2780617 C56.5747078,88.2780617 57.0386635,88.4717099 57.4231992,88.8590121 C57.807735,89.2463143 58,89.7147112 58,90.2642169 C58,90.8137226 57.807735,91.2815678 57.4231992,91.6677666 C57.0386635,92.0539654 56.5747078,92.2470619 56.0313182,92.2470619 Z M56.0346048,88.589226 C55.5744766,88.589226 55.1817301,88.7525305 54.8563537,89.0791443 C54.5309773,89.4057582 54.3682916,89.8007784 54.3682916,90.2642169 C54.3682916,90.7254486 54.5309773,91.1193655 54.8563537,91.4459793 C55.1817301,91.7725931 55.5744766,91.9358976 56.0346048,91.9358976 C56.492542,91.9358976 56.8830974,91.7725931 57.2062827,91.4459793 C57.529468,91.1193655 57.6910583,90.7254486 57.6910583,90.2642169 C57.6910583,89.8007784 57.529468,89.4057582 57.2062827,89.0791443 C56.8830974,88.7525305 56.492542,88.589226 56.0346048,88.589226 Z M56.9877229,91.5055639 L56.5341702,91.5055639 L56.2613812,90.8997866 C56.1233427,90.5952413 55.9743511,90.4429709 55.8144017,90.4429709 L55.6434978,90.4429709 L55.6434978,91.5055639 L55.2589639,91.5055639 L55.2589639,88.9798366 L55.965586,88.9798366 C56.2570005,88.9798366 56.4821313,89.0416274 56.6409851,89.1652111 C56.7998389,89.2887947 56.8792646,89.4565128 56.8792646,89.6683704 C56.8792646,89.8405047 56.8233928,89.9878097 56.7116473,90.1102899 C56.5999019,90.2327701 56.4443371,90.314974 56.2449481,90.3569042 L56.2449481,90.366835 C56.3829866,90.3977309 56.521023,90.5533115 56.6590615,90.8335814 L56.9877229,91.5055639 Z M55.6434978,89.3075522 L55.6434978,90.1185656 L55.9524395,90.1185656 C56.2986312,90.1185656 56.4717245,89.9828463 56.4717245,89.7114037 C56.4717245,89.5547174 56.4251646,89.4482385 56.3320434,89.3919638 C56.2389222,89.3356891 56.0915738,89.3075522 55.8899938,89.3075522 L55.6434978,89.3075522 Z" id="Microsoft" fill="#A4AAB5"></path>
    </g>
</svg>
