<?xml version="1.0" encoding="UTF-8"?>
<svg width="105px" height="42px" viewBox="0 0 105 42" version="1.1" xmlns="http://www.w3.org/2000/svg" xmlns:xlink="http://www.w3.org/1999/xlink">
    <!-- Generator: Sketch 53 (72520) - https://sketchapp.com -->
    <title>Provider/SCVMM/scvmm-42</title>
    <desc>Created with Sketch.</desc>
    <g id="Provider/SCVMM/scvmm-42" stroke="none" stroke-width="1" fill="none" fill-rule="evenodd">
        <path d="M12.6605211,2.9026126 C12.7496771,3.9829543 12.9774073,5.01889839 13.3722414,6.11403929 C12.1423968,5.76651322 9.14624262,5.28885624 8.11712658,5.1490293 C9.89362541,4.00387731 12.361466,3.04090859 12.6605211,2.9026126 M6.6086055,7.61845465 C5.961587,7.07751832 6.64783418,6.31306303 7.05336703,5.94563458 C7.21231961,5.80121479 7.39114126,5.65730532 7.58371842,5.51492679 C8.08808717,6.1941591 9.377539,7.96496009 9.87375633,8.52426783 L10.7709214,8.45486468 C10.3149516,8.01905372 8.34129047,5.9078711 7.78037129,5.37509986 C7.78699431,5.36999668 7.79514572,5.36540383 7.80227821,5.36030066 C8.72338801,5.75477592 11.8739096,6.4243122 13.5296656,6.53147883 C13.5332318,6.54066454 13.5362886,6.54985025 13.5408738,6.5600566 C12.9549909,6.87288109 11.8937787,7.43065789 10.7479955,8.24614491 L11.4984351,8.38188931 C12.362485,7.90270138 12.9789357,7.42198249 13.634615,6.7932716 C13.9362174,7.52098405 14.3086351,8.28237744 14.7646048,9.10653986 L15.4931375,9.19227316 C14.1751557,6.72284781 13.1786453,4.49020968 12.7613948,2.625 C11.8036036,2.93833481 6.51843048,4.9188762 5.54688381,6.35235746 C5.17039036,6.90911362 6.25809469,7.34288331 6.6086055,7.61845465" id="Fill-45-Copy" fill="#616870"></path>
        <path d="M17.6286321,29.2467551 C16.2449296,28.8344187 14.944779,28.115892 13.7725038,27.2856057 C16.2067198,25.9786832 17.7972645,24.7151376 17.9765956,24.5125416 C17.9872944,26.2593577 17.8446446,27.881146 17.6286321,29.2467551 M17.5944981,29.4570058 C16.5531549,30.1301143 13.0730105,31.5569614 11.4468034,32.2086366 C12.2981167,30.5684768 12.9089633,29.0206845 13.3369126,27.6275183 C15.1348089,28.815537 17.0162571,29.312586 17.5960265,29.4467994 C17.595517,29.450882 17.5950075,29.4534336 17.5944981,29.4570058 M17.4442064,30.2694309 C17.219533,31.3722266 16.7345239,33.1246561 16.2332119,34.772981 C14.5438313,34.4652596 12.7189335,33.9064622 11.1125954,33.0720934 C12.8692252,32.2714056 16.5220777,30.4827435 17.5430423,29.7529898 C17.5114556,29.9300699 17.4788499,30.1025572 17.4442064,30.2694309 M8.32430233,37.4934824 C8.30698058,37.4985856 8.29169667,37.5047094 8.27794116,37.5118538 C8.19133239,37.4893999 8.10727093,37.4679666 8.02677571,37.4470435 C9.07525136,36.1304249 9.95560409,34.8306468 10.6933071,33.5727147 C13.2411335,34.718377 15.7955829,34.9265865 16.1246962,34.9623087 C14.9213437,35.4659918 8.62998036,37.3990737 8.32430233,37.4934824 M14.9004557,38.7131407 C13.5249046,38.5365709 10.6963639,38.0711616 8.80319791,37.6368816 C11.4269343,36.9821445 13.1550341,36.690243 16.1139975,35.1623531 C15.6351019,36.712697 15.160282,38.1130076 14.9004557,38.7131407 M7.67117027,37.3470214 C7.55348423,37.3102785 7.44700638,37.2755769 7.35428405,37.2424063 C5.58186093,36.6034891 4.77741824,36.2386122 3.70703567,35.4562958 C4.52523387,35.2067507 8.09351542,34.1998946 9.83078556,33.5961893 C8.85567264,35.3154482 7.99060381,36.6713613 7.67473652,37.336815 C7.67320813,37.3393666 7.67269866,37.3419182 7.67117027,37.3470214 M3.25106594,35.112342 C4.28323876,33.4747338 5.53295244,31.9764422 6.66803687,30.4781507 C6.94773227,30.8445585 7.25850493,31.1915742 7.58608989,31.5140948 C8.17095385,32.088712 8.82765216,32.5673897 9.51135202,32.9674784 C7.51425555,33.7426504 5.4361544,34.5428279 3.45688915,35.2705403 C3.38963998,35.2195086 3.32137189,35.1669459 3.25106594,35.112342 M0.941158955,31.5049091 C2.5851973,31.0690981 4.32959993,30.6644165 6.05209563,30.2071722 C4.77487093,32.2535445 3.66780699,33.7579599 3.01467493,34.9189317 C2.04873235,34.0998725 1.00484188,32.8006046 0.941158955,31.5049091 M9.98668136,28.9982305 C10.903206,28.6609108 11.7672559,28.2858276 12.5660945,27.9000277 C11.95321,29.5626415 11.1492768,31.1925949 10.3652127,32.6347515 C10.3590991,32.6367928 10.3524761,32.640365 10.3463625,32.641896 C9.95560409,32.4061294 9.58318636,32.1519914 9.23624179,31.8784613 C8.48325491,31.2854726 7.79496987,30.616957 7.26767527,29.8729144 C8.19642702,29.6070391 9.10938541,29.3207511 9.98668136,28.9982305 M14.207076,21.9094131 C15.0395392,22.5069947 17.1910031,23.8618871 17.950613,24.1731806 C16.9668392,24.957028 15.5765136,25.8036443 13.5967389,26.7140504 C14.1576581,24.5916408 14.2804388,22.9045318 14.207076,21.9094131 M18.3831474,20.2161804 C18.3530891,20.0630852 17.8033781,20.40857 17.6617473,20.4412303 C17.8436257,21.6251664 17.9383859,22.7983858 17.9669158,23.9292489 C16.963273,23.3653483 15.0298594,22.008925 14.513773,21.5297371 L14.1887354,21.7093687 C14.1831313,21.6573164 14.1765082,21.606795 14.1693757,21.5588251 L13.6456474,21.7466219 C13.4785434,21.8844076 13.5406979,21.7256989 13.5656616,21.944625 C13.7332751,23.4122975 13.4734488,25.0315343 12.9828355,26.6579155 C11.946587,25.7209729 11.0035703,24.4018027 10.7457818,23.152546 C10.6342093,23.1969436 10.5231463,23.2418516 10.4120833,23.2867595 C10.2826796,23.3367706 10.2128831,23.3107444 10.2531307,23.4602674 C10.6856651,25.1060406 11.8513173,26.4231695 12.6695155,27.1268971 C11.7096865,27.5392334 10.6280958,27.964838 9.40996881,28.4026903 C8.97488707,28.5593577 8.40428808,28.7604227 7.74249515,28.9870036 C8.34926604,28.050061 9.7467241,25.1381906 10.2409036,23.3408531 L9.49708704,23.6618427 C8.67226582,25.7817007 7.37873829,27.987292 6.85042476,28.889533 C6.82087588,28.9400544 6.79234593,28.9870036 6.76330652,29.0370147 C6.22633211,27.9617761 6.0413969,26.747221 6.44540137,25.3877357 L6.43011747,25.4107 C6.50348019,25.1841191 5.78564628,25.759757 5.7158498,25.7929277 C5.50646035,25.8929499 5.52174425,26.0603339 5.48047772,26.2818116 C5.41985157,26.6155591 5.38775538,26.9574717 5.39132162,27.3039772 C5.40100143,28.0704737 5.65522366,28.834929 6.0566808,29.555497 C4.48192948,30.0780619 2.6631452,30.6562514 0.949310369,31.1522798 C0.954914467,31.0905314 0.962046954,31.0282727 0.973764612,30.966014 C1.21423133,29.6228589 2.47413428,27.9459563 3.88636678,27.0523907 L4.22719779,26.6084147 L2.28767068,28.0648602 C1.35688108,28.9099457 0.325727186,30.2260539 0.0689576399,31.4166242 C-0.310592582,33.1838529 0.940649492,34.5872255 2.25455556,35.5920402 C3.70703567,36.699939 5.2288028,37.251592 6.98033792,37.7955902 C8.89846757,38.3916408 12.7831259,38.9519692 14.7695236,38.9774851 C14.8989273,38.9795264 15.10526,38.958093 15.10526,38.958093 C15.10526,38.958093 15.2005296,38.7651931 15.2112284,38.7524352 C15.3829175,38.4237908 17.685692,33.7824551 18.3062184,29.8591358 C18.7260163,27.2126304 19.0311848,23.6296927 18.3831474,20.2161804" id="Fill-47-Copy" fill="#616870"></path>
        <polyline id="Fill-49-Copy" fill="#616870" points="16.568548 37.8468506 16.2740782 37.8468506 16.2740782 38.8312526 16.1543543 38.8312526 16.1543543 37.8468506 15.859375 37.8468506 15.859375 37.7294776 16.568548 37.7294776"></polyline>
        <path d="M17.9954871,38.831763 L17.8762727,38.831763 L17.8762727,38.0918029 C17.8762727,38.0336267 17.8793294,37.9621823 17.8864619,37.8779799 L17.8834051,37.8779799 C17.8716875,37.9274807 17.8614982,37.9632029 17.8523279,37.9856569 L17.5038549,38.831763 L17.4457761,38.831763 L17.0967937,37.9912704 C17.0860949,37.9672855 17.0764151,37.929522 17.0662259,37.8779799 L17.0626596,37.8779799 C17.0667353,37.9223775 17.0687732,37.993822 17.0687732,38.0928235 L17.0687732,38.831763 L16.953125,38.831763 L16.953125,37.7294776 L17.1115681,37.7294776 L17.4248881,38.4980154 C17.4488329,38.5561916 17.4641168,38.5995686 17.4707398,38.6296773 L17.4763439,38.6296773 C17.4972319,38.5694599 17.5130253,38.5245519 17.5252524,38.4949535 L17.8451954,37.7299879 L17.9954871,37.7299879" id="Fill-51-Copy" fill="#616870"></path>
        <path d="M21.7529318,18.5789743 C23.6027934,16.7260122 24.4938449,15.5609579 25.5020729,13.1956372 C27.6392718,14.453059 29.1263954,15.9748252 29.8905905,16.9321804 C29.9303286,16.9827018 30.0036914,17.0480224 30.0897907,17.1102812 C29.0672977,17.1730502 26.1485819,17.4134096 21.7529318,18.5789743 L21.7529318,18.5789743 Z M21.1166121,18.7514615 L21.1278203,18.7412552 C20.3804375,17.4756683 19.4710453,16.477998 18.4694403,15.6706761 C20.4853869,14.7051558 22.7168366,13.8059767 25.1164091,13.0951047 C24.3354017,14.5275654 23.0535919,16.0748474 21.1278203,18.7412552 L21.1359717,18.7463584 C21.1293487,18.747379 21.1232351,18.7494203 21.1166121,18.7514615 L21.1166121,18.7514615 Z M13.5709499,21.3270329 C15.4014518,19.5781755 16.7082254,17.9058658 17.6216933,16.3611354 C18.6981894,17.0985439 19.725777,17.9461809 20.6122433,18.8928194 C18.5402557,19.4858081 16.1804213,20.2742483 13.5709499,21.3270329 L13.5709499,21.3270329 Z M13.0090118,21.5546344 C13.0181821,20.5161387 12.7756775,19.7052446 12.4251667,19.0801059 C13.6336139,18.292176 15.0269962,17.4516834 16.5772933,16.6270107 C15.656693,18.0803943 14.4772852,19.7261676 13.012578,21.5536138 L13.0090118,21.5546344 Z M7.51597754,24.0847875 C9.40048261,22.6681467 10.8376788,21.2009845 11.8978721,19.7435184 C12.3737109,20.3936626 12.60246,21.0933076 12.6554442,21.7005851 C10.6496868,22.5313817 9.04691502,23.2249029 7.51597754,24.0847875 L7.51597754,24.0847875 Z M8.34844072,22.0037136 C9.01685668,21.4796178 9.95325038,20.7656839 11.1245067,19.9547897 C9.99349799,21.471963 8.51656363,22.8799284 6.70032666,24.0628439 C7.33409912,23.3744258 7.88075333,22.6870285 8.34844072,22.0037136 L8.34844072,22.0037136 Z M10.1845468,18.3161609 C10.6364408,18.5478449 11.015991,18.8172925 11.3313488,19.1107249 C10.4377501,19.7889366 9.65317644,20.4452046 8.96692927,21.0463584 C9.54211343,20.1635095 9.93338131,19.2413661 10.1845468,18.3161609 L10.1845468,18.3161609 Z M9.0499718,8.65840625 C10.5406617,9.02430375 12.1184698,9.32385999 13.0355039,9.48767184 C12.3721825,9.85101775 10.8448113,10.8430746 10.1234111,11.7978782 C9.76882463,10.3286747 9.29298583,9.18913623 9.0499718,8.65840625 L9.0499718,8.65840625 Z M6.57194189,7.92457 C7.16393835,8.15166119 7.91794416,8.37211826 8.7132165,8.57471422 C9.06474623,9.66424163 9.34546056,10.6527262 9.56351089,11.5534362 C8.87420693,10.171497 7.84509089,8.9431633 6.57194189,7.92457 L6.57194189,7.92457 Z M13.4451124,9.55962658 C13.7951138,10.6940619 13.9178944,11.9183131 13.8154923,13.1782865 C12.7206555,12.7812596 11.6268376,12.4648629 10.5931364,12.1612241 C11.2727605,11.3064427 12.2871021,10.4644191 13.416073,9.55503373 C13.4252433,9.55707499 13.4354326,9.55809563 13.4451124,9.55962658 L13.4451124,9.55962658 Z M18.6253361,10.5955707 C17.1107015,11.3110355 15.823797,11.9999638 14.3916954,13.0961254 C14.4344903,11.8004298 14.2026845,10.6190453 13.7757542,9.61729243 C15.4019613,9.90358043 17.0246022,10.2031367 18.6253361,10.5955707 L18.6253361,10.5955707 Z M14.2510835,14.4408114 C15.0387139,14.8092605 15.8538553,15.2420096 16.6588075,15.7359967 C15.335731,16.4182909 14.1410394,17.1414105 13.0670906,17.8650404 C13.6815034,16.6872281 14.062582,15.5349317 14.2510835,14.4408114 L14.2510835,14.4408114 Z M13.6117069,14.5765558 C13.3340494,15.9044014 12.8164346,17.2455152 12.0619193,18.5381489 C11.5713061,17.9145412 10.9940841,17.5466024 10.5961932,17.3526819 C11.133677,16.7933741 12.1678877,15.7712086 13.6117069,14.5765558 L13.6117069,14.5765558 Z M10.3806902,13.0818365 C11.1774909,13.245138 12.1811338,13.5589832 13.2759706,14.0116346 C12.4389222,14.7403677 11.5280017,15.6252578 10.4866585,16.7367289 C10.6338935,15.4578738 10.5600213,14.2096377 10.3806902,13.0818365 L10.3806902,13.0818365 Z M17.5457832,14.9955263 C16.6883563,14.4260122 15.7815115,13.9687679 14.8604017,13.5850093 C16.0887179,12.6480668 17.5264236,11.6631544 19.1383657,10.7481555 C19.0497191,11.7698107 18.5392368,13.1951269 17.5457832,14.9955263 L17.5457832,14.9955263 Z M23.3123993,12.120909 C23.816768,12.3214637 24.2941352,12.5434518 24.7475576,12.7781977 C22.3872138,13.3227063 20.2729407,14.0631766 18.3884356,14.9052002 C19.1021938,13.3594491 19.4221369,11.9754686 19.5026321,10.8206206 C20.7920839,11.1691673 22.0662518,11.5871172 23.3123993,12.120909 L23.3123993,12.120909 Z M30.4713787,17.1194669 C28.6510661,14.0197997 25.8474891,11.168657 17.4973842,9.50604327 C15.7290368,9.15443466 13.6387085,8.8752911 9.9863655,8.18789372 C8.70404616,7.94702396 4.8632017,7.31320989 5.34413513,6.46455224 C5.08278042,6.79676879 5.28554684,7.12030995 5.44806566,7.30300354 C7.35396819,9.64178766 10.0974285,11.0135205 10.0974285,15.7747808 C10.0974285,20.1507515 6.44151927,24.206243 2.78102484,27.4855419 C2.58640983,27.6549672 2.38873804,27.8284751 2.1875,28.0111687 C6.60607594,25.1074633 9.36482017,23.9163828 12.7914709,22.4767777 C17.0974554,20.6682133 25.653893,18.0742705 30.5946689,17.3302279 L30.4713787,17.1194669 Z" id="Fill-53-Copy" fill="#616870"></path>
        <g id="Group-2-Copy" transform="translate(34.453125, 11.401119)" fill="#616870">
            <path d="M4.01661711,13.7605011 L2.2910316,18.5266 L1.68983891,18.5266 L0,13.7605011 L0.607692071,13.7605011 L1.89781909,17.5394791 C1.93898204,17.6613465 1.97039539,17.8020458 1.9920601,17.9615813 L2.00505886,17.9615813 C2.02239063,17.828635 2.05813687,17.68572 2.11229864,17.5328318 L3.42842318,13.7605011 L4.01661711,13.7605011 Z M4.72114992,14.259047 C4.62582519,14.259047 4.54458375,14.2258109 4.47742315,14.1593378 C4.41026255,14.0928647 4.37668275,14.0086667 4.37668275,13.9067412 C4.37668275,13.8048158 4.41026255,13.7200638 4.47742315,13.6524828 C4.54458375,13.5849018 4.62582519,13.5511118 4.72114992,13.5511118 C4.81864111,13.5511118 4.90150738,13.5849018 4.96975122,13.6524828 C5.03799505,13.7200638 5.07211646,13.8048158 5.07211646,13.9067412 C5.07211646,14.0042351 5.03799505,14.0873253 4.96975122,14.1560142 C4.90150738,14.2247031 4.81864111,14.259047 4.72114992,14.259047 Z M4.98112513,18.5266 L4.44817594,18.5266 L4.44817594,15.1231932 L4.98112513,15.1231932 L4.98112513,18.5266 Z M7.62897269,15.6749174 C7.53581444,15.6017969 7.40149525,15.5652373 7.2260111,15.5652373 C6.99853165,15.5652373 6.80842668,15.6749163 6.65569047,15.8942776 C6.50295427,16.1136389 6.42658731,16.4127634 6.42658731,16.7916602 L6.42658731,18.5266 L5.89363812,18.5266 L5.89363812,15.1231932 L6.42658731,15.1231932 L6.42658731,15.8244811 L6.43958607,15.8244811 C6.51541256,15.5851779 6.63131702,15.398502 6.78730293,15.2644479 C6.94328884,15.1303938 7.11768713,15.0633677 7.31050305,15.0633677 C7.44915719,15.0633677 7.55531268,15.0788779 7.62897269,15.1098987 L7.62897269,15.6749174 Z M9.77636796,18.4933636 C9.65071264,18.5642682 9.4849801,18.59972 9.27916535,18.59972 C8.69638466,18.59972 8.40499868,18.2673594 8.40499868,17.6026282 L8.40499868,15.5885028 L7.83305321,15.5885028 L7.83305321,15.1231932 L8.40499868,15.1231932 L8.40499868,14.2922834 L8.93794788,14.1161305 L8.93794788,15.1231932 L9.77636796,15.1231932 L9.77636796,15.5885028 L8.93794788,15.5885028 L8.93794788,17.5062427 C8.93794788,17.7344671 8.97586055,17.8973238 9.05168704,17.9948177 C9.12751352,18.0923116 9.25316695,18.1410578 9.4286511,18.1410578 C9.5629723,18.1410578 9.67887676,18.1033903 9.77636796,18.0280541 L9.77636796,18.4933636 Z M13.0124094,18.5266 L12.4794602,18.5266 L12.4794602,17.9881704 L12.4664615,17.9881704 C12.2454814,18.4003037 11.9031842,18.6063673 11.4395594,18.6063673 C10.646631,18.6063673 10.2501728,18.1233366 10.2501728,17.1572605 L10.2501728,15.1231932 L10.7798723,15.1231932 L10.7798723,17.0708459 C10.7798723,17.7887556 11.0485106,18.1477051 11.5857954,18.1477051 C11.845772,18.1477051 12.0597078,18.0496587 12.2276093,17.853563 C12.3955108,17.6574673 12.4794602,17.4009957 12.4794602,17.0841405 L12.4794602,15.1231932 L13.0124094,15.1231932 L13.0124094,18.5266 Z M16.3036957,18.5266 L15.7707465,18.5266 L15.7707465,17.9948177 L15.7577477,17.9948177 C15.5259353,18.4025195 15.1847213,18.6063673 14.7340953,18.6063673 C14.4026252,18.6063673 14.1431942,18.5166299 13.9557945,18.3371525 C13.7683947,18.1576751 13.6746963,17.9194833 13.6746963,17.6225701 C13.6746963,16.9866439 14.0408244,16.6166157 14.7730916,16.5124745 L15.7707465,16.369558 C15.7707465,15.7912419 15.5421872,15.5020881 15.0850618,15.5020881 C14.6842647,15.5020881 14.3224695,15.6416796 13.9996653,15.9208667 L13.9996653,15.3624953 C14.3268024,15.1497813 14.7037627,15.0434259 15.1305575,15.0434259 C15.9126535,15.0434259 16.3036957,15.4666317 16.3036957,16.3130561 L16.3036957,18.5266 Z M15.7707465,16.8049548 L14.968073,16.9179585 C14.7210953,16.9534108 14.5347816,17.0160054 14.4091263,17.1057441 C14.283471,17.1954828 14.2206442,17.354462 14.2206442,17.5826864 C14.2206442,17.7488692 14.2785965,17.8845831 14.3945027,17.9898322 C14.5104089,18.0950813 14.6647676,18.1477051 14.8575835,18.1477051 C15.121893,18.1477051 15.3401617,18.0529823 15.5123961,17.8635339 C15.6846305,17.6740855 15.7707465,17.4342319 15.7707465,17.143966 L15.7707465,16.8049548 Z M17.674415,18.5266 L17.1414658,18.5266 L17.1414658,13.4879627 L17.674415,13.4879627 L17.674415,18.5266 Z M25.0661603,18.5266 L24.523462,18.5266 L24.523462,15.3292589 C24.523462,15.076661 24.5386271,14.7675657 24.5689577,14.4019635 L24.5559589,14.4019635 C24.5039636,14.6168932 24.4573852,14.770887 24.4162222,14.8639494 L22.823874,18.5266 L22.5573994,18.5266 L20.9683009,14.8905385 C20.922805,14.7841815 20.8762266,14.6213248 20.8285642,14.4019635 L20.8155655,14.4019635 C20.8328972,14.5925198 20.841563,14.9038309 20.841563,15.3359062 L20.841563,18.5266 L20.3151132,18.5266 L20.3151132,13.7605011 L21.0365444,13.7605011 L22.4664081,17.0841405 C22.5768981,17.3389541 22.6483906,17.5295075 22.6808877,17.6558064 L22.7003858,17.6558064 C22.793544,17.3943455 22.8682862,17.1993606 22.9246144,17.0708459 L24.3837253,13.7605011 L25.0661603,13.7605011 L25.0661603,18.5266 Z M28.4354391,18.5266 L27.9024899,18.5266 L27.9024899,17.9948177 L27.8894911,17.9948177 C27.6576787,18.4025195 27.3164646,18.6063673 26.8658387,18.6063673 C26.5343686,18.6063673 26.2749376,18.5166299 26.0875379,18.3371525 C25.9001381,18.1576751 25.8064397,17.9194833 25.8064397,17.6225701 C25.8064397,16.9866439 26.1725678,16.6166157 26.904835,16.5124745 L27.9024899,16.369558 C27.9024899,15.7912419 27.6739306,15.5020881 27.2168052,15.5020881 C26.8160081,15.5020881 26.4542129,15.6416796 26.1314087,15.9208667 L26.1314087,15.3624953 C26.4585458,15.1497813 26.8355061,15.0434259 27.2623009,15.0434259 C28.0443969,15.0434259 28.4354391,15.4666317 28.4354391,16.3130561 L28.4354391,18.5266 Z M27.9024899,16.8049548 L27.0998164,16.9179585 C26.8528387,16.9534108 26.666525,17.0160054 26.5408697,17.1057441 C26.4152143,17.1954828 26.3523876,17.354462 26.3523876,17.5826864 C26.3523876,17.7488692 26.4103399,17.8845831 26.5262461,17.9898322 C26.6421523,18.0950813 26.796511,18.1477051 26.9893269,18.1477051 C27.2536364,18.1477051 27.471905,18.0529823 27.6441395,17.8635339 C27.8163739,17.6740855 27.9024899,17.4342319 27.9024899,17.143966 L27.9024899,16.8049548 Z M31.5414929,18.3703889 C31.2858494,18.5277086 30.982548,18.6063673 30.6315797,18.6063673 C30.1571225,18.6063673 29.7742045,18.448496 29.4828142,18.1327487 C29.1914238,17.8170014 29.0457308,17.4076439 29.0457308,16.9046639 C29.0457308,16.344074 29.2027976,15.8937253 29.5169359,15.5536045 C29.8310742,15.2134837 30.2502801,15.0434259 30.774566,15.0434259 C31.0670396,15.0434259 31.3248458,15.0988193 31.5479923,15.2096079 L31.5479923,15.7679793 C31.3010146,15.5907176 31.0367091,15.5020881 30.7550679,15.5020881 C30.414932,15.5020881 30.136003,15.6267234 29.9182727,15.8759976 C29.7005423,16.1252718 29.5916788,16.452647 29.5916788,16.858133 C29.5916788,17.2569717 29.694043,17.5716064 29.8987745,17.8020466 C30.103506,18.0324867 30.3781021,18.1477051 30.722571,18.1477051 C31.0128781,18.1477051 31.2858494,18.0491048 31.5414929,17.8519012 L31.5414929,18.3703889 Z M34.9432686,18.5266 L34.4103194,18.5266 L34.4103194,16.5656527 C34.4103194,15.8566061 34.1525132,15.5020881 33.6368932,15.5020881 C33.3769166,15.5020881 33.1581064,15.604566 32.9804557,15.8095248 C32.8028051,16.0144836 32.7139811,16.2776024 32.7139811,16.5988891 L32.7139811,18.5266 L32.1810319,18.5266 L32.1810319,13.4879627 L32.7139811,13.4879627 L32.7139811,15.6882119 L32.7269799,15.6882119 C32.9826235,15.2583524 33.3465851,15.0434259 33.8188758,15.0434259 C34.5684748,15.0434259 34.9432686,15.5054071 34.9432686,16.4293835 L34.9432686,18.5266 Z M36.0540127,14.259047 C35.958688,14.259047 35.8774465,14.2258109 35.8102859,14.1593378 C35.7431253,14.0928647 35.7095455,14.0086667 35.7095455,13.9067412 C35.7095455,13.8048158 35.7431253,13.7200638 35.8102859,13.6524828 C35.8774465,13.5849018 35.958688,13.5511118 36.0540127,13.5511118 C36.1515039,13.5511118 36.2343702,13.5849018 36.302614,13.6524828 C36.3708578,13.7200638 36.4049793,13.8048158 36.4049793,13.9067412 C36.4049793,14.0042351 36.3708578,14.0873253 36.302614,14.1560142 C36.2343702,14.2247031 36.1515039,14.259047 36.0540127,14.259047 Z M36.3139879,18.5266 L35.7810387,18.5266 L35.7810387,15.1231932 L36.3139879,15.1231932 L36.3139879,18.5266 Z M39.9887376,18.5266 L39.4557884,18.5266 L39.4557884,16.5855946 C39.4557884,15.8632533 39.1979822,15.5020881 38.6823621,15.5020881 C38.4158862,15.5020881 38.1954511,15.604566 38.0210502,15.8095248 C37.8466493,16.0144836 37.7594501,16.2731709 37.7594501,16.5855946 L37.7594501,18.5266 L37.2265009,18.5266 L37.2265009,15.1231932 L37.7594501,15.1231932 L37.7594501,15.6882119 L37.7724489,15.6882119 C38.0237595,15.2583524 38.3877212,15.0434259 38.8643448,15.0434259 C39.2283119,15.0434259 39.5066992,15.1636297 39.6995152,15.4040408 C39.8923311,15.6444519 39.9887376,15.9917687 39.9887376,16.4460017 L39.9887376,18.5266 Z M43.5010027,16.9611658 L41.1514767,16.9611658 C41.1601426,17.3400626 41.2597988,17.6325399 41.4504482,17.8386066 C41.6410977,18.0446733 41.9032367,18.1477051 42.2368733,18.1477051 C42.6116727,18.1477051 42.9561365,18.021408 43.2702747,17.7688102 L43.2702747,18.2806507 C42.9778012,18.4977962 42.5910919,18.6063673 42.1101353,18.6063673 C41.6400111,18.6063673 41.2706334,18.4518196 41.001991,18.1427196 C40.7333486,17.8336196 40.5990294,17.3987811 40.5990294,16.8381912 C40.5990294,16.308622 40.7458056,15.8771071 41.0393624,15.5436336 C41.3329192,15.2101601 41.6974225,15.0434259 42.1328832,15.0434259 C42.5683438,15.0434259 42.905225,15.1874488 43.1435368,15.475499 C43.3818486,15.7635492 43.5010027,16.1634898 43.5010027,16.6753328 L43.5010027,16.9611658 Z M42.9550548,16.4991799 C42.9528883,16.1845405 42.8786878,15.9397015 42.732451,15.7646556 C42.5862142,15.5896098 42.3831106,15.5020881 42.1231341,15.5020881 C41.8718235,15.5020881 41.6584293,15.5940412 41.4829451,15.7779502 C41.307461,15.9618592 41.1991391,16.2022667 41.1579761,16.4991799 L42.9550548,16.4991799 Z M50.6197741,18.5266 L50.0770758,18.5266 L50.0770758,15.3292589 C50.0770758,15.076661 50.0922409,14.7675657 50.1225715,14.4019635 L50.1095727,14.4019635 C50.0575774,14.6168932 50.010999,14.770887 49.969836,14.8639494 L48.3774878,18.5266 L48.1110132,18.5266 L46.5219147,14.8905385 C46.4764188,14.7841815 46.4298404,14.6213248 46.382178,14.4019635 L46.3691793,14.4019635 C46.386511,14.5925198 46.3951768,14.9038309 46.3951768,15.3359062 L46.3951768,18.5266 L45.868727,18.5266 L45.868727,13.7605011 L46.5901582,13.7605011 L48.0200219,17.0841405 C48.1305119,17.3389541 48.2020044,17.5295075 48.2345015,17.6558064 L48.2539996,17.6558064 C48.3471579,17.3943455 48.4219,17.1993606 48.4782282,17.0708459 L49.9373391,13.7605011 L50.6197741,13.7605011 L50.6197741,18.5266 Z M53.9890529,18.5266 L53.4561037,18.5266 L53.4561037,17.9948177 L53.4431049,17.9948177 C53.2112925,18.4025195 52.8700785,18.6063673 52.4194525,18.6063673 C52.0879824,18.6063673 51.8285514,18.5166299 51.6411517,18.3371525 C51.4537519,18.1576751 51.3600535,17.9194833 51.3600535,17.6225701 C51.3600535,16.9866439 51.7261816,16.6166157 52.4584488,16.5124745 L53.4561037,16.369558 C53.4561037,15.7912419 53.2275444,15.5020881 52.770419,15.5020881 C52.3696219,15.5020881 52.0078267,15.6416796 51.6850225,15.9208667 L51.6850225,15.3624953 C52.0121596,15.1497813 52.3891199,15.0434259 52.8159147,15.0434259 C53.5980107,15.0434259 53.9890529,15.4666317 53.9890529,16.3130561 L53.9890529,18.5266 Z M53.4561037,16.8049548 L52.6534302,16.9179585 C52.4064525,16.9534108 52.2201388,17.0160054 52.0944835,17.1057441 C51.9688281,17.1954828 51.9060014,17.354462 51.9060014,17.5826864 C51.9060014,17.7488692 51.9639537,17.8845831 52.0798599,17.9898322 C52.1957661,18.0950813 52.3501248,18.1477051 52.5429407,18.1477051 C52.8072502,18.1477051 53.0255189,18.0529823 53.1977533,17.8635339 C53.3699877,17.6740855 53.4561037,17.4342319 53.4561037,17.143966 L53.4561037,16.8049548 Z M57.5890597,18.5266 L57.0561105,18.5266 L57.0561105,16.5855946 C57.0561105,15.8632533 56.7983043,15.5020881 56.2826842,15.5020881 C56.0162083,15.5020881 55.7957731,15.604566 55.6213722,15.8095248 C55.4469713,16.0144836 55.3597722,16.2731709 55.3597722,16.5855946 L55.3597722,18.5266 L54.826823,18.5266 L54.826823,15.1231932 L55.3597722,15.1231932 L55.3597722,15.6882119 L55.3727709,15.6882119 C55.6240816,15.2583524 55.9880432,15.0434259 56.4646668,15.0434259 C56.828634,15.0434259 57.1070213,15.1636297 57.2998372,15.4040408 C57.4926531,15.6444519 57.5890597,15.9917687 57.5890597,16.4460017 L57.5890597,18.5266 Z M60.8088527,18.5266 L60.2759035,18.5266 L60.2759035,17.9948177 L60.2629047,17.9948177 C60.0310923,18.4025195 59.6898783,18.6063673 59.2392523,18.6063673 C58.9077823,18.6063673 58.6483512,18.5166299 58.4609515,18.3371525 C58.2735518,18.1576751 58.1798533,17.9194833 58.1798533,17.6225701 C58.1798533,16.9866439 58.5459814,16.6166157 59.2782486,16.5124745 L60.2759035,16.369558 C60.2759035,15.7912419 60.0473442,15.5020881 59.5902189,15.5020881 C59.1894217,15.5020881 58.8276265,15.6416796 58.5048223,15.9208667 L58.5048223,15.3624953 C58.8319594,15.1497813 59.2089197,15.0434259 59.6357145,15.0434259 C60.4178105,15.0434259 60.8088527,15.4666317 60.8088527,16.3130561 L60.8088527,18.5266 Z M60.2759035,16.8049548 L59.47323,16.9179585 C59.2262523,16.9534108 59.0399386,17.0160054 58.9142833,17.1057441 C58.788628,17.1954828 58.7258013,17.354462 58.7258013,17.5826864 C58.7258013,17.7488692 58.7837535,17.8845831 58.8996597,17.9898322 C59.0155659,18.0950813 59.1699246,18.1477051 59.3627405,18.1477051 C59.62705,18.1477051 59.8453187,18.0529823 60.0175531,17.8635339 C60.1897876,17.6740855 60.2759035,17.4342319 60.2759035,17.143966 L60.2759035,16.8049548 Z M64.486852,18.2540615 C64.486852,19.5037562 63.9019137,20.1285942 62.7320193,20.1285942 C62.3203898,20.1285942 61.9607611,20.0488276 61.6531222,19.8892921 L61.6531222,19.3442153 C62.0279217,19.5569292 62.385384,19.6632846 62.7255199,19.6632846 C63.544446,19.6632846 63.9539029,19.2179214 63.9539029,18.3271816 L63.9539029,17.954934 L63.9409041,17.954934 C63.687427,18.389225 63.3061338,18.6063673 62.7970131,18.6063673 C62.3832172,18.6063673 62.0501273,18.4551432 61.7977334,18.1526905 C61.5453395,17.8502378 61.4191445,17.444204 61.4191445,16.9345767 C61.4191445,16.3562606 61.5550885,15.896495 61.8269806,15.5552664 C62.0988727,15.2140377 62.4709585,15.0434259 62.9432492,15.0434259 C63.3917087,15.0434259 63.724257,15.2273321 63.9409041,15.59515 L63.9539029,15.59515 L63.9539029,15.1231932 L64.486852,15.1231932 L64.486852,18.2540615 Z M63.9539029,16.9877549 L63.9539029,16.4858854 C63.9539029,16.2155614 63.8645373,15.9840168 63.6858034,15.7912448 C63.5070696,15.5984727 63.284468,15.5020881 63.0179921,15.5020881 C62.6886885,15.5020881 62.4308823,15.6245076 62.2445658,15.8693503 C62.0582493,16.1141929 61.9650924,16.4570783 61.9650924,16.8980167 C61.9650924,17.2769135 62.054458,17.5799155 62.2331919,17.807032 C62.4119257,18.0341485 62.6486091,18.1477051 62.9432492,18.1477051 C63.2422222,18.1477051 63.4854049,18.0391339 63.6728046,17.8219884 C63.8602044,17.6048429 63.9539029,17.3267678 63.9539029,16.9877549 Z M68.0738601,16.9611658 L65.7243341,16.9611658 C65.7329999,17.3400626 65.8326561,17.6325399 66.0233056,17.8386066 C66.213955,18.0446733 66.4760941,18.1477051 66.8097306,18.1477051 C67.1845301,18.1477051 67.5289938,18.021408 67.8431321,17.7688102 L67.8431321,18.2806507 C67.5506585,18.4977962 67.1639492,18.6063673 66.6829927,18.6063673 C66.2128685,18.6063673 65.8434907,18.4518196 65.5748483,18.1427196 C65.3062059,17.8336196 65.1718867,17.3987811 65.1718867,16.8381912 C65.1718867,16.308622 65.3186629,15.8771071 65.6122197,15.5436336 C65.9057766,15.2101601 66.2702798,15.0434259 66.7057405,15.0434259 C67.1412012,15.0434259 67.4780823,15.1874488 67.7163942,15.475499 C67.954706,15.7635492 68.0738601,16.1634898 68.0738601,16.6753328 L68.0738601,16.9611658 Z M67.5279121,16.4991799 C67.5257457,16.1845405 67.4515451,15.9397015 67.3053083,15.7646556 C67.1590716,15.5896098 66.9559679,15.5020881 66.6959914,15.5020881 C66.4446808,15.5020881 66.2312866,15.5940412 66.0558025,15.7779502 C65.8803183,15.9618592 65.7719964,16.2022667 65.7308334,16.4991799 L67.5279121,16.4991799 Z M70.4487337,15.6749174 C70.3555754,15.6017969 70.2212562,15.5652373 70.0457721,15.5652373 C69.8182926,15.5652373 69.6281876,15.6749163 69.4754514,15.8942776 C69.3227152,16.1136389 69.2463483,16.4127634 69.2463483,16.7916602 L69.2463483,18.5266 L68.7133991,18.5266 L68.7133991,15.1231932 L69.2463483,15.1231932 L69.2463483,15.8244811 L69.259347,15.8244811 C69.3351735,15.5851779 69.451078,15.398502 69.6070639,15.2644479 C69.7630498,15.1303938 69.9374481,15.0633677 70.130264,15.0633677 C70.2689182,15.0633677 70.3750736,15.0788779 70.4487337,15.1098987 L70.4487337,15.6749174 Z" id="Virtual-Machine-Mana"></path>
            <path d="M0,10.917327 L0,10.0486606 C0.0972312175,10.1364051 0.213763943,10.215374 0.349601674,10.2855696 C0.485439404,10.3557653 0.628424344,10.4149919 0.778560782,10.4632514 C0.928697221,10.5115109 1.07954633,10.5488018 1.23111264,10.5751251 C1.38267895,10.6014485 1.52280419,10.6146099 1.65149257,10.6146099 C2.09475253,10.6146099 2.42576267,10.5305227 2.64453291,10.3623457 C2.86330314,10.1941687 2.97268662,9.95214372 2.97268662,9.63626346 C2.97268662,9.46662405 2.93622546,9.318923 2.86330205,9.19315585 C2.79037864,9.06738871 2.68957426,8.95259135 2.56088588,8.84876034 C2.4321975,8.74492933 2.27991854,8.64548703 2.10404443,8.55043047 C1.92817031,8.45537391 1.73871527,8.35520042 1.53567361,8.249907 C1.32119298,8.13876394 1.12101407,8.02616016 0.935130857,7.91209229 C0.749247647,7.79802442 0.587674665,7.67225916 0.450407064,7.53479275 C0.313139463,7.39732633 0.205185834,7.24158215 0.126542937,7.06755552 C0.0479000406,6.89352889 0.00857918217,6.68952595 0.00857918217,6.45554057 C0.00857918217,6.16890847 0.0700627063,5.91957154 0.193031599,5.70752229 C0.316000492,5.49547303 0.477573474,5.32071782 0.677755392,5.18325141 C0.87793731,5.045785 1.10599829,4.94341793 1.36194517,4.87614713 C1.61789205,4.80887633 1.87883957,4.77524144 2.14479554,4.77524144 C2.75106078,4.77524144 3.19288425,4.84982316 3.47027919,4.99898884 L3.47027919,5.8281704 C3.107092,5.57078648 2.64096109,5.44209645 2.0718725,5.44209645 C1.9145867,5.44209645 1.75730327,5.45891389 1.60001748,5.49254929 C1.44273168,5.52618469 1.30260644,5.58102419 1.17963755,5.65706944 C1.05666866,5.73311469 0.956579199,5.8310946 0.879366173,5.95101211 C0.802153147,6.07092962 0.763547214,6.21716829 0.763547214,6.38973251 C0.763547214,6.55059746 0.792859126,6.68952419 0.851483831,6.80651689 C0.910108536,6.92350958 0.996614424,7.03026381 1.11100409,7.12678278 C1.22539376,7.22330175 1.36480408,7.3168945 1.52923922,7.40756383 C1.69367437,7.49823317 1.88312942,7.59767546 2.09761004,7.7058937 C2.31781015,7.81703676 2.52656816,7.9340277 2.72389034,8.05687002 C2.92121252,8.17971235 3.09422429,8.31571431 3.24293086,8.46487999 C3.39163743,8.61404567 3.50960001,8.77929537 3.59682213,8.96063404 C3.68404425,9.14197271 3.72765466,9.34963163 3.72765466,9.58361701 C3.72765466,9.89364764 3.66831591,10.1561461 3.54963662,10.3711201 C3.43095734,10.5860942 3.27081421,10.7608494 3.06920242,10.895391 C2.86759063,11.0299326 2.63524011,11.1271813 2.37214387,11.1871401 C2.10904764,11.2470988 1.83165685,11.2770777 1.5399632,11.2770777 C1.44273198,11.2770777 1.32262463,11.2690346 1.17963755,11.2529481 C1.03665046,11.2368616 0.890805826,11.2134634 0.742099258,11.1827529 C0.59339269,11.1520423 0.452552525,11.1140202 0.319574536,11.0686856 C0.186596547,11.0233509 0.0800727673,10.9728985 0,10.917327 Z M7.93488561,6.67928797 L5.91448821,11.8912863 C5.55416076,12.8213782 5.04799407,13.2864172 4.39597297,13.2864172 C4.2129495,13.2864172 4.05995561,13.2674061 3.93698672,13.2293835 L3.93698672,12.5844645 C4.08855303,12.6371112 4.22724842,12.6634342 4.35307705,12.6634342 C4.70768502,12.6634342 4.97363701,12.447001 5.150941,12.014128 L5.50268747,11.1630104 L3.78685103,6.67928797 L4.56755661,6.67928797 L5.75577334,10.1364047 C5.77007205,10.180277 5.80009889,10.2943431 5.84585475,10.4786066 L5.8715923,10.4786066 C5.88589101,10.408411 5.914488,10.2972696 5.95738412,10.1451791 L7.20565513,6.67928797 L7.93488561,6.67928797 Z M8.20427195,11.0094583 L8.20427195,10.2373104 C8.58747734,10.5268673 9.00928291,10.6716436 9.46970132,10.6716436 C10.0874055,10.6716436 10.396253,10.4610599 10.396253,10.0398862 C10.396253,9.91996871 10.3698008,9.81833284 10.3168956,9.73497555 C10.2639903,9.65161825 10.1924979,9.57776772 10.102416,9.51342174 C10.0123341,9.44907576 9.90652529,9.39131149 9.78498627,9.34012719 C9.66344725,9.28894288 9.53261603,9.23556577 9.39248868,9.17999424 C9.19802625,9.10102417 9.02715925,9.0213241 8.87988255,8.94089162 C8.73260585,8.86045915 8.6096388,8.76979117 8.51097771,8.66888498 C8.41231663,8.56797878 8.33796446,8.45318142 8.28791898,8.32448946 C8.2378735,8.1957975 8.21285113,8.04517167 8.21285113,7.87260745 C8.21285113,7.66202061 8.26003616,7.4755663 8.35440764,7.31323895 C8.44877912,7.15091159 8.57460586,7.01490962 8.73189166,6.90522897 C8.88917745,6.79554833 9.06862355,6.71292348 9.27023534,6.65735195 C9.47184713,6.60178042 9.67989021,6.57399507 9.89437084,6.57399507 C10.2747165,6.57399507 10.6150206,6.64126486 10.9152935,6.77580646 L10.9152935,7.50408232 C10.5921427,7.28764584 10.2203819,7.17942922 9.79999984,7.17942922 C9.66845172,7.17942922 9.54977422,7.19478428 9.44396378,7.22549487 C9.33815333,7.25620545 9.2473579,7.29934585 9.17157474,7.35491738 C9.09579159,7.41048891 9.03716776,7.47702751 8.99570151,7.55453516 C8.95423525,7.63204282 8.93350244,7.71759244 8.93350244,7.8111866 C8.93350244,7.92817929 8.95423525,8.0261592 8.99570151,8.10512926 C9.03716776,8.18409933 9.09793636,8.25429389 9.17800913,8.31571506 C9.2580819,8.37713622 9.35531166,8.43270691 9.46970132,8.48242881 C9.58409099,8.5321507 9.71420729,8.58625901 9.86005411,8.64475535 C10.0545165,8.7208006 10.2289582,8.79903829 10.3833842,8.87947077 C10.5378103,8.95990324 10.6693564,9.05057122 10.7780266,9.15147742 C10.8866968,9.25238361 10.970343,9.36864335 11.0289677,9.50026013 C11.0875924,9.63187691 11.1169043,9.78835229 11.1169043,9.96969096 C11.1169043,10.1919771 11.0690043,10.3850121 10.973203,10.5488019 C10.8774017,10.7125917 10.7494301,10.8485936 10.5892846,10.9568119 C10.4291391,11.0650301 10.2446885,11.1454614 10.0359273,11.1981081 C9.8271662,11.2507548 9.60839925,11.2770777 9.37961991,11.2770777 C8.92778072,11.2770777 8.53600199,11.1878722 8.20427195,11.0094583 Z M14.01581,11.1279128 C13.849945,11.221507 13.631178,11.2683033 13.3595025,11.2683033 C12.590232,11.2683033 12.2056025,10.8295873 12.2056025,9.95214214 L12.2056025,7.29349653 L11.4506345,7.29349653 L11.4506345,6.67928797 L12.2056025,6.67928797 L12.2056025,5.58248697 L12.9090955,5.34996516 L12.9090955,6.67928797 L14.01581,6.67928797 L14.01581,7.29349653 L12.9090955,7.29349653 L12.9090955,9.82491323 C12.9090955,10.1261694 12.9591402,10.3411403 13.0592312,10.4698322 C13.1593221,10.5985242 13.3251847,10.6628692 13.5568237,10.6628692 C13.7341277,10.6628692 13.8871216,10.613148 14.01581,10.5137043 L14.01581,11.1279128 Z M18.1973034,9.10541177 L15.095929,9.10541177 C15.107368,9.60555553 15.2389141,9.99162562 15.4905714,10.2636336 C15.7422287,10.5356416 16.0882522,10.6716436 16.5286525,10.6716436 C17.0233878,10.6716436 17.4780799,10.5049315 17.8927424,10.1715023 L17.8927424,10.8471318 C17.5066773,11.1337638 16.9962211,11.2770777 16.3613584,11.2770777 C15.7407945,11.2770777 15.2532158,11.0730748 14.8986078,10.6650628 C14.5439999,10.2570508 14.3666985,9.683064 14.3666985,8.94308523 C14.3666985,8.2440539 14.5604431,7.67445427 14.9479381,7.23426927 C15.3354331,6.79408427 15.8165775,6.57399507 16.3913855,6.57399507 C16.9661936,6.57399507 17.4108768,6.76410535 17.7254484,7.14433159 C18.04002,7.52455784 18.1973034,8.05247944 18.1973034,8.72811223 L18.1973034,9.10541177 Z M17.4766521,8.49559042 C17.4737923,8.08026637 17.3758477,7.7570789 17.1828151,7.52601834 C16.9897825,7.29495777 16.7216858,7.17942922 16.3785168,7.17942922 C16.0467867,7.17942922 15.7651064,7.30080732 15.5334673,7.54356715 C15.3018282,7.78632699 15.1588433,8.1036649 15.1045082,8.49559042 L17.4766521,8.49559042 Z M25.2785604,11.1717849 L24.5750674,11.1717849 L24.5750674,8.59210891 C24.5750674,8.09488997 24.5000003,7.73514284 24.3498639,7.51285673 C24.1997275,7.29057061 23.947359,7.17942922 23.5927511,7.17942922 C23.2924782,7.17942922 23.0372501,7.31981835 22.8270591,7.60060081 C22.6168681,7.88138327 22.5117741,8.21773221 22.5117741,8.60965772 L22.5117741,11.1717849 L21.8082812,11.1717849 L21.8082812,8.50436483 C21.8082812,7.62107001 21.4751263,7.17942922 20.8088065,7.17942922 C20.4999544,7.17942922 20.2454412,7.31177522 20.0452592,7.57647118 C19.8450773,7.84116715 19.7449879,8.18555922 19.7449879,8.60965772 L19.7449879,11.1717849 L19.0414949,11.1717849 L19.0414949,6.67928797 L19.7449879,6.67928797 L19.7449879,7.39001502 L19.7621462,7.39001502 C20.0738581,6.845999 20.5285502,6.57399507 21.1262362,6.57399507 C21.4265091,6.57399507 21.6881715,6.6595447 21.9112314,6.83064651 C22.1342912,7.00174832 22.2872851,7.22622468 22.3702176,7.50408232 C22.6962282,6.88402106 23.182377,6.57399507 23.8286786,6.57399507 C24.7952713,6.57399507 25.2785604,7.18381033 25.2785604,8.40345914 L25.2785604,11.1717849 Z M32.856552,10.9085526 C32.4018531,11.1542373 31.8356327,11.2770777 31.157874,11.2770777 C30.282793,11.2770777 29.5821668,10.9889876 29.0559743,10.4127986 C28.5297819,9.83660956 28.2666896,9.08055563 28.2666896,8.1446141 C28.2666896,7.13847696 28.5626684,6.32538995 29.1546349,5.70532868 C29.7466014,5.08526742 30.4972724,4.77524144 31.4066702,4.77524144 C31.9900575,4.77524144 32.4733466,4.86152226 32.856552,5.03408647 L32.856552,5.81939599 C32.4161518,5.5678617 31.930003,5.44209645 31.3980911,5.44209645 C30.6917349,5.44209645 30.1190802,5.68339025 29.6801098,6.1659851 C29.2411395,6.64857995 29.0216576,7.29349249 29.0216576,8.10074206 C29.0216576,8.86704419 29.226841,9.47759064 29.6372139,9.93239972 C30.0475868,10.3872088 30.5859251,10.6146099 31.252245,10.6146099 C31.8699492,10.6146099 32.4047128,10.4742208 32.856552,10.1934384 L32.856552,10.9085526 Z M37.325448,9.10541177 L34.2240737,9.10541177 C34.2355127,9.60555553 34.3670588,9.99162562 34.6187161,10.2636336 C34.8703733,10.5356416 35.2163969,10.6716436 35.6567971,10.6716436 C36.1515324,10.6716436 36.6062245,10.5049315 37.0208871,10.1715023 L37.0208871,10.8471318 C36.6348219,11.1337638 36.1243657,11.2770777 35.4895031,11.2770777 C34.8689391,11.2770777 34.3813605,11.0730748 34.0267525,10.6650628 C33.6721445,10.2570508 33.4948432,9.683064 33.4948432,8.94308523 C33.4948432,8.2440539 33.6885878,7.67445427 34.0760828,7.23426927 C34.4635778,6.79408427 34.9447221,6.57399507 35.5195302,6.57399507 C36.0943383,6.57399507 36.5390214,6.76410535 36.853593,7.14433159 C37.1681646,7.52455784 37.325448,8.05247944 37.325448,8.72811223 L37.325448,9.10541177 Z M36.6047967,8.49559042 C36.601937,8.08026637 36.5039923,7.7570789 36.3109597,7.52601834 C36.1179272,7.29495777 35.8498304,7.17942922 35.5066614,7.17942922 C35.1749314,7.17942922 34.8932511,7.30080732 34.661612,7.54356715 C34.4299729,7.78632699 34.286988,8.1036649 34.2326529,8.49559042 L36.6047967,8.49559042 Z M41.815792,11.1717849 L41.1122991,11.1717849 L41.1122991,8.60965772 C41.1122991,7.65616729 40.7719949,7.17942922 40.0913764,7.17942922 C39.7396282,7.17942922 39.4486538,7.31469999 39.2184446,7.58524559 C38.9882354,7.85579119 38.8731325,8.19725849 38.8731325,8.60965772 L38.8731325,11.1717849 L38.1696396,11.1717849 L38.1696396,6.67928797 L38.8731325,6.67928797 L38.8731325,7.42511265 L38.8902909,7.42511265 C39.2220209,6.85769809 39.7024503,6.57399507 40.3315935,6.57399507 C40.8120301,6.57399507 41.1795014,6.73266403 41.4340184,7.05000671 C41.6885354,7.36734938 41.815792,7.82580761 41.815792,8.42539516 L41.815792,11.1717849 Z M44.9592044,11.1279128 C44.7933394,11.221507 44.5745724,11.2683033 44.3028969,11.2683033 C43.5336264,11.2683033 43.1489969,10.8295873 43.1489969,9.95214214 L43.1489969,7.29349653 L42.3940289,7.29349653 L42.3940289,6.67928797 L43.1489969,6.67928797 L43.1489969,5.58248697 L43.8524899,5.34996516 L43.8524899,6.67928797 L44.9592044,6.67928797 L44.9592044,7.29349653 L43.8524899,7.29349653 L43.8524899,9.82491323 C43.8524899,10.1261694 43.9025346,10.3411403 44.0026256,10.4698322 C44.1027165,10.5985242 44.2685791,10.6628692 44.5002181,10.6628692 C44.6775221,10.6628692 44.830516,10.613148 44.9592044,10.5137043 L44.9592044,11.1279128 Z M49.1406978,9.10541177 L46.0393234,9.10541177 C46.0507624,9.60555553 46.1823085,9.99162562 46.4339658,10.2636336 C46.6856231,10.5356416 47.0316466,10.6716436 47.4720469,10.6716436 C47.9667822,10.6716436 48.4214743,10.5049315 48.8361368,10.1715023 L48.8361368,10.8471318 C48.4500717,11.1337638 47.9396155,11.2770777 47.3047528,11.2770777 C46.6841889,11.2770777 46.1966102,11.0730748 45.8420022,10.6650628 C45.4873943,10.2570508 45.3100929,9.683064 45.3100929,8.94308523 C45.3100929,8.2440539 45.5038375,7.67445427 45.8913325,7.23426927 C46.2788275,6.79408427 46.7599719,6.57399507 47.3347799,6.57399507 C47.909588,6.57399507 48.3542712,6.76410535 48.6688428,7.14433159 C48.9834144,7.52455784 49.1406978,8.05247944 49.1406978,8.72811223 L49.1406978,9.10541177 Z M48.4200465,8.49559042 C48.4171867,8.08026637 48.3192421,7.7570789 48.1262095,7.52601834 C47.9331769,7.29495777 47.6650802,7.17942922 47.3219112,7.17942922 C46.9901811,7.17942922 46.7085008,7.30080732 46.4768617,7.54356715 C46.2452226,7.78632699 46.1022377,8.1036649 46.0479026,8.49559042 L48.4200465,8.49559042 Z M52.275531,7.40756383 C52.1525621,7.31104486 51.9752608,7.2627861 51.7436217,7.2627861 C51.4433488,7.2627861 51.1924102,7.40756238 50.9907984,7.69711929 C50.7891867,7.9866762 50.6883823,8.38152062 50.6883823,8.88166437 L50.6883823,11.1717849 L49.9848893,11.1717849 L49.9848893,6.67928797 L50.6883823,6.67928797 L50.6883823,7.60498801 L50.7055406,7.60498801 C50.8056316,7.28910774 50.9586255,7.04269558 51.1645269,6.86574414 C51.3704283,6.68879269 51.600634,6.6003183 51.855151,6.6003183 C52.0381745,6.6003183 52.1782998,6.62079171 52.275531,6.66173915 L52.275531,7.40756383 Z" id="System-Center"></path>
            <path d="M3.5565846,3.76718228 L3.1503263,3.76718228 L3.1503263,1.4108563 C3.1503263,1.22470072 3.16167872,0.996908492 3.18438388,0.727472781 L3.17465315,0.727472781 C3.13573,0.88586832 3.10086187,0.999356205 3.07004772,1.06793984 L1.87803236,3.76718228 L1.67855224,3.76718228 L0.488969565,1.08753507 C0.454911813,1.00915377 0.420043685,0.889134207 0.384364136,0.727472781 L0.374633398,0.727472781 C0.38760778,0.867905939 0.394094873,1.09733109 0.394094873,1.41575511 L0.394094873,3.76718228 L0,3.76718228 L0,0.254737944 L0.540055938,0.254737944 L1.61043708,2.70414125 C1.69314876,2.89192977 1.74666728,3.03236082 1.77099425,3.12543862 L1.78559035,3.12543862 C1.85532765,2.93275126 1.91127884,2.78905437 1.95344558,2.69434363 L3.04572087,0.254737944 L3.5565846,0.254737944 L3.5565846,3.76718228 Z M4.49997959,0.622148439 C4.42862049,0.622148439 4.36780398,0.597654651 4.31752826,0.54866634 C4.26725253,0.499678029 4.24211504,0.437627099 4.24211504,0.362511689 C4.24211504,0.287396279 4.26725253,0.224937119 4.31752826,0.175132336 C4.36780398,0.125327553 4.42862049,0.100425535 4.49997959,0.100425535 C4.57296048,0.100425535 4.63499331,0.125327553 4.68607994,0.175132336 C4.73716657,0.224937119 4.7627095,0.287396279 4.7627095,0.362511689 C4.7627095,0.434361212 4.73716657,0.495595682 4.68607994,0.546216937 C4.63499331,0.596838191 4.57296048,0.622148439 4.49997959,0.622148439 Z M4.69459434,3.76718228 L4.2956341,3.76718228 L4.2956341,1.2589933 L4.69459434,1.2589933 L4.69459434,3.76718228 Z M7.07570581,3.65206033 C6.88433368,3.76799933 6.6572854,3.82596796 6.39455418,3.82596796 C6.03938048,3.82596796 5.75273203,3.70962247 5.53460024,3.47692799 C5.31646845,3.24423351 5.20740419,2.94255169 5.20740419,2.57187347 C5.20740419,2.15873871 5.32498276,1.82684788 5.56014343,1.57619103 C5.79530409,1.32553417 6.10911724,1.20020762 6.50159229,1.20020762 C6.72053498,1.20020762 6.91352601,1.2410306 7.08057118,1.32267778 L7.08057118,1.73417754 C6.89568624,1.60354204 6.69782989,1.53822527 6.48699618,1.53822527 C6.23237394,1.53822527 6.02357062,1.63007698 5.86057995,1.81378315 C5.69758928,1.99748931 5.61609517,2.23875313 5.61609517,2.53758182 C5.61609517,2.83151169 5.69272396,3.06338622 5.84598384,3.23321236 C5.99924373,3.40303851 6.2048035,3.4879503 6.46266934,3.4879503 C6.67999023,3.4879503 6.88433368,3.4152854 7.07570581,3.26995341 L7.07570581,3.65206033 Z M8.85351155,1.66559425 C8.78377425,1.6117071 8.6832243,1.58476394 8.55185868,1.58476394 C8.38156992,1.58476394 8.23925931,1.66559344 8.12492257,1.82725486 C8.01058583,1.98891629 7.95341832,2.20936038 7.95341832,2.48859376 L7.95341832,3.76718228 L7.55445808,3.76718228 L7.55445808,1.2589933 L7.95341832,1.2589933 L7.95341832,1.7758174 L7.96314905,1.7758174 C8.01991197,1.59945948 8.10667685,1.46188603 8.22344629,1.36309294 C8.34021572,1.26429984 8.47076848,1.21490404 8.61510848,1.21490404 C8.71890353,1.21490404 8.79837042,1.22633447 8.85351155,1.24919568 L8.85351155,1.66559425 Z M10.1374824,3.82596796 C9.76933427,3.82596796 9.47538784,3.70880601 9.25563425,3.47447859 C9.03588066,3.24015117 8.92600552,2.92948829 8.92600552,2.54248063 C8.92600552,2.12118115 9.04034054,1.79214793 9.26901402,1.5553711 C9.4976875,1.31859426 9.80663533,1.20020762 10.1958668,1.20020762 C10.5672585,1.20020762 10.8571504,1.31532842 11.0655515,1.54557348 C11.2739525,1.77581855 11.3781514,2.09505425 11.3781514,2.50329018 C11.3781514,2.90336138 11.2658436,3.22382178 11.0412246,3.46468097 C10.8166056,3.70554017 10.5153612,3.82596796 10.1374824,3.82596796 Z M10.1666746,1.53822527 C9.91043053,1.53822527 9.70770885,1.62599468 9.55850346,1.80153613 C9.40929807,1.97707758 9.3346965,2.21915785 9.3346965,2.52778421 C9.3346965,2.82497996 9.41010896,3.05930387 9.56093615,3.23076296 C9.71176333,3.40222205 9.91367412,3.4879503 10.1666746,3.4879503 C10.4245404,3.4879503 10.6228022,3.40385497 10.7614659,3.23566176 C10.9001296,3.06746856 10.9694604,2.8282459 10.9694604,2.5179866 C10.9694604,2.20446141 10.9001296,1.96278936 10.7614659,1.79296322 C10.6228022,1.62313707 10.4245404,1.53822527 10.1666746,1.53822527 Z M11.7401348,3.67655436 L11.7401348,3.24545938 C11.9574557,3.4071208 12.1966673,3.4879503 12.4577767,3.4879503 C12.808085,3.4879503 12.9832365,3.37038012 12.9832365,3.13523623 C12.9832365,3.06828554 12.9682351,3.01154159 12.9382319,2.9650027 C12.9082286,2.9184638 12.8676843,2.87723259 12.8165977,2.84130783 C12.765511,2.80538307 12.7055054,2.77313292 12.636579,2.7445564 C12.5676526,2.71597989 12.4934565,2.68617911 12.4139884,2.65515318 C12.3037061,2.6110637 12.2068052,2.56656665 12.1232826,2.5216607 C12.03976,2.47675475 11.9700238,2.42613425 11.9140717,2.3697977 C11.8581197,2.31346114 11.8159536,2.24936906 11.7875722,2.17751954 C11.7591907,2.10567001 11.7450002,2.02157467 11.7450002,1.925231 C11.7450002,1.80765905 11.7717594,1.70356045 11.8252788,1.61293208 C11.8787981,1.5223037 11.9501561,1.44637296 12.039355,1.38513757 C12.1285539,1.32390218 12.2303201,1.27777221 12.3446569,1.24674628 C12.4589936,1.21572035 12.5769776,1.20020762 12.6986125,1.20020762 C12.9143116,1.20020762 13.1073026,1.23776476 13.2775914,1.31288017 L13.2775914,1.71948112 C13.0943282,1.59864329 12.8834977,1.53822527 12.6450934,1.53822527 C12.5704907,1.53822527 12.5031871,1.5467981 12.4431806,1.56394401 C12.3831741,1.58108992 12.3316828,1.60517548 12.2887051,1.63620141 C12.2457275,1.66722734 12.2124812,1.70437625 12.1889651,1.74764926 C12.165449,1.79092227 12.1536912,1.83868515 12.1536912,1.89093935 C12.1536912,1.9562571 12.165449,2.01095989 12.1889651,2.05504937 C12.2124812,2.09913885 12.2469438,2.13832891 12.2923542,2.17262073 C12.3377645,2.20691255 12.3929048,2.23793801 12.4577767,2.26569806 C12.5226486,2.2934581 12.5964393,2.3236671 12.679151,2.35632598 C12.7894332,2.39878251 12.8883614,2.4424631 12.9759385,2.48736905 C13.0635156,2.53227501 13.1381171,2.5828955 13.1997455,2.63923206 C13.2613738,2.69556862 13.3088106,2.76047716 13.3420575,2.83395962 C13.3753043,2.90744209 13.3919275,2.99480327 13.3919275,3.09604578 C13.3919275,3.2201495 13.3647628,3.32792216 13.3104326,3.41936701 C13.2561024,3.51081186 13.183528,3.5867426 13.0927073,3.64716152 C13.0018867,3.70758044 12.8972823,3.75248571 12.7788911,3.7818787 C12.6604998,3.81127169 12.5364342,3.82596796 12.4066903,3.82596796 C12.1504463,3.82596796 11.9282633,3.77616392 11.7401348,3.67655436 Z M14.9215995,3.82596796 C14.5534514,3.82596796 14.2595049,3.70880601 14.0397514,3.47447859 C13.8199978,3.24015117 13.7101226,2.92948829 13.7101226,2.54248063 C13.7101226,2.12118115 13.8244576,1.79214793 14.0531311,1.5553711 C14.2818046,1.31859426 14.5907524,1.20020762 14.9799839,1.20020762 C15.3513756,1.20020762 15.6412675,1.31532842 15.8496686,1.54557348 C16.0580696,1.77581855 16.1622685,2.09505425 16.1622685,2.50329018 C16.1622685,2.90336138 16.0499607,3.22382178 15.8253417,3.46468097 C15.6007227,3.70554017 15.2994783,3.82596796 14.9215995,3.82596796 Z M14.9507917,1.53822527 C14.6945476,1.53822527 14.491826,1.62599468 14.3426206,1.80153613 C14.1934152,1.97707758 14.1188136,2.21915785 14.1188136,2.52778421 C14.1188136,2.82497996 14.1942261,3.05930387 14.3450532,3.23076296 C14.4958804,3.40222205 14.6977912,3.4879503 14.9507917,3.4879503 C15.2086575,3.4879503 15.4069193,3.40385497 15.545583,3.23566176 C15.6842467,3.06746856 15.7535775,2.8282459 15.7535775,2.5179866 C15.7535775,2.20446141 15.6842467,1.96278936 15.545583,1.79296322 C15.4069193,1.62313707 15.2086575,1.53822527 14.9507917,1.53822527 Z M17.8160073,0.406600948 C17.738161,0.362511468 17.6497744,0.340467059 17.5508447,0.340467059 C17.2718955,0.340467059 17.132423,0.517638793 17.132423,0.871987576 L17.132423,1.2589933 L17.7162673,1.2589933 L17.7162673,1.60190976 L17.132423,1.60190976 L17.132423,3.76718228 L16.7358955,3.76718228 L16.7358955,1.60190976 L16.3101757,1.60190976 L16.3101757,1.2589933 L16.7358955,1.2589933 L16.7358955,0.85239235 C16.7358955,0.589488414 16.8113079,0.381699445 16.9621351,0.229019209 C17.1129623,0.0763389729 17.301088,-3.10862447e-15 17.5265179,-3.10862447e-15 C17.6481527,-3.10862447e-15 17.7446482,0.0146962729 17.8160073,0.0440892595 L17.8160073,0.406600948 Z M19.2654007,3.74268825 C19.1713364,3.79494245 19.0472707,3.82106915 18.8932,3.82106915 C18.4569364,3.82106915 18.2388079,3.57613127 18.2388079,3.08624816 L18.2388079,1.60190976 L17.8106554,1.60190976 L17.8106554,1.2589933 L18.2388079,1.2589933 L18.2388079,0.646642472 L18.6377681,0.516824097 L18.6377681,1.2589933 L19.2654007,1.2589933 L19.2654007,1.60190976 L18.6377681,1.60190976 L18.6377681,3.01521547 C18.6377681,3.18340867 18.6661491,3.30342823 18.7229121,3.37527775 C18.779675,3.44712728 18.8737378,3.4830515 19.0051034,3.4830515 C19.1056549,3.4830515 19.1924198,3.45529187 19.2654007,3.39977179 L19.2654007,3.74268825 Z M21.4883877,3.14258444 C21.08456,3.14258444 20.7403386,2.99970401 20.4557131,2.71393886 C20.1710876,2.42817371 20.028777,2.08199484 20.028777,1.67539186 C20.028777,1.26878888 20.1710876,0.922201777 20.4557131,0.635620157 C20.7403386,0.349038538 21.08456,0.205749877 21.4883877,0.205749877 C21.8905935,0.205749877 22.234004,0.349038538 22.5186295,0.635620157 C22.803255,0.922201777 22.9455656,1.26878888 22.9455656,1.67539186 C22.9455656,2.08199484 22.803255,2.42817371 22.5186295,2.71393886 C22.234004,2.99970401 21.8905935,3.14258444 21.4883877,3.14258444 Z M21.4908203,0.435993788 C21.1502428,0.435993788 20.8595399,0.556829809 20.618703,0.798505477 C20.377866,1.04018114 20.2574494,1.33247368 20.2574494,1.67539186 C20.2574494,2.01667709 20.377866,2.30815317 20.618703,2.54982884 C20.8595399,2.79150451 21.1502428,2.91234053 21.4908203,2.91234053 C21.8297761,2.91234053 22.1188572,2.79150451 22.3580723,2.54982884 C22.5972875,2.30815317 22.7168933,2.01667709 22.7168933,1.67539186 C22.7168933,1.33247368 22.5972875,1.04018114 22.3580723,0.798505477 C22.1188572,0.556829809 21.8297761,0.435993788 21.4908203,0.435993788 Z M22.1962988,2.5939181 L21.8605884,2.5939181 L21.6586756,2.14567729 C21.5565023,1.92033106 21.4462217,1.80765964 21.3278305,1.80765964 L21.2013309,1.80765964 L21.2013309,2.5939181 L20.9167068,2.5939181 L20.9167068,0.725023378 L21.439734,0.725023378 C21.6554331,0.725023378 21.8220703,0.770745116 21.9396506,0.862189963 C22.0572309,0.95363481 22.1160202,1.07773667 22.1160202,1.23449926 C22.1160202,1.36186887 22.074665,1.47086623 21.9919533,1.56149461 C21.9092416,1.65212298 21.7940957,1.71294922 21.6465121,1.74397515 L21.6465121,1.75132336 C21.7486854,1.77418457 21.8508571,1.88930538 21.9530304,2.09668923 L22.1962988,2.5939181 Z M21.2013309,0.967514305 L21.2013309,1.56761811 L21.4300032,1.56761811 C21.6862473,1.56761811 21.8143674,1.46719358 21.8143674,1.26634151 C21.8143674,1.15040251 21.7799047,1.07161415 21.7109783,1.02997409 C21.6420519,0.988334025 21.5329876,0.967514305 21.3837822,0.967514305 L21.2013309,0.967514305 Z" id="Microsoft"></path>
        </g>
    </g>
</svg>