<?xml version="1.0" encoding="UTF-8"?>
<svg width="192px" height="64px" viewBox="0 0 192 64" version="1.1" xmlns="http://www.w3.org/2000/svg" xmlns:xlink="http://www.w3.org/1999/xlink">
    <!-- Generator: Sketch 53 (72520) - https://sketchapp.com -->
    <title>Provider/SCVMM/scvmm-64</title>
    <desc>Created with Sketch.</desc>
    <g id="Provider/SCVMM/scvmm-64" stroke="none" stroke-width="1" fill="none" fill-rule="evenodd">
        <g id="Group">
            <path d="M21.9104528,1.2307148 C22.0647474,3.08999194 22.4588599,4.87286042 23.1421647,6.75760711 C21.0137806,6.15951182 15.8285995,5.33746014 14.0475987,5.09681681 C17.1220293,3.12600061 21.3929045,1.46872335 21.9104528,1.2307148 M11.4369336,9.34671859 C10.3171955,8.41576263 11.5048232,7.10012864 12.2066434,6.4677812 C12.4817286,6.21923352 12.7911996,5.97156411 13.124476,5.72652947 C13.9973427,6.89549398 16.2288838,9.94305736 17.0876436,10.9056307 L18.6402884,10.7861873 C17.8511816,10.036153 14.4355394,6.40278993 13.4648058,5.48588614 C13.4762677,5.47710354 13.4903746,5.46919919 13.5027182,5.46041659 C15.0968021,6.13931183 20.5491333,7.2915894 23.4146049,7.47602407 C23.4207767,7.49183275 23.4260668,7.50764144 23.434002,7.52520665 C22.4200659,8.06358023 20.583519,9.02351878 18.6006126,10.4269788 L19.8993325,10.6605961 C21.3946679,9.8359096 22.461505,9.00858836 23.5962317,7.92657162 C24.1181884,9.17897086 24.7626991,10.4893353 25.5518059,11.9077257 L26.8126134,12.0552735 C24.531698,7.80537169 22.807125,3.96298271 22.0850261,0.752941176 C20.427461,1.29219302 11.2808756,4.7007214 9.59950503,7.16775469 C8.94794087,8.12593672 10.8303353,8.87245801 11.4369336,9.34671859" id="Fill-45-Copy" fill="#A4AAB5"></path>
            <path d="M30.5083266,46.5692054 C28.113674,45.859571 25.8636176,44.6229804 23.8348637,43.1940509 C28.0475478,40.9448262 30.8001639,38.7702536 31.1105165,38.4215842 C31.1290319,41.4278693 30.8821605,44.2189807 30.5083266,46.5692054 M30.4492538,46.9310486 C28.6470926,48.089474 22.6243121,50.5450899 19.8099782,51.6666284 C21.2832714,48.8438996 22.34041,46.180136 23.0810242,43.7824853 C26.1924855,45.8270754 29.448543,46.6825009 30.4518989,46.9134834 C30.4510172,46.9205095 30.4501355,46.9249008 30.4492538,46.9310486 M30.1891572,48.3292391 C29.8003347,50.2271597 28.960972,53.2431057 28.0933953,56.0798866 C25.1697326,55.5502956 22.011542,54.5886005 19.2315937,53.1526449 C22.2716387,51.7746544 28.5933099,48.6963519 30.3602038,47.4404396 C30.3055394,47.745196 30.2491117,48.0420479 30.1891572,48.3292391 M14.4061395,60.7618924 C14.3761623,60.770675 14.3497118,60.7812142 14.3259063,60.7935098 C14.1760201,60.7548663 14.0305423,60.7179794 13.8912363,60.6819707 C15.7057411,58.4160591 17.2292903,56.17913 18.5059682,54.0142182 C22.9152677,55.9859127 27.3360291,56.3442429 27.9055967,56.4057211 C25.8230601,57.2725641 14.9351497,60.5994143 14.4061395,60.7618924 M25.7869111,62.8609346 C23.4063655,62.5570566 18.5112583,61.7560831 15.2349221,61.0086836 C19.7755925,59.8818756 22.7662632,59.3795107 27.8870814,56.7499992 C27.0582988,59.4181541 26.2365697,61.8281005 25.7869111,62.8609346 M13.2758212,60.5098317 C13.0721523,60.446597 12.8878804,60.3868753 12.727414,60.3297883 C9.66003687,59.2302064 8.26785851,58.6022503 6.41544133,57.2558772 C7.83142514,56.8264079 14.0067369,55.0936002 17.0132779,54.0546182 C15.3257355,57.0134773 13.8286368,59.347015 13.281993,60.4922665 C13.2793479,60.4966578 13.2784663,60.5010491 13.2758212,60.5098317 M5.62633453,56.6639297 C7.41262545,53.8455923 9.57539525,51.2670199 11.5397863,48.6884476 C12.0238305,49.3190385 12.5616575,49.9162555 13.12858,50.471316 C14.1407528,51.4602372 15.2772429,52.2840454 16.4604623,52.9726015 C13.0042627,54.3066789 9.40787537,55.6837912 5.98253469,56.9361904 C5.86615246,56.8483644 5.74800686,56.7579035 5.62633453,56.6639297 M1.62878121,50.4555074 C4.4739741,49.705473 7.49285865,49.0090126 10.4738308,48.2220913 C8.2634501,51.7439153 6.34755169,54.3330268 5.21723335,56.331069 C3.5455613,54.9214612 1.73899166,52.6854104 1.62878121,50.4555074 M17.283073,46.1414926 C18.8692218,45.5609625 20.3645571,44.9154411 21.747037,44.2514763 C20.6863716,47.1128485 19.295075,49.918012 17.9381639,52.3999757 C17.9275837,52.4034888 17.9161218,52.4096366 17.9055416,52.4122714 C17.2292903,52.0065151 16.5847797,51.5691415 15.9843531,51.0983939 C14.6812248,50.0778554 13.4900703,48.9273344 12.5775278,47.6468308 C14.184837,47.1892572 15.7648139,46.6965531 17.283073,46.1414926 M24.5869398,33.9415782 C26.0276107,34.9700211 29.7509604,37.3018023 31.0655506,37.8375411 C29.3630197,39.186549 26.9569052,40.6435829 23.5306828,42.2103993 C24.5014165,38.5577146 24.7139022,35.6541859 24.5869398,33.9415782 M31.8141,31.0275104 C31.7620807,30.7640323 30.8107441,31.3586146 30.5656361,31.4148232 C30.8803971,33.4523872 31.0443902,35.4715077 31.0937645,37.4177326 C29.3568479,36.447255 26.0108587,34.112839 25.1177133,33.2881525 L24.5551991,33.5973002 C24.5455006,33.5077176 24.5340387,33.4207698 24.5216952,33.3382134 L23.6153245,33.6614132 C23.3261322,33.8985435 23.4336976,33.6254045 23.4769001,34.0021782 C23.766974,36.5280549 23.3173154,39.314775 22.4682541,42.1137907 C20.6749097,40.5013047 19.0429135,38.2310017 18.5967816,36.0810204 C18.4036929,36.157429 18.2114858,36.234716 18.0192788,36.3120029 C17.7953312,36.3980724 17.6745405,36.3532811 17.7441936,36.6106114 C18.4927429,39.443001 20.5100349,41.7097909 21.9260187,42.9209119 C20.2649269,43.6305463 18.3931127,44.3630154 16.2850072,45.1165628 C15.5320495,45.3861887 14.5445639,45.7322233 13.3992569,46.1221708 C14.449342,44.5096849 16.8678001,39.4983314 17.7230331,36.4050985 L16.4357751,36.9575242 C15.0083294,40.6058177 12.7697348,44.4016588 11.855429,45.9544231 C11.8042913,46.0413709 11.754917,46.1221708 11.7046611,46.2082404 C10.7753666,44.3577458 10.4553155,42.2674862 11.1544905,39.9278007 L11.12804,39.9673224 C11.2550025,39.5773748 10.0127103,40.5680525 9.89191965,40.6251394 C9.52954771,40.7972784 9.55599821,41.0853478 9.48458184,41.4665128 C9.3796615,42.0408951 9.32411543,42.6293295 9.33028722,43.2256683 C9.34703921,44.5448153 9.78699931,45.8604493 10.481766,47.1005529 C7.75648204,47.9998915 4.60887169,48.9949604 1.64288815,49.8486295 C1.65258667,49.74236 1.66493024,49.6352122 1.68520896,49.5280644 C2.10136361,47.2164832 4.28176708,44.3305198 6.72579394,42.7926859 L7.31564025,42.0285994 L3.95907089,44.5351544 C2.34823501,45.9895535 0.563707457,48.2545869 0.119338936,50.3035683 C-0.537515325,53.3449839 1.62789953,55.7601998 3.90176146,57.4894944 C6.41544133,59.3961976 9.04903016,60.345597 12.0802583,61.2818225 C15.3997969,62.3076306 22.1226342,63.2719605 25.5603184,63.3158735 C25.784266,63.3193865 26.1413479,63.2824996 26.1413479,63.2824996 C26.1413479,63.2824996 26.3062227,62.9505172 26.3247381,62.9285607 C26.6218654,62.362961 30.6070752,54.3751832 31.6809658,47.6231178 C32.407473,43.0684597 32.9356015,36.9021938 31.8141,31.0275104" id="Fill-47-Copy" fill="#A4AAB5"></path>
            <polyline id="Fill-49-Copy" fill="#616870" points="28.6737321 61.370042 28.164119 61.370042 28.164119 63.0642062 27.9569234 63.0642062 27.9569234 61.370042 27.4464286 61.370042 27.4464286 61.1680421 28.6737321 61.1680421"></polyline>
            <path d="M31.1432103,63.0650845 L30.9368963,63.0650845 L30.9368963,61.791607 C30.9368963,61.6914853 30.9421864,61.5685289 30.95453,61.4236159 L30.9492399,61.4236159 C30.9289612,61.5088072 30.9113275,61.5702854 30.8954572,61.6089288 L30.2923857,63.0650845 L30.1918737,63.0650845 L29.5879205,61.6185897 C29.5694051,61.5773115 29.5526531,61.5123202 29.5350195,61.4236159 L29.5288477,61.4236159 C29.5359012,61.5000246 29.5394279,61.622981 29.5394279,61.7933635 L29.5394279,63.0650845 L29.3392857,63.0650845 L29.3392857,61.1680421 L29.6134893,61.1680421 L30.1557247,62.4907022 C30.1971638,62.5908239 30.2236143,62.665476 30.2350762,62.7172934 L30.2447747,62.7172934 C30.2809238,62.6136587 30.308256,62.5363717 30.3294164,62.4854326 L30.8831136,61.1689204 L31.1432103,61.1689204" id="Fill-51-Copy" fill="#616870"></path>
            <path d="M37.6458902,28.209865 C40.8472833,25.0209017 42.3893478,23.0158334 44.1341996,18.9450967 C47.8328622,21.1091302 50.4064965,23.7281025 51.7290219,25.3757189 C51.7977932,25.4626667 51.9247557,25.575084 52.0737602,25.6822318 C50.3042213,25.7902578 45.2530561,26.2039184 37.6458902,28.209865 L37.6458902,28.209865 Z M36.5446674,28.506717 L36.5640645,28.4891518 C35.2706347,26.3110662 33.6968295,24.5940672 31.9634396,23.2046593 C35.4522615,21.5429908 39.3140355,19.9954961 43.4667652,18.7720794 C42.1151442,21.2373562 39.8968284,23.9002415 36.5640645,28.4891518 L36.5781714,28.4979344 C36.5667095,28.4996909 36.5561293,28.503204 36.5446674,28.506717 L36.5446674,28.506717 Z M23.486052,32.9392969 C26.6539411,29.9294988 28.9154595,27.0514396 30.4963181,24.3929456 C32.3593155,25.6620318 34.1376713,27.1208222 35.6718007,28.7499951 C32.0859936,29.7705336 28.0020353,31.1274459 23.486052,32.9392969 L23.486052,32.9392969 Z M22.513555,33.3310011 C22.5294254,31.5437413 22.109744,30.1481856 21.5031457,29.0723167 C23.5944991,27.7162827 26.0059037,26.2697879 28.6888668,24.8505192 C27.0956646,27.3518047 25.0545671,30.1841943 22.5197268,33.3292445 L22.513555,33.3310011 Z M13.0072428,37.6854158 C16.2685903,35.2473651 18.7558197,32.7223666 20.5906032,30.2140551 C21.4140956,31.3329588 21.8099716,32.5370537 21.9016667,33.5821835 C18.4304784,35.0119913 15.6567019,36.2055471 13.0072428,37.6854158 L13.0072428,37.6854158 Z M14.4479137,34.1038701 C15.6046826,33.2018968 17.225217,31.9732106 19.2522075,30.5776549 C17.29487,33.1887229 14.7388693,35.6118432 11.5956674,37.6476506 C12.6924817,36.4628774 13.6385282,35.2798607 14.4479137,34.1038701 L14.4479137,34.1038701 Z M17.6255013,27.7575609 C18.4075547,28.1562911 19.0644089,28.6200126 19.610171,29.1250123 C18.0636981,30.2922203 16.7059054,31.4216631 15.5182776,32.4562538 C16.5136983,30.9368634 17.1908313,29.3498469 17.6255013,27.7575609 L17.6255013,27.7575609 Z M15.661992,11.136484 C18.2417981,11.7661967 20.9723722,12.2817355 22.5594026,12.5636571 C21.4114506,13.1889785 18.7681632,14.8963165 17.5196993,16.5395416 C16.9060475,14.0110301 16.0825551,12.0498748 15.661992,11.136484 L15.661992,11.136484 Z M11.3734831,9.87354567 C12.3979994,10.2643715 13.7028911,10.64378 15.0791992,10.9924493 C15.6875608,12.8675352 16.1733685,14.5687254 16.550729,16.1188549 C15.3578112,13.7405259 13.5768104,11.6265533 11.3734831,9.87354567 L11.3734831,9.87354567 Z M23.2682762,12.6874918 C23.8739928,14.6398645 24.0864785,16.7468111 23.9092601,18.9152359 C22.0145221,18.2319493 20.1215475,17.6874279 18.3326115,17.164863 C19.5087774,15.6937769 21.2642094,14.2446474 23.2180202,12.6795875 C23.2338905,12.6831005 23.2515242,12.684857 23.2682762,12.6874918 L23.2682762,12.6874918 Z M32.2332348,14.4703603 C29.6119895,15.7016813 27.3848568,16.8873327 24.9064443,18.7738359 C24.9805057,16.5439329 24.5793397,14.5107603 23.8404888,12.7867352 C26.6548228,13.2794393 29.462985,13.7949781 32.2332348,14.4703603 L32.2332348,14.4703603 Z M24.6630996,21.0880519 C26.0261824,21.7221559 27.4368761,22.4669207 28.8299362,23.3170767 C26.5402039,24.4913107 24.4726559,25.7358056 22.614067,26.9811788 C23.6773774,24.9541539 24.3368767,22.9710421 24.6630996,21.0880519 L24.6630996,21.0880519 Z M23.5565867,21.3216692 C23.0760692,23.6069026 22.1802787,25.9149708 20.8745053,28.1396042 C20.025444,27.0663701 19.0264965,26.4331444 18.3379017,26.0994054 C19.2680778,25.1368321 21.0578955,23.3776766 23.5565867,21.3216692 L23.5565867,21.3216692 Z M17.9649495,18.7492447 C19.3439026,19.030288 21.0808192,19.5704181 22.9755572,20.349435 C21.5269511,21.6035908 19.9505009,23.1264942 18.1483397,25.0393452 C18.4031462,22.8384248 18.2753021,20.6902 17.9649495,18.7492447 L17.9649495,18.7492447 Z M30.3649473,22.0427209 C28.8810738,21.0625824 27.3116771,20.2756611 25.7175932,19.6152093 C27.8433322,18.0027234 30.3314433,16.3076809 33.1210901,14.7329601 C32.9676772,16.4912373 32.0842302,18.9442184 30.3649473,22.0427209 L30.3649473,22.0427209 Z M40.3447236,17.0954804 C41.2175904,17.4406367 42.0437279,17.82268 42.8284262,18.2266798 C38.7435863,19.1637835 35.0845994,20.4381393 31.8232519,21.8872688 C33.0584906,19.2270183 33.6121879,16.8451762 33.7514939,14.8576731 C35.983035,15.4575249 38.1881256,16.1768201 40.3447236,17.0954804 L40.3447236,17.0954804 Z M52.7341412,25.6980405 C49.5838858,20.3634872 44.7319811,15.4566466 30.2811873,12.5952745 C27.2208636,11.9901531 23.6033159,11.5097447 17.2825264,10.326728 C15.0633289,9.91218913 8.41631641,8.82138979 9.2486257,7.36084284 C8.79632203,7.93259032 9.14723209,8.48940738 9.42848915,8.80382458 C12.7268674,12.8288917 17.4747334,15.1896555 17.4747334,23.3838245 C17.4747334,30.9149069 11.1477721,37.8944418 4.81287565,43.5381427 C4.47607252,43.8297251 4.1339793,44.1283337 3.78571429,44.4427509 C11.4325559,39.4454495 16.2068725,37.3955899 22.1370762,34.9180175 C29.5890657,31.8054628 44.3969413,27.3412655 52.9475086,26.060762 L52.7341412,25.6980405 Z" id="Fill-53-Copy" fill="#0056B8"></path>
        </g>
        <g id="Text" transform="translate(63.000000, 13.000000)" fill="#000000">
            <path d="M7.34467129,25.1620591 L4.18931493,33.8772114 L3.08999116,33.8772114 L0,25.1620591 L1.11120836,25.1620591 L3.47029776,32.0721903 C3.54556715,32.2950335 3.60300872,32.5523123 3.64262419,32.8440343 L3.66639335,32.8440343 C3.69808573,32.6009326 3.76345027,32.3396022 3.86248894,32.0600353 L6.26911667,25.1620591 L7.34467129,25.1620591 Z M8.63295985,26.0736859 C8.45865178,26.0736859 8.310096,26.0129114 8.18728805,25.8913606 C8.06448009,25.7698097 8.00307704,25.6158476 8.00307704,25.4294697 C8.00307704,25.2430917 8.06448009,25.0881167 8.18728805,24.96454 C8.310096,24.8409633 8.45865178,24.7791759 8.63295985,24.7791759 C8.81122946,24.7791759 8.96275636,24.8409633 9.08754508,24.96454 C9.21233381,25.0881167 9.27472724,25.2430917 9.27472724,25.4294697 C9.27472724,25.6077442 9.21233381,25.7596805 9.08754508,25.8852831 C8.96275636,26.0108856 8.81122946,26.0736859 8.63295985,26.0736859 Z M9.1083431,33.8772114 L8.13380743,33.8772114 L8.13380743,27.6538391 L9.1083431,27.6538391 L9.1083431,33.8772114 Z M13.9501215,28.6627061 C13.779775,28.5290001 13.5341628,28.4621482 13.2132774,28.4621482 C12.797315,28.4621482 12.4496945,28.6627041 12.1704054,29.0638219 C11.8911164,29.4649397 11.7514739,30.0119103 11.7514739,30.7047501 L11.7514739,33.8772114 L10.7769383,33.8772114 L10.7769383,27.6538391 L11.7514739,27.6538391 L11.7514739,28.9361941 L11.7752431,28.9361941 C11.9138972,28.498611 12.1258368,28.1572609 12.4110682,27.9121333 C12.6962996,27.6670058 13.0151993,27.5444439 13.367777,27.5444439 C13.621316,27.5444439 13.8154289,27.5728053 13.9501215,27.629529 L13.9501215,28.6627061 Z M17.8767871,33.8164362 C17.6470174,33.9460905 17.3439636,34.0109166 16.9676166,34.0109166 C15.9019605,34.0109166 15.3691405,33.4031715 15.3691405,32.187663 L15.3691405,28.5046907 L14.3232973,28.5046907 L14.3232973,27.6538391 L15.3691405,27.6538391 L15.3691405,26.1344611 L16.3436761,25.8123529 L16.3436761,27.6538391 L17.8767871,27.6538391 L17.8767871,28.5046907 L16.3436761,28.5046907 L16.3436761,32.0114152 C16.3436761,32.4287398 16.4130022,32.7265349 16.5516563,32.9048094 C16.6903104,33.083084 16.9200767,33.17222 17.240962,33.17222 C17.4865779,33.17222 17.6985175,33.1033422 17.8767871,32.9655846 L17.8767871,33.8164362 Z M23.7941201,33.8772114 L22.8195845,33.8772114 L22.8195845,32.8926544 L22.7958153,32.8926544 C22.3917375,33.6462697 21.7658225,34.0230717 20.9180514,34.0230717 C19.4681253,34.0230717 18.743173,33.1398154 18.743173,31.3732764 L18.743173,27.6538391 L19.7117664,27.6538391 L19.7117664,31.2152611 C19.7117664,32.5280103 20.2029909,33.184375 21.1854545,33.184375 C21.6608401,33.184375 22.052037,33.0050902 22.3590569,32.6465152 C22.6660768,32.2879402 22.8195845,31.8189635 22.8195845,31.2395712 L22.8195845,27.6538391 L23.7941201,27.6538391 L23.7941201,33.8772114 Z M29.8124721,33.8772114 L28.8379364,33.8772114 L28.8379364,32.9048094 L28.8141672,32.9048094 C28.3902817,33.6503213 27.7663474,34.0230717 26.9423457,34.0230717 C26.336229,34.0230717 25.8618409,33.8589805 25.5191671,33.5307932 C25.1764932,33.2026059 25.0051589,32.7670552 25.0051589,32.2241281 C25.0051589,31.0612917 25.6746503,30.3846688 27.0136532,30.1942391 L28.8379364,29.9329061 C28.8379364,28.8754137 28.4199995,28.3466754 27.5841131,28.3466754 C26.8512269,28.3466754 26.1896585,28.6019284 25.599388,29.112442 L25.599388,28.0914199 C26.1975816,27.7024572 26.8868804,27.5079788 27.6673051,27.5079788 C29.0974236,27.5079788 29.8124721,28.2818409 29.8124721,29.8295884 L29.8124721,33.8772114 Z M28.8379364,30.7290601 L27.3701906,30.9356956 C26.9185743,31.0005227 26.5778863,31.1149813 26.3481166,31.279075 C26.1183469,31.4431686 26.0034637,31.7338734 26.0034637,32.151198 C26.0034637,32.4550751 26.1094335,32.7032377 26.3213763,32.8956932 C26.5333191,33.0881487 26.815575,33.184375 27.1681527,33.184375 C27.6514614,33.184375 28.0505813,33.0111676 28.3655243,32.6647477 C28.6804673,32.3183278 28.8379364,31.8797384 28.8379364,31.3489664 L28.8379364,30.7290601 Z M32.3189302,33.8772114 L31.3443946,33.8772114 L31.3443946,24.6637032 L32.3189302,24.6637032 L32.3189302,33.8772114 Z M45.8352645,33.8772114 L44.842902,33.8772114 L44.842902,28.0306448 C44.842902,27.5687516 44.8706324,27.0035486 44.926094,26.335019 L44.9023249,26.335019 C44.8072477,26.7280334 44.7220758,27.0096219 44.6468064,27.1797931 L41.7350839,33.8772114 L41.2478161,33.8772114 L38.3420359,27.2284132 C38.2588435,27.0339319 38.1736715,26.7361368 38.0865174,26.335019 L38.0627483,26.335019 C38.0944407,26.6834647 38.1102866,27.2527193 38.1102866,28.0427998 L38.1102866,33.8772114 L37.1476355,33.8772114 L37.1476355,25.1620591 L38.466824,25.1620591 L41.081432,31.2395712 C41.2834708,31.7055161 41.4141999,32.0539566 41.4736231,32.2849032 L41.5092769,32.2849032 C41.6796234,31.8068032 41.8162947,31.4502594 41.9192949,31.2152611 L44.5873835,25.1620591 L45.8352645,25.1620591 L45.8352645,33.8772114 Z M51.9962314,33.8772114 L51.0216957,33.8772114 L51.0216957,32.9048094 L50.9979266,32.9048094 C50.5740411,33.6503213 49.9501068,34.0230717 49.126105,34.0230717 C48.5199883,34.0230717 48.0456002,33.8589805 47.7029264,33.5307932 C47.3602526,33.2026059 47.1889183,32.7670552 47.1889183,32.2241281 C47.1889183,31.0612917 47.8584096,30.3846688 49.1974125,30.1942391 L51.0216957,29.9329061 C51.0216957,28.8754137 50.6037588,28.3466754 49.7678724,28.3466754 C49.0349862,28.3466754 48.3734178,28.6019284 47.7831473,29.112442 L47.7831473,28.0914199 C48.3813409,27.7024572 49.0706397,27.5079788 49.8510645,27.5079788 C51.2811829,27.5079788 51.9962314,28.2818409 51.9962314,29.8295884 L51.9962314,33.8772114 Z M51.0216957,30.7290601 L49.5539499,30.9356956 C49.1023336,31.0005227 48.7616457,31.1149813 48.531876,31.279075 C48.3021062,31.4431686 48.1872231,31.7338734 48.1872231,32.151198 C48.1872231,32.4550751 48.2931929,32.7032377 48.5051356,32.8956932 C48.7170784,33.0881487 48.9993344,33.184375 49.3519121,33.184375 C49.8352208,33.184375 50.2343407,33.0111676 50.5492836,32.6647477 C50.8642266,32.3183278 51.0216957,31.8797384 51.0216957,31.3489664 L51.0216957,30.7290601 Z M57.6758728,33.5915683 C57.2084103,33.8792386 56.653802,34.0230717 56.0120314,34.0230717 C55.1444526,34.0230717 54.4442597,33.7343927 53.9114316,33.1570262 C53.3786036,32.5796597 53.1121936,31.8311203 53.1121936,30.9113855 C53.1121936,29.8863067 53.3994014,29.062812 53.9738257,28.4408769 C54.54825,27.8189417 55.3147978,27.5079788 56.2734922,27.5079788 C56.808301,27.5079788 57.279718,27.6092696 57.6877574,27.8118544 L57.6877574,28.8328764 C57.236141,28.5087408 56.7528396,28.3466754 56.2378385,28.3466754 C55.6158756,28.3466754 55.1058341,28.5745799 54.7076986,29.0303955 C54.3095631,29.4862112 54.1104984,30.0848402 54.1104984,30.8263003 C54.1104984,31.5556054 54.2976787,32.1309375 54.6720449,32.5523138 C55.046411,32.97369 55.5485296,33.184375 56.1784155,33.184375 C56.7092628,33.184375 57.2084103,33.0040773 57.6758728,32.6434764 L57.6758728,33.5915683 Z M63.8962626,33.8772114 L62.921727,33.8772114 L62.921727,30.2914793 C62.921727,28.9949369 62.4503099,28.3466754 61.5074618,28.3466754 C61.0320761,28.3466754 60.6319659,28.5340635 60.3071191,28.9088453 C59.9822722,29.2836271 59.8198512,29.7647586 59.8198512,30.3522544 L59.8198512,33.8772114 L58.8453155,33.8772114 L58.8453155,24.6637032 L59.8198512,24.6637032 L59.8198512,28.6870161 L59.8436204,28.6870161 C60.3110829,27.9009873 60.9766128,27.5079788 61.8402301,27.5079788 C63.2109253,27.5079788 63.8962626,28.3527445 63.8962626,30.0423013 L63.8962626,33.8772114 Z M65.9273375,26.0736859 C65.7530295,26.0736859 65.6044737,26.0129114 65.4816657,25.8913606 C65.3588578,25.7698097 65.2974547,25.6158476 65.2974547,25.4294697 C65.2974547,25.2430917 65.3588578,25.0881167 65.4816657,24.96454 C65.6044737,24.8409633 65.7530295,24.7791759 65.9273375,24.7791759 C66.1056071,24.7791759 66.257134,24.8409633 66.3819228,24.96454 C66.5067115,25.0881167 66.5691049,25.2430917 66.5691049,25.4294697 C66.5691049,25.6077442 66.5067115,25.7596805 66.3819228,25.8852831 C66.257134,26.0108856 66.1056071,26.0736859 65.9273375,26.0736859 Z M66.4027208,33.8772114 L65.4281851,33.8772114 L65.4281851,27.6538391 L66.4027208,27.6538391 L66.4027208,33.8772114 Z M73.122263,33.8772114 L72.1477274,33.8772114 L72.1477274,30.3279444 C72.1477274,29.0070918 71.6763103,28.3466754 70.7334622,28.3466754 C70.2461919,28.3466754 69.8431105,28.5340635 69.524206,28.9088453 C69.2053015,29.2836271 69.0458516,29.7566554 69.0458516,30.3279444 L69.0458516,33.8772114 L68.0713159,33.8772114 L68.0713159,27.6538391 L69.0458516,27.6538391 L69.0458516,28.6870161 L69.0696208,28.6870161 C69.5291602,27.9009873 70.1946901,27.5079788 71.0662305,27.5079788 C71.7317703,27.5079788 72.2408215,27.7277799 72.5933992,28.1673888 C72.9459768,28.6069977 73.122263,29.2420914 73.122263,30.0726888 L73.122263,33.8772114 Z M79.5446907,31.0147032 L75.2484146,31.0147032 C75.2642608,31.707543 75.4464892,32.2423588 75.7951053,32.6191664 C76.1437214,32.995974 76.6230614,33.184375 77.2331397,33.184375 C77.9184873,33.184375 78.5483638,32.9534319 79.1227881,32.4915386 L79.1227881,33.4274755 C78.5879793,33.8245416 77.8808537,34.0230717 77.0013903,34.0230717 C76.1417346,34.0230717 75.466301,33.7404702 74.9750692,33.1752587 C74.4838374,32.6100473 74.2382252,31.8149141 74.2382252,30.7898353 C74.2382252,29.8214802 74.5066159,29.0324244 75.0434055,28.4226443 C75.5801952,27.8128642 76.2467154,27.5079788 77.0429864,27.5079788 C77.8392573,27.5079788 78.4552686,27.771335 78.8910388,28.2980553 C79.3268089,28.8247757 79.5446907,29.5560956 79.5446907,30.4920372 L79.5446907,31.0147032 Z M78.5463859,30.169929 C78.5424244,29.5945884 78.4067434,29.1468828 78.139339,28.8267989 C77.8719346,28.506715 77.5005451,28.3466754 77.0251595,28.3466754 C76.56562,28.3466754 76.1754135,28.5148183 75.8545282,28.8511089 C75.5336429,29.1873996 75.3355685,29.6270019 75.2602992,30.169929 L78.5463859,30.169929 Z M92.5618726,33.8772114 L91.5695101,33.8772114 L91.5695101,28.0306448 C91.5695101,27.5687516 91.5972405,27.0035486 91.6527021,26.335019 L91.628933,26.335019 C91.5338558,26.7280334 91.4486839,27.0096219 91.3734145,27.1797931 L88.461692,33.8772114 L87.9744242,33.8772114 L85.068644,27.2284132 C84.9854516,27.0339319 84.9002796,26.7361368 84.8131255,26.335019 L84.7893564,26.335019 C84.8210488,26.6834647 84.8368947,27.2527193 84.8368947,28.0427998 L84.8368947,33.8772114 L83.8742436,33.8772114 L83.8742436,25.1620591 L85.1934321,25.1620591 L87.8080401,31.2395712 C88.0100789,31.7055161 88.140808,32.0539566 88.2002312,32.2849032 L88.235885,32.2849032 C88.4062315,31.8068032 88.5429028,31.4502594 88.645903,31.2152611 L91.3139916,25.1620591 L92.5618726,25.1620591 L92.5618726,33.8772114 Z M98.7228395,33.8772114 L97.7483038,33.8772114 L97.7483038,32.9048094 L97.7245347,32.9048094 C97.3006492,33.6503213 96.6767149,34.0230717 95.8527131,34.0230717 C95.2465964,34.0230717 94.7722083,33.8589805 94.4295345,33.5307932 C94.0868607,33.2026059 93.9155264,32.7670552 93.9155264,32.2241281 C93.9155264,31.0612917 94.5850177,30.3846688 95.9240206,30.1942391 L97.7483038,29.9329061 C97.7483038,28.8754137 97.3303669,28.3466754 96.4944805,28.3466754 C95.7615943,28.3466754 95.1000259,28.6019284 94.5097554,29.112442 L94.5097554,28.0914199 C95.107949,27.7024572 95.7972478,27.5079788 96.5776726,27.5079788 C98.007791,27.5079788 98.7228395,28.2818409 98.7228395,29.8295884 L98.7228395,33.8772114 Z M97.7483038,30.7290601 L96.280558,30.9356956 C95.8289417,31.0005227 95.4882538,31.1149813 95.2584841,31.279075 C95.0287143,31.4431686 94.9138312,31.7338734 94.9138312,32.151198 C94.9138312,32.4550751 95.019801,32.7032377 95.2317437,32.8956932 C95.4436865,33.0881487 95.7259425,33.184375 96.0785202,33.184375 C96.5618289,33.184375 96.9609488,33.0111676 97.2758917,32.6647477 C97.5908347,32.3183278 97.7483038,31.8797384 97.7483038,31.3489664 L97.7483038,30.7290601 Z M105.305709,33.8772114 L104.331173,33.8772114 L104.331173,30.3279444 C104.331173,29.0070918 103.859756,28.3466754 102.916908,28.3466754 C102.429638,28.3466754 102.026557,28.5340635 101.707652,28.9088453 C101.388748,29.2836271 101.229298,29.7566554 101.229298,30.3279444 L101.229298,33.8772114 L100.254762,33.8772114 L100.254762,27.6538391 L101.229298,27.6538391 L101.229298,28.6870161 L101.253067,28.6870161 C101.712606,27.9009873 102.378136,27.5079788 103.249677,27.5079788 C103.915216,27.5079788 104.424268,27.7277799 104.776845,28.1673888 C105.129423,28.6069977 105.305709,29.2420914 105.305709,30.0726888 L105.305709,33.8772114 Z M111.193331,33.8772114 L110.218795,33.8772114 L110.218795,32.9048094 L110.195026,32.9048094 C109.77114,33.6503213 109.147206,34.0230717 108.323204,34.0230717 C107.717088,34.0230717 107.242699,33.8589805 106.900026,33.5307932 C106.557352,33.2026059 106.386017,32.7670552 106.386017,32.2241281 C106.386017,31.0612917 107.055509,30.3846688 108.394512,30.1942391 L110.218795,29.9329061 C110.218795,28.8754137 109.800858,28.3466754 108.964972,28.3466754 C108.232085,28.3466754 107.570517,28.6019284 106.980247,29.112442 L106.980247,28.0914199 C107.57844,27.7024572 108.267739,27.5079788 109.048164,27.5079788 C110.478282,27.5079788 111.193331,28.2818409 111.193331,29.8295884 L111.193331,33.8772114 Z M110.218795,30.7290601 L108.751049,30.9356956 C108.299433,31.0005227 107.958745,31.1149813 107.728975,31.279075 C107.499205,31.4431686 107.384322,31.7338734 107.384322,32.151198 C107.384322,32.4550751 107.490292,32.7032377 107.702235,32.8956932 C107.914178,33.0881487 108.196434,33.184375 108.549011,33.184375 C109.03232,33.184375 109.43144,33.0111676 109.746383,32.6647477 C110.061326,32.3183278 110.218795,31.8797384 110.218795,31.3489664 L110.218795,30.7290601 Z M117.918815,33.3788554 C117.918815,35.6640113 116.849214,36.8065722 114.709978,36.8065722 C113.957284,36.8065722 113.299677,36.6607133 112.737138,36.3689913 L112.737138,35.3722793 C113.422485,35.761242 114.076131,35.9557205 114.698094,35.9557205 C116.195558,35.9557205 116.944279,35.141342 116.944279,33.5125606 L116.944279,32.8318793 L116.92051,32.8318793 C116.457009,33.6260115 115.759788,34.0230717 114.828824,34.0230717 C114.072169,34.0230717 113.46309,33.7465476 113.00157,33.1934913 C112.540049,32.6404349 112.309293,31.8979729 112.309293,30.9660831 C112.309293,29.9085907 112.557876,29.0678766 113.05505,28.4439156 C113.552224,27.8199546 114.23261,27.5079788 115.096227,27.5079788 C115.916267,27.5079788 116.524356,27.8442644 116.92051,28.5168458 L116.944279,28.5168458 L116.944279,27.6538391 L117.918815,27.6538391 L117.918815,33.3788554 Z M116.944279,31.0633233 L116.944279,30.145619 C116.944279,29.6513122 116.780868,29.2279164 116.454041,28.875419 C116.127213,28.5229215 115.72017,28.3466754 115.2329,28.3466754 C114.630745,28.3466754 114.159328,28.5705282 113.818635,29.0182405 C113.477942,29.4659528 113.307598,30.0929432 113.307598,30.8992305 C113.307598,31.5920703 113.471009,32.1461313 113.797837,32.56143 C114.124664,32.9767287 114.557457,33.184375 115.096227,33.184375 C115.642921,33.184375 116.087598,32.9858449 116.430271,32.5887788 C116.772945,32.1917127 116.944279,31.6832326 116.944279,31.0633233 Z M124.477916,31.0147032 L120.181639,31.0147032 C120.197486,31.707543 120.379714,32.2423588 120.72833,32.6191664 C121.076946,32.995974 121.556286,33.184375 122.166364,33.184375 C122.851712,33.184375 123.481589,32.9534319 124.056013,32.4915386 L124.056013,33.4274755 C123.521204,33.8245416 122.814079,34.0230717 121.934615,34.0230717 C121.074959,34.0230717 120.399526,33.7404702 119.908294,33.1752587 C119.417062,32.6100473 119.17145,31.8149141 119.17145,30.7898353 C119.17145,29.8214802 119.439841,29.0324244 119.97663,28.4226443 C120.51342,27.8128642 121.17994,27.5079788 121.976211,27.5079788 C122.772482,27.5079788 123.388493,27.771335 123.824264,28.2980553 C124.260034,28.8247757 124.477916,29.5560956 124.477916,30.4920372 L124.477916,31.0147032 Z M123.479611,30.169929 C123.475649,29.5945884 123.339968,29.1468828 123.072564,28.8267989 C122.805159,28.506715 122.43377,28.3466754 121.958384,28.3466754 C121.498845,28.3466754 121.108638,28.5148183 120.787753,28.8511089 C120.466868,29.1873996 120.268793,29.6270019 120.193524,30.169929 L123.479611,30.169929 Z M128.820542,28.6627061 C128.650195,28.5290001 128.404583,28.4621482 128.083697,28.4621482 C127.667735,28.4621482 127.320115,28.6627041 127.040825,29.0638219 C126.761536,29.4649397 126.621894,30.0119103 126.621894,30.7047501 L126.621894,33.8772114 L125.647358,33.8772114 L125.647358,27.6538391 L126.621894,27.6538391 L126.621894,28.9361941 L126.645663,28.9361941 C126.784317,28.498611 126.996257,28.1572609 127.281488,27.9121333 C127.56672,27.6670058 127.885619,27.5444439 128.238197,27.5444439 C128.491736,27.5444439 128.685849,27.5728053 128.820542,27.629529 L128.820542,28.6627061 Z" id="Virtual-Machine-Mana"></path>
            <path d="M0,19.9631123 L0,18.3746937 C0.177794226,18.5351408 0.390882639,18.6795411 0.639271632,18.8078988 C0.887660624,18.9362565 1.1491188,19.0445567 1.423654,19.1328026 C1.6981892,19.2210485 1.97402758,19.2892375 2.2511774,19.3373716 C2.52832723,19.3855058 2.78455624,19.4095725 3.01987213,19.4095725 C3.83040463,19.4095725 4.4356803,19.255813 4.83571731,18.9482893 C5.23575432,18.6407657 5.43576983,18.1982057 5.43576983,17.620596 C5.43576983,17.3103983 5.36909799,17.0403163 5.23575232,16.8103421 C5.10240665,16.5803679 4.91807864,16.3704528 4.68276275,16.1805903 C4.44744686,15.9907279 4.16899391,15.8088906 3.84739553,15.6350729 C3.52579715,15.4612551 3.17936506,15.2780808 2.80808889,15.0855442 C2.41589574,14.8823112 2.04985429,14.6764072 1.70995357,14.4678259 C1.37005284,14.2592446 1.0746051,14.0292739 0.823601489,13.7779067 C0.572597875,13.5265396 0.375196953,13.2417502 0.231392799,12.9235301 C0.0875886457,12.60531 0.0156876474,12.232276 0.0156876474,11.804417 C0.0156876474,11.2802898 0.128114663,10.8243594 0.352972067,10.4366122 C0.57782947,10.048865 0.873277209,9.72931259 1.23932415,9.47794544 C1.60537108,9.22657828 2.02239687,9.03939278 2.49041403,8.91638333 C2.95843118,8.79337387 3.43559235,8.73187006 3.92191185,8.73187006 C5.03051114,8.73187006 5.83841691,8.86824807 6.34565338,9.14100817 L6.34565338,10.6572259 C5.68153965,10.186581 4.829186,9.95126207 3.78856685,9.95126207 C3.50095854,9.95126207 3.21335455,9.98201398 2.92574624,10.0435187 C2.63813793,10.1050234 2.38190892,10.2053014 2.15705152,10.3443555 C1.93219411,10.4834097 1.74917339,10.662573 1.60798386,10.8818507 C1.46679433,11.1011284 1.39620062,11.3685363 1.39620062,11.6840823 C1.39620062,11.9782353 1.44979955,12.2322728 1.55699901,12.4462023 C1.66419846,12.6601318 1.82238066,12.8553395 2.03155034,13.0318314 C2.24072002,13.2083232 2.49564174,13.3794642 2.79632315,13.5452596 C3.09700456,13.7110549 3.44343664,13.8928923 3.83562979,14.0907771 C4.23828142,14.2940101 4.62001036,14.5079364 4.98082805,14.7325623 C5.34164575,14.9571883 5.65801014,15.2058776 5.92993072,15.4786377 C6.2018513,15.7513978 6.4175543,16.0535687 6.57704617,16.3851594 C6.73653805,16.7167501 6.8162828,17.0964693 6.8162828,17.5243282 C6.8162828,18.0912414 6.70777765,18.5712385 6.49076411,18.9643339 C6.27375057,19.3574294 5.98091742,19.6769818 5.61225586,19.9230007 C5.2435943,20.1690196 4.81872477,20.3468458 4.33763451,20.4564847 C3.85654425,20.5661236 3.34931539,20.6209422 2.81593271,20.6209422 C2.63813848,20.6209422 2.41851362,20.6062347 2.15705152,20.5768194 C1.89558942,20.5474041 1.62890208,20.5046189 1.3569815,20.4484624 C1.08506092,20.3923059 0.827524616,20.3227798 0.584364866,20.2398822 C0.341205115,20.1569845 0.146418775,20.0647288 0,19.9631123 Z M14.5095051,12.2135551 L10.8150642,21.7440664 C10.1561797,23.4448059 9.23061773,24.2951628 8.03835057,24.2951628 C7.70367908,24.2951628 7.42391883,24.2603998 7.19906143,24.1908727 L7.19906143,23.0115923 C7.47621125,23.1078606 7.72982568,23.155994 7.95991233,23.155994 C8.60833833,23.155994 9.09465054,22.7602304 9.41886354,21.9686912 L10.0620571,20.412362 L6.9245276,12.2135551 L8.35210351,12.2135551 L10.5248427,18.53514 C10.5509889,18.6153636 10.6058951,18.8239417 10.689563,19.1608807 L10.7366259,19.1608807 C10.7627721,19.032523 10.8150638,18.829293 10.8935024,18.5511847 L13.1760551,12.2135551 L14.5095051,12.2135551 Z M15.0020973,20.1315809 L15.0020973,18.7196533 C15.7028157,19.2491288 16.4741173,19.5138626 17.3160253,19.5138626 C18.4455415,19.5138626 19.0102912,19.1287953 19.0102912,18.3586491 C19.0102912,18.1393714 18.9619214,17.9535229 18.8651805,17.8010981 C18.7684395,17.6486734 18.6377104,17.5136324 18.4729893,17.3959712 C18.3082682,17.27831 18.1147891,17.1726839 17.8925463,17.0790897 C17.6703035,16.9854956 17.4310693,16.8878917 17.1748364,16.7862752 C16.819248,16.6418728 16.5068055,16.4961355 16.2374995,16.349059 C15.9681936,16.2019824 15.7433395,16.0361896 15.5629307,15.8516754 C15.3825218,15.6671612 15.2465636,15.457246 15.1550518,15.2219236 C15.0635401,14.9866011 15.0177849,14.7111711 15.0177849,14.3956251 C15.0177849,14.010552 15.1040661,13.669607 15.2766311,13.3727798 C15.4491961,13.0759526 15.6792793,12.8272633 15.9668876,12.6267044 C16.2544959,12.4261455 16.5826259,12.2750601 16.9512875,12.1734436 C17.319949,12.0718271 17.7003707,12.0210196 18.0925638,12.0210196 C18.788053,12.0210196 19.4103235,12.1440272 19.9593939,12.3900461 L19.9593939,13.7217505 C19.3684895,13.325981 18.6886983,13.1280992 17.9199997,13.1280992 C17.6794546,13.1280992 17.4624443,13.156177 17.2689623,13.2123335 C17.0754804,13.26849 16.9094544,13.3473753 16.7708795,13.4489918 C16.6323046,13.5506083 16.5251068,13.6722789 16.4492828,13.8140072 C16.3734587,13.9557354 16.3355473,14.112169 16.3355473,14.2833126 C16.3355473,14.4972421 16.3734587,14.6764054 16.4492828,14.8208078 C16.5251068,14.9652102 16.6362265,15.093566 16.7826453,15.205879 C16.929064,15.3181919 17.1068556,15.4198069 17.3160253,15.510727 C17.525195,15.601647 17.7631219,15.7005879 18.0298132,15.8075526 C18.3854017,15.9466068 18.7043807,16.08967 18.9867597,16.2367465 C19.2691388,16.3838231 19.5096803,16.5496159 19.7083915,16.7341301 C19.9071027,16.9186443 20.0600557,17.1312336 20.1672552,17.3719042 C20.2744547,17.6125749 20.3280536,17.8987013 20.3280536,18.230292 C20.3280536,18.6367581 20.2404651,18.9897364 20.0652855,19.2892377 C19.8901059,19.588739 19.6561008,19.8374283 19.3632633,20.0353131 C19.0704257,20.2331979 18.7331447,20.3802722 18.35141,20.4765405 C17.9696753,20.5728088 17.5696443,20.6209422 17.151305,20.6209422 C16.3250848,20.6209422 15.6086893,20.4578234 15.0020973,20.1315809 Z M25.6289097,20.3481834 C25.3256136,20.519327 24.9255826,20.6048975 24.4288046,20.6048975 C23.0221386,20.6048975 22.3188161,19.802674 22.3188161,18.1982028 L22.3188161,13.3366794 L20.9383031,13.3366794 L20.9383031,12.2135551 L22.3188161,12.2135551 L22.3188161,10.2079762 L23.6052032,9.78279344 L23.6052032,12.2135551 L25.6289097,12.2135551 L25.6289097,13.3366794 L23.6052032,13.3366794 L23.6052032,17.9655556 C23.6052032,18.5164241 23.6967135,18.9095136 23.879737,19.144836 C24.0627605,19.3801585 24.3660519,19.4978179 24.7896205,19.4978179 C25.1138335,19.4978179 25.3935938,19.4068993 25.6289097,19.2250592 L25.6289097,20.3481834 Z M33.2750691,16.6498958 L27.6039845,16.6498958 C27.6249015,17.5644444 27.865443,18.2704011 28.3256163,18.7677872 C28.7857896,19.2651733 29.4185184,19.5138626 30.2238216,19.5138626 C31.1284805,19.5138626 31.9599175,19.2090176 32.7181576,18.5993186 L32.7181576,19.8347552 C32.0122099,20.3588825 31.0788042,20.6209422 29.9179125,20.6209422 C28.783167,20.6209422 27.8915946,20.2479082 27.2431686,19.5018291 C26.5947426,18.75575 26.2705345,17.7061742 26.2705345,16.3530701 C26.2705345,15.0748414 26.6248103,14.0332878 27.3333726,13.2283781 C28.0419349,12.4234684 28.9217416,12.0210196 29.9728193,12.0210196 C31.0238969,12.0210196 31.8370318,12.3686498 32.4122484,13.0639206 C32.9874651,13.7591915 33.2750691,14.7245338 33.2750691,15.9599767 L33.2750691,16.6498958 Z M31.9573067,15.5347939 C31.9520774,14.7753442 31.7729786,14.1843729 31.4200047,13.7618621 C31.0670309,13.3393514 30.5767968,13.1280992 29.9492878,13.1280992 C29.3426957,13.1280992 28.8276231,13.3500477 28.4040545,13.7939514 C27.9804859,14.2378551 27.7190278,14.8181301 27.6196722,15.5347939 L31.9573067,15.5347939 Z M46.2236533,20.4284066 L44.9372662,20.4284066 L44.9372662,15.7112849 C44.9372662,14.8020845 44.8000006,14.1442612 44.5254654,13.7377952 C44.2509302,13.3313291 43.7894565,13.1280992 43.1410305,13.1280992 C42.5919601,13.1280992 42.1252573,13.3848107 41.740908,13.8982415 C41.3565587,14.4116723 41.164387,15.0267103 41.164387,15.7433741 L41.164387,20.4284066 L39.8779999,20.4284066 L39.8779999,15.5508385 C39.8779999,13.9356709 39.2688023,13.1280992 38.050389,13.1280992 C37.4856308,13.1280992 37.0202353,13.3701033 36.6541883,13.8541187 C36.2881414,14.3381342 36.1051207,14.9678797 36.1051207,15.7433741 L36.1051207,20.4284066 L34.8187336,20.4284066 L34.8187336,12.2135551 L36.1051207,12.2135551 L36.1051207,13.5131703 L36.136496,13.5131703 C36.7064833,12.5183982 37.5379203,12.0210196 38.6308319,12.0210196 C39.1799023,12.0210196 39.6583708,12.1774532 40.0662516,12.490325 C40.4741325,12.8031969 40.7538928,13.213668 40.9055408,13.7217505 C41.5016744,12.5879242 42.3906322,12.0210196 43.5724408,12.0210196 C45.3399246,12.0210196 46.2236533,13.1361103 46.2236533,15.3663253 L46.2236533,20.4284066 Z M60.0805523,19.9470676 C59.2491028,20.3963196 58.2137284,20.6209422 56.9743981,20.6209422 C55.3742501,20.6209422 54.093105,20.0941487 53.1309245,19.0405459 C52.168744,17.9869432 51.6876609,16.6044446 51.6876609,14.8930086 C51.6876609,13.053215 52.2288793,11.5664273 53.3113324,10.432601 C54.3937855,9.29877471 55.7664409,8.73187006 57.4293399,8.73187006 C58.4961052,8.73187006 59.3798339,8.8896407 60.0805523,9.2051867 L60.0805523,10.6411812 C59.275249,10.1812328 58.3862912,9.95126207 57.4136522,9.95126207 C56.1220295,9.95126207 55.0748895,10.392485 54.2722008,11.2749442 C53.4695122,12.1574033 53.0681739,13.336672 53.0681739,14.8127855 C53.0681739,16.2140237 53.4433664,17.3304515 54.1937626,18.1621024 C54.9441588,18.9937533 55.9285488,19.4095725 57.1469622,19.4095725 C58.2764785,19.4095725 59.2543321,19.1528609 60.0805523,18.6394301 L60.0805523,19.9470676 Z M68.2522478,16.6498958 L62.5811633,16.6498958 C62.6020803,17.5644444 62.8426218,18.2704011 63.3027951,18.7677872 C63.7629684,19.2651733 64.3956972,19.5138626 65.2010004,19.5138626 C66.1056593,19.5138626 66.9370963,19.2090176 67.6953364,18.5993186 L67.6953364,19.8347552 C66.9893887,20.3588825 66.055983,20.6209422 64.8950913,20.6209422 C63.7603458,20.6209422 62.8687734,20.2479082 62.2203474,19.5018291 C61.5719214,18.75575 61.2477133,17.7061742 61.2477133,16.3530701 C61.2477133,15.0748414 61.6019891,14.0332878 62.3105514,13.2283781 C63.0191137,12.4234684 63.8989204,12.0210196 64.9499981,12.0210196 C66.0010757,12.0210196 66.8142106,12.3686498 67.3894272,13.0639206 C67.9646439,13.7591915 68.2522478,14.7245338 68.2522478,15.9599767 L68.2522478,16.6498958 Z M66.9344855,15.5347939 C66.9292562,14.7753442 66.7501574,14.1843729 66.3971835,13.7618621 C66.0442097,13.3393514 65.5539756,13.1280992 64.9264666,13.1280992 C64.3198745,13.1280992 63.8048019,13.3500477 63.3812333,13.7939514 C62.9576647,14.2378551 62.6962066,14.8181301 62.596851,15.5347939 L66.9344855,15.5347939 Z M76.4631625,20.4284066 L75.1767754,20.4284066 L75.1767754,15.7433741 C75.1767754,13.9998488 74.554505,13.1280992 73.3099454,13.1280992 C72.6667486,13.1280992 72.1346813,13.3754514 71.7137273,13.8701634 C71.2927733,14.3648753 71.0822995,14.9892727 71.0822995,15.7433741 L71.0822995,20.4284066 L69.7959124,20.4284066 L69.7959124,12.2135551 L71.0822995,12.2135551 L71.0822995,13.5773488 L71.1136748,13.5773488 C71.7202668,12.5397908 72.5987663,12.0210196 73.7491995,12.0210196 C74.6277122,12.0210196 75.2996597,12.3111571 75.7650622,12.8914408 C76.2304648,13.4717246 76.4631625,14.3100482 76.4631625,15.4064369 L76.4631625,20.4284066 Z M82.2111166,20.3481834 C81.9078205,20.519327 81.5077895,20.6048975 81.0110116,20.6048975 C79.6043455,20.6048975 78.901023,19.802674 78.901023,18.1982028 L78.901023,13.3366794 L77.52051,13.3366794 L77.52051,12.2135551 L78.901023,12.2135551 L78.901023,10.2079762 L80.1874101,9.78279344 L80.1874101,12.2135551 L82.2111166,12.2135551 L82.2111166,13.3366794 L80.1874101,13.3366794 L80.1874101,17.9655556 C80.1874101,18.5164241 80.2789204,18.9095136 80.4619439,19.144836 C80.6449674,19.3801585 80.9482588,19.4978179 81.3718274,19.4978179 C81.6960404,19.4978179 81.9758007,19.4068993 82.2111166,19.2250592 L82.2111166,20.3481834 Z M89.857276,16.6498958 L84.1861914,16.6498958 C84.2071084,17.5644444 84.4476499,18.2704011 84.9078232,18.7677872 C85.3679965,19.2651733 86.0007253,19.5138626 86.8060285,19.5138626 C87.7106874,19.5138626 88.5421244,19.2090176 89.3003645,18.5993186 L89.3003645,19.8347552 C88.5944168,20.3588825 87.6610111,20.6209422 86.5001194,20.6209422 C85.3653739,20.6209422 84.4738015,20.2479082 83.8253755,19.5018291 C83.1769495,18.75575 82.8527414,17.7061742 82.8527414,16.3530701 C82.8527414,15.0748414 83.2070172,14.0332878 83.9155795,13.2283781 C84.6241418,12.4234684 85.5039485,12.0210196 86.5550262,12.0210196 C87.6061038,12.0210196 88.4192387,12.3686498 88.9944554,13.0639206 C89.569672,13.7591915 89.857276,14.7245338 89.857276,15.9599767 L89.857276,16.6498958 Z M88.5395136,15.5347939 C88.5342843,14.7753442 88.3551855,14.1843729 88.0022117,13.7618621 C87.6492378,13.3393514 87.1590037,13.1280992 86.5314947,13.1280992 C85.9249026,13.1280992 85.40983,13.3500477 84.9862614,13.7939514 C84.5626928,14.2378551 84.3012347,14.8181301 84.2018791,15.5347939 L88.5395136,15.5347939 Z M95.5895424,13.5452596 C95.364685,13.3687677 95.0404768,13.2805232 94.6169082,13.2805232 C94.0678378,13.2805232 93.6089787,13.5452569 93.2403172,14.0747324 C92.8716556,14.6042079 92.6873276,15.3262091 92.6873276,16.2407577 L92.6873276,20.4284066 L91.4009405,20.4284066 L91.4009405,12.2135551 L92.6873276,12.2135551 L92.6873276,13.9062638 L92.7187029,13.9062638 C92.9017263,13.3286542 93.1814866,12.8780719 93.557992,12.5545036 C93.9344974,12.2309352 94.3554451,12.0691535 94.8208476,12.0691535 C95.1555191,12.0691535 95.4117481,12.1065906 95.5895424,12.1814659 L95.5895424,13.5452596 Z" id="System-Center"></path>
            <path d="M6.50346898,6.88856188 L5.76059667,6.88856188 L5.76059667,2.57985153 C5.76059667,2.23945275 5.78135537,1.82291838 5.82287339,1.33023594 L5.80508004,1.33023594 C5.73390629,1.6198735 5.67014743,1.8273942 5.61380154,1.95280428 L3.43411631,6.88856188 L3.06935266,6.88856188 L0.894115776,1.98863555 C0.831838744,1.84530975 0.768079882,1.62584541 0.702837277,1.33023594 L0.685043928,1.33023594 C0.708768512,1.587028 0.720630626,2.00654827 0.720630626,2.58880934 L0.720630626,6.88856188 L0,6.88856188 L0,0.465806525 L0.987530857,0.465806525 L2.94479922,4.94471542 C3.09604344,5.28810016 3.19390588,5.54488836 3.23838948,5.71508775 L3.2650795,5.71508775 C3.39259914,5.36274516 3.49490987,5.09998513 3.57201477,4.92679979 L5.56931817,0.465806525 L6.50346898,0.465806525 L6.50346898,6.88856188 Z M8.2285341,1.13764286 C8.09804889,1.13764286 7.98684157,1.09285422 7.89490881,1.00327559 C7.80297605,0.913696967 7.75701036,0.80023241 7.75701036,0.662878517 C7.75701036,0.525524624 7.80297605,0.411313589 7.89490881,0.320241986 C7.98684157,0.229170383 8.09804889,0.183635265 8.2285341,0.183635265 C8.36198488,0.183635265 8.47541635,0.229170383 8.5688319,0.320241986 C8.66224744,0.411313589 8.70895452,0.525524624 8.70895452,0.662878517 C8.70895452,0.794260501 8.66224744,0.906232104 8.5688319,0.998796684 C8.47541635,1.09136126 8.36198488,1.13764286 8.2285341,1.13764286 Z M8.58440108,6.88856188 L7.85487378,6.88856188 L7.85487378,2.30215917 L8.58440108,2.30215917 L8.58440108,6.88856188 Z M12.9384335,6.67805317 C12.5884959,6.89005591 12.1733219,6.9960557 11.6928991,6.9960557 C11.0434386,6.9960557 10.5192814,6.78330965 10.1204119,6.35781118 C9.7215423,5.93231271 9.52211051,5.38066595 9.52211051,4.70285434 C9.52211051,3.94740793 9.73711133,3.34052184 10.1671194,2.88217788 C10.5971275,2.42383391 11.1709572,2.19466536 11.8886259,2.19466536 C12.2889782,2.19466536 12.6418761,2.2693131 12.9473302,2.4186108 L12.9473302,3.1710675 C12.6092548,2.93219116 12.2474604,2.81275479 11.8619359,2.81275479 C11.3963409,2.81275479 11.0145291,2.98071219 10.716489,3.31663204 C10.418449,3.65255189 10.2694312,4.09372 10.2694312,4.64014962 C10.2694312,5.17762137 10.4095524,5.60162051 10.689799,5.91215975 C10.9700457,6.22269898 11.3459264,6.37796627 11.8174525,6.37796627 C12.2148393,6.37796627 12.5884959,6.2450933 12.9384335,5.97934338 L12.9384335,6.67805317 Z M16.1892783,3.04565805 C16.0617586,2.94712156 15.8778959,2.89785406 15.6376844,2.89785406 C15.3262993,2.89785406 15.0660742,3.04565657 14.8570013,3.34126604 C14.6479284,3.6368755 14.5433935,4.03997327 14.5433935,4.55057144 L14.5433935,6.88856188 L13.8138662,6.88856188 L13.8138662,2.30215917 L14.5433935,2.30215917 L14.5433935,3.24720895 L14.5611868,3.24720895 C14.6649819,2.9247259 14.8236377,2.67316303 15.0371589,2.4925128 C15.2506802,2.31186257 15.4894052,2.22153881 15.7533412,2.22153881 C15.9431379,2.22153881 16.0884488,2.24244018 16.1892783,2.28424354 L16.1892783,3.04565805 Z M18.5371106,6.9960557 C17.8639255,6.9960557 17.3264235,6.7818167 16.9245884,6.35333227 C16.5227532,5.92484784 16.3218387,5.35677858 16.3218387,4.64910744 C16.3218387,3.87873125 16.5309084,3.27707051 16.9490542,2.84410715 C17.3672,2.41114379 17.9321332,2.19466536 18.6438707,2.19466536 C19.3229869,2.19466536 19.8530751,2.40517197 20.2341512,2.82619151 C20.6152273,3.24721106 20.8057626,3.83095634 20.8057626,4.57744489 C20.8057626,5.30900367 20.6003997,5.89498839 20.1896679,6.33541664 C19.778936,6.77584488 19.2280891,6.9960557 18.5371106,6.9960557 Z M18.5904906,2.81275479 C18.1219301,2.81275479 17.751239,2.97324742 17.4784063,3.29423749 C17.2055736,3.61522757 17.0691593,4.05788864 17.0691593,4.62223398 C17.0691593,5.16567765 17.2070564,5.59415565 17.4828547,5.90768084 C17.758653,6.22120603 18.1278612,6.37796627 18.5904906,6.37796627 C19.0620167,6.37796627 19.4245526,6.22419194 19.6781091,5.91663865 C19.9316656,5.60908537 20.0584419,5.17164964 20.0584419,4.60431835 C20.0584419,4.03101514 19.9316656,3.58910055 19.6781091,3.27856131 C19.4245526,2.96802208 19.0620167,2.81275479 18.5904906,2.81275479 Z M21.4676751,6.72284226 L21.4676751,5.93455429 C21.8650619,6.23016376 22.3024773,6.37796627 22.7799346,6.37796627 C23.4204983,6.37796627 23.7407754,6.16298079 23.7407754,5.73300339 C23.7407754,5.61057927 23.7133443,5.50681892 23.6584812,5.42171922 C23.6036181,5.33661953 23.5294798,5.26122531 23.4360643,5.19553432 C23.3426487,5.12984333 23.2329242,5.07087162 23.1068873,5.01861742 C22.9808505,4.96636322 22.8451776,4.91187038 22.6998645,4.85513725 C22.4982055,4.77451648 22.3210152,4.69315045 22.1682882,4.61103671 C22.0155612,4.52892297 21.8880435,4.43635978 21.7857312,4.33334436 C21.6834189,4.23032894 21.6063152,4.11313199 21.5544177,3.98175001 C21.5025201,3.85036803 21.4765718,3.69659369 21.4765718,3.52042239 C21.4765718,3.30543369 21.525503,3.11508197 21.6233669,2.94936151 C21.7212308,2.78364105 21.851714,2.64479626 22.0148206,2.53282298 C22.1779271,2.4208497 22.364014,2.33649776 22.5730869,2.27976463 C22.7821598,2.2230315 22.997902,2.19466536 23.2203199,2.19466536 C23.6147411,2.19466536 23.967639,2.26334128 24.2790242,2.40069517 L24.2790242,3.14419405 C23.9439144,2.92323344 23.5583957,2.81275479 23.1224565,2.81275479 C22.9860402,2.81275479 22.8629707,2.82843081 22.7532445,2.85978333 C22.6435183,2.89113585 22.5493628,2.93517801 22.4707751,2.99191114 C22.3921874,3.04864427 22.3313941,3.11657371 22.2883933,3.1957015 C22.2453925,3.27482928 22.2238924,3.36216713 22.2238924,3.45771767 C22.2238924,3.57715584 22.2453925,3.6771838 22.2883933,3.75780457 C22.3313941,3.83842533 22.3944116,3.91008715 22.4774476,3.97279219 C22.5604837,4.03549723 22.6613116,4.09222951 22.7799346,4.14299073 C22.8985575,4.19375195 23.033489,4.24899128 23.1847332,4.30871036 C23.3863922,4.38634517 23.5672894,4.46621825 23.7274304,4.54833199 C23.8875713,4.63044573 24.0239856,4.72300892 24.1366774,4.82602434 C24.2493692,4.92903976 24.3361109,5.04772966 24.3969051,5.18209759 C24.4576994,5.31646553 24.488096,5.47621169 24.488096,5.66134085 C24.488096,5.88827337 24.4384234,6.08534339 24.3390767,6.25255682 C24.2397301,6.41977026 24.1070227,6.55861504 23.9409506,6.66909535 C23.7748785,6.77957565 23.5836019,6.86168816 23.3671151,6.91543534 C23.1506282,6.96918251 22.9237653,6.9960557 22.6865195,6.9960557 C22.2179589,6.9960557 21.8116815,6.90498546 21.4676751,6.72284226 Z M27.2852104,6.9960557 C26.6120254,6.9960557 26.0745233,6.7818167 25.6726882,6.35333227 C25.2708531,5.92484784 25.0699385,5.35677858 25.0699385,4.64910744 C25.0699385,3.87873125 25.2790083,3.27707051 25.697154,2.84410715 C26.1152998,2.41114379 26.680233,2.19466536 27.3919705,2.19466536 C28.0710867,2.19466536 28.6011749,2.40517197 28.9822511,2.82619151 C29.3633272,3.24721106 29.5538624,3.83095634 29.5538624,4.57744489 C29.5538624,5.30900367 29.3484995,5.89498839 28.9377677,6.33541664 C28.5270358,6.77584488 27.9761889,6.9960557 27.2852104,6.9960557 Z M27.3385905,2.81275479 C26.8700299,2.81275479 26.4993389,2.97324742 26.2265062,3.29423749 C25.9536735,3.61522757 25.8172592,4.05788864 25.8172592,4.62223398 C25.8172592,5.16567765 25.9551562,5.59415565 26.2309545,5.90768084 C26.5067528,6.22120603 26.8759611,6.37796627 27.3385905,6.37796627 C27.8101166,6.37796627 28.1726524,6.22419194 28.4262089,5.91663865 C28.6797654,5.60908537 28.8065417,5.17164964 28.8065417,4.60431835 C28.8065417,4.03101514 28.6797654,3.58910055 28.4262089,3.27856131 C28.1726524,2.96802208 27.8101166,2.81275479 27.3385905,2.81275479 Z M32.577842,0.743498877 C32.4354945,0.662878114 32.2738732,0.622568337 32.0929732,0.622568337 C31.5828947,0.622568337 31.3278592,0.946539507 31.3278592,1.59449157 L31.3278592,2.30215917 L32.3954602,2.30215917 L32.3954602,2.92920642 L31.3278592,2.92920642 L31.3278592,6.88856188 L30.6027803,6.88856188 L30.6027803,2.92920642 L29.8243213,2.92920642 L29.8243213,2.30215917 L30.6027803,2.30215917 L30.6027803,1.5586603 C30.6027803,1.07792167 30.7406773,0.697964699 31.0164756,0.418777982 C31.2922739,0.139591265 31.6362752,-3.10862447e-15 32.0484899,-3.10862447e-15 C32.2709078,-3.10862447e-15 32.4473568,0.0268731847 32.577842,0.0806203602 L32.577842,0.743498877 Z M35.2281612,6.8437728 C35.056158,6.93932333 34.8292951,6.98709788 34.5475656,6.98709788 C33.7498265,6.98709788 33.3509629,6.53921147 33.3509629,5.64342521 L33.3509629,2.92920642 L32.5680556,2.92920642 L32.5680556,2.30215917 L33.3509629,2.30215917 L33.3509629,1.18243195 L34.0804902,0.945049777 L34.0804902,2.30215917 L35.2281612,2.30215917 L35.2281612,2.92920642 L34.0804902,2.92920642 L34.0804902,5.51353685 C34.0804902,5.82109014 34.132387,6.04055448 34.236182,6.17193646 C34.3399771,6.30331845 34.5119777,6.36900845 34.7521892,6.36900845 C34.9360547,6.36900845 35.0947105,6.31824799 35.2281612,6.21672555 L35.2281612,6.8437728 Z M39.2930517,5.74644012 C38.5546241,5.74644012 37.9251906,5.48517304 37.4047326,4.96263106 C36.8842745,4.44008907 36.6240494,3.80707628 36.6240494,3.06357369 C36.6240494,2.32007109 36.8842745,1.68631182 37.4047326,1.16227686 C37.9251906,0.638241898 38.5546241,0.376228347 39.2930517,0.376228347 C40.0285138,0.376228347 40.6564645,0.638241898 41.1769225,1.16227686 C41.6973806,1.68631182 41.9576057,2.32007109 41.9576057,3.06357369 C41.9576057,3.80707628 41.6973806,4.44008907 41.1769225,4.96263106 C40.6564645,5.48517304 40.0285138,5.74644012 39.2930517,5.74644012 Z M39.2975001,0.797245784 C38.6747297,0.797245784 38.1431588,1.01820308 37.7027712,1.4601243 C37.2623836,1.90204552 37.0421931,2.43652331 37.0421931,3.06357369 C37.0421931,3.68763811 37.2623836,4.22062294 37.7027712,4.66254416 C38.1431588,5.10446538 38.6747297,5.32542268 39.2975001,5.32542268 C39.9173048,5.32542268 40.4459103,5.10446538 40.8833323,4.66254416 C41.3207543,4.22062294 41.539462,3.68763811 41.539462,3.06357369 C41.539462,2.43652331 41.3207543,1.90204552 40.8833323,1.4601243 C40.4459103,1.01820308 39.9173048,0.797245784 39.2975001,0.797245784 Z M40.5875178,4.74316452 L39.9736473,4.74316452 L39.6044353,3.92352419 C39.4176042,3.51146252 39.2159483,3.30543477 38.9994615,3.30543477 L38.7681479,3.30543477 L38.7681479,4.74316452 L38.2476925,4.74316452 L38.2476925,1.32575703 L39.204085,1.32575703 C39.5985062,1.32575703 39.9032142,1.4093625 40.1182183,1.57657593 C40.3332223,1.74378937 40.4407227,1.97071848 40.4407227,2.25737008 C40.4407227,2.49027451 40.3651017,2.68958396 40.2138575,2.85530442 C40.0626133,3.02102488 39.8520608,3.13225001 39.5821936,3.18898314 L39.5821936,3.20241986 C39.7690247,3.24422322 39.955853,3.45472983 40.1426841,3.83394602 L40.5875178,4.74316452 Z M38.7681479,1.76916901 L38.7681479,2.86650169 L39.1862916,2.86650169 C39.6548522,2.86650169 39.8891289,2.68286827 39.8891289,2.3155959 C39.8891289,2.10359315 39.8261114,1.95952302 39.7000746,1.88338119 C39.5740377,1.80723936 39.3746059,1.76916901 39.1017732,1.76916901 L38.7681479,1.76916901 Z" id="Microsoft"></path>
        </g>
    </g>
</svg>