<?xml version="1.0" encoding="UTF-8"?>
<svg width="105px" height="42px" viewBox="0 0 105 42" version="1.1" xmlns="http://www.w3.org/2000/svg" xmlns:xlink="http://www.w3.org/1999/xlink">
    <!-- Generator: Sketch 47.1 (45422) - http://www.bohemiancoding.com/sketch -->
    <title>Provider/VMware/vmware-42</title>
    <desc>Created with Sketch.</desc>
    <defs></defs>
    <g id="Symbols" stroke="none" stroke-width="1" fill="none" fill-rule="evenodd">
        <g id="Provider/VMware/vmware-42" fill="#616870">
            <path d="M45.5585405,27.8644643 L40.9243043,15.2140336 C40.8643332,15.0387895 40.7767284,14.8087817 40.7767284,14.606444 C40.7767284,14.0570769 41.2494416,13.5365329 41.9255862,13.5365329 C42.5170657,13.5365329 42.9015862,13.9123853 43.0791477,14.4611759 L46.9178851,25.3620483 L50.7842562,14.4306235 C50.9606417,13.9123853 51.3163526,13.5365329 51.9037165,13.5365329 L52.0230707,13.5365329 C52.6445357,13.5365329 53.0278803,13.9123853 53.2042659,14.4306235 L57.0400635,25.3620483 L60.9399479,14.4041063 C61.0886997,13.9406318 61.4108973,13.5365329 62.0323624,13.5365329 C62.6808732,13.5365329 63.1541744,14.0265245 63.1541744,14.5776209 C63.1541744,14.7799587 63.0648057,15.0099665 63.0071865,15.185787 L58.3429647,27.8644643 C58.1042563,28.5268177 57.6338948,28.875 57.1017984,28.875 L57.0136057,28.875 C56.4227141,28.875 55.9788105,28.5268177 55.7712635,27.8644643 L51.9666273,17.1152011 L48.126126,27.8644643 C47.9203429,28.5268177 47.4764393,28.875 46.8878995,28.875 L46.8261646,28.875 C46.2664345,28.875 45.7948971,28.5268177 45.5585405,27.8644643 Z M79.0670249,14.6676152 C79.0670249,14.0574184 79.5568452,13.5365329 80.1613776,13.5365329 C80.7980292,13.5365329 81.287276,14.0286084 81.287276,14.6676152 L81.287276,17.2340138 C82.3827757,14.7407927 84.8123761,13.5653429 86.4217857,13.5653429 C87.0876889,13.5653429 87.5207268,14.0574184 87.5207268,14.6946966 C87.5207268,15.3037409 87.1169405,15.7364678 86.5370713,15.8246265 C83.6514906,16.1720756 81.287276,18.3460815 81.287276,22.6664356 L81.287276,27.7462225 C81.287276,28.3552668 80.8255601,28.875 80.1917762,28.875 C79.5568452,28.875 79.0670249,28.3811959 79.0670249,27.7462225 L79.0670249,14.6676152 Z M95.3790448,28.875 C91.3271432,28.875 88.0180034,25.7775242 88.0180034,21.2342936 L88.0180034,21.1749571 C88.0180034,16.9460954 91.0139443,13.5365329 95.0936344,13.5365329 C99.4569981,13.5365329 101.941748,17.0847373 101.941748,20.9775494 C101.941748,21.5749075 101.451976,22.0016734 100.913575,22.0016734 L90.2468677,22.0016734 C90.5577508,25.1807367 92.8103511,26.9705288 95.4375163,26.9705288 C97.2628693,26.9705288 98.6013458,26.2596327 99.6868316,25.2663181 C99.8564569,25.1259646 100.057923,25.0118561 100.314966,25.0118561 C100.856262,25.0118561 101.284667,25.4386219 101.284667,25.9509692 C101.284667,26.2048607 101.172355,26.4616048 100.941364,26.6578715 C99.5444159,27.9923706 97.8886881,28.875 95.3790448,28.875 Z M99.7441453,20.3813324 C99.5166274,17.711193 97.9726323,15.3839498 95.0357418,15.3839498 C92.467627,15.3839498 90.5264888,17.5120737 90.2468677,20.3813324 L99.7441453,20.3813324 Z M63.1541744,24.2594508 L63.1541744,24.2005557 C63.1541744,21.0762543 65.8171731,19.4117519 69.6892852,19.4117519 C71.6427407,19.4117519 73.0317466,19.6702043 74.3953907,20.0447317 L74.3953907,19.5266832 C74.3953907,16.8615352 72.7049911,15.4835032 69.8390973,15.4835032 C68.3002792,15.4835032 67.4043557,15.6739118 66.2789954,16.1593679 C66.1321324,16.2176912 65.9834999,16.2468529 65.8678969,16.2468529 C65.3347073,16.2468529 64.8604989,15.8157176 64.8604989,15.3005281 C64.8604989,14.8425183 65.0663431,14.5600503 65.4821602,14.3810777 C66.9879488,13.7475261 68.1245154,13.5365329 70.0750219,13.5365329 C72.2331419,13.5365329 73.8893324,14.0791687 75.0117436,15.1701582 C76.0468627,16.173091 76.580642,17.6071591 76.580642,19.4992369 L76.580642,27.6805151 C76.580642,28.3094923 76.1082031,28.7697893 75.4835928,28.7697893 C74.8359798,28.7697893 74.3953907,28.3094923 74.3953907,27.737123 L74.3953907,26.3219243 C73.3296014,27.6713663 71.5530893,28.875 68.8659084,28.875 C66.0247867,28.875 63.1541744,27.2979826 63.1541744,24.2594508 Z M74.4231118,23.1124251 L74.4231118,21.678357 C73.2977516,21.3632966 71.7878343,21.045949 69.9263894,21.045949 C67.0610854,21.045949 65.460927,22.2524417 65.460927,24.1142143 L65.460927,24.1719658 C65.460927,26.034882 67.2350798,27.1247279 69.3070874,27.1247279 C72.114,27.1247279 74.4231118,25.4613691 74.4231118,23.1124251 Z M101.294199,15.1037332 L101.294199,15.0920861 C101.294199,14.1214997 102.114629,13.3045432 103.145944,13.3045432 C104.191703,13.3045432 105,14.1131804 105,15.0843214 L105,15.0920861 C105,16.0660003 104.181881,16.8829568 103.145944,16.8829568 C102.100185,16.8829568 101.294199,16.0770927 101.294199,15.1037332 Z M104.644673,15.0920861 L104.644673,15.0870945 C104.644673,14.2889952 104.002196,13.6345426 103.145944,13.6345426 C102.297204,13.6345426 101.644904,14.3000876 101.644904,15.0920861 L101.644904,15.1009601 C101.644904,15.8973956 102.290271,16.5524028 103.145944,16.5524028 C103.992374,16.5524028 104.644673,15.8868578 104.644673,15.0920861 Z M102.451456,14.3249132 C102.451456,14.2042621 102.540469,14.109375 102.654829,14.109375 L103.285579,14.109375 C103.522552,14.109375 103.707061,14.1810116 103.820242,14.3092034 C103.924581,14.4172867 103.980583,14.5724994 103.980583,14.7534761 L103.980583,14.7603884 C103.980583,15.0676718 103.83498,15.2549324 103.615101,15.3542182 L103.892749,15.7168 C103.931655,15.7695849 103.958772,15.814829 103.958772,15.8801817 C103.958772,15.9989477 103.863864,16.078125 103.767189,16.078125 C103.677587,16.078125 103.617459,16.0297389 103.569121,15.9681565 L103.176524,15.4384226 L102.855844,15.4384226 L102.855844,15.864472 C102.855844,15.9832379 102.76801,16.078125 102.654829,16.078125 C102.540469,16.078125 102.451456,15.9832379 102.451456,15.864472 L102.451456,14.3249132 Z M103.264357,15.0576175 C103.460067,15.0576175 103.569121,14.9482774 103.569121,14.7817537 L103.569121,14.7754698 C103.569121,14.5932363 103.452993,14.4958357 103.256694,14.4958357 L102.855844,14.4958357 L102.855844,15.0576175 L103.264357,15.0576175 Z" id="Combined-Shape-Copy"></path>
            <path d="M4.18737994,14.3736807 C3.68464234,13.307147 2.44376766,12.8237128 1.2845139,13.3237579 C0.124077224,13.8226574 -0.302362552,15.0684742 0.221076008,16.1367263 L5.08757598,26.3793449 C5.8535115,27.986019 6.66025748,28.8274465 8.17379338,28.8274465 C9.79142554,28.8274465 10.4964411,27.9109836 11.2611937,26.3793449 C11.2611937,26.3793449 15.5060734,17.4283662 15.5480668,17.3355743 C15.5918345,17.2399185 15.7278694,16.9506599 16.1602237,16.9535238 C16.5251521,16.9575334 16.8321178,17.2387729 16.8321178,17.6162411 L16.8321178,26.3713259 C16.8321178,27.7202447 17.6057422,28.8274465 19.0920711,28.8274465 C20.5772172,28.8274465 21.3804144,27.7202447 21.3804144,26.3713259 L21.3804144,19.2085954 C21.3804144,17.8276003 22.4018589,16.931185 23.7953293,16.931185 C25.1882081,16.931185 26.1156111,17.8579582 26.1156111,19.2085954 L26.1156111,26.3713259 C26.1156111,27.7202447 26.8916014,28.8274465 28.3755645,28.8274465 C29.8607105,28.8274465 30.668048,27.7202447 30.668048,26.3713259 L30.668048,19.2085954 C30.668048,17.8276003 31.6859437,16.931185 33.080597,16.931185 C34.47111,16.931185 35.4014703,17.8579582 35.4014703,19.2085954 L35.4014703,26.3713259 C35.4014703,27.7202447 36.1756862,28.8274465 37.6614237,28.8274465 C39.1453868,28.8274465 39.9515413,27.7202447 39.9515413,26.3713259 L39.9515413,18.2193882 C39.9515413,15.2231273 37.4644689,13.125 34.47111,13.125 C31.4807085,13.125 29.6081588,15.1280443 29.6081588,15.1280443 C28.6133298,13.878218 27.2405605,13.1261456 24.9190957,13.1261456 C22.4692849,13.1261456 20.3246654,15.1280443 20.3246654,15.1280443 C19.3286535,13.878218 17.6329492,13.1261456 16.2294241,13.1261456 C14.0581891,13.1261456 12.3340949,14.0517731 11.2818947,16.3807345 L8.17379338,23.4753031 L4.18737994,14.3736807 Z" id="Fill-9"></path>
        </g>
    </g>
</svg>