<?xml version="1.0" encoding="UTF-8"?>
<svg width="192px" height="128px" viewBox="0 0 192 128" version="1.1" xmlns="http://www.w3.org/2000/svg" xmlns:xlink="http://www.w3.org/1999/xlink">
    <!-- Generator: Sketch 47.1 (45422) - http://www.bohemiancoding.com/sketch -->
    <title>Provider/VMware/128-color</title>
    <desc>Created with Sketch.</desc>
    <defs></defs>
    <g id="Symbols" stroke="none" stroke-width="1" fill="none" fill-rule="evenodd">
        <g id="Provider/VMware/128-color" fill="#1B2733">
            <path d="M83.3070454,73.0751702 L74.8330135,48.9791116 C74.7233521,48.6453134 74.5631604,48.2072032 74.5631604,47.8217981 C74.5631604,46.7753846 75.4275504,45.7838721 76.6639291,45.7838721 C77.7454916,45.7838721 78.4486148,46.4997814 78.7732986,47.5450969 L85.7927041,68.3086634 L92.8626399,47.4869018 C93.1851735,46.4997814 93.8356162,45.7838721 94.9096529,45.7838721 L95.1279007,45.7838721 C96.2642939,45.7838721 96.9652669,46.4997814 97.2878004,47.4869018 L104.30183,68.3086634 L111.433048,47.4363929 C111.705051,46.5535844 112.294212,45.7838721 113.430605,45.7838721 C114.616454,45.7838721 115.481919,46.7171895 115.481919,47.766897 C115.481919,48.1523022 115.318502,48.5904124 115.213141,48.9253086 L106.684278,73.0751702 C106.247783,74.3367957 105.387693,75 104.414717,75 L104.25345,75 C103.172963,75 102.361253,74.3367957 101.981739,73.0751702 L95.0246899,52.600383 L88.0020591,73.0751702 C87.6257699,74.3367957 86.8140604,75 85.7378734,75 L85.6249867,75 C84.6014802,75 83.7392404,74.3367957 83.3070454,73.0751702 Z M144.579703,47.9383146 C144.579703,46.7760351 145.475374,45.7838721 146.580805,45.7838721 C147.744968,45.7838721 148.63959,46.7211589 148.63959,47.9383146 L148.63959,52.826693 C150.64279,48.0777003 155.085488,45.8387484 158.028408,45.8387484 C159.24606,45.8387484 160.0379,46.7760351 160.0379,47.9898983 C160.0379,49.1499827 159.299548,49.9742243 158.239216,50.1421457 C152.962726,50.8039536 148.63959,54.9449172 148.63959,63.1741631 L148.63959,72.8499476 C148.63959,74.010032 147.79531,75 146.636391,75 C145.475374,75 144.579703,74.0594207 144.579703,72.8499476 L144.579703,47.9383146 Z M174.407396,75 C166.998205,75 160.947206,69.1000462 160.947206,60.4462734 L160.947206,60.3332517 C160.947206,52.278277 166.425498,45.7838721 173.885503,45.7838721 C181.864225,45.7838721 186.407767,52.5423567 186.407767,59.9572369 C186.407767,61.0950619 185.512185,61.9079492 184.527681,61.9079492 L165.022844,61.9079492 C165.591316,67.963308 169.710356,71.3724358 174.514316,71.3724358 C177.852104,71.3724358 180.299604,70.0183481 182.284492,68.1263202 C182.594664,67.8589802 182.963059,67.6416306 183.433081,67.6416306 C184.422879,67.6416306 185.206248,68.454518 185.206248,69.4304175 C185.206248,69.9140203 185.000878,70.4030568 184.578494,70.776898 C182.024075,73.3188012 178.996458,75 174.407396,75 Z M182.389294,58.8215855 C181.973262,53.7356058 179.149956,49.3027615 173.779642,49.3027615 C169.083661,49.3027615 165.534151,53.3563308 165.022844,58.8215855 L182.389294,58.8215855 Z M115.481919,66.2084778 L115.481919,66.0962965 C115.481919,60.1452463 120.351402,56.9747655 127.431836,56.9747655 C131.003869,56.9747655 133.543765,57.4670559 136.037286,58.1804413 L136.037286,57.1936822 C136.037286,52.1172098 132.946269,49.4923871 127.705778,49.4923871 C124.891939,49.4923871 123.253679,49.8550701 121.195877,50.7797483 C120.927328,50.8908404 120.655543,50.9463864 120.444154,50.9463864 C119.469179,50.9463864 118.602055,50.1251763 118.602055,49.143863 C118.602055,48.2714634 118.978456,47.7334292 119.738807,47.392529 C122.492249,46.1857641 124.570542,45.7838721 128.137183,45.7838721 C132.08346,45.7838721 135.111922,46.8174641 137.164331,48.8955395 C139.05712,50.8058876 140.033174,53.5374458 140.033174,57.1414036 L140.033174,72.7247906 C140.033174,73.9228425 139.169286,74.7995986 138.027141,74.7995986 C136.842935,74.7995986 136.037286,73.9228425 136.037286,72.8326153 L136.037286,70.1369987 C134.088414,72.7073644 130.839935,75 125.926233,75 C120.731039,75 115.481919,71.9961573 115.481919,66.2084778 Z M136.087976,64.0236668 L136.087976,61.2921086 C134.030174,60.6919936 131.269183,60.087522 127.865398,60.087522 C122.625985,60.087522 119.699981,62.3856032 119.699981,65.9318367 L119.699981,66.0418396 C119.699981,69.5902514 122.944146,71.6661485 126.73296,71.6661485 C131.8656,71.6661485 136.087976,68.4978459 136.087976,64.0236668 Z M7.65692332,47.3784395 L14.946365,64.714863 L20.6297502,51.2013991 C22.5537735,46.7652821 25.706403,45.0021821 29.6766612,45.0021821 C32.2431071,45.0021821 35.3438236,46.4347009 37.1651025,48.8153224 C37.1651025,48.8153224 41.0866924,45.0021821 45.5663463,45.0021821 C49.8113105,45.0021821 52.3215174,46.4347009 54.1406333,48.8153224 C54.1406333,48.8153224 57.5647241,45 63.0328869,45 C68.5064574,45 73.054247,48.9964329 73.054247,54.7035966 L73.054247,70.2310969 C73.054247,72.8004661 71.5801359,74.9094219 68.8666034,74.9094219 C66.1498263,74.9094219 64.7341172,72.8004661 64.7341172,70.2310969 L64.7341172,56.5878007 C64.7341172,54.0151584 63.0328869,52.2498763 60.4902345,52.2498763 C57.9400114,52.2498763 56.0787163,53.957334 56.0787163,56.5878007 L56.0787163,70.2310969 C56.0787163,72.8004661 54.6024421,74.9094219 51.8867465,74.9094219 C49.173214,74.9094219 47.7542604,72.8004661 47.7542604,70.2310969 L47.7542604,56.5878007 C47.7542604,54.0151584 46.0584377,52.2498763 43.5114592,52.2498763 C40.9633992,52.2498763 39.0956149,53.957334 39.0956149,56.5878007 L39.0956149,70.2310969 C39.0956149,72.8004661 37.6269114,74.9094219 34.9112158,74.9094219 C32.1933572,74.9094219 30.7787296,72.8004661 30.7787296,70.2310969 L30.7787296,53.5547449 C30.7787296,52.8357579 30.217421,52.3000635 29.5501234,52.2924263 C28.7595326,52.2869712 28.5107831,52.83794 28.4307507,53.0201415 C28.3539628,53.196888 20.5918971,70.2463713 20.5918971,70.2463713 C19.1934923,73.1637782 17.904321,74.9094219 14.946365,74.9094219 C12.1787565,74.9094219 10.7035639,73.3067028 9.30299607,70.2463713 L0.404253272,50.7366214 C-0.552891523,48.7018556 0.226884067,46.3288712 2.34882541,45.3785865 C4.46860371,44.4261197 6.73763171,45.3469467 7.65692332,47.3784395 Z M185.223679,48.7690156 L185.223679,48.7468307 C185.223679,46.8980946 186.723894,45.341987 188.609727,45.341987 C190.521972,45.341987 192,46.8822483 192,48.7320408 L192,48.7468307 C192,50.6019054 190.504011,52.158013 188.609727,52.158013 C186.697481,52.158013 185.223679,50.6230338 185.223679,48.7690156 Z M191.350259,48.7468307 L191.350259,48.737323 C191.350259,47.2171337 190.175443,45.9705573 188.609727,45.9705573 C187.057744,45.9705573 185.864968,47.2382621 185.864968,48.7468307 L185.864968,48.7637335 C185.864968,50.2807535 187.045066,51.5283863 188.609727,51.5283863 C190.157483,51.5283863 191.350259,50.2606815 191.350259,48.7468307 Z M187.339806,47.285549 C187.339806,47.0557373 187.502571,46.875 187.711687,46.875 L188.865058,46.875 C189.298381,46.875 189.635769,47.0114507 189.842729,47.2556256 C190.03352,47.4614986 190.135922,47.7571417 190.135922,48.1018592 L190.135922,48.1150255 C190.135922,48.7003272 189.869677,49.057014 189.467614,49.2461299 L189.975313,49.9367619 C190.046455,50.0373045 190.096039,50.1234839 190.096039,50.2479652 C190.096039,50.4741861 189.922495,50.625 189.745716,50.625 C189.581873,50.625 189.471926,50.5328359 189.383536,50.4155362 L188.665644,49.4065193 L188.079257,49.4065193 L188.079257,50.2180418 C188.079257,50.4442627 187.918647,50.625 187.711687,50.625 C187.502571,50.625 187.339806,50.4442627 187.339806,50.2180418 L187.339806,47.285549 Z M188.826253,48.6811762 C189.184122,48.6811762 189.383536,48.4729094 189.383536,48.1557214 L189.383536,48.143752 C189.383536,47.7966406 189.171187,47.6111155 188.81224,47.6111155 L188.079257,47.6111155 L188.079257,48.6811762 L188.826253,48.6811762 Z" id="Combined-Shape"></path>
        </g>
    </g>
</svg>