<?xml version="1.0" encoding="UTF-8"?>
<svg width="112px" height="17px" viewBox="0 0 112 17" version="1.1" xmlns="http://www.w3.org/2000/svg" xmlns:xlink="http://www.w3.org/1999/xlink">
    <!-- Generator: Sketch 47.1 (45422) - http://www.bohemiancoding.com/sketch -->
    <title>Provider-AWS-3 Copy 2</title>
    <desc>Created with Sketch.</desc>
    <defs></defs>
    <g id="Coriolis" stroke="none" stroke-width="1" fill="none" fill-rule="evenodd">
        <g id="Endpoints-List" transform="translate(-672.000000, -216.000000)" fill="#616870">
            <g id="Item-Connection-Copy" transform="translate(352.000000, 192.000000)">
                <g id="Provider/VMware/32" transform="translate(320.000000, 10.000000)">
                    <path d="M48.5957765,29.8547832 L43.6525912,16.3007503 C43.5886221,16.1129888 43.4951769,15.8665518 43.4951769,15.6497614 C43.4951769,15.0611538 43.9994044,14.5034281 44.7206253,14.5034281 C45.3515368,14.5034281 45.761692,14.9061271 45.9510909,15.494117 L50.0457441,27.1736232 L54.1698733,15.4613823 C54.3580179,14.9061271 54.7374428,14.5034281 55.3639642,14.5034281 L55.4912754,14.5034281 C56.1541715,14.5034281 56.5630723,14.9061271 56.7512169,15.4613823 L60.8427344,27.1736232 L65.0026111,15.432971 C65.1612797,14.9363913 65.5049571,14.5034281 66.1678532,14.5034281 C66.8595981,14.5034281 67.3644527,15.0284191 67.3644527,15.6188796 C67.3644527,15.83567 67.2691261,16.082107 67.2076656,16.2704861 L62.2324957,29.8547832 C61.9778734,30.5644476 61.4761545,30.9375 60.908585,30.9375 L60.8145127,30.9375 C60.1842284,30.9375 59.7107312,30.5644476 59.4893477,29.8547832 L55.4310691,18.3377154 L51.3345345,29.8547832 C51.1150324,30.5644476 50.6415352,30.9375 50.0137595,30.9375 L49.9479089,30.9375 C49.3508634,30.9375 48.8478902,30.5644476 48.5957765,29.8547832 Z M84.3381599,15.715302 C84.3381599,15.0615198 84.8606349,14.5034281 85.5054694,14.5034281 C86.1845645,14.5034281 86.7064277,15.0306519 86.7064277,15.715302 L86.7064277,18.4650148 C87.8749607,15.7937064 90.4665346,14.534296 92.1832381,14.534296 C92.8935349,14.534296 93.3554419,15.0615198 93.3554419,15.7443178 C93.3554419,16.3968653 92.9247365,16.8605012 92.3062094,16.954957 C89.2282566,17.3272239 86.7064277,19.6565159 86.7064277,24.2854668 L86.7064277,29.7280955 C86.7064277,30.380643 86.2139308,30.9375 85.5378947,30.9375 C84.8606349,30.9375 84.3381599,30.4084241 84.3381599,29.7280955 L84.3381599,15.715302 Z M101.737648,30.9375 C97.4156194,30.9375 93.8858703,27.618776 93.8858703,22.7510288 L93.8858703,22.6874541 C93.8858703,18.1565308 97.0815406,14.5034281 101.43321,14.5034281 C106.087465,14.5034281 108.737864,18.3050756 108.737864,22.4759458 C108.737864,23.1159723 108.215441,23.5732214 107.641147,23.5732214 L96.2633255,23.5732214 C96.5949342,26.9793607 98.9977078,28.8969952 101.800017,28.8969952 C103.747061,28.8969952 105.174769,28.1353208 106.33262,27.0710551 C106.513554,26.9206764 106.728451,26.7984172 107.002631,26.7984172 C107.580012,26.7984172 108.036978,27.2556664 108.036978,27.8046099 C108.036978,28.0766364 107.917179,28.3517195 107.670788,28.5620052 C106.18071,29.9918256 104.414601,30.9375 101.737648,30.9375 Z M106.393755,21.8371418 C106.151069,18.9762783 104.504141,16.4828033 101.371458,16.4828033 C98.6321355,16.4828033 96.5615881,18.7629361 96.2633255,21.8371418 L106.393755,21.8371418 Z M67.3644527,25.9922687 L67.3644527,25.9291668 C67.3644527,22.581701 70.2049846,20.7983056 74.3352375,20.7983056 C76.4189234,20.7983056 77.9005297,21.0752189 79.3550834,21.4764982 L79.3550834,20.9214462 C79.3550834,18.0659305 77.5519905,16.5894678 74.4950371,16.5894678 C72.8536312,16.5894678 71.8979794,16.7934769 70.6975951,17.3136084 C70.5409412,17.3760977 70.3823999,17.4073424 70.25909,17.4073424 C69.6903545,17.4073424 69.1845322,16.9454117 69.1845322,16.3934229 C69.1845322,15.9026982 69.4040993,15.6000539 69.8476375,15.4082976 C71.453812,14.7294923 72.6661498,14.5034281 74.74669,14.5034281 C77.0486847,14.5034281 78.8152879,15.0848236 80.0125265,16.253741 C81.1166535,17.3283118 81.6860182,18.8648133 81.6860182,20.8920395 L81.6860182,29.6576947 C81.6860182,30.3315989 81.1820833,30.8247742 80.5158323,30.8247742 C79.8250451,30.8247742 79.3550834,30.3315989 79.3550834,29.7183461 L79.3550834,28.2020617 C78.2182415,29.6478925 76.3232953,30.9375 73.456969,30.9375 C70.4264391,30.9375 67.3644527,29.2478385 67.3644527,25.9922687 Z M79.3846526,24.7633126 L79.3846526,23.2268111 C78.1842683,22.8892464 76.5736899,22.5492311 74.5881487,22.5492311 C71.5318244,22.5492311 69.8249888,23.8419018 69.8249888,25.8366581 L69.8249888,25.8985348 C69.8249888,27.8945164 71.7174184,29.0622085 73.9275599,29.0622085 C76.9216,29.0622085 79.3846526,27.2800383 79.3846526,24.7633126 Z M108.047146,16.1825713 L108.047146,16.1700923 C108.047146,15.1301782 108.922271,14.2548677 110.02234,14.2548677 C111.137817,14.2548677 112,15.1212647 112,16.161773 L112,16.1700923 C112,17.2135718 111.12734,18.0888823 110.02234,18.0888823 C108.906864,18.0888823 108.047146,17.2254565 108.047146,16.1825713 Z M111.620985,16.1700923 L111.620985,16.1647442 C111.620985,15.3096377 110.935675,14.6084385 110.02234,14.6084385 C109.117017,14.6084385 108.421231,15.3215224 108.421231,16.1700923 L108.421231,16.1796001 C108.421231,17.0329238 109.109622,17.7347173 110.02234,17.7347173 C110.925198,17.7347173 111.620985,17.0216334 111.620985,16.1700923 Z M109.281553,15.3481213 C109.281553,15.2188522 109.3765,15.1171875 109.498484,15.1171875 L110.171284,15.1171875 C110.424056,15.1171875 110.620865,15.193941 110.741592,15.3312894 C110.852887,15.4470929 110.912621,15.6133922 110.912621,15.8072958 L110.912621,15.8147019 C110.912621,16.143934 110.757311,16.3445704 110.522775,16.4509481 L110.818932,16.8394286 C110.860432,16.8959838 110.889356,16.9444597 110.889356,17.0144804 C110.889356,17.1417297 110.788122,17.2265625 110.685001,17.2265625 C110.589426,17.2265625 110.52529,17.1747202 110.47373,17.1087391 L110.054959,16.5411671 L109.7129,16.5411671 L109.7129,16.9976485 C109.7129,17.1248978 109.619211,17.2265625 109.498484,17.2265625 C109.3765,17.2265625 109.281553,17.1248978 109.281553,16.9976485 L109.281553,15.3481213 Z M110.148648,16.1331616 C110.357404,16.1331616 110.47373,16.0160115 110.47373,15.8375933 L110.47373,15.8308605 C110.47373,15.6356103 110.349859,15.5312525 110.140474,15.5312525 L109.7129,15.5312525 L109.7129,16.1331616 L110.148648,16.1331616 Z" id="Combined-Shape-Copy"></path>
                    <path d="M4.46653861,15.4003722 C3.93028517,14.2576575 2.6066855,13.7396923 1.37014816,14.2754549 C0.132349039,14.8099901 -0.322520055,16.1447938 0.235814409,17.2893496 L5.42674771,28.2635838 C6.24374559,29.9850203 7.10427464,30.8865498 8.71871294,30.8865498 C10.4441872,30.8865498 11.1962038,29.9046253 12.0119399,28.2635838 C12.0119399,28.2635838 16.5398116,18.6732495 16.5846046,18.5738296 C16.6312902,18.4713412 16.776394,18.1614213 17.237572,18.1644898 C17.6268289,18.1687857 17.9542589,18.4701138 17.9542589,18.874544 L17.9542589,28.254992 C17.9542589,29.7002622 18.7794584,30.8865498 20.3648759,30.8865498 C21.9490316,30.8865498 22.8057754,29.7002622 22.8057754,28.254992 L22.8057754,20.5806379 C22.8057754,19.1010004 23.8953162,18.1405554 25.3816845,18.1405554 C26.867422,18.1405554 27.8566519,19.1335266 27.8566519,20.5806379 L27.8566519,28.254992 C27.8566519,29.7002622 28.6843748,30.8865498 30.2672688,30.8865498 C31.8514246,30.8865498 32.7125845,29.7002622 32.7125845,28.254992 L32.7125845,20.5806379 C32.7125845,19.1010004 33.79834,18.1405554 35.2859701,18.1405554 C36.7691841,18.1405554 37.7615684,19.1335266 37.7615684,20.5806379 L37.7615684,28.254992 C37.7615684,29.7002622 38.5873987,30.8865498 40.1721853,30.8865498 C41.7550793,30.8865498 42.6149774,29.7002622 42.6149774,28.254992 L42.6149774,19.5207731 C42.6149774,16.3104935 39.9621001,14.0625 36.7691841,14.0625 C33.5794224,14.0625 31.5820361,16.2086189 31.5820361,16.2086189 C30.5208851,14.8695192 29.0565978,14.0637274 26.5803687,14.0637274 C23.9672372,14.0637274 21.6796431,16.2086189 21.6796431,16.2086189 C20.6172304,14.8695192 18.8084791,14.0637274 17.3113857,14.0637274 C14.9954017,14.0637274 13.1563679,15.0554712 12.034021,17.550787 L8.71871294,25.1521104 L4.46653861,15.4003722 Z" id="Fill-9"></path>
                </g>
            </g>
        </g>
    </g>
</svg>