<?xml version="1.0" encoding="UTF-8"?>
<svg width="80px" height="32px" viewBox="0 0 80 32" version="1.1" xmlns="http://www.w3.org/2000/svg" xmlns:xlink="http://www.w3.org/1999/xlink">
    <!-- Generator: Sketch 47 (45396) - http://www.bohemiancoding.com/sketch -->
    <title>Provider/VMware/32</title>
    <desc>Created with Sketch.</desc>
    <defs></defs>
    <g id="Symbols" stroke="none" stroke-width="1" fill="none" fill-rule="evenodd">
        <g id="Provider/VMware/32" fill="#616870">
            <path d="M34.7112689,21.2300681 L31.1804223,11.5916446 C31.13473,11.4581254 31.0679835,11.2828813 31.0679835,11.1287192 C31.0679835,10.7101538 31.428146,10.3135488 31.9433038,10.3135488 C32.3939548,10.3135488 32.6869228,10.5999126 32.8222078,11.0180388 L35.7469601,19.3234654 L38.6927666,10.9947607 C38.8271556,10.5999126 39.0981734,10.3135488 39.5456887,10.3135488 L39.6366253,10.3135488 C40.1101225,10.3135488 40.4021945,10.5999126 40.5365835,10.9947607 L43.459096,19.3234654 L46.4304365,10.9745572 C46.5437712,10.6214338 46.7892551,10.3135488 47.2627523,10.3135488 C47.7568558,10.3135488 48.1174662,10.6868758 48.1174662,11.1067588 C48.1174662,11.2609209 48.0493758,11.4361649 48.0054754,11.5701234 L44.4517826,21.2300681 C44.2699096,21.7347183 43.9115389,22 43.5061321,22 L43.4389377,22 C42.9887346,22 42.6505223,21.7347183 42.4923912,21.2300681 L39.5936208,13.0401532 L36.6675246,21.2300681 C36.5107375,21.7347183 36.1725252,22 35.7241139,22 L35.6770778,22 C35.2506167,22 34.8913502,21.7347183 34.7112689,21.2300681 Z M60.2415428,11.1753258 C60.2415428,10.7104141 60.6147392,10.3135488 61.0753353,10.3135488 C61.5604032,10.3135488 61.9331626,10.6884635 61.9331626,11.1753258 L61.9331626,13.1306772 C62.7678291,11.2310801 64.6189533,10.3354994 65.8451701,10.3354994 C66.3525249,10.3354994 66.6824585,10.7104141 66.6824585,11.1959593 C66.6824585,11.6599931 66.3748118,11.9896897 65.9330067,12.0568583 C63.734469,12.3215814 61.9331626,13.9779669 61.9331626,17.2696652 L61.9331626,21.139979 C61.9331626,21.6040128 61.5813791,22 61.0984962,22 C60.6147392,22 60.2415428,21.6237683 60.2415428,21.139979 L60.2415428,11.1753258 Z M72.6697484,22 C69.5825853,22 67.0613359,19.6400185 67.0613359,16.1785094 L67.0613359,16.1333007 C67.0613359,12.9113108 69.3439576,10.3135488 72.4522929,10.3135488 C75.7767604,10.3135488 77.6699029,13.0169427 77.6699029,15.9828948 C77.6699029,16.4380248 77.2967439,16.7631797 76.8865336,16.7631797 L68.7595182,16.7631797 C68.9963816,19.1853232 70.7126484,20.5489743 72.7142981,20.5489743 C74.1050433,20.5489743 75.1248349,20.0073392 75.9518717,19.2505281 C76.08111,19.1435921 76.234608,19.0566523 76.4304504,19.0566523 C76.8428661,19.0566523 77.1692699,19.3818072 77.1692699,19.772167 C77.1692699,19.9656081 77.0836992,20.1612227 76.9077058,20.3107592 C75.8433645,21.3275205 74.5818576,22 72.6697484,22 Z M75.9955393,15.5286342 C75.8221923,13.4942423 74.6458151,11.7211046 72.4081842,11.7211046 C70.4515253,11.7211046 68.9725629,13.3425323 68.7595182,15.5286342 L75.9955393,15.5286342 Z M48.1174662,18.4833911 L48.1174662,18.4385186 C48.1174662,16.0580985 50.1464176,14.7899062 53.0965982,14.7899062 C54.5849453,14.7899062 55.6432355,14.9868223 56.6822024,15.2721765 L56.6822024,14.8774729 C56.6822024,12.8468839 55.3942789,11.7969549 53.2107408,11.7969549 C52.038308,11.7969549 51.3556995,11.942028 50.4982822,12.3118993 C50.3863866,12.3563362 50.2731428,12.3785546 50.1850643,12.3785546 C49.7788246,12.3785546 49.417523,12.0500705 49.417523,11.6575452 C49.417523,11.3085854 49.5743567,11.0933717 49.8911697,10.9570116 C51.0384372,10.4743056 51.9043927,10.3135488 53.3904928,10.3135488 C55.0347748,10.3135488 56.2966342,10.7269856 57.1518047,11.5582158 C57.9404668,12.322355 58.3471558,13.4149783 58.3471558,14.8565614 L58.3471558,21.0899163 C58.3471558,21.569137 57.9872024,21.9198394 57.5113088,21.9198394 C57.0178894,21.9198394 56.6822024,21.569137 56.6822024,21.1330461 L56.6822024,20.0547995 C55.8701725,21.0829458 54.5166395,22 52.4692635,22 C50.3045994,22 48.1174662,20.7984629 48.1174662,18.4833911 Z M56.7033233,17.6094667 L56.7033233,16.5168435 C55.845906,16.2767974 54.6954928,16.0350088 53.2772491,16.0350088 C51.0941603,16.0350088 49.874992,16.9542413 49.874992,18.3727347 L49.874992,18.4167359 C49.874992,19.8361005 51.2267274,20.6664594 52.8053999,20.6664594 C54.944,20.6664594 56.7033233,19.3991384 56.7033233,17.6094667 Z M77.1765329,11.5076062 L77.1765329,11.4987323 C77.1765329,10.7592378 77.8016223,10.1367948 78.5873861,10.1367948 C79.3841549,10.1367948 80,10.7528993 80,11.4928163 L80,11.4987323 C80,12.2407622 79.3766714,12.8632052 78.5873861,12.8632052 C77.7906172,12.8632052 77.1765329,12.2492135 77.1765329,11.5076062 Z M79.7292747,11.4987323 L79.7292747,11.4949292 C79.7292747,10.8868535 79.2397681,10.3882229 78.5873861,10.3882229 C77.9407267,10.3882229 77.4437366,10.8953048 77.4437366,11.4987323 L77.4437366,11.5054934 C77.4437366,12.1123014 77.9354443,12.6113545 78.5873861,12.6113545 C79.2322846,12.6113545 79.7292747,12.1042726 79.7292747,11.4987323 Z M78.0582524,10.9142196 C78.0582524,10.8222949 78.1260714,10.75 78.213203,10.75 L78.6937743,10.75 C78.8743254,10.75 79.0149037,10.8045803 79.1011371,10.9022502 C79.1806334,10.9845994 79.223301,11.1028567 79.223301,11.2407437 L79.223301,11.2460102 C79.223301,11.4801309 79.1123654,11.6228056 78.9448391,11.698452 L79.1563803,11.9747048 C79.186023,12.0149218 79.2066831,12.0493936 79.2066831,12.0991861 C79.2066831,12.1896744 79.1343728,12.25 79.0607152,12.25 C78.9924471,12.25 78.9466356,12.2131344 78.9098068,12.1662145 L78.6106849,11.7626077 L78.366357,11.7626077 L78.366357,12.0872167 C78.366357,12.1777051 78.2994363,12.25 78.213203,12.25 C78.1260714,12.25 78.0582524,12.1777051 78.0582524,12.0872167 L78.0582524,10.9142196 Z M78.6776055,11.4724705 C78.8267174,11.4724705 78.9098068,11.3891637 78.9098068,11.2622885 L78.9098068,11.2575008 C78.9098068,11.1186562 78.8213278,11.0444462 78.6717668,11.0444462 L78.366357,11.0444462 L78.366357,11.4724705 L78.6776055,11.4724705 Z" id="Combined-Shape-Copy"></path>
            <path d="M3.19038472,10.9513758 C2.80734655,10.1387787 1.86191821,9.77044786 0.978677254,10.1514346 C0.0945350279,10.5315485 -0.230371468,11.4807422 0.168438863,12.2946486 L3.87624836,20.0985485 C4.45981828,21.3226811 5.07448189,21.9637688 6.2276521,21.9637688 C7.46013375,21.9637688 7.99728845,21.2655113 8.57995711,20.0985485 C8.57995711,20.0985485 11.8141512,13.2787552 11.8461461,13.2080566 C11.879493,13.135176 11.9831386,12.9147885 12.3125514,12.9169705 C12.5905921,12.9200254 12.8244707,13.1343032 12.8244707,13.421898 L12.8244707,20.0924388 C12.8244707,21.1201865 13.4138988,21.9637688 14.5463399,21.9637688 C15.6778797,21.9637688 16.2898395,21.1201865 16.2898395,20.0924388 L16.2898395,14.6351203 C16.2898395,13.5829336 17.068083,12.8999505 18.1297747,12.8999505 C19.1910157,12.8999505 19.8976085,13.6060634 19.8976085,14.6351203 L19.8976085,20.0924388 C19.8976085,21.1201865 20.4888392,21.9637688 21.6194777,21.9637688 C22.7510175,21.9637688 23.3661318,21.1201865 23.3661318,20.0924388 L23.3661318,14.6351203 C23.3661318,13.5829336 24.1416714,12.8999505 25.2042644,12.8999505 C26.2637029,12.8999505 26.9725488,13.6060634 26.9725488,14.6351203 L26.9725488,20.0924388 C26.9725488,21.1201865 27.5624276,21.9637688 28.6944181,21.9637688 C29.8250566,21.9637688 30.4392696,21.1201865 30.4392696,20.0924388 L30.4392696,13.8814387 C30.4392696,11.5985732 28.5443572,10 26.2637029,10 C23.9853017,10 22.5585972,11.526129 22.5585972,11.526129 C21.8006322,10.5738803 20.7547127,10.0008728 18.9859776,10.0008728 C17.1194552,10.0008728 15.4854594,11.526129 15.4854594,11.526129 C14.7265932,10.5738803 13.434628,10.0008728 12.3652755,10.0008728 C10.7110012,10.0008728 9.39740563,10.7061129 8.59572927,12.4805596 L6.2276521,17.8859452 L3.19038472,10.9513758 Z" id="Fill-9"></path>
        </g>
    </g>
</svg>