<?xml version="1.0" encoding="UTF-8"?>
<svg width="48px" height="48px" viewBox="0 0 48 48" version="1.1" xmlns="http://www.w3.org/2000/svg" xmlns:xlink="http://www.w3.org/1999/xlink">
    <g stroke="none" stroke-width="1" fill="none" fill-rule="evenodd">
        <g transform="translate(-255.000000, -709.000000)">
            <g transform="translate(224.000000, 608.000000)">
                <g transform="translate(31.000000, 101.000000)">
                    <path d="M10.2555408,-4.14336123e-16 L37.7444592,4.14336123e-16 C41.3105342,-2.4074122e-16 42.6036791,0.371302445 43.9073828,1.06853082 C45.2110865,1.76575919 46.2342408,2.78891348 46.9314692,4.09261719 C47.6286976,5.39632089 48,6.68946584 48,10.2555408 L48,37.7444592 C48,41.3105342 47.6286976,42.6036791 46.9314692,43.9073828 C46.2342408,45.2110865 45.2110865,46.2342408 43.9073828,46.9314692 C42.6036791,47.6286976 41.3105342,48 37.7444592,48 L10.2555408,48 C6.68946584,48 5.39632089,47.6286976 4.09261719,46.9314692 C2.78891348,46.2342408 1.76575919,45.2110865 1.06853082,43.9073828 C0.371302445,42.6036791 1.60494146e-16,41.3105342 -2.76224082e-16,37.7444592 L2.76224082e-16,10.2555408 C-1.60494146e-16,6.68946584 0.371302445,5.39632089 1.06853082,4.09261719 C1.76575919,2.78891348 2.78891348,1.76575919 4.09261719,1.06853082 C5.39632089,0.371302445 6.68946584,2.4074122e-16 10.2555408,-4.14336123e-16 Z" fill="#D8DBE2"></path>
                    <g transform="translate(10.000000, 12.000000)" fill="#0044CA" fill-rule="nonzero">
                        <g id="icon-(1)">
                            <path d="M24.948871,0.176806452 L1.9196129,0.176806452 C0.859645161,0.176806452 0,1.03470968 0,2.09467742 L0,21.2890645 C0,22.3481613 0.859645161,23.2086774 1.9196129,23.2086774 L24.948871,23.2086774 C26.0070968,23.2086774 26.8702258,22.3481613 26.8702258,21.2890645 L26.8702258,2.09467742 C26.8702258,1.03470968 26.0062258,0.176806452 24.948871,0.176806452 Z M6.23787097,1.6173871 C6.76654839,1.6173871 7.19767742,2.04503226 7.19767742,2.57806452 C7.19767742,3.10674194 6.76741935,3.5343871 6.23787097,3.5343871 C5.70570968,3.5343871 5.27632258,3.1076129 5.27632258,2.57806452 C5.27719355,2.04590323 5.70570968,1.6173871 6.23787097,1.6173871 Z M3.35758065,1.6173871 C3.88712903,1.6173871 4.3173871,2.04503226 4.3173871,2.57806452 C4.3173871,3.10674194 3.888,3.5343871 3.35758065,3.5343871 C2.82716129,3.5343871 2.39690323,3.1076129 2.39690323,2.57806452 C2.39777419,2.04590323 2.82716129,1.6173871 3.35758065,1.6173871 Z M24.948871,21.2899355 L1.9196129,21.2899355 L1.9196129,4.995 L24.948871,4.995 L24.948871,21.2899355 Z" id="Shape"></path>
                            <polygon points="10.7573226 8.9396129 4.59435484 6.12116129 4.59435484 7.48074194 9.35941935 9.51880645 9.35941935 9.54406452 4.59435484 11.5786452 4.59435484 12.9373548 10.7573226 10.1189032"></polygon>
                            <rect x="13.6585161" y="8.883" width="3.35758065" height="1.29425806"></rect>
                        </g>
                    </g>
                </g>
            </g>
        </g>
    </g>
</svg>
