<?xml version="1.0" encoding="UTF-8"?>
<svg width="16px" height="16px" viewBox="0 0 16 16" version="1.1" xmlns="http://www.w3.org/2000/svg" xmlns:xlink="http://www.w3.org/1999/xlink">
    <!-- Generator: Sketch 47.1 (45422) - http://www.bohemiancoding.com/sketch -->
    <title>Icon-Progress-White-Grey</title>
    <desc>Created with Sketch.</desc>
    <defs>
        <path d="M8,16 C3.581722,16 0,12.418278 0,8 C0,3.581722 3.581722,0 8,0 C12.418278,0 16,3.581722 16,8 C16,12.418278 12.418278,16 8,16 Z M8,14 C11.3137085,14 14,11.3137085 14,8 C14,4.6862915 11.3137085,2 8,2 C4.6862915,2 2,4.6862915 2,8 C2,11.3137085 4.6862915,14 8,14 Z" id="path-1"></path>
    </defs>
    <g id="Symbols" stroke="none" stroke-width="1" fill="none" fill-rule="evenodd">
        <g id="Forms/Button/Blue-Icon" transform="translate(-168.000000, -8.000000)">
            <g id="Icon/Progress/White" transform="translate(168.000000, 8.000000)">
                <mask id="mask-2" fill="white">
                    <use xlink:href="#path-1"></use>
                </mask>
                <g id="Mask"></g>
                <circle id="Oval-2-Copy" fill="#FFFFFF" fill-rule="evenodd" mask="url(#mask-2)" cx="8" cy="8" r="8"></circle>
                <path d="M17,8 C17,3.02943725 12.9705627,-1 8,-1 L8,8 L17,8 Z" id="Combined-Shape" fill="#7190CD" fill-rule="evenodd" mask="url(#mask-2)"></path>
            </g>
        </g>
    </g>
</svg>