<?xml version="1.0" encoding="UTF-8"?>
<svg width="90px" height="91px" viewBox="0 0 90 91" version="1.1" xmlns="http://www.w3.org/2000/svg" xmlns:xlink="http://www.w3.org/1999/xlink">
    <!-- Generator: Sketch 47.1 (45422) - http://www.bohemiancoding.com/sketch -->
    <title>splash-1</title>
    <desc>Created with Sketch.</desc>
    <defs>
        <path d="M12.7888594,4.35451675e-12 C7.06607659,2.47332723 2.47332723,7.06607659 3.90754096e-12,12.7888594 L4.35385061e-12,32.2111406 L0,32.2111406 C3.7602074,40.9115059 12.4190817,47 22.5,47 C36.0309764,47 47,36.0309764 47,22.5 C47,12.4190817 40.9115059,3.7602074 32.2111406,0 L12.7888594,4.35451675e-12 L96,0 L96,96 L0,96 L0,0 L12.7888594,0 Z" id="path-1"></path>
    </defs>
    <g id="Coriolis" stroke="none" stroke-width="1" fill="none" fill-rule="evenodd">
        <g id="Replica/Details/Schedule-Empty" transform="translate(-736.000000, -320.000000)">
            <g id="Splash" transform="translate(565.000000, 320.000000)">
                <g id="Icon/Schedule/96" transform="translate(171.000000, 0.000000)">
                    <g id="Group" stroke-width="1" fill-rule="evenodd">
                        <mask id="mask-2" fill="white">
                            <use xlink:href="#path-1"></use>
                        </mask>
                        <g id="Combined-Shape"></g>
                        <rect id="Rectangle" stroke="#0044CA" stroke-width="1.5" stroke-linecap="round" mask="url(#mask-2)" x="7.13953488" y="8.16091954" width="81.8604651" height="81.8390805" rx="8.18604651"></rect>
                        <path d="M88.4883721,25.0402299 L6.62151188,25.0402299" id="Line-2" stroke="#0044CA" stroke-width="1.5" stroke-linecap="round" mask="url(#mask-2)"></path>
                    </g>
                    <path d="M47.5581395,34.7586207 C48.4035243,34.7586207 49.0930233,35.4479395 49.0930233,36.2931034 C49.0930233,37.1382674 48.4035243,37.8275862 47.5581395,37.8275862 C46.7127547,37.8275862 46.0232558,37.1382674 46.0232558,36.2931034 C46.0232558,35.4479395 46.7127547,34.7586207 47.5581395,34.7586207 Z M54.7209302,34.7586207 C55.566315,34.7586207 56.255814,35.4479395 56.255814,36.2931034 C56.255814,37.1382674 55.566315,37.8275862 54.7209302,37.8275862 C53.8755454,37.8275862 53.1860465,37.1382674 53.1860465,36.2931034 C53.1860465,35.4479395 53.8755454,34.7586207 54.7209302,34.7586207 Z M60.8604651,34.7586207 C61.7058499,34.7586207 62.3953488,35.4479395 62.3953488,36.2931034 C62.3953488,37.1382674 61.7058499,37.8275862 60.8604651,37.8275862 C60.0150803,37.8275862 59.3255814,37.1382674 59.3255814,36.2931034 C59.3255814,35.4479395 60.0150803,34.7586207 60.8604651,34.7586207 Z M68.0232558,34.7586207 C68.8686406,34.7586207 69.5581395,35.4479395 69.5581395,36.2931034 C69.5581395,37.1382674 68.8686406,37.8275862 68.0232558,37.8275862 C67.177871,37.8275862 66.4883721,37.1382674 66.4883721,36.2931034 C66.4883721,35.4479395 67.177871,34.7586207 68.0232558,34.7586207 Z M75.1860465,34.7586207 C76.0314313,34.7586207 76.7209302,35.4479395 76.7209302,36.2931034 C76.7209302,37.1382674 76.0314313,37.8275862 75.1860465,37.8275862 C74.3406617,37.8275862 73.6511628,37.1382674 73.6511628,36.2931034 C73.6511628,35.4479395 74.3406617,34.7586207 75.1860465,34.7586207 Z M47.5581395,41.9195402 C48.4035243,41.9195402 49.0930233,42.608859 49.0930233,43.454023 C49.0930233,44.2991869 48.4035243,44.9885057 47.5581395,44.9885057 C46.7127547,44.9885057 46.0232558,44.2991869 46.0232558,43.454023 C46.0232558,42.608859 46.7127547,41.9195402 47.5581395,41.9195402 Z M60.8604651,41.9195402 C61.7058499,41.9195402 62.3953488,42.608859 62.3953488,43.454023 C62.3953488,44.2991869 61.7058499,44.9885057 60.8604651,44.9885057 C60.0150803,44.9885057 59.3255814,44.2991869 59.3255814,43.454023 C59.3255814,42.608859 60.0150803,41.9195402 60.8604651,41.9195402 Z M75.1860465,41.9195402 C76.0314313,41.9195402 76.7209302,42.608859 76.7209302,43.454023 C76.7209302,44.2991869 76.0314313,44.9885057 75.1860465,44.9885057 C74.3406617,44.9885057 73.6511628,44.2991869 73.6511628,43.454023 C73.6511628,42.608859 74.3406617,41.9195402 75.1860465,41.9195402 Z M19.9302326,49.0804598 C20.7756173,49.0804598 21.4651163,49.7697786 21.4651163,50.6149425 C21.4651163,51.4601065 20.7756173,52.1494253 19.9302326,52.1494253 C19.0848478,52.1494253 18.3953488,51.4601065 18.3953488,50.6149425 C18.3953488,49.7697786 19.0848478,49.0804598 19.9302326,49.0804598 Z M27.0930233,49.0804598 C27.938408,49.0804598 28.627907,49.7697786 28.627907,50.6149425 C28.627907,51.4601065 27.938408,52.1494253 27.0930233,52.1494253 C26.2476385,52.1494253 25.5581395,51.4601065 25.5581395,50.6149425 C25.5581395,49.7697786 26.2476385,49.0804598 27.0930233,49.0804598 Z M33.2325581,49.0804598 C34.0779429,49.0804598 34.7674419,49.7697786 34.7674419,50.6149425 C34.7674419,51.4601065 34.0779429,52.1494253 33.2325581,52.1494253 C32.3871733,52.1494253 31.6976744,51.4601065 31.6976744,50.6149425 C31.6976744,49.7697786 32.3871733,49.0804598 33.2325581,49.0804598 Z M40.3953488,49.0804598 C41.2407336,49.0804598 41.9302326,49.7697786 41.9302326,50.6149425 C41.9302326,51.4601065 41.2407336,52.1494253 40.3953488,52.1494253 C39.549964,52.1494253 38.8604651,51.4601065 38.8604651,50.6149425 C38.8604651,49.7697786 39.549964,49.0804598 40.3953488,49.0804598 Z M47.5581395,49.0804598 C48.4035243,49.0804598 49.0930233,49.7697786 49.0930233,50.6149425 C49.0930233,51.4601065 48.4035243,52.1494253 47.5581395,52.1494253 C46.7127547,52.1494253 46.0232558,51.4601065 46.0232558,50.6149425 C46.0232558,49.7697786 46.7127547,49.0804598 47.5581395,49.0804598 Z M54.7209302,49.0804598 C55.566315,49.0804598 56.255814,49.7697786 56.255814,50.6149425 C56.255814,51.4601065 55.566315,52.1494253 54.7209302,52.1494253 C53.8755454,52.1494253 53.1860465,51.4601065 53.1860465,50.6149425 C53.1860465,49.7697786 53.8755454,49.0804598 54.7209302,49.0804598 Z M60.8604651,49.0804598 C61.7058499,49.0804598 62.3953488,49.7697786 62.3953488,50.6149425 C62.3953488,51.4601065 61.7058499,52.1494253 60.8604651,52.1494253 C60.0150803,52.1494253 59.3255814,51.4601065 59.3255814,50.6149425 C59.3255814,49.7697786 60.0150803,49.0804598 60.8604651,49.0804598 Z M68.0232558,49.0804598 C68.8686406,49.0804598 69.5581395,49.7697786 69.5581395,50.6149425 C69.5581395,51.4601065 68.8686406,52.1494253 68.0232558,52.1494253 C67.177871,52.1494253 66.4883721,51.4601065 66.4883721,50.6149425 C66.4883721,49.7697786 67.177871,49.0804598 68.0232558,49.0804598 Z M75.1860465,49.0804598 C76.0314313,49.0804598 76.7209302,49.7697786 76.7209302,50.6149425 C76.7209302,51.4601065 76.0314313,52.1494253 75.1860465,52.1494253 C74.3406617,52.1494253 73.6511628,51.4601065 73.6511628,50.6149425 C73.6511628,49.7697786 74.3406617,49.0804598 75.1860465,49.0804598 Z M19.9302326,55.2183908 C20.7756173,55.2183908 21.4651163,55.9077096 21.4651163,56.7528736 C21.4651163,57.5980375 20.7756173,58.2873563 19.9302326,58.2873563 C19.0848478,58.2873563 18.3953488,57.5980375 18.3953488,56.7528736 C18.3953488,55.9077096 19.0848478,55.2183908 19.9302326,55.2183908 Z M33.2325581,55.2183908 C34.0779429,55.2183908 34.7674419,55.9077096 34.7674419,56.7528736 C34.7674419,57.5980375 34.0779429,58.2873563 33.2325581,58.2873563 C32.3871733,58.2873563 31.6976744,57.5980375 31.6976744,56.7528736 C31.6976744,55.9077096 32.3871733,55.2183908 33.2325581,55.2183908 Z M47.5581395,55.2183908 C48.4035243,55.2183908 49.0930233,55.9077096 49.0930233,56.7528736 C49.0930233,57.5980375 48.4035243,58.2873563 47.5581395,58.2873563 C46.7127547,58.2873563 46.0232558,57.5980375 46.0232558,56.7528736 C46.0232558,55.9077096 46.7127547,55.2183908 47.5581395,55.2183908 Z M60.8604651,55.2183908 C61.7058499,55.2183908 62.3953488,55.9077096 62.3953488,56.7528736 C62.3953488,57.5980375 61.7058499,58.2873563 60.8604651,58.2873563 C60.0150803,58.2873563 59.3255814,57.5980375 59.3255814,56.7528736 C59.3255814,55.9077096 60.0150803,55.2183908 60.8604651,55.2183908 Z M75.1860465,55.2183908 C76.0314313,55.2183908 76.7209302,55.9077096 76.7209302,56.7528736 C76.7209302,57.5980375 76.0314313,58.2873563 75.1860465,58.2873563 C74.3406617,58.2873563 73.6511628,57.5980375 73.6511628,56.7528736 C73.6511628,55.9077096 74.3406617,55.2183908 75.1860465,55.2183908 Z M19.9302326,62.3793103 C20.7756173,62.3793103 21.4651163,63.0686292 21.4651163,63.9137931 C21.4651163,64.7589571 20.7756173,65.4482759 19.9302326,65.4482759 C19.0848478,65.4482759 18.3953488,64.7589571 18.3953488,63.9137931 C18.3953488,63.0686292 19.0848478,62.3793103 19.9302326,62.3793103 Z M27.0930233,62.3793103 C27.938408,62.3793103 28.627907,63.0686292 28.627907,63.9137931 C28.627907,64.7589571 27.938408,65.4482759 27.0930233,65.4482759 C26.2476385,65.4482759 25.5581395,64.7589571 25.5581395,63.9137931 C25.5581395,63.0686292 26.2476385,62.3793103 27.0930233,62.3793103 Z M33.2325581,62.3793103 C34.0779429,62.3793103 34.7674419,63.0686292 34.7674419,63.9137931 C34.7674419,64.7589571 34.0779429,65.4482759 33.2325581,65.4482759 C32.3871733,65.4482759 31.6976744,64.7589571 31.6976744,63.9137931 C31.6976744,63.0686292 32.3871733,62.3793103 33.2325581,62.3793103 Z M40.3953488,62.3793103 C41.2407336,62.3793103 41.9302326,63.0686292 41.9302326,63.9137931 C41.9302326,64.7589571 41.2407336,65.4482759 40.3953488,65.4482759 C39.549964,65.4482759 38.8604651,64.7589571 38.8604651,63.9137931 C38.8604651,63.0686292 39.549964,62.3793103 40.3953488,62.3793103 Z M47.5581395,62.3793103 C48.4035243,62.3793103 49.0930233,63.0686292 49.0930233,63.9137931 C49.0930233,64.7589571 48.4035243,65.4482759 47.5581395,65.4482759 C46.7127547,65.4482759 46.0232558,64.7589571 46.0232558,63.9137931 C46.0232558,63.0686292 46.7127547,62.3793103 47.5581395,62.3793103 Z M54.7209302,62.3793103 C55.566315,62.3793103 56.255814,63.0686292 56.255814,63.9137931 C56.255814,64.7589571 55.566315,65.4482759 54.7209302,65.4482759 C53.8755454,65.4482759 53.1860465,64.7589571 53.1860465,63.9137931 C53.1860465,63.0686292 53.8755454,62.3793103 54.7209302,62.3793103 Z M60.8604651,62.3793103 C61.7058499,62.3793103 62.3953488,63.0686292 62.3953488,63.9137931 C62.3953488,64.7589571 61.7058499,65.4482759 60.8604651,65.4482759 C60.0150803,65.4482759 59.3255814,64.7589571 59.3255814,63.9137931 C59.3255814,63.0686292 60.0150803,62.3793103 60.8604651,62.3793103 Z M68.0232558,62.3793103 C68.8686406,62.3793103 69.5581395,63.0686292 69.5581395,63.9137931 C69.5581395,64.7589571 68.8686406,65.4482759 68.0232558,65.4482759 C67.177871,65.4482759 66.4883721,64.7589571 66.4883721,63.9137931 C66.4883721,63.0686292 67.177871,62.3793103 68.0232558,62.3793103 Z M75.1860465,62.3793103 C76.0314313,62.3793103 76.7209302,63.0686292 76.7209302,63.9137931 C76.7209302,64.7589571 76.0314313,65.4482759 75.1860465,65.4482759 C74.3406617,65.4482759 73.6511628,64.7589571 73.6511628,63.9137931 C73.6511628,63.0686292 74.3406617,62.3793103 75.1860465,62.3793103 Z M19.9302326,69.5402299 C20.7756173,69.5402299 21.4651163,70.2295487 21.4651163,71.0747126 C21.4651163,71.9198766 20.7756173,72.6091954 19.9302326,72.6091954 C19.0848478,72.6091954 18.3953488,71.9198766 18.3953488,71.0747126 C18.3953488,70.2295487 19.0848478,69.5402299 19.9302326,69.5402299 Z M33.2325581,69.5402299 C34.0779429,69.5402299 34.7674419,70.2295487 34.7674419,71.0747126 C34.7674419,71.9198766 34.0779429,72.6091954 33.2325581,72.6091954 C32.3871733,72.6091954 31.6976744,71.9198766 31.6976744,71.0747126 C31.6976744,70.2295487 32.3871733,69.5402299 33.2325581,69.5402299 Z M47.5581395,69.5402299 C48.4035243,69.5402299 49.0930233,70.2295487 49.0930233,71.0747126 C49.0930233,71.9198766 48.4035243,72.6091954 47.5581395,72.6091954 C46.7127547,72.6091954 46.0232558,71.9198766 46.0232558,71.0747126 C46.0232558,70.2295487 46.7127547,69.5402299 47.5581395,69.5402299 Z M60.8604651,69.5402299 C61.7058499,69.5402299 62.3953488,70.2295487 62.3953488,71.0747126 C62.3953488,71.9198766 61.7058499,72.6091954 60.8604651,72.6091954 C60.0150803,72.6091954 59.3255814,71.9198766 59.3255814,71.0747126 C59.3255814,70.2295487 60.0150803,69.5402299 60.8604651,69.5402299 Z M75.1860465,69.5402299 C76.0314313,69.5402299 76.7209302,70.2295487 76.7209302,71.0747126 C76.7209302,71.9198766 76.0314313,72.6091954 75.1860465,72.6091954 C74.3406617,72.6091954 73.6511628,71.9198766 73.6511628,71.0747126 C73.6511628,70.2295487 74.3406617,69.5402299 75.1860465,69.5402299 Z M19.9302326,76.7011494 C20.7756173,76.7011494 21.4651163,77.3904682 21.4651163,78.2356322 C21.4651163,79.0807961 20.7756173,79.7701149 19.9302326,79.7701149 C19.0848478,79.7701149 18.3953488,79.0807961 18.3953488,78.2356322 C18.3953488,77.3904682 19.0848478,76.7011494 19.9302326,76.7011494 Z M27.0930233,76.7011494 C27.938408,76.7011494 28.627907,77.3904682 28.627907,78.2356322 C28.627907,79.0807961 27.938408,79.7701149 27.0930233,79.7701149 C26.2476385,79.7701149 25.5581395,79.0807961 25.5581395,78.2356322 C25.5581395,77.3904682 26.2476385,76.7011494 27.0930233,76.7011494 Z M33.2325581,76.7011494 C34.0779429,76.7011494 34.7674419,77.3904682 34.7674419,78.2356322 C34.7674419,79.0807961 34.0779429,79.7701149 33.2325581,79.7701149 C32.3871733,79.7701149 31.6976744,79.0807961 31.6976744,78.2356322 C31.6976744,77.3904682 32.3871733,76.7011494 33.2325581,76.7011494 Z M40.3953488,76.7011494 C41.2407336,76.7011494 41.9302326,77.3904682 41.9302326,78.2356322 C41.9302326,79.0807961 41.2407336,79.7701149 40.3953488,79.7701149 C39.549964,79.7701149 38.8604651,79.0807961 38.8604651,78.2356322 C38.8604651,77.3904682 39.549964,76.7011494 40.3953488,76.7011494 Z M47.5581395,76.7011494 C48.4035243,76.7011494 49.0930233,77.3904682 49.0930233,78.2356322 C49.0930233,79.0807961 48.4035243,79.7701149 47.5581395,79.7701149 C46.7127547,79.7701149 46.0232558,79.0807961 46.0232558,78.2356322 C46.0232558,77.3904682 46.7127547,76.7011494 47.5581395,76.7011494 Z M54.7209302,76.7011494 C55.566315,76.7011494 56.255814,77.3904682 56.255814,78.2356322 C56.255814,79.0807961 55.566315,79.7701149 54.7209302,79.7701149 C53.8755454,79.7701149 53.1860465,79.0807961 53.1860465,78.2356322 C53.1860465,77.3904682 53.8755454,76.7011494 54.7209302,76.7011494 Z M60.8604651,76.7011494 C61.7058499,76.7011494 62.3953488,77.3904682 62.3953488,78.2356322 C62.3953488,79.0807961 61.7058499,79.7701149 60.8604651,79.7701149 C60.0150803,79.7701149 59.3255814,79.0807961 59.3255814,78.2356322 C59.3255814,77.3904682 60.0150803,76.7011494 60.8604651,76.7011494 Z M68.0232558,76.7011494 C68.8686406,76.7011494 69.5581395,77.3904682 69.5581395,78.2356322 C69.5581395,79.0807961 68.8686406,79.7701149 68.0232558,79.7701149 C67.177871,79.7701149 66.4883721,79.0807961 66.4883721,78.2356322 C66.4883721,77.3904682 67.177871,76.7011494 68.0232558,76.7011494 Z M75.1860465,76.7011494 C76.0314313,76.7011494 76.7209302,77.3904682 76.7209302,78.2356322 C76.7209302,79.0807961 76.0314313,79.7701149 75.1860465,79.7701149 C74.3406617,79.7701149 73.6511628,79.0807961 73.6511628,78.2356322 C73.6511628,77.3904682 74.3406617,76.7011494 75.1860465,76.7011494 Z" id="Combined-Shape" fill="#0044CA" fill-rule="evenodd"></path>
                    <ellipse id="Oval" stroke="#0044CA" stroke-width="1.5" stroke-linecap="round" cx="22.4883721" cy="22.4827586" rx="21.4883721" ry="21.4827586"></ellipse>
                    <path d="M23,7.4550586 L23,22.9942529" id="Line" stroke="#0044CA" stroke-width="1.53488372" stroke-linecap="round"></path>
                    <path d="M29.1395349,30.1551724 L23,22.9942529" id="Line-Copy" stroke="#0044CA" stroke-width="1.53488372" stroke-linecap="round"></path>
                </g>
            </g>
        </g>
    </g>
</svg>