<?xml version="1.0" encoding="UTF-8" standalone="no"?>
<svg    xmlns:osb="http://www.openswatchbook.org/uri/2009/osb"
   xmlns:dc="http://purl.org/dc/elements/1.1/"
   xmlns:cc="http://creativecommons.org/ns#"
   xmlns:rdf="http://www.w3.org/1999/02/22-rdf-syntax-ns#"
   xmlns:svg="http://www.w3.org/2000/svg"
   xmlns="http://www.w3.org/2000/svg"
   id="svg8"
   version="1.1"
   viewBox="0 0 25.399999 25.400001"
   height="96"
   width="96">
  <defs
     id="defs2">
    <path
       d="M 24,48 C 37.254834,48 48,37.254834 48,24 48,10.745166 37.254834,0 24,0 10.745166,0 0,10.745166 0,24 0,37.254834 10.745166,48 24,48 Z"
       id="path-1" />
    <linearGradient
       osb:paint="solid"
       id="linearGradient4417">
      <stop
         id="stop4415"
         offset="0"
         style="stop-color:#0044cb;stop-opacity:1;" />
    </linearGradient>
  </defs>
  <g
     id="layer1"
     >
    <g
       transform="matrix(0.05212894,0,0,0.05212894,-0.67335766,-0.4805101)"
       id="g2253">
      <path
         id="path1507"
         style="fill:none;fill-opacity:1;stroke:#0000ef;stroke-width:5.07556;stroke-miterlimit:4;stroke-dasharray:20.3022, 20.3022;stroke-dashoffset:41.112;stroke-opacity:1"
         d="M 482.834,445.69221 H 29.166 c -6.915,0 -12.522,-5.606 -12.522,-12.522 v -124.253 c 0,-6.915 5.606,-12.522 12.522,-12.522 h 453.668 c 6.915,0 12.522,5.606 12.522,12.522 v 124.253 c -10e-4,6.916 -5.607,12.522 -12.522,12.522 z"
         fill="#7a8c98" />
      <path
         fill="#9facba"
         d="M 315.11203,408.88257 H 71.982511 c -14.080571,0 -25.495788,-16.82319 -25.495788,-37.57444 0,-20.75125 11.415217,-37.57443 25.495788,-37.57443 H 315.11203 c 14.08056,0 25.49579,16.82318 25.49579,37.57443 -9.9e-4,20.75125 -11.41523,37.57444 -25.49579,37.57444 z"
         style="fill:#ffffff;fill-opacity:1;stroke:#0000ef;stroke-width:5.07556;stroke-miterlimit:4;stroke-dasharray:20.3022, 20.3022;stroke-dashoffset:0;stroke-opacity:1"
         id="path1515-2" />
      <path
         fill="#60b7ff"
         d="m 395.59578,406.83024 c -9.544,0 -17.28,-7.737 -17.28,-17.28 v -40.56901 c 0,-9.544 7.737,-17.28 17.28,-17.28 9.544,0 17.28,7.737 17.28,17.28 v 40.56901 c 10e-4,9.543 -7.736,17.28 -17.28,17.28 z"
         style="fill:#ffffff;fill-opacity:1;stroke:#0000ef;stroke-width:5.07556;stroke-miterlimit:4;stroke-dasharray:15.2267, 15.2267;stroke-dashoffset:0;stroke-opacity:1"
         id="path1517-7" />
      <path
         fill="#fe646f"
         d="m 449.91183,329.11647 c -0.359,0 -0.709,0.032 -1.062,0.054 -9.046,0.552 -16.218,8.042 -16.218,17.22699 v 40.56901 c 0,9.18501 7.172,16.67501 16.218,17.22701 0.353,0.021 0.704,0.054 1.062,0.054 9.544,0 17.28,-7.737 17.28,-17.28001 v -40.56898 c 0,-9.54499 -7.737,-17.282 -17.28,-17.28199 z"
         style="fill:#ffffff;fill-opacity:1;stroke:#0000ef;stroke-width:5.07556;stroke-miterlimit:4;stroke-dasharray:15.2267, 15.2267;stroke-dashoffset:0;stroke-opacity:1"
         id="path1537-1" />
      <path
         fill="#7a8c98"
         d="M 483.92165,209.29316 H 30.253641 c -6.915,0 -12.522,-5.606 -12.522,-12.522 V 72.518156 c 0,-6.915 5.606,-12.522 12.522,-12.522 H 483.92165 c 6.915,0 12.522,5.606 12.522,12.522 V 196.77116 c -10e-4,6.916 -5.607,12.522 -12.522,12.522 z"
         style="fill:none;fill-opacity:1;stroke:#0000ef;stroke-width:5.07556;stroke-miterlimit:4;stroke-dasharray:20.3022, 20.3022;stroke-dashoffset:41.112;stroke-opacity:1"
         id="path1507-9" />
      <path
         id="path1515-2-5"
         style="fill:#ffffff;fill-opacity:1;stroke:#0000ef;stroke-width:5.07556;stroke-miterlimit:4;stroke-dasharray:20.3022, 20.3022;stroke-dashoffset:0;stroke-opacity:1"
         d="M 316.19968,172.48352 H 73.070151 c -14.08057,0 -25.49579,-16.82319 -25.49579,-37.57444 0,-20.75125 11.41522,-37.574434 25.49579,-37.574434 H 316.19968 c 14.08056,0 25.49578,16.823184 25.49578,37.574434 -9.8e-4,20.75125 -11.41522,37.57444 -25.49578,37.57444 z"
         fill="#9facba" />
      <path
         id="path1517-7-8"
         style="fill:#ffffff;fill-opacity:1;stroke:#0000ef;stroke-width:5.07556;stroke-miterlimit:4;stroke-dasharray:15.2267, 15.2267;stroke-dashoffset:0;stroke-opacity:1"
         d="m 396.68343,170.43119 c -9.544,0 -17.28,-7.737 -17.28,-17.28001 v -40.569 c 0,-9.544 7.737,-17.280004 17.28,-17.280004 9.544,0 17.28,7.737004 17.28,17.280004 v 40.569 c 10e-4,9.54301 -7.736,17.28001 -17.28,17.28001 z"
         fill="#60b7ff" />
      <path
         id="path1537-1-3"
         style="fill:#ffffff;fill-opacity:1;stroke:#0000ef;stroke-width:5.07556;stroke-miterlimit:4;stroke-dasharray:15.2267, 15.2267;stroke-dashoffset:0;stroke-opacity:1"
         d="m 450.99948,92.717416 c -0.359,0 -0.709,0.032 -1.062,0.054 -9.046,0.552 -16.218,8.042004 -16.218,17.226994 v 40.56901 c 0,9.18501 7.172,16.67501 16.218,17.22701 0.353,0.0208 0.704,0.054 1.062,0.054 9.544,0 17.28,-7.737 17.28,-17.28001 v -40.56898 c 0,-9.54499 -7.737,-17.282004 -17.28,-17.281994 z"
         fill="#fe646f" />
    </g>
  </g>
</svg>
