<?xml version="1.0" encoding="UTF-8"?>
<svg width="48px" height="48px" viewBox="0 0 48 48" version="1.1" xmlns="http://www.w3.org/2000/svg" xmlns:xlink="http://www.w3.org/1999/xlink">
    <!-- Generator: Sketch 47.1 (45422) - http://www.bohemiancoding.com/sketch -->
    <title>Icon/Endpoint/48</title>
    <desc>Created with Sketch.</desc>
    <defs></defs>
    <g id="Symbols" stroke="none" stroke-width="1" fill="none" fill-rule="evenodd" stroke-linecap="round">
        <g id="Icon/Endpoint/48" stroke="#0044CA" stroke-width="1.5">
            <path d="M19.4,8 C13.45772,8 8.69948,12.9550014 8.44648,19.1511772 C4.14272,20.3884731 1,24.48144 1,29.3336566 C1,35.1952971 5.5586,40 11.12,40 L38.72,40 C43.2694,40 47,36.0679979 47,31.2729917 C47,27.4912881 44.608,24.2836278 41.39352,23.151056 C41.19848,17.465895 36.79904,12.8483379 31.36,12.8483379 C30.40412,12.8483379 29.51448,13.0965728 28.62852,13.3642011 C26.65144,10.1933881 23.27964,8 19.4,8 L19.4,8 Z" id="Path" transform="translate(24.000000, 24.000000) scale(-1, 1) translate(-24.000000, -24.000000) "></path>
            <path d="M20.6744186,28.1551724 L28.7653525,28.1551724" id="Stroke-7"></path>
            <path d="M22.6415107,30.8328592 C21.9106272,32.024658 20.6699321,32.8084291 19.2627244,32.8084291 L16.0965073,32.8084291 C13.8485888,32.8084291 12.0261628,30.8079652 12.0261628,28.3395725 L12.0261628,27.9673299 C12.0261628,25.4989371 13.8485888,23.4980843 16.0965073,23.4980843 L19.2627244,23.4980843 C20.6688692,23.4980843 21.9081472,24.2802995 22.639385,25.4705425" id="Stroke-9"></path>
            <path d="M38.6269758,30.8328592 C37.8960923,32.024658 36.6553972,32.8084291 35.2481896,32.8084291 L32.0819724,32.8084291 C29.8340539,32.8084291 28.0116279,30.8079652 28.0116279,28.3395725 L28.0116279,27.9673299 C28.0116279,25.4989371 29.8340539,23.4980843 32.0819724,23.4980843 L35.2481896,23.4980843 C36.6543343,23.4980843 37.8936123,24.2802995 38.6248501,25.4705425" id="Stroke-9-Copy" transform="translate(33.319302, 28.153257) scale(-1, 1) translate(-33.319302, -28.153257) "></path>
        </g>
    </g>
</svg>