<?xml version="1.0" encoding="UTF-8" standalone="no"?>
<svg
   xmlns:osb="http://www.openswatchbook.org/uri/2009/osb"
   xmlns:dc="http://purl.org/dc/elements/1.1/"
   xmlns:cc="http://creativecommons.org/ns#"
   xmlns:rdf="http://www.w3.org/1999/02/22-rdf-syntax-ns#"
   xmlns:svg="http://www.w3.org/2000/svg"
   xmlns="http://www.w3.org/2000/svg"
   xmlns:sodipodi="http://sodipodi.sourceforge.net/DTD/sodipodi-0.dtd"
   xmlns:inkscape="http://www.inkscape.org/namespaces/inkscape"
   sodipodi:docname="minionPool.svg"
   inkscape:version="1.0 (4035a4fb49, 2020-05-01)"
   id="svg858"
   version="1.1"
   viewBox="0 0 12.170833 12.170834"
   height="46"
   width="46">
  <defs
     id="defs852">
    <linearGradient
       osb:paint="solid"
       id="linearGradient1457">
      <stop
         id="stop1455"
         offset="0"
         style="stop-color:#0044ca;stop-opacity:1;" />
    </linearGradient>
  </defs>
  <sodipodi:namedview
     inkscape:window-maximized="0"
     inkscape:window-y="0"
     inkscape:window-x="403"
     inkscape:window-height="1040"
     inkscape:window-width="1274"
     units="px"
     showgrid="false"
     inkscape:document-rotation="0"
     inkscape:current-layer="layer1"
     inkscape:document-units="mm"
     inkscape:cy="6.7745742"
     inkscape:cx="9.8898401"
     inkscape:zoom="5.6"
     inkscape:pageshadow="2"
     inkscape:pageopacity="0.0"
     borderopacity="1.0"
     bordercolor="#666666"
     pagecolor="#ffffff"
     id="base" />
  <metadata
     id="metadata855">
    <rdf:RDF>
      <cc:Work
         rdf:about="">
        <dc:format>image/svg+xml</dc:format>
        <dc:type
           rdf:resource="http://purl.org/dc/dcmitype/StillImage" />
        <dc:title></dc:title>
      </cc:Work>
    </rdf:RDF>
  </metadata>
  <g
     id="layer1"
     inkscape:groupmode="layer"
     inkscape:label="Layer 1">
    <path
       d="M 7.5316674,2.8742546 V 1.4229441 H 4.628978 V 2.8742627 Z M 1.0921959,4.3702397 v 5.8499833 c 0,0.324205 0.2652822,0.589487 0.5894863,0.589487 h 8.7972798 c 0.324206,0 0.589485,-0.265282 0.589485,-0.589487 V 4.3702397 c 0,-0.324205 -0.265279,-0.5894871 -0.589485,-0.5894871 H 1.6816822 c -0.3242041,0 -0.5894863,0.2652821 -0.5894863,0.5894871 z m 9.7038161,-1.495977 c 0.654305,0 1.178927,0.5246217 1.178927,1.1789256 V 10.53728 c 0,0.654302 -0.524622,1.178926 -1.178927,1.178926 H 1.3646085 c -0.65430385,0 -1.17892609,-0.524624 -1.17892609,-1.178926 l 0.005892,-6.4840917 c 0,-0.6543039 0.5187271,-1.1789256 1.17303099,-1.1789256 h 2.357851 V 1.695337 c 0,-0.6543033 0.5246217,-1.17892568 1.1789258,-1.17892568 h 2.357851 c 0.6543032,0 1.1789251,0.52462238 1.1789251,1.17892568 v 1.1789257 z"
       style="fill:none;fill-opacity:1;stroke:#0044ca;stroke-width:0.371364;stroke-miterlimit:4;stroke-dasharray:none;stroke-opacity:1"
       id="path10" />
  </g>
</svg>
