<?xml version="1.0" encoding="UTF-8"?>
<svg width="48px" height="48px" viewBox="0 0 48 48" version="1.1" xmlns="http://www.w3.org/2000/svg" xmlns:xlink="http://www.w3.org/1999/xlink">
    <!-- Generator: Sketch 49.3 (51167) - http://www.bohemiancoding.com/sketch -->

    <desc>Created with Sketch.</desc>
    <defs>
        <path d="M24,48 C37.254834,48 48,37.254834 48,24 C48,10.745166 37.254834,0 24,0 C10.745166,0 0,10.745166 0,24 C0,37.254834 10.745166,48 24,48 Z" id="path-1"></path>
    </defs>
    <g id="Coriolis" stroke="none" stroke-width="1" fill="none" fill-rule="evenodd">
        <g id="Replica/List/Loading" transform="translate(-1056.000000, -344.000000)">
            <g id="Nav/Project-New-Bell-User" transform="translate(848.000000, 48.000000)">
                <g id="Nav/NewButton/MenuNewButton" transform="translate(192.000000, 32.000000)">
                    <g id="Notification-Menu-Item-Copy-3" transform="translate(0.000000, 248.000000)">
                        <g id="Icon/User/48" transform="translate(16.000000, 16.000000)">
                            <mask id="mask-2" fill="white">
                                <use xlink:href="#path-1"></use>
                            </mask>
                            <path stroke="#0044CA" stroke-width="1.5" d="M24,47.25 C36.8406204,47.25 47.25,36.8406204 47.25,24 C47.25,11.1593796 36.8406204,0.75 24,0.75 C11.1593796,0.75 0.75,11.1593796 0.75,24 C0.75,36.8406204 11.1593796,47.25 24,47.25 Z"></path>
                            <path d="M33.7740409,38.0628286 C30.5982144,36.7839655 29.6,36.2542491 29.6,35.1744186 L29.6,30.5066817 L29.9026116,30.2817711 C32.151222,28.610532 33.5,25.9724927 33.5,23.255814 L33.5,17.5348837 C33.5,12.7087025 29.4519853,8.75 24.5,8.75 C19.5480147,8.75 15.5,12.7087025 15.5,17.5348837 L15.5,23.255814 C15.5,26.0049523 16.8733664,28.7155027 19.0817885,30.2704847 L19.4,30.494542 L19.4,35.1744186 C19.4,36.0349478 18.7082643,36.4600118 16.538098,37.4641039 C16.3986307,37.5286326 16.252693,37.5955062 16.0715009,37.6780524 C15.8644645,37.7722622 15.8644645,37.7722622 15.6596988,37.8653721 C15.4985721,37.9386988 15.3757777,37.9948053 15.2268269,38.0624768 C8.59973358,40.7496703 5.75,43.1090972 5.75,48.0465116 L5.75,48.25 L43.25,48.25 L43.25,48.0465116 C43.25,43.1090352 40.3999124,40.7489696 33.7740409,38.0628286 Z" id="Fill-1" stroke="#0044CA" stroke-width="1.5" mask="url(#mask-2)"></path>
                        </g>
                    </g>
                </g>
            </g>
        </g>
    </g>
</svg>
