<?xml version="1.0" encoding="UTF-8"?>
<svg width="96px" height="96px" viewBox="5 3 38 38" version="1.1" xmlns="http://www.w3.org/2000/svg" xmlns:xlink="http://www.w3.org/1999/xlink">
    <g id="Symbols" stroke="none" stroke-width="0.7" fill="none" fill-rule="evenodd">
        <g id="Icon/Endpoint/EndpointListItem">
            <path d="M20.4,9 C15.74952,9 12.02568,12.8710948 11.82768,17.7118572 C8.45952,18.6784946 6,21.876125 6,25.6669192 C6,30.2463259 9.5676,34 13.92,34 L35.52,34 C39.0804,34 42,30.9281234 42,27.1820248 C42,24.2275689 40.128,21.7215842 37.61232,20.8367625 C37.45968,16.3952304 34.01664,12.787764 29.76,12.787764 C29.01192,12.787764 28.31568,12.9816975 27.62232,13.1907821 C26.07504,10.7135844 23.43624,9 20.4,9 L20.4,9 Z" id="Path-Copy" stroke="#0044CA" stroke-linecap="round" transform="translate(24.000000, 21.500000) scale(-1, 1) translate(-24.000000, -21.500000) "></path>
            <path d="M21,25 L27,25" id="Stroke-7-Copy" stroke="#0044CA"  stroke-linecap="round"></path>
            <path d="M34,27.0146641 C33.4491873,27.9107203 32.5141675,28.5 31.4536595,28.5 L29.0675166,28.5 C27.3734272,28.5 26,26.9959475 26,25.1400819 L26,24.8602106 C26,23.0043449 27.3734272,21.5 29.0675166,21.5 L31.4536595,21.5 C32.5133665,21.5 33.4473184,22.08811 33.998398,22.9829963" id="Stroke-9-Copy-3" stroke="#0044CA" stroke-linecap="round" transform="translate(30.000000, 25.000000) scale(-1, 1) translate(-30.000000, -25.000000) "></path>
            <path d="M22,27.0146641 C21.4491873,27.9107203 20.5141675,28.5 19.4536595,28.5 L17.0675166,28.5 C15.3734272,28.5 14,26.9959475 14,25.1400819 L14,24.8602106 C14,23.0043449 15.3734272,21.5 17.0675166,21.5 L19.4536595,21.5 C20.5133665,21.5 21.4473184,22.08811 21.998398,22.9829963" id="Stroke-9-Copy-4" stroke="#0044CA" stroke-linecap="round"></path>
        </g>
    </g>
</svg>
