<?xml version="1.0" encoding="UTF-8" standalone="no"?>
<svg xmlns:dc="http://purl.org/dc/elements/1.1/"
   xmlns:cc="http://creativecommons.org/ns#"
   xmlns:rdf="http://www.w3.org/1999/02/22-rdf-syntax-ns#"
   xmlns:svg="http://www.w3.org/2000/svg"
   xmlns="http://www.w3.org/2000/svg"
   xmlns:xlink="http://www.w3.org/1999/xlink"
   xmlns:sodipodi="http://sodipodi.sourceforge.net/DTD/sodipodi-0.dtd"
   xmlns:inkscape="http://www.inkscape.org/namespaces/inkscape"
   sodipodi:docname="minion-pool-list-item-3.svg"
   inkscape:version="1.0 (4035a4fb49, 2020-05-01)"
   id="svg8"
   version="1.1"
   viewBox="0 0 12.7 12.7"
   height="48"
   width="48">
  <defs
     id="defs2">
    <path
       d="M24,48 C37.254834,48 48,37.254834 48,24 C48,10.745166 37.254834,0 24,0 C10.745166,0 0,10.745166 0,24 C0,37.254834 10.745166,48 24,48 Z"
       id="path-1" />
  </defs>
  <sodipodi:namedview
     inkscape:window-maximized="0"
     inkscape:window-y="0"
     inkscape:window-x="220"
     inkscape:window-height="1040"
     inkscape:window-width="1274"
     inkscape:snap-global="false"
     units="px"
     showgrid="false"
     inkscape:document-rotation="0"
     inkscape:current-layer="layer1"
     inkscape:document-units="mm"
     inkscape:cy="1.1304786"
     inkscape:cx="7.5499781"
     inkscape:zoom="3.959798"
     inkscape:pageshadow="2"
     inkscape:pageopacity="0.0"
     borderopacity="1.0"
     bordercolor="#666666"
     pagecolor="#ffffff"
     id="base" />
  <metadata
     id="metadata5">
    <rdf:RDF>
      <cc:Work
         rdf:about="">
        <dc:format>image/svg+xml</dc:format>
        <dc:type
           rdf:resource="http://purl.org/dc/dcmitype/StillImage" />
        <dc:title></dc:title>
      </cc:Work>
    </rdf:RDF>
  </metadata>
  <g
     id="layer1"
     inkscape:groupmode="layer"
     inkscape:label="Layer 1">
    <use
       style="stroke:none;stroke-width:1"
       height="100%"
       width="100%"
       y="0"
       x="0"
       xlink:href="#path-1"
       fill-rule="evenodd"
       fill="#c8ccd7"
       id="Pat-Benetar"
       transform="scale(0.26458333)" />
    <path
       d="m 5.3261719,1.7226562 c -0.1052735,0 -0.1914063,0.086067 -0.1914063,0.1914063 V 2.2714844 C 3.6758668,2.7814944 2.7018583,4.1595931 2.7070312,5.7050781 V 5.9589844 L 2.3417969,6.1132812 c -0.070614,0.029811 -0.1152344,0.099283 -0.1152344,0.1757813 v 1.0019531 c 0,0.1052735 0.084114,0.1894532 0.1894531,0.1894532 h 0.2480469 v 0.3828124 c 0,0.1052736 0.086069,0.1914063 0.1914063,0.1914063 h 0.6855468 c 0.065053,0.2388712 0.1595643,0.4672131 0.2832032,0.6816406 l -0.484375,0.484375 c -0.074041,0.074366 -0.074041,0.1951033 0,0.2695313 l 0.8105468,0.8105466 c 0.074363,0.07404 0.1951022,0.07404 0.2695313,0 l 0.484375,-0.4843748 c 0.2139106,0.1236391 0.4433523,0.2199098 0.6816406,0.2851558 v 0.683594 c 0,0.105275 0.086068,0.191406 0.1914063,0.191406 H 6.921875 c 0.1053385,0 0.1894531,-0.08613 0.1894531,-0.191406 V 10.101562 C 7.3501992,10.03651 7.5804294,9.9402393 7.7949219,9.8164062 l 0.484375,0.4843748 c 0.074366,0.07404 0.1951023,0.07404 0.2695312,0 L 9.359375,9.4902344 c 0.074041,-0.074428 0.074041,-0.1951667 0,-0.2695313 L 8.875,8.7363281 C 8.9986386,8.5219006 9.0951034,8.2935587 9.1601562,8.0546875 H 9.84375 c 0.1053392,0 0.191406,-0.086133 0.191406,-0.1914063 V 7.4804688 h 0.248047 c 0.105339,0 0.191406,-0.084179 0.191406,-0.1894532 V 6.2890625 c -3.76e-4,-0.077083 -0.04795,-0.1465526 -0.11914,-0.1757813 L 9.9882812,5.9550781 V 5.703125 C 9.9934673,4.1576409 9.0174931,2.7795412 7.5585938,2.2695312 V 1.9140625 c 0,-0.1053386 -0.086133,-0.1914062 -0.1914063,-0.1914063 z m 0.1875,0.3847657 h 1.6640625 v 3.1875 H 5.5175781 Z M 5.1347656,2.6757812 v 2.8105469 c 0,0.1052743 0.086072,0.1894531 0.1914063,0.1894531 h 2.0449219 c 0.1053394,0 0.1914062,-0.084179 0.1914062,-0.1894531 V 2.6757812 C 8.802897,3.1678795 9.6147421,4.3688991 9.609375,5.703125 v 0.3808594 c 0,0.076503 0.046577,0.1460354 0.1171875,0.1757812 L 10.09375,6.4179688 V 7.0996094 H 2.6054688 V 6.4140625 L 2.9746094,6.2558594 c 0.070614,-0.02975 0.1152343,-0.099219 0.1152344,-0.1757813 V 5.6992188 C 3.0856239,4.3666747 3.8964378,3.1680729 5.1347656,2.6757812 Z M 3.0429688,7.4804688 h 1.7441406 c 0.1045624,0.8620441 0.8879558,1.4778033 1.75,1.3730468 0.718165,-0.087167 1.2840553,-0.6548818 1.3710937,-1.3730468 H 9.6542969 L 9.65625,7.671875 H 9.0195312 C 8.9279663,7.669765 8.8493479,7.7328378 8.8300781,7.8222656 8.7658041,8.1210809 8.6470448,8.4058428 8.4804688,8.6621094 8.4313867,8.7375044 8.4425524,8.8366952 8.5058594,8.9003906 L 8.9609375,9.3574219 8.4160156,9.8984375 7.9589844,9.4433594 C 7.8952907,9.3800526 7.7961025,9.3688864 7.7207031,9.4179688 7.4644382,9.5844805 7.1796755,9.7033025 6.8808594,9.7675781 6.7913647,9.7868488 6.7284001,9.8674197 6.7304688,9.9589844 V 10.601562 H 5.9667969 V 9.953125 C 5.9689069,9.8615604 5.9058984,9.7809887 5.8164062,9.7617188 5.5176552,9.6975679 5.2327632,9.5788796 4.9765625,9.4121094 4.9011586,9.3630973 4.8020405,9.3741229 4.7382812,9.4375 L 4.2832031,9.8925781 3.7421875,9.3535156 4.1992188,8.8964844 C 4.2625898,8.8327907 4.271671,8.7336008 4.2226562,8.6582031 4.0545305,8.403482 3.9356804,8.1201112 3.8691406,7.8222656 3.8498064,7.7328343 3.7692995,7.6697414 3.6777344,7.671875 H 3.0429688 Z m 2.1328124,0 H 7.5234375 C 7.4184867,8.1295721 6.8072414,8.5717477 6.1582031,8.4667969 5.6523155,8.3850124 5.2581891,7.986139 5.1757812,7.4804688 Z"
       inkscape:href="#path867"
       id="path1461"
       xlink:href="#path867"
       inkscape:original="M 5.3261719 1.7226562 C 5.2208984 1.7226562 5.1347656 1.8087232 5.1347656 1.9140625 L 5.1347656 2.2714844 C 3.6758668 2.7814944 2.7018583 4.1595931 2.7070312 5.7050781 L 2.7070312 5.9589844 L 2.3417969 6.1132812 C 2.2711829 6.1430922 2.2265625 6.2125643 2.2265625 6.2890625 L 2.2265625 7.2910156 C 2.2265625 7.3962891 2.3106762 7.4804688 2.4160156 7.4804688 L 2.6640625 7.4804688 L 2.6640625 7.8632812 C 2.6640625 7.9685548 2.7501311 8.0546875 2.8554688 8.0546875 L 3.5410156 8.0546875 C 3.6060686 8.2935587 3.7005799 8.5219006 3.8242188 8.7363281 L 3.3398438 9.2207031 C 3.2658028 9.2950691 3.2658028 9.4158064 3.3398438 9.4902344 L 4.1503906 10.300781 C 4.2247536 10.374821 4.3454928 10.374821 4.4199219 10.300781 L 4.9042969 9.8164062 C 5.1182075 9.9400453 5.3476492 10.036316 5.5859375 10.101562 L 5.5859375 10.785156 C 5.5859375 10.890431 5.6720056 10.976562 5.7773438 10.976562 L 6.921875 10.976562 C 7.0272135 10.976562 7.1113281 10.890429 7.1113281 10.785156 L 7.1113281 10.101562 C 7.3501992 10.03651 7.5804294 9.9402393 7.7949219 9.8164062 L 8.2792969 10.300781 C 8.3536629 10.374821 8.4743992 10.374821 8.5488281 10.300781 L 9.359375 9.4902344 C 9.433416 9.4158064 9.433416 9.2950677 9.359375 9.2207031 L 8.875 8.7363281 C 8.9986386 8.5219006 9.0951034 8.2935587 9.1601562 8.0546875 L 9.84375 8.0546875 C 9.9490892 8.0546875 10.035156 7.9685545 10.035156 7.8632812 L 10.035156 7.4804688 L 10.283203 7.4804688 C 10.388542 7.4804688 10.474609 7.3962896 10.474609 7.2910156 L 10.474609 6.2890625 C 10.474233 6.2119795 10.426663 6.1425099 10.355469 6.1132812 L 9.9882812 5.9550781 L 9.9882812 5.703125 C 9.9934673 4.1576409 9.0174931 2.7795412 7.5585938 2.2695312 L 7.5585938 1.9140625 C 7.5585938 1.8087239 7.4724607 1.7226563 7.3671875 1.7226562 L 5.3261719 1.7226562 z M 5.5136719 2.1074219 L 7.1777344 2.1074219 L 7.1777344 5.2949219 L 5.5175781 5.2949219 L 5.5136719 2.1074219 z M 5.1347656 2.6757812 L 5.1347656 5.4863281 C 5.1347656 5.5916024 5.2208377 5.6757812 5.3261719 5.6757812 L 7.3710938 5.6757812 C 7.4764332 5.6757812 7.5625 5.5916021 7.5625 5.4863281 L 7.5625 2.6757812 C 8.802897 3.1678795 9.6147421 4.3688991 9.609375 5.703125 L 9.609375 6.0839844 C 9.609375 6.1604874 9.6559521 6.2300198 9.7265625 6.2597656 L 10.09375 6.4179688 L 10.09375 7.0996094 L 2.6054688 7.0996094 L 2.6054688 6.4140625 L 2.9746094 6.2558594 C 3.0452234 6.2261094 3.0898437 6.1566403 3.0898438 6.0800781 L 3.0898438 5.6992188 C 3.0856239 4.3666747 3.8964378 3.1680729 5.1347656 2.6757812 z M 3.0429688 7.4804688 L 4.7871094 7.4804688 C 4.8916718 8.3425129 5.6750652 8.9582721 6.5371094 8.8535156 C 7.2552744 8.7663488 7.8211647 8.1986338 7.9082031 7.4804688 L 9.6542969 7.4804688 L 9.65625 7.671875 L 9.0195312 7.671875 C 8.9279663 7.669765 8.8493479 7.7328378 8.8300781 7.8222656 C 8.7658041 8.1210809 8.6470448 8.4058428 8.4804688 8.6621094 C 8.4313867 8.7375044 8.4425524 8.8366952 8.5058594 8.9003906 L 8.9609375 9.3574219 L 8.4160156 9.8984375 L 7.9589844 9.4433594 C 7.8952907 9.3800526 7.7961025 9.3688864 7.7207031 9.4179688 C 7.4644382 9.5844805 7.1796755 9.7033025 6.8808594 9.7675781 C 6.7913647 9.7868488 6.7284001 9.8674197 6.7304688 9.9589844 L 6.7304688 10.601562 L 5.9667969 10.601562 L 5.9667969 9.953125 C 5.9689069 9.8615604 5.9058984 9.7809887 5.8164062 9.7617188 C 5.5176552 9.6975679 5.2327632 9.5788796 4.9765625 9.4121094 C 4.9011586 9.3630973 4.8020405 9.3741229 4.7382812 9.4375 L 4.2832031 9.8925781 L 3.7421875 9.3535156 L 4.1992188 8.8964844 C 4.2625898 8.8327907 4.271671 8.7336008 4.2226562 8.6582031 C 4.0545305 8.403482 3.9356804 8.1201112 3.8691406 7.8222656 C 3.8498064 7.7328343 3.7692995 7.6697414 3.6777344 7.671875 L 3.0429688 7.671875 L 3.0429688 7.4804688 z M 5.1757812 7.4804688 L 7.5234375 7.4804688 C 7.4184867 8.1295721 6.8072414 8.5717477 6.1582031 8.4667969 C 5.6523155 8.3850124 5.2581891 7.986139 5.1757812 7.4804688 z "
       inkscape:radius="0"
       sodipodi:type="inkscape:offset"
       style="fill:#0044ca;fill-opacity:1;fill-rule:nonzero;stroke:none;stroke-width:0.0165542" />
  </g>
</svg>
