<?xml version="1.0" encoding="UTF-8"?>
<svg width="12px" height="12px" viewBox="0 0 12 12" version="1.1" xmlns="http://www.w3.org/2000/svg" xmlns:xlink="http://www.w3.org/1999/xlink">
    <!-- Generator: Sketch 47.1 (45422) - http://www.bohemiancoding.com/sketch -->

    <desc>Created with Sketch.</desc>
    <defs></defs>
    <g id="Symbols" stroke="none" stroke-width="1" fill="none" fill-rule="evenodd">
        <g id="Forms/Items/Boolean" transform="translate(-97.000000, -11.000000)">
            <g id="Icon-Info-Copy-15" transform="translate(97.000000, 11.000000)">
                <g id="Icon/Question">
                    <g id="Group">
                        <g>
                            <path d="M6.00025397,0.5 C2.96250858,0.5 0.5,2.9622206 0.5,5.99974603 C0.5,9.03738143 2.96261857,11.5 6.00025397,11.5 C9.03745343,11.5 11.5,9.03730943 11.5,5.99974603 C11.5,2.9622926 9.03756341,0.5 6.00025397,0.5 Z" id="Fill-1-Copy" stroke="#A4AAB5"></path>
                            <path d="M5.63526258,7.27871059 C5.58284652,7.27871059 5.53916714,7.26123883 5.5042231,7.2262948 C5.46927906,7.19135076 5.45180731,7.15058333 5.45180731,7.10399129 C5.45180731,6.98168716 5.45471927,6.88850447 5.46054327,6.8244404 C5.4896633,6.55071212 5.57702208,6.3090195 5.72262223,6.09935529 C5.86822238,5.88969108 6.06914757,5.65673434 6.32540383,5.40047807 C6.52342003,5.20246187 6.67047397,5.03939215 6.76657007,4.91126402 C6.86266617,4.78313589 6.91653741,4.64918577 6.92818543,4.50940963 C6.95148145,4.27062538 6.87431453,4.08134803 6.69668235,3.94157189 C6.51905017,3.80179575 6.30502116,3.73190872 6.05458891,3.73190872 C5.48966033,3.73190872 5.1489611,4.01436877 5.03248098,4.57929735 C4.99171294,4.71324948 4.90726612,4.78022455 4.77913799,4.78022455 L4.01910902,4.78022455 C3.96086896,4.78022455 3.91282163,4.75984083 3.87496559,4.71907279 C3.83710955,4.67830475 3.81818182,4.62588948 3.81818182,4.56182542 C3.82982983,4.24150509 3.92738047,3.94157329 4.11083665,3.662021 C4.29429284,3.38246872 4.55782515,3.15679187 4.9014415,2.9849837 C5.24505785,2.81317553 5.64982019,2.72727273 6.11574066,2.72727273 C6.59913315,2.72727273 6.99661559,2.80443965 7.30819991,2.9587758 C7.61978423,3.11311196 7.84691705,3.30966921 7.9896052,3.54845345 C8.13229334,3.7872377 8.20363634,4.03475424 8.20363634,4.2910105 C8.20363634,4.58221079 8.13811726,4.83555125 8.00707713,5.05103947 C7.87603699,5.26652769 7.6823917,5.51404422 7.42613544,5.79359651 C7.23976725,5.99161271 7.09562527,6.16196233 6.99370516,6.30465047 C6.89178506,6.44733862 6.82335402,6.60021648 6.78840998,6.76328864 C6.76511396,6.90888879 6.75055416,7.00789541 6.74473016,7.06031146 C6.71561013,7.13602354 6.68357857,7.19135076 6.64863454,7.2262948 C6.6136905,7.26123883 6.5641872,7.27871059 6.50012313,7.27871059 L5.63526258,7.27871059 Z M5.60905468,8.92980801 C5.55081462,8.92980801 5.50131132,8.9094243 5.46054327,8.86865625 C5.41977523,8.82788821 5.39939152,8.77838491 5.39939152,8.72014485 L5.39939152,7.94264394 C5.39939152,7.88440389 5.41977523,7.83490058 5.46054327,7.79413254 C5.50131132,7.7533645 5.55081462,7.73298078 5.60905468,7.73298078 L6.47391524,7.73298078 C6.53215529,7.73298078 6.58311458,7.7533645 6.62679463,7.79413254 C6.67047467,7.83490058 6.69231437,7.88440389 6.69231437,7.94264394 L6.69231437,8.72014485 C6.69231437,8.77838491 6.67193065,8.82788821 6.63116261,8.86865625 C6.59039457,8.9094243 6.5379793,8.92980801 6.47391524,8.92980801 L5.60905468,8.92980801 Z" id="?" fill="#A4AAB5"></path>
                        </g>
                    </g>
                </g>
            </g>
        </g>
    </g>
</svg>
