<?xml version="1.0" encoding="UTF-8"?>
<svg width="208px" height="32px" viewBox="0 0 208 32" version="1.1" xmlns="http://www.w3.org/2000/svg" xmlns:xlink="http://www.w3.org/1999/xlink">
    <!-- Generator: Sketch 49.3 (51167) - http://www.bohemiancoding.com/sketch -->
    <title>Azure Migrate/AM-Logo</title>
    <desc>Created with Sketch.</desc>
    <defs></defs>
    <g id="Azure-Migrate/AM-Logo" stroke="none" stroke-width="1" fill="none" fill-rule="evenodd">
        <path d="M32.7497183,23.3332991 C30.3335924,25.6068978 27.0794844,27 23.5,27 C16.0441559,27 10,20.9558441 10,13.5 C10,6.04415588 16.0441559,0 23.5,0 C29.6441459,0 34.8296239,4.10454534 36.4640072,9.72120925 C37.5494893,9.25698332 38.7447338,9 40,9 C44.9705627,9 49,13.0294373 49,18 C49,22.9705627 44.9705627,27 40,27 C37.0256865,27 34.3883574,25.5571979 32.7497183,23.3332991 Z" id="Cloud-2" fill="#227EBA"></path>
        <path d="M5.16129032,31.9418456 C2.24462839,31.533888 0,29.0290745 0,26 C0,22.6862915 2.6862915,20 6,20 C6.0474686,20 6.09480845,20.0005512 6.1420135,20.0016477 C6.04842525,19.3479169 6,18.6796136 6,18 C6,10.2680135 12.2680135,4 20,4 C26.3158562,4 31.6548905,8.18227138 33.3987386,13.9284497 C34.640296,13.3333223 36.0312222,13 37.5,13 C42.7467051,13 47,17.2532949 47,22.5 C47,27.5134637 43.1164588,31.6198776 38.1935484,31.9750699 L38.1935484,32 L5.16129032,32 L5.16129032,31.9418456 Z" id="Cloud-1" fill="#2E97DE"></path>
        <path d="M24.7951229,17.5483871 L31.1025993,11.2409107 L26.055237,6.19354839 L31.1656393,6.19354839 L36.3341616,11.3620707 L30.1478452,17.5483871 L24.7951229,17.5483871 Z" id="Combined-Shape-Copy-2" fill="#FFFFFF" fill-rule="nonzero"></path>
        <path d="M29.9564132,29.9354839 L36.2638897,23.6280075 L31.2165274,18.5806452 L36.3269296,18.5806452 L41.4954519,23.7491675 L35.3091355,29.9354839 L29.9564132,29.9354839 Z" id="Combined-Shape-Copy-3" fill="#FFFFFF" fill-rule="nonzero"></path>
        <path d="M14.2243543,32 L22.6083404,23.616014 L15.5084554,16.516129 L20.6369321,16.516129 L27.8489398,23.7281368 L19.5770766,32 L14.2243543,32 Z" id="Combined-Shape-Copy-4" fill="#FFFFFF" fill-rule="nonzero"></path>
        <path d="M74.3683209,23.8330959 L72.263656,18.1094339 L64.2813292,18.1094339 L62.1766642,23.8330959 L60.777832,23.8330959 L67.7206597,5.43011098 L68.926992,5.43011098 L75.7928197,23.8330959 L74.3683209,23.8330959 Z M68.7216589,8.43310852 C68.6275474,8.17644078 68.5505482,7.92405462 68.490659,7.67594247 C68.4307699,7.46205269 68.3666039,7.24816612 68.2981592,7.03427633 L68.2468259,7.03427633 C68.1013809,7.59894536 67.9602157,8.05666263 67.8233263,8.40744187 L64.7304955,16.9416015 L71.827323,16.9416015 L68.7216589,8.43310852 Z M78.6224248,22.7550968 L87.1052512,22.7550968 L87.1052512,23.8330959 L76.6974264,23.8330959 L76.6974264,23.3839296 L85.4240859,11.7697725 L77.3262592,11.7697725 L77.3262592,10.6917733 L87.4260842,10.6917733 L87.4260842,11.0126064 L78.6224248,22.7550968 Z M98.353516,23.8330959 L98.353516,21.4460979 L98.3021827,21.4460979 C97.3867344,23.2513276 95.9750831,24.153929 94.0671862,24.153929 C90.9615065,24.153929 89.40869,22.1990057 89.40869,18.2891004 L89.40869,10.6917733 L90.602189,10.6917733 L90.602189,17.993934 C90.602189,19.773497 90.8952136,21.0653719 91.4812716,21.8695975 C92.0673296,22.6738231 92.9891808,23.0759299 94.2468527,23.0759299 C95.4703023,23.0759299 96.4605971,22.626768 97.2177669,21.728431 C97.9749368,20.8300939 98.353516,19.6323291 98.353516,18.1351006 L98.353516,10.6917733 L99.5341817,10.6917733 L99.5341817,23.8330959 L98.353516,23.8330959 Z M109.357948,11.9237723 C108.964391,11.6414378 108.502396,11.5002727 107.971949,11.5002727 C106.936722,11.5002727 106.068343,12.0349891 105.366784,13.104438 C104.665226,14.1738869 104.314452,15.6924816 104.314452,17.6602676 L104.314452,23.8330959 L103.159453,23.8330959 L103.159453,10.6917733 L104.314452,10.6917733 L104.314452,13.6049376 L104.365785,13.6049376 C104.665231,12.6039334 105.140059,11.8253863 105.790284,11.2692729 C106.440509,10.7131594 107.19339,10.4351069 108.048949,10.4351069 C108.536617,10.4351069 108.972946,10.512106 109.357948,10.6661067 L109.357948,11.9237723 Z M111.006887,17.3137679 C111.006887,19.1189977 111.423966,20.5306491 112.258136,21.5487644 C113.092306,22.5668798 114.236599,23.0759299 115.69105,23.0759299 C117.162612,23.0759299 118.599929,22.532658 120.003046,21.4460979 L120.003046,22.7037635 C118.642707,23.6705453 117.124113,24.153929 115.447217,24.153929 C113.75321,24.153929 112.384336,23.5464911 111.340553,22.3315971 C110.296771,21.1167032 109.774888,19.4013328 109.774888,17.1854347 C109.774888,15.2689822 110.320299,13.6541386 111.411137,12.3408553 C112.501975,11.027572 113.920043,10.3709403 115.665383,10.3709403 C117.299501,10.3709403 118.552877,10.9441563 119.425547,12.0906055 C120.298217,13.2370548 120.734546,14.8027045 120.734546,16.7876017 L120.734546,17.3137679 L111.006887,17.3137679 Z M119.502547,16.2357688 C119.451213,14.7214291 119.087606,13.545053 118.411714,12.706605 C117.735823,11.8681571 116.803277,11.4489394 115.61405,11.4489394 C114.382045,11.4489394 113.361806,11.8617405 112.553302,12.687355 C111.744799,13.5129696 111.246443,14.6957624 111.05822,16.2357688 L119.502547,16.2357688 Z M146.234073,23.8330959 L146.234073,10.7687733 C146.234073,10.4522164 146.281128,9.54961505 146.37524,8.06094216 L146.323906,8.06094216 C146.058683,8.75394506 145.836241,9.28866149 145.656573,9.66510751 L139.111579,23.8330959 L138.700912,23.8330959 L132.130251,9.74210745 C131.916361,9.28866111 131.715308,8.71116736 131.527085,8.00960887 L131.462918,8.00960887 C131.522808,8.83094563 131.552752,9.64799235 131.552752,10.4607735 L131.552752,23.8330959 L130.282253,23.8330959 L130.282253,5.43011098 L131.462918,5.43011098 L138.328746,20.2525988 C138.371524,20.3381547 138.418579,20.4536535 138.469913,20.5990986 C138.521246,20.7445436 138.576857,20.8899865 138.636746,21.0354315 C138.722302,21.2578769 138.812134,21.5059853 138.906246,21.7797642 L138.983246,21.7797642 L139.124412,21.3690979 C139.132968,21.3348756 139.278411,20.9284911 139.560745,20.1499323 L146.323906,5.43011098 L147.453239,5.43011098 L147.453239,23.8330959 L146.234073,23.8330959 Z M151.912676,7.38077605 C151.656008,7.38077605 151.429288,7.28666596 151.23251,7.09844295 C151.035731,6.91021994 150.937343,6.67066697 150.937343,6.37977687 C150.937343,6.09744236 151.03787,5.86858372 151.238926,5.6931941 C151.439983,5.51780448 151.664564,5.43011098 151.912676,5.43011098 C152.177899,5.43011098 152.411035,5.51566561 152.612092,5.68677744 C152.813148,5.85788926 152.913675,6.08888676 152.913675,6.37977687 C152.913675,6.65355579 152.815287,6.88883102 152.618508,7.08560962 C152.42173,7.28238822 152.186455,7.38077605 151.912676,7.38077605 Z M151.335176,23.8330959 L151.335176,10.6917733 L152.515842,10.6917733 L152.515842,23.8330959 L151.335176,23.8330959 Z M166.651604,22.8577634 C166.651604,25.3303293 166.11261,27.1398097 165.034606,28.2862589 C163.956601,29.4327082 162.27973,30.0059242 160.003943,30.0059242 C158.737716,30.0059242 157.433008,29.6722611 156.08978,29.004925 L156.08978,27.772926 C157.475785,28.5429292 158.789049,28.9279251 160.02961,28.9279251 C163.65718,28.9279251 165.470939,27.0115013 165.470939,23.1785964 L165.470939,21.4717645 L165.419605,21.4717645 C164.384379,23.2598831 162.805896,24.153929 160.684109,24.153929 C159.067102,24.153929 157.747422,23.5678798 156.725029,22.3957637 C155.702636,21.2236477 155.191447,19.5895543 155.191447,17.4934344 C155.191447,15.3973146 155.743274,13.686222 156.846946,12.3601053 C157.950617,11.0339886 159.405046,10.3709403 161.210275,10.3709403 C163.143839,10.3709403 164.546935,11.1708761 165.419605,12.7707716 L165.470939,12.7707716 L165.470939,10.6917733 L166.651604,10.6917733 L166.651604,22.8577634 Z M165.470939,15.7352692 C165.470939,14.5717088 165.079526,13.5664419 164.29669,12.7194383 C163.513853,11.8724348 162.493614,11.4489394 161.235942,11.4489394 C159.790047,11.4489394 158.626504,11.9922113 157.745278,13.0787714 C156.864052,14.1653315 156.423446,15.6026493 156.423446,17.3907678 C156.423446,19.187442 156.827692,20.5841214 157.636195,21.5808477 C158.444698,22.5775741 159.511992,23.0759299 160.838109,23.0759299 C162.249782,23.0759299 163.374825,22.6182126 164.213273,21.7027643 C165.051721,20.787316 165.470939,19.6665504 165.470939,18.3404337 L165.470939,15.7352692 Z M176.47537,11.9237723 C176.081813,11.6414378 175.619818,11.5002727 175.089371,11.5002727 C174.054145,11.5002727 173.185765,12.0349891 172.484207,13.104438 C171.782648,14.1738869 171.431874,15.6924816 171.431874,17.6602676 L171.431874,23.8330959 L170.276875,23.8330959 L170.276875,10.6917733 L171.431874,10.6917733 L171.431874,13.6049376 L171.483208,13.6049376 C171.782653,12.6039334 172.257482,11.8253863 172.907707,11.2692729 C173.557932,10.7131594 174.310812,10.4351069 175.166371,10.4351069 C175.65404,10.4351069 176.090369,10.512106 176.47537,10.6661067 L176.47537,11.9237723 Z M186.222136,23.8330959 L186.222136,21.2022647 L186.170803,21.2022647 C185.751579,22.1006018 185.142002,22.8171218 184.342055,23.3518463 C183.542107,23.8865708 182.654478,24.153929 181.67914,24.153929 C180.430024,24.153929 179.441868,23.803155 178.714643,23.1015965 C177.987417,22.400038 177.62381,21.5145476 177.62381,20.4450987 C177.62381,18.1522002 179.142405,16.7662152 182.17964,16.2871021 L186.222136,15.6839359 C186.222136,12.8605908 185.161259,11.4489394 183.039472,11.4489394 C181.593577,11.4489394 180.186204,12.0307109 178.817309,13.1942713 L178.817309,11.7697725 C179.304978,11.3847708 179.965887,11.0553855 180.800058,10.7816066 C181.634228,10.5078277 182.419191,10.3709403 183.154972,10.3709403 C184.506756,10.3709403 185.552661,10.790158 186.29272,11.6286059 C187.032778,12.4670539 187.402802,13.6862073 187.402802,15.2861029 L187.402802,23.8330959 L186.222136,23.8330959 Z M182.603139,17.2881013 C181.225689,17.4848799 180.258922,17.8035709 179.702808,18.2441838 C179.146695,18.6847968 178.868642,19.4013168 178.868642,20.3937654 C178.868642,21.1723242 179.127445,21.8139839 179.645058,22.3187638 C180.162672,22.8235437 180.883469,23.0759299 181.807473,23.0759299 C183.073701,23.0759299 184.126023,22.6075183 184.964471,21.670681 C185.802919,20.7338438 186.222136,19.5253846 186.222136,18.0452673 L186.222136,16.761935 L182.603139,17.2881013 Z M195.968902,23.6534294 C195.3529,23.9443195 194.775406,24.0897624 194.236404,24.0897624 C192.294285,24.0897624 191.32324,22.9262194 191.32324,20.5990986 L191.32324,11.7697725 L188.961908,11.7697725 L188.961908,10.6917733 L191.32324,10.6917733 L191.32324,7.27810947 C191.511463,7.20966474 191.708238,7.14122103 191.913572,7.0727763 C192.118907,7.01288716 192.315682,6.94872119 192.503905,6.88027646 L192.503905,10.6917733 L195.968902,10.6917733 L195.968902,11.7697725 L192.503905,11.7697725 L192.503905,20.4450987 C192.503905,21.3519914 192.647209,22.0086231 192.933822,22.4150137 C193.220434,22.8214043 193.705956,23.0245966 194.390404,23.0245966 C194.878072,23.0245966 195.404233,22.8663205 195.968902,22.5497636 L195.968902,23.6534294 Z M198.272341,17.3137679 C198.272341,19.1189977 198.68942,20.5306491 199.52359,21.5487644 C200.35776,22.5668798 201.502054,23.0759299 202.956504,23.0759299 C204.428066,23.0759299 205.865384,22.532658 207.268501,21.4460979 L207.268501,22.7037635 C205.908162,23.6705453 204.389567,24.153929 202.712671,24.153929 C201.018664,24.153929 199.64979,23.5464911 198.606008,22.3315971 C197.562226,21.1167032 197.040342,19.4013328 197.040342,17.1854347 C197.040342,15.2689822 197.585753,13.6541386 198.676591,12.3408553 C199.767429,11.027572 201.185497,10.3709403 202.930837,10.3709403 C204.564955,10.3709403 205.818331,10.9441563 206.691001,12.0906055 C207.563671,13.2370548 208,14.8027045 208,16.7876017 L208,17.3137679 L198.272341,17.3137679 Z M206.768001,16.2357688 C206.716667,14.7214291 206.35306,13.545053 205.677169,12.706605 C205.001277,11.8681571 204.068731,11.4489394 202.879504,11.4489394 C201.647499,11.4489394 200.62726,11.8617405 199.818757,12.687355 C199.010253,13.5129696 198.511898,14.6957624 198.323675,16.2357688 L206.768001,16.2357688 Z" id="Azure-Migrate" fill="#2E97DE"></path>
    </g>
</svg>