<?xml version="1.0" encoding="UTF-8"?>
<svg width="16px" height="12px" viewBox="0 0 16 12" version="1.1" xmlns="http://www.w3.org/2000/svg" xmlns:xlink="http://www.w3.org/1999/xlink">
    <!-- Generator: Sketch 47.1 (45422) - http://www.bohemiancoding.com/sketch -->

    <desc>Created with Sketch.</desc>
    <defs></defs>
    <g id="Coriolis" stroke="none" stroke-width="1" fill="none" fill-rule="evenodd">
        <g id="201-Replica-Overview" transform="translate(-576.000000, -337.000000)" fill-rule="nonzero" fill="#0044CA">
            <g id="Icon/Copy" transform="translate(576.000000, 335.000000)">
                <path d="M3,7.2 C2.00588745,7.2 1.2,8.00588745 1.2,9 L1.2,11 C1.2,11.9941125 2.00588745,12.8 3,12.8 L9,12.8 C9.99411255,12.8 10.8,11.9941125 10.8,11 L10.8,9 C10.8,8.00588745 9.99411255,7.2 9,7.2 L3,7.2 Z M3,6 L9,6 C10.6568542,6 12,7.34314575 12,9 L12,11 C12,12.6568542 10.6568542,14 9,14 L3,14 C1.34314575,14 2.02906125e-16,12.6568542 0,11 L0,9 C-2.02906125e-16,7.34314575 1.34314575,6 3,6 Z" id="Rectangle-Copy"></path>
                <path d="M13,10 C14.6568542,10 16,8.65685425 16,7 L16,5 C16,3.34314575 14.6568542,2 13,2 L7,2 C5.34314575,2 4,3.34314575 4,5 L5.2,5 C5.2,4.00588745 6.00588745,3.2 7,3.2 L13,3.2 C13.9941125,3.2 14.8,4.00588745 14.8,5 L14.8,7 C14.8,7.99411255 13.9941125,8.8 13,8.8 L13,10 Z" id="Rectangle-Copy-2"></path>
            </g>
        </g>
    </g>
</svg>
