<?xml version="1.0" encoding="UTF-8"?>
<svg width="126px" height="67px" viewBox="0 0 126 67" version="1.1" xmlns="http://www.w3.org/2000/svg" xmlns:xlink="http://www.w3.org/1999/xlink">
    <!-- Generator: Sketch 50.2 (55047) - http://www.bohemiancoding.com/sketch -->
    <title>Icon/Endpoint/duplicate-96</title>
    <desc>Created with Sketch.</desc>
    <defs>
        <path d="M0,80 L7.03974198,80 C21.3059504,80 33,67.8370899 33,53 C33,40.7183666 24.9376127,30.3578918 13.8982944,27.2262538 C13.4706109,16.8915649 8.02547353,7.92152105 9.4990682e-13,3.00459145 L0,0 L54,0 L54,81 L0,81 L0,80 Z" id="path-1"></path>
    </defs>
    <g id="Coriolis" stroke="none" stroke-width="1" fill="none" fill-rule="evenodd">
        <g id="EP/Duplicate-Endpoint" transform="translate(-224.000000, -111.000000)">
            <g id="Icon/Endpoint/duplicate-96" transform="translate(224.000000, 96.000000)">
                <path d="M41,56 L57,56" id="Stroke-7" stroke="#0044CA" stroke-width="1.5" stroke-linecap="round"></path>
                <path d="M44,60.3927557 C42.6229683,62.568892 40.2854187,64 37.6341488,64 L31.6687915,64 C27.4335681,64 24,60.3473011 24,55.8401989 L24,55.1605114 C24,50.6534091 27.4335681,47 31.6687915,47 L37.6341488,47 C40.2834162,47 42.6182959,48.428267 43.9959951,50.6015625" id="Stroke-9" stroke="#0044CA" stroke-width="1.5" stroke-linecap="round"></path>
                <path d="M73,60.3927557 C71.6229683,62.568892 69.2854187,64 66.6341488,64 L60.6687915,64 C56.4335681,64 53,60.3473011 53,55.8401989 L53,55.1605114 C53,50.6534091 56.4335681,47 60.6687915,47 L66.6341488,47 C69.2834162,47 71.6182959,48.428267 72.9959951,50.6015625" id="Stroke-9-Copy" stroke="#0044CA" stroke-width="1.5" stroke-linecap="round" transform="translate(63.000000, 55.500000) scale(-1, 1) translate(-63.000000, -55.500000) "></path>
                <path d="M57.3997431,16 C69.5428443,16 79.2663177,26.0641637 79.7833871,38.6506975 C88.5774203,41.1637404 95,49.4777016 95,59.3333333 C95,71.23964 85.6844011,81 74.3197945,81 L17.9200514,81 C8.62307987,81 1,73.0124945 1,63.2727878 C1,55.5910847 5.88807194,49.0759612 12.4564588,46.7747814 C12.8546985,35.2269098 21.8452823,25.8476369 32.9600257,25.8476369 C34.9133275,25.8476369 36.7310993,26.3519777 38.5418056,26.8956264 C42.5820122,20.4551213 49.4715602,16 57.3997431,16 Z" id="Stroke-1" stroke="#0044CA" stroke-width="1.5" stroke-linecap="round"></path>
                <g id="Group-Copy" stroke-width="1" fill-rule="evenodd" transform="translate(73.000000, 5.000000)">
                    <mask id="mask-2" fill="white">
                        <use xlink:href="#path-1"></use>
                    </mask>
                    <g id="Mask"></g>
                    <g mask="url(#mask-2)" id="Stroke-1" stroke="#0044CA" stroke-linecap="round" stroke-width="1.5">
                        <g transform="translate(-42.000000, 11.000000)">
                            <path d="M56.3997431,0 C68.5428443,0 78.2663177,10.0641637 78.7833871,22.6506975 C87.5774203,25.1637404 94,33.4777016 94,43.3333333 C94,55.23964 84.6844011,65 73.3197945,65 L16.9200514,65 C7.62307987,65 0,57.0124945 0,47.2727878 C0,39.5910847 4.88807194,33.0759612 11.4564588,30.7747814 C11.8546985,19.2269098 20.8452823,9.84763691 31.9600257,9.84763691 C33.9133275,9.84763691 35.7310993,10.3519777 37.5418056,10.8956264 C41.5820122,4.45512131 48.4715602,0 56.3997431,0 Z"></path>
                        </g>
                    </g>
                </g>
            </g>
        </g>
    </g>
</svg>