<?xml version="1.0" encoding="UTF-8" standalone="no"?>
<svg    xmlns:dc="http://purl.org/dc/elements/1.1/"
   xmlns:cc="http://creativecommons.org/ns#"
   xmlns:rdf="http://www.w3.org/1999/02/22-rdf-syntax-ns#"
   xmlns:svg="http://www.w3.org/2000/svg"
   xmlns="http://www.w3.org/2000/svg"
   xmlns:xlink="http://www.w3.org/1999/xlink"
   id="svg8"
   version="1.1"
   viewBox="0 0 12.7 12.7"
   height="48"
   width="48">
  <defs
     id="defs2">
    <path
       d="M24,48 C37.254834,48 48,37.254834 48,24 C48,10.745166 37.254834,0 24,0 C10.745166,0 0,10.745166 0,24 C0,37.254834 10.745166,48 24,48 Z"
       id="path-1" />
  </defs>
  <g
     id="layer1"
     >
    <g
       transform="scale(0.26458333)"
       style="fill:none;fill-rule:evenodd;stroke:none;stroke-width:1"
       id="Icon/Project/ProjectListItem">
      <mask
         fill="#ffffff"
         id="mask-2">
        <use
           height="100%"
           width="100%"
           y="0"
           x="0"
           id="use838"
           xlink:href="#path-1" />
      </mask>
      <use
         height="100%"
         width="100%"
         y="0"
         x="0"
         xlink:href="#path-1"
         fill-rule="evenodd"
         fill="#c8ccd7"
         id="Pat-Benetar" />
      <g
         transform="matrix(0.06333812,0,0,0.06333812,7.7854416,7.7334707)"
         id="g1545">
        <path
           fill="#7a8c98"
           d="M 482.834,445.69221 H 29.166 c -6.915,0 -12.522,-5.606 -12.522,-12.522 v -124.253 c 0,-6.915 5.606,-12.522 12.522,-12.522 h 453.668 c 6.915,0 12.522,5.606 12.522,12.522 v 124.253 c -10e-4,6.916 -5.607,12.522 -12.522,12.522 z"
           style="fill:#0044ca;fill-opacity:1"
           id="path1507" />
        <path
           fill="#7a8c98"
           d="M 482.834,217.24483 H 29.166 c -6.915,0 -12.522,-5.606 -12.522,-12.522 V 80.470853 c 0,-6.915 5.606,-12.522 12.522,-12.522 h 453.668 c 6.915,0 12.522,5.606 12.522,12.522 V 204.72383 c -10e-4,6.915 -5.607,12.521 -12.522,12.521 z"
           style="fill:#0044ca;fill-opacity:1"
           id="path1513" />
        <path
           fill="#9facba"
           d="M 317.60028,182.09881 H 74.470786 c -14.08057,0 -25.495786,-16.82319 -25.495786,-37.5744 0,-20.75125 11.415216,-37.57443 25.495786,-37.57443 H 317.60028 c 14.08056,0 25.49578,16.82318 25.49578,37.57443 -0.001,20.75121 -11.41522,37.5744 -25.49578,37.5744 z"
           style="fill:#c8ccd7;fill-opacity:1;stroke-width:1.3971"
           id="path1515" />
        <path
           fill="#60b7ff"
           d="m 384.5962,182.08938 c -9.544,0 -17.28,-7.737 -17.28,-17.28 v -40.56897 c 0,-9.544 7.737,-17.28 17.28,-17.28 9.544,0 17.28,7.737 17.28,17.28 v 40.56897 c 0.001,9.543 -7.736,17.28 -17.28,17.28 z"
           style="fill:#c8ccd7;fill-opacity:1"
           id="path1517" />
        <path
           fill="#fe646f"
           d="m 445.745,106.95941 c -0.359,0 -0.709,0.032 -1.062,0.054 -9.046,0.552 -16.218,8.042 -16.218,17.227 v 40.56897 c 0,9.185 7.172,16.675 16.218,17.227 0.353,0.021 0.704,0.054 1.062,0.054 9.544,0 17.28,-7.737 17.28,-17.28 v -40.56897 c 0,-9.545 -7.737,-17.282 -17.28,-17.282 z"
           style="fill:#c8ccd7;fill-opacity:1"
           id="path1537" />
        <path
           id="path1515-2"
           style="fill:#c8ccd7;fill-opacity:1;stroke-width:1.3971"
           d="M 315.11203,408.88257 H 71.982511 c -14.080571,0 -25.495788,-16.82319 -25.495788,-37.57444 0,-20.75125 11.415217,-37.57443 25.495788,-37.57443 H 315.11203 c 14.08056,0 25.49579,16.82318 25.49579,37.57443 -9.9e-4,20.75125 -11.41523,37.57444 -25.49579,37.57444 z"
           fill="#9facba" />
        <path
           id="path1517-7"
           style="fill:#c8ccd7;fill-opacity:1;stroke-width:1"
           d="m 390.15768,405.01754 c -9.544,0 -17.28,-7.737 -17.28,-17.28 v -40.56901 c 0,-9.544 7.737,-17.28 17.28,-17.28 9.544,0 17.28,7.737 17.28,17.28 v 40.56901 c 10e-4,9.543 -7.736,17.28 -17.28,17.28 z"
           fill="#60b7ff" />
        <path
           id="path1537-1"
           style="fill:#c8ccd7;fill-opacity:1;stroke-width:1"
           d="m 449.91183,329.11647 c -0.359,0 -0.709,0.032 -1.062,0.054 -9.046,0.552 -16.218,8.042 -16.218,17.22699 v 40.56901 c 0,9.18501 7.172,16.67501 16.218,17.22701 0.353,0.021 0.704,0.054 1.062,0.054 9.544,0 17.28,-7.737 17.28,-17.28001 v -40.56898 c 0,-9.54499 -7.737,-17.282 -17.28,-17.28199 z"
           fill="#fe646f" />
      </g>
    </g>
  </g>
</svg>
