<?xml version="1.0" encoding="UTF-8"?>
<svg width="17px" height="16px" viewBox="0 0 17 16" version="1.1" xmlns="http://www.w3.org/2000/svg" xmlns:xlink="http://www.w3.org/1999/xlink">
    <!-- Generator: Sketch 46.2 (44496) - http://www.bohemiancoding.com/sketch -->
    <title>GitHub</title>
    <desc>Created with Sketch.</desc>
    <defs></defs>
    <g id="Coriolis" stroke="none" stroke-width="1" fill="none" fill-rule="evenodd">
        <g id="01-Login-A" transform="translate(-528.000000, -584.000000)" fill="#FFFFFF">
            <g id="Group-5" transform="translate(488.000000, 496.000000)">
                <g id="GitHub" transform="translate(32.000000, 80.000000)">
                    <path d="M16.4992173,8 C11.8055496,8 8,11.6723364 8,16.2027094 C8,19.8267058 10.4352804,22.9008335 13.812947,23.9859679 C14.2382209,24.0609957 14.3931981,23.8077138 14.3931981,23.5901834 C14.3931981,23.3958159 14.3858928,22.8796847 14.3817183,22.1953703 C12.0174038,22.6908562 11.5185549,21.0956332 11.5185549,21.0956332 C11.1318948,20.1484695 10.5746033,19.8956911 10.5746033,19.8956911 C9.80284846,19.387113 10.6330458,19.3971839 10.6330458,19.3971839 C11.4862028,19.4550913 11.9349581,20.242632 11.9349581,20.242632 C12.6931459,21.4959496 13.924614,21.1339024 14.4088523,20.9244287 C14.48608,20.3941983 14.7052396,20.0326547 14.9484023,19.8277128 C13.0610209,19.6207568 11.0765831,18.9168042 11.0765831,15.7736911 C11.0765831,14.8783923 11.4079315,14.1462413 11.951656,13.5727063 C11.8639921,13.3652467 11.5723012,12.5313801 12.0346235,11.401934 C12.0346235,11.401934 12.7484576,11.1813823 14.3723257,12.2428502 C15.050155,12.0605678 15.7775561,11.9699301 16.5002609,11.9669088 C17.2219221,11.9699301 17.9493232,12.0605678 18.6281961,12.2428502 C20.2510206,11.1813823 20.9632892,11.401934 20.9632892,11.401934 C21.427177,12.5313801 21.135486,13.3652467 21.0478222,13.5727063 C21.5925903,14.1462413 21.9218515,14.8783923 21.9218515,15.7736911 C21.9218515,18.9248609 19.9342828,19.6182391 18.0406397,19.8211668 C18.3458977,20.0744487 18.6177599,20.5749701 18.6177599,21.3403549 C18.6177599,22.4365672 18.6073237,23.3212916 18.6073237,23.5901834 C18.6073237,23.809728 18.7602136,24.0650241 19.1917493,23.9849608 C22.5668068,22.8978123 25,19.8256987 25,16.2027094 C25,11.6723364 21.1939286,8 16.4992173,8"></path>
                </g>
            </g>
        </g>
    </g>
</svg>