<?xml version="1.0" encoding="UTF-8" standalone="no"?>
<svg    xmlns:dc="http://purl.org/dc/elements/1.1/"
   xmlns:cc="http://creativecommons.org/ns#"
   xmlns:rdf="http://www.w3.org/1999/02/22-rdf-syntax-ns#"
   xmlns:svg="http://www.w3.org/2000/svg"
   xmlns="http://www.w3.org/2000/svg"
   xmlns:xlink="http://www.w3.org/1999/xlink"
   id="svg2846"
   version="1.1"
   viewBox="0 0 6.3499999 6.3500002"
   height="24"
   width="24">
  <g
     id="layer1"
     >
    <path
       transform="matrix(0.66894872,0,0,0.66894872,-1.0732164,-1.0725631)"
       style="fill:#ffffff;fill-opacity:1;fill-rule:nonzero;stroke:none;stroke-width:0.0165542"
       xlink:href="#path867"
       id="path1461"
       d="m 5.3261719,1.6523438 c -0.1431314,0 -0.2617188,0.1185163 -0.2617188,0.2617187 v 0.3125 C 3.6051295,2.7597755 2.631506,4.1476744 2.6367188,5.7050781 V 5.9121094 L 2.3144531,6.0488281 C 2.2178762,6.0895999 2.15625,6.1855545 2.15625,6.2890625 v 1.0019531 c 0,0.1422722 0.1174217,0.2597656 0.2597656,0.2597656 H 2.59375 v 0.3125 C 2.59375,8.0064134 2.7122674,8.125 2.8554688,8.125 H 3.4921875 C 3.552925,8.3327747 3.6355631,8.5330691 3.7402344,8.7226562 L 3.2910156,9.171875 c -0.1005628,0.1010042 -0.1005295,0.2661325 0,0.3671875 l 0.8105469,0.8105465 c 0.1010024,0.100564 0.266131,0.100529 0.3671875,0 L 4.9179688,9.9003906 C 5.1072301,10.005237 5.3079867,10.089258 5.515625,10.150391 v 0.634765 c 0,0.143133 0.1185178,0.261719 0.2617188,0.261719 H 6.921875 c 0.143202,0 0.2597656,-0.119447 0.2597656,-0.261719 V 10.150391 C 7.3898931,10.08938 7.5913775,10.005446 7.78125,9.9003906 l 0.4492188,0.4492184 c 0.1010041,0.100562 0.2661318,0.100528 0.3671874,0 L 9.4082031,9.5390625 c 0.1005299,-0.1010553 0.1005639,-0.2661841 0,-0.3671875 L 8.9589844,8.7226562 C 9.0637834,8.5332501 9.1479431,8.333048 9.2089844,8.125 H 9.84375 c 0.1432025,0 0.261719,-0.1185876 0.261719,-0.2617188 v -0.3125 h 0.177734 c 0.142344,0 0.261719,-0.1166339 0.261719,-0.2597656 V 6.2890625 C 10.544407,6.1836073 10.47972,6.0886137 10.382812,6.0488281 L 10.058594,5.9101562 V 5.703125 C 10.06382,4.1456636 9.0882555,2.7578151 7.6289062,2.2246094 V 1.9140625 c 0,-0.1432021 -0.1185873,-0.2617186 -0.2617187,-0.2617187 z m 0.2578125,0.5253906 h 1.5234375 v 3.046875 H 5.5878906 Z m -0.5195313,0.609375 v 2.6992187 c 0,0.1431341 0.1193786,0.2597656 0.2617188,0.2597657 h 2.0449219 c 0.1423436,0 0.2617187,-0.1166341 0.2617187,-0.2597657 V 2.7871094 c 1.1579711,0.5050512 1.9113587,1.646015 1.90625,2.9160156 v 0.3808594 c 0,0.1046954 0.063928,0.1996966 0.1601563,0.2402344 L 10.023438,6.4628906 V 7.0292969 H 2.6757812 V 6.4589844 L 3.0019531,6.3203125 C 3.0985724,6.2796064 3.1601561,6.1836274 3.1601562,6.0800781 V 5.6992188 C 3.1561399,4.430949 3.9085857,3.2922944 5.0644531,2.7871094 Z M 3.1132812,7.5507812 h 1.6191407 c 0.1394508,0.8653435 0.9347494,1.477759 1.8125,1.3710938 0.7281757,-0.088382 1.3021665,-0.6520113 1.4179687,-1.3710938 h 1.6230469 v 0.050781 H 9.0214844 9.0195312 C 8.8960018,7.5996544 8.7876293,7.6883473 8.7617188,7.8085938 8.6992359,8.0990818 8.5838585,8.3757987 8.421875,8.625 8.3549682,8.7277755 8.3711863,8.8628472 8.4570312,8.9492188 l 0.40625,0.4082031 -0.4472656,0.4433593 -0.4082031,-0.40625 C 7.921443,9.3086864 7.7863717,9.2924701 7.6835938,9.359375 7.4343825,9.5213035 7.1576675,9.6367362 6.8671875,9.6992188 6.7452981,9.7254649 6.6573479,9.8366348 6.6601562,9.9609375 V 10.53125 H 6.0371094 V 9.9550781 9.953125 C 6.0390362,9.8295795 5.9513256,9.719467 5.8300781,9.6933594 5.5396588,9.6309975 5.2627698,9.5156624 5.0136719,9.3535156 4.9109569,9.2867515 4.7758826,9.3027605 4.6894531,9.3886719 l -0.40625,0.40625 L 3.8398438,9.3535156 4.2480469,8.9453125 C 4.3345082,8.8584109 4.3475741,8.7231178 4.28125,8.6210938 a 0.06946614,0.06946614 0 0 0 0,-0.00195 C 4.1178805,8.3716255 4.0022465,8.0964592 3.9375,7.8066406 3.9111764,7.6848796 3.8001755,7.5986639 3.6757812,7.6015625 h -0.5625 z m 2.1582032,0 H 7.4335938 C 7.2980097,8.1163956 6.753423,8.4927908 6.1699219,8.3984375 5.7226459,8.3261285 5.3773985,7.9860294 5.2714844,7.5507812 Z" />
  </g>
</svg>
