<?xml version="1.0" encoding="UTF-8"?>
<svg width="96px" height="96px" viewBox="0 0 96 96" version="1.1" xmlns="http://www.w3.org/2000/svg" xmlns:xlink="http://www.w3.org/1999/xlink">
    <!-- Generator: Sketch 47.1 (45422) - http://www.bohemiancoding.com/sketch -->

    <desc>Created with Sketch.</desc>
    <defs>
        <path d="M48,96 C21.490332,96 0,74.509668 0,48 C0,21.490332 21.490332,0 48,0 C74.509668,0 96,21.490332 96,48 C96,74.509668 74.509668,96 48,96 Z M48,94 C73.4050985,94 94,73.4050985 94,48 C94,22.5949015 73.4050985,2 48,2 C22.5949015,2 2,22.5949015 2,48 C2,73.4050985 22.5949015,94 48,94 Z" id="path-1"></path>
    </defs>
    <g id="Symbols" stroke="none" stroke-width="2" fill="none" fill-rule="evenodd">
        <g id="Icon/Progress/96">
            <g id="Group">
                <mask id="mask-2" fill="white">
                    <use xlink:href="#path-1"></use>
                </mask>
                <g id="Mask"></g>
                <g id="Group-2" mask="url(#mask-2)">
                    <circle id="Oval-2-Copy" fill="#C8CCD7" cx="48" cy="48" r="48"></circle>
                    <path d="M96,48 C96,21.490332 74.509668,0 48,0 L48,48 L96,48 Z" id="Combined-Shape" fill="#0044CA"></path>
                </g>
            </g>
        </g>
    </g>
</svg>
