<?xml version="1.0" encoding="UTF-8" standalone="no"?>
<svg
   xmlns:dc="http://purl.org/dc/elements/1.1/"
   xmlns:cc="http://creativecommons.org/ns#"
   xmlns:rdf="http://www.w3.org/1999/02/22-rdf-syntax-ns#"
   xmlns:svg="http://www.w3.org/2000/svg"
   xmlns="http://www.w3.org/2000/svg"
   xmlns:sodipodi="http://sodipodi.sourceforge.net/DTD/sodipodi-0.dtd"
   xmlns:inkscape="http://www.inkscape.org/namespaces/inkscape"
   sodipodi:docname="minion-pool-details.svg"
   inkscape:version="1.0 (4035a4fb49, 2020-05-01)"
   id="svg2230"
   version="1.1"
   viewBox="0 0 16.933333 16.933334"
   height="64"
   width="64">
  <defs
     id="defs2224" />
  <sodipodi:namedview
     inkscape:window-maximized="0"
     inkscape:window-y="0"
     inkscape:window-x="98"
     inkscape:window-height="1040"
     inkscape:window-width="1274"
     units="px"
     showgrid="false"
     inkscape:document-rotation="0"
     inkscape:current-layer="Icon/Endpoint/Item-64"
     inkscape:document-units="mm"
     inkscape:cy="76.103225"
     inkscape:cx="-27.670379"
     inkscape:zoom="1.4"
     inkscape:pageshadow="2"
     inkscape:pageopacity="0.0"
     borderopacity="1.0"
     bordercolor="#666666"
     pagecolor="#ffffff"
     id="base" />
  <metadata
     id="metadata2227">
    <rdf:RDF>
      <cc:Work
         rdf:about="">
        <dc:format>image/svg+xml</dc:format>
        <dc:type
           rdf:resource="http://purl.org/dc/dcmitype/StillImage" />
        <dc:title></dc:title>
      </cc:Work>
    </rdf:RDF>
  </metadata>
  <g
     id="layer1"
     inkscape:groupmode="layer"
     inkscape:label="Layer 1">
    <g
       transform="matrix(0.26458333,0,0,0.26458333,24.407485,-3.3885455)"
       style="fill:none;fill-rule:evenodd;stroke:none;stroke-width:1"
       id="Icon/Endpoint/Item-64">
      <path
         style="fill:#ffffff;fill-opacity:1"
         fill="#ffffff"
         id="Pat-Benetar"
         d="m -60.248763,76.807102 c 17.673112,0 32,-14.326888 32,-32 0,-17.673112 -14.326888,-32 -32,-32 -17.673112,0 -32,14.326888 -32,32 0,17.673112 14.326888,32 32,32 z" />
      <path
         transform="matrix(3.7795276,0,0,3.7795276,-98.140003,12.448588)"
         id="path867"
         style="fill:#0044ca;fill-opacity:1;fill-rule:nonzero;stroke:none;stroke-width:0.0217726"
         sodipodi:type="inkscape:offset"
         inkscape:radius="-0.067076862"
         inkscape:original="M 8.6796875 2.4765625 C 8.5412293 2.4765625 8.4277344 2.5880175 8.4277344 2.7265625 L 8.4277344 3.1953125 C 6.5089469 3.8660931 5.2275715 5.6802221 5.234375 7.7128906 L 5.234375 8.046875 L 4.7539062 8.25 C 4.6610331 8.2892071 4.6015625 8.3798616 4.6015625 8.4804688 L 4.6015625 9.7988281 C 4.6015625 9.9372866 4.7149694 10.048828 4.8535156 10.048828 L 5.1796875 10.048828 L 5.1796875 10.550781 C 5.1796875 10.689241 5.2911441 10.802734 5.4296875 10.802734 L 6.3300781 10.802734 C 6.4156371 11.116904 6.5424639 11.41915 6.7050781 11.701172 L 6.0664062 12.337891 C 5.9690252 12.435701 5.9690253 12.593517 6.0664062 12.691406 L 7.1328125 13.757812 C 7.2306135 13.855192 7.39039 13.855193 7.4882812 13.757812 L 8.125 13.121094 C 8.4063408 13.283709 8.7080795 13.408328 9.0214844 13.494141 L 9.0214844 14.396484 C 9.0214844 14.534944 9.1329445 14.646484 9.2714844 14.646484 L 10.777344 14.646484 C 10.915888 14.646484 11.029297 14.53494 11.029297 14.396484 L 11.029297 13.494141 C 11.343468 13.408591 11.643675 13.283964 11.925781 13.121094 L 12.564453 13.757812 C 12.662263 13.855192 12.820077 13.855193 12.917969 13.757812 L 13.984375 12.691406 C 14.081755 12.593516 14.081755 12.435696 13.984375 12.337891 L 13.347656 11.701172 C 13.510269 11.41915 13.635144 11.116904 13.720703 10.802734 L 14.621094 10.802734 C 14.75964 10.802734 14.873047 10.689236 14.873047 10.550781 L 14.873047 10.048828 L 15.199219 10.048828 C 15.337764 10.048828 15.449219 9.9372836 15.449219 9.7988281 L 15.449219 8.4804688 C 15.448724 8.3790907 15.388557 8.2884428 15.294922 8.25 L 14.810547 8.0410156 L 14.810547 7.7109375 C 14.81742 5.6782702 13.534022 3.8641399 11.615234 3.1933594 L 11.615234 2.7265625 C 11.615234 2.5880179 11.503686 2.4765625 11.365234 2.4765625 L 8.6796875 2.4765625 z M 8.9257812 2.9804688 L 11.113281 2.9804688 L 11.113281 7.1738281 L 8.9296875 7.1738281 L 8.9257812 2.9804688 z M 8.4277344 3.7285156 L 8.4277344 7.4238281 C 8.4277344 7.5622878 8.541154 7.6757812 8.6796875 7.6757812 L 11.369141 7.6757812 C 11.507687 7.6757812 11.621094 7.5622872 11.621094 7.4238281 L 11.621094 3.7285156 C 13.252501 4.375738 14.319558 5.9561234 14.3125 7.7109375 L 14.3125 8.2128906 C 14.3125 8.3135061 14.373931 8.4042365 14.466797 8.4433594 L 14.951172 8.6523438 L 14.951172 9.546875 L 5.1015625 9.546875 L 5.1015625 8.6464844 L 5.5859375 8.4375 C 5.6788105 8.3983719 5.7382812 8.3077305 5.7382812 8.2070312 L 5.7382812 7.7050781 C 5.7327312 5.9524758 6.7990481 4.3759923 8.4277344 3.7285156 z M 5.6757812 10.048828 L 7.96875 10.048828 C 8.1062732 11.182614 9.1376971 11.991295 10.271484 11.853516 C 11.216037 11.738867 11.959743 10.99338 12.074219 10.048828 L 14.371094 10.048828 L 14.373047 10.300781 L 13.537109 10.300781 C 13.416686 10.298081 13.312455 10.380432 13.287109 10.498047 C 13.202579 10.891058 13.047211 11.266466 12.828125 11.603516 C 12.763565 11.702686 12.776095 11.832241 12.859375 11.916016 L 13.460938 12.515625 L 12.742188 13.228516 L 12.142578 12.628906 C 12.058818 12.545636 11.927292 12.531153 11.828125 12.595703 C 11.491077 12.814705 11.117621 12.970151 10.724609 13.054688 C 10.606909 13.080027 10.524623 13.186209 10.527344 13.306641 L 10.527344 14.152344 L 9.5234375 14.152344 L 9.5234375 13.298828 C 9.5261968 13.178406 9.4419223 13.074172 9.3242188 13.048828 C 8.9312923 12.96446 8.5576663 12.807233 8.2207031 12.587891 C 8.121535 12.523436 7.9901091 12.537737 7.90625 12.621094 L 7.3066406 13.220703 L 6.5957031 12.511719 L 7.1972656 11.912109 C 7.2806116 11.828339 7.2929896 11.696821 7.2285156 11.597656 C 7.0073924 11.262637 6.8492341 10.889781 6.7617188 10.498047 C 6.7362954 10.380426 6.6321479 10.297974 6.5117188 10.300781 L 5.6757812 10.300781 L 5.6757812 10.048828 z M 8.4785156 10.048828 L 8.4804688 10.048828 L 11.570312 10.048828 C 11.432279 10.902548 10.629026 11.483738 9.7753906 11.345703 C 9.1093725 11.238039 8.5861883 10.714845 8.4785156 10.048828 z "
         d="m 8.6796875,2.5429688 c -0.1024615,0 -0.1855469,0.081681 -0.1855469,0.1835937 v 0.46875 a 0.06708357,0.06708357 0 0 1 -0.044922,0.0625 C 6.5572137,3.9192303 5.2940725,5.708545 5.3007812,7.7128906 V 8.046875 a 0.06708357,0.06708357 0 0 1 -0.041016,0.0625 L 4.7792969,8.3125 c -0.068195,0.028789 -0.1113281,0.093795 -0.1113281,0.1679688 v 1.3183593 c 0,0.1018315 0.083002,0.1835938 0.1855468,0.1835938 h 0.3261719 a 0.06708357,0.06708357 0 0 1 0.066406,0.066406 v 0.501953 c 0,0.102464 0.081683,0.185547 0.1835937,0.185547 h 0.9003906 a 0.06708357,0.06708357 0 0 1 0.064453,0.04883 c 0.084009,0.308479 0.2093469,0.605682 0.3691407,0.882813 a 0.06708357,0.06708357 0 0 1 -0.011719,0.08008 l -0.6386719,0.636719 c -0.071928,0.07224 -0.071959,0.187431 0,0.259765 l 1.0664063,1.066407 c 0.071917,0.07161 0.1896998,0.07164 0.2617187,0 L 8.078125,13.074219 a 0.06708357,0.06708357 0 0 1 0.080078,-0.01172 c 0.2762053,0.159647 0.5728314,0.282847 0.8808594,0.367188 a 0.06708357,0.06708357 0 0 1 0.048828,0.06445 v 0.902343 c 0,0.102463 0.081057,0.183594 0.1835938,0.183594 h 1.5058596 c 0.102541,0 0.185547,-0.08177 0.185547,-0.183594 v -0.902343 a 0.06708357,0.06708357 0 0 1 0.04883,-0.06445 c 0.308688,-0.08406 0.603767,-0.207212 0.880859,-0.367188 a 0.06708357,0.06708357 0 0 1 0.08008,0.01172 l 0.638672,0.636719 c 0.07225,0.07193 0.187428,0.07196 0.259766,0 L 13.9375,12.644531 c 0.07196,-0.07233 0.07192,-0.187527 0,-0.259765 l -0.636719,-0.636719 a 0.06708357,0.06708357 0 0 1 -0.01172,-0.08008 c 0.159677,-0.27693 0.283111,-0.574085 0.367188,-0.882813 a 0.06708357,0.06708357 0 0 1 0.06445,-0.04883 h 0.900391 c 0.101912,0 0.185547,-0.08372 0.185547,-0.185547 v -0.501953 a 0.06708357,0.06708357 0 0 1 0.06641,-0.066406 h 0.326172 c 0.102542,0 0.183593,-0.081136 0.183593,-0.1835938 V 8.4804688 C 15.382446,8.4054342 15.338234,8.3407068 15.269531,8.3125 a 0.06708357,0.06708357 0 0 1 -0.002,0 L 14.783203,8.1035156 a 0.06708357,0.06708357 0 0 1 -0.03906,-0.0625 V 7.7109375 C 14.750918,5.7066389 13.485769,3.9172819 11.59375,3.2558594 a 0.06708357,0.06708357 0 0 1 -0.04492,-0.0625 V 2.7265625 c 0,-0.1025404 -0.08114,-0.1835937 -0.183594,-0.1835937 z m 0.2460937,0.3710937 h 2.1874998 a 0.06708357,0.06708357 0 0 1 0.06641,0.066406 v 4.1933593 a 0.06708357,0.06708357 0 0 1 -0.06641,0.066406 H 8.9296875 A 0.06708357,0.06708357 0 0 1 8.8632812,7.1738281 L 8.859375,2.9804688 a 0.06708357,0.06708357 0 0 1 0.066406,-0.066406 z M 8.4238281,3.6621094 a 0.06708357,0.06708357 0 0 1 0.070312,0.066406 v 3.6953125 c 0,0.1018289 0.083649,0.1855469 0.1855469,0.1855469 h 2.6894535 c 0.101914,0 0.185547,-0.083715 0.185547,-0.1855469 V 3.7285156 a 0.06708357,0.06708357 0 0 1 0.0918,-0.0625 c 1.656879,0.6573276 2.73959,2.2627547 2.732422,4.0449219 v 0.5019531 c 0,0.073313 0.04486,0.1391422 0.113282,0.1679688 a 0.06708357,0.06708357 0 0 1 0.002,0 l 0.484375,0.2089844 a 0.06708357,0.06708357 0 0 1 0.03906,0.0625 V 9.546875 a 0.06708357,0.06708357 0 0 1 -0.06641,0.066406 H 5.1015625 A 0.06708357,0.06708357 0 0 1 5.0351562,9.546875 V 8.6464844 a 0.06708357,0.06708357 0 0 1 0.039063,-0.0625 L 5.5585938,8.375 a 0.06708357,0.06708357 0 0 1 0.00195,0 C 5.6287048,8.3462845 5.671875,8.2813212 5.671875,8.2070312 V 7.7050781 C 5.6662384,5.9251416 6.7482637,4.3235875 8.4023438,3.6660156 a 0.06708357,0.06708357 0 0 1 0.021484,-0.00391 z M 5.6757812,9.9824219 H 7.96875 a 0.06708357,0.06708357 0 0 1 0.066406,0.058594 c 0.1331549,1.097771 1.1307665,1.879493 2.2285158,1.746093 0.914206,-0.110965 1.633332,-0.831804 1.74414,-1.746093 a 0.06708357,0.06708357 0 0 1 0.06641,-0.058594 h 2.296875 a 0.06708357,0.06708357 0 0 1 0.06641,0.066406 l 0.002,0.251953 a 0.06708357,0.06708357 0 0 1 -0.06641,0.06641 h -0.835938 a 0.06708357,0.06708357 0 0 1 -0.002,0 c -0.089,-0.002 -0.162914,0.05763 -0.18164,0.144531 -0.08624,0.400945 -0.245158,0.784924 -0.46875,1.128906 -0.04782,0.07346 -0.03979,0.166877 0.02148,0.228516 l 0.601562,0.599609 a 0.06708357,0.06708357 0 0 1 0,0.09375 l -0.71875,0.712891 a 0.06708357,0.06708357 0 0 1 -0.09375,0 l -0.599609,-0.59961 c -0.06162,-0.06126 -0.157872,-0.07069 -0.230469,-0.02344 -0.34387,0.223435 -0.725955,0.382495 -1.126953,0.46875 -0.0863,0.01858 -0.146542,0.09458 -0.144531,0.183594 a 0.06708357,0.06708357 0 0 1 0,0.002 v 0.845703 a 0.06708357,0.06708357 0 0 1 -0.06641,0.06641 H 9.5234375 a 0.06708357,0.06708357 0 0 1 -0.066406,-0.06641 v -0.853516 a 0.06708357,0.06708357 0 0 1 0,-0.002 c 0.00202,-0.08827 -0.059338,-0.162876 -0.1464843,-0.181641 -0.4011171,-0.08613 -0.7832732,-0.246989 -1.1269531,-0.470703 -0.072662,-0.04723 -0.1687411,-0.03792 -0.2304688,0.02344 l -0.5996094,0.599609 a 0.06708357,0.06708357 0 0 1 -0.09375,0 L 6.5488281,12.558594 a 0.06708357,0.06708357 0 0 1 0,-0.09375 l 0.6015625,-0.59961 c 0.06093,-0.06124 0.069046,-0.157315 0.021484,-0.230468 -0.2256271,-0.341843 -0.3872726,-0.72337 -0.4765625,-1.123047 -0.018799,-0.08697 -0.092703,-0.146604 -0.1816406,-0.144531 a 0.06708357,0.06708357 0 0 1 -0.00195,0 H 5.6757812 a 0.06708357,0.06708357 0 0 1 -0.066406,-0.06641 v -0.251953 a 0.06708357,0.06708357 0 0 1 0.066406,-0.066406 z m 2.7949219,0 c 0.0026,0 0.00911,0 0.00977,0 h 3.0898432 a 0.06708357,0.06708357 0 0 1 0.06641,0.076172 C 11.492907,10.948055 10.655096,11.555939 9.765625,11.412109 9.0712748,11.299865 8.5243622,10.752942 8.4121094,10.058594 a 0.06708357,0.06708357 0 0 1 0.058594,-0.076172 z" />
    </g>
  </g>
</svg>
