<?xml version="1.0" encoding="UTF-8"?>
<svg width="48px" height="48px" viewBox="0 0 48 48" version="1.1" xmlns="http://www.w3.org/2000/svg" xmlns:xlink="http://www.w3.org/1999/xlink">
    <!-- Generator: Sketch 48.1 (47250) - http://www.bohemiancoding.com/sketch -->

    <desc>Created with Sketch.</desc>
    <defs></defs>
    <g id="AM-0" stroke="none" stroke-width="1" fill="none" fill-rule="evenodd" transform="translate(-400.000000, -200.000000)">
        <g id="Azure-Migrate/Icon48" transform="translate(400.000000, 200.000000)">
            <path d="M24,48 C37.254834,48 48,37.254834 48,24 C48,10.745166 37.254834,0 24,0 C10.745166,0 0,10.745166 0,24 C0,37.254834 10.745166,48 24,48 Z" id="Pat-Benetar" fill="#C8CCD7"></path>
            <g id="Group-2" stroke-width="1" transform="translate(7.000000, 11.000000)" stroke="#0044CA" stroke-linecap="round">
                <g id="Group" stroke-width="1.5">
                    <polyline id="Rectangle-Copy" stroke-linejoin="round" transform="translate(15.583333, 14.400000) rotate(-405.000000) translate(-15.583333, -14.400000) " points="19.2563602 10.6664762 19.2563602 18.1335238 11.9103064 18.1335238"></polyline>
                    <polyline id="Rectangle-Copy" stroke-linejoin="round" transform="translate(22.194444, 14.400000) rotate(-405.000000) translate(-22.194444, -14.400000) " points="25.8674713 10.6664762 25.8674713 18.1335238 18.5214176 18.1335238"></polyline>
                    <polyline id="Rectangle-Copy" stroke-linejoin="round" transform="translate(8.972222, 14.400000) rotate(-405.000000) translate(-8.972222, -14.400000) " points="12.6452491 10.6664762 12.6452491 18.1335238 5.29919533 18.1335238"></polyline>
                    <path d="M13.6,0 C9.20788,0 5.69092,3.71625102 5.50392,8.36338293 C2.32288,9.29135481 0,12.36108 0,16.0002424 C0,20.3964728 3.3694,24 7.48,24 L27.88,24 C31.2426,24 34,21.0509985 34,17.4547438 C34,14.6184661 32.232,12.2127208 29.85608,11.363292 C29.71192,7.09942123 26.46016,3.63625345 22.44,3.63625345 C21.73348,3.63625345 21.07592,3.82242962 20.42108,4.02315081 C18.95976,1.64504106 16.46756,0 13.6,0 Z" id="Path-Copy" transform="translate(17.000000, 12.000000) scale(-1, 1) translate(-17.000000, -12.000000) "></path>
                </g>
            </g>
        </g>
    </g>
</svg>
