<?xml version="1.0" encoding="UTF-8"?>
<svg width="48px" height="31px" viewBox="0 0 48 31" version="1.1" xmlns="http://www.w3.org/2000/svg" xmlns:xlink="http://www.w3.org/1999/xlink">
    <!-- Generator: Sketch 48.1 (47250) - http://www.bohemiancoding.com/sketch -->
    <title>Group 6 Copy 2</title>
    <desc>Created with Sketch.</desc>
    <defs></defs>
    <g id="AM-0" stroke="none" stroke-width="1" fill="none" fill-rule="evenodd" transform="translate(-778.000000, -210.000000)">
        <g id="Group-6-Copy-2" transform="translate(778.000000, 210.000000)">
            <g id="Group-5">
                <path d="M41.1428571,25.6610799 L41.1428571,25.8333333 L9.42857143,25.8333333 L9.42857143,19.8055556 L12.2649615,19.8055556 C11.0112733,17.8117364 10.2857143,15.4493255 10.2857143,12.9166667 C10.2857143,5.78298865 16.0420532,0 23.1428571,0 C29.0801086,0 34.0774087,4.04304133 35.5557249,9.53815127 C36.718957,8.94525657 38.0349221,8.61111111 39.4285714,8.61111111 C44.1624407,8.61111111 48,12.4664369 48,17.2222222 C48,21.3882053 45.0552691,24.8632254 41.1428571,25.6610799 Z" id="Combined-Shape-Copy-5" fill="#616870"></path>
                <path d="M5.14285714,30.9836864 C2.26609384,30.763834 0,28.3491684 0,25.4027778 C0,22.3115173 2.49441354,19.8055556 5.57142857,19.8055556 C5.77612888,19.8055556 5.97825079,19.8166461 6.17723144,19.8382617 C6.06064143,19.1271392 6,18.3970731 6,17.6527778 C6,10.2813105 11.9482169,4.30555556 19.2857143,4.30555556 C25.3772266,4.30555556 30.5112269,8.42413185 32.0791898,14.0406827 C33.3683783,13.3243978 34.8510789,12.9166667 36.4285714,12.9166667 C41.3991342,12.9166667 45.4285714,16.9647587 45.4285714,21.9583333 C45.4285714,26.5133595 42.0758068,30.2816802 37.7142857,30.9084352 L37.7142857,31 L5.14285714,31 L5.14285714,30.9836864 Z" id="Combined-Shape-Copy-4" fill="#A4AAB5"></path>
                <g id="Group-3" transform="translate(13.714286, 6.027778)" fill="#FFFFFF" fill-rule="nonzero">
                    <path d="M-0.00923979018,24.9722222 L8.44556964,16.5174128 L2.26149019,10.3333333 L7.1102224,10.3333333 L13.3055258,16.5286367 L4.86194026,24.9722222 L-0.00923979018,24.9722222 Z" id="Combined-Shape"></path>
                    <path d="M15.4312364,22.3888889 L21.3027125,16.5174128 L16.8408553,12.0555556 L21.6895875,12.0555556 L26.1626686,16.5286367 L20.3024164,22.3888889 L15.4312364,22.3888889 Z" id="Combined-Shape-Copy"></path>
                    <path d="M10.2883793,10.3333333 L16.1598554,4.46185723 L11.6979981,0 L16.5467303,0 L21.0198115,4.47308115 L15.1595593,10.3333333 L10.2883793,10.3333333 Z" id="Combined-Shape-Copy-2"></path>
                </g>
            </g>
        </g>
    </g>
</svg>