<?xml version="1.0" encoding="UTF-8"?>
<svg width="32px" height="32px" viewBox="0 0 32 32" version="1.1" xmlns="http://www.w3.org/2000/svg" xmlns:xlink="http://www.w3.org/1999/xlink">
    <!-- Generator: Sketch 47.1 (45422) - http://www.bohemiancoding.com/sketch -->
    <title>Icon/User/Menu-White</title>
    <desc>Created with Sketch.</desc>
    <defs>
        <path d="M16,32 C24.836556,32 32,24.836556 32,16 C32,7.163444 24.836556,0 16,0 C7.163444,0 0,7.163444 0,16 C0,24.836556 7.163444,32 16,32 Z" id="path-1"></path>
    </defs>
    <g id="Symbols" stroke="none" stroke-width="1" fill="none" fill-rule="evenodd">
        <g id="Nav/Menu/Header" transform="translate(-1392.000000, -16.000000)">
            <g id="Icon/User/Menu-White" transform="translate(1392.000000, 16.000000)">
                <mask id="mask-2" fill="white">
                    <use xlink:href="#path-1"></use>
                </mask>
                <path stroke="#FFFFFF" stroke-width="1" d="M16,31.5 C24.5604136,31.5 31.5,24.5604136 31.5,16 C31.5,7.43958638 24.5604136,0.5 16,0.5 C7.43958638,0.5 0.5,7.43958638 0.5,16 C0.5,24.5604136 7.43958638,31.5 16,31.5 Z"></path>
                <path d="M3.5,31.5 L28.5,31.5 L28.5,31.372093 C28.5,28.1259242 26.6002264,26.5720998 22.1841273,24.8037022 L22.1851985,24.8041298 C20.0606159,23.9590364 19.4,23.6128065 19.4,22.8953488 L19.4,19.8165687 L19.6040994,19.6667255 C21.1020937,18.5669458 22,16.8321715 22,15.0465116 L22,11.2790698 C22,8.10566664 19.3026525,5.5 16,5.5 C12.6973475,5.5 10,8.10566664 10,11.2790698 L10,15.0465116 C10,16.8535663 10.914268,18.6360097 12.3854978,19.6592909 L12.6,19.8084831 L12.6,22.8953488 C12.6,23.4681068 12.1423646,23.7458894 10.6899496,24.4096972 C10.5969773,24.452189 10.5345772,24.4804342 10.3789006,24.550583 C10.1031859,24.6743704 9.96405989,24.7369128 9.8159118,24.8036866 C5.39938368,26.5726873 3.5,28.1260975 3.5,31.372093 L3.5,31.5 Z" id="Fill-1" stroke="#FFFFFF" stroke-width="1" mask="url(#mask-2)"></path>
            </g>
        </g>
    </g>
</svg>