<?xml version="1.0" encoding="UTF-8"?>
<svg width="32px" height="32px" viewBox="0 0 32 32" version="1.1" xmlns="http://www.w3.org/2000/svg" xmlns:xlink="http://www.w3.org/1999/xlink">
    <!-- Generator: Sketch 50.2 (55047) - http://www.bohemiancoding.com/sketch -->

    <desc>Created with Sketch.</desc>
    <defs>
        <path d="M16,32 C24.836556,32 32,24.836556 32,16 C32,7.163444 24.836556,0 16,0 C7.163444,0 0,7.163444 0,16 C0,24.836556 7.163444,32 16,32 Z" id="path-1"></path>
    </defs>
    <g id="Symbols" stroke="none" stroke-width="1" fill="none" fill-rule="evenodd">
        <g id="Nav/Menu/Header" transform="translate(-1392.000000, -16.000000)">
            <g id="Group" transform="translate(1347.000000, 16.000000)">
                <g id="Icon/User/Menu-White" transform="translate(45.000000, 0.000000)">
                    <g id="Pat-Benetar">
                        <path d="M4.63358711,27.260759 C1.76914441,24.3696092 0,20.3914075 0,16 C0,7.163444 7.163444,0 16,0 C24.836556,0 32,7.163444 32,16 C32,20.3913572 30.2308961,24.3695181 27.3665113,27.2606597 C25.970445,25.7970172 23.9438599,24.9697766 22.37,24.3395349 C21.265,23.9 19.9,23.3342558 19.9,22.8953488 L19.9,20.0697674 C21.525,18.8767442 22.5,16.9930233 22.5,15.0465116 L22.5,11.2790698 C22.5,7.8255814 19.575,5 16,5 C12.425,5 9.5,7.8255814 9.5,11.2790698 L9.5,15.0465116 C9.5,16.9930233 10.475,18.9395349 12.1,20.0697674 L12.1,22.8953488 C12.1,23.272093 10.735,23.8372093 9.63,24.3395349 C8.05648832,24.9697909 6.02977773,25.7970546 4.63358711,27.260759 Z" id="Combined-Shape" fill="#FFFFFF"></path>
                        <mask id="mask-2" fill="white">
                            <use xlink:href="#path-1"></use>
                        </mask>
                        <path stroke="#FFFFFF" stroke-width="2" d="M16,31 C24.2842712,31 31,24.2842712 31,16 C31,7.71572875 24.2842712,1 16,1 C7.71572875,1 1,7.71572875 1,16 C1,24.2842712 7.71572875,31 16,31 Z"></path>
                    </g>
                </g>
            </g>
        </g>
    </g>
</svg>
