<?xml version="1.0" encoding="UTF-8"?>
<svg width="32px" height="32px" viewBox="0 0 32 32" version="1.1" xmlns="http://www.w3.org/2000/svg" xmlns:xlink="http://www.w3.org/1999/xlink">
    <!-- Generator: Sketch 47.1 (45422) - http://www.bohemiancoding.com/sketch -->
    <title>User-Icon-A</title>
    <desc>Created with Sketch.</desc>
    <defs>
        <path d="M16,32 C24.836556,32 32,24.836556 32,16 C32,7.163444 24.836556,0 16,0 C7.163444,0 0,7.163444 0,16 C0,24.836556 7.163444,32 16,32 Z" id="path-1"></path>
    </defs>
    <g id="Symbols" stroke="none" stroke-width="1" fill="none" fill-rule="evenodd">
        <g id="Nav/PNBU/Line" transform="translate(-432.000000, 0.000000)">
            <g id="User-Icon-A" transform="translate(432.000000, 0.000000)">
                <mask id="mask-2" fill="white">
                    <use xlink:href="#path-1"></use>
                </mask>
                <g id="Pat-Benetar">
                    <use fill="#FFFFFF" fill-rule="evenodd" xlink:href="#path-1"></use>
                    <path stroke="#A4AAB5" stroke-width="1" d="M16,31.5 C24.5604136,31.5 31.5,24.5604136 31.5,16 C31.5,7.43958638 24.5604136,0.5 16,0.5 C7.43958638,0.5 0.5,7.43958638 0.5,16 C0.5,24.5604136 7.43958638,31.5 16,31.5 Z"></path>
                </g>
                <path d="M22.37,24.3395349 C21.265,23.9 19.9,23.3342558 19.9,22.8953488 L19.9,20.0697674 C21.525,18.8767442 22.5,16.9930233 22.5,15.0465116 L22.5,11.2790698 C22.5,7.8255814 19.575,5 16,5 C12.425,5 9.5,7.8255814 9.5,11.2790698 L9.5,15.0465116 C9.5,16.9930233 10.475,18.9395349 12.1,20.0697674 L12.1,22.8953488 C12.1,23.272093 10.735,23.8372093 9.63,24.3395349 C6.965,25.4069767 3,27.0395349 3,31.372093 L3,32 L29,32 L29,31.372093 C29,27.0395349 25.03565,25.4069767 22.37,24.3395349" id="Fill-1" stroke="#A4AAB5" mask="url(#mask-2)"></path>
            </g>
        </g>
    </g>
</svg>